<?xml version="1.0" encoding="utf-8" standalone="no"?>
<!DOCTYPE svg PUBLIC "-//W3C//DTD SVG 1.1//EN"
  "http://www.w3.org/Graphics/SVG/1.1/DTD/svg11.dtd">
<!-- Created with matplotlib (https://matplotlib.org/) -->
<svg height="398.295938pt" version="1.1" viewBox="0 0 485.22875 398.295938" width="485.22875pt" xmlns="http://www.w3.org/2000/svg" xmlns:xlink="http://www.w3.org/1999/xlink">
 <defs>
  <style type="text/css">
*{stroke-linecap:butt;stroke-linejoin:round;}
  </style>
 </defs>
 <g id="figure_1">
  <g id="patch_1">
   <path d="M 0 398.295938 
L 485.22875 398.295938 
L 485.22875 -0 
L 0 -0 
z
" style="fill:none;"/>
  </g>
  <g id="axes_1">
   <g id="patch_2">
    <path d="M 82.42875 324.337188 
L 473.02875 324.337188 
L 473.02875 47.137187 
L 82.42875 47.137187 
z
" style="fill:none;"/>
   </g>
   <g id="matplotlib.axis_1">
    <g id="xtick_1">
     <g id="line2d_1">
      <defs>
       <path d="M 0 0 
L 0 5 
" id="m5bb2444df3" style="stroke:#000000;stroke-width:0.8;"/>
      </defs>
      <g>
       <use style="stroke:#000000;stroke-width:0.8;" x="112.148315" xlink:href="#m5bb2444df3" y="324.337188"/>
      </g>
     </g>
     <g id="text_1">
      <!-- 0.1 -->
      <defs>
       <path d="M 31.78125 66.40625 
Q 24.171875 66.40625 20.328125 58.90625 
Q 16.5 51.421875 16.5 36.375 
Q 16.5 21.390625 20.328125 13.890625 
Q 24.171875 6.390625 31.78125 6.390625 
Q 39.453125 6.390625 43.28125 13.890625 
Q 47.125 21.390625 47.125 36.375 
Q 47.125 51.421875 43.28125 58.90625 
Q 39.453125 66.40625 31.78125 66.40625 
z
M 31.78125 74.21875 
Q 44.046875 74.21875 50.515625 64.515625 
Q 56.984375 54.828125 56.984375 36.375 
Q 56.984375 17.96875 50.515625 8.265625 
Q 44.046875 -1.421875 31.78125 -1.421875 
Q 19.53125 -1.421875 13.0625 8.265625 
Q 6.59375 17.96875 6.59375 36.375 
Q 6.59375 54.828125 13.0625 64.515625 
Q 19.53125 74.21875 31.78125 74.21875 
z
" id="DejaVuSans-48"/>
       <path d="M 10.6875 12.40625 
L 21 12.40625 
L 21 0 
L 10.6875 0 
z
" id="DejaVuSans-46"/>
       <path d="M 12.40625 8.296875 
L 28.515625 8.296875 
L 28.515625 63.921875 
L 10.984375 60.40625 
L 10.984375 69.390625 
L 28.421875 72.90625 
L 38.28125 72.90625 
L 38.28125 8.296875 
L 54.390625 8.296875 
L 54.390625 0 
L 12.40625 0 
z
" id="DejaVuSans-49"/>
      </defs>
      <g transform="translate(89.88394 354.112813)scale(0.28 -0.28)">
       <use xlink:href="#DejaVuSans-48"/>
       <use x="63.623047" xlink:href="#DejaVuSans-46"/>
       <use x="95.410156" xlink:href="#DejaVuSans-49"/>
      </g>
     </g>
    </g>
    <g id="xtick_2">
     <g id="line2d_2">
      <g>
       <use style="stroke:#000000;stroke-width:0.8;" x="197.061359" xlink:href="#m5bb2444df3" y="324.337188"/>
      </g>
     </g>
     <g id="text_2">
      <!-- 0.2 -->
      <defs>
       <path d="M 19.1875 8.296875 
L 53.609375 8.296875 
L 53.609375 0 
L 7.328125 0 
L 7.328125 8.296875 
Q 12.9375 14.109375 22.625 23.890625 
Q 32.328125 33.6875 34.8125 36.53125 
Q 39.546875 41.84375 41.421875 45.53125 
Q 43.3125 49.21875 43.3125 52.78125 
Q 43.3125 58.59375 39.234375 62.25 
Q 35.15625 65.921875 28.609375 65.921875 
Q 23.96875 65.921875 18.8125 64.3125 
Q 13.671875 62.703125 7.8125 59.421875 
L 7.8125 69.390625 
Q 13.765625 71.78125 18.9375 73 
Q 24.125 74.21875 28.421875 74.21875 
Q 39.75 74.21875 46.484375 68.546875 
Q 53.21875 62.890625 53.21875 53.421875 
Q 53.21875 48.921875 51.53125 44.890625 
Q 49.859375 40.875 45.40625 35.40625 
Q 44.1875 33.984375 37.640625 27.21875 
Q 31.109375 20.453125 19.1875 8.296875 
z
" id="DejaVuSans-50"/>
      </defs>
      <g transform="translate(174.796984 354.112813)scale(0.28 -0.28)">
       <use xlink:href="#DejaVuSans-48"/>
       <use x="63.623047" xlink:href="#DejaVuSans-46"/>
       <use x="95.410156" xlink:href="#DejaVuSans-50"/>
      </g>
     </g>
    </g>
    <g id="xtick_3">
     <g id="line2d_3">
      <g>
       <use style="stroke:#000000;stroke-width:0.8;" x="281.974402" xlink:href="#m5bb2444df3" y="324.337188"/>
      </g>
     </g>
     <g id="text_3">
      <!-- 0.3 -->
      <defs>
       <path d="M 40.578125 39.3125 
Q 47.65625 37.796875 51.625 33 
Q 55.609375 28.21875 55.609375 21.1875 
Q 55.609375 10.40625 48.1875 4.484375 
Q 40.765625 -1.421875 27.09375 -1.421875 
Q 22.515625 -1.421875 17.65625 -0.515625 
Q 12.796875 0.390625 7.625 2.203125 
L 7.625 11.71875 
Q 11.71875 9.328125 16.59375 8.109375 
Q 21.484375 6.890625 26.8125 6.890625 
Q 36.078125 6.890625 40.9375 10.546875 
Q 45.796875 14.203125 45.796875 21.1875 
Q 45.796875 27.640625 41.28125 31.265625 
Q 36.765625 34.90625 28.71875 34.90625 
L 20.21875 34.90625 
L 20.21875 43.015625 
L 29.109375 43.015625 
Q 36.375 43.015625 40.234375 45.921875 
Q 44.09375 48.828125 44.09375 54.296875 
Q 44.09375 59.90625 40.109375 62.90625 
Q 36.140625 65.921875 28.71875 65.921875 
Q 24.65625 65.921875 20.015625 65.03125 
Q 15.375 64.15625 9.8125 62.3125 
L 9.8125 71.09375 
Q 15.4375 72.65625 20.34375 73.4375 
Q 25.25 74.21875 29.59375 74.21875 
Q 40.828125 74.21875 47.359375 69.109375 
Q 53.90625 64.015625 53.90625 55.328125 
Q 53.90625 49.265625 50.4375 45.09375 
Q 46.96875 40.921875 40.578125 39.3125 
z
" id="DejaVuSans-51"/>
      </defs>
      <g transform="translate(259.710027 354.112813)scale(0.28 -0.28)">
       <use xlink:href="#DejaVuSans-48"/>
       <use x="63.623047" xlink:href="#DejaVuSans-46"/>
       <use x="95.410156" xlink:href="#DejaVuSans-51"/>
      </g>
     </g>
    </g>
    <g id="xtick_4">
     <g id="line2d_4">
      <g>
       <use style="stroke:#000000;stroke-width:0.8;" x="366.887446" xlink:href="#m5bb2444df3" y="324.337188"/>
      </g>
     </g>
     <g id="text_4">
      <!-- 0.4 -->
      <defs>
       <path d="M 37.796875 64.3125 
L 12.890625 25.390625 
L 37.796875 25.390625 
z
M 35.203125 72.90625 
L 47.609375 72.90625 
L 47.609375 25.390625 
L 58.015625 25.390625 
L 58.015625 17.1875 
L 47.609375 17.1875 
L 47.609375 0 
L 37.796875 0 
L 37.796875 17.1875 
L 4.890625 17.1875 
L 4.890625 26.703125 
z
" id="DejaVuSans-52"/>
      </defs>
      <g transform="translate(344.623071 354.112813)scale(0.28 -0.28)">
       <use xlink:href="#DejaVuSans-48"/>
       <use x="63.623047" xlink:href="#DejaVuSans-46"/>
       <use x="95.410156" xlink:href="#DejaVuSans-52"/>
      </g>
     </g>
    </g>
    <g id="xtick_5">
     <g id="line2d_5">
      <g>
       <use style="stroke:#000000;stroke-width:0.8;" x="451.800489" xlink:href="#m5bb2444df3" y="324.337188"/>
      </g>
     </g>
     <g id="text_5">
      <!-- 0.5 -->
      <defs>
       <path d="M 10.796875 72.90625 
L 49.515625 72.90625 
L 49.515625 64.59375 
L 19.828125 64.59375 
L 19.828125 46.734375 
Q 21.96875 47.46875 24.109375 47.828125 
Q 26.265625 48.1875 28.421875 48.1875 
Q 40.625 48.1875 47.75 41.5 
Q 54.890625 34.8125 54.890625 23.390625 
Q 54.890625 11.625 47.5625 5.09375 
Q 40.234375 -1.421875 26.90625 -1.421875 
Q 22.3125 -1.421875 17.546875 -0.640625 
Q 12.796875 0.140625 7.71875 1.703125 
L 7.71875 11.625 
Q 12.109375 9.234375 16.796875 8.0625 
Q 21.484375 6.890625 26.703125 6.890625 
Q 35.15625 6.890625 40.078125 11.328125 
Q 45.015625 15.765625 45.015625 23.390625 
Q 45.015625 31 40.078125 35.4375 
Q 35.15625 39.890625 26.703125 39.890625 
Q 22.75 39.890625 18.8125 39.015625 
Q 14.890625 38.140625 10.796875 36.28125 
z
" id="DejaVuSans-53"/>
      </defs>
      <g transform="translate(429.536114 354.112813)scale(0.28 -0.28)">
       <use xlink:href="#DejaVuSans-48"/>
       <use x="63.623047" xlink:href="#DejaVuSans-46"/>
       <use x="95.410156" xlink:href="#DejaVuSans-53"/>
      </g>
     </g>
    </g>
    <g id="text_6">
     <!-- Underlying $\Psi$ -->
     <defs>
      <path d="M 8.6875 72.90625 
L 18.609375 72.90625 
L 18.609375 28.609375 
Q 18.609375 16.890625 22.84375 11.734375 
Q 27.09375 6.59375 36.625 6.59375 
Q 46.09375 6.59375 50.34375 11.734375 
Q 54.59375 16.890625 54.59375 28.609375 
L 54.59375 72.90625 
L 64.5 72.90625 
L 64.5 27.390625 
Q 64.5 13.140625 57.4375 5.859375 
Q 50.390625 -1.421875 36.625 -1.421875 
Q 22.796875 -1.421875 15.734375 5.859375 
Q 8.6875 13.140625 8.6875 27.390625 
z
" id="DejaVuSans-85"/>
      <path d="M 54.890625 33.015625 
L 54.890625 0 
L 45.90625 0 
L 45.90625 32.71875 
Q 45.90625 40.484375 42.875 44.328125 
Q 39.84375 48.1875 33.796875 48.1875 
Q 26.515625 48.1875 22.3125 43.546875 
Q 18.109375 38.921875 18.109375 30.90625 
L 18.109375 0 
L 9.078125 0 
L 9.078125 54.6875 
L 18.109375 54.6875 
L 18.109375 46.1875 
Q 21.34375 51.125 25.703125 53.5625 
Q 30.078125 56 35.796875 56 
Q 45.21875 56 50.046875 50.171875 
Q 54.890625 44.34375 54.890625 33.015625 
z
" id="DejaVuSans-110"/>
      <path d="M 45.40625 46.390625 
L 45.40625 75.984375 
L 54.390625 75.984375 
L 54.390625 0 
L 45.40625 0 
L 45.40625 8.203125 
Q 42.578125 3.328125 38.25 0.953125 
Q 33.9375 -1.421875 27.875 -1.421875 
Q 17.96875 -1.421875 11.734375 6.484375 
Q 5.515625 14.40625 5.515625 27.296875 
Q 5.515625 40.1875 11.734375 48.09375 
Q 17.96875 56 27.875 56 
Q 33.9375 56 38.25 53.625 
Q 42.578125 51.265625 45.40625 46.390625 
z
M 14.796875 27.296875 
Q 14.796875 17.390625 18.875 11.75 
Q 22.953125 6.109375 30.078125 6.109375 
Q 37.203125 6.109375 41.296875 11.75 
Q 45.40625 17.390625 45.40625 27.296875 
Q 45.40625 37.203125 41.296875 42.84375 
Q 37.203125 48.484375 30.078125 48.484375 
Q 22.953125 48.484375 18.875 42.84375 
Q 14.796875 37.203125 14.796875 27.296875 
z
" id="DejaVuSans-100"/>
      <path d="M 56.203125 29.59375 
L 56.203125 25.203125 
L 14.890625 25.203125 
Q 15.484375 15.921875 20.484375 11.0625 
Q 25.484375 6.203125 34.421875 6.203125 
Q 39.59375 6.203125 44.453125 7.46875 
Q 49.3125 8.734375 54.109375 11.28125 
L 54.109375 2.78125 
Q 49.265625 0.734375 44.1875 -0.34375 
Q 39.109375 -1.421875 33.890625 -1.421875 
Q 20.796875 -1.421875 13.15625 6.1875 
Q 5.515625 13.8125 5.515625 26.8125 
Q 5.515625 40.234375 12.765625 48.109375 
Q 20.015625 56 32.328125 56 
Q 43.359375 56 49.78125 48.890625 
Q 56.203125 41.796875 56.203125 29.59375 
z
M 47.21875 32.234375 
Q 47.125 39.59375 43.09375 43.984375 
Q 39.0625 48.390625 32.421875 48.390625 
Q 24.90625 48.390625 20.390625 44.140625 
Q 15.875 39.890625 15.1875 32.171875 
z
" id="DejaVuSans-101"/>
      <path d="M 41.109375 46.296875 
Q 39.59375 47.171875 37.8125 47.578125 
Q 36.03125 48 33.890625 48 
Q 26.265625 48 22.1875 43.046875 
Q 18.109375 38.09375 18.109375 28.8125 
L 18.109375 0 
L 9.078125 0 
L 9.078125 54.6875 
L 18.109375 54.6875 
L 18.109375 46.1875 
Q 20.953125 51.171875 25.484375 53.578125 
Q 30.03125 56 36.53125 56 
Q 37.453125 56 38.578125 55.875 
Q 39.703125 55.765625 41.0625 55.515625 
z
" id="DejaVuSans-114"/>
      <path d="M 9.421875 75.984375 
L 18.40625 75.984375 
L 18.40625 0 
L 9.421875 0 
z
" id="DejaVuSans-108"/>
      <path d="M 32.171875 -5.078125 
Q 28.375 -14.84375 24.75 -17.8125 
Q 21.140625 -20.796875 15.09375 -20.796875 
L 7.90625 -20.796875 
L 7.90625 -13.28125 
L 13.1875 -13.28125 
Q 16.890625 -13.28125 18.9375 -11.515625 
Q 21 -9.765625 23.484375 -3.21875 
L 25.09375 0.875 
L 2.984375 54.6875 
L 12.5 54.6875 
L 29.59375 11.921875 
L 46.6875 54.6875 
L 56.203125 54.6875 
z
" id="DejaVuSans-121"/>
      <path d="M 9.421875 54.6875 
L 18.40625 54.6875 
L 18.40625 0 
L 9.421875 0 
z
M 9.421875 75.984375 
L 18.40625 75.984375 
L 18.40625 64.59375 
L 9.421875 64.59375 
z
" id="DejaVuSans-105"/>
      <path d="M 45.40625 27.984375 
Q 45.40625 37.75 41.375 43.109375 
Q 37.359375 48.484375 30.078125 48.484375 
Q 22.859375 48.484375 18.828125 43.109375 
Q 14.796875 37.75 14.796875 27.984375 
Q 14.796875 18.265625 18.828125 12.890625 
Q 22.859375 7.515625 30.078125 7.515625 
Q 37.359375 7.515625 41.375 12.890625 
Q 45.40625 18.265625 45.40625 27.984375 
z
M 54.390625 6.78125 
Q 54.390625 -7.171875 48.1875 -13.984375 
Q 42 -20.796875 29.203125 -20.796875 
Q 24.46875 -20.796875 20.265625 -20.09375 
Q 16.0625 -19.390625 12.109375 -17.921875 
L 12.109375 -9.1875 
Q 16.0625 -11.328125 19.921875 -12.34375 
Q 23.78125 -13.375 27.78125 -13.375 
Q 36.625 -13.375 41.015625 -8.765625 
Q 45.40625 -4.15625 45.40625 5.171875 
L 45.40625 9.625 
Q 42.625 4.78125 38.28125 2.390625 
Q 33.9375 0 27.875 0 
Q 17.828125 0 11.671875 7.65625 
Q 5.515625 15.328125 5.515625 27.984375 
Q 5.515625 40.671875 11.671875 48.328125 
Q 17.828125 56 27.875 56 
Q 33.9375 56 38.28125 53.609375 
Q 42.625 51.21875 45.40625 46.390625 
L 45.40625 54.6875 
L 54.390625 54.6875 
z
" id="DejaVuSans-103"/>
      <path id="DejaVuSans-32"/>
      <path d="M 72.40625 69 
L 72.40625 67.09375 
Q 69.796875 66.59375 68.75 63.34375 
Q 67.703125 60.09375 67.703125 56.703125 
Q 67.703125 55.203125 67.890625 52.203125 
Q 68.09375 49.203125 68.09375 47.703125 
Q 68.09375 40.59375 64.34375 35.796875 
Q 60.59375 31 55 29 
Q 49.40625 27 42.40625 27 
L 42.40625 11.09375 
Q 42.40625 5.296875 44.546875 3.6875 
Q 46.703125 2.09375 52.703125 1.90625 
L 52.703125 0 
L 22.09375 0 
L 22.09375 1.90625 
Q 28.59375 2.203125 30.390625 4.046875 
Q 32.203125 5.90625 32.203125 12.40625 
L 32.203125 27 
Q 25.203125 27 19.59375 29 
Q 14 31 10.25 35.796875 
Q 6.5 40.59375 6.5 47.703125 
Q 6.5 49.203125 6.703125 52.203125 
Q 6.90625 55.203125 6.90625 56.703125 
Q 6.90625 60.09375 5.84375 63.34375 
Q 4.796875 66.59375 2.203125 67.09375 
L 2.203125 69 
Q 17.703125 69 17.703125 50.90625 
Q 17.703125 47.59375 17.890625 45.09375 
Q 18.09375 42.59375 18.9375 39.75 
Q 19.796875 36.90625 21.140625 35.046875 
Q 22.5 33.203125 25.046875 31.953125 
Q 27.59375 30.703125 31.09375 30.703125 
L 32.203125 30.703125 
L 32.203125 56.203125 
Q 32.203125 61.09375 29.75 62.6875 
Q 27.296875 64.296875 22.09375 64.296875 
L 22.09375 66.203125 
L 52.703125 66.203125 
L 52.703125 64.296875 
Q 47.296875 64.296875 44.84375 62.796875 
Q 42.40625 61.296875 42.40625 56.203125 
L 42.40625 30.703125 
L 43.5 30.703125 
Q 47 30.703125 49.546875 31.953125 
Q 52.09375 33.203125 53.4375 35.046875 
Q 54.796875 36.90625 55.640625 39.75 
Q 56.5 42.59375 56.703125 45.09375 
Q 56.90625 47.59375 56.90625 50.90625 
Q 56.90625 69 72.40625 69 
z
" id="STIXGeneral-Regular-936"/>
     </defs>
     <g transform="translate(186.58875 385.215938)scale(0.28 -0.28)">
      <use transform="translate(0 0.015625)" xlink:href="#DejaVuSans-85"/>
      <use transform="translate(73.193359 0.015625)" xlink:href="#DejaVuSans-110"/>
      <use transform="translate(136.572266 0.015625)" xlink:href="#DejaVuSans-100"/>
      <use transform="translate(200.048828 0.015625)" xlink:href="#DejaVuSans-101"/>
      <use transform="translate(261.572266 0.015625)" xlink:href="#DejaVuSans-114"/>
      <use transform="translate(302.685547 0.015625)" xlink:href="#DejaVuSans-108"/>
      <use transform="translate(330.46875 0.015625)" xlink:href="#DejaVuSans-121"/>
      <use transform="translate(389.648438 0.015625)" xlink:href="#DejaVuSans-105"/>
      <use transform="translate(417.431641 0.015625)" xlink:href="#DejaVuSans-110"/>
      <use transform="translate(480.810547 0.015625)" xlink:href="#DejaVuSans-103"/>
      <use transform="translate(544.287109 0.015625)" xlink:href="#DejaVuSans-32"/>
      <use transform="translate(576.074219 0.015625)" xlink:href="#STIXGeneral-Regular-936"/>
     </g>
    </g>
   </g>
   <g id="matplotlib.axis_2">
    <g id="ytick_1">
     <g id="line2d_6">
      <defs>
       <path d="M 0 0 
L -5 0 
" id="m7c736fe241" style="stroke:#000000;stroke-width:0.8;"/>
      </defs>
      <g>
       <use style="stroke:#000000;stroke-width:0.8;" x="82.42875" xlink:href="#m7c736fe241" y="287.300824"/>
      </g>
     </g>
     <g id="text_7">
      <!-- 5 -->
      <g transform="translate(56.11375 297.938636)scale(0.28 -0.28)">
       <use xlink:href="#DejaVuSans-53"/>
      </g>
     </g>
    </g>
    <g id="ytick_2">
     <g id="line2d_7">
      <g>
       <use style="stroke:#000000;stroke-width:0.8;" x="82.42875" xlink:href="#m7c736fe241" y="210.937187"/>
      </g>
     </g>
     <g id="text_8">
      <!-- 10 -->
      <g transform="translate(38.29875 221.575)scale(0.28 -0.28)">
       <use xlink:href="#DejaVuSans-49"/>
       <use x="63.623047" xlink:href="#DejaVuSans-48"/>
      </g>
     </g>
    </g>
    <g id="ytick_3">
     <g id="line2d_8">
      <g>
       <use style="stroke:#000000;stroke-width:0.8;" x="82.42875" xlink:href="#m7c736fe241" y="134.573551"/>
      </g>
     </g>
     <g id="text_9">
      <!-- 15 -->
      <g transform="translate(38.29875 145.211364)scale(0.28 -0.28)">
       <use xlink:href="#DejaVuSans-49"/>
       <use x="63.623047" xlink:href="#DejaVuSans-53"/>
      </g>
     </g>
    </g>
    <g id="ytick_4">
     <g id="line2d_9">
      <g>
       <use style="stroke:#000000;stroke-width:0.8;" x="82.42875" xlink:href="#m7c736fe241" y="58.209915"/>
      </g>
     </g>
     <g id="text_10">
      <!-- 20 -->
      <g transform="translate(38.29875 68.847727)scale(0.28 -0.28)">
       <use xlink:href="#DejaVuSans-50"/>
       <use x="63.623047" xlink:href="#DejaVuSans-48"/>
      </g>
     </g>
    </g>
    <g id="text_11">
     <!-- mRNAs at inflection point -->
     <defs>
      <path d="M 52 44.1875 
Q 55.375 50.25 60.0625 53.125 
Q 64.75 56 71.09375 56 
Q 79.640625 56 84.28125 50.015625 
Q 88.921875 44.046875 88.921875 33.015625 
L 88.921875 0 
L 79.890625 0 
L 79.890625 32.71875 
Q 79.890625 40.578125 77.09375 44.375 
Q 74.3125 48.1875 68.609375 48.1875 
Q 61.625 48.1875 57.5625 43.546875 
Q 53.515625 38.921875 53.515625 30.90625 
L 53.515625 0 
L 44.484375 0 
L 44.484375 32.71875 
Q 44.484375 40.625 41.703125 44.40625 
Q 38.921875 48.1875 33.109375 48.1875 
Q 26.21875 48.1875 22.15625 43.53125 
Q 18.109375 38.875 18.109375 30.90625 
L 18.109375 0 
L 9.078125 0 
L 9.078125 54.6875 
L 18.109375 54.6875 
L 18.109375 46.1875 
Q 21.1875 51.21875 25.484375 53.609375 
Q 29.78125 56 35.6875 56 
Q 41.65625 56 45.828125 52.96875 
Q 50 49.953125 52 44.1875 
z
" id="DejaVuSans-109"/>
      <path d="M 44.390625 34.1875 
Q 47.5625 33.109375 50.5625 29.59375 
Q 53.5625 26.078125 56.59375 19.921875 
L 66.609375 0 
L 56 0 
L 46.6875 18.703125 
Q 43.0625 26.03125 39.671875 28.421875 
Q 36.28125 30.8125 30.421875 30.8125 
L 19.671875 30.8125 
L 19.671875 0 
L 9.8125 0 
L 9.8125 72.90625 
L 32.078125 72.90625 
Q 44.578125 72.90625 50.734375 67.671875 
Q 56.890625 62.453125 56.890625 51.90625 
Q 56.890625 45.015625 53.6875 40.46875 
Q 50.484375 35.9375 44.390625 34.1875 
z
M 19.671875 64.796875 
L 19.671875 38.921875 
L 32.078125 38.921875 
Q 39.203125 38.921875 42.84375 42.21875 
Q 46.484375 45.515625 46.484375 51.90625 
Q 46.484375 58.296875 42.84375 61.546875 
Q 39.203125 64.796875 32.078125 64.796875 
z
" id="DejaVuSans-82"/>
      <path d="M 9.8125 72.90625 
L 23.09375 72.90625 
L 55.421875 11.921875 
L 55.421875 72.90625 
L 64.984375 72.90625 
L 64.984375 0 
L 51.703125 0 
L 19.390625 60.984375 
L 19.390625 0 
L 9.8125 0 
z
" id="DejaVuSans-78"/>
      <path d="M 34.1875 63.1875 
L 20.796875 26.90625 
L 47.609375 26.90625 
z
M 28.609375 72.90625 
L 39.796875 72.90625 
L 67.578125 0 
L 57.328125 0 
L 50.6875 18.703125 
L 17.828125 18.703125 
L 11.1875 0 
L 0.78125 0 
z
" id="DejaVuSans-65"/>
      <path d="M 44.28125 53.078125 
L 44.28125 44.578125 
Q 40.484375 46.53125 36.375 47.5 
Q 32.28125 48.484375 27.875 48.484375 
Q 21.1875 48.484375 17.84375 46.4375 
Q 14.5 44.390625 14.5 40.28125 
Q 14.5 37.15625 16.890625 35.375 
Q 19.28125 33.59375 26.515625 31.984375 
L 29.59375 31.296875 
Q 39.15625 29.25 43.1875 25.515625 
Q 47.21875 21.78125 47.21875 15.09375 
Q 47.21875 7.46875 41.1875 3.015625 
Q 35.15625 -1.421875 24.609375 -1.421875 
Q 20.21875 -1.421875 15.453125 -0.5625 
Q 10.6875 0.296875 5.421875 2 
L 5.421875 11.28125 
Q 10.40625 8.6875 15.234375 7.390625 
Q 20.0625 6.109375 24.8125 6.109375 
Q 31.15625 6.109375 34.5625 8.28125 
Q 37.984375 10.453125 37.984375 14.40625 
Q 37.984375 18.0625 35.515625 20.015625 
Q 33.0625 21.96875 24.703125 23.78125 
L 21.578125 24.515625 
Q 13.234375 26.265625 9.515625 29.90625 
Q 5.8125 33.546875 5.8125 39.890625 
Q 5.8125 47.609375 11.28125 51.796875 
Q 16.75 56 26.8125 56 
Q 31.78125 56 36.171875 55.265625 
Q 40.578125 54.546875 44.28125 53.078125 
z
" id="DejaVuSans-115"/>
      <path d="M 34.28125 27.484375 
Q 23.390625 27.484375 19.1875 25 
Q 14.984375 22.515625 14.984375 16.5 
Q 14.984375 11.71875 18.140625 8.90625 
Q 21.296875 6.109375 26.703125 6.109375 
Q 34.1875 6.109375 38.703125 11.40625 
Q 43.21875 16.703125 43.21875 25.484375 
L 43.21875 27.484375 
z
M 52.203125 31.203125 
L 52.203125 0 
L 43.21875 0 
L 43.21875 8.296875 
Q 40.140625 3.328125 35.546875 0.953125 
Q 30.953125 -1.421875 24.3125 -1.421875 
Q 15.921875 -1.421875 10.953125 3.296875 
Q 6 8.015625 6 15.921875 
Q 6 25.140625 12.171875 29.828125 
Q 18.359375 34.515625 30.609375 34.515625 
L 43.21875 34.515625 
L 43.21875 35.40625 
Q 43.21875 41.609375 39.140625 45 
Q 35.0625 48.390625 27.6875 48.390625 
Q 23 48.390625 18.546875 47.265625 
Q 14.109375 46.140625 10.015625 43.890625 
L 10.015625 52.203125 
Q 14.9375 54.109375 19.578125 55.046875 
Q 24.21875 56 28.609375 56 
Q 40.484375 56 46.34375 49.84375 
Q 52.203125 43.703125 52.203125 31.203125 
z
" id="DejaVuSans-97"/>
      <path d="M 18.3125 70.21875 
L 18.3125 54.6875 
L 36.8125 54.6875 
L 36.8125 47.703125 
L 18.3125 47.703125 
L 18.3125 18.015625 
Q 18.3125 11.328125 20.140625 9.421875 
Q 21.96875 7.515625 27.59375 7.515625 
L 36.8125 7.515625 
L 36.8125 0 
L 27.59375 0 
Q 17.1875 0 13.234375 3.875 
Q 9.28125 7.765625 9.28125 18.015625 
L 9.28125 47.703125 
L 2.6875 47.703125 
L 2.6875 54.6875 
L 9.28125 54.6875 
L 9.28125 70.21875 
z
" id="DejaVuSans-116"/>
      <path d="M 37.109375 75.984375 
L 37.109375 68.5 
L 28.515625 68.5 
Q 23.6875 68.5 21.796875 66.546875 
Q 19.921875 64.59375 19.921875 59.515625 
L 19.921875 54.6875 
L 34.71875 54.6875 
L 34.71875 47.703125 
L 19.921875 47.703125 
L 19.921875 0 
L 10.890625 0 
L 10.890625 47.703125 
L 2.296875 47.703125 
L 2.296875 54.6875 
L 10.890625 54.6875 
L 10.890625 58.5 
Q 10.890625 67.625 15.140625 71.796875 
Q 19.390625 75.984375 28.609375 75.984375 
z
" id="DejaVuSans-102"/>
      <path d="M 48.78125 52.59375 
L 48.78125 44.1875 
Q 44.96875 46.296875 41.140625 47.34375 
Q 37.3125 48.390625 33.40625 48.390625 
Q 24.65625 48.390625 19.8125 42.84375 
Q 14.984375 37.3125 14.984375 27.296875 
Q 14.984375 17.28125 19.8125 11.734375 
Q 24.65625 6.203125 33.40625 6.203125 
Q 37.3125 6.203125 41.140625 7.25 
Q 44.96875 8.296875 48.78125 10.40625 
L 48.78125 2.09375 
Q 45.015625 0.34375 40.984375 -0.53125 
Q 36.96875 -1.421875 32.421875 -1.421875 
Q 20.0625 -1.421875 12.78125 6.34375 
Q 5.515625 14.109375 5.515625 27.296875 
Q 5.515625 40.671875 12.859375 48.328125 
Q 20.21875 56 33.015625 56 
Q 37.15625 56 41.109375 55.140625 
Q 45.0625 54.296875 48.78125 52.59375 
z
" id="DejaVuSans-99"/>
      <path d="M 30.609375 48.390625 
Q 23.390625 48.390625 19.1875 42.75 
Q 14.984375 37.109375 14.984375 27.296875 
Q 14.984375 17.484375 19.15625 11.84375 
Q 23.34375 6.203125 30.609375 6.203125 
Q 37.796875 6.203125 41.984375 11.859375 
Q 46.1875 17.53125 46.1875 27.296875 
Q 46.1875 37.015625 41.984375 42.703125 
Q 37.796875 48.390625 30.609375 48.390625 
z
M 30.609375 56 
Q 42.328125 56 49.015625 48.375 
Q 55.71875 40.765625 55.71875 27.296875 
Q 55.71875 13.875 49.015625 6.21875 
Q 42.328125 -1.421875 30.609375 -1.421875 
Q 18.84375 -1.421875 12.171875 6.21875 
Q 5.515625 13.875 5.515625 27.296875 
Q 5.515625 40.765625 12.171875 48.375 
Q 18.84375 56 30.609375 56 
z
" id="DejaVuSans-111"/>
      <path d="M 18.109375 8.203125 
L 18.109375 -20.796875 
L 9.078125 -20.796875 
L 9.078125 54.6875 
L 18.109375 54.6875 
L 18.109375 46.390625 
Q 20.953125 51.265625 25.265625 53.625 
Q 29.59375 56 35.59375 56 
Q 45.5625 56 51.78125 48.09375 
Q 58.015625 40.1875 58.015625 27.296875 
Q 58.015625 14.40625 51.78125 6.484375 
Q 45.5625 -1.421875 35.59375 -1.421875 
Q 29.59375 -1.421875 25.265625 0.953125 
Q 20.953125 3.328125 18.109375 8.203125 
z
M 48.6875 27.296875 
Q 48.6875 37.203125 44.609375 42.84375 
Q 40.53125 48.484375 33.40625 48.484375 
Q 26.265625 48.484375 22.1875 42.84375 
Q 18.109375 37.203125 18.109375 27.296875 
Q 18.109375 17.390625 22.1875 11.75 
Q 26.265625 6.109375 33.40625 6.109375 
Q 40.53125 6.109375 44.609375 11.75 
Q 48.6875 17.390625 48.6875 27.296875 
z
" id="DejaVuSans-112"/>
     </defs>
     <g transform="translate(28.475625 364.274375)rotate(-90)scale(0.28 -0.28)">
      <use xlink:href="#DejaVuSans-109"/>
      <use x="97.412109" xlink:href="#DejaVuSans-82"/>
      <use x="166.894531" xlink:href="#DejaVuSans-78"/>
      <use x="241.699219" xlink:href="#DejaVuSans-65"/>
      <use x="310.107422" xlink:href="#DejaVuSans-115"/>
      <use x="362.207031" xlink:href="#DejaVuSans-32"/>
      <use x="393.994141" xlink:href="#DejaVuSans-97"/>
      <use x="455.273438" xlink:href="#DejaVuSans-116"/>
      <use x="494.482422" xlink:href="#DejaVuSans-32"/>
      <use x="526.269531" xlink:href="#DejaVuSans-105"/>
      <use x="554.052734" xlink:href="#DejaVuSans-110"/>
      <use x="617.431641" xlink:href="#DejaVuSans-102"/>
      <use x="652.636719" xlink:href="#DejaVuSans-108"/>
      <use x="680.419922" xlink:href="#DejaVuSans-101"/>
      <use x="741.943359" xlink:href="#DejaVuSans-99"/>
      <use x="796.923828" xlink:href="#DejaVuSans-116"/>
      <use x="836.132812" xlink:href="#DejaVuSans-105"/>
      <use x="863.916016" xlink:href="#DejaVuSans-111"/>
      <use x="925.097656" xlink:href="#DejaVuSans-110"/>
      <use x="988.476562" xlink:href="#DejaVuSans-32"/>
      <use x="1020.263672" xlink:href="#DejaVuSans-112"/>
      <use x="1083.740234" xlink:href="#DejaVuSans-111"/>
      <use x="1144.921875" xlink:href="#DejaVuSans-105"/>
      <use x="1172.705078" xlink:href="#DejaVuSans-110"/>
      <use x="1236.083984" xlink:href="#DejaVuSans-116"/>
     </g>
    </g>
   </g>
   <g id="line2d_10">
    <path clip-path="url(#pf72addd3b3)" d="M 84.551576 71.955369 
L 88.797228 71.955369 
L 88.797228 63.555369 
L 84.551576 63.555369 
L 84.551576 71.955369 
" style="fill:none;stroke:#00008b;stroke-linecap:square;stroke-width:0.5;"/>
   </g>
   <g id="line2d_11">
    <path clip-path="url(#pf72addd3b3)" d="M 86.674402 71.955369 
L 86.674402 78.06446 
" style="fill:none;stroke:#00008b;stroke-dasharray:1.85,0.8;stroke-dashoffset:0;stroke-width:0.5;"/>
   </g>
   <g id="line2d_12">
    <path clip-path="url(#pf72addd3b3)" d="M 86.674402 63.555369 
L 86.674402 61.26446 
" style="fill:none;stroke:#00008b;stroke-dasharray:1.85,0.8;stroke-dashoffset:0;stroke-width:0.5;"/>
   </g>
   <g id="line2d_13">
    <path clip-path="url(#pf72addd3b3)" d="M 85.612989 78.06446 
L 87.735815 78.06446 
" style="fill:none;stroke:#000000;stroke-linecap:square;stroke-width:0.5;"/>
   </g>
   <g id="line2d_14">
    <path clip-path="url(#pf72addd3b3)" d="M 85.612989 61.26446 
L 87.735815 61.26446 
" style="fill:none;stroke:#000000;stroke-linecap:square;stroke-width:0.5;"/>
   </g>
   <g id="line2d_15">
    <path clip-path="url(#pf72addd3b3)" d="M 93.04288 92.955369 
L 97.288533 92.955369 
L 97.288533 70.809915 
L 93.04288 70.809915 
L 93.04288 92.955369 
" style="fill:none;stroke:#00008b;stroke-linecap:square;stroke-width:0.5;"/>
   </g>
   <g id="line2d_16">
    <path clip-path="url(#pf72addd3b3)" d="M 95.165707 92.955369 
L 95.165707 116.246278 
" style="fill:none;stroke:#00008b;stroke-dasharray:1.85,0.8;stroke-dashoffset:0;stroke-width:0.5;"/>
   </g>
   <g id="line2d_17">
    <path clip-path="url(#pf72addd3b3)" d="M 95.165707 70.809915 
L 95.165707 59.737188 
" style="fill:none;stroke:#00008b;stroke-dasharray:1.85,0.8;stroke-dashoffset:0;stroke-width:0.5;"/>
   </g>
   <g id="line2d_18">
    <path clip-path="url(#pf72addd3b3)" d="M 94.104293 116.246278 
L 96.22712 116.246278 
" style="fill:none;stroke:#000000;stroke-linecap:square;stroke-width:0.5;"/>
   </g>
   <g id="line2d_19">
    <path clip-path="url(#pf72addd3b3)" d="M 94.104293 59.737188 
L 96.22712 59.737188 
" style="fill:none;stroke:#000000;stroke-linecap:square;stroke-width:0.5;"/>
   </g>
   <g id="line2d_20">
    <path clip-path="url(#pf72addd3b3)" d="M 101.534185 126.555369 
L 105.779837 126.555369 
L 105.779837 89.137187 
L 101.534185 89.137187 
L 101.534185 126.555369 
" style="fill:none;stroke:#00008b;stroke-linecap:square;stroke-width:0.5;"/>
   </g>
   <g id="line2d_21">
    <path clip-path="url(#pf72addd3b3)" d="M 103.657011 126.555369 
L 103.657011 152.900824 
" style="fill:none;stroke:#00008b;stroke-dasharray:1.85,0.8;stroke-dashoffset:0;stroke-width:0.5;"/>
   </g>
   <g id="line2d_22">
    <path clip-path="url(#pf72addd3b3)" d="M 103.657011 89.137187 
L 103.657011 61.26446 
" style="fill:none;stroke:#00008b;stroke-dasharray:1.85,0.8;stroke-dashoffset:0;stroke-width:0.5;"/>
   </g>
   <g id="line2d_23">
    <path clip-path="url(#pf72addd3b3)" d="M 102.595598 152.900824 
L 104.718424 152.900824 
" style="fill:none;stroke:#000000;stroke-linecap:square;stroke-width:0.5;"/>
   </g>
   <g id="line2d_24">
    <path clip-path="url(#pf72addd3b3)" d="M 102.595598 61.26446 
L 104.718424 61.26446 
" style="fill:none;stroke:#000000;stroke-linecap:square;stroke-width:0.5;"/>
   </g>
   <g id="line2d_25">
    <path clip-path="url(#pf72addd3b3)" d="M 110.025489 155.955369 
L 114.271141 155.955369 
L 114.271141 122.355369 
L 110.025489 122.355369 
L 110.025489 155.955369 
" style="fill:none;stroke:#00008b;stroke-linecap:square;stroke-width:0.5;"/>
   </g>
   <g id="line2d_26">
    <path clip-path="url(#pf72addd3b3)" d="M 112.148315 155.955369 
L 112.148315 180.391733 
" style="fill:none;stroke:#00008b;stroke-dasharray:1.85,0.8;stroke-dashoffset:0;stroke-width:0.5;"/>
   </g>
   <g id="line2d_27">
    <path clip-path="url(#pf72addd3b3)" d="M 112.148315 122.355369 
L 112.148315 91.809915 
" style="fill:none;stroke:#00008b;stroke-dasharray:1.85,0.8;stroke-dashoffset:0;stroke-width:0.5;"/>
   </g>
   <g id="line2d_28">
    <path clip-path="url(#pf72addd3b3)" d="M 111.086902 180.391733 
L 113.209728 180.391733 
" style="fill:none;stroke:#000000;stroke-linecap:square;stroke-width:0.5;"/>
   </g>
   <g id="line2d_29">
    <path clip-path="url(#pf72addd3b3)" d="M 111.086902 91.809915 
L 113.209728 91.809915 
" style="fill:none;stroke:#000000;stroke-linecap:square;stroke-width:0.5;"/>
   </g>
   <g id="line2d_30">
    <path clip-path="url(#pf72addd3b3)" d="M 118.516793 178.100824 
L 122.762446 178.100824 
L 122.762446 146.028097 
L 118.516793 146.028097 
L 118.516793 178.100824 
" style="fill:none;stroke:#00008b;stroke-linecap:square;stroke-width:0.5;"/>
   </g>
   <g id="line2d_31">
    <path clip-path="url(#pf72addd3b3)" d="M 120.63962 178.100824 
L 120.63962 204.828097 
" style="fill:none;stroke:#00008b;stroke-dasharray:1.85,0.8;stroke-dashoffset:0;stroke-width:0.5;"/>
   </g>
   <g id="line2d_32">
    <path clip-path="url(#pf72addd3b3)" d="M 120.63962 146.028097 
L 120.63962 122.355369 
" style="fill:none;stroke:#00008b;stroke-dasharray:1.85,0.8;stroke-dashoffset:0;stroke-width:0.5;"/>
   </g>
   <g id="line2d_33">
    <path clip-path="url(#pf72addd3b3)" d="M 119.578207 204.828097 
L 121.701033 204.828097 
" style="fill:none;stroke:#000000;stroke-linecap:square;stroke-width:0.5;"/>
   </g>
   <g id="line2d_34">
    <path clip-path="url(#pf72addd3b3)" d="M 119.578207 122.355369 
L 121.701033 122.355369 
" style="fill:none;stroke:#000000;stroke-linecap:square;stroke-width:0.5;"/>
   </g>
   <g id="line2d_35">
    <path clip-path="url(#pf72addd3b3)" d="M 127.008098 196.809915 
L 131.25375 196.809915 
L 131.25375 171.609915 
L 127.008098 171.609915 
L 127.008098 196.809915 
" style="fill:none;stroke:#00008b;stroke-linecap:square;stroke-width:0.5;"/>
   </g>
   <g id="line2d_36">
    <path clip-path="url(#pf72addd3b3)" d="M 129.130924 196.809915 
L 129.130924 221.628097 
" style="fill:none;stroke:#00008b;stroke-dasharray:1.85,0.8;stroke-dashoffset:0;stroke-width:0.5;"/>
   </g>
   <g id="line2d_37">
    <path clip-path="url(#pf72addd3b3)" d="M 129.130924 171.609915 
L 129.130924 148.319006 
" style="fill:none;stroke:#00008b;stroke-dasharray:1.85,0.8;stroke-dashoffset:0;stroke-width:0.5;"/>
   </g>
   <g id="line2d_38">
    <path clip-path="url(#pf72addd3b3)" d="M 128.069511 221.628097 
L 130.192337 221.628097 
" style="fill:none;stroke:#000000;stroke-linecap:square;stroke-width:0.5;"/>
   </g>
   <g id="line2d_39">
    <path clip-path="url(#pf72addd3b3)" d="M 128.069511 148.319006 
L 130.192337 148.319006 
" style="fill:none;stroke:#000000;stroke-linecap:square;stroke-width:0.5;"/>
   </g>
   <g id="line2d_40">
    <path clip-path="url(#pf72addd3b3)" d="M 135.499402 211.319006 
L 139.745054 211.319006 
L 139.745054 187.646278 
L 135.499402 187.646278 
L 135.499402 211.319006 
" style="fill:none;stroke:#00008b;stroke-linecap:square;stroke-width:0.5;"/>
   </g>
   <g id="line2d_41">
    <path clip-path="url(#pf72addd3b3)" d="M 137.622228 211.319006 
L 137.622228 224.682642 
" style="fill:none;stroke:#00008b;stroke-dasharray:1.85,0.8;stroke-dashoffset:0;stroke-width:0.5;"/>
   </g>
   <g id="line2d_42">
    <path clip-path="url(#pf72addd3b3)" d="M 137.622228 187.646278 
L 137.622228 162.06446 
" style="fill:none;stroke:#00008b;stroke-dasharray:1.85,0.8;stroke-dashoffset:0;stroke-width:0.5;"/>
   </g>
   <g id="line2d_43">
    <path clip-path="url(#pf72addd3b3)" d="M 136.560815 224.682642 
L 138.683641 224.682642 
" style="fill:none;stroke:#000000;stroke-linecap:square;stroke-width:0.5;"/>
   </g>
   <g id="line2d_44">
    <path clip-path="url(#pf72addd3b3)" d="M 136.560815 162.06446 
L 138.683641 162.06446 
" style="fill:none;stroke:#000000;stroke-linecap:square;stroke-width:0.5;"/>
   </g>
   <g id="line2d_45">
    <path clip-path="url(#pf72addd3b3)" d="M 143.990707 222.391733 
L 148.236359 222.391733 
L 148.236359 199.482642 
L 143.990707 199.482642 
L 143.990707 222.391733 
" style="fill:none;stroke:#00008b;stroke-linecap:square;stroke-width:0.5;"/>
   </g>
   <g id="line2d_46">
    <path clip-path="url(#pf72addd3b3)" d="M 146.113533 222.391733 
L 146.113533 238.428097 
" style="fill:none;stroke:#00008b;stroke-dasharray:1.85,0.8;stroke-dashoffset:0;stroke-width:0.5;"/>
   </g>
   <g id="line2d_47">
    <path clip-path="url(#pf72addd3b3)" d="M 146.113533 199.482642 
L 146.113533 184.973551 
" style="fill:none;stroke:#00008b;stroke-dasharray:1.85,0.8;stroke-dashoffset:0;stroke-width:0.5;"/>
   </g>
   <g id="line2d_48">
    <path clip-path="url(#pf72addd3b3)" d="M 145.05212 238.428097 
L 147.174946 238.428097 
" style="fill:none;stroke:#000000;stroke-linecap:square;stroke-width:0.5;"/>
   </g>
   <g id="line2d_49">
    <path clip-path="url(#pf72addd3b3)" d="M 145.05212 184.973551 
L 147.174946 184.973551 
" style="fill:none;stroke:#000000;stroke-linecap:square;stroke-width:0.5;"/>
   </g>
   <g id="line2d_50">
    <path clip-path="url(#pf72addd3b3)" d="M 152.482011 235.373551 
L 156.727663 235.373551 
L 156.727663 217.046278 
L 152.482011 217.046278 
L 152.482011 235.373551 
" style="fill:none;stroke:#00008b;stroke-linecap:square;stroke-width:0.5;"/>
   </g>
   <g id="line2d_51">
    <path clip-path="url(#pf72addd3b3)" d="M 154.604837 235.373551 
L 154.604837 246.06446 
" style="fill:none;stroke:#00008b;stroke-dasharray:1.85,0.8;stroke-dashoffset:0;stroke-width:0.5;"/>
   </g>
   <g id="line2d_52">
    <path clip-path="url(#pf72addd3b3)" d="M 154.604837 217.046278 
L 154.604837 195.66446 
" style="fill:none;stroke:#00008b;stroke-dasharray:1.85,0.8;stroke-dashoffset:0;stroke-width:0.5;"/>
   </g>
   <g id="line2d_53">
    <path clip-path="url(#pf72addd3b3)" d="M 153.543424 246.06446 
L 155.66625 246.06446 
" style="fill:none;stroke:#000000;stroke-linecap:square;stroke-width:0.5;"/>
   </g>
   <g id="line2d_54">
    <path clip-path="url(#pf72addd3b3)" d="M 153.543424 195.66446 
L 155.66625 195.66446 
" style="fill:none;stroke:#000000;stroke-linecap:square;stroke-width:0.5;"/>
   </g>
   <g id="line2d_55">
    <path clip-path="url(#pf72addd3b3)" d="M 160.973315 240.337187 
L 165.218967 240.337187 
L 165.218967 218.191733 
L 160.973315 218.191733 
L 160.973315 240.337187 
" style="fill:none;stroke:#00008b;stroke-linecap:square;stroke-width:0.5;"/>
   </g>
   <g id="line2d_56">
    <path clip-path="url(#pf72addd3b3)" d="M 163.096141 240.337187 
L 163.096141 255.228097 
" style="fill:none;stroke:#00008b;stroke-dasharray:1.85,0.8;stroke-dashoffset:0;stroke-width:0.5;"/>
   </g>
   <g id="line2d_57">
    <path clip-path="url(#pf72addd3b3)" d="M 163.096141 218.191733 
L 163.096141 192.609915 
" style="fill:none;stroke:#00008b;stroke-dasharray:1.85,0.8;stroke-dashoffset:0;stroke-width:0.5;"/>
   </g>
   <g id="line2d_58">
    <path clip-path="url(#pf72addd3b3)" d="M 162.034728 255.228097 
L 164.157554 255.228097 
" style="fill:none;stroke:#000000;stroke-linecap:square;stroke-width:0.5;"/>
   </g>
   <g id="line2d_59">
    <path clip-path="url(#pf72addd3b3)" d="M 162.034728 192.609915 
L 164.157554 192.609915 
" style="fill:none;stroke:#000000;stroke-linecap:square;stroke-width:0.5;"/>
   </g>
   <g id="line2d_60">
    <path clip-path="url(#pf72addd3b3)" d="M 169.46462 247.209915 
L 173.710272 247.209915 
L 173.710272 231.173551 
L 169.46462 231.173551 
L 169.46462 247.209915 
" style="fill:none;stroke:#00008b;stroke-linecap:square;stroke-width:0.5;"/>
   </g>
   <g id="line2d_61">
    <path clip-path="url(#pf72addd3b3)" d="M 171.587446 247.209915 
L 171.587446 264.391733 
" style="fill:none;stroke:#00008b;stroke-dasharray:1.85,0.8;stroke-dashoffset:0;stroke-width:0.5;"/>
   </g>
   <g id="line2d_62">
    <path clip-path="url(#pf72addd3b3)" d="M 171.587446 231.173551 
L 171.587446 218.573551 
" style="fill:none;stroke:#00008b;stroke-dasharray:1.85,0.8;stroke-dashoffset:0;stroke-width:0.5;"/>
   </g>
   <g id="line2d_63">
    <path clip-path="url(#pf72addd3b3)" d="M 170.526033 264.391733 
L 172.648859 264.391733 
" style="fill:none;stroke:#000000;stroke-linecap:square;stroke-width:0.5;"/>
   </g>
   <g id="line2d_64">
    <path clip-path="url(#pf72addd3b3)" d="M 170.526033 218.573551 
L 172.648859 218.573551 
" style="fill:none;stroke:#000000;stroke-linecap:square;stroke-width:0.5;"/>
   </g>
   <g id="line2d_65">
    <path clip-path="url(#pf72addd3b3)" d="M 177.955924 254.082642 
L 182.201576 254.082642 
L 182.201576 239.573551 
L 177.955924 239.573551 
L 177.955924 254.082642 
" style="fill:none;stroke:#00008b;stroke-linecap:square;stroke-width:0.5;"/>
   </g>
   <g id="line2d_66">
    <path clip-path="url(#pf72addd3b3)" d="M 180.07875 254.082642 
L 180.07875 262.86446 
" style="fill:none;stroke:#00008b;stroke-dasharray:1.85,0.8;stroke-dashoffset:0;stroke-width:0.5;"/>
   </g>
   <g id="line2d_67">
    <path clip-path="url(#pf72addd3b3)" d="M 180.07875 239.573551 
L 180.07875 232.319006 
" style="fill:none;stroke:#00008b;stroke-dasharray:1.85,0.8;stroke-dashoffset:0;stroke-width:0.5;"/>
   </g>
   <g id="line2d_68">
    <path clip-path="url(#pf72addd3b3)" d="M 179.017337 262.86446 
L 181.140163 262.86446 
" style="fill:none;stroke:#000000;stroke-linecap:square;stroke-width:0.5;"/>
   </g>
   <g id="line2d_69">
    <path clip-path="url(#pf72addd3b3)" d="M 179.017337 232.319006 
L 181.140163 232.319006 
" style="fill:none;stroke:#000000;stroke-linecap:square;stroke-width:0.5;"/>
   </g>
   <g id="line2d_70">
    <path clip-path="url(#pf72addd3b3)" d="M 186.447228 256.755369 
L 190.69288 256.755369 
L 190.69288 241.482642 
L 186.447228 241.482642 
L 186.447228 256.755369 
" style="fill:none;stroke:#00008b;stroke-linecap:square;stroke-width:0.5;"/>
   </g>
   <g id="line2d_71">
    <path clip-path="url(#pf72addd3b3)" d="M 188.570054 256.755369 
L 188.570054 268.973551 
" style="fill:none;stroke:#00008b;stroke-dasharray:1.85,0.8;stroke-dashoffset:0;stroke-width:0.5;"/>
   </g>
   <g id="line2d_72">
    <path clip-path="url(#pf72addd3b3)" d="M 188.570054 241.482642 
L 188.570054 232.319006 
" style="fill:none;stroke:#00008b;stroke-dasharray:1.85,0.8;stroke-dashoffset:0;stroke-width:0.5;"/>
   </g>
   <g id="line2d_73">
    <path clip-path="url(#pf72addd3b3)" d="M 187.508641 268.973551 
L 189.631467 268.973551 
" style="fill:none;stroke:#000000;stroke-linecap:square;stroke-width:0.5;"/>
   </g>
   <g id="line2d_74">
    <path clip-path="url(#pf72addd3b3)" d="M 187.508641 232.319006 
L 189.631467 232.319006 
" style="fill:none;stroke:#000000;stroke-linecap:square;stroke-width:0.5;"/>
   </g>
   <g id="line2d_75">
    <path clip-path="url(#pf72addd3b3)" d="M 194.938533 267.06446 
L 199.184185 267.06446 
L 199.184185 249.882642 
L 194.938533 249.882642 
L 194.938533 267.06446 
" style="fill:none;stroke:#00008b;stroke-linecap:square;stroke-width:0.5;"/>
   </g>
   <g id="line2d_76">
    <path clip-path="url(#pf72addd3b3)" d="M 197.061359 267.06446 
L 197.061359 275.082642 
" style="fill:none;stroke:#00008b;stroke-dasharray:1.85,0.8;stroke-dashoffset:0;stroke-width:0.5;"/>
   </g>
   <g id="line2d_77">
    <path clip-path="url(#pf72addd3b3)" d="M 197.061359 249.882642 
L 197.061359 236.900824 
" style="fill:none;stroke:#00008b;stroke-dasharray:1.85,0.8;stroke-dashoffset:0;stroke-width:0.5;"/>
   </g>
   <g id="line2d_78">
    <path clip-path="url(#pf72addd3b3)" d="M 195.999946 275.082642 
L 198.122772 275.082642 
" style="fill:none;stroke:#000000;stroke-linecap:square;stroke-width:0.5;"/>
   </g>
   <g id="line2d_79">
    <path clip-path="url(#pf72addd3b3)" d="M 195.999946 236.900824 
L 198.122772 236.900824 
" style="fill:none;stroke:#000000;stroke-linecap:square;stroke-width:0.5;"/>
   </g>
   <g id="line2d_80">
    <path clip-path="url(#pf72addd3b3)" d="M 203.429837 268.591733 
L 207.675489 268.591733 
L 207.675489 255.609915 
L 203.429837 255.609915 
L 203.429837 268.591733 
" style="fill:none;stroke:#00008b;stroke-linecap:square;stroke-width:0.5;"/>
   </g>
   <g id="line2d_81">
    <path clip-path="url(#pf72addd3b3)" d="M 205.552663 268.591733 
L 205.552663 276.609915 
" style="fill:none;stroke:#00008b;stroke-dasharray:1.85,0.8;stroke-dashoffset:0;stroke-width:0.5;"/>
   </g>
   <g id="line2d_82">
    <path clip-path="url(#pf72addd3b3)" d="M 205.552663 255.609915 
L 205.552663 244.537188 
" style="fill:none;stroke:#00008b;stroke-dasharray:1.85,0.8;stroke-dashoffset:0;stroke-width:0.5;"/>
   </g>
   <g id="line2d_83">
    <path clip-path="url(#pf72addd3b3)" d="M 204.49125 276.609915 
L 206.614076 276.609915 
" style="fill:none;stroke:#000000;stroke-linecap:square;stroke-width:0.5;"/>
   </g>
   <g id="line2d_84">
    <path clip-path="url(#pf72addd3b3)" d="M 204.49125 244.537188 
L 206.614076 244.537188 
" style="fill:none;stroke:#000000;stroke-linecap:square;stroke-width:0.5;"/>
   </g>
   <g id="line2d_85">
    <path clip-path="url(#pf72addd3b3)" d="M 211.921141 273.555369 
L 216.166793 273.555369 
L 216.166793 256.755369 
L 211.921141 256.755369 
L 211.921141 273.555369 
" style="fill:none;stroke:#00008b;stroke-linecap:square;stroke-width:0.5;"/>
   </g>
   <g id="line2d_86">
    <path clip-path="url(#pf72addd3b3)" d="M 214.043967 273.555369 
L 214.043967 282.719006 
" style="fill:none;stroke:#00008b;stroke-dasharray:1.85,0.8;stroke-dashoffset:0;stroke-width:0.5;"/>
   </g>
   <g id="line2d_87">
    <path clip-path="url(#pf72addd3b3)" d="M 214.043967 256.755369 
L 214.043967 243.009915 
" style="fill:none;stroke:#00008b;stroke-dasharray:1.85,0.8;stroke-dashoffset:0;stroke-width:0.5;"/>
   </g>
   <g id="line2d_88">
    <path clip-path="url(#pf72addd3b3)" d="M 212.982554 282.719006 
L 215.10538 282.719006 
" style="fill:none;stroke:#000000;stroke-linecap:square;stroke-width:0.5;"/>
   </g>
   <g id="line2d_89">
    <path clip-path="url(#pf72addd3b3)" d="M 212.982554 243.009915 
L 215.10538 243.009915 
" style="fill:none;stroke:#000000;stroke-linecap:square;stroke-width:0.5;"/>
   </g>
   <g id="line2d_90">
    <path clip-path="url(#pf72addd3b3)" d="M 220.412446 273.555369 
L 224.658098 273.555369 
L 224.658098 261.337188 
L 220.412446 261.337188 
L 220.412446 273.555369 
" style="fill:none;stroke:#00008b;stroke-linecap:square;stroke-width:0.5;"/>
   </g>
   <g id="line2d_91">
    <path clip-path="url(#pf72addd3b3)" d="M 222.535272 273.555369 
L 222.535272 279.66446 
" style="fill:none;stroke:#00008b;stroke-dasharray:1.85,0.8;stroke-dashoffset:0;stroke-width:0.5;"/>
   </g>
   <g id="line2d_92">
    <path clip-path="url(#pf72addd3b3)" d="M 222.535272 261.337188 
L 222.535272 250.646278 
" style="fill:none;stroke:#00008b;stroke-dasharray:1.85,0.8;stroke-dashoffset:0;stroke-width:0.5;"/>
   </g>
   <g id="line2d_93">
    <path clip-path="url(#pf72addd3b3)" d="M 221.473859 279.66446 
L 223.596685 279.66446 
" style="fill:none;stroke:#000000;stroke-linecap:square;stroke-width:0.5;"/>
   </g>
   <g id="line2d_94">
    <path clip-path="url(#pf72addd3b3)" d="M 221.473859 250.646278 
L 223.596685 250.646278 
" style="fill:none;stroke:#000000;stroke-linecap:square;stroke-width:0.5;"/>
   </g>
   <g id="line2d_95">
    <path clip-path="url(#pf72addd3b3)" d="M 228.90375 278.519006 
L 233.149402 278.519006 
L 233.149402 267.06446 
L 228.90375 267.06446 
L 228.90375 278.519006 
" style="fill:none;stroke:#00008b;stroke-linecap:square;stroke-width:0.5;"/>
   </g>
   <g id="line2d_96">
    <path clip-path="url(#pf72addd3b3)" d="M 231.026576 278.519006 
L 231.026576 287.300824 
" style="fill:none;stroke:#00008b;stroke-dasharray:1.85,0.8;stroke-dashoffset:0;stroke-width:0.5;"/>
   </g>
   <g id="line2d_97">
    <path clip-path="url(#pf72addd3b3)" d="M 231.026576 267.06446 
L 231.026576 261.337188 
" style="fill:none;stroke:#00008b;stroke-dasharray:1.85,0.8;stroke-dashoffset:0;stroke-width:0.5;"/>
   </g>
   <g id="line2d_98">
    <path clip-path="url(#pf72addd3b3)" d="M 229.965163 287.300824 
L 232.087989 287.300824 
" style="fill:none;stroke:#000000;stroke-linecap:square;stroke-width:0.5;"/>
   </g>
   <g id="line2d_99">
    <path clip-path="url(#pf72addd3b3)" d="M 229.965163 261.337188 
L 232.087989 261.337188 
" style="fill:none;stroke:#000000;stroke-linecap:square;stroke-width:0.5;"/>
   </g>
   <g id="line2d_100">
    <path clip-path="url(#pf72addd3b3)" d="M 237.395054 280.428097 
L 241.640707 280.428097 
L 241.640707 269.737188 
L 237.395054 269.737188 
L 237.395054 280.428097 
" style="fill:none;stroke:#00008b;stroke-linecap:square;stroke-width:0.5;"/>
   </g>
   <g id="line2d_101">
    <path clip-path="url(#pf72addd3b3)" d="M 239.51788 280.428097 
L 239.51788 285.773551 
" style="fill:none;stroke:#00008b;stroke-dasharray:1.85,0.8;stroke-dashoffset:0;stroke-width:0.5;"/>
   </g>
   <g id="line2d_102">
    <path clip-path="url(#pf72addd3b3)" d="M 239.51788 269.737188 
L 239.51788 259.809915 
" style="fill:none;stroke:#00008b;stroke-dasharray:1.85,0.8;stroke-dashoffset:0;stroke-width:0.5;"/>
   </g>
   <g id="line2d_103">
    <path clip-path="url(#pf72addd3b3)" d="M 238.456467 285.773551 
L 240.579293 285.773551 
" style="fill:none;stroke:#000000;stroke-linecap:square;stroke-width:0.5;"/>
   </g>
   <g id="line2d_104">
    <path clip-path="url(#pf72addd3b3)" d="M 238.456467 259.809915 
L 240.579293 259.809915 
" style="fill:none;stroke:#000000;stroke-linecap:square;stroke-width:0.5;"/>
   </g>
   <g id="line2d_105">
    <path clip-path="url(#pf72addd3b3)" d="M 245.886359 283.100824 
L 250.132011 283.100824 
L 250.132011 274.700824 
L 245.886359 274.700824 
L 245.886359 283.100824 
" style="fill:none;stroke:#00008b;stroke-linecap:square;stroke-width:0.5;"/>
   </g>
   <g id="line2d_106">
    <path clip-path="url(#pf72addd3b3)" d="M 248.009185 283.100824 
L 248.009185 287.300824 
" style="fill:none;stroke:#00008b;stroke-dasharray:1.85,0.8;stroke-dashoffset:0;stroke-width:0.5;"/>
   </g>
   <g id="line2d_107">
    <path clip-path="url(#pf72addd3b3)" d="M 248.009185 274.700824 
L 248.009185 270.500824 
" style="fill:none;stroke:#00008b;stroke-dasharray:1.85,0.8;stroke-dashoffset:0;stroke-width:0.5;"/>
   </g>
   <g id="line2d_108">
    <path clip-path="url(#pf72addd3b3)" d="M 246.947772 287.300824 
L 249.070598 287.300824 
" style="fill:none;stroke:#000000;stroke-linecap:square;stroke-width:0.5;"/>
   </g>
   <g id="line2d_109">
    <path clip-path="url(#pf72addd3b3)" d="M 246.947772 270.500824 
L 249.070598 270.500824 
" style="fill:none;stroke:#000000;stroke-linecap:square;stroke-width:0.5;"/>
   </g>
   <g id="line2d_110">
    <path clip-path="url(#pf72addd3b3)" d="M 254.377663 286.155369 
L 258.623315 286.155369 
L 258.623315 273.173551 
L 254.377663 273.173551 
L 254.377663 286.155369 
" style="fill:none;stroke:#00008b;stroke-linecap:square;stroke-width:0.5;"/>
   </g>
   <g id="line2d_111">
    <path clip-path="url(#pf72addd3b3)" d="M 256.500489 286.155369 
L 256.500489 291.882642 
" style="fill:none;stroke:#00008b;stroke-dasharray:1.85,0.8;stroke-dashoffset:0;stroke-width:0.5;"/>
   </g>
   <g id="line2d_112">
    <path clip-path="url(#pf72addd3b3)" d="M 256.500489 273.173551 
L 256.500489 267.446278 
" style="fill:none;stroke:#00008b;stroke-dasharray:1.85,0.8;stroke-dashoffset:0;stroke-width:0.5;"/>
   </g>
   <g id="line2d_113">
    <path clip-path="url(#pf72addd3b3)" d="M 255.439076 291.882642 
L 257.561902 291.882642 
" style="fill:none;stroke:#000000;stroke-linecap:square;stroke-width:0.5;"/>
   </g>
   <g id="line2d_114">
    <path clip-path="url(#pf72addd3b3)" d="M 255.439076 267.446278 
L 257.561902 267.446278 
" style="fill:none;stroke:#000000;stroke-linecap:square;stroke-width:0.5;"/>
   </g>
   <g id="line2d_115">
    <path clip-path="url(#pf72addd3b3)" d="M 262.868967 289.591733 
L 267.11462 289.591733 
L 267.11462 278.900824 
L 262.868967 278.900824 
L 262.868967 289.591733 
" style="fill:none;stroke:#00008b;stroke-linecap:square;stroke-width:0.5;"/>
   </g>
   <g id="line2d_116">
    <path clip-path="url(#pf72addd3b3)" d="M 264.991793 289.591733 
L 264.991793 296.46446 
" style="fill:none;stroke:#00008b;stroke-dasharray:1.85,0.8;stroke-dashoffset:0;stroke-width:0.5;"/>
   </g>
   <g id="line2d_117">
    <path clip-path="url(#pf72addd3b3)" d="M 264.991793 278.900824 
L 264.991793 268.973551 
" style="fill:none;stroke:#00008b;stroke-dasharray:1.85,0.8;stroke-dashoffset:0;stroke-width:0.5;"/>
   </g>
   <g id="line2d_118">
    <path clip-path="url(#pf72addd3b3)" d="M 263.93038 296.46446 
L 266.053207 296.46446 
" style="fill:none;stroke:#000000;stroke-linecap:square;stroke-width:0.5;"/>
   </g>
   <g id="line2d_119">
    <path clip-path="url(#pf72addd3b3)" d="M 263.93038 268.973551 
L 266.053207 268.973551 
" style="fill:none;stroke:#000000;stroke-linecap:square;stroke-width:0.5;"/>
   </g>
   <g id="line2d_120">
    <path clip-path="url(#pf72addd3b3)" d="M 271.360272 289.209915 
L 275.605924 289.209915 
L 275.605924 276.228097 
L 271.360272 276.228097 
L 271.360272 289.209915 
" style="fill:none;stroke:#00008b;stroke-linecap:square;stroke-width:0.5;"/>
   </g>
   <g id="line2d_121">
    <path clip-path="url(#pf72addd3b3)" d="M 273.483098 289.209915 
L 273.483098 296.46446 
" style="fill:none;stroke:#00008b;stroke-dasharray:1.85,0.8;stroke-dashoffset:0;stroke-width:0.5;"/>
   </g>
   <g id="line2d_122">
    <path clip-path="url(#pf72addd3b3)" d="M 273.483098 276.228097 
L 273.483098 267.446278 
" style="fill:none;stroke:#00008b;stroke-dasharray:1.85,0.8;stroke-dashoffset:0;stroke-width:0.5;"/>
   </g>
   <g id="line2d_123">
    <path clip-path="url(#pf72addd3b3)" d="M 272.421685 296.46446 
L 274.544511 296.46446 
" style="fill:none;stroke:#000000;stroke-linecap:square;stroke-width:0.5;"/>
   </g>
   <g id="line2d_124">
    <path clip-path="url(#pf72addd3b3)" d="M 272.421685 267.446278 
L 274.544511 267.446278 
" style="fill:none;stroke:#000000;stroke-linecap:square;stroke-width:0.5;"/>
   </g>
   <g id="line2d_125">
    <path clip-path="url(#pf72addd3b3)" d="M 279.851576 293.028097 
L 284.097228 293.028097 
L 284.097228 283.100824 
L 279.851576 283.100824 
L 279.851576 293.028097 
" style="fill:none;stroke:#00008b;stroke-linecap:square;stroke-width:0.5;"/>
   </g>
   <g id="line2d_126">
    <path clip-path="url(#pf72addd3b3)" d="M 281.974402 293.028097 
L 281.974402 299.519006 
" style="fill:none;stroke:#00008b;stroke-dasharray:1.85,0.8;stroke-dashoffset:0;stroke-width:0.5;"/>
   </g>
   <g id="line2d_127">
    <path clip-path="url(#pf72addd3b3)" d="M 281.974402 283.100824 
L 281.974402 276.609915 
" style="fill:none;stroke:#00008b;stroke-dasharray:1.85,0.8;stroke-dashoffset:0;stroke-width:0.5;"/>
   </g>
   <g id="line2d_128">
    <path clip-path="url(#pf72addd3b3)" d="M 280.912989 299.519006 
L 283.035815 299.519006 
" style="fill:none;stroke:#000000;stroke-linecap:square;stroke-width:0.5;"/>
   </g>
   <g id="line2d_129">
    <path clip-path="url(#pf72addd3b3)" d="M 280.912989 276.609915 
L 283.035815 276.609915 
" style="fill:none;stroke:#000000;stroke-linecap:square;stroke-width:0.5;"/>
   </g>
   <g id="line2d_130">
    <path clip-path="url(#pf72addd3b3)" d="M 288.34288 294.173551 
L 292.588533 294.173551 
L 292.588533 283.482642 
L 288.34288 283.482642 
L 288.34288 294.173551 
" style="fill:none;stroke:#00008b;stroke-linecap:square;stroke-width:0.5;"/>
   </g>
   <g id="line2d_131">
    <path clip-path="url(#pf72addd3b3)" d="M 290.465707 294.173551 
L 290.465707 302.573551 
" style="fill:none;stroke:#00008b;stroke-dasharray:1.85,0.8;stroke-dashoffset:0;stroke-width:0.5;"/>
   </g>
   <g id="line2d_132">
    <path clip-path="url(#pf72addd3b3)" d="M 290.465707 283.482642 
L 290.465707 275.082642 
" style="fill:none;stroke:#00008b;stroke-dasharray:1.85,0.8;stroke-dashoffset:0;stroke-width:0.5;"/>
   </g>
   <g id="line2d_133">
    <path clip-path="url(#pf72addd3b3)" d="M 289.404293 302.573551 
L 291.52712 302.573551 
" style="fill:none;stroke:#000000;stroke-linecap:square;stroke-width:0.5;"/>
   </g>
   <g id="line2d_134">
    <path clip-path="url(#pf72addd3b3)" d="M 289.404293 275.082642 
L 291.52712 275.082642 
" style="fill:none;stroke:#000000;stroke-linecap:square;stroke-width:0.5;"/>
   </g>
   <g id="line2d_135">
    <path clip-path="url(#pf72addd3b3)" d="M 296.834185 294.555369 
L 301.079837 294.555369 
L 301.079837 287.682642 
L 296.834185 287.682642 
L 296.834185 294.555369 
" style="fill:none;stroke:#00008b;stroke-linecap:square;stroke-width:0.5;"/>
   </g>
   <g id="line2d_136">
    <path clip-path="url(#pf72addd3b3)" d="M 298.957011 294.555369 
L 298.957011 301.046278 
" style="fill:none;stroke:#00008b;stroke-dasharray:1.85,0.8;stroke-dashoffset:0;stroke-width:0.5;"/>
   </g>
   <g id="line2d_137">
    <path clip-path="url(#pf72addd3b3)" d="M 298.957011 287.682642 
L 298.957011 284.246278 
" style="fill:none;stroke:#00008b;stroke-dasharray:1.85,0.8;stroke-dashoffset:0;stroke-width:0.5;"/>
   </g>
   <g id="line2d_138">
    <path clip-path="url(#pf72addd3b3)" d="M 297.895598 301.046278 
L 300.018424 301.046278 
" style="fill:none;stroke:#000000;stroke-linecap:square;stroke-width:0.5;"/>
   </g>
   <g id="line2d_139">
    <path clip-path="url(#pf72addd3b3)" d="M 297.895598 284.246278 
L 300.018424 284.246278 
" style="fill:none;stroke:#000000;stroke-linecap:square;stroke-width:0.5;"/>
   </g>
   <g id="line2d_140">
    <path clip-path="url(#pf72addd3b3)" d="M 305.325489 296.46446 
L 309.571141 296.46446 
L 309.571141 285.773551 
L 305.325489 285.773551 
L 305.325489 296.46446 
" style="fill:none;stroke:#00008b;stroke-linecap:square;stroke-width:0.5;"/>
   </g>
   <g id="line2d_141">
    <path clip-path="url(#pf72addd3b3)" d="M 307.448315 296.46446 
L 307.448315 301.046278 
" style="fill:none;stroke:#00008b;stroke-dasharray:1.85,0.8;stroke-dashoffset:0;stroke-width:0.5;"/>
   </g>
   <g id="line2d_142">
    <path clip-path="url(#pf72addd3b3)" d="M 307.448315 285.773551 
L 307.448315 276.609915 
" style="fill:none;stroke:#00008b;stroke-dasharray:1.85,0.8;stroke-dashoffset:0;stroke-width:0.5;"/>
   </g>
   <g id="line2d_143">
    <path clip-path="url(#pf72addd3b3)" d="M 306.386902 301.046278 
L 308.509728 301.046278 
" style="fill:none;stroke:#000000;stroke-linecap:square;stroke-width:0.5;"/>
   </g>
   <g id="line2d_144">
    <path clip-path="url(#pf72addd3b3)" d="M 306.386902 276.609915 
L 308.509728 276.609915 
" style="fill:none;stroke:#000000;stroke-linecap:square;stroke-width:0.5;"/>
   </g>
   <g id="line2d_145">
    <path clip-path="url(#pf72addd3b3)" d="M 313.816793 297.609915 
L 318.062446 297.609915 
L 318.062446 287.682642 
L 313.816793 287.682642 
L 313.816793 297.609915 
" style="fill:none;stroke:#00008b;stroke-linecap:square;stroke-width:0.5;"/>
   </g>
   <g id="line2d_146">
    <path clip-path="url(#pf72addd3b3)" d="M 315.93962 297.609915 
L 315.93962 304.100824 
" style="fill:none;stroke:#00008b;stroke-dasharray:1.85,0.8;stroke-dashoffset:0;stroke-width:0.5;"/>
   </g>
   <g id="line2d_147">
    <path clip-path="url(#pf72addd3b3)" d="M 315.93962 287.682642 
L 315.93962 282.719006 
" style="fill:none;stroke:#00008b;stroke-dasharray:1.85,0.8;stroke-dashoffset:0;stroke-width:0.5;"/>
   </g>
   <g id="line2d_148">
    <path clip-path="url(#pf72addd3b3)" d="M 314.878207 304.100824 
L 317.001033 304.100824 
" style="fill:none;stroke:#000000;stroke-linecap:square;stroke-width:0.5;"/>
   </g>
   <g id="line2d_149">
    <path clip-path="url(#pf72addd3b3)" d="M 314.878207 282.719006 
L 317.001033 282.719006 
" style="fill:none;stroke:#000000;stroke-linecap:square;stroke-width:0.5;"/>
   </g>
   <g id="line2d_150">
    <path clip-path="url(#pf72addd3b3)" d="M 322.308098 296.46446 
L 326.55375 296.46446 
L 326.55375 290.355369 
L 322.308098 290.355369 
L 322.308098 296.46446 
" style="fill:none;stroke:#00008b;stroke-linecap:square;stroke-width:0.5;"/>
   </g>
   <g id="line2d_151">
    <path clip-path="url(#pf72addd3b3)" d="M 324.430924 296.46446 
L 324.430924 304.100824 
" style="fill:none;stroke:#00008b;stroke-dasharray:1.85,0.8;stroke-dashoffset:0;stroke-width:0.5;"/>
   </g>
   <g id="line2d_152">
    <path clip-path="url(#pf72addd3b3)" d="M 324.430924 290.355369 
L 324.430924 284.246278 
" style="fill:none;stroke:#00008b;stroke-dasharray:1.85,0.8;stroke-dashoffset:0;stroke-width:0.5;"/>
   </g>
   <g id="line2d_153">
    <path clip-path="url(#pf72addd3b3)" d="M 323.369511 304.100824 
L 325.492337 304.100824 
" style="fill:none;stroke:#000000;stroke-linecap:square;stroke-width:0.5;"/>
   </g>
   <g id="line2d_154">
    <path clip-path="url(#pf72addd3b3)" d="M 323.369511 284.246278 
L 325.492337 284.246278 
" style="fill:none;stroke:#000000;stroke-linecap:square;stroke-width:0.5;"/>
   </g>
   <g id="line2d_155">
    <path clip-path="url(#pf72addd3b3)" d="M 330.799402 296.846278 
L 335.045054 296.846278 
L 335.045054 288.446278 
L 330.799402 288.446278 
L 330.799402 296.846278 
" style="fill:none;stroke:#00008b;stroke-linecap:square;stroke-width:0.5;"/>
   </g>
   <g id="line2d_156">
    <path clip-path="url(#pf72addd3b3)" d="M 332.922228 296.846278 
L 332.922228 301.046278 
" style="fill:none;stroke:#00008b;stroke-dasharray:1.85,0.8;stroke-dashoffset:0;stroke-width:0.5;"/>
   </g>
   <g id="line2d_157">
    <path clip-path="url(#pf72addd3b3)" d="M 332.922228 288.446278 
L 332.922228 279.66446 
" style="fill:none;stroke:#00008b;stroke-dasharray:1.85,0.8;stroke-dashoffset:0;stroke-width:0.5;"/>
   </g>
   <g id="line2d_158">
    <path clip-path="url(#pf72addd3b3)" d="M 331.860815 301.046278 
L 333.983641 301.046278 
" style="fill:none;stroke:#000000;stroke-linecap:square;stroke-width:0.5;"/>
   </g>
   <g id="line2d_159">
    <path clip-path="url(#pf72addd3b3)" d="M 331.860815 279.66446 
L 333.983641 279.66446 
" style="fill:none;stroke:#000000;stroke-linecap:square;stroke-width:0.5;"/>
   </g>
   <g id="line2d_160">
    <path clip-path="url(#pf72addd3b3)" d="M 339.290707 299.137187 
L 343.536359 299.137187 
L 343.536359 292.26446 
L 339.290707 292.26446 
L 339.290707 299.137187 
" style="fill:none;stroke:#00008b;stroke-linecap:square;stroke-width:0.5;"/>
   </g>
   <g id="line2d_161">
    <path clip-path="url(#pf72addd3b3)" d="M 341.413533 299.137187 
L 341.413533 302.573551 
" style="fill:none;stroke:#00008b;stroke-dasharray:1.85,0.8;stroke-dashoffset:0;stroke-width:0.5;"/>
   </g>
   <g id="line2d_162">
    <path clip-path="url(#pf72addd3b3)" d="M 341.413533 292.26446 
L 341.413533 288.828097 
" style="fill:none;stroke:#00008b;stroke-dasharray:1.85,0.8;stroke-dashoffset:0;stroke-width:0.5;"/>
   </g>
   <g id="line2d_163">
    <path clip-path="url(#pf72addd3b3)" d="M 340.35212 302.573551 
L 342.474946 302.573551 
" style="fill:none;stroke:#000000;stroke-linecap:square;stroke-width:0.5;"/>
   </g>
   <g id="line2d_164">
    <path clip-path="url(#pf72addd3b3)" d="M 340.35212 288.828097 
L 342.474946 288.828097 
" style="fill:none;stroke:#000000;stroke-linecap:square;stroke-width:0.5;"/>
   </g>
   <g id="line2d_165">
    <path clip-path="url(#pf72addd3b3)" d="M 347.782011 299.137187 
L 352.027663 299.137187 
L 352.027663 292.26446 
L 347.782011 292.26446 
L 347.782011 299.137187 
" style="fill:none;stroke:#00008b;stroke-linecap:square;stroke-width:0.5;"/>
   </g>
   <g id="line2d_166">
    <path clip-path="url(#pf72addd3b3)" d="M 349.904837 299.137187 
L 349.904837 308.682642 
" style="fill:none;stroke:#00008b;stroke-dasharray:1.85,0.8;stroke-dashoffset:0;stroke-width:0.5;"/>
   </g>
   <g id="line2d_167">
    <path clip-path="url(#pf72addd3b3)" d="M 349.904837 292.26446 
L 349.904837 288.828097 
" style="fill:none;stroke:#00008b;stroke-dasharray:1.85,0.8;stroke-dashoffset:0;stroke-width:0.5;"/>
   </g>
   <g id="line2d_168">
    <path clip-path="url(#pf72addd3b3)" d="M 348.843424 308.682642 
L 350.96625 308.682642 
" style="fill:none;stroke:#000000;stroke-linecap:square;stroke-width:0.5;"/>
   </g>
   <g id="line2d_169">
    <path clip-path="url(#pf72addd3b3)" d="M 348.843424 288.828097 
L 350.96625 288.828097 
" style="fill:none;stroke:#000000;stroke-linecap:square;stroke-width:0.5;"/>
   </g>
   <g id="line2d_170">
    <path clip-path="url(#pf72addd3b3)" d="M 356.273315 301.046278 
L 360.518967 301.046278 
L 360.518967 291.882642 
L 356.273315 291.882642 
L 356.273315 301.046278 
" style="fill:none;stroke:#00008b;stroke-linecap:square;stroke-width:0.5;"/>
   </g>
   <g id="line2d_171">
    <path clip-path="url(#pf72addd3b3)" d="M 358.396141 301.046278 
L 358.396141 308.682642 
" style="fill:none;stroke:#00008b;stroke-dasharray:1.85,0.8;stroke-dashoffset:0;stroke-width:0.5;"/>
   </g>
   <g id="line2d_172">
    <path clip-path="url(#pf72addd3b3)" d="M 358.396141 291.882642 
L 358.396141 287.300824 
" style="fill:none;stroke:#00008b;stroke-dasharray:1.85,0.8;stroke-dashoffset:0;stroke-width:0.5;"/>
   </g>
   <g id="line2d_173">
    <path clip-path="url(#pf72addd3b3)" d="M 357.334728 308.682642 
L 359.457554 308.682642 
" style="fill:none;stroke:#000000;stroke-linecap:square;stroke-width:0.5;"/>
   </g>
   <g id="line2d_174">
    <path clip-path="url(#pf72addd3b3)" d="M 357.334728 287.300824 
L 359.457554 287.300824 
" style="fill:none;stroke:#000000;stroke-linecap:square;stroke-width:0.5;"/>
   </g>
   <g id="line2d_175">
    <path clip-path="url(#pf72addd3b3)" d="M 364.76462 300.66446 
L 369.010272 300.66446 
L 369.010272 292.26446 
L 364.76462 292.26446 
L 364.76462 300.66446 
" style="fill:none;stroke:#00008b;stroke-linecap:square;stroke-width:0.5;"/>
   </g>
   <g id="line2d_176">
    <path clip-path="url(#pf72addd3b3)" d="M 366.887446 300.66446 
L 366.887446 305.628097 
" style="fill:none;stroke:#00008b;stroke-dasharray:1.85,0.8;stroke-dashoffset:0;stroke-width:0.5;"/>
   </g>
   <g id="line2d_177">
    <path clip-path="url(#pf72addd3b3)" d="M 366.887446 292.26446 
L 366.887446 288.828097 
" style="fill:none;stroke:#00008b;stroke-dasharray:1.85,0.8;stroke-dashoffset:0;stroke-width:0.5;"/>
   </g>
   <g id="line2d_178">
    <path clip-path="url(#pf72addd3b3)" d="M 365.826033 305.628097 
L 367.948859 305.628097 
" style="fill:none;stroke:#000000;stroke-linecap:square;stroke-width:0.5;"/>
   </g>
   <g id="line2d_179">
    <path clip-path="url(#pf72addd3b3)" d="M 365.826033 288.828097 
L 367.948859 288.828097 
" style="fill:none;stroke:#000000;stroke-linecap:square;stroke-width:0.5;"/>
   </g>
   <g id="line2d_180">
    <path clip-path="url(#pf72addd3b3)" d="M 373.255924 301.428097 
L 377.501576 301.428097 
L 377.501576 293.028097 
L 373.255924 293.028097 
L 373.255924 301.428097 
" style="fill:none;stroke:#00008b;stroke-linecap:square;stroke-width:0.5;"/>
   </g>
   <g id="line2d_181">
    <path clip-path="url(#pf72addd3b3)" d="M 375.37875 301.428097 
L 375.37875 305.628097 
" style="fill:none;stroke:#00008b;stroke-dasharray:1.85,0.8;stroke-dashoffset:0;stroke-width:0.5;"/>
   </g>
   <g id="line2d_182">
    <path clip-path="url(#pf72addd3b3)" d="M 375.37875 293.028097 
L 375.37875 288.828097 
" style="fill:none;stroke:#00008b;stroke-dasharray:1.85,0.8;stroke-dashoffset:0;stroke-width:0.5;"/>
   </g>
   <g id="line2d_183">
    <path clip-path="url(#pf72addd3b3)" d="M 374.317337 305.628097 
L 376.440163 305.628097 
" style="fill:none;stroke:#000000;stroke-linecap:square;stroke-width:0.5;"/>
   </g>
   <g id="line2d_184">
    <path clip-path="url(#pf72addd3b3)" d="M 374.317337 288.828097 
L 376.440163 288.828097 
" style="fill:none;stroke:#000000;stroke-linecap:square;stroke-width:0.5;"/>
   </g>
   <g id="line2d_185">
    <path clip-path="url(#pf72addd3b3)" d="M 381.747228 302.573551 
L 385.99288 302.573551 
L 385.99288 296.46446 
L 381.747228 296.46446 
L 381.747228 302.573551 
" style="fill:none;stroke:#00008b;stroke-linecap:square;stroke-width:0.5;"/>
   </g>
   <g id="line2d_186">
    <path clip-path="url(#pf72addd3b3)" d="M 383.870054 302.573551 
L 383.870054 307.155369 
" style="fill:none;stroke:#00008b;stroke-dasharray:1.85,0.8;stroke-dashoffset:0;stroke-width:0.5;"/>
   </g>
   <g id="line2d_187">
    <path clip-path="url(#pf72addd3b3)" d="M 383.870054 296.46446 
L 383.870054 293.409915 
" style="fill:none;stroke:#00008b;stroke-dasharray:1.85,0.8;stroke-dashoffset:0;stroke-width:0.5;"/>
   </g>
   <g id="line2d_188">
    <path clip-path="url(#pf72addd3b3)" d="M 382.808641 307.155369 
L 384.931467 307.155369 
" style="fill:none;stroke:#000000;stroke-linecap:square;stroke-width:0.5;"/>
   </g>
   <g id="line2d_189">
    <path clip-path="url(#pf72addd3b3)" d="M 382.808641 293.409915 
L 384.931467 293.409915 
" style="fill:none;stroke:#000000;stroke-linecap:square;stroke-width:0.5;"/>
   </g>
   <g id="line2d_190">
    <path clip-path="url(#pf72addd3b3)" d="M 390.238533 301.809915 
L 394.484185 301.809915 
L 394.484185 291.119006 
L 390.238533 291.119006 
L 390.238533 301.809915 
" style="fill:none;stroke:#00008b;stroke-linecap:square;stroke-width:0.5;"/>
   </g>
   <g id="line2d_191">
    <path clip-path="url(#pf72addd3b3)" d="M 392.361359 301.809915 
L 392.361359 308.682642 
" style="fill:none;stroke:#00008b;stroke-dasharray:1.85,0.8;stroke-dashoffset:0;stroke-width:0.5;"/>
   </g>
   <g id="line2d_192">
    <path clip-path="url(#pf72addd3b3)" d="M 392.361359 291.119006 
L 392.361359 282.719006 
" style="fill:none;stroke:#00008b;stroke-dasharray:1.85,0.8;stroke-dashoffset:0;stroke-width:0.5;"/>
   </g>
   <g id="line2d_193">
    <path clip-path="url(#pf72addd3b3)" d="M 391.299946 308.682642 
L 393.422772 308.682642 
" style="fill:none;stroke:#000000;stroke-linecap:square;stroke-width:0.5;"/>
   </g>
   <g id="line2d_194">
    <path clip-path="url(#pf72addd3b3)" d="M 391.299946 282.719006 
L 393.422772 282.719006 
" style="fill:none;stroke:#000000;stroke-linecap:square;stroke-width:0.5;"/>
   </g>
   <g id="line2d_195">
    <path clip-path="url(#pf72addd3b3)" d="M 398.729837 303.719006 
L 402.975489 303.719006 
L 402.975489 293.791733 
L 398.729837 293.791733 
L 398.729837 303.719006 
" style="fill:none;stroke:#00008b;stroke-linecap:square;stroke-width:0.5;"/>
   </g>
   <g id="line2d_196">
    <path clip-path="url(#pf72addd3b3)" d="M 400.852663 303.719006 
L 400.852663 311.737188 
" style="fill:none;stroke:#00008b;stroke-dasharray:1.85,0.8;stroke-dashoffset:0;stroke-width:0.5;"/>
   </g>
   <g id="line2d_197">
    <path clip-path="url(#pf72addd3b3)" d="M 400.852663 293.791733 
L 400.852663 288.828097 
" style="fill:none;stroke:#00008b;stroke-dasharray:1.85,0.8;stroke-dashoffset:0;stroke-width:0.5;"/>
   </g>
   <g id="line2d_198">
    <path clip-path="url(#pf72addd3b3)" d="M 399.79125 311.737188 
L 401.914076 311.737188 
" style="fill:none;stroke:#000000;stroke-linecap:square;stroke-width:0.5;"/>
   </g>
   <g id="line2d_199">
    <path clip-path="url(#pf72addd3b3)" d="M 399.79125 288.828097 
L 401.914076 288.828097 
" style="fill:none;stroke:#000000;stroke-linecap:square;stroke-width:0.5;"/>
   </g>
   <g id="line2d_200">
    <path clip-path="url(#pf72addd3b3)" d="M 407.221141 302.573551 
L 411.466793 302.573551 
L 411.466793 293.409915 
L 407.221141 293.409915 
L 407.221141 302.573551 
" style="fill:none;stroke:#00008b;stroke-linecap:square;stroke-width:0.5;"/>
   </g>
   <g id="line2d_201">
    <path clip-path="url(#pf72addd3b3)" d="M 409.343967 302.573551 
L 409.343967 307.155369 
" style="fill:none;stroke:#00008b;stroke-dasharray:1.85,0.8;stroke-dashoffset:0;stroke-width:0.5;"/>
   </g>
   <g id="line2d_202">
    <path clip-path="url(#pf72addd3b3)" d="M 409.343967 293.409915 
L 409.343967 287.300824 
" style="fill:none;stroke:#00008b;stroke-dasharray:1.85,0.8;stroke-dashoffset:0;stroke-width:0.5;"/>
   </g>
   <g id="line2d_203">
    <path clip-path="url(#pf72addd3b3)" d="M 408.282554 307.155369 
L 410.40538 307.155369 
" style="fill:none;stroke:#000000;stroke-linecap:square;stroke-width:0.5;"/>
   </g>
   <g id="line2d_204">
    <path clip-path="url(#pf72addd3b3)" d="M 408.282554 287.300824 
L 410.40538 287.300824 
" style="fill:none;stroke:#000000;stroke-linecap:square;stroke-width:0.5;"/>
   </g>
   <g id="line2d_205">
    <path clip-path="url(#pf72addd3b3)" d="M 415.712446 306.009915 
L 419.958098 306.009915 
L 419.958098 294.555369 
L 415.712446 294.555369 
L 415.712446 306.009915 
" style="fill:none;stroke:#00008b;stroke-linecap:square;stroke-width:0.5;"/>
   </g>
   <g id="line2d_206">
    <path clip-path="url(#pf72addd3b3)" d="M 417.835272 306.009915 
L 417.835272 310.209915 
" style="fill:none;stroke:#00008b;stroke-dasharray:1.85,0.8;stroke-dashoffset:0;stroke-width:0.5;"/>
   </g>
   <g id="line2d_207">
    <path clip-path="url(#pf72addd3b3)" d="M 417.835272 294.555369 
L 417.835272 288.828097 
" style="fill:none;stroke:#00008b;stroke-dasharray:1.85,0.8;stroke-dashoffset:0;stroke-width:0.5;"/>
   </g>
   <g id="line2d_208">
    <path clip-path="url(#pf72addd3b3)" d="M 416.773859 310.209915 
L 418.896685 310.209915 
" style="fill:none;stroke:#000000;stroke-linecap:square;stroke-width:0.5;"/>
   </g>
   <g id="line2d_209">
    <path clip-path="url(#pf72addd3b3)" d="M 416.773859 288.828097 
L 418.896685 288.828097 
" style="fill:none;stroke:#000000;stroke-linecap:square;stroke-width:0.5;"/>
   </g>
   <g id="line2d_210">
    <path clip-path="url(#pf72addd3b3)" d="M 424.20375 304.482642 
L 428.449402 304.482642 
L 428.449402 295.700824 
L 424.20375 295.700824 
L 424.20375 304.482642 
" style="fill:none;stroke:#00008b;stroke-linecap:square;stroke-width:0.5;"/>
   </g>
   <g id="line2d_211">
    <path clip-path="url(#pf72addd3b3)" d="M 426.326576 304.482642 
L 426.326576 311.737188 
" style="fill:none;stroke:#00008b;stroke-dasharray:1.85,0.8;stroke-dashoffset:0;stroke-width:0.5;"/>
   </g>
   <g id="line2d_212">
    <path clip-path="url(#pf72addd3b3)" d="M 426.326576 295.700824 
L 426.326576 290.355369 
" style="fill:none;stroke:#00008b;stroke-dasharray:1.85,0.8;stroke-dashoffset:0;stroke-width:0.5;"/>
   </g>
   <g id="line2d_213">
    <path clip-path="url(#pf72addd3b3)" d="M 425.265163 311.737188 
L 427.387989 311.737188 
" style="fill:none;stroke:#000000;stroke-linecap:square;stroke-width:0.5;"/>
   </g>
   <g id="line2d_214">
    <path clip-path="url(#pf72addd3b3)" d="M 425.265163 290.355369 
L 427.387989 290.355369 
" style="fill:none;stroke:#000000;stroke-linecap:square;stroke-width:0.5;"/>
   </g>
   <g id="line2d_215">
    <path clip-path="url(#pf72addd3b3)" d="M 432.695054 304.482642 
L 436.940707 304.482642 
L 436.940707 296.082642 
L 432.695054 296.082642 
L 432.695054 304.482642 
" style="fill:none;stroke:#00008b;stroke-linecap:square;stroke-width:0.5;"/>
   </g>
   <g id="line2d_216">
    <path clip-path="url(#pf72addd3b3)" d="M 434.81788 304.482642 
L 434.81788 308.682642 
" style="fill:none;stroke:#00008b;stroke-dasharray:1.85,0.8;stroke-dashoffset:0;stroke-width:0.5;"/>
   </g>
   <g id="line2d_217">
    <path clip-path="url(#pf72addd3b3)" d="M 434.81788 296.082642 
L 434.81788 291.882642 
" style="fill:none;stroke:#00008b;stroke-dasharray:1.85,0.8;stroke-dashoffset:0;stroke-width:0.5;"/>
   </g>
   <g id="line2d_218">
    <path clip-path="url(#pf72addd3b3)" d="M 433.756467 308.682642 
L 435.879293 308.682642 
" style="fill:none;stroke:#000000;stroke-linecap:square;stroke-width:0.5;"/>
   </g>
   <g id="line2d_219">
    <path clip-path="url(#pf72addd3b3)" d="M 433.756467 291.882642 
L 435.879293 291.882642 
" style="fill:none;stroke:#000000;stroke-linecap:square;stroke-width:0.5;"/>
   </g>
   <g id="line2d_220">
    <path clip-path="url(#pf72addd3b3)" d="M 441.186359 303.337188 
L 445.432011 303.337188 
L 445.432011 295.319006 
L 441.186359 295.319006 
L 441.186359 303.337188 
" style="fill:none;stroke:#00008b;stroke-linecap:square;stroke-width:0.5;"/>
   </g>
   <g id="line2d_221">
    <path clip-path="url(#pf72addd3b3)" d="M 443.309185 303.337188 
L 443.309185 307.155369 
" style="fill:none;stroke:#00008b;stroke-dasharray:1.85,0.8;stroke-dashoffset:0;stroke-width:0.5;"/>
   </g>
   <g id="line2d_222">
    <path clip-path="url(#pf72addd3b3)" d="M 443.309185 295.319006 
L 443.309185 291.882642 
" style="fill:none;stroke:#00008b;stroke-dasharray:1.85,0.8;stroke-dashoffset:0;stroke-width:0.5;"/>
   </g>
   <g id="line2d_223">
    <path clip-path="url(#pf72addd3b3)" d="M 442.247772 307.155369 
L 444.370598 307.155369 
" style="fill:none;stroke:#000000;stroke-linecap:square;stroke-width:0.5;"/>
   </g>
   <g id="line2d_224">
    <path clip-path="url(#pf72addd3b3)" d="M 442.247772 291.882642 
L 444.370598 291.882642 
" style="fill:none;stroke:#000000;stroke-linecap:square;stroke-width:0.5;"/>
   </g>
   <g id="line2d_225">
    <path clip-path="url(#pf72addd3b3)" d="M 449.677663 300.66446 
L 453.923315 300.66446 
L 453.923315 290.737188 
L 449.677663 290.737188 
L 449.677663 300.66446 
" style="fill:none;stroke:#00008b;stroke-linecap:square;stroke-width:0.5;"/>
   </g>
   <g id="line2d_226">
    <path clip-path="url(#pf72addd3b3)" d="M 451.800489 300.66446 
L 451.800489 308.682642 
" style="fill:none;stroke:#00008b;stroke-dasharray:1.85,0.8;stroke-dashoffset:0;stroke-width:0.5;"/>
   </g>
   <g id="line2d_227">
    <path clip-path="url(#pf72addd3b3)" d="M 451.800489 290.737188 
L 451.800489 281.191733 
" style="fill:none;stroke:#00008b;stroke-dasharray:1.85,0.8;stroke-dashoffset:0;stroke-width:0.5;"/>
   </g>
   <g id="line2d_228">
    <path clip-path="url(#pf72addd3b3)" d="M 450.739076 308.682642 
L 452.861902 308.682642 
" style="fill:none;stroke:#000000;stroke-linecap:square;stroke-width:0.5;"/>
   </g>
   <g id="line2d_229">
    <path clip-path="url(#pf72addd3b3)" d="M 450.739076 281.191733 
L 452.861902 281.191733 
" style="fill:none;stroke:#000000;stroke-linecap:square;stroke-width:0.5;"/>
   </g>
   <g id="line2d_230">
    <path clip-path="url(#pf72addd3b3)" d="M 458.168967 303.337188 
L 462.41462 303.337188 
L 462.41462 295.700824 
L 458.168967 295.700824 
L 458.168967 303.337188 
" style="fill:none;stroke:#00008b;stroke-linecap:square;stroke-width:0.5;"/>
   </g>
   <g id="line2d_231">
    <path clip-path="url(#pf72addd3b3)" d="M 460.291793 303.337188 
L 460.291793 310.209915 
" style="fill:none;stroke:#00008b;stroke-dasharray:1.85,0.8;stroke-dashoffset:0;stroke-width:0.5;"/>
   </g>
   <g id="line2d_232">
    <path clip-path="url(#pf72addd3b3)" d="M 460.291793 295.700824 
L 460.291793 288.828097 
" style="fill:none;stroke:#00008b;stroke-dasharray:1.85,0.8;stroke-dashoffset:0;stroke-width:0.5;"/>
   </g>
   <g id="line2d_233">
    <path clip-path="url(#pf72addd3b3)" d="M 459.23038 310.209915 
L 461.353207 310.209915 
" style="fill:none;stroke:#000000;stroke-linecap:square;stroke-width:0.5;"/>
   </g>
   <g id="line2d_234">
    <path clip-path="url(#pf72addd3b3)" d="M 459.23038 288.828097 
L 461.353207 288.828097 
" style="fill:none;stroke:#000000;stroke-linecap:square;stroke-width:0.5;"/>
   </g>
   <g id="line2d_235">
    <path clip-path="url(#pf72addd3b3)" d="M 466.660272 302.573551 
L 470.905924 302.573551 
L 470.905924 293.409915 
L 466.660272 293.409915 
L 466.660272 302.573551 
" style="fill:none;stroke:#00008b;stroke-linecap:square;stroke-width:0.5;"/>
   </g>
   <g id="line2d_236">
    <path clip-path="url(#pf72addd3b3)" d="M 468.783098 302.573551 
L 468.783098 311.737188 
" style="fill:none;stroke:#00008b;stroke-dasharray:1.85,0.8;stroke-dashoffset:0;stroke-width:0.5;"/>
   </g>
   <g id="line2d_237">
    <path clip-path="url(#pf72addd3b3)" d="M 468.783098 293.409915 
L 468.783098 285.773551 
" style="fill:none;stroke:#00008b;stroke-dasharray:1.85,0.8;stroke-dashoffset:0;stroke-width:0.5;"/>
   </g>
   <g id="line2d_238">
    <path clip-path="url(#pf72addd3b3)" d="M 467.721685 311.737188 
L 469.844511 311.737188 
" style="fill:none;stroke:#000000;stroke-linecap:square;stroke-width:0.5;"/>
   </g>
   <g id="line2d_239">
    <path clip-path="url(#pf72addd3b3)" d="M 467.721685 285.773551 
L 469.844511 285.773551 
" style="fill:none;stroke:#000000;stroke-linecap:square;stroke-width:0.5;"/>
   </g>
   <g id="line2d_240">
    <path clip-path="url(#pf72addd3b3)" d="M 84.551576 65.846278 
L 88.797228 65.846278 
" style="fill:none;stroke:#8b0000;stroke-linecap:square;stroke-width:0.5;"/>
   </g>
   <g id="line2d_241">
    <path clip-path="url(#pf72addd3b3)" d="M 93.04288 81.882642 
L 97.288533 81.882642 
" style="fill:none;stroke:#8b0000;stroke-linecap:square;stroke-width:0.5;"/>
   </g>
   <g id="line2d_242">
    <path clip-path="url(#pf72addd3b3)" d="M 101.534185 107.846278 
L 105.779837 107.846278 
" style="fill:none;stroke:#8b0000;stroke-linecap:square;stroke-width:0.5;"/>
   </g>
   <g id="line2d_243">
    <path clip-path="url(#pf72addd3b3)" d="M 110.025489 139.155369 
L 114.271141 139.155369 
" style="fill:none;stroke:#8b0000;stroke-linecap:square;stroke-width:0.5;"/>
   </g>
   <g id="line2d_244">
    <path clip-path="url(#pf72addd3b3)" d="M 118.516793 162.06446 
L 122.762446 162.06446 
" style="fill:none;stroke:#8b0000;stroke-linecap:square;stroke-width:0.5;"/>
   </g>
   <g id="line2d_245">
    <path clip-path="url(#pf72addd3b3)" d="M 127.008098 184.209915 
L 131.25375 184.209915 
" style="fill:none;stroke:#8b0000;stroke-linecap:square;stroke-width:0.5;"/>
   </g>
   <g id="line2d_246">
    <path clip-path="url(#pf72addd3b3)" d="M 135.499402 199.482642 
L 139.745054 199.482642 
" style="fill:none;stroke:#8b0000;stroke-linecap:square;stroke-width:0.5;"/>
   </g>
   <g id="line2d_247">
    <path clip-path="url(#pf72addd3b3)" d="M 143.990707 210.937187 
L 148.236359 210.937187 
" style="fill:none;stroke:#8b0000;stroke-linecap:square;stroke-width:0.5;"/>
   </g>
   <g id="line2d_248">
    <path clip-path="url(#pf72addd3b3)" d="M 152.482011 226.209915 
L 156.727663 226.209915 
" style="fill:none;stroke:#8b0000;stroke-linecap:square;stroke-width:0.5;"/>
   </g>
   <g id="line2d_249">
    <path clip-path="url(#pf72addd3b3)" d="M 160.973315 230.028097 
L 165.218967 230.028097 
" style="fill:none;stroke:#8b0000;stroke-linecap:square;stroke-width:0.5;"/>
   </g>
   <g id="line2d_250">
    <path clip-path="url(#pf72addd3b3)" d="M 169.46462 239.191733 
L 173.710272 239.191733 
" style="fill:none;stroke:#8b0000;stroke-linecap:square;stroke-width:0.5;"/>
   </g>
   <g id="line2d_251">
    <path clip-path="url(#pf72addd3b3)" d="M 177.955924 246.828097 
L 182.201576 246.828097 
" style="fill:none;stroke:#8b0000;stroke-linecap:square;stroke-width:0.5;"/>
   </g>
   <g id="line2d_252">
    <path clip-path="url(#pf72addd3b3)" d="M 186.447228 249.119006 
L 190.69288 249.119006 
" style="fill:none;stroke:#8b0000;stroke-linecap:square;stroke-width:0.5;"/>
   </g>
   <g id="line2d_253">
    <path clip-path="url(#pf72addd3b3)" d="M 194.938533 259.046278 
L 199.184185 259.046278 
" style="fill:none;stroke:#8b0000;stroke-linecap:square;stroke-width:0.5;"/>
   </g>
   <g id="line2d_254">
    <path clip-path="url(#pf72addd3b3)" d="M 203.429837 262.100824 
L 207.675489 262.100824 
" style="fill:none;stroke:#8b0000;stroke-linecap:square;stroke-width:0.5;"/>
   </g>
   <g id="line2d_255">
    <path clip-path="url(#pf72addd3b3)" d="M 211.921141 265.919006 
L 216.166793 265.919006 
" style="fill:none;stroke:#8b0000;stroke-linecap:square;stroke-width:0.5;"/>
   </g>
   <g id="line2d_256">
    <path clip-path="url(#pf72addd3b3)" d="M 220.412446 267.446278 
L 224.658098 267.446278 
" style="fill:none;stroke:#8b0000;stroke-linecap:square;stroke-width:0.5;"/>
   </g>
   <g id="line2d_257">
    <path clip-path="url(#pf72addd3b3)" d="M 228.90375 272.791733 
L 233.149402 272.791733 
" style="fill:none;stroke:#8b0000;stroke-linecap:square;stroke-width:0.5;"/>
   </g>
   <g id="line2d_258">
    <path clip-path="url(#pf72addd3b3)" d="M 237.395054 275.082642 
L 241.640707 275.082642 
" style="fill:none;stroke:#8b0000;stroke-linecap:square;stroke-width:0.5;"/>
   </g>
   <g id="line2d_259">
    <path clip-path="url(#pf72addd3b3)" d="M 245.886359 278.900824 
L 250.132011 278.900824 
" style="fill:none;stroke:#8b0000;stroke-linecap:square;stroke-width:0.5;"/>
   </g>
   <g id="line2d_260">
    <path clip-path="url(#pf72addd3b3)" d="M 254.377663 280.428097 
L 258.623315 280.428097 
" style="fill:none;stroke:#8b0000;stroke-linecap:square;stroke-width:0.5;"/>
   </g>
   <g id="line2d_261">
    <path clip-path="url(#pf72addd3b3)" d="M 262.868967 284.246278 
L 267.11462 284.246278 
" style="fill:none;stroke:#8b0000;stroke-linecap:square;stroke-width:0.5;"/>
   </g>
   <g id="line2d_262">
    <path clip-path="url(#pf72addd3b3)" d="M 271.360272 281.191733 
L 275.605924 281.191733 
" style="fill:none;stroke:#8b0000;stroke-linecap:square;stroke-width:0.5;"/>
   </g>
   <g id="line2d_263">
    <path clip-path="url(#pf72addd3b3)" d="M 279.851576 288.06446 
L 284.097228 288.06446 
" style="fill:none;stroke:#8b0000;stroke-linecap:square;stroke-width:0.5;"/>
   </g>
   <g id="line2d_264">
    <path clip-path="url(#pf72addd3b3)" d="M 288.34288 288.828097 
L 292.588533 288.828097 
" style="fill:none;stroke:#8b0000;stroke-linecap:square;stroke-width:0.5;"/>
   </g>
   <g id="line2d_265">
    <path clip-path="url(#pf72addd3b3)" d="M 296.834185 291.119006 
L 301.079837 291.119006 
" style="fill:none;stroke:#8b0000;stroke-linecap:square;stroke-width:0.5;"/>
   </g>
   <g id="line2d_266">
    <path clip-path="url(#pf72addd3b3)" d="M 305.325489 290.355369 
L 309.571141 290.355369 
" style="fill:none;stroke:#8b0000;stroke-linecap:square;stroke-width:0.5;"/>
   </g>
   <g id="line2d_267">
    <path clip-path="url(#pf72addd3b3)" d="M 313.816793 292.646278 
L 318.062446 292.646278 
" style="fill:none;stroke:#8b0000;stroke-linecap:square;stroke-width:0.5;"/>
   </g>
   <g id="line2d_268">
    <path clip-path="url(#pf72addd3b3)" d="M 322.308098 293.409915 
L 326.55375 293.409915 
" style="fill:none;stroke:#8b0000;stroke-linecap:square;stroke-width:0.5;"/>
   </g>
   <g id="line2d_269">
    <path clip-path="url(#pf72addd3b3)" d="M 330.799402 292.646278 
L 335.045054 292.646278 
" style="fill:none;stroke:#8b0000;stroke-linecap:square;stroke-width:0.5;"/>
   </g>
   <g id="line2d_270">
    <path clip-path="url(#pf72addd3b3)" d="M 339.290707 295.700824 
L 343.536359 295.700824 
" style="fill:none;stroke:#8b0000;stroke-linecap:square;stroke-width:0.5;"/>
   </g>
   <g id="line2d_271">
    <path clip-path="url(#pf72addd3b3)" d="M 347.782011 295.700824 
L 352.027663 295.700824 
" style="fill:none;stroke:#8b0000;stroke-linecap:square;stroke-width:0.5;"/>
   </g>
   <g id="line2d_272">
    <path clip-path="url(#pf72addd3b3)" d="M 356.273315 296.46446 
L 360.518967 296.46446 
" style="fill:none;stroke:#8b0000;stroke-linecap:square;stroke-width:0.5;"/>
   </g>
   <g id="line2d_273">
    <path clip-path="url(#pf72addd3b3)" d="M 364.76462 296.46446 
L 369.010272 296.46446 
" style="fill:none;stroke:#8b0000;stroke-linecap:square;stroke-width:0.5;"/>
   </g>
   <g id="line2d_274">
    <path clip-path="url(#pf72addd3b3)" d="M 373.255924 297.228097 
L 377.501576 297.228097 
" style="fill:none;stroke:#8b0000;stroke-linecap:square;stroke-width:0.5;"/>
   </g>
   <g id="line2d_275">
    <path clip-path="url(#pf72addd3b3)" d="M 381.747228 299.519006 
L 385.99288 299.519006 
" style="fill:none;stroke:#8b0000;stroke-linecap:square;stroke-width:0.5;"/>
   </g>
   <g id="line2d_276">
    <path clip-path="url(#pf72addd3b3)" d="M 390.238533 296.46446 
L 394.484185 296.46446 
" style="fill:none;stroke:#8b0000;stroke-linecap:square;stroke-width:0.5;"/>
   </g>
   <g id="line2d_277">
    <path clip-path="url(#pf72addd3b3)" d="M 398.729837 298.755369 
L 402.975489 298.755369 
" style="fill:none;stroke:#8b0000;stroke-linecap:square;stroke-width:0.5;"/>
   </g>
   <g id="line2d_278">
    <path clip-path="url(#pf72addd3b3)" d="M 407.221141 297.991733 
L 411.466793 297.991733 
" style="fill:none;stroke:#8b0000;stroke-linecap:square;stroke-width:0.5;"/>
   </g>
   <g id="line2d_279">
    <path clip-path="url(#pf72addd3b3)" d="M 415.712446 298.755369 
L 419.958098 298.755369 
" style="fill:none;stroke:#8b0000;stroke-linecap:square;stroke-width:0.5;"/>
   </g>
   <g id="line2d_280">
    <path clip-path="url(#pf72addd3b3)" d="M 424.20375 300.282642 
L 428.449402 300.282642 
" style="fill:none;stroke:#8b0000;stroke-linecap:square;stroke-width:0.5;"/>
   </g>
   <g id="line2d_281">
    <path clip-path="url(#pf72addd3b3)" d="M 432.695054 300.282642 
L 436.940707 300.282642 
" style="fill:none;stroke:#8b0000;stroke-linecap:square;stroke-width:0.5;"/>
   </g>
   <g id="line2d_282">
    <path clip-path="url(#pf72addd3b3)" d="M 441.186359 298.755369 
L 445.432011 298.755369 
" style="fill:none;stroke:#8b0000;stroke-linecap:square;stroke-width:0.5;"/>
   </g>
   <g id="line2d_283">
    <path clip-path="url(#pf72addd3b3)" d="M 449.677663 295.700824 
L 453.923315 295.700824 
" style="fill:none;stroke:#8b0000;stroke-linecap:square;stroke-width:0.5;"/>
   </g>
   <g id="line2d_284">
    <path clip-path="url(#pf72addd3b3)" d="M 458.168967 299.519006 
L 462.41462 299.519006 
" style="fill:none;stroke:#8b0000;stroke-linecap:square;stroke-width:0.5;"/>
   </g>
   <g id="line2d_285">
    <path clip-path="url(#pf72addd3b3)" d="M 466.660272 297.991733 
L 470.905924 297.991733 
" style="fill:none;stroke:#8b0000;stroke-linecap:square;stroke-width:0.5;"/>
   </g>
   <g id="patch_3">
    <path d="M 82.42875 324.337188 
L 82.42875 47.137187 
" style="fill:none;stroke:#000000;stroke-linecap:square;stroke-linejoin:miter;stroke-width:0.8;"/>
   </g>
   <g id="patch_4">
    <path d="M 82.42875 324.337188 
L 473.02875 324.337188 
" style="fill:none;stroke:#000000;stroke-linecap:square;stroke-linejoin:miter;stroke-width:0.8;"/>
   </g>
  </g>
 </g>
 <defs>
  <clipPath id="pf72addd3b3">
   <rect height="277.2" width="390.6" x="82.42875" y="47.137187"/>
  </clipPath>
 </defs>
</svg>
