<?xml version="1.0" encoding="utf-8" standalone="no"?>
<!DOCTYPE svg PUBLIC "-//W3C//DTD SVG 1.1//EN"
  "http://www.w3.org/Graphics/SVG/1.1/DTD/svg11.dtd">
<!-- Created with matplotlib (https://matplotlib.org/) -->
<svg height="390.62pt" version="1.1" viewBox="0 0 521.502114 390.62" width="521.502114pt" xmlns="http://www.w3.org/2000/svg" xmlns:xlink="http://www.w3.org/1999/xlink">
 <defs>
  <style type="text/css">
*{stroke-linecap:butt;stroke-linejoin:round;}
  </style>
 </defs>
 <g id="figure_1">
  <g id="patch_1">
   <path d="M 0 390.62 
L 521.502114 390.62 
L 521.502114 0 
L 0 0 
z
" style="fill:none;"/>
  </g>
  <g id="axes_1">
   <g id="patch_2">
    <path d="M 100.24375 316.7225 
L 490.84375 316.7225 
L 490.84375 39.5225 
L 100.24375 39.5225 
z
" style="fill:none;"/>
   </g>
   <g id="matplotlib.axis_1">
    <g id="xtick_1">
     <g id="line2d_1">
      <defs>
       <path d="M 0 0 
L 0 5 
" id="m0662b5d810" style="stroke:#000000;stroke-width:0.8;"/>
      </defs>
      <g>
       <use style="stroke:#000000;stroke-width:0.8;" x="115.561397" xlink:href="#m0662b5d810" y="316.7225"/>
      </g>
     </g>
     <g id="text_1">
      <!-- 1% -->
      <defs>
       <path d="M 12.40625 8.296875 
L 28.515625 8.296875 
L 28.515625 63.921875 
L 10.984375 60.40625 
L 10.984375 69.390625 
L 28.421875 72.90625 
L 38.28125 72.90625 
L 38.28125 8.296875 
L 54.390625 8.296875 
L 54.390625 0 
L 12.40625 0 
z
" id="DejaVuSans-49"/>
       <path d="M 72.703125 32.078125 
Q 68.453125 32.078125 66.03125 28.46875 
Q 63.625 24.859375 63.625 18.40625 
Q 63.625 12.0625 66.03125 8.421875 
Q 68.453125 4.78125 72.703125 4.78125 
Q 76.859375 4.78125 79.265625 8.421875 
Q 81.6875 12.0625 81.6875 18.40625 
Q 81.6875 24.8125 79.265625 28.4375 
Q 76.859375 32.078125 72.703125 32.078125 
z
M 72.703125 38.28125 
Q 80.421875 38.28125 84.953125 32.90625 
Q 89.5 27.546875 89.5 18.40625 
Q 89.5 9.28125 84.9375 3.921875 
Q 80.375 -1.421875 72.703125 -1.421875 
Q 64.890625 -1.421875 60.34375 3.921875 
Q 55.8125 9.28125 55.8125 18.40625 
Q 55.8125 27.59375 60.375 32.9375 
Q 64.9375 38.28125 72.703125 38.28125 
z
M 22.3125 68.015625 
Q 18.109375 68.015625 15.6875 64.375 
Q 13.28125 60.75 13.28125 54.390625 
Q 13.28125 47.953125 15.671875 44.328125 
Q 18.0625 40.71875 22.3125 40.71875 
Q 26.5625 40.71875 28.96875 44.328125 
Q 31.390625 47.953125 31.390625 54.390625 
Q 31.390625 60.6875 28.953125 64.34375 
Q 26.515625 68.015625 22.3125 68.015625 
z
M 66.40625 74.21875 
L 74.21875 74.21875 
L 28.609375 -1.421875 
L 20.796875 -1.421875 
z
M 22.3125 74.21875 
Q 30.03125 74.21875 34.609375 68.875 
Q 39.203125 63.53125 39.203125 54.390625 
Q 39.203125 45.171875 34.640625 39.84375 
Q 30.078125 34.515625 22.3125 34.515625 
Q 14.546875 34.515625 10.03125 39.859375 
Q 5.515625 45.21875 5.515625 54.390625 
Q 5.515625 63.484375 10.046875 68.84375 
Q 14.59375 74.21875 22.3125 74.21875 
z
" id="DejaVuSans-37"/>
      </defs>
      <g transform="translate(93.35171 346.498125)scale(0.28 -0.28)">
       <use xlink:href="#DejaVuSans-49"/>
       <use x="63.623047" xlink:href="#DejaVuSans-37"/>
      </g>
     </g>
    </g>
    <g id="xtick_2">
     <g id="line2d_2">
      <g>
       <use style="stroke:#000000;stroke-width:0.8;" x="176.831985" xlink:href="#m0662b5d810" y="316.7225"/>
      </g>
     </g>
     <g id="text_2">
      <!-- 5% -->
      <defs>
       <path d="M 10.796875 72.90625 
L 49.515625 72.90625 
L 49.515625 64.59375 
L 19.828125 64.59375 
L 19.828125 46.734375 
Q 21.96875 47.46875 24.109375 47.828125 
Q 26.265625 48.1875 28.421875 48.1875 
Q 40.625 48.1875 47.75 41.5 
Q 54.890625 34.8125 54.890625 23.390625 
Q 54.890625 11.625 47.5625 5.09375 
Q 40.234375 -1.421875 26.90625 -1.421875 
Q 22.3125 -1.421875 17.546875 -0.640625 
Q 12.796875 0.140625 7.71875 1.703125 
L 7.71875 11.625 
Q 12.109375 9.234375 16.796875 8.0625 
Q 21.484375 6.890625 26.703125 6.890625 
Q 35.15625 6.890625 40.078125 11.328125 
Q 45.015625 15.765625 45.015625 23.390625 
Q 45.015625 31 40.078125 35.4375 
Q 35.15625 39.890625 26.703125 39.890625 
Q 22.75 39.890625 18.8125 39.015625 
Q 14.890625 38.140625 10.796875 36.28125 
z
" id="DejaVuSans-53"/>
      </defs>
      <g transform="translate(154.622298 346.498125)scale(0.28 -0.28)">
       <use xlink:href="#DejaVuSans-53"/>
       <use x="63.623047" xlink:href="#DejaVuSans-37"/>
      </g>
     </g>
    </g>
    <g id="xtick_3">
     <g id="line2d_3">
      <g>
       <use style="stroke:#000000;stroke-width:0.8;" x="253.420221" xlink:href="#m0662b5d810" y="316.7225"/>
      </g>
     </g>
     <g id="text_3">
      <!-- 10% -->
      <defs>
       <path d="M 31.78125 66.40625 
Q 24.171875 66.40625 20.328125 58.90625 
Q 16.5 51.421875 16.5 36.375 
Q 16.5 21.390625 20.328125 13.890625 
Q 24.171875 6.390625 31.78125 6.390625 
Q 39.453125 6.390625 43.28125 13.890625 
Q 47.125 21.390625 47.125 36.375 
Q 47.125 51.421875 43.28125 58.90625 
Q 39.453125 66.40625 31.78125 66.40625 
z
M 31.78125 74.21875 
Q 44.046875 74.21875 50.515625 64.515625 
Q 56.984375 54.828125 56.984375 36.375 
Q 56.984375 17.96875 50.515625 8.265625 
Q 44.046875 -1.421875 31.78125 -1.421875 
Q 19.53125 -1.421875 13.0625 8.265625 
Q 6.59375 17.96875 6.59375 36.375 
Q 6.59375 54.828125 13.0625 64.515625 
Q 19.53125 74.21875 31.78125 74.21875 
z
" id="DejaVuSans-48"/>
      </defs>
      <g transform="translate(222.303033 346.498125)scale(0.28 -0.28)">
       <use xlink:href="#DejaVuSans-49"/>
       <use x="63.623047" xlink:href="#DejaVuSans-48"/>
       <use x="127.246094" xlink:href="#DejaVuSans-37"/>
      </g>
     </g>
    </g>
    <g id="xtick_4">
     <g id="line2d_4">
      <g>
       <use style="stroke:#000000;stroke-width:0.8;" x="330.008456" xlink:href="#m0662b5d810" y="316.7225"/>
      </g>
     </g>
     <g id="text_4">
      <!-- 15% -->
      <g transform="translate(298.891268 346.498125)scale(0.28 -0.28)">
       <use xlink:href="#DejaVuSans-49"/>
       <use x="63.623047" xlink:href="#DejaVuSans-53"/>
       <use x="127.246094" xlink:href="#DejaVuSans-37"/>
      </g>
     </g>
    </g>
    <g id="xtick_5">
     <g id="line2d_5">
      <g>
       <use style="stroke:#000000;stroke-width:0.8;" x="406.596691" xlink:href="#m0662b5d810" y="316.7225"/>
      </g>
     </g>
     <g id="text_5">
      <!-- 20% -->
      <defs>
       <path d="M 19.1875 8.296875 
L 53.609375 8.296875 
L 53.609375 0 
L 7.328125 0 
L 7.328125 8.296875 
Q 12.9375 14.109375 22.625 23.890625 
Q 32.328125 33.6875 34.8125 36.53125 
Q 39.546875 41.84375 41.421875 45.53125 
Q 43.3125 49.21875 43.3125 52.78125 
Q 43.3125 58.59375 39.234375 62.25 
Q 35.15625 65.921875 28.609375 65.921875 
Q 23.96875 65.921875 18.8125 64.3125 
Q 13.671875 62.703125 7.8125 59.421875 
L 7.8125 69.390625 
Q 13.765625 71.78125 18.9375 73 
Q 24.125 74.21875 28.421875 74.21875 
Q 39.75 74.21875 46.484375 68.546875 
Q 53.21875 62.890625 53.21875 53.421875 
Q 53.21875 48.921875 51.53125 44.890625 
Q 49.859375 40.875 45.40625 35.40625 
Q 44.1875 33.984375 37.640625 27.21875 
Q 31.109375 20.453125 19.1875 8.296875 
z
" id="DejaVuSans-50"/>
      </defs>
      <g transform="translate(375.479504 346.498125)scale(0.28 -0.28)">
       <use xlink:href="#DejaVuSans-50"/>
       <use x="63.623047" xlink:href="#DejaVuSans-48"/>
       <use x="127.246094" xlink:href="#DejaVuSans-37"/>
      </g>
     </g>
    </g>
    <g id="xtick_6">
     <g id="line2d_6">
      <g>
       <use style="stroke:#000000;stroke-width:0.8;" x="483.184926" xlink:href="#m0662b5d810" y="316.7225"/>
      </g>
     </g>
     <g id="text_6">
      <!-- 25% -->
      <g transform="translate(452.067739 346.498125)scale(0.28 -0.28)">
       <use xlink:href="#DejaVuSans-50"/>
       <use x="63.623047" xlink:href="#DejaVuSans-53"/>
       <use x="127.246094" xlink:href="#DejaVuSans-37"/>
      </g>
     </g>
    </g>
    <g id="text_7">
     <!-- Capture efficiency -->
     <defs>
      <path d="M 64.40625 67.28125 
L 64.40625 56.890625 
Q 59.421875 61.53125 53.78125 63.8125 
Q 48.140625 66.109375 41.796875 66.109375 
Q 29.296875 66.109375 22.65625 58.46875 
Q 16.015625 50.828125 16.015625 36.375 
Q 16.015625 21.96875 22.65625 14.328125 
Q 29.296875 6.6875 41.796875 6.6875 
Q 48.140625 6.6875 53.78125 8.984375 
Q 59.421875 11.28125 64.40625 15.921875 
L 64.40625 5.609375 
Q 59.234375 2.09375 53.4375 0.328125 
Q 47.65625 -1.421875 41.21875 -1.421875 
Q 24.65625 -1.421875 15.125 8.703125 
Q 5.609375 18.84375 5.609375 36.375 
Q 5.609375 53.953125 15.125 64.078125 
Q 24.65625 74.21875 41.21875 74.21875 
Q 47.75 74.21875 53.53125 72.484375 
Q 59.328125 70.75 64.40625 67.28125 
z
" id="DejaVuSans-67"/>
      <path d="M 34.28125 27.484375 
Q 23.390625 27.484375 19.1875 25 
Q 14.984375 22.515625 14.984375 16.5 
Q 14.984375 11.71875 18.140625 8.90625 
Q 21.296875 6.109375 26.703125 6.109375 
Q 34.1875 6.109375 38.703125 11.40625 
Q 43.21875 16.703125 43.21875 25.484375 
L 43.21875 27.484375 
z
M 52.203125 31.203125 
L 52.203125 0 
L 43.21875 0 
L 43.21875 8.296875 
Q 40.140625 3.328125 35.546875 0.953125 
Q 30.953125 -1.421875 24.3125 -1.421875 
Q 15.921875 -1.421875 10.953125 3.296875 
Q 6 8.015625 6 15.921875 
Q 6 25.140625 12.171875 29.828125 
Q 18.359375 34.515625 30.609375 34.515625 
L 43.21875 34.515625 
L 43.21875 35.40625 
Q 43.21875 41.609375 39.140625 45 
Q 35.0625 48.390625 27.6875 48.390625 
Q 23 48.390625 18.546875 47.265625 
Q 14.109375 46.140625 10.015625 43.890625 
L 10.015625 52.203125 
Q 14.9375 54.109375 19.578125 55.046875 
Q 24.21875 56 28.609375 56 
Q 40.484375 56 46.34375 49.84375 
Q 52.203125 43.703125 52.203125 31.203125 
z
" id="DejaVuSans-97"/>
      <path d="M 18.109375 8.203125 
L 18.109375 -20.796875 
L 9.078125 -20.796875 
L 9.078125 54.6875 
L 18.109375 54.6875 
L 18.109375 46.390625 
Q 20.953125 51.265625 25.265625 53.625 
Q 29.59375 56 35.59375 56 
Q 45.5625 56 51.78125 48.09375 
Q 58.015625 40.1875 58.015625 27.296875 
Q 58.015625 14.40625 51.78125 6.484375 
Q 45.5625 -1.421875 35.59375 -1.421875 
Q 29.59375 -1.421875 25.265625 0.953125 
Q 20.953125 3.328125 18.109375 8.203125 
z
M 48.6875 27.296875 
Q 48.6875 37.203125 44.609375 42.84375 
Q 40.53125 48.484375 33.40625 48.484375 
Q 26.265625 48.484375 22.1875 42.84375 
Q 18.109375 37.203125 18.109375 27.296875 
Q 18.109375 17.390625 22.1875 11.75 
Q 26.265625 6.109375 33.40625 6.109375 
Q 40.53125 6.109375 44.609375 11.75 
Q 48.6875 17.390625 48.6875 27.296875 
z
" id="DejaVuSans-112"/>
      <path d="M 18.3125 70.21875 
L 18.3125 54.6875 
L 36.8125 54.6875 
L 36.8125 47.703125 
L 18.3125 47.703125 
L 18.3125 18.015625 
Q 18.3125 11.328125 20.140625 9.421875 
Q 21.96875 7.515625 27.59375 7.515625 
L 36.8125 7.515625 
L 36.8125 0 
L 27.59375 0 
Q 17.1875 0 13.234375 3.875 
Q 9.28125 7.765625 9.28125 18.015625 
L 9.28125 47.703125 
L 2.6875 47.703125 
L 2.6875 54.6875 
L 9.28125 54.6875 
L 9.28125 70.21875 
z
" id="DejaVuSans-116"/>
      <path d="M 8.5 21.578125 
L 8.5 54.6875 
L 17.484375 54.6875 
L 17.484375 21.921875 
Q 17.484375 14.15625 20.5 10.265625 
Q 23.53125 6.390625 29.59375 6.390625 
Q 36.859375 6.390625 41.078125 11.03125 
Q 45.3125 15.671875 45.3125 23.6875 
L 45.3125 54.6875 
L 54.296875 54.6875 
L 54.296875 0 
L 45.3125 0 
L 45.3125 8.40625 
Q 42.046875 3.421875 37.71875 1 
Q 33.40625 -1.421875 27.6875 -1.421875 
Q 18.265625 -1.421875 13.375 4.4375 
Q 8.5 10.296875 8.5 21.578125 
z
M 31.109375 56 
z
" id="DejaVuSans-117"/>
      <path d="M 41.109375 46.296875 
Q 39.59375 47.171875 37.8125 47.578125 
Q 36.03125 48 33.890625 48 
Q 26.265625 48 22.1875 43.046875 
Q 18.109375 38.09375 18.109375 28.8125 
L 18.109375 0 
L 9.078125 0 
L 9.078125 54.6875 
L 18.109375 54.6875 
L 18.109375 46.1875 
Q 20.953125 51.171875 25.484375 53.578125 
Q 30.03125 56 36.53125 56 
Q 37.453125 56 38.578125 55.875 
Q 39.703125 55.765625 41.0625 55.515625 
z
" id="DejaVuSans-114"/>
      <path d="M 56.203125 29.59375 
L 56.203125 25.203125 
L 14.890625 25.203125 
Q 15.484375 15.921875 20.484375 11.0625 
Q 25.484375 6.203125 34.421875 6.203125 
Q 39.59375 6.203125 44.453125 7.46875 
Q 49.3125 8.734375 54.109375 11.28125 
L 54.109375 2.78125 
Q 49.265625 0.734375 44.1875 -0.34375 
Q 39.109375 -1.421875 33.890625 -1.421875 
Q 20.796875 -1.421875 13.15625 6.1875 
Q 5.515625 13.8125 5.515625 26.8125 
Q 5.515625 40.234375 12.765625 48.109375 
Q 20.015625 56 32.328125 56 
Q 43.359375 56 49.78125 48.890625 
Q 56.203125 41.796875 56.203125 29.59375 
z
M 47.21875 32.234375 
Q 47.125 39.59375 43.09375 43.984375 
Q 39.0625 48.390625 32.421875 48.390625 
Q 24.90625 48.390625 20.390625 44.140625 
Q 15.875 39.890625 15.1875 32.171875 
z
" id="DejaVuSans-101"/>
      <path id="DejaVuSans-32"/>
      <path d="M 37.109375 75.984375 
L 37.109375 68.5 
L 28.515625 68.5 
Q 23.6875 68.5 21.796875 66.546875 
Q 19.921875 64.59375 19.921875 59.515625 
L 19.921875 54.6875 
L 34.71875 54.6875 
L 34.71875 47.703125 
L 19.921875 47.703125 
L 19.921875 0 
L 10.890625 0 
L 10.890625 47.703125 
L 2.296875 47.703125 
L 2.296875 54.6875 
L 10.890625 54.6875 
L 10.890625 58.5 
Q 10.890625 67.625 15.140625 71.796875 
Q 19.390625 75.984375 28.609375 75.984375 
z
" id="DejaVuSans-102"/>
      <path d="M 9.421875 54.6875 
L 18.40625 54.6875 
L 18.40625 0 
L 9.421875 0 
z
M 9.421875 75.984375 
L 18.40625 75.984375 
L 18.40625 64.59375 
L 9.421875 64.59375 
z
" id="DejaVuSans-105"/>
      <path d="M 48.78125 52.59375 
L 48.78125 44.1875 
Q 44.96875 46.296875 41.140625 47.34375 
Q 37.3125 48.390625 33.40625 48.390625 
Q 24.65625 48.390625 19.8125 42.84375 
Q 14.984375 37.3125 14.984375 27.296875 
Q 14.984375 17.28125 19.8125 11.734375 
Q 24.65625 6.203125 33.40625 6.203125 
Q 37.3125 6.203125 41.140625 7.25 
Q 44.96875 8.296875 48.78125 10.40625 
L 48.78125 2.09375 
Q 45.015625 0.34375 40.984375 -0.53125 
Q 36.96875 -1.421875 32.421875 -1.421875 
Q 20.0625 -1.421875 12.78125 6.34375 
Q 5.515625 14.109375 5.515625 27.296875 
Q 5.515625 40.671875 12.859375 48.328125 
Q 20.21875 56 33.015625 56 
Q 37.15625 56 41.109375 55.140625 
Q 45.0625 54.296875 48.78125 52.59375 
z
" id="DejaVuSans-99"/>
      <path d="M 54.890625 33.015625 
L 54.890625 0 
L 45.90625 0 
L 45.90625 32.71875 
Q 45.90625 40.484375 42.875 44.328125 
Q 39.84375 48.1875 33.796875 48.1875 
Q 26.515625 48.1875 22.3125 43.546875 
Q 18.109375 38.921875 18.109375 30.90625 
L 18.109375 0 
L 9.078125 0 
L 9.078125 54.6875 
L 18.109375 54.6875 
L 18.109375 46.1875 
Q 21.34375 51.125 25.703125 53.5625 
Q 30.078125 56 35.796875 56 
Q 45.21875 56 50.046875 50.171875 
Q 54.890625 44.34375 54.890625 33.015625 
z
" id="DejaVuSans-110"/>
      <path d="M 32.171875 -5.078125 
Q 28.375 -14.84375 24.75 -17.8125 
Q 21.140625 -20.796875 15.09375 -20.796875 
L 7.90625 -20.796875 
L 7.90625 -13.28125 
L 13.1875 -13.28125 
Q 16.890625 -13.28125 18.9375 -11.515625 
Q 21 -9.765625 23.484375 -3.21875 
L 25.09375 0.875 
L 2.984375 54.6875 
L 12.5 54.6875 
L 29.59375 11.921875 
L 46.6875 54.6875 
L 56.203125 54.6875 
z
" id="DejaVuSans-121"/>
     </defs>
     <g transform="translate(167.70625 377.596875)scale(0.28 -0.28)">
      <use xlink:href="#DejaVuSans-67"/>
      <use x="69.824219" xlink:href="#DejaVuSans-97"/>
      <use x="131.103516" xlink:href="#DejaVuSans-112"/>
      <use x="194.580078" xlink:href="#DejaVuSans-116"/>
      <use x="233.789062" xlink:href="#DejaVuSans-117"/>
      <use x="297.167969" xlink:href="#DejaVuSans-114"/>
      <use x="338.25" xlink:href="#DejaVuSans-101"/>
      <use x="399.773438" xlink:href="#DejaVuSans-32"/>
      <use x="431.560547" xlink:href="#DejaVuSans-101"/>
      <use x="493.083984" xlink:href="#DejaVuSans-102"/>
      <use x="528.289062" xlink:href="#DejaVuSans-102"/>
      <use x="563.494141" xlink:href="#DejaVuSans-105"/>
      <use x="591.277344" xlink:href="#DejaVuSans-99"/>
      <use x="646.257812" xlink:href="#DejaVuSans-105"/>
      <use x="674.041016" xlink:href="#DejaVuSans-101"/>
      <use x="735.564453" xlink:href="#DejaVuSans-110"/>
      <use x="798.943359" xlink:href="#DejaVuSans-99"/>
      <use x="853.923828" xlink:href="#DejaVuSans-121"/>
     </g>
    </g>
   </g>
   <g id="matplotlib.axis_2">
    <g id="ytick_1">
     <g id="line2d_7">
      <defs>
       <path d="M 0 0 
L -5 0 
" id="m6abb542b3a" style="stroke:#000000;stroke-width:0.8;"/>
      </defs>
      <g>
       <use style="stroke:#000000;stroke-width:0.8;" x="100.24375" xlink:href="#m6abb542b3a" y="308.464678"/>
      </g>
     </g>
     <g id="text_8">
      <!-- 0 -->
      <g transform="translate(73.92875 319.10249)scale(0.28 -0.28)">
       <use xlink:href="#DejaVuSans-48"/>
      </g>
     </g>
    </g>
    <g id="ytick_2">
     <g id="line2d_8">
      <g>
       <use style="stroke:#000000;stroke-width:0.8;" x="100.24375" xlink:href="#m6abb542b3a" y="224.732249"/>
      </g>
     </g>
     <g id="text_9">
      <!-- 50 -->
      <g transform="translate(56.11375 235.370062)scale(0.28 -0.28)">
       <use xlink:href="#DejaVuSans-53"/>
       <use x="63.623047" xlink:href="#DejaVuSans-48"/>
      </g>
     </g>
    </g>
    <g id="ytick_3">
     <g id="line2d_9">
      <g>
       <use style="stroke:#000000;stroke-width:0.8;" x="100.24375" xlink:href="#m6abb542b3a" y="140.999821"/>
      </g>
     </g>
     <g id="text_10">
      <!-- 100 -->
      <g transform="translate(38.29875 151.637633)scale(0.28 -0.28)">
       <use xlink:href="#DejaVuSans-49"/>
       <use x="63.623047" xlink:href="#DejaVuSans-48"/>
       <use x="127.246094" xlink:href="#DejaVuSans-48"/>
      </g>
     </g>
    </g>
    <g id="ytick_4">
     <g id="line2d_10">
      <g>
       <use style="stroke:#000000;stroke-width:0.8;" x="100.24375" xlink:href="#m6abb542b3a" y="57.267393"/>
      </g>
     </g>
     <g id="text_11">
      <!-- 150 -->
      <g transform="translate(38.29875 67.905205)scale(0.28 -0.28)">
       <use xlink:href="#DejaVuSans-49"/>
       <use x="63.623047" xlink:href="#DejaVuSans-53"/>
       <use x="127.246094" xlink:href="#DejaVuSans-48"/>
      </g>
     </g>
    </g>
    <g id="text_12">
     <!-- Reads at inflection point -->
     <defs>
      <path d="M 44.390625 34.1875 
Q 47.5625 33.109375 50.5625 29.59375 
Q 53.5625 26.078125 56.59375 19.921875 
L 66.609375 0 
L 56 0 
L 46.6875 18.703125 
Q 43.0625 26.03125 39.671875 28.421875 
Q 36.28125 30.8125 30.421875 30.8125 
L 19.671875 30.8125 
L 19.671875 0 
L 9.8125 0 
L 9.8125 72.90625 
L 32.078125 72.90625 
Q 44.578125 72.90625 50.734375 67.671875 
Q 56.890625 62.453125 56.890625 51.90625 
Q 56.890625 45.015625 53.6875 40.46875 
Q 50.484375 35.9375 44.390625 34.1875 
z
M 19.671875 64.796875 
L 19.671875 38.921875 
L 32.078125 38.921875 
Q 39.203125 38.921875 42.84375 42.21875 
Q 46.484375 45.515625 46.484375 51.90625 
Q 46.484375 58.296875 42.84375 61.546875 
Q 39.203125 64.796875 32.078125 64.796875 
z
" id="DejaVuSans-82"/>
      <path d="M 45.40625 46.390625 
L 45.40625 75.984375 
L 54.390625 75.984375 
L 54.390625 0 
L 45.40625 0 
L 45.40625 8.203125 
Q 42.578125 3.328125 38.25 0.953125 
Q 33.9375 -1.421875 27.875 -1.421875 
Q 17.96875 -1.421875 11.734375 6.484375 
Q 5.515625 14.40625 5.515625 27.296875 
Q 5.515625 40.1875 11.734375 48.09375 
Q 17.96875 56 27.875 56 
Q 33.9375 56 38.25 53.625 
Q 42.578125 51.265625 45.40625 46.390625 
z
M 14.796875 27.296875 
Q 14.796875 17.390625 18.875 11.75 
Q 22.953125 6.109375 30.078125 6.109375 
Q 37.203125 6.109375 41.296875 11.75 
Q 45.40625 17.390625 45.40625 27.296875 
Q 45.40625 37.203125 41.296875 42.84375 
Q 37.203125 48.484375 30.078125 48.484375 
Q 22.953125 48.484375 18.875 42.84375 
Q 14.796875 37.203125 14.796875 27.296875 
z
" id="DejaVuSans-100"/>
      <path d="M 44.28125 53.078125 
L 44.28125 44.578125 
Q 40.484375 46.53125 36.375 47.5 
Q 32.28125 48.484375 27.875 48.484375 
Q 21.1875 48.484375 17.84375 46.4375 
Q 14.5 44.390625 14.5 40.28125 
Q 14.5 37.15625 16.890625 35.375 
Q 19.28125 33.59375 26.515625 31.984375 
L 29.59375 31.296875 
Q 39.15625 29.25 43.1875 25.515625 
Q 47.21875 21.78125 47.21875 15.09375 
Q 47.21875 7.46875 41.1875 3.015625 
Q 35.15625 -1.421875 24.609375 -1.421875 
Q 20.21875 -1.421875 15.453125 -0.5625 
Q 10.6875 0.296875 5.421875 2 
L 5.421875 11.28125 
Q 10.40625 8.6875 15.234375 7.390625 
Q 20.0625 6.109375 24.8125 6.109375 
Q 31.15625 6.109375 34.5625 8.28125 
Q 37.984375 10.453125 37.984375 14.40625 
Q 37.984375 18.0625 35.515625 20.015625 
Q 33.0625 21.96875 24.703125 23.78125 
L 21.578125 24.515625 
Q 13.234375 26.265625 9.515625 29.90625 
Q 5.8125 33.546875 5.8125 39.890625 
Q 5.8125 47.609375 11.28125 51.796875 
Q 16.75 56 26.8125 56 
Q 31.78125 56 36.171875 55.265625 
Q 40.578125 54.546875 44.28125 53.078125 
z
" id="DejaVuSans-115"/>
      <path d="M 9.421875 75.984375 
L 18.40625 75.984375 
L 18.40625 0 
L 9.421875 0 
z
" id="DejaVuSans-108"/>
      <path d="M 30.609375 48.390625 
Q 23.390625 48.390625 19.1875 42.75 
Q 14.984375 37.109375 14.984375 27.296875 
Q 14.984375 17.484375 19.15625 11.84375 
Q 23.34375 6.203125 30.609375 6.203125 
Q 37.796875 6.203125 41.984375 11.859375 
Q 46.1875 17.53125 46.1875 27.296875 
Q 46.1875 37.015625 41.984375 42.703125 
Q 37.796875 48.390625 30.609375 48.390625 
z
M 30.609375 56 
Q 42.328125 56 49.015625 48.375 
Q 55.71875 40.765625 55.71875 27.296875 
Q 55.71875 13.875 49.015625 6.21875 
Q 42.328125 -1.421875 30.609375 -1.421875 
Q 18.84375 -1.421875 12.171875 6.21875 
Q 5.515625 13.875 5.515625 27.296875 
Q 5.515625 40.765625 12.171875 48.375 
Q 18.84375 56 30.609375 56 
z
" id="DejaVuSans-111"/>
     </defs>
     <g transform="translate(28.475625 349.045)rotate(-90)scale(0.28 -0.28)">
      <use xlink:href="#DejaVuSans-82"/>
      <use x="69.419922" xlink:href="#DejaVuSans-101"/>
      <use x="130.943359" xlink:href="#DejaVuSans-97"/>
      <use x="192.222656" xlink:href="#DejaVuSans-100"/>
      <use x="255.699219" xlink:href="#DejaVuSans-115"/>
      <use x="307.798828" xlink:href="#DejaVuSans-32"/>
      <use x="339.585938" xlink:href="#DejaVuSans-97"/>
      <use x="400.865234" xlink:href="#DejaVuSans-116"/>
      <use x="440.074219" xlink:href="#DejaVuSans-32"/>
      <use x="471.861328" xlink:href="#DejaVuSans-105"/>
      <use x="499.644531" xlink:href="#DejaVuSans-110"/>
      <use x="563.023438" xlink:href="#DejaVuSans-102"/>
      <use x="598.228516" xlink:href="#DejaVuSans-108"/>
      <use x="626.011719" xlink:href="#DejaVuSans-101"/>
      <use x="687.535156" xlink:href="#DejaVuSans-99"/>
      <use x="742.515625" xlink:href="#DejaVuSans-116"/>
      <use x="781.724609" xlink:href="#DejaVuSans-105"/>
      <use x="809.507812" xlink:href="#DejaVuSans-111"/>
      <use x="870.689453" xlink:href="#DejaVuSans-110"/>
      <use x="934.068359" xlink:href="#DejaVuSans-32"/>
      <use x="965.855469" xlink:href="#DejaVuSans-112"/>
      <use x="1029.332031" xlink:href="#DejaVuSans-111"/>
      <use x="1090.513672" xlink:href="#DejaVuSans-105"/>
      <use x="1118.296875" xlink:href="#DejaVuSans-110"/>
      <use x="1181.675781" xlink:href="#DejaVuSans-116"/>
     </g>
    </g>
   </g>
   <g id="line2d_11">
    <path clip-path="url(#p49e42e94c3)" d="M 111.731985 118.060578 
L 119.390809 118.060578 
L 119.390809 82.070706 
L 111.731985 82.070706 
L 111.731985 118.060578 
" style="fill:none;stroke:#00008b;stroke-linecap:square;stroke-width:0.5;"/>
   </g>
   <g id="line2d_12">
    <path clip-path="url(#p49e42e94c3)" d="M 115.561397 118.060578 
L 115.561397 131.226758 
" style="fill:none;stroke:#00008b;stroke-dasharray:1.85,0.8;stroke-dashoffset:0;stroke-width:0.5;"/>
   </g>
   <g id="line2d_13">
    <path clip-path="url(#p49e42e94c3)" d="M 115.561397 82.070706 
L 115.561397 52.1225 
" style="fill:none;stroke:#00008b;stroke-dasharray:1.85,0.8;stroke-dashoffset:0;stroke-width:0.5;"/>
   </g>
   <g id="line2d_14">
    <path clip-path="url(#p49e42e94c3)" d="M 113.646691 131.226758 
L 117.476103 131.226758 
" style="fill:none;stroke:#000000;stroke-linecap:square;stroke-width:0.5;"/>
   </g>
   <g id="line2d_15">
    <path clip-path="url(#p49e42e94c3)" d="M 113.646691 52.1225 
L 117.476103 52.1225 
" style="fill:none;stroke:#000000;stroke-linecap:square;stroke-width:0.5;"/>
   </g>
   <g id="line2d_16">
    <path clip-path="url(#p49e42e94c3)" d="M 127.049632 219.306993 
L 134.708456 219.306993 
L 134.708456 201.107238 
L 127.049632 201.107238 
L 127.049632 219.306993 
" style="fill:none;stroke:#00008b;stroke-linecap:square;stroke-width:0.5;"/>
   </g>
   <g id="line2d_17">
    <path clip-path="url(#p49e42e94c3)" d="M 130.879044 219.306993 
L 130.879044 226.760249 
" style="fill:none;stroke:#00008b;stroke-dasharray:1.85,0.8;stroke-dashoffset:0;stroke-width:0.5;"/>
   </g>
   <g id="line2d_18">
    <path clip-path="url(#p49e42e94c3)" d="M 130.879044 201.107238 
L 130.879044 190.062 
" style="fill:none;stroke:#00008b;stroke-dasharray:1.85,0.8;stroke-dashoffset:0;stroke-width:0.5;"/>
   </g>
   <g id="line2d_19">
    <path clip-path="url(#p49e42e94c3)" d="M 128.964338 226.760249 
L 132.79375 226.760249 
" style="fill:none;stroke:#000000;stroke-linecap:square;stroke-width:0.5;"/>
   </g>
   <g id="line2d_20">
    <path clip-path="url(#p49e42e94c3)" d="M 128.964338 190.062 
L 132.79375 190.062 
" style="fill:none;stroke:#000000;stroke-linecap:square;stroke-width:0.5;"/>
   </g>
   <g id="line2d_21">
    <path clip-path="url(#p49e42e94c3)" d="M 142.367279 252.084936 
L 150.026103 252.084936 
L 150.026103 239.891447 
L 142.367279 239.891447 
L 142.367279 252.084936 
" style="fill:none;stroke:#00008b;stroke-linecap:square;stroke-width:0.5;"/>
   </g>
   <g id="line2d_22">
    <path clip-path="url(#p49e42e94c3)" d="M 146.196691 252.084936 
L 146.196691 258.755526 
" style="fill:none;stroke:#00008b;stroke-dasharray:1.85,0.8;stroke-dashoffset:0;stroke-width:0.5;"/>
   </g>
   <g id="line2d_23">
    <path clip-path="url(#p49e42e94c3)" d="M 146.196691 239.891447 
L 146.196691 231.23491 
" style="fill:none;stroke:#00008b;stroke-dasharray:1.85,0.8;stroke-dashoffset:0;stroke-width:0.5;"/>
   </g>
   <g id="line2d_24">
    <path clip-path="url(#p49e42e94c3)" d="M 144.281985 258.755526 
L 148.111397 258.755526 
" style="fill:none;stroke:#000000;stroke-linecap:square;stroke-width:0.5;"/>
   </g>
   <g id="line2d_25">
    <path clip-path="url(#p49e42e94c3)" d="M 144.281985 231.23491 
L 148.111397 231.23491 
" style="fill:none;stroke:#000000;stroke-linecap:square;stroke-width:0.5;"/>
   </g>
   <g id="line2d_26">
    <path clip-path="url(#p49e42e94c3)" d="M 157.684926 269.312976 
L 165.34375 269.312976 
L 165.34375 261.299457 
L 157.684926 261.299457 
L 157.684926 269.312976 
" style="fill:none;stroke:#00008b;stroke-linecap:square;stroke-width:0.5;"/>
   </g>
   <g id="line2d_27">
    <path clip-path="url(#p49e42e94c3)" d="M 161.514338 269.312976 
L 161.514338 274.074653 
" style="fill:none;stroke:#00008b;stroke-dasharray:1.85,0.8;stroke-dashoffset:0;stroke-width:0.5;"/>
   </g>
   <g id="line2d_28">
    <path clip-path="url(#p49e42e94c3)" d="M 161.514338 261.299457 
L 161.514338 255.943419 
" style="fill:none;stroke:#00008b;stroke-dasharray:1.85,0.8;stroke-dashoffset:0;stroke-width:0.5;"/>
   </g>
   <g id="line2d_29">
    <path clip-path="url(#p49e42e94c3)" d="M 159.599632 274.074653 
L 163.429044 274.074653 
" style="fill:none;stroke:#000000;stroke-linecap:square;stroke-width:0.5;"/>
   </g>
   <g id="line2d_30">
    <path clip-path="url(#p49e42e94c3)" d="M 159.599632 255.943419 
L 163.429044 255.943419 
" style="fill:none;stroke:#000000;stroke-linecap:square;stroke-width:0.5;"/>
   </g>
   <g id="line2d_31">
    <path clip-path="url(#p49e42e94c3)" d="M 173.002574 277.319982 
L 180.661397 277.319982 
L 180.661397 270.654555 
L 173.002574 270.654555 
L 173.002574 277.319982 
" style="fill:none;stroke:#00008b;stroke-linecap:square;stroke-width:0.5;"/>
   </g>
   <g id="line2d_32">
    <path clip-path="url(#p49e42e94c3)" d="M 176.831985 277.319982 
L 176.831985 281.705096 
" style="fill:none;stroke:#00008b;stroke-dasharray:1.85,0.8;stroke-dashoffset:0;stroke-width:0.5;"/>
   </g>
   <g id="line2d_33">
    <path clip-path="url(#p49e42e94c3)" d="M 176.831985 270.654555 
L 176.831985 266.709176 
" style="fill:none;stroke:#00008b;stroke-dasharray:1.85,0.8;stroke-dashoffset:0;stroke-width:0.5;"/>
   </g>
   <g id="line2d_34">
    <path clip-path="url(#p49e42e94c3)" d="M 174.917279 281.705096 
L 178.746691 281.705096 
" style="fill:none;stroke:#000000;stroke-linecap:square;stroke-width:0.5;"/>
   </g>
   <g id="line2d_35">
    <path clip-path="url(#p49e42e94c3)" d="M 174.917279 266.709176 
L 178.746691 266.709176 
" style="fill:none;stroke:#000000;stroke-linecap:square;stroke-width:0.5;"/>
   </g>
   <g id="line2d_36">
    <path clip-path="url(#p49e42e94c3)" d="M 188.320221 282.014534 
L 195.979044 282.014534 
L 195.979044 275.495685 
L 188.320221 275.495685 
L 188.320221 282.014534 
" style="fill:none;stroke:#00008b;stroke-linecap:square;stroke-width:0.5;"/>
   </g>
   <g id="line2d_37">
    <path clip-path="url(#p49e42e94c3)" d="M 192.149632 282.014534 
L 192.149632 286.096397 
" style="fill:none;stroke:#00008b;stroke-dasharray:1.85,0.8;stroke-dashoffset:0;stroke-width:0.5;"/>
   </g>
   <g id="line2d_38">
    <path clip-path="url(#p49e42e94c3)" d="M 192.149632 275.495685 
L 192.149632 271.790432 
" style="fill:none;stroke:#00008b;stroke-dasharray:1.85,0.8;stroke-dashoffset:0;stroke-width:0.5;"/>
   </g>
   <g id="line2d_39">
    <path clip-path="url(#p49e42e94c3)" d="M 190.234926 286.096397 
L 194.064338 286.096397 
" style="fill:none;stroke:#000000;stroke-linecap:square;stroke-width:0.5;"/>
   </g>
   <g id="line2d_40">
    <path clip-path="url(#p49e42e94c3)" d="M 190.234926 271.790432 
L 194.064338 271.790432 
" style="fill:none;stroke:#000000;stroke-linecap:square;stroke-width:0.5;"/>
   </g>
   <g id="line2d_41">
    <path clip-path="url(#p49e42e94c3)" d="M 203.637868 286.131378 
L 211.296691 286.131378 
L 211.296691 280.264526 
L 203.637868 280.264526 
L 203.637868 286.131378 
" style="fill:none;stroke:#00008b;stroke-linecap:square;stroke-width:0.5;"/>
   </g>
   <g id="line2d_42">
    <path clip-path="url(#p49e42e94c3)" d="M 207.467279 286.131378 
L 207.467279 288.975118 
" style="fill:none;stroke:#00008b;stroke-dasharray:1.85,0.8;stroke-dashoffset:0;stroke-width:0.5;"/>
   </g>
   <g id="line2d_43">
    <path clip-path="url(#p49e42e94c3)" d="M 207.467279 280.264526 
L 207.467279 276.806563 
" style="fill:none;stroke:#00008b;stroke-dasharray:1.85,0.8;stroke-dashoffset:0;stroke-width:0.5;"/>
   </g>
   <g id="line2d_44">
    <path clip-path="url(#p49e42e94c3)" d="M 205.552574 288.975118 
L 209.381985 288.975118 
" style="fill:none;stroke:#000000;stroke-linecap:square;stroke-width:0.5;"/>
   </g>
   <g id="line2d_45">
    <path clip-path="url(#p49e42e94c3)" d="M 205.552574 276.806563 
L 209.381985 276.806563 
" style="fill:none;stroke:#000000;stroke-linecap:square;stroke-width:0.5;"/>
   </g>
   <g id="line2d_46">
    <path clip-path="url(#p49e42e94c3)" d="M 218.955515 289.178122 
L 226.614338 289.178122 
L 226.614338 284.647454 
L 218.955515 284.647454 
L 218.955515 289.178122 
" style="fill:none;stroke:#00008b;stroke-linecap:square;stroke-width:0.5;"/>
   </g>
   <g id="line2d_47">
    <path clip-path="url(#p49e42e94c3)" d="M 222.784926 289.178122 
L 222.784926 292.2204 
" style="fill:none;stroke:#00008b;stroke-dasharray:1.85,0.8;stroke-dashoffset:0;stroke-width:0.5;"/>
   </g>
   <g id="line2d_48">
    <path clip-path="url(#p49e42e94c3)" d="M 222.784926 284.647454 
L 222.784926 281.610013 
" style="fill:none;stroke:#00008b;stroke-dasharray:1.85,0.8;stroke-dashoffset:0;stroke-width:0.5;"/>
   </g>
   <g id="line2d_49">
    <path clip-path="url(#p49e42e94c3)" d="M 220.870221 292.2204 
L 224.699632 292.2204 
" style="fill:none;stroke:#000000;stroke-linecap:square;stroke-width:0.5;"/>
   </g>
   <g id="line2d_50">
    <path clip-path="url(#p49e42e94c3)" d="M 220.870221 281.610013 
L 224.699632 281.610013 
" style="fill:none;stroke:#000000;stroke-linecap:square;stroke-width:0.5;"/>
   </g>
   <g id="line2d_51">
    <path clip-path="url(#p49e42e94c3)" d="M 234.273162 290.742942 
L 241.931985 290.742942 
L 241.931985 287.04034 
L 234.273162 287.04034 
L 234.273162 290.742942 
" style="fill:none;stroke:#00008b;stroke-linecap:square;stroke-width:0.5;"/>
   </g>
   <g id="line2d_52">
    <path clip-path="url(#p49e42e94c3)" d="M 238.102574 290.742942 
L 238.102574 293.925565 
" style="fill:none;stroke:#00008b;stroke-dasharray:1.85,0.8;stroke-dashoffset:0;stroke-width:0.5;"/>
   </g>
   <g id="line2d_53">
    <path clip-path="url(#p49e42e94c3)" d="M 238.102574 287.04034 
L 238.102574 284.400164 
" style="fill:none;stroke:#00008b;stroke-dasharray:1.85,0.8;stroke-dashoffset:0;stroke-width:0.5;"/>
   </g>
   <g id="line2d_54">
    <path clip-path="url(#p49e42e94c3)" d="M 236.187868 293.925565 
L 240.017279 293.925565 
" style="fill:none;stroke:#000000;stroke-linecap:square;stroke-width:0.5;"/>
   </g>
   <g id="line2d_55">
    <path clip-path="url(#p49e42e94c3)" d="M 236.187868 284.400164 
L 240.017279 284.400164 
" style="fill:none;stroke:#000000;stroke-linecap:square;stroke-width:0.5;"/>
   </g>
   <g id="line2d_56">
    <path clip-path="url(#p49e42e94c3)" d="M 249.590809 292.695582 
L 257.249632 292.695582 
L 257.249632 289.14021 
L 249.590809 289.14021 
L 249.590809 292.695582 
" style="fill:none;stroke:#00008b;stroke-linecap:square;stroke-width:0.5;"/>
   </g>
   <g id="line2d_57">
    <path clip-path="url(#p49e42e94c3)" d="M 253.420221 292.695582 
L 253.420221 294.823921 
" style="fill:none;stroke:#00008b;stroke-dasharray:1.85,0.8;stroke-dashoffset:0;stroke-width:0.5;"/>
   </g>
   <g id="line2d_58">
    <path clip-path="url(#p49e42e94c3)" d="M 253.420221 289.14021 
L 253.420221 287.19385 
" style="fill:none;stroke:#00008b;stroke-dasharray:1.85,0.8;stroke-dashoffset:0;stroke-width:0.5;"/>
   </g>
   <g id="line2d_59">
    <path clip-path="url(#p49e42e94c3)" d="M 251.505515 294.823921 
L 255.334926 294.823921 
" style="fill:none;stroke:#000000;stroke-linecap:square;stroke-width:0.5;"/>
   </g>
   <g id="line2d_60">
    <path clip-path="url(#p49e42e94c3)" d="M 251.505515 287.19385 
L 255.334926 287.19385 
" style="fill:none;stroke:#000000;stroke-linecap:square;stroke-width:0.5;"/>
   </g>
   <g id="line2d_61">
    <path clip-path="url(#p49e42e94c3)" d="M 264.908456 294.161132 
L 272.567279 294.161132 
L 272.567279 290.880309 
L 264.908456 290.880309 
L 264.908456 294.161132 
" style="fill:none;stroke:#00008b;stroke-linecap:square;stroke-width:0.5;"/>
   </g>
   <g id="line2d_62">
    <path clip-path="url(#p49e42e94c3)" d="M 268.737868 294.161132 
L 268.737868 295.83485 
" style="fill:none;stroke:#00008b;stroke-dasharray:1.85,0.8;stroke-dashoffset:0;stroke-width:0.5;"/>
   </g>
   <g id="line2d_63">
    <path clip-path="url(#p49e42e94c3)" d="M 268.737868 290.880309 
L 268.737868 288.38285 
" style="fill:none;stroke:#00008b;stroke-dasharray:1.85,0.8;stroke-dashoffset:0;stroke-width:0.5;"/>
   </g>
   <g id="line2d_64">
    <path clip-path="url(#p49e42e94c3)" d="M 266.823162 295.83485 
L 270.652574 295.83485 
" style="fill:none;stroke:#000000;stroke-linecap:square;stroke-width:0.5;"/>
   </g>
   <g id="line2d_65">
    <path clip-path="url(#p49e42e94c3)" d="M 266.823162 288.38285 
L 270.652574 288.38285 
" style="fill:none;stroke:#000000;stroke-linecap:square;stroke-width:0.5;"/>
   </g>
   <g id="line2d_66">
    <path clip-path="url(#p49e42e94c3)" d="M 280.226103 295.916257 
L 287.884926 295.916257 
L 287.884926 292.590126 
L 280.226103 292.590126 
L 280.226103 295.916257 
" style="fill:none;stroke:#00008b;stroke-linecap:square;stroke-width:0.5;"/>
   </g>
   <g id="line2d_67">
    <path clip-path="url(#p49e42e94c3)" d="M 284.055515 295.916257 
L 284.055515 299.23848 
" style="fill:none;stroke:#00008b;stroke-dasharray:1.85,0.8;stroke-dashoffset:0;stroke-width:0.5;"/>
   </g>
   <g id="line2d_68">
    <path clip-path="url(#p49e42e94c3)" d="M 284.055515 292.590126 
L 284.055515 290.131742 
" style="fill:none;stroke:#00008b;stroke-dasharray:1.85,0.8;stroke-dashoffset:0;stroke-width:0.5;"/>
   </g>
   <g id="line2d_69">
    <path clip-path="url(#p49e42e94c3)" d="M 282.140809 299.23848 
L 285.970221 299.23848 
" style="fill:none;stroke:#000000;stroke-linecap:square;stroke-width:0.5;"/>
   </g>
   <g id="line2d_70">
    <path clip-path="url(#p49e42e94c3)" d="M 282.140809 290.131742 
L 285.970221 290.131742 
" style="fill:none;stroke:#000000;stroke-linecap:square;stroke-width:0.5;"/>
   </g>
   <g id="line2d_71">
    <path clip-path="url(#p49e42e94c3)" d="M 295.54375 296.414186 
L 303.202574 296.414186 
L 303.202574 293.561887 
L 295.54375 293.561887 
L 295.54375 296.414186 
" style="fill:none;stroke:#00008b;stroke-linecap:square;stroke-width:0.5;"/>
   </g>
   <g id="line2d_72">
    <path clip-path="url(#p49e42e94c3)" d="M 299.373162 296.414186 
L 299.373162 299.573782 
" style="fill:none;stroke:#00008b;stroke-dasharray:1.85,0.8;stroke-dashoffset:0;stroke-width:0.5;"/>
   </g>
   <g id="line2d_73">
    <path clip-path="url(#p49e42e94c3)" d="M 299.373162 293.561887 
L 299.373162 290.962181 
" style="fill:none;stroke:#00008b;stroke-dasharray:1.85,0.8;stroke-dashoffset:0;stroke-width:0.5;"/>
   </g>
   <g id="line2d_74">
    <path clip-path="url(#p49e42e94c3)" d="M 297.458456 299.573782 
L 301.287868 299.573782 
" style="fill:none;stroke:#000000;stroke-linecap:square;stroke-width:0.5;"/>
   </g>
   <g id="line2d_75">
    <path clip-path="url(#p49e42e94c3)" d="M 297.458456 290.962181 
L 301.287868 290.962181 
" style="fill:none;stroke:#000000;stroke-linecap:square;stroke-width:0.5;"/>
   </g>
   <g id="line2d_76">
    <path clip-path="url(#p49e42e94c3)" d="M 310.861397 297.855221 
L 318.520221 297.855221 
L 318.520221 294.960684 
L 310.861397 294.960684 
L 310.861397 297.855221 
" style="fill:none;stroke:#00008b;stroke-linecap:square;stroke-width:0.5;"/>
   </g>
   <g id="line2d_77">
    <path clip-path="url(#p49e42e94c3)" d="M 314.690809 297.855221 
L 314.690809 299.724687 
" style="fill:none;stroke:#00008b;stroke-dasharray:1.85,0.8;stroke-dashoffset:0;stroke-width:0.5;"/>
   </g>
   <g id="line2d_78">
    <path clip-path="url(#p49e42e94c3)" d="M 314.690809 294.960684 
L 314.690809 291.996928 
" style="fill:none;stroke:#00008b;stroke-dasharray:1.85,0.8;stroke-dashoffset:0;stroke-width:0.5;"/>
   </g>
   <g id="line2d_79">
    <path clip-path="url(#p49e42e94c3)" d="M 312.776103 299.724687 
L 316.605515 299.724687 
" style="fill:none;stroke:#000000;stroke-linecap:square;stroke-width:0.5;"/>
   </g>
   <g id="line2d_80">
    <path clip-path="url(#p49e42e94c3)" d="M 312.776103 291.996928 
L 316.605515 291.996928 
" style="fill:none;stroke:#000000;stroke-linecap:square;stroke-width:0.5;"/>
   </g>
   <g id="line2d_81">
    <path clip-path="url(#p49e42e94c3)" d="M 326.179044 298.250856 
L 333.837868 298.250856 
L 333.837868 295.622728 
L 326.179044 295.622728 
L 326.179044 298.250856 
" style="fill:none;stroke:#00008b;stroke-linecap:square;stroke-width:0.5;"/>
   </g>
   <g id="line2d_82">
    <path clip-path="url(#p49e42e94c3)" d="M 330.008456 298.250856 
L 330.008456 300.278437 
" style="fill:none;stroke:#00008b;stroke-dasharray:1.85,0.8;stroke-dashoffset:0;stroke-width:0.5;"/>
   </g>
   <g id="line2d_83">
    <path clip-path="url(#p49e42e94c3)" d="M 330.008456 295.622728 
L 330.008456 292.541747 
" style="fill:none;stroke:#00008b;stroke-dasharray:1.85,0.8;stroke-dashoffset:0;stroke-width:0.5;"/>
   </g>
   <g id="line2d_84">
    <path clip-path="url(#p49e42e94c3)" d="M 328.09375 300.278437 
L 331.923162 300.278437 
" style="fill:none;stroke:#000000;stroke-linecap:square;stroke-width:0.5;"/>
   </g>
   <g id="line2d_85">
    <path clip-path="url(#p49e42e94c3)" d="M 328.09375 292.541747 
L 331.923162 292.541747 
" style="fill:none;stroke:#000000;stroke-linecap:square;stroke-width:0.5;"/>
   </g>
   <g id="line2d_86">
    <path clip-path="url(#p49e42e94c3)" d="M 341.496691 299.152003 
L 349.155515 299.152003 
L 349.155515 296.79447 
L 341.496691 296.79447 
L 341.496691 299.152003 
" style="fill:none;stroke:#00008b;stroke-linecap:square;stroke-width:0.5;"/>
   </g>
   <g id="line2d_87">
    <path clip-path="url(#p49e42e94c3)" d="M 345.326103 299.152003 
L 345.326103 300.854889 
" style="fill:none;stroke:#00008b;stroke-dasharray:1.85,0.8;stroke-dashoffset:0;stroke-width:0.5;"/>
   </g>
   <g id="line2d_88">
    <path clip-path="url(#p49e42e94c3)" d="M 345.326103 296.79447 
L 345.326103 294.631894 
" style="fill:none;stroke:#00008b;stroke-dasharray:1.85,0.8;stroke-dashoffset:0;stroke-width:0.5;"/>
   </g>
   <g id="line2d_89">
    <path clip-path="url(#p49e42e94c3)" d="M 343.411397 300.854889 
L 347.240809 300.854889 
" style="fill:none;stroke:#000000;stroke-linecap:square;stroke-width:0.5;"/>
   </g>
   <g id="line2d_90">
    <path clip-path="url(#p49e42e94c3)" d="M 343.411397 294.631894 
L 347.240809 294.631894 
" style="fill:none;stroke:#000000;stroke-linecap:square;stroke-width:0.5;"/>
   </g>
   <g id="line2d_91">
    <path clip-path="url(#p49e42e94c3)" d="M 356.814338 298.81405 
L 364.473162 298.81405 
L 364.473162 296.591791 
L 356.814338 296.591791 
L 356.814338 298.81405 
" style="fill:none;stroke:#00008b;stroke-linecap:square;stroke-width:0.5;"/>
   </g>
   <g id="line2d_92">
    <path clip-path="url(#p49e42e94c3)" d="M 360.64375 298.81405 
L 360.64375 301.043752 
" style="fill:none;stroke:#00008b;stroke-dasharray:1.85,0.8;stroke-dashoffset:0;stroke-width:0.5;"/>
   </g>
   <g id="line2d_93">
    <path clip-path="url(#p49e42e94c3)" d="M 360.64375 296.591791 
L 360.64375 294.288219 
" style="fill:none;stroke:#00008b;stroke-dasharray:1.85,0.8;stroke-dashoffset:0;stroke-width:0.5;"/>
   </g>
   <g id="line2d_94">
    <path clip-path="url(#p49e42e94c3)" d="M 358.729044 301.043752 
L 362.558456 301.043752 
" style="fill:none;stroke:#000000;stroke-linecap:square;stroke-width:0.5;"/>
   </g>
   <g id="line2d_95">
    <path clip-path="url(#p49e42e94c3)" d="M 358.729044 294.288219 
L 362.558456 294.288219 
" style="fill:none;stroke:#000000;stroke-linecap:square;stroke-width:0.5;"/>
   </g>
   <g id="line2d_96">
    <path clip-path="url(#p49e42e94c3)" d="M 372.131985 299.690729 
L 379.790809 299.690729 
L 379.790809 297.321054 
L 372.131985 297.321054 
L 372.131985 299.690729 
" style="fill:none;stroke:#00008b;stroke-linecap:square;stroke-width:0.5;"/>
   </g>
   <g id="line2d_97">
    <path clip-path="url(#p49e42e94c3)" d="M 375.961397 299.690729 
L 375.961397 302.247266 
" style="fill:none;stroke:#00008b;stroke-dasharray:1.85,0.8;stroke-dashoffset:0;stroke-width:0.5;"/>
   </g>
   <g id="line2d_98">
    <path clip-path="url(#p49e42e94c3)" d="M 375.961397 297.321054 
L 375.961397 294.712091 
" style="fill:none;stroke:#00008b;stroke-dasharray:1.85,0.8;stroke-dashoffset:0;stroke-width:0.5;"/>
   </g>
   <g id="line2d_99">
    <path clip-path="url(#p49e42e94c3)" d="M 374.046691 302.247266 
L 377.876103 302.247266 
" style="fill:none;stroke:#000000;stroke-linecap:square;stroke-width:0.5;"/>
   </g>
   <g id="line2d_100">
    <path clip-path="url(#p49e42e94c3)" d="M 374.046691 294.712091 
L 377.876103 294.712091 
" style="fill:none;stroke:#000000;stroke-linecap:square;stroke-width:0.5;"/>
   </g>
   <g id="line2d_101">
    <path clip-path="url(#p49e42e94c3)" d="M 387.449632 300.582758 
L 395.108456 300.582758 
L 395.108456 298.255136 
L 387.449632 298.255136 
L 387.449632 300.582758 
" style="fill:none;stroke:#00008b;stroke-linecap:square;stroke-width:0.5;"/>
   </g>
   <g id="line2d_102">
    <path clip-path="url(#p49e42e94c3)" d="M 391.279044 300.582758 
L 391.279044 302.519861 
" style="fill:none;stroke:#00008b;stroke-dasharray:1.85,0.8;stroke-dashoffset:0;stroke-width:0.5;"/>
   </g>
   <g id="line2d_103">
    <path clip-path="url(#p49e42e94c3)" d="M 391.279044 298.255136 
L 391.279044 296.051624 
" style="fill:none;stroke:#00008b;stroke-dasharray:1.85,0.8;stroke-dashoffset:0;stroke-width:0.5;"/>
   </g>
   <g id="line2d_104">
    <path clip-path="url(#p49e42e94c3)" d="M 389.364338 302.519861 
L 393.19375 302.519861 
" style="fill:none;stroke:#000000;stroke-linecap:square;stroke-width:0.5;"/>
   </g>
   <g id="line2d_105">
    <path clip-path="url(#p49e42e94c3)" d="M 389.364338 296.051624 
L 393.19375 296.051624 
" style="fill:none;stroke:#000000;stroke-linecap:square;stroke-width:0.5;"/>
   </g>
   <g id="line2d_106">
    <path clip-path="url(#p49e42e94c3)" d="M 402.767279 300.954949 
L 410.426103 300.954949 
L 410.426103 298.499216 
L 402.767279 298.499216 
L 402.767279 300.954949 
" style="fill:none;stroke:#00008b;stroke-linecap:square;stroke-width:0.5;"/>
   </g>
   <g id="line2d_107">
    <path clip-path="url(#p49e42e94c3)" d="M 406.596691 300.954949 
L 406.596691 302.665556 
" style="fill:none;stroke:#00008b;stroke-dasharray:1.85,0.8;stroke-dashoffset:0;stroke-width:0.5;"/>
   </g>
   <g id="line2d_108">
    <path clip-path="url(#p49e42e94c3)" d="M 406.596691 298.499216 
L 406.596691 296.118238 
" style="fill:none;stroke:#00008b;stroke-dasharray:1.85,0.8;stroke-dashoffset:0;stroke-width:0.5;"/>
   </g>
   <g id="line2d_109">
    <path clip-path="url(#p49e42e94c3)" d="M 404.681985 302.665556 
L 408.511397 302.665556 
" style="fill:none;stroke:#000000;stroke-linecap:square;stroke-width:0.5;"/>
   </g>
   <g id="line2d_110">
    <path clip-path="url(#p49e42e94c3)" d="M 404.681985 296.118238 
L 408.511397 296.118238 
" style="fill:none;stroke:#000000;stroke-linecap:square;stroke-width:0.5;"/>
   </g>
   <g id="line2d_111">
    <path clip-path="url(#p49e42e94c3)" d="M 418.084926 301.102318 
L 425.74375 301.102318 
L 425.74375 299.006495 
L 418.084926 299.006495 
L 418.084926 301.102318 
" style="fill:none;stroke:#00008b;stroke-linecap:square;stroke-width:0.5;"/>
   </g>
   <g id="line2d_112">
    <path clip-path="url(#p49e42e94c3)" d="M 421.914338 301.102318 
L 421.914338 303.150087 
" style="fill:none;stroke:#00008b;stroke-dasharray:1.85,0.8;stroke-dashoffset:0;stroke-width:0.5;"/>
   </g>
   <g id="line2d_113">
    <path clip-path="url(#p49e42e94c3)" d="M 421.914338 299.006495 
L 421.914338 296.749022 
" style="fill:none;stroke:#00008b;stroke-dasharray:1.85,0.8;stroke-dashoffset:0;stroke-width:0.5;"/>
   </g>
   <g id="line2d_114">
    <path clip-path="url(#p49e42e94c3)" d="M 419.999632 303.150087 
L 423.829044 303.150087 
" style="fill:none;stroke:#000000;stroke-linecap:square;stroke-width:0.5;"/>
   </g>
   <g id="line2d_115">
    <path clip-path="url(#p49e42e94c3)" d="M 419.999632 296.749022 
L 423.829044 296.749022 
" style="fill:none;stroke:#000000;stroke-linecap:square;stroke-width:0.5;"/>
   </g>
   <g id="line2d_116">
    <path clip-path="url(#p49e42e94c3)" d="M 433.402574 301.320999 
L 441.061397 301.320999 
L 441.061397 299.187962 
L 433.402574 299.187962 
L 433.402574 301.320999 
" style="fill:none;stroke:#00008b;stroke-linecap:square;stroke-width:0.5;"/>
   </g>
   <g id="line2d_117">
    <path clip-path="url(#p49e42e94c3)" d="M 437.231985 301.320999 
L 437.231985 303.114175 
" style="fill:none;stroke:#00008b;stroke-dasharray:1.85,0.8;stroke-dashoffset:0;stroke-width:0.5;"/>
   </g>
   <g id="line2d_118">
    <path clip-path="url(#p49e42e94c3)" d="M 437.231985 299.187962 
L 437.231985 296.902532 
" style="fill:none;stroke:#00008b;stroke-dasharray:1.85,0.8;stroke-dashoffset:0;stroke-width:0.5;"/>
   </g>
   <g id="line2d_119">
    <path clip-path="url(#p49e42e94c3)" d="M 435.317279 303.114175 
L 439.146691 303.114175 
" style="fill:none;stroke:#000000;stroke-linecap:square;stroke-width:0.5;"/>
   </g>
   <g id="line2d_120">
    <path clip-path="url(#p49e42e94c3)" d="M 435.317279 296.902532 
L 439.146691 296.902532 
" style="fill:none;stroke:#000000;stroke-linecap:square;stroke-width:0.5;"/>
   </g>
   <g id="line2d_121">
    <path clip-path="url(#p49e42e94c3)" d="M 448.720221 301.537215 
L 456.379044 301.537215 
L 456.379044 299.699148 
L 448.720221 299.699148 
L 448.720221 301.537215 
" style="fill:none;stroke:#00008b;stroke-linecap:square;stroke-width:0.5;"/>
   </g>
   <g id="line2d_122">
    <path clip-path="url(#p49e42e94c3)" d="M 452.549632 301.537215 
L 452.549632 303.094266 
" style="fill:none;stroke:#00008b;stroke-dasharray:1.85,0.8;stroke-dashoffset:0;stroke-width:0.5;"/>
   </g>
   <g id="line2d_123">
    <path clip-path="url(#p49e42e94c3)" d="M 452.549632 299.699148 
L 452.549632 298.109581 
" style="fill:none;stroke:#00008b;stroke-dasharray:1.85,0.8;stroke-dashoffset:0;stroke-width:0.5;"/>
   </g>
   <g id="line2d_124">
    <path clip-path="url(#p49e42e94c3)" d="M 450.634926 303.094266 
L 454.464338 303.094266 
" style="fill:none;stroke:#000000;stroke-linecap:square;stroke-width:0.5;"/>
   </g>
   <g id="line2d_125">
    <path clip-path="url(#p49e42e94c3)" d="M 450.634926 298.109581 
L 454.464338 298.109581 
" style="fill:none;stroke:#000000;stroke-linecap:square;stroke-width:0.5;"/>
   </g>
   <g id="line2d_126">
    <path clip-path="url(#p49e42e94c3)" d="M 464.037868 301.882471 
L 471.696691 301.882471 
L 471.696691 299.759064 
L 464.037868 299.759064 
L 464.037868 301.882471 
" style="fill:none;stroke:#00008b;stroke-linecap:square;stroke-width:0.5;"/>
   </g>
   <g id="line2d_127">
    <path clip-path="url(#p49e42e94c3)" d="M 467.867279 301.882471 
L 467.867279 303.553306 
" style="fill:none;stroke:#00008b;stroke-dasharray:1.85,0.8;stroke-dashoffset:0;stroke-width:0.5;"/>
   </g>
   <g id="line2d_128">
    <path clip-path="url(#p49e42e94c3)" d="M 467.867279 299.759064 
L 467.867279 297.822844 
" style="fill:none;stroke:#00008b;stroke-dasharray:1.85,0.8;stroke-dashoffset:0;stroke-width:0.5;"/>
   </g>
   <g id="line2d_129">
    <path clip-path="url(#p49e42e94c3)" d="M 465.952574 303.553306 
L 469.781985 303.553306 
" style="fill:none;stroke:#000000;stroke-linecap:square;stroke-width:0.5;"/>
   </g>
   <g id="line2d_130">
    <path clip-path="url(#p49e42e94c3)" d="M 465.952574 297.822844 
L 469.781985 297.822844 
" style="fill:none;stroke:#000000;stroke-linecap:square;stroke-width:0.5;"/>
   </g>
   <g id="line2d_131">
    <path clip-path="url(#p49e42e94c3)" d="M 479.355515 302.219727 
L 487.014338 302.219727 
L 487.014338 300.348586 
L 479.355515 300.348586 
L 479.355515 302.219727 
" style="fill:none;stroke:#00008b;stroke-linecap:square;stroke-width:0.5;"/>
   </g>
   <g id="line2d_132">
    <path clip-path="url(#p49e42e94c3)" d="M 483.184926 302.219727 
L 483.184926 304.1225 
" style="fill:none;stroke:#00008b;stroke-dasharray:1.85,0.8;stroke-dashoffset:0;stroke-width:0.5;"/>
   </g>
   <g id="line2d_133">
    <path clip-path="url(#p49e42e94c3)" d="M 483.184926 300.348586 
L 483.184926 299.041058 
" style="fill:none;stroke:#00008b;stroke-dasharray:1.85,0.8;stroke-dashoffset:0;stroke-width:0.5;"/>
   </g>
   <g id="line2d_134">
    <path clip-path="url(#p49e42e94c3)" d="M 481.270221 304.1225 
L 485.099632 304.1225 
" style="fill:none;stroke:#000000;stroke-linecap:square;stroke-width:0.5;"/>
   </g>
   <g id="line2d_135">
    <path clip-path="url(#p49e42e94c3)" d="M 481.270221 299.041058 
L 485.099632 299.041058 
" style="fill:none;stroke:#000000;stroke-linecap:square;stroke-width:0.5;"/>
   </g>
   <g id="line2d_136">
    <path clip-path="url(#p49e42e94c3)" d="M 111.731985 102.939711 
L 119.390809 102.939711 
" style="fill:none;stroke:#8b0000;stroke-linecap:square;stroke-width:0.5;"/>
   </g>
   <g id="line2d_137">
    <path clip-path="url(#p49e42e94c3)" d="M 127.049632 210.114614 
L 134.708456 210.114614 
" style="fill:none;stroke:#8b0000;stroke-linecap:square;stroke-width:0.5;"/>
   </g>
   <g id="line2d_138">
    <path clip-path="url(#p49e42e94c3)" d="M 142.367279 246.280138 
L 150.026103 246.280138 
" style="fill:none;stroke:#8b0000;stroke-linecap:square;stroke-width:0.5;"/>
   </g>
   <g id="line2d_139">
    <path clip-path="url(#p49e42e94c3)" d="M 157.684926 265.778723 
L 165.34375 265.778723 
" style="fill:none;stroke:#8b0000;stroke-linecap:square;stroke-width:0.5;"/>
   </g>
   <g id="line2d_140">
    <path clip-path="url(#p49e42e94c3)" d="M 173.002574 274.194948 
L 180.661397 274.194948 
" style="fill:none;stroke:#8b0000;stroke-linecap:square;stroke-width:0.5;"/>
   </g>
   <g id="line2d_141">
    <path clip-path="url(#p49e42e94c3)" d="M 188.320221 278.99477 
L 195.979044 278.99477 
" style="fill:none;stroke:#8b0000;stroke-linecap:square;stroke-width:0.5;"/>
   </g>
   <g id="line2d_142">
    <path clip-path="url(#p49e42e94c3)" d="M 203.637868 283.375093 
L 211.296691 283.375093 
" style="fill:none;stroke:#8b0000;stroke-linecap:square;stroke-width:0.5;"/>
   </g>
   <g id="line2d_143">
    <path clip-path="url(#p49e42e94c3)" d="M 218.955515 286.938466 
L 226.614338 286.938466 
" style="fill:none;stroke:#8b0000;stroke-linecap:square;stroke-width:0.5;"/>
   </g>
   <g id="line2d_144">
    <path clip-path="url(#p49e42e94c3)" d="M 234.273162 288.986096 
L 241.931985 288.986096 
" style="fill:none;stroke:#8b0000;stroke-linecap:square;stroke-width:0.5;"/>
   </g>
   <g id="line2d_145">
    <path clip-path="url(#p49e42e94c3)" d="M 249.590809 290.998837 
L 257.249632 290.998837 
" style="fill:none;stroke:#8b0000;stroke-linecap:square;stroke-width:0.5;"/>
   </g>
   <g id="line2d_146">
    <path clip-path="url(#p49e42e94c3)" d="M 264.908456 292.562029 
L 272.567279 292.562029 
" style="fill:none;stroke:#8b0000;stroke-linecap:square;stroke-width:0.5;"/>
   </g>
   <g id="line2d_147">
    <path clip-path="url(#p49e42e94c3)" d="M 280.226103 294.307199 
L 287.884926 294.307199 
" style="fill:none;stroke:#8b0000;stroke-linecap:square;stroke-width:0.5;"/>
   </g>
   <g id="line2d_148">
    <path clip-path="url(#p49e42e94c3)" d="M 295.54375 295.022274 
L 303.202574 295.022274 
" style="fill:none;stroke:#8b0000;stroke-linecap:square;stroke-width:0.5;"/>
   </g>
   <g id="line2d_149">
    <path clip-path="url(#p49e42e94c3)" d="M 310.861397 296.353061 
L 318.520221 296.353061 
" style="fill:none;stroke:#8b0000;stroke-linecap:square;stroke-width:0.5;"/>
   </g>
   <g id="line2d_150">
    <path clip-path="url(#p49e42e94c3)" d="M 326.179044 297.029619 
L 333.837868 297.029619 
" style="fill:none;stroke:#8b0000;stroke-linecap:square;stroke-width:0.5;"/>
   </g>
   <g id="line2d_151">
    <path clip-path="url(#p49e42e94c3)" d="M 341.496691 298.056365 
L 349.155515 298.056365 
" style="fill:none;stroke:#8b0000;stroke-linecap:square;stroke-width:0.5;"/>
   </g>
   <g id="line2d_152">
    <path clip-path="url(#p49e42e94c3)" d="M 356.814338 297.681243 
L 364.473162 297.681243 
" style="fill:none;stroke:#8b0000;stroke-linecap:square;stroke-width:0.5;"/>
   </g>
   <g id="line2d_153">
    <path clip-path="url(#p49e42e94c3)" d="M 372.131985 298.600625 
L 379.790809 298.600625 
" style="fill:none;stroke:#8b0000;stroke-linecap:square;stroke-width:0.5;"/>
   </g>
   <g id="line2d_154">
    <path clip-path="url(#p49e42e94c3)" d="M 387.449632 299.434135 
L 395.108456 299.434135 
" style="fill:none;stroke:#8b0000;stroke-linecap:square;stroke-width:0.5;"/>
   </g>
   <g id="line2d_155">
    <path clip-path="url(#p49e42e94c3)" d="M 402.767279 299.835214 
L 410.426103 299.835214 
" style="fill:none;stroke:#8b0000;stroke-linecap:square;stroke-width:0.5;"/>
   </g>
   <g id="line2d_156">
    <path clip-path="url(#p49e42e94c3)" d="M 418.084926 300.128928 
L 425.74375 300.128928 
" style="fill:none;stroke:#8b0000;stroke-linecap:square;stroke-width:0.5;"/>
   </g>
   <g id="line2d_157">
    <path clip-path="url(#p49e42e94c3)" d="M 433.402574 300.318629 
L 441.061397 300.318629 
" style="fill:none;stroke:#8b0000;stroke-linecap:square;stroke-width:0.5;"/>
   </g>
   <g id="line2d_158">
    <path clip-path="url(#p49e42e94c3)" d="M 448.720221 300.551498 
L 456.379044 300.551498 
" style="fill:none;stroke:#8b0000;stroke-linecap:square;stroke-width:0.5;"/>
   </g>
   <g id="line2d_159">
    <path clip-path="url(#p49e42e94c3)" d="M 464.037868 300.829769 
L 471.696691 300.829769 
" style="fill:none;stroke:#8b0000;stroke-linecap:square;stroke-width:0.5;"/>
   </g>
   <g id="line2d_160">
    <path clip-path="url(#p49e42e94c3)" d="M 479.355515 301.271876 
L 487.014338 301.271876 
" style="fill:none;stroke:#8b0000;stroke-linecap:square;stroke-width:0.5;"/>
   </g>
   <g id="patch_3">
    <path d="M 100.24375 316.7225 
L 100.24375 39.5225 
" style="fill:none;stroke:#000000;stroke-linecap:square;stroke-linejoin:miter;stroke-width:0.8;"/>
   </g>
   <g id="patch_4">
    <path d="M 100.24375 316.7225 
L 490.84375 316.7225 
" style="fill:none;stroke:#000000;stroke-linecap:square;stroke-linejoin:miter;stroke-width:0.8;"/>
   </g>
  </g>
 </g>
 <defs>
  <clipPath id="p49e42e94c3">
   <rect height="277.2" width="390.6" x="100.24375" y="39.5225"/>
  </clipPath>
 </defs>
</svg>
