<?xml version="1.0" encoding="utf-8" standalone="no"?>
<!DOCTYPE svg PUBLIC "-//W3C//DTD SVG 1.1//EN"
  "http://www.w3.org/Graphics/SVG/1.1/DTD/svg11.dtd">
<!-- Created with matplotlib (https://matplotlib.org/) -->
<svg height="363.535312pt" version="1.1" viewBox="0 0 1120.7425 363.535312" width="1120.7425pt" xmlns="http://www.w3.org/2000/svg" xmlns:xlink="http://www.w3.org/1999/xlink">
 <defs>
  <style type="text/css">
*{stroke-linecap:butt;stroke-linejoin:round;}
  </style>
 </defs>
 <g id="figure_1">
  <g id="patch_1">
   <path d="M 0 363.535312 
L 1120.7425 363.535312 
L 1120.7425 -0 
L 0 -0 
z
" style="fill:none;"/>
  </g>
  <g id="axes_1">
   <g id="patch_2">
    <path d="M 109.1425 289.637812 
L 433.1425 289.637812 
L 433.1425 17.837813 
L 109.1425 17.837813 
z
" style="fill:none;"/>
   </g>
   <g id="matplotlib.axis_1">
    <g id="xtick_1">
     <g id="line2d_1">
      <defs>
       <path d="M 0 0 
L 0 5 
" id="m9b39cc0994" style="stroke:#000000;stroke-width:0.8;"/>
      </defs>
      <g>
       <use style="stroke:#000000;stroke-width:0.8;" x="123.869773" xlink:href="#m9b39cc0994" y="289.637812"/>
      </g>
     </g>
     <g id="text_1">
      <!-- 1 -->
      <defs>
       <path d="M 12.40625 8.296875 
L 28.515625 8.296875 
L 28.515625 63.921875 
L 10.984375 60.40625 
L 10.984375 69.390625 
L 28.421875 72.90625 
L 38.28125 72.90625 
L 38.28125 8.296875 
L 54.390625 8.296875 
L 54.390625 0 
L 12.40625 0 
z
" id="DejaVuSans-49"/>
      </defs>
      <g transform="translate(114.962273 319.413437)scale(0.28 -0.28)">
       <use xlink:href="#DejaVuSans-49"/>
      </g>
     </g>
    </g>
    <g id="xtick_2">
     <g id="line2d_2">
      <g>
       <use style="stroke:#000000;stroke-width:0.8;" x="222.051591" xlink:href="#m9b39cc0994" y="289.637812"/>
      </g>
     </g>
     <g id="text_2">
      <!-- 2 -->
      <defs>
       <path d="M 19.1875 8.296875 
L 53.609375 8.296875 
L 53.609375 0 
L 7.328125 0 
L 7.328125 8.296875 
Q 12.9375 14.109375 22.625 23.890625 
Q 32.328125 33.6875 34.8125 36.53125 
Q 39.546875 41.84375 41.421875 45.53125 
Q 43.3125 49.21875 43.3125 52.78125 
Q 43.3125 58.59375 39.234375 62.25 
Q 35.15625 65.921875 28.609375 65.921875 
Q 23.96875 65.921875 18.8125 64.3125 
Q 13.671875 62.703125 7.8125 59.421875 
L 7.8125 69.390625 
Q 13.765625 71.78125 18.9375 73 
Q 24.125 74.21875 28.421875 74.21875 
Q 39.75 74.21875 46.484375 68.546875 
Q 53.21875 62.890625 53.21875 53.421875 
Q 53.21875 48.921875 51.53125 44.890625 
Q 49.859375 40.875 45.40625 35.40625 
Q 44.1875 33.984375 37.640625 27.21875 
Q 31.109375 20.453125 19.1875 8.296875 
z
" id="DejaVuSans-50"/>
      </defs>
      <g transform="translate(213.144091 319.413437)scale(0.28 -0.28)">
       <use xlink:href="#DejaVuSans-50"/>
      </g>
     </g>
    </g>
    <g id="xtick_3">
     <g id="line2d_3">
      <g>
       <use style="stroke:#000000;stroke-width:0.8;" x="320.233409" xlink:href="#m9b39cc0994" y="289.637812"/>
      </g>
     </g>
     <g id="text_3">
      <!-- 3 -->
      <defs>
       <path d="M 40.578125 39.3125 
Q 47.65625 37.796875 51.625 33 
Q 55.609375 28.21875 55.609375 21.1875 
Q 55.609375 10.40625 48.1875 4.484375 
Q 40.765625 -1.421875 27.09375 -1.421875 
Q 22.515625 -1.421875 17.65625 -0.515625 
Q 12.796875 0.390625 7.625 2.203125 
L 7.625 11.71875 
Q 11.71875 9.328125 16.59375 8.109375 
Q 21.484375 6.890625 26.8125 6.890625 
Q 36.078125 6.890625 40.9375 10.546875 
Q 45.796875 14.203125 45.796875 21.1875 
Q 45.796875 27.640625 41.28125 31.265625 
Q 36.765625 34.90625 28.71875 34.90625 
L 20.21875 34.90625 
L 20.21875 43.015625 
L 29.109375 43.015625 
Q 36.375 43.015625 40.234375 45.921875 
Q 44.09375 48.828125 44.09375 54.296875 
Q 44.09375 59.90625 40.109375 62.90625 
Q 36.140625 65.921875 28.71875 65.921875 
Q 24.65625 65.921875 20.015625 65.03125 
Q 15.375 64.15625 9.8125 62.3125 
L 9.8125 71.09375 
Q 15.4375 72.65625 20.34375 73.4375 
Q 25.25 74.21875 29.59375 74.21875 
Q 40.828125 74.21875 47.359375 69.109375 
Q 53.90625 64.015625 53.90625 55.328125 
Q 53.90625 49.265625 50.4375 45.09375 
Q 46.96875 40.921875 40.578125 39.3125 
z
" id="DejaVuSans-51"/>
      </defs>
      <g transform="translate(311.325909 319.413437)scale(0.28 -0.28)">
       <use xlink:href="#DejaVuSans-51"/>
      </g>
     </g>
    </g>
    <g id="xtick_4">
     <g id="line2d_4">
      <g>
       <use style="stroke:#000000;stroke-width:0.8;" x="418.415227" xlink:href="#m9b39cc0994" y="289.637812"/>
      </g>
     </g>
     <g id="text_4">
      <!-- 4 -->
      <defs>
       <path d="M 37.796875 64.3125 
L 12.890625 25.390625 
L 37.796875 25.390625 
z
M 35.203125 72.90625 
L 47.609375 72.90625 
L 47.609375 25.390625 
L 58.015625 25.390625 
L 58.015625 17.1875 
L 47.609375 17.1875 
L 47.609375 0 
L 37.796875 0 
L 37.796875 17.1875 
L 4.890625 17.1875 
L 4.890625 26.703125 
z
" id="DejaVuSans-52"/>
      </defs>
      <g transform="translate(409.507727 319.413437)scale(0.28 -0.28)">
       <use xlink:href="#DejaVuSans-52"/>
      </g>
     </g>
    </g>
    <g id="text_5">
     <!-- -log10 p-value -->
     <defs>
      <path d="M 4.890625 31.390625 
L 31.203125 31.390625 
L 31.203125 23.390625 
L 4.890625 23.390625 
z
" id="DejaVuSans-45"/>
      <path d="M 9.421875 75.984375 
L 18.40625 75.984375 
L 18.40625 0 
L 9.421875 0 
z
" id="DejaVuSans-108"/>
      <path d="M 30.609375 48.390625 
Q 23.390625 48.390625 19.1875 42.75 
Q 14.984375 37.109375 14.984375 27.296875 
Q 14.984375 17.484375 19.15625 11.84375 
Q 23.34375 6.203125 30.609375 6.203125 
Q 37.796875 6.203125 41.984375 11.859375 
Q 46.1875 17.53125 46.1875 27.296875 
Q 46.1875 37.015625 41.984375 42.703125 
Q 37.796875 48.390625 30.609375 48.390625 
z
M 30.609375 56 
Q 42.328125 56 49.015625 48.375 
Q 55.71875 40.765625 55.71875 27.296875 
Q 55.71875 13.875 49.015625 6.21875 
Q 42.328125 -1.421875 30.609375 -1.421875 
Q 18.84375 -1.421875 12.171875 6.21875 
Q 5.515625 13.875 5.515625 27.296875 
Q 5.515625 40.765625 12.171875 48.375 
Q 18.84375 56 30.609375 56 
z
" id="DejaVuSans-111"/>
      <path d="M 45.40625 27.984375 
Q 45.40625 37.75 41.375 43.109375 
Q 37.359375 48.484375 30.078125 48.484375 
Q 22.859375 48.484375 18.828125 43.109375 
Q 14.796875 37.75 14.796875 27.984375 
Q 14.796875 18.265625 18.828125 12.890625 
Q 22.859375 7.515625 30.078125 7.515625 
Q 37.359375 7.515625 41.375 12.890625 
Q 45.40625 18.265625 45.40625 27.984375 
z
M 54.390625 6.78125 
Q 54.390625 -7.171875 48.1875 -13.984375 
Q 42 -20.796875 29.203125 -20.796875 
Q 24.46875 -20.796875 20.265625 -20.09375 
Q 16.0625 -19.390625 12.109375 -17.921875 
L 12.109375 -9.1875 
Q 16.0625 -11.328125 19.921875 -12.34375 
Q 23.78125 -13.375 27.78125 -13.375 
Q 36.625 -13.375 41.015625 -8.765625 
Q 45.40625 -4.15625 45.40625 5.171875 
L 45.40625 9.625 
Q 42.625 4.78125 38.28125 2.390625 
Q 33.9375 0 27.875 0 
Q 17.828125 0 11.671875 7.65625 
Q 5.515625 15.328125 5.515625 27.984375 
Q 5.515625 40.671875 11.671875 48.328125 
Q 17.828125 56 27.875 56 
Q 33.9375 56 38.28125 53.609375 
Q 42.625 51.21875 45.40625 46.390625 
L 45.40625 54.6875 
L 54.390625 54.6875 
z
" id="DejaVuSans-103"/>
      <path d="M 31.78125 66.40625 
Q 24.171875 66.40625 20.328125 58.90625 
Q 16.5 51.421875 16.5 36.375 
Q 16.5 21.390625 20.328125 13.890625 
Q 24.171875 6.390625 31.78125 6.390625 
Q 39.453125 6.390625 43.28125 13.890625 
Q 47.125 21.390625 47.125 36.375 
Q 47.125 51.421875 43.28125 58.90625 
Q 39.453125 66.40625 31.78125 66.40625 
z
M 31.78125 74.21875 
Q 44.046875 74.21875 50.515625 64.515625 
Q 56.984375 54.828125 56.984375 36.375 
Q 56.984375 17.96875 50.515625 8.265625 
Q 44.046875 -1.421875 31.78125 -1.421875 
Q 19.53125 -1.421875 13.0625 8.265625 
Q 6.59375 17.96875 6.59375 36.375 
Q 6.59375 54.828125 13.0625 64.515625 
Q 19.53125 74.21875 31.78125 74.21875 
z
" id="DejaVuSans-48"/>
      <path id="DejaVuSans-32"/>
      <path d="M 18.109375 8.203125 
L 18.109375 -20.796875 
L 9.078125 -20.796875 
L 9.078125 54.6875 
L 18.109375 54.6875 
L 18.109375 46.390625 
Q 20.953125 51.265625 25.265625 53.625 
Q 29.59375 56 35.59375 56 
Q 45.5625 56 51.78125 48.09375 
Q 58.015625 40.1875 58.015625 27.296875 
Q 58.015625 14.40625 51.78125 6.484375 
Q 45.5625 -1.421875 35.59375 -1.421875 
Q 29.59375 -1.421875 25.265625 0.953125 
Q 20.953125 3.328125 18.109375 8.203125 
z
M 48.6875 27.296875 
Q 48.6875 37.203125 44.609375 42.84375 
Q 40.53125 48.484375 33.40625 48.484375 
Q 26.265625 48.484375 22.1875 42.84375 
Q 18.109375 37.203125 18.109375 27.296875 
Q 18.109375 17.390625 22.1875 11.75 
Q 26.265625 6.109375 33.40625 6.109375 
Q 40.53125 6.109375 44.609375 11.75 
Q 48.6875 17.390625 48.6875 27.296875 
z
" id="DejaVuSans-112"/>
      <path d="M 2.984375 54.6875 
L 12.5 54.6875 
L 29.59375 8.796875 
L 46.6875 54.6875 
L 56.203125 54.6875 
L 35.6875 0 
L 23.484375 0 
z
" id="DejaVuSans-118"/>
      <path d="M 34.28125 27.484375 
Q 23.390625 27.484375 19.1875 25 
Q 14.984375 22.515625 14.984375 16.5 
Q 14.984375 11.71875 18.140625 8.90625 
Q 21.296875 6.109375 26.703125 6.109375 
Q 34.1875 6.109375 38.703125 11.40625 
Q 43.21875 16.703125 43.21875 25.484375 
L 43.21875 27.484375 
z
M 52.203125 31.203125 
L 52.203125 0 
L 43.21875 0 
L 43.21875 8.296875 
Q 40.140625 3.328125 35.546875 0.953125 
Q 30.953125 -1.421875 24.3125 -1.421875 
Q 15.921875 -1.421875 10.953125 3.296875 
Q 6 8.015625 6 15.921875 
Q 6 25.140625 12.171875 29.828125 
Q 18.359375 34.515625 30.609375 34.515625 
L 43.21875 34.515625 
L 43.21875 35.40625 
Q 43.21875 41.609375 39.140625 45 
Q 35.0625 48.390625 27.6875 48.390625 
Q 23 48.390625 18.546875 47.265625 
Q 14.109375 46.140625 10.015625 43.890625 
L 10.015625 52.203125 
Q 14.9375 54.109375 19.578125 55.046875 
Q 24.21875 56 28.609375 56 
Q 40.484375 56 46.34375 49.84375 
Q 52.203125 43.703125 52.203125 31.203125 
z
" id="DejaVuSans-97"/>
      <path d="M 8.5 21.578125 
L 8.5 54.6875 
L 17.484375 54.6875 
L 17.484375 21.921875 
Q 17.484375 14.15625 20.5 10.265625 
Q 23.53125 6.390625 29.59375 6.390625 
Q 36.859375 6.390625 41.078125 11.03125 
Q 45.3125 15.671875 45.3125 23.6875 
L 45.3125 54.6875 
L 54.296875 54.6875 
L 54.296875 0 
L 45.3125 0 
L 45.3125 8.40625 
Q 42.046875 3.421875 37.71875 1 
Q 33.40625 -1.421875 27.6875 -1.421875 
Q 18.265625 -1.421875 13.375 4.4375 
Q 8.5 10.296875 8.5 21.578125 
z
M 31.109375 56 
z
" id="DejaVuSans-117"/>
      <path d="M 56.203125 29.59375 
L 56.203125 25.203125 
L 14.890625 25.203125 
Q 15.484375 15.921875 20.484375 11.0625 
Q 25.484375 6.203125 34.421875 6.203125 
Q 39.59375 6.203125 44.453125 7.46875 
Q 49.3125 8.734375 54.109375 11.28125 
L 54.109375 2.78125 
Q 49.265625 0.734375 44.1875 -0.34375 
Q 39.109375 -1.421875 33.890625 -1.421875 
Q 20.796875 -1.421875 13.15625 6.1875 
Q 5.515625 13.8125 5.515625 26.8125 
Q 5.515625 40.234375 12.765625 48.109375 
Q 20.015625 56 32.328125 56 
Q 43.359375 56 49.78125 48.890625 
Q 56.203125 41.796875 56.203125 29.59375 
z
M 47.21875 32.234375 
Q 47.125 39.59375 43.09375 43.984375 
Q 39.0625 48.390625 32.421875 48.390625 
Q 24.90625 48.390625 20.390625 44.140625 
Q 15.875 39.890625 15.1875 32.171875 
z
" id="DejaVuSans-101"/>
     </defs>
     <g transform="translate(170.3075 350.512187)scale(0.28 -0.28)">
      <use xlink:href="#DejaVuSans-45"/>
      <use x="36.083984" xlink:href="#DejaVuSans-108"/>
      <use x="63.867188" xlink:href="#DejaVuSans-111"/>
      <use x="125.048828" xlink:href="#DejaVuSans-103"/>
      <use x="188.525391" xlink:href="#DejaVuSans-49"/>
      <use x="252.148438" xlink:href="#DejaVuSans-48"/>
      <use x="315.771484" xlink:href="#DejaVuSans-32"/>
      <use x="347.558594" xlink:href="#DejaVuSans-112"/>
      <use x="411.035156" xlink:href="#DejaVuSans-45"/>
      <use x="447.087891" xlink:href="#DejaVuSans-118"/>
      <use x="506.267578" xlink:href="#DejaVuSans-97"/>
      <use x="567.546875" xlink:href="#DejaVuSans-108"/>
      <use x="595.330078" xlink:href="#DejaVuSans-117"/>
      <use x="658.708984" xlink:href="#DejaVuSans-101"/>
     </g>
    </g>
   </g>
   <g id="matplotlib.axis_2">
    <g id="ytick_1">
     <g id="line2d_5">
      <defs>
       <path d="M 0 0 
L -5 0 
" id="mac5c3ab23b" style="stroke:#000000;stroke-width:0.8;"/>
      </defs>
      <g>
       <use style="stroke:#000000;stroke-width:0.8;" x="109.1425" xlink:href="#mac5c3ab23b" y="289.637812"/>
      </g>
     </g>
     <g id="text_6">
      <!-- 0.00 -->
      <defs>
       <path d="M 10.6875 12.40625 
L 21 12.40625 
L 21 0 
L 10.6875 0 
z
" id="DejaVuSans-46"/>
      </defs>
      <g transform="translate(38.29875 300.275625)scale(0.28 -0.28)">
       <use xlink:href="#DejaVuSans-48"/>
       <use x="63.623047" xlink:href="#DejaVuSans-46"/>
       <use x="95.410156" xlink:href="#DejaVuSans-48"/>
       <use x="159.033203" xlink:href="#DejaVuSans-48"/>
      </g>
     </g>
    </g>
    <g id="ytick_2">
     <g id="line2d_6">
      <g>
       <use style="stroke:#000000;stroke-width:0.8;" x="109.1425" xlink:href="#mac5c3ab23b" y="221.687813"/>
      </g>
     </g>
     <g id="text_7">
      <!-- 0.25 -->
      <defs>
       <path d="M 10.796875 72.90625 
L 49.515625 72.90625 
L 49.515625 64.59375 
L 19.828125 64.59375 
L 19.828125 46.734375 
Q 21.96875 47.46875 24.109375 47.828125 
Q 26.265625 48.1875 28.421875 48.1875 
Q 40.625 48.1875 47.75 41.5 
Q 54.890625 34.8125 54.890625 23.390625 
Q 54.890625 11.625 47.5625 5.09375 
Q 40.234375 -1.421875 26.90625 -1.421875 
Q 22.3125 -1.421875 17.546875 -0.640625 
Q 12.796875 0.140625 7.71875 1.703125 
L 7.71875 11.625 
Q 12.109375 9.234375 16.796875 8.0625 
Q 21.484375 6.890625 26.703125 6.890625 
Q 35.15625 6.890625 40.078125 11.328125 
Q 45.015625 15.765625 45.015625 23.390625 
Q 45.015625 31 40.078125 35.4375 
Q 35.15625 39.890625 26.703125 39.890625 
Q 22.75 39.890625 18.8125 39.015625 
Q 14.890625 38.140625 10.796875 36.28125 
z
" id="DejaVuSans-53"/>
      </defs>
      <g transform="translate(38.29875 232.325625)scale(0.28 -0.28)">
       <use xlink:href="#DejaVuSans-48"/>
       <use x="63.623047" xlink:href="#DejaVuSans-46"/>
       <use x="95.410156" xlink:href="#DejaVuSans-50"/>
       <use x="159.033203" xlink:href="#DejaVuSans-53"/>
      </g>
     </g>
    </g>
    <g id="ytick_3">
     <g id="line2d_7">
      <g>
       <use style="stroke:#000000;stroke-width:0.8;" x="109.1425" xlink:href="#mac5c3ab23b" y="153.737813"/>
      </g>
     </g>
     <g id="text_8">
      <!-- 0.50 -->
      <g transform="translate(38.29875 164.375625)scale(0.28 -0.28)">
       <use xlink:href="#DejaVuSans-48"/>
       <use x="63.623047" xlink:href="#DejaVuSans-46"/>
       <use x="95.410156" xlink:href="#DejaVuSans-53"/>
       <use x="159.033203" xlink:href="#DejaVuSans-48"/>
      </g>
     </g>
    </g>
    <g id="ytick_4">
     <g id="line2d_8">
      <g>
       <use style="stroke:#000000;stroke-width:0.8;" x="109.1425" xlink:href="#mac5c3ab23b" y="85.787813"/>
      </g>
     </g>
     <g id="text_9">
      <!-- 0.75 -->
      <defs>
       <path d="M 8.203125 72.90625 
L 55.078125 72.90625 
L 55.078125 68.703125 
L 28.609375 0 
L 18.3125 0 
L 43.21875 64.59375 
L 8.203125 64.59375 
z
" id="DejaVuSans-55"/>
      </defs>
      <g transform="translate(38.29875 96.425625)scale(0.28 -0.28)">
       <use xlink:href="#DejaVuSans-48"/>
       <use x="63.623047" xlink:href="#DejaVuSans-46"/>
       <use x="95.410156" xlink:href="#DejaVuSans-55"/>
       <use x="159.033203" xlink:href="#DejaVuSans-53"/>
      </g>
     </g>
    </g>
    <g id="ytick_5">
     <g id="line2d_9">
      <g>
       <use style="stroke:#000000;stroke-width:0.8;" x="109.1425" xlink:href="#mac5c3ab23b" y="17.837813"/>
      </g>
     </g>
     <g id="text_10">
      <!-- 1.00 -->
      <g transform="translate(38.29875 28.475625)scale(0.28 -0.28)">
       <use xlink:href="#DejaVuSans-49"/>
       <use x="63.623047" xlink:href="#DejaVuSans-46"/>
       <use x="95.410156" xlink:href="#DejaVuSans-48"/>
       <use x="159.033203" xlink:href="#DejaVuSans-48"/>
      </g>
     </g>
    </g>
    <g id="text_11">
     <!-- Accuracy -->
     <defs>
      <path d="M 34.1875 63.1875 
L 20.796875 26.90625 
L 47.609375 26.90625 
z
M 28.609375 72.90625 
L 39.796875 72.90625 
L 67.578125 0 
L 57.328125 0 
L 50.6875 18.703125 
L 17.828125 18.703125 
L 11.1875 0 
L 0.78125 0 
z
" id="DejaVuSans-65"/>
      <path d="M 48.78125 52.59375 
L 48.78125 44.1875 
Q 44.96875 46.296875 41.140625 47.34375 
Q 37.3125 48.390625 33.40625 48.390625 
Q 24.65625 48.390625 19.8125 42.84375 
Q 14.984375 37.3125 14.984375 27.296875 
Q 14.984375 17.28125 19.8125 11.734375 
Q 24.65625 6.203125 33.40625 6.203125 
Q 37.3125 6.203125 41.140625 7.25 
Q 44.96875 8.296875 48.78125 10.40625 
L 48.78125 2.09375 
Q 45.015625 0.34375 40.984375 -0.53125 
Q 36.96875 -1.421875 32.421875 -1.421875 
Q 20.0625 -1.421875 12.78125 6.34375 
Q 5.515625 14.109375 5.515625 27.296875 
Q 5.515625 40.671875 12.859375 48.328125 
Q 20.21875 56 33.015625 56 
Q 37.15625 56 41.109375 55.140625 
Q 45.0625 54.296875 48.78125 52.59375 
z
" id="DejaVuSans-99"/>
      <path d="M 41.109375 46.296875 
Q 39.59375 47.171875 37.8125 47.578125 
Q 36.03125 48 33.890625 48 
Q 26.265625 48 22.1875 43.046875 
Q 18.109375 38.09375 18.109375 28.8125 
L 18.109375 0 
L 9.078125 0 
L 9.078125 54.6875 
L 18.109375 54.6875 
L 18.109375 46.1875 
Q 20.953125 51.171875 25.484375 53.578125 
Q 30.03125 56 36.53125 56 
Q 37.453125 56 38.578125 55.875 
Q 39.703125 55.765625 41.0625 55.515625 
z
" id="DejaVuSans-114"/>
      <path d="M 32.171875 -5.078125 
Q 28.375 -14.84375 24.75 -17.8125 
Q 21.140625 -20.796875 15.09375 -20.796875 
L 7.90625 -20.796875 
L 7.90625 -13.28125 
L 13.1875 -13.28125 
Q 16.890625 -13.28125 18.9375 -11.515625 
Q 21 -9.765625 23.484375 -3.21875 
L 25.09375 0.875 
L 2.984375 54.6875 
L 12.5 54.6875 
L 29.59375 11.921875 
L 46.6875 54.6875 
L 56.203125 54.6875 
z
" id="DejaVuSans-121"/>
     </defs>
     <g transform="translate(28.475625 217.899375)rotate(-90)scale(0.28 -0.28)">
      <use xlink:href="#DejaVuSans-65"/>
      <use x="68.392578" xlink:href="#DejaVuSans-99"/>
      <use x="123.373047" xlink:href="#DejaVuSans-99"/>
      <use x="178.353516" xlink:href="#DejaVuSans-117"/>
      <use x="241.732422" xlink:href="#DejaVuSans-114"/>
      <use x="282.845703" xlink:href="#DejaVuSans-97"/>
      <use x="344.125" xlink:href="#DejaVuSans-99"/>
      <use x="399.105469" xlink:href="#DejaVuSans-121"/>
     </g>
    </g>
   </g>
   <g id="line2d_10">
    <path clip-path="url(#p329f529744)" d="M 123.869773 153.582852 
L 124.360682 152.963012 
L 124.851591 152.033251 
L 125.3425 152.033251 
L 125.833409 151.413411 
L 126.324318 150.483651 
L 127.306136 150.483651 
L 127.797045 149.86381 
L 128.287955 149.55389 
L 128.778864 149.55389 
L 129.269773 148.93405 
L 129.760682 148.624129 
L 130.251591 148.004289 
L 130.7425 148.004289 
L 131.233409 147.074529 
L 131.724318 146.454688 
L 132.215227 146.144768 
L 132.706136 145.524928 
L 133.197045 145.524928 
L 133.687955 145.215007 
L 134.178864 145.215007 
L 134.669773 144.905087 
L 135.160682 144.905087 
L 135.651591 144.595167 
L 136.1425 143.975327 
L 136.633409 142.425726 
L 137.124318 142.425726 
L 138.106136 141.186045 
L 139.578864 140.256285 
L 140.069773 140.256285 
L 140.560682 139.946364 
L 141.051591 139.946364 
L 141.5425 139.326524 
L 142.524318 138.706684 
L 143.015227 138.706684 
L 143.506136 137.776923 
L 145.960682 137.776923 
L 146.451591 137.467003 
L 148.415227 137.467003 
L 149.397045 136.847163 
L 149.887955 136.847163 
L 150.378864 136.227322 
L 151.851591 136.227322 
L 152.3425 135.917402 
L 152.833409 135.917402 
L 153.324318 135.607482 
L 154.306136 135.607482 
L 154.797045 135.297562 
L 155.287955 134.677721 
L 155.778864 134.677721 
L 156.269773 134.367801 
L 157.7425 134.367801 
L 158.233409 133.747961 
L 158.724318 133.747961 
L 160.197045 132.8182 
L 160.687955 132.19836 
L 161.178864 131.88844 
L 163.1425 131.88844 
L 163.633409 131.578519 
L 164.124318 131.578519 
L 164.615227 130.958679 
L 165.597045 130.958679 
L 166.087955 130.648759 
L 166.578864 130.648759 
L 169.524318 128.789238 
L 170.015227 128.789238 
L 170.506136 128.169397 
L 170.997045 127.859477 
L 171.978864 127.859477 
L 172.469773 127.549557 
L 173.451591 126.309876 
L 173.9425 125.999956 
L 174.433409 125.999956 
L 174.924318 125.690036 
L 175.415227 125.690036 
L 175.906136 124.760275 
L 176.397045 124.760275 
L 177.378864 124.140435 
L 179.3425 124.140435 
L 179.833409 123.830515 
L 180.324318 123.830515 
L 181.306136 123.210675 
L 182.287955 123.210675 
L 182.778864 122.590834 
L 183.269773 122.590834 
L 183.760682 122.280914 
L 184.251591 121.661074 
L 185.233409 121.661074 
L 185.724318 121.351153 
L 186.215227 121.351153 
L 187.197045 120.111473 
L 187.687955 119.801553 
L 188.669773 119.801553 
L 189.651591 119.181712 
L 190.1425 119.181712 
L 191.615227 118.251952 
L 192.106136 118.251952 
L 192.597045 117.942031 
L 194.560682 117.942031 
L 195.051591 117.632111 
L 196.033409 117.632111 
L 196.524318 117.942031 
L 197.506136 117.942031 
L 197.997045 117.322191 
L 198.978864 116.702351 
L 201.433409 116.702351 
L 201.924318 116.392431 
L 202.906136 116.392431 
L 204.378864 115.46267 
L 204.869773 115.46267 
L 205.360682 115.15275 
L 205.851591 115.15275 
L 206.3425 114.84283 
L 206.833409 114.84283 
L 207.324318 115.15275 
L 207.815227 115.15275 
L 209.778864 113.913069 
L 210.269773 113.293229 
L 210.760682 113.293229 
L 211.7425 112.673388 
L 212.233409 112.673388 
L 212.724318 112.363468 
L 213.215227 112.363468 
L 213.706136 111.743628 
L 214.197045 112.053548 
L 214.687955 112.053548 
L 215.669773 111.433708 
L 216.160682 110.813867 
L 216.651591 110.503947 
L 218.615227 110.503947 
L 219.597045 109.884107 
L 221.560682 109.884107 
L 222.5425 109.264266 
L 223.524318 109.264266 
L 224.015227 108.954346 
L 224.506136 108.334506 
L 225.978864 107.404745 
L 226.469773 107.714665 
L 227.9425 107.714665 
L 228.433409 107.404745 
L 228.924318 107.404745 
L 229.415227 107.094825 
L 230.397045 107.094825 
L 230.887955 106.784905 
L 231.378864 106.784905 
L 231.869773 106.474985 
L 238.251591 106.474985 
L 238.7425 106.165064 
L 242.669773 106.165064 
L 243.160682 105.545224 
L 245.124318 105.545224 
L 245.615227 105.235304 
L 246.597045 103.995623 
L 249.051591 103.995623 
L 249.5425 103.685703 
L 250.033409 103.065863 
L 251.506136 103.065863 
L 251.997045 102.755942 
L 252.487955 102.755942 
L 252.978864 102.136102 
L 253.469773 102.136102 
L 253.960682 101.826182 
L 254.9425 101.826182 
L 255.433409 101.516262 
L 255.924318 101.516262 
L 256.415227 101.206342 
L 258.378864 101.206342 
L 259.360682 100.586501 
L 259.851591 99.966661 
L 260.833409 99.966661 
L 262.306136 99.0369 
L 263.287955 99.0369 
L 264.269773 98.41706 
L 265.7425 98.41706 
L 266.233409 98.10714 
L 267.215227 98.10714 
L 267.706136 97.487299 
L 270.160682 97.487299 
L 270.651591 96.867459 
L 271.1425 96.867459 
L 272.124318 95.627778 
L 273.106136 95.627778 
L 273.597045 95.317858 
L 276.051591 95.317858 
L 276.5425 94.698018 
L 278.506136 94.698018 
L 278.997045 94.388098 
L 279.487955 94.388098 
L 280.469773 93.768257 
L 280.960682 93.768257 
L 281.451591 93.458337 
L 282.433409 93.458337 
L 282.924318 93.148417 
L 283.415227 93.148417 
L 283.906136 92.528576 
L 284.397045 92.528576 
L 284.887955 92.218656 
L 286.360682 92.218656 
L 286.851591 91.598816 
L 288.324318 91.598816 
L 288.815227 91.288896 
L 292.7425 91.288896 
L 293.233409 90.978976 
L 294.706136 90.978976 
L 295.197045 90.669055 
L 298.633409 90.669055 
L 299.124318 90.359135 
L 300.106136 90.359135 
L 300.597045 90.049215 
L 302.560682 90.049215 
L 303.051591 89.429375 
L 304.033409 89.429375 
L 304.524318 89.119454 
L 306.978864 89.119454 
L 307.469773 88.499614 
L 308.9425 88.499614 
L 309.433409 87.259933 
L 317.778864 87.259933 
L 318.269773 86.640093 
L 322.197045 86.640093 
L 322.687955 86.330173 
L 324.651591 86.330173 
L 325.1425 86.020253 
L 327.106136 86.020253 
L 327.597045 85.090492 
L 329.560682 85.090492 
L 330.051591 84.780572 
L 332.015227 84.780572 
L 332.506136 84.160732 
L 334.960682 84.160732 
L 335.451591 83.230971 
L 338.397045 83.230971 
L 338.887955 82.30121 
L 341.833409 82.30121 
L 342.324318 81.99129 
L 345.269773 81.99129 
L 345.760682 80.75161 
L 349.687955 80.75161 
L 350.178864 79.821849 
L 354.106136 79.821849 
L 354.597045 79.511929 
L 359.015227 79.511929 
L 359.506136 77.342488 
L 364.906136 77.342488 
L 365.397045 75.792887 
L 371.287955 75.792887 
L 371.778864 73.623445 
L 379.1425 73.623445 
L 379.633409 72.073844 
L 388.469773 72.073844 
L 388.960682 70.834164 
L 400.7425 70.834164 
L 401.233409 68.664722 
L 418.415227 68.664722 
L 418.415227 68.664722 
" style="fill:none;stroke:#8b0000;stroke-linecap:square;stroke-width:2;"/>
   </g>
   <g id="line2d_11">
    <path clip-path="url(#p329f529744)" d="M 123.869773 143.355486 
L 124.360682 142.735646 
L 124.851591 141.805885 
L 125.3425 141.805885 
L 125.833409 141.186045 
L 126.324318 140.876125 
L 127.306136 140.876125 
L 127.797045 140.256285 
L 128.287955 139.946364 
L 129.269773 139.946364 
L 129.760682 139.636444 
L 130.7425 139.636444 
L 131.233409 139.946364 
L 131.724318 139.326524 
L 132.215227 139.016604 
L 133.197045 139.016604 
L 133.687955 138.706684 
L 134.178864 138.706684 
L 134.669773 138.396763 
L 135.160682 138.396763 
L 135.651591 138.086843 
L 136.1425 137.467003 
L 136.633409 135.917402 
L 137.124318 135.917402 
L 138.106136 134.677721 
L 139.578864 133.747961 
L 140.069773 133.747961 
L 140.560682 133.438041 
L 141.5425 133.438041 
L 142.524318 132.8182 
L 143.015227 132.8182 
L 143.506136 133.747961 
L 143.997045 134.367801 
L 145.960682 134.367801 
L 146.451591 134.057881 
L 148.415227 134.057881 
L 148.906136 133.747961 
L 149.397045 134.057881 
L 149.887955 134.057881 
L 150.378864 133.438041 
L 151.851591 133.438041 
L 152.3425 133.747961 
L 152.833409 133.747961 
L 153.324318 133.438041 
L 153.815227 134.057881 
L 154.306136 134.057881 
L 154.797045 133.747961 
L 155.287955 133.12812 
L 155.778864 133.12812 
L 156.269773 132.8182 
L 158.724318 132.8182 
L 160.197045 131.88844 
L 160.687955 131.268599 
L 161.178864 130.958679 
L 163.1425 130.958679 
L 163.633409 130.648759 
L 164.124318 130.648759 
L 164.615227 130.028919 
L 165.597045 130.028919 
L 166.087955 129.718998 
L 166.578864 129.718998 
L 168.5425 128.479318 
L 169.033409 128.789238 
L 169.524318 128.479318 
L 170.015227 128.479318 
L 170.506136 127.859477 
L 170.997045 127.549557 
L 171.978864 127.549557 
L 172.469773 127.239637 
L 173.451591 127.239637 
L 173.9425 127.549557 
L 174.433409 127.549557 
L 174.924318 127.239637 
L 175.415227 127.239637 
L 175.906136 126.309876 
L 176.397045 126.309876 
L 177.378864 125.690036 
L 179.3425 125.690036 
L 179.833409 125.999956 
L 180.324318 125.999956 
L 181.306136 125.380116 
L 182.287955 125.380116 
L 182.778864 124.760275 
L 183.269773 124.760275 
L 183.760682 124.450355 
L 184.251591 123.830515 
L 185.233409 123.830515 
L 185.724318 123.520595 
L 186.706136 123.520595 
L 187.197045 122.900754 
L 187.687955 122.590834 
L 188.669773 122.590834 
L 189.651591 121.970994 
L 190.1425 121.970994 
L 191.124318 121.351153 
L 191.615227 121.661074 
L 192.106136 121.661074 
L 192.597045 121.351153 
L 194.560682 121.351153 
L 195.051591 121.041233 
L 196.033409 121.041233 
L 196.524318 121.351153 
L 197.015227 120.731313 
L 197.506136 120.731313 
L 197.997045 120.111473 
L 198.978864 119.491632 
L 201.433409 119.491632 
L 201.924318 119.181712 
L 202.906136 119.181712 
L 204.378864 118.251952 
L 204.869773 118.251952 
L 205.360682 117.942031 
L 205.851591 117.942031 
L 206.3425 117.632111 
L 206.833409 117.632111 
L 207.324318 117.942031 
L 207.815227 117.942031 
L 209.778864 116.702351 
L 210.269773 116.08251 
L 210.760682 116.08251 
L 211.7425 115.46267 
L 212.233409 115.46267 
L 212.724318 115.15275 
L 213.215227 115.15275 
L 213.706136 114.532909 
L 214.197045 114.84283 
L 214.687955 114.84283 
L 215.669773 114.222989 
L 216.160682 113.603149 
L 216.651591 113.293229 
L 218.615227 113.293229 
L 219.597045 112.673388 
L 221.560682 112.673388 
L 222.5425 113.293229 
L 223.524318 113.293229 
L 224.015227 112.983309 
L 224.506136 112.983309 
L 224.997045 113.293229 
L 225.978864 112.673388 
L 226.469773 112.983309 
L 227.9425 112.983309 
L 228.433409 112.673388 
L 228.924318 112.673388 
L 229.415227 112.363468 
L 230.397045 112.363468 
L 230.887955 112.053548 
L 231.378864 112.053548 
L 231.869773 112.363468 
L 238.251591 112.363468 
L 238.7425 112.053548 
L 242.669773 112.053548 
L 243.160682 111.433708 
L 245.124318 111.433708 
L 245.615227 111.123787 
L 246.106136 110.503947 
L 249.051591 110.503947 
L 249.5425 110.813867 
L 251.506136 110.813867 
L 251.997045 111.123787 
L 252.487955 111.123787 
L 252.978864 110.503947 
L 253.469773 110.503947 
L 253.960682 110.194027 
L 254.9425 110.194027 
L 255.433409 109.884107 
L 255.924318 109.884107 
L 256.415227 110.194027 
L 258.378864 110.194027 
L 259.360682 109.574187 
L 260.833409 109.574187 
L 262.306136 108.644426 
L 263.287955 108.644426 
L 264.269773 108.024586 
L 265.7425 108.024586 
L 266.233409 107.714665 
L 267.215227 107.714665 
L 267.706136 107.094825 
L 270.160682 107.094825 
L 270.651591 106.474985 
L 271.1425 106.474985 
L 271.633409 107.094825 
L 272.124318 106.474985 
L 273.106136 106.474985 
L 273.597045 106.165064 
L 278.506136 106.165064 
L 278.997045 105.855144 
L 279.487955 105.855144 
L 280.469773 105.235304 
L 280.960682 105.235304 
L 281.451591 104.925384 
L 282.433409 104.925384 
L 282.924318 104.615464 
L 283.415227 104.615464 
L 283.906136 103.995623 
L 284.397045 103.995623 
L 284.887955 104.305543 
L 286.360682 104.305543 
L 286.851591 103.685703 
L 288.324318 103.685703 
L 288.815227 103.375783 
L 292.7425 103.375783 
L 293.233409 103.065863 
L 294.706136 103.065863 
L 295.197045 103.375783 
L 298.633409 103.375783 
L 299.124318 103.065863 
L 300.106136 103.065863 
L 300.597045 102.755942 
L 302.560682 102.755942 
L 303.051591 102.136102 
L 304.033409 102.136102 
L 304.524318 101.826182 
L 305.506136 101.826182 
L 305.997045 102.446022 
L 306.978864 102.446022 
L 307.469773 101.826182 
L 308.9425 101.826182 
L 309.433409 101.206342 
L 317.778864 101.206342 
L 318.269773 100.586501 
L 322.197045 100.586501 
L 322.687955 100.276581 
L 324.651591 100.276581 
L 325.1425 99.966661 
L 327.106136 99.966661 
L 327.597045 99.0369 
L 329.560682 99.0369 
L 330.051591 98.72698 
L 332.015227 98.72698 
L 332.506136 98.10714 
L 334.960682 98.10714 
L 335.451591 97.177379 
L 338.397045 97.177379 
L 338.887955 96.247619 
L 341.833409 96.247619 
L 342.324318 95.937698 
L 345.269773 95.937698 
L 345.760682 95.317858 
L 349.687955 95.317858 
L 350.178864 95.007938 
L 354.106136 95.007938 
L 354.597045 94.698018 
L 359.015227 94.698018 
L 359.506136 93.148417 
L 364.906136 93.148417 
L 365.397045 92.838497 
L 371.287955 92.838497 
L 371.778864 91.908736 
L 379.1425 91.908736 
L 379.633409 90.359135 
L 388.469773 90.359135 
L 388.960682 89.739295 
L 400.7425 89.739295 
L 401.233409 88.809534 
L 418.415227 88.809534 
L 418.415227 88.809534 
" style="fill:none;stroke:#000080;stroke-linecap:square;stroke-width:2;"/>
   </g>
   <g id="patch_3">
    <path d="M 109.1425 289.637812 
L 109.1425 17.837813 
" style="fill:none;stroke:#000000;stroke-linecap:square;stroke-linejoin:miter;"/>
   </g>
   <g id="patch_4">
    <path d="M 109.1425 289.637812 
L 433.1425 289.637812 
" style="fill:none;stroke:#000000;stroke-linecap:square;stroke-linejoin:miter;"/>
   </g>
  </g>
  <g id="axes_2">
   <g id="patch_5">
    <path d="M 449.3425 289.637812 
L 773.3425 289.637812 
L 773.3425 17.837813 
L 449.3425 17.837813 
z
" style="fill:none;"/>
   </g>
   <g id="matplotlib.axis_3">
    <g id="xtick_5">
     <g id="line2d_12">
      <g>
       <use style="stroke:#000000;stroke-width:0.8;" x="464.069773" xlink:href="#m9b39cc0994" y="289.637812"/>
      </g>
     </g>
     <g id="text_12">
      <!-- 1 -->
      <g transform="translate(455.162273 319.413437)scale(0.28 -0.28)">
       <use xlink:href="#DejaVuSans-49"/>
      </g>
     </g>
    </g>
    <g id="xtick_6">
     <g id="line2d_13">
      <g>
       <use style="stroke:#000000;stroke-width:0.8;" x="562.251591" xlink:href="#m9b39cc0994" y="289.637812"/>
      </g>
     </g>
     <g id="text_13">
      <!-- 2 -->
      <g transform="translate(553.344091 319.413437)scale(0.28 -0.28)">
       <use xlink:href="#DejaVuSans-50"/>
      </g>
     </g>
    </g>
    <g id="xtick_7">
     <g id="line2d_14">
      <g>
       <use style="stroke:#000000;stroke-width:0.8;" x="660.433409" xlink:href="#m9b39cc0994" y="289.637812"/>
      </g>
     </g>
     <g id="text_14">
      <!-- 3 -->
      <g transform="translate(651.525909 319.413437)scale(0.28 -0.28)">
       <use xlink:href="#DejaVuSans-51"/>
      </g>
     </g>
    </g>
    <g id="xtick_8">
     <g id="line2d_15">
      <g>
       <use style="stroke:#000000;stroke-width:0.8;" x="758.615227" xlink:href="#m9b39cc0994" y="289.637812"/>
      </g>
     </g>
     <g id="text_15">
      <!-- 4 -->
      <g transform="translate(749.707727 319.413437)scale(0.28 -0.28)">
       <use xlink:href="#DejaVuSans-52"/>
      </g>
     </g>
    </g>
    <g id="text_16">
     <!-- -log10 p-value -->
     <g transform="translate(510.5075 350.512187)scale(0.28 -0.28)">
      <use xlink:href="#DejaVuSans-45"/>
      <use x="36.083984" xlink:href="#DejaVuSans-108"/>
      <use x="63.867188" xlink:href="#DejaVuSans-111"/>
      <use x="125.048828" xlink:href="#DejaVuSans-103"/>
      <use x="188.525391" xlink:href="#DejaVuSans-49"/>
      <use x="252.148438" xlink:href="#DejaVuSans-48"/>
      <use x="315.771484" xlink:href="#DejaVuSans-32"/>
      <use x="347.558594" xlink:href="#DejaVuSans-112"/>
      <use x="411.035156" xlink:href="#DejaVuSans-45"/>
      <use x="447.087891" xlink:href="#DejaVuSans-118"/>
      <use x="506.267578" xlink:href="#DejaVuSans-97"/>
      <use x="567.546875" xlink:href="#DejaVuSans-108"/>
      <use x="595.330078" xlink:href="#DejaVuSans-117"/>
      <use x="658.708984" xlink:href="#DejaVuSans-101"/>
     </g>
    </g>
   </g>
   <g id="matplotlib.axis_4">
    <g id="ytick_6"/>
    <g id="ytick_7"/>
    <g id="ytick_8"/>
    <g id="ytick_9"/>
    <g id="ytick_10"/>
   </g>
   <g id="line2d_16">
    <path clip-path="url(#pefaadebbc2)" d="M 464.069773 120.897537 
L 465.051591 119.829561 
L 465.5425 120.363549 
L 466.033409 119.295573 
L 470.9425 119.295573 
L 471.433409 120.363549 
L 474.869773 120.363549 
L 475.360682 120.897537 
L 475.851591 120.897537 
L 476.3425 121.431526 
L 476.833409 120.897537 
L 477.815227 120.897537 
L 478.797045 119.829561 
L 479.778864 119.829561 
L 480.760682 118.761585 
L 481.251591 118.761585 
L 482.233409 119.829561 
L 483.215227 118.761585 
L 487.633409 118.761585 
L 488.124318 118.227596 
L 490.087955 118.227596 
L 491.069773 117.15962 
L 494.506136 117.15962 
L 494.997045 116.625632 
L 495.978864 116.625632 
L 496.469773 117.15962 
L 498.433409 117.15962 
L 498.924318 117.693608 
L 500.397045 117.693608 
L 500.887955 118.227596 
L 502.851591 118.227596 
L 503.3425 118.761585 
L 503.833409 118.761585 
L 504.324318 119.295573 
L 506.287955 119.295573 
L 506.778864 118.761585 
L 507.760682 118.761585 
L 508.251591 119.295573 
L 508.7425 119.295573 
L 509.233409 118.761585 
L 511.197045 118.761585 
L 511.687955 119.295573 
L 513.160682 119.295573 
L 513.651591 119.829561 
L 515.615227 119.829561 
L 516.597045 118.761585 
L 517.087955 118.761585 
L 517.578864 119.295573 
L 524.451591 119.295573 
L 524.9425 118.761585 
L 527.397045 118.761585 
L 527.887955 119.295573 
L 530.833409 119.295573 
L 531.324318 118.761585 
L 535.7425 118.761585 
L 536.233409 119.295573 
L 536.724318 119.295573 
L 537.215227 118.761585 
L 537.706136 118.761585 
L 538.197045 119.829561 
L 543.106136 119.829561 
L 543.597045 119.295573 
L 546.051591 119.295573 
L 546.5425 119.829561 
L 549.978864 119.829561 
L 550.469773 120.363549 
L 550.960682 120.363549 
L 551.451591 119.829561 
L 565.687955 119.829561 
L 566.178864 120.363549 
L 567.160682 120.363549 
L 567.651591 120.897537 
L 568.1425 120.897537 
L 568.633409 121.431526 
L 572.560682 121.431526 
L 573.051591 120.897537 
L 580.906136 120.897537 
L 581.397045 121.431526 
L 581.887955 121.431526 
L 582.378864 120.897537 
L 584.3425 120.897537 
L 584.833409 121.965514 
L 588.269773 121.965514 
L 588.760682 122.499502 
L 591.215227 122.499502 
L 591.706136 123.03349 
L 592.197045 123.03349 
L 592.687955 123.567479 
L 593.178864 123.567479 
L 593.669773 124.101467 
L 598.087955 124.101467 
L 598.578864 123.567479 
L 599.069773 123.567479 
L 599.560682 123.03349 
L 602.015227 123.03349 
L 602.506136 123.567479 
L 607.906136 123.567479 
L 608.397045 124.101467 
L 609.378864 124.101467 
L 609.869773 124.635455 
L 612.815227 124.635455 
L 613.306136 124.101467 
L 616.251591 124.101467 
L 616.7425 123.567479 
L 650.615227 123.567479 
L 651.106136 124.101467 
L 654.051591 124.101467 
L 654.5425 123.567479 
L 662.397045 123.567479 
L 662.887955 123.03349 
L 685.469773 123.03349 
L 685.960682 123.567479 
L 719.3425 123.567479 
L 719.833409 123.03349 
L 740.9425 123.03349 
L 741.433409 122.499502 
L 758.615227 122.499502 
L 758.615227 122.499502 
" style="fill:none;stroke:#8b0000;stroke-linecap:square;stroke-width:2;"/>
   </g>
   <g id="line2d_17">
    <path clip-path="url(#pefaadebbc2)" d="M 464.069773 88.324257 
L 465.5425 86.722292 
L 466.033409 85.654315 
L 470.9425 85.654315 
L 471.433409 84.586339 
L 474.869773 84.586339 
L 475.360682 84.052351 
L 475.851591 84.052351 
L 476.833409 82.984374 
L 477.815227 82.984374 
L 478.797045 81.916398 
L 479.778864 81.916398 
L 480.760682 80.848422 
L 481.251591 80.848422 
L 482.233409 81.916398 
L 483.215227 80.848422 
L 487.633409 80.848422 
L 488.124318 80.314433 
L 490.087955 80.314433 
L 491.069773 79.246457 
L 491.560682 78.17848 
L 494.506136 78.17848 
L 494.997045 76.576516 
L 495.978864 76.576516 
L 496.469773 76.042528 
L 498.433409 76.042528 
L 498.924318 75.508539 
L 500.397045 75.508539 
L 500.887955 74.974551 
L 502.851591 74.974551 
L 503.3425 75.508539 
L 503.833409 75.508539 
L 504.324318 74.974551 
L 506.287955 74.974551 
L 506.778864 74.440563 
L 507.760682 74.440563 
L 508.251591 73.906575 
L 508.7425 73.906575 
L 509.233409 73.372587 
L 511.197045 73.372587 
L 511.687955 72.838598 
L 513.160682 72.838598 
L 513.651591 72.30461 
L 515.615227 72.30461 
L 516.597045 71.236634 
L 517.087955 71.236634 
L 517.578864 70.702646 
L 524.451591 70.702646 
L 524.9425 70.168657 
L 527.397045 70.168657 
L 527.887955 69.634669 
L 530.833409 69.634669 
L 531.324318 69.100681 
L 535.7425 69.100681 
L 536.233409 68.566693 
L 536.724318 68.566693 
L 537.215227 68.032704 
L 541.633409 68.032704 
L 542.124318 66.964728 
L 543.106136 66.964728 
L 543.597045 66.43074 
L 546.051591 66.43074 
L 546.5425 65.896752 
L 549.978864 65.896752 
L 550.469773 65.362763 
L 550.960682 65.362763 
L 551.451591 64.828775 
L 565.687955 64.828775 
L 566.178864 64.294787 
L 567.160682 64.294787 
L 567.651591 63.760799 
L 568.1425 63.760799 
L 568.633409 63.226811 
L 572.560682 63.226811 
L 573.051591 62.692822 
L 580.906136 62.692822 
L 581.397045 63.226811 
L 581.887955 63.226811 
L 582.378864 62.692822 
L 588.269773 62.692822 
L 588.760682 62.158834 
L 591.215227 62.158834 
L 591.706136 61.624846 
L 592.197045 61.624846 
L 592.687955 61.090858 
L 593.178864 61.090858 
L 593.669773 60.556869 
L 598.087955 60.556869 
L 598.578864 60.022881 
L 599.069773 60.022881 
L 599.560682 59.488893 
L 600.5425 59.488893 
L 601.033409 58.420917 
L 602.015227 58.420917 
L 602.506136 57.886928 
L 607.906136 57.886928 
L 608.397045 57.35294 
L 609.378864 57.35294 
L 609.869773 57.886928 
L 612.815227 57.886928 
L 613.306136 57.35294 
L 616.251591 57.35294 
L 616.7425 56.818952 
L 650.615227 56.818952 
L 651.106136 56.284964 
L 654.051591 56.284964 
L 654.5425 55.750976 
L 662.397045 55.750976 
L 662.887955 55.216987 
L 685.469773 55.216987 
L 685.960682 55.750976 
L 719.3425 55.750976 
L 719.833409 55.216987 
L 740.9425 55.216987 
L 741.433409 54.682999 
L 758.615227 54.682999 
L 758.615227 54.682999 
" style="fill:none;stroke:#000080;stroke-linecap:square;stroke-width:2;"/>
   </g>
   <g id="patch_6">
    <path d="M 449.3425 289.637812 
L 449.3425 17.837813 
" style="fill:none;stroke:#000000;stroke-linecap:square;stroke-linejoin:miter;"/>
   </g>
   <g id="patch_7">
    <path d="M 449.3425 289.637812 
L 773.3425 289.637812 
" style="fill:none;stroke:#000000;stroke-linecap:square;stroke-linejoin:miter;"/>
   </g>
  </g>
  <g id="axes_3">
   <g id="patch_8">
    <path d="M 789.5425 289.637812 
L 1113.5425 289.637812 
L 1113.5425 17.837813 
L 789.5425 17.837813 
z
" style="fill:none;"/>
   </g>
   <g id="matplotlib.axis_5">
    <g id="xtick_9">
     <g id="line2d_18">
      <g>
       <use style="stroke:#000000;stroke-width:0.8;" x="804.269773" xlink:href="#m9b39cc0994" y="289.637812"/>
      </g>
     </g>
     <g id="text_17">
      <!-- 1 -->
      <g transform="translate(795.362273 319.413437)scale(0.28 -0.28)">
       <use xlink:href="#DejaVuSans-49"/>
      </g>
     </g>
    </g>
    <g id="xtick_10">
     <g id="line2d_19">
      <g>
       <use style="stroke:#000000;stroke-width:0.8;" x="902.451591" xlink:href="#m9b39cc0994" y="289.637812"/>
      </g>
     </g>
     <g id="text_18">
      <!-- 2 -->
      <g transform="translate(893.544091 319.413437)scale(0.28 -0.28)">
       <use xlink:href="#DejaVuSans-50"/>
      </g>
     </g>
    </g>
    <g id="xtick_11">
     <g id="line2d_20">
      <g>
       <use style="stroke:#000000;stroke-width:0.8;" x="1000.633409" xlink:href="#m9b39cc0994" y="289.637812"/>
      </g>
     </g>
     <g id="text_19">
      <!-- 3 -->
      <g transform="translate(991.725909 319.413437)scale(0.28 -0.28)">
       <use xlink:href="#DejaVuSans-51"/>
      </g>
     </g>
    </g>
    <g id="xtick_12">
     <g id="line2d_21">
      <g>
       <use style="stroke:#000000;stroke-width:0.8;" x="1098.815227" xlink:href="#m9b39cc0994" y="289.637812"/>
      </g>
     </g>
     <g id="text_20">
      <!-- 4 -->
      <g transform="translate(1089.907727 319.413437)scale(0.28 -0.28)">
       <use xlink:href="#DejaVuSans-52"/>
      </g>
     </g>
    </g>
    <g id="text_21">
     <!-- -log10 p-value -->
     <g transform="translate(850.7075 350.512187)scale(0.28 -0.28)">
      <use xlink:href="#DejaVuSans-45"/>
      <use x="36.083984" xlink:href="#DejaVuSans-108"/>
      <use x="63.867188" xlink:href="#DejaVuSans-111"/>
      <use x="125.048828" xlink:href="#DejaVuSans-103"/>
      <use x="188.525391" xlink:href="#DejaVuSans-49"/>
      <use x="252.148438" xlink:href="#DejaVuSans-48"/>
      <use x="315.771484" xlink:href="#DejaVuSans-32"/>
      <use x="347.558594" xlink:href="#DejaVuSans-112"/>
      <use x="411.035156" xlink:href="#DejaVuSans-45"/>
      <use x="447.087891" xlink:href="#DejaVuSans-118"/>
      <use x="506.267578" xlink:href="#DejaVuSans-97"/>
      <use x="567.546875" xlink:href="#DejaVuSans-108"/>
      <use x="595.330078" xlink:href="#DejaVuSans-117"/>
      <use x="658.708984" xlink:href="#DejaVuSans-101"/>
     </g>
    </g>
   </g>
   <g id="matplotlib.axis_6">
    <g id="ytick_11"/>
    <g id="ytick_12"/>
    <g id="ytick_13"/>
    <g id="ytick_14"/>
    <g id="ytick_15"/>
   </g>
   <g id="line2d_22">
    <path clip-path="url(#p412f1c127f)" d="M 804.269773 139.766784 
L 805.251591 139.766784 
L 806.233409 141.460242 
L 811.633409 141.460242 
L 812.615227 143.1537 
L 813.106136 144.847158 
L 817.524318 144.847158 
L 818.015227 145.693887 
L 818.506136 145.693887 
L 818.997045 146.540616 
L 819.487955 146.540616 
L 819.978864 147.387345 
L 820.469773 147.387345 
L 820.960682 148.234074 
L 821.9425 148.234074 
L 822.433409 149.080803 
L 825.378864 149.080803 
L 825.869773 149.927532 
L 827.833409 149.927532 
L 829.797045 153.314448 
L 831.269773 153.314448 
L 831.760682 154.161177 
L 832.251591 154.161177 
L 833.233409 155.854635 
L 836.669773 155.854635 
L 837.160682 156.701364 
L 838.1425 156.701364 
L 838.633409 155.854635 
L 839.124318 155.854635 
L 839.615227 156.701364 
L 842.560682 156.701364 
L 843.051591 157.548093 
L 843.5425 157.548093 
L 844.033409 158.394822 
L 845.015227 158.394822 
L 845.506136 159.241551 
L 846.978864 159.241551 
L 847.469773 158.394822 
L 848.9425 158.394822 
L 849.433409 159.241551 
L 855.815227 159.241551 
L 856.306136 160.08828 
L 856.797045 160.08828 
L 857.778864 161.781738 
L 859.7425 161.781738 
L 860.233409 162.628467 
L 861.215227 162.628467 
L 861.706136 163.475196 
L 863.669773 163.475196 
L 864.160682 162.628467 
L 865.633409 162.628467 
L 866.124318 164.321925 
L 866.615227 164.321925 
L 867.106136 165.168654 
L 868.578864 165.168654 
L 869.069773 166.015383 
L 873.978864 166.015383 
L 874.469773 166.862112 
L 875.9425 166.862112 
L 876.433409 167.708841 
L 876.924318 167.708841 
L 877.415227 168.55557 
L 881.3425 168.55557 
L 881.833409 169.402298 
L 884.287955 169.402298 
L 884.778864 170.249027 
L 886.7425 170.249027 
L 887.233409 171.095756 
L 888.706136 171.095756 
L 889.197045 171.942485 
L 889.687955 171.942485 
L 890.178864 172.789214 
L 890.669773 172.789214 
L 891.160682 173.635943 
L 891.651591 173.635943 
L 892.1425 175.329401 
L 894.597045 175.329401 
L 895.087955 177.022859 
L 899.997045 177.022859 
L 900.487955 177.869588 
L 903.433409 177.869588 
L 903.924318 178.716317 
L 906.378864 178.716317 
L 906.869773 179.563046 
L 907.360682 179.563046 
L 907.851591 181.256504 
L 913.251591 181.256504 
L 913.7425 182.103233 
L 919.1425 182.103233 
L 919.633409 182.949962 
L 922.087955 182.949962 
L 922.578864 183.796691 
L 932.887955 183.796691 
L 933.869773 187.183607 
L 934.360682 187.183607 
L 934.851591 188.030336 
L 936.324318 188.030336 
L 936.815227 188.877065 
L 940.251591 188.877065 
L 940.7425 189.723794 
L 941.724318 189.723794 
L 942.215227 190.570523 
L 945.651591 190.570523 
L 946.1425 189.723794 
L 948.597045 189.723794 
L 949.087955 190.570523 
L 950.560682 190.570523 
L 951.051591 192.263981 
L 953.506136 192.263981 
L 953.997045 194.804168 
L 954.978864 194.804168 
L 955.469773 195.650897 
L 956.451591 195.650897 
L 956.9425 196.497626 
L 957.433409 196.497626 
L 958.415227 198.191084 
L 962.3425 198.191084 
L 962.833409 199.037813 
L 964.797045 199.037813 
L 965.287955 199.884541 
L 967.7425 199.884541 
L 968.233409 201.577999 
L 968.724318 201.577999 
L 969.215227 202.424728 
L 970.687955 202.424728 
L 971.178864 203.271457 
L 990.815227 203.271457 
L 991.306136 204.118186 
L 1009.960682 204.118186 
L 1010.451591 205.811644 
L 1012.415227 205.811644 
L 1012.906136 206.658373 
L 1022.233409 206.658373 
L 1022.724318 207.505102 
L 1030.087955 207.505102 
L 1030.578864 208.351831 
L 1034.506136 208.351831 
L 1034.997045 209.19856 
L 1039.415227 209.19856 
L 1039.906136 210.045289 
L 1045.306136 210.045289 
L 1045.797045 211.738747 
L 1051.687955 211.738747 
L 1052.178864 212.585476 
L 1059.5425 212.585476 
L 1060.033409 214.278934 
L 1068.869773 214.278934 
L 1069.360682 217.66585 
L 1081.1425 217.66585 
L 1081.633409 221.052766 
L 1098.815227 221.052766 
L 1098.815227 221.052766 
" style="fill:none;stroke:#8b0000;stroke-linecap:square;stroke-width:2;"/>
   </g>
   <g id="line2d_23">
    <path clip-path="url(#p412f1c127f)" d="M 804.269773 140.613513 
L 805.251591 140.613513 
L 806.233409 138.920055 
L 811.633409 138.920055 
L 812.124318 138.073327 
L 812.615227 138.920055 
L 817.524318 138.920055 
L 818.015227 138.073327 
L 818.506136 138.073327 
L 818.997045 137.226598 
L 819.487955 137.226598 
L 819.978864 136.379869 
L 820.469773 136.379869 
L 820.960682 135.53314 
L 821.9425 135.53314 
L 822.433409 134.686411 
L 825.378864 134.686411 
L 825.869773 133.839682 
L 827.833409 133.839682 
L 828.324318 134.686411 
L 828.815227 133.839682 
L 829.797045 135.53314 
L 831.269773 135.53314 
L 831.760682 134.686411 
L 832.251591 134.686411 
L 833.233409 132.992953 
L 836.669773 132.992953 
L 837.160682 132.146224 
L 838.1425 132.146224 
L 838.633409 131.299495 
L 839.124318 131.299495 
L 839.615227 132.146224 
L 842.560682 132.146224 
L 843.051591 131.299495 
L 843.5425 131.299495 
L 844.033409 130.452766 
L 845.015227 130.452766 
L 845.506136 129.606037 
L 846.978864 129.606037 
L 847.469773 128.759308 
L 848.9425 128.759308 
L 849.433409 127.912579 
L 855.815227 127.912579 
L 856.306136 128.759308 
L 856.797045 128.759308 
L 857.287955 127.912579 
L 857.778864 128.759308 
L 859.7425 128.759308 
L 860.233409 129.606037 
L 861.215227 129.606037 
L 861.706136 128.759308 
L 863.669773 128.759308 
L 864.160682 127.912579 
L 866.615227 127.912579 
L 867.106136 127.06585 
L 868.578864 127.06585 
L 869.069773 126.219121 
L 873.978864 126.219121 
L 874.469773 127.06585 
L 875.9425 127.06585 
L 876.433409 126.219121 
L 876.924318 126.219121 
L 877.415227 125.372392 
L 881.3425 125.372392 
L 881.833409 124.525663 
L 884.287955 124.525663 
L 884.778864 123.678934 
L 886.7425 123.678934 
L 887.233409 122.832205 
L 888.706136 122.832205 
L 889.197045 121.985476 
L 889.687955 121.985476 
L 890.178864 121.138747 
L 890.669773 121.138747 
L 891.160682 120.292018 
L 894.597045 120.292018 
L 895.087955 118.59856 
L 899.997045 118.59856 
L 900.487955 117.751831 
L 903.433409 117.751831 
L 903.924318 116.905102 
L 906.378864 116.905102 
L 906.869773 117.751831 
L 913.251591 117.751831 
L 913.7425 116.905102 
L 919.1425 116.905102 
L 919.633409 116.058373 
L 922.087955 116.058373 
L 922.578864 115.211644 
L 934.360682 115.211644 
L 934.851591 116.058373 
L 936.324318 116.058373 
L 936.815227 115.211644 
L 940.251591 115.211644 
L 940.7425 114.364915 
L 941.724318 114.364915 
L 942.215227 113.518186 
L 945.651591 113.518186 
L 946.1425 112.671457 
L 948.597045 112.671457 
L 949.087955 111.824728 
L 950.560682 111.824728 
L 951.051591 110.13127 
L 953.506136 110.13127 
L 953.997045 107.591084 
L 954.978864 107.591084 
L 955.469773 108.437813 
L 956.451591 108.437813 
L 956.9425 107.591084 
L 957.433409 107.591084 
L 957.924318 106.744355 
L 958.415227 107.591084 
L 962.3425 107.591084 
L 962.833409 108.437813 
L 964.797045 108.437813 
L 965.287955 107.591084 
L 968.724318 107.591084 
L 969.215227 108.437813 
L 970.687955 108.437813 
L 971.178864 107.591084 
L 990.815227 107.591084 
L 991.306136 106.744355 
L 1009.960682 106.744355 
L 1010.451591 105.050897 
L 1012.415227 105.050897 
L 1012.906136 104.204168 
L 1022.233409 104.204168 
L 1022.724318 105.050897 
L 1030.087955 105.050897 
L 1030.578864 104.204168 
L 1034.506136 104.204168 
L 1034.997045 105.050897 
L 1039.415227 105.050897 
L 1039.906136 105.897626 
L 1051.687955 105.897626 
L 1052.178864 105.050897 
L 1059.5425 105.050897 
L 1060.033409 103.357439 
L 1068.869773 103.357439 
L 1069.360682 101.663981 
L 1081.1425 101.663981 
L 1081.633409 103.357439 
L 1098.815227 103.357439 
L 1098.815227 103.357439 
" style="fill:none;stroke:#000080;stroke-linecap:square;stroke-width:2;"/>
   </g>
   <g id="patch_9">
    <path d="M 789.5425 289.637812 
L 789.5425 17.837813 
" style="fill:none;stroke:#000000;stroke-linecap:square;stroke-linejoin:miter;"/>
   </g>
   <g id="patch_10">
    <path d="M 789.5425 289.637812 
L 1113.5425 289.637812 
" style="fill:none;stroke:#000000;stroke-linecap:square;stroke-linejoin:miter;"/>
   </g>
  </g>
 </g>
 <defs>
  <clipPath id="p329f529744">
   <rect height="271.8" width="324" x="109.1425" y="17.837812"/>
  </clipPath>
  <clipPath id="pefaadebbc2">
   <rect height="271.8" width="324" x="449.3425" y="17.837812"/>
  </clipPath>
  <clipPath id="p412f1c127f">
   <rect height="271.8" width="324" x="789.5425" y="17.837812"/>
  </clipPath>
 </defs>
</svg>
