<?xml version="1.0" encoding="utf-8" standalone="no"?>
<!DOCTYPE svg PUBLIC "-//W3C//DTD SVG 1.1//EN"
  "http://www.w3.org/Graphics/SVG/1.1/DTD/svg11.dtd">
<!-- Created with matplotlib (https://matplotlib.org/) -->
<svg height="363.535312pt" version="1.1" viewBox="0 0 1120.7425 363.535312" width="1120.7425pt" xmlns="http://www.w3.org/2000/svg" xmlns:xlink="http://www.w3.org/1999/xlink">
 <defs>
  <style type="text/css">
*{stroke-linecap:butt;stroke-linejoin:round;}
  </style>
 </defs>
 <g id="figure_1">
  <g id="patch_1">
   <path d="M 0 363.535312 
L 1120.7425 363.535312 
L 1120.7425 -0 
L 0 -0 
z
" style="fill:none;"/>
  </g>
  <g id="axes_1">
   <g id="patch_2">
    <path d="M 109.1425 289.637812 
L 433.1425 289.637812 
L 433.1425 17.837813 
L 109.1425 17.837813 
z
" style="fill:none;"/>
   </g>
   <g id="matplotlib.axis_1">
    <g id="xtick_1">
     <g id="line2d_1">
      <defs>
       <path d="M 0 0 
L 0 5 
" id="meb3cfed13c" style="stroke:#000000;stroke-width:0.8;"/>
      </defs>
      <g>
       <use style="stroke:#000000;stroke-width:0.8;" x="123.869773" xlink:href="#meb3cfed13c" y="289.637812"/>
      </g>
     </g>
     <g id="text_1">
      <!-- 1 -->
      <defs>
       <path d="M 12.40625 8.296875 
L 28.515625 8.296875 
L 28.515625 63.921875 
L 10.984375 60.40625 
L 10.984375 69.390625 
L 28.421875 72.90625 
L 38.28125 72.90625 
L 38.28125 8.296875 
L 54.390625 8.296875 
L 54.390625 0 
L 12.40625 0 
z
" id="DejaVuSans-49"/>
      </defs>
      <g transform="translate(114.962273 319.413437)scale(0.28 -0.28)">
       <use xlink:href="#DejaVuSans-49"/>
      </g>
     </g>
    </g>
    <g id="xtick_2">
     <g id="line2d_2">
      <g>
       <use style="stroke:#000000;stroke-width:0.8;" x="197.506136" xlink:href="#meb3cfed13c" y="289.637812"/>
      </g>
     </g>
     <g id="text_2">
      <!-- 2 -->
      <defs>
       <path d="M 19.1875 8.296875 
L 53.609375 8.296875 
L 53.609375 0 
L 7.328125 0 
L 7.328125 8.296875 
Q 12.9375 14.109375 22.625 23.890625 
Q 32.328125 33.6875 34.8125 36.53125 
Q 39.546875 41.84375 41.421875 45.53125 
Q 43.3125 49.21875 43.3125 52.78125 
Q 43.3125 58.59375 39.234375 62.25 
Q 35.15625 65.921875 28.609375 65.921875 
Q 23.96875 65.921875 18.8125 64.3125 
Q 13.671875 62.703125 7.8125 59.421875 
L 7.8125 69.390625 
Q 13.765625 71.78125 18.9375 73 
Q 24.125 74.21875 28.421875 74.21875 
Q 39.75 74.21875 46.484375 68.546875 
Q 53.21875 62.890625 53.21875 53.421875 
Q 53.21875 48.921875 51.53125 44.890625 
Q 49.859375 40.875 45.40625 35.40625 
Q 44.1875 33.984375 37.640625 27.21875 
Q 31.109375 20.453125 19.1875 8.296875 
z
" id="DejaVuSans-50"/>
      </defs>
      <g transform="translate(188.598636 319.413437)scale(0.28 -0.28)">
       <use xlink:href="#DejaVuSans-50"/>
      </g>
     </g>
    </g>
    <g id="xtick_3">
     <g id="line2d_3">
      <g>
       <use style="stroke:#000000;stroke-width:0.8;" x="271.1425" xlink:href="#meb3cfed13c" y="289.637812"/>
      </g>
     </g>
     <g id="text_3">
      <!-- 3 -->
      <defs>
       <path d="M 40.578125 39.3125 
Q 47.65625 37.796875 51.625 33 
Q 55.609375 28.21875 55.609375 21.1875 
Q 55.609375 10.40625 48.1875 4.484375 
Q 40.765625 -1.421875 27.09375 -1.421875 
Q 22.515625 -1.421875 17.65625 -0.515625 
Q 12.796875 0.390625 7.625 2.203125 
L 7.625 11.71875 
Q 11.71875 9.328125 16.59375 8.109375 
Q 21.484375 6.890625 26.8125 6.890625 
Q 36.078125 6.890625 40.9375 10.546875 
Q 45.796875 14.203125 45.796875 21.1875 
Q 45.796875 27.640625 41.28125 31.265625 
Q 36.765625 34.90625 28.71875 34.90625 
L 20.21875 34.90625 
L 20.21875 43.015625 
L 29.109375 43.015625 
Q 36.375 43.015625 40.234375 45.921875 
Q 44.09375 48.828125 44.09375 54.296875 
Q 44.09375 59.90625 40.109375 62.90625 
Q 36.140625 65.921875 28.71875 65.921875 
Q 24.65625 65.921875 20.015625 65.03125 
Q 15.375 64.15625 9.8125 62.3125 
L 9.8125 71.09375 
Q 15.4375 72.65625 20.34375 73.4375 
Q 25.25 74.21875 29.59375 74.21875 
Q 40.828125 74.21875 47.359375 69.109375 
Q 53.90625 64.015625 53.90625 55.328125 
Q 53.90625 49.265625 50.4375 45.09375 
Q 46.96875 40.921875 40.578125 39.3125 
z
" id="DejaVuSans-51"/>
      </defs>
      <g transform="translate(262.235 319.413437)scale(0.28 -0.28)">
       <use xlink:href="#DejaVuSans-51"/>
      </g>
     </g>
    </g>
    <g id="xtick_4">
     <g id="line2d_4">
      <g>
       <use style="stroke:#000000;stroke-width:0.8;" x="344.778864" xlink:href="#meb3cfed13c" y="289.637812"/>
      </g>
     </g>
     <g id="text_4">
      <!-- 4 -->
      <defs>
       <path d="M 37.796875 64.3125 
L 12.890625 25.390625 
L 37.796875 25.390625 
z
M 35.203125 72.90625 
L 47.609375 72.90625 
L 47.609375 25.390625 
L 58.015625 25.390625 
L 58.015625 17.1875 
L 47.609375 17.1875 
L 47.609375 0 
L 37.796875 0 
L 37.796875 17.1875 
L 4.890625 17.1875 
L 4.890625 26.703125 
z
" id="DejaVuSans-52"/>
      </defs>
      <g transform="translate(335.871364 319.413437)scale(0.28 -0.28)">
       <use xlink:href="#DejaVuSans-52"/>
      </g>
     </g>
    </g>
    <g id="xtick_5">
     <g id="line2d_5">
      <g>
       <use style="stroke:#000000;stroke-width:0.8;" x="418.415227" xlink:href="#meb3cfed13c" y="289.637812"/>
      </g>
     </g>
     <g id="text_5">
      <!-- 5 -->
      <defs>
       <path d="M 10.796875 72.90625 
L 49.515625 72.90625 
L 49.515625 64.59375 
L 19.828125 64.59375 
L 19.828125 46.734375 
Q 21.96875 47.46875 24.109375 47.828125 
Q 26.265625 48.1875 28.421875 48.1875 
Q 40.625 48.1875 47.75 41.5 
Q 54.890625 34.8125 54.890625 23.390625 
Q 54.890625 11.625 47.5625 5.09375 
Q 40.234375 -1.421875 26.90625 -1.421875 
Q 22.3125 -1.421875 17.546875 -0.640625 
Q 12.796875 0.140625 7.71875 1.703125 
L 7.71875 11.625 
Q 12.109375 9.234375 16.796875 8.0625 
Q 21.484375 6.890625 26.703125 6.890625 
Q 35.15625 6.890625 40.078125 11.328125 
Q 45.015625 15.765625 45.015625 23.390625 
Q 45.015625 31 40.078125 35.4375 
Q 35.15625 39.890625 26.703125 39.890625 
Q 22.75 39.890625 18.8125 39.015625 
Q 14.890625 38.140625 10.796875 36.28125 
z
" id="DejaVuSans-53"/>
      </defs>
      <g transform="translate(409.507727 319.413437)scale(0.28 -0.28)">
       <use xlink:href="#DejaVuSans-53"/>
      </g>
     </g>
    </g>
    <g id="text_6">
     <!-- -log10 p-value -->
     <defs>
      <path d="M 4.890625 31.390625 
L 31.203125 31.390625 
L 31.203125 23.390625 
L 4.890625 23.390625 
z
" id="DejaVuSans-45"/>
      <path d="M 9.421875 75.984375 
L 18.40625 75.984375 
L 18.40625 0 
L 9.421875 0 
z
" id="DejaVuSans-108"/>
      <path d="M 30.609375 48.390625 
Q 23.390625 48.390625 19.1875 42.75 
Q 14.984375 37.109375 14.984375 27.296875 
Q 14.984375 17.484375 19.15625 11.84375 
Q 23.34375 6.203125 30.609375 6.203125 
Q 37.796875 6.203125 41.984375 11.859375 
Q 46.1875 17.53125 46.1875 27.296875 
Q 46.1875 37.015625 41.984375 42.703125 
Q 37.796875 48.390625 30.609375 48.390625 
z
M 30.609375 56 
Q 42.328125 56 49.015625 48.375 
Q 55.71875 40.765625 55.71875 27.296875 
Q 55.71875 13.875 49.015625 6.21875 
Q 42.328125 -1.421875 30.609375 -1.421875 
Q 18.84375 -1.421875 12.171875 6.21875 
Q 5.515625 13.875 5.515625 27.296875 
Q 5.515625 40.765625 12.171875 48.375 
Q 18.84375 56 30.609375 56 
z
" id="DejaVuSans-111"/>
      <path d="M 45.40625 27.984375 
Q 45.40625 37.75 41.375 43.109375 
Q 37.359375 48.484375 30.078125 48.484375 
Q 22.859375 48.484375 18.828125 43.109375 
Q 14.796875 37.75 14.796875 27.984375 
Q 14.796875 18.265625 18.828125 12.890625 
Q 22.859375 7.515625 30.078125 7.515625 
Q 37.359375 7.515625 41.375 12.890625 
Q 45.40625 18.265625 45.40625 27.984375 
z
M 54.390625 6.78125 
Q 54.390625 -7.171875 48.1875 -13.984375 
Q 42 -20.796875 29.203125 -20.796875 
Q 24.46875 -20.796875 20.265625 -20.09375 
Q 16.0625 -19.390625 12.109375 -17.921875 
L 12.109375 -9.1875 
Q 16.0625 -11.328125 19.921875 -12.34375 
Q 23.78125 -13.375 27.78125 -13.375 
Q 36.625 -13.375 41.015625 -8.765625 
Q 45.40625 -4.15625 45.40625 5.171875 
L 45.40625 9.625 
Q 42.625 4.78125 38.28125 2.390625 
Q 33.9375 0 27.875 0 
Q 17.828125 0 11.671875 7.65625 
Q 5.515625 15.328125 5.515625 27.984375 
Q 5.515625 40.671875 11.671875 48.328125 
Q 17.828125 56 27.875 56 
Q 33.9375 56 38.28125 53.609375 
Q 42.625 51.21875 45.40625 46.390625 
L 45.40625 54.6875 
L 54.390625 54.6875 
z
" id="DejaVuSans-103"/>
      <path d="M 31.78125 66.40625 
Q 24.171875 66.40625 20.328125 58.90625 
Q 16.5 51.421875 16.5 36.375 
Q 16.5 21.390625 20.328125 13.890625 
Q 24.171875 6.390625 31.78125 6.390625 
Q 39.453125 6.390625 43.28125 13.890625 
Q 47.125 21.390625 47.125 36.375 
Q 47.125 51.421875 43.28125 58.90625 
Q 39.453125 66.40625 31.78125 66.40625 
z
M 31.78125 74.21875 
Q 44.046875 74.21875 50.515625 64.515625 
Q 56.984375 54.828125 56.984375 36.375 
Q 56.984375 17.96875 50.515625 8.265625 
Q 44.046875 -1.421875 31.78125 -1.421875 
Q 19.53125 -1.421875 13.0625 8.265625 
Q 6.59375 17.96875 6.59375 36.375 
Q 6.59375 54.828125 13.0625 64.515625 
Q 19.53125 74.21875 31.78125 74.21875 
z
" id="DejaVuSans-48"/>
      <path id="DejaVuSans-32"/>
      <path d="M 18.109375 8.203125 
L 18.109375 -20.796875 
L 9.078125 -20.796875 
L 9.078125 54.6875 
L 18.109375 54.6875 
L 18.109375 46.390625 
Q 20.953125 51.265625 25.265625 53.625 
Q 29.59375 56 35.59375 56 
Q 45.5625 56 51.78125 48.09375 
Q 58.015625 40.1875 58.015625 27.296875 
Q 58.015625 14.40625 51.78125 6.484375 
Q 45.5625 -1.421875 35.59375 -1.421875 
Q 29.59375 -1.421875 25.265625 0.953125 
Q 20.953125 3.328125 18.109375 8.203125 
z
M 48.6875 27.296875 
Q 48.6875 37.203125 44.609375 42.84375 
Q 40.53125 48.484375 33.40625 48.484375 
Q 26.265625 48.484375 22.1875 42.84375 
Q 18.109375 37.203125 18.109375 27.296875 
Q 18.109375 17.390625 22.1875 11.75 
Q 26.265625 6.109375 33.40625 6.109375 
Q 40.53125 6.109375 44.609375 11.75 
Q 48.6875 17.390625 48.6875 27.296875 
z
" id="DejaVuSans-112"/>
      <path d="M 2.984375 54.6875 
L 12.5 54.6875 
L 29.59375 8.796875 
L 46.6875 54.6875 
L 56.203125 54.6875 
L 35.6875 0 
L 23.484375 0 
z
" id="DejaVuSans-118"/>
      <path d="M 34.28125 27.484375 
Q 23.390625 27.484375 19.1875 25 
Q 14.984375 22.515625 14.984375 16.5 
Q 14.984375 11.71875 18.140625 8.90625 
Q 21.296875 6.109375 26.703125 6.109375 
Q 34.1875 6.109375 38.703125 11.40625 
Q 43.21875 16.703125 43.21875 25.484375 
L 43.21875 27.484375 
z
M 52.203125 31.203125 
L 52.203125 0 
L 43.21875 0 
L 43.21875 8.296875 
Q 40.140625 3.328125 35.546875 0.953125 
Q 30.953125 -1.421875 24.3125 -1.421875 
Q 15.921875 -1.421875 10.953125 3.296875 
Q 6 8.015625 6 15.921875 
Q 6 25.140625 12.171875 29.828125 
Q 18.359375 34.515625 30.609375 34.515625 
L 43.21875 34.515625 
L 43.21875 35.40625 
Q 43.21875 41.609375 39.140625 45 
Q 35.0625 48.390625 27.6875 48.390625 
Q 23 48.390625 18.546875 47.265625 
Q 14.109375 46.140625 10.015625 43.890625 
L 10.015625 52.203125 
Q 14.9375 54.109375 19.578125 55.046875 
Q 24.21875 56 28.609375 56 
Q 40.484375 56 46.34375 49.84375 
Q 52.203125 43.703125 52.203125 31.203125 
z
" id="DejaVuSans-97"/>
      <path d="M 8.5 21.578125 
L 8.5 54.6875 
L 17.484375 54.6875 
L 17.484375 21.921875 
Q 17.484375 14.15625 20.5 10.265625 
Q 23.53125 6.390625 29.59375 6.390625 
Q 36.859375 6.390625 41.078125 11.03125 
Q 45.3125 15.671875 45.3125 23.6875 
L 45.3125 54.6875 
L 54.296875 54.6875 
L 54.296875 0 
L 45.3125 0 
L 45.3125 8.40625 
Q 42.046875 3.421875 37.71875 1 
Q 33.40625 -1.421875 27.6875 -1.421875 
Q 18.265625 -1.421875 13.375 4.4375 
Q 8.5 10.296875 8.5 21.578125 
z
M 31.109375 56 
z
" id="DejaVuSans-117"/>
      <path d="M 56.203125 29.59375 
L 56.203125 25.203125 
L 14.890625 25.203125 
Q 15.484375 15.921875 20.484375 11.0625 
Q 25.484375 6.203125 34.421875 6.203125 
Q 39.59375 6.203125 44.453125 7.46875 
Q 49.3125 8.734375 54.109375 11.28125 
L 54.109375 2.78125 
Q 49.265625 0.734375 44.1875 -0.34375 
Q 39.109375 -1.421875 33.890625 -1.421875 
Q 20.796875 -1.421875 13.15625 6.1875 
Q 5.515625 13.8125 5.515625 26.8125 
Q 5.515625 40.234375 12.765625 48.109375 
Q 20.015625 56 32.328125 56 
Q 43.359375 56 49.78125 48.890625 
Q 56.203125 41.796875 56.203125 29.59375 
z
M 47.21875 32.234375 
Q 47.125 39.59375 43.09375 43.984375 
Q 39.0625 48.390625 32.421875 48.390625 
Q 24.90625 48.390625 20.390625 44.140625 
Q 15.875 39.890625 15.1875 32.171875 
z
" id="DejaVuSans-101"/>
     </defs>
     <g transform="translate(170.3075 350.512187)scale(0.28 -0.28)">
      <use xlink:href="#DejaVuSans-45"/>
      <use x="36.083984" xlink:href="#DejaVuSans-108"/>
      <use x="63.867188" xlink:href="#DejaVuSans-111"/>
      <use x="125.048828" xlink:href="#DejaVuSans-103"/>
      <use x="188.525391" xlink:href="#DejaVuSans-49"/>
      <use x="252.148438" xlink:href="#DejaVuSans-48"/>
      <use x="315.771484" xlink:href="#DejaVuSans-32"/>
      <use x="347.558594" xlink:href="#DejaVuSans-112"/>
      <use x="411.035156" xlink:href="#DejaVuSans-45"/>
      <use x="447.087891" xlink:href="#DejaVuSans-118"/>
      <use x="506.267578" xlink:href="#DejaVuSans-97"/>
      <use x="567.546875" xlink:href="#DejaVuSans-108"/>
      <use x="595.330078" xlink:href="#DejaVuSans-117"/>
      <use x="658.708984" xlink:href="#DejaVuSans-101"/>
     </g>
    </g>
   </g>
   <g id="matplotlib.axis_2">
    <g id="ytick_1">
     <g id="line2d_6">
      <defs>
       <path d="M 0 0 
L -5 0 
" id="m5526848bf2" style="stroke:#000000;stroke-width:0.8;"/>
      </defs>
      <g>
       <use style="stroke:#000000;stroke-width:0.8;" x="109.1425" xlink:href="#m5526848bf2" y="289.637812"/>
      </g>
     </g>
     <g id="text_7">
      <!-- 0.00 -->
      <defs>
       <path d="M 10.6875 12.40625 
L 21 12.40625 
L 21 0 
L 10.6875 0 
z
" id="DejaVuSans-46"/>
      </defs>
      <g transform="translate(38.29875 300.275625)scale(0.28 -0.28)">
       <use xlink:href="#DejaVuSans-48"/>
       <use x="63.623047" xlink:href="#DejaVuSans-46"/>
       <use x="95.410156" xlink:href="#DejaVuSans-48"/>
       <use x="159.033203" xlink:href="#DejaVuSans-48"/>
      </g>
     </g>
    </g>
    <g id="ytick_2">
     <g id="line2d_7">
      <g>
       <use style="stroke:#000000;stroke-width:0.8;" x="109.1425" xlink:href="#m5526848bf2" y="221.687813"/>
      </g>
     </g>
     <g id="text_8">
      <!-- 0.25 -->
      <g transform="translate(38.29875 232.325625)scale(0.28 -0.28)">
       <use xlink:href="#DejaVuSans-48"/>
       <use x="63.623047" xlink:href="#DejaVuSans-46"/>
       <use x="95.410156" xlink:href="#DejaVuSans-50"/>
       <use x="159.033203" xlink:href="#DejaVuSans-53"/>
      </g>
     </g>
    </g>
    <g id="ytick_3">
     <g id="line2d_8">
      <g>
       <use style="stroke:#000000;stroke-width:0.8;" x="109.1425" xlink:href="#m5526848bf2" y="153.737813"/>
      </g>
     </g>
     <g id="text_9">
      <!-- 0.50 -->
      <g transform="translate(38.29875 164.375625)scale(0.28 -0.28)">
       <use xlink:href="#DejaVuSans-48"/>
       <use x="63.623047" xlink:href="#DejaVuSans-46"/>
       <use x="95.410156" xlink:href="#DejaVuSans-53"/>
       <use x="159.033203" xlink:href="#DejaVuSans-48"/>
      </g>
     </g>
    </g>
    <g id="ytick_4">
     <g id="line2d_9">
      <g>
       <use style="stroke:#000000;stroke-width:0.8;" x="109.1425" xlink:href="#m5526848bf2" y="85.787813"/>
      </g>
     </g>
     <g id="text_10">
      <!-- 0.75 -->
      <defs>
       <path d="M 8.203125 72.90625 
L 55.078125 72.90625 
L 55.078125 68.703125 
L 28.609375 0 
L 18.3125 0 
L 43.21875 64.59375 
L 8.203125 64.59375 
z
" id="DejaVuSans-55"/>
      </defs>
      <g transform="translate(38.29875 96.425625)scale(0.28 -0.28)">
       <use xlink:href="#DejaVuSans-48"/>
       <use x="63.623047" xlink:href="#DejaVuSans-46"/>
       <use x="95.410156" xlink:href="#DejaVuSans-55"/>
       <use x="159.033203" xlink:href="#DejaVuSans-53"/>
      </g>
     </g>
    </g>
    <g id="ytick_5">
     <g id="line2d_10">
      <g>
       <use style="stroke:#000000;stroke-width:0.8;" x="109.1425" xlink:href="#m5526848bf2" y="17.837813"/>
      </g>
     </g>
     <g id="text_11">
      <!-- 1.00 -->
      <g transform="translate(38.29875 28.475625)scale(0.28 -0.28)">
       <use xlink:href="#DejaVuSans-49"/>
       <use x="63.623047" xlink:href="#DejaVuSans-46"/>
       <use x="95.410156" xlink:href="#DejaVuSans-48"/>
       <use x="159.033203" xlink:href="#DejaVuSans-48"/>
      </g>
     </g>
    </g>
    <g id="text_12">
     <!-- Accuracy -->
     <defs>
      <path d="M 34.1875 63.1875 
L 20.796875 26.90625 
L 47.609375 26.90625 
z
M 28.609375 72.90625 
L 39.796875 72.90625 
L 67.578125 0 
L 57.328125 0 
L 50.6875 18.703125 
L 17.828125 18.703125 
L 11.1875 0 
L 0.78125 0 
z
" id="DejaVuSans-65"/>
      <path d="M 48.78125 52.59375 
L 48.78125 44.1875 
Q 44.96875 46.296875 41.140625 47.34375 
Q 37.3125 48.390625 33.40625 48.390625 
Q 24.65625 48.390625 19.8125 42.84375 
Q 14.984375 37.3125 14.984375 27.296875 
Q 14.984375 17.28125 19.8125 11.734375 
Q 24.65625 6.203125 33.40625 6.203125 
Q 37.3125 6.203125 41.140625 7.25 
Q 44.96875 8.296875 48.78125 10.40625 
L 48.78125 2.09375 
Q 45.015625 0.34375 40.984375 -0.53125 
Q 36.96875 -1.421875 32.421875 -1.421875 
Q 20.0625 -1.421875 12.78125 6.34375 
Q 5.515625 14.109375 5.515625 27.296875 
Q 5.515625 40.671875 12.859375 48.328125 
Q 20.21875 56 33.015625 56 
Q 37.15625 56 41.109375 55.140625 
Q 45.0625 54.296875 48.78125 52.59375 
z
" id="DejaVuSans-99"/>
      <path d="M 41.109375 46.296875 
Q 39.59375 47.171875 37.8125 47.578125 
Q 36.03125 48 33.890625 48 
Q 26.265625 48 22.1875 43.046875 
Q 18.109375 38.09375 18.109375 28.8125 
L 18.109375 0 
L 9.078125 0 
L 9.078125 54.6875 
L 18.109375 54.6875 
L 18.109375 46.1875 
Q 20.953125 51.171875 25.484375 53.578125 
Q 30.03125 56 36.53125 56 
Q 37.453125 56 38.578125 55.875 
Q 39.703125 55.765625 41.0625 55.515625 
z
" id="DejaVuSans-114"/>
      <path d="M 32.171875 -5.078125 
Q 28.375 -14.84375 24.75 -17.8125 
Q 21.140625 -20.796875 15.09375 -20.796875 
L 7.90625 -20.796875 
L 7.90625 -13.28125 
L 13.1875 -13.28125 
Q 16.890625 -13.28125 18.9375 -11.515625 
Q 21 -9.765625 23.484375 -3.21875 
L 25.09375 0.875 
L 2.984375 54.6875 
L 12.5 54.6875 
L 29.59375 11.921875 
L 46.6875 54.6875 
L 56.203125 54.6875 
z
" id="DejaVuSans-121"/>
     </defs>
     <g transform="translate(28.475625 217.899375)rotate(-90)scale(0.28 -0.28)">
      <use xlink:href="#DejaVuSans-65"/>
      <use x="68.392578" xlink:href="#DejaVuSans-99"/>
      <use x="123.373047" xlink:href="#DejaVuSans-99"/>
      <use x="178.353516" xlink:href="#DejaVuSans-117"/>
      <use x="241.732422" xlink:href="#DejaVuSans-114"/>
      <use x="282.845703" xlink:href="#DejaVuSans-97"/>
      <use x="344.125" xlink:href="#DejaVuSans-99"/>
      <use x="399.105469" xlink:href="#DejaVuSans-121"/>
     </g>
    </g>
   </g>
   <g id="line2d_11">
    <path clip-path="url(#p948a74e14c)" d="M 123.869773 145.215007 
L 124.237955 145.215007 
L 124.606136 144.285247 
L 124.974318 144.285247 
L 125.710682 143.665407 
L 126.447045 142.425726 
L 126.815227 142.115806 
L 127.183409 142.425726 
L 127.551591 142.425726 
L 127.919773 141.495965 
L 128.656136 140.876125 
L 129.760682 139.016604 
L 130.128864 137.157083 
L 130.497045 137.157083 
L 131.233409 136.537242 
L 131.601591 136.537242 
L 131.969773 136.227322 
L 132.337955 136.227322 
L 134.547045 134.367801 
L 134.915227 133.438041 
L 135.283409 133.12812 
L 135.651591 133.12812 
L 136.019773 132.50828 
L 136.387955 132.19836 
L 136.756136 132.19836 
L 137.124318 131.88844 
L 137.4925 131.88844 
L 137.860682 130.648759 
L 138.228864 130.648759 
L 138.597045 129.718998 
L 139.701591 129.718998 
L 140.069773 129.409078 
L 140.437955 129.409078 
L 140.806136 129.718998 
L 141.5425 129.099158 
L 141.910682 129.099158 
L 142.278864 128.789238 
L 143.015227 127.549557 
L 143.383409 127.859477 
L 143.751591 127.859477 
L 144.119773 126.619797 
L 144.487955 125.999956 
L 145.960682 125.999956 
L 146.328864 125.070196 
L 146.697045 125.070196 
L 147.065227 124.140435 
L 147.433409 124.140435 
L 148.169773 123.520595 
L 148.537955 123.520595 
L 148.906136 123.210675 
L 149.274318 123.210675 
L 150.010682 122.590834 
L 150.378864 122.590834 
L 150.747045 122.280914 
L 151.115227 122.900754 
L 151.483409 122.590834 
L 151.851591 122.590834 
L 152.219773 122.280914 
L 152.587955 121.351153 
L 152.956136 121.351153 
L 153.324318 120.731313 
L 153.6925 120.421393 
L 154.797045 120.421393 
L 156.269773 119.181712 
L 156.637955 119.491632 
L 158.110682 118.251952 
L 158.847045 118.251952 
L 159.583409 117.632111 
L 159.951591 117.632111 
L 160.687955 117.012271 
L 161.056136 117.012271 
L 161.424318 116.08251 
L 161.7925 116.08251 
L 162.160682 115.15275 
L 162.897045 114.532909 
L 163.265227 114.532909 
L 163.633409 113.913069 
L 164.001591 113.603149 
L 164.369773 112.983309 
L 166.210682 111.433708 
L 166.578864 110.813867 
L 166.947045 110.813867 
L 167.683409 110.194027 
L 169.156136 110.194027 
L 169.524318 109.884107 
L 170.260682 109.884107 
L 170.628864 109.264266 
L 170.997045 109.264266 
L 171.365227 108.954346 
L 172.469773 108.954346 
L 172.837955 108.644426 
L 173.206136 108.024586 
L 173.574318 108.024586 
L 173.9425 107.714665 
L 174.678864 107.714665 
L 175.047045 107.094825 
L 176.151591 107.094825 
L 176.519773 106.784905 
L 176.887955 106.784905 
L 177.256136 106.474985 
L 177.624318 106.784905 
L 177.9925 105.855144 
L 178.360682 105.545224 
L 178.728864 105.545224 
L 179.465227 104.925384 
L 180.201591 104.925384 
L 180.569773 104.305543 
L 180.937955 103.995623 
L 181.306136 103.995623 
L 181.674318 103.685703 
L 183.147045 103.685703 
L 183.515227 103.375783 
L 184.987955 103.375783 
L 185.356136 103.065863 
L 186.460682 103.065863 
L 187.565227 102.136102 
L 187.933409 101.516262 
L 190.878864 101.516262 
L 191.247045 100.586501 
L 191.615227 99.966661 
L 191.983409 99.966661 
L 192.351591 99.34682 
L 192.719773 99.0369 
L 193.087955 99.0369 
L 193.824318 97.79722 
L 194.560682 97.79722 
L 195.297045 97.177379 
L 195.665227 97.177379 
L 197.137955 95.937698 
L 197.506136 95.937698 
L 197.874318 95.627778 
L 198.2425 94.698018 
L 198.610682 94.078177 
L 198.978864 93.768257 
L 200.083409 93.768257 
L 200.451591 93.458337 
L 200.819773 93.458337 
L 201.187955 93.148417 
L 203.028864 93.148417 
L 203.397045 92.838497 
L 203.765227 92.838497 
L 205.606136 91.288896 
L 205.974318 91.288896 
L 206.3425 90.978976 
L 206.710682 90.978976 
L 207.078864 90.669055 
L 207.447045 90.049215 
L 207.815227 90.049215 
L 208.551591 89.429375 
L 210.024318 89.429375 
L 210.3925 89.119454 
L 212.233409 89.119454 
L 212.601591 89.429375 
L 212.969773 89.119454 
L 213.337955 89.119454 
L 214.810682 87.879774 
L 215.178864 87.879774 
L 215.547045 87.569854 
L 216.651591 87.569854 
L 217.019773 87.259933 
L 219.597045 87.259933 
L 219.965227 86.950013 
L 220.333409 86.950013 
L 220.701591 86.640093 
L 221.069773 86.640093 
L 221.806136 86.020253 
L 222.174318 86.020253 
L 222.5425 85.710332 
L 222.910682 86.020253 
L 223.647045 86.020253 
L 224.015227 85.710332 
L 225.119773 85.710332 
L 225.487955 85.400412 
L 226.224318 85.400412 
L 226.960682 84.780572 
L 227.328864 84.780572 
L 228.065227 85.400412 
L 228.433409 85.090492 
L 229.169773 85.090492 
L 229.537955 84.780572 
L 230.274318 84.780572 
L 230.6425 84.470652 
L 231.378864 84.470652 
L 231.747045 84.160732 
L 233.956136 84.160732 
L 234.324318 83.850811 
L 234.6925 83.850811 
L 235.060682 83.540891 
L 235.428864 83.540891 
L 235.797045 83.230971 
L 236.901591 83.230971 
L 237.269773 82.921051 
L 237.637955 82.921051 
L 238.006136 82.30121 
L 239.110682 82.30121 
L 239.847045 81.68137 
L 241.319773 81.68137 
L 242.056136 81.06153 
L 242.7925 81.06153 
L 243.528864 80.441689 
L 244.265227 80.441689 
L 244.633409 80.131769 
L 247.947045 80.131769 
L 248.315227 79.821849 
L 251.628864 79.821849 
L 251.997045 79.511929 
L 253.101591 79.511929 
L 253.469773 79.202009 
L 253.837955 78.582168 
L 254.574318 78.582168 
L 255.310682 77.962328 
L 256.783409 77.962328 
L 257.151591 77.652408 
L 258.256136 77.652408 
L 258.624318 77.342488 
L 259.728864 77.342488 
L 260.097045 77.652408 
L 260.833409 77.652408 
L 261.201591 77.342488 
L 262.674318 77.342488 
L 263.0425 77.032567 
L 263.778864 75.792887 
L 264.883409 75.792887 
L 265.251591 76.102807 
L 265.987955 76.102807 
L 266.356136 76.412727 
L 268.565227 76.412727 
L 269.301591 75.792887 
L 270.774318 75.792887 
L 271.510682 74.553206 
L 271.878864 74.553206 
L 272.247045 74.243286 
L 273.719773 74.243286 
L 274.087955 73.623445 
L 274.824318 73.623445 
L 275.1925 73.313525 
L 276.297045 73.313525 
L 277.033409 72.693685 
L 280.715227 72.693685 
L 281.083409 73.003605 
L 281.819773 73.003605 
L 282.187955 72.693685 
L 282.924318 72.693685 
L 283.2925 72.383765 
L 285.869773 72.383765 
L 286.237955 71.763924 
L 287.3425 71.763924 
L 287.710682 71.454004 
L 288.447045 71.454004 
L 288.815227 71.144084 
L 291.024318 71.144084 
L 291.3925 70.834164 
L 293.601591 70.834164 
L 293.969773 70.524244 
L 294.337955 70.524244 
L 294.706136 70.214323 
L 296.178864 70.214323 
L 296.547045 69.904403 
L 296.915227 69.904403 
L 297.283409 69.594483 
L 298.387955 69.594483 
L 298.756136 68.974643 
L 299.124318 68.974643 
L 299.4925 68.354802 
L 300.228864 68.354802 
L 300.597045 68.044882 
L 300.965227 68.044882 
L 301.333409 67.734962 
L 301.701591 67.115122 
L 302.069773 66.805201 
L 302.437955 66.805201 
L 302.806136 66.495281 
L 303.5425 66.495281 
L 303.910682 65.875441 
L 304.278864 66.185361 
L 306.856136 66.185361 
L 307.224318 65.875441 
L 308.697045 65.875441 
L 309.065227 65.565521 
L 309.801591 66.185361 
L 310.169773 65.875441 
L 310.537955 65.875441 
L 310.906136 65.565521 
L 313.483409 65.565521 
L 313.851591 64.94568 
L 318.637955 64.94568 
L 319.006136 64.63576 
L 320.110682 64.63576 
L 320.478864 64.01592 
L 322.319773 64.01592 
L 322.687955 63.706 
L 323.056136 63.706 
L 323.424318 63.396079 
L 325.633409 63.396079 
L 326.369773 62.776239 
L 329.683409 62.776239 
L 330.051591 62.466319 
L 332.628864 62.466319 
L 332.997045 61.846478 
L 335.206136 61.846478 
L 335.574318 62.156399 
L 337.047045 62.156399 
L 337.415227 61.846478 
L 338.519773 61.846478 
L 338.887955 61.536558 
L 339.256136 61.536558 
L 339.624318 61.226638 
L 343.306136 61.226638 
L 343.674318 60.916718 
L 344.0425 60.916718 
L 344.410682 60.606798 
L 345.515227 60.606798 
L 346.251591 59.986957 
L 346.619773 60.296877 
L 348.828864 60.296877 
L 349.197045 59.986957 
L 349.933409 59.986957 
L 350.301591 59.677037 
L 352.1425 59.677037 
L 352.510682 59.367117 
L 355.824318 59.367117 
L 356.1925 59.057197 
L 356.928864 59.057197 
L 357.297045 58.747277 
L 359.506136 58.747277 
L 360.2425 58.127436 
L 363.187955 58.127436 
L 363.556136 57.817516 
L 364.2925 57.817516 
L 364.660682 57.507596 
L 366.869773 57.507596 
L 367.237955 57.197676 
L 367.974318 57.197676 
L 368.3425 56.887755 
L 375.706136 56.887755 
L 376.074318 56.577835 
L 379.019773 56.577835 
L 379.387955 56.267915 
L 380.124318 56.267915 
L 380.4925 56.577835 
L 385.278864 56.577835 
L 385.647045 56.267915 
L 390.065227 56.267915 
L 390.433409 55.957995 
L 391.537955 55.957995 
L 391.906136 55.648075 
L 393.010682 55.648075 
L 393.378864 55.338155 
L 403.319773 55.338155 
L 403.687955 54.718314 
L 409.947045 54.718314 
L 410.315227 54.408394 
L 412.524318 54.408394 
L 412.8925 53.788554 
L 415.101591 53.788554 
L 415.469773 53.168713 
L 418.415227 53.168713 
L 418.415227 53.168713 
" style="fill:none;stroke:#8b0000;stroke-linecap:square;stroke-width:2;"/>
   </g>
   <g id="line2d_12">
    <path clip-path="url(#p948a74e14c)" d="M 123.869773 136.227322 
L 124.237955 136.227322 
L 124.606136 135.297562 
L 124.974318 135.297562 
L 125.710682 134.677721 
L 126.078864 134.677721 
L 126.447045 134.057881 
L 126.815227 133.747961 
L 127.183409 134.057881 
L 127.551591 134.057881 
L 128.656136 133.12812 
L 129.760682 131.268599 
L 130.128864 131.88844 
L 130.497045 131.88844 
L 131.233409 131.268599 
L 131.601591 131.268599 
L 131.969773 130.958679 
L 132.337955 130.958679 
L 133.074318 130.338839 
L 133.4425 131.268599 
L 133.810682 131.578519 
L 134.547045 130.958679 
L 134.915227 131.268599 
L 135.283409 130.958679 
L 135.651591 130.958679 
L 136.019773 130.338839 
L 136.387955 130.648759 
L 136.756136 130.648759 
L 137.124318 130.338839 
L 137.4925 130.338839 
L 137.860682 129.099158 
L 138.228864 129.099158 
L 138.597045 128.169397 
L 139.701591 128.169397 
L 140.069773 127.859477 
L 140.437955 127.859477 
L 140.806136 128.169397 
L 141.174318 127.859477 
L 141.5425 128.169397 
L 141.910682 128.169397 
L 142.278864 127.859477 
L 143.015227 126.619797 
L 143.383409 126.929717 
L 143.751591 126.929717 
L 144.119773 126.309876 
L 144.487955 126.929717 
L 145.960682 126.929717 
L 146.328864 126.619797 
L 146.697045 126.619797 
L 147.065227 125.690036 
L 147.433409 125.690036 
L 148.169773 125.070196 
L 148.537955 125.070196 
L 148.906136 124.760275 
L 149.274318 124.760275 
L 149.6425 124.450355 
L 150.010682 124.760275 
L 150.378864 124.760275 
L 150.747045 124.450355 
L 151.115227 125.070196 
L 151.483409 124.760275 
L 151.851591 124.760275 
L 152.219773 124.450355 
L 152.587955 123.520595 
L 152.956136 123.520595 
L 153.324318 122.900754 
L 153.6925 122.590834 
L 154.797045 122.590834 
L 156.269773 121.351153 
L 156.637955 121.661074 
L 158.110682 120.421393 
L 158.478864 120.421393 
L 158.847045 121.041233 
L 159.583409 120.421393 
L 159.951591 119.801553 
L 160.687955 119.181712 
L 161.056136 119.181712 
L 161.424318 118.871792 
L 161.7925 118.871792 
L 162.897045 117.942031 
L 163.265227 117.942031 
L 163.633409 117.322191 
L 164.001591 117.012271 
L 164.369773 116.392431 
L 164.737955 116.08251 
L 165.106136 116.392431 
L 166.210682 115.46267 
L 166.578864 114.84283 
L 166.947045 114.84283 
L 167.683409 114.222989 
L 169.156136 114.222989 
L 169.524318 113.913069 
L 170.260682 113.913069 
L 170.628864 113.293229 
L 170.997045 113.293229 
L 171.365227 112.983309 
L 172.469773 112.983309 
L 172.837955 113.293229 
L 173.206136 112.673388 
L 173.574318 112.673388 
L 173.9425 112.363468 
L 174.678864 112.363468 
L 175.047045 111.743628 
L 176.151591 111.743628 
L 176.519773 111.433708 
L 176.887955 111.433708 
L 177.256136 111.123787 
L 177.9925 111.743628 
L 178.360682 111.433708 
L 178.728864 111.433708 
L 179.097045 111.743628 
L 179.465227 111.433708 
L 180.201591 111.433708 
L 180.569773 110.813867 
L 180.937955 110.503947 
L 181.306136 110.503947 
L 181.674318 110.194027 
L 183.147045 110.194027 
L 183.515227 109.884107 
L 184.987955 109.884107 
L 185.356136 110.194027 
L 186.460682 110.194027 
L 187.197045 110.813867 
L 187.565227 110.503947 
L 190.878864 110.503947 
L 191.247045 110.194027 
L 191.615227 110.813867 
L 191.983409 110.813867 
L 192.351591 110.194027 
L 192.719773 109.884107 
L 193.087955 109.884107 
L 193.824318 108.644426 
L 194.560682 108.644426 
L 195.297045 108.024586 
L 195.665227 108.024586 
L 196.033409 107.714665 
L 196.401591 108.024586 
L 197.137955 107.404745 
L 197.506136 107.404745 
L 198.2425 106.784905 
L 198.610682 106.784905 
L 198.978864 106.474985 
L 200.083409 106.474985 
L 200.451591 106.165064 
L 200.819773 106.165064 
L 201.187955 105.855144 
L 203.028864 105.855144 
L 203.397045 105.545224 
L 203.765227 105.545224 
L 204.133409 105.855144 
L 205.606136 104.615464 
L 205.974318 104.615464 
L 206.3425 104.305543 
L 206.710682 104.305543 
L 207.078864 103.995623 
L 207.815227 103.995623 
L 208.551591 103.375783 
L 210.024318 103.375783 
L 210.3925 103.065863 
L 212.233409 103.065863 
L 212.601591 103.375783 
L 212.969773 103.065863 
L 213.337955 103.065863 
L 214.810682 101.826182 
L 215.178864 101.826182 
L 215.547045 102.136102 
L 216.651591 102.136102 
L 217.019773 101.826182 
L 219.597045 101.826182 
L 219.965227 101.516262 
L 220.333409 101.516262 
L 220.701591 101.206342 
L 221.069773 101.206342 
L 221.437955 100.896421 
L 221.806136 101.206342 
L 222.174318 101.206342 
L 222.5425 100.896421 
L 222.910682 101.206342 
L 223.647045 101.206342 
L 224.015227 100.896421 
L 225.119773 100.896421 
L 225.487955 100.586501 
L 226.224318 100.586501 
L 226.960682 99.966661 
L 227.328864 99.966661 
L 228.065227 100.586501 
L 228.433409 100.276581 
L 229.169773 100.276581 
L 229.537955 99.966661 
L 230.274318 99.966661 
L 230.6425 99.656741 
L 231.378864 99.656741 
L 231.747045 99.34682 
L 233.956136 99.34682 
L 234.324318 99.0369 
L 234.6925 99.0369 
L 235.060682 98.72698 
L 235.428864 98.72698 
L 235.797045 99.0369 
L 236.901591 99.0369 
L 237.269773 98.72698 
L 239.110682 98.72698 
L 239.847045 98.10714 
L 241.319773 98.10714 
L 242.056136 97.487299 
L 242.7925 97.487299 
L 243.528864 96.867459 
L 244.265227 96.867459 
L 244.633409 96.557539 
L 247.947045 96.557539 
L 248.315227 96.247619 
L 251.628864 96.247619 
L 251.997045 95.937698 
L 253.101591 95.937698 
L 253.469773 95.627778 
L 254.574318 95.627778 
L 255.310682 95.007938 
L 256.783409 95.007938 
L 257.151591 94.698018 
L 258.256136 94.698018 
L 258.624318 95.007938 
L 259.728864 95.007938 
L 260.097045 95.317858 
L 260.833409 95.317858 
L 261.201591 95.007938 
L 262.674318 95.007938 
L 263.0425 94.698018 
L 263.778864 93.458337 
L 264.883409 93.458337 
L 265.251591 93.768257 
L 265.987955 93.768257 
L 266.356136 94.078177 
L 268.565227 94.078177 
L 269.301591 94.698018 
L 271.878864 94.698018 
L 272.247045 94.388098 
L 273.719773 94.388098 
L 274.087955 93.768257 
L 274.824318 93.768257 
L 275.1925 93.458337 
L 276.297045 93.458337 
L 277.033409 92.838497 
L 280.715227 92.838497 
L 281.083409 93.148417 
L 281.819773 93.148417 
L 282.187955 92.838497 
L 282.924318 92.838497 
L 283.2925 92.528576 
L 285.869773 92.528576 
L 286.237955 91.908736 
L 287.3425 91.908736 
L 287.710682 92.218656 
L 288.447045 92.218656 
L 288.815227 92.528576 
L 291.024318 92.528576 
L 291.3925 92.218656 
L 293.601591 92.218656 
L 293.969773 91.908736 
L 294.337955 91.908736 
L 294.706136 91.598816 
L 296.178864 91.598816 
L 296.547045 91.288896 
L 296.915227 91.288896 
L 297.283409 90.978976 
L 300.228864 90.978976 
L 300.597045 90.669055 
L 300.965227 90.669055 
L 301.333409 90.359135 
L 301.701591 89.739295 
L 302.069773 90.049215 
L 302.437955 90.049215 
L 302.806136 90.359135 
L 303.5425 90.359135 
L 303.910682 89.739295 
L 304.278864 90.049215 
L 306.856136 90.049215 
L 307.224318 89.739295 
L 308.697045 89.739295 
L 309.065227 89.429375 
L 309.801591 90.049215 
L 310.169773 89.739295 
L 310.537955 89.739295 
L 310.906136 89.429375 
L 318.637955 89.429375 
L 319.006136 89.119454 
L 320.110682 89.119454 
L 320.478864 88.499614 
L 322.319773 88.499614 
L 322.687955 88.189694 
L 323.056136 88.189694 
L 323.424318 88.499614 
L 325.633409 88.499614 
L 326.001591 88.189694 
L 326.369773 88.499614 
L 329.683409 88.499614 
L 330.051591 88.809534 
L 332.628864 88.809534 
L 332.997045 88.189694 
L 335.206136 88.189694 
L 335.574318 88.499614 
L 337.047045 88.499614 
L 337.415227 88.189694 
L 338.519773 88.189694 
L 338.887955 87.879774 
L 339.256136 87.879774 
L 339.624318 87.569854 
L 343.306136 87.569854 
L 343.674318 87.259933 
L 344.0425 87.259933 
L 344.410682 86.950013 
L 345.515227 86.950013 
L 346.251591 86.330173 
L 346.619773 86.640093 
L 348.828864 86.640093 
L 349.197045 86.950013 
L 349.933409 86.950013 
L 350.301591 86.640093 
L 352.1425 86.640093 
L 352.510682 86.330173 
L 355.824318 86.330173 
L 356.1925 86.640093 
L 356.928864 86.640093 
L 357.297045 86.330173 
L 359.506136 86.330173 
L 360.2425 85.710332 
L 363.187955 85.710332 
L 363.556136 86.020253 
L 364.2925 86.020253 
L 364.660682 85.710332 
L 366.869773 85.710332 
L 367.237955 85.400412 
L 367.974318 85.400412 
L 368.3425 85.090492 
L 375.706136 85.090492 
L 376.074318 84.780572 
L 379.019773 84.780572 
L 379.387955 84.470652 
L 380.124318 84.470652 
L 380.4925 84.780572 
L 385.278864 84.780572 
L 385.647045 84.470652 
L 390.065227 84.470652 
L 390.433409 84.160732 
L 391.537955 84.160732 
L 391.906136 83.850811 
L 393.010682 83.850811 
L 393.378864 83.540891 
L 403.319773 83.540891 
L 403.687955 82.921051 
L 409.947045 82.921051 
L 410.315227 82.611131 
L 412.524318 82.611131 
L 412.8925 81.99129 
L 418.415227 81.99129 
L 418.415227 81.99129 
" style="fill:none;stroke:#000080;stroke-linecap:square;stroke-width:2;"/>
   </g>
   <g id="patch_3">
    <path d="M 109.1425 289.637812 
L 109.1425 17.837813 
" style="fill:none;stroke:#000000;stroke-linecap:square;stroke-linejoin:miter;"/>
   </g>
   <g id="patch_4">
    <path d="M 109.1425 289.637812 
L 433.1425 289.637812 
" style="fill:none;stroke:#000000;stroke-linecap:square;stroke-linejoin:miter;"/>
   </g>
  </g>
  <g id="axes_2">
   <g id="patch_5">
    <path d="M 449.3425 289.637812 
L 773.3425 289.637812 
L 773.3425 17.837813 
L 449.3425 17.837813 
z
" style="fill:none;"/>
   </g>
   <g id="matplotlib.axis_3">
    <g id="xtick_6">
     <g id="line2d_13">
      <g>
       <use style="stroke:#000000;stroke-width:0.8;" x="464.069773" xlink:href="#meb3cfed13c" y="289.637812"/>
      </g>
     </g>
     <g id="text_13">
      <!-- 1 -->
      <g transform="translate(455.162273 319.413437)scale(0.28 -0.28)">
       <use xlink:href="#DejaVuSans-49"/>
      </g>
     </g>
    </g>
    <g id="xtick_7">
     <g id="line2d_14">
      <g>
       <use style="stroke:#000000;stroke-width:0.8;" x="537.706136" xlink:href="#meb3cfed13c" y="289.637812"/>
      </g>
     </g>
     <g id="text_14">
      <!-- 2 -->
      <g transform="translate(528.798636 319.413437)scale(0.28 -0.28)">
       <use xlink:href="#DejaVuSans-50"/>
      </g>
     </g>
    </g>
    <g id="xtick_8">
     <g id="line2d_15">
      <g>
       <use style="stroke:#000000;stroke-width:0.8;" x="611.3425" xlink:href="#meb3cfed13c" y="289.637812"/>
      </g>
     </g>
     <g id="text_15">
      <!-- 3 -->
      <g transform="translate(602.435 319.413437)scale(0.28 -0.28)">
       <use xlink:href="#DejaVuSans-51"/>
      </g>
     </g>
    </g>
    <g id="xtick_9">
     <g id="line2d_16">
      <g>
       <use style="stroke:#000000;stroke-width:0.8;" x="684.978864" xlink:href="#meb3cfed13c" y="289.637812"/>
      </g>
     </g>
     <g id="text_16">
      <!-- 4 -->
      <g transform="translate(676.071364 319.413437)scale(0.28 -0.28)">
       <use xlink:href="#DejaVuSans-52"/>
      </g>
     </g>
    </g>
    <g id="xtick_10">
     <g id="line2d_17">
      <g>
       <use style="stroke:#000000;stroke-width:0.8;" x="758.615227" xlink:href="#meb3cfed13c" y="289.637812"/>
      </g>
     </g>
     <g id="text_17">
      <!-- 5 -->
      <g transform="translate(749.707727 319.413437)scale(0.28 -0.28)">
       <use xlink:href="#DejaVuSans-53"/>
      </g>
     </g>
    </g>
    <g id="text_18">
     <!-- -log10 p-value -->
     <g transform="translate(510.5075 350.512187)scale(0.28 -0.28)">
      <use xlink:href="#DejaVuSans-45"/>
      <use x="36.083984" xlink:href="#DejaVuSans-108"/>
      <use x="63.867188" xlink:href="#DejaVuSans-111"/>
      <use x="125.048828" xlink:href="#DejaVuSans-103"/>
      <use x="188.525391" xlink:href="#DejaVuSans-49"/>
      <use x="252.148438" xlink:href="#DejaVuSans-48"/>
      <use x="315.771484" xlink:href="#DejaVuSans-32"/>
      <use x="347.558594" xlink:href="#DejaVuSans-112"/>
      <use x="411.035156" xlink:href="#DejaVuSans-45"/>
      <use x="447.087891" xlink:href="#DejaVuSans-118"/>
      <use x="506.267578" xlink:href="#DejaVuSans-97"/>
      <use x="567.546875" xlink:href="#DejaVuSans-108"/>
      <use x="595.330078" xlink:href="#DejaVuSans-117"/>
      <use x="658.708984" xlink:href="#DejaVuSans-101"/>
     </g>
    </g>
   </g>
   <g id="matplotlib.axis_4">
    <g id="ytick_6"/>
    <g id="ytick_7"/>
    <g id="ytick_8"/>
    <g id="ytick_9"/>
    <g id="ytick_10"/>
   </g>
   <g id="line2d_18">
    <path clip-path="url(#p28996de0d1)" d="M 464.069773 121.431526 
L 465.174318 121.431526 
L 465.5425 121.965514 
L 466.647045 121.965514 
L 467.015227 121.431526 
L 467.383409 121.431526 
L 467.751591 121.965514 
L 469.224318 121.965514 
L 469.5925 121.431526 
L 469.960682 121.431526 
L 470.328864 121.965514 
L 471.433409 121.965514 
L 472.169773 120.897537 
L 472.537955 120.897537 
L 472.906136 121.431526 
L 473.6425 121.431526 
L 474.747045 119.829561 
L 475.483409 119.829561 
L 475.851591 120.363549 
L 478.797045 120.363549 
L 479.901591 118.761585 
L 480.269773 118.761585 
L 481.006136 117.693608 
L 481.374318 117.693608 
L 481.7425 117.15962 
L 482.478864 117.15962 
L 482.847045 116.091644 
L 483.583409 116.091644 
L 483.951591 116.625632 
L 484.319773 116.625632 
L 485.056136 117.693608 
L 485.424318 117.693608 
L 485.7925 118.227596 
L 486.160682 118.227596 
L 486.528864 118.761585 
L 487.265227 118.761585 
L 487.633409 119.295573 
L 489.8425 119.295573 
L 490.210682 120.363549 
L 491.683409 120.363549 
L 492.051591 119.829561 
L 492.419773 119.829561 
L 492.787955 120.363549 
L 493.156136 120.363549 
L 493.524318 119.295573 
L 494.997045 119.295573 
L 495.365227 119.829561 
L 500.519773 119.829561 
L 500.887955 119.295573 
L 501.256136 119.295573 
L 501.624318 119.829561 
L 501.9925 119.295573 
L 503.833409 119.295573 
L 504.201591 118.761585 
L 504.569773 118.761585 
L 504.937955 119.295573 
L 505.306136 119.295573 
L 505.674318 119.829561 
L 506.778864 119.829561 
L 507.147045 120.363549 
L 508.619773 120.363549 
L 508.987955 120.897537 
L 510.0925 120.897537 
L 510.460682 121.431526 
L 512.669773 121.431526 
L 513.037955 121.965514 
L 514.878864 121.965514 
L 515.247045 121.431526 
L 522.2425 121.431526 
L 522.610682 121.965514 
L 524.451591 121.965514 
L 524.819773 122.499502 
L 525.556136 122.499502 
L 525.924318 121.965514 
L 526.2925 121.965514 
L 526.660682 122.499502 
L 527.397045 122.499502 
L 527.765227 121.965514 
L 529.237955 121.965514 
L 529.606136 121.431526 
L 531.815227 121.431526 
L 532.183409 120.897537 
L 532.551591 120.897537 
L 532.919773 121.431526 
L 534.024318 121.431526 
L 534.3925 120.897537 
L 534.760682 120.897537 
L 535.128864 121.431526 
L 535.497045 121.431526 
L 535.865227 121.965514 
L 540.651591 121.965514 
L 541.387955 123.03349 
L 542.4925 123.03349 
L 542.860682 123.567479 
L 550.5925 123.567479 
L 550.960682 124.101467 
L 557.587955 124.101467 
L 557.956136 124.635455 
L 570.474318 124.635455 
L 570.8425 125.169443 
L 585.937955 125.169443 
L 586.306136 124.635455 
L 607.2925 124.635455 
L 607.660682 124.101467 
L 614.287955 124.101467 
L 614.656136 124.635455 
L 637.851591 124.635455 
L 638.219773 124.101467 
L 645.951591 124.101467 
L 646.319773 123.567479 
L 650.369773 123.567479 
L 651.106136 124.635455 
L 662.151591 124.635455 
L 662.519773 125.169443 
L 669.883409 125.169443 
L 670.251591 124.635455 
L 670.987955 124.635455 
L 671.356136 125.169443 
L 689.397045 125.169443 
L 689.765227 124.635455 
L 690.133409 125.169443 
L 706.333409 125.169443 
L 706.701591 124.635455 
L 708.174318 124.635455 
L 708.5425 125.169443 
L 720.324318 125.169443 
L 720.6925 124.635455 
L 723.269773 124.635455 
L 723.637955 125.169443 
L 724.374318 125.169443 
L 724.7425 124.635455 
L 733.210682 124.635455 
L 733.578864 124.101467 
L 745.360682 124.101467 
L 745.728864 125.169443 
L 758.615227 125.169443 
L 758.615227 125.169443 
" style="fill:none;stroke:#8b0000;stroke-linecap:square;stroke-width:2;"/>
   </g>
   <g id="line2d_19">
    <path clip-path="url(#p28996de0d1)" d="M 464.069773 85.654315 
L 465.174318 85.654315 
L 465.5425 86.188304 
L 466.647045 86.188304 
L 467.015227 85.654315 
L 467.383409 85.654315 
L 467.751591 85.120327 
L 468.119773 85.120327 
L 468.487955 84.052351 
L 469.224318 84.052351 
L 469.5925 83.518363 
L 469.960682 83.518363 
L 470.328864 82.984374 
L 471.433409 82.984374 
L 472.169773 81.916398 
L 472.537955 81.916398 
L 472.906136 81.38241 
L 473.6425 81.38241 
L 474.747045 79.780445 
L 475.483409 79.780445 
L 475.851591 80.314433 
L 478.797045 80.314433 
L 479.901591 78.712469 
L 480.269773 78.712469 
L 481.006136 77.644492 
L 481.374318 77.644492 
L 481.7425 77.110504 
L 482.478864 77.110504 
L 482.847045 76.042528 
L 483.583409 76.042528 
L 483.951591 75.508539 
L 484.319773 75.508539 
L 485.056136 74.440563 
L 485.424318 74.440563 
L 485.7925 74.974551 
L 486.160682 74.974551 
L 486.528864 74.440563 
L 487.265227 74.440563 
L 487.633409 73.906575 
L 489.8425 73.906575 
L 490.210682 72.838598 
L 491.683409 72.838598 
L 492.051591 72.30461 
L 492.419773 72.30461 
L 492.787955 71.770622 
L 493.156136 71.770622 
L 493.524318 70.702646 
L 494.997045 70.702646 
L 495.365227 70.168657 
L 500.519773 70.168657 
L 500.887955 69.634669 
L 501.256136 69.634669 
L 501.9925 68.566693 
L 503.833409 68.566693 
L 504.201591 68.032704 
L 504.569773 68.032704 
L 504.937955 67.498716 
L 505.306136 67.498716 
L 505.674318 66.964728 
L 506.778864 66.964728 
L 507.147045 66.43074 
L 508.619773 66.43074 
L 508.987955 65.896752 
L 510.0925 65.896752 
L 510.460682 66.43074 
L 512.301591 66.43074 
L 512.669773 65.362763 
L 513.037955 64.828775 
L 514.878864 64.828775 
L 515.247045 64.294787 
L 522.2425 64.294787 
L 522.610682 63.760799 
L 522.978864 63.760799 
L 523.347045 62.692822 
L 524.451591 62.692822 
L 524.819773 62.158834 
L 525.556136 62.158834 
L 525.924318 61.624846 
L 526.2925 61.624846 
L 526.660682 62.158834 
L 527.397045 62.158834 
L 527.765227 61.624846 
L 529.237955 61.624846 
L 529.606136 61.090858 
L 531.815227 61.090858 
L 532.183409 60.556869 
L 532.551591 60.556869 
L 532.919773 61.090858 
L 534.024318 61.090858 
L 534.3925 59.488893 
L 534.760682 59.488893 
L 535.128864 58.954905 
L 535.497045 58.954905 
L 535.865227 58.420917 
L 540.651591 58.420917 
L 541.387955 57.35294 
L 542.4925 57.35294 
L 542.860682 56.818952 
L 550.5925 56.818952 
L 550.960682 57.35294 
L 557.587955 57.35294 
L 557.956136 57.886928 
L 570.474318 57.886928 
L 570.8425 57.35294 
L 585.937955 57.35294 
L 586.306136 56.818952 
L 607.2925 56.818952 
L 607.660682 56.284964 
L 614.287955 56.284964 
L 614.656136 56.818952 
L 637.851591 56.818952 
L 638.219773 56.284964 
L 645.951591 56.284964 
L 646.319773 55.750976 
L 650.369773 55.750976 
L 650.737955 56.284964 
L 651.106136 55.750976 
L 662.151591 55.750976 
L 662.519773 56.284964 
L 669.883409 56.284964 
L 670.251591 55.750976 
L 670.987955 55.750976 
L 671.356136 56.284964 
L 689.397045 56.284964 
L 689.765227 55.750976 
L 690.133409 56.284964 
L 706.333409 56.284964 
L 706.701591 55.750976 
L 708.174318 55.750976 
L 708.5425 56.284964 
L 720.324318 56.284964 
L 720.6925 55.750976 
L 723.269773 55.750976 
L 723.637955 55.216987 
L 724.374318 55.216987 
L 724.7425 54.682999 
L 733.210682 54.682999 
L 733.578864 54.149011 
L 758.615227 54.149011 
L 758.615227 54.149011 
" style="fill:none;stroke:#000080;stroke-linecap:square;stroke-width:2;"/>
   </g>
   <g id="patch_6">
    <path d="M 449.3425 289.637812 
L 449.3425 17.837813 
" style="fill:none;stroke:#000000;stroke-linecap:square;stroke-linejoin:miter;"/>
   </g>
   <g id="patch_7">
    <path d="M 449.3425 289.637812 
L 773.3425 289.637812 
" style="fill:none;stroke:#000000;stroke-linecap:square;stroke-linejoin:miter;"/>
   </g>
  </g>
  <g id="axes_3">
   <g id="patch_8">
    <path d="M 789.5425 289.637812 
L 1113.5425 289.637812 
L 1113.5425 17.837813 
L 789.5425 17.837813 
z
" style="fill:none;"/>
   </g>
   <g id="matplotlib.axis_5">
    <g id="xtick_11">
     <g id="line2d_20">
      <g>
       <use style="stroke:#000000;stroke-width:0.8;" x="804.269773" xlink:href="#meb3cfed13c" y="289.637812"/>
      </g>
     </g>
     <g id="text_19">
      <!-- 1 -->
      <g transform="translate(795.362273 319.413437)scale(0.28 -0.28)">
       <use xlink:href="#DejaVuSans-49"/>
      </g>
     </g>
    </g>
    <g id="xtick_12">
     <g id="line2d_21">
      <g>
       <use style="stroke:#000000;stroke-width:0.8;" x="877.906136" xlink:href="#meb3cfed13c" y="289.637812"/>
      </g>
     </g>
     <g id="text_20">
      <!-- 2 -->
      <g transform="translate(868.998636 319.413437)scale(0.28 -0.28)">
       <use xlink:href="#DejaVuSans-50"/>
      </g>
     </g>
    </g>
    <g id="xtick_13">
     <g id="line2d_22">
      <g>
       <use style="stroke:#000000;stroke-width:0.8;" x="951.5425" xlink:href="#meb3cfed13c" y="289.637812"/>
      </g>
     </g>
     <g id="text_21">
      <!-- 3 -->
      <g transform="translate(942.635 319.413437)scale(0.28 -0.28)">
       <use xlink:href="#DejaVuSans-51"/>
      </g>
     </g>
    </g>
    <g id="xtick_14">
     <g id="line2d_23">
      <g>
       <use style="stroke:#000000;stroke-width:0.8;" x="1025.178864" xlink:href="#meb3cfed13c" y="289.637812"/>
      </g>
     </g>
     <g id="text_22">
      <!-- 4 -->
      <g transform="translate(1016.271364 319.413437)scale(0.28 -0.28)">
       <use xlink:href="#DejaVuSans-52"/>
      </g>
     </g>
    </g>
    <g id="xtick_15">
     <g id="line2d_24">
      <g>
       <use style="stroke:#000000;stroke-width:0.8;" x="1098.815227" xlink:href="#meb3cfed13c" y="289.637812"/>
      </g>
     </g>
     <g id="text_23">
      <!-- 5 -->
      <g transform="translate(1089.907727 319.413437)scale(0.28 -0.28)">
       <use xlink:href="#DejaVuSans-53"/>
      </g>
     </g>
    </g>
    <g id="text_24">
     <!-- -log10 p-value -->
     <g transform="translate(850.7075 350.512187)scale(0.28 -0.28)">
      <use xlink:href="#DejaVuSans-45"/>
      <use x="36.083984" xlink:href="#DejaVuSans-108"/>
      <use x="63.867188" xlink:href="#DejaVuSans-111"/>
      <use x="125.048828" xlink:href="#DejaVuSans-103"/>
      <use x="188.525391" xlink:href="#DejaVuSans-49"/>
      <use x="252.148438" xlink:href="#DejaVuSans-48"/>
      <use x="315.771484" xlink:href="#DejaVuSans-32"/>
      <use x="347.558594" xlink:href="#DejaVuSans-112"/>
      <use x="411.035156" xlink:href="#DejaVuSans-45"/>
      <use x="447.087891" xlink:href="#DejaVuSans-118"/>
      <use x="506.267578" xlink:href="#DejaVuSans-97"/>
      <use x="567.546875" xlink:href="#DejaVuSans-108"/>
      <use x="595.330078" xlink:href="#DejaVuSans-117"/>
      <use x="658.708984" xlink:href="#DejaVuSans-101"/>
     </g>
    </g>
   </g>
   <g id="matplotlib.axis_6">
    <g id="ytick_11"/>
    <g id="ytick_12"/>
    <g id="ytick_13"/>
    <g id="ytick_14"/>
    <g id="ytick_15"/>
   </g>
   <g id="line2d_25">
    <path clip-path="url(#pe064a66753)" d="M 804.269773 143.1537 
L 804.637955 144.847158 
L 805.006136 145.693887 
L 806.110682 145.693887 
L 806.478864 147.387345 
L 806.847045 147.387345 
L 807.215227 148.234074 
L 809.424318 148.234074 
L 809.7925 149.080803 
L 810.160682 149.080803 
L 810.528864 149.927532 
L 812.737955 149.927532 
L 813.106136 150.774261 
L 813.474318 150.774261 
L 814.210682 152.467719 
L 814.578864 152.467719 
L 814.947045 153.314448 
L 815.315227 153.314448 
L 815.683409 154.161177 
L 817.156136 154.161177 
L 817.524318 155.007906 
L 819.365227 155.007906 
L 819.733409 155.854635 
L 820.469773 155.854635 
L 821.206136 157.548093 
L 821.574318 157.548093 
L 821.9425 159.241551 
L 824.887955 159.241551 
L 825.256136 160.08828 
L 825.9925 160.08828 
L 826.360682 161.781738 
L 826.728864 160.935009 
L 827.465227 160.935009 
L 827.833409 162.628467 
L 828.569773 162.628467 
L 828.937955 163.475196 
L 829.674318 163.475196 
L 830.0425 164.321925 
L 830.410682 164.321925 
L 831.147045 166.015383 
L 832.987955 166.015383 
L 833.724318 167.708841 
L 837.406136 167.708841 
L 837.774318 166.862112 
L 838.1425 167.708841 
L 842.560682 167.708841 
L 842.928864 168.55557 
L 843.665227 168.55557 
L 844.033409 169.402298 
L 845.506136 169.402298 
L 845.874318 171.095756 
L 846.610682 172.789214 
L 846.978864 172.789214 
L 847.715227 174.482672 
L 848.451591 174.482672 
L 848.819773 175.329401 
L 849.187955 175.329401 
L 849.556136 176.17613 
L 849.924318 176.17613 
L 850.2925 175.329401 
L 851.028864 175.329401 
L 851.397045 176.17613 
L 852.501591 176.17613 
L 852.869773 177.022859 
L 854.3425 177.022859 
L 854.710682 177.869588 
L 855.078864 177.869588 
L 855.815227 179.563046 
L 856.183409 179.563046 
L 856.551591 180.409775 
L 860.601591 180.409775 
L 860.969773 182.103233 
L 868.333409 182.103233 
L 868.701591 182.949962 
L 869.437955 182.949962 
L 869.806136 183.796691 
L 870.174318 182.949962 
L 871.278864 182.949962 
L 871.647045 183.796691 
L 872.383409 183.796691 
L 872.751591 185.490149 
L 873.487955 185.490149 
L 874.5925 188.030336 
L 876.433409 188.030336 
L 876.801591 188.877065 
L 878.6425 188.877065 
L 879.378864 190.570523 
L 880.851591 190.570523 
L 881.219773 191.417252 
L 881.587955 191.417252 
L 882.324318 193.11071 
L 882.6925 193.11071 
L 883.060682 193.957439 
L 885.269773 193.957439 
L 886.374318 196.497626 
L 887.478864 196.497626 
L 887.847045 197.344355 
L 889.319773 197.344355 
L 889.687955 198.191084 
L 891.160682 198.191084 
L 891.528864 199.037813 
L 896.315227 199.037813 
L 896.683409 199.884541 
L 900.365227 199.884541 
L 900.733409 200.73127 
L 903.310682 200.73127 
L 903.678864 201.577999 
L 904.047045 201.577999 
L 904.415227 202.424728 
L 905.887955 202.424728 
L 906.256136 203.271457 
L 907.728864 203.271457 
L 908.097045 204.118186 
L 909.937955 204.118186 
L 910.306136 204.964915 
L 913.987955 204.964915 
L 914.356136 206.658373 
L 915.828864 206.658373 
L 916.197045 207.505102 
L 922.456136 207.505102 
L 922.824318 208.351831 
L 923.1925 208.351831 
L 923.928864 210.045289 
L 924.297045 210.045289 
L 924.665227 210.892018 
L 925.033409 210.892018 
L 925.401591 211.738747 
L 930.924318 211.738747 
L 931.2925 212.585476 
L 932.028864 212.585476 
L 932.397045 213.432205 
L 933.133409 213.432205 
L 933.501591 214.278934 
L 939.024318 214.278934 
L 939.3925 215.125663 
L 942.706136 215.125663 
L 943.074318 215.972392 
L 955.960682 215.972392 
L 956.328864 216.819121 
L 957.065227 216.819121 
L 957.433409 217.66585 
L 962.219773 217.66585 
L 962.587955 218.512579 
L 967.7425 218.512579 
L 968.110682 219.359308 
L 970.319773 219.359308 
L 970.687955 220.206037 
L 973.633409 220.206037 
L 974.001591 221.052766 
L 974.737955 221.052766 
L 975.106136 221.899495 
L 976.578864 221.899495 
L 976.947045 222.746224 
L 978.419773 222.746224 
L 978.787955 223.592953 
L 985.415227 223.592953 
L 985.783409 224.439682 
L 986.887955 224.439682 
L 987.256136 225.286411 
L 996.460682 225.286411 
L 996.828864 226.13314 
L 998.301591 226.13314 
L 998.669773 226.979869 
L 1010.451591 226.979869 
L 1010.819773 227.826598 
L 1014.869773 227.826598 
L 1015.237955 228.673327 
L 1017.078864 228.673327 
L 1017.447045 229.520055 
L 1020.760682 229.520055 
L 1021.128864 230.366784 
L 1027.387955 230.366784 
L 1027.756136 231.213513 
L 1028.124318 231.213513 
L 1028.4925 232.060242 
L 1037.697045 232.060242 
L 1038.065227 232.906971 
L 1038.433409 232.906971 
L 1038.801591 233.7537 
L 1045.797045 233.7537 
L 1046.165227 234.600429 
L 1052.056136 234.600429 
L 1052.424318 235.447158 
L 1058.683409 235.447158 
L 1059.051591 236.293887 
L 1066.783409 236.293887 
L 1067.151591 237.140616 
L 1081.510682 237.140616 
L 1081.878864 237.987345 
L 1092.924318 237.987345 
L 1093.2925 238.834074 
L 1095.501591 238.834074 
L 1095.869773 239.680803 
L 1098.815227 239.680803 
L 1098.815227 239.680803 
" style="fill:none;stroke:#8b0000;stroke-linecap:square;stroke-width:2;"/>
   </g>
   <g id="line2d_26">
    <path clip-path="url(#pe064a66753)" d="M 804.269773 135.53314 
L 804.637955 133.839682 
L 805.006136 132.992953 
L 806.110682 132.992953 
L 806.478864 131.299495 
L 806.847045 131.299495 
L 807.215227 130.452766 
L 809.424318 130.452766 
L 809.7925 129.606037 
L 810.160682 129.606037 
L 810.528864 130.452766 
L 812.737955 130.452766 
L 813.106136 129.606037 
L 813.474318 129.606037 
L 814.210682 127.912579 
L 814.578864 127.912579 
L 814.947045 127.06585 
L 815.315227 127.06585 
L 815.683409 127.912579 
L 817.156136 127.912579 
L 817.524318 127.06585 
L 819.365227 127.06585 
L 819.733409 126.219121 
L 820.469773 126.219121 
L 820.837955 127.06585 
L 821.206136 126.219121 
L 824.887955 126.219121 
L 825.256136 127.06585 
L 825.9925 127.06585 
L 826.360682 125.372392 
L 826.728864 124.525663 
L 828.569773 124.525663 
L 828.937955 125.372392 
L 829.674318 125.372392 
L 830.0425 124.525663 
L 830.410682 124.525663 
L 830.778864 125.372392 
L 831.147045 124.525663 
L 832.987955 124.525663 
L 833.724318 122.832205 
L 837.406136 122.832205 
L 837.774318 121.985476 
L 838.1425 122.832205 
L 842.560682 122.832205 
L 842.928864 121.985476 
L 843.665227 121.985476 
L 844.033409 122.832205 
L 845.506136 122.832205 
L 845.874318 121.138747 
L 846.610682 119.445289 
L 846.978864 119.445289 
L 847.347045 118.59856 
L 847.715227 119.445289 
L 848.451591 119.445289 
L 848.819773 118.59856 
L 849.187955 118.59856 
L 849.556136 117.751831 
L 849.924318 117.751831 
L 850.2925 116.905102 
L 851.028864 116.905102 
L 851.397045 116.058373 
L 852.501591 116.058373 
L 852.869773 115.211644 
L 854.3425 115.211644 
L 854.710682 114.364915 
L 855.078864 114.364915 
L 855.447045 115.211644 
L 855.815227 114.364915 
L 856.183409 114.364915 
L 856.551591 113.518186 
L 860.601591 113.518186 
L 860.969773 111.824728 
L 868.333409 111.824728 
L 868.701591 112.671457 
L 869.437955 112.671457 
L 869.806136 113.518186 
L 870.174318 112.671457 
L 871.278864 112.671457 
L 871.647045 111.824728 
L 872.383409 111.824728 
L 872.751591 110.13127 
L 873.487955 110.13127 
L 873.856136 110.977999 
L 874.224318 110.13127 
L 874.5925 110.977999 
L 876.433409 110.977999 
L 876.801591 110.13127 
L 878.6425 110.13127 
L 879.378864 108.437813 
L 880.851591 108.437813 
L 881.219773 109.284541 
L 881.587955 109.284541 
L 881.956136 110.13127 
L 882.324318 109.284541 
L 882.6925 109.284541 
L 883.060682 108.437813 
L 885.269773 108.437813 
L 886.006136 106.744355 
L 886.374318 107.591084 
L 887.478864 107.591084 
L 887.847045 106.744355 
L 889.319773 106.744355 
L 889.687955 105.897626 
L 891.160682 105.897626 
L 891.528864 106.744355 
L 896.315227 106.744355 
L 896.683409 105.897626 
L 900.365227 105.897626 
L 900.733409 105.050897 
L 903.310682 105.050897 
L 903.678864 105.897626 
L 904.047045 105.897626 
L 904.415227 105.050897 
L 905.887955 105.050897 
L 906.256136 104.204168 
L 907.728864 104.204168 
L 908.097045 105.050897 
L 909.937955 105.050897 
L 910.306136 104.204168 
L 915.828864 104.204168 
L 916.197045 103.357439 
L 922.456136 103.357439 
L 922.824318 104.204168 
L 923.1925 104.204168 
L 923.560682 103.357439 
L 923.928864 104.204168 
L 924.297045 104.204168 
L 924.665227 103.357439 
L 925.033409 103.357439 
L 925.401591 102.51071 
L 930.924318 102.51071 
L 931.2925 103.357439 
L 932.028864 103.357439 
L 932.397045 104.204168 
L 933.133409 104.204168 
L 933.501591 103.357439 
L 939.024318 103.357439 
L 939.3925 104.204168 
L 942.706136 104.204168 
L 943.074318 103.357439 
L 955.960682 103.357439 
L 956.328864 104.204168 
L 957.065227 104.204168 
L 957.433409 105.050897 
L 962.219773 105.050897 
L 962.587955 105.897626 
L 967.7425 105.897626 
L 968.110682 105.050897 
L 970.319773 105.050897 
L 970.687955 104.204168 
L 973.633409 104.204168 
L 974.001591 103.357439 
L 974.737955 103.357439 
L 975.106136 102.51071 
L 976.578864 102.51071 
L 976.947045 101.663981 
L 978.419773 101.663981 
L 978.787955 100.817252 
L 985.415227 100.817252 
L 985.783409 101.663981 
L 986.887955 101.663981 
L 987.256136 100.817252 
L 996.460682 100.817252 
L 996.828864 101.663981 
L 998.301591 101.663981 
L 998.669773 102.51071 
L 1010.451591 102.51071 
L 1010.819773 101.663981 
L 1014.869773 101.663981 
L 1015.237955 102.51071 
L 1017.078864 102.51071 
L 1017.447045 101.663981 
L 1020.760682 101.663981 
L 1021.128864 102.51071 
L 1027.387955 102.51071 
L 1027.756136 101.663981 
L 1028.124318 101.663981 
L 1028.4925 100.817252 
L 1037.697045 100.817252 
L 1038.065227 101.663981 
L 1038.433409 101.663981 
L 1038.801591 100.817252 
L 1045.797045 100.817252 
L 1046.165227 99.970523 
L 1052.056136 99.970523 
L 1052.424318 99.123794 
L 1058.683409 99.123794 
L 1059.051591 98.277065 
L 1066.783409 98.277065 
L 1067.151591 97.430336 
L 1081.510682 97.430336 
L 1081.878864 98.277065 
L 1092.924318 98.277065 
L 1093.2925 97.430336 
L 1095.501591 97.430336 
L 1095.869773 96.583607 
L 1098.815227 96.583607 
L 1098.815227 96.583607 
" style="fill:none;stroke:#000080;stroke-linecap:square;stroke-width:2;"/>
   </g>
   <g id="patch_9">
    <path d="M 789.5425 289.637812 
L 789.5425 17.837813 
" style="fill:none;stroke:#000000;stroke-linecap:square;stroke-linejoin:miter;"/>
   </g>
   <g id="patch_10">
    <path d="M 789.5425 289.637812 
L 1113.5425 289.637812 
" style="fill:none;stroke:#000000;stroke-linecap:square;stroke-linejoin:miter;"/>
   </g>
  </g>
 </g>
 <defs>
  <clipPath id="p948a74e14c">
   <rect height="271.8" width="324" x="109.1425" y="17.837812"/>
  </clipPath>
  <clipPath id="p28996de0d1">
   <rect height="271.8" width="324" x="449.3425" y="17.837812"/>
  </clipPath>
  <clipPath id="pe064a66753">
   <rect height="271.8" width="324" x="789.5425" y="17.837812"/>
  </clipPath>
 </defs>
</svg>
