<?xml version="1.0" encoding="utf-8" standalone="no"?>
<!DOCTYPE svg PUBLIC "-//W3C//DTD SVG 1.1//EN"
  "http://www.w3.org/Graphics/SVG/1.1/DTD/svg11.dtd">
<!-- Created with matplotlib (https://matplotlib.org/) -->
<svg height="309.175313pt" version="1.1" viewBox="0 0 1102.9275 309.175313" width="1102.9275pt" xmlns="http://www.w3.org/2000/svg" xmlns:xlink="http://www.w3.org/1999/xlink">
 <defs>
  <style type="text/css">
*{stroke-linecap:butt;stroke-linejoin:round;}
  </style>
 </defs>
 <g id="figure_1">
  <g id="patch_1">
   <path d="M 0 309.175313 
L 1102.9275 309.175313 
L 1102.9275 0 
L 0 0 
z
" style="fill:none;"/>
  </g>
  <g id="axes_1">
   <g id="patch_2">
    <path d="M 91.3275 235.277813 
L 415.3275 235.277813 
L 415.3275 17.837813 
L 91.3275 17.837813 
z
" style="fill:none;"/>
   </g>
   <g id="matplotlib.axis_1">
    <g id="xtick_1">
     <g id="line2d_1">
      <defs>
       <path d="M 0 0 
L 0 5 
" id="m1968844279" style="stroke:#000000;stroke-width:0.8;"/>
      </defs>
      <g>
       <use style="stroke:#000000;stroke-width:0.8;" x="106.054773" xlink:href="#m1968844279" y="235.277813"/>
      </g>
     </g>
     <g id="text_1">
      <!-- 1 -->
      <defs>
       <path d="M 12.40625 8.296875 
L 28.515625 8.296875 
L 28.515625 63.921875 
L 10.984375 60.40625 
L 10.984375 69.390625 
L 28.421875 72.90625 
L 38.28125 72.90625 
L 38.28125 8.296875 
L 54.390625 8.296875 
L 54.390625 0 
L 12.40625 0 
z
" id="DejaVuSans-49"/>
      </defs>
      <g transform="translate(97.147273 265.053438)scale(0.28 -0.28)">
       <use xlink:href="#DejaVuSans-49"/>
      </g>
     </g>
    </g>
    <g id="xtick_2">
     <g id="line2d_2">
      <g>
       <use style="stroke:#000000;stroke-width:0.8;" x="204.236591" xlink:href="#m1968844279" y="235.277813"/>
      </g>
     </g>
     <g id="text_2">
      <!-- 2 -->
      <defs>
       <path d="M 19.1875 8.296875 
L 53.609375 8.296875 
L 53.609375 0 
L 7.328125 0 
L 7.328125 8.296875 
Q 12.9375 14.109375 22.625 23.890625 
Q 32.328125 33.6875 34.8125 36.53125 
Q 39.546875 41.84375 41.421875 45.53125 
Q 43.3125 49.21875 43.3125 52.78125 
Q 43.3125 58.59375 39.234375 62.25 
Q 35.15625 65.921875 28.609375 65.921875 
Q 23.96875 65.921875 18.8125 64.3125 
Q 13.671875 62.703125 7.8125 59.421875 
L 7.8125 69.390625 
Q 13.765625 71.78125 18.9375 73 
Q 24.125 74.21875 28.421875 74.21875 
Q 39.75 74.21875 46.484375 68.546875 
Q 53.21875 62.890625 53.21875 53.421875 
Q 53.21875 48.921875 51.53125 44.890625 
Q 49.859375 40.875 45.40625 35.40625 
Q 44.1875 33.984375 37.640625 27.21875 
Q 31.109375 20.453125 19.1875 8.296875 
z
" id="DejaVuSans-50"/>
      </defs>
      <g transform="translate(195.329091 265.053438)scale(0.28 -0.28)">
       <use xlink:href="#DejaVuSans-50"/>
      </g>
     </g>
    </g>
    <g id="xtick_3">
     <g id="line2d_3">
      <g>
       <use style="stroke:#000000;stroke-width:0.8;" x="302.418409" xlink:href="#m1968844279" y="235.277813"/>
      </g>
     </g>
     <g id="text_3">
      <!-- 3 -->
      <defs>
       <path d="M 40.578125 39.3125 
Q 47.65625 37.796875 51.625 33 
Q 55.609375 28.21875 55.609375 21.1875 
Q 55.609375 10.40625 48.1875 4.484375 
Q 40.765625 -1.421875 27.09375 -1.421875 
Q 22.515625 -1.421875 17.65625 -0.515625 
Q 12.796875 0.390625 7.625 2.203125 
L 7.625 11.71875 
Q 11.71875 9.328125 16.59375 8.109375 
Q 21.484375 6.890625 26.8125 6.890625 
Q 36.078125 6.890625 40.9375 10.546875 
Q 45.796875 14.203125 45.796875 21.1875 
Q 45.796875 27.640625 41.28125 31.265625 
Q 36.765625 34.90625 28.71875 34.90625 
L 20.21875 34.90625 
L 20.21875 43.015625 
L 29.109375 43.015625 
Q 36.375 43.015625 40.234375 45.921875 
Q 44.09375 48.828125 44.09375 54.296875 
Q 44.09375 59.90625 40.109375 62.90625 
Q 36.140625 65.921875 28.71875 65.921875 
Q 24.65625 65.921875 20.015625 65.03125 
Q 15.375 64.15625 9.8125 62.3125 
L 9.8125 71.09375 
Q 15.4375 72.65625 20.34375 73.4375 
Q 25.25 74.21875 29.59375 74.21875 
Q 40.828125 74.21875 47.359375 69.109375 
Q 53.90625 64.015625 53.90625 55.328125 
Q 53.90625 49.265625 50.4375 45.09375 
Q 46.96875 40.921875 40.578125 39.3125 
z
" id="DejaVuSans-51"/>
      </defs>
      <g transform="translate(293.510909 265.053438)scale(0.28 -0.28)">
       <use xlink:href="#DejaVuSans-51"/>
      </g>
     </g>
    </g>
    <g id="xtick_4">
     <g id="line2d_4">
      <g>
       <use style="stroke:#000000;stroke-width:0.8;" x="400.600227" xlink:href="#m1968844279" y="235.277813"/>
      </g>
     </g>
     <g id="text_4">
      <!-- 4 -->
      <defs>
       <path d="M 37.796875 64.3125 
L 12.890625 25.390625 
L 37.796875 25.390625 
z
M 35.203125 72.90625 
L 47.609375 72.90625 
L 47.609375 25.390625 
L 58.015625 25.390625 
L 58.015625 17.1875 
L 47.609375 17.1875 
L 47.609375 0 
L 37.796875 0 
L 37.796875 17.1875 
L 4.890625 17.1875 
L 4.890625 26.703125 
z
" id="DejaVuSans-52"/>
      </defs>
      <g transform="translate(391.692727 265.053438)scale(0.28 -0.28)">
       <use xlink:href="#DejaVuSans-52"/>
      </g>
     </g>
    </g>
    <g id="text_5">
     <!-- -log10 p-value -->
     <defs>
      <path d="M 4.890625 31.390625 
L 31.203125 31.390625 
L 31.203125 23.390625 
L 4.890625 23.390625 
z
" id="DejaVuSans-45"/>
      <path d="M 9.421875 75.984375 
L 18.40625 75.984375 
L 18.40625 0 
L 9.421875 0 
z
" id="DejaVuSans-108"/>
      <path d="M 30.609375 48.390625 
Q 23.390625 48.390625 19.1875 42.75 
Q 14.984375 37.109375 14.984375 27.296875 
Q 14.984375 17.484375 19.15625 11.84375 
Q 23.34375 6.203125 30.609375 6.203125 
Q 37.796875 6.203125 41.984375 11.859375 
Q 46.1875 17.53125 46.1875 27.296875 
Q 46.1875 37.015625 41.984375 42.703125 
Q 37.796875 48.390625 30.609375 48.390625 
z
M 30.609375 56 
Q 42.328125 56 49.015625 48.375 
Q 55.71875 40.765625 55.71875 27.296875 
Q 55.71875 13.875 49.015625 6.21875 
Q 42.328125 -1.421875 30.609375 -1.421875 
Q 18.84375 -1.421875 12.171875 6.21875 
Q 5.515625 13.875 5.515625 27.296875 
Q 5.515625 40.765625 12.171875 48.375 
Q 18.84375 56 30.609375 56 
z
" id="DejaVuSans-111"/>
      <path d="M 45.40625 27.984375 
Q 45.40625 37.75 41.375 43.109375 
Q 37.359375 48.484375 30.078125 48.484375 
Q 22.859375 48.484375 18.828125 43.109375 
Q 14.796875 37.75 14.796875 27.984375 
Q 14.796875 18.265625 18.828125 12.890625 
Q 22.859375 7.515625 30.078125 7.515625 
Q 37.359375 7.515625 41.375 12.890625 
Q 45.40625 18.265625 45.40625 27.984375 
z
M 54.390625 6.78125 
Q 54.390625 -7.171875 48.1875 -13.984375 
Q 42 -20.796875 29.203125 -20.796875 
Q 24.46875 -20.796875 20.265625 -20.09375 
Q 16.0625 -19.390625 12.109375 -17.921875 
L 12.109375 -9.1875 
Q 16.0625 -11.328125 19.921875 -12.34375 
Q 23.78125 -13.375 27.78125 -13.375 
Q 36.625 -13.375 41.015625 -8.765625 
Q 45.40625 -4.15625 45.40625 5.171875 
L 45.40625 9.625 
Q 42.625 4.78125 38.28125 2.390625 
Q 33.9375 0 27.875 0 
Q 17.828125 0 11.671875 7.65625 
Q 5.515625 15.328125 5.515625 27.984375 
Q 5.515625 40.671875 11.671875 48.328125 
Q 17.828125 56 27.875 56 
Q 33.9375 56 38.28125 53.609375 
Q 42.625 51.21875 45.40625 46.390625 
L 45.40625 54.6875 
L 54.390625 54.6875 
z
" id="DejaVuSans-103"/>
      <path d="M 31.78125 66.40625 
Q 24.171875 66.40625 20.328125 58.90625 
Q 16.5 51.421875 16.5 36.375 
Q 16.5 21.390625 20.328125 13.890625 
Q 24.171875 6.390625 31.78125 6.390625 
Q 39.453125 6.390625 43.28125 13.890625 
Q 47.125 21.390625 47.125 36.375 
Q 47.125 51.421875 43.28125 58.90625 
Q 39.453125 66.40625 31.78125 66.40625 
z
M 31.78125 74.21875 
Q 44.046875 74.21875 50.515625 64.515625 
Q 56.984375 54.828125 56.984375 36.375 
Q 56.984375 17.96875 50.515625 8.265625 
Q 44.046875 -1.421875 31.78125 -1.421875 
Q 19.53125 -1.421875 13.0625 8.265625 
Q 6.59375 17.96875 6.59375 36.375 
Q 6.59375 54.828125 13.0625 64.515625 
Q 19.53125 74.21875 31.78125 74.21875 
z
" id="DejaVuSans-48"/>
      <path id="DejaVuSans-32"/>
      <path d="M 18.109375 8.203125 
L 18.109375 -20.796875 
L 9.078125 -20.796875 
L 9.078125 54.6875 
L 18.109375 54.6875 
L 18.109375 46.390625 
Q 20.953125 51.265625 25.265625 53.625 
Q 29.59375 56 35.59375 56 
Q 45.5625 56 51.78125 48.09375 
Q 58.015625 40.1875 58.015625 27.296875 
Q 58.015625 14.40625 51.78125 6.484375 
Q 45.5625 -1.421875 35.59375 -1.421875 
Q 29.59375 -1.421875 25.265625 0.953125 
Q 20.953125 3.328125 18.109375 8.203125 
z
M 48.6875 27.296875 
Q 48.6875 37.203125 44.609375 42.84375 
Q 40.53125 48.484375 33.40625 48.484375 
Q 26.265625 48.484375 22.1875 42.84375 
Q 18.109375 37.203125 18.109375 27.296875 
Q 18.109375 17.390625 22.1875 11.75 
Q 26.265625 6.109375 33.40625 6.109375 
Q 40.53125 6.109375 44.609375 11.75 
Q 48.6875 17.390625 48.6875 27.296875 
z
" id="DejaVuSans-112"/>
      <path d="M 2.984375 54.6875 
L 12.5 54.6875 
L 29.59375 8.796875 
L 46.6875 54.6875 
L 56.203125 54.6875 
L 35.6875 0 
L 23.484375 0 
z
" id="DejaVuSans-118"/>
      <path d="M 34.28125 27.484375 
Q 23.390625 27.484375 19.1875 25 
Q 14.984375 22.515625 14.984375 16.5 
Q 14.984375 11.71875 18.140625 8.90625 
Q 21.296875 6.109375 26.703125 6.109375 
Q 34.1875 6.109375 38.703125 11.40625 
Q 43.21875 16.703125 43.21875 25.484375 
L 43.21875 27.484375 
z
M 52.203125 31.203125 
L 52.203125 0 
L 43.21875 0 
L 43.21875 8.296875 
Q 40.140625 3.328125 35.546875 0.953125 
Q 30.953125 -1.421875 24.3125 -1.421875 
Q 15.921875 -1.421875 10.953125 3.296875 
Q 6 8.015625 6 15.921875 
Q 6 25.140625 12.171875 29.828125 
Q 18.359375 34.515625 30.609375 34.515625 
L 43.21875 34.515625 
L 43.21875 35.40625 
Q 43.21875 41.609375 39.140625 45 
Q 35.0625 48.390625 27.6875 48.390625 
Q 23 48.390625 18.546875 47.265625 
Q 14.109375 46.140625 10.015625 43.890625 
L 10.015625 52.203125 
Q 14.9375 54.109375 19.578125 55.046875 
Q 24.21875 56 28.609375 56 
Q 40.484375 56 46.34375 49.84375 
Q 52.203125 43.703125 52.203125 31.203125 
z
" id="DejaVuSans-97"/>
      <path d="M 8.5 21.578125 
L 8.5 54.6875 
L 17.484375 54.6875 
L 17.484375 21.921875 
Q 17.484375 14.15625 20.5 10.265625 
Q 23.53125 6.390625 29.59375 6.390625 
Q 36.859375 6.390625 41.078125 11.03125 
Q 45.3125 15.671875 45.3125 23.6875 
L 45.3125 54.6875 
L 54.296875 54.6875 
L 54.296875 0 
L 45.3125 0 
L 45.3125 8.40625 
Q 42.046875 3.421875 37.71875 1 
Q 33.40625 -1.421875 27.6875 -1.421875 
Q 18.265625 -1.421875 13.375 4.4375 
Q 8.5 10.296875 8.5 21.578125 
z
M 31.109375 56 
z
" id="DejaVuSans-117"/>
      <path d="M 56.203125 29.59375 
L 56.203125 25.203125 
L 14.890625 25.203125 
Q 15.484375 15.921875 20.484375 11.0625 
Q 25.484375 6.203125 34.421875 6.203125 
Q 39.59375 6.203125 44.453125 7.46875 
Q 49.3125 8.734375 54.109375 11.28125 
L 54.109375 2.78125 
Q 49.265625 0.734375 44.1875 -0.34375 
Q 39.109375 -1.421875 33.890625 -1.421875 
Q 20.796875 -1.421875 13.15625 6.1875 
Q 5.515625 13.8125 5.515625 26.8125 
Q 5.515625 40.234375 12.765625 48.109375 
Q 20.015625 56 32.328125 56 
Q 43.359375 56 49.78125 48.890625 
Q 56.203125 41.796875 56.203125 29.59375 
z
M 47.21875 32.234375 
Q 47.125 39.59375 43.09375 43.984375 
Q 39.0625 48.390625 32.421875 48.390625 
Q 24.90625 48.390625 20.390625 44.140625 
Q 15.875 39.890625 15.1875 32.171875 
z
" id="DejaVuSans-101"/>
     </defs>
     <g transform="translate(152.4925 296.152188)scale(0.28 -0.28)">
      <use xlink:href="#DejaVuSans-45"/>
      <use x="36.083984" xlink:href="#DejaVuSans-108"/>
      <use x="63.867188" xlink:href="#DejaVuSans-111"/>
      <use x="125.048828" xlink:href="#DejaVuSans-103"/>
      <use x="188.525391" xlink:href="#DejaVuSans-49"/>
      <use x="252.148438" xlink:href="#DejaVuSans-48"/>
      <use x="315.771484" xlink:href="#DejaVuSans-32"/>
      <use x="347.558594" xlink:href="#DejaVuSans-112"/>
      <use x="411.035156" xlink:href="#DejaVuSans-45"/>
      <use x="447.087891" xlink:href="#DejaVuSans-118"/>
      <use x="506.267578" xlink:href="#DejaVuSans-97"/>
      <use x="567.546875" xlink:href="#DejaVuSans-108"/>
      <use x="595.330078" xlink:href="#DejaVuSans-117"/>
      <use x="658.708984" xlink:href="#DejaVuSans-101"/>
     </g>
    </g>
   </g>
   <g id="matplotlib.axis_2">
    <g id="ytick_1">
     <g id="line2d_5">
      <defs>
       <path d="M 0 0 
L -5 0 
" id="m3b288e4731" style="stroke:#000000;stroke-width:0.8;"/>
      </defs>
      <g>
       <use style="stroke:#000000;stroke-width:0.8;" x="91.3275" xlink:href="#m3b288e4731" y="235.277813"/>
      </g>
     </g>
     <g id="text_6">
      <!-- 0.0 -->
      <defs>
       <path d="M 10.6875 12.40625 
L 21 12.40625 
L 21 0 
L 10.6875 0 
z
" id="DejaVuSans-46"/>
      </defs>
      <g transform="translate(38.29875 245.915625)scale(0.28 -0.28)">
       <use xlink:href="#DejaVuSans-48"/>
       <use x="63.623047" xlink:href="#DejaVuSans-46"/>
       <use x="95.410156" xlink:href="#DejaVuSans-48"/>
      </g>
     </g>
    </g>
    <g id="ytick_2">
     <g id="line2d_6">
      <g>
       <use style="stroke:#000000;stroke-width:0.8;" x="91.3275" xlink:href="#m3b288e4731" y="126.557813"/>
      </g>
     </g>
     <g id="text_7">
      <!-- 0.5 -->
      <defs>
       <path d="M 10.796875 72.90625 
L 49.515625 72.90625 
L 49.515625 64.59375 
L 19.828125 64.59375 
L 19.828125 46.734375 
Q 21.96875 47.46875 24.109375 47.828125 
Q 26.265625 48.1875 28.421875 48.1875 
Q 40.625 48.1875 47.75 41.5 
Q 54.890625 34.8125 54.890625 23.390625 
Q 54.890625 11.625 47.5625 5.09375 
Q 40.234375 -1.421875 26.90625 -1.421875 
Q 22.3125 -1.421875 17.546875 -0.640625 
Q 12.796875 0.140625 7.71875 1.703125 
L 7.71875 11.625 
Q 12.109375 9.234375 16.796875 8.0625 
Q 21.484375 6.890625 26.703125 6.890625 
Q 35.15625 6.890625 40.078125 11.328125 
Q 45.015625 15.765625 45.015625 23.390625 
Q 45.015625 31 40.078125 35.4375 
Q 35.15625 39.890625 26.703125 39.890625 
Q 22.75 39.890625 18.8125 39.015625 
Q 14.890625 38.140625 10.796875 36.28125 
z
" id="DejaVuSans-53"/>
      </defs>
      <g transform="translate(38.29875 137.195625)scale(0.28 -0.28)">
       <use xlink:href="#DejaVuSans-48"/>
       <use x="63.623047" xlink:href="#DejaVuSans-46"/>
       <use x="95.410156" xlink:href="#DejaVuSans-53"/>
      </g>
     </g>
    </g>
    <g id="ytick_3">
     <g id="line2d_7">
      <g>
       <use style="stroke:#000000;stroke-width:0.8;" x="91.3275" xlink:href="#m3b288e4731" y="17.837813"/>
      </g>
     </g>
     <g id="text_8">
      <!-- 1.0 -->
      <g transform="translate(38.29875 28.475625)scale(0.28 -0.28)">
       <use xlink:href="#DejaVuSans-49"/>
       <use x="63.623047" xlink:href="#DejaVuSans-46"/>
       <use x="95.410156" xlink:href="#DejaVuSans-48"/>
      </g>
     </g>
    </g>
    <g id="text_9">
     <!-- Accuracy -->
     <defs>
      <path d="M 34.1875 63.1875 
L 20.796875 26.90625 
L 47.609375 26.90625 
z
M 28.609375 72.90625 
L 39.796875 72.90625 
L 67.578125 0 
L 57.328125 0 
L 50.6875 18.703125 
L 17.828125 18.703125 
L 11.1875 0 
L 0.78125 0 
z
" id="DejaVuSans-65"/>
      <path d="M 48.78125 52.59375 
L 48.78125 44.1875 
Q 44.96875 46.296875 41.140625 47.34375 
Q 37.3125 48.390625 33.40625 48.390625 
Q 24.65625 48.390625 19.8125 42.84375 
Q 14.984375 37.3125 14.984375 27.296875 
Q 14.984375 17.28125 19.8125 11.734375 
Q 24.65625 6.203125 33.40625 6.203125 
Q 37.3125 6.203125 41.140625 7.25 
Q 44.96875 8.296875 48.78125 10.40625 
L 48.78125 2.09375 
Q 45.015625 0.34375 40.984375 -0.53125 
Q 36.96875 -1.421875 32.421875 -1.421875 
Q 20.0625 -1.421875 12.78125 6.34375 
Q 5.515625 14.109375 5.515625 27.296875 
Q 5.515625 40.671875 12.859375 48.328125 
Q 20.21875 56 33.015625 56 
Q 37.15625 56 41.109375 55.140625 
Q 45.0625 54.296875 48.78125 52.59375 
z
" id="DejaVuSans-99"/>
      <path d="M 41.109375 46.296875 
Q 39.59375 47.171875 37.8125 47.578125 
Q 36.03125 48 33.890625 48 
Q 26.265625 48 22.1875 43.046875 
Q 18.109375 38.09375 18.109375 28.8125 
L 18.109375 0 
L 9.078125 0 
L 9.078125 54.6875 
L 18.109375 54.6875 
L 18.109375 46.1875 
Q 20.953125 51.171875 25.484375 53.578125 
Q 30.03125 56 36.53125 56 
Q 37.453125 56 38.578125 55.875 
Q 39.703125 55.765625 41.0625 55.515625 
z
" id="DejaVuSans-114"/>
      <path d="M 32.171875 -5.078125 
Q 28.375 -14.84375 24.75 -17.8125 
Q 21.140625 -20.796875 15.09375 -20.796875 
L 7.90625 -20.796875 
L 7.90625 -13.28125 
L 13.1875 -13.28125 
Q 16.890625 -13.28125 18.9375 -11.515625 
Q 21 -9.765625 23.484375 -3.21875 
L 25.09375 0.875 
L 2.984375 54.6875 
L 12.5 54.6875 
L 29.59375 11.921875 
L 46.6875 54.6875 
L 56.203125 54.6875 
z
" id="DejaVuSans-121"/>
     </defs>
     <g transform="translate(28.475625 190.719375)rotate(-90)scale(0.28 -0.28)">
      <use xlink:href="#DejaVuSans-65"/>
      <use x="68.392578" xlink:href="#DejaVuSans-99"/>
      <use x="123.373047" xlink:href="#DejaVuSans-99"/>
      <use x="178.353516" xlink:href="#DejaVuSans-117"/>
      <use x="241.732422" xlink:href="#DejaVuSans-114"/>
      <use x="282.845703" xlink:href="#DejaVuSans-97"/>
      <use x="344.125" xlink:href="#DejaVuSans-99"/>
      <use x="399.105469" xlink:href="#DejaVuSans-121"/>
     </g>
    </g>
   </g>
   <g id="line2d_8">
    <path clip-path="url(#p07e23869e9)" d="M 106.054773 126.433844 
L 106.545682 125.937972 
L 107.036591 125.194164 
L 107.5275 125.194164 
L 108.018409 124.698291 
L 108.509318 123.954483 
L 109.491136 123.954483 
L 109.982045 123.458611 
L 110.472955 123.210675 
L 110.963864 123.210675 
L 111.454773 122.714802 
L 111.945682 122.466866 
L 112.436591 121.970994 
L 112.9275 121.970994 
L 113.418409 121.227185 
L 113.909318 120.731313 
L 114.400227 120.483377 
L 114.891136 119.987505 
L 115.382045 119.987505 
L 115.872955 119.739568 
L 116.363864 119.739568 
L 116.854773 119.491632 
L 117.345682 119.491632 
L 117.836591 119.243696 
L 118.3275 118.747824 
L 118.818409 117.508143 
L 119.309318 117.508143 
L 120.291136 116.516399 
L 121.763864 115.77259 
L 122.254773 115.77259 
L 122.745682 115.524654 
L 123.236591 115.524654 
L 123.7275 115.028782 
L 124.709318 114.532909 
L 125.200227 114.532909 
L 125.691136 113.789101 
L 128.145682 113.789101 
L 128.636591 113.541165 
L 130.600227 113.541165 
L 131.582045 113.045293 
L 132.072955 113.045293 
L 132.563864 112.54942 
L 134.036591 112.54942 
L 134.5275 112.301484 
L 135.018409 112.301484 
L 135.509318 112.053548 
L 136.491136 112.053548 
L 136.982045 111.805612 
L 137.472955 111.30974 
L 137.963864 111.30974 
L 138.454773 111.061803 
L 139.9275 111.061803 
L 140.418409 110.565931 
L 140.909318 110.565931 
L 142.382045 109.822123 
L 142.872955 109.32625 
L 143.363864 109.078314 
L 145.3275 109.078314 
L 145.818409 108.830378 
L 146.309318 108.830378 
L 146.800227 108.334506 
L 147.782045 108.334506 
L 148.272955 108.08657 
L 148.763864 108.08657 
L 151.709318 106.598953 
L 152.200227 106.598953 
L 152.691136 106.10308 
L 153.182045 105.855144 
L 154.163864 105.855144 
L 154.654773 105.607208 
L 155.636591 104.615464 
L 156.1275 104.367527 
L 156.618409 104.367527 
L 157.109318 104.119591 
L 157.600227 104.119591 
L 158.091136 103.375783 
L 158.582045 103.375783 
L 159.563864 102.879911 
L 161.5275 102.879911 
L 162.018409 102.631974 
L 162.509318 102.631974 
L 163.491136 102.136102 
L 164.472955 102.136102 
L 164.963864 101.64023 
L 165.454773 101.64023 
L 165.945682 101.392294 
L 166.436591 100.896421 
L 167.418409 100.896421 
L 167.909318 100.648485 
L 168.400227 100.648485 
L 169.382045 99.656741 
L 169.872955 99.408805 
L 170.854773 99.408805 
L 171.836591 98.912932 
L 172.3275 98.912932 
L 173.800227 98.169124 
L 174.291136 98.169124 
L 174.782045 97.921188 
L 176.745682 97.921188 
L 177.236591 97.673251 
L 178.218409 97.673251 
L 178.709318 97.921188 
L 179.691136 97.921188 
L 180.182045 97.425315 
L 181.163864 96.929443 
L 183.618409 96.929443 
L 184.109318 96.681507 
L 185.091136 96.681507 
L 186.563864 95.937698 
L 187.054773 95.937698 
L 187.545682 95.689762 
L 188.036591 95.689762 
L 188.5275 95.441826 
L 189.018409 95.441826 
L 189.509318 95.689762 
L 190.000227 95.689762 
L 191.963864 94.698018 
L 192.454773 94.202145 
L 192.945682 94.202145 
L 193.9275 93.706273 
L 194.418409 93.706273 
L 194.909318 93.458337 
L 195.400227 93.458337 
L 195.891136 92.962465 
L 196.382045 93.210401 
L 196.872955 93.210401 
L 197.854773 92.714529 
L 198.345682 92.218656 
L 198.836591 91.97072 
L 200.800227 91.97072 
L 201.782045 91.474848 
L 203.745682 91.474848 
L 204.7275 90.978976 
L 205.709318 90.978976 
L 206.200227 90.731039 
L 206.691136 90.235167 
L 208.163864 89.491359 
L 208.654773 89.739295 
L 210.1275 89.739295 
L 210.618409 89.491359 
L 211.109318 89.491359 
L 211.600227 89.243423 
L 212.582045 89.243423 
L 213.072955 88.995486 
L 213.563864 88.995486 
L 214.054773 88.74755 
L 220.436591 88.74755 
L 220.9275 88.499614 
L 224.854773 88.499614 
L 225.345682 88.003742 
L 227.309318 88.003742 
L 227.800227 87.755806 
L 228.782045 86.764061 
L 231.236591 86.764061 
L 231.7275 86.516125 
L 232.218409 86.020253 
L 233.691136 86.020253 
L 234.182045 85.772316 
L 234.672955 85.772316 
L 235.163864 85.276444 
L 235.654773 85.276444 
L 236.145682 85.028508 
L 237.1275 85.028508 
L 237.618409 84.780572 
L 238.109318 84.780572 
L 238.600227 84.532636 
L 240.563864 84.532636 
L 241.545682 84.036763 
L 242.036591 83.540891 
L 243.018409 83.540891 
L 244.491136 82.797083 
L 245.472955 82.797083 
L 246.454773 82.30121 
L 247.9275 82.30121 
L 248.418409 82.053274 
L 249.400227 82.053274 
L 249.891136 81.557402 
L 252.345682 81.557402 
L 252.836591 81.06153 
L 253.3275 81.06153 
L 254.309318 80.069785 
L 255.291136 80.069785 
L 255.782045 79.821849 
L 258.236591 79.821849 
L 258.7275 79.325977 
L 260.691136 79.325977 
L 261.182045 79.078041 
L 261.672955 79.078041 
L 262.654773 78.582168 
L 263.145682 78.582168 
L 263.636591 78.334232 
L 264.618409 78.334232 
L 265.109318 78.086296 
L 265.600227 78.086296 
L 266.091136 77.590424 
L 266.582045 77.590424 
L 267.072955 77.342488 
L 268.545682 77.342488 
L 269.036591 76.846615 
L 270.509318 76.846615 
L 271.000227 76.598679 
L 274.9275 76.598679 
L 275.418409 76.350743 
L 276.891136 76.350743 
L 277.382045 76.102807 
L 280.818409 76.102807 
L 281.309318 75.854871 
L 282.291136 75.854871 
L 282.782045 75.606935 
L 284.745682 75.606935 
L 285.236591 75.111062 
L 286.218409 75.111062 
L 286.709318 74.863126 
L 289.163864 74.863126 
L 289.654773 74.367254 
L 291.1275 74.367254 
L 291.618409 73.375509 
L 299.963864 73.375509 
L 300.454773 72.879637 
L 304.382045 72.879637 
L 304.872955 72.631701 
L 306.836591 72.631701 
L 307.3275 72.383765 
L 309.291136 72.383765 
L 309.782045 71.639956 
L 311.745682 71.639956 
L 312.236591 71.39202 
L 314.200227 71.39202 
L 314.691136 70.896148 
L 317.145682 70.896148 
L 317.636591 70.152339 
L 320.582045 70.152339 
L 321.072955 69.408531 
L 324.018409 69.408531 
L 324.509318 69.160595 
L 327.454773 69.160595 
L 327.945682 68.16885 
L 331.872955 68.16885 
L 332.363864 67.425042 
L 336.291136 67.425042 
L 336.782045 67.177106 
L 341.200227 67.177106 
L 341.691136 65.441553 
L 347.091136 65.441553 
L 347.582045 64.201872 
L 353.472955 64.201872 
L 353.963864 62.466319 
L 361.3275 62.466319 
L 361.818409 61.226638 
L 370.654773 61.226638 
L 371.145682 60.234893 
L 382.9275 60.234893 
L 383.418409 58.49934 
L 400.600227 58.49934 
L 400.600227 58.49934 
" style="fill:none;stroke:#8b0000;stroke-linecap:square;stroke-width:2;"/>
   </g>
   <g id="line2d_9">
    <path clip-path="url(#p07e23869e9)" d="M 106.054773 118.251952 
L 106.545682 117.756079 
L 107.036591 117.012271 
L 107.5275 117.012271 
L 108.018409 116.516399 
L 108.509318 116.268462 
L 109.491136 116.268462 
L 109.982045 115.77259 
L 110.472955 115.524654 
L 111.454773 115.524654 
L 111.945682 115.276718 
L 112.9275 115.276718 
L 113.418409 115.524654 
L 113.909318 115.028782 
L 114.400227 114.780846 
L 115.382045 114.780846 
L 115.872955 114.532909 
L 116.363864 114.532909 
L 116.854773 114.284973 
L 117.345682 114.284973 
L 117.836591 114.037037 
L 118.3275 113.541165 
L 118.818409 112.301484 
L 119.309318 112.301484 
L 120.291136 111.30974 
L 121.763864 110.565931 
L 122.254773 110.565931 
L 122.745682 110.317995 
L 123.7275 110.317995 
L 124.709318 109.822123 
L 125.200227 109.822123 
L 125.691136 110.565931 
L 126.182045 111.061803 
L 128.145682 111.061803 
L 128.636591 110.813867 
L 130.600227 110.813867 
L 131.091136 110.565931 
L 131.582045 110.813867 
L 132.072955 110.813867 
L 132.563864 110.317995 
L 134.036591 110.317995 
L 134.5275 110.565931 
L 135.018409 110.565931 
L 135.509318 110.317995 
L 136.000227 110.813867 
L 136.491136 110.813867 
L 136.982045 110.565931 
L 137.472955 110.070059 
L 137.963864 110.070059 
L 138.454773 109.822123 
L 140.909318 109.822123 
L 142.382045 109.078314 
L 142.872955 108.582442 
L 143.363864 108.334506 
L 145.3275 108.334506 
L 145.818409 108.08657 
L 146.309318 108.08657 
L 146.800227 107.590697 
L 147.782045 107.590697 
L 148.272955 107.342761 
L 148.763864 107.342761 
L 150.7275 106.351017 
L 151.218409 106.598953 
L 151.709318 106.351017 
L 152.200227 106.351017 
L 152.691136 105.855144 
L 153.182045 105.607208 
L 154.163864 105.607208 
L 154.654773 105.359272 
L 155.636591 105.359272 
L 156.1275 105.607208 
L 156.618409 105.607208 
L 157.109318 105.359272 
L 157.600227 105.359272 
L 158.091136 104.615464 
L 158.582045 104.615464 
L 159.563864 104.119591 
L 161.5275 104.119591 
L 162.018409 104.367527 
L 162.509318 104.367527 
L 163.491136 103.871655 
L 164.472955 103.871655 
L 164.963864 103.375783 
L 165.454773 103.375783 
L 165.945682 103.127847 
L 166.436591 102.631974 
L 167.418409 102.631974 
L 167.909318 102.384038 
L 168.891136 102.384038 
L 169.382045 101.888166 
L 169.872955 101.64023 
L 170.854773 101.64023 
L 171.836591 101.144358 
L 172.3275 101.144358 
L 173.309318 100.648485 
L 173.800227 100.896421 
L 174.291136 100.896421 
L 174.782045 100.648485 
L 176.745682 100.648485 
L 177.236591 100.400549 
L 178.218409 100.400549 
L 178.709318 100.648485 
L 179.200227 100.152613 
L 179.691136 100.152613 
L 180.182045 99.656741 
L 181.163864 99.160868 
L 183.618409 99.160868 
L 184.109318 98.912932 
L 185.091136 98.912932 
L 186.563864 98.169124 
L 187.054773 98.169124 
L 187.545682 97.921188 
L 188.036591 97.921188 
L 188.5275 97.673251 
L 189.018409 97.673251 
L 189.509318 97.921188 
L 190.000227 97.921188 
L 191.963864 96.929443 
L 192.454773 96.433571 
L 192.945682 96.433571 
L 193.9275 95.937698 
L 194.418409 95.937698 
L 194.909318 95.689762 
L 195.400227 95.689762 
L 195.891136 95.19389 
L 196.382045 95.441826 
L 196.872955 95.441826 
L 197.854773 94.945954 
L 198.345682 94.450082 
L 198.836591 94.202145 
L 200.800227 94.202145 
L 201.782045 93.706273 
L 203.745682 93.706273 
L 204.7275 94.202145 
L 205.709318 94.202145 
L 206.200227 93.954209 
L 206.691136 93.954209 
L 207.182045 94.202145 
L 208.163864 93.706273 
L 208.654773 93.954209 
L 210.1275 93.954209 
L 210.618409 93.706273 
L 211.109318 93.706273 
L 211.600227 93.458337 
L 212.582045 93.458337 
L 213.072955 93.210401 
L 213.563864 93.210401 
L 214.054773 93.458337 
L 220.436591 93.458337 
L 220.9275 93.210401 
L 224.854773 93.210401 
L 225.345682 92.714529 
L 227.309318 92.714529 
L 227.800227 92.466592 
L 228.291136 91.97072 
L 231.236591 91.97072 
L 231.7275 92.218656 
L 233.691136 92.218656 
L 234.182045 92.466592 
L 234.672955 92.466592 
L 235.163864 91.97072 
L 235.654773 91.97072 
L 236.145682 91.722784 
L 237.1275 91.722784 
L 237.618409 91.474848 
L 238.109318 91.474848 
L 238.600227 91.722784 
L 240.563864 91.722784 
L 241.545682 91.226912 
L 243.018409 91.226912 
L 244.491136 90.483103 
L 245.472955 90.483103 
L 246.454773 89.987231 
L 247.9275 89.987231 
L 248.418409 89.739295 
L 249.400227 89.739295 
L 249.891136 89.243423 
L 252.345682 89.243423 
L 252.836591 88.74755 
L 253.3275 88.74755 
L 253.818409 89.243423 
L 254.309318 88.74755 
L 255.291136 88.74755 
L 255.782045 88.499614 
L 260.691136 88.499614 
L 261.182045 88.251678 
L 261.672955 88.251678 
L 262.654773 87.755806 
L 263.145682 87.755806 
L 263.636591 87.50787 
L 264.618409 87.50787 
L 265.109318 87.259933 
L 265.600227 87.259933 
L 266.091136 86.764061 
L 266.582045 86.764061 
L 267.072955 87.011997 
L 268.545682 87.011997 
L 269.036591 86.516125 
L 270.509318 86.516125 
L 271.000227 86.268189 
L 274.9275 86.268189 
L 275.418409 86.020253 
L 276.891136 86.020253 
L 277.382045 86.268189 
L 280.818409 86.268189 
L 281.309318 86.020253 
L 282.291136 86.020253 
L 282.782045 85.772316 
L 284.745682 85.772316 
L 285.236591 85.276444 
L 286.218409 85.276444 
L 286.709318 85.028508 
L 287.691136 85.028508 
L 288.182045 85.52438 
L 289.163864 85.52438 
L 289.654773 85.028508 
L 291.1275 85.028508 
L 291.618409 84.532636 
L 299.963864 84.532636 
L 300.454773 84.036763 
L 304.382045 84.036763 
L 304.872955 83.788827 
L 306.836591 83.788827 
L 307.3275 83.540891 
L 309.291136 83.540891 
L 309.782045 82.797083 
L 311.745682 82.797083 
L 312.236591 82.549147 
L 314.200227 82.549147 
L 314.691136 82.053274 
L 317.145682 82.053274 
L 317.636591 81.309466 
L 320.582045 81.309466 
L 321.072955 80.565657 
L 324.018409 80.565657 
L 324.509318 80.317721 
L 327.454773 80.317721 
L 327.945682 79.821849 
L 331.872955 79.821849 
L 332.363864 79.573913 
L 336.291136 79.573913 
L 336.782045 79.325977 
L 341.200227 79.325977 
L 341.691136 78.086296 
L 347.091136 78.086296 
L 347.582045 77.83836 
L 353.472955 77.83836 
L 353.963864 77.094551 
L 361.3275 77.094551 
L 361.818409 75.854871 
L 370.654773 75.854871 
L 371.145682 75.358998 
L 382.9275 75.358998 
L 383.418409 74.61519 
L 400.600227 74.61519 
L 400.600227 74.61519 
" style="fill:none;stroke:#000080;stroke-linecap:square;stroke-width:2;"/>
   </g>
   <g id="patch_3">
    <path d="M 91.3275 235.277813 
L 91.3275 17.837813 
" style="fill:none;stroke:#000000;stroke-linecap:square;stroke-linejoin:miter;"/>
   </g>
   <g id="patch_4">
    <path d="M 91.3275 235.277813 
L 415.3275 235.277813 
" style="fill:none;stroke:#000000;stroke-linecap:square;stroke-linejoin:miter;"/>
   </g>
  </g>
  <g id="axes_2">
   <g id="patch_5">
    <path d="M 431.5275 235.277813 
L 755.5275 235.277813 
L 755.5275 17.837813 
L 431.5275 17.837813 
z
" style="fill:none;"/>
   </g>
   <g id="matplotlib.axis_3">
    <g id="xtick_5">
     <g id="line2d_10">
      <g>
       <use style="stroke:#000000;stroke-width:0.8;" x="446.254773" xlink:href="#m1968844279" y="235.277813"/>
      </g>
     </g>
     <g id="text_10">
      <!-- 1 -->
      <g transform="translate(437.347273 265.053438)scale(0.28 -0.28)">
       <use xlink:href="#DejaVuSans-49"/>
      </g>
     </g>
    </g>
    <g id="xtick_6">
     <g id="line2d_11">
      <g>
       <use style="stroke:#000000;stroke-width:0.8;" x="544.436591" xlink:href="#m1968844279" y="235.277813"/>
      </g>
     </g>
     <g id="text_11">
      <!-- 2 -->
      <g transform="translate(535.529091 265.053438)scale(0.28 -0.28)">
       <use xlink:href="#DejaVuSans-50"/>
      </g>
     </g>
    </g>
    <g id="xtick_7">
     <g id="line2d_12">
      <g>
       <use style="stroke:#000000;stroke-width:0.8;" x="642.618409" xlink:href="#m1968844279" y="235.277813"/>
      </g>
     </g>
     <g id="text_12">
      <!-- 3 -->
      <g transform="translate(633.710909 265.053438)scale(0.28 -0.28)">
       <use xlink:href="#DejaVuSans-51"/>
      </g>
     </g>
    </g>
    <g id="xtick_8">
     <g id="line2d_13">
      <g>
       <use style="stroke:#000000;stroke-width:0.8;" x="740.800227" xlink:href="#m1968844279" y="235.277813"/>
      </g>
     </g>
     <g id="text_13">
      <!-- 4 -->
      <g transform="translate(731.892727 265.053438)scale(0.28 -0.28)">
       <use xlink:href="#DejaVuSans-52"/>
      </g>
     </g>
    </g>
    <g id="text_14">
     <!-- -log10 p-value -->
     <g transform="translate(492.6925 296.152188)scale(0.28 -0.28)">
      <use xlink:href="#DejaVuSans-45"/>
      <use x="36.083984" xlink:href="#DejaVuSans-108"/>
      <use x="63.867188" xlink:href="#DejaVuSans-111"/>
      <use x="125.048828" xlink:href="#DejaVuSans-103"/>
      <use x="188.525391" xlink:href="#DejaVuSans-49"/>
      <use x="252.148438" xlink:href="#DejaVuSans-48"/>
      <use x="315.771484" xlink:href="#DejaVuSans-32"/>
      <use x="347.558594" xlink:href="#DejaVuSans-112"/>
      <use x="411.035156" xlink:href="#DejaVuSans-45"/>
      <use x="447.087891" xlink:href="#DejaVuSans-118"/>
      <use x="506.267578" xlink:href="#DejaVuSans-97"/>
      <use x="567.546875" xlink:href="#DejaVuSans-108"/>
      <use x="595.330078" xlink:href="#DejaVuSans-117"/>
      <use x="658.708984" xlink:href="#DejaVuSans-101"/>
     </g>
    </g>
   </g>
   <g id="matplotlib.axis_4">
    <g id="ytick_4"/>
    <g id="ytick_5"/>
    <g id="ytick_6"/>
   </g>
   <g id="line2d_14">
    <path clip-path="url(#p125e0e1f68)" d="M 446.254773 100.285592 
L 447.236591 99.431211 
L 447.7275 99.858402 
L 448.218409 99.004021 
L 453.1275 99.004021 
L 453.618409 99.858402 
L 457.054773 99.858402 
L 457.545682 100.285592 
L 458.036591 100.285592 
L 458.5275 100.712783 
L 459.018409 100.285592 
L 460.000227 100.285592 
L 460.982045 99.431211 
L 461.963864 99.431211 
L 462.945682 98.57683 
L 463.436591 98.57683 
L 464.418409 99.431211 
L 465.400227 98.57683 
L 469.818409 98.57683 
L 470.309318 98.14964 
L 472.272955 98.14964 
L 473.254773 97.295258 
L 476.691136 97.295258 
L 477.182045 96.868068 
L 478.163864 96.868068 
L 478.654773 97.295258 
L 480.618409 97.295258 
L 481.109318 97.722449 
L 482.582045 97.722449 
L 483.072955 98.14964 
L 485.036591 98.14964 
L 485.5275 98.57683 
L 486.018409 98.57683 
L 486.509318 99.004021 
L 488.472955 99.004021 
L 488.963864 98.57683 
L 489.945682 98.57683 
L 490.436591 99.004021 
L 490.9275 99.004021 
L 491.418409 98.57683 
L 493.382045 98.57683 
L 493.872955 99.004021 
L 495.345682 99.004021 
L 495.836591 99.431211 
L 497.800227 99.431211 
L 498.782045 98.57683 
L 499.272955 98.57683 
L 499.763864 99.004021 
L 506.636591 99.004021 
L 507.1275 98.57683 
L 509.582045 98.57683 
L 510.072955 99.004021 
L 513.018409 99.004021 
L 513.509318 98.57683 
L 517.9275 98.57683 
L 518.418409 99.004021 
L 518.909318 99.004021 
L 519.400227 98.57683 
L 519.891136 98.57683 
L 520.382045 99.431211 
L 525.291136 99.431211 
L 525.782045 99.004021 
L 528.236591 99.004021 
L 528.7275 99.431211 
L 532.163864 99.431211 
L 532.654773 99.858402 
L 533.145682 99.858402 
L 533.636591 99.431211 
L 547.872955 99.431211 
L 548.363864 99.858402 
L 549.345682 99.858402 
L 549.836591 100.285592 
L 550.3275 100.285592 
L 550.818409 100.712783 
L 554.745682 100.712783 
L 555.236591 100.285592 
L 563.091136 100.285592 
L 563.582045 100.712783 
L 564.072955 100.712783 
L 564.563864 100.285592 
L 566.5275 100.285592 
L 567.018409 101.139974 
L 570.454773 101.139974 
L 570.945682 101.567164 
L 573.400227 101.567164 
L 573.891136 101.994355 
L 574.382045 101.994355 
L 574.872955 102.421545 
L 575.363864 102.421545 
L 575.854773 102.848736 
L 580.272955 102.848736 
L 580.763864 102.421545 
L 581.254773 102.421545 
L 581.745682 101.994355 
L 584.200227 101.994355 
L 584.691136 102.421545 
L 590.091136 102.421545 
L 590.582045 102.848736 
L 591.563864 102.848736 
L 592.054773 103.275926 
L 595.000227 103.275926 
L 595.491136 102.848736 
L 598.436591 102.848736 
L 598.9275 102.421545 
L 632.800227 102.421545 
L 633.291136 102.848736 
L 636.236591 102.848736 
L 636.7275 102.421545 
L 644.582045 102.421545 
L 645.072955 101.994355 
L 667.654773 101.994355 
L 668.145682 102.421545 
L 701.5275 102.421545 
L 702.018409 101.994355 
L 723.1275 101.994355 
L 723.618409 101.567164 
L 740.800227 101.567164 
L 740.800227 101.567164 
" style="fill:none;stroke:#8b0000;stroke-linecap:square;stroke-width:2;"/>
   </g>
   <g id="line2d_15">
    <path clip-path="url(#p125e0e1f68)" d="M 446.254773 74.226968 
L 447.7275 72.945396 
L 448.218409 72.091015 
L 453.1275 72.091015 
L 453.618409 71.236634 
L 457.054773 71.236634 
L 457.545682 70.809443 
L 458.036591 70.809443 
L 459.018409 69.955062 
L 460.000227 69.955062 
L 460.982045 69.100681 
L 461.963864 69.100681 
L 462.945682 68.2463 
L 463.436591 68.2463 
L 464.418409 69.100681 
L 465.400227 68.2463 
L 469.818409 68.2463 
L 470.309318 67.819109 
L 472.272955 67.819109 
L 473.254773 66.964728 
L 473.745682 66.110347 
L 476.691136 66.110347 
L 477.182045 64.828775 
L 478.163864 64.828775 
L 478.654773 64.401585 
L 480.618409 64.401585 
L 481.109318 63.974394 
L 482.582045 63.974394 
L 483.072955 63.547203 
L 485.036591 63.547203 
L 485.5275 63.974394 
L 486.018409 63.974394 
L 486.509318 63.547203 
L 488.472955 63.547203 
L 488.963864 63.120013 
L 489.945682 63.120013 
L 490.436591 62.692822 
L 490.9275 62.692822 
L 491.418409 62.265632 
L 493.382045 62.265632 
L 493.872955 61.838441 
L 495.345682 61.838441 
L 495.836591 61.411251 
L 497.800227 61.411251 
L 498.782045 60.556869 
L 499.272955 60.556869 
L 499.763864 60.129679 
L 506.636591 60.129679 
L 507.1275 59.702488 
L 509.582045 59.702488 
L 510.072955 59.275298 
L 513.018409 59.275298 
L 513.509318 58.848107 
L 517.9275 58.848107 
L 518.418409 58.420917 
L 518.909318 58.420917 
L 519.400227 57.993726 
L 523.818409 57.993726 
L 524.309318 57.139345 
L 525.291136 57.139345 
L 525.782045 56.712154 
L 528.236591 56.712154 
L 528.7275 56.284964 
L 532.163864 56.284964 
L 532.654773 55.857773 
L 533.145682 55.857773 
L 533.636591 55.430583 
L 547.872955 55.430583 
L 548.363864 55.003392 
L 549.345682 55.003392 
L 549.836591 54.576201 
L 550.3275 54.576201 
L 550.818409 54.149011 
L 554.745682 54.149011 
L 555.236591 53.72182 
L 563.091136 53.72182 
L 563.582045 54.149011 
L 564.072955 54.149011 
L 564.563864 53.72182 
L 570.454773 53.72182 
L 570.945682 53.29463 
L 573.400227 53.29463 
L 573.891136 52.867439 
L 574.382045 52.867439 
L 574.872955 52.440249 
L 575.363864 52.440249 
L 575.854773 52.013058 
L 580.272955 52.013058 
L 580.763864 51.585868 
L 581.254773 51.585868 
L 581.745682 51.158677 
L 582.7275 51.158677 
L 583.218409 50.304296 
L 584.200227 50.304296 
L 584.691136 49.877105 
L 590.091136 49.877105 
L 590.582045 49.449915 
L 591.563864 49.449915 
L 592.054773 49.877105 
L 595.000227 49.877105 
L 595.491136 49.449915 
L 598.436591 49.449915 
L 598.9275 49.022724 
L 632.800227 49.022724 
L 633.291136 48.595534 
L 636.236591 48.595534 
L 636.7275 48.168343 
L 644.582045 48.168343 
L 645.072955 47.741152 
L 667.654773 47.741152 
L 668.145682 48.168343 
L 701.5275 48.168343 
L 702.018409 47.741152 
L 723.1275 47.741152 
L 723.618409 47.313962 
L 740.800227 47.313962 
L 740.800227 47.313962 
" style="fill:none;stroke:#000080;stroke-linecap:square;stroke-width:2;"/>
   </g>
   <g id="patch_6">
    <path d="M 431.5275 235.277813 
L 431.5275 17.837813 
" style="fill:none;stroke:#000000;stroke-linecap:square;stroke-linejoin:miter;"/>
   </g>
   <g id="patch_7">
    <path d="M 431.5275 235.277813 
L 755.5275 235.277813 
" style="fill:none;stroke:#000000;stroke-linecap:square;stroke-linejoin:miter;"/>
   </g>
  </g>
  <g id="axes_3">
   <g id="patch_8">
    <path d="M 771.7275 235.277813 
L 1095.7275 235.277813 
L 1095.7275 17.837813 
L 771.7275 17.837813 
z
" style="fill:none;"/>
   </g>
   <g id="matplotlib.axis_5">
    <g id="xtick_9">
     <g id="line2d_16">
      <g>
       <use style="stroke:#000000;stroke-width:0.8;" x="786.454773" xlink:href="#m1968844279" y="235.277813"/>
      </g>
     </g>
     <g id="text_15">
      <!-- 1 -->
      <g transform="translate(777.547273 265.053438)scale(0.28 -0.28)">
       <use xlink:href="#DejaVuSans-49"/>
      </g>
     </g>
    </g>
    <g id="xtick_10">
     <g id="line2d_17">
      <g>
       <use style="stroke:#000000;stroke-width:0.8;" x="884.636591" xlink:href="#m1968844279" y="235.277813"/>
      </g>
     </g>
     <g id="text_16">
      <!-- 2 -->
      <g transform="translate(875.729091 265.053438)scale(0.28 -0.28)">
       <use xlink:href="#DejaVuSans-50"/>
      </g>
     </g>
    </g>
    <g id="xtick_11">
     <g id="line2d_18">
      <g>
       <use style="stroke:#000000;stroke-width:0.8;" x="982.818409" xlink:href="#m1968844279" y="235.277813"/>
      </g>
     </g>
     <g id="text_17">
      <!-- 3 -->
      <g transform="translate(973.910909 265.053438)scale(0.28 -0.28)">
       <use xlink:href="#DejaVuSans-51"/>
      </g>
     </g>
    </g>
    <g id="xtick_12">
     <g id="line2d_19">
      <g>
       <use style="stroke:#000000;stroke-width:0.8;" x="1081.000227" xlink:href="#m1968844279" y="235.277813"/>
      </g>
     </g>
     <g id="text_18">
      <!-- 4 -->
      <g transform="translate(1072.092727 265.053438)scale(0.28 -0.28)">
       <use xlink:href="#DejaVuSans-52"/>
      </g>
     </g>
    </g>
    <g id="text_19">
     <!-- -log10 p-value -->
     <g transform="translate(832.8925 296.152188)scale(0.28 -0.28)">
      <use xlink:href="#DejaVuSans-45"/>
      <use x="36.083984" xlink:href="#DejaVuSans-108"/>
      <use x="63.867188" xlink:href="#DejaVuSans-111"/>
      <use x="125.048828" xlink:href="#DejaVuSans-103"/>
      <use x="188.525391" xlink:href="#DejaVuSans-49"/>
      <use x="252.148438" xlink:href="#DejaVuSans-48"/>
      <use x="315.771484" xlink:href="#DejaVuSans-32"/>
      <use x="347.558594" xlink:href="#DejaVuSans-112"/>
      <use x="411.035156" xlink:href="#DejaVuSans-45"/>
      <use x="447.087891" xlink:href="#DejaVuSans-118"/>
      <use x="506.267578" xlink:href="#DejaVuSans-97"/>
      <use x="567.546875" xlink:href="#DejaVuSans-108"/>
      <use x="595.330078" xlink:href="#DejaVuSans-117"/>
      <use x="658.708984" xlink:href="#DejaVuSans-101"/>
     </g>
    </g>
   </g>
   <g id="matplotlib.axis_6">
    <g id="ytick_7"/>
    <g id="ytick_8"/>
    <g id="ytick_9"/>
   </g>
   <g id="line2d_20">
    <path clip-path="url(#p787672859d)" d="M 786.454773 115.38099 
L 787.436591 115.38099 
L 788.418409 116.735756 
L 793.818409 116.735756 
L 794.800227 118.090523 
L 795.291136 119.445289 
L 799.709318 119.445289 
L 800.200227 120.122672 
L 800.691136 120.122672 
L 801.182045 120.800055 
L 801.672955 120.800055 
L 802.163864 121.477439 
L 802.654773 121.477439 
L 803.145682 122.154822 
L 804.1275 122.154822 
L 804.618409 122.832205 
L 807.563864 122.832205 
L 808.054773 123.509588 
L 810.018409 123.509588 
L 811.982045 126.219121 
L 813.454773 126.219121 
L 813.945682 126.896504 
L 814.436591 126.896504 
L 815.418409 128.25127 
L 818.854773 128.25127 
L 819.345682 128.928654 
L 820.3275 128.928654 
L 820.818409 128.25127 
L 821.309318 128.25127 
L 821.800227 128.928654 
L 824.745682 128.928654 
L 825.236591 129.606037 
L 825.7275 129.606037 
L 826.218409 130.28342 
L 827.200227 130.28342 
L 827.691136 130.960803 
L 829.163864 130.960803 
L 829.654773 130.28342 
L 831.1275 130.28342 
L 831.618409 130.960803 
L 838.000227 130.960803 
L 838.491136 131.638186 
L 838.982045 131.638186 
L 839.963864 132.992953 
L 841.9275 132.992953 
L 842.418409 133.670336 
L 843.400227 133.670336 
L 843.891136 134.347719 
L 845.854773 134.347719 
L 846.345682 133.670336 
L 847.818409 133.670336 
L 848.309318 135.025102 
L 848.800227 135.025102 
L 849.291136 135.702485 
L 850.763864 135.702485 
L 851.254773 136.379869 
L 856.163864 136.379869 
L 856.654773 137.057252 
L 858.1275 137.057252 
L 858.618409 137.734635 
L 859.109318 137.734635 
L 859.600227 138.412018 
L 863.5275 138.412018 
L 864.018409 139.089401 
L 866.472955 139.089401 
L 866.963864 139.766784 
L 868.9275 139.766784 
L 869.418409 140.444168 
L 870.891136 140.444168 
L 871.382045 141.121551 
L 871.872955 141.121551 
L 872.363864 141.798934 
L 872.854773 141.798934 
L 873.345682 142.476317 
L 873.836591 142.476317 
L 874.3275 143.831084 
L 876.782045 143.831084 
L 877.272955 145.18585 
L 882.182045 145.18585 
L 882.672955 145.863233 
L 885.618409 145.863233 
L 886.109318 146.540616 
L 888.563864 146.540616 
L 889.054773 147.217999 
L 889.545682 147.217999 
L 890.036591 148.572766 
L 895.436591 148.572766 
L 895.9275 149.250149 
L 901.3275 149.250149 
L 901.818409 149.927532 
L 904.272955 149.927532 
L 904.763864 150.604915 
L 915.072955 150.604915 
L 916.054773 153.314448 
L 916.545682 153.314448 
L 917.036591 153.991831 
L 918.509318 153.991831 
L 919.000227 154.669214 
L 922.436591 154.669214 
L 922.9275 155.346598 
L 923.909318 155.346598 
L 924.400227 156.023981 
L 927.836591 156.023981 
L 928.3275 155.346598 
L 930.782045 155.346598 
L 931.272955 156.023981 
L 932.745682 156.023981 
L 933.236591 157.378747 
L 935.691136 157.378747 
L 936.182045 159.410897 
L 937.163864 159.410897 
L 937.654773 160.08828 
L 938.636591 160.08828 
L 939.1275 160.765663 
L 939.618409 160.765663 
L 940.600227 162.120429 
L 944.5275 162.120429 
L 945.018409 162.797813 
L 946.982045 162.797813 
L 947.472955 163.475196 
L 949.9275 163.475196 
L 950.418409 164.829962 
L 950.909318 164.829962 
L 951.400227 165.507345 
L 952.872955 165.507345 
L 953.363864 166.184728 
L 973.000227 166.184728 
L 973.491136 166.862112 
L 992.145682 166.862112 
L 992.636591 168.216878 
L 994.600227 168.216878 
L 995.091136 168.894261 
L 1004.418409 168.894261 
L 1004.909318 169.571644 
L 1012.272955 169.571644 
L 1012.763864 170.249027 
L 1016.691136 170.249027 
L 1017.182045 170.926411 
L 1021.600227 170.926411 
L 1022.091136 171.603794 
L 1027.491136 171.603794 
L 1027.982045 172.95856 
L 1033.872955 172.95856 
L 1034.363864 173.635943 
L 1041.7275 173.635943 
L 1042.218409 174.99071 
L 1051.054773 174.99071 
L 1051.545682 177.700242 
L 1063.3275 177.700242 
L 1063.818409 180.409775 
L 1081.000227 180.409775 
L 1081.000227 180.409775 
" style="fill:none;stroke:#8b0000;stroke-linecap:square;stroke-width:2;"/>
   </g>
   <g id="line2d_21">
    <path clip-path="url(#p787672859d)" d="M 786.454773 116.058373 
L 787.436591 116.058373 
L 788.418409 114.703607 
L 793.818409 114.703607 
L 794.309318 114.026224 
L 794.800227 114.703607 
L 799.709318 114.703607 
L 800.200227 114.026224 
L 800.691136 114.026224 
L 801.182045 113.348841 
L 801.672955 113.348841 
L 802.163864 112.671457 
L 802.654773 112.671457 
L 803.145682 111.994074 
L 804.1275 111.994074 
L 804.618409 111.316691 
L 807.563864 111.316691 
L 808.054773 110.639308 
L 810.018409 110.639308 
L 810.509318 111.316691 
L 811.000227 110.639308 
L 811.982045 111.994074 
L 813.454773 111.994074 
L 813.945682 111.316691 
L 814.436591 111.316691 
L 815.418409 109.961925 
L 818.854773 109.961925 
L 819.345682 109.284541 
L 820.3275 109.284541 
L 820.818409 108.607158 
L 821.309318 108.607158 
L 821.800227 109.284541 
L 824.745682 109.284541 
L 825.236591 108.607158 
L 825.7275 108.607158 
L 826.218409 107.929775 
L 827.200227 107.929775 
L 827.691136 107.252392 
L 829.163864 107.252392 
L 829.654773 106.575009 
L 831.1275 106.575009 
L 831.618409 105.897626 
L 838.000227 105.897626 
L 838.491136 106.575009 
L 838.982045 106.575009 
L 839.472955 105.897626 
L 839.963864 106.575009 
L 841.9275 106.575009 
L 842.418409 107.252392 
L 843.400227 107.252392 
L 843.891136 106.575009 
L 845.854773 106.575009 
L 846.345682 105.897626 
L 848.800227 105.897626 
L 849.291136 105.220242 
L 850.763864 105.220242 
L 851.254773 104.542859 
L 856.163864 104.542859 
L 856.654773 105.220242 
L 858.1275 105.220242 
L 858.618409 104.542859 
L 859.109318 104.542859 
L 859.600227 103.865476 
L 863.5275 103.865476 
L 864.018409 103.188093 
L 866.472955 103.188093 
L 866.963864 102.51071 
L 868.9275 102.51071 
L 869.418409 101.833327 
L 870.891136 101.833327 
L 871.382045 101.155943 
L 871.872955 101.155943 
L 872.363864 100.47856 
L 872.854773 100.47856 
L 873.345682 99.801177 
L 876.782045 99.801177 
L 877.272955 98.446411 
L 882.182045 98.446411 
L 882.672955 97.769027 
L 885.618409 97.769027 
L 886.109318 97.091644 
L 888.563864 97.091644 
L 889.054773 97.769027 
L 895.436591 97.769027 
L 895.9275 97.091644 
L 901.3275 97.091644 
L 901.818409 96.414261 
L 904.272955 96.414261 
L 904.763864 95.736878 
L 916.545682 95.736878 
L 917.036591 96.414261 
L 918.509318 96.414261 
L 919.000227 95.736878 
L 922.436591 95.736878 
L 922.9275 95.059495 
L 923.909318 95.059495 
L 924.400227 94.382112 
L 927.836591 94.382112 
L 928.3275 93.704728 
L 930.782045 93.704728 
L 931.272955 93.027345 
L 932.745682 93.027345 
L 933.236591 91.672579 
L 935.691136 91.672579 
L 936.182045 89.640429 
L 937.163864 89.640429 
L 937.654773 90.317813 
L 938.636591 90.317813 
L 939.1275 89.640429 
L 939.618409 89.640429 
L 940.109318 88.963046 
L 940.600227 89.640429 
L 944.5275 89.640429 
L 945.018409 90.317813 
L 946.982045 90.317813 
L 947.472955 89.640429 
L 950.909318 89.640429 
L 951.400227 90.317813 
L 952.872955 90.317813 
L 953.363864 89.640429 
L 973.000227 89.640429 
L 973.491136 88.963046 
L 992.145682 88.963046 
L 992.636591 87.60828 
L 994.600227 87.60828 
L 995.091136 86.930897 
L 1004.418409 86.930897 
L 1004.909318 87.60828 
L 1012.272955 87.60828 
L 1012.763864 86.930897 
L 1016.691136 86.930897 
L 1017.182045 87.60828 
L 1021.600227 87.60828 
L 1022.091136 88.285663 
L 1033.872955 88.285663 
L 1034.363864 87.60828 
L 1041.7275 87.60828 
L 1042.218409 86.253513 
L 1051.054773 86.253513 
L 1051.545682 84.898747 
L 1063.3275 84.898747 
L 1063.818409 86.253513 
L 1081.000227 86.253513 
L 1081.000227 86.253513 
" style="fill:none;stroke:#000080;stroke-linecap:square;stroke-width:2;"/>
   </g>
   <g id="patch_9">
    <path d="M 771.7275 235.277813 
L 771.7275 17.837813 
" style="fill:none;stroke:#000000;stroke-linecap:square;stroke-linejoin:miter;"/>
   </g>
   <g id="patch_10">
    <path d="M 771.7275 235.277813 
L 1095.7275 235.277813 
" style="fill:none;stroke:#000000;stroke-linecap:square;stroke-linejoin:miter;"/>
   </g>
  </g>
 </g>
 <defs>
  <clipPath id="p07e23869e9">
   <rect height="217.44" width="324" x="91.3275" y="17.837813"/>
  </clipPath>
  <clipPath id="p125e0e1f68">
   <rect height="217.44" width="324" x="431.5275" y="17.837813"/>
  </clipPath>
  <clipPath id="p787672859d">
   <rect height="217.44" width="324" x="771.7275" y="17.837813"/>
  </clipPath>
 </defs>
</svg>
