<?xml version="1.0" encoding="utf-8" standalone="no"?>
<!DOCTYPE svg PUBLIC "-//W3C//DTD SVG 1.1//EN"
  "http://www.w3.org/Graphics/SVG/1.1/DTD/svg11.dtd">
<!-- Created with matplotlib (https://matplotlib.org/) -->
<svg height="352.8975pt" version="1.1" viewBox="0 0 1076.21375 352.8975" width="1076.21375pt" xmlns="http://www.w3.org/2000/svg" xmlns:xlink="http://www.w3.org/1999/xlink">
 <defs>
  <style type="text/css">
*{stroke-linecap:butt;stroke-linejoin:round;}
  </style>
 </defs>
 <g id="figure_1">
  <g id="patch_1">
   <path d="M 0 352.8975 
L 1076.21375 352.8975 
L 1076.21375 0 
L 0 0 
z
" style="fill:none;"/>
  </g>
  <g id="axes_1">
   <g id="patch_2">
    <path d="M 64.61375 279 
L 388.61375 279 
L 388.61375 7.2 
L 64.61375 7.2 
z
" style="fill:none;"/>
   </g>
   <g id="matplotlib.axis_1">
    <g id="xtick_1">
     <g id="line2d_1">
      <defs>
       <path d="M 0 0 
L 0 5 
" id="maa53cbca17" style="stroke:#000000;stroke-width:0.8;"/>
      </defs>
      <g>
       <use style="stroke:#000000;stroke-width:0.8;" x="79.341023" xlink:href="#maa53cbca17" y="279"/>
      </g>
     </g>
     <g id="text_1">
      <!-- 1 -->
      <defs>
       <path d="M 12.40625 8.296875 
L 28.515625 8.296875 
L 28.515625 63.921875 
L 10.984375 60.40625 
L 10.984375 69.390625 
L 28.421875 72.90625 
L 38.28125 72.90625 
L 38.28125 8.296875 
L 54.390625 8.296875 
L 54.390625 0 
L 12.40625 0 
z
" id="DejaVuSans-49"/>
      </defs>
      <g transform="translate(70.433523 308.775625)scale(0.28 -0.28)">
       <use xlink:href="#DejaVuSans-49"/>
      </g>
     </g>
    </g>
    <g id="xtick_2">
     <g id="line2d_2">
      <g>
       <use style="stroke:#000000;stroke-width:0.8;" x="152.977386" xlink:href="#maa53cbca17" y="279"/>
      </g>
     </g>
     <g id="text_2">
      <!-- 2 -->
      <defs>
       <path d="M 19.1875 8.296875 
L 53.609375 8.296875 
L 53.609375 0 
L 7.328125 0 
L 7.328125 8.296875 
Q 12.9375 14.109375 22.625 23.890625 
Q 32.328125 33.6875 34.8125 36.53125 
Q 39.546875 41.84375 41.421875 45.53125 
Q 43.3125 49.21875 43.3125 52.78125 
Q 43.3125 58.59375 39.234375 62.25 
Q 35.15625 65.921875 28.609375 65.921875 
Q 23.96875 65.921875 18.8125 64.3125 
Q 13.671875 62.703125 7.8125 59.421875 
L 7.8125 69.390625 
Q 13.765625 71.78125 18.9375 73 
Q 24.125 74.21875 28.421875 74.21875 
Q 39.75 74.21875 46.484375 68.546875 
Q 53.21875 62.890625 53.21875 53.421875 
Q 53.21875 48.921875 51.53125 44.890625 
Q 49.859375 40.875 45.40625 35.40625 
Q 44.1875 33.984375 37.640625 27.21875 
Q 31.109375 20.453125 19.1875 8.296875 
z
" id="DejaVuSans-50"/>
      </defs>
      <g transform="translate(144.069886 308.775625)scale(0.28 -0.28)">
       <use xlink:href="#DejaVuSans-50"/>
      </g>
     </g>
    </g>
    <g id="xtick_3">
     <g id="line2d_3">
      <g>
       <use style="stroke:#000000;stroke-width:0.8;" x="226.61375" xlink:href="#maa53cbca17" y="279"/>
      </g>
     </g>
     <g id="text_3">
      <!-- 3 -->
      <defs>
       <path d="M 40.578125 39.3125 
Q 47.65625 37.796875 51.625 33 
Q 55.609375 28.21875 55.609375 21.1875 
Q 55.609375 10.40625 48.1875 4.484375 
Q 40.765625 -1.421875 27.09375 -1.421875 
Q 22.515625 -1.421875 17.65625 -0.515625 
Q 12.796875 0.390625 7.625 2.203125 
L 7.625 11.71875 
Q 11.71875 9.328125 16.59375 8.109375 
Q 21.484375 6.890625 26.8125 6.890625 
Q 36.078125 6.890625 40.9375 10.546875 
Q 45.796875 14.203125 45.796875 21.1875 
Q 45.796875 27.640625 41.28125 31.265625 
Q 36.765625 34.90625 28.71875 34.90625 
L 20.21875 34.90625 
L 20.21875 43.015625 
L 29.109375 43.015625 
Q 36.375 43.015625 40.234375 45.921875 
Q 44.09375 48.828125 44.09375 54.296875 
Q 44.09375 59.90625 40.109375 62.90625 
Q 36.140625 65.921875 28.71875 65.921875 
Q 24.65625 65.921875 20.015625 65.03125 
Q 15.375 64.15625 9.8125 62.3125 
L 9.8125 71.09375 
Q 15.4375 72.65625 20.34375 73.4375 
Q 25.25 74.21875 29.59375 74.21875 
Q 40.828125 74.21875 47.359375 69.109375 
Q 53.90625 64.015625 53.90625 55.328125 
Q 53.90625 49.265625 50.4375 45.09375 
Q 46.96875 40.921875 40.578125 39.3125 
z
" id="DejaVuSans-51"/>
      </defs>
      <g transform="translate(217.70625 308.775625)scale(0.28 -0.28)">
       <use xlink:href="#DejaVuSans-51"/>
      </g>
     </g>
    </g>
    <g id="xtick_4">
     <g id="line2d_4">
      <g>
       <use style="stroke:#000000;stroke-width:0.8;" x="300.250114" xlink:href="#maa53cbca17" y="279"/>
      </g>
     </g>
     <g id="text_4">
      <!-- 4 -->
      <defs>
       <path d="M 37.796875 64.3125 
L 12.890625 25.390625 
L 37.796875 25.390625 
z
M 35.203125 72.90625 
L 47.609375 72.90625 
L 47.609375 25.390625 
L 58.015625 25.390625 
L 58.015625 17.1875 
L 47.609375 17.1875 
L 47.609375 0 
L 37.796875 0 
L 37.796875 17.1875 
L 4.890625 17.1875 
L 4.890625 26.703125 
z
" id="DejaVuSans-52"/>
      </defs>
      <g transform="translate(291.342614 308.775625)scale(0.28 -0.28)">
       <use xlink:href="#DejaVuSans-52"/>
      </g>
     </g>
    </g>
    <g id="xtick_5">
     <g id="line2d_5">
      <g>
       <use style="stroke:#000000;stroke-width:0.8;" x="373.886477" xlink:href="#maa53cbca17" y="279"/>
      </g>
     </g>
     <g id="text_5">
      <!-- 5 -->
      <defs>
       <path d="M 10.796875 72.90625 
L 49.515625 72.90625 
L 49.515625 64.59375 
L 19.828125 64.59375 
L 19.828125 46.734375 
Q 21.96875 47.46875 24.109375 47.828125 
Q 26.265625 48.1875 28.421875 48.1875 
Q 40.625 48.1875 47.75 41.5 
Q 54.890625 34.8125 54.890625 23.390625 
Q 54.890625 11.625 47.5625 5.09375 
Q 40.234375 -1.421875 26.90625 -1.421875 
Q 22.3125 -1.421875 17.546875 -0.640625 
Q 12.796875 0.140625 7.71875 1.703125 
L 7.71875 11.625 
Q 12.109375 9.234375 16.796875 8.0625 
Q 21.484375 6.890625 26.703125 6.890625 
Q 35.15625 6.890625 40.078125 11.328125 
Q 45.015625 15.765625 45.015625 23.390625 
Q 45.015625 31 40.078125 35.4375 
Q 35.15625 39.890625 26.703125 39.890625 
Q 22.75 39.890625 18.8125 39.015625 
Q 14.890625 38.140625 10.796875 36.28125 
z
" id="DejaVuSans-53"/>
      </defs>
      <g transform="translate(364.978977 308.775625)scale(0.28 -0.28)">
       <use xlink:href="#DejaVuSans-53"/>
      </g>
     </g>
    </g>
    <g id="text_6">
     <!-- -log10 p-value -->
     <defs>
      <path d="M 4.890625 31.390625 
L 31.203125 31.390625 
L 31.203125 23.390625 
L 4.890625 23.390625 
z
" id="DejaVuSans-45"/>
      <path d="M 9.421875 75.984375 
L 18.40625 75.984375 
L 18.40625 0 
L 9.421875 0 
z
" id="DejaVuSans-108"/>
      <path d="M 30.609375 48.390625 
Q 23.390625 48.390625 19.1875 42.75 
Q 14.984375 37.109375 14.984375 27.296875 
Q 14.984375 17.484375 19.15625 11.84375 
Q 23.34375 6.203125 30.609375 6.203125 
Q 37.796875 6.203125 41.984375 11.859375 
Q 46.1875 17.53125 46.1875 27.296875 
Q 46.1875 37.015625 41.984375 42.703125 
Q 37.796875 48.390625 30.609375 48.390625 
z
M 30.609375 56 
Q 42.328125 56 49.015625 48.375 
Q 55.71875 40.765625 55.71875 27.296875 
Q 55.71875 13.875 49.015625 6.21875 
Q 42.328125 -1.421875 30.609375 -1.421875 
Q 18.84375 -1.421875 12.171875 6.21875 
Q 5.515625 13.875 5.515625 27.296875 
Q 5.515625 40.765625 12.171875 48.375 
Q 18.84375 56 30.609375 56 
z
" id="DejaVuSans-111"/>
      <path d="M 45.40625 27.984375 
Q 45.40625 37.75 41.375 43.109375 
Q 37.359375 48.484375 30.078125 48.484375 
Q 22.859375 48.484375 18.828125 43.109375 
Q 14.796875 37.75 14.796875 27.984375 
Q 14.796875 18.265625 18.828125 12.890625 
Q 22.859375 7.515625 30.078125 7.515625 
Q 37.359375 7.515625 41.375 12.890625 
Q 45.40625 18.265625 45.40625 27.984375 
z
M 54.390625 6.78125 
Q 54.390625 -7.171875 48.1875 -13.984375 
Q 42 -20.796875 29.203125 -20.796875 
Q 24.46875 -20.796875 20.265625 -20.09375 
Q 16.0625 -19.390625 12.109375 -17.921875 
L 12.109375 -9.1875 
Q 16.0625 -11.328125 19.921875 -12.34375 
Q 23.78125 -13.375 27.78125 -13.375 
Q 36.625 -13.375 41.015625 -8.765625 
Q 45.40625 -4.15625 45.40625 5.171875 
L 45.40625 9.625 
Q 42.625 4.78125 38.28125 2.390625 
Q 33.9375 0 27.875 0 
Q 17.828125 0 11.671875 7.65625 
Q 5.515625 15.328125 5.515625 27.984375 
Q 5.515625 40.671875 11.671875 48.328125 
Q 17.828125 56 27.875 56 
Q 33.9375 56 38.28125 53.609375 
Q 42.625 51.21875 45.40625 46.390625 
L 45.40625 54.6875 
L 54.390625 54.6875 
z
" id="DejaVuSans-103"/>
      <path d="M 31.78125 66.40625 
Q 24.171875 66.40625 20.328125 58.90625 
Q 16.5 51.421875 16.5 36.375 
Q 16.5 21.390625 20.328125 13.890625 
Q 24.171875 6.390625 31.78125 6.390625 
Q 39.453125 6.390625 43.28125 13.890625 
Q 47.125 21.390625 47.125 36.375 
Q 47.125 51.421875 43.28125 58.90625 
Q 39.453125 66.40625 31.78125 66.40625 
z
M 31.78125 74.21875 
Q 44.046875 74.21875 50.515625 64.515625 
Q 56.984375 54.828125 56.984375 36.375 
Q 56.984375 17.96875 50.515625 8.265625 
Q 44.046875 -1.421875 31.78125 -1.421875 
Q 19.53125 -1.421875 13.0625 8.265625 
Q 6.59375 17.96875 6.59375 36.375 
Q 6.59375 54.828125 13.0625 64.515625 
Q 19.53125 74.21875 31.78125 74.21875 
z
" id="DejaVuSans-48"/>
      <path id="DejaVuSans-32"/>
      <path d="M 18.109375 8.203125 
L 18.109375 -20.796875 
L 9.078125 -20.796875 
L 9.078125 54.6875 
L 18.109375 54.6875 
L 18.109375 46.390625 
Q 20.953125 51.265625 25.265625 53.625 
Q 29.59375 56 35.59375 56 
Q 45.5625 56 51.78125 48.09375 
Q 58.015625 40.1875 58.015625 27.296875 
Q 58.015625 14.40625 51.78125 6.484375 
Q 45.5625 -1.421875 35.59375 -1.421875 
Q 29.59375 -1.421875 25.265625 0.953125 
Q 20.953125 3.328125 18.109375 8.203125 
z
M 48.6875 27.296875 
Q 48.6875 37.203125 44.609375 42.84375 
Q 40.53125 48.484375 33.40625 48.484375 
Q 26.265625 48.484375 22.1875 42.84375 
Q 18.109375 37.203125 18.109375 27.296875 
Q 18.109375 17.390625 22.1875 11.75 
Q 26.265625 6.109375 33.40625 6.109375 
Q 40.53125 6.109375 44.609375 11.75 
Q 48.6875 17.390625 48.6875 27.296875 
z
" id="DejaVuSans-112"/>
      <path d="M 2.984375 54.6875 
L 12.5 54.6875 
L 29.59375 8.796875 
L 46.6875 54.6875 
L 56.203125 54.6875 
L 35.6875 0 
L 23.484375 0 
z
" id="DejaVuSans-118"/>
      <path d="M 34.28125 27.484375 
Q 23.390625 27.484375 19.1875 25 
Q 14.984375 22.515625 14.984375 16.5 
Q 14.984375 11.71875 18.140625 8.90625 
Q 21.296875 6.109375 26.703125 6.109375 
Q 34.1875 6.109375 38.703125 11.40625 
Q 43.21875 16.703125 43.21875 25.484375 
L 43.21875 27.484375 
z
M 52.203125 31.203125 
L 52.203125 0 
L 43.21875 0 
L 43.21875 8.296875 
Q 40.140625 3.328125 35.546875 0.953125 
Q 30.953125 -1.421875 24.3125 -1.421875 
Q 15.921875 -1.421875 10.953125 3.296875 
Q 6 8.015625 6 15.921875 
Q 6 25.140625 12.171875 29.828125 
Q 18.359375 34.515625 30.609375 34.515625 
L 43.21875 34.515625 
L 43.21875 35.40625 
Q 43.21875 41.609375 39.140625 45 
Q 35.0625 48.390625 27.6875 48.390625 
Q 23 48.390625 18.546875 47.265625 
Q 14.109375 46.140625 10.015625 43.890625 
L 10.015625 52.203125 
Q 14.9375 54.109375 19.578125 55.046875 
Q 24.21875 56 28.609375 56 
Q 40.484375 56 46.34375 49.84375 
Q 52.203125 43.703125 52.203125 31.203125 
z
" id="DejaVuSans-97"/>
      <path d="M 8.5 21.578125 
L 8.5 54.6875 
L 17.484375 54.6875 
L 17.484375 21.921875 
Q 17.484375 14.15625 20.5 10.265625 
Q 23.53125 6.390625 29.59375 6.390625 
Q 36.859375 6.390625 41.078125 11.03125 
Q 45.3125 15.671875 45.3125 23.6875 
L 45.3125 54.6875 
L 54.296875 54.6875 
L 54.296875 0 
L 45.3125 0 
L 45.3125 8.40625 
Q 42.046875 3.421875 37.71875 1 
Q 33.40625 -1.421875 27.6875 -1.421875 
Q 18.265625 -1.421875 13.375 4.4375 
Q 8.5 10.296875 8.5 21.578125 
z
M 31.109375 56 
z
" id="DejaVuSans-117"/>
      <path d="M 56.203125 29.59375 
L 56.203125 25.203125 
L 14.890625 25.203125 
Q 15.484375 15.921875 20.484375 11.0625 
Q 25.484375 6.203125 34.421875 6.203125 
Q 39.59375 6.203125 44.453125 7.46875 
Q 49.3125 8.734375 54.109375 11.28125 
L 54.109375 2.78125 
Q 49.265625 0.734375 44.1875 -0.34375 
Q 39.109375 -1.421875 33.890625 -1.421875 
Q 20.796875 -1.421875 13.15625 6.1875 
Q 5.515625 13.8125 5.515625 26.8125 
Q 5.515625 40.234375 12.765625 48.109375 
Q 20.015625 56 32.328125 56 
Q 43.359375 56 49.78125 48.890625 
Q 56.203125 41.796875 56.203125 29.59375 
z
M 47.21875 32.234375 
Q 47.125 39.59375 43.09375 43.984375 
Q 39.0625 48.390625 32.421875 48.390625 
Q 24.90625 48.390625 20.390625 44.140625 
Q 15.875 39.890625 15.1875 32.171875 
z
" id="DejaVuSans-101"/>
     </defs>
     <g transform="translate(125.77875 339.874375)scale(0.28 -0.28)">
      <use xlink:href="#DejaVuSans-45"/>
      <use x="36.083984" xlink:href="#DejaVuSans-108"/>
      <use x="63.867188" xlink:href="#DejaVuSans-111"/>
      <use x="125.048828" xlink:href="#DejaVuSans-103"/>
      <use x="188.525391" xlink:href="#DejaVuSans-49"/>
      <use x="252.148438" xlink:href="#DejaVuSans-48"/>
      <use x="315.771484" xlink:href="#DejaVuSans-32"/>
      <use x="347.558594" xlink:href="#DejaVuSans-112"/>
      <use x="411.035156" xlink:href="#DejaVuSans-45"/>
      <use x="447.087891" xlink:href="#DejaVuSans-118"/>
      <use x="506.267578" xlink:href="#DejaVuSans-97"/>
      <use x="567.546875" xlink:href="#DejaVuSans-108"/>
      <use x="595.330078" xlink:href="#DejaVuSans-117"/>
      <use x="658.708984" xlink:href="#DejaVuSans-101"/>
     </g>
    </g>
   </g>
   <g id="matplotlib.axis_2">
    <g id="ytick_1">
     <g id="line2d_6">
      <defs>
       <path d="M 0 0 
L -5 0 
" id="m3a6d25c5c5" style="stroke:#000000;stroke-width:0.8;"/>
      </defs>
      <g>
       <use style="stroke:#000000;stroke-width:0.8;" x="64.61375" xlink:href="#m3a6d25c5c5" y="262.0125"/>
      </g>
     </g>
     <g id="text_7">
      <!-- 1 -->
      <g transform="translate(38.29875 272.650312)scale(0.28 -0.28)">
       <use xlink:href="#DejaVuSans-49"/>
      </g>
     </g>
    </g>
    <g id="ytick_2">
     <g id="line2d_7">
      <g>
       <use style="stroke:#000000;stroke-width:0.8;" x="64.61375" xlink:href="#m3a6d25c5c5" y="148.7625"/>
      </g>
     </g>
     <g id="text_8">
      <!-- 2 -->
      <g transform="translate(38.29875 159.400312)scale(0.28 -0.28)">
       <use xlink:href="#DejaVuSans-50"/>
      </g>
     </g>
    </g>
    <g id="ytick_3">
     <g id="line2d_8">
      <g>
       <use style="stroke:#000000;stroke-width:0.8;" x="64.61375" xlink:href="#m3a6d25c5c5" y="35.5125"/>
      </g>
     </g>
     <g id="text_9">
      <!-- 3 -->
      <g transform="translate(38.29875 46.150312)scale(0.28 -0.28)">
       <use xlink:href="#DejaVuSans-51"/>
      </g>
     </g>
    </g>
    <g id="text_10">
     <!-- fold enrichment -->
     <defs>
      <path d="M 37.109375 75.984375 
L 37.109375 68.5 
L 28.515625 68.5 
Q 23.6875 68.5 21.796875 66.546875 
Q 19.921875 64.59375 19.921875 59.515625 
L 19.921875 54.6875 
L 34.71875 54.6875 
L 34.71875 47.703125 
L 19.921875 47.703125 
L 19.921875 0 
L 10.890625 0 
L 10.890625 47.703125 
L 2.296875 47.703125 
L 2.296875 54.6875 
L 10.890625 54.6875 
L 10.890625 58.5 
Q 10.890625 67.625 15.140625 71.796875 
Q 19.390625 75.984375 28.609375 75.984375 
z
" id="DejaVuSans-102"/>
      <path d="M 45.40625 46.390625 
L 45.40625 75.984375 
L 54.390625 75.984375 
L 54.390625 0 
L 45.40625 0 
L 45.40625 8.203125 
Q 42.578125 3.328125 38.25 0.953125 
Q 33.9375 -1.421875 27.875 -1.421875 
Q 17.96875 -1.421875 11.734375 6.484375 
Q 5.515625 14.40625 5.515625 27.296875 
Q 5.515625 40.1875 11.734375 48.09375 
Q 17.96875 56 27.875 56 
Q 33.9375 56 38.25 53.625 
Q 42.578125 51.265625 45.40625 46.390625 
z
M 14.796875 27.296875 
Q 14.796875 17.390625 18.875 11.75 
Q 22.953125 6.109375 30.078125 6.109375 
Q 37.203125 6.109375 41.296875 11.75 
Q 45.40625 17.390625 45.40625 27.296875 
Q 45.40625 37.203125 41.296875 42.84375 
Q 37.203125 48.484375 30.078125 48.484375 
Q 22.953125 48.484375 18.875 42.84375 
Q 14.796875 37.203125 14.796875 27.296875 
z
" id="DejaVuSans-100"/>
      <path d="M 54.890625 33.015625 
L 54.890625 0 
L 45.90625 0 
L 45.90625 32.71875 
Q 45.90625 40.484375 42.875 44.328125 
Q 39.84375 48.1875 33.796875 48.1875 
Q 26.515625 48.1875 22.3125 43.546875 
Q 18.109375 38.921875 18.109375 30.90625 
L 18.109375 0 
L 9.078125 0 
L 9.078125 54.6875 
L 18.109375 54.6875 
L 18.109375 46.1875 
Q 21.34375 51.125 25.703125 53.5625 
Q 30.078125 56 35.796875 56 
Q 45.21875 56 50.046875 50.171875 
Q 54.890625 44.34375 54.890625 33.015625 
z
" id="DejaVuSans-110"/>
      <path d="M 41.109375 46.296875 
Q 39.59375 47.171875 37.8125 47.578125 
Q 36.03125 48 33.890625 48 
Q 26.265625 48 22.1875 43.046875 
Q 18.109375 38.09375 18.109375 28.8125 
L 18.109375 0 
L 9.078125 0 
L 9.078125 54.6875 
L 18.109375 54.6875 
L 18.109375 46.1875 
Q 20.953125 51.171875 25.484375 53.578125 
Q 30.03125 56 36.53125 56 
Q 37.453125 56 38.578125 55.875 
Q 39.703125 55.765625 41.0625 55.515625 
z
" id="DejaVuSans-114"/>
      <path d="M 9.421875 54.6875 
L 18.40625 54.6875 
L 18.40625 0 
L 9.421875 0 
z
M 9.421875 75.984375 
L 18.40625 75.984375 
L 18.40625 64.59375 
L 9.421875 64.59375 
z
" id="DejaVuSans-105"/>
      <path d="M 48.78125 52.59375 
L 48.78125 44.1875 
Q 44.96875 46.296875 41.140625 47.34375 
Q 37.3125 48.390625 33.40625 48.390625 
Q 24.65625 48.390625 19.8125 42.84375 
Q 14.984375 37.3125 14.984375 27.296875 
Q 14.984375 17.28125 19.8125 11.734375 
Q 24.65625 6.203125 33.40625 6.203125 
Q 37.3125 6.203125 41.140625 7.25 
Q 44.96875 8.296875 48.78125 10.40625 
L 48.78125 2.09375 
Q 45.015625 0.34375 40.984375 -0.53125 
Q 36.96875 -1.421875 32.421875 -1.421875 
Q 20.0625 -1.421875 12.78125 6.34375 
Q 5.515625 14.109375 5.515625 27.296875 
Q 5.515625 40.671875 12.859375 48.328125 
Q 20.21875 56 33.015625 56 
Q 37.15625 56 41.109375 55.140625 
Q 45.0625 54.296875 48.78125 52.59375 
z
" id="DejaVuSans-99"/>
      <path d="M 54.890625 33.015625 
L 54.890625 0 
L 45.90625 0 
L 45.90625 32.71875 
Q 45.90625 40.484375 42.875 44.328125 
Q 39.84375 48.1875 33.796875 48.1875 
Q 26.515625 48.1875 22.3125 43.546875 
Q 18.109375 38.921875 18.109375 30.90625 
L 18.109375 0 
L 9.078125 0 
L 9.078125 75.984375 
L 18.109375 75.984375 
L 18.109375 46.1875 
Q 21.34375 51.125 25.703125 53.5625 
Q 30.078125 56 35.796875 56 
Q 45.21875 56 50.046875 50.171875 
Q 54.890625 44.34375 54.890625 33.015625 
z
" id="DejaVuSans-104"/>
      <path d="M 52 44.1875 
Q 55.375 50.25 60.0625 53.125 
Q 64.75 56 71.09375 56 
Q 79.640625 56 84.28125 50.015625 
Q 88.921875 44.046875 88.921875 33.015625 
L 88.921875 0 
L 79.890625 0 
L 79.890625 32.71875 
Q 79.890625 40.578125 77.09375 44.375 
Q 74.3125 48.1875 68.609375 48.1875 
Q 61.625 48.1875 57.5625 43.546875 
Q 53.515625 38.921875 53.515625 30.90625 
L 53.515625 0 
L 44.484375 0 
L 44.484375 32.71875 
Q 44.484375 40.625 41.703125 44.40625 
Q 38.921875 48.1875 33.109375 48.1875 
Q 26.21875 48.1875 22.15625 43.53125 
Q 18.109375 38.875 18.109375 30.90625 
L 18.109375 0 
L 9.078125 0 
L 9.078125 54.6875 
L 18.109375 54.6875 
L 18.109375 46.1875 
Q 21.1875 51.21875 25.484375 53.609375 
Q 29.78125 56 35.6875 56 
Q 41.65625 56 45.828125 52.96875 
Q 50 49.953125 52 44.1875 
z
" id="DejaVuSans-109"/>
      <path d="M 18.3125 70.21875 
L 18.3125 54.6875 
L 36.8125 54.6875 
L 36.8125 47.703125 
L 18.3125 47.703125 
L 18.3125 18.015625 
Q 18.3125 11.328125 20.140625 9.421875 
Q 21.96875 7.515625 27.59375 7.515625 
L 36.8125 7.515625 
L 36.8125 0 
L 27.59375 0 
Q 17.1875 0 13.234375 3.875 
Q 9.28125 7.765625 9.28125 18.015625 
L 9.28125 47.703125 
L 2.6875 47.703125 
L 2.6875 54.6875 
L 9.28125 54.6875 
L 9.28125 70.21875 
z
" id="DejaVuSans-116"/>
     </defs>
     <g transform="translate(28.475625 254.135312)rotate(-90)scale(0.28 -0.28)">
      <use xlink:href="#DejaVuSans-102"/>
      <use x="35.205078" xlink:href="#DejaVuSans-111"/>
      <use x="96.386719" xlink:href="#DejaVuSans-108"/>
      <use x="124.169922" xlink:href="#DejaVuSans-100"/>
      <use x="187.646484" xlink:href="#DejaVuSans-32"/>
      <use x="219.433594" xlink:href="#DejaVuSans-101"/>
      <use x="280.957031" xlink:href="#DejaVuSans-110"/>
      <use x="344.335938" xlink:href="#DejaVuSans-114"/>
      <use x="385.449219" xlink:href="#DejaVuSans-105"/>
      <use x="413.232422" xlink:href="#DejaVuSans-99"/>
      <use x="468.212891" xlink:href="#DejaVuSans-104"/>
      <use x="531.591797" xlink:href="#DejaVuSans-109"/>
      <use x="629.003906" xlink:href="#DejaVuSans-101"/>
      <use x="690.527344" xlink:href="#DejaVuSans-110"/>
      <use x="753.90625" xlink:href="#DejaVuSans-116"/>
     </g>
    </g>
   </g>
   <g id="line2d_9">
    <path clip-path="url(#p3f91440dc9)" d="M 79.341023 210.445346 
L 80.077386 209.313878 
L 80.81375 208.933262 
L 82.286477 206.612389 
L 83.022841 209.894118 
L 83.759205 208.33771 
L 84.495568 210.10411 
L 85.231932 208.516049 
L 85.968295 206.075857 
L 86.704659 205.24651 
L 88.177386 204.408993 
L 88.91375 206.63063 
L 89.650114 205.78747 
L 90.386477 207.207931 
L 91.122841 206.780312 
L 91.859205 205.484295 
L 92.595568 205.047847 
L 93.331932 203.279383 
L 94.068295 201.92873 
L 94.804659 201.92873 
L 95.541023 201.473786 
L 96.277386 205.165163 
L 97.01375 204.265177 
L 97.750114 203.811603 
L 98.486477 201.972988 
L 99.222841 205.745091 
L 99.959205 202.966117 
L 101.431932 202.966117 
L 102.904659 200.094511 
L 103.641023 199.115918 
L 105.850114 197.627356 
L 106.586477 205.070874 
L 107.322841 204.585997 
L 108.059205 202.618545 
L 108.795568 201.61771 
L 109.531932 201.112929 
L 110.268295 201.112929 
L 111.741023 199.064111 
L 112.477386 206.35051 
L 113.21375 205.339061 
L 113.950114 204.828781 
L 115.422841 211.343831 
L 116.159205 210.335101 
L 117.631932 207.233018 
L 119.104659 205.09931 
L 119.841023 203.463126 
L 120.577386 206.35051 
L 121.31375 205.24651 
L 122.050114 207.659905 
L 123.522841 206.538818 
L 124.259205 206.538818 
L 124.995568 205.972631 
L 125.731932 205.972631 
L 126.468295 204.828781 
L 127.204659 204.251039 
L 127.941023 204.251039 
L 128.677386 202.494072 
L 129.41375 201.900366 
L 130.150114 201.900366 
L 130.886477 200.700628 
L 131.622841 204.977242 
L 132.359205 204.381839 
L 133.095568 208.729552 
L 133.831932 206.35051 
L 135.304659 205.135316 
L 136.041023 203.90251 
L 137.51375 202.651708 
L 138.250114 202.651708 
L 138.986477 202.019434 
L 140.459205 202.019434 
L 141.195568 201.382511 
L 141.931932 201.382511 
L 142.668295 200.094511 
L 143.404659 198.126331 
L 146.350114 198.126331 
L 147.086477 194.74587 
L 147.822841 193.35728 
L 148.559205 192.654943 
L 149.295568 189.790511 
L 150.031932 189.790511 
L 150.768295 188.324329 
L 151.504659 187.582511 
L 152.241023 186.081071 
L 152.977386 185.321307 
L 153.71375 182.220226 
L 154.450114 179.82714 
L 155.186477 179.82714 
L 156.659205 178.198512 
L 158.131932 178.198512 
L 159.604659 176.542512 
L 161.077386 173.145589 
L 162.550114 171.403202 
L 163.286477 169.630512 
L 164.022841 172.966725 
L 165.495568 172.966725 
L 166.231932 172.067632 
L 167.704659 172.067632 
L 168.441023 177.314817 
L 169.177386 176.423161 
L 169.91375 174.61553 
L 171.386477 172.774732 
L 172.122841 172.774732 
L 172.859205 171.841609 
L 175.068295 171.841609 
L 176.541023 169.949322 
L 177.277386 168.021498 
L 178.01375 167.043947 
L 178.750114 173.528749 
L 179.486477 172.568112 
L 180.222841 178.198512 
L 180.959205 177.246512 
L 181.695568 177.246512 
L 182.431932 175.314649 
L 183.904659 187.954155 
L 184.641023 187.954155 
L 186.11375 186.081071 
L 186.850114 186.081071 
L 187.586477 185.130411 
L 189.059205 185.130411 
L 191.268295 182.220226 
L 192.004659 182.220226 
L 192.741023 181.230266 
L 193.477386 179.219569 
L 194.21375 179.219569 
L 195.686477 177.166763 
L 196.422841 177.166763 
L 200.104659 171.841609 
L 203.050114 171.841609 
L 203.786477 170.742037 
L 206.731932 170.742037 
L 207.468295 169.630512 
L 208.204659 169.630512 
L 208.941023 174.932258 
L 209.677386 172.693931 
L 211.150114 170.405021 
L 211.886477 170.405021 
L 212.622841 169.241058 
L 213.359205 169.241058 
L 214.095568 168.063793 
L 214.831932 168.063793 
L 215.568295 175.933409 
L 216.304659 175.933409 
L 217.041023 174.781217 
L 217.777386 174.781217 
L 218.51375 173.615628 
L 219.250114 168.814512 
L 219.986477 168.814512 
L 220.722841 177.018488 
L 221.459205 177.018488 
L 222.195568 185.321307 
L 223.668295 185.321307 
L 225.141023 183.004951 
L 225.877386 183.004951 
L 227.350114 178.198512 
L 228.086477 176.959116 
L 228.822841 176.959116 
L 229.559205 174.432958 
L 230.295568 174.432958 
L 231.031932 173.145589 
L 231.768295 173.145589 
L 232.504659 170.520694 
L 233.241023 178.198512 
L 236.186477 178.198512 
L 236.922841 187.333929 
L 237.659205 186.081071 
L 238.395568 186.081071 
L 239.131932 184.811397 
L 241.341023 184.811397 
L 242.077386 182.220226 
L 242.81375 182.220226 
L 244.286477 179.557574 
L 246.495568 179.557574 
L 247.231932 178.198512 
L 248.704659 178.198512 
L 250.177386 175.422963 
L 251.650114 175.422963 
L 253.122841 172.568112 
L 253.859205 172.568112 
L 255.331932 166.606513 
L 256.804659 163.492244 
L 257.541023 158.642544 
L 258.277386 156.976236 
L 259.01375 156.976236 
L 259.750114 164.233347 
L 261.959205 164.233347 
L 262.695568 162.558513 
L 264.168295 162.558513 
L 265.641023 181.429069 
L 266.377386 179.82714 
L 268.586477 179.82714 
L 269.322841 176.542512 
L 273.741023 176.542512 
L 274.477386 174.858444 
L 275.21375 174.858444 
L 275.950114 171.403202 
L 277.422841 171.403202 
L 278.895568 167.826723 
L 281.104659 167.826723 
L 281.841023 164.122513 
L 284.786477 164.122513 
L 285.522841 162.220351 
L 287.731932 162.220351 
L 288.468295 158.31132 
L 290.677386 158.31132 
L 291.41375 170.899846 
L 292.150114 170.899846 
L 292.886477 168.989914 
L 293.622841 168.989914 
L 295.095568 165.060913 
L 298.777386 165.060913 
L 300.250114 160.979328 
L 300.986477 160.979328 
L 301.722841 156.736097 
L 302.459205 170.315952 
L 303.931932 170.315952 
L 304.668295 168.245785 
L 305.404659 168.245785 
L 306.141023 166.13337 
L 307.61375 166.13337 
L 308.350114 163.977399 
L 311.295568 163.977399 
L 312.768295 159.529292 
L 314.977386 159.529292 
L 315.71375 154.889868 
L 318.659205 154.889868 
L 320.131932 150.046514 
L 322.341023 150.046514 
L 323.81375 144.98548 
L 331.177386 144.98548 
L 331.91375 142.368696 
L 334.122841 142.368696 
L 334.859205 139.691756 
L 335.595568 139.691756 
L 336.331932 155.284095 
L 340.750114 155.284095 
L 341.486477 152.696113 
L 345.168295 152.696113 
L 345.904659 150.046514 
L 346.641023 150.046514 
L 347.377386 147.333068 
L 348.11375 147.333068 
L 348.850114 144.553441 
L 358.422841 144.553441 
L 359.159205 138.785714 
L 365.050114 138.785714 
L 365.786477 135.792337 
L 367.995568 135.792337 
L 368.731932 129.572333 
L 370.204659 129.572333 
L 370.941023 123.020595 
L 373.886477 123.020595 
L 373.886477 123.020595 
" style="fill:none;stroke:#8b0000;stroke-linecap:square;stroke-width:2;"/>
   </g>
   <g id="line2d_10">
    <path clip-path="url(#p3f91440dc9)" d="M 79.341023 227.578859 
L 80.077386 226.565013 
L 80.81375 226.223964 
L 81.550114 226.411455 
L 82.286477 225.372959 
L 83.022841 226.255033 
L 83.759205 226.095666 
L 84.495568 225.577726 
L 85.231932 224.138449 
L 85.968295 227.081016 
L 86.704659 226.354637 
L 88.177386 225.6211 
L 88.91375 228.074663 
L 89.650114 228.659471 
L 90.386477 230.449521 
L 91.122841 230.08104 
L 91.859205 230.318873 
L 92.595568 229.946267 
L 93.331932 228.436488 
L 94.068295 227.283404 
L 94.804659 227.283404 
L 95.541023 226.895008 
L 96.277386 227.894828 
L 97.01375 228.512722 
L 97.750114 228.123465 
L 98.486477 226.545566 
L 99.222841 227.565949 
L 99.959205 229.475015 
L 101.431932 229.475015 
L 102.168295 229.72553 
L 102.904659 228.512722 
L 103.641023 227.69289 
L 105.11375 226.863848 
L 105.850114 227.93399 
L 106.586477 229.680049 
L 107.322841 229.265285 
L 108.059205 227.58232 
L 108.795568 226.726203 
L 109.531932 226.294411 
L 110.268295 226.294411 
L 111.741023 224.541845 
L 112.477386 225.89219 
L 113.21375 224.997757 
L 113.950114 224.546511 
L 114.686477 226.378179 
L 115.422841 225.012268 
L 116.159205 224.087651 
L 117.631932 224.556458 
L 119.104659 222.64273 
L 119.841023 221.175233 
L 120.577386 222.604614 
L 121.31375 221.60685 
L 122.050114 220.809577 
L 123.522841 219.776447 
L 124.259205 219.776447 
L 124.995568 219.254682 
L 125.731932 219.254682 
L 126.468295 218.200575 
L 127.204659 217.668162 
L 127.941023 217.668162 
L 128.677386 217.858286 
L 129.41375 217.317378 
L 130.150114 217.317378 
L 130.886477 216.224332 
L 131.622841 216.956816 
L 132.359205 216.403299 
L 133.095568 217.144781 
L 134.568295 219.991767 
L 135.304659 219.433239 
L 136.041023 218.304041 
L 137.51375 217.158359 
L 138.250114 217.158359 
L 138.986477 216.579223 
L 140.459205 216.579223 
L 141.195568 217.938105 
L 141.931932 217.938105 
L 142.668295 220.686067 
L 143.404659 220.927902 
L 146.350114 220.927902 
L 147.086477 224.031812 
L 147.822841 222.868499 
L 148.559205 222.280106 
L 149.295568 219.880382 
L 150.031932 219.880382 
L 150.768295 218.652065 
L 151.504659 218.030595 
L 152.241023 218.885936 
L 152.977386 218.257918 
L 153.71375 217.850901 
L 154.450114 218.082572 
L 155.186477 218.082572 
L 156.659205 216.772739 
L 158.131932 216.772739 
L 158.868295 216.109602 
L 159.604659 217.660637 
L 161.077386 214.966588 
L 162.550114 213.584727 
L 163.286477 214.475786 
L 164.022841 213.967611 
L 165.495568 213.967611 
L 166.231932 213.250745 
L 167.704659 213.250745 
L 168.441023 214.166779 
L 169.177386 213.441123 
L 169.91375 211.970019 
L 170.650114 211.224392 
L 171.386477 212.895314 
L 172.122841 212.895314 
L 172.859205 212.147078 
L 175.068295 212.147078 
L 176.541023 210.629725 
L 177.277386 211.564156 
L 178.01375 210.791994 
L 178.750114 212.5163 
L 179.486477 211.741318 
L 180.222841 212.708899 
L 180.959205 211.923616 
L 181.695568 211.923616 
L 182.431932 210.330066 
L 183.168295 212.111276 
L 183.904659 213.11126 
L 184.641023 213.11126 
L 186.11375 211.489747 
L 186.850114 211.489747 
L 187.586477 210.666769 
L 189.059205 210.666769 
L 190.531932 208.995746 
L 191.268295 210.84285 
L 192.004659 210.84285 
L 192.741023 209.999673 
L 193.477386 211.024406 
L 194.21375 211.024406 
L 195.686477 209.304635 
L 196.422841 209.304635 
L 200.104659 204.843403 
L 203.050114 204.843403 
L 203.786477 203.922218 
L 206.731932 203.922218 
L 207.468295 202.991021 
L 208.941023 203.054473 
L 209.677386 204.081753 
L 211.150114 202.147507 
L 211.886477 202.147507 
L 212.622841 201.163899 
L 213.359205 201.163899 
L 214.095568 203.187903 
L 214.831932 203.187903 
L 215.568295 205.235171 
L 216.304659 205.235171 
L 217.041023 204.252354 
L 217.777386 204.252354 
L 218.51375 203.258109 
L 219.250114 199.162766 
L 219.986477 199.162766 
L 220.722841 201.271745 
L 221.459205 201.271745 
L 222.195568 203.406133 
L 223.668295 203.406133 
L 225.141023 207.752997 
L 225.877386 207.752997 
L 227.350114 210.168999 
L 228.086477 209.130675 
L 228.822841 209.130675 
L 229.559205 207.014346 
L 230.295568 207.014346 
L 231.031932 205.935833 
L 231.768295 205.935833 
L 232.504659 203.736785 
L 233.241023 204.95552 
L 236.186477 204.95552 
L 236.922841 207.32633 
L 237.659205 206.206755 
L 238.395568 206.206755 
L 239.131932 205.072153 
L 241.341023 205.072153 
L 242.077386 202.756638 
L 242.81375 202.756638 
L 244.286477 207.664132 
L 246.495568 207.664132 
L 247.231932 206.500255 
L 248.704659 206.500255 
L 250.177386 204.123322 
L 251.650114 204.123322 
L 253.122841 201.678476 
L 253.859205 201.678476 
L 255.331932 204.34217 
L 256.804659 201.79112 
L 257.541023 201.851312 
L 258.277386 204.581219 
L 259.01375 204.581219 
L 259.750114 204.709214 
L 261.959205 204.709214 
L 262.695568 203.355617 
L 264.168295 203.355617 
L 265.641023 206.379968 
L 266.377386 204.984245 
L 268.586477 204.984245 
L 269.322841 206.561914 
L 273.741023 206.561914 
L 274.477386 205.132248 
L 275.21375 205.132248 
L 275.950114 202.198968 
L 277.422841 202.198968 
L 278.159205 200.694068 
L 278.895568 203.796969 
L 281.104659 203.796969 
L 281.841023 205.452042 
L 284.786477 205.452042 
L 285.522841 208.681671 
L 287.731932 208.681671 
L 288.468295 205.625142 
L 290.677386 205.625142 
L 291.41375 208.946085 
L 292.150114 208.946085 
L 292.886477 207.391725 
L 293.622841 207.391725 
L 295.095568 204.194187 
L 298.777386 204.194187 
L 300.250114 200.872472 
L 300.986477 200.872472 
L 301.722841 197.419204 
L 302.459205 200.923763 
L 303.931932 200.923763 
L 304.668295 204.499122 
L 305.404659 204.499122 
L 306.141023 202.756638 
L 307.61375 202.756638 
L 308.350114 200.978227 
L 311.295568 200.978227 
L 312.031932 204.665883 
L 312.768295 202.870129 
L 314.977386 202.870129 
L 315.71375 199.162766 
L 318.659205 199.162766 
L 319.395568 202.991021 
L 320.131932 201.097928 
L 322.341023 201.097928 
L 323.81375 197.184117 
L 331.177386 197.184117 
L 331.91375 195.160499 
L 334.122841 195.160499 
L 334.859205 193.090361 
L 335.595568 193.090361 
L 336.331932 197.115095 
L 340.750114 197.115095 
L 341.486477 195.019243 
L 345.168295 195.019243 
L 345.904659 192.87349 
L 346.641023 192.87349 
L 347.377386 190.676032 
L 348.11375 190.676032 
L 348.850114 188.424977 
L 358.422841 188.424977 
L 359.159205 183.754039 
L 365.050114 183.754039 
L 365.786477 181.329881 
L 367.995568 181.329881 
L 368.731932 176.292671 
L 370.204659 176.292671 
L 370.941023 178.030798 
L 373.886477 178.030798 
L 373.886477 178.030798 
" style="fill:none;stroke:#000080;stroke-linecap:square;stroke-width:2;"/>
   </g>
   <g id="line2d_11">
    <path clip-path="url(#p3f91440dc9)" d="M 79.341023 262.0125 
L 373.886477 262.0125 
" style="fill:none;stroke:#0000ff;stroke-dasharray:3.7,1.6;stroke-dashoffset:0;"/>
   </g>
   <g id="patch_3">
    <path d="M 64.61375 279 
L 64.61375 7.2 
" style="fill:none;stroke:#000000;stroke-linecap:square;stroke-linejoin:miter;"/>
   </g>
   <g id="patch_4">
    <path d="M 64.61375 279 
L 388.61375 279 
" style="fill:none;stroke:#000000;stroke-linecap:square;stroke-linejoin:miter;"/>
   </g>
  </g>
  <g id="axes_2">
   <g id="patch_5">
    <path d="M 404.81375 279 
L 728.81375 279 
L 728.81375 7.2 
L 404.81375 7.2 
z
" style="fill:none;"/>
   </g>
   <g id="matplotlib.axis_3">
    <g id="xtick_6">
     <g id="line2d_12">
      <g>
       <use style="stroke:#000000;stroke-width:0.8;" x="419.541023" xlink:href="#maa53cbca17" y="279"/>
      </g>
     </g>
     <g id="text_11">
      <!-- 1 -->
      <g transform="translate(410.633523 308.775625)scale(0.28 -0.28)">
       <use xlink:href="#DejaVuSans-49"/>
      </g>
     </g>
    </g>
    <g id="xtick_7">
     <g id="line2d_13">
      <g>
       <use style="stroke:#000000;stroke-width:0.8;" x="493.177386" xlink:href="#maa53cbca17" y="279"/>
      </g>
     </g>
     <g id="text_12">
      <!-- 2 -->
      <g transform="translate(484.269886 308.775625)scale(0.28 -0.28)">
       <use xlink:href="#DejaVuSans-50"/>
      </g>
     </g>
    </g>
    <g id="xtick_8">
     <g id="line2d_14">
      <g>
       <use style="stroke:#000000;stroke-width:0.8;" x="566.81375" xlink:href="#maa53cbca17" y="279"/>
      </g>
     </g>
     <g id="text_13">
      <!-- 3 -->
      <g transform="translate(557.90625 308.775625)scale(0.28 -0.28)">
       <use xlink:href="#DejaVuSans-51"/>
      </g>
     </g>
    </g>
    <g id="xtick_9">
     <g id="line2d_15">
      <g>
       <use style="stroke:#000000;stroke-width:0.8;" x="640.450114" xlink:href="#maa53cbca17" y="279"/>
      </g>
     </g>
     <g id="text_14">
      <!-- 4 -->
      <g transform="translate(631.542614 308.775625)scale(0.28 -0.28)">
       <use xlink:href="#DejaVuSans-52"/>
      </g>
     </g>
    </g>
    <g id="xtick_10">
     <g id="line2d_16">
      <g>
       <use style="stroke:#000000;stroke-width:0.8;" x="714.086477" xlink:href="#maa53cbca17" y="279"/>
      </g>
     </g>
     <g id="text_15">
      <!-- 5 -->
      <g transform="translate(705.178977 308.775625)scale(0.28 -0.28)">
       <use xlink:href="#DejaVuSans-53"/>
      </g>
     </g>
    </g>
    <g id="text_16">
     <!-- -log10 p-value -->
     <g transform="translate(465.97875 339.874375)scale(0.28 -0.28)">
      <use xlink:href="#DejaVuSans-45"/>
      <use x="36.083984" xlink:href="#DejaVuSans-108"/>
      <use x="63.867188" xlink:href="#DejaVuSans-111"/>
      <use x="125.048828" xlink:href="#DejaVuSans-103"/>
      <use x="188.525391" xlink:href="#DejaVuSans-49"/>
      <use x="252.148438" xlink:href="#DejaVuSans-48"/>
      <use x="315.771484" xlink:href="#DejaVuSans-32"/>
      <use x="347.558594" xlink:href="#DejaVuSans-112"/>
      <use x="411.035156" xlink:href="#DejaVuSans-45"/>
      <use x="447.087891" xlink:href="#DejaVuSans-118"/>
      <use x="506.267578" xlink:href="#DejaVuSans-97"/>
      <use x="567.546875" xlink:href="#DejaVuSans-108"/>
      <use x="595.330078" xlink:href="#DejaVuSans-117"/>
      <use x="658.708984" xlink:href="#DejaVuSans-101"/>
     </g>
    </g>
   </g>
   <g id="matplotlib.axis_4">
    <g id="ytick_4"/>
    <g id="ytick_5"/>
    <g id="ytick_6"/>
   </g>
   <g id="line2d_17">
    <path clip-path="url(#p4956ca3252)" d="M 419.541023 219.65169 
L 420.277386 219.65169 
L 421.01375 220.882873 
L 421.750114 220.882873 
L 422.486477 219.354362 
L 423.222841 220.607195 
L 423.959205 220.320265 
L 424.695568 220.320265 
L 425.431932 218.722922 
L 426.168295 220.02138 
L 426.904659 220.02138 
L 427.641023 216.718377 
L 428.377386 218.037166 
L 429.11375 218.037166 
L 429.850114 214.581664 
L 430.586477 212.796321 
L 431.322841 214.130313 
L 432.059205 213.658211 
L 434.268295 213.658211 
L 435.004659 209.855757 
L 435.741023 207.886629 
L 436.477386 203.804291 
L 437.21375 201.687523 
L 437.950114 201.687523 
L 438.686477 197.293219 
L 441.631932 202.798402 
L 443.104659 205.777234 
L 445.31375 205.777234 
L 446.050114 208.923888 
L 446.786477 208.923888 
L 447.522841 206.547622 
L 448.259205 207.386999 
L 448.995568 202.221599 
L 450.468295 202.221599 
L 451.204659 203.911452 
L 455.622841 203.911452 
L 456.359205 201.191594 
L 457.095568 202.919345 
L 457.831932 200.094047 
L 459.304659 200.094047 
L 460.041023 197.174573 
L 461.51375 200.729868 
L 462.250114 200.729868 
L 462.986477 202.601075 
L 463.722841 202.601075 
L 464.459205 204.539111 
L 465.195568 204.539111 
L 465.931932 206.547622 
L 467.404659 206.547622 
L 468.141023 205.486522 
L 468.877386 207.629128 
L 470.350114 207.629128 
L 471.086477 204.342199 
L 477.71375 204.342199 
L 478.450114 206.547622 
L 479.186477 205.375991 
L 479.922841 205.375991 
L 480.659205 207.744181 
L 481.395568 204.102479 
L 482.131932 206.547622 
L 482.868295 206.547622 
L 483.604659 202.713193 
L 484.341023 202.713193 
L 485.077386 198.700418 
L 487.286477 198.700418 
L 488.022841 194.496559 
L 488.759205 196.945962 
L 489.495568 196.945962 
L 490.231932 190.268116 
L 491.704659 195.612398 
L 496.122841 195.612398 
L 496.859205 201.58542 
L 497.595568 201.58542 
L 498.331932 204.843431 
L 505.695568 204.843431 
L 506.431932 208.305069 
L 513.059205 208.305069 
L 513.795568 211.990037 
L 525.577386 211.990037 
L 526.31375 215.920671 
L 541.041023 215.920671 
L 541.777386 210.426125 
L 562.395568 210.426125 
L 563.131932 204.539111 
L 569.759205 204.539111 
L 570.495568 208.630522 
L 593.322841 208.630522 
L 594.059205 202.221599 
L 601.422841 202.221599 
L 602.159205 195.299963 
L 605.841023 195.299963 
L 606.577386 204.102479 
L 617.622841 204.102479 
L 618.359205 209.103908 
L 624.986477 209.103908 
L 625.722841 201.191594 
L 626.459205 201.191594 
L 627.195568 206.547622 
L 644.868295 206.547622 
L 645.604659 203.423272 
L 661.804659 203.423272 
L 662.541023 193.315082 
L 663.277386 193.315082 
L 664.01375 199.517835 
L 675.795568 199.517835 
L 676.531932 187.801524 
L 678.741023 187.801524 
L 679.477386 194.496559 
L 680.21375 180.591487 
L 688.31375 180.591487 
L 689.050114 164.368902 
L 700.831932 164.368902 
L 701.568295 178.428476 
L 714.086477 178.428476 
L 714.086477 178.428476 
" style="fill:none;stroke:#8b0000;stroke-linecap:square;stroke-width:2;"/>
   </g>
   <g id="line2d_18">
    <path clip-path="url(#p4956ca3252)" d="M 419.541023 197.191119 
L 420.277386 197.191119 
L 421.01375 204.008044 
L 421.750114 204.008044 
L 423.222841 200.582955 
L 423.959205 197.018066 
L 424.695568 197.018066 
L 426.168295 193.30464 
L 426.904659 193.30464 
L 427.641023 189.433196 
L 428.377386 187.435032 
L 429.11375 187.435032 
L 429.850114 183.306956 
L 430.586477 181.174116 
L 431.322841 188.806805 
L 432.059205 194.559522 
L 434.268295 194.559522 
L 435.004659 190.307687 
L 435.741023 188.105844 
L 436.477386 183.541048 
L 437.21375 181.174116 
L 437.950114 181.174116 
L 438.686477 176.260486 
L 440.895568 168.405144 
L 441.631932 177.292348 
L 443.104659 171.868509 
L 445.31375 171.868509 
L 446.050114 166.139101 
L 446.786477 166.139101 
L 447.522841 163.151623 
L 448.259205 166.689908 
L 448.995568 160.27229 
L 450.468295 160.27229 
L 451.204659 156.913068 
L 455.622841 156.913068 
L 457.831932 146.174572 
L 459.304659 146.174572 
L 461.51375 134.325196 
L 462.250114 134.325196 
L 462.986477 130.098226 
L 463.722841 130.098226 
L 464.459205 125.720292 
L 465.195568 125.720292 
L 465.931932 137.06312 
L 467.404659 137.06312 
L 468.141023 128.074464 
L 468.877386 123.320848 
L 470.350114 123.320848 
L 471.086477 118.380816 
L 477.71375 118.380816 
L 478.450114 113.243182 
L 479.186477 102.32571 
L 479.922841 102.32571 
L 481.395568 90.458893 
L 482.131932 103.538763 
L 482.868295 103.538763 
L 483.604659 97.363223 
L 484.341023 97.363223 
L 485.077386 90.900449 
L 487.286477 90.900449 
L 488.022841 84.129924 
L 488.759205 98.331513 
L 489.495568 98.331513 
L 490.231932 76.468541 
L 491.704659 59.868876 
L 496.122841 59.868876 
L 496.859205 41.31631 
L 497.595568 41.31631 
L 498.331932 31.196729 
L 505.695568 31.196729 
L 506.431932 47.738352 
L 513.059205 47.738352 
L 513.795568 65.347177 
L 525.577386 65.347177 
L 526.31375 55.016667 
L 541.041023 55.016667 
L 541.777386 43.973707 
L 562.395568 43.973707 
L 563.131932 32.141964 
L 569.759205 32.141964 
L 570.495568 51.78186 
L 593.322841 51.78186 
L 594.059205 39.340297 
L 601.422841 39.340297 
L 602.159205 25.903409 
L 605.841023 25.903409 
L 606.577386 33.498172 
L 617.622841 33.498172 
L 618.359205 57.663326 
L 624.986477 57.663326 
L 625.722841 42.539556 
L 626.459205 42.539556 
L 627.195568 69.573295 
L 644.868295 69.573295 
L 645.604659 84.129924 
L 661.804659 84.129924 
L 662.541023 67.004479 
L 663.277386 67.004479 
L 664.01375 102.32571 
L 675.795568 102.32571 
L 676.531932 84.129924 
L 678.741023 84.129924 
L 679.477386 63.33474 
L 680.21375 39.340297 
L 688.31375 39.340297 
L 689.050114 11.34678 
L 700.831932 11.34678 
L 701.568295 25.903409 
L 714.086477 25.903409 
L 714.086477 25.903409 
" style="fill:none;stroke:#000080;stroke-linecap:square;stroke-width:2;"/>
   </g>
   <g id="line2d_19">
    <path clip-path="url(#p4956ca3252)" d="M 419.541023 262.0125 
L 714.086477 262.0125 
" style="fill:none;stroke:#0000ff;stroke-dasharray:3.7,1.6;stroke-dashoffset:0;"/>
   </g>
   <g id="patch_6">
    <path d="M 404.81375 279 
L 404.81375 7.2 
" style="fill:none;stroke:#000000;stroke-linecap:square;stroke-linejoin:miter;"/>
   </g>
   <g id="patch_7">
    <path d="M 404.81375 279 
L 728.81375 279 
" style="fill:none;stroke:#000000;stroke-linecap:square;stroke-linejoin:miter;"/>
   </g>
  </g>
  <g id="axes_3">
   <g id="patch_8">
    <path d="M 745.01375 279 
L 1069.01375 279 
L 1069.01375 7.2 
L 745.01375 7.2 
z
" style="fill:none;"/>
   </g>
   <g id="matplotlib.axis_5">
    <g id="xtick_11">
     <g id="line2d_20">
      <g>
       <use style="stroke:#000000;stroke-width:0.8;" x="759.741023" xlink:href="#maa53cbca17" y="279"/>
      </g>
     </g>
     <g id="text_17">
      <!-- 1 -->
      <g transform="translate(750.833523 308.775625)scale(0.28 -0.28)">
       <use xlink:href="#DejaVuSans-49"/>
      </g>
     </g>
    </g>
    <g id="xtick_12">
     <g id="line2d_21">
      <g>
       <use style="stroke:#000000;stroke-width:0.8;" x="833.377386" xlink:href="#maa53cbca17" y="279"/>
      </g>
     </g>
     <g id="text_18">
      <!-- 2 -->
      <g transform="translate(824.469886 308.775625)scale(0.28 -0.28)">
       <use xlink:href="#DejaVuSans-50"/>
      </g>
     </g>
    </g>
    <g id="xtick_13">
     <g id="line2d_22">
      <g>
       <use style="stroke:#000000;stroke-width:0.8;" x="907.01375" xlink:href="#maa53cbca17" y="279"/>
      </g>
     </g>
     <g id="text_19">
      <!-- 3 -->
      <g transform="translate(898.10625 308.775625)scale(0.28 -0.28)">
       <use xlink:href="#DejaVuSans-51"/>
      </g>
     </g>
    </g>
    <g id="xtick_14">
     <g id="line2d_23">
      <g>
       <use style="stroke:#000000;stroke-width:0.8;" x="980.650114" xlink:href="#maa53cbca17" y="279"/>
      </g>
     </g>
     <g id="text_20">
      <!-- 4 -->
      <g transform="translate(971.742614 308.775625)scale(0.28 -0.28)">
       <use xlink:href="#DejaVuSans-52"/>
      </g>
     </g>
    </g>
    <g id="xtick_15">
     <g id="line2d_24">
      <g>
       <use style="stroke:#000000;stroke-width:0.8;" x="1054.286477" xlink:href="#maa53cbca17" y="279"/>
      </g>
     </g>
     <g id="text_21">
      <!-- 5 -->
      <g transform="translate(1045.378977 308.775625)scale(0.28 -0.28)">
       <use xlink:href="#DejaVuSans-53"/>
      </g>
     </g>
    </g>
    <g id="text_22">
     <!-- -log10 p-value -->
     <g transform="translate(806.17875 339.874375)scale(0.28 -0.28)">
      <use xlink:href="#DejaVuSans-45"/>
      <use x="36.083984" xlink:href="#DejaVuSans-108"/>
      <use x="63.867188" xlink:href="#DejaVuSans-111"/>
      <use x="125.048828" xlink:href="#DejaVuSans-103"/>
      <use x="188.525391" xlink:href="#DejaVuSans-49"/>
      <use x="252.148438" xlink:href="#DejaVuSans-48"/>
      <use x="315.771484" xlink:href="#DejaVuSans-32"/>
      <use x="347.558594" xlink:href="#DejaVuSans-112"/>
      <use x="411.035156" xlink:href="#DejaVuSans-45"/>
      <use x="447.087891" xlink:href="#DejaVuSans-118"/>
      <use x="506.267578" xlink:href="#DejaVuSans-97"/>
      <use x="567.546875" xlink:href="#DejaVuSans-108"/>
      <use x="595.330078" xlink:href="#DejaVuSans-117"/>
      <use x="658.708984" xlink:href="#DejaVuSans-101"/>
     </g>
    </g>
   </g>
   <g id="matplotlib.axis_6">
    <g id="ytick_7"/>
    <g id="ytick_8"/>
    <g id="ytick_9"/>
   </g>
   <g id="line2d_25">
    <path clip-path="url(#p48bec6f6b4)" d="M 759.741023 259.28134 
L 761.950114 259.3932 
L 767.104659 259.463715 
L 770.786477 259.562008 
L 775.941023 259.639145 
L 776.677386 258.933402 
L 778.886477 258.978284 
L 781.831932 259.047978 
L 782.568295 258.223761 
L 786.986477 258.336842 
L 792.877386 258.376803 
L 793.61375 257.505136 
L 802.450114 257.59277 
L 805.395568 257.65602 
L 806.131932 256.675966 
L 821.595568 256.747147 
L 825.277386 256.76656 
L 826.01375 255.679441 
L 1054.286477 255.679441 
L 1054.286477 255.679441 
" style="fill:none;stroke:#8b0000;stroke-linecap:square;stroke-width:2;"/>
   </g>
   <g id="line2d_26">
    <path clip-path="url(#p48bec6f6b4)" d="M 759.741023 232.546343 
L 760.477386 229.919666 
L 761.21375 229.919666 
L 761.950114 228.114164 
L 762.686477 227.194487 
L 764.895568 227.194487 
L 765.631932 226.263242 
L 766.368295 227.905421 
L 767.841023 227.905421 
L 770.786477 224.077964 
L 771.522841 225.759526 
L 772.259205 225.759526 
L 772.995568 224.775954 
L 774.468295 224.775954 
L 775.204659 223.779354 
L 775.941023 223.779354 
L 776.677386 225.21469 
L 777.41375 225.962054 
L 780.359205 225.962054 
L 781.095568 227.761798 
L 781.831932 225.684323 
L 782.568295 224.623485 
L 783.304659 225.394603 
L 784.041023 225.394603 
L 784.777386 227.268484 
L 785.51375 226.188236 
L 786.250114 228.09551 
L 786.986477 227.005384 
L 788.459205 227.005384 
L 789.195568 224.775954 
L 792.877386 224.775954 
L 793.61375 225.596491 
L 798.031932 225.596491 
L 798.768295 224.445214 
L 799.504659 226.442471 
L 800.977386 226.442471 
L 801.71375 222.899137 
L 802.450114 221.68023 
L 803.186477 222.503799 
L 803.922841 222.503799 
L 806.868295 217.369053 
L 807.604659 217.369053 
L 808.341023 216.030973 
L 809.81375 216.030973 
L 810.550114 214.670019 
L 811.286477 215.428963 
L 812.022841 214.026915 
L 815.704659 214.026915 
L 816.441023 211.147708 
L 823.804659 211.147708 
L 825.277386 215.590411 
L 826.01375 214.12553 
L 826.750114 214.12553 
L 827.486477 212.633521 
L 828.222841 209.565049 
L 828.959205 209.565049 
L 829.695568 210.306093 
L 830.431932 212.67024 
L 831.904659 212.67024 
L 832.641023 211.076198 
L 834.11375 211.076198 
L 834.850114 207.792472 
L 836.322841 207.792472 
L 837.059205 210.226749 
L 837.795568 211.034914 
L 838.531932 209.32421 
L 840.741023 209.32421 
L 841.477386 205.793608 
L 842.21375 208.363442 
L 842.950114 208.363442 
L 843.686477 206.549322 
L 844.422841 206.549322 
L 845.159205 204.695331 
L 846.631932 204.695331 
L 847.368295 207.338624 
L 851.786477 207.338624 
L 852.522841 205.451838 
L 855.468295 205.451838 
L 856.204659 203.522172 
L 858.41375 203.522172 
L 859.150114 206.243128 
L 859.886477 204.277786 
L 861.359205 204.277786 
L 862.095568 202.266201 
L 862.831932 202.266201 
L 863.568295 205.069382 
L 865.041023 205.069382 
L 865.777386 203.018863 
L 869.459205 203.018863 
L 870.195568 203.808692 
L 870.931932 203.808692 
L 871.668295 201.66552 
L 877.559205 201.66552 
L 878.295568 204.638513 
L 879.031932 202.451026 
L 879.768295 205.511442 
L 881.241023 200.984747 
L 886.395568 200.984747 
L 887.868295 207.400795 
L 888.604659 207.400795 
L 889.341023 205.069382 
L 894.495568 205.069382 
L 895.231932 208.425303 
L 898.177386 208.425303 
L 898.91375 206.041914 
L 911.431932 206.041914 
L 912.904659 213.07847 
L 917.322841 213.07847 
L 918.059205 216.754283 
L 923.21375 216.754283 
L 923.950114 214.352643 
L 925.422841 214.352643 
L 926.159205 211.877107 
L 929.104659 211.877107 
L 930.577386 206.690269 
L 932.050114 206.690269 
L 932.786477 203.971362 
L 933.522841 203.971362 
L 934.259205 201.16331 
L 940.886477 201.16331 
L 941.622841 205.069382 
L 942.359205 205.069382 
L 943.095568 202.184753 
L 951.931932 202.184753 
L 952.668295 206.243128 
L 953.404659 206.243128 
L 954.141023 210.443902 
L 965.922841 210.443902 
L 966.659205 207.500712 
L 970.341023 207.500712 
L 971.077386 211.877107 
L 972.550114 211.877107 
L 973.286477 208.851451 
L 976.231932 208.851451 
L 976.968295 213.418478 
L 982.859205 213.418478 
L 984.331932 207.071654 
L 993.168295 207.071654 
L 993.904659 211.877107 
L 994.641023 208.542711 
L 1001.268295 208.542711 
L 1002.004659 205.069382 
L 1007.159205 205.069382 
L 1007.895568 201.448252 
L 1013.786477 201.448252 
L 1014.522841 197.669681 
L 1021.886477 197.669681 
L 1022.622841 193.723174 
L 1036.61375 193.723174 
L 1037.350114 198.880541 
L 1048.395568 198.880541 
L 1049.131932 194.778635 
L 1050.604659 194.778635 
L 1051.341023 190.4814 
L 1054.286477 190.4814 
L 1054.286477 190.4814 
" style="fill:none;stroke:#000080;stroke-linecap:square;stroke-width:2;"/>
   </g>
   <g id="line2d_27">
    <path clip-path="url(#p48bec6f6b4)" d="M 759.741023 262.0125 
L 1054.286477 262.0125 
" style="fill:none;stroke:#0000ff;stroke-dasharray:3.7,1.6;stroke-dashoffset:0;"/>
   </g>
   <g id="patch_9">
    <path d="M 745.01375 279 
L 745.01375 7.2 
" style="fill:none;stroke:#000000;stroke-linecap:square;stroke-linejoin:miter;"/>
   </g>
   <g id="patch_10">
    <path d="M 745.01375 279 
L 1069.01375 279 
" style="fill:none;stroke:#000000;stroke-linecap:square;stroke-linejoin:miter;"/>
   </g>
  </g>
 </g>
 <defs>
  <clipPath id="p3f91440dc9">
   <rect height="271.8" width="324" x="64.61375" y="7.2"/>
  </clipPath>
  <clipPath id="p4956ca3252">
   <rect height="271.8" width="324" x="404.81375" y="7.2"/>
  </clipPath>
  <clipPath id="p48bec6f6b4">
   <rect height="271.8" width="324" x="745.01375" y="7.2"/>
  </clipPath>
 </defs>
</svg>
