<?xml version="1.0" encoding="utf-8" standalone="no"?>
<!DOCTYPE svg PUBLIC "-//W3C//DTD SVG 1.1//EN"
  "http://www.w3.org/Graphics/SVG/1.1/DTD/svg11.dtd">
<!-- Created with matplotlib (https://matplotlib.org/) -->
<svg height="353.937187pt" version="1.1" viewBox="0 0 1076.21375 353.937187" width="1076.21375pt" xmlns="http://www.w3.org/2000/svg" xmlns:xlink="http://www.w3.org/1999/xlink">
 <defs>
  <style type="text/css">
*{stroke-linecap:butt;stroke-linejoin:round;}
  </style>
 </defs>
 <g id="figure_1">
  <g id="patch_1">
   <path d="M 0 353.937187 
L 1076.21375 353.937187 
L 1076.21375 0 
L 0 0 
z
" style="fill:none;"/>
  </g>
  <g id="axes_1">
   <g id="patch_2">
    <path d="M 64.61375 280.039688 
L 388.61375 280.039688 
L 388.61375 8.239688 
L 64.61375 8.239688 
z
" style="fill:none;"/>
   </g>
   <g id="matplotlib.axis_1">
    <g id="xtick_1">
     <g id="line2d_1">
      <defs>
       <path d="M 0 0 
L 0 5 
" id="mba3623c5c7" style="stroke:#000000;stroke-width:0.8;"/>
      </defs>
      <g>
       <use style="stroke:#000000;stroke-width:0.8;" x="79.341023" xlink:href="#mba3623c5c7" y="280.039688"/>
      </g>
     </g>
     <g id="text_1">
      <!-- 1 -->
      <defs>
       <path d="M 12.40625 8.296875 
L 28.515625 8.296875 
L 28.515625 63.921875 
L 10.984375 60.40625 
L 10.984375 69.390625 
L 28.421875 72.90625 
L 38.28125 72.90625 
L 38.28125 8.296875 
L 54.390625 8.296875 
L 54.390625 0 
L 12.40625 0 
z
" id="DejaVuSans-49"/>
      </defs>
      <g transform="translate(70.433523 309.815313)scale(0.28 -0.28)">
       <use xlink:href="#DejaVuSans-49"/>
      </g>
     </g>
    </g>
    <g id="xtick_2">
     <g id="line2d_2">
      <g>
       <use style="stroke:#000000;stroke-width:0.8;" x="177.522841" xlink:href="#mba3623c5c7" y="280.039688"/>
      </g>
     </g>
     <g id="text_2">
      <!-- 2 -->
      <defs>
       <path d="M 19.1875 8.296875 
L 53.609375 8.296875 
L 53.609375 0 
L 7.328125 0 
L 7.328125 8.296875 
Q 12.9375 14.109375 22.625 23.890625 
Q 32.328125 33.6875 34.8125 36.53125 
Q 39.546875 41.84375 41.421875 45.53125 
Q 43.3125 49.21875 43.3125 52.78125 
Q 43.3125 58.59375 39.234375 62.25 
Q 35.15625 65.921875 28.609375 65.921875 
Q 23.96875 65.921875 18.8125 64.3125 
Q 13.671875 62.703125 7.8125 59.421875 
L 7.8125 69.390625 
Q 13.765625 71.78125 18.9375 73 
Q 24.125 74.21875 28.421875 74.21875 
Q 39.75 74.21875 46.484375 68.546875 
Q 53.21875 62.890625 53.21875 53.421875 
Q 53.21875 48.921875 51.53125 44.890625 
Q 49.859375 40.875 45.40625 35.40625 
Q 44.1875 33.984375 37.640625 27.21875 
Q 31.109375 20.453125 19.1875 8.296875 
z
" id="DejaVuSans-50"/>
      </defs>
      <g transform="translate(168.615341 309.815313)scale(0.28 -0.28)">
       <use xlink:href="#DejaVuSans-50"/>
      </g>
     </g>
    </g>
    <g id="xtick_3">
     <g id="line2d_3">
      <g>
       <use style="stroke:#000000;stroke-width:0.8;" x="275.704659" xlink:href="#mba3623c5c7" y="280.039688"/>
      </g>
     </g>
     <g id="text_3">
      <!-- 3 -->
      <defs>
       <path d="M 40.578125 39.3125 
Q 47.65625 37.796875 51.625 33 
Q 55.609375 28.21875 55.609375 21.1875 
Q 55.609375 10.40625 48.1875 4.484375 
Q 40.765625 -1.421875 27.09375 -1.421875 
Q 22.515625 -1.421875 17.65625 -0.515625 
Q 12.796875 0.390625 7.625 2.203125 
L 7.625 11.71875 
Q 11.71875 9.328125 16.59375 8.109375 
Q 21.484375 6.890625 26.8125 6.890625 
Q 36.078125 6.890625 40.9375 10.546875 
Q 45.796875 14.203125 45.796875 21.1875 
Q 45.796875 27.640625 41.28125 31.265625 
Q 36.765625 34.90625 28.71875 34.90625 
L 20.21875 34.90625 
L 20.21875 43.015625 
L 29.109375 43.015625 
Q 36.375 43.015625 40.234375 45.921875 
Q 44.09375 48.828125 44.09375 54.296875 
Q 44.09375 59.90625 40.109375 62.90625 
Q 36.140625 65.921875 28.71875 65.921875 
Q 24.65625 65.921875 20.015625 65.03125 
Q 15.375 64.15625 9.8125 62.3125 
L 9.8125 71.09375 
Q 15.4375 72.65625 20.34375 73.4375 
Q 25.25 74.21875 29.59375 74.21875 
Q 40.828125 74.21875 47.359375 69.109375 
Q 53.90625 64.015625 53.90625 55.328125 
Q 53.90625 49.265625 50.4375 45.09375 
Q 46.96875 40.921875 40.578125 39.3125 
z
" id="DejaVuSans-51"/>
      </defs>
      <g transform="translate(266.797159 309.815313)scale(0.28 -0.28)">
       <use xlink:href="#DejaVuSans-51"/>
      </g>
     </g>
    </g>
    <g id="xtick_4">
     <g id="line2d_4">
      <g>
       <use style="stroke:#000000;stroke-width:0.8;" x="373.886477" xlink:href="#mba3623c5c7" y="280.039688"/>
      </g>
     </g>
     <g id="text_4">
      <!-- 4 -->
      <defs>
       <path d="M 37.796875 64.3125 
L 12.890625 25.390625 
L 37.796875 25.390625 
z
M 35.203125 72.90625 
L 47.609375 72.90625 
L 47.609375 25.390625 
L 58.015625 25.390625 
L 58.015625 17.1875 
L 47.609375 17.1875 
L 47.609375 0 
L 37.796875 0 
L 37.796875 17.1875 
L 4.890625 17.1875 
L 4.890625 26.703125 
z
" id="DejaVuSans-52"/>
      </defs>
      <g transform="translate(364.978977 309.815313)scale(0.28 -0.28)">
       <use xlink:href="#DejaVuSans-52"/>
      </g>
     </g>
    </g>
    <g id="text_5">
     <!-- -log10 p-value -->
     <defs>
      <path d="M 4.890625 31.390625 
L 31.203125 31.390625 
L 31.203125 23.390625 
L 4.890625 23.390625 
z
" id="DejaVuSans-45"/>
      <path d="M 9.421875 75.984375 
L 18.40625 75.984375 
L 18.40625 0 
L 9.421875 0 
z
" id="DejaVuSans-108"/>
      <path d="M 30.609375 48.390625 
Q 23.390625 48.390625 19.1875 42.75 
Q 14.984375 37.109375 14.984375 27.296875 
Q 14.984375 17.484375 19.15625 11.84375 
Q 23.34375 6.203125 30.609375 6.203125 
Q 37.796875 6.203125 41.984375 11.859375 
Q 46.1875 17.53125 46.1875 27.296875 
Q 46.1875 37.015625 41.984375 42.703125 
Q 37.796875 48.390625 30.609375 48.390625 
z
M 30.609375 56 
Q 42.328125 56 49.015625 48.375 
Q 55.71875 40.765625 55.71875 27.296875 
Q 55.71875 13.875 49.015625 6.21875 
Q 42.328125 -1.421875 30.609375 -1.421875 
Q 18.84375 -1.421875 12.171875 6.21875 
Q 5.515625 13.875 5.515625 27.296875 
Q 5.515625 40.765625 12.171875 48.375 
Q 18.84375 56 30.609375 56 
z
" id="DejaVuSans-111"/>
      <path d="M 45.40625 27.984375 
Q 45.40625 37.75 41.375 43.109375 
Q 37.359375 48.484375 30.078125 48.484375 
Q 22.859375 48.484375 18.828125 43.109375 
Q 14.796875 37.75 14.796875 27.984375 
Q 14.796875 18.265625 18.828125 12.890625 
Q 22.859375 7.515625 30.078125 7.515625 
Q 37.359375 7.515625 41.375 12.890625 
Q 45.40625 18.265625 45.40625 27.984375 
z
M 54.390625 6.78125 
Q 54.390625 -7.171875 48.1875 -13.984375 
Q 42 -20.796875 29.203125 -20.796875 
Q 24.46875 -20.796875 20.265625 -20.09375 
Q 16.0625 -19.390625 12.109375 -17.921875 
L 12.109375 -9.1875 
Q 16.0625 -11.328125 19.921875 -12.34375 
Q 23.78125 -13.375 27.78125 -13.375 
Q 36.625 -13.375 41.015625 -8.765625 
Q 45.40625 -4.15625 45.40625 5.171875 
L 45.40625 9.625 
Q 42.625 4.78125 38.28125 2.390625 
Q 33.9375 0 27.875 0 
Q 17.828125 0 11.671875 7.65625 
Q 5.515625 15.328125 5.515625 27.984375 
Q 5.515625 40.671875 11.671875 48.328125 
Q 17.828125 56 27.875 56 
Q 33.9375 56 38.28125 53.609375 
Q 42.625 51.21875 45.40625 46.390625 
L 45.40625 54.6875 
L 54.390625 54.6875 
z
" id="DejaVuSans-103"/>
      <path d="M 31.78125 66.40625 
Q 24.171875 66.40625 20.328125 58.90625 
Q 16.5 51.421875 16.5 36.375 
Q 16.5 21.390625 20.328125 13.890625 
Q 24.171875 6.390625 31.78125 6.390625 
Q 39.453125 6.390625 43.28125 13.890625 
Q 47.125 21.390625 47.125 36.375 
Q 47.125 51.421875 43.28125 58.90625 
Q 39.453125 66.40625 31.78125 66.40625 
z
M 31.78125 74.21875 
Q 44.046875 74.21875 50.515625 64.515625 
Q 56.984375 54.828125 56.984375 36.375 
Q 56.984375 17.96875 50.515625 8.265625 
Q 44.046875 -1.421875 31.78125 -1.421875 
Q 19.53125 -1.421875 13.0625 8.265625 
Q 6.59375 17.96875 6.59375 36.375 
Q 6.59375 54.828125 13.0625 64.515625 
Q 19.53125 74.21875 31.78125 74.21875 
z
" id="DejaVuSans-48"/>
      <path id="DejaVuSans-32"/>
      <path d="M 18.109375 8.203125 
L 18.109375 -20.796875 
L 9.078125 -20.796875 
L 9.078125 54.6875 
L 18.109375 54.6875 
L 18.109375 46.390625 
Q 20.953125 51.265625 25.265625 53.625 
Q 29.59375 56 35.59375 56 
Q 45.5625 56 51.78125 48.09375 
Q 58.015625 40.1875 58.015625 27.296875 
Q 58.015625 14.40625 51.78125 6.484375 
Q 45.5625 -1.421875 35.59375 -1.421875 
Q 29.59375 -1.421875 25.265625 0.953125 
Q 20.953125 3.328125 18.109375 8.203125 
z
M 48.6875 27.296875 
Q 48.6875 37.203125 44.609375 42.84375 
Q 40.53125 48.484375 33.40625 48.484375 
Q 26.265625 48.484375 22.1875 42.84375 
Q 18.109375 37.203125 18.109375 27.296875 
Q 18.109375 17.390625 22.1875 11.75 
Q 26.265625 6.109375 33.40625 6.109375 
Q 40.53125 6.109375 44.609375 11.75 
Q 48.6875 17.390625 48.6875 27.296875 
z
" id="DejaVuSans-112"/>
      <path d="M 2.984375 54.6875 
L 12.5 54.6875 
L 29.59375 8.796875 
L 46.6875 54.6875 
L 56.203125 54.6875 
L 35.6875 0 
L 23.484375 0 
z
" id="DejaVuSans-118"/>
      <path d="M 34.28125 27.484375 
Q 23.390625 27.484375 19.1875 25 
Q 14.984375 22.515625 14.984375 16.5 
Q 14.984375 11.71875 18.140625 8.90625 
Q 21.296875 6.109375 26.703125 6.109375 
Q 34.1875 6.109375 38.703125 11.40625 
Q 43.21875 16.703125 43.21875 25.484375 
L 43.21875 27.484375 
z
M 52.203125 31.203125 
L 52.203125 0 
L 43.21875 0 
L 43.21875 8.296875 
Q 40.140625 3.328125 35.546875 0.953125 
Q 30.953125 -1.421875 24.3125 -1.421875 
Q 15.921875 -1.421875 10.953125 3.296875 
Q 6 8.015625 6 15.921875 
Q 6 25.140625 12.171875 29.828125 
Q 18.359375 34.515625 30.609375 34.515625 
L 43.21875 34.515625 
L 43.21875 35.40625 
Q 43.21875 41.609375 39.140625 45 
Q 35.0625 48.390625 27.6875 48.390625 
Q 23 48.390625 18.546875 47.265625 
Q 14.109375 46.140625 10.015625 43.890625 
L 10.015625 52.203125 
Q 14.9375 54.109375 19.578125 55.046875 
Q 24.21875 56 28.609375 56 
Q 40.484375 56 46.34375 49.84375 
Q 52.203125 43.703125 52.203125 31.203125 
z
" id="DejaVuSans-97"/>
      <path d="M 8.5 21.578125 
L 8.5 54.6875 
L 17.484375 54.6875 
L 17.484375 21.921875 
Q 17.484375 14.15625 20.5 10.265625 
Q 23.53125 6.390625 29.59375 6.390625 
Q 36.859375 6.390625 41.078125 11.03125 
Q 45.3125 15.671875 45.3125 23.6875 
L 45.3125 54.6875 
L 54.296875 54.6875 
L 54.296875 0 
L 45.3125 0 
L 45.3125 8.40625 
Q 42.046875 3.421875 37.71875 1 
Q 33.40625 -1.421875 27.6875 -1.421875 
Q 18.265625 -1.421875 13.375 4.4375 
Q 8.5 10.296875 8.5 21.578125 
z
M 31.109375 56 
z
" id="DejaVuSans-117"/>
      <path d="M 56.203125 29.59375 
L 56.203125 25.203125 
L 14.890625 25.203125 
Q 15.484375 15.921875 20.484375 11.0625 
Q 25.484375 6.203125 34.421875 6.203125 
Q 39.59375 6.203125 44.453125 7.46875 
Q 49.3125 8.734375 54.109375 11.28125 
L 54.109375 2.78125 
Q 49.265625 0.734375 44.1875 -0.34375 
Q 39.109375 -1.421875 33.890625 -1.421875 
Q 20.796875 -1.421875 13.15625 6.1875 
Q 5.515625 13.8125 5.515625 26.8125 
Q 5.515625 40.234375 12.765625 48.109375 
Q 20.015625 56 32.328125 56 
Q 43.359375 56 49.78125 48.890625 
Q 56.203125 41.796875 56.203125 29.59375 
z
M 47.21875 32.234375 
Q 47.125 39.59375 43.09375 43.984375 
Q 39.0625 48.390625 32.421875 48.390625 
Q 24.90625 48.390625 20.390625 44.140625 
Q 15.875 39.890625 15.1875 32.171875 
z
" id="DejaVuSans-101"/>
     </defs>
     <g transform="translate(125.77875 340.914062)scale(0.28 -0.28)">
      <use xlink:href="#DejaVuSans-45"/>
      <use x="36.083984" xlink:href="#DejaVuSans-108"/>
      <use x="63.867188" xlink:href="#DejaVuSans-111"/>
      <use x="125.048828" xlink:href="#DejaVuSans-103"/>
      <use x="188.525391" xlink:href="#DejaVuSans-49"/>
      <use x="252.148438" xlink:href="#DejaVuSans-48"/>
      <use x="315.771484" xlink:href="#DejaVuSans-32"/>
      <use x="347.558594" xlink:href="#DejaVuSans-112"/>
      <use x="411.035156" xlink:href="#DejaVuSans-45"/>
      <use x="447.087891" xlink:href="#DejaVuSans-118"/>
      <use x="506.267578" xlink:href="#DejaVuSans-97"/>
      <use x="567.546875" xlink:href="#DejaVuSans-108"/>
      <use x="595.330078" xlink:href="#DejaVuSans-117"/>
      <use x="658.708984" xlink:href="#DejaVuSans-101"/>
     </g>
    </g>
   </g>
   <g id="matplotlib.axis_2">
    <g id="ytick_1">
     <g id="line2d_5">
      <defs>
       <path d="M 0 0 
L -5 0 
" id="mdf5218d6c1" style="stroke:#000000;stroke-width:0.8;"/>
      </defs>
      <g>
       <use style="stroke:#000000;stroke-width:0.8;" x="64.61375" xlink:href="#mdf5218d6c1" y="277.348598"/>
      </g>
     </g>
     <g id="text_6">
      <!-- 0 -->
      <g transform="translate(38.29875 287.986411)scale(0.28 -0.28)">
       <use xlink:href="#DejaVuSans-48"/>
      </g>
     </g>
    </g>
    <g id="ytick_2">
     <g id="line2d_6">
      <g>
       <use style="stroke:#000000;stroke-width:0.8;" x="64.61375" xlink:href="#mdf5218d6c1" y="169.705034"/>
      </g>
     </g>
     <g id="text_7">
      <!-- 2 -->
      <g transform="translate(38.29875 180.342847)scale(0.28 -0.28)">
       <use xlink:href="#DejaVuSans-50"/>
      </g>
     </g>
    </g>
    <g id="ytick_3">
     <g id="line2d_7">
      <g>
       <use style="stroke:#000000;stroke-width:0.8;" x="64.61375" xlink:href="#mdf5218d6c1" y="62.06147"/>
      </g>
     </g>
     <g id="text_8">
      <!-- 4 -->
      <g transform="translate(38.29875 72.699282)scale(0.28 -0.28)">
       <use xlink:href="#DejaVuSans-52"/>
      </g>
     </g>
    </g>
    <g id="text_9">
     <!-- enrichment p-value -->
     <defs>
      <path d="M 54.890625 33.015625 
L 54.890625 0 
L 45.90625 0 
L 45.90625 32.71875 
Q 45.90625 40.484375 42.875 44.328125 
Q 39.84375 48.1875 33.796875 48.1875 
Q 26.515625 48.1875 22.3125 43.546875 
Q 18.109375 38.921875 18.109375 30.90625 
L 18.109375 0 
L 9.078125 0 
L 9.078125 54.6875 
L 18.109375 54.6875 
L 18.109375 46.1875 
Q 21.34375 51.125 25.703125 53.5625 
Q 30.078125 56 35.796875 56 
Q 45.21875 56 50.046875 50.171875 
Q 54.890625 44.34375 54.890625 33.015625 
z
" id="DejaVuSans-110"/>
      <path d="M 41.109375 46.296875 
Q 39.59375 47.171875 37.8125 47.578125 
Q 36.03125 48 33.890625 48 
Q 26.265625 48 22.1875 43.046875 
Q 18.109375 38.09375 18.109375 28.8125 
L 18.109375 0 
L 9.078125 0 
L 9.078125 54.6875 
L 18.109375 54.6875 
L 18.109375 46.1875 
Q 20.953125 51.171875 25.484375 53.578125 
Q 30.03125 56 36.53125 56 
Q 37.453125 56 38.578125 55.875 
Q 39.703125 55.765625 41.0625 55.515625 
z
" id="DejaVuSans-114"/>
      <path d="M 9.421875 54.6875 
L 18.40625 54.6875 
L 18.40625 0 
L 9.421875 0 
z
M 9.421875 75.984375 
L 18.40625 75.984375 
L 18.40625 64.59375 
L 9.421875 64.59375 
z
" id="DejaVuSans-105"/>
      <path d="M 48.78125 52.59375 
L 48.78125 44.1875 
Q 44.96875 46.296875 41.140625 47.34375 
Q 37.3125 48.390625 33.40625 48.390625 
Q 24.65625 48.390625 19.8125 42.84375 
Q 14.984375 37.3125 14.984375 27.296875 
Q 14.984375 17.28125 19.8125 11.734375 
Q 24.65625 6.203125 33.40625 6.203125 
Q 37.3125 6.203125 41.140625 7.25 
Q 44.96875 8.296875 48.78125 10.40625 
L 48.78125 2.09375 
Q 45.015625 0.34375 40.984375 -0.53125 
Q 36.96875 -1.421875 32.421875 -1.421875 
Q 20.0625 -1.421875 12.78125 6.34375 
Q 5.515625 14.109375 5.515625 27.296875 
Q 5.515625 40.671875 12.859375 48.328125 
Q 20.21875 56 33.015625 56 
Q 37.15625 56 41.109375 55.140625 
Q 45.0625 54.296875 48.78125 52.59375 
z
" id="DejaVuSans-99"/>
      <path d="M 54.890625 33.015625 
L 54.890625 0 
L 45.90625 0 
L 45.90625 32.71875 
Q 45.90625 40.484375 42.875 44.328125 
Q 39.84375 48.1875 33.796875 48.1875 
Q 26.515625 48.1875 22.3125 43.546875 
Q 18.109375 38.921875 18.109375 30.90625 
L 18.109375 0 
L 9.078125 0 
L 9.078125 75.984375 
L 18.109375 75.984375 
L 18.109375 46.1875 
Q 21.34375 51.125 25.703125 53.5625 
Q 30.078125 56 35.796875 56 
Q 45.21875 56 50.046875 50.171875 
Q 54.890625 44.34375 54.890625 33.015625 
z
" id="DejaVuSans-104"/>
      <path d="M 52 44.1875 
Q 55.375 50.25 60.0625 53.125 
Q 64.75 56 71.09375 56 
Q 79.640625 56 84.28125 50.015625 
Q 88.921875 44.046875 88.921875 33.015625 
L 88.921875 0 
L 79.890625 0 
L 79.890625 32.71875 
Q 79.890625 40.578125 77.09375 44.375 
Q 74.3125 48.1875 68.609375 48.1875 
Q 61.625 48.1875 57.5625 43.546875 
Q 53.515625 38.921875 53.515625 30.90625 
L 53.515625 0 
L 44.484375 0 
L 44.484375 32.71875 
Q 44.484375 40.625 41.703125 44.40625 
Q 38.921875 48.1875 33.109375 48.1875 
Q 26.21875 48.1875 22.15625 43.53125 
Q 18.109375 38.875 18.109375 30.90625 
L 18.109375 0 
L 9.078125 0 
L 9.078125 54.6875 
L 18.109375 54.6875 
L 18.109375 46.1875 
Q 21.1875 51.21875 25.484375 53.609375 
Q 29.78125 56 35.6875 56 
Q 41.65625 56 45.828125 52.96875 
Q 50 49.953125 52 44.1875 
z
" id="DejaVuSans-109"/>
      <path d="M 18.3125 70.21875 
L 18.3125 54.6875 
L 36.8125 54.6875 
L 36.8125 47.703125 
L 18.3125 47.703125 
L 18.3125 18.015625 
Q 18.3125 11.328125 20.140625 9.421875 
Q 21.96875 7.515625 27.59375 7.515625 
L 36.8125 7.515625 
L 36.8125 0 
L 27.59375 0 
Q 17.1875 0 13.234375 3.875 
Q 9.28125 7.765625 9.28125 18.015625 
L 9.28125 47.703125 
L 2.6875 47.703125 
L 2.6875 54.6875 
L 9.28125 54.6875 
L 9.28125 70.21875 
z
" id="DejaVuSans-116"/>
     </defs>
     <g transform="translate(28.475625 281.079375)rotate(-90)scale(0.28 -0.28)">
      <use xlink:href="#DejaVuSans-101"/>
      <use x="61.523438" xlink:href="#DejaVuSans-110"/>
      <use x="124.902344" xlink:href="#DejaVuSans-114"/>
      <use x="166.015625" xlink:href="#DejaVuSans-105"/>
      <use x="193.798828" xlink:href="#DejaVuSans-99"/>
      <use x="248.779297" xlink:href="#DejaVuSans-104"/>
      <use x="312.158203" xlink:href="#DejaVuSans-109"/>
      <use x="409.570312" xlink:href="#DejaVuSans-101"/>
      <use x="471.09375" xlink:href="#DejaVuSans-110"/>
      <use x="534.472656" xlink:href="#DejaVuSans-116"/>
      <use x="573.681641" xlink:href="#DejaVuSans-32"/>
      <use x="605.46875" xlink:href="#DejaVuSans-112"/>
      <use x="668.945312" xlink:href="#DejaVuSans-45"/>
      <use x="704.998047" xlink:href="#DejaVuSans-118"/>
      <use x="764.177734" xlink:href="#DejaVuSans-97"/>
      <use x="825.457031" xlink:href="#DejaVuSans-108"/>
      <use x="853.240234" xlink:href="#DejaVuSans-117"/>
      <use x="916.619141" xlink:href="#DejaVuSans-101"/>
     </g>
    </g>
   </g>
   <g id="line2d_8">
    <path clip-path="url(#pde444638c5)" d="M 79.341023 123.746747 
L 80.322841 117.755257 
L 82.286477 116.626182 
L 121.559205 116.626182 
L 122.541023 122.76237 
L 123.522841 120.097653 
L 124.504659 117.755257 
L 125.486477 117.755257 
L 126.468295 116.626182 
L 140.21375 116.626182 
L 141.195568 117.240657 
L 142.177386 116.626182 
L 147.086477 116.626182 
L 148.068295 117.240657 
L 150.031932 117.240657 
L 151.01375 126.831291 
L 151.995568 140.416377 
L 152.977386 150.375735 
L 153.959205 147.304514 
L 154.941023 146.232471 
L 156.904659 146.232471 
L 157.886477 145.983677 
L 158.868295 145.370066 
L 159.850114 143.515897 
L 160.831932 142.458451 
L 161.81375 141.678289 
L 162.795568 152.879897 
L 163.777386 151.664099 
L 164.759205 149.373907 
L 165.741023 146.232471 
L 166.722841 145.983677 
L 167.704659 145.370066 
L 168.686477 144.296769 
L 169.668295 154.023331 
L 170.650114 152.879897 
L 171.631932 149.373907 
L 172.61375 148.396867 
L 173.595568 148.396867 
L 175.559205 146.232471 
L 176.541023 146.232471 
L 177.522841 145.983677 
L 178.504659 145.370066 
L 179.486477 144.296769 
L 181.450114 138.989967 
L 182.431932 150.338332 
L 183.41375 150.338332 
L 186.359205 147.176399 
L 187.341023 146.232471 
L 188.322841 158.096875 
L 193.231932 158.096875 
L 194.21375 157.178519 
L 198.141023 157.178519 
L 199.122841 154.765676 
L 200.104659 154.765676 
L 201.086477 153.585177 
L 202.068295 148.85698 
L 204.031932 148.85698 
L 205.01375 147.891848 
L 205.995568 145.983677 
L 206.977386 145.983677 
L 207.959205 145.660155 
L 208.941023 143.667843 
L 209.922841 142.518158 
L 210.904659 141.678289 
L 211.886477 140.416377 
L 213.850114 140.416377 
L 215.81375 135.514255 
L 216.795568 133.983255 
L 217.777386 131.784792 
L 218.759205 131.784792 
L 219.741023 129.437535 
L 220.722841 129.437535 
L 221.704659 127.978974 
L 222.686477 127.978974 
L 223.668295 126.78279 
L 225.631932 126.78279 
L 226.61375 124.489897 
L 227.595568 119.125227 
L 228.577386 119.125227 
L 229.559205 117.755257 
L 230.541023 117.755257 
L 231.522841 129.688267 
L 232.504659 127.34545 
L 233.486477 127.34545 
L 234.468295 126.78279 
L 235.450114 125.999875 
L 236.431932 124.489897 
L 237.41375 123.725278 
L 238.395568 122.359225 
L 239.377386 119.125227 
L 240.359205 117.755257 
L 241.341023 117.755257 
L 242.322841 117.075607 
L 243.304659 117.075607 
L 244.286477 116.626182 
L 249.195568 116.626182 
L 250.177386 125.999875 
L 251.159205 124.489897 
L 254.104659 124.489897 
L 255.086477 123.725278 
L 256.068295 122.359225 
L 257.050114 133.445989 
L 258.031932 133.445989 
L 259.01375 130.963174 
L 259.995568 142.436877 
L 260.977386 142.436877 
L 261.959205 153.252155 
L 262.941023 150.388521 
L 263.922841 150.388521 
L 264.904659 145.983677 
L 272.759205 145.983677 
L 273.741023 144.296769 
L 277.668295 144.296769 
L 278.650114 143.477153 
L 279.631932 143.477153 
L 280.61375 142.361494 
L 282.577386 142.361494 
L 283.559205 138.236162 
L 284.541023 138.236162 
L 285.522841 137.102146 
L 287.486477 137.102146 
L 288.468295 133.983255 
L 290.431932 133.983255 
L 291.41375 129.952977 
L 293.377386 129.952977 
L 294.359205 126.78279 
L 297.304659 126.78279 
L 298.286477 137.836996 
L 300.250114 137.836996 
L 301.231932 131.784792 
L 305.159205 131.784792 
L 306.141023 127.901503 
L 309.086477 127.901503 
L 310.068295 126.829076 
L 313.995568 126.829076 
L 314.977386 117.755257 
L 319.886477 117.755257 
L 320.868295 116.626182 
L 373.886477 116.626182 
L 373.886477 116.626182 
" style="fill:none;stroke:#8b0000;stroke-linecap:square;stroke-width:2;"/>
   </g>
   <g id="line2d_9">
    <path clip-path="url(#pde444638c5)" d="M 79.341023 51.285044 
L 80.322841 39.644281 
L 85.231932 39.644281 
L 86.21375 41.384388 
L 87.195568 54.01654 
L 88.177386 57.294311 
L 89.159205 55.683813 
L 91.122841 50.753401 
L 92.104659 39.644281 
L 97.995568 39.644281 
L 98.977386 41.384388 
L 99.959205 58.589599 
L 100.941023 58.589599 
L 101.922841 57.639427 
L 102.904659 57.639427 
L 103.886477 62.422447 
L 104.868295 70.516075 
L 105.850114 67.300153 
L 106.831932 67.300153 
L 107.81375 73.714409 
L 108.795568 72.128094 
L 109.777386 91.455511 
L 110.759205 82.583714 
L 111.741023 79.594714 
L 112.722841 79.594714 
L 113.704659 87.30073 
L 114.686477 84.272673 
L 115.668295 78.603973 
L 116.650114 71.780888 
L 117.631932 77.407485 
L 118.61375 77.407485 
L 119.595568 74.761678 
L 120.577386 70.670646 
L 121.559205 68.693872 
L 122.541023 72.128094 
L 123.522841 68.671256 
L 124.504659 73.644004 
L 125.486477 71.072424 
L 126.468295 65.618515 
L 127.450114 65.618515 
L 128.431932 68.671256 
L 129.41375 82.66121 
L 130.395568 79.688973 
L 131.377386 72.745893 
L 132.359205 70.419228 
L 133.341023 68.671256 
L 134.322841 68.671256 
L 135.304659 75.728114 
L 136.286477 73.644004 
L 137.268295 77.186734 
L 138.250114 72.789354 
L 139.231932 70.436946 
L 140.21375 66.997302 
L 141.195568 69.403903 
L 142.177386 74.397274 
L 143.159205 68.671256 
L 144.141023 68.671256 
L 145.122841 65.411145 
L 146.104659 64.184952 
L 147.086477 68.035482 
L 148.068295 70.386232 
L 150.031932 70.386232 
L 151.01375 73.644004 
L 151.995568 82.66121 
L 152.977386 76.913267 
L 153.959205 70.311829 
L 154.941023 68.671256 
L 156.904659 68.671256 
L 157.886477 66.492364 
L 158.868295 65.170223 
L 159.850114 61.781425 
L 160.831932 59.134233 
L 161.81375 58.251376 
L 162.795568 64.184952 
L 163.777386 62.44198 
L 164.759205 58.589599 
L 165.741023 52.203969 
L 166.722841 49.558626 
L 168.686477 42.982223 
L 169.668295 47.314112 
L 170.650114 44.016732 
L 171.631932 39.644281 
L 177.522841 39.644281 
L 178.504659 46.326397 
L 179.486477 42.982223 
L 180.468295 58.589599 
L 181.450114 54.569477 
L 182.431932 60.74265 
L 183.41375 60.74265 
L 184.395568 58.589599 
L 185.377386 57.294311 
L 186.359205 55.431446 
L 187.341023 61.681416 
L 188.322841 65.411145 
L 193.231932 65.411145 
L 194.21375 64.184952 
L 198.141023 64.184952 
L 199.122841 59.628489 
L 200.104659 59.628489 
L 201.086477 58.589599 
L 204.031932 58.589599 
L 205.01375 65.170223 
L 205.995568 68.693872 
L 206.977386 68.693872 
L 207.959205 76.606849 
L 208.941023 71.780888 
L 209.922841 69.403903 
L 210.904659 67.993979 
L 211.886477 74.397274 
L 213.850114 74.397274 
L 214.831932 70.311829 
L 215.81375 75.251822 
L 216.795568 73.389169 
L 217.777386 68.671256 
L 218.759205 68.671256 
L 219.741023 65.170223 
L 220.722841 65.170223 
L 221.704659 63.825728 
L 222.686477 63.825728 
L 223.668295 58.589599 
L 225.631932 58.589599 
L 226.61375 55.644495 
L 227.595568 64.184952 
L 228.577386 64.184952 
L 229.559205 62.422447 
L 230.541023 62.422447 
L 231.522841 65.902088 
L 232.504659 70.436946 
L 233.486477 70.436946 
L 234.468295 68.671256 
L 235.450114 66.492364 
L 236.431932 65.170223 
L 237.41375 63.630349 
L 238.395568 60.8343 
L 239.377386 57.294311 
L 240.359205 63.825728 
L 241.341023 63.825728 
L 242.322841 58.589599 
L 243.304659 58.589599 
L 244.286477 57.294311 
L 248.21375 57.294311 
L 249.195568 55.431446 
L 250.177386 58.939379 
L 251.159205 65.442008 
L 254.104659 65.442008 
L 255.086477 64.184952 
L 256.068295 62.402923 
L 257.050114 65.618515 
L 258.031932 65.618515 
L 259.01375 62.422447 
L 259.995568 64.771274 
L 260.977386 64.771274 
L 261.959205 79.594714 
L 262.941023 73.644004 
L 272.759205 73.644004 
L 273.741023 68.693872 
L 277.668295 68.693872 
L 278.650114 66.997302 
L 279.631932 66.997302 
L 280.61375 65.170223 
L 282.577386 65.170223 
L 283.559205 58.589599 
L 284.541023 58.589599 
L 285.522841 57.294311 
L 287.486477 57.294311 
L 288.468295 50.753401 
L 290.431932 50.753401 
L 291.41375 41.316939 
L 293.377386 41.316939 
L 294.359205 39.644281 
L 326.759205 39.644281 
L 327.741023 41.384388 
L 334.61375 41.384388 
L 335.595568 39.644281 
L 373.886477 39.644281 
L 373.886477 39.644281 
" style="fill:none;stroke:#000080;stroke-linecap:square;stroke-width:2;"/>
   </g>
   <g id="line2d_10">
    <path clip-path="url(#pde444638c5)" d="M 79.341023 207.324845 
L 373.886477 207.324845 
" style="fill:none;stroke:#ff0000;stroke-dasharray:3.7,1.6;stroke-dashoffset:0;"/>
   </g>
   <g id="patch_3">
    <path d="M 64.61375 280.039688 
L 64.61375 8.239688 
" style="fill:none;stroke:#000000;stroke-linecap:square;stroke-linejoin:miter;"/>
   </g>
   <g id="patch_4">
    <path d="M 64.61375 280.039688 
L 388.61375 280.039688 
" style="fill:none;stroke:#000000;stroke-linecap:square;stroke-linejoin:miter;"/>
   </g>
  </g>
  <g id="axes_2">
   <g id="patch_5">
    <path d="M 404.81375 280.039688 
L 728.81375 280.039688 
L 728.81375 8.239688 
L 404.81375 8.239688 
z
" style="fill:none;"/>
   </g>
   <g id="matplotlib.axis_3">
    <g id="xtick_5">
     <g id="line2d_11">
      <g>
       <use style="stroke:#000000;stroke-width:0.8;" x="419.541023" xlink:href="#mba3623c5c7" y="280.039688"/>
      </g>
     </g>
     <g id="text_10">
      <!-- 1 -->
      <g transform="translate(410.633523 309.815313)scale(0.28 -0.28)">
       <use xlink:href="#DejaVuSans-49"/>
      </g>
     </g>
    </g>
    <g id="xtick_6">
     <g id="line2d_12">
      <g>
       <use style="stroke:#000000;stroke-width:0.8;" x="517.722841" xlink:href="#mba3623c5c7" y="280.039688"/>
      </g>
     </g>
     <g id="text_11">
      <!-- 2 -->
      <g transform="translate(508.815341 309.815313)scale(0.28 -0.28)">
       <use xlink:href="#DejaVuSans-50"/>
      </g>
     </g>
    </g>
    <g id="xtick_7">
     <g id="line2d_13">
      <g>
       <use style="stroke:#000000;stroke-width:0.8;" x="615.904659" xlink:href="#mba3623c5c7" y="280.039688"/>
      </g>
     </g>
     <g id="text_12">
      <!-- 3 -->
      <g transform="translate(606.997159 309.815313)scale(0.28 -0.28)">
       <use xlink:href="#DejaVuSans-51"/>
      </g>
     </g>
    </g>
    <g id="xtick_8">
     <g id="line2d_14">
      <g>
       <use style="stroke:#000000;stroke-width:0.8;" x="714.086477" xlink:href="#mba3623c5c7" y="280.039688"/>
      </g>
     </g>
     <g id="text_13">
      <!-- 4 -->
      <g transform="translate(705.178977 309.815313)scale(0.28 -0.28)">
       <use xlink:href="#DejaVuSans-52"/>
      </g>
     </g>
    </g>
    <g id="text_14">
     <!-- -log10 p-value -->
     <g transform="translate(465.97875 340.914062)scale(0.28 -0.28)">
      <use xlink:href="#DejaVuSans-45"/>
      <use x="36.083984" xlink:href="#DejaVuSans-108"/>
      <use x="63.867188" xlink:href="#DejaVuSans-111"/>
      <use x="125.048828" xlink:href="#DejaVuSans-103"/>
      <use x="188.525391" xlink:href="#DejaVuSans-49"/>
      <use x="252.148438" xlink:href="#DejaVuSans-48"/>
      <use x="315.771484" xlink:href="#DejaVuSans-32"/>
      <use x="347.558594" xlink:href="#DejaVuSans-112"/>
      <use x="411.035156" xlink:href="#DejaVuSans-45"/>
      <use x="447.087891" xlink:href="#DejaVuSans-118"/>
      <use x="506.267578" xlink:href="#DejaVuSans-97"/>
      <use x="567.546875" xlink:href="#DejaVuSans-108"/>
      <use x="595.330078" xlink:href="#DejaVuSans-117"/>
      <use x="658.708984" xlink:href="#DejaVuSans-101"/>
     </g>
    </g>
   </g>
   <g id="matplotlib.axis_4">
    <g id="ytick_4"/>
    <g id="ytick_5"/>
    <g id="ytick_6"/>
   </g>
   <g id="line2d_15">
    <path clip-path="url(#p260eaf2650)" d="M 419.541023 113.653491 
L 420.522841 108.054524 
L 426.41375 108.054524 
L 427.395568 109.899629 
L 430.341023 109.899629 
L 431.322841 114.290333 
L 433.286477 114.290333 
L 434.268295 109.899629 
L 435.250114 109.899629 
L 436.231932 108.054524 
L 446.050114 108.054524 
L 447.031932 106.808891 
L 453.904659 106.808891 
L 454.886477 108.054524 
L 458.81375 108.054524 
L 459.795568 109.899629 
L 461.759205 109.899629 
L 462.741023 108.054524 
L 463.722841 109.899629 
L 464.704659 108.054524 
L 466.668295 108.054524 
L 467.650114 109.899629 
L 468.631932 109.899629 
L 469.61375 114.290333 
L 470.595568 114.290333 
L 471.577386 109.899629 
L 472.559205 108.054524 
L 473.541023 109.899629 
L 479.431932 109.899629 
L 480.41375 108.054524 
L 482.377386 108.054524 
L 483.359205 109.899629 
L 486.304659 109.899629 
L 487.286477 108.054524 
L 491.21375 108.054524 
L 492.195568 109.899629 
L 493.177386 108.054524 
L 494.159205 114.290333 
L 498.086477 114.290333 
L 499.068295 109.899629 
L 501.031932 109.899629 
L 502.01375 114.290333 
L 504.959205 114.290333 
L 505.941023 125.980395 
L 506.922841 114.290333 
L 520.668295 114.290333 
L 521.650114 125.980395 
L 522.631932 125.980395 
L 524.595568 146.454322 
L 527.541023 146.454322 
L 528.522841 135.997351 
L 536.377386 135.997351 
L 537.359205 146.703248 
L 538.341023 135.997351 
L 539.322841 135.997351 
L 540.304659 157.956278 
L 543.250114 157.956278 
L 544.231932 165.685707 
L 546.195568 165.685707 
L 547.177386 172.241542 
L 548.159205 175.966468 
L 549.141023 182.643961 
L 553.068295 182.643961 
L 554.050114 175.966468 
L 555.031932 172.241542 
L 556.995568 172.241542 
L 557.977386 175.966468 
L 562.886477 175.966468 
L 563.868295 185.03812 
L 564.850114 185.03812 
L 565.831932 194.569447 
L 567.795568 194.569447 
L 568.777386 185.421532 
L 571.722841 185.421532 
L 572.704659 175.966468 
L 606.086477 175.966468 
L 607.068295 185.790953 
L 609.031932 185.790953 
L 610.01375 175.966468 
L 617.868295 175.966468 
L 618.850114 172.241542 
L 640.450114 172.241542 
L 641.431932 175.966468 
L 674.81375 175.966468 
L 675.795568 172.241542 
L 696.41375 172.241542 
L 697.395568 162.756716 
L 714.086477 162.756716 
L 714.086477 162.756716 
" style="fill:none;stroke:#8b0000;stroke-linecap:square;stroke-width:2;"/>
   </g>
   <g id="line2d_16">
    <path clip-path="url(#p260eaf2650)" d="M 419.541023 186.98049 
L 420.522841 181.907177 
L 421.504659 173.901062 
L 426.41375 173.901062 
L 427.395568 169.279403 
L 430.341023 169.279403 
L 431.322841 166.978753 
L 432.304659 161.099569 
L 433.286477 161.099569 
L 434.268295 155.65306 
L 435.250114 155.65306 
L 436.231932 149.776645 
L 437.21375 165.237876 
L 438.195568 176.588705 
L 439.177386 173.901062 
L 443.104659 173.901062 
L 444.086477 171.550165 
L 445.068295 171.550165 
L 446.050114 169.019373 
L 447.031932 160.083219 
L 449.977386 160.083219 
L 450.959205 150.868124 
L 451.941023 147.492036 
L 453.904659 147.492036 
L 454.886477 144.093729 
L 455.868295 157.648503 
L 456.850114 154.396386 
L 457.831932 154.396386 
L 458.81375 170.187633 
L 459.795568 167.289569 
L 461.759205 167.289569 
L 463.722841 160.896598 
L 464.704659 157.648503 
L 466.668295 157.648503 
L 467.650114 154.396386 
L 468.631932 154.396386 
L 469.61375 150.868124 
L 470.595568 150.868124 
L 471.577386 147.492036 
L 473.541023 139.460928 
L 479.431932 139.460928 
L 480.41375 135.788086 
L 482.377386 135.788086 
L 483.359205 132.011145 
L 486.304659 132.011145 
L 487.286477 127.817336 
L 491.21375 127.817336 
L 493.177386 119.552743 
L 494.159205 134.56093 
L 497.104659 134.56093 
L 498.086477 126.240169 
L 499.068295 121.40055 
L 501.031932 121.40055 
L 502.01375 117.052113 
L 504.959205 117.052113 
L 505.941023 113.03046 
L 506.922841 107.949246 
L 520.668295 107.949246 
L 521.650114 104.669642 
L 522.631932 104.669642 
L 524.595568 94.034382 
L 527.541023 94.034382 
L 528.522841 92.7221 
L 536.377386 92.7221 
L 537.359205 109.084462 
L 538.341023 105.135756 
L 539.322841 105.135756 
L 540.304659 119.552743 
L 543.250114 119.552743 
L 544.231932 114.670832 
L 546.195568 114.670832 
L 547.177386 109.398608 
L 548.159205 105.159106 
L 549.141023 114.670832 
L 553.068295 114.670832 
L 554.050114 109.151867 
L 555.031932 104.669642 
L 556.01375 104.669642 
L 556.995568 92.7221 
L 564.850114 92.7221 
L 565.831932 102.909348 
L 567.795568 102.909348 
L 568.777386 95.411418 
L 571.722841 95.411418 
L 572.704659 92.7221 
L 714.086477 92.7221 
L 714.086477 92.7221 
" style="fill:none;stroke:#000080;stroke-linecap:square;stroke-width:2;"/>
   </g>
   <g id="line2d_17">
    <path clip-path="url(#p260eaf2650)" d="M 419.541023 207.324845 
L 714.086477 207.324845 
" style="fill:none;stroke:#ff0000;stroke-dasharray:3.7,1.6;stroke-dashoffset:0;"/>
   </g>
   <g id="patch_6">
    <path d="M 404.81375 280.039688 
L 404.81375 8.239688 
" style="fill:none;stroke:#000000;stroke-linecap:square;stroke-linejoin:miter;"/>
   </g>
   <g id="patch_7">
    <path d="M 404.81375 280.039688 
L 728.81375 280.039688 
" style="fill:none;stroke:#000000;stroke-linecap:square;stroke-linejoin:miter;"/>
   </g>
  </g>
  <g id="axes_3">
   <g id="patch_8">
    <path d="M 745.01375 280.039688 
L 1069.01375 280.039688 
L 1069.01375 8.239688 
L 745.01375 8.239688 
z
" style="fill:none;"/>
   </g>
   <g id="matplotlib.axis_5">
    <g id="xtick_9">
     <g id="line2d_18">
      <g>
       <use style="stroke:#000000;stroke-width:0.8;" x="759.741023" xlink:href="#mba3623c5c7" y="280.039688"/>
      </g>
     </g>
     <g id="text_15">
      <!-- 1 -->
      <g transform="translate(750.833523 309.815313)scale(0.28 -0.28)">
       <use xlink:href="#DejaVuSans-49"/>
      </g>
     </g>
    </g>
    <g id="xtick_10">
     <g id="line2d_19">
      <g>
       <use style="stroke:#000000;stroke-width:0.8;" x="857.922841" xlink:href="#mba3623c5c7" y="280.039688"/>
      </g>
     </g>
     <g id="text_16">
      <!-- 2 -->
      <g transform="translate(849.015341 309.815313)scale(0.28 -0.28)">
       <use xlink:href="#DejaVuSans-50"/>
      </g>
     </g>
    </g>
    <g id="xtick_11">
     <g id="line2d_20">
      <g>
       <use style="stroke:#000000;stroke-width:0.8;" x="956.104659" xlink:href="#mba3623c5c7" y="280.039688"/>
      </g>
     </g>
     <g id="text_17">
      <!-- 3 -->
      <g transform="translate(947.197159 309.815313)scale(0.28 -0.28)">
       <use xlink:href="#DejaVuSans-51"/>
      </g>
     </g>
    </g>
    <g id="xtick_12">
     <g id="line2d_21">
      <g>
       <use style="stroke:#000000;stroke-width:0.8;" x="1054.286477" xlink:href="#mba3623c5c7" y="280.039688"/>
      </g>
     </g>
     <g id="text_18">
      <!-- 4 -->
      <g transform="translate(1045.378977 309.815313)scale(0.28 -0.28)">
       <use xlink:href="#DejaVuSans-52"/>
      </g>
     </g>
    </g>
    <g id="text_19">
     <!-- -log10 p-value -->
     <g transform="translate(806.17875 340.914062)scale(0.28 -0.28)">
      <use xlink:href="#DejaVuSans-45"/>
      <use x="36.083984" xlink:href="#DejaVuSans-108"/>
      <use x="63.867188" xlink:href="#DejaVuSans-111"/>
      <use x="125.048828" xlink:href="#DejaVuSans-103"/>
      <use x="188.525391" xlink:href="#DejaVuSans-49"/>
      <use x="252.148438" xlink:href="#DejaVuSans-48"/>
      <use x="315.771484" xlink:href="#DejaVuSans-32"/>
      <use x="347.558594" xlink:href="#DejaVuSans-112"/>
      <use x="411.035156" xlink:href="#DejaVuSans-45"/>
      <use x="447.087891" xlink:href="#DejaVuSans-118"/>
      <use x="506.267578" xlink:href="#DejaVuSans-97"/>
      <use x="567.546875" xlink:href="#DejaVuSans-108"/>
      <use x="595.330078" xlink:href="#DejaVuSans-117"/>
      <use x="658.708984" xlink:href="#DejaVuSans-101"/>
     </g>
    </g>
   </g>
   <g id="matplotlib.axis_6">
    <g id="ytick_7"/>
    <g id="ytick_8"/>
    <g id="ytick_9"/>
   </g>
   <g id="line2d_22">
    <path clip-path="url(#p82405b76bc)" d="M 759.741023 225.944672 
L 760.722841 225.944672 
L 761.704659 227.520955 
L 766.61375 227.520955 
L 767.595568 228.163988 
L 768.577386 230.709856 
L 772.504659 230.709856 
L 775.450114 233.469877 
L 776.431932 234.280377 
L 777.41375 234.280377 
L 778.395568 234.996974 
L 780.359205 234.996974 
L 781.341023 235.702481 
L 783.304659 235.702481 
L 785.268295 239.119813 
L 786.250114 239.119813 
L 788.21375 240.711187 
L 789.195568 241.253071 
L 792.141023 241.253071 
L 793.122841 242.018214 
L 794.104659 227.520955 
L 795.086477 228.161632 
L 798.031932 228.161632 
L 799.995568 229.991254 
L 800.977386 212.254523 
L 801.959205 212.254523 
L 802.941023 202.767499 
L 814.722841 202.782375 
L 815.704659 203.074137 
L 818.650114 203.074137 
L 819.631932 202.767499 
L 861.850114 202.767499 
L 862.831932 203.074137 
L 888.359205 203.074137 
L 889.341023 206.237887 
L 890.322841 206.805938 
L 891.304659 206.805938 
L 892.286477 207.757163 
L 895.231932 207.757163 
L 896.21375 208.88749 
L 897.195568 208.88749 
L 898.177386 209.825813 
L 901.122841 209.825813 
L 902.104659 202.767499 
L 917.81375 202.767499 
L 918.795568 203.074137 
L 964.941023 203.074137 
L 965.922841 205.603182 
L 967.886477 205.603182 
L 968.868295 206.324414 
L 973.777386 206.324414 
L 974.759205 202.767499 
L 1054.286477 202.767499 
L 1054.286477 202.767499 
" style="fill:none;stroke:#8b0000;stroke-linecap:square;stroke-width:2;"/>
   </g>
   <g id="line2d_23">
    <path clip-path="url(#p82405b76bc)" d="M 759.741023 165.397243 
L 760.722841 165.397243 
L 761.704659 159.247574 
L 766.61375 159.247574 
L 767.595568 158.366148 
L 768.577386 168.003418 
L 772.504659 168.003418 
L 773.486477 166.617125 
L 774.468295 163.149301 
L 775.450114 160.620954 
L 776.431932 158.967276 
L 777.41375 158.967276 
L 778.395568 155.570634 
L 780.359205 155.570634 
L 781.341023 154.149888 
L 783.304659 154.149888 
L 784.286477 158.366148 
L 785.268295 171.117945 
L 786.250114 171.117945 
L 787.231932 168.003418 
L 788.21375 166.248403 
L 789.195568 162.918507 
L 792.141023 162.918507 
L 793.122841 160.199575 
L 794.104659 158.967276 
L 795.086477 164.973739 
L 798.031932 164.973739 
L 799.01375 162.337865 
L 799.995568 159.247574 
L 800.977386 160.620954 
L 801.959205 160.620954 
L 802.941023 158.967276 
L 803.922841 158.967276 
L 804.904659 155.570634 
L 810.795568 155.570634 
L 811.777386 162.671548 
L 812.759205 159.247574 
L 813.741023 166.856673 
L 814.722841 166.856673 
L 815.704659 174.575994 
L 816.686477 174.575994 
L 817.668295 170.691578 
L 818.650114 170.691578 
L 819.631932 168.003418 
L 820.61375 168.003418 
L 821.595568 172.668463 
L 822.577386 168.69942 
L 823.559205 168.69942 
L 824.541023 166.856673 
L 829.450114 166.856673 
L 830.431932 174.575994 
L 831.41375 174.575994 
L 832.395568 170.710811 
L 833.377386 168.003418 
L 836.322841 168.003418 
L 837.304659 165.397243 
L 839.268295 165.397243 
L 840.250114 162.671548 
L 842.21375 162.671548 
L 843.195568 159.247574 
L 844.177386 159.247574 
L 845.159205 157.985283 
L 846.141023 155.570634 
L 847.122841 154.149888 
L 848.104659 155.570634 
L 850.068295 155.570634 
L 851.050114 153.678091 
L 861.850114 153.678091 
L 862.831932 154.149888 
L 863.81375 155.570634 
L 868.722841 155.570634 
L 869.704659 154.149888 
L 874.61375 154.149888 
L 875.595568 153.678091 
L 888.359205 153.678091 
L 889.341023 155.570634 
L 890.322841 160.686746 
L 891.304659 160.686746 
L 892.286477 158.967276 
L 895.231932 158.967276 
L 896.21375 155.570634 
L 897.195568 155.570634 
L 898.177386 154.149888 
L 901.122841 154.149888 
L 902.104659 153.678091 
L 923.704659 153.678091 
L 924.686477 154.679598 
L 925.668295 154.679598 
L 926.650114 153.678091 
L 989.486477 153.678091 
L 990.468295 154.149888 
L 994.395568 154.149888 
L 995.377386 159.247574 
L 1000.286477 159.247574 
L 1001.268295 162.918507 
L 1007.159205 162.918507 
L 1008.141023 159.247574 
L 1015.01375 159.247574 
L 1015.995568 154.149888 
L 1023.850114 154.149888 
L 1024.831932 153.678091 
L 1036.61375 153.678091 
L 1037.595568 168.003418 
L 1054.286477 168.003418 
L 1054.286477 168.003418 
" style="fill:none;stroke:#000080;stroke-linecap:square;stroke-width:2;"/>
   </g>
   <g id="line2d_24">
    <path clip-path="url(#p82405b76bc)" d="M 759.741023 207.324845 
L 1054.286477 207.324845 
" style="fill:none;stroke:#ff0000;stroke-dasharray:3.7,1.6;stroke-dashoffset:0;"/>
   </g>
   <g id="patch_9">
    <path d="M 745.01375 280.039688 
L 745.01375 8.239688 
" style="fill:none;stroke:#000000;stroke-linecap:square;stroke-linejoin:miter;"/>
   </g>
   <g id="patch_10">
    <path d="M 745.01375 280.039688 
L 1069.01375 280.039688 
" style="fill:none;stroke:#000000;stroke-linecap:square;stroke-linejoin:miter;"/>
   </g>
  </g>
 </g>
 <defs>
  <clipPath id="pde444638c5">
   <rect height="271.8" width="324" x="64.61375" y="8.239688"/>
  </clipPath>
  <clipPath id="p260eaf2650">
   <rect height="271.8" width="324" x="404.81375" y="8.239688"/>
  </clipPath>
  <clipPath id="p82405b76bc">
   <rect height="271.8" width="324" x="745.01375" y="8.239688"/>
  </clipPath>
 </defs>
</svg>
