<?xml version="1.0" encoding="utf-8" standalone="no"?>
<!DOCTYPE svg PUBLIC "-//W3C//DTD SVG 1.1//EN"
  "http://www.w3.org/Graphics/SVG/1.1/DTD/svg11.dtd">
<!-- Created with matplotlib (https://matplotlib.org/) -->
<svg height="326.757187pt" version="1.1" viewBox="0 0 1076.21375 326.757187" width="1076.21375pt" xmlns="http://www.w3.org/2000/svg" xmlns:xlink="http://www.w3.org/1999/xlink">
 <defs>
  <style type="text/css">
*{stroke-linecap:butt;stroke-linejoin:round;}
  </style>
 </defs>
 <g id="figure_1">
  <g id="patch_1">
   <path d="M 0 326.757187 
L 1076.21375 326.757187 
L 1076.21375 0 
L 0 0 
z
" style="fill:none;"/>
  </g>
  <g id="axes_1">
   <g id="patch_2">
    <path d="M 64.61375 252.859687 
L 388.61375 252.859687 
L 388.61375 35.419688 
L 64.61375 35.419688 
z
" style="fill:none;"/>
   </g>
   <g id="matplotlib.axis_1">
    <g id="xtick_1">
     <g id="line2d_1">
      <defs>
       <path d="M 0 0 
L 0 5 
" id="m4a5886c99c" style="stroke:#000000;stroke-width:0.8;"/>
      </defs>
      <g>
       <use style="stroke:#000000;stroke-width:0.8;" x="79.341023" xlink:href="#m4a5886c99c" y="252.859687"/>
      </g>
     </g>
     <g id="text_1">
      <!-- 1 -->
      <defs>
       <path d="M 12.40625 8.296875 
L 28.515625 8.296875 
L 28.515625 63.921875 
L 10.984375 60.40625 
L 10.984375 69.390625 
L 28.421875 72.90625 
L 38.28125 72.90625 
L 38.28125 8.296875 
L 54.390625 8.296875 
L 54.390625 0 
L 12.40625 0 
z
" id="DejaVuSans-49"/>
      </defs>
      <g transform="translate(70.433523 282.635312)scale(0.28 -0.28)">
       <use xlink:href="#DejaVuSans-49"/>
      </g>
     </g>
    </g>
    <g id="xtick_2">
     <g id="line2d_2">
      <g>
       <use style="stroke:#000000;stroke-width:0.8;" x="177.522841" xlink:href="#m4a5886c99c" y="252.859687"/>
      </g>
     </g>
     <g id="text_2">
      <!-- 2 -->
      <defs>
       <path d="M 19.1875 8.296875 
L 53.609375 8.296875 
L 53.609375 0 
L 7.328125 0 
L 7.328125 8.296875 
Q 12.9375 14.109375 22.625 23.890625 
Q 32.328125 33.6875 34.8125 36.53125 
Q 39.546875 41.84375 41.421875 45.53125 
Q 43.3125 49.21875 43.3125 52.78125 
Q 43.3125 58.59375 39.234375 62.25 
Q 35.15625 65.921875 28.609375 65.921875 
Q 23.96875 65.921875 18.8125 64.3125 
Q 13.671875 62.703125 7.8125 59.421875 
L 7.8125 69.390625 
Q 13.765625 71.78125 18.9375 73 
Q 24.125 74.21875 28.421875 74.21875 
Q 39.75 74.21875 46.484375 68.546875 
Q 53.21875 62.890625 53.21875 53.421875 
Q 53.21875 48.921875 51.53125 44.890625 
Q 49.859375 40.875 45.40625 35.40625 
Q 44.1875 33.984375 37.640625 27.21875 
Q 31.109375 20.453125 19.1875 8.296875 
z
" id="DejaVuSans-50"/>
      </defs>
      <g transform="translate(168.615341 282.635312)scale(0.28 -0.28)">
       <use xlink:href="#DejaVuSans-50"/>
      </g>
     </g>
    </g>
    <g id="xtick_3">
     <g id="line2d_3">
      <g>
       <use style="stroke:#000000;stroke-width:0.8;" x="275.704659" xlink:href="#m4a5886c99c" y="252.859687"/>
      </g>
     </g>
     <g id="text_3">
      <!-- 3 -->
      <defs>
       <path d="M 40.578125 39.3125 
Q 47.65625 37.796875 51.625 33 
Q 55.609375 28.21875 55.609375 21.1875 
Q 55.609375 10.40625 48.1875 4.484375 
Q 40.765625 -1.421875 27.09375 -1.421875 
Q 22.515625 -1.421875 17.65625 -0.515625 
Q 12.796875 0.390625 7.625 2.203125 
L 7.625 11.71875 
Q 11.71875 9.328125 16.59375 8.109375 
Q 21.484375 6.890625 26.8125 6.890625 
Q 36.078125 6.890625 40.9375 10.546875 
Q 45.796875 14.203125 45.796875 21.1875 
Q 45.796875 27.640625 41.28125 31.265625 
Q 36.765625 34.90625 28.71875 34.90625 
L 20.21875 34.90625 
L 20.21875 43.015625 
L 29.109375 43.015625 
Q 36.375 43.015625 40.234375 45.921875 
Q 44.09375 48.828125 44.09375 54.296875 
Q 44.09375 59.90625 40.109375 62.90625 
Q 36.140625 65.921875 28.71875 65.921875 
Q 24.65625 65.921875 20.015625 65.03125 
Q 15.375 64.15625 9.8125 62.3125 
L 9.8125 71.09375 
Q 15.4375 72.65625 20.34375 73.4375 
Q 25.25 74.21875 29.59375 74.21875 
Q 40.828125 74.21875 47.359375 69.109375 
Q 53.90625 64.015625 53.90625 55.328125 
Q 53.90625 49.265625 50.4375 45.09375 
Q 46.96875 40.921875 40.578125 39.3125 
z
" id="DejaVuSans-51"/>
      </defs>
      <g transform="translate(266.797159 282.635312)scale(0.28 -0.28)">
       <use xlink:href="#DejaVuSans-51"/>
      </g>
     </g>
    </g>
    <g id="xtick_4">
     <g id="line2d_4">
      <g>
       <use style="stroke:#000000;stroke-width:0.8;" x="373.886477" xlink:href="#m4a5886c99c" y="252.859687"/>
      </g>
     </g>
     <g id="text_4">
      <!-- 4 -->
      <defs>
       <path d="M 37.796875 64.3125 
L 12.890625 25.390625 
L 37.796875 25.390625 
z
M 35.203125 72.90625 
L 47.609375 72.90625 
L 47.609375 25.390625 
L 58.015625 25.390625 
L 58.015625 17.1875 
L 47.609375 17.1875 
L 47.609375 0 
L 37.796875 0 
L 37.796875 17.1875 
L 4.890625 17.1875 
L 4.890625 26.703125 
z
" id="DejaVuSans-52"/>
      </defs>
      <g transform="translate(364.978977 282.635312)scale(0.28 -0.28)">
       <use xlink:href="#DejaVuSans-52"/>
      </g>
     </g>
    </g>
    <g id="text_5">
     <!-- -log10 p-value -->
     <defs>
      <path d="M 4.890625 31.390625 
L 31.203125 31.390625 
L 31.203125 23.390625 
L 4.890625 23.390625 
z
" id="DejaVuSans-45"/>
      <path d="M 9.421875 75.984375 
L 18.40625 75.984375 
L 18.40625 0 
L 9.421875 0 
z
" id="DejaVuSans-108"/>
      <path d="M 30.609375 48.390625 
Q 23.390625 48.390625 19.1875 42.75 
Q 14.984375 37.109375 14.984375 27.296875 
Q 14.984375 17.484375 19.15625 11.84375 
Q 23.34375 6.203125 30.609375 6.203125 
Q 37.796875 6.203125 41.984375 11.859375 
Q 46.1875 17.53125 46.1875 27.296875 
Q 46.1875 37.015625 41.984375 42.703125 
Q 37.796875 48.390625 30.609375 48.390625 
z
M 30.609375 56 
Q 42.328125 56 49.015625 48.375 
Q 55.71875 40.765625 55.71875 27.296875 
Q 55.71875 13.875 49.015625 6.21875 
Q 42.328125 -1.421875 30.609375 -1.421875 
Q 18.84375 -1.421875 12.171875 6.21875 
Q 5.515625 13.875 5.515625 27.296875 
Q 5.515625 40.765625 12.171875 48.375 
Q 18.84375 56 30.609375 56 
z
" id="DejaVuSans-111"/>
      <path d="M 45.40625 27.984375 
Q 45.40625 37.75 41.375 43.109375 
Q 37.359375 48.484375 30.078125 48.484375 
Q 22.859375 48.484375 18.828125 43.109375 
Q 14.796875 37.75 14.796875 27.984375 
Q 14.796875 18.265625 18.828125 12.890625 
Q 22.859375 7.515625 30.078125 7.515625 
Q 37.359375 7.515625 41.375 12.890625 
Q 45.40625 18.265625 45.40625 27.984375 
z
M 54.390625 6.78125 
Q 54.390625 -7.171875 48.1875 -13.984375 
Q 42 -20.796875 29.203125 -20.796875 
Q 24.46875 -20.796875 20.265625 -20.09375 
Q 16.0625 -19.390625 12.109375 -17.921875 
L 12.109375 -9.1875 
Q 16.0625 -11.328125 19.921875 -12.34375 
Q 23.78125 -13.375 27.78125 -13.375 
Q 36.625 -13.375 41.015625 -8.765625 
Q 45.40625 -4.15625 45.40625 5.171875 
L 45.40625 9.625 
Q 42.625 4.78125 38.28125 2.390625 
Q 33.9375 0 27.875 0 
Q 17.828125 0 11.671875 7.65625 
Q 5.515625 15.328125 5.515625 27.984375 
Q 5.515625 40.671875 11.671875 48.328125 
Q 17.828125 56 27.875 56 
Q 33.9375 56 38.28125 53.609375 
Q 42.625 51.21875 45.40625 46.390625 
L 45.40625 54.6875 
L 54.390625 54.6875 
z
" id="DejaVuSans-103"/>
      <path d="M 31.78125 66.40625 
Q 24.171875 66.40625 20.328125 58.90625 
Q 16.5 51.421875 16.5 36.375 
Q 16.5 21.390625 20.328125 13.890625 
Q 24.171875 6.390625 31.78125 6.390625 
Q 39.453125 6.390625 43.28125 13.890625 
Q 47.125 21.390625 47.125 36.375 
Q 47.125 51.421875 43.28125 58.90625 
Q 39.453125 66.40625 31.78125 66.40625 
z
M 31.78125 74.21875 
Q 44.046875 74.21875 50.515625 64.515625 
Q 56.984375 54.828125 56.984375 36.375 
Q 56.984375 17.96875 50.515625 8.265625 
Q 44.046875 -1.421875 31.78125 -1.421875 
Q 19.53125 -1.421875 13.0625 8.265625 
Q 6.59375 17.96875 6.59375 36.375 
Q 6.59375 54.828125 13.0625 64.515625 
Q 19.53125 74.21875 31.78125 74.21875 
z
" id="DejaVuSans-48"/>
      <path id="DejaVuSans-32"/>
      <path d="M 18.109375 8.203125 
L 18.109375 -20.796875 
L 9.078125 -20.796875 
L 9.078125 54.6875 
L 18.109375 54.6875 
L 18.109375 46.390625 
Q 20.953125 51.265625 25.265625 53.625 
Q 29.59375 56 35.59375 56 
Q 45.5625 56 51.78125 48.09375 
Q 58.015625 40.1875 58.015625 27.296875 
Q 58.015625 14.40625 51.78125 6.484375 
Q 45.5625 -1.421875 35.59375 -1.421875 
Q 29.59375 -1.421875 25.265625 0.953125 
Q 20.953125 3.328125 18.109375 8.203125 
z
M 48.6875 27.296875 
Q 48.6875 37.203125 44.609375 42.84375 
Q 40.53125 48.484375 33.40625 48.484375 
Q 26.265625 48.484375 22.1875 42.84375 
Q 18.109375 37.203125 18.109375 27.296875 
Q 18.109375 17.390625 22.1875 11.75 
Q 26.265625 6.109375 33.40625 6.109375 
Q 40.53125 6.109375 44.609375 11.75 
Q 48.6875 17.390625 48.6875 27.296875 
z
" id="DejaVuSans-112"/>
      <path d="M 2.984375 54.6875 
L 12.5 54.6875 
L 29.59375 8.796875 
L 46.6875 54.6875 
L 56.203125 54.6875 
L 35.6875 0 
L 23.484375 0 
z
" id="DejaVuSans-118"/>
      <path d="M 34.28125 27.484375 
Q 23.390625 27.484375 19.1875 25 
Q 14.984375 22.515625 14.984375 16.5 
Q 14.984375 11.71875 18.140625 8.90625 
Q 21.296875 6.109375 26.703125 6.109375 
Q 34.1875 6.109375 38.703125 11.40625 
Q 43.21875 16.703125 43.21875 25.484375 
L 43.21875 27.484375 
z
M 52.203125 31.203125 
L 52.203125 0 
L 43.21875 0 
L 43.21875 8.296875 
Q 40.140625 3.328125 35.546875 0.953125 
Q 30.953125 -1.421875 24.3125 -1.421875 
Q 15.921875 -1.421875 10.953125 3.296875 
Q 6 8.015625 6 15.921875 
Q 6 25.140625 12.171875 29.828125 
Q 18.359375 34.515625 30.609375 34.515625 
L 43.21875 34.515625 
L 43.21875 35.40625 
Q 43.21875 41.609375 39.140625 45 
Q 35.0625 48.390625 27.6875 48.390625 
Q 23 48.390625 18.546875 47.265625 
Q 14.109375 46.140625 10.015625 43.890625 
L 10.015625 52.203125 
Q 14.9375 54.109375 19.578125 55.046875 
Q 24.21875 56 28.609375 56 
Q 40.484375 56 46.34375 49.84375 
Q 52.203125 43.703125 52.203125 31.203125 
z
" id="DejaVuSans-97"/>
      <path d="M 8.5 21.578125 
L 8.5 54.6875 
L 17.484375 54.6875 
L 17.484375 21.921875 
Q 17.484375 14.15625 20.5 10.265625 
Q 23.53125 6.390625 29.59375 6.390625 
Q 36.859375 6.390625 41.078125 11.03125 
Q 45.3125 15.671875 45.3125 23.6875 
L 45.3125 54.6875 
L 54.296875 54.6875 
L 54.296875 0 
L 45.3125 0 
L 45.3125 8.40625 
Q 42.046875 3.421875 37.71875 1 
Q 33.40625 -1.421875 27.6875 -1.421875 
Q 18.265625 -1.421875 13.375 4.4375 
Q 8.5 10.296875 8.5 21.578125 
z
M 31.109375 56 
z
" id="DejaVuSans-117"/>
      <path d="M 56.203125 29.59375 
L 56.203125 25.203125 
L 14.890625 25.203125 
Q 15.484375 15.921875 20.484375 11.0625 
Q 25.484375 6.203125 34.421875 6.203125 
Q 39.59375 6.203125 44.453125 7.46875 
Q 49.3125 8.734375 54.109375 11.28125 
L 54.109375 2.78125 
Q 49.265625 0.734375 44.1875 -0.34375 
Q 39.109375 -1.421875 33.890625 -1.421875 
Q 20.796875 -1.421875 13.15625 6.1875 
Q 5.515625 13.8125 5.515625 26.8125 
Q 5.515625 40.234375 12.765625 48.109375 
Q 20.015625 56 32.328125 56 
Q 43.359375 56 49.78125 48.890625 
Q 56.203125 41.796875 56.203125 29.59375 
z
M 47.21875 32.234375 
Q 47.125 39.59375 43.09375 43.984375 
Q 39.0625 48.390625 32.421875 48.390625 
Q 24.90625 48.390625 20.390625 44.140625 
Q 15.875 39.890625 15.1875 32.171875 
z
" id="DejaVuSans-101"/>
     </defs>
     <g transform="translate(125.77875 313.734062)scale(0.28 -0.28)">
      <use xlink:href="#DejaVuSans-45"/>
      <use x="36.083984" xlink:href="#DejaVuSans-108"/>
      <use x="63.867188" xlink:href="#DejaVuSans-111"/>
      <use x="125.048828" xlink:href="#DejaVuSans-103"/>
      <use x="188.525391" xlink:href="#DejaVuSans-49"/>
      <use x="252.148438" xlink:href="#DejaVuSans-48"/>
      <use x="315.771484" xlink:href="#DejaVuSans-32"/>
      <use x="347.558594" xlink:href="#DejaVuSans-112"/>
      <use x="411.035156" xlink:href="#DejaVuSans-45"/>
      <use x="447.087891" xlink:href="#DejaVuSans-118"/>
      <use x="506.267578" xlink:href="#DejaVuSans-97"/>
      <use x="567.546875" xlink:href="#DejaVuSans-108"/>
      <use x="595.330078" xlink:href="#DejaVuSans-117"/>
      <use x="658.708984" xlink:href="#DejaVuSans-101"/>
     </g>
    </g>
   </g>
   <g id="matplotlib.axis_2">
    <g id="ytick_1">
     <g id="line2d_5">
      <defs>
       <path d="M 0 0 
L -5 0 
" id="mdd8c51b46e" style="stroke:#000000;stroke-width:0.8;"/>
      </defs>
      <g>
       <use style="stroke:#000000;stroke-width:0.8;" x="64.61375" xlink:href="#mdd8c51b46e" y="250.706816"/>
      </g>
     </g>
     <g id="text_6">
      <!-- 0 -->
      <g transform="translate(38.29875 261.344629)scale(0.28 -0.28)">
       <use xlink:href="#DejaVuSans-48"/>
      </g>
     </g>
    </g>
    <g id="ytick_2">
     <g id="line2d_6">
      <g>
       <use style="stroke:#000000;stroke-width:0.8;" x="64.61375" xlink:href="#mdd8c51b46e" y="164.591965"/>
      </g>
     </g>
     <g id="text_7">
      <!-- 2 -->
      <g transform="translate(38.29875 175.229777)scale(0.28 -0.28)">
       <use xlink:href="#DejaVuSans-50"/>
      </g>
     </g>
    </g>
    <g id="ytick_3">
     <g id="line2d_7">
      <g>
       <use style="stroke:#000000;stroke-width:0.8;" x="64.61375" xlink:href="#mdd8c51b46e" y="78.477113"/>
      </g>
     </g>
     <g id="text_8">
      <!-- 4 -->
      <g transform="translate(38.29875 89.114926)scale(0.28 -0.28)">
       <use xlink:href="#DejaVuSans-52"/>
      </g>
     </g>
    </g>
    <g id="text_9">
     <!-- enrichment p-value -->
     <defs>
      <path d="M 54.890625 33.015625 
L 54.890625 0 
L 45.90625 0 
L 45.90625 32.71875 
Q 45.90625 40.484375 42.875 44.328125 
Q 39.84375 48.1875 33.796875 48.1875 
Q 26.515625 48.1875 22.3125 43.546875 
Q 18.109375 38.921875 18.109375 30.90625 
L 18.109375 0 
L 9.078125 0 
L 9.078125 54.6875 
L 18.109375 54.6875 
L 18.109375 46.1875 
Q 21.34375 51.125 25.703125 53.5625 
Q 30.078125 56 35.796875 56 
Q 45.21875 56 50.046875 50.171875 
Q 54.890625 44.34375 54.890625 33.015625 
z
" id="DejaVuSans-110"/>
      <path d="M 41.109375 46.296875 
Q 39.59375 47.171875 37.8125 47.578125 
Q 36.03125 48 33.890625 48 
Q 26.265625 48 22.1875 43.046875 
Q 18.109375 38.09375 18.109375 28.8125 
L 18.109375 0 
L 9.078125 0 
L 9.078125 54.6875 
L 18.109375 54.6875 
L 18.109375 46.1875 
Q 20.953125 51.171875 25.484375 53.578125 
Q 30.03125 56 36.53125 56 
Q 37.453125 56 38.578125 55.875 
Q 39.703125 55.765625 41.0625 55.515625 
z
" id="DejaVuSans-114"/>
      <path d="M 9.421875 54.6875 
L 18.40625 54.6875 
L 18.40625 0 
L 9.421875 0 
z
M 9.421875 75.984375 
L 18.40625 75.984375 
L 18.40625 64.59375 
L 9.421875 64.59375 
z
" id="DejaVuSans-105"/>
      <path d="M 48.78125 52.59375 
L 48.78125 44.1875 
Q 44.96875 46.296875 41.140625 47.34375 
Q 37.3125 48.390625 33.40625 48.390625 
Q 24.65625 48.390625 19.8125 42.84375 
Q 14.984375 37.3125 14.984375 27.296875 
Q 14.984375 17.28125 19.8125 11.734375 
Q 24.65625 6.203125 33.40625 6.203125 
Q 37.3125 6.203125 41.140625 7.25 
Q 44.96875 8.296875 48.78125 10.40625 
L 48.78125 2.09375 
Q 45.015625 0.34375 40.984375 -0.53125 
Q 36.96875 -1.421875 32.421875 -1.421875 
Q 20.0625 -1.421875 12.78125 6.34375 
Q 5.515625 14.109375 5.515625 27.296875 
Q 5.515625 40.671875 12.859375 48.328125 
Q 20.21875 56 33.015625 56 
Q 37.15625 56 41.109375 55.140625 
Q 45.0625 54.296875 48.78125 52.59375 
z
" id="DejaVuSans-99"/>
      <path d="M 54.890625 33.015625 
L 54.890625 0 
L 45.90625 0 
L 45.90625 32.71875 
Q 45.90625 40.484375 42.875 44.328125 
Q 39.84375 48.1875 33.796875 48.1875 
Q 26.515625 48.1875 22.3125 43.546875 
Q 18.109375 38.921875 18.109375 30.90625 
L 18.109375 0 
L 9.078125 0 
L 9.078125 75.984375 
L 18.109375 75.984375 
L 18.109375 46.1875 
Q 21.34375 51.125 25.703125 53.5625 
Q 30.078125 56 35.796875 56 
Q 45.21875 56 50.046875 50.171875 
Q 54.890625 44.34375 54.890625 33.015625 
z
" id="DejaVuSans-104"/>
      <path d="M 52 44.1875 
Q 55.375 50.25 60.0625 53.125 
Q 64.75 56 71.09375 56 
Q 79.640625 56 84.28125 50.015625 
Q 88.921875 44.046875 88.921875 33.015625 
L 88.921875 0 
L 79.890625 0 
L 79.890625 32.71875 
Q 79.890625 40.578125 77.09375 44.375 
Q 74.3125 48.1875 68.609375 48.1875 
Q 61.625 48.1875 57.5625 43.546875 
Q 53.515625 38.921875 53.515625 30.90625 
L 53.515625 0 
L 44.484375 0 
L 44.484375 32.71875 
Q 44.484375 40.625 41.703125 44.40625 
Q 38.921875 48.1875 33.109375 48.1875 
Q 26.21875 48.1875 22.15625 43.53125 
Q 18.109375 38.875 18.109375 30.90625 
L 18.109375 0 
L 9.078125 0 
L 9.078125 54.6875 
L 18.109375 54.6875 
L 18.109375 46.1875 
Q 21.1875 51.21875 25.484375 53.609375 
Q 29.78125 56 35.6875 56 
Q 41.65625 56 45.828125 52.96875 
Q 50 49.953125 52 44.1875 
z
" id="DejaVuSans-109"/>
      <path d="M 18.3125 70.21875 
L 18.3125 54.6875 
L 36.8125 54.6875 
L 36.8125 47.703125 
L 18.3125 47.703125 
L 18.3125 18.015625 
Q 18.3125 11.328125 20.140625 9.421875 
Q 21.96875 7.515625 27.59375 7.515625 
L 36.8125 7.515625 
L 36.8125 0 
L 27.59375 0 
Q 17.1875 0 13.234375 3.875 
Q 9.28125 7.765625 9.28125 18.015625 
L 9.28125 47.703125 
L 2.6875 47.703125 
L 2.6875 54.6875 
L 9.28125 54.6875 
L 9.28125 70.21875 
z
" id="DejaVuSans-116"/>
     </defs>
     <g transform="translate(28.475625 281.079375)rotate(-90)scale(0.28 -0.28)">
      <use xlink:href="#DejaVuSans-101"/>
      <use x="61.523438" xlink:href="#DejaVuSans-110"/>
      <use x="124.902344" xlink:href="#DejaVuSans-114"/>
      <use x="166.015625" xlink:href="#DejaVuSans-105"/>
      <use x="193.798828" xlink:href="#DejaVuSans-99"/>
      <use x="248.779297" xlink:href="#DejaVuSans-104"/>
      <use x="312.158203" xlink:href="#DejaVuSans-109"/>
      <use x="409.570312" xlink:href="#DejaVuSans-101"/>
      <use x="471.09375" xlink:href="#DejaVuSans-110"/>
      <use x="534.472656" xlink:href="#DejaVuSans-116"/>
      <use x="573.681641" xlink:href="#DejaVuSans-32"/>
      <use x="605.46875" xlink:href="#DejaVuSans-112"/>
      <use x="668.945312" xlink:href="#DejaVuSans-45"/>
      <use x="704.998047" xlink:href="#DejaVuSans-118"/>
      <use x="764.177734" xlink:href="#DejaVuSans-97"/>
      <use x="825.457031" xlink:href="#DejaVuSans-108"/>
      <use x="853.240234" xlink:href="#DejaVuSans-117"/>
      <use x="916.619141" xlink:href="#DejaVuSans-101"/>
     </g>
    </g>
   </g>
   <g id="line2d_8">
    <path clip-path="url(#p7f63d01916)" d="M 79.341023 127.825335 
L 80.322841 123.032143 
L 82.286477 122.128883 
L 121.559205 122.128883 
L 122.541023 127.037833 
L 124.504659 123.032143 
L 125.486477 123.032143 
L 126.468295 122.128883 
L 140.21375 122.128883 
L 141.195568 122.620463 
L 142.177386 122.128883 
L 147.086477 122.128883 
L 148.068295 122.620463 
L 150.031932 122.620463 
L 151.01375 130.29297 
L 151.995568 141.161039 
L 152.977386 149.128526 
L 153.959205 146.671549 
L 154.941023 145.813914 
L 156.904659 145.813914 
L 157.886477 145.614879 
L 158.868295 145.12399 
L 159.850114 143.640655 
L 160.831932 142.794698 
L 161.81375 142.170568 
L 162.795568 151.131855 
L 163.777386 150.159217 
L 164.759205 148.327063 
L 165.741023 145.813914 
L 166.722841 145.614879 
L 167.704659 145.12399 
L 168.686477 144.265352 
L 169.668295 152.046602 
L 170.650114 151.131855 
L 171.631932 148.327063 
L 172.61375 147.545431 
L 173.595568 147.545431 
L 175.559205 145.813914 
L 176.541023 145.813914 
L 177.522841 145.614879 
L 178.504659 145.12399 
L 179.486477 144.265352 
L 181.450114 140.019911 
L 182.431932 149.098603 
L 183.41375 149.098603 
L 186.359205 146.569056 
L 187.341023 145.813914 
L 188.322841 155.305438 
L 193.231932 155.305438 
L 194.21375 154.570752 
L 198.141023 154.570752 
L 199.122841 152.640478 
L 200.104659 152.640478 
L 201.086477 151.696079 
L 202.068295 147.913522 
L 204.031932 147.913522 
L 205.01375 147.141416 
L 205.995568 145.614879 
L 206.977386 145.614879 
L 207.959205 145.356061 
L 208.941023 143.762212 
L 209.922841 142.842464 
L 210.904659 142.170568 
L 211.886477 141.161039 
L 213.850114 141.161039 
L 215.81375 137.239341 
L 216.795568 136.014542 
L 217.777386 134.255771 
L 218.759205 134.255771 
L 219.741023 132.377965 
L 220.722841 132.377965 
L 221.704659 131.211116 
L 222.686477 131.211116 
L 223.668295 130.25417 
L 225.631932 130.25417 
L 226.61375 128.419855 
L 227.595568 124.128119 
L 228.577386 124.128119 
L 229.559205 123.032143 
L 230.541023 123.032143 
L 231.522841 132.578551 
L 232.504659 130.704298 
L 233.486477 130.704298 
L 234.468295 130.25417 
L 235.450114 129.627838 
L 236.431932 128.419855 
L 237.41375 127.80816 
L 238.395568 126.715317 
L 239.377386 124.128119 
L 240.359205 123.032143 
L 241.341023 123.032143 
L 242.322841 122.488423 
L 243.304659 122.488423 
L 244.286477 122.128883 
L 249.195568 122.128883 
L 250.177386 129.627838 
L 251.159205 128.419855 
L 254.104659 128.419855 
L 255.086477 127.80816 
L 256.068295 126.715317 
L 257.050114 135.584729 
L 258.031932 135.584729 
L 259.01375 133.598477 
L 259.995568 142.777439 
L 260.977386 142.777439 
L 261.959205 151.429661 
L 262.941023 149.138754 
L 263.922841 149.138754 
L 264.904659 145.614879 
L 272.759205 145.614879 
L 273.741023 144.265352 
L 277.668295 144.265352 
L 278.650114 143.60966 
L 279.631932 143.60966 
L 280.61375 142.717133 
L 282.577386 142.717133 
L 283.559205 139.416867 
L 284.541023 139.416867 
L 285.522841 138.509655 
L 287.486477 138.509655 
L 288.468295 136.014542 
L 290.431932 136.014542 
L 291.41375 132.790319 
L 293.377386 132.790319 
L 294.359205 130.25417 
L 297.304659 130.25417 
L 298.286477 139.097534 
L 300.250114 139.097534 
L 301.231932 134.255771 
L 305.159205 134.255771 
L 306.141023 131.14914 
L 309.086477 131.14914 
L 310.068295 130.291199 
L 313.995568 130.291199 
L 314.977386 123.032143 
L 319.886477 123.032143 
L 320.868295 122.128883 
L 373.886477 122.128883 
L 373.886477 122.128883 
" style="fill:none;stroke:#8b0000;stroke-linecap:square;stroke-width:2;"/>
   </g>
   <g id="line2d_9">
    <path clip-path="url(#p7f63d01916)" d="M 79.341023 69.855973 
L 80.322841 60.543362 
L 85.231932 60.543362 
L 86.21375 61.935448 
L 87.195568 72.04117 
L 88.177386 74.663387 
L 89.159205 73.374988 
L 91.122841 69.430658 
L 92.104659 60.543362 
L 97.995568 60.543362 
L 98.977386 61.935448 
L 99.959205 75.699616 
L 100.941023 75.699616 
L 101.922841 74.939479 
L 102.904659 74.939479 
L 103.886477 78.765895 
L 104.868295 85.240798 
L 105.850114 82.66806 
L 106.831932 82.66806 
L 107.81375 87.799465 
L 108.795568 86.530413 
L 109.777386 101.992347 
L 110.759205 94.894908 
L 111.741023 92.503709 
L 112.722841 92.503709 
L 113.704659 98.668521 
L 114.686477 96.246076 
L 115.668295 91.711116 
L 116.650114 86.252648 
L 117.631932 90.753925 
L 118.61375 90.753925 
L 119.595568 88.63728 
L 120.577386 85.364454 
L 121.559205 83.783035 
L 122.541023 86.530413 
L 123.522841 83.764942 
L 124.504659 87.743141 
L 125.486477 85.685877 
L 126.468295 81.32275 
L 127.450114 81.32275 
L 128.431932 83.764942 
L 129.41375 94.956906 
L 130.395568 92.579116 
L 131.377386 87.024652 
L 132.359205 85.16332 
L 133.341023 83.764942 
L 134.322841 83.764942 
L 135.304659 89.410428 
L 136.286477 87.743141 
L 137.268295 90.577325 
L 138.250114 87.059421 
L 139.231932 85.177494 
L 140.21375 82.425779 
L 141.195568 84.35106 
L 142.177386 88.345757 
L 143.159205 83.764942 
L 144.141023 83.764942 
L 145.122841 81.156854 
L 146.104659 80.175899 
L 147.086477 83.256323 
L 148.068295 85.136923 
L 150.031932 85.136923 
L 151.01375 87.743141 
L 151.995568 94.956906 
L 152.977386 90.358551 
L 153.959205 85.077401 
L 154.941023 83.764942 
L 156.904659 83.764942 
L 157.886477 82.021829 
L 158.868295 80.964116 
L 159.850114 78.253078 
L 160.831932 76.135324 
L 161.81375 75.429039 
L 162.795568 80.175899 
L 163.777386 78.781521 
L 164.759205 75.699616 
L 165.741023 70.591112 
L 166.722841 68.474838 
L 168.686477 63.213716 
L 169.668295 66.679227 
L 170.650114 64.041323 
L 171.631932 60.543362 
L 177.522841 60.543362 
L 178.504659 65.889055 
L 179.486477 63.213716 
L 180.468295 75.699616 
L 181.450114 72.483519 
L 182.431932 77.422057 
L 183.41375 77.422057 
L 184.395568 75.699616 
L 185.377386 74.663387 
L 186.359205 73.173094 
L 187.341023 78.17307 
L 188.322841 81.156854 
L 193.231932 81.156854 
L 194.21375 80.175899 
L 198.141023 80.175899 
L 199.122841 76.530729 
L 200.104659 76.530729 
L 201.086477 75.699616 
L 204.031932 75.699616 
L 205.01375 80.964116 
L 205.995568 83.783035 
L 206.977386 83.783035 
L 207.959205 90.113416 
L 208.941023 86.252648 
L 209.922841 84.35106 
L 210.904659 83.223121 
L 211.886477 88.345757 
L 213.850114 88.345757 
L 214.831932 85.077401 
L 215.81375 89.029395 
L 216.795568 87.539273 
L 217.777386 83.764942 
L 218.759205 83.764942 
L 219.741023 80.964116 
L 220.722841 80.964116 
L 221.704659 79.88852 
L 222.686477 79.88852 
L 223.668295 75.699616 
L 225.631932 75.699616 
L 226.61375 73.343534 
L 227.595568 80.175899 
L 228.577386 80.175899 
L 229.559205 78.765895 
L 230.541023 78.765895 
L 231.522841 81.549608 
L 232.504659 85.177494 
L 233.486477 85.177494 
L 234.468295 83.764942 
L 235.450114 82.021829 
L 236.431932 80.964116 
L 237.41375 79.732217 
L 238.395568 77.495377 
L 239.377386 74.663387 
L 240.359205 79.88852 
L 241.341023 79.88852 
L 242.322841 75.699616 
L 243.304659 75.699616 
L 244.286477 74.663387 
L 248.21375 74.663387 
L 249.195568 73.173094 
L 250.177386 75.97944 
L 251.159205 81.181544 
L 254.104659 81.181544 
L 255.086477 80.175899 
L 256.068295 78.750276 
L 257.050114 81.32275 
L 258.031932 81.32275 
L 259.01375 78.765895 
L 259.995568 80.644957 
L 260.977386 80.644957 
L 261.959205 92.503709 
L 262.941023 87.743141 
L 272.759205 87.743141 
L 273.741023 83.783035 
L 277.668295 83.783035 
L 278.650114 82.425779 
L 279.631932 82.425779 
L 280.61375 80.964116 
L 282.577386 80.964116 
L 283.559205 75.699616 
L 284.541023 75.699616 
L 285.522841 74.663387 
L 287.486477 74.663387 
L 288.468295 69.430658 
L 290.431932 69.430658 
L 291.41375 61.881488 
L 293.377386 61.881488 
L 294.359205 60.543362 
L 326.759205 60.543362 
L 327.741023 61.935448 
L 334.61375 61.935448 
L 335.595568 60.543362 
L 373.886477 60.543362 
L 373.886477 60.543362 
" style="fill:none;stroke:#000080;stroke-linecap:square;stroke-width:2;"/>
   </g>
   <g id="line2d_10">
    <path clip-path="url(#p7f63d01916)" d="M 79.341023 194.687814 
L 373.886477 194.687814 
" style="fill:none;stroke:#ff0000;stroke-dasharray:3.7,1.6;stroke-dashoffset:0;"/>
   </g>
   <g id="patch_3">
    <path d="M 64.61375 252.859687 
L 64.61375 35.419688 
" style="fill:none;stroke:#000000;stroke-linecap:square;stroke-linejoin:miter;"/>
   </g>
   <g id="patch_4">
    <path d="M 64.61375 252.859687 
L 388.61375 252.859687 
" style="fill:none;stroke:#000000;stroke-linecap:square;stroke-linejoin:miter;"/>
   </g>
  </g>
  <g id="axes_2">
   <g id="patch_5">
    <path d="M 404.81375 252.859687 
L 728.81375 252.859687 
L 728.81375 35.419688 
L 404.81375 35.419688 
z
" style="fill:none;"/>
   </g>
   <g id="matplotlib.axis_3">
    <g id="xtick_5">
     <g id="line2d_11">
      <g>
       <use style="stroke:#000000;stroke-width:0.8;" x="419.541023" xlink:href="#m4a5886c99c" y="252.859687"/>
      </g>
     </g>
     <g id="text_10">
      <!-- 1 -->
      <g transform="translate(410.633523 282.635312)scale(0.28 -0.28)">
       <use xlink:href="#DejaVuSans-49"/>
      </g>
     </g>
    </g>
    <g id="xtick_6">
     <g id="line2d_12">
      <g>
       <use style="stroke:#000000;stroke-width:0.8;" x="517.722841" xlink:href="#m4a5886c99c" y="252.859687"/>
      </g>
     </g>
     <g id="text_11">
      <!-- 2 -->
      <g transform="translate(508.815341 282.635312)scale(0.28 -0.28)">
       <use xlink:href="#DejaVuSans-50"/>
      </g>
     </g>
    </g>
    <g id="xtick_7">
     <g id="line2d_13">
      <g>
       <use style="stroke:#000000;stroke-width:0.8;" x="615.904659" xlink:href="#m4a5886c99c" y="252.859687"/>
      </g>
     </g>
     <g id="text_12">
      <!-- 3 -->
      <g transform="translate(606.997159 282.635312)scale(0.28 -0.28)">
       <use xlink:href="#DejaVuSans-51"/>
      </g>
     </g>
    </g>
    <g id="xtick_8">
     <g id="line2d_14">
      <g>
       <use style="stroke:#000000;stroke-width:0.8;" x="714.086477" xlink:href="#m4a5886c99c" y="252.859687"/>
      </g>
     </g>
     <g id="text_13">
      <!-- 4 -->
      <g transform="translate(705.178977 282.635312)scale(0.28 -0.28)">
       <use xlink:href="#DejaVuSans-52"/>
      </g>
     </g>
    </g>
    <g id="text_14">
     <!-- -log10 p-value -->
     <g transform="translate(465.97875 313.734062)scale(0.28 -0.28)">
      <use xlink:href="#DejaVuSans-45"/>
      <use x="36.083984" xlink:href="#DejaVuSans-108"/>
      <use x="63.867188" xlink:href="#DejaVuSans-111"/>
      <use x="125.048828" xlink:href="#DejaVuSans-103"/>
      <use x="188.525391" xlink:href="#DejaVuSans-49"/>
      <use x="252.148438" xlink:href="#DejaVuSans-48"/>
      <use x="315.771484" xlink:href="#DejaVuSans-32"/>
      <use x="347.558594" xlink:href="#DejaVuSans-112"/>
      <use x="411.035156" xlink:href="#DejaVuSans-45"/>
      <use x="447.087891" xlink:href="#DejaVuSans-118"/>
      <use x="506.267578" xlink:href="#DejaVuSans-97"/>
      <use x="567.546875" xlink:href="#DejaVuSans-108"/>
      <use x="595.330078" xlink:href="#DejaVuSans-117"/>
      <use x="658.708984" xlink:href="#DejaVuSans-101"/>
     </g>
    </g>
   </g>
   <g id="matplotlib.axis_4">
    <g id="ytick_4"/>
    <g id="ytick_5"/>
    <g id="ytick_6"/>
   </g>
   <g id="line2d_15">
    <path clip-path="url(#pd6d9755c97)" d="M 419.541023 119.75073 
L 420.522841 115.271557 
L 426.41375 115.271557 
L 427.395568 116.747641 
L 430.341023 116.747641 
L 431.322841 120.260204 
L 433.286477 120.260204 
L 434.268295 116.747641 
L 435.250114 116.747641 
L 436.231932 115.271557 
L 446.050114 115.271557 
L 447.031932 114.275051 
L 453.904659 114.275051 
L 454.886477 115.271557 
L 458.81375 115.271557 
L 459.795568 116.747641 
L 461.759205 116.747641 
L 462.741023 115.271557 
L 463.722841 116.747641 
L 464.704659 115.271557 
L 466.668295 115.271557 
L 467.650114 116.747641 
L 468.631932 116.747641 
L 469.61375 120.260204 
L 470.595568 120.260204 
L 471.577386 116.747641 
L 472.559205 115.271557 
L 473.541023 116.747641 
L 479.431932 116.747641 
L 480.41375 115.271557 
L 482.377386 115.271557 
L 483.359205 116.747641 
L 486.304659 116.747641 
L 487.286477 115.271557 
L 491.21375 115.271557 
L 492.195568 116.747641 
L 493.177386 115.271557 
L 494.159205 120.260204 
L 498.086477 120.260204 
L 499.068295 116.747641 
L 501.031932 116.747641 
L 502.01375 120.260204 
L 504.959205 120.260204 
L 505.941023 129.612253 
L 506.922841 120.260204 
L 520.668295 120.260204 
L 521.650114 129.612253 
L 522.631932 129.612253 
L 524.595568 145.991395 
L 527.541023 145.991395 
L 528.522841 137.625818 
L 536.377386 137.625818 
L 537.359205 146.190536 
L 538.341023 137.625818 
L 539.322841 137.625818 
L 540.304659 155.19296 
L 543.250114 155.19296 
L 544.231932 161.376503 
L 546.195568 161.376503 
L 547.177386 166.621171 
L 548.159205 169.601112 
L 549.141023 174.943106 
L 553.068295 174.943106 
L 554.050114 169.601112 
L 555.031932 166.621171 
L 556.995568 166.621171 
L 557.977386 169.601112 
L 562.886477 169.601112 
L 563.868295 176.858433 
L 564.850114 176.858433 
L 565.831932 184.483495 
L 567.795568 184.483495 
L 568.777386 177.165163 
L 571.722841 177.165163 
L 572.704659 169.601112 
L 606.086477 169.601112 
L 607.068295 177.4607 
L 609.031932 177.4607 
L 610.01375 169.601112 
L 617.868295 169.601112 
L 618.850114 166.621171 
L 640.450114 166.621171 
L 641.431932 169.601112 
L 674.81375 169.601112 
L 675.795568 166.621171 
L 696.41375 166.621171 
L 697.395568 159.03331 
L 714.086477 159.03331 
L 714.086477 159.03331 
" style="fill:none;stroke:#8b0000;stroke-linecap:square;stroke-width:2;"/>
   </g>
   <g id="line2d_16">
    <path clip-path="url(#pd6d9755c97)" d="M 419.541023 178.41233 
L 420.522841 174.353679 
L 421.504659 167.948787 
L 426.41375 167.948787 
L 427.395568 164.25146 
L 430.341023 164.25146 
L 431.322841 162.41094 
L 432.304659 157.707593 
L 433.286477 157.707593 
L 434.268295 153.350385 
L 435.250114 153.350385 
L 436.231932 148.649254 
L 437.21375 161.018238 
L 438.195568 170.098902 
L 439.177386 167.948787 
L 443.104659 167.948787 
L 444.086477 166.06807 
L 445.068295 166.06807 
L 446.050114 164.043436 
L 447.031932 156.894513 
L 449.977386 156.894513 
L 450.959205 149.522437 
L 451.941023 146.821566 
L 453.904659 146.821566 
L 454.886477 144.102921 
L 455.868295 154.94674 
L 456.850114 152.345046 
L 457.831932 152.345046 
L 458.81375 164.978044 
L 459.795568 162.659593 
L 461.759205 162.659593 
L 463.722841 157.545216 
L 464.704659 154.94674 
L 466.668295 154.94674 
L 467.650114 152.345046 
L 468.631932 152.345046 
L 469.61375 149.522437 
L 470.595568 149.522437 
L 471.577386 146.821566 
L 473.541023 140.39668 
L 479.431932 140.39668 
L 480.41375 137.458406 
L 482.377386 137.458406 
L 483.359205 134.436853 
L 486.304659 134.436853 
L 487.286477 131.081806 
L 491.21375 131.081806 
L 493.177386 124.470132 
L 494.159205 136.476681 
L 497.104659 136.476681 
L 498.086477 129.820073 
L 499.068295 125.948378 
L 501.031932 125.948378 
L 502.01375 122.469628 
L 504.959205 122.469628 
L 505.941023 119.252306 
L 506.922841 115.187334 
L 520.668295 115.187334 
L 521.650114 112.563651 
L 522.631932 112.563651 
L 524.595568 104.055443 
L 527.541023 104.055443 
L 528.522841 103.005618 
L 536.377386 103.005618 
L 537.359205 116.095507 
L 538.341023 112.936542 
L 539.322841 112.936542 
L 540.304659 124.470132 
L 543.250114 124.470132 
L 544.231932 120.564603 
L 546.195568 120.564603 
L 547.177386 116.346824 
L 548.159205 112.955222 
L 549.141023 120.564603 
L 553.068295 120.564603 
L 554.050114 116.149431 
L 555.031932 112.563651 
L 556.01375 112.563651 
L 556.995568 103.005618 
L 564.850114 103.005618 
L 565.831932 111.155416 
L 567.795568 111.155416 
L 568.777386 105.157072 
L 571.722841 105.157072 
L 572.704659 103.005618 
L 714.086477 103.005618 
L 714.086477 103.005618 
" style="fill:none;stroke:#000080;stroke-linecap:square;stroke-width:2;"/>
   </g>
   <g id="line2d_17">
    <path clip-path="url(#pd6d9755c97)" d="M 419.541023 194.687814 
L 714.086477 194.687814 
" style="fill:none;stroke:#ff0000;stroke-dasharray:3.7,1.6;stroke-dashoffset:0;"/>
   </g>
   <g id="patch_6">
    <path d="M 404.81375 252.859687 
L 404.81375 35.419688 
" style="fill:none;stroke:#000000;stroke-linecap:square;stroke-linejoin:miter;"/>
   </g>
   <g id="patch_7">
    <path d="M 404.81375 252.859687 
L 728.81375 252.859687 
" style="fill:none;stroke:#000000;stroke-linecap:square;stroke-linejoin:miter;"/>
   </g>
  </g>
  <g id="axes_3">
   <g id="patch_8">
    <path d="M 745.01375 252.859687 
L 1069.01375 252.859687 
L 1069.01375 35.419688 
L 745.01375 35.419688 
z
" style="fill:none;"/>
   </g>
   <g id="matplotlib.axis_5">
    <g id="xtick_9">
     <g id="line2d_18">
      <g>
       <use style="stroke:#000000;stroke-width:0.8;" x="759.741023" xlink:href="#m4a5886c99c" y="252.859687"/>
      </g>
     </g>
     <g id="text_15">
      <!-- 1 -->
      <g transform="translate(750.833523 282.635312)scale(0.28 -0.28)">
       <use xlink:href="#DejaVuSans-49"/>
      </g>
     </g>
    </g>
    <g id="xtick_10">
     <g id="line2d_19">
      <g>
       <use style="stroke:#000000;stroke-width:0.8;" x="857.922841" xlink:href="#m4a5886c99c" y="252.859687"/>
      </g>
     </g>
     <g id="text_16">
      <!-- 2 -->
      <g transform="translate(849.015341 282.635312)scale(0.28 -0.28)">
       <use xlink:href="#DejaVuSans-50"/>
      </g>
     </g>
    </g>
    <g id="xtick_11">
     <g id="line2d_20">
      <g>
       <use style="stroke:#000000;stroke-width:0.8;" x="956.104659" xlink:href="#m4a5886c99c" y="252.859687"/>
      </g>
     </g>
     <g id="text_17">
      <!-- 3 -->
      <g transform="translate(947.197159 282.635312)scale(0.28 -0.28)">
       <use xlink:href="#DejaVuSans-51"/>
      </g>
     </g>
    </g>
    <g id="xtick_12">
     <g id="line2d_21">
      <g>
       <use style="stroke:#000000;stroke-width:0.8;" x="1054.286477" xlink:href="#m4a5886c99c" y="252.859687"/>
      </g>
     </g>
     <g id="text_18">
      <!-- 4 -->
      <g transform="translate(1045.378977 282.635312)scale(0.28 -0.28)">
       <use xlink:href="#DejaVuSans-52"/>
      </g>
     </g>
    </g>
    <g id="text_19">
     <!-- -log10 p-value -->
     <g transform="translate(806.17875 313.734062)scale(0.28 -0.28)">
      <use xlink:href="#DejaVuSans-45"/>
      <use x="36.083984" xlink:href="#DejaVuSans-108"/>
      <use x="63.867188" xlink:href="#DejaVuSans-111"/>
      <use x="125.048828" xlink:href="#DejaVuSans-103"/>
      <use x="188.525391" xlink:href="#DejaVuSans-49"/>
      <use x="252.148438" xlink:href="#DejaVuSans-48"/>
      <use x="315.771484" xlink:href="#DejaVuSans-32"/>
      <use x="347.558594" xlink:href="#DejaVuSans-112"/>
      <use x="411.035156" xlink:href="#DejaVuSans-45"/>
      <use x="447.087891" xlink:href="#DejaVuSans-118"/>
      <use x="506.267578" xlink:href="#DejaVuSans-97"/>
      <use x="567.546875" xlink:href="#DejaVuSans-108"/>
      <use x="595.330078" xlink:href="#DejaVuSans-117"/>
      <use x="658.708984" xlink:href="#DejaVuSans-101"/>
     </g>
    </g>
   </g>
   <g id="matplotlib.axis_6">
    <g id="ytick_7"/>
    <g id="ytick_8"/>
    <g id="ytick_9"/>
   </g>
   <g id="line2d_22">
    <path clip-path="url(#p0292a3b994)" d="M 759.741023 209.583675 
L 760.722841 209.583675 
L 761.704659 210.844702 
L 766.61375 210.844702 
L 767.595568 211.359128 
L 768.577386 213.395823 
L 772.504659 213.395823 
L 776.431932 216.252239 
L 777.41375 216.252239 
L 778.395568 216.825517 
L 780.359205 216.825517 
L 781.341023 217.389922 
L 783.304659 217.389922 
L 785.268295 220.123788 
L 786.250114 220.123788 
L 788.21375 221.396887 
L 789.195568 221.830395 
L 792.141023 221.830395 
L 793.122841 222.442509 
L 794.104659 210.844702 
L 795.086477 211.357243 
L 798.031932 211.357243 
L 799.995568 212.820941 
L 800.977386 198.631556 
L 801.959205 198.631556 
L 802.941023 191.041937 
L 814.722841 191.053838 
L 815.704659 191.287247 
L 818.650114 191.287247 
L 819.631932 191.041937 
L 861.850114 191.041937 
L 862.831932 191.287247 
L 888.359205 191.287247 
L 889.341023 193.818247 
L 890.322841 194.272688 
L 891.304659 194.272688 
L 892.286477 195.033668 
L 895.231932 195.033668 
L 896.21375 195.937929 
L 897.195568 195.937929 
L 898.177386 196.688588 
L 901.122841 196.688588 
L 902.104659 191.041937 
L 917.81375 191.041937 
L 918.795568 191.287247 
L 964.941023 191.287247 
L 965.922841 193.310483 
L 967.886477 193.310483 
L 968.868295 193.887469 
L 973.777386 193.887469 
L 974.759205 191.041937 
L 1054.286477 191.041937 
L 1054.286477 191.041937 
" style="fill:none;stroke:#8b0000;stroke-linecap:square;stroke-width:2;"/>
   </g>
   <g id="line2d_23">
    <path clip-path="url(#p0292a3b994)" d="M 759.741023 161.145732 
L 760.722841 161.145732 
L 761.704659 156.225997 
L 766.61375 156.225997 
L 767.595568 155.520856 
L 768.577386 163.230672 
L 772.504659 163.230672 
L 773.486477 162.121638 
L 774.468295 159.347378 
L 775.450114 157.324701 
L 776.431932 156.001758 
L 777.41375 156.001758 
L 778.395568 153.284445 
L 780.359205 153.284445 
L 781.341023 152.147848 
L 783.304659 152.147848 
L 784.286477 155.520856 
L 785.268295 165.722293 
L 786.250114 165.722293 
L 787.231932 163.230672 
L 788.21375 161.82666 
L 789.195568 159.162743 
L 792.141023 159.162743 
L 793.122841 156.987597 
L 794.104659 156.001758 
L 795.086477 160.806928 
L 798.031932 160.806928 
L 799.01375 158.698229 
L 799.995568 156.225997 
L 800.977386 157.324701 
L 801.959205 157.324701 
L 802.941023 156.001758 
L 803.922841 156.001758 
L 804.904659 153.284445 
L 810.795568 153.284445 
L 811.777386 158.965176 
L 812.759205 156.225997 
L 813.741023 162.313276 
L 814.722841 162.313276 
L 815.704659 168.488733 
L 816.686477 168.488733 
L 817.668295 165.3812 
L 818.650114 165.3812 
L 819.631932 163.230672 
L 820.61375 163.230672 
L 821.595568 166.962708 
L 822.577386 163.787473 
L 823.559205 163.787473 
L 824.541023 162.313276 
L 829.450114 162.313276 
L 830.431932 168.488733 
L 831.41375 168.488733 
L 832.395568 165.396586 
L 833.377386 163.230672 
L 836.322841 163.230672 
L 837.304659 161.145732 
L 839.268295 161.145732 
L 840.250114 158.965176 
L 842.21375 158.965176 
L 843.195568 156.225997 
L 844.177386 156.225997 
L 845.159205 155.216164 
L 846.141023 153.284445 
L 847.122841 152.147848 
L 848.104659 153.284445 
L 850.068295 153.284445 
L 851.050114 151.77041 
L 861.850114 151.77041 
L 862.831932 152.147848 
L 863.81375 153.284445 
L 868.722841 153.284445 
L 869.704659 152.147848 
L 874.61375 152.147848 
L 875.595568 151.77041 
L 888.359205 151.77041 
L 889.341023 153.284445 
L 890.322841 157.377335 
L 891.304659 157.377335 
L 892.286477 156.001758 
L 895.231932 156.001758 
L 896.21375 153.284445 
L 897.195568 153.284445 
L 898.177386 152.147848 
L 901.122841 152.147848 
L 902.104659 151.77041 
L 923.704659 151.77041 
L 924.686477 152.571616 
L 925.668295 152.571616 
L 926.650114 151.77041 
L 989.486477 151.77041 
L 990.468295 152.147848 
L 994.395568 152.147848 
L 995.377386 156.225997 
L 1000.286477 156.225997 
L 1001.268295 159.162743 
L 1007.159205 159.162743 
L 1008.141023 156.225997 
L 1015.01375 156.225997 
L 1015.995568 152.147848 
L 1023.850114 152.147848 
L 1024.831932 151.77041 
L 1036.61375 151.77041 
L 1037.595568 163.230672 
L 1054.286477 163.230672 
L 1054.286477 163.230672 
" style="fill:none;stroke:#000080;stroke-linecap:square;stroke-width:2;"/>
   </g>
   <g id="line2d_24">
    <path clip-path="url(#p0292a3b994)" d="M 759.741023 194.687814 
L 1054.286477 194.687814 
" style="fill:none;stroke:#ff0000;stroke-dasharray:3.7,1.6;stroke-dashoffset:0;"/>
   </g>
   <g id="patch_9">
    <path d="M 745.01375 252.859687 
L 745.01375 35.419688 
" style="fill:none;stroke:#000000;stroke-linecap:square;stroke-linejoin:miter;"/>
   </g>
   <g id="patch_10">
    <path d="M 745.01375 252.859687 
L 1069.01375 252.859687 
" style="fill:none;stroke:#000000;stroke-linecap:square;stroke-linejoin:miter;"/>
   </g>
  </g>
 </g>
 <defs>
  <clipPath id="p7f63d01916">
   <rect height="217.44" width="324" x="64.61375" y="35.419688"/>
  </clipPath>
  <clipPath id="pd6d9755c97">
   <rect height="217.44" width="324" x="404.81375" y="35.419688"/>
  </clipPath>
  <clipPath id="p0292a3b994">
   <rect height="217.44" width="324" x="745.01375" y="35.419688"/>
  </clipPath>
 </defs>
</svg>
