<?xml version="1.0" encoding="utf-8" standalone="no"?>
<!DOCTYPE svg PUBLIC "-//W3C//DTD SVG 1.1//EN"
  "http://www.w3.org/Graphics/SVG/1.1/DTD/svg11.dtd">
<!-- Created with matplotlib (https://matplotlib.org/) -->
<svg height="353.937187pt" version="1.1" viewBox="0 0 1076.21375 353.937187" width="1076.21375pt" xmlns="http://www.w3.org/2000/svg" xmlns:xlink="http://www.w3.org/1999/xlink">
 <defs>
  <style type="text/css">
*{stroke-linecap:butt;stroke-linejoin:round;}
  </style>
 </defs>
 <g id="figure_1">
  <g id="patch_1">
   <path d="M 0 353.937187 
L 1076.21375 353.937187 
L 1076.21375 0 
L 0 0 
z
" style="fill:none;"/>
  </g>
  <g id="axes_1">
   <g id="patch_2">
    <path d="M 64.61375 280.039688 
L 388.61375 280.039688 
L 388.61375 8.239688 
L 64.61375 8.239688 
z
" style="fill:none;"/>
   </g>
   <g id="matplotlib.axis_1">
    <g id="xtick_1">
     <g id="line2d_1">
      <defs>
       <path d="M 0 0 
L 0 5 
" id="maacc93a80e" style="stroke:#000000;stroke-width:0.8;"/>
      </defs>
      <g>
       <use style="stroke:#000000;stroke-width:0.8;" x="79.341023" xlink:href="#maacc93a80e" y="280.039688"/>
      </g>
     </g>
     <g id="text_1">
      <!-- 1 -->
      <defs>
       <path d="M 12.40625 8.296875 
L 28.515625 8.296875 
L 28.515625 63.921875 
L 10.984375 60.40625 
L 10.984375 69.390625 
L 28.421875 72.90625 
L 38.28125 72.90625 
L 38.28125 8.296875 
L 54.390625 8.296875 
L 54.390625 0 
L 12.40625 0 
z
" id="DejaVuSans-49"/>
      </defs>
      <g transform="translate(70.433523 309.815313)scale(0.28 -0.28)">
       <use xlink:href="#DejaVuSans-49"/>
      </g>
     </g>
    </g>
    <g id="xtick_2">
     <g id="line2d_2">
      <g>
       <use style="stroke:#000000;stroke-width:0.8;" x="152.977386" xlink:href="#maacc93a80e" y="280.039688"/>
      </g>
     </g>
     <g id="text_2">
      <!-- 2 -->
      <defs>
       <path d="M 19.1875 8.296875 
L 53.609375 8.296875 
L 53.609375 0 
L 7.328125 0 
L 7.328125 8.296875 
Q 12.9375 14.109375 22.625 23.890625 
Q 32.328125 33.6875 34.8125 36.53125 
Q 39.546875 41.84375 41.421875 45.53125 
Q 43.3125 49.21875 43.3125 52.78125 
Q 43.3125 58.59375 39.234375 62.25 
Q 35.15625 65.921875 28.609375 65.921875 
Q 23.96875 65.921875 18.8125 64.3125 
Q 13.671875 62.703125 7.8125 59.421875 
L 7.8125 69.390625 
Q 13.765625 71.78125 18.9375 73 
Q 24.125 74.21875 28.421875 74.21875 
Q 39.75 74.21875 46.484375 68.546875 
Q 53.21875 62.890625 53.21875 53.421875 
Q 53.21875 48.921875 51.53125 44.890625 
Q 49.859375 40.875 45.40625 35.40625 
Q 44.1875 33.984375 37.640625 27.21875 
Q 31.109375 20.453125 19.1875 8.296875 
z
" id="DejaVuSans-50"/>
      </defs>
      <g transform="translate(144.069886 309.815313)scale(0.28 -0.28)">
       <use xlink:href="#DejaVuSans-50"/>
      </g>
     </g>
    </g>
    <g id="xtick_3">
     <g id="line2d_3">
      <g>
       <use style="stroke:#000000;stroke-width:0.8;" x="226.61375" xlink:href="#maacc93a80e" y="280.039688"/>
      </g>
     </g>
     <g id="text_3">
      <!-- 3 -->
      <defs>
       <path d="M 40.578125 39.3125 
Q 47.65625 37.796875 51.625 33 
Q 55.609375 28.21875 55.609375 21.1875 
Q 55.609375 10.40625 48.1875 4.484375 
Q 40.765625 -1.421875 27.09375 -1.421875 
Q 22.515625 -1.421875 17.65625 -0.515625 
Q 12.796875 0.390625 7.625 2.203125 
L 7.625 11.71875 
Q 11.71875 9.328125 16.59375 8.109375 
Q 21.484375 6.890625 26.8125 6.890625 
Q 36.078125 6.890625 40.9375 10.546875 
Q 45.796875 14.203125 45.796875 21.1875 
Q 45.796875 27.640625 41.28125 31.265625 
Q 36.765625 34.90625 28.71875 34.90625 
L 20.21875 34.90625 
L 20.21875 43.015625 
L 29.109375 43.015625 
Q 36.375 43.015625 40.234375 45.921875 
Q 44.09375 48.828125 44.09375 54.296875 
Q 44.09375 59.90625 40.109375 62.90625 
Q 36.140625 65.921875 28.71875 65.921875 
Q 24.65625 65.921875 20.015625 65.03125 
Q 15.375 64.15625 9.8125 62.3125 
L 9.8125 71.09375 
Q 15.4375 72.65625 20.34375 73.4375 
Q 25.25 74.21875 29.59375 74.21875 
Q 40.828125 74.21875 47.359375 69.109375 
Q 53.90625 64.015625 53.90625 55.328125 
Q 53.90625 49.265625 50.4375 45.09375 
Q 46.96875 40.921875 40.578125 39.3125 
z
" id="DejaVuSans-51"/>
      </defs>
      <g transform="translate(217.70625 309.815313)scale(0.28 -0.28)">
       <use xlink:href="#DejaVuSans-51"/>
      </g>
     </g>
    </g>
    <g id="xtick_4">
     <g id="line2d_4">
      <g>
       <use style="stroke:#000000;stroke-width:0.8;" x="300.250114" xlink:href="#maacc93a80e" y="280.039688"/>
      </g>
     </g>
     <g id="text_4">
      <!-- 4 -->
      <defs>
       <path d="M 37.796875 64.3125 
L 12.890625 25.390625 
L 37.796875 25.390625 
z
M 35.203125 72.90625 
L 47.609375 72.90625 
L 47.609375 25.390625 
L 58.015625 25.390625 
L 58.015625 17.1875 
L 47.609375 17.1875 
L 47.609375 0 
L 37.796875 0 
L 37.796875 17.1875 
L 4.890625 17.1875 
L 4.890625 26.703125 
z
" id="DejaVuSans-52"/>
      </defs>
      <g transform="translate(291.342614 309.815313)scale(0.28 -0.28)">
       <use xlink:href="#DejaVuSans-52"/>
      </g>
     </g>
    </g>
    <g id="xtick_5">
     <g id="line2d_5">
      <g>
       <use style="stroke:#000000;stroke-width:0.8;" x="373.886477" xlink:href="#maacc93a80e" y="280.039688"/>
      </g>
     </g>
     <g id="text_5">
      <!-- 5 -->
      <defs>
       <path d="M 10.796875 72.90625 
L 49.515625 72.90625 
L 49.515625 64.59375 
L 19.828125 64.59375 
L 19.828125 46.734375 
Q 21.96875 47.46875 24.109375 47.828125 
Q 26.265625 48.1875 28.421875 48.1875 
Q 40.625 48.1875 47.75 41.5 
Q 54.890625 34.8125 54.890625 23.390625 
Q 54.890625 11.625 47.5625 5.09375 
Q 40.234375 -1.421875 26.90625 -1.421875 
Q 22.3125 -1.421875 17.546875 -0.640625 
Q 12.796875 0.140625 7.71875 1.703125 
L 7.71875 11.625 
Q 12.109375 9.234375 16.796875 8.0625 
Q 21.484375 6.890625 26.703125 6.890625 
Q 35.15625 6.890625 40.078125 11.328125 
Q 45.015625 15.765625 45.015625 23.390625 
Q 45.015625 31 40.078125 35.4375 
Q 35.15625 39.890625 26.703125 39.890625 
Q 22.75 39.890625 18.8125 39.015625 
Q 14.890625 38.140625 10.796875 36.28125 
z
" id="DejaVuSans-53"/>
      </defs>
      <g transform="translate(364.978977 309.815313)scale(0.28 -0.28)">
       <use xlink:href="#DejaVuSans-53"/>
      </g>
     </g>
    </g>
    <g id="text_6">
     <!-- -log10 p-value -->
     <defs>
      <path d="M 4.890625 31.390625 
L 31.203125 31.390625 
L 31.203125 23.390625 
L 4.890625 23.390625 
z
" id="DejaVuSans-45"/>
      <path d="M 9.421875 75.984375 
L 18.40625 75.984375 
L 18.40625 0 
L 9.421875 0 
z
" id="DejaVuSans-108"/>
      <path d="M 30.609375 48.390625 
Q 23.390625 48.390625 19.1875 42.75 
Q 14.984375 37.109375 14.984375 27.296875 
Q 14.984375 17.484375 19.15625 11.84375 
Q 23.34375 6.203125 30.609375 6.203125 
Q 37.796875 6.203125 41.984375 11.859375 
Q 46.1875 17.53125 46.1875 27.296875 
Q 46.1875 37.015625 41.984375 42.703125 
Q 37.796875 48.390625 30.609375 48.390625 
z
M 30.609375 56 
Q 42.328125 56 49.015625 48.375 
Q 55.71875 40.765625 55.71875 27.296875 
Q 55.71875 13.875 49.015625 6.21875 
Q 42.328125 -1.421875 30.609375 -1.421875 
Q 18.84375 -1.421875 12.171875 6.21875 
Q 5.515625 13.875 5.515625 27.296875 
Q 5.515625 40.765625 12.171875 48.375 
Q 18.84375 56 30.609375 56 
z
" id="DejaVuSans-111"/>
      <path d="M 45.40625 27.984375 
Q 45.40625 37.75 41.375 43.109375 
Q 37.359375 48.484375 30.078125 48.484375 
Q 22.859375 48.484375 18.828125 43.109375 
Q 14.796875 37.75 14.796875 27.984375 
Q 14.796875 18.265625 18.828125 12.890625 
Q 22.859375 7.515625 30.078125 7.515625 
Q 37.359375 7.515625 41.375 12.890625 
Q 45.40625 18.265625 45.40625 27.984375 
z
M 54.390625 6.78125 
Q 54.390625 -7.171875 48.1875 -13.984375 
Q 42 -20.796875 29.203125 -20.796875 
Q 24.46875 -20.796875 20.265625 -20.09375 
Q 16.0625 -19.390625 12.109375 -17.921875 
L 12.109375 -9.1875 
Q 16.0625 -11.328125 19.921875 -12.34375 
Q 23.78125 -13.375 27.78125 -13.375 
Q 36.625 -13.375 41.015625 -8.765625 
Q 45.40625 -4.15625 45.40625 5.171875 
L 45.40625 9.625 
Q 42.625 4.78125 38.28125 2.390625 
Q 33.9375 0 27.875 0 
Q 17.828125 0 11.671875 7.65625 
Q 5.515625 15.328125 5.515625 27.984375 
Q 5.515625 40.671875 11.671875 48.328125 
Q 17.828125 56 27.875 56 
Q 33.9375 56 38.28125 53.609375 
Q 42.625 51.21875 45.40625 46.390625 
L 45.40625 54.6875 
L 54.390625 54.6875 
z
" id="DejaVuSans-103"/>
      <path d="M 31.78125 66.40625 
Q 24.171875 66.40625 20.328125 58.90625 
Q 16.5 51.421875 16.5 36.375 
Q 16.5 21.390625 20.328125 13.890625 
Q 24.171875 6.390625 31.78125 6.390625 
Q 39.453125 6.390625 43.28125 13.890625 
Q 47.125 21.390625 47.125 36.375 
Q 47.125 51.421875 43.28125 58.90625 
Q 39.453125 66.40625 31.78125 66.40625 
z
M 31.78125 74.21875 
Q 44.046875 74.21875 50.515625 64.515625 
Q 56.984375 54.828125 56.984375 36.375 
Q 56.984375 17.96875 50.515625 8.265625 
Q 44.046875 -1.421875 31.78125 -1.421875 
Q 19.53125 -1.421875 13.0625 8.265625 
Q 6.59375 17.96875 6.59375 36.375 
Q 6.59375 54.828125 13.0625 64.515625 
Q 19.53125 74.21875 31.78125 74.21875 
z
" id="DejaVuSans-48"/>
      <path id="DejaVuSans-32"/>
      <path d="M 18.109375 8.203125 
L 18.109375 -20.796875 
L 9.078125 -20.796875 
L 9.078125 54.6875 
L 18.109375 54.6875 
L 18.109375 46.390625 
Q 20.953125 51.265625 25.265625 53.625 
Q 29.59375 56 35.59375 56 
Q 45.5625 56 51.78125 48.09375 
Q 58.015625 40.1875 58.015625 27.296875 
Q 58.015625 14.40625 51.78125 6.484375 
Q 45.5625 -1.421875 35.59375 -1.421875 
Q 29.59375 -1.421875 25.265625 0.953125 
Q 20.953125 3.328125 18.109375 8.203125 
z
M 48.6875 27.296875 
Q 48.6875 37.203125 44.609375 42.84375 
Q 40.53125 48.484375 33.40625 48.484375 
Q 26.265625 48.484375 22.1875 42.84375 
Q 18.109375 37.203125 18.109375 27.296875 
Q 18.109375 17.390625 22.1875 11.75 
Q 26.265625 6.109375 33.40625 6.109375 
Q 40.53125 6.109375 44.609375 11.75 
Q 48.6875 17.390625 48.6875 27.296875 
z
" id="DejaVuSans-112"/>
      <path d="M 2.984375 54.6875 
L 12.5 54.6875 
L 29.59375 8.796875 
L 46.6875 54.6875 
L 56.203125 54.6875 
L 35.6875 0 
L 23.484375 0 
z
" id="DejaVuSans-118"/>
      <path d="M 34.28125 27.484375 
Q 23.390625 27.484375 19.1875 25 
Q 14.984375 22.515625 14.984375 16.5 
Q 14.984375 11.71875 18.140625 8.90625 
Q 21.296875 6.109375 26.703125 6.109375 
Q 34.1875 6.109375 38.703125 11.40625 
Q 43.21875 16.703125 43.21875 25.484375 
L 43.21875 27.484375 
z
M 52.203125 31.203125 
L 52.203125 0 
L 43.21875 0 
L 43.21875 8.296875 
Q 40.140625 3.328125 35.546875 0.953125 
Q 30.953125 -1.421875 24.3125 -1.421875 
Q 15.921875 -1.421875 10.953125 3.296875 
Q 6 8.015625 6 15.921875 
Q 6 25.140625 12.171875 29.828125 
Q 18.359375 34.515625 30.609375 34.515625 
L 43.21875 34.515625 
L 43.21875 35.40625 
Q 43.21875 41.609375 39.140625 45 
Q 35.0625 48.390625 27.6875 48.390625 
Q 23 48.390625 18.546875 47.265625 
Q 14.109375 46.140625 10.015625 43.890625 
L 10.015625 52.203125 
Q 14.9375 54.109375 19.578125 55.046875 
Q 24.21875 56 28.609375 56 
Q 40.484375 56 46.34375 49.84375 
Q 52.203125 43.703125 52.203125 31.203125 
z
" id="DejaVuSans-97"/>
      <path d="M 8.5 21.578125 
L 8.5 54.6875 
L 17.484375 54.6875 
L 17.484375 21.921875 
Q 17.484375 14.15625 20.5 10.265625 
Q 23.53125 6.390625 29.59375 6.390625 
Q 36.859375 6.390625 41.078125 11.03125 
Q 45.3125 15.671875 45.3125 23.6875 
L 45.3125 54.6875 
L 54.296875 54.6875 
L 54.296875 0 
L 45.3125 0 
L 45.3125 8.40625 
Q 42.046875 3.421875 37.71875 1 
Q 33.40625 -1.421875 27.6875 -1.421875 
Q 18.265625 -1.421875 13.375 4.4375 
Q 8.5 10.296875 8.5 21.578125 
z
M 31.109375 56 
z
" id="DejaVuSans-117"/>
      <path d="M 56.203125 29.59375 
L 56.203125 25.203125 
L 14.890625 25.203125 
Q 15.484375 15.921875 20.484375 11.0625 
Q 25.484375 6.203125 34.421875 6.203125 
Q 39.59375 6.203125 44.453125 7.46875 
Q 49.3125 8.734375 54.109375 11.28125 
L 54.109375 2.78125 
Q 49.265625 0.734375 44.1875 -0.34375 
Q 39.109375 -1.421875 33.890625 -1.421875 
Q 20.796875 -1.421875 13.15625 6.1875 
Q 5.515625 13.8125 5.515625 26.8125 
Q 5.515625 40.234375 12.765625 48.109375 
Q 20.015625 56 32.328125 56 
Q 43.359375 56 49.78125 48.890625 
Q 56.203125 41.796875 56.203125 29.59375 
z
M 47.21875 32.234375 
Q 47.125 39.59375 43.09375 43.984375 
Q 39.0625 48.390625 32.421875 48.390625 
Q 24.90625 48.390625 20.390625 44.140625 
Q 15.875 39.890625 15.1875 32.171875 
z
" id="DejaVuSans-101"/>
     </defs>
     <g transform="translate(125.77875 340.914062)scale(0.28 -0.28)">
      <use xlink:href="#DejaVuSans-45"/>
      <use x="36.083984" xlink:href="#DejaVuSans-108"/>
      <use x="63.867188" xlink:href="#DejaVuSans-111"/>
      <use x="125.048828" xlink:href="#DejaVuSans-103"/>
      <use x="188.525391" xlink:href="#DejaVuSans-49"/>
      <use x="252.148438" xlink:href="#DejaVuSans-48"/>
      <use x="315.771484" xlink:href="#DejaVuSans-32"/>
      <use x="347.558594" xlink:href="#DejaVuSans-112"/>
      <use x="411.035156" xlink:href="#DejaVuSans-45"/>
      <use x="447.087891" xlink:href="#DejaVuSans-118"/>
      <use x="506.267578" xlink:href="#DejaVuSans-97"/>
      <use x="567.546875" xlink:href="#DejaVuSans-108"/>
      <use x="595.330078" xlink:href="#DejaVuSans-117"/>
      <use x="658.708984" xlink:href="#DejaVuSans-101"/>
     </g>
    </g>
   </g>
   <g id="matplotlib.axis_2">
    <g id="ytick_1">
     <g id="line2d_6">
      <defs>
       <path d="M 0 0 
L -5 0 
" id="m5187712507" style="stroke:#000000;stroke-width:0.8;"/>
      </defs>
      <g>
       <use style="stroke:#000000;stroke-width:0.8;" x="64.61375" xlink:href="#m5187712507" y="277.348598"/>
      </g>
     </g>
     <g id="text_7">
      <!-- 0 -->
      <g transform="translate(38.29875 287.986411)scale(0.28 -0.28)">
       <use xlink:href="#DejaVuSans-48"/>
      </g>
     </g>
    </g>
    <g id="ytick_2">
     <g id="line2d_7">
      <g>
       <use style="stroke:#000000;stroke-width:0.8;" x="64.61375" xlink:href="#m5187712507" y="169.705034"/>
      </g>
     </g>
     <g id="text_8">
      <!-- 2 -->
      <g transform="translate(38.29875 180.342847)scale(0.28 -0.28)">
       <use xlink:href="#DejaVuSans-50"/>
      </g>
     </g>
    </g>
    <g id="ytick_3">
     <g id="line2d_8">
      <g>
       <use style="stroke:#000000;stroke-width:0.8;" x="64.61375" xlink:href="#m5187712507" y="62.06147"/>
      </g>
     </g>
     <g id="text_9">
      <!-- 4 -->
      <g transform="translate(38.29875 72.699282)scale(0.28 -0.28)">
       <use xlink:href="#DejaVuSans-52"/>
      </g>
     </g>
    </g>
    <g id="text_10">
     <!-- enrichment p-value -->
     <defs>
      <path d="M 54.890625 33.015625 
L 54.890625 0 
L 45.90625 0 
L 45.90625 32.71875 
Q 45.90625 40.484375 42.875 44.328125 
Q 39.84375 48.1875 33.796875 48.1875 
Q 26.515625 48.1875 22.3125 43.546875 
Q 18.109375 38.921875 18.109375 30.90625 
L 18.109375 0 
L 9.078125 0 
L 9.078125 54.6875 
L 18.109375 54.6875 
L 18.109375 46.1875 
Q 21.34375 51.125 25.703125 53.5625 
Q 30.078125 56 35.796875 56 
Q 45.21875 56 50.046875 50.171875 
Q 54.890625 44.34375 54.890625 33.015625 
z
" id="DejaVuSans-110"/>
      <path d="M 41.109375 46.296875 
Q 39.59375 47.171875 37.8125 47.578125 
Q 36.03125 48 33.890625 48 
Q 26.265625 48 22.1875 43.046875 
Q 18.109375 38.09375 18.109375 28.8125 
L 18.109375 0 
L 9.078125 0 
L 9.078125 54.6875 
L 18.109375 54.6875 
L 18.109375 46.1875 
Q 20.953125 51.171875 25.484375 53.578125 
Q 30.03125 56 36.53125 56 
Q 37.453125 56 38.578125 55.875 
Q 39.703125 55.765625 41.0625 55.515625 
z
" id="DejaVuSans-114"/>
      <path d="M 9.421875 54.6875 
L 18.40625 54.6875 
L 18.40625 0 
L 9.421875 0 
z
M 9.421875 75.984375 
L 18.40625 75.984375 
L 18.40625 64.59375 
L 9.421875 64.59375 
z
" id="DejaVuSans-105"/>
      <path d="M 48.78125 52.59375 
L 48.78125 44.1875 
Q 44.96875 46.296875 41.140625 47.34375 
Q 37.3125 48.390625 33.40625 48.390625 
Q 24.65625 48.390625 19.8125 42.84375 
Q 14.984375 37.3125 14.984375 27.296875 
Q 14.984375 17.28125 19.8125 11.734375 
Q 24.65625 6.203125 33.40625 6.203125 
Q 37.3125 6.203125 41.140625 7.25 
Q 44.96875 8.296875 48.78125 10.40625 
L 48.78125 2.09375 
Q 45.015625 0.34375 40.984375 -0.53125 
Q 36.96875 -1.421875 32.421875 -1.421875 
Q 20.0625 -1.421875 12.78125 6.34375 
Q 5.515625 14.109375 5.515625 27.296875 
Q 5.515625 40.671875 12.859375 48.328125 
Q 20.21875 56 33.015625 56 
Q 37.15625 56 41.109375 55.140625 
Q 45.0625 54.296875 48.78125 52.59375 
z
" id="DejaVuSans-99"/>
      <path d="M 54.890625 33.015625 
L 54.890625 0 
L 45.90625 0 
L 45.90625 32.71875 
Q 45.90625 40.484375 42.875 44.328125 
Q 39.84375 48.1875 33.796875 48.1875 
Q 26.515625 48.1875 22.3125 43.546875 
Q 18.109375 38.921875 18.109375 30.90625 
L 18.109375 0 
L 9.078125 0 
L 9.078125 75.984375 
L 18.109375 75.984375 
L 18.109375 46.1875 
Q 21.34375 51.125 25.703125 53.5625 
Q 30.078125 56 35.796875 56 
Q 45.21875 56 50.046875 50.171875 
Q 54.890625 44.34375 54.890625 33.015625 
z
" id="DejaVuSans-104"/>
      <path d="M 52 44.1875 
Q 55.375 50.25 60.0625 53.125 
Q 64.75 56 71.09375 56 
Q 79.640625 56 84.28125 50.015625 
Q 88.921875 44.046875 88.921875 33.015625 
L 88.921875 0 
L 79.890625 0 
L 79.890625 32.71875 
Q 79.890625 40.578125 77.09375 44.375 
Q 74.3125 48.1875 68.609375 48.1875 
Q 61.625 48.1875 57.5625 43.546875 
Q 53.515625 38.921875 53.515625 30.90625 
L 53.515625 0 
L 44.484375 0 
L 44.484375 32.71875 
Q 44.484375 40.625 41.703125 44.40625 
Q 38.921875 48.1875 33.109375 48.1875 
Q 26.21875 48.1875 22.15625 43.53125 
Q 18.109375 38.875 18.109375 30.90625 
L 18.109375 0 
L 9.078125 0 
L 9.078125 54.6875 
L 18.109375 54.6875 
L 18.109375 46.1875 
Q 21.1875 51.21875 25.484375 53.609375 
Q 29.78125 56 35.6875 56 
Q 41.65625 56 45.828125 52.96875 
Q 50 49.953125 52 44.1875 
z
" id="DejaVuSans-109"/>
      <path d="M 18.3125 70.21875 
L 18.3125 54.6875 
L 36.8125 54.6875 
L 36.8125 47.703125 
L 18.3125 47.703125 
L 18.3125 18.015625 
Q 18.3125 11.328125 20.140625 9.421875 
Q 21.96875 7.515625 27.59375 7.515625 
L 36.8125 7.515625 
L 36.8125 0 
L 27.59375 0 
Q 17.1875 0 13.234375 3.875 
Q 9.28125 7.765625 9.28125 18.015625 
L 9.28125 47.703125 
L 2.6875 47.703125 
L 2.6875 54.6875 
L 9.28125 54.6875 
L 9.28125 70.21875 
z
" id="DejaVuSans-116"/>
     </defs>
     <g transform="translate(28.475625 281.079375)rotate(-90)scale(0.28 -0.28)">
      <use xlink:href="#DejaVuSans-101"/>
      <use x="61.523438" xlink:href="#DejaVuSans-110"/>
      <use x="124.902344" xlink:href="#DejaVuSans-114"/>
      <use x="166.015625" xlink:href="#DejaVuSans-105"/>
      <use x="193.798828" xlink:href="#DejaVuSans-99"/>
      <use x="248.779297" xlink:href="#DejaVuSans-104"/>
      <use x="312.158203" xlink:href="#DejaVuSans-109"/>
      <use x="409.570312" xlink:href="#DejaVuSans-101"/>
      <use x="471.09375" xlink:href="#DejaVuSans-110"/>
      <use x="534.472656" xlink:href="#DejaVuSans-116"/>
      <use x="573.681641" xlink:href="#DejaVuSans-32"/>
      <use x="605.46875" xlink:href="#DejaVuSans-112"/>
      <use x="668.945312" xlink:href="#DejaVuSans-45"/>
      <use x="704.998047" xlink:href="#DejaVuSans-118"/>
      <use x="764.177734" xlink:href="#DejaVuSans-97"/>
      <use x="825.457031" xlink:href="#DejaVuSans-108"/>
      <use x="853.240234" xlink:href="#DejaVuSans-117"/>
      <use x="916.619141" xlink:href="#DejaVuSans-101"/>
     </g>
    </g>
   </g>
   <g id="line2d_9">
    <path clip-path="url(#pdaa014f706)" d="M 79.341023 132.183123 
L 98.486477 132.183123 
L 99.222841 133.952987 
L 99.959205 132.183123 
L 105.850114 132.183123 
L 106.586477 142.346031 
L 107.322841 141.319647 
L 108.059205 136.314429 
L 108.795568 133.952987 
L 109.531932 132.995933 
L 110.268295 132.995933 
L 111.004659 132.225034 
L 111.741023 132.183123 
L 112.477386 151.531185 
L 113.21375 149.728701 
L 113.950114 149.53271 
L 114.686477 158.003983 
L 115.422841 164.106677 
L 116.159205 163.096393 
L 117.631932 159.320083 
L 118.368295 158.003983 
L 119.104659 156.396253 
L 119.841023 153.7036 
L 120.577386 160.42897 
L 121.31375 159.320083 
L 122.050114 164.106677 
L 122.786477 163.899382 
L 123.522841 163.096393 
L 124.259205 163.096393 
L 124.995568 162.798742 
L 125.731932 162.798742 
L 126.468295 161.271209 
L 127.204659 160.390597 
L 127.941023 160.390597 
L 128.677386 158.558635 
L 129.41375 158.003983 
L 130.150114 158.003983 
L 130.886477 156.152778 
L 131.622841 163.748135 
L 132.359205 163.096393 
L 133.095568 172.36773 
L 133.831932 168.486452 
L 134.568295 167.260225 
L 135.304659 167.064413 
L 136.041023 164.744497 
L 136.777386 163.977258 
L 137.51375 163.514244 
L 138.250114 163.514244 
L 138.986477 162.798742 
L 140.459205 162.798742 
L 141.195568 162.372979 
L 141.931932 162.372979 
L 143.404659 158.558635 
L 146.350114 158.558635 
L 147.086477 154.236066 
L 147.822841 152.109971 
L 148.559205 151.467564 
L 149.295568 149.012435 
L 150.031932 149.012435 
L 150.768295 147.114817 
L 151.504659 145.897028 
L 152.241023 142.599118 
L 152.977386 141.359002 
L 153.71375 136.085964 
L 154.450114 132.714405 
L 155.186477 132.714405 
L 155.922841 132.225034 
L 158.131932 132.183123 
L 167.704659 132.183123 
L 168.441023 138.024442 
L 169.177386 136.684968 
L 169.91375 134.004192 
L 170.650114 132.995933 
L 171.386477 132.714405 
L 172.122841 132.714405 
L 172.859205 132.183123 
L 178.01375 132.183123 
L 178.750114 137.699076 
L 179.486477 136.314429 
L 180.222841 149.012435 
L 181.695568 149.012435 
L 182.431932 146.619948 
L 183.168295 156.396253 
L 183.904659 163.977258 
L 184.641023 163.977258 
L 185.377386 163.534881 
L 186.11375 162.798742 
L 186.850114 162.798742 
L 187.586477 162.372979 
L 189.059205 162.372979 
L 189.795568 161.271209 
L 191.268295 159.498537 
L 192.004659 159.498537 
L 192.741023 158.661897 
L 193.477386 157.057791 
L 194.21375 157.057791 
L 194.950114 156.152778 
L 195.686477 154.624324 
L 196.422841 154.624324 
L 197.159205 153.887924 
L 197.895568 152.583798 
L 200.104659 149.53271 
L 203.050114 149.53271 
L 203.786477 149.012435 
L 208.204659 149.012435 
L 208.941023 156.396253 
L 209.677386 154.236066 
L 211.150114 151.705931 
L 211.886477 151.705931 
L 212.622841 150.759367 
L 213.359205 150.759367 
L 214.095568 149.618395 
L 214.831932 149.618395 
L 215.568295 160.390597 
L 216.304659 160.390597 
L 217.041023 159.498537 
L 217.777386 159.498537 
L 218.51375 158.585128 
L 219.250114 154.298034 
L 219.986477 154.298034 
L 220.722841 163.977258 
L 221.459205 163.977258 
L 222.195568 173.459712 
L 223.668295 173.459712 
L 224.404659 172.63626 
L 225.141023 172.471548 
L 225.877386 172.471548 
L 226.61375 171.282129 
L 227.350114 168.486452 
L 228.086477 167.251997 
L 228.822841 167.251997 
L 229.559205 164.984825 
L 230.295568 164.984825 
L 231.031932 163.977258 
L 231.768295 163.977258 
L 232.504659 162.798742 
L 233.241023 172.36773 
L 236.186477 172.36773 
L 236.922841 179.931955 
L 237.659205 178.830814 
L 238.395568 178.830814 
L 239.131932 178.024946 
L 241.341023 178.024946 
L 242.077386 176.102145 
L 242.81375 176.102145 
L 243.550114 175.336778 
L 244.286477 174.322091 
L 246.495568 174.322091 
L 247.231932 173.682015 
L 248.704659 173.682015 
L 249.441023 173.459712 
L 250.177386 172.471548 
L 252.386477 172.36773 
L 253.122841 171.609684 
L 253.859205 171.609684 
L 254.595568 168.64883 
L 256.068295 164.984825 
L 256.804659 163.977258 
L 257.541023 161.380336 
L 258.277386 160.390597 
L 259.01375 160.390597 
L 259.750114 168.486452 
L 261.959205 168.486452 
L 262.695568 167.251997 
L 264.168295 167.251997 
L 264.904659 175.336778 
L 265.641023 185.611628 
L 266.377386 184.140219 
L 268.586477 184.140219 
L 269.322841 181.180678 
L 273.741023 181.180678 
L 274.477386 180.262727 
L 275.21375 180.262727 
L 275.950114 178.262842 
L 277.422841 178.262842 
L 278.159205 177.412191 
L 278.895568 176.102145 
L 281.104659 176.102145 
L 281.841023 174.322091 
L 284.786477 174.322091 
L 285.522841 173.459712 
L 287.731932 173.459712 
L 288.468295 172.471548 
L 290.677386 172.471548 
L 291.41375 181.180678 
L 292.150114 181.180678 
L 292.886477 180.262727 
L 293.622841 180.262727 
L 294.359205 178.9423 
L 295.095568 178.024946 
L 298.777386 178.024946 
L 300.250114 175.923825 
L 300.986477 175.923825 
L 301.722841 174.252675 
L 302.459205 185.542398 
L 303.931932 185.542398 
L 304.668295 184.065625 
L 305.404659 184.065625 
L 306.141023 182.25957 
L 307.61375 182.25957 
L 308.350114 181.026218 
L 311.295568 181.026218 
L 312.031932 180.035007 
L 312.768295 178.716542 
L 314.977386 178.716542 
L 315.71375 176.102145 
L 318.659205 176.102145 
L 319.395568 175.336778 
L 320.131932 174.322091 
L 322.341023 174.322091 
L 323.81375 172.471548 
L 334.122841 172.36773 
L 334.859205 171.282129 
L 335.595568 171.282129 
L 336.331932 180.262727 
L 340.750114 180.262727 
L 341.486477 178.9423 
L 345.168295 178.9423 
L 345.904659 178.024946 
L 346.641023 178.024946 
L 347.377386 176.539013 
L 348.11375 176.539013 
L 348.850114 175.336778 
L 358.422841 175.336778 
L 359.159205 173.459712 
L 365.050114 173.459712 
L 365.786477 172.471548 
L 367.995568 172.471548 
L 368.731932 171.282129 
L 370.204659 171.282129 
L 370.941023 167.251997 
L 373.886477 167.251997 
L 373.886477 167.251997 
" style="fill:none;stroke:#8b0000;stroke-linecap:square;stroke-width:2;"/>
   </g>
   <g id="line2d_10">
    <path clip-path="url(#pdaa014f706)" d="M 79.341023 53.207106 
L 80.077386 52.920358 
L 85.231932 52.920358 
L 85.968295 74.887656 
L 86.704659 69.04158 
L 88.177386 65.463905 
L 88.91375 88.344741 
L 89.650114 88.344741 
L 90.386477 89.029117 
L 92.595568 89.029117 
L 93.331932 88.344741 
L 99.222841 88.344741 
L 99.959205 92.106876 
L 101.431932 92.106876 
L 102.168295 93.961231 
L 102.904659 90.914651 
L 103.641023 89.029117 
L 105.11375 89.029117 
L 105.850114 90.651571 
L 106.586477 98.533001 
L 107.322841 96.161168 
L 108.059205 91.407908 
L 108.795568 89.173932 
L 109.531932 89.029117 
L 110.268295 89.029117 
L 111.004659 88.344741 
L 111.741023 88.344741 
L 112.477386 89.173932 
L 113.21375 89.029117 
L 113.950114 88.344741 
L 114.686477 92.106876 
L 115.422841 89.173932 
L 116.159205 89.029117 
L 116.895568 89.029117 
L 117.631932 90.572434 
L 118.368295 89.029117 
L 119.104659 88.344741 
L 119.841023 88.344741 
L 120.577386 89.029117 
L 121.31375 88.344741 
L 133.831932 88.344741 
L 134.568295 89.173932 
L 135.304659 89.029117 
L 136.041023 88.344741 
L 141.931932 88.344741 
L 142.668295 93.801047 
L 143.404659 95.857557 
L 146.350114 95.857557 
L 147.086477 116.654609 
L 147.822841 112.003947 
L 148.559205 109.955233 
L 149.295568 97.179548 
L 150.031932 97.179548 
L 150.768295 93.801047 
L 151.504659 92.693228 
L 152.241023 95.872994 
L 152.977386 93.961231 
L 153.71375 94.270628 
L 154.450114 96.578689 
L 155.186477 96.578689 
L 156.659205 93.522284 
L 158.131932 93.522284 
L 158.868295 92.106876 
L 159.604659 97.179548 
L 160.341023 93.801047 
L 161.077386 91.407908 
L 161.81375 90.572434 
L 162.550114 89.029117 
L 163.286477 91.407908 
L 165.495568 91.407908 
L 166.231932 90.651571 
L 167.704659 90.651571 
L 168.441023 92.994956 
L 169.177386 91.856638 
L 169.91375 89.324346 
L 170.650114 89.029117 
L 171.386477 92.090298 
L 172.122841 92.090298 
L 172.859205 90.914651 
L 175.068295 90.914651 
L 175.804659 89.634551 
L 176.541023 89.029117 
L 177.277386 91.134698 
L 178.01375 89.900122 
L 178.750114 93.801047 
L 179.486477 92.106876 
L 180.222841 95.857557 
L 180.959205 93.801047 
L 181.695568 93.801047 
L 182.431932 91.407908 
L 183.168295 95.872994 
L 183.904659 101.844855 
L 184.641023 101.844855 
L 185.377386 98.533001 
L 186.11375 95.903929 
L 186.850114 95.903929 
L 187.586477 93.961231 
L 189.059205 93.961231 
L 189.795568 92.978026 
L 190.531932 91.407908 
L 191.268295 96.011701 
L 192.004659 96.011701 
L 192.741023 94.084627 
L 193.477386 99.015803 
L 194.21375 99.015803 
L 194.950114 96.161168 
L 195.686477 94.087463 
L 196.422841 94.087463 
L 197.159205 92.992246 
L 197.895568 91.407908 
L 198.631932 90.651571 
L 199.368295 89.029117 
L 203.050114 89.029117 
L 203.786477 88.344741 
L 208.941023 88.344741 
L 209.677386 89.029117 
L 210.41375 89.029117 
L 211.150114 88.344741 
L 213.359205 88.344741 
L 214.095568 89.029117 
L 214.831932 89.029117 
L 215.568295 92.992246 
L 216.304659 92.992246 
L 217.041023 91.407908 
L 217.777386 91.407908 
L 218.51375 90.651571 
L 219.250114 88.344741 
L 219.986477 88.344741 
L 220.722841 89.029117 
L 221.459205 89.029117 
L 222.195568 92.992246 
L 223.668295 92.992246 
L 224.404659 99.890226 
L 225.141023 110.620345 
L 225.877386 110.620345 
L 227.350114 122.821108 
L 228.086477 120.03667 
L 228.822841 120.03667 
L 229.559205 113.567465 
L 230.295568 113.567465 
L 231.031932 110.620345 
L 231.768295 110.620345 
L 232.504659 103.477377 
L 233.241023 110.620345 
L 236.186477 110.620345 
L 236.922841 120.03667 
L 237.659205 116.654609 
L 238.395568 116.654609 
L 239.131932 113.54221 
L 241.341023 113.54221 
L 242.077386 107.146451 
L 242.81375 107.146451 
L 244.286477 125.962372 
L 246.495568 125.962372 
L 247.231932 122.816402 
L 248.704659 122.816402 
L 249.441023 120.03667 
L 250.177386 116.654609 
L 251.650114 116.654609 
L 253.122841 110.558204 
L 253.859205 110.558204 
L 255.331932 122.652614 
L 256.804659 116.370572 
L 257.541023 119.362936 
L 258.277386 128.605661 
L 259.01375 128.605661 
L 259.750114 132.105886 
L 261.959205 132.105886 
L 262.695568 128.419791 
L 264.168295 128.419791 
L 265.641023 141.31136 
L 266.377386 138.000785 
L 268.586477 138.000785 
L 269.322841 144.029764 
L 273.741023 144.029764 
L 274.477386 141.076455 
L 275.21375 141.076455 
L 275.950114 134.497156 
L 277.422841 134.497156 
L 278.159205 131.066808 
L 278.895568 140.833634 
L 281.104659 140.833634 
L 281.841023 146.326738 
L 284.786477 146.326738 
L 285.522841 154.526313 
L 287.731932 154.526313 
L 288.468295 148.175894 
L 290.677386 148.175894 
L 291.41375 158.001073 
L 292.150114 158.001073 
L 292.886477 154.515413 
L 293.622841 154.515413 
L 295.095568 148.016984 
L 298.777386 148.016984 
L 299.51375 146.312386 
L 300.250114 143.054665 
L 300.986477 143.054665 
L 301.722841 135.379135 
L 302.459205 145.774731 
L 303.931932 145.774731 
L 304.668295 153.88327 
L 305.404659 153.88327 
L 306.141023 150.30677 
L 307.61375 150.30677 
L 308.350114 147.275243 
L 311.295568 147.275243 
L 312.031932 157.115985 
L 312.768295 153.481126 
L 314.977386 153.481126 
L 315.71375 146.865367 
L 318.659205 146.865367 
L 319.395568 156.648424 
L 320.131932 153.088464 
L 322.341023 153.088464 
L 323.077386 149.116261 
L 323.81375 146.326738 
L 331.177386 146.326738 
L 331.91375 143.921025 
L 334.122841 143.921025 
L 334.859205 140.192336 
L 335.595568 140.192336 
L 336.331932 148.291849 
L 340.750114 148.291849 
L 341.486477 146.326738 
L 345.168295 146.326738 
L 345.904659 143.054665 
L 346.641023 143.054665 
L 347.377386 139.032046 
L 348.11375 139.032046 
L 348.850114 134.497156 
L 358.422841 134.497156 
L 359.159205 125.962372 
L 365.050114 125.962372 
L 365.786477 121.960881 
L 367.995568 121.960881 
L 368.731932 113.393438 
L 370.204659 113.393438 
L 370.941023 120.03667 
L 373.886477 120.03667 
L 373.886477 120.03667 
" style="fill:none;stroke:#000080;stroke-linecap:square;stroke-width:2;"/>
   </g>
   <g id="line2d_11">
    <path clip-path="url(#pdaa014f706)" d="M 79.341023 207.324845 
L 373.886477 207.324845 
" style="fill:none;stroke:#ff0000;stroke-dasharray:3.7,1.6;stroke-dashoffset:0;"/>
   </g>
   <g id="patch_3">
    <path d="M 64.61375 280.039688 
L 64.61375 8.239688 
" style="fill:none;stroke:#000000;stroke-linecap:square;stroke-linejoin:miter;"/>
   </g>
   <g id="patch_4">
    <path d="M 64.61375 280.039688 
L 388.61375 280.039688 
" style="fill:none;stroke:#000000;stroke-linecap:square;stroke-linejoin:miter;"/>
   </g>
  </g>
  <g id="axes_2">
   <g id="patch_5">
    <path d="M 404.81375 280.039688 
L 728.81375 280.039688 
L 728.81375 8.239688 
L 404.81375 8.239688 
z
" style="fill:none;"/>
   </g>
   <g id="matplotlib.axis_3">
    <g id="xtick_6">
     <g id="line2d_12">
      <g>
       <use style="stroke:#000000;stroke-width:0.8;" x="419.541023" xlink:href="#maacc93a80e" y="280.039688"/>
      </g>
     </g>
     <g id="text_11">
      <!-- 1 -->
      <g transform="translate(410.633523 309.815313)scale(0.28 -0.28)">
       <use xlink:href="#DejaVuSans-49"/>
      </g>
     </g>
    </g>
    <g id="xtick_7">
     <g id="line2d_13">
      <g>
       <use style="stroke:#000000;stroke-width:0.8;" x="493.177386" xlink:href="#maacc93a80e" y="280.039688"/>
      </g>
     </g>
     <g id="text_12">
      <!-- 2 -->
      <g transform="translate(484.269886 309.815313)scale(0.28 -0.28)">
       <use xlink:href="#DejaVuSans-50"/>
      </g>
     </g>
    </g>
    <g id="xtick_8">
     <g id="line2d_14">
      <g>
       <use style="stroke:#000000;stroke-width:0.8;" x="566.81375" xlink:href="#maacc93a80e" y="280.039688"/>
      </g>
     </g>
     <g id="text_13">
      <!-- 3 -->
      <g transform="translate(557.90625 309.815313)scale(0.28 -0.28)">
       <use xlink:href="#DejaVuSans-51"/>
      </g>
     </g>
    </g>
    <g id="xtick_9">
     <g id="line2d_15">
      <g>
       <use style="stroke:#000000;stroke-width:0.8;" x="640.450114" xlink:href="#maacc93a80e" y="280.039688"/>
      </g>
     </g>
     <g id="text_14">
      <!-- 4 -->
      <g transform="translate(631.542614 309.815313)scale(0.28 -0.28)">
       <use xlink:href="#DejaVuSans-52"/>
      </g>
     </g>
    </g>
    <g id="xtick_10">
     <g id="line2d_16">
      <g>
       <use style="stroke:#000000;stroke-width:0.8;" x="714.086477" xlink:href="#maacc93a80e" y="280.039688"/>
      </g>
     </g>
     <g id="text_15">
      <!-- 5 -->
      <g transform="translate(705.178977 309.815313)scale(0.28 -0.28)">
       <use xlink:href="#DejaVuSans-53"/>
      </g>
     </g>
    </g>
    <g id="text_16">
     <!-- -log10 p-value -->
     <g transform="translate(465.97875 340.914062)scale(0.28 -0.28)">
      <use xlink:href="#DejaVuSans-45"/>
      <use x="36.083984" xlink:href="#DejaVuSans-108"/>
      <use x="63.867188" xlink:href="#DejaVuSans-111"/>
      <use x="125.048828" xlink:href="#DejaVuSans-103"/>
      <use x="188.525391" xlink:href="#DejaVuSans-49"/>
      <use x="252.148438" xlink:href="#DejaVuSans-48"/>
      <use x="315.771484" xlink:href="#DejaVuSans-32"/>
      <use x="347.558594" xlink:href="#DejaVuSans-112"/>
      <use x="411.035156" xlink:href="#DejaVuSans-45"/>
      <use x="447.087891" xlink:href="#DejaVuSans-118"/>
      <use x="506.267578" xlink:href="#DejaVuSans-97"/>
      <use x="567.546875" xlink:href="#DejaVuSans-108"/>
      <use x="595.330078" xlink:href="#DejaVuSans-117"/>
      <use x="658.708984" xlink:href="#DejaVuSans-101"/>
     </g>
    </g>
   </g>
   <g id="matplotlib.axis_4">
    <g id="ytick_4"/>
    <g id="ytick_5"/>
    <g id="ytick_6"/>
   </g>
   <g id="line2d_17">
    <path clip-path="url(#p158f061962)" d="M 419.541023 145.655899 
L 420.277386 145.655899 
L 421.01375 150.621845 
L 421.750114 150.621845 
L 422.486477 145.776396 
L 423.222841 151.842843 
L 423.959205 152.646 
L 424.695568 152.646 
L 425.431932 147.99695 
L 426.168295 153.450292 
L 426.904659 153.450292 
L 427.641023 144.184201 
L 428.377386 149.258883 
L 429.11375 149.258883 
L 429.850114 141.581871 
L 430.586477 141.307955 
L 431.322841 141.581871 
L 434.268295 141.581871 
L 435.004659 141.307955 
L 435.741023 141.307955 
L 436.477386 130.608927 
L 437.21375 125.658107 
L 440.159205 125.658107 
L 440.895568 130.608927 
L 441.631932 140.03882 
L 442.368295 141.307955 
L 445.31375 141.307955 
L 446.050114 145.776396 
L 446.786477 145.776396 
L 447.522841 141.581871 
L 448.259205 146.902109 
L 448.995568 141.307955 
L 450.468295 141.307955 
L 451.204659 141.581871 
L 455.622841 141.581871 
L 456.359205 141.307955 
L 457.095568 141.581871 
L 457.831932 141.307955 
L 460.777386 141.307955 
L 461.51375 141.581871 
L 462.250114 141.581871 
L 462.986477 148.687292 
L 463.722841 148.687292 
L 464.459205 155.620619 
L 465.195568 155.620619 
L 465.931932 162.416988 
L 468.141023 162.416988 
L 468.877386 170.376329 
L 470.350114 170.376329 
L 471.086477 162.416988 
L 477.71375 162.416988 
L 478.450114 170.376329 
L 479.922841 170.376329 
L 480.659205 180.234615 
L 481.395568 170.376329 
L 482.131932 180.414054 
L 482.868295 180.414054 
L 483.604659 170.376329 
L 484.341023 170.376329 
L 485.077386 162.416988 
L 487.286477 162.416988 
L 488.022841 156.334334 
L 488.759205 162.416988 
L 489.495568 162.416988 
L 490.231932 155.620619 
L 490.968295 162.416988 
L 491.704659 170.376329 
L 496.122841 170.376329 
L 496.859205 193.401178 
L 497.595568 193.401178 
L 498.331932 201.872646 
L 505.695568 201.872646 
L 506.431932 206.183122 
L 513.059205 206.183122 
L 513.795568 206.405473 
L 525.577386 206.405473 
L 526.31375 210.891409 
L 541.041023 210.891409 
L 541.777386 206.405473 
L 562.395568 206.405473 
L 563.131932 206.183122 
L 569.759205 206.183122 
L 570.495568 206.405473 
L 593.322841 206.405473 
L 594.059205 206.183122 
L 601.422841 206.183122 
L 602.159205 201.872646 
L 605.841023 201.872646 
L 606.577386 206.405473 
L 617.622841 206.405473 
L 618.359205 210.891409 
L 624.986477 210.891409 
L 625.722841 206.418945 
L 626.459205 206.418945 
L 627.195568 210.891409 
L 661.804659 210.891409 
L 662.541023 206.418945 
L 663.277386 206.418945 
L 664.01375 210.891409 
L 675.795568 210.891409 
L 676.531932 206.405473 
L 678.741023 206.405473 
L 679.477386 210.913852 
L 680.21375 206.405473 
L 688.31375 206.405473 
L 689.050114 203.673965 
L 700.831932 203.673965 
L 701.568295 210.891409 
L 714.086477 210.891409 
L 714.086477 210.891409 
" style="fill:none;stroke:#8b0000;stroke-linecap:square;stroke-width:2;"/>
   </g>
   <g id="line2d_18">
    <path clip-path="url(#p158f061962)" d="M 419.541023 180.091483 
L 420.277386 180.091483 
L 421.01375 191.106774 
L 421.750114 191.106774 
L 422.486477 188.653651 
L 423.222841 187.642577 
L 423.959205 183.521194 
L 424.695568 183.521194 
L 425.431932 180.912934 
L 426.168295 179.639507 
L 426.904659 179.639507 
L 427.641023 174.351118 
L 428.377386 173.344018 
L 429.11375 173.344018 
L 429.850114 167.748529 
L 430.586477 164.613147 
L 431.322841 178.012104 
L 432.059205 187.642577 
L 434.268295 187.642577 
L 435.004659 183.303452 
L 435.741023 180.413411 
L 436.477386 175.888029 
L 437.21375 174.351118 
L 437.950114 174.351118 
L 438.686477 168.932577 
L 440.895568 159.133589 
L 441.631932 174.351118 
L 442.368295 172.425925 
L 443.104659 168.932577 
L 445.31375 168.932577 
L 446.050114 162.300345 
L 446.786477 162.300345 
L 447.522841 159.081683 
L 448.259205 168.932577 
L 448.995568 162.199384 
L 450.468295 162.199384 
L 451.204659 159.081683 
L 455.622841 159.081683 
L 456.359205 156.109389 
L 457.831932 147.726923 
L 459.304659 147.726923 
L 460.041023 143.772744 
L 461.51375 134.460717 
L 462.250114 134.460717 
L 462.986477 132.619436 
L 465.195568 132.619436 
L 465.931932 146.086616 
L 467.404659 146.086616 
L 468.141023 136.611348 
L 468.877386 133.559158 
L 470.350114 133.559158 
L 471.086477 132.619436 
L 478.450114 132.619436 
L 479.186477 132.191071 
L 481.395568 132.191071 
L 482.131932 132.619436 
L 484.341023 132.619436 
L 485.077386 132.191071 
L 488.022841 132.191071 
L 488.759205 132.619436 
L 489.495568 132.619436 
L 490.231932 132.191071 
L 513.059205 132.191071 
L 513.795568 132.619436 
L 541.041023 132.619436 
L 541.777386 132.191071 
L 569.759205 132.191071 
L 570.495568 132.619436 
L 605.841023 132.619436 
L 606.577386 134.045469 
L 617.622841 134.045469 
L 618.359205 159.081683 
L 624.986477 159.081683 
L 625.722841 152.932669 
L 626.459205 152.932669 
L 627.195568 174.351118 
L 644.868295 174.351118 
L 645.604659 188.381519 
L 661.804659 188.381519 
L 662.541023 184.164518 
L 663.277386 184.164518 
L 664.01375 204.293208 
L 675.795568 204.293208 
L 676.531932 198.980344 
L 678.741023 198.980344 
L 680.21375 187.602453 
L 688.31375 187.602453 
L 689.050114 180.091483 
L 700.831932 180.091483 
L 701.568295 196.327261 
L 714.086477 196.327261 
L 714.086477 196.327261 
" style="fill:none;stroke:#000080;stroke-linecap:square;stroke-width:2;"/>
   </g>
   <g id="line2d_19">
    <path clip-path="url(#p158f061962)" d="M 419.541023 207.324845 
L 714.086477 207.324845 
" style="fill:none;stroke:#ff0000;stroke-dasharray:3.7,1.6;stroke-dashoffset:0;"/>
   </g>
   <g id="patch_6">
    <path d="M 404.81375 280.039688 
L 404.81375 8.239688 
" style="fill:none;stroke:#000000;stroke-linecap:square;stroke-linejoin:miter;"/>
   </g>
   <g id="patch_7">
    <path d="M 404.81375 280.039688 
L 728.81375 280.039688 
" style="fill:none;stroke:#000000;stroke-linecap:square;stroke-linejoin:miter;"/>
   </g>
  </g>
  <g id="axes_3">
   <g id="patch_8">
    <path d="M 745.01375 280.039688 
L 1069.01375 280.039688 
L 1069.01375 8.239688 
L 745.01375 8.239688 
z
" style="fill:none;"/>
   </g>
   <g id="matplotlib.axis_5">
    <g id="xtick_11">
     <g id="line2d_20">
      <g>
       <use style="stroke:#000000;stroke-width:0.8;" x="759.741023" xlink:href="#maacc93a80e" y="280.039688"/>
      </g>
     </g>
     <g id="text_17">
      <!-- 1 -->
      <g transform="translate(750.833523 309.815313)scale(0.28 -0.28)">
       <use xlink:href="#DejaVuSans-49"/>
      </g>
     </g>
    </g>
    <g id="xtick_12">
     <g id="line2d_21">
      <g>
       <use style="stroke:#000000;stroke-width:0.8;" x="833.377386" xlink:href="#maacc93a80e" y="280.039688"/>
      </g>
     </g>
     <g id="text_18">
      <!-- 2 -->
      <g transform="translate(824.469886 309.815313)scale(0.28 -0.28)">
       <use xlink:href="#DejaVuSans-50"/>
      </g>
     </g>
    </g>
    <g id="xtick_13">
     <g id="line2d_22">
      <g>
       <use style="stroke:#000000;stroke-width:0.8;" x="907.01375" xlink:href="#maacc93a80e" y="280.039688"/>
      </g>
     </g>
     <g id="text_19">
      <!-- 3 -->
      <g transform="translate(898.10625 309.815313)scale(0.28 -0.28)">
       <use xlink:href="#DejaVuSans-51"/>
      </g>
     </g>
    </g>
    <g id="xtick_14">
     <g id="line2d_23">
      <g>
       <use style="stroke:#000000;stroke-width:0.8;" x="980.650114" xlink:href="#maacc93a80e" y="280.039688"/>
      </g>
     </g>
     <g id="text_20">
      <!-- 4 -->
      <g transform="translate(971.742614 309.815313)scale(0.28 -0.28)">
       <use xlink:href="#DejaVuSans-52"/>
      </g>
     </g>
    </g>
    <g id="xtick_15">
     <g id="line2d_24">
      <g>
       <use style="stroke:#000000;stroke-width:0.8;" x="1054.286477" xlink:href="#maacc93a80e" y="280.039688"/>
      </g>
     </g>
     <g id="text_21">
      <!-- 5 -->
      <g transform="translate(1045.378977 309.815313)scale(0.28 -0.28)">
       <use xlink:href="#DejaVuSans-53"/>
      </g>
     </g>
    </g>
    <g id="text_22">
     <!-- -log10 p-value -->
     <g transform="translate(806.17875 340.914062)scale(0.28 -0.28)">
      <use xlink:href="#DejaVuSans-45"/>
      <use x="36.083984" xlink:href="#DejaVuSans-108"/>
      <use x="63.867188" xlink:href="#DejaVuSans-111"/>
      <use x="125.048828" xlink:href="#DejaVuSans-103"/>
      <use x="188.525391" xlink:href="#DejaVuSans-49"/>
      <use x="252.148438" xlink:href="#DejaVuSans-48"/>
      <use x="315.771484" xlink:href="#DejaVuSans-32"/>
      <use x="347.558594" xlink:href="#DejaVuSans-112"/>
      <use x="411.035156" xlink:href="#DejaVuSans-45"/>
      <use x="447.087891" xlink:href="#DejaVuSans-118"/>
      <use x="506.267578" xlink:href="#DejaVuSans-97"/>
      <use x="567.546875" xlink:href="#DejaVuSans-108"/>
      <use x="595.330078" xlink:href="#DejaVuSans-117"/>
      <use x="658.708984" xlink:href="#DejaVuSans-101"/>
     </g>
    </g>
   </g>
   <g id="matplotlib.axis_6">
    <g id="ytick_7"/>
    <g id="ytick_8"/>
    <g id="ytick_9"/>
   </g>
   <g id="line2d_25">
    <path clip-path="url(#pf224a9dce8)" d="M 759.741023 214.770051 
L 760.477386 216.746668 
L 761.21375 216.746668 
L 761.950114 218.044756 
L 765.631932 218.062563 
L 766.368295 218.268204 
L 767.841023 218.268204 
L 770.786477 221.872681 
L 771.522841 222.857795 
L 772.259205 222.857795 
L 772.995568 223.771227 
L 774.468295 223.771227 
L 775.204659 224.730684 
L 775.941023 224.730684 
L 776.677386 214.389684 
L 777.41375 215.917398 
L 780.359205 215.917398 
L 781.095568 216.302931 
L 781.831932 217.515616 
L 782.568295 203.919845 
L 783.304659 206.07684 
L 784.041023 206.07684 
L 784.777386 206.866547 
L 785.51375 207.278213 
L 786.250114 208.010616 
L 788.459205 208.010616 
L 789.195568 208.488055 
L 792.877386 208.488055 
L 793.61375 197.144708 
L 798.768295 197.144708 
L 799.504659 197.957278 
L 800.977386 197.957278 
L 801.71375 198.645073 
L 802.450114 198.645073 
L 803.186477 200.460179 
L 803.922841 200.460179 
L 804.659205 200.852495 
L 805.395568 201.557846 
L 806.131932 193.195094 
L 824.541023 193.195094 
L 825.277386 193.318595 
L 826.01375 193.195094 
L 877.559205 193.195094 
L 878.295568 194.420583 
L 879.768295 197.144708 
L 886.395568 197.144708 
L 887.868295 198.645073 
L 911.431932 198.645073 
L 912.168295 200.129221 
L 912.904659 200.460179 
L 917.322841 200.460179 
L 918.059205 200.852495 
L 923.21375 200.852495 
L 923.950114 201.939877 
L 925.422841 201.939877 
L 926.159205 202.905593 
L 929.104659 202.905593 
L 930.577386 205.475189 
L 932.050114 205.475189 
L 932.786477 206.575105 
L 933.522841 206.575105 
L 934.259205 206.866547 
L 940.886477 206.866547 
L 941.622841 208.010616 
L 951.931932 208.010616 
L 952.668295 208.488055 
L 965.922841 208.488055 
L 966.659205 209.483448 
L 970.341023 209.483448 
L 971.077386 210.754852 
L 972.550114 210.754852 
L 973.286477 211.845663 
L 976.231932 211.845663 
L 976.968295 212.593913 
L 982.859205 212.593913 
L 983.595568 214.034389 
L 984.331932 214.389684 
L 993.168295 214.389684 
L 993.904659 215.742229 
L 994.641023 216.071988 
L 1001.268295 216.071988 
L 1002.004659 216.746668 
L 1007.159205 216.746668 
L 1007.895568 217.515616 
L 1013.786477 217.515616 
L 1014.522841 218.044756 
L 1036.61375 218.044756 
L 1037.350114 218.268204 
L 1048.395568 218.268204 
L 1049.131932 219.499665 
L 1050.604659 219.499665 
L 1051.341023 220.608617 
L 1054.286477 220.608617 
L 1054.286477 220.608617 
" style="fill:none;stroke:#8b0000;stroke-linecap:square;stroke-width:2;"/>
   </g>
   <g id="line2d_26">
    <path clip-path="url(#pf224a9dce8)" d="M 759.741023 153.652043 
L 760.477386 142.01287 
L 761.21375 142.01287 
L 761.950114 141.793625 
L 776.677386 141.793625 
L 777.41375 142.01287 
L 780.359205 142.01287 
L 781.095568 152.772147 
L 781.831932 144.716805 
L 782.568295 142.01287 
L 783.304659 147.09931 
L 784.041023 147.09931 
L 784.777386 156.648365 
L 785.51375 152.828845 
L 786.250114 162.111498 
L 786.986477 157.811662 
L 788.459205 157.811662 
L 789.195568 151.059143 
L 792.877386 151.059143 
L 793.61375 156.648365 
L 798.031932 156.648365 
L 798.768295 152.828845 
L 799.504659 162.111498 
L 800.977386 162.111498 
L 801.71375 151.059143 
L 802.450114 147.060553 
L 803.186477 152.772147 
L 803.922841 152.772147 
L 805.395568 144.115183 
L 806.131932 142.01287 
L 806.868295 141.793625 
L 824.541023 141.793625 
L 825.277386 142.01287 
L 826.01375 141.793625 
L 837.059205 141.793625 
L 837.795568 142.01287 
L 838.531932 141.793625 
L 858.41375 141.793625 
L 859.150114 142.01287 
L 859.886477 141.793625 
L 862.831932 141.793625 
L 863.568295 142.01287 
L 865.041023 142.01287 
L 865.777386 141.793625 
L 869.459205 141.793625 
L 870.195568 142.01287 
L 870.931932 142.01287 
L 871.668295 141.793625 
L 877.559205 141.793625 
L 878.295568 147.09931 
L 879.031932 142.01287 
L 879.768295 152.772147 
L 880.504659 147.81905 
L 881.241023 142.01287 
L 886.395568 142.01287 
L 887.131932 153.102592 
L 887.868295 162.111498 
L 888.604659 162.111498 
L 889.341023 157.811662 
L 894.495568 157.811662 
L 895.231932 166.776499 
L 898.177386 166.776499 
L 898.91375 162.111498 
L 911.431932 162.111498 
L 912.168295 171.851668 
L 912.904659 179.874134 
L 917.322841 179.874134 
L 918.059205 185.428033 
L 923.21375 185.428033 
L 923.950114 183.425334 
L 925.422841 183.425334 
L 926.159205 180.358733 
L 929.104659 180.358733 
L 929.841023 176.82329 
L 930.577386 171.851668 
L 932.050114 171.851668 
L 932.786477 167.695111 
L 933.522841 167.695111 
L 934.259205 162.668183 
L 940.886477 162.668183 
L 941.622841 171.851668 
L 942.359205 171.851668 
L 943.095568 167.695111 
L 951.931932 167.695111 
L 952.668295 177.596864 
L 953.404659 177.596864 
L 954.141023 184.413352 
L 965.922841 184.413352 
L 966.659205 181.084605 
L 970.341023 181.084605 
L 971.077386 188.661906 
L 972.550114 188.661906 
L 973.286477 184.413352 
L 976.231932 184.413352 
L 976.968295 193.731832 
L 982.859205 193.731832 
L 984.331932 184.413352 
L 993.168295 184.413352 
L 993.904659 194.341142 
L 994.641023 189.160612 
L 1001.268295 189.160612 
L 1002.004659 184.413352 
L 1007.159205 184.413352 
L 1007.895568 181.084605 
L 1013.786477 181.084605 
L 1014.522841 177.596864 
L 1021.886477 177.596864 
L 1022.622841 171.851668 
L 1036.61375 171.851668 
L 1037.350114 181.084605 
L 1048.395568 181.084605 
L 1049.131932 177.596864 
L 1050.604659 177.596864 
L 1051.341023 171.851668 
L 1054.286477 171.851668 
L 1054.286477 171.851668 
" style="fill:none;stroke:#000080;stroke-linecap:square;stroke-width:2;"/>
   </g>
   <g id="line2d_27">
    <path clip-path="url(#pf224a9dce8)" d="M 759.741023 207.324845 
L 1054.286477 207.324845 
" style="fill:none;stroke:#ff0000;stroke-dasharray:3.7,1.6;stroke-dashoffset:0;"/>
   </g>
   <g id="patch_9">
    <path d="M 745.01375 280.039688 
L 745.01375 8.239688 
" style="fill:none;stroke:#000000;stroke-linecap:square;stroke-linejoin:miter;"/>
   </g>
   <g id="patch_10">
    <path d="M 745.01375 280.039688 
L 1069.01375 280.039688 
" style="fill:none;stroke:#000000;stroke-linecap:square;stroke-linejoin:miter;"/>
   </g>
  </g>
 </g>
 <defs>
  <clipPath id="pdaa014f706">
   <rect height="271.8" width="324" x="64.61375" y="8.239688"/>
  </clipPath>
  <clipPath id="p158f061962">
   <rect height="271.8" width="324" x="404.81375" y="8.239688"/>
  </clipPath>
  <clipPath id="pf224a9dce8">
   <rect height="271.8" width="324" x="745.01375" y="8.239688"/>
  </clipPath>
 </defs>
</svg>
