<?xml version="1.0" encoding="utf-8" standalone="no"?>
<!DOCTYPE svg PUBLIC "-//W3C//DTD SVG 1.1//EN"
  "http://www.w3.org/Graphics/SVG/1.1/DTD/svg11.dtd">
<!-- Created with matplotlib (https://matplotlib.org/) -->
<svg height="300.852812pt" version="1.1" viewBox="0 0 1076.21375 300.852812" width="1076.21375pt" xmlns="http://www.w3.org/2000/svg" xmlns:xlink="http://www.w3.org/1999/xlink">
 <defs>
  <style type="text/css">
*{stroke-linecap:butt;stroke-linejoin:round;}
  </style>
 </defs>
 <g id="figure_1">
  <g id="patch_1">
   <path d="M 0 300.852812 
L 1076.21375 300.852812 
L 1076.21375 0 
L 0 0 
z
" style="fill:none;"/>
  </g>
  <g id="axes_1">
   <g id="patch_2">
    <path d="M 64.61375 226.955312 
L 388.61375 226.955312 
L 388.61375 9.515312 
L 64.61375 9.515312 
z
" style="fill:none;"/>
   </g>
   <g id="matplotlib.axis_1">
    <g id="xtick_1">
     <g id="line2d_1">
      <defs>
       <path d="M 0 0 
L 0 5 
" id="m39641e8db5" style="stroke:#000000;stroke-width:0.8;"/>
      </defs>
      <g>
       <use style="stroke:#000000;stroke-width:0.8;" x="79.341023" xlink:href="#m39641e8db5" y="226.955312"/>
      </g>
     </g>
     <g id="text_1">
      <!-- 1 -->
      <defs>
       <path d="M 12.40625 8.296875 
L 28.515625 8.296875 
L 28.515625 63.921875 
L 10.984375 60.40625 
L 10.984375 69.390625 
L 28.421875 72.90625 
L 38.28125 72.90625 
L 38.28125 8.296875 
L 54.390625 8.296875 
L 54.390625 0 
L 12.40625 0 
z
" id="DejaVuSans-49"/>
      </defs>
      <g transform="translate(70.433523 256.730937)scale(0.28 -0.28)">
       <use xlink:href="#DejaVuSans-49"/>
      </g>
     </g>
    </g>
    <g id="xtick_2">
     <g id="line2d_2">
      <g>
       <use style="stroke:#000000;stroke-width:0.8;" x="177.522841" xlink:href="#m39641e8db5" y="226.955312"/>
      </g>
     </g>
     <g id="text_2">
      <!-- 2 -->
      <defs>
       <path d="M 19.1875 8.296875 
L 53.609375 8.296875 
L 53.609375 0 
L 7.328125 0 
L 7.328125 8.296875 
Q 12.9375 14.109375 22.625 23.890625 
Q 32.328125 33.6875 34.8125 36.53125 
Q 39.546875 41.84375 41.421875 45.53125 
Q 43.3125 49.21875 43.3125 52.78125 
Q 43.3125 58.59375 39.234375 62.25 
Q 35.15625 65.921875 28.609375 65.921875 
Q 23.96875 65.921875 18.8125 64.3125 
Q 13.671875 62.703125 7.8125 59.421875 
L 7.8125 69.390625 
Q 13.765625 71.78125 18.9375 73 
Q 24.125 74.21875 28.421875 74.21875 
Q 39.75 74.21875 46.484375 68.546875 
Q 53.21875 62.890625 53.21875 53.421875 
Q 53.21875 48.921875 51.53125 44.890625 
Q 49.859375 40.875 45.40625 35.40625 
Q 44.1875 33.984375 37.640625 27.21875 
Q 31.109375 20.453125 19.1875 8.296875 
z
" id="DejaVuSans-50"/>
      </defs>
      <g transform="translate(168.615341 256.730937)scale(0.28 -0.28)">
       <use xlink:href="#DejaVuSans-50"/>
      </g>
     </g>
    </g>
    <g id="xtick_3">
     <g id="line2d_3">
      <g>
       <use style="stroke:#000000;stroke-width:0.8;" x="275.704659" xlink:href="#m39641e8db5" y="226.955312"/>
      </g>
     </g>
     <g id="text_3">
      <!-- 3 -->
      <defs>
       <path d="M 40.578125 39.3125 
Q 47.65625 37.796875 51.625 33 
Q 55.609375 28.21875 55.609375 21.1875 
Q 55.609375 10.40625 48.1875 4.484375 
Q 40.765625 -1.421875 27.09375 -1.421875 
Q 22.515625 -1.421875 17.65625 -0.515625 
Q 12.796875 0.390625 7.625 2.203125 
L 7.625 11.71875 
Q 11.71875 9.328125 16.59375 8.109375 
Q 21.484375 6.890625 26.8125 6.890625 
Q 36.078125 6.890625 40.9375 10.546875 
Q 45.796875 14.203125 45.796875 21.1875 
Q 45.796875 27.640625 41.28125 31.265625 
Q 36.765625 34.90625 28.71875 34.90625 
L 20.21875 34.90625 
L 20.21875 43.015625 
L 29.109375 43.015625 
Q 36.375 43.015625 40.234375 45.921875 
Q 44.09375 48.828125 44.09375 54.296875 
Q 44.09375 59.90625 40.109375 62.90625 
Q 36.140625 65.921875 28.71875 65.921875 
Q 24.65625 65.921875 20.015625 65.03125 
Q 15.375 64.15625 9.8125 62.3125 
L 9.8125 71.09375 
Q 15.4375 72.65625 20.34375 73.4375 
Q 25.25 74.21875 29.59375 74.21875 
Q 40.828125 74.21875 47.359375 69.109375 
Q 53.90625 64.015625 53.90625 55.328125 
Q 53.90625 49.265625 50.4375 45.09375 
Q 46.96875 40.921875 40.578125 39.3125 
z
" id="DejaVuSans-51"/>
      </defs>
      <g transform="translate(266.797159 256.730937)scale(0.28 -0.28)">
       <use xlink:href="#DejaVuSans-51"/>
      </g>
     </g>
    </g>
    <g id="xtick_4">
     <g id="line2d_4">
      <g>
       <use style="stroke:#000000;stroke-width:0.8;" x="373.886477" xlink:href="#m39641e8db5" y="226.955312"/>
      </g>
     </g>
     <g id="text_4">
      <!-- 4 -->
      <defs>
       <path d="M 37.796875 64.3125 
L 12.890625 25.390625 
L 37.796875 25.390625 
z
M 35.203125 72.90625 
L 47.609375 72.90625 
L 47.609375 25.390625 
L 58.015625 25.390625 
L 58.015625 17.1875 
L 47.609375 17.1875 
L 47.609375 0 
L 37.796875 0 
L 37.796875 17.1875 
L 4.890625 17.1875 
L 4.890625 26.703125 
z
" id="DejaVuSans-52"/>
      </defs>
      <g transform="translate(364.978977 256.730937)scale(0.28 -0.28)">
       <use xlink:href="#DejaVuSans-52"/>
      </g>
     </g>
    </g>
    <g id="text_5">
     <!-- -log10 p-value -->
     <defs>
      <path d="M 4.890625 31.390625 
L 31.203125 31.390625 
L 31.203125 23.390625 
L 4.890625 23.390625 
z
" id="DejaVuSans-45"/>
      <path d="M 9.421875 75.984375 
L 18.40625 75.984375 
L 18.40625 0 
L 9.421875 0 
z
" id="DejaVuSans-108"/>
      <path d="M 30.609375 48.390625 
Q 23.390625 48.390625 19.1875 42.75 
Q 14.984375 37.109375 14.984375 27.296875 
Q 14.984375 17.484375 19.15625 11.84375 
Q 23.34375 6.203125 30.609375 6.203125 
Q 37.796875 6.203125 41.984375 11.859375 
Q 46.1875 17.53125 46.1875 27.296875 
Q 46.1875 37.015625 41.984375 42.703125 
Q 37.796875 48.390625 30.609375 48.390625 
z
M 30.609375 56 
Q 42.328125 56 49.015625 48.375 
Q 55.71875 40.765625 55.71875 27.296875 
Q 55.71875 13.875 49.015625 6.21875 
Q 42.328125 -1.421875 30.609375 -1.421875 
Q 18.84375 -1.421875 12.171875 6.21875 
Q 5.515625 13.875 5.515625 27.296875 
Q 5.515625 40.765625 12.171875 48.375 
Q 18.84375 56 30.609375 56 
z
" id="DejaVuSans-111"/>
      <path d="M 45.40625 27.984375 
Q 45.40625 37.75 41.375 43.109375 
Q 37.359375 48.484375 30.078125 48.484375 
Q 22.859375 48.484375 18.828125 43.109375 
Q 14.796875 37.75 14.796875 27.984375 
Q 14.796875 18.265625 18.828125 12.890625 
Q 22.859375 7.515625 30.078125 7.515625 
Q 37.359375 7.515625 41.375 12.890625 
Q 45.40625 18.265625 45.40625 27.984375 
z
M 54.390625 6.78125 
Q 54.390625 -7.171875 48.1875 -13.984375 
Q 42 -20.796875 29.203125 -20.796875 
Q 24.46875 -20.796875 20.265625 -20.09375 
Q 16.0625 -19.390625 12.109375 -17.921875 
L 12.109375 -9.1875 
Q 16.0625 -11.328125 19.921875 -12.34375 
Q 23.78125 -13.375 27.78125 -13.375 
Q 36.625 -13.375 41.015625 -8.765625 
Q 45.40625 -4.15625 45.40625 5.171875 
L 45.40625 9.625 
Q 42.625 4.78125 38.28125 2.390625 
Q 33.9375 0 27.875 0 
Q 17.828125 0 11.671875 7.65625 
Q 5.515625 15.328125 5.515625 27.984375 
Q 5.515625 40.671875 11.671875 48.328125 
Q 17.828125 56 27.875 56 
Q 33.9375 56 38.28125 53.609375 
Q 42.625 51.21875 45.40625 46.390625 
L 45.40625 54.6875 
L 54.390625 54.6875 
z
" id="DejaVuSans-103"/>
      <path d="M 31.78125 66.40625 
Q 24.171875 66.40625 20.328125 58.90625 
Q 16.5 51.421875 16.5 36.375 
Q 16.5 21.390625 20.328125 13.890625 
Q 24.171875 6.390625 31.78125 6.390625 
Q 39.453125 6.390625 43.28125 13.890625 
Q 47.125 21.390625 47.125 36.375 
Q 47.125 51.421875 43.28125 58.90625 
Q 39.453125 66.40625 31.78125 66.40625 
z
M 31.78125 74.21875 
Q 44.046875 74.21875 50.515625 64.515625 
Q 56.984375 54.828125 56.984375 36.375 
Q 56.984375 17.96875 50.515625 8.265625 
Q 44.046875 -1.421875 31.78125 -1.421875 
Q 19.53125 -1.421875 13.0625 8.265625 
Q 6.59375 17.96875 6.59375 36.375 
Q 6.59375 54.828125 13.0625 64.515625 
Q 19.53125 74.21875 31.78125 74.21875 
z
" id="DejaVuSans-48"/>
      <path id="DejaVuSans-32"/>
      <path d="M 18.109375 8.203125 
L 18.109375 -20.796875 
L 9.078125 -20.796875 
L 9.078125 54.6875 
L 18.109375 54.6875 
L 18.109375 46.390625 
Q 20.953125 51.265625 25.265625 53.625 
Q 29.59375 56 35.59375 56 
Q 45.5625 56 51.78125 48.09375 
Q 58.015625 40.1875 58.015625 27.296875 
Q 58.015625 14.40625 51.78125 6.484375 
Q 45.5625 -1.421875 35.59375 -1.421875 
Q 29.59375 -1.421875 25.265625 0.953125 
Q 20.953125 3.328125 18.109375 8.203125 
z
M 48.6875 27.296875 
Q 48.6875 37.203125 44.609375 42.84375 
Q 40.53125 48.484375 33.40625 48.484375 
Q 26.265625 48.484375 22.1875 42.84375 
Q 18.109375 37.203125 18.109375 27.296875 
Q 18.109375 17.390625 22.1875 11.75 
Q 26.265625 6.109375 33.40625 6.109375 
Q 40.53125 6.109375 44.609375 11.75 
Q 48.6875 17.390625 48.6875 27.296875 
z
" id="DejaVuSans-112"/>
      <path d="M 2.984375 54.6875 
L 12.5 54.6875 
L 29.59375 8.796875 
L 46.6875 54.6875 
L 56.203125 54.6875 
L 35.6875 0 
L 23.484375 0 
z
" id="DejaVuSans-118"/>
      <path d="M 34.28125 27.484375 
Q 23.390625 27.484375 19.1875 25 
Q 14.984375 22.515625 14.984375 16.5 
Q 14.984375 11.71875 18.140625 8.90625 
Q 21.296875 6.109375 26.703125 6.109375 
Q 34.1875 6.109375 38.703125 11.40625 
Q 43.21875 16.703125 43.21875 25.484375 
L 43.21875 27.484375 
z
M 52.203125 31.203125 
L 52.203125 0 
L 43.21875 0 
L 43.21875 8.296875 
Q 40.140625 3.328125 35.546875 0.953125 
Q 30.953125 -1.421875 24.3125 -1.421875 
Q 15.921875 -1.421875 10.953125 3.296875 
Q 6 8.015625 6 15.921875 
Q 6 25.140625 12.171875 29.828125 
Q 18.359375 34.515625 30.609375 34.515625 
L 43.21875 34.515625 
L 43.21875 35.40625 
Q 43.21875 41.609375 39.140625 45 
Q 35.0625 48.390625 27.6875 48.390625 
Q 23 48.390625 18.546875 47.265625 
Q 14.109375 46.140625 10.015625 43.890625 
L 10.015625 52.203125 
Q 14.9375 54.109375 19.578125 55.046875 
Q 24.21875 56 28.609375 56 
Q 40.484375 56 46.34375 49.84375 
Q 52.203125 43.703125 52.203125 31.203125 
z
" id="DejaVuSans-97"/>
      <path d="M 8.5 21.578125 
L 8.5 54.6875 
L 17.484375 54.6875 
L 17.484375 21.921875 
Q 17.484375 14.15625 20.5 10.265625 
Q 23.53125 6.390625 29.59375 6.390625 
Q 36.859375 6.390625 41.078125 11.03125 
Q 45.3125 15.671875 45.3125 23.6875 
L 45.3125 54.6875 
L 54.296875 54.6875 
L 54.296875 0 
L 45.3125 0 
L 45.3125 8.40625 
Q 42.046875 3.421875 37.71875 1 
Q 33.40625 -1.421875 27.6875 -1.421875 
Q 18.265625 -1.421875 13.375 4.4375 
Q 8.5 10.296875 8.5 21.578125 
z
M 31.109375 56 
z
" id="DejaVuSans-117"/>
      <path d="M 56.203125 29.59375 
L 56.203125 25.203125 
L 14.890625 25.203125 
Q 15.484375 15.921875 20.484375 11.0625 
Q 25.484375 6.203125 34.421875 6.203125 
Q 39.59375 6.203125 44.453125 7.46875 
Q 49.3125 8.734375 54.109375 11.28125 
L 54.109375 2.78125 
Q 49.265625 0.734375 44.1875 -0.34375 
Q 39.109375 -1.421875 33.890625 -1.421875 
Q 20.796875 -1.421875 13.15625 6.1875 
Q 5.515625 13.8125 5.515625 26.8125 
Q 5.515625 40.234375 12.765625 48.109375 
Q 20.015625 56 32.328125 56 
Q 43.359375 56 49.78125 48.890625 
Q 56.203125 41.796875 56.203125 29.59375 
z
M 47.21875 32.234375 
Q 47.125 39.59375 43.09375 43.984375 
Q 39.0625 48.390625 32.421875 48.390625 
Q 24.90625 48.390625 20.390625 44.140625 
Q 15.875 39.890625 15.1875 32.171875 
z
" id="DejaVuSans-101"/>
     </defs>
     <g transform="translate(125.77875 287.829687)scale(0.28 -0.28)">
      <use xlink:href="#DejaVuSans-45"/>
      <use x="36.083984" xlink:href="#DejaVuSans-108"/>
      <use x="63.867188" xlink:href="#DejaVuSans-111"/>
      <use x="125.048828" xlink:href="#DejaVuSans-103"/>
      <use x="188.525391" xlink:href="#DejaVuSans-49"/>
      <use x="252.148438" xlink:href="#DejaVuSans-48"/>
      <use x="315.771484" xlink:href="#DejaVuSans-32"/>
      <use x="347.558594" xlink:href="#DejaVuSans-112"/>
      <use x="411.035156" xlink:href="#DejaVuSans-45"/>
      <use x="447.087891" xlink:href="#DejaVuSans-118"/>
      <use x="506.267578" xlink:href="#DejaVuSans-97"/>
      <use x="567.546875" xlink:href="#DejaVuSans-108"/>
      <use x="595.330078" xlink:href="#DejaVuSans-117"/>
      <use x="658.708984" xlink:href="#DejaVuSans-101"/>
     </g>
    </g>
   </g>
   <g id="matplotlib.axis_2">
    <g id="ytick_1">
     <g id="line2d_5">
      <defs>
       <path d="M 0 0 
L -5 0 
" id="m3302a9414d" style="stroke:#000000;stroke-width:0.8;"/>
      </defs>
      <g>
       <use style="stroke:#000000;stroke-width:0.8;" x="64.61375" xlink:href="#m3302a9414d" y="214.647388"/>
      </g>
     </g>
     <g id="text_6">
      <!-- 1 -->
      <g transform="translate(38.29875 225.2852)scale(0.28 -0.28)">
       <use xlink:href="#DejaVuSans-49"/>
      </g>
     </g>
    </g>
    <g id="ytick_2">
     <g id="line2d_6">
      <g>
       <use style="stroke:#000000;stroke-width:0.8;" x="64.61375" xlink:href="#m3302a9414d" y="132.594558"/>
      </g>
     </g>
     <g id="text_7">
      <!-- 2 -->
      <g transform="translate(38.29875 143.23237)scale(0.28 -0.28)">
       <use xlink:href="#DejaVuSans-50"/>
      </g>
     </g>
    </g>
    <g id="ytick_3">
     <g id="line2d_7">
      <g>
       <use style="stroke:#000000;stroke-width:0.8;" x="64.61375" xlink:href="#m3302a9414d" y="50.541728"/>
      </g>
     </g>
     <g id="text_8">
      <!-- 3 -->
      <g transform="translate(38.29875 61.17954)scale(0.28 -0.28)">
       <use xlink:href="#DejaVuSans-51"/>
      </g>
     </g>
    </g>
    <g id="text_9">
     <!-- fold enrichment -->
     <defs>
      <path d="M 37.109375 75.984375 
L 37.109375 68.5 
L 28.515625 68.5 
Q 23.6875 68.5 21.796875 66.546875 
Q 19.921875 64.59375 19.921875 59.515625 
L 19.921875 54.6875 
L 34.71875 54.6875 
L 34.71875 47.703125 
L 19.921875 47.703125 
L 19.921875 0 
L 10.890625 0 
L 10.890625 47.703125 
L 2.296875 47.703125 
L 2.296875 54.6875 
L 10.890625 54.6875 
L 10.890625 58.5 
Q 10.890625 67.625 15.140625 71.796875 
Q 19.390625 75.984375 28.609375 75.984375 
z
" id="DejaVuSans-102"/>
      <path d="M 45.40625 46.390625 
L 45.40625 75.984375 
L 54.390625 75.984375 
L 54.390625 0 
L 45.40625 0 
L 45.40625 8.203125 
Q 42.578125 3.328125 38.25 0.953125 
Q 33.9375 -1.421875 27.875 -1.421875 
Q 17.96875 -1.421875 11.734375 6.484375 
Q 5.515625 14.40625 5.515625 27.296875 
Q 5.515625 40.1875 11.734375 48.09375 
Q 17.96875 56 27.875 56 
Q 33.9375 56 38.25 53.625 
Q 42.578125 51.265625 45.40625 46.390625 
z
M 14.796875 27.296875 
Q 14.796875 17.390625 18.875 11.75 
Q 22.953125 6.109375 30.078125 6.109375 
Q 37.203125 6.109375 41.296875 11.75 
Q 45.40625 17.390625 45.40625 27.296875 
Q 45.40625 37.203125 41.296875 42.84375 
Q 37.203125 48.484375 30.078125 48.484375 
Q 22.953125 48.484375 18.875 42.84375 
Q 14.796875 37.203125 14.796875 27.296875 
z
" id="DejaVuSans-100"/>
      <path d="M 54.890625 33.015625 
L 54.890625 0 
L 45.90625 0 
L 45.90625 32.71875 
Q 45.90625 40.484375 42.875 44.328125 
Q 39.84375 48.1875 33.796875 48.1875 
Q 26.515625 48.1875 22.3125 43.546875 
Q 18.109375 38.921875 18.109375 30.90625 
L 18.109375 0 
L 9.078125 0 
L 9.078125 54.6875 
L 18.109375 54.6875 
L 18.109375 46.1875 
Q 21.34375 51.125 25.703125 53.5625 
Q 30.078125 56 35.796875 56 
Q 45.21875 56 50.046875 50.171875 
Q 54.890625 44.34375 54.890625 33.015625 
z
" id="DejaVuSans-110"/>
      <path d="M 41.109375 46.296875 
Q 39.59375 47.171875 37.8125 47.578125 
Q 36.03125 48 33.890625 48 
Q 26.265625 48 22.1875 43.046875 
Q 18.109375 38.09375 18.109375 28.8125 
L 18.109375 0 
L 9.078125 0 
L 9.078125 54.6875 
L 18.109375 54.6875 
L 18.109375 46.1875 
Q 20.953125 51.171875 25.484375 53.578125 
Q 30.03125 56 36.53125 56 
Q 37.453125 56 38.578125 55.875 
Q 39.703125 55.765625 41.0625 55.515625 
z
" id="DejaVuSans-114"/>
      <path d="M 9.421875 54.6875 
L 18.40625 54.6875 
L 18.40625 0 
L 9.421875 0 
z
M 9.421875 75.984375 
L 18.40625 75.984375 
L 18.40625 64.59375 
L 9.421875 64.59375 
z
" id="DejaVuSans-105"/>
      <path d="M 48.78125 52.59375 
L 48.78125 44.1875 
Q 44.96875 46.296875 41.140625 47.34375 
Q 37.3125 48.390625 33.40625 48.390625 
Q 24.65625 48.390625 19.8125 42.84375 
Q 14.984375 37.3125 14.984375 27.296875 
Q 14.984375 17.28125 19.8125 11.734375 
Q 24.65625 6.203125 33.40625 6.203125 
Q 37.3125 6.203125 41.140625 7.25 
Q 44.96875 8.296875 48.78125 10.40625 
L 48.78125 2.09375 
Q 45.015625 0.34375 40.984375 -0.53125 
Q 36.96875 -1.421875 32.421875 -1.421875 
Q 20.0625 -1.421875 12.78125 6.34375 
Q 5.515625 14.109375 5.515625 27.296875 
Q 5.515625 40.671875 12.859375 48.328125 
Q 20.21875 56 33.015625 56 
Q 37.15625 56 41.109375 55.140625 
Q 45.0625 54.296875 48.78125 52.59375 
z
" id="DejaVuSans-99"/>
      <path d="M 54.890625 33.015625 
L 54.890625 0 
L 45.90625 0 
L 45.90625 32.71875 
Q 45.90625 40.484375 42.875 44.328125 
Q 39.84375 48.1875 33.796875 48.1875 
Q 26.515625 48.1875 22.3125 43.546875 
Q 18.109375 38.921875 18.109375 30.90625 
L 18.109375 0 
L 9.078125 0 
L 9.078125 75.984375 
L 18.109375 75.984375 
L 18.109375 46.1875 
Q 21.34375 51.125 25.703125 53.5625 
Q 30.078125 56 35.796875 56 
Q 45.21875 56 50.046875 50.171875 
Q 54.890625 44.34375 54.890625 33.015625 
z
" id="DejaVuSans-104"/>
      <path d="M 52 44.1875 
Q 55.375 50.25 60.0625 53.125 
Q 64.75 56 71.09375 56 
Q 79.640625 56 84.28125 50.015625 
Q 88.921875 44.046875 88.921875 33.015625 
L 88.921875 0 
L 79.890625 0 
L 79.890625 32.71875 
Q 79.890625 40.578125 77.09375 44.375 
Q 74.3125 48.1875 68.609375 48.1875 
Q 61.625 48.1875 57.5625 43.546875 
Q 53.515625 38.921875 53.515625 30.90625 
L 53.515625 0 
L 44.484375 0 
L 44.484375 32.71875 
Q 44.484375 40.625 41.703125 44.40625 
Q 38.921875 48.1875 33.109375 48.1875 
Q 26.21875 48.1875 22.15625 43.53125 
Q 18.109375 38.875 18.109375 30.90625 
L 18.109375 0 
L 9.078125 0 
L 9.078125 54.6875 
L 18.109375 54.6875 
L 18.109375 46.1875 
Q 21.1875 51.21875 25.484375 53.609375 
Q 29.78125 56 35.6875 56 
Q 41.65625 56 45.828125 52.96875 
Q 50 49.953125 52 44.1875 
z
" id="DejaVuSans-109"/>
      <path d="M 18.3125 70.21875 
L 18.3125 54.6875 
L 36.8125 54.6875 
L 36.8125 47.703125 
L 18.3125 47.703125 
L 18.3125 18.015625 
Q 18.3125 11.328125 20.140625 9.421875 
Q 21.96875 7.515625 27.59375 7.515625 
L 36.8125 7.515625 
L 36.8125 0 
L 27.59375 0 
Q 17.1875 0 13.234375 3.875 
Q 9.28125 7.765625 9.28125 18.015625 
L 9.28125 47.703125 
L 2.6875 47.703125 
L 2.6875 54.6875 
L 9.28125 54.6875 
L 9.28125 70.21875 
z
" id="DejaVuSans-116"/>
     </defs>
     <g transform="translate(28.475625 229.270625)rotate(-90)scale(0.28 -0.28)">
      <use xlink:href="#DejaVuSans-102"/>
      <use x="35.205078" xlink:href="#DejaVuSans-111"/>
      <use x="96.386719" xlink:href="#DejaVuSans-108"/>
      <use x="124.169922" xlink:href="#DejaVuSans-100"/>
      <use x="187.646484" xlink:href="#DejaVuSans-32"/>
      <use x="219.433594" xlink:href="#DejaVuSans-101"/>
      <use x="280.957031" xlink:href="#DejaVuSans-110"/>
      <use x="344.335938" xlink:href="#DejaVuSans-114"/>
      <use x="385.449219" xlink:href="#DejaVuSans-105"/>
      <use x="413.232422" xlink:href="#DejaVuSans-99"/>
      <use x="468.212891" xlink:href="#DejaVuSans-104"/>
      <use x="531.591797" xlink:href="#DejaVuSans-109"/>
      <use x="629.003906" xlink:href="#DejaVuSans-101"/>
      <use x="690.527344" xlink:href="#DejaVuSans-110"/>
      <use x="753.90625" xlink:href="#DejaVuSans-116"/>
     </g>
    </g>
   </g>
   <g id="line2d_8">
    <path clip-path="url(#p275a504567)" d="M 79.341023 184.189587 
L 80.322841 182.97194 
L 81.304659 182.477469 
L 82.286477 181.727648 
L 83.268295 181.222274 
L 84.250114 180.967917 
L 85.231932 180.198079 
L 86.21375 179.679139 
L 87.195568 178.361334 
L 88.177386 177.556307 
L 91.122841 176.740253 
L 92.104659 174.791947 
L 93.086477 174.22361 
L 94.068295 173.361099 
L 95.050114 172.779311 
L 96.031932 172.486354 
L 97.995568 171.300541 
L 98.977386 170.396217 
L 99.959205 172.545056 
L 100.941023 172.545056 
L 101.922841 172.244438 
L 102.904659 172.244438 
L 103.886477 174.417956 
L 104.868295 176.022621 
L 105.850114 175.426682 
L 106.831932 175.426682 
L 108.795568 174.824828 
L 109.777386 177.065418 
L 110.759205 176.163649 
L 111.741023 175.86003 
L 112.722841 175.86003 
L 113.704659 175.248181 
L 114.686477 174.939927 
L 115.668295 174.318701 
L 116.650114 173.374885 
L 117.631932 175.689037 
L 118.61375 175.689037 
L 119.595568 175.375536 
L 120.577386 174.743637 
L 121.559205 174.425212 
L 122.541023 176.465745 
L 124.504659 175.186655 
L 125.486477 174.862619 
L 126.468295 173.880058 
L 127.450114 173.880058 
L 129.41375 171.866612 
L 130.395568 171.524602 
L 131.377386 170.487235 
L 133.341023 169.786052 
L 134.322841 169.786052 
L 136.286477 169.077035 
L 137.268295 171.216071 
L 138.250114 170.505113 
L 139.231932 170.146604 
L 140.21375 169.42344 
L 141.195568 171.614787 
L 142.177386 170.889654 
L 143.159205 169.786052 
L 144.141023 169.786052 
L 145.122841 169.039498 
L 146.104659 168.662918 
L 147.086477 167.903053 
L 148.068295 170.166035 
L 150.031932 170.166035 
L 151.01375 172.470038 
L 152.977386 178.298588 
L 153.959205 177.20565 
L 154.941023 176.836839 
L 156.904659 176.836839 
L 158.868295 176.092346 
L 159.850114 175.338547 
L 161.81375 174.575266 
L 162.795568 177.793255 
L 163.777386 177.416967 
L 164.759205 176.657201 
L 165.741023 175.49923 
L 168.686477 174.318701 
L 169.668295 176.859957 
L 170.650114 176.465745 
L 171.631932 175.267395 
L 172.61375 174.862619 
L 173.595568 174.862619 
L 175.559205 174.044917 
L 176.541023 174.044917 
L 179.486477 172.797575 
L 180.468295 171.524602 
L 181.450114 170.661322 
L 182.431932 174.177546 
L 183.41375 174.177546 
L 187.341023 172.457929 
L 188.322841 175.616032 
L 193.231932 175.616032 
L 194.21375 175.186655 
L 198.141023 175.186655 
L 199.122841 174.318701 
L 200.104659 174.318701 
L 201.086477 173.880058 
L 202.068295 172.093583 
L 204.031932 172.093583 
L 205.01375 171.638814 
L 205.995568 170.719245 
L 206.977386 170.719245 
L 207.959205 170.25437 
L 208.941023 169.314252 
L 211.886477 167.877569 
L 213.850114 167.877569 
L 215.81375 165.910811 
L 216.795568 165.409702 
L 217.777386 164.395875 
L 218.759205 164.395875 
L 219.741023 163.36627 
L 220.722841 163.36627 
L 221.704659 162.845434 
L 222.686477 162.845434 
L 223.668295 161.791459 
L 225.631932 161.791459 
L 226.61375 160.720755 
L 227.595568 158.527538 
L 228.577386 158.527538 
L 229.559205 157.968134 
L 230.541023 157.968134 
L 231.522841 161.49778 
L 232.504659 160.385003 
L 233.486477 160.385003 
L 238.395568 157.521238 
L 239.377386 156.341755 
L 240.359205 155.744485 
L 241.341023 155.744485 
L 242.322841 154.534564 
L 243.304659 154.534564 
L 244.286477 153.921782 
L 248.21375 153.921782 
L 249.195568 153.303693 
L 250.177386 157.039215 
L 251.159205 156.426666 
L 254.104659 156.426666 
L 256.068295 155.185307 
L 257.050114 159.021011 
L 258.031932 159.021011 
L 259.01375 157.780658 
L 259.995568 161.093301 
L 260.977386 161.093301 
L 261.959205 165.107189 
L 262.941023 163.883068 
L 263.922841 163.883068 
L 264.904659 161.365207 
L 272.759205 161.365207 
L 273.741023 160.070135 
L 277.668295 160.070135 
L 278.650114 159.41326 
L 279.631932 159.41326 
L 280.61375 158.750038 
L 282.577386 158.750038 
L 283.559205 156.721359 
L 284.541023 156.721359 
L 285.522841 156.031808 
L 287.486477 156.031808 
L 288.468295 154.632122 
L 290.431932 154.632122 
L 291.41375 152.479575 
L 293.377386 152.479575 
L 294.359205 150.260796 
L 297.304659 150.260796 
L 298.286477 153.921782 
L 300.250114 153.921782 
L 301.231932 150.883942 
L 305.159205 150.883942 
L 306.141023 148.519354 
L 309.086477 148.519354 
L 310.068295 147.714023 
L 313.995568 147.714023 
L 314.977386 141.821914 
L 319.886477 141.821914 
L 320.868295 137.319638 
L 326.759205 137.319638 
L 327.741023 135.527014 
L 334.61375 135.527014 
L 335.595568 130.426596 
L 343.450114 130.426596 
L 344.431932 126.1078 
L 356.21375 126.1078 
L 357.195568 128.960516 
L 373.886477 128.960516 
L 373.886477 128.960516 
" style="fill:none;stroke:#8b0000;stroke-linecap:square;stroke-width:2;"/>
   </g>
   <g id="line2d_9">
    <path clip-path="url(#p275a504567)" d="M 79.341023 194.246331 
L 80.322841 193.137522 
L 81.304659 192.68725 
L 82.286477 192.842017 
L 83.268295 192.385498 
L 84.250114 192.15573 
L 85.231932 192.309021 
L 86.21375 192.696516 
L 87.195568 193.249482 
L 88.177386 193.41369 
L 91.122841 192.706248 
L 92.104659 191.01725 
L 93.086477 190.524556 
L 94.068295 189.77684 
L 95.050114 189.272484 
L 96.031932 189.018518 
L 97.01375 189.416153 
L 97.995568 188.904057 
L 98.977386 190.887025 
L 99.959205 192.22497 
L 100.941023 192.22497 
L 101.922841 191.972003 
L 102.904659 191.972003 
L 103.886477 192.393685 
L 104.868295 193.249482 
L 105.850114 192.738614 
L 106.831932 192.738614 
L 107.81375 193.428728 
L 108.795568 193.172472 
L 109.777386 194.56519 
L 110.759205 193.795328 
L 111.741023 193.536121 
L 112.722841 193.536121 
L 113.704659 193.982804 
L 114.686477 193.7221 
L 115.668295 193.196701 
L 116.650114 192.398473 
L 117.631932 192.84851 
L 118.61375 192.84851 
L 119.595568 192.579464 
L 120.577386 192.037169 
L 121.559205 191.763897 
L 122.541023 191.942736 
L 123.522841 191.388463 
L 124.504659 191.846294 
L 125.486477 191.566683 
L 126.468295 190.718832 
L 127.450114 190.718832 
L 128.431932 190.894506 
L 129.41375 192.118873 
L 130.395568 191.832349 
L 131.377386 190.963278 
L 133.341023 190.37585 
L 134.322841 190.37585 
L 135.304659 191.145888 
L 136.286477 190.851043 
L 137.268295 191.034762 
L 138.250114 190.436091 
L 139.231932 190.134204 
L 140.21375 189.525255 
L 141.195568 189.701748 
L 142.177386 190.190938 
L 143.159205 189.256647 
L 144.141023 189.256647 
L 145.122841 188.624626 
L 146.104659 188.305818 
L 147.086477 188.798338 
L 148.068295 188.97517 
L 150.031932 188.97517 
L 151.01375 189.155208 
L 151.995568 189.989216 
L 152.977386 189.33854 
L 153.959205 188.347509 
L 154.941023 188.013087 
L 156.904659 188.013087 
L 158.868295 187.338011 
L 159.850114 186.654498 
L 161.81375 185.962386 
L 162.795568 186.820525 
L 163.777386 186.472804 
L 164.759205 185.770719 
L 165.741023 184.700659 
L 168.686477 183.609754 
L 169.668295 183.752365 
L 170.650114 183.380826 
L 171.631932 182.251397 
L 172.61375 181.869901 
L 173.595568 181.869901 
L 175.559205 181.099228 
L 176.541023 181.099228 
L 178.504659 182.904408 
L 179.486477 182.51866 
L 180.468295 183.967258 
L 181.450114 183.18979 
L 182.431932 184.121476 
L 183.41375 184.121476 
L 186.359205 182.94058 
L 187.341023 183.884468 
L 188.322841 184.43972 
L 193.231932 184.43972 
L 194.21375 184.041633 
L 198.141023 184.041633 
L 199.122841 183.236929 
L 200.104659 183.236929 
L 201.086477 182.83025 
L 202.068295 182.565842 
L 204.031932 182.565842 
L 205.01375 183.546256 
L 205.995568 184.121476 
L 206.977386 184.121476 
L 207.959205 185.118483 
L 208.941023 184.288879 
L 210.904659 183.446847 
L 211.886477 184.460059 
L 213.850114 184.460059 
L 214.831932 183.609754 
L 215.81375 184.207414 
L 216.795568 183.776407 
L 217.777386 182.904408 
L 218.759205 182.904408 
L 219.741023 182.018838 
L 220.722841 182.018838 
L 221.704659 181.570864 
L 222.686477 181.570864 
L 223.668295 180.664333 
L 225.631932 180.664333 
L 226.61375 179.743414 
L 227.595568 180.94385 
L 228.577386 180.94385 
L 229.559205 180.475201 
L 230.541023 180.475201 
L 232.504659 181.712383 
L 233.486477 181.712383 
L 238.395568 179.296673 
L 239.377386 178.301727 
L 240.359205 179.426703 
L 241.341023 179.426703 
L 242.322841 178.420063 
L 243.304659 178.420063 
L 244.286477 177.910235 
L 248.21375 177.910235 
L 249.195568 177.395993 
L 250.177386 178.025509 
L 251.159205 179.183812 
L 254.104659 179.183812 
L 256.068295 178.143844 
L 257.050114 178.794089 
L 258.031932 178.794089 
L 259.01375 177.731872 
L 259.995568 177.849966 
L 260.977386 177.849966 
L 261.959205 180.282385 
L 262.941023 179.199429 
L 263.922841 179.199429 
L 264.904659 178.78599 
L 272.759205 178.78599 
L 273.741023 177.657625 
L 277.668295 177.657625 
L 278.650114 177.085304 
L 279.631932 177.085304 
L 280.61375 176.507455 
L 282.577386 176.507455 
L 283.559205 174.739914 
L 284.541023 174.739914 
L 285.522841 174.139124 
L 287.486477 174.139124 
L 288.468295 172.919611 
L 290.431932 172.919611 
L 291.41375 171.044147 
L 293.377386 171.044147 
L 294.359205 169.110977 
L 300.250114 169.110977 
L 301.231932 168.432311 
L 309.086477 168.421305 
L 310.068295 167.724137 
L 313.995568 167.724137 
L 314.977386 164.785918 
L 319.886477 164.785918 
L 320.868295 165.401987 
L 326.759205 165.401987 
L 327.741023 165.197196 
L 334.61375 165.197196 
L 335.595568 161.035708 
L 343.450114 161.035708 
L 344.431932 159.99746 
L 356.21375 159.99746 
L 357.195568 160.188652 
L 373.886477 160.188652 
L 373.886477 160.188652 
" style="fill:none;stroke:#000080;stroke-linecap:square;stroke-width:2;"/>
   </g>
   <g id="line2d_10">
    <path clip-path="url(#p275a504567)" d="M 79.341023 214.647388 
L 373.886477 214.647388 
" style="fill:none;stroke:#0000ff;stroke-dasharray:3.7,1.6;stroke-dashoffset:0;"/>
   </g>
   <g id="patch_3">
    <path d="M 64.61375 226.955312 
L 64.61375 9.515312 
" style="fill:none;stroke:#000000;stroke-linecap:square;stroke-linejoin:miter;"/>
   </g>
   <g id="patch_4">
    <path d="M 64.61375 226.955312 
L 388.61375 226.955312 
" style="fill:none;stroke:#000000;stroke-linecap:square;stroke-linejoin:miter;"/>
   </g>
  </g>
  <g id="axes_2">
   <g id="patch_5">
    <path d="M 404.81375 226.955312 
L 728.81375 226.955312 
L 728.81375 9.515312 
L 404.81375 9.515312 
z
" style="fill:none;"/>
   </g>
   <g id="matplotlib.axis_3">
    <g id="xtick_5">
     <g id="line2d_11">
      <g>
       <use style="stroke:#000000;stroke-width:0.8;" x="419.541023" xlink:href="#m39641e8db5" y="226.955312"/>
      </g>
     </g>
     <g id="text_10">
      <!-- 1 -->
      <g transform="translate(410.633523 256.730937)scale(0.28 -0.28)">
       <use xlink:href="#DejaVuSans-49"/>
      </g>
     </g>
    </g>
    <g id="xtick_6">
     <g id="line2d_12">
      <g>
       <use style="stroke:#000000;stroke-width:0.8;" x="517.722841" xlink:href="#m39641e8db5" y="226.955312"/>
      </g>
     </g>
     <g id="text_11">
      <!-- 2 -->
      <g transform="translate(508.815341 256.730937)scale(0.28 -0.28)">
       <use xlink:href="#DejaVuSans-50"/>
      </g>
     </g>
    </g>
    <g id="xtick_7">
     <g id="line2d_13">
      <g>
       <use style="stroke:#000000;stroke-width:0.8;" x="615.904659" xlink:href="#m39641e8db5" y="226.955312"/>
      </g>
     </g>
     <g id="text_12">
      <!-- 3 -->
      <g transform="translate(606.997159 256.730937)scale(0.28 -0.28)">
       <use xlink:href="#DejaVuSans-51"/>
      </g>
     </g>
    </g>
    <g id="xtick_8">
     <g id="line2d_14">
      <g>
       <use style="stroke:#000000;stroke-width:0.8;" x="714.086477" xlink:href="#m39641e8db5" y="226.955312"/>
      </g>
     </g>
     <g id="text_13">
      <!-- 4 -->
      <g transform="translate(705.178977 256.730937)scale(0.28 -0.28)">
       <use xlink:href="#DejaVuSans-52"/>
      </g>
     </g>
    </g>
    <g id="text_14">
     <!-- -log10 p-value -->
     <g transform="translate(465.97875 287.829687)scale(0.28 -0.28)">
      <use xlink:href="#DejaVuSans-45"/>
      <use x="36.083984" xlink:href="#DejaVuSans-108"/>
      <use x="63.867188" xlink:href="#DejaVuSans-111"/>
      <use x="125.048828" xlink:href="#DejaVuSans-103"/>
      <use x="188.525391" xlink:href="#DejaVuSans-49"/>
      <use x="252.148438" xlink:href="#DejaVuSans-48"/>
      <use x="315.771484" xlink:href="#DejaVuSans-32"/>
      <use x="347.558594" xlink:href="#DejaVuSans-112"/>
      <use x="411.035156" xlink:href="#DejaVuSans-45"/>
      <use x="447.087891" xlink:href="#DejaVuSans-118"/>
      <use x="506.267578" xlink:href="#DejaVuSans-97"/>
      <use x="567.546875" xlink:href="#DejaVuSans-108"/>
      <use x="595.330078" xlink:href="#DejaVuSans-117"/>
      <use x="658.708984" xlink:href="#DejaVuSans-101"/>
     </g>
    </g>
   </g>
   <g id="matplotlib.axis_4">
    <g id="ytick_4"/>
    <g id="ytick_5"/>
    <g id="ytick_6"/>
   </g>
   <g id="line2d_15">
    <path clip-path="url(#p93f7f32063)" d="M 419.541023 183.516233 
L 420.522841 181.380686 
L 421.504659 179.999837 
L 426.41375 179.999837 
L 427.395568 181.723219 
L 430.341023 181.723219 
L 431.322841 182.610761 
L 432.304659 182.361294 
L 433.286477 182.361294 
L 434.268295 179.979233 
L 435.250114 179.979233 
L 436.231932 177.495808 
L 437.21375 178.404698 
L 438.195568 178.043601 
L 439.177386 176.725194 
L 443.104659 176.725194 
L 444.086477 175.37716 
L 445.068295 175.37716 
L 446.050114 173.998489 
L 447.031932 172.064677 
L 449.977386 172.064677 
L 450.959205 169.989366 
L 451.941023 170.940235 
L 453.904659 170.940235 
L 454.886477 171.914874 
L 455.868295 171.327188 
L 456.850114 172.344827 
L 457.831932 172.344827 
L 459.795568 174.461514 
L 461.759205 174.461514 
L 462.741023 172.80964 
L 463.722841 173.903346 
L 464.704659 172.197834 
L 466.668295 172.197834 
L 467.650114 173.313733 
L 468.631932 173.313733 
L 469.61375 174.461514 
L 470.595568 174.461514 
L 472.559205 170.866258 
L 473.541023 172.028903 
L 479.431932 172.028903 
L 480.41375 170.139944 
L 482.377386 170.139944 
L 483.359205 171.327188 
L 486.304659 171.327188 
L 487.286477 169.368235 
L 491.21375 169.368235 
L 492.195568 170.58092 
L 493.177386 168.546738 
L 494.159205 171.065995 
L 497.104659 171.065995 
L 498.086477 170.246386 
L 499.068295 168.027898 
L 501.031932 168.027898 
L 502.01375 169.368235 
L 504.959205 169.368235 
L 505.941023 170.757311 
L 506.922841 168.425035 
L 520.668295 168.425035 
L 521.650114 169.848733 
L 522.631932 169.848733 
L 524.595568 172.863623 
L 527.541023 172.863623 
L 528.522841 170.386891 
L 536.377386 170.386891 
L 537.359205 171.966847 
L 538.341023 169.368235 
L 539.322841 169.368235 
L 540.304659 172.689939 
L 543.250114 172.689939 
L 544.231932 174.461514 
L 546.195568 174.461514 
L 548.159205 178.251861 
L 549.141023 179.554793 
L 553.068295 179.554793 
L 555.031932 173.389245 
L 556.01375 173.389245 
L 556.995568 172.197834 
L 557.977386 174.461514 
L 562.886477 174.461514 
L 563.868295 176.858351 
L 564.850114 176.858351 
L 565.831932 179.400452 
L 567.795568 179.400452 
L 568.777386 175.734834 
L 571.722841 175.734834 
L 572.704659 171.832725 
L 606.086477 171.832725 
L 607.068295 174.461514 
L 609.031932 174.461514 
L 610.01375 170.246386 
L 617.868295 170.246386 
L 618.850114 165.730178 
L 640.450114 165.730178 
L 641.431932 168.425035 
L 674.81375 168.425035 
L 675.795568 163.491374 
L 696.41375 163.491374 
L 697.395568 154.974184 
L 714.086477 154.974184 
L 714.086477 154.974184 
" style="fill:none;stroke:#8b0000;stroke-linecap:square;stroke-width:2;"/>
   </g>
   <g id="line2d_16">
    <path clip-path="url(#p93f7f32063)" d="M 419.541023 173.655507 
L 420.522841 171.333909 
L 421.504659 167.682463 
L 426.41375 167.682463 
L 427.395568 165.127656 
L 430.341023 165.127656 
L 431.322841 163.81193 
L 432.304659 161.099924 
L 433.286477 161.099924 
L 434.268295 158.274918 
L 435.250114 158.274918 
L 436.231932 155.329699 
L 437.21375 160.613902 
L 438.195568 164.576855 
L 439.177386 163.108817 
L 443.104659 163.108817 
L 444.086477 161.60779 
L 445.068295 161.60779 
L 446.050114 160.072649 
L 447.031932 155.2505 
L 449.977386 155.2505 
L 450.959205 150.07551 
L 451.941023 148.265328 
L 453.904659 148.265328 
L 454.886477 146.409892 
L 455.868295 150.669132 
L 456.850114 148.772625 
L 457.831932 148.772625 
L 458.81375 155.152543 
L 459.795568 153.26524 
L 461.759205 153.26524 
L 464.704659 147.288783 
L 466.668295 147.288783 
L 467.650114 145.184397 
L 468.631932 145.184397 
L 469.61375 143.019885 
L 470.595568 143.019885 
L 473.541023 136.138676 
L 479.431932 136.138676 
L 480.41375 133.705925 
L 482.377386 133.705925 
L 483.359205 131.198321 
L 486.304659 131.198321 
L 487.286477 128.612354 
L 491.21375 128.612354 
L 493.177386 123.190164 
L 494.159205 127.953186 
L 497.104659 127.953186 
L 498.086477 122.134322 
L 499.068295 119.071763 
L 501.031932 119.071763 
L 502.01375 115.899826 
L 504.959205 115.899826 
L 506.922841 109.203515 
L 520.668295 109.203515 
L 521.650114 105.665842 
L 522.631932 105.665842 
L 524.595568 98.174297 
L 527.541023 98.174297 
L 528.522841 94.203779 
L 536.377386 94.203779 
L 537.359205 102.985512 
L 538.341023 98.949789 
L 539.322841 98.949789 
L 540.304659 104.108496 
L 543.250114 104.108496 
L 544.231932 99.82868 
L 546.195568 99.82868 
L 548.159205 90.671864 
L 549.141023 91.039772 
L 553.068295 91.039772 
L 555.031932 80.215538 
L 556.01375 80.215538 
L 556.995568 68.188612 
L 557.977386 61.659708 
L 562.886477 61.659708 
L 563.868295 54.746752 
L 564.850114 54.746752 
L 565.831932 66.590628 
L 567.795568 66.590628 
L 568.777386 59.399704 
L 571.722841 59.399704 
L 572.704659 51.744848 
L 606.086477 51.744848 
L 607.068295 43.579669 
L 609.031932 43.579669 
L 610.01375 34.851374 
L 617.868295 34.851374 
L 618.850114 25.49963 
L 640.450114 25.49963 
L 641.431932 38.892252 
L 674.81375 38.892252 
L 675.795568 28.976561 
L 696.41375 28.976561 
L 697.395568 21.569187 
L 714.086477 21.569187 
L 714.086477 21.569187 
" style="fill:none;stroke:#000080;stroke-linecap:square;stroke-width:2;"/>
   </g>
   <g id="line2d_17">
    <path clip-path="url(#p93f7f32063)" d="M 419.541023 214.647388 
L 714.086477 214.647388 
" style="fill:none;stroke:#0000ff;stroke-dasharray:3.7,1.6;stroke-dashoffset:0;"/>
   </g>
   <g id="patch_6">
    <path d="M 404.81375 226.955312 
L 404.81375 9.515312 
" style="fill:none;stroke:#000000;stroke-linecap:square;stroke-linejoin:miter;"/>
   </g>
   <g id="patch_7">
    <path d="M 404.81375 226.955312 
L 728.81375 226.955312 
" style="fill:none;stroke:#000000;stroke-linecap:square;stroke-linejoin:miter;"/>
   </g>
  </g>
  <g id="axes_3">
   <g id="patch_8">
    <path d="M 745.01375 226.955312 
L 1069.01375 226.955312 
L 1069.01375 9.515312 
L 745.01375 9.515312 
z
" style="fill:none;"/>
   </g>
   <g id="matplotlib.axis_5">
    <g id="xtick_9">
     <g id="line2d_18">
      <g>
       <use style="stroke:#000000;stroke-width:0.8;" x="759.741023" xlink:href="#m39641e8db5" y="226.955312"/>
      </g>
     </g>
     <g id="text_15">
      <!-- 1 -->
      <g transform="translate(750.833523 256.730937)scale(0.28 -0.28)">
       <use xlink:href="#DejaVuSans-49"/>
      </g>
     </g>
    </g>
    <g id="xtick_10">
     <g id="line2d_19">
      <g>
       <use style="stroke:#000000;stroke-width:0.8;" x="857.922841" xlink:href="#m39641e8db5" y="226.955312"/>
      </g>
     </g>
     <g id="text_16">
      <!-- 2 -->
      <g transform="translate(849.015341 256.730937)scale(0.28 -0.28)">
       <use xlink:href="#DejaVuSans-50"/>
      </g>
     </g>
    </g>
    <g id="xtick_11">
     <g id="line2d_20">
      <g>
       <use style="stroke:#000000;stroke-width:0.8;" x="956.104659" xlink:href="#m39641e8db5" y="226.955312"/>
      </g>
     </g>
     <g id="text_17">
      <!-- 3 -->
      <g transform="translate(947.197159 256.730937)scale(0.28 -0.28)">
       <use xlink:href="#DejaVuSans-51"/>
      </g>
     </g>
    </g>
    <g id="xtick_12">
     <g id="line2d_21">
      <g>
       <use style="stroke:#000000;stroke-width:0.8;" x="1054.286477" xlink:href="#m39641e8db5" y="226.955312"/>
      </g>
     </g>
     <g id="text_18">
      <!-- 4 -->
      <g transform="translate(1045.378977 256.730937)scale(0.28 -0.28)">
       <use xlink:href="#DejaVuSans-52"/>
      </g>
     </g>
    </g>
    <g id="text_19">
     <!-- -log10 p-value -->
     <g transform="translate(806.17875 287.829687)scale(0.28 -0.28)">
      <use xlink:href="#DejaVuSans-45"/>
      <use x="36.083984" xlink:href="#DejaVuSans-108"/>
      <use x="63.867188" xlink:href="#DejaVuSans-111"/>
      <use x="125.048828" xlink:href="#DejaVuSans-103"/>
      <use x="188.525391" xlink:href="#DejaVuSans-49"/>
      <use x="252.148438" xlink:href="#DejaVuSans-48"/>
      <use x="315.771484" xlink:href="#DejaVuSans-32"/>
      <use x="347.558594" xlink:href="#DejaVuSans-112"/>
      <use x="411.035156" xlink:href="#DejaVuSans-45"/>
      <use x="447.087891" xlink:href="#DejaVuSans-118"/>
      <use x="506.267578" xlink:href="#DejaVuSans-97"/>
      <use x="567.546875" xlink:href="#DejaVuSans-108"/>
      <use x="595.330078" xlink:href="#DejaVuSans-117"/>
      <use x="658.708984" xlink:href="#DejaVuSans-101"/>
     </g>
    </g>
   </g>
   <g id="matplotlib.axis_6">
    <g id="ytick_7"/>
    <g id="ytick_8"/>
    <g id="ytick_9"/>
   </g>
   <g id="line2d_22">
    <path clip-path="url(#p7b101bdca8)" d="M 759.741023 213.081279 
L 772.504659 213.190521 
L 791.159205 213.456606 
L 793.122841 213.478959 
L 794.104659 212.927825 
L 799.995568 212.985979 
L 800.977386 212.449012 
L 801.959205 212.449012 
L 802.941023 211.863935 
L 818.650114 211.942414 
L 819.631932 211.323744 
L 845.159205 211.434166 
L 866.759205 211.565713 
L 889.341023 211.663376 
L 900.141023 211.725086 
L 901.122841 211.725086 
L 902.104659 210.900085 
L 922.722841 211.01101 
L 929.595568 211.054784 
L 973.777386 211.102779 
L 974.759205 210.058907 
L 1054.286477 210.058907 
L 1054.286477 210.058907 
" style="fill:none;stroke:#8b0000;stroke-linecap:square;stroke-width:2;"/>
   </g>
   <g id="line2d_23">
    <path clip-path="url(#p7b101bdca8)" d="M 759.741023 196.905366 
L 760.722841 196.905366 
L 761.704659 195.731309 
L 766.61375 195.731309 
L 767.595568 195.13386 
L 768.577386 196.863906 
L 772.504659 196.863906 
L 776.431932 194.398812 
L 777.41375 194.398812 
L 778.395568 193.763399 
L 780.359205 193.763399 
L 781.341023 193.120044 
L 783.304659 193.120044 
L 784.286477 193.681962 
L 785.268295 196.155361 
L 786.250114 196.155361 
L 789.195568 194.183893 
L 792.141023 194.183893 
L 794.104659 192.826061 
L 795.086477 194.106522 
L 798.031932 194.106522 
L 799.995568 192.720121 
L 801.959205 192.609797 
L 802.941023 191.886947 
L 803.922841 191.886947 
L 804.904659 191.153987 
L 810.795568 191.153987 
L 811.777386 192.494812 
L 812.759205 191.755766 
L 813.741023 193.120044 
L 814.722841 193.120044 
L 815.704659 194.503952 
L 816.686477 194.503952 
L 817.668295 193.763399 
L 818.650114 193.763399 
L 819.631932 193.012036 
L 820.61375 193.012036 
L 821.595568 193.668088 
L 822.577386 192.899191 
L 823.559205 192.899191 
L 824.541023 192.118732 
L 829.450114 192.118732 
L 830.431932 193.568443 
L 831.41375 193.568443 
L 833.377386 191.981801 
L 836.322841 191.981801 
L 837.304659 191.17003 
L 839.268295 191.17003 
L 840.250114 190.345575 
L 842.21375 190.345575 
L 843.195568 189.508137 
L 844.177386 189.508137 
L 847.122841 186.91478 
L 848.104659 187.540784 
L 850.068295 187.540784 
L 851.050114 185.72146 
L 854.977386 185.72146 
L 855.959205 184.788866 
L 858.904659 184.788866 
L 859.886477 183.840465 
L 861.850114 183.840465 
L 862.831932 185.405282 
L 863.81375 186.043138 
L 868.722841 186.043138 
L 869.704659 185.072462 
L 874.61375 185.072462 
L 875.595568 184.084606 
L 877.559205 184.084606 
L 878.541023 183.079109 
L 888.359205 183.079109 
L 889.341023 184.351352 
L 890.322841 186.067189 
L 891.304659 186.067189 
L 892.286477 185.023481 
L 895.231932 185.023481 
L 896.21375 183.959893 
L 897.195568 183.959893 
L 898.177386 182.875851 
L 901.122841 182.875851 
L 902.104659 181.77076 
L 904.068295 181.77076 
L 905.050114 180.644001 
L 906.031932 180.644001 
L 907.01375 178.322877 
L 908.977386 178.322877 
L 909.959205 174.661722 
L 910.941023 176.473231 
L 911.922841 176.473231 
L 912.904659 175.207683 
L 913.886477 175.777127 
L 917.81375 175.777127 
L 918.795568 177.679522 
L 919.777386 177.679522 
L 920.759205 176.371602 
L 922.722841 176.371602 
L 923.704659 176.992794 
L 924.686477 178.995475 
L 925.668295 178.995475 
L 926.650114 177.642547 
L 946.286477 177.642547 
L 947.268295 176.258156 
L 964.941023 176.258156 
L 965.922841 173.390487 
L 967.886477 173.390487 
L 968.868295 171.904828 
L 973.777386 171.904828 
L 974.759205 172.477082 
L 977.704659 172.477082 
L 978.686477 174.623585 
L 985.559205 174.623585 
L 986.541023 173.078311 
L 989.486477 173.078311 
L 990.468295 175.28756 
L 994.395568 175.28756 
L 995.377386 177.554193 
L 1000.286477 177.554193 
L 1001.268295 178.322877 
L 1007.159205 178.322877 
L 1008.141023 176.723183 
L 1015.01375 176.723183 
L 1015.995568 173.390487 
L 1023.850114 173.390487 
L 1024.831932 170.489082 
L 1036.61375 170.489082 
L 1037.595568 176.473231 
L 1054.286477 176.473231 
L 1054.286477 176.473231 
" style="fill:none;stroke:#000080;stroke-linecap:square;stroke-width:2;"/>
   </g>
   <g id="line2d_24">
    <path clip-path="url(#p7b101bdca8)" d="M 759.741023 214.647388 
L 1054.286477 214.647388 
" style="fill:none;stroke:#0000ff;stroke-dasharray:3.7,1.6;stroke-dashoffset:0;"/>
   </g>
   <g id="patch_9">
    <path d="M 745.01375 226.955312 
L 745.01375 9.515312 
" style="fill:none;stroke:#000000;stroke-linecap:square;stroke-linejoin:miter;"/>
   </g>
   <g id="patch_10">
    <path d="M 745.01375 226.955312 
L 1069.01375 226.955312 
" style="fill:none;stroke:#000000;stroke-linecap:square;stroke-linejoin:miter;"/>
   </g>
  </g>
 </g>
 <defs>
  <clipPath id="p275a504567">
   <rect height="217.44" width="324" x="64.61375" y="9.515312"/>
  </clipPath>
  <clipPath id="p93f7f32063">
   <rect height="217.44" width="324" x="404.81375" y="9.515312"/>
  </clipPath>
  <clipPath id="p7b101bdca8">
   <rect height="217.44" width="324" x="745.01375" y="9.515312"/>
  </clipPath>
 </defs>
</svg>
