<?xml version="1.0" encoding="utf-8" standalone="no"?>
<!DOCTYPE svg PUBLIC "-//W3C//DTD SVG 1.1//EN"
  "http://www.w3.org/Graphics/SVG/1.1/DTD/svg11.dtd">
<!-- Created with matplotlib (https://matplotlib.org/) -->
<svg height="352.8975pt" version="1.1" viewBox="0 0 1076.21375 352.8975" width="1076.21375pt" xmlns="http://www.w3.org/2000/svg" xmlns:xlink="http://www.w3.org/1999/xlink">
 <defs>
  <style type="text/css">
*{stroke-linecap:butt;stroke-linejoin:round;}
  </style>
 </defs>
 <g id="figure_1">
  <g id="patch_1">
   <path d="M 0 352.8975 
L 1076.21375 352.8975 
L 1076.21375 0 
L 0 0 
z
" style="fill:none;"/>
  </g>
  <g id="axes_1">
   <g id="patch_2">
    <path d="M 64.61375 279 
L 388.61375 279 
L 388.61375 7.2 
L 64.61375 7.2 
z
" style="fill:none;"/>
   </g>
   <g id="matplotlib.axis_1">
    <g id="xtick_1">
     <g id="line2d_1">
      <defs>
       <path d="M 0 0 
L 0 5 
" id="m4a2cd72aed" style="stroke:#000000;stroke-width:0.8;"/>
      </defs>
      <g>
       <use style="stroke:#000000;stroke-width:0.8;" x="79.341023" xlink:href="#m4a2cd72aed" y="279"/>
      </g>
     </g>
     <g id="text_1">
      <!-- 1 -->
      <defs>
       <path d="M 12.40625 8.296875 
L 28.515625 8.296875 
L 28.515625 63.921875 
L 10.984375 60.40625 
L 10.984375 69.390625 
L 28.421875 72.90625 
L 38.28125 72.90625 
L 38.28125 8.296875 
L 54.390625 8.296875 
L 54.390625 0 
L 12.40625 0 
z
" id="DejaVuSans-49"/>
      </defs>
      <g transform="translate(70.433523 308.775625)scale(0.28 -0.28)">
       <use xlink:href="#DejaVuSans-49"/>
      </g>
     </g>
    </g>
    <g id="xtick_2">
     <g id="line2d_2">
      <g>
       <use style="stroke:#000000;stroke-width:0.8;" x="177.522841" xlink:href="#m4a2cd72aed" y="279"/>
      </g>
     </g>
     <g id="text_2">
      <!-- 2 -->
      <defs>
       <path d="M 19.1875 8.296875 
L 53.609375 8.296875 
L 53.609375 0 
L 7.328125 0 
L 7.328125 8.296875 
Q 12.9375 14.109375 22.625 23.890625 
Q 32.328125 33.6875 34.8125 36.53125 
Q 39.546875 41.84375 41.421875 45.53125 
Q 43.3125 49.21875 43.3125 52.78125 
Q 43.3125 58.59375 39.234375 62.25 
Q 35.15625 65.921875 28.609375 65.921875 
Q 23.96875 65.921875 18.8125 64.3125 
Q 13.671875 62.703125 7.8125 59.421875 
L 7.8125 69.390625 
Q 13.765625 71.78125 18.9375 73 
Q 24.125 74.21875 28.421875 74.21875 
Q 39.75 74.21875 46.484375 68.546875 
Q 53.21875 62.890625 53.21875 53.421875 
Q 53.21875 48.921875 51.53125 44.890625 
Q 49.859375 40.875 45.40625 35.40625 
Q 44.1875 33.984375 37.640625 27.21875 
Q 31.109375 20.453125 19.1875 8.296875 
z
" id="DejaVuSans-50"/>
      </defs>
      <g transform="translate(168.615341 308.775625)scale(0.28 -0.28)">
       <use xlink:href="#DejaVuSans-50"/>
      </g>
     </g>
    </g>
    <g id="xtick_3">
     <g id="line2d_3">
      <g>
       <use style="stroke:#000000;stroke-width:0.8;" x="275.704659" xlink:href="#m4a2cd72aed" y="279"/>
      </g>
     </g>
     <g id="text_3">
      <!-- 3 -->
      <defs>
       <path d="M 40.578125 39.3125 
Q 47.65625 37.796875 51.625 33 
Q 55.609375 28.21875 55.609375 21.1875 
Q 55.609375 10.40625 48.1875 4.484375 
Q 40.765625 -1.421875 27.09375 -1.421875 
Q 22.515625 -1.421875 17.65625 -0.515625 
Q 12.796875 0.390625 7.625 2.203125 
L 7.625 11.71875 
Q 11.71875 9.328125 16.59375 8.109375 
Q 21.484375 6.890625 26.8125 6.890625 
Q 36.078125 6.890625 40.9375 10.546875 
Q 45.796875 14.203125 45.796875 21.1875 
Q 45.796875 27.640625 41.28125 31.265625 
Q 36.765625 34.90625 28.71875 34.90625 
L 20.21875 34.90625 
L 20.21875 43.015625 
L 29.109375 43.015625 
Q 36.375 43.015625 40.234375 45.921875 
Q 44.09375 48.828125 44.09375 54.296875 
Q 44.09375 59.90625 40.109375 62.90625 
Q 36.140625 65.921875 28.71875 65.921875 
Q 24.65625 65.921875 20.015625 65.03125 
Q 15.375 64.15625 9.8125 62.3125 
L 9.8125 71.09375 
Q 15.4375 72.65625 20.34375 73.4375 
Q 25.25 74.21875 29.59375 74.21875 
Q 40.828125 74.21875 47.359375 69.109375 
Q 53.90625 64.015625 53.90625 55.328125 
Q 53.90625 49.265625 50.4375 45.09375 
Q 46.96875 40.921875 40.578125 39.3125 
z
" id="DejaVuSans-51"/>
      </defs>
      <g transform="translate(266.797159 308.775625)scale(0.28 -0.28)">
       <use xlink:href="#DejaVuSans-51"/>
      </g>
     </g>
    </g>
    <g id="xtick_4">
     <g id="line2d_4">
      <g>
       <use style="stroke:#000000;stroke-width:0.8;" x="373.886477" xlink:href="#m4a2cd72aed" y="279"/>
      </g>
     </g>
     <g id="text_4">
      <!-- 4 -->
      <defs>
       <path d="M 37.796875 64.3125 
L 12.890625 25.390625 
L 37.796875 25.390625 
z
M 35.203125 72.90625 
L 47.609375 72.90625 
L 47.609375 25.390625 
L 58.015625 25.390625 
L 58.015625 17.1875 
L 47.609375 17.1875 
L 47.609375 0 
L 37.796875 0 
L 37.796875 17.1875 
L 4.890625 17.1875 
L 4.890625 26.703125 
z
" id="DejaVuSans-52"/>
      </defs>
      <g transform="translate(364.978977 308.775625)scale(0.28 -0.28)">
       <use xlink:href="#DejaVuSans-52"/>
      </g>
     </g>
    </g>
    <g id="text_5">
     <!-- -log10 p-value -->
     <defs>
      <path d="M 4.890625 31.390625 
L 31.203125 31.390625 
L 31.203125 23.390625 
L 4.890625 23.390625 
z
" id="DejaVuSans-45"/>
      <path d="M 9.421875 75.984375 
L 18.40625 75.984375 
L 18.40625 0 
L 9.421875 0 
z
" id="DejaVuSans-108"/>
      <path d="M 30.609375 48.390625 
Q 23.390625 48.390625 19.1875 42.75 
Q 14.984375 37.109375 14.984375 27.296875 
Q 14.984375 17.484375 19.15625 11.84375 
Q 23.34375 6.203125 30.609375 6.203125 
Q 37.796875 6.203125 41.984375 11.859375 
Q 46.1875 17.53125 46.1875 27.296875 
Q 46.1875 37.015625 41.984375 42.703125 
Q 37.796875 48.390625 30.609375 48.390625 
z
M 30.609375 56 
Q 42.328125 56 49.015625 48.375 
Q 55.71875 40.765625 55.71875 27.296875 
Q 55.71875 13.875 49.015625 6.21875 
Q 42.328125 -1.421875 30.609375 -1.421875 
Q 18.84375 -1.421875 12.171875 6.21875 
Q 5.515625 13.875 5.515625 27.296875 
Q 5.515625 40.765625 12.171875 48.375 
Q 18.84375 56 30.609375 56 
z
" id="DejaVuSans-111"/>
      <path d="M 45.40625 27.984375 
Q 45.40625 37.75 41.375 43.109375 
Q 37.359375 48.484375 30.078125 48.484375 
Q 22.859375 48.484375 18.828125 43.109375 
Q 14.796875 37.75 14.796875 27.984375 
Q 14.796875 18.265625 18.828125 12.890625 
Q 22.859375 7.515625 30.078125 7.515625 
Q 37.359375 7.515625 41.375 12.890625 
Q 45.40625 18.265625 45.40625 27.984375 
z
M 54.390625 6.78125 
Q 54.390625 -7.171875 48.1875 -13.984375 
Q 42 -20.796875 29.203125 -20.796875 
Q 24.46875 -20.796875 20.265625 -20.09375 
Q 16.0625 -19.390625 12.109375 -17.921875 
L 12.109375 -9.1875 
Q 16.0625 -11.328125 19.921875 -12.34375 
Q 23.78125 -13.375 27.78125 -13.375 
Q 36.625 -13.375 41.015625 -8.765625 
Q 45.40625 -4.15625 45.40625 5.171875 
L 45.40625 9.625 
Q 42.625 4.78125 38.28125 2.390625 
Q 33.9375 0 27.875 0 
Q 17.828125 0 11.671875 7.65625 
Q 5.515625 15.328125 5.515625 27.984375 
Q 5.515625 40.671875 11.671875 48.328125 
Q 17.828125 56 27.875 56 
Q 33.9375 56 38.28125 53.609375 
Q 42.625 51.21875 45.40625 46.390625 
L 45.40625 54.6875 
L 54.390625 54.6875 
z
" id="DejaVuSans-103"/>
      <path d="M 31.78125 66.40625 
Q 24.171875 66.40625 20.328125 58.90625 
Q 16.5 51.421875 16.5 36.375 
Q 16.5 21.390625 20.328125 13.890625 
Q 24.171875 6.390625 31.78125 6.390625 
Q 39.453125 6.390625 43.28125 13.890625 
Q 47.125 21.390625 47.125 36.375 
Q 47.125 51.421875 43.28125 58.90625 
Q 39.453125 66.40625 31.78125 66.40625 
z
M 31.78125 74.21875 
Q 44.046875 74.21875 50.515625 64.515625 
Q 56.984375 54.828125 56.984375 36.375 
Q 56.984375 17.96875 50.515625 8.265625 
Q 44.046875 -1.421875 31.78125 -1.421875 
Q 19.53125 -1.421875 13.0625 8.265625 
Q 6.59375 17.96875 6.59375 36.375 
Q 6.59375 54.828125 13.0625 64.515625 
Q 19.53125 74.21875 31.78125 74.21875 
z
" id="DejaVuSans-48"/>
      <path id="DejaVuSans-32"/>
      <path d="M 18.109375 8.203125 
L 18.109375 -20.796875 
L 9.078125 -20.796875 
L 9.078125 54.6875 
L 18.109375 54.6875 
L 18.109375 46.390625 
Q 20.953125 51.265625 25.265625 53.625 
Q 29.59375 56 35.59375 56 
Q 45.5625 56 51.78125 48.09375 
Q 58.015625 40.1875 58.015625 27.296875 
Q 58.015625 14.40625 51.78125 6.484375 
Q 45.5625 -1.421875 35.59375 -1.421875 
Q 29.59375 -1.421875 25.265625 0.953125 
Q 20.953125 3.328125 18.109375 8.203125 
z
M 48.6875 27.296875 
Q 48.6875 37.203125 44.609375 42.84375 
Q 40.53125 48.484375 33.40625 48.484375 
Q 26.265625 48.484375 22.1875 42.84375 
Q 18.109375 37.203125 18.109375 27.296875 
Q 18.109375 17.390625 22.1875 11.75 
Q 26.265625 6.109375 33.40625 6.109375 
Q 40.53125 6.109375 44.609375 11.75 
Q 48.6875 17.390625 48.6875 27.296875 
z
" id="DejaVuSans-112"/>
      <path d="M 2.984375 54.6875 
L 12.5 54.6875 
L 29.59375 8.796875 
L 46.6875 54.6875 
L 56.203125 54.6875 
L 35.6875 0 
L 23.484375 0 
z
" id="DejaVuSans-118"/>
      <path d="M 34.28125 27.484375 
Q 23.390625 27.484375 19.1875 25 
Q 14.984375 22.515625 14.984375 16.5 
Q 14.984375 11.71875 18.140625 8.90625 
Q 21.296875 6.109375 26.703125 6.109375 
Q 34.1875 6.109375 38.703125 11.40625 
Q 43.21875 16.703125 43.21875 25.484375 
L 43.21875 27.484375 
z
M 52.203125 31.203125 
L 52.203125 0 
L 43.21875 0 
L 43.21875 8.296875 
Q 40.140625 3.328125 35.546875 0.953125 
Q 30.953125 -1.421875 24.3125 -1.421875 
Q 15.921875 -1.421875 10.953125 3.296875 
Q 6 8.015625 6 15.921875 
Q 6 25.140625 12.171875 29.828125 
Q 18.359375 34.515625 30.609375 34.515625 
L 43.21875 34.515625 
L 43.21875 35.40625 
Q 43.21875 41.609375 39.140625 45 
Q 35.0625 48.390625 27.6875 48.390625 
Q 23 48.390625 18.546875 47.265625 
Q 14.109375 46.140625 10.015625 43.890625 
L 10.015625 52.203125 
Q 14.9375 54.109375 19.578125 55.046875 
Q 24.21875 56 28.609375 56 
Q 40.484375 56 46.34375 49.84375 
Q 52.203125 43.703125 52.203125 31.203125 
z
" id="DejaVuSans-97"/>
      <path d="M 8.5 21.578125 
L 8.5 54.6875 
L 17.484375 54.6875 
L 17.484375 21.921875 
Q 17.484375 14.15625 20.5 10.265625 
Q 23.53125 6.390625 29.59375 6.390625 
Q 36.859375 6.390625 41.078125 11.03125 
Q 45.3125 15.671875 45.3125 23.6875 
L 45.3125 54.6875 
L 54.296875 54.6875 
L 54.296875 0 
L 45.3125 0 
L 45.3125 8.40625 
Q 42.046875 3.421875 37.71875 1 
Q 33.40625 -1.421875 27.6875 -1.421875 
Q 18.265625 -1.421875 13.375 4.4375 
Q 8.5 10.296875 8.5 21.578125 
z
M 31.109375 56 
z
" id="DejaVuSans-117"/>
      <path d="M 56.203125 29.59375 
L 56.203125 25.203125 
L 14.890625 25.203125 
Q 15.484375 15.921875 20.484375 11.0625 
Q 25.484375 6.203125 34.421875 6.203125 
Q 39.59375 6.203125 44.453125 7.46875 
Q 49.3125 8.734375 54.109375 11.28125 
L 54.109375 2.78125 
Q 49.265625 0.734375 44.1875 -0.34375 
Q 39.109375 -1.421875 33.890625 -1.421875 
Q 20.796875 -1.421875 13.15625 6.1875 
Q 5.515625 13.8125 5.515625 26.8125 
Q 5.515625 40.234375 12.765625 48.109375 
Q 20.015625 56 32.328125 56 
Q 43.359375 56 49.78125 48.890625 
Q 56.203125 41.796875 56.203125 29.59375 
z
M 47.21875 32.234375 
Q 47.125 39.59375 43.09375 43.984375 
Q 39.0625 48.390625 32.421875 48.390625 
Q 24.90625 48.390625 20.390625 44.140625 
Q 15.875 39.890625 15.1875 32.171875 
z
" id="DejaVuSans-101"/>
     </defs>
     <g transform="translate(125.77875 339.874375)scale(0.28 -0.28)">
      <use xlink:href="#DejaVuSans-45"/>
      <use x="36.083984" xlink:href="#DejaVuSans-108"/>
      <use x="63.867188" xlink:href="#DejaVuSans-111"/>
      <use x="125.048828" xlink:href="#DejaVuSans-103"/>
      <use x="188.525391" xlink:href="#DejaVuSans-49"/>
      <use x="252.148438" xlink:href="#DejaVuSans-48"/>
      <use x="315.771484" xlink:href="#DejaVuSans-32"/>
      <use x="347.558594" xlink:href="#DejaVuSans-112"/>
      <use x="411.035156" xlink:href="#DejaVuSans-45"/>
      <use x="447.087891" xlink:href="#DejaVuSans-118"/>
      <use x="506.267578" xlink:href="#DejaVuSans-97"/>
      <use x="567.546875" xlink:href="#DejaVuSans-108"/>
      <use x="595.330078" xlink:href="#DejaVuSans-117"/>
      <use x="658.708984" xlink:href="#DejaVuSans-101"/>
     </g>
    </g>
   </g>
   <g id="matplotlib.axis_2">
    <g id="ytick_1">
     <g id="line2d_5">
      <defs>
       <path d="M 0 0 
L -5 0 
" id="mea56eec657" style="stroke:#000000;stroke-width:0.8;"/>
      </defs>
      <g>
       <use style="stroke:#000000;stroke-width:0.8;" x="64.61375" xlink:href="#mea56eec657" y="263.615094"/>
      </g>
     </g>
     <g id="text_6">
      <!-- 1 -->
      <g transform="translate(38.29875 274.252907)scale(0.28 -0.28)">
       <use xlink:href="#DejaVuSans-49"/>
      </g>
     </g>
    </g>
    <g id="ytick_2">
     <g id="line2d_6">
      <g>
       <use style="stroke:#000000;stroke-width:0.8;" x="64.61375" xlink:href="#mea56eec657" y="161.049057"/>
      </g>
     </g>
     <g id="text_7">
      <!-- 2 -->
      <g transform="translate(38.29875 171.686869)scale(0.28 -0.28)">
       <use xlink:href="#DejaVuSans-50"/>
      </g>
     </g>
    </g>
    <g id="ytick_3">
     <g id="line2d_7">
      <g>
       <use style="stroke:#000000;stroke-width:0.8;" x="64.61375" xlink:href="#mea56eec657" y="58.483019"/>
      </g>
     </g>
     <g id="text_8">
      <!-- 3 -->
      <g transform="translate(38.29875 69.120831)scale(0.28 -0.28)">
       <use xlink:href="#DejaVuSans-51"/>
      </g>
     </g>
    </g>
    <g id="text_9">
     <!-- fold enrichment -->
     <defs>
      <path d="M 37.109375 75.984375 
L 37.109375 68.5 
L 28.515625 68.5 
Q 23.6875 68.5 21.796875 66.546875 
Q 19.921875 64.59375 19.921875 59.515625 
L 19.921875 54.6875 
L 34.71875 54.6875 
L 34.71875 47.703125 
L 19.921875 47.703125 
L 19.921875 0 
L 10.890625 0 
L 10.890625 47.703125 
L 2.296875 47.703125 
L 2.296875 54.6875 
L 10.890625 54.6875 
L 10.890625 58.5 
Q 10.890625 67.625 15.140625 71.796875 
Q 19.390625 75.984375 28.609375 75.984375 
z
" id="DejaVuSans-102"/>
      <path d="M 45.40625 46.390625 
L 45.40625 75.984375 
L 54.390625 75.984375 
L 54.390625 0 
L 45.40625 0 
L 45.40625 8.203125 
Q 42.578125 3.328125 38.25 0.953125 
Q 33.9375 -1.421875 27.875 -1.421875 
Q 17.96875 -1.421875 11.734375 6.484375 
Q 5.515625 14.40625 5.515625 27.296875 
Q 5.515625 40.1875 11.734375 48.09375 
Q 17.96875 56 27.875 56 
Q 33.9375 56 38.25 53.625 
Q 42.578125 51.265625 45.40625 46.390625 
z
M 14.796875 27.296875 
Q 14.796875 17.390625 18.875 11.75 
Q 22.953125 6.109375 30.078125 6.109375 
Q 37.203125 6.109375 41.296875 11.75 
Q 45.40625 17.390625 45.40625 27.296875 
Q 45.40625 37.203125 41.296875 42.84375 
Q 37.203125 48.484375 30.078125 48.484375 
Q 22.953125 48.484375 18.875 42.84375 
Q 14.796875 37.203125 14.796875 27.296875 
z
" id="DejaVuSans-100"/>
      <path d="M 54.890625 33.015625 
L 54.890625 0 
L 45.90625 0 
L 45.90625 32.71875 
Q 45.90625 40.484375 42.875 44.328125 
Q 39.84375 48.1875 33.796875 48.1875 
Q 26.515625 48.1875 22.3125 43.546875 
Q 18.109375 38.921875 18.109375 30.90625 
L 18.109375 0 
L 9.078125 0 
L 9.078125 54.6875 
L 18.109375 54.6875 
L 18.109375 46.1875 
Q 21.34375 51.125 25.703125 53.5625 
Q 30.078125 56 35.796875 56 
Q 45.21875 56 50.046875 50.171875 
Q 54.890625 44.34375 54.890625 33.015625 
z
" id="DejaVuSans-110"/>
      <path d="M 41.109375 46.296875 
Q 39.59375 47.171875 37.8125 47.578125 
Q 36.03125 48 33.890625 48 
Q 26.265625 48 22.1875 43.046875 
Q 18.109375 38.09375 18.109375 28.8125 
L 18.109375 0 
L 9.078125 0 
L 9.078125 54.6875 
L 18.109375 54.6875 
L 18.109375 46.1875 
Q 20.953125 51.171875 25.484375 53.578125 
Q 30.03125 56 36.53125 56 
Q 37.453125 56 38.578125 55.875 
Q 39.703125 55.765625 41.0625 55.515625 
z
" id="DejaVuSans-114"/>
      <path d="M 9.421875 54.6875 
L 18.40625 54.6875 
L 18.40625 0 
L 9.421875 0 
z
M 9.421875 75.984375 
L 18.40625 75.984375 
L 18.40625 64.59375 
L 9.421875 64.59375 
z
" id="DejaVuSans-105"/>
      <path d="M 48.78125 52.59375 
L 48.78125 44.1875 
Q 44.96875 46.296875 41.140625 47.34375 
Q 37.3125 48.390625 33.40625 48.390625 
Q 24.65625 48.390625 19.8125 42.84375 
Q 14.984375 37.3125 14.984375 27.296875 
Q 14.984375 17.28125 19.8125 11.734375 
Q 24.65625 6.203125 33.40625 6.203125 
Q 37.3125 6.203125 41.140625 7.25 
Q 44.96875 8.296875 48.78125 10.40625 
L 48.78125 2.09375 
Q 45.015625 0.34375 40.984375 -0.53125 
Q 36.96875 -1.421875 32.421875 -1.421875 
Q 20.0625 -1.421875 12.78125 6.34375 
Q 5.515625 14.109375 5.515625 27.296875 
Q 5.515625 40.671875 12.859375 48.328125 
Q 20.21875 56 33.015625 56 
Q 37.15625 56 41.109375 55.140625 
Q 45.0625 54.296875 48.78125 52.59375 
z
" id="DejaVuSans-99"/>
      <path d="M 54.890625 33.015625 
L 54.890625 0 
L 45.90625 0 
L 45.90625 32.71875 
Q 45.90625 40.484375 42.875 44.328125 
Q 39.84375 48.1875 33.796875 48.1875 
Q 26.515625 48.1875 22.3125 43.546875 
Q 18.109375 38.921875 18.109375 30.90625 
L 18.109375 0 
L 9.078125 0 
L 9.078125 75.984375 
L 18.109375 75.984375 
L 18.109375 46.1875 
Q 21.34375 51.125 25.703125 53.5625 
Q 30.078125 56 35.796875 56 
Q 45.21875 56 50.046875 50.171875 
Q 54.890625 44.34375 54.890625 33.015625 
z
" id="DejaVuSans-104"/>
      <path d="M 52 44.1875 
Q 55.375 50.25 60.0625 53.125 
Q 64.75 56 71.09375 56 
Q 79.640625 56 84.28125 50.015625 
Q 88.921875 44.046875 88.921875 33.015625 
L 88.921875 0 
L 79.890625 0 
L 79.890625 32.71875 
Q 79.890625 40.578125 77.09375 44.375 
Q 74.3125 48.1875 68.609375 48.1875 
Q 61.625 48.1875 57.5625 43.546875 
Q 53.515625 38.921875 53.515625 30.90625 
L 53.515625 0 
L 44.484375 0 
L 44.484375 32.71875 
Q 44.484375 40.625 41.703125 44.40625 
Q 38.921875 48.1875 33.109375 48.1875 
Q 26.21875 48.1875 22.15625 43.53125 
Q 18.109375 38.875 18.109375 30.90625 
L 18.109375 0 
L 9.078125 0 
L 9.078125 54.6875 
L 18.109375 54.6875 
L 18.109375 46.1875 
Q 21.1875 51.21875 25.484375 53.609375 
Q 29.78125 56 35.6875 56 
Q 41.65625 56 45.828125 52.96875 
Q 50 49.953125 52 44.1875 
z
" id="DejaVuSans-109"/>
      <path d="M 18.3125 70.21875 
L 18.3125 54.6875 
L 36.8125 54.6875 
L 36.8125 47.703125 
L 18.3125 47.703125 
L 18.3125 18.015625 
Q 18.3125 11.328125 20.140625 9.421875 
Q 21.96875 7.515625 27.59375 7.515625 
L 36.8125 7.515625 
L 36.8125 0 
L 27.59375 0 
Q 17.1875 0 13.234375 3.875 
Q 9.28125 7.765625 9.28125 18.015625 
L 9.28125 47.703125 
L 2.6875 47.703125 
L 2.6875 54.6875 
L 9.28125 54.6875 
L 9.28125 70.21875 
z
" id="DejaVuSans-116"/>
     </defs>
     <g transform="translate(28.475625 254.135312)rotate(-90)scale(0.28 -0.28)">
      <use xlink:href="#DejaVuSans-102"/>
      <use x="35.205078" xlink:href="#DejaVuSans-111"/>
      <use x="96.386719" xlink:href="#DejaVuSans-108"/>
      <use x="124.169922" xlink:href="#DejaVuSans-100"/>
      <use x="187.646484" xlink:href="#DejaVuSans-32"/>
      <use x="219.433594" xlink:href="#DejaVuSans-101"/>
      <use x="280.957031" xlink:href="#DejaVuSans-110"/>
      <use x="344.335938" xlink:href="#DejaVuSans-114"/>
      <use x="385.449219" xlink:href="#DejaVuSans-105"/>
      <use x="413.232422" xlink:href="#DejaVuSans-99"/>
      <use x="468.212891" xlink:href="#DejaVuSans-104"/>
      <use x="531.591797" xlink:href="#DejaVuSans-109"/>
      <use x="629.003906" xlink:href="#DejaVuSans-101"/>
      <use x="690.527344" xlink:href="#DejaVuSans-110"/>
      <use x="753.90625" xlink:href="#DejaVuSans-116"/>
     </g>
    </g>
   </g>
   <g id="line2d_8">
    <path clip-path="url(#pe64c60f963)" d="M 79.341023 225.542843 
L 80.322841 224.020784 
L 81.304659 223.402695 
L 82.286477 222.465419 
L 83.268295 221.833702 
L 84.250114 221.515756 
L 85.231932 220.553458 
L 86.21375 219.904783 
L 87.195568 218.257527 
L 88.177386 217.251243 
L 91.122841 216.231176 
L 92.104659 213.795794 
L 93.086477 213.085372 
L 94.068295 212.007233 
L 95.050114 211.279998 
L 96.031932 210.913801 
L 97.995568 209.431536 
L 98.977386 208.30113 
L 99.959205 210.987179 
L 100.941023 210.987179 
L 101.922841 210.611407 
L 102.904659 210.611407 
L 103.886477 213.328305 
L 104.868295 215.334135 
L 105.850114 214.589212 
L 106.831932 214.589212 
L 108.795568 213.836894 
L 109.777386 216.637632 
L 110.759205 215.51042 
L 111.741023 215.130897 
L 112.722841 215.130897 
L 113.704659 214.366086 
L 114.686477 213.980768 
L 115.668295 213.204236 
L 116.650114 212.024465 
L 117.631932 214.917155 
L 118.61375 214.917155 
L 119.595568 214.52528 
L 120.577386 213.735405 
L 121.559205 213.337375 
L 122.541023 215.888041 
L 124.504659 214.289178 
L 125.486477 213.884133 
L 126.468295 212.655931 
L 127.450114 212.655931 
L 129.41375 210.139125 
L 130.395568 209.711612 
L 131.377386 208.414904 
L 133.341023 207.538425 
L 134.322841 207.538425 
L 136.286477 206.652153 
L 137.268295 209.325948 
L 138.250114 208.43725 
L 139.231932 207.989114 
L 140.21375 207.08516 
L 141.195568 209.824343 
L 142.177386 208.917926 
L 143.159205 207.538425 
L 144.141023 207.538425 
L 145.122841 206.605232 
L 146.104659 206.134507 
L 147.086477 205.184675 
L 148.068295 208.013403 
L 150.031932 208.013403 
L 151.01375 210.893406 
L 152.977386 218.179094 
L 153.959205 216.812921 
L 154.941023 216.351908 
L 156.904659 216.351908 
L 158.868295 215.421292 
L 159.850114 214.479043 
L 161.81375 213.524942 
L 162.795568 217.547428 
L 163.777386 217.077068 
L 164.759205 216.127361 
L 165.741023 214.679897 
L 168.686477 213.204236 
L 169.668295 216.380805 
L 170.650114 215.888041 
L 171.631932 214.390103 
L 172.61375 213.884133 
L 173.595568 213.884133 
L 175.559205 212.862005 
L 176.541023 212.862005 
L 179.486477 211.302828 
L 180.468295 209.711612 
L 181.450114 208.632512 
L 182.431932 213.027792 
L 183.41375 213.027792 
L 187.341023 210.878271 
L 188.322841 214.825899 
L 193.231932 214.825899 
L 194.21375 214.289178 
L 198.141023 214.289178 
L 199.122841 213.204236 
L 200.104659 213.204236 
L 201.086477 212.655931 
L 202.068295 210.422838 
L 204.031932 210.422838 
L 205.01375 209.854377 
L 205.995568 208.704915 
L 206.977386 208.704915 
L 207.959205 208.123822 
L 208.941023 206.948675 
L 211.886477 205.15282 
L 213.850114 205.15282 
L 215.81375 202.694373 
L 216.795568 202.067986 
L 217.777386 200.800704 
L 218.759205 200.800704 
L 219.741023 199.513696 
L 220.722841 199.513696 
L 221.704659 198.862652 
L 222.686477 198.862652 
L 223.668295 197.545183 
L 225.631932 197.545183 
L 226.61375 196.206803 
L 227.595568 193.465281 
L 228.577386 193.465281 
L 229.559205 192.766027 
L 230.541023 192.766027 
L 231.522841 197.178085 
L 232.504659 195.787113 
L 233.486477 195.787113 
L 238.395568 192.207407 
L 239.377386 190.733053 
L 240.359205 189.986466 
L 241.341023 189.986466 
L 242.322841 188.474065 
L 243.304659 188.474065 
L 244.286477 187.708086 
L 248.21375 187.708086 
L 249.195568 186.935476 
L 250.177386 191.604878 
L 251.159205 190.839192 
L 254.104659 190.839192 
L 256.068295 189.287494 
L 257.050114 194.082124 
L 258.031932 194.082124 
L 259.01375 192.531682 
L 259.995568 196.672486 
L 260.977386 196.672486 
L 261.959205 201.689846 
L 262.941023 200.159694 
L 263.922841 200.159694 
L 264.904659 197.012368 
L 272.759205 197.012368 
L 273.741023 195.393528 
L 277.668295 195.393528 
L 278.650114 194.572434 
L 279.631932 194.572434 
L 280.61375 193.743407 
L 282.577386 193.743407 
L 283.559205 191.207558 
L 284.541023 191.207558 
L 285.522841 190.345619 
L 287.486477 190.345619 
L 288.468295 188.596012 
L 290.431932 188.596012 
L 291.41375 185.905328 
L 293.377386 185.905328 
L 294.359205 183.131854 
L 297.304659 183.131854 
L 298.286477 187.708086 
L 300.250114 187.708086 
L 301.231932 183.910787 
L 305.159205 183.910787 
L 306.141023 180.955052 
L 309.086477 180.955052 
L 310.068295 179.948389 
L 313.995568 179.948389 
L 314.977386 172.583252 
L 319.886477 172.583252 
L 320.868295 166.955407 
L 326.759205 166.955407 
L 327.741023 164.714626 
L 334.61375 164.714626 
L 335.595568 158.339104 
L 343.450114 158.339104 
L 344.431932 152.94061 
L 356.21375 152.94061 
L 357.195568 156.506505 
L 373.886477 156.506505 
L 373.886477 156.506505 
" style="fill:none;stroke:#8b0000;stroke-linecap:square;stroke-width:2;"/>
   </g>
   <g id="line2d_9">
    <path clip-path="url(#pe64c60f963)" d="M 79.341023 238.113773 
L 80.322841 236.727762 
L 81.304659 236.164922 
L 82.286477 236.358381 
L 83.268295 235.787732 
L 84.250114 235.500522 
L 85.231932 235.692135 
L 86.21375 236.176504 
L 87.195568 236.867712 
L 88.177386 237.072971 
L 91.122841 236.188669 
L 92.104659 234.077422 
L 93.086477 233.461554 
L 94.068295 232.526909 
L 95.050114 231.896465 
L 96.031932 231.579007 
L 97.01375 232.076051 
L 97.995568 231.435931 
L 98.977386 233.914641 
L 99.959205 235.587072 
L 100.941023 235.587072 
L 101.922841 235.270863 
L 102.904659 235.270863 
L 103.886477 235.797966 
L 104.868295 236.867712 
L 105.850114 236.229127 
L 106.831932 236.229127 
L 107.81375 237.09177 
L 108.795568 236.771449 
L 109.777386 238.512346 
L 110.759205 237.550019 
L 111.741023 237.226011 
L 112.722841 237.226011 
L 113.704659 237.784364 
L 114.686477 237.458484 
L 115.668295 236.801736 
L 116.650114 235.803951 
L 117.631932 236.366497 
L 118.61375 236.366497 
L 119.595568 236.03019 
L 120.577386 235.35232 
L 121.559205 235.010731 
L 122.541023 235.234279 
L 123.522841 234.541439 
L 124.504659 235.113727 
L 125.486477 234.764214 
L 126.468295 233.7044 
L 127.450114 233.7044 
L 128.431932 233.923992 
L 129.41375 235.45445 
L 130.395568 235.096295 
L 131.377386 234.009957 
L 133.341023 233.275672 
L 134.322841 233.275672 
L 135.304659 234.238219 
L 136.286477 233.869663 
L 137.268295 234.099312 
L 138.250114 233.350973 
L 139.231932 232.973615 
L 140.21375 232.212429 
L 141.195568 232.433044 
L 142.177386 233.044532 
L 143.159205 231.876668 
L 144.141023 231.876668 
L 145.122841 231.086641 
L 146.104659 230.688132 
L 147.086477 231.303781 
L 148.068295 231.524822 
L 150.031932 231.524822 
L 151.01375 231.74987 
L 151.995568 232.79238 
L 152.977386 231.979034 
L 153.959205 230.740245 
L 154.941023 230.322218 
L 156.904659 230.322218 
L 158.868295 229.478374 
L 159.850114 228.623981 
L 161.81375 227.758842 
L 162.795568 228.831515 
L 163.777386 228.396864 
L 164.759205 227.519258 
L 165.741023 226.181683 
L 168.686477 224.818052 
L 169.668295 224.996316 
L 170.650114 224.531892 
L 171.631932 223.120106 
L 172.61375 222.643236 
L 173.595568 222.643236 
L 175.559205 221.679894 
L 176.541023 221.679894 
L 178.504659 223.93637 
L 179.486477 223.454184 
L 180.468295 225.264932 
L 181.450114 224.293097 
L 182.431932 225.457704 
L 183.41375 225.457704 
L 186.359205 223.981584 
L 187.341023 225.161444 
L 188.322841 225.855509 
L 193.231932 225.855509 
L 194.21375 225.3579 
L 198.141023 225.3579 
L 199.122841 224.35202 
L 200.104659 224.35202 
L 201.086477 223.843672 
L 202.068295 223.513162 
L 204.031932 223.513162 
L 205.01375 224.738679 
L 205.995568 225.457704 
L 206.977386 225.457704 
L 207.959205 226.703963 
L 208.941023 225.666958 
L 210.904659 224.614418 
L 211.886477 225.880933 
L 213.850114 225.880933 
L 214.831932 224.818052 
L 215.81375 225.565127 
L 216.795568 225.026368 
L 217.777386 223.93637 
L 218.759205 223.93637 
L 219.741023 222.829407 
L 220.722841 222.829407 
L 221.704659 222.269439 
L 222.686477 222.269439 
L 223.668295 221.136276 
L 225.631932 221.136276 
L 226.61375 219.985126 
L 227.595568 221.485672 
L 228.577386 221.485672 
L 229.559205 220.89986 
L 230.541023 220.89986 
L 232.504659 222.446339 
L 233.486477 222.446339 
L 238.395568 219.4267 
L 239.377386 218.183019 
L 240.359205 219.589238 
L 241.341023 219.589238 
L 242.322841 218.330938 
L 243.304659 218.330938 
L 244.286477 217.693653 
L 248.21375 217.693653 
L 249.195568 217.05085 
L 250.177386 217.837746 
L 251.159205 219.285624 
L 254.104659 219.285624 
L 256.068295 217.985664 
L 257.050114 218.798471 
L 258.031932 218.798471 
L 259.01375 217.470699 
L 259.995568 217.618317 
L 260.977386 217.618317 
L 261.959205 220.658841 
L 262.941023 219.305145 
L 263.922841 219.305145 
L 264.904659 218.788347 
L 272.759205 218.788347 
L 273.741023 217.37789 
L 277.668295 217.37789 
L 278.650114 216.66249 
L 279.631932 216.66249 
L 280.61375 215.940178 
L 282.577386 215.940178 
L 283.559205 213.730752 
L 284.541023 213.730752 
L 285.522841 212.979765 
L 287.486477 212.979765 
L 288.468295 211.455373 
L 290.431932 211.455373 
L 291.41375 209.111043 
L 293.377386 209.111043 
L 294.359205 206.69458 
L 300.250114 206.69458 
L 301.231932 205.846248 
L 309.086477 205.832491 
L 310.068295 204.961031 
L 313.995568 204.961031 
L 314.977386 201.288257 
L 319.886477 201.288257 
L 320.868295 202.058344 
L 326.759205 202.058344 
L 327.741023 201.802355 
L 334.61375 201.802355 
L 335.595568 196.600495 
L 343.450114 196.600495 
L 344.431932 195.302684 
L 356.21375 195.302684 
L 357.195568 195.541675 
L 373.886477 195.541675 
L 373.886477 195.541675 
" style="fill:none;stroke:#000080;stroke-linecap:square;stroke-width:2;"/>
   </g>
   <g id="line2d_10">
    <path clip-path="url(#pe64c60f963)" d="M 79.341023 263.615094 
L 373.886477 263.615094 
" style="fill:none;stroke:#0000ff;stroke-dasharray:3.7,1.6;stroke-dashoffset:0;"/>
   </g>
   <g id="patch_3">
    <path d="M 64.61375 279 
L 64.61375 7.2 
" style="fill:none;stroke:#000000;stroke-linecap:square;stroke-linejoin:miter;"/>
   </g>
   <g id="patch_4">
    <path d="M 64.61375 279 
L 388.61375 279 
" style="fill:none;stroke:#000000;stroke-linecap:square;stroke-linejoin:miter;"/>
   </g>
  </g>
  <g id="axes_2">
   <g id="patch_5">
    <path d="M 404.81375 279 
L 728.81375 279 
L 728.81375 7.2 
L 404.81375 7.2 
z
" style="fill:none;"/>
   </g>
   <g id="matplotlib.axis_3">
    <g id="xtick_5">
     <g id="line2d_11">
      <g>
       <use style="stroke:#000000;stroke-width:0.8;" x="419.541023" xlink:href="#m4a2cd72aed" y="279"/>
      </g>
     </g>
     <g id="text_10">
      <!-- 1 -->
      <g transform="translate(410.633523 308.775625)scale(0.28 -0.28)">
       <use xlink:href="#DejaVuSans-49"/>
      </g>
     </g>
    </g>
    <g id="xtick_6">
     <g id="line2d_12">
      <g>
       <use style="stroke:#000000;stroke-width:0.8;" x="517.722841" xlink:href="#m4a2cd72aed" y="279"/>
      </g>
     </g>
     <g id="text_11">
      <!-- 2 -->
      <g transform="translate(508.815341 308.775625)scale(0.28 -0.28)">
       <use xlink:href="#DejaVuSans-50"/>
      </g>
     </g>
    </g>
    <g id="xtick_7">
     <g id="line2d_13">
      <g>
       <use style="stroke:#000000;stroke-width:0.8;" x="615.904659" xlink:href="#m4a2cd72aed" y="279"/>
      </g>
     </g>
     <g id="text_12">
      <!-- 3 -->
      <g transform="translate(606.997159 308.775625)scale(0.28 -0.28)">
       <use xlink:href="#DejaVuSans-51"/>
      </g>
     </g>
    </g>
    <g id="xtick_8">
     <g id="line2d_14">
      <g>
       <use style="stroke:#000000;stroke-width:0.8;" x="714.086477" xlink:href="#m4a2cd72aed" y="279"/>
      </g>
     </g>
     <g id="text_13">
      <!-- 4 -->
      <g transform="translate(705.178977 308.775625)scale(0.28 -0.28)">
       <use xlink:href="#DejaVuSans-52"/>
      </g>
     </g>
    </g>
    <g id="text_14">
     <!-- -log10 p-value -->
     <g transform="translate(465.97875 339.874375)scale(0.28 -0.28)">
      <use xlink:href="#DejaVuSans-45"/>
      <use x="36.083984" xlink:href="#DejaVuSans-108"/>
      <use x="63.867188" xlink:href="#DejaVuSans-111"/>
      <use x="125.048828" xlink:href="#DejaVuSans-103"/>
      <use x="188.525391" xlink:href="#DejaVuSans-49"/>
      <use x="252.148438" xlink:href="#DejaVuSans-48"/>
      <use x="315.771484" xlink:href="#DejaVuSans-32"/>
      <use x="347.558594" xlink:href="#DejaVuSans-112"/>
      <use x="411.035156" xlink:href="#DejaVuSans-45"/>
      <use x="447.087891" xlink:href="#DejaVuSans-118"/>
      <use x="506.267578" xlink:href="#DejaVuSans-97"/>
      <use x="567.546875" xlink:href="#DejaVuSans-108"/>
      <use x="595.330078" xlink:href="#DejaVuSans-117"/>
      <use x="658.708984" xlink:href="#DejaVuSans-101"/>
     </g>
    </g>
   </g>
   <g id="matplotlib.axis_4">
    <g id="ytick_4"/>
    <g id="ytick_5"/>
    <g id="ytick_6"/>
   </g>
   <g id="line2d_15">
    <path clip-path="url(#p35e01177e3)" d="M 419.541023 224.70115 
L 420.522841 222.031717 
L 421.504659 220.305656 
L 426.41375 220.305656 
L 427.395568 222.459883 
L 430.341023 222.459883 
L 431.322841 223.569311 
L 432.304659 223.257477 
L 433.286477 223.257477 
L 434.268295 220.279901 
L 435.250114 220.279901 
L 436.231932 217.17562 
L 437.21375 218.311732 
L 438.195568 217.86036 
L 439.177386 216.212352 
L 443.104659 216.212352 
L 444.086477 214.527309 
L 445.068295 214.527309 
L 446.050114 212.80397 
L 447.031932 210.386705 
L 449.977386 210.386705 
L 450.959205 207.792567 
L 451.941023 208.981153 
L 453.904659 208.981153 
L 454.886477 210.199452 
L 455.868295 209.464845 
L 456.850114 210.736893 
L 457.831932 210.736893 
L 459.795568 213.382752 
L 461.759205 213.382752 
L 462.741023 211.317909 
L 463.722841 212.685042 
L 464.704659 210.553152 
L 466.668295 210.553152 
L 467.650114 211.948025 
L 468.631932 211.948025 
L 469.61375 213.382752 
L 470.595568 213.382752 
L 472.559205 208.888682 
L 473.541023 210.341988 
L 479.431932 210.341988 
L 480.41375 207.980789 
L 482.377386 207.980789 
L 483.359205 209.464845 
L 486.304659 209.464845 
L 487.286477 207.016153 
L 491.21375 207.016153 
L 492.195568 208.53201 
L 493.177386 205.989282 
L 494.159205 209.138353 
L 497.104659 209.138353 
L 498.086477 208.113842 
L 499.068295 205.340732 
L 501.031932 205.340732 
L 502.01375 207.016153 
L 504.959205 207.016153 
L 505.941023 208.752498 
L 506.922841 205.837153 
L 520.668295 205.837153 
L 521.650114 207.616775 
L 522.631932 207.616775 
L 524.595568 211.385388 
L 527.541023 211.385388 
L 528.522841 208.289473 
L 536.377386 208.289473 
L 537.359205 210.264418 
L 538.341023 207.016153 
L 539.322841 207.016153 
L 540.304659 211.168283 
L 543.250114 211.168283 
L 544.231932 213.382752 
L 546.195568 213.382752 
L 548.159205 218.120686 
L 549.141023 219.749351 
L 553.068295 219.749351 
L 555.031932 212.042415 
L 556.01375 212.042415 
L 556.995568 210.553152 
L 557.977386 213.382752 
L 562.886477 213.382752 
L 563.868295 216.378799 
L 564.850114 216.378799 
L 565.831932 219.556424 
L 567.795568 219.556424 
L 568.777386 214.974402 
L 571.722841 214.974402 
L 572.704659 210.096765 
L 606.086477 210.096765 
L 607.068295 213.382752 
L 609.031932 213.382752 
L 610.01375 208.113842 
L 617.868295 208.113842 
L 618.850114 202.468582 
L 640.450114 202.468582 
L 641.431932 205.837153 
L 674.81375 205.837153 
L 675.795568 199.670077 
L 696.41375 199.670077 
L 697.395568 189.02359 
L 714.086477 189.02359 
L 714.086477 189.02359 
" style="fill:none;stroke:#8b0000;stroke-linecap:square;stroke-width:2;"/>
   </g>
   <g id="line2d_16">
    <path clip-path="url(#p35e01177e3)" d="M 419.541023 212.375243 
L 420.522841 209.473245 
L 421.504659 204.908938 
L 426.41375 204.908938 
L 427.395568 201.715429 
L 430.341023 201.715429 
L 431.322841 200.070772 
L 432.304659 196.680765 
L 433.286477 196.680765 
L 434.268295 193.149507 
L 435.250114 193.149507 
L 436.231932 189.467983 
L 437.21375 196.073236 
L 438.195568 201.026928 
L 439.177386 199.191881 
L 443.104659 199.191881 
L 444.086477 197.315597 
L 445.068295 197.315597 
L 446.050114 195.396671 
L 447.031932 189.368984 
L 449.977386 189.368984 
L 450.959205 182.900247 
L 451.941023 180.63752 
L 453.904659 180.63752 
L 454.886477 178.318225 
L 455.868295 183.642275 
L 456.850114 181.27164 
L 457.831932 181.27164 
L 458.81375 189.246538 
L 459.795568 186.88741 
L 461.759205 186.88741 
L 464.704659 179.416838 
L 466.668295 179.416838 
L 467.650114 176.786355 
L 468.631932 176.786355 
L 469.61375 174.080716 
L 470.595568 174.080716 
L 473.541023 165.479204 
L 479.431932 165.479204 
L 480.41375 162.438266 
L 482.377386 162.438266 
L 483.359205 159.30376 
L 486.304659 159.30376 
L 487.286477 156.071301 
L 491.21375 156.071301 
L 493.177386 149.293565 
L 494.159205 155.247341 
L 497.104659 155.247341 
L 498.086477 147.973762 
L 499.068295 144.145563 
L 501.031932 144.145563 
L 502.01375 140.180642 
L 504.959205 140.180642 
L 506.922841 131.810253 
L 520.668295 131.810253 
L 521.650114 127.388161 
L 522.631932 127.388161 
L 524.595568 118.023731 
L 527.541023 118.023731 
L 528.522841 113.060583 
L 536.377386 113.060583 
L 537.359205 124.03775 
L 538.341023 118.993096 
L 539.322841 118.993096 
L 540.304659 125.44148 
L 543.250114 125.44148 
L 544.231932 120.09171 
L 546.195568 120.09171 
L 548.159205 108.64569 
L 549.141023 109.105575 
L 553.068295 109.105575 
L 555.031932 95.575282 
L 556.01375 95.575282 
L 556.995568 80.541624 
L 557.977386 72.380495 
L 562.886477 72.380495 
L 563.868295 63.7393 
L 564.850114 63.7393 
L 565.831932 78.544145 
L 567.795568 78.544145 
L 568.777386 69.555489 
L 571.722841 69.555489 
L 572.704659 59.98692 
L 606.086477 59.98692 
L 607.068295 49.780446 
L 609.031932 49.780446 
L 610.01375 38.870077 
L 617.868295 38.870077 
L 618.850114 27.180397 
L 640.450114 27.180397 
L 641.431932 43.921174 
L 674.81375 43.921174 
L 675.795568 31.52656 
L 696.41375 31.52656 
L 697.395568 22.267343 
L 714.086477 22.267343 
L 714.086477 22.267343 
" style="fill:none;stroke:#000080;stroke-linecap:square;stroke-width:2;"/>
   </g>
   <g id="line2d_17">
    <path clip-path="url(#p35e01177e3)" d="M 419.541023 263.615094 
L 714.086477 263.615094 
" style="fill:none;stroke:#0000ff;stroke-dasharray:3.7,1.6;stroke-dashoffset:0;"/>
   </g>
   <g id="patch_6">
    <path d="M 404.81375 279 
L 404.81375 7.2 
" style="fill:none;stroke:#000000;stroke-linecap:square;stroke-linejoin:miter;"/>
   </g>
   <g id="patch_7">
    <path d="M 404.81375 279 
L 728.81375 279 
" style="fill:none;stroke:#000000;stroke-linecap:square;stroke-linejoin:miter;"/>
   </g>
  </g>
  <g id="axes_3">
   <g id="patch_8">
    <path d="M 745.01375 279 
L 1069.01375 279 
L 1069.01375 7.2 
L 745.01375 7.2 
z
" style="fill:none;"/>
   </g>
   <g id="matplotlib.axis_5">
    <g id="xtick_9">
     <g id="line2d_18">
      <g>
       <use style="stroke:#000000;stroke-width:0.8;" x="759.741023" xlink:href="#m4a2cd72aed" y="279"/>
      </g>
     </g>
     <g id="text_15">
      <!-- 1 -->
      <g transform="translate(750.833523 308.775625)scale(0.28 -0.28)">
       <use xlink:href="#DejaVuSans-49"/>
      </g>
     </g>
    </g>
    <g id="xtick_10">
     <g id="line2d_19">
      <g>
       <use style="stroke:#000000;stroke-width:0.8;" x="857.922841" xlink:href="#m4a2cd72aed" y="279"/>
      </g>
     </g>
     <g id="text_16">
      <!-- 2 -->
      <g transform="translate(849.015341 308.775625)scale(0.28 -0.28)">
       <use xlink:href="#DejaVuSans-50"/>
      </g>
     </g>
    </g>
    <g id="xtick_11">
     <g id="line2d_20">
      <g>
       <use style="stroke:#000000;stroke-width:0.8;" x="956.104659" xlink:href="#m4a2cd72aed" y="279"/>
      </g>
     </g>
     <g id="text_17">
      <!-- 3 -->
      <g transform="translate(947.197159 308.775625)scale(0.28 -0.28)">
       <use xlink:href="#DejaVuSans-51"/>
      </g>
     </g>
    </g>
    <g id="xtick_12">
     <g id="line2d_21">
      <g>
       <use style="stroke:#000000;stroke-width:0.8;" x="1054.286477" xlink:href="#m4a2cd72aed" y="279"/>
      </g>
     </g>
     <g id="text_18">
      <!-- 4 -->
      <g transform="translate(1045.378977 308.775625)scale(0.28 -0.28)">
       <use xlink:href="#DejaVuSans-52"/>
      </g>
     </g>
    </g>
    <g id="text_19">
     <!-- -log10 p-value -->
     <g transform="translate(806.17875 339.874375)scale(0.28 -0.28)">
      <use xlink:href="#DejaVuSans-45"/>
      <use x="36.083984" xlink:href="#DejaVuSans-108"/>
      <use x="63.867188" xlink:href="#DejaVuSans-111"/>
      <use x="125.048828" xlink:href="#DejaVuSans-103"/>
      <use x="188.525391" xlink:href="#DejaVuSans-49"/>
      <use x="252.148438" xlink:href="#DejaVuSans-48"/>
      <use x="315.771484" xlink:href="#DejaVuSans-32"/>
      <use x="347.558594" xlink:href="#DejaVuSans-112"/>
      <use x="411.035156" xlink:href="#DejaVuSans-45"/>
      <use x="447.087891" xlink:href="#DejaVuSans-118"/>
      <use x="506.267578" xlink:href="#DejaVuSans-97"/>
      <use x="567.546875" xlink:href="#DejaVuSans-108"/>
      <use x="595.330078" xlink:href="#DejaVuSans-117"/>
      <use x="658.708984" xlink:href="#DejaVuSans-101"/>
     </g>
    </g>
   </g>
   <g id="matplotlib.axis_6">
    <g id="ytick_7"/>
    <g id="ytick_8"/>
    <g id="ytick_9"/>
   </g>
   <g id="line2d_22">
    <path clip-path="url(#pf83ddcddbb)" d="M 759.741023 261.657458 
L 767.595568 261.724522 
L 769.559205 261.794011 
L 777.41375 261.890665 
L 790.177386 262.126617 
L 793.122841 262.154558 
L 794.104659 261.465641 
L 799.995568 261.538333 
L 800.977386 260.867125 
L 801.959205 260.867125 
L 802.941023 260.135778 
L 818.650114 260.233877 
L 819.631932 259.460539 
L 839.268295 259.558589 
L 857.922841 259.699689 
L 877.559205 259.796337 
L 884.431932 259.813451 
L 895.231932 259.922921 
L 901.122841 259.962217 
L 902.104659 258.930966 
L 912.904659 259.019511 
L 918.795568 259.056685 
L 964.941023 259.138815 
L 969.850114 259.184333 
L 973.777386 259.184333 
L 974.759205 257.879494 
L 1054.286477 257.879494 
L 1054.286477 257.879494 
" style="fill:none;stroke:#8b0000;stroke-linecap:square;stroke-width:2;"/>
   </g>
   <g id="line2d_23">
    <path clip-path="url(#pf83ddcddbb)" d="M 759.741023 241.437567 
L 760.722841 241.437567 
L 761.704659 239.969996 
L 766.61375 239.969996 
L 767.595568 239.223184 
L 768.577386 241.385742 
L 772.504659 241.385742 
L 776.431932 238.304374 
L 777.41375 238.304374 
L 778.395568 237.510109 
L 780.359205 237.510109 
L 781.341023 236.705915 
L 783.304659 236.705915 
L 784.286477 237.408312 
L 785.268295 240.50006 
L 786.250114 240.50006 
L 789.195568 238.035726 
L 792.141023 238.035726 
L 794.104659 236.338435 
L 795.086477 237.939012 
L 798.031932 237.939012 
L 799.995568 236.20601 
L 800.977386 236.068106 
L 801.959205 236.068106 
L 802.941023 235.164543 
L 803.922841 235.164543 
L 804.904659 234.248343 
L 810.795568 234.248343 
L 811.777386 235.924374 
L 812.759205 235.000567 
L 813.741023 236.705915 
L 814.722841 236.705915 
L 815.704659 238.435799 
L 816.686477 238.435799 
L 817.668295 237.510109 
L 818.650114 237.510109 
L 819.631932 236.570904 
L 820.61375 236.570904 
L 821.595568 237.390969 
L 822.577386 236.429848 
L 823.559205 236.429848 
L 824.541023 235.454275 
L 829.450114 235.454275 
L 830.431932 237.266414 
L 831.41375 237.266414 
L 833.377386 235.28311 
L 836.322841 235.28311 
L 837.304659 234.268397 
L 839.268295 234.268397 
L 840.250114 233.237829 
L 842.21375 233.237829 
L 843.195568 232.191031 
L 844.177386 232.191031 
L 847.122841 228.949335 
L 848.104659 229.73184 
L 850.068295 229.73184 
L 851.050114 227.457685 
L 854.977386 227.457685 
L 855.959205 226.291942 
L 858.904659 226.291942 
L 859.886477 225.10644 
L 861.850114 225.10644 
L 862.831932 227.062461 
L 863.81375 227.859782 
L 868.722841 227.859782 
L 869.704659 226.646437 
L 874.61375 226.646437 
L 875.595568 225.411616 
L 877.559205 225.411616 
L 878.541023 224.154746 
L 888.359205 224.154746 
L 889.341023 225.74505 
L 890.322841 227.889845 
L 891.304659 227.889845 
L 892.286477 226.58521 
L 895.231932 226.58521 
L 896.21375 225.255725 
L 897.195568 225.255725 
L 898.177386 223.900674 
L 901.122841 223.900674 
L 902.104659 222.51931 
L 904.068295 222.51931 
L 905.050114 221.110861 
L 906.031932 221.110861 
L 907.01375 218.209455 
L 908.977386 218.209455 
L 909.959205 213.633012 
L 910.941023 215.897398 
L 911.922841 215.897398 
L 912.904659 214.315464 
L 913.886477 215.027269 
L 917.81375 215.027269 
L 918.795568 217.405261 
L 919.777386 217.405261 
L 920.759205 215.770362 
L 922.722841 215.770362 
L 923.704659 216.546852 
L 924.686477 219.050203 
L 925.668295 219.050203 
L 926.650114 217.359043 
L 946.286477 217.359043 
L 947.268295 215.628554 
L 964.941023 215.628554 
L 965.922841 212.043969 
L 967.886477 212.043969 
L 968.868295 210.186894 
L 973.777386 210.186894 
L 974.759205 210.902212 
L 977.704659 210.902212 
L 978.686477 213.58534 
L 985.559205 213.58534 
L 986.541023 211.653748 
L 989.486477 211.653748 
L 990.468295 214.41531 
L 994.395568 214.41531 
L 995.377386 217.2486 
L 1000.286477 217.2486 
L 1001.268295 218.209455 
L 1007.159205 218.209455 
L 1008.141023 216.209838 
L 1015.01375 216.209838 
L 1015.995568 212.043969 
L 1023.850114 212.043969 
L 1024.831932 208.417212 
L 1036.61375 208.417212 
L 1037.595568 215.897398 
L 1054.286477 215.897398 
L 1054.286477 215.897398 
" style="fill:none;stroke:#000080;stroke-linecap:square;stroke-width:2;"/>
   </g>
   <g id="line2d_24">
    <path clip-path="url(#pf83ddcddbb)" d="M 759.741023 263.615094 
L 1054.286477 263.615094 
" style="fill:none;stroke:#0000ff;stroke-dasharray:3.7,1.6;stroke-dashoffset:0;"/>
   </g>
   <g id="patch_9">
    <path d="M 745.01375 279 
L 745.01375 7.2 
" style="fill:none;stroke:#000000;stroke-linecap:square;stroke-linejoin:miter;"/>
   </g>
   <g id="patch_10">
    <path d="M 745.01375 279 
L 1069.01375 279 
" style="fill:none;stroke:#000000;stroke-linecap:square;stroke-linejoin:miter;"/>
   </g>
  </g>
 </g>
 <defs>
  <clipPath id="pe64c60f963">
   <rect height="271.8" width="324" x="64.61375" y="7.2"/>
  </clipPath>
  <clipPath id="p35e01177e3">
   <rect height="271.8" width="324" x="404.81375" y="7.2"/>
  </clipPath>
  <clipPath id="pf83ddcddbb">
   <rect height="271.8" width="324" x="745.01375" y="7.2"/>
  </clipPath>
 </defs>
</svg>
