<?xml version="1.0" encoding="utf-8" standalone="no"?>
<!DOCTYPE svg PUBLIC "-//W3C//DTD SVG 1.1//EN"
  "http://www.w3.org/Graphics/SVG/1.1/DTD/svg11.dtd">
<!-- Created with matplotlib (https://matplotlib.org/) -->
<svg height="363.535312pt" version="1.1" viewBox="0 0 1102.9275 363.535312" width="1102.9275pt" xmlns="http://www.w3.org/2000/svg" xmlns:xlink="http://www.w3.org/1999/xlink">
 <defs>
  <style type="text/css">
*{stroke-linecap:butt;stroke-linejoin:round;}
  </style>
 </defs>
 <g id="figure_1">
  <g id="patch_1">
   <path d="M 0 363.535312 
L 1102.9275 363.535312 
L 1102.9275 -0 
L 0 -0 
z
" style="fill:none;"/>
  </g>
  <g id="axes_1">
   <g id="patch_2">
    <path d="M 91.3275 289.637812 
L 415.3275 289.637812 
L 415.3275 17.837813 
L 91.3275 17.837813 
z
" style="fill:none;"/>
   </g>
   <g id="matplotlib.axis_1">
    <g id="xtick_1">
     <g id="line2d_1">
      <defs>
       <path d="M 0 0 
L 0 5 
" id="m8ba8935943" style="stroke:#000000;stroke-width:0.8;"/>
      </defs>
      <g>
       <use style="stroke:#000000;stroke-width:0.8;" x="106.054773" xlink:href="#m8ba8935943" y="289.637812"/>
      </g>
     </g>
     <g id="text_1">
      <!-- 1 -->
      <defs>
       <path d="M 12.40625 8.296875 
L 28.515625 8.296875 
L 28.515625 63.921875 
L 10.984375 60.40625 
L 10.984375 69.390625 
L 28.421875 72.90625 
L 38.28125 72.90625 
L 38.28125 8.296875 
L 54.390625 8.296875 
L 54.390625 0 
L 12.40625 0 
z
" id="DejaVuSans-49"/>
      </defs>
      <g transform="translate(97.147273 319.413437)scale(0.28 -0.28)">
       <use xlink:href="#DejaVuSans-49"/>
      </g>
     </g>
    </g>
    <g id="xtick_2">
     <g id="line2d_2">
      <g>
       <use style="stroke:#000000;stroke-width:0.8;" x="204.236591" xlink:href="#m8ba8935943" y="289.637812"/>
      </g>
     </g>
     <g id="text_2">
      <!-- 2 -->
      <defs>
       <path d="M 19.1875 8.296875 
L 53.609375 8.296875 
L 53.609375 0 
L 7.328125 0 
L 7.328125 8.296875 
Q 12.9375 14.109375 22.625 23.890625 
Q 32.328125 33.6875 34.8125 36.53125 
Q 39.546875 41.84375 41.421875 45.53125 
Q 43.3125 49.21875 43.3125 52.78125 
Q 43.3125 58.59375 39.234375 62.25 
Q 35.15625 65.921875 28.609375 65.921875 
Q 23.96875 65.921875 18.8125 64.3125 
Q 13.671875 62.703125 7.8125 59.421875 
L 7.8125 69.390625 
Q 13.765625 71.78125 18.9375 73 
Q 24.125 74.21875 28.421875 74.21875 
Q 39.75 74.21875 46.484375 68.546875 
Q 53.21875 62.890625 53.21875 53.421875 
Q 53.21875 48.921875 51.53125 44.890625 
Q 49.859375 40.875 45.40625 35.40625 
Q 44.1875 33.984375 37.640625 27.21875 
Q 31.109375 20.453125 19.1875 8.296875 
z
" id="DejaVuSans-50"/>
      </defs>
      <g transform="translate(195.329091 319.413437)scale(0.28 -0.28)">
       <use xlink:href="#DejaVuSans-50"/>
      </g>
     </g>
    </g>
    <g id="xtick_3">
     <g id="line2d_3">
      <g>
       <use style="stroke:#000000;stroke-width:0.8;" x="302.418409" xlink:href="#m8ba8935943" y="289.637812"/>
      </g>
     </g>
     <g id="text_3">
      <!-- 3 -->
      <defs>
       <path d="M 40.578125 39.3125 
Q 47.65625 37.796875 51.625 33 
Q 55.609375 28.21875 55.609375 21.1875 
Q 55.609375 10.40625 48.1875 4.484375 
Q 40.765625 -1.421875 27.09375 -1.421875 
Q 22.515625 -1.421875 17.65625 -0.515625 
Q 12.796875 0.390625 7.625 2.203125 
L 7.625 11.71875 
Q 11.71875 9.328125 16.59375 8.109375 
Q 21.484375 6.890625 26.8125 6.890625 
Q 36.078125 6.890625 40.9375 10.546875 
Q 45.796875 14.203125 45.796875 21.1875 
Q 45.796875 27.640625 41.28125 31.265625 
Q 36.765625 34.90625 28.71875 34.90625 
L 20.21875 34.90625 
L 20.21875 43.015625 
L 29.109375 43.015625 
Q 36.375 43.015625 40.234375 45.921875 
Q 44.09375 48.828125 44.09375 54.296875 
Q 44.09375 59.90625 40.109375 62.90625 
Q 36.140625 65.921875 28.71875 65.921875 
Q 24.65625 65.921875 20.015625 65.03125 
Q 15.375 64.15625 9.8125 62.3125 
L 9.8125 71.09375 
Q 15.4375 72.65625 20.34375 73.4375 
Q 25.25 74.21875 29.59375 74.21875 
Q 40.828125 74.21875 47.359375 69.109375 
Q 53.90625 64.015625 53.90625 55.328125 
Q 53.90625 49.265625 50.4375 45.09375 
Q 46.96875 40.921875 40.578125 39.3125 
z
" id="DejaVuSans-51"/>
      </defs>
      <g transform="translate(293.510909 319.413437)scale(0.28 -0.28)">
       <use xlink:href="#DejaVuSans-51"/>
      </g>
     </g>
    </g>
    <g id="xtick_4">
     <g id="line2d_4">
      <g>
       <use style="stroke:#000000;stroke-width:0.8;" x="400.600227" xlink:href="#m8ba8935943" y="289.637812"/>
      </g>
     </g>
     <g id="text_4">
      <!-- 4 -->
      <defs>
       <path d="M 37.796875 64.3125 
L 12.890625 25.390625 
L 37.796875 25.390625 
z
M 35.203125 72.90625 
L 47.609375 72.90625 
L 47.609375 25.390625 
L 58.015625 25.390625 
L 58.015625 17.1875 
L 47.609375 17.1875 
L 47.609375 0 
L 37.796875 0 
L 37.796875 17.1875 
L 4.890625 17.1875 
L 4.890625 26.703125 
z
" id="DejaVuSans-52"/>
      </defs>
      <g transform="translate(391.692727 319.413437)scale(0.28 -0.28)">
       <use xlink:href="#DejaVuSans-52"/>
      </g>
     </g>
    </g>
    <g id="text_5">
     <!-- -log10 p-value -->
     <defs>
      <path d="M 4.890625 31.390625 
L 31.203125 31.390625 
L 31.203125 23.390625 
L 4.890625 23.390625 
z
" id="DejaVuSans-45"/>
      <path d="M 9.421875 75.984375 
L 18.40625 75.984375 
L 18.40625 0 
L 9.421875 0 
z
" id="DejaVuSans-108"/>
      <path d="M 30.609375 48.390625 
Q 23.390625 48.390625 19.1875 42.75 
Q 14.984375 37.109375 14.984375 27.296875 
Q 14.984375 17.484375 19.15625 11.84375 
Q 23.34375 6.203125 30.609375 6.203125 
Q 37.796875 6.203125 41.984375 11.859375 
Q 46.1875 17.53125 46.1875 27.296875 
Q 46.1875 37.015625 41.984375 42.703125 
Q 37.796875 48.390625 30.609375 48.390625 
z
M 30.609375 56 
Q 42.328125 56 49.015625 48.375 
Q 55.71875 40.765625 55.71875 27.296875 
Q 55.71875 13.875 49.015625 6.21875 
Q 42.328125 -1.421875 30.609375 -1.421875 
Q 18.84375 -1.421875 12.171875 6.21875 
Q 5.515625 13.875 5.515625 27.296875 
Q 5.515625 40.765625 12.171875 48.375 
Q 18.84375 56 30.609375 56 
z
" id="DejaVuSans-111"/>
      <path d="M 45.40625 27.984375 
Q 45.40625 37.75 41.375 43.109375 
Q 37.359375 48.484375 30.078125 48.484375 
Q 22.859375 48.484375 18.828125 43.109375 
Q 14.796875 37.75 14.796875 27.984375 
Q 14.796875 18.265625 18.828125 12.890625 
Q 22.859375 7.515625 30.078125 7.515625 
Q 37.359375 7.515625 41.375 12.890625 
Q 45.40625 18.265625 45.40625 27.984375 
z
M 54.390625 6.78125 
Q 54.390625 -7.171875 48.1875 -13.984375 
Q 42 -20.796875 29.203125 -20.796875 
Q 24.46875 -20.796875 20.265625 -20.09375 
Q 16.0625 -19.390625 12.109375 -17.921875 
L 12.109375 -9.1875 
Q 16.0625 -11.328125 19.921875 -12.34375 
Q 23.78125 -13.375 27.78125 -13.375 
Q 36.625 -13.375 41.015625 -8.765625 
Q 45.40625 -4.15625 45.40625 5.171875 
L 45.40625 9.625 
Q 42.625 4.78125 38.28125 2.390625 
Q 33.9375 0 27.875 0 
Q 17.828125 0 11.671875 7.65625 
Q 5.515625 15.328125 5.515625 27.984375 
Q 5.515625 40.671875 11.671875 48.328125 
Q 17.828125 56 27.875 56 
Q 33.9375 56 38.28125 53.609375 
Q 42.625 51.21875 45.40625 46.390625 
L 45.40625 54.6875 
L 54.390625 54.6875 
z
" id="DejaVuSans-103"/>
      <path d="M 31.78125 66.40625 
Q 24.171875 66.40625 20.328125 58.90625 
Q 16.5 51.421875 16.5 36.375 
Q 16.5 21.390625 20.328125 13.890625 
Q 24.171875 6.390625 31.78125 6.390625 
Q 39.453125 6.390625 43.28125 13.890625 
Q 47.125 21.390625 47.125 36.375 
Q 47.125 51.421875 43.28125 58.90625 
Q 39.453125 66.40625 31.78125 66.40625 
z
M 31.78125 74.21875 
Q 44.046875 74.21875 50.515625 64.515625 
Q 56.984375 54.828125 56.984375 36.375 
Q 56.984375 17.96875 50.515625 8.265625 
Q 44.046875 -1.421875 31.78125 -1.421875 
Q 19.53125 -1.421875 13.0625 8.265625 
Q 6.59375 17.96875 6.59375 36.375 
Q 6.59375 54.828125 13.0625 64.515625 
Q 19.53125 74.21875 31.78125 74.21875 
z
" id="DejaVuSans-48"/>
      <path id="DejaVuSans-32"/>
      <path d="M 18.109375 8.203125 
L 18.109375 -20.796875 
L 9.078125 -20.796875 
L 9.078125 54.6875 
L 18.109375 54.6875 
L 18.109375 46.390625 
Q 20.953125 51.265625 25.265625 53.625 
Q 29.59375 56 35.59375 56 
Q 45.5625 56 51.78125 48.09375 
Q 58.015625 40.1875 58.015625 27.296875 
Q 58.015625 14.40625 51.78125 6.484375 
Q 45.5625 -1.421875 35.59375 -1.421875 
Q 29.59375 -1.421875 25.265625 0.953125 
Q 20.953125 3.328125 18.109375 8.203125 
z
M 48.6875 27.296875 
Q 48.6875 37.203125 44.609375 42.84375 
Q 40.53125 48.484375 33.40625 48.484375 
Q 26.265625 48.484375 22.1875 42.84375 
Q 18.109375 37.203125 18.109375 27.296875 
Q 18.109375 17.390625 22.1875 11.75 
Q 26.265625 6.109375 33.40625 6.109375 
Q 40.53125 6.109375 44.609375 11.75 
Q 48.6875 17.390625 48.6875 27.296875 
z
" id="DejaVuSans-112"/>
      <path d="M 2.984375 54.6875 
L 12.5 54.6875 
L 29.59375 8.796875 
L 46.6875 54.6875 
L 56.203125 54.6875 
L 35.6875 0 
L 23.484375 0 
z
" id="DejaVuSans-118"/>
      <path d="M 34.28125 27.484375 
Q 23.390625 27.484375 19.1875 25 
Q 14.984375 22.515625 14.984375 16.5 
Q 14.984375 11.71875 18.140625 8.90625 
Q 21.296875 6.109375 26.703125 6.109375 
Q 34.1875 6.109375 38.703125 11.40625 
Q 43.21875 16.703125 43.21875 25.484375 
L 43.21875 27.484375 
z
M 52.203125 31.203125 
L 52.203125 0 
L 43.21875 0 
L 43.21875 8.296875 
Q 40.140625 3.328125 35.546875 0.953125 
Q 30.953125 -1.421875 24.3125 -1.421875 
Q 15.921875 -1.421875 10.953125 3.296875 
Q 6 8.015625 6 15.921875 
Q 6 25.140625 12.171875 29.828125 
Q 18.359375 34.515625 30.609375 34.515625 
L 43.21875 34.515625 
L 43.21875 35.40625 
Q 43.21875 41.609375 39.140625 45 
Q 35.0625 48.390625 27.6875 48.390625 
Q 23 48.390625 18.546875 47.265625 
Q 14.109375 46.140625 10.015625 43.890625 
L 10.015625 52.203125 
Q 14.9375 54.109375 19.578125 55.046875 
Q 24.21875 56 28.609375 56 
Q 40.484375 56 46.34375 49.84375 
Q 52.203125 43.703125 52.203125 31.203125 
z
" id="DejaVuSans-97"/>
      <path d="M 8.5 21.578125 
L 8.5 54.6875 
L 17.484375 54.6875 
L 17.484375 21.921875 
Q 17.484375 14.15625 20.5 10.265625 
Q 23.53125 6.390625 29.59375 6.390625 
Q 36.859375 6.390625 41.078125 11.03125 
Q 45.3125 15.671875 45.3125 23.6875 
L 45.3125 54.6875 
L 54.296875 54.6875 
L 54.296875 0 
L 45.3125 0 
L 45.3125 8.40625 
Q 42.046875 3.421875 37.71875 1 
Q 33.40625 -1.421875 27.6875 -1.421875 
Q 18.265625 -1.421875 13.375 4.4375 
Q 8.5 10.296875 8.5 21.578125 
z
M 31.109375 56 
z
" id="DejaVuSans-117"/>
      <path d="M 56.203125 29.59375 
L 56.203125 25.203125 
L 14.890625 25.203125 
Q 15.484375 15.921875 20.484375 11.0625 
Q 25.484375 6.203125 34.421875 6.203125 
Q 39.59375 6.203125 44.453125 7.46875 
Q 49.3125 8.734375 54.109375 11.28125 
L 54.109375 2.78125 
Q 49.265625 0.734375 44.1875 -0.34375 
Q 39.109375 -1.421875 33.890625 -1.421875 
Q 20.796875 -1.421875 13.15625 6.1875 
Q 5.515625 13.8125 5.515625 26.8125 
Q 5.515625 40.234375 12.765625 48.109375 
Q 20.015625 56 32.328125 56 
Q 43.359375 56 49.78125 48.890625 
Q 56.203125 41.796875 56.203125 29.59375 
z
M 47.21875 32.234375 
Q 47.125 39.59375 43.09375 43.984375 
Q 39.0625 48.390625 32.421875 48.390625 
Q 24.90625 48.390625 20.390625 44.140625 
Q 15.875 39.890625 15.1875 32.171875 
z
" id="DejaVuSans-101"/>
     </defs>
     <g transform="translate(152.4925 350.512187)scale(0.28 -0.28)">
      <use xlink:href="#DejaVuSans-45"/>
      <use x="36.083984" xlink:href="#DejaVuSans-108"/>
      <use x="63.867188" xlink:href="#DejaVuSans-111"/>
      <use x="125.048828" xlink:href="#DejaVuSans-103"/>
      <use x="188.525391" xlink:href="#DejaVuSans-49"/>
      <use x="252.148438" xlink:href="#DejaVuSans-48"/>
      <use x="315.771484" xlink:href="#DejaVuSans-32"/>
      <use x="347.558594" xlink:href="#DejaVuSans-112"/>
      <use x="411.035156" xlink:href="#DejaVuSans-45"/>
      <use x="447.087891" xlink:href="#DejaVuSans-118"/>
      <use x="506.267578" xlink:href="#DejaVuSans-97"/>
      <use x="567.546875" xlink:href="#DejaVuSans-108"/>
      <use x="595.330078" xlink:href="#DejaVuSans-117"/>
      <use x="658.708984" xlink:href="#DejaVuSans-101"/>
     </g>
    </g>
   </g>
   <g id="matplotlib.axis_2">
    <g id="ytick_1">
     <g id="line2d_5">
      <defs>
       <path d="M 0 0 
L -5 0 
" id="m623efd2772" style="stroke:#000000;stroke-width:0.8;"/>
      </defs>
      <g>
       <use style="stroke:#000000;stroke-width:0.8;" x="91.3275" xlink:href="#m623efd2772" y="289.637812"/>
      </g>
     </g>
     <g id="text_6">
      <!-- 0.0 -->
      <defs>
       <path d="M 10.6875 12.40625 
L 21 12.40625 
L 21 0 
L 10.6875 0 
z
" id="DejaVuSans-46"/>
      </defs>
      <g transform="translate(38.29875 300.275625)scale(0.28 -0.28)">
       <use xlink:href="#DejaVuSans-48"/>
       <use x="63.623047" xlink:href="#DejaVuSans-46"/>
       <use x="95.410156" xlink:href="#DejaVuSans-48"/>
      </g>
     </g>
    </g>
    <g id="ytick_2">
     <g id="line2d_6">
      <g>
       <use style="stroke:#000000;stroke-width:0.8;" x="91.3275" xlink:href="#m623efd2772" y="221.687813"/>
      </g>
     </g>
     <g id="text_7">
      <!-- 0.2 -->
      <g transform="translate(38.29875 232.325625)scale(0.28 -0.28)">
       <use xlink:href="#DejaVuSans-48"/>
       <use x="63.623047" xlink:href="#DejaVuSans-46"/>
       <use x="95.410156" xlink:href="#DejaVuSans-50"/>
      </g>
     </g>
    </g>
    <g id="ytick_3">
     <g id="line2d_7">
      <g>
       <use style="stroke:#000000;stroke-width:0.8;" x="91.3275" xlink:href="#m623efd2772" y="153.737813"/>
      </g>
     </g>
     <g id="text_8">
      <!-- 0.4 -->
      <g transform="translate(38.29875 164.375625)scale(0.28 -0.28)">
       <use xlink:href="#DejaVuSans-48"/>
       <use x="63.623047" xlink:href="#DejaVuSans-46"/>
       <use x="95.410156" xlink:href="#DejaVuSans-52"/>
      </g>
     </g>
    </g>
    <g id="ytick_4">
     <g id="line2d_8">
      <g>
       <use style="stroke:#000000;stroke-width:0.8;" x="91.3275" xlink:href="#m623efd2772" y="85.787813"/>
      </g>
     </g>
     <g id="text_9">
      <!-- 0.6 -->
      <defs>
       <path d="M 33.015625 40.375 
Q 26.375 40.375 22.484375 35.828125 
Q 18.609375 31.296875 18.609375 23.390625 
Q 18.609375 15.53125 22.484375 10.953125 
Q 26.375 6.390625 33.015625 6.390625 
Q 39.65625 6.390625 43.53125 10.953125 
Q 47.40625 15.53125 47.40625 23.390625 
Q 47.40625 31.296875 43.53125 35.828125 
Q 39.65625 40.375 33.015625 40.375 
z
M 52.59375 71.296875 
L 52.59375 62.3125 
Q 48.875 64.0625 45.09375 64.984375 
Q 41.3125 65.921875 37.59375 65.921875 
Q 27.828125 65.921875 22.671875 59.328125 
Q 17.53125 52.734375 16.796875 39.40625 
Q 19.671875 43.65625 24.015625 45.921875 
Q 28.375 48.1875 33.59375 48.1875 
Q 44.578125 48.1875 50.953125 41.515625 
Q 57.328125 34.859375 57.328125 23.390625 
Q 57.328125 12.15625 50.6875 5.359375 
Q 44.046875 -1.421875 33.015625 -1.421875 
Q 20.359375 -1.421875 13.671875 8.265625 
Q 6.984375 17.96875 6.984375 36.375 
Q 6.984375 53.65625 15.1875 63.9375 
Q 23.390625 74.21875 37.203125 74.21875 
Q 40.921875 74.21875 44.703125 73.484375 
Q 48.484375 72.75 52.59375 71.296875 
z
" id="DejaVuSans-54"/>
      </defs>
      <g transform="translate(38.29875 96.425625)scale(0.28 -0.28)">
       <use xlink:href="#DejaVuSans-48"/>
       <use x="63.623047" xlink:href="#DejaVuSans-46"/>
       <use x="95.410156" xlink:href="#DejaVuSans-54"/>
      </g>
     </g>
    </g>
    <g id="ytick_5">
     <g id="line2d_9">
      <g>
       <use style="stroke:#000000;stroke-width:0.8;" x="91.3275" xlink:href="#m623efd2772" y="17.837813"/>
      </g>
     </g>
     <g id="text_10">
      <!-- 0.8 -->
      <defs>
       <path d="M 31.78125 34.625 
Q 24.75 34.625 20.71875 30.859375 
Q 16.703125 27.09375 16.703125 20.515625 
Q 16.703125 13.921875 20.71875 10.15625 
Q 24.75 6.390625 31.78125 6.390625 
Q 38.8125 6.390625 42.859375 10.171875 
Q 46.921875 13.96875 46.921875 20.515625 
Q 46.921875 27.09375 42.890625 30.859375 
Q 38.875 34.625 31.78125 34.625 
z
M 21.921875 38.8125 
Q 15.578125 40.375 12.03125 44.71875 
Q 8.5 49.078125 8.5 55.328125 
Q 8.5 64.0625 14.71875 69.140625 
Q 20.953125 74.21875 31.78125 74.21875 
Q 42.671875 74.21875 48.875 69.140625 
Q 55.078125 64.0625 55.078125 55.328125 
Q 55.078125 49.078125 51.53125 44.71875 
Q 48 40.375 41.703125 38.8125 
Q 48.828125 37.15625 52.796875 32.3125 
Q 56.78125 27.484375 56.78125 20.515625 
Q 56.78125 9.90625 50.3125 4.234375 
Q 43.84375 -1.421875 31.78125 -1.421875 
Q 19.734375 -1.421875 13.25 4.234375 
Q 6.78125 9.90625 6.78125 20.515625 
Q 6.78125 27.484375 10.78125 32.3125 
Q 14.796875 37.15625 21.921875 38.8125 
z
M 18.3125 54.390625 
Q 18.3125 48.734375 21.84375 45.5625 
Q 25.390625 42.390625 31.78125 42.390625 
Q 38.140625 42.390625 41.71875 45.5625 
Q 45.3125 48.734375 45.3125 54.390625 
Q 45.3125 60.0625 41.71875 63.234375 
Q 38.140625 66.40625 31.78125 66.40625 
Q 25.390625 66.40625 21.84375 63.234375 
Q 18.3125 60.0625 18.3125 54.390625 
z
" id="DejaVuSans-56"/>
      </defs>
      <g transform="translate(38.29875 28.475625)scale(0.28 -0.28)">
       <use xlink:href="#DejaVuSans-48"/>
       <use x="63.623047" xlink:href="#DejaVuSans-46"/>
       <use x="95.410156" xlink:href="#DejaVuSans-56"/>
      </g>
     </g>
    </g>
    <g id="text_11">
     <!-- F1 score -->
     <defs>
      <path d="M 9.8125 72.90625 
L 51.703125 72.90625 
L 51.703125 64.59375 
L 19.671875 64.59375 
L 19.671875 43.109375 
L 48.578125 43.109375 
L 48.578125 34.8125 
L 19.671875 34.8125 
L 19.671875 0 
L 9.8125 0 
z
" id="DejaVuSans-70"/>
      <path d="M 44.28125 53.078125 
L 44.28125 44.578125 
Q 40.484375 46.53125 36.375 47.5 
Q 32.28125 48.484375 27.875 48.484375 
Q 21.1875 48.484375 17.84375 46.4375 
Q 14.5 44.390625 14.5 40.28125 
Q 14.5 37.15625 16.890625 35.375 
Q 19.28125 33.59375 26.515625 31.984375 
L 29.59375 31.296875 
Q 39.15625 29.25 43.1875 25.515625 
Q 47.21875 21.78125 47.21875 15.09375 
Q 47.21875 7.46875 41.1875 3.015625 
Q 35.15625 -1.421875 24.609375 -1.421875 
Q 20.21875 -1.421875 15.453125 -0.5625 
Q 10.6875 0.296875 5.421875 2 
L 5.421875 11.28125 
Q 10.40625 8.6875 15.234375 7.390625 
Q 20.0625 6.109375 24.8125 6.109375 
Q 31.15625 6.109375 34.5625 8.28125 
Q 37.984375 10.453125 37.984375 14.40625 
Q 37.984375 18.0625 35.515625 20.015625 
Q 33.0625 21.96875 24.703125 23.78125 
L 21.578125 24.515625 
Q 13.234375 26.265625 9.515625 29.90625 
Q 5.8125 33.546875 5.8125 39.890625 
Q 5.8125 47.609375 11.28125 51.796875 
Q 16.75 56 26.8125 56 
Q 31.78125 56 36.171875 55.265625 
Q 40.578125 54.546875 44.28125 53.078125 
z
" id="DejaVuSans-115"/>
      <path d="M 48.78125 52.59375 
L 48.78125 44.1875 
Q 44.96875 46.296875 41.140625 47.34375 
Q 37.3125 48.390625 33.40625 48.390625 
Q 24.65625 48.390625 19.8125 42.84375 
Q 14.984375 37.3125 14.984375 27.296875 
Q 14.984375 17.28125 19.8125 11.734375 
Q 24.65625 6.203125 33.40625 6.203125 
Q 37.3125 6.203125 41.140625 7.25 
Q 44.96875 8.296875 48.78125 10.40625 
L 48.78125 2.09375 
Q 45.015625 0.34375 40.984375 -0.53125 
Q 36.96875 -1.421875 32.421875 -1.421875 
Q 20.0625 -1.421875 12.78125 6.34375 
Q 5.515625 14.109375 5.515625 27.296875 
Q 5.515625 40.671875 12.859375 48.328125 
Q 20.21875 56 33.015625 56 
Q 37.15625 56 41.109375 55.140625 
Q 45.0625 54.296875 48.78125 52.59375 
z
" id="DejaVuSans-99"/>
      <path d="M 41.109375 46.296875 
Q 39.59375 47.171875 37.8125 47.578125 
Q 36.03125 48 33.890625 48 
Q 26.265625 48 22.1875 43.046875 
Q 18.109375 38.09375 18.109375 28.8125 
L 18.109375 0 
L 9.078125 0 
L 9.078125 54.6875 
L 18.109375 54.6875 
L 18.109375 46.1875 
Q 20.953125 51.171875 25.484375 53.578125 
Q 30.03125 56 36.53125 56 
Q 37.453125 56 38.578125 55.875 
Q 39.703125 55.765625 41.0625 55.515625 
z
" id="DejaVuSans-114"/>
     </defs>
     <g transform="translate(28.475625 213.069375)rotate(-90)scale(0.28 -0.28)">
      <use xlink:href="#DejaVuSans-70"/>
      <use x="57.519531" xlink:href="#DejaVuSans-49"/>
      <use x="121.142578" xlink:href="#DejaVuSans-32"/>
      <use x="152.929688" xlink:href="#DejaVuSans-115"/>
      <use x="205.029297" xlink:href="#DejaVuSans-99"/>
      <use x="260.009766" xlink:href="#DejaVuSans-111"/>
      <use x="321.191406" xlink:href="#DejaVuSans-114"/>
      <use x="362.273438" xlink:href="#DejaVuSans-101"/>
     </g>
    </g>
   </g>
   <g id="line2d_10">
    <path clip-path="url(#p9d02e79a85)" d="M 106.054773 230.662341 
L 108.509318 229.528197 
L 109.491136 229.528197 
L 110.472955 229.179399 
L 110.963864 229.179399 
L 112.436591 228.588984 
L 112.9275 228.588984 
L 113.909318 227.986925 
L 114.400227 227.865085 
L 114.891136 227.619955 
L 115.382045 227.619955 
L 115.872955 227.496659 
L 116.363864 227.496659 
L 116.854773 227.372872 
L 117.345682 227.372872 
L 117.836591 227.248591 
L 118.3275 226.998534 
L 118.818409 226.364533 
L 119.309318 226.364533 
L 120.782045 225.717567 
L 121.763864 225.455061 
L 122.254773 225.455061 
L 122.745682 225.322998 
L 123.236591 225.322998 
L 123.7275 225.057234 
L 124.709318 224.789265 
L 125.200227 224.789265 
L 125.691136 224.383115 
L 126.182045 225.534039 
L 128.145682 225.534039 
L 128.636591 225.399367 
L 130.109318 225.399367 
L 130.600227 226.561863 
L 131.091136 226.42851 
L 131.582045 227.470791 
L 132.072955 227.470791 
L 132.563864 227.20512 
L 134.036591 227.20512 
L 134.5275 227.071431 
L 135.018409 227.071431 
L 135.509318 226.937169 
L 136.000227 228.131347 
L 136.491136 228.131347 
L 136.982045 227.998504 
L 137.472955 227.731088 
L 137.963864 227.731088 
L 138.454773 227.596508 
L 139.9275 227.596508 
L 140.418409 227.325585 
L 140.909318 227.325585 
L 142.382045 226.914736 
L 142.872955 226.637812 
L 143.363864 226.498432 
L 143.854773 226.498432 
L 144.345682 227.727812 
L 145.3275 227.727812 
L 145.818409 227.589928 
L 146.309318 227.589928 
L 146.800227 227.312309 
L 147.782045 227.312309 
L 148.272955 227.172566 
L 148.763864 227.172566 
L 149.254773 228.283411 
L 151.709318 227.583018 
L 152.200227 227.583018 
L 152.691136 227.298363 
L 153.182045 227.155054 
L 154.163864 227.155054 
L 154.654773 227.011084 
L 155.636591 226.42851 
L 156.1275 226.281169 
L 156.618409 226.281169 
L 157.109318 226.13314 
L 157.600227 226.13314 
L 158.091136 225.684871 
L 158.582045 225.684871 
L 159.563864 225.382493 
L 161.5275 225.382493 
L 162.018409 225.23023 
L 162.509318 225.23023 
L 163.491136 224.923527 
L 163.982045 226.239487 
L 164.472955 226.239487 
L 164.963864 225.934687 
L 165.454773 225.934687 
L 165.945682 225.781186 
L 166.436591 225.471953 
L 166.9275 225.471953 
L 167.418409 226.812995 
L 167.909318 226.659764 
L 168.400227 226.659764 
L 169.382045 226.03929 
L 169.872955 225.882257 
L 170.854773 225.882257 
L 171.836591 225.565852 
L 172.3275 225.565852 
L 173.800227 225.085312 
L 174.291136 226.468215 
L 174.782045 226.309097 
L 176.745682 226.309097 
L 177.236591 226.149176 
L 177.7275 227.551518 
L 178.218409 227.551518 
L 179.200227 230.550856 
L 179.691136 230.550856 
L 180.182045 230.247067 
L 181.163864 229.940138 
L 183.618409 229.940138 
L 184.109318 229.785481 
L 185.091136 229.785481 
L 186.563864 229.316664 
L 187.054773 229.316664 
L 187.545682 229.158755 
L 188.036591 229.158755 
L 188.5275 229.000017 
L 189.018409 229.000017 
L 189.509318 230.628602 
L 190.000227 230.628602 
L 191.963864 230.000844 
L 192.454773 229.68193 
L 192.945682 229.68193 
L 193.9275 229.359587 
L 194.418409 229.359587 
L 194.909318 229.197112 
L 195.400227 229.197112 
L 195.891136 228.86952 
L 196.382045 230.550856 
L 196.872955 230.550856 
L 197.854773 230.227976 
L 198.345682 229.901549 
L 198.836591 229.736986 
L 200.800227 229.736986 
L 201.782045 229.405126 
L 203.745682 229.405126 
L 204.7275 229.069567 
L 205.709318 229.069567 
L 206.200227 228.900382 
L 206.691136 228.559161 
L 208.163864 228.040079 
L 208.654773 229.795483 
L 210.1275 229.795483 
L 210.618409 229.624992 
L 211.109318 229.624992 
L 211.600227 229.453527 
L 212.582045 229.453527 
L 213.072955 229.281079 
L 213.563864 229.281079 
L 214.054773 229.10764 
L 214.545682 229.10764 
L 215.036591 230.721628 
L 220.436591 230.721628 
L 220.9275 230.550856 
L 224.854773 230.550856 
L 225.345682 230.206326 
L 227.309318 230.206326 
L 227.800227 230.032549 
L 228.782045 229.327162 
L 231.236591 229.327162 
L 231.7275 229.148198 
L 232.218409 228.787066 
L 233.691136 228.787066 
L 234.182045 228.604878 
L 234.672955 228.604878 
L 235.163864 228.23721 
L 235.654773 228.23721 
L 236.145682 228.05171 
L 237.1275 228.05171 
L 237.618409 227.865085 
L 238.109318 227.865085 
L 238.600227 227.677326 
L 240.563864 227.677326 
L 241.545682 227.298363 
L 242.036591 226.914736 
L 243.018409 226.914736 
L 244.491136 226.330359 
L 245.472955 226.330359 
L 246.454773 225.934687 
L 247.9275 225.934687 
L 248.418409 225.734991 
L 249.400227 225.734991 
L 249.891136 225.331819 
L 252.345682 225.331819 
L 252.836591 224.923527 
L 253.3275 224.923527 
L 254.309318 224.091189 
L 255.291136 224.091189 
L 255.782045 223.879748 
L 257.745682 223.879748 
L 258.236591 225.658916 
L 258.7275 225.240754 
L 260.691136 225.240754 
L 261.182045 225.029616 
L 261.672955 225.029616 
L 262.654773 224.603159 
L 263.145682 224.603159 
L 263.636591 224.387812 
L 264.618409 224.387812 
L 265.109318 224.171035 
L 265.600227 224.171035 
L 266.091136 223.73313 
L 266.582045 223.73313 
L 267.072955 223.511974 
L 268.545682 223.511974 
L 269.036591 223.065177 
L 270.509318 223.065177 
L 271.000227 222.839507 
L 274.9275 222.839507 
L 275.418409 222.612302 
L 275.909318 222.612302 
L 276.400227 224.480278 
L 276.891136 224.480278 
L 277.382045 224.256369 
L 280.818409 224.256369 
L 281.309318 224.030916 
L 282.291136 224.030916 
L 282.782045 223.803902 
L 283.272955 223.803902 
L 283.763864 225.712725 
L 284.745682 225.712725 
L 285.236591 225.264128 
L 286.218409 225.264128 
L 286.709318 226.988876 
L 287.691136 226.988876 
L 288.182045 228.96817 
L 289.163864 228.96817 
L 289.654773 228.531697 
L 291.1275 228.531697 
L 291.618409 227.639637 
L 299.963864 227.639637 
L 300.454773 227.183768 
L 304.382045 227.183768 
L 304.872955 226.953311 
L 306.836591 226.953311 
L 307.3275 226.721146 
L 309.291136 226.721146 
L 309.782045 226.014217 
L 311.745682 226.014217 
L 312.236591 225.775031 
L 314.200227 225.775031 
L 314.691136 225.291222 
L 317.145682 225.291222 
L 317.636591 224.551606 
L 320.582045 224.551606 
L 321.072955 223.794789 
L 324.018409 223.794789 
L 324.509318 225.684871 
L 327.454773 225.684871 
L 327.945682 224.665701 
L 331.872955 224.665701 
L 332.363864 223.879748 
L 336.291136 223.879748 
L 336.782045 223.613521 
L 341.200227 223.613521 
L 341.691136 221.687813 
L 347.091136 221.687813 
L 347.582045 220.242068 
L 353.472955 220.242068 
L 353.963864 220.485158 
L 361.3275 220.485158 
L 361.818409 218.920618 
L 370.654773 218.920618 
L 371.145682 217.617075 
L 382.9275 217.617075 
L 383.418409 220.368395 
L 400.600227 220.368395 
L 400.600227 220.368395 
" style="fill:none;stroke:#8b0000;stroke-linecap:square;stroke-width:2;"/>
   </g>
   <g id="line2d_11">
    <path clip-path="url(#p9d02e79a85)" d="M 106.054773 159.96224 
L 106.545682 159.565071 
L 107.036591 158.964736 
L 107.5275 158.964736 
L 108.018409 158.561424 
L 108.509318 159.005254 
L 109.491136 159.005254 
L 109.982045 158.598932 
L 110.472955 158.394822 
L 110.963864 158.394822 
L 111.454773 159.046406 
L 111.945682 158.842038 
L 112.436591 159.498095 
L 112.9275 159.498095 
L 113.418409 161.025825 
L 113.909318 160.618825 
L 114.400227 160.414358 
L 114.891136 161.083758 
L 115.382045 161.083758 
L 115.872955 160.879055 
L 116.363864 160.879055 
L 116.854773 160.673698 
L 117.345682 160.673698 
L 117.836591 160.467685 
L 118.3275 160.053678 
L 118.818409 159.006956 
L 119.309318 159.006956 
L 120.291136 158.157325 
L 121.763864 157.512812 
L 122.254773 157.512812 
L 122.745682 157.296569 
L 123.236591 157.296569 
L 123.7275 157.977714 
L 124.709318 157.543908 
L 125.200227 157.543908 
L 125.691136 160.262813 
L 126.182045 162.09047 
L 128.145682 162.09047 
L 128.636591 161.878245 
L 130.109318 161.878245 
L 130.600227 162.58606 
L 131.091136 162.373598 
L 131.582045 164.015964 
L 132.072955 164.015964 
L 132.563864 163.592281 
L 134.036591 163.592281 
L 134.5275 164.527171 
L 135.018409 164.527171 
L 135.509318 164.315477 
L 136.000227 166.197235 
L 136.491136 166.197235 
L 136.982045 165.987302 
L 137.472955 165.565287 
L 137.963864 165.565287 
L 138.454773 165.353197 
L 139.9275 165.353197 
L 140.418409 166.092358 
L 140.909318 166.092358 
L 142.382045 165.45333 
L 142.872955 165.023626 
L 143.363864 164.807657 
L 143.854773 164.807657 
L 144.345682 165.555204 
L 145.3275 165.555204 
L 145.818409 165.339032 
L 146.309318 165.339032 
L 146.800227 164.904421 
L 147.782045 164.904421 
L 148.272955 164.685974 
L 148.763864 164.685974 
L 149.254773 165.22232 
L 150.7275 164.561706 
L 151.218409 165.544727 
L 151.709318 165.324313 
L 152.200227 165.324313 
L 152.691136 164.881128 
L 153.182045 164.658348 
L 154.163864 164.658348 
L 154.654773 164.434771 
L 155.636591 165.981056 
L 156.1275 166.984383 
L 156.618409 166.984383 
L 157.109318 166.762586 
L 157.600227 166.762586 
L 158.091136 166.092358 
L 158.582045 166.092358 
L 159.563864 165.641462 
L 161.5275 165.641462 
L 162.018409 166.657008 
L 162.509318 166.657008 
L 163.491136 166.205702 
L 163.982045 167.002453 
L 164.472955 167.002453 
L 164.963864 166.549088 
L 165.454773 166.549088 
L 165.945682 166.321146 
L 166.436591 165.86272 
L 166.9275 165.86272 
L 167.418409 166.668596 
L 167.909318 166.438747 
L 168.400227 166.438747 
L 168.891136 167.251321 
L 169.382045 166.790355 
L 169.872955 166.558567 
L 170.854773 166.558567 
L 171.836591 166.092358 
L 172.3275 166.092358 
L 173.309318 165.622603 
L 174.291136 167.509705 
L 174.782045 167.275744 
L 176.745682 167.275744 
L 177.236591 167.040884 
L 177.7275 167.877697 
L 178.218409 167.877697 
L 178.709318 168.954415 
L 179.200227 168.48665 
L 179.691136 168.48665 
L 180.182045 168.015244 
L 181.163864 167.540156 
L 183.618409 167.540156 
L 184.109318 167.301218 
L 185.091136 167.301218 
L 186.563864 166.578757 
L 187.054773 166.578757 
L 187.545682 166.336037 
L 188.036591 166.336037 
L 188.5275 166.092358 
L 189.018409 166.092358 
L 189.509318 167.193258 
L 190.000227 167.193258 
L 191.963864 166.215657 
L 192.454773 165.720979 
L 192.945682 165.720979 
L 193.9275 165.22232 
L 194.418409 165.22232 
L 194.909318 164.971482 
L 195.400227 164.971482 
L 195.891136 164.46676 
L 196.382045 165.591159 
L 196.872955 165.591159 
L 197.854773 165.085878 
L 198.345682 164.576463 
L 198.836591 164.32019 
L 200.800227 164.32019 
L 201.782045 163.804479 
L 203.745682 163.804479 
L 204.7275 166.092358 
L 205.709318 166.092358 
L 206.200227 165.83657 
L 206.691136 166.734486 
L 207.182045 167.894063 
L 208.163864 167.384674 
L 208.654773 168.552907 
L 210.1275 168.552907 
L 210.618409 168.298527 
L 211.109318 168.298527 
L 211.600227 168.043076 
L 212.582045 168.043076 
L 213.072955 167.786547 
L 213.563864 167.786547 
L 214.054773 168.965508 
L 214.545682 168.965508 
L 215.036591 169.895774 
L 220.436591 169.895774 
L 220.9275 169.641004 
L 224.854773 169.641004 
L 225.345682 169.128197 
L 227.309318 169.128197 
L 227.800227 168.870147 
L 228.291136 168.350716 
L 228.782045 169.2944 
L 231.236591 169.2944 
L 232.218409 171.463899 
L 233.691136 171.463899 
L 234.182045 172.686832 
L 234.672955 172.686832 
L 235.163864 172.175012 
L 235.654773 172.175012 
L 236.145682 171.917418 
L 237.1275 171.917418 
L 237.618409 171.658692 
L 238.109318 171.658692 
L 238.600227 172.895522 
L 240.563864 172.895522 
L 241.545682 172.378963 
L 242.036591 173.367813 
L 243.018409 173.367813 
L 244.491136 172.587477 
L 245.472955 172.587477 
L 246.454773 172.061408 
L 247.9275 172.061408 
L 248.418409 171.796596 
L 249.400227 171.796596 
L 249.891136 171.263378 
L 252.345682 171.263378 
L 252.836591 170.725313 
L 253.3275 170.725313 
L 253.818409 173.285073 
L 254.309318 172.751345 
L 255.291136 172.751345 
L 255.782045 172.48264 
L 257.745682 172.48264 
L 258.7275 174.548485 
L 260.691136 174.548485 
L 261.182045 174.280836 
L 261.672955 174.280836 
L 262.654773 173.741784 
L 263.145682 173.741784 
L 263.636591 173.470365 
L 264.618409 173.470365 
L 265.109318 173.197672 
L 265.600227 173.197672 
L 266.091136 172.648426 
L 266.582045 172.648426 
L 267.072955 173.978238 
L 268.545682 173.978238 
L 269.036591 173.428786 
L 270.509318 173.428786 
L 271.000227 173.152098 
L 274.9275 173.152098 
L 275.418409 172.874089 
L 275.909318 172.874089 
L 276.400227 173.943568 
L 276.891136 173.943568 
L 277.382045 175.29887 
L 280.818409 175.29887 
L 281.309318 175.023355 
L 282.291136 175.023355 
L 282.782045 174.746508 
L 283.272955 174.746508 
L 283.763864 175.838055 
L 284.745682 175.838055 
L 285.236591 175.282934 
L 286.218409 175.282934 
L 286.709318 176.109557 
L 287.691136 176.109557 
L 288.182045 178.904479 
L 289.163864 178.904479 
L 289.654773 178.354934 
L 291.1275 178.354934 
L 291.618409 178.942324 
L 299.963864 178.942324 
L 300.454773 178.384664 
L 304.382045 178.384664 
L 304.872955 178.103722 
L 306.836591 178.103722 
L 307.3275 177.821357 
L 309.291136 177.821357 
L 309.782045 176.965619 
L 311.745682 176.965619 
L 312.236591 176.677454 
L 314.200227 176.677454 
L 314.691136 176.096681 
L 317.145682 176.096681 
L 317.636591 175.214237 
L 320.582045 175.214237 
L 321.072955 174.317969 
L 324.018409 174.317969 
L 324.509318 175.195707 
L 327.454773 175.195707 
L 327.945682 175.785419 
L 331.872955 175.785419 
L 332.363864 176.691432 
L 336.291136 176.691432 
L 336.782045 176.387812 
L 341.200227 176.387812 
L 341.691136 176.077539 
L 347.091136 176.077539 
L 347.582045 178.275312 
L 353.472955 178.275312 
L 353.963864 181.227556 
L 361.3275 181.227556 
L 361.818409 179.660934 
L 370.654773 179.660934 
L 371.145682 180.361497 
L 382.9275 180.361497 
L 383.418409 184.941438 
L 400.600227 184.941438 
L 400.600227 184.941438 
" style="fill:none;stroke:#000080;stroke-linecap:square;stroke-width:2;"/>
   </g>
   <g id="patch_3">
    <path d="M 91.3275 289.637812 
L 91.3275 17.837813 
" style="fill:none;stroke:#000000;stroke-linecap:square;stroke-linejoin:miter;"/>
   </g>
   <g id="patch_4">
    <path d="M 91.3275 289.637812 
L 415.3275 289.637812 
" style="fill:none;stroke:#000000;stroke-linecap:square;stroke-linejoin:miter;"/>
   </g>
  </g>
  <g id="axes_2">
   <g id="patch_5">
    <path d="M 431.5275 289.637812 
L 755.5275 289.637812 
L 755.5275 17.837813 
L 431.5275 17.837813 
z
" style="fill:none;"/>
   </g>
   <g id="matplotlib.axis_3">
    <g id="xtick_5">
     <g id="line2d_12">
      <g>
       <use style="stroke:#000000;stroke-width:0.8;" x="446.254773" xlink:href="#m8ba8935943" y="289.637812"/>
      </g>
     </g>
     <g id="text_12">
      <!-- 1 -->
      <g transform="translate(437.347273 319.413437)scale(0.28 -0.28)">
       <use xlink:href="#DejaVuSans-49"/>
      </g>
     </g>
    </g>
    <g id="xtick_6">
     <g id="line2d_13">
      <g>
       <use style="stroke:#000000;stroke-width:0.8;" x="544.436591" xlink:href="#m8ba8935943" y="289.637812"/>
      </g>
     </g>
     <g id="text_13">
      <!-- 2 -->
      <g transform="translate(535.529091 319.413437)scale(0.28 -0.28)">
       <use xlink:href="#DejaVuSans-50"/>
      </g>
     </g>
    </g>
    <g id="xtick_7">
     <g id="line2d_14">
      <g>
       <use style="stroke:#000000;stroke-width:0.8;" x="642.618409" xlink:href="#m8ba8935943" y="289.637812"/>
      </g>
     </g>
     <g id="text_14">
      <!-- 3 -->
      <g transform="translate(633.710909 319.413437)scale(0.28 -0.28)">
       <use xlink:href="#DejaVuSans-51"/>
      </g>
     </g>
    </g>
    <g id="xtick_8">
     <g id="line2d_15">
      <g>
       <use style="stroke:#000000;stroke-width:0.8;" x="740.800227" xlink:href="#m8ba8935943" y="289.637812"/>
      </g>
     </g>
     <g id="text_15">
      <!-- 4 -->
      <g transform="translate(731.892727 319.413437)scale(0.28 -0.28)">
       <use xlink:href="#DejaVuSans-52"/>
      </g>
     </g>
    </g>
    <g id="text_16">
     <!-- -log10 p-value -->
     <g transform="translate(492.6925 350.512187)scale(0.28 -0.28)">
      <use xlink:href="#DejaVuSans-45"/>
      <use x="36.083984" xlink:href="#DejaVuSans-108"/>
      <use x="63.867188" xlink:href="#DejaVuSans-111"/>
      <use x="125.048828" xlink:href="#DejaVuSans-103"/>
      <use x="188.525391" xlink:href="#DejaVuSans-49"/>
      <use x="252.148438" xlink:href="#DejaVuSans-48"/>
      <use x="315.771484" xlink:href="#DejaVuSans-32"/>
      <use x="347.558594" xlink:href="#DejaVuSans-112"/>
      <use x="411.035156" xlink:href="#DejaVuSans-45"/>
      <use x="447.087891" xlink:href="#DejaVuSans-118"/>
      <use x="506.267578" xlink:href="#DejaVuSans-97"/>
      <use x="567.546875" xlink:href="#DejaVuSans-108"/>
      <use x="595.330078" xlink:href="#DejaVuSans-117"/>
      <use x="658.708984" xlink:href="#DejaVuSans-101"/>
     </g>
    </g>
   </g>
   <g id="matplotlib.axis_4">
    <g id="ytick_6"/>
    <g id="ytick_7"/>
    <g id="ytick_8"/>
    <g id="ytick_9"/>
    <g id="ytick_10"/>
   </g>
   <g id="line2d_16">
    <path clip-path="url(#p223f2df06e)" d="M 446.254773 159.382221 
L 447.236591 158.544565 
L 447.7275 160.313619 
L 448.218409 159.473851 
L 453.1275 159.473851 
L 453.618409 163.064283 
L 457.054773 163.064283 
L 457.545682 164.877157 
L 458.036591 164.877157 
L 458.5275 166.701957 
L 459.018409 166.296228 
L 460.000227 166.296228 
L 460.982045 165.476683 
L 461.963864 165.476683 
L 462.945682 164.646174 
L 463.436591 164.646174 
L 464.418409 168.380237 
L 465.400227 167.558151 
L 469.818409 167.558151 
L 470.309318 167.142915 
L 472.272955 167.142915 
L 473.254773 166.303908 
L 473.745682 167.796433 
L 476.691136 167.796433 
L 477.182045 168.890426 
L 478.163864 168.890426 
L 478.654773 170.844106 
L 480.618409 170.844106 
L 481.109318 172.811497 
L 481.600227 172.811497 
L 482.091136 174.386929 
L 482.582045 174.386929 
L 483.072955 176.387813 
L 485.036591 176.387813 
L 485.5275 178.402937 
L 486.018409 178.402937 
L 486.509318 180.432455 
L 488.472955 180.432455 
L 488.963864 180.041038 
L 489.945682 180.041038 
L 490.436591 182.09105 
L 490.9275 182.09105 
L 491.418409 181.702794 
L 493.382045 181.702794 
L 493.872955 183.773682 
L 495.345682 183.773682 
L 495.836591 185.859631 
L 497.800227 185.859631 
L 498.782045 185.099351 
L 499.272955 185.099351 
L 499.763864 187.21318 
L 506.636591 187.21318 
L 507.1275 186.835229 
L 509.582045 186.835229 
L 510.072955 188.971146 
L 513.018409 188.971146 
L 513.509318 188.59692 
L 517.9275 188.59692 
L 518.418409 190.75535 
L 518.909318 190.75535 
L 519.400227 190.385004 
L 519.891136 190.385004 
L 520.382045 194.764228 
L 523.818409 194.764228 
L 524.309318 196.626406 
L 525.291136 196.626406 
L 525.782045 196.2714 
L 528.236591 196.2714 
L 528.7275 198.517123 
L 532.163864 198.517123 
L 532.654773 200.78012 
L 533.145682 200.78012 
L 533.636591 200.43704 
L 547.872955 200.43704 
L 548.363864 202.725022 
L 549.345682 202.725022 
L 549.836591 205.030809 
L 550.3275 205.030809 
L 550.818409 207.354609 
L 554.745682 207.354609 
L 555.236591 207.03193 
L 563.091136 207.03193 
L 563.582045 209.381907 
L 564.072955 209.381907 
L 564.563864 209.06469 
L 566.5275 209.06469 
L 567.018409 213.837016 
L 570.454773 213.837016 
L 570.945682 216.251813 
L 573.400227 216.251813 
L 573.891136 218.686005 
L 574.382045 218.686005 
L 574.872955 221.139829 
L 575.363864 221.139829 
L 575.854773 225.848017 
L 580.272955 225.848017 
L 580.763864 225.586583 
L 581.254773 225.586583 
L 581.745682 225.322998 
L 582.7275 225.322998 
L 583.218409 227.608767 
L 584.200227 227.608767 
L 584.691136 230.181563 
L 590.091136 230.181563 
L 590.582045 232.775888 
L 591.563864 232.775888 
L 592.054773 235.392014 
L 595.000227 235.392014 
L 595.491136 235.163129 
L 598.436591 235.163129 
L 598.9275 234.932304 
L 632.800227 234.932304 
L 633.291136 237.591004 
L 636.236591 237.591004 
L 636.7275 237.368582 
L 644.582045 237.368582 
L 645.072955 237.14425 
L 667.654773 237.14425 
L 668.145682 239.846864 
L 701.5275 239.846864 
L 702.018409 239.631319 
L 723.1275 239.631319 
L 723.618409 241.953602 
L 740.800227 241.953602 
L 740.800227 241.953602 
" style="fill:none;stroke:#8b0000;stroke-linecap:square;stroke-width:2;"/>
   </g>
   <g id="line2d_17">
    <path clip-path="url(#p223f2df06e)" d="M 446.254773 207.629192 
L 447.7275 206.190444 
L 448.218409 205.202901 
L 453.1275 205.202901 
L 453.618409 204.191705 
L 457.054773 204.191705 
L 457.545682 203.676969 
L 458.036591 203.676969 
L 459.018409 202.628666 
L 460.000227 202.628666 
L 460.982045 201.554479 
L 461.963864 201.554479 
L 462.945682 200.453438 
L 463.436591 200.453438 
L 464.418409 207.925787 
L 465.400227 206.878197 
L 469.818409 206.878197 
L 470.309318 206.344264 
L 472.272955 206.344264 
L 473.254773 205.25546 
L 473.745682 204.137812 
L 476.691136 204.137812 
L 477.182045 202.404704 
L 478.163864 202.404704 
L 478.654773 201.811282 
L 480.618409 201.811282 
L 481.109318 201.20973 
L 481.600227 201.20973 
L 482.091136 204.700313 
L 482.582045 204.700313 
L 483.072955 204.106344 
L 485.036591 204.106344 
L 485.5275 208.289221 
L 486.018409 208.289221 
L 486.509318 207.712281 
L 488.472955 207.712281 
L 488.963864 207.127098 
L 489.945682 207.127098 
L 490.436591 206.533496 
L 490.9275 206.533496 
L 491.418409 205.931291 
L 493.382045 205.931291 
L 493.872955 205.320294 
L 495.345682 205.320294 
L 495.836591 204.700312 
L 497.800227 204.700312 
L 498.782045 203.432589 
L 499.272955 203.432589 
L 499.763864 202.784429 
L 506.636591 202.784429 
L 507.1275 202.126449 
L 509.582045 202.126449 
L 510.072955 201.458423 
L 513.018409 201.458423 
L 513.509318 200.78012 
L 517.9275 200.78012 
L 518.418409 200.091301 
L 518.909318 200.091301 
L 519.400227 199.391719 
L 519.891136 199.391719 
L 520.382045 203.352098 
L 523.818409 203.352098 
L 524.309318 201.960393 
L 525.291136 201.960393 
L 525.782045 201.247569 
L 528.236591 201.247569 
L 528.7275 200.523058 
L 532.163864 200.523058 
L 532.654773 199.786573 
L 533.145682 199.786573 
L 533.636591 199.037813 
L 547.872955 199.037813 
L 548.363864 198.276468 
L 549.345682 198.276468 
L 549.836591 197.502219 
L 550.3275 197.502219 
L 550.818409 196.714736 
L 554.745682 196.714736 
L 555.236591 195.913675 
L 563.091136 195.913675 
L 563.582045 201.007378 
L 564.072955 201.007378 
L 564.563864 200.229918 
L 566.5275 200.229918 
L 567.018409 204.700312 
L 570.454773 204.700312 
L 570.945682 203.93511 
L 573.400227 203.93511 
L 573.891136 203.155994 
L 574.382045 203.155994 
L 574.872955 202.362583 
L 575.363864 202.362583 
L 575.854773 206.302907 
L 580.272955 206.302907 
L 580.763864 205.509241 
L 581.254773 205.509241 
L 581.745682 204.700312 
L 582.7275 204.700312 
L 583.218409 203.034871 
L 584.200227 203.034871 
L 584.691136 202.177416 
L 590.091136 202.177416 
L 590.582045 201.302813 
L 591.563864 201.302813 
L 592.054773 207.274176 
L 595.000227 207.274176 
L 595.491136 206.433731 
L 598.436591 206.433731 
L 598.9275 205.575957 
L 632.800227 205.575957 
L 633.291136 204.700312 
L 636.236591 204.700312 
L 636.7275 203.806234 
L 644.582045 203.806234 
L 645.072955 202.893132 
L 667.654773 202.893132 
L 668.145682 209.266845 
L 701.5275 209.266845 
L 702.018409 208.393247 
L 723.1275 208.393247 
L 723.618409 213.289498 
L 740.800227 213.289498 
L 740.800227 213.289498 
" style="fill:none;stroke:#000080;stroke-linecap:square;stroke-width:2;"/>
   </g>
   <g id="patch_6">
    <path d="M 431.5275 289.637812 
L 431.5275 17.837813 
" style="fill:none;stroke:#000000;stroke-linecap:square;stroke-linejoin:miter;"/>
   </g>
   <g id="patch_7">
    <path d="M 431.5275 289.637812 
L 755.5275 289.637812 
" style="fill:none;stroke:#000000;stroke-linecap:square;stroke-linejoin:miter;"/>
   </g>
  </g>
  <g id="axes_3">
   <g id="patch_8">
    <path d="M 771.7275 289.637812 
L 1095.7275 289.637812 
L 1095.7275 17.837813 
L 771.7275 17.837813 
z
" style="fill:none;"/>
   </g>
   <g id="matplotlib.axis_5">
    <g id="xtick_9">
     <g id="line2d_18">
      <g>
       <use style="stroke:#000000;stroke-width:0.8;" x="786.454773" xlink:href="#m8ba8935943" y="289.637812"/>
      </g>
     </g>
     <g id="text_17">
      <!-- 1 -->
      <g transform="translate(777.547273 319.413437)scale(0.28 -0.28)">
       <use xlink:href="#DejaVuSans-49"/>
      </g>
     </g>
    </g>
    <g id="xtick_10">
     <g id="line2d_19">
      <g>
       <use style="stroke:#000000;stroke-width:0.8;" x="884.636591" xlink:href="#m8ba8935943" y="289.637812"/>
      </g>
     </g>
     <g id="text_18">
      <!-- 2 -->
      <g transform="translate(875.729091 319.413437)scale(0.28 -0.28)">
       <use xlink:href="#DejaVuSans-50"/>
      </g>
     </g>
    </g>
    <g id="xtick_11">
     <g id="line2d_20">
      <g>
       <use style="stroke:#000000;stroke-width:0.8;" x="982.818409" xlink:href="#m8ba8935943" y="289.637812"/>
      </g>
     </g>
     <g id="text_19">
      <!-- 3 -->
      <g transform="translate(973.910909 319.413437)scale(0.28 -0.28)">
       <use xlink:href="#DejaVuSans-51"/>
      </g>
     </g>
    </g>
    <g id="xtick_12">
     <g id="line2d_21">
      <g>
       <use style="stroke:#000000;stroke-width:0.8;" x="1081.000227" xlink:href="#m8ba8935943" y="289.637812"/>
      </g>
     </g>
     <g id="text_20">
      <!-- 4 -->
      <g transform="translate(1072.092727 319.413437)scale(0.28 -0.28)">
       <use xlink:href="#DejaVuSans-52"/>
      </g>
     </g>
    </g>
    <g id="text_21">
     <!-- -log10 p-value -->
     <g transform="translate(832.8925 350.512187)scale(0.28 -0.28)">
      <use xlink:href="#DejaVuSans-45"/>
      <use x="36.083984" xlink:href="#DejaVuSans-108"/>
      <use x="63.867188" xlink:href="#DejaVuSans-111"/>
      <use x="125.048828" xlink:href="#DejaVuSans-103"/>
      <use x="188.525391" xlink:href="#DejaVuSans-49"/>
      <use x="252.148438" xlink:href="#DejaVuSans-48"/>
      <use x="315.771484" xlink:href="#DejaVuSans-32"/>
      <use x="347.558594" xlink:href="#DejaVuSans-112"/>
      <use x="411.035156" xlink:href="#DejaVuSans-45"/>
      <use x="447.087891" xlink:href="#DejaVuSans-118"/>
      <use x="506.267578" xlink:href="#DejaVuSans-97"/>
      <use x="567.546875" xlink:href="#DejaVuSans-108"/>
      <use x="595.330078" xlink:href="#DejaVuSans-117"/>
      <use x="658.708984" xlink:href="#DejaVuSans-101"/>
     </g>
    </g>
   </g>
   <g id="matplotlib.axis_6">
    <g id="ytick_11"/>
    <g id="ytick_12"/>
    <g id="ytick_13"/>
    <g id="ytick_14"/>
    <g id="ytick_15"/>
   </g>
   <g id="line2d_22">
    <path clip-path="url(#p0e0a6224c9)" d="M 786.454773 52.669325 
L 787.436591 52.669325 
L 788.418409 54.536547 
L 793.818409 54.536547 
L 794.800227 56.419592 
L 795.291136 58.318664 
L 799.709318 58.318664 
L 800.200227 59.274273 
L 800.691136 59.274273 
L 801.182045 60.233966 
L 801.672955 60.233966 
L 802.163864 61.19777 
L 802.654773 61.19777 
L 803.145682 62.165709 
L 804.1275 62.165709 
L 804.618409 63.137813 
L 807.563864 63.137813 
L 808.054773 64.114106 
L 810.018409 64.114106 
L 811.982045 68.061726 
L 813.454773 68.061726 
L 813.945682 69.059381 
L 814.436591 69.059381 
L 815.418409 71.067791 
L 818.854773 71.067791 
L 819.345682 72.078602 
L 820.3275 72.078602 
L 820.818409 71.60045 
L 821.309318 71.60045 
L 821.800227 72.616887 
L 824.745682 72.616887 
L 825.236591 73.637813 
L 825.7275 73.637813 
L 826.218409 74.663255 
L 826.709318 74.663255 
L 827.200227 75.217813 
L 827.691136 76.253625 
L 829.163864 76.253625 
L 829.654773 75.777321 
L 831.1275 75.777321 
L 831.618409 76.819021 
L 838.000227 76.819021 
L 838.491136 77.865391 
L 838.982045 77.865391 
L 839.963864 79.972272 
L 841.9275 79.972272 
L 842.418409 81.032846 
L 843.400227 81.032846 
L 843.891136 82.09822 
L 845.854773 82.09822 
L 846.345682 81.627608 
L 847.818409 81.627608 
L 848.309318 83.775626 
L 848.800227 83.775626 
L 849.291136 84.856991 
L 850.763864 84.856991 
L 851.254773 85.943304 
L 856.163864 85.943304 
L 856.654773 87.034601 
L 858.1275 87.034601 
L 858.618409 88.130916 
L 859.109318 88.130916 
L 859.600227 89.232283 
L 863.5275 89.232283 
L 864.018409 90.338736 
L 866.472955 90.338736 
L 866.963864 91.450313 
L 868.9275 91.450313 
L 869.418409 92.567047 
L 870.891136 92.567047 
L 871.382045 93.688975 
L 871.872955 93.688975 
L 872.363864 94.816134 
L 872.854773 94.816134 
L 873.345682 95.94856 
L 873.836591 95.94856 
L 874.3275 98.229362 
L 876.782045 98.229362 
L 877.272955 100.53168 
L 882.182045 100.53168 
L 882.672955 101.691004 
L 885.618409 101.691004 
L 886.109318 102.855822 
L 888.563864 102.855822 
L 889.054773 104.026174 
L 889.545682 104.026174 
L 890.036591 106.383636 
L 895.436591 106.383636 
L 895.9275 107.570827 
L 901.3275 107.570827 
L 901.818409 108.763712 
L 904.272955 108.763712 
L 904.763864 109.962332 
L 915.072955 109.962332 
L 916.054773 114.814997 
L 916.545682 114.814997 
L 917.036591 116.042922 
L 918.509318 116.042922 
L 919.000227 117.276837 
L 922.436591 117.276837 
L 922.9275 118.516786 
L 923.909318 118.516786 
L 924.400227 119.762813 
L 927.836591 119.762813 
L 928.3275 119.345429 
L 930.782045 119.345429 
L 931.272955 120.599635 
L 932.745682 120.599635 
L 933.236591 123.126674 
L 935.691136 123.126674 
L 936.182045 126.964496 
L 937.163864 126.964496 
L 937.654773 128.256563 
L 938.636591 128.256563 
L 939.1275 129.555106 
L 939.618409 129.555106 
L 940.600227 132.171818 
L 944.5275 132.171818 
L 945.018409 133.490085 
L 946.982045 133.490085 
L 947.472955 134.815028 
L 949.9275 134.815028 
L 950.418409 137.485141 
L 950.909318 137.485141 
L 951.400227 138.830415 
L 952.872955 138.830415 
L 953.363864 140.18257 
L 973.000227 140.18257 
L 973.491136 141.541659 
L 992.145682 141.541659 
L 992.636591 144.280854 
L 994.600227 144.280854 
L 995.091136 145.661068 
L 1000.982045 145.661068 
L 1001.472955 146.678072 
L 1004.418409 146.678072 
L 1004.909318 148.075313 
L 1012.272955 148.075313 
L 1012.763864 149.479849 
L 1016.691136 149.479849 
L 1017.182045 150.891739 
L 1021.600227 150.891739 
L 1022.091136 152.311041 
L 1027.491136 152.311041 
L 1027.982045 155.172113 
L 1033.872955 155.172113 
L 1034.363864 156.614003 
L 1041.7275 156.614003 
L 1042.218409 159.520791 
L 1051.054773 159.520791 
L 1051.545682 165.428135 
L 1063.3275 165.428135 
L 1063.818409 171.463899 
L 1081.000227 171.463899 
L 1081.000227 171.463899 
" style="fill:none;stroke:#8b0000;stroke-linecap:square;stroke-width:2;"/>
   </g>
   <g id="line2d_23">
    <path clip-path="url(#p0e0a6224c9)" d="M 786.454773 138.637813 
L 787.436591 138.637813 
L 788.418409 137.471789 
L 793.818409 137.471789 
L 794.309318 136.881999 
L 794.800227 138.931587 
L 795.291136 140.414283 
L 799.709318 140.414283 
L 800.200227 139.826789 
L 800.691136 139.826789 
L 801.182045 139.23465 
L 801.672955 139.23465 
L 802.163864 138.637813 
L 802.654773 138.637813 
L 803.145682 138.036219 
L 804.1275 138.036219 
L 804.618409 137.429813 
L 807.563864 137.429813 
L 808.054773 136.818535 
L 810.018409 136.818535 
L 810.509318 138.942248 
L 811.000227 138.332144 
L 811.982045 142.643935 
L 813.454773 142.643935 
L 813.945682 142.041501 
L 814.436591 142.041501 
L 815.418409 140.821697 
L 818.854773 140.821697 
L 819.345682 140.204203 
L 820.3275 140.204203 
L 820.818409 139.581563 
L 821.309318 139.581563 
L 821.800227 141.796808 
L 824.745682 141.796808 
L 825.236591 141.175628 
L 825.7275 141.175628 
L 826.218409 140.549205 
L 826.709318 140.549205 
L 827.200227 142.171855 
L 827.691136 141.541659 
L 829.163864 141.541659 
L 829.654773 140.906053 
L 831.1275 140.906053 
L 831.618409 140.264968 
L 838.000227 140.264968 
L 838.491136 142.55989 
L 838.982045 142.55989 
L 839.472955 141.920421 
L 839.963864 144.242616 
L 841.9275 144.242616 
L 842.418409 146.585181 
L 843.400227 146.585181 
L 843.891136 145.954993 
L 845.854773 145.954993 
L 846.345682 145.319228 
L 847.818409 145.319228 
L 848.309318 147.064152 
L 848.800227 147.064152 
L 849.291136 146.424808 
L 850.763864 146.424808 
L 851.254773 145.779704 
L 856.163864 145.779704 
L 856.654773 148.203423 
L 858.1275 148.203423 
L 858.618409 147.56054 
L 859.109318 147.56054 
L 859.600227 146.911785 
L 863.5275 146.911785 
L 864.018409 146.257079 
L 866.472955 146.257079 
L 866.963864 145.596338 
L 868.9275 145.596338 
L 869.418409 144.929479 
L 870.891136 144.929479 
L 871.382045 144.256417 
L 871.872955 144.256417 
L 872.363864 143.577065 
L 872.854773 143.577065 
L 873.345682 142.891334 
L 873.836591 142.891334 
L 874.3275 144.720751 
L 876.782045 144.720751 
L 877.272955 143.333985 
L 882.182045 143.333985 
L 882.672955 142.630601 
L 885.618409 142.630601 
L 886.109318 141.920421 
L 888.563864 141.920421 
L 889.054773 144.50189 
L 889.545682 144.50189 
L 890.036591 146.409871 
L 895.436591 146.409871 
L 895.9275 145.704315 
L 901.3275 145.704315 
L 901.818409 144.991773 
L 904.272955 144.991773 
L 904.763864 144.272141 
L 915.072955 144.272141 
L 916.054773 148.219031 
L 916.545682 148.219031 
L 917.036591 150.964343 
L 918.509318 150.964343 
L 919.000227 150.253197 
L 922.436591 150.253197 
L 922.9275 149.53472 
L 923.909318 149.53472 
L 924.400227 148.808797 
L 927.836591 148.808797 
L 928.3275 148.075313 
L 930.782045 148.075313 
L 931.272955 147.334148 
L 932.745682 147.334148 
L 933.236591 145.828289 
L 935.691136 145.828289 
L 936.182045 143.50878 
L 937.163864 143.50878 
L 937.654773 146.391867 
L 938.636591 146.391867 
L 939.1275 145.613356 
L 939.618409 145.613356 
L 940.109318 144.826337 
L 940.600227 147.764186 
L 944.5275 147.764186 
L 945.018409 150.734498 
L 946.982045 150.734498 
L 947.472955 149.962813 
L 949.9275 149.962813 
L 950.418409 152.210846 
L 950.909318 152.210846 
L 951.400227 155.273406 
L 952.872955 155.273406 
L 953.363864 154.509972 
L 973.000227 154.509972 
L 973.491136 153.737813 
L 992.145682 153.737813 
L 992.636591 152.166714 
L 994.600227 152.166714 
L 995.091136 151.367464 
L 1000.982045 151.367464 
L 1001.472955 153.737813 
L 1004.418409 153.737813 
L 1004.909318 156.954381 
L 1012.272955 156.954381 
L 1012.763864 156.164598 
L 1016.691136 156.164598 
L 1017.182045 159.43422 
L 1021.600227 159.43422 
L 1022.091136 162.743234 
L 1027.491136 162.743234 
L 1027.982045 165.339032 
L 1033.872955 165.339032 
L 1034.363864 164.576463 
L 1041.7275 164.576463 
L 1042.218409 163.022906 
L 1051.054773 163.022906 
L 1051.545682 164.125074 
L 1063.3275 164.125074 
L 1063.818409 174.167224 
L 1081.000227 174.167224 
L 1081.000227 174.167224 
" style="fill:none;stroke:#000080;stroke-linecap:square;stroke-width:2;"/>
   </g>
   <g id="patch_9">
    <path d="M 771.7275 289.637812 
L 771.7275 17.837813 
" style="fill:none;stroke:#000000;stroke-linecap:square;stroke-linejoin:miter;"/>
   </g>
   <g id="patch_10">
    <path d="M 771.7275 289.637812 
L 1095.7275 289.637812 
" style="fill:none;stroke:#000000;stroke-linecap:square;stroke-linejoin:miter;"/>
   </g>
  </g>
 </g>
 <defs>
  <clipPath id="p9d02e79a85">
   <rect height="271.8" width="324" x="91.3275" y="17.837812"/>
  </clipPath>
  <clipPath id="p223f2df06e">
   <rect height="271.8" width="324" x="431.5275" y="17.837812"/>
  </clipPath>
  <clipPath id="p0e0a6224c9">
   <rect height="271.8" width="324" x="771.7275" y="17.837812"/>
  </clipPath>
 </defs>
</svg>
