<?xml version="1.0" encoding="utf-8" standalone="no"?>
<!DOCTYPE svg PUBLIC "-//W3C//DTD SVG 1.1//EN"
  "http://www.w3.org/Graphics/SVG/1.1/DTD/svg11.dtd">
<!-- Created with matplotlib (https://matplotlib.org/) -->
<svg height="298.5375pt" version="1.1" viewBox="0 0 1102.9275 298.5375" width="1102.9275pt" xmlns="http://www.w3.org/2000/svg" xmlns:xlink="http://www.w3.org/1999/xlink">
 <defs>
  <style type="text/css">
*{stroke-linecap:butt;stroke-linejoin:round;}
  </style>
 </defs>
 <g id="figure_1">
  <g id="patch_1">
   <path d="M 0 298.5375 
L 1102.9275 298.5375 
L 1102.9275 0 
L 0 0 
z
" style="fill:none;"/>
  </g>
  <g id="axes_1">
   <g id="patch_2">
    <path d="M 91.3275 224.64 
L 415.3275 224.64 
L 415.3275 7.2 
L 91.3275 7.2 
z
" style="fill:none;"/>
   </g>
   <g id="matplotlib.axis_1">
    <g id="xtick_1">
     <g id="line2d_1">
      <defs>
       <path d="M 0 0 
L 0 5 
" id="m45a29ac958" style="stroke:#000000;stroke-width:0.8;"/>
      </defs>
      <g>
       <use style="stroke:#000000;stroke-width:0.8;" x="106.054773" xlink:href="#m45a29ac958" y="224.64"/>
      </g>
     </g>
     <g id="text_1">
      <!-- 1 -->
      <defs>
       <path d="M 12.40625 8.296875 
L 28.515625 8.296875 
L 28.515625 63.921875 
L 10.984375 60.40625 
L 10.984375 69.390625 
L 28.421875 72.90625 
L 38.28125 72.90625 
L 38.28125 8.296875 
L 54.390625 8.296875 
L 54.390625 0 
L 12.40625 0 
z
" id="DejaVuSans-49"/>
      </defs>
      <g transform="translate(97.147273 254.415625)scale(0.28 -0.28)">
       <use xlink:href="#DejaVuSans-49"/>
      </g>
     </g>
    </g>
    <g id="xtick_2">
     <g id="line2d_2">
      <g>
       <use style="stroke:#000000;stroke-width:0.8;" x="204.236591" xlink:href="#m45a29ac958" y="224.64"/>
      </g>
     </g>
     <g id="text_2">
      <!-- 2 -->
      <defs>
       <path d="M 19.1875 8.296875 
L 53.609375 8.296875 
L 53.609375 0 
L 7.328125 0 
L 7.328125 8.296875 
Q 12.9375 14.109375 22.625 23.890625 
Q 32.328125 33.6875 34.8125 36.53125 
Q 39.546875 41.84375 41.421875 45.53125 
Q 43.3125 49.21875 43.3125 52.78125 
Q 43.3125 58.59375 39.234375 62.25 
Q 35.15625 65.921875 28.609375 65.921875 
Q 23.96875 65.921875 18.8125 64.3125 
Q 13.671875 62.703125 7.8125 59.421875 
L 7.8125 69.390625 
Q 13.765625 71.78125 18.9375 73 
Q 24.125 74.21875 28.421875 74.21875 
Q 39.75 74.21875 46.484375 68.546875 
Q 53.21875 62.890625 53.21875 53.421875 
Q 53.21875 48.921875 51.53125 44.890625 
Q 49.859375 40.875 45.40625 35.40625 
Q 44.1875 33.984375 37.640625 27.21875 
Q 31.109375 20.453125 19.1875 8.296875 
z
" id="DejaVuSans-50"/>
      </defs>
      <g transform="translate(195.329091 254.415625)scale(0.28 -0.28)">
       <use xlink:href="#DejaVuSans-50"/>
      </g>
     </g>
    </g>
    <g id="xtick_3">
     <g id="line2d_3">
      <g>
       <use style="stroke:#000000;stroke-width:0.8;" x="302.418409" xlink:href="#m45a29ac958" y="224.64"/>
      </g>
     </g>
     <g id="text_3">
      <!-- 3 -->
      <defs>
       <path d="M 40.578125 39.3125 
Q 47.65625 37.796875 51.625 33 
Q 55.609375 28.21875 55.609375 21.1875 
Q 55.609375 10.40625 48.1875 4.484375 
Q 40.765625 -1.421875 27.09375 -1.421875 
Q 22.515625 -1.421875 17.65625 -0.515625 
Q 12.796875 0.390625 7.625 2.203125 
L 7.625 11.71875 
Q 11.71875 9.328125 16.59375 8.109375 
Q 21.484375 6.890625 26.8125 6.890625 
Q 36.078125 6.890625 40.9375 10.546875 
Q 45.796875 14.203125 45.796875 21.1875 
Q 45.796875 27.640625 41.28125 31.265625 
Q 36.765625 34.90625 28.71875 34.90625 
L 20.21875 34.90625 
L 20.21875 43.015625 
L 29.109375 43.015625 
Q 36.375 43.015625 40.234375 45.921875 
Q 44.09375 48.828125 44.09375 54.296875 
Q 44.09375 59.90625 40.109375 62.90625 
Q 36.140625 65.921875 28.71875 65.921875 
Q 24.65625 65.921875 20.015625 65.03125 
Q 15.375 64.15625 9.8125 62.3125 
L 9.8125 71.09375 
Q 15.4375 72.65625 20.34375 73.4375 
Q 25.25 74.21875 29.59375 74.21875 
Q 40.828125 74.21875 47.359375 69.109375 
Q 53.90625 64.015625 53.90625 55.328125 
Q 53.90625 49.265625 50.4375 45.09375 
Q 46.96875 40.921875 40.578125 39.3125 
z
" id="DejaVuSans-51"/>
      </defs>
      <g transform="translate(293.510909 254.415625)scale(0.28 -0.28)">
       <use xlink:href="#DejaVuSans-51"/>
      </g>
     </g>
    </g>
    <g id="xtick_4">
     <g id="line2d_4">
      <g>
       <use style="stroke:#000000;stroke-width:0.8;" x="400.600227" xlink:href="#m45a29ac958" y="224.64"/>
      </g>
     </g>
     <g id="text_4">
      <!-- 4 -->
      <defs>
       <path d="M 37.796875 64.3125 
L 12.890625 25.390625 
L 37.796875 25.390625 
z
M 35.203125 72.90625 
L 47.609375 72.90625 
L 47.609375 25.390625 
L 58.015625 25.390625 
L 58.015625 17.1875 
L 47.609375 17.1875 
L 47.609375 0 
L 37.796875 0 
L 37.796875 17.1875 
L 4.890625 17.1875 
L 4.890625 26.703125 
z
" id="DejaVuSans-52"/>
      </defs>
      <g transform="translate(391.692727 254.415625)scale(0.28 -0.28)">
       <use xlink:href="#DejaVuSans-52"/>
      </g>
     </g>
    </g>
    <g id="text_5">
     <!-- -log10 p-value -->
     <defs>
      <path d="M 4.890625 31.390625 
L 31.203125 31.390625 
L 31.203125 23.390625 
L 4.890625 23.390625 
z
" id="DejaVuSans-45"/>
      <path d="M 9.421875 75.984375 
L 18.40625 75.984375 
L 18.40625 0 
L 9.421875 0 
z
" id="DejaVuSans-108"/>
      <path d="M 30.609375 48.390625 
Q 23.390625 48.390625 19.1875 42.75 
Q 14.984375 37.109375 14.984375 27.296875 
Q 14.984375 17.484375 19.15625 11.84375 
Q 23.34375 6.203125 30.609375 6.203125 
Q 37.796875 6.203125 41.984375 11.859375 
Q 46.1875 17.53125 46.1875 27.296875 
Q 46.1875 37.015625 41.984375 42.703125 
Q 37.796875 48.390625 30.609375 48.390625 
z
M 30.609375 56 
Q 42.328125 56 49.015625 48.375 
Q 55.71875 40.765625 55.71875 27.296875 
Q 55.71875 13.875 49.015625 6.21875 
Q 42.328125 -1.421875 30.609375 -1.421875 
Q 18.84375 -1.421875 12.171875 6.21875 
Q 5.515625 13.875 5.515625 27.296875 
Q 5.515625 40.765625 12.171875 48.375 
Q 18.84375 56 30.609375 56 
z
" id="DejaVuSans-111"/>
      <path d="M 45.40625 27.984375 
Q 45.40625 37.75 41.375 43.109375 
Q 37.359375 48.484375 30.078125 48.484375 
Q 22.859375 48.484375 18.828125 43.109375 
Q 14.796875 37.75 14.796875 27.984375 
Q 14.796875 18.265625 18.828125 12.890625 
Q 22.859375 7.515625 30.078125 7.515625 
Q 37.359375 7.515625 41.375 12.890625 
Q 45.40625 18.265625 45.40625 27.984375 
z
M 54.390625 6.78125 
Q 54.390625 -7.171875 48.1875 -13.984375 
Q 42 -20.796875 29.203125 -20.796875 
Q 24.46875 -20.796875 20.265625 -20.09375 
Q 16.0625 -19.390625 12.109375 -17.921875 
L 12.109375 -9.1875 
Q 16.0625 -11.328125 19.921875 -12.34375 
Q 23.78125 -13.375 27.78125 -13.375 
Q 36.625 -13.375 41.015625 -8.765625 
Q 45.40625 -4.15625 45.40625 5.171875 
L 45.40625 9.625 
Q 42.625 4.78125 38.28125 2.390625 
Q 33.9375 0 27.875 0 
Q 17.828125 0 11.671875 7.65625 
Q 5.515625 15.328125 5.515625 27.984375 
Q 5.515625 40.671875 11.671875 48.328125 
Q 17.828125 56 27.875 56 
Q 33.9375 56 38.28125 53.609375 
Q 42.625 51.21875 45.40625 46.390625 
L 45.40625 54.6875 
L 54.390625 54.6875 
z
" id="DejaVuSans-103"/>
      <path d="M 31.78125 66.40625 
Q 24.171875 66.40625 20.328125 58.90625 
Q 16.5 51.421875 16.5 36.375 
Q 16.5 21.390625 20.328125 13.890625 
Q 24.171875 6.390625 31.78125 6.390625 
Q 39.453125 6.390625 43.28125 13.890625 
Q 47.125 21.390625 47.125 36.375 
Q 47.125 51.421875 43.28125 58.90625 
Q 39.453125 66.40625 31.78125 66.40625 
z
M 31.78125 74.21875 
Q 44.046875 74.21875 50.515625 64.515625 
Q 56.984375 54.828125 56.984375 36.375 
Q 56.984375 17.96875 50.515625 8.265625 
Q 44.046875 -1.421875 31.78125 -1.421875 
Q 19.53125 -1.421875 13.0625 8.265625 
Q 6.59375 17.96875 6.59375 36.375 
Q 6.59375 54.828125 13.0625 64.515625 
Q 19.53125 74.21875 31.78125 74.21875 
z
" id="DejaVuSans-48"/>
      <path id="DejaVuSans-32"/>
      <path d="M 18.109375 8.203125 
L 18.109375 -20.796875 
L 9.078125 -20.796875 
L 9.078125 54.6875 
L 18.109375 54.6875 
L 18.109375 46.390625 
Q 20.953125 51.265625 25.265625 53.625 
Q 29.59375 56 35.59375 56 
Q 45.5625 56 51.78125 48.09375 
Q 58.015625 40.1875 58.015625 27.296875 
Q 58.015625 14.40625 51.78125 6.484375 
Q 45.5625 -1.421875 35.59375 -1.421875 
Q 29.59375 -1.421875 25.265625 0.953125 
Q 20.953125 3.328125 18.109375 8.203125 
z
M 48.6875 27.296875 
Q 48.6875 37.203125 44.609375 42.84375 
Q 40.53125 48.484375 33.40625 48.484375 
Q 26.265625 48.484375 22.1875 42.84375 
Q 18.109375 37.203125 18.109375 27.296875 
Q 18.109375 17.390625 22.1875 11.75 
Q 26.265625 6.109375 33.40625 6.109375 
Q 40.53125 6.109375 44.609375 11.75 
Q 48.6875 17.390625 48.6875 27.296875 
z
" id="DejaVuSans-112"/>
      <path d="M 2.984375 54.6875 
L 12.5 54.6875 
L 29.59375 8.796875 
L 46.6875 54.6875 
L 56.203125 54.6875 
L 35.6875 0 
L 23.484375 0 
z
" id="DejaVuSans-118"/>
      <path d="M 34.28125 27.484375 
Q 23.390625 27.484375 19.1875 25 
Q 14.984375 22.515625 14.984375 16.5 
Q 14.984375 11.71875 18.140625 8.90625 
Q 21.296875 6.109375 26.703125 6.109375 
Q 34.1875 6.109375 38.703125 11.40625 
Q 43.21875 16.703125 43.21875 25.484375 
L 43.21875 27.484375 
z
M 52.203125 31.203125 
L 52.203125 0 
L 43.21875 0 
L 43.21875 8.296875 
Q 40.140625 3.328125 35.546875 0.953125 
Q 30.953125 -1.421875 24.3125 -1.421875 
Q 15.921875 -1.421875 10.953125 3.296875 
Q 6 8.015625 6 15.921875 
Q 6 25.140625 12.171875 29.828125 
Q 18.359375 34.515625 30.609375 34.515625 
L 43.21875 34.515625 
L 43.21875 35.40625 
Q 43.21875 41.609375 39.140625 45 
Q 35.0625 48.390625 27.6875 48.390625 
Q 23 48.390625 18.546875 47.265625 
Q 14.109375 46.140625 10.015625 43.890625 
L 10.015625 52.203125 
Q 14.9375 54.109375 19.578125 55.046875 
Q 24.21875 56 28.609375 56 
Q 40.484375 56 46.34375 49.84375 
Q 52.203125 43.703125 52.203125 31.203125 
z
" id="DejaVuSans-97"/>
      <path d="M 8.5 21.578125 
L 8.5 54.6875 
L 17.484375 54.6875 
L 17.484375 21.921875 
Q 17.484375 14.15625 20.5 10.265625 
Q 23.53125 6.390625 29.59375 6.390625 
Q 36.859375 6.390625 41.078125 11.03125 
Q 45.3125 15.671875 45.3125 23.6875 
L 45.3125 54.6875 
L 54.296875 54.6875 
L 54.296875 0 
L 45.3125 0 
L 45.3125 8.40625 
Q 42.046875 3.421875 37.71875 1 
Q 33.40625 -1.421875 27.6875 -1.421875 
Q 18.265625 -1.421875 13.375 4.4375 
Q 8.5 10.296875 8.5 21.578125 
z
M 31.109375 56 
z
" id="DejaVuSans-117"/>
      <path d="M 56.203125 29.59375 
L 56.203125 25.203125 
L 14.890625 25.203125 
Q 15.484375 15.921875 20.484375 11.0625 
Q 25.484375 6.203125 34.421875 6.203125 
Q 39.59375 6.203125 44.453125 7.46875 
Q 49.3125 8.734375 54.109375 11.28125 
L 54.109375 2.78125 
Q 49.265625 0.734375 44.1875 -0.34375 
Q 39.109375 -1.421875 33.890625 -1.421875 
Q 20.796875 -1.421875 13.15625 6.1875 
Q 5.515625 13.8125 5.515625 26.8125 
Q 5.515625 40.234375 12.765625 48.109375 
Q 20.015625 56 32.328125 56 
Q 43.359375 56 49.78125 48.890625 
Q 56.203125 41.796875 56.203125 29.59375 
z
M 47.21875 32.234375 
Q 47.125 39.59375 43.09375 43.984375 
Q 39.0625 48.390625 32.421875 48.390625 
Q 24.90625 48.390625 20.390625 44.140625 
Q 15.875 39.890625 15.1875 32.171875 
z
" id="DejaVuSans-101"/>
     </defs>
     <g transform="translate(152.4925 285.514375)scale(0.28 -0.28)">
      <use xlink:href="#DejaVuSans-45"/>
      <use x="36.083984" xlink:href="#DejaVuSans-108"/>
      <use x="63.867188" xlink:href="#DejaVuSans-111"/>
      <use x="125.048828" xlink:href="#DejaVuSans-103"/>
      <use x="188.525391" xlink:href="#DejaVuSans-49"/>
      <use x="252.148438" xlink:href="#DejaVuSans-48"/>
      <use x="315.771484" xlink:href="#DejaVuSans-32"/>
      <use x="347.558594" xlink:href="#DejaVuSans-112"/>
      <use x="411.035156" xlink:href="#DejaVuSans-45"/>
      <use x="447.087891" xlink:href="#DejaVuSans-118"/>
      <use x="506.267578" xlink:href="#DejaVuSans-97"/>
      <use x="567.546875" xlink:href="#DejaVuSans-108"/>
      <use x="595.330078" xlink:href="#DejaVuSans-117"/>
      <use x="658.708984" xlink:href="#DejaVuSans-101"/>
     </g>
    </g>
   </g>
   <g id="matplotlib.axis_2">
    <g id="ytick_1">
     <g id="line2d_5">
      <defs>
       <path d="M 0 0 
L -5 0 
" id="m9effddb526" style="stroke:#000000;stroke-width:0.8;"/>
      </defs>
      <g>
       <use style="stroke:#000000;stroke-width:0.8;" x="91.3275" xlink:href="#m9effddb526" y="224.64"/>
      </g>
     </g>
     <g id="text_6">
      <!-- 0.0 -->
      <defs>
       <path d="M 10.6875 12.40625 
L 21 12.40625 
L 21 0 
L 10.6875 0 
z
" id="DejaVuSans-46"/>
      </defs>
      <g transform="translate(38.29875 235.277813)scale(0.28 -0.28)">
       <use xlink:href="#DejaVuSans-48"/>
       <use x="63.623047" xlink:href="#DejaVuSans-46"/>
       <use x="95.410156" xlink:href="#DejaVuSans-48"/>
      </g>
     </g>
    </g>
    <g id="ytick_2">
     <g id="line2d_6">
      <g>
       <use style="stroke:#000000;stroke-width:0.8;" x="91.3275" xlink:href="#m9effddb526" y="88.74"/>
      </g>
     </g>
     <g id="text_7">
      <!-- 0.5 -->
      <defs>
       <path d="M 10.796875 72.90625 
L 49.515625 72.90625 
L 49.515625 64.59375 
L 19.828125 64.59375 
L 19.828125 46.734375 
Q 21.96875 47.46875 24.109375 47.828125 
Q 26.265625 48.1875 28.421875 48.1875 
Q 40.625 48.1875 47.75 41.5 
Q 54.890625 34.8125 54.890625 23.390625 
Q 54.890625 11.625 47.5625 5.09375 
Q 40.234375 -1.421875 26.90625 -1.421875 
Q 22.3125 -1.421875 17.546875 -0.640625 
Q 12.796875 0.140625 7.71875 1.703125 
L 7.71875 11.625 
Q 12.109375 9.234375 16.796875 8.0625 
Q 21.484375 6.890625 26.703125 6.890625 
Q 35.15625 6.890625 40.078125 11.328125 
Q 45.015625 15.765625 45.015625 23.390625 
Q 45.015625 31 40.078125 35.4375 
Q 35.15625 39.890625 26.703125 39.890625 
Q 22.75 39.890625 18.8125 39.015625 
Q 14.890625 38.140625 10.796875 36.28125 
z
" id="DejaVuSans-53"/>
      </defs>
      <g transform="translate(38.29875 99.377813)scale(0.28 -0.28)">
       <use xlink:href="#DejaVuSans-48"/>
       <use x="63.623047" xlink:href="#DejaVuSans-46"/>
       <use x="95.410156" xlink:href="#DejaVuSans-53"/>
      </g>
     </g>
    </g>
    <g id="text_8">
     <!-- F1 score -->
     <defs>
      <path d="M 9.8125 72.90625 
L 51.703125 72.90625 
L 51.703125 64.59375 
L 19.671875 64.59375 
L 19.671875 43.109375 
L 48.578125 43.109375 
L 48.578125 34.8125 
L 19.671875 34.8125 
L 19.671875 0 
L 9.8125 0 
z
" id="DejaVuSans-70"/>
      <path d="M 44.28125 53.078125 
L 44.28125 44.578125 
Q 40.484375 46.53125 36.375 47.5 
Q 32.28125 48.484375 27.875 48.484375 
Q 21.1875 48.484375 17.84375 46.4375 
Q 14.5 44.390625 14.5 40.28125 
Q 14.5 37.15625 16.890625 35.375 
Q 19.28125 33.59375 26.515625 31.984375 
L 29.59375 31.296875 
Q 39.15625 29.25 43.1875 25.515625 
Q 47.21875 21.78125 47.21875 15.09375 
Q 47.21875 7.46875 41.1875 3.015625 
Q 35.15625 -1.421875 24.609375 -1.421875 
Q 20.21875 -1.421875 15.453125 -0.5625 
Q 10.6875 0.296875 5.421875 2 
L 5.421875 11.28125 
Q 10.40625 8.6875 15.234375 7.390625 
Q 20.0625 6.109375 24.8125 6.109375 
Q 31.15625 6.109375 34.5625 8.28125 
Q 37.984375 10.453125 37.984375 14.40625 
Q 37.984375 18.0625 35.515625 20.015625 
Q 33.0625 21.96875 24.703125 23.78125 
L 21.578125 24.515625 
Q 13.234375 26.265625 9.515625 29.90625 
Q 5.8125 33.546875 5.8125 39.890625 
Q 5.8125 47.609375 11.28125 51.796875 
Q 16.75 56 26.8125 56 
Q 31.78125 56 36.171875 55.265625 
Q 40.578125 54.546875 44.28125 53.078125 
z
" id="DejaVuSans-115"/>
      <path d="M 48.78125 52.59375 
L 48.78125 44.1875 
Q 44.96875 46.296875 41.140625 47.34375 
Q 37.3125 48.390625 33.40625 48.390625 
Q 24.65625 48.390625 19.8125 42.84375 
Q 14.984375 37.3125 14.984375 27.296875 
Q 14.984375 17.28125 19.8125 11.734375 
Q 24.65625 6.203125 33.40625 6.203125 
Q 37.3125 6.203125 41.140625 7.25 
Q 44.96875 8.296875 48.78125 10.40625 
L 48.78125 2.09375 
Q 45.015625 0.34375 40.984375 -0.53125 
Q 36.96875 -1.421875 32.421875 -1.421875 
Q 20.0625 -1.421875 12.78125 6.34375 
Q 5.515625 14.109375 5.515625 27.296875 
Q 5.515625 40.671875 12.859375 48.328125 
Q 20.21875 56 33.015625 56 
Q 37.15625 56 41.109375 55.140625 
Q 45.0625 54.296875 48.78125 52.59375 
z
" id="DejaVuSans-99"/>
      <path d="M 41.109375 46.296875 
Q 39.59375 47.171875 37.8125 47.578125 
Q 36.03125 48 33.890625 48 
Q 26.265625 48 22.1875 43.046875 
Q 18.109375 38.09375 18.109375 28.8125 
L 18.109375 0 
L 9.078125 0 
L 9.078125 54.6875 
L 18.109375 54.6875 
L 18.109375 46.1875 
Q 20.953125 51.171875 25.484375 53.578125 
Q 30.03125 56 36.53125 56 
Q 37.453125 56 38.578125 55.875 
Q 39.703125 55.765625 41.0625 55.515625 
z
" id="DejaVuSans-114"/>
     </defs>
     <g transform="translate(28.475625 175.251563)rotate(-90)scale(0.28 -0.28)">
      <use xlink:href="#DejaVuSans-70"/>
      <use x="57.519531" xlink:href="#DejaVuSans-49"/>
      <use x="121.142578" xlink:href="#DejaVuSans-32"/>
      <use x="152.929688" xlink:href="#DejaVuSans-115"/>
      <use x="205.029297" xlink:href="#DejaVuSans-99"/>
      <use x="260.009766" xlink:href="#DejaVuSans-111"/>
      <use x="321.191406" xlink:href="#DejaVuSans-114"/>
      <use x="362.273438" xlink:href="#DejaVuSans-101"/>
     </g>
    </g>
   </g>
   <g id="line2d_7">
    <path clip-path="url(#p323408c650)" d="M 106.054773 177.459623 
L 108.509318 176.552308 
L 109.491136 176.552308 
L 110.472955 176.273269 
L 110.963864 176.273269 
L 112.436591 175.800938 
L 112.9275 175.800938 
L 113.909318 175.31929 
L 116.854773 174.828048 
L 117.836591 174.728623 
L 118.3275 174.528577 
L 118.818409 174.021377 
L 119.309318 174.021377 
L 120.782045 173.503804 
L 122.745682 173.188148 
L 123.236591 173.188148 
L 124.218409 172.868571 
L 125.691136 172.436242 
L 126.182045 173.356981 
L 130.109318 173.249244 
L 130.600227 174.179241 
L 131.091136 174.072558 
L 131.582045 174.906383 
L 132.072955 174.906383 
L 132.563864 174.693846 
L 135.018409 174.586895 
L 135.509318 174.479485 
L 136.000227 175.434828 
L 136.982045 175.328553 
L 137.472955 175.11462 
L 139.9275 175.006957 
L 140.418409 174.790218 
L 141.400227 174.681138 
L 142.872955 174.24 
L 143.854773 174.128496 
L 144.345682 175.112 
L 146.309318 175.001693 
L 146.800227 174.779597 
L 147.782045 174.779597 
L 148.763864 174.667803 
L 149.254773 175.556479 
L 153.672955 174.653793 
L 154.163864 174.653793 
L 154.654773 174.538618 
L 156.1275 173.954685 
L 156.618409 173.954685 
L 157.109318 173.836262 
L 157.600227 173.836262 
L 158.091136 173.477647 
L 158.582045 173.477647 
L 159.563864 173.235745 
L 161.5275 173.235745 
L 162.018409 173.113934 
L 162.509318 173.113934 
L 163.491136 172.868571 
L 163.982045 173.92134 
L 164.472955 173.92134 
L 164.963864 173.6775 
L 165.454773 173.6775 
L 165.945682 173.554699 
L 166.436591 173.307312 
L 166.9275 173.307312 
L 167.418409 174.380146 
L 167.909318 174.257561 
L 168.400227 174.257561 
L 169.872955 173.635556 
L 170.854773 173.635556 
L 171.836591 173.382432 
L 172.3275 173.382432 
L 173.800227 172.998 
L 174.291136 174.104322 
L 174.782045 173.977028 
L 176.745682 173.977028 
L 177.236591 173.849091 
L 177.7275 174.970964 
L 178.218409 174.970964 
L 179.200227 177.370435 
L 179.691136 177.370435 
L 180.672955 177.004948 
L 181.163864 176.88186 
L 183.618409 176.88186 
L 184.109318 176.758135 
L 185.091136 176.758135 
L 186.563864 176.383081 
L 187.054773 176.383081 
L 187.545682 176.256754 
L 188.036591 176.256754 
L 188.5275 176.129764 
L 189.018409 176.129764 
L 189.509318 177.432632 
L 190.000227 177.432632 
L 191.963864 176.930426 
L 192.454773 176.675294 
L 192.945682 176.675294 
L 193.9275 176.417419 
L 194.418409 176.417419 
L 194.909318 176.287439 
L 195.400227 176.287439 
L 195.891136 176.025366 
L 196.382045 177.370435 
L 196.872955 177.370435 
L 197.854773 177.112131 
L 198.345682 176.850989 
L 198.836591 176.719339 
L 200.800227 176.719339 
L 201.782045 176.45385 
L 203.745682 176.45385 
L 204.7275 176.185404 
L 205.709318 176.185404 
L 206.200227 176.050056 
L 206.691136 175.777079 
L 208.163864 175.361813 
L 208.654773 176.766136 
L 210.1275 176.766136 
L 210.618409 176.629744 
L 211.109318 176.629744 
L 211.600227 176.492571 
L 212.582045 176.492571 
L 213.072955 176.354613 
L 213.563864 176.354613 
L 214.054773 176.215862 
L 214.545682 176.215862 
L 215.036591 177.507052 
L 220.436591 177.507052 
L 220.9275 177.370435 
L 224.854773 177.370435 
L 225.345682 177.09481 
L 227.309318 177.09481 
L 227.800227 176.955789 
L 228.782045 176.391479 
L 231.236591 176.391479 
L 231.7275 176.248309 
L 232.218409 175.959403 
L 233.691136 175.959403 
L 234.182045 175.813653 
L 234.672955 175.813653 
L 235.163864 175.519518 
L 235.654773 175.519518 
L 236.145682 175.371118 
L 237.1275 175.371118 
L 237.618409 175.221818 
L 238.109318 175.221818 
L 238.600227 175.071611 
L 240.563864 175.071611 
L 241.545682 174.76844 
L 242.036591 174.461538 
L 243.018409 174.461538 
L 244.491136 173.994037 
L 245.472955 173.994037 
L 246.454773 173.6775 
L 247.9275 173.6775 
L 248.418409 173.517743 
L 249.400227 173.517743 
L 249.891136 173.195205 
L 252.345682 173.195205 
L 252.836591 172.868571 
L 253.3275 172.868571 
L 254.309318 172.202701 
L 255.291136 172.202701 
L 255.782045 172.033548 
L 257.745682 172.033548 
L 258.236591 173.456883 
L 258.7275 173.122353 
L 260.691136 173.122353 
L 261.182045 172.953443 
L 261.672955 172.953443 
L 262.654773 172.612277 
L 263.145682 172.612277 
L 263.636591 172.44 
L 264.618409 172.44 
L 265.109318 172.266578 
L 265.600227 172.266578 
L 266.091136 171.916254 
L 266.582045 171.916254 
L 267.072955 171.739329 
L 268.545682 171.739329 
L 269.036591 171.381892 
L 270.509318 171.381892 
L 271.000227 171.201356 
L 274.9275 171.201356 
L 275.418409 171.019592 
L 275.909318 171.019592 
L 276.400227 172.513973 
L 276.891136 172.513973 
L 277.382045 172.334845 
L 280.818409 172.334845 
L 281.309318 172.154483 
L 282.291136 172.154483 
L 282.782045 171.972872 
L 283.272955 171.972872 
L 283.763864 173.49993 
L 284.745682 173.49993 
L 285.236591 173.141053 
L 286.218409 173.141053 
L 286.709318 174.520851 
L 287.691136 174.520851 
L 288.182045 176.104286 
L 289.163864 176.104286 
L 289.654773 175.755108 
L 291.1275 175.755108 
L 291.618409 175.04146 
L 299.963864 175.04146 
L 300.454773 174.676765 
L 304.382045 174.676765 
L 304.872955 174.492399 
L 306.836591 174.492399 
L 307.3275 174.306667 
L 309.291136 174.306667 
L 309.782045 173.741124 
L 311.745682 173.741124 
L 312.236591 173.549774 
L 314.200227 173.549774 
L 314.691136 173.162727 
L 317.145682 173.162727 
L 317.636591 172.571034 
L 320.582045 172.571034 
L 321.072955 171.965581 
L 324.018409 171.965581 
L 324.509318 173.477647 
L 327.454773 173.477647 
L 327.945682 172.662311 
L 331.872955 172.662311 
L 332.363864 172.033548 
L 336.291136 172.033548 
L 336.782045 171.820567 
L 341.200227 171.820567 
L 341.691136 170.28 
L 347.091136 170.28 
L 347.582045 169.123404 
L 353.472955 169.123404 
L 353.963864 169.317876 
L 361.3275 169.317876 
L 361.818409 168.066244 
L 370.654773 168.066244 
L 371.145682 167.02341 
L 382.9275 167.02341 
L 383.418409 169.224466 
L 400.600227 169.224466 
L 400.600227 169.224466 
" style="fill:none;stroke:#8b0000;stroke-linecap:square;stroke-width:2;"/>
   </g>
   <g id="line2d_8">
    <path clip-path="url(#p323408c650)" d="M 106.054773 120.899542 
L 106.545682 120.581807 
L 107.036591 120.101538 
L 107.5275 120.101538 
L 108.018409 119.778889 
L 108.509318 120.133953 
L 109.491136 120.133953 
L 109.982045 119.808896 
L 110.472955 119.645607 
L 110.963864 119.645607 
L 111.454773 120.166875 
L 111.945682 120.00338 
L 112.436591 120.528226 
L 112.9275 120.528226 
L 113.418409 121.75041 
L 113.909318 121.42481 
L 114.400227 121.261236 
L 114.891136 121.796757 
L 115.382045 121.796757 
L 115.872955 121.632994 
L 116.363864 121.632994 
L 116.854773 121.468708 
L 117.345682 121.468708 
L 117.836591 121.303898 
L 118.3275 120.972692 
L 118.818409 120.135315 
L 119.309318 120.135315 
L 120.291136 119.45561 
L 121.763864 118.94 
L 122.254773 118.94 
L 122.745682 118.767005 
L 123.236591 118.767005 
L 123.7275 119.311921 
L 124.709318 118.964876 
L 125.200227 118.964876 
L 125.691136 121.14 
L 126.182045 122.602126 
L 128.145682 122.602126 
L 128.636591 122.432346 
L 130.109318 122.432346 
L 130.600227 122.998598 
L 131.091136 122.828629 
L 131.582045 124.142521 
L 132.072955 124.142521 
L 132.563864 123.803575 
L 134.036591 123.803575 
L 134.5275 124.551486 
L 135.018409 124.551486 
L 135.509318 124.382132 
L 136.000227 125.887538 
L 136.491136 125.887538 
L 136.982045 125.719592 
L 137.472955 125.38198 
L 137.963864 125.38198 
L 138.454773 125.212308 
L 139.9275 125.212308 
L 140.418409 125.803636 
L 140.909318 125.803636 
L 142.382045 125.292414 
L 142.872955 124.948651 
L 143.363864 124.775875 
L 143.854773 124.775875 
L 144.345682 125.373913 
L 145.3275 125.373913 
L 145.818409 125.200976 
L 146.309318 125.200976 
L 146.800227 124.853287 
L 147.782045 124.853287 
L 148.272955 124.678529 
L 148.763864 124.678529 
L 149.254773 125.107606 
L 150.7275 124.579115 
L 151.218409 125.365532 
L 151.709318 125.189201 
L 152.200227 125.189201 
L 152.691136 124.834652 
L 153.182045 124.656429 
L 154.163864 124.656429 
L 154.654773 124.477567 
L 155.636591 125.714595 
L 156.1275 126.517256 
L 156.618409 126.517256 
L 157.109318 126.339819 
L 157.600227 126.339819 
L 158.091136 125.803636 
L 158.582045 125.803636 
L 159.563864 125.44292 
L 161.5275 125.44292 
L 162.018409 126.255356 
L 162.509318 126.255356 
L 163.491136 125.894312 
L 163.982045 126.531713 
L 164.472955 126.531713 
L 164.963864 126.16902 
L 165.454773 126.16902 
L 165.945682 125.986667 
L 166.436591 125.619926 
L 166.9275 125.619926 
L 167.418409 126.264627 
L 167.909318 126.080748 
L 168.400227 126.080748 
L 168.891136 126.730807 
L 169.382045 126.362034 
L 169.872955 126.176604 
L 170.854773 126.176604 
L 171.836591 125.803636 
L 172.3275 125.803636 
L 173.309318 125.427833 
L 174.291136 126.937514 
L 174.782045 126.750345 
L 176.745682 126.750345 
L 177.236591 126.562457 
L 177.7275 127.231908 
L 178.218409 127.231908 
L 178.709318 128.093282 
L 179.200227 127.71907 
L 179.691136 127.71907 
L 180.182045 127.341946 
L 181.163864 126.961875 
L 183.618409 126.961875 
L 184.109318 126.770724 
L 185.091136 126.770724 
L 186.563864 126.192756 
L 187.054773 126.192756 
L 187.545682 125.99858 
L 188.036591 125.99858 
L 188.5275 125.803636 
L 189.018409 125.803636 
L 189.509318 126.684356 
L 190.000227 126.684356 
L 191.963864 125.902275 
L 192.454773 125.506533 
L 192.945682 125.506533 
L 193.9275 125.107606 
L 194.418409 125.107606 
L 194.909318 124.906935 
L 195.400227 124.906935 
L 195.891136 124.503158 
L 196.382045 125.402677 
L 196.872955 125.402677 
L 197.854773 124.998452 
L 198.345682 124.59092 
L 198.836591 124.385902 
L 200.800227 124.385902 
L 201.782045 123.973333 
L 203.745682 123.973333 
L 204.7275 125.803636 
L 205.709318 125.803636 
L 206.200227 125.599006 
L 206.691136 126.317339 
L 207.182045 127.245 
L 208.163864 126.83749 
L 208.654773 127.772075 
L 210.1275 127.772075 
L 210.618409 127.568571 
L 211.109318 127.568571 
L 211.600227 127.364211 
L 212.582045 127.364211 
L 213.072955 127.158987 
L 213.563864 127.158987 
L 214.054773 128.102156 
L 214.545682 128.102156 
L 215.036591 128.846369 
L 220.436591 128.846369 
L 220.9275 128.642553 
L 224.854773 128.642553 
L 225.345682 128.232308 
L 227.309318 128.232308 
L 227.800227 128.025867 
L 228.291136 127.610323 
L 228.782045 128.36527 
L 231.236591 128.36527 
L 232.218409 130.10087 
L 233.691136 130.10087 
L 234.182045 131.079216 
L 234.672955 131.079216 
L 235.163864 130.669759 
L 235.654773 130.669759 
L 236.145682 130.463684 
L 237.1275 130.463684 
L 237.618409 130.256703 
L 238.109318 130.256703 
L 238.600227 131.246167 
L 240.563864 131.246167 
L 241.545682 130.83292 
L 242.036591 131.624 
L 243.018409 131.624 
L 244.491136 130.999732 
L 245.472955 130.999732 
L 246.454773 130.578876 
L 247.9275 130.578876 
L 248.418409 130.367027 
L 249.400227 130.367027 
L 249.891136 129.940452 
L 252.345682 129.940452 
L 252.836591 129.51 
L 253.3275 129.51 
L 253.818409 131.557808 
L 254.309318 131.130826 
L 255.291136 131.130826 
L 255.782045 130.915862 
L 257.745682 130.915862 
L 258.7275 132.568538 
L 260.691136 132.568538 
L 261.182045 132.354419 
L 261.672955 132.354419 
L 262.654773 131.923178 
L 263.145682 131.923178 
L 263.636591 131.706042 
L 264.618409 131.706042 
L 265.109318 131.487887 
L 265.600227 131.487887 
L 266.091136 131.048491 
L 266.582045 131.048491 
L 267.072955 132.11234 
L 268.545682 132.11234 
L 269.036591 131.672779 
L 270.509318 131.672779 
L 271.000227 131.451429 
L 274.9275 131.451429 
L 275.418409 131.229021 
L 275.909318 131.229021 
L 276.400227 132.084604 
L 276.891136 132.084604 
L 277.382045 133.168846 
L 280.818409 133.168846 
L 281.309318 132.948434 
L 282.291136 132.948434 
L 282.782045 132.726957 
L 283.272955 132.726957 
L 283.763864 133.600194 
L 284.745682 133.600194 
L 285.236591 133.156098 
L 286.218409 133.156098 
L 286.709318 133.817396 
L 287.691136 133.817396 
L 288.182045 136.053333 
L 289.163864 136.053333 
L 289.654773 135.613697 
L 291.1275 135.613697 
L 291.618409 136.083609 
L 299.963864 136.083609 
L 300.454773 135.637481 
L 304.382045 135.637481 
L 304.872955 135.412727 
L 306.836591 135.412727 
L 307.3275 135.186835 
L 309.291136 135.186835 
L 309.782045 134.502245 
L 311.745682 134.502245 
L 312.236591 134.271714 
L 314.200227 134.271714 
L 314.691136 133.807095 
L 317.145682 133.807095 
L 317.636591 133.10114 
L 320.582045 133.10114 
L 321.072955 132.384125 
L 324.018409 132.384125 
L 324.509318 133.086316 
L 327.454773 133.086316 
L 327.945682 133.558085 
L 331.872955 133.558085 
L 332.363864 134.282895 
L 336.291136 134.282895 
L 336.782045 134.04 
L 341.200227 134.04 
L 341.691136 133.791781 
L 347.091136 133.791781 
L 347.582045 135.55 
L 353.472955 135.55 
L 353.963864 137.911795 
L 361.3275 137.911795 
L 361.818409 136.658497 
L 370.654773 136.658497 
L 371.145682 137.218947 
L 382.9275 137.218947 
L 383.418409 140.8829 
L 400.600227 140.8829 
L 400.600227 140.8829 
" style="fill:none;stroke:#000080;stroke-linecap:square;stroke-width:2;"/>
   </g>
   <g id="patch_3">
    <path d="M 91.3275 224.64 
L 91.3275 7.2 
" style="fill:none;stroke:#000000;stroke-linecap:square;stroke-linejoin:miter;"/>
   </g>
   <g id="patch_4">
    <path d="M 91.3275 224.64 
L 415.3275 224.64 
" style="fill:none;stroke:#000000;stroke-linecap:square;stroke-linejoin:miter;"/>
   </g>
  </g>
  <g id="axes_2">
   <g id="patch_5">
    <path d="M 431.5275 224.64 
L 755.5275 224.64 
L 755.5275 7.2 
L 431.5275 7.2 
z
" style="fill:none;"/>
   </g>
   <g id="matplotlib.axis_3">
    <g id="xtick_5">
     <g id="line2d_9">
      <g>
       <use style="stroke:#000000;stroke-width:0.8;" x="446.254773" xlink:href="#m45a29ac958" y="224.64"/>
      </g>
     </g>
     <g id="text_9">
      <!-- 1 -->
      <g transform="translate(437.347273 254.415625)scale(0.28 -0.28)">
       <use xlink:href="#DejaVuSans-49"/>
      </g>
     </g>
    </g>
    <g id="xtick_6">
     <g id="line2d_10">
      <g>
       <use style="stroke:#000000;stroke-width:0.8;" x="544.436591" xlink:href="#m45a29ac958" y="224.64"/>
      </g>
     </g>
     <g id="text_10">
      <!-- 2 -->
      <g transform="translate(535.529091 254.415625)scale(0.28 -0.28)">
       <use xlink:href="#DejaVuSans-50"/>
      </g>
     </g>
    </g>
    <g id="xtick_7">
     <g id="line2d_11">
      <g>
       <use style="stroke:#000000;stroke-width:0.8;" x="642.618409" xlink:href="#m45a29ac958" y="224.64"/>
      </g>
     </g>
     <g id="text_11">
      <!-- 3 -->
      <g transform="translate(633.710909 254.415625)scale(0.28 -0.28)">
       <use xlink:href="#DejaVuSans-51"/>
      </g>
     </g>
    </g>
    <g id="xtick_8">
     <g id="line2d_12">
      <g>
       <use style="stroke:#000000;stroke-width:0.8;" x="740.800227" xlink:href="#m45a29ac958" y="224.64"/>
      </g>
     </g>
     <g id="text_12">
      <!-- 4 -->
      <g transform="translate(731.892727 254.415625)scale(0.28 -0.28)">
       <use xlink:href="#DejaVuSans-52"/>
      </g>
     </g>
    </g>
    <g id="text_13">
     <!-- -log10 p-value -->
     <g transform="translate(492.6925 285.514375)scale(0.28 -0.28)">
      <use xlink:href="#DejaVuSans-45"/>
      <use x="36.083984" xlink:href="#DejaVuSans-108"/>
      <use x="63.867188" xlink:href="#DejaVuSans-111"/>
      <use x="125.048828" xlink:href="#DejaVuSans-103"/>
      <use x="188.525391" xlink:href="#DejaVuSans-49"/>
      <use x="252.148438" xlink:href="#DejaVuSans-48"/>
      <use x="315.771484" xlink:href="#DejaVuSans-32"/>
      <use x="347.558594" xlink:href="#DejaVuSans-112"/>
      <use x="411.035156" xlink:href="#DejaVuSans-45"/>
      <use x="447.087891" xlink:href="#DejaVuSans-118"/>
      <use x="506.267578" xlink:href="#DejaVuSans-97"/>
      <use x="567.546875" xlink:href="#DejaVuSans-108"/>
      <use x="595.330078" xlink:href="#DejaVuSans-117"/>
      <use x="658.708984" xlink:href="#DejaVuSans-101"/>
     </g>
    </g>
   </g>
   <g id="matplotlib.axis_4">
    <g id="ytick_3"/>
    <g id="ytick_4"/>
   </g>
   <g id="line2d_13">
    <path clip-path="url(#p3e561231d8)" d="M 446.254773 120.435527 
L 447.236591 119.765402 
L 447.7275 121.180645 
L 448.218409 120.508831 
L 453.1275 120.508831 
L 453.618409 123.381176 
L 457.054773 123.381176 
L 457.545682 124.831475 
L 458.036591 124.831475 
L 458.5275 126.291316 
L 459.018409 125.966733 
L 460.000227 125.966733 
L 460.982045 125.311096 
L 461.963864 125.311096 
L 462.945682 124.646689 
L 463.436591 124.646689 
L 464.418409 127.633939 
L 465.400227 126.976271 
L 469.818409 126.976271 
L 470.309318 126.644082 
L 472.272955 126.644082 
L 473.254773 125.972877 
L 473.745682 127.166897 
L 476.691136 127.166897 
L 477.182045 128.042091 
L 478.163864 128.042091 
L 478.654773 129.605035 
L 480.618409 129.605035 
L 481.109318 131.178947 
L 481.600227 131.178947 
L 482.091136 132.439293 
L 482.582045 132.439293 
L 483.072955 134.04 
L 485.036591 134.04 
L 485.5275 135.6521 
L 486.018409 135.6521 
L 486.509318 137.275714 
L 488.472955 137.275714 
L 488.963864 136.962581 
L 489.945682 136.962581 
L 490.436591 138.60259 
L 490.9275 138.60259 
L 491.418409 138.291986 
L 493.382045 138.291986 
L 493.872955 139.948696 
L 495.345682 139.948696 
L 495.836591 141.617455 
L 497.800227 141.617455 
L 498.782045 141.009231 
L 499.272955 141.009231 
L 499.763864 142.700294 
L 506.636591 142.700294 
L 507.1275 142.397934 
L 509.582045 142.397934 
L 510.072955 144.106667 
L 513.018409 144.106667 
L 513.509318 143.807286 
L 517.9275 143.807286 
L 518.418409 145.53403 
L 518.909318 145.53403 
L 519.400227 145.237753 
L 519.891136 145.237753 
L 520.382045 148.741132 
L 523.818409 148.741132 
L 524.309318 150.230875 
L 525.291136 150.230875 
L 525.782045 149.94687 
L 528.236591 149.94687 
L 528.7275 151.743448 
L 532.163864 151.743448 
L 532.654773 153.553846 
L 533.145682 153.553846 
L 533.636591 153.279382 
L 547.872955 153.279382 
L 548.363864 155.109767 
L 549.345682 155.109767 
L 549.836591 156.954397 
L 550.3275 156.954397 
L 550.818409 158.813438 
L 554.745682 158.813438 
L 555.236591 158.555294 
L 563.091136 158.555294 
L 563.582045 160.435276 
L 564.072955 160.435276 
L 564.563864 160.181502 
L 566.5275 160.181502 
L 567.018409 163.999363 
L 570.454773 163.999363 
L 570.945682 165.9312 
L 573.400227 165.9312 
L 573.891136 167.878554 
L 574.382045 167.878554 
L 574.872955 169.841613 
L 575.363864 169.841613 
L 575.854773 173.608163 
L 580.272955 173.608163 
L 580.763864 173.399016 
L 581.254773 173.399016 
L 581.745682 173.188148 
L 582.7275 173.188148 
L 583.218409 175.016763 
L 584.200227 175.016763 
L 584.691136 177.075 
L 590.091136 177.075 
L 590.582045 179.15046 
L 591.563864 179.15046 
L 592.054773 181.243361 
L 595.000227 181.243361 
L 595.491136 181.060253 
L 598.436591 181.060253 
L 598.9275 180.875593 
L 632.800227 180.875593 
L 633.291136 183.002553 
L 636.236591 183.002553 
L 636.7275 182.824615 
L 644.582045 182.824615 
L 645.072955 182.64515 
L 667.654773 182.64515 
L 668.145682 184.807241 
L 701.5275 184.807241 
L 702.018409 184.634805 
L 723.1275 184.634805 
L 723.618409 186.492632 
L 740.800227 186.492632 
L 740.800227 186.492632 
" style="fill:none;stroke:#8b0000;stroke-linecap:square;stroke-width:2;"/>
   </g>
   <g id="line2d_14">
    <path clip-path="url(#p3e561231d8)" d="M 446.254773 159.033103 
L 447.7275 157.882105 
L 448.218409 157.092071 
L 453.1275 157.092071 
L 453.618409 156.283114 
L 457.054773 156.283114 
L 457.545682 155.871325 
L 458.036591 155.871325 
L 459.018409 155.032683 
L 460.000227 155.032683 
L 460.982045 154.173333 
L 461.963864 154.173333 
L 462.945682 153.2925 
L 463.436591 153.2925 
L 464.418409 159.27038 
L 465.400227 158.432308 
L 469.818409 158.432308 
L 470.309318 158.005161 
L 472.272955 158.005161 
L 473.254773 157.134118 
L 473.745682 156.24 
L 476.691136 156.24 
L 477.182045 154.853514 
L 478.163864 154.853514 
L 478.654773 154.378776 
L 480.618409 154.378776 
L 481.109318 153.897534 
L 481.600227 153.897534 
L 482.091136 156.69 
L 482.582045 156.69 
L 483.072955 156.214825 
L 485.036591 156.214825 
L 485.5275 159.561127 
L 486.018409 159.561127 
L 486.509318 159.099574 
L 488.472955 159.099574 
L 488.963864 158.631429 
L 489.945682 158.631429 
L 490.436591 158.156547 
L 490.9275 158.156547 
L 491.418409 157.674783 
L 493.382045 157.674783 
L 493.872955 157.185985 
L 495.345682 157.185985 
L 495.836591 156.69 
L 497.800227 156.69 
L 498.782045 155.675821 
L 499.272955 155.675821 
L 499.763864 155.157293 
L 506.636591 155.157293 
L 507.1275 154.630909 
L 509.582045 154.630909 
L 510.072955 154.096489 
L 513.018409 154.096489 
L 513.509318 153.553846 
L 517.9275 153.553846 
L 518.418409 153.002791 
L 518.909318 153.002791 
L 519.400227 152.443125 
L 519.891136 152.443125 
L 520.382045 155.611429 
L 523.818409 155.611429 
L 524.309318 154.498065 
L 525.291136 154.498065 
L 525.782045 153.927805 
L 528.236591 153.927805 
L 528.7275 153.348197 
L 532.163864 153.348197 
L 532.654773 152.759008 
L 533.145682 152.759008 
L 533.636591 152.16 
L 547.872955 152.16 
L 548.363864 151.550924 
L 549.345682 151.550924 
L 549.836591 150.931525 
L 550.3275 150.931525 
L 550.818409 150.301538 
L 554.745682 150.301538 
L 555.236591 149.66069 
L 563.091136 149.66069 
L 563.582045 153.735652 
L 564.072955 153.735652 
L 564.563864 153.113684 
L 566.5275 153.113684 
L 567.018409 156.69 
L 570.454773 156.69 
L 570.945682 156.077838 
L 573.400227 156.077838 
L 573.891136 155.454545 
L 574.382045 155.454545 
L 574.872955 154.819817 
L 575.363864 154.819817 
L 575.854773 157.972075 
L 580.272955 157.972075 
L 580.763864 157.337143 
L 581.254773 157.337143 
L 581.745682 156.69 
L 582.7275 156.69 
L 583.218409 155.357647 
L 584.200227 155.357647 
L 584.691136 154.671683 
L 590.091136 154.671683 
L 590.582045 153.972 
L 591.563864 153.972 
L 592.054773 158.749091 
L 595.000227 158.749091 
L 595.491136 158.076735 
L 598.436591 158.076735 
L 598.9275 157.390515 
L 632.800227 157.390515 
L 633.291136 156.69 
L 636.236591 156.69 
L 636.7275 155.974737 
L 644.582045 155.974737 
L 645.072955 155.244255 
L 667.654773 155.244255 
L 668.145682 160.343226 
L 701.5275 160.343226 
L 702.018409 159.644348 
L 723.1275 159.644348 
L 723.618409 163.561348 
L 740.800227 163.561348 
L 740.800227 163.561348 
" style="fill:none;stroke:#000080;stroke-linecap:square;stroke-width:2;"/>
   </g>
   <g id="patch_6">
    <path d="M 431.5275 224.64 
L 431.5275 7.2 
" style="fill:none;stroke:#000000;stroke-linecap:square;stroke-linejoin:miter;"/>
   </g>
   <g id="patch_7">
    <path d="M 431.5275 224.64 
L 755.5275 224.64 
" style="fill:none;stroke:#000000;stroke-linecap:square;stroke-linejoin:miter;"/>
   </g>
  </g>
  <g id="axes_3">
   <g id="patch_8">
    <path d="M 771.7275 224.64 
L 1095.7275 224.64 
L 1095.7275 7.2 
L 771.7275 7.2 
z
" style="fill:none;"/>
   </g>
   <g id="matplotlib.axis_5">
    <g id="xtick_9">
     <g id="line2d_15">
      <g>
       <use style="stroke:#000000;stroke-width:0.8;" x="786.454773" xlink:href="#m45a29ac958" y="224.64"/>
      </g>
     </g>
     <g id="text_14">
      <!-- 1 -->
      <g transform="translate(777.547273 254.415625)scale(0.28 -0.28)">
       <use xlink:href="#DejaVuSans-49"/>
      </g>
     </g>
    </g>
    <g id="xtick_10">
     <g id="line2d_16">
      <g>
       <use style="stroke:#000000;stroke-width:0.8;" x="884.636591" xlink:href="#m45a29ac958" y="224.64"/>
      </g>
     </g>
     <g id="text_15">
      <!-- 2 -->
      <g transform="translate(875.729091 254.415625)scale(0.28 -0.28)">
       <use xlink:href="#DejaVuSans-50"/>
      </g>
     </g>
    </g>
    <g id="xtick_11">
     <g id="line2d_17">
      <g>
       <use style="stroke:#000000;stroke-width:0.8;" x="982.818409" xlink:href="#m45a29ac958" y="224.64"/>
      </g>
     </g>
     <g id="text_16">
      <!-- 3 -->
      <g transform="translate(973.910909 254.415625)scale(0.28 -0.28)">
       <use xlink:href="#DejaVuSans-51"/>
      </g>
     </g>
    </g>
    <g id="xtick_12">
     <g id="line2d_18">
      <g>
       <use style="stroke:#000000;stroke-width:0.8;" x="1081.000227" xlink:href="#m45a29ac958" y="224.64"/>
      </g>
     </g>
     <g id="text_17">
      <!-- 4 -->
      <g transform="translate(1072.092727 254.415625)scale(0.28 -0.28)">
       <use xlink:href="#DejaVuSans-52"/>
      </g>
     </g>
    </g>
    <g id="text_18">
     <!-- -log10 p-value -->
     <g transform="translate(832.8925 285.514375)scale(0.28 -0.28)">
      <use xlink:href="#DejaVuSans-45"/>
      <use x="36.083984" xlink:href="#DejaVuSans-108"/>
      <use x="63.867188" xlink:href="#DejaVuSans-111"/>
      <use x="125.048828" xlink:href="#DejaVuSans-103"/>
      <use x="188.525391" xlink:href="#DejaVuSans-49"/>
      <use x="252.148438" xlink:href="#DejaVuSans-48"/>
      <use x="315.771484" xlink:href="#DejaVuSans-32"/>
      <use x="347.558594" xlink:href="#DejaVuSans-112"/>
      <use x="411.035156" xlink:href="#DejaVuSans-45"/>
      <use x="447.087891" xlink:href="#DejaVuSans-118"/>
      <use x="506.267578" xlink:href="#DejaVuSans-97"/>
      <use x="567.546875" xlink:href="#DejaVuSans-108"/>
      <use x="595.330078" xlink:href="#DejaVuSans-117"/>
      <use x="658.708984" xlink:href="#DejaVuSans-101"/>
     </g>
    </g>
   </g>
   <g id="matplotlib.axis_6">
    <g id="ytick_5"/>
    <g id="ytick_6"/>
   </g>
   <g id="line2d_19">
    <path clip-path="url(#pd778ff27cb)" d="M 786.454773 35.06521 
L 787.436591 35.06521 
L 788.418409 36.558987 
L 793.818409 36.558987 
L 794.800227 38.065424 
L 795.291136 39.584681 
L 799.709318 39.584681 
L 800.200227 40.349168 
L 800.691136 40.349168 
L 801.182045 41.116923 
L 801.672955 41.116923 
L 802.163864 41.887966 
L 802.654773 41.887966 
L 803.145682 42.662318 
L 804.1275 42.662318 
L 804.618409 43.44 
L 807.563864 43.44 
L 808.054773 44.221034 
L 810.018409 44.221034 
L 811.982045 47.37913 
L 813.454773 47.37913 
L 813.945682 48.177255 
L 814.436591 48.177255 
L 815.418409 49.783982 
L 818.854773 49.783982 
L 819.345682 50.592632 
L 820.3275 50.592632 
L 820.818409 50.21011 
L 821.309318 50.21011 
L 821.800227 51.02326 
L 824.745682 51.02326 
L 825.236591 51.84 
L 825.7275 51.84 
L 826.218409 52.660354 
L 826.709318 52.660354 
L 827.200227 53.104 
L 827.691136 53.93265 
L 829.163864 53.93265 
L 829.654773 53.551607 
L 831.1275 53.551607 
L 831.618409 54.384966 
L 838.000227 54.384966 
L 838.491136 55.222063 
L 838.982045 55.222063 
L 839.963864 56.907568 
L 841.9275 56.907568 
L 842.418409 57.756027 
L 843.400227 57.756027 
L 843.891136 58.608326 
L 845.854773 58.608326 
L 846.345682 58.231837 
L 847.818409 58.231837 
L 848.309318 59.950251 
L 848.800227 59.950251 
L 849.291136 60.815342 
L 850.763864 60.815342 
L 851.254773 61.684394 
L 856.163864 61.684394 
L 856.654773 62.557431 
L 858.1275 62.557431 
L 858.618409 63.434483 
L 859.109318 63.434483 
L 859.600227 64.315576 
L 863.5275 64.315576 
L 864.018409 65.200739 
L 866.472955 65.200739 
L 866.963864 66.09 
L 868.9275 66.09 
L 869.418409 66.983387 
L 870.891136 66.983387 
L 871.382045 67.88093 
L 871.872955 67.88093 
L 872.363864 68.782657 
L 872.854773 68.782657 
L 873.345682 69.688598 
L 873.836591 69.688598 
L 874.3275 71.513239 
L 876.782045 71.513239 
L 877.272955 73.355094 
L 882.182045 73.355094 
L 882.672955 74.282553 
L 885.618409 74.282553 
L 886.109318 75.214408 
L 888.563864 75.214408 
L 889.054773 76.150689 
L 889.545682 76.150689 
L 890.036591 78.036659 
L 895.436591 78.036659 
L 895.9275 78.986411 
L 901.3275 78.986411 
L 901.818409 79.940719 
L 904.272955 79.940719 
L 904.763864 80.899615 
L 915.072955 80.899615 
L 916.054773 84.781748 
L 916.545682 84.781748 
L 917.036591 85.764088 
L 918.509318 85.764088 
L 919.000227 86.75122 
L 922.436591 86.75122 
L 922.9275 87.743178 
L 923.909318 87.743178 
L 924.400227 88.74 
L 927.836591 88.74 
L 928.3275 88.406093 
L 930.782045 88.406093 
L 931.272955 89.409458 
L 932.745682 89.409458 
L 933.236591 91.431089 
L 935.691136 91.431089 
L 936.182045 94.501347 
L 937.163864 94.501347 
L 937.654773 95.535 
L 938.636591 95.535 
L 939.1275 96.573835 
L 939.618409 96.573835 
L 940.600227 98.667204 
L 944.5275 98.667204 
L 945.018409 99.721818 
L 946.982045 99.721818 
L 947.472955 100.781772 
L 949.9275 100.781772 
L 950.418409 102.917863 
L 950.909318 102.917863 
L 951.400227 103.994082 
L 952.872955 103.994082 
L 953.363864 105.075806 
L 973.000227 105.075806 
L 973.491136 106.163077 
L 992.145682 106.163077 
L 992.636591 108.354433 
L 994.600227 108.354433 
L 995.091136 109.458605 
L 1000.982045 109.458605 
L 1001.472955 110.272208 
L 1004.418409 110.272208 
L 1004.909318 111.39 
L 1012.272955 111.39 
L 1012.763864 112.513629 
L 1016.691136 112.513629 
L 1017.182045 113.643141 
L 1021.600227 113.643141 
L 1022.091136 114.778583 
L 1027.491136 114.778583 
L 1027.982045 117.067441 
L 1033.872955 117.067441 
L 1034.363864 118.220952 
L 1041.7275 118.220952 
L 1042.218409 120.546383 
L 1051.054773 120.546383 
L 1051.545682 125.272258 
L 1063.3275 125.272258 
L 1063.818409 130.10087 
L 1081.000227 130.10087 
L 1081.000227 130.10087 
" style="fill:none;stroke:#8b0000;stroke-linecap:square;stroke-width:2;"/>
   </g>
   <g id="line2d_20">
    <path clip-path="url(#pd778ff27cb)" d="M 786.454773 103.84 
L 787.436591 103.84 
L 788.418409 102.907181 
L 793.818409 102.907181 
L 794.309318 102.435349 
L 794.800227 104.075019 
L 795.291136 105.261176 
L 799.709318 105.261176 
L 800.200227 104.791181 
L 800.691136 104.791181 
L 801.182045 104.31747 
L 801.672955 104.31747 
L 802.163864 103.84 
L 802.654773 103.84 
L 803.145682 103.358725 
L 804.1275 103.358725 
L 804.618409 102.8736 
L 807.563864 102.8736 
L 808.054773 102.384578 
L 810.018409 102.384578 
L 810.509318 104.083548 
L 811.000227 103.595466 
L 811.982045 107.044898 
L 813.454773 107.044898 
L 813.945682 106.562951 
L 814.436591 106.562951 
L 815.418409 105.587107 
L 818.854773 105.587107 
L 819.345682 105.093112 
L 820.3275 105.093112 
L 820.818409 104.595 
L 821.309318 104.595 
L 821.800227 106.367197 
L 824.745682 106.367197 
L 825.236591 105.870252 
L 825.7275 105.870252 
L 826.218409 105.369114 
L 826.709318 105.369114 
L 827.200227 106.667234 
L 827.691136 106.163077 
L 829.163864 106.163077 
L 829.654773 105.654592 
L 831.1275 105.654592 
L 831.618409 105.141724 
L 838.000227 105.141724 
L 838.491136 106.977662 
L 838.982045 106.977662 
L 839.472955 106.466087 
L 839.963864 108.323843 
L 841.9275 108.323843 
L 842.418409 110.197895 
L 843.400227 110.197895 
L 843.891136 109.693744 
L 845.854773 109.693744 
L 846.345682 109.185133 
L 847.818409 109.185133 
L 848.309318 110.581071 
L 848.800227 110.581071 
L 849.291136 110.069596 
L 850.763864 110.069596 
L 851.254773 109.553514 
L 856.163864 109.553514 
L 856.654773 111.492489 
L 858.1275 111.492489 
L 858.618409 110.978182 
L 859.109318 110.978182 
L 859.600227 110.459178 
L 863.5275 110.459178 
L 864.018409 109.935413 
L 866.472955 109.935413 
L 866.963864 109.40682 
L 868.9275 109.40682 
L 869.418409 108.873333 
L 870.891136 108.873333 
L 871.382045 108.334884 
L 871.872955 108.334884 
L 872.363864 107.791402 
L 872.854773 107.791402 
L 873.345682 107.242817 
L 873.836591 107.242817 
L 874.3275 108.706351 
L 876.782045 108.706351 
L 877.272955 107.596938 
L 882.182045 107.596938 
L 882.672955 107.034231 
L 885.618409 107.034231 
L 886.109318 106.466087 
L 888.563864 106.466087 
L 889.054773 108.531262 
L 889.545682 108.531262 
L 890.036591 110.057647 
L 895.436591 110.057647 
L 895.9275 109.493202 
L 901.3275 109.493202 
L 901.818409 108.923168 
L 904.272955 108.923168 
L 904.763864 108.347463 
L 915.072955 108.347463 
L 916.054773 111.504975 
L 916.545682 111.504975 
L 917.036591 113.701224 
L 918.509318 113.701224 
L 919.000227 113.132308 
L 922.436591 113.132308 
L 922.9275 112.557526 
L 923.909318 112.557526 
L 924.400227 111.976788 
L 927.836591 111.976788 
L 928.3275 111.39 
L 930.782045 111.39 
L 931.272955 110.797068 
L 932.745682 110.797068 
L 933.236591 109.592381 
L 935.691136 109.592381 
L 936.182045 107.736774 
L 937.163864 107.736774 
L 937.654773 110.043243 
L 938.636591 110.043243 
L 939.1275 109.420435 
L 939.618409 109.420435 
L 940.109318 108.79082 
L 940.600227 111.141099 
L 944.5275 111.141099 
L 945.018409 113.517348 
L 946.982045 113.517348 
L 947.472955 112.9 
L 949.9275 112.9 
L 950.418409 114.698427 
L 950.909318 114.698427 
L 951.400227 117.148475 
L 952.872955 117.148475 
L 953.363864 116.537727 
L 973.000227 116.537727 
L 973.491136 115.92 
L 992.145682 115.92 
L 992.636591 114.663121 
L 994.600227 114.663121 
L 995.091136 114.023721 
L 1000.982045 114.023721 
L 1001.472955 115.92 
L 1004.418409 115.92 
L 1004.909318 118.493254 
L 1012.272955 118.493254 
L 1012.763864 117.861429 
L 1016.691136 117.861429 
L 1017.182045 120.477126 
L 1021.600227 120.477126 
L 1022.091136 123.124337 
L 1027.491136 123.124337 
L 1027.982045 125.200976 
L 1033.872955 125.200976 
L 1034.363864 124.59092 
L 1041.7275 124.59092 
L 1042.218409 123.348075 
L 1051.054773 123.348075 
L 1051.545682 124.229809 
L 1063.3275 124.229809 
L 1063.818409 132.263529 
L 1081.000227 132.263529 
L 1081.000227 132.263529 
" style="fill:none;stroke:#000080;stroke-linecap:square;stroke-width:2;"/>
   </g>
   <g id="patch_9">
    <path d="M 771.7275 224.64 
L 771.7275 7.2 
" style="fill:none;stroke:#000000;stroke-linecap:square;stroke-linejoin:miter;"/>
   </g>
   <g id="patch_10">
    <path d="M 771.7275 224.64 
L 1095.7275 224.64 
" style="fill:none;stroke:#000000;stroke-linecap:square;stroke-linejoin:miter;"/>
   </g>
  </g>
 </g>
 <defs>
  <clipPath id="p323408c650">
   <rect height="217.44" width="324" x="91.3275" y="7.2"/>
  </clipPath>
  <clipPath id="p3e561231d8">
   <rect height="217.44" width="324" x="431.5275" y="7.2"/>
  </clipPath>
  <clipPath id="pd778ff27cb">
   <rect height="217.44" width="324" x="771.7275" y="7.2"/>
  </clipPath>
 </defs>
</svg>
