<?xml version="1.0" encoding="utf-8" standalone="no"?>
<!DOCTYPE svg PUBLIC "-//W3C//DTD SVG 1.1//EN"
  "http://www.w3.org/Graphics/SVG/1.1/DTD/svg11.dtd">
<!-- Created with matplotlib (https://matplotlib.org/) -->
<svg height="363.535312pt" version="1.1" viewBox="0 0 1102.9275 363.535312" width="1102.9275pt" xmlns="http://www.w3.org/2000/svg" xmlns:xlink="http://www.w3.org/1999/xlink">
 <defs>
  <style type="text/css">
*{stroke-linecap:butt;stroke-linejoin:round;}
  </style>
 </defs>
 <g id="figure_1">
  <g id="patch_1">
   <path d="M 0 363.535312 
L 1102.9275 363.535312 
L 1102.9275 -0 
L 0 -0 
z
" style="fill:none;"/>
  </g>
  <g id="axes_1">
   <g id="patch_2">
    <path d="M 91.3275 289.637812 
L 415.3275 289.637812 
L 415.3275 17.837813 
L 91.3275 17.837813 
z
" style="fill:none;"/>
   </g>
   <g id="matplotlib.axis_1">
    <g id="xtick_1">
     <g id="line2d_1">
      <defs>
       <path d="M 0 0 
L 0 5 
" id="m7f2b002762" style="stroke:#000000;stroke-width:0.8;"/>
      </defs>
      <g>
       <use style="stroke:#000000;stroke-width:0.8;" x="106.054773" xlink:href="#m7f2b002762" y="289.637812"/>
      </g>
     </g>
     <g id="text_1">
      <!-- 1 -->
      <defs>
       <path d="M 12.40625 8.296875 
L 28.515625 8.296875 
L 28.515625 63.921875 
L 10.984375 60.40625 
L 10.984375 69.390625 
L 28.421875 72.90625 
L 38.28125 72.90625 
L 38.28125 8.296875 
L 54.390625 8.296875 
L 54.390625 0 
L 12.40625 0 
z
" id="DejaVuSans-49"/>
      </defs>
      <g transform="translate(97.147273 319.413437)scale(0.28 -0.28)">
       <use xlink:href="#DejaVuSans-49"/>
      </g>
     </g>
    </g>
    <g id="xtick_2">
     <g id="line2d_2">
      <g>
       <use style="stroke:#000000;stroke-width:0.8;" x="179.691136" xlink:href="#m7f2b002762" y="289.637812"/>
      </g>
     </g>
     <g id="text_2">
      <!-- 2 -->
      <defs>
       <path d="M 19.1875 8.296875 
L 53.609375 8.296875 
L 53.609375 0 
L 7.328125 0 
L 7.328125 8.296875 
Q 12.9375 14.109375 22.625 23.890625 
Q 32.328125 33.6875 34.8125 36.53125 
Q 39.546875 41.84375 41.421875 45.53125 
Q 43.3125 49.21875 43.3125 52.78125 
Q 43.3125 58.59375 39.234375 62.25 
Q 35.15625 65.921875 28.609375 65.921875 
Q 23.96875 65.921875 18.8125 64.3125 
Q 13.671875 62.703125 7.8125 59.421875 
L 7.8125 69.390625 
Q 13.765625 71.78125 18.9375 73 
Q 24.125 74.21875 28.421875 74.21875 
Q 39.75 74.21875 46.484375 68.546875 
Q 53.21875 62.890625 53.21875 53.421875 
Q 53.21875 48.921875 51.53125 44.890625 
Q 49.859375 40.875 45.40625 35.40625 
Q 44.1875 33.984375 37.640625 27.21875 
Q 31.109375 20.453125 19.1875 8.296875 
z
" id="DejaVuSans-50"/>
      </defs>
      <g transform="translate(170.783636 319.413437)scale(0.28 -0.28)">
       <use xlink:href="#DejaVuSans-50"/>
      </g>
     </g>
    </g>
    <g id="xtick_3">
     <g id="line2d_3">
      <g>
       <use style="stroke:#000000;stroke-width:0.8;" x="253.3275" xlink:href="#m7f2b002762" y="289.637812"/>
      </g>
     </g>
     <g id="text_3">
      <!-- 3 -->
      <defs>
       <path d="M 40.578125 39.3125 
Q 47.65625 37.796875 51.625 33 
Q 55.609375 28.21875 55.609375 21.1875 
Q 55.609375 10.40625 48.1875 4.484375 
Q 40.765625 -1.421875 27.09375 -1.421875 
Q 22.515625 -1.421875 17.65625 -0.515625 
Q 12.796875 0.390625 7.625 2.203125 
L 7.625 11.71875 
Q 11.71875 9.328125 16.59375 8.109375 
Q 21.484375 6.890625 26.8125 6.890625 
Q 36.078125 6.890625 40.9375 10.546875 
Q 45.796875 14.203125 45.796875 21.1875 
Q 45.796875 27.640625 41.28125 31.265625 
Q 36.765625 34.90625 28.71875 34.90625 
L 20.21875 34.90625 
L 20.21875 43.015625 
L 29.109375 43.015625 
Q 36.375 43.015625 40.234375 45.921875 
Q 44.09375 48.828125 44.09375 54.296875 
Q 44.09375 59.90625 40.109375 62.90625 
Q 36.140625 65.921875 28.71875 65.921875 
Q 24.65625 65.921875 20.015625 65.03125 
Q 15.375 64.15625 9.8125 62.3125 
L 9.8125 71.09375 
Q 15.4375 72.65625 20.34375 73.4375 
Q 25.25 74.21875 29.59375 74.21875 
Q 40.828125 74.21875 47.359375 69.109375 
Q 53.90625 64.015625 53.90625 55.328125 
Q 53.90625 49.265625 50.4375 45.09375 
Q 46.96875 40.921875 40.578125 39.3125 
z
" id="DejaVuSans-51"/>
      </defs>
      <g transform="translate(244.42 319.413437)scale(0.28 -0.28)">
       <use xlink:href="#DejaVuSans-51"/>
      </g>
     </g>
    </g>
    <g id="xtick_4">
     <g id="line2d_4">
      <g>
       <use style="stroke:#000000;stroke-width:0.8;" x="326.963864" xlink:href="#m7f2b002762" y="289.637812"/>
      </g>
     </g>
     <g id="text_4">
      <!-- 4 -->
      <defs>
       <path d="M 37.796875 64.3125 
L 12.890625 25.390625 
L 37.796875 25.390625 
z
M 35.203125 72.90625 
L 47.609375 72.90625 
L 47.609375 25.390625 
L 58.015625 25.390625 
L 58.015625 17.1875 
L 47.609375 17.1875 
L 47.609375 0 
L 37.796875 0 
L 37.796875 17.1875 
L 4.890625 17.1875 
L 4.890625 26.703125 
z
" id="DejaVuSans-52"/>
      </defs>
      <g transform="translate(318.056364 319.413437)scale(0.28 -0.28)">
       <use xlink:href="#DejaVuSans-52"/>
      </g>
     </g>
    </g>
    <g id="xtick_5">
     <g id="line2d_5">
      <g>
       <use style="stroke:#000000;stroke-width:0.8;" x="400.600227" xlink:href="#m7f2b002762" y="289.637812"/>
      </g>
     </g>
     <g id="text_5">
      <!-- 5 -->
      <defs>
       <path d="M 10.796875 72.90625 
L 49.515625 72.90625 
L 49.515625 64.59375 
L 19.828125 64.59375 
L 19.828125 46.734375 
Q 21.96875 47.46875 24.109375 47.828125 
Q 26.265625 48.1875 28.421875 48.1875 
Q 40.625 48.1875 47.75 41.5 
Q 54.890625 34.8125 54.890625 23.390625 
Q 54.890625 11.625 47.5625 5.09375 
Q 40.234375 -1.421875 26.90625 -1.421875 
Q 22.3125 -1.421875 17.546875 -0.640625 
Q 12.796875 0.140625 7.71875 1.703125 
L 7.71875 11.625 
Q 12.109375 9.234375 16.796875 8.0625 
Q 21.484375 6.890625 26.703125 6.890625 
Q 35.15625 6.890625 40.078125 11.328125 
Q 45.015625 15.765625 45.015625 23.390625 
Q 45.015625 31 40.078125 35.4375 
Q 35.15625 39.890625 26.703125 39.890625 
Q 22.75 39.890625 18.8125 39.015625 
Q 14.890625 38.140625 10.796875 36.28125 
z
" id="DejaVuSans-53"/>
      </defs>
      <g transform="translate(391.692727 319.413437)scale(0.28 -0.28)">
       <use xlink:href="#DejaVuSans-53"/>
      </g>
     </g>
    </g>
    <g id="text_6">
     <!-- -log10 p-value -->
     <defs>
      <path d="M 4.890625 31.390625 
L 31.203125 31.390625 
L 31.203125 23.390625 
L 4.890625 23.390625 
z
" id="DejaVuSans-45"/>
      <path d="M 9.421875 75.984375 
L 18.40625 75.984375 
L 18.40625 0 
L 9.421875 0 
z
" id="DejaVuSans-108"/>
      <path d="M 30.609375 48.390625 
Q 23.390625 48.390625 19.1875 42.75 
Q 14.984375 37.109375 14.984375 27.296875 
Q 14.984375 17.484375 19.15625 11.84375 
Q 23.34375 6.203125 30.609375 6.203125 
Q 37.796875 6.203125 41.984375 11.859375 
Q 46.1875 17.53125 46.1875 27.296875 
Q 46.1875 37.015625 41.984375 42.703125 
Q 37.796875 48.390625 30.609375 48.390625 
z
M 30.609375 56 
Q 42.328125 56 49.015625 48.375 
Q 55.71875 40.765625 55.71875 27.296875 
Q 55.71875 13.875 49.015625 6.21875 
Q 42.328125 -1.421875 30.609375 -1.421875 
Q 18.84375 -1.421875 12.171875 6.21875 
Q 5.515625 13.875 5.515625 27.296875 
Q 5.515625 40.765625 12.171875 48.375 
Q 18.84375 56 30.609375 56 
z
" id="DejaVuSans-111"/>
      <path d="M 45.40625 27.984375 
Q 45.40625 37.75 41.375 43.109375 
Q 37.359375 48.484375 30.078125 48.484375 
Q 22.859375 48.484375 18.828125 43.109375 
Q 14.796875 37.75 14.796875 27.984375 
Q 14.796875 18.265625 18.828125 12.890625 
Q 22.859375 7.515625 30.078125 7.515625 
Q 37.359375 7.515625 41.375 12.890625 
Q 45.40625 18.265625 45.40625 27.984375 
z
M 54.390625 6.78125 
Q 54.390625 -7.171875 48.1875 -13.984375 
Q 42 -20.796875 29.203125 -20.796875 
Q 24.46875 -20.796875 20.265625 -20.09375 
Q 16.0625 -19.390625 12.109375 -17.921875 
L 12.109375 -9.1875 
Q 16.0625 -11.328125 19.921875 -12.34375 
Q 23.78125 -13.375 27.78125 -13.375 
Q 36.625 -13.375 41.015625 -8.765625 
Q 45.40625 -4.15625 45.40625 5.171875 
L 45.40625 9.625 
Q 42.625 4.78125 38.28125 2.390625 
Q 33.9375 0 27.875 0 
Q 17.828125 0 11.671875 7.65625 
Q 5.515625 15.328125 5.515625 27.984375 
Q 5.515625 40.671875 11.671875 48.328125 
Q 17.828125 56 27.875 56 
Q 33.9375 56 38.28125 53.609375 
Q 42.625 51.21875 45.40625 46.390625 
L 45.40625 54.6875 
L 54.390625 54.6875 
z
" id="DejaVuSans-103"/>
      <path d="M 31.78125 66.40625 
Q 24.171875 66.40625 20.328125 58.90625 
Q 16.5 51.421875 16.5 36.375 
Q 16.5 21.390625 20.328125 13.890625 
Q 24.171875 6.390625 31.78125 6.390625 
Q 39.453125 6.390625 43.28125 13.890625 
Q 47.125 21.390625 47.125 36.375 
Q 47.125 51.421875 43.28125 58.90625 
Q 39.453125 66.40625 31.78125 66.40625 
z
M 31.78125 74.21875 
Q 44.046875 74.21875 50.515625 64.515625 
Q 56.984375 54.828125 56.984375 36.375 
Q 56.984375 17.96875 50.515625 8.265625 
Q 44.046875 -1.421875 31.78125 -1.421875 
Q 19.53125 -1.421875 13.0625 8.265625 
Q 6.59375 17.96875 6.59375 36.375 
Q 6.59375 54.828125 13.0625 64.515625 
Q 19.53125 74.21875 31.78125 74.21875 
z
" id="DejaVuSans-48"/>
      <path id="DejaVuSans-32"/>
      <path d="M 18.109375 8.203125 
L 18.109375 -20.796875 
L 9.078125 -20.796875 
L 9.078125 54.6875 
L 18.109375 54.6875 
L 18.109375 46.390625 
Q 20.953125 51.265625 25.265625 53.625 
Q 29.59375 56 35.59375 56 
Q 45.5625 56 51.78125 48.09375 
Q 58.015625 40.1875 58.015625 27.296875 
Q 58.015625 14.40625 51.78125 6.484375 
Q 45.5625 -1.421875 35.59375 -1.421875 
Q 29.59375 -1.421875 25.265625 0.953125 
Q 20.953125 3.328125 18.109375 8.203125 
z
M 48.6875 27.296875 
Q 48.6875 37.203125 44.609375 42.84375 
Q 40.53125 48.484375 33.40625 48.484375 
Q 26.265625 48.484375 22.1875 42.84375 
Q 18.109375 37.203125 18.109375 27.296875 
Q 18.109375 17.390625 22.1875 11.75 
Q 26.265625 6.109375 33.40625 6.109375 
Q 40.53125 6.109375 44.609375 11.75 
Q 48.6875 17.390625 48.6875 27.296875 
z
" id="DejaVuSans-112"/>
      <path d="M 2.984375 54.6875 
L 12.5 54.6875 
L 29.59375 8.796875 
L 46.6875 54.6875 
L 56.203125 54.6875 
L 35.6875 0 
L 23.484375 0 
z
" id="DejaVuSans-118"/>
      <path d="M 34.28125 27.484375 
Q 23.390625 27.484375 19.1875 25 
Q 14.984375 22.515625 14.984375 16.5 
Q 14.984375 11.71875 18.140625 8.90625 
Q 21.296875 6.109375 26.703125 6.109375 
Q 34.1875 6.109375 38.703125 11.40625 
Q 43.21875 16.703125 43.21875 25.484375 
L 43.21875 27.484375 
z
M 52.203125 31.203125 
L 52.203125 0 
L 43.21875 0 
L 43.21875 8.296875 
Q 40.140625 3.328125 35.546875 0.953125 
Q 30.953125 -1.421875 24.3125 -1.421875 
Q 15.921875 -1.421875 10.953125 3.296875 
Q 6 8.015625 6 15.921875 
Q 6 25.140625 12.171875 29.828125 
Q 18.359375 34.515625 30.609375 34.515625 
L 43.21875 34.515625 
L 43.21875 35.40625 
Q 43.21875 41.609375 39.140625 45 
Q 35.0625 48.390625 27.6875 48.390625 
Q 23 48.390625 18.546875 47.265625 
Q 14.109375 46.140625 10.015625 43.890625 
L 10.015625 52.203125 
Q 14.9375 54.109375 19.578125 55.046875 
Q 24.21875 56 28.609375 56 
Q 40.484375 56 46.34375 49.84375 
Q 52.203125 43.703125 52.203125 31.203125 
z
" id="DejaVuSans-97"/>
      <path d="M 8.5 21.578125 
L 8.5 54.6875 
L 17.484375 54.6875 
L 17.484375 21.921875 
Q 17.484375 14.15625 20.5 10.265625 
Q 23.53125 6.390625 29.59375 6.390625 
Q 36.859375 6.390625 41.078125 11.03125 
Q 45.3125 15.671875 45.3125 23.6875 
L 45.3125 54.6875 
L 54.296875 54.6875 
L 54.296875 0 
L 45.3125 0 
L 45.3125 8.40625 
Q 42.046875 3.421875 37.71875 1 
Q 33.40625 -1.421875 27.6875 -1.421875 
Q 18.265625 -1.421875 13.375 4.4375 
Q 8.5 10.296875 8.5 21.578125 
z
M 31.109375 56 
z
" id="DejaVuSans-117"/>
      <path d="M 56.203125 29.59375 
L 56.203125 25.203125 
L 14.890625 25.203125 
Q 15.484375 15.921875 20.484375 11.0625 
Q 25.484375 6.203125 34.421875 6.203125 
Q 39.59375 6.203125 44.453125 7.46875 
Q 49.3125 8.734375 54.109375 11.28125 
L 54.109375 2.78125 
Q 49.265625 0.734375 44.1875 -0.34375 
Q 39.109375 -1.421875 33.890625 -1.421875 
Q 20.796875 -1.421875 13.15625 6.1875 
Q 5.515625 13.8125 5.515625 26.8125 
Q 5.515625 40.234375 12.765625 48.109375 
Q 20.015625 56 32.328125 56 
Q 43.359375 56 49.78125 48.890625 
Q 56.203125 41.796875 56.203125 29.59375 
z
M 47.21875 32.234375 
Q 47.125 39.59375 43.09375 43.984375 
Q 39.0625 48.390625 32.421875 48.390625 
Q 24.90625 48.390625 20.390625 44.140625 
Q 15.875 39.890625 15.1875 32.171875 
z
" id="DejaVuSans-101"/>
     </defs>
     <g transform="translate(152.4925 350.512187)scale(0.28 -0.28)">
      <use xlink:href="#DejaVuSans-45"/>
      <use x="36.083984" xlink:href="#DejaVuSans-108"/>
      <use x="63.867188" xlink:href="#DejaVuSans-111"/>
      <use x="125.048828" xlink:href="#DejaVuSans-103"/>
      <use x="188.525391" xlink:href="#DejaVuSans-49"/>
      <use x="252.148438" xlink:href="#DejaVuSans-48"/>
      <use x="315.771484" xlink:href="#DejaVuSans-32"/>
      <use x="347.558594" xlink:href="#DejaVuSans-112"/>
      <use x="411.035156" xlink:href="#DejaVuSans-45"/>
      <use x="447.087891" xlink:href="#DejaVuSans-118"/>
      <use x="506.267578" xlink:href="#DejaVuSans-97"/>
      <use x="567.546875" xlink:href="#DejaVuSans-108"/>
      <use x="595.330078" xlink:href="#DejaVuSans-117"/>
      <use x="658.708984" xlink:href="#DejaVuSans-101"/>
     </g>
    </g>
   </g>
   <g id="matplotlib.axis_2">
    <g id="ytick_1">
     <g id="line2d_6">
      <defs>
       <path d="M 0 0 
L -5 0 
" id="m66147bf1a1" style="stroke:#000000;stroke-width:0.8;"/>
      </defs>
      <g>
       <use style="stroke:#000000;stroke-width:0.8;" x="91.3275" xlink:href="#m66147bf1a1" y="289.637812"/>
      </g>
     </g>
     <g id="text_7">
      <!-- 0.0 -->
      <defs>
       <path d="M 10.6875 12.40625 
L 21 12.40625 
L 21 0 
L 10.6875 0 
z
" id="DejaVuSans-46"/>
      </defs>
      <g transform="translate(38.29875 300.275625)scale(0.28 -0.28)">
       <use xlink:href="#DejaVuSans-48"/>
       <use x="63.623047" xlink:href="#DejaVuSans-46"/>
       <use x="95.410156" xlink:href="#DejaVuSans-48"/>
      </g>
     </g>
    </g>
    <g id="ytick_2">
     <g id="line2d_7">
      <g>
       <use style="stroke:#000000;stroke-width:0.8;" x="91.3275" xlink:href="#m66147bf1a1" y="221.687813"/>
      </g>
     </g>
     <g id="text_8">
      <!-- 0.2 -->
      <g transform="translate(38.29875 232.325625)scale(0.28 -0.28)">
       <use xlink:href="#DejaVuSans-48"/>
       <use x="63.623047" xlink:href="#DejaVuSans-46"/>
       <use x="95.410156" xlink:href="#DejaVuSans-50"/>
      </g>
     </g>
    </g>
    <g id="ytick_3">
     <g id="line2d_8">
      <g>
       <use style="stroke:#000000;stroke-width:0.8;" x="91.3275" xlink:href="#m66147bf1a1" y="153.737813"/>
      </g>
     </g>
     <g id="text_9">
      <!-- 0.4 -->
      <g transform="translate(38.29875 164.375625)scale(0.28 -0.28)">
       <use xlink:href="#DejaVuSans-48"/>
       <use x="63.623047" xlink:href="#DejaVuSans-46"/>
       <use x="95.410156" xlink:href="#DejaVuSans-52"/>
      </g>
     </g>
    </g>
    <g id="ytick_4">
     <g id="line2d_9">
      <g>
       <use style="stroke:#000000;stroke-width:0.8;" x="91.3275" xlink:href="#m66147bf1a1" y="85.787813"/>
      </g>
     </g>
     <g id="text_10">
      <!-- 0.6 -->
      <defs>
       <path d="M 33.015625 40.375 
Q 26.375 40.375 22.484375 35.828125 
Q 18.609375 31.296875 18.609375 23.390625 
Q 18.609375 15.53125 22.484375 10.953125 
Q 26.375 6.390625 33.015625 6.390625 
Q 39.65625 6.390625 43.53125 10.953125 
Q 47.40625 15.53125 47.40625 23.390625 
Q 47.40625 31.296875 43.53125 35.828125 
Q 39.65625 40.375 33.015625 40.375 
z
M 52.59375 71.296875 
L 52.59375 62.3125 
Q 48.875 64.0625 45.09375 64.984375 
Q 41.3125 65.921875 37.59375 65.921875 
Q 27.828125 65.921875 22.671875 59.328125 
Q 17.53125 52.734375 16.796875 39.40625 
Q 19.671875 43.65625 24.015625 45.921875 
Q 28.375 48.1875 33.59375 48.1875 
Q 44.578125 48.1875 50.953125 41.515625 
Q 57.328125 34.859375 57.328125 23.390625 
Q 57.328125 12.15625 50.6875 5.359375 
Q 44.046875 -1.421875 33.015625 -1.421875 
Q 20.359375 -1.421875 13.671875 8.265625 
Q 6.984375 17.96875 6.984375 36.375 
Q 6.984375 53.65625 15.1875 63.9375 
Q 23.390625 74.21875 37.203125 74.21875 
Q 40.921875 74.21875 44.703125 73.484375 
Q 48.484375 72.75 52.59375 71.296875 
z
" id="DejaVuSans-54"/>
      </defs>
      <g transform="translate(38.29875 96.425625)scale(0.28 -0.28)">
       <use xlink:href="#DejaVuSans-48"/>
       <use x="63.623047" xlink:href="#DejaVuSans-46"/>
       <use x="95.410156" xlink:href="#DejaVuSans-54"/>
      </g>
     </g>
    </g>
    <g id="ytick_5">
     <g id="line2d_10">
      <g>
       <use style="stroke:#000000;stroke-width:0.8;" x="91.3275" xlink:href="#m66147bf1a1" y="17.837813"/>
      </g>
     </g>
     <g id="text_11">
      <!-- 0.8 -->
      <defs>
       <path d="M 31.78125 34.625 
Q 24.75 34.625 20.71875 30.859375 
Q 16.703125 27.09375 16.703125 20.515625 
Q 16.703125 13.921875 20.71875 10.15625 
Q 24.75 6.390625 31.78125 6.390625 
Q 38.8125 6.390625 42.859375 10.171875 
Q 46.921875 13.96875 46.921875 20.515625 
Q 46.921875 27.09375 42.890625 30.859375 
Q 38.875 34.625 31.78125 34.625 
z
M 21.921875 38.8125 
Q 15.578125 40.375 12.03125 44.71875 
Q 8.5 49.078125 8.5 55.328125 
Q 8.5 64.0625 14.71875 69.140625 
Q 20.953125 74.21875 31.78125 74.21875 
Q 42.671875 74.21875 48.875 69.140625 
Q 55.078125 64.0625 55.078125 55.328125 
Q 55.078125 49.078125 51.53125 44.71875 
Q 48 40.375 41.703125 38.8125 
Q 48.828125 37.15625 52.796875 32.3125 
Q 56.78125 27.484375 56.78125 20.515625 
Q 56.78125 9.90625 50.3125 4.234375 
Q 43.84375 -1.421875 31.78125 -1.421875 
Q 19.734375 -1.421875 13.25 4.234375 
Q 6.78125 9.90625 6.78125 20.515625 
Q 6.78125 27.484375 10.78125 32.3125 
Q 14.796875 37.15625 21.921875 38.8125 
z
M 18.3125 54.390625 
Q 18.3125 48.734375 21.84375 45.5625 
Q 25.390625 42.390625 31.78125 42.390625 
Q 38.140625 42.390625 41.71875 45.5625 
Q 45.3125 48.734375 45.3125 54.390625 
Q 45.3125 60.0625 41.71875 63.234375 
Q 38.140625 66.40625 31.78125 66.40625 
Q 25.390625 66.40625 21.84375 63.234375 
Q 18.3125 60.0625 18.3125 54.390625 
z
" id="DejaVuSans-56"/>
      </defs>
      <g transform="translate(38.29875 28.475625)scale(0.28 -0.28)">
       <use xlink:href="#DejaVuSans-48"/>
       <use x="63.623047" xlink:href="#DejaVuSans-46"/>
       <use x="95.410156" xlink:href="#DejaVuSans-56"/>
      </g>
     </g>
    </g>
    <g id="text_12">
     <!-- F1 score -->
     <defs>
      <path d="M 9.8125 72.90625 
L 51.703125 72.90625 
L 51.703125 64.59375 
L 19.671875 64.59375 
L 19.671875 43.109375 
L 48.578125 43.109375 
L 48.578125 34.8125 
L 19.671875 34.8125 
L 19.671875 0 
L 9.8125 0 
z
" id="DejaVuSans-70"/>
      <path d="M 44.28125 53.078125 
L 44.28125 44.578125 
Q 40.484375 46.53125 36.375 47.5 
Q 32.28125 48.484375 27.875 48.484375 
Q 21.1875 48.484375 17.84375 46.4375 
Q 14.5 44.390625 14.5 40.28125 
Q 14.5 37.15625 16.890625 35.375 
Q 19.28125 33.59375 26.515625 31.984375 
L 29.59375 31.296875 
Q 39.15625 29.25 43.1875 25.515625 
Q 47.21875 21.78125 47.21875 15.09375 
Q 47.21875 7.46875 41.1875 3.015625 
Q 35.15625 -1.421875 24.609375 -1.421875 
Q 20.21875 -1.421875 15.453125 -0.5625 
Q 10.6875 0.296875 5.421875 2 
L 5.421875 11.28125 
Q 10.40625 8.6875 15.234375 7.390625 
Q 20.0625 6.109375 24.8125 6.109375 
Q 31.15625 6.109375 34.5625 8.28125 
Q 37.984375 10.453125 37.984375 14.40625 
Q 37.984375 18.0625 35.515625 20.015625 
Q 33.0625 21.96875 24.703125 23.78125 
L 21.578125 24.515625 
Q 13.234375 26.265625 9.515625 29.90625 
Q 5.8125 33.546875 5.8125 39.890625 
Q 5.8125 47.609375 11.28125 51.796875 
Q 16.75 56 26.8125 56 
Q 31.78125 56 36.171875 55.265625 
Q 40.578125 54.546875 44.28125 53.078125 
z
" id="DejaVuSans-115"/>
      <path d="M 48.78125 52.59375 
L 48.78125 44.1875 
Q 44.96875 46.296875 41.140625 47.34375 
Q 37.3125 48.390625 33.40625 48.390625 
Q 24.65625 48.390625 19.8125 42.84375 
Q 14.984375 37.3125 14.984375 27.296875 
Q 14.984375 17.28125 19.8125 11.734375 
Q 24.65625 6.203125 33.40625 6.203125 
Q 37.3125 6.203125 41.140625 7.25 
Q 44.96875 8.296875 48.78125 10.40625 
L 48.78125 2.09375 
Q 45.015625 0.34375 40.984375 -0.53125 
Q 36.96875 -1.421875 32.421875 -1.421875 
Q 20.0625 -1.421875 12.78125 6.34375 
Q 5.515625 14.109375 5.515625 27.296875 
Q 5.515625 40.671875 12.859375 48.328125 
Q 20.21875 56 33.015625 56 
Q 37.15625 56 41.109375 55.140625 
Q 45.0625 54.296875 48.78125 52.59375 
z
" id="DejaVuSans-99"/>
      <path d="M 41.109375 46.296875 
Q 39.59375 47.171875 37.8125 47.578125 
Q 36.03125 48 33.890625 48 
Q 26.265625 48 22.1875 43.046875 
Q 18.109375 38.09375 18.109375 28.8125 
L 18.109375 0 
L 9.078125 0 
L 9.078125 54.6875 
L 18.109375 54.6875 
L 18.109375 46.1875 
Q 20.953125 51.171875 25.484375 53.578125 
Q 30.03125 56 36.53125 56 
Q 37.453125 56 38.578125 55.875 
Q 39.703125 55.765625 41.0625 55.515625 
z
" id="DejaVuSans-114"/>
     </defs>
     <g transform="translate(28.475625 213.069375)rotate(-90)scale(0.28 -0.28)">
      <use xlink:href="#DejaVuSans-70"/>
      <use x="57.519531" xlink:href="#DejaVuSans-49"/>
      <use x="121.142578" xlink:href="#DejaVuSans-32"/>
      <use x="152.929688" xlink:href="#DejaVuSans-115"/>
      <use x="205.029297" xlink:href="#DejaVuSans-99"/>
      <use x="260.009766" xlink:href="#DejaVuSans-111"/>
      <use x="321.191406" xlink:href="#DejaVuSans-114"/>
      <use x="362.273438" xlink:href="#DejaVuSans-101"/>
     </g>
    </g>
   </g>
   <g id="line2d_11">
    <path clip-path="url(#pcd86260c42)" d="M 106.054773 227.496659 
L 106.422955 227.496659 
L 106.791136 227.123813 
L 107.159318 227.123813 
L 107.895682 226.872752 
L 109.000227 226.23619 
L 109.368409 227.488422 
L 109.736591 227.488422 
L 110.104773 227.107138 
L 110.841136 226.850338 
L 111.209318 227.737191 
L 111.945682 227.220276 
L 112.313864 226.42851 
L 112.682045 226.42851 
L 113.418409 226.160105 
L 113.786591 226.160105 
L 114.154773 226.025047 
L 114.522955 226.025047 
L 115.259318 225.753197 
L 115.6275 226.802329 
L 116.363864 226.530901 
L 116.732045 227.596508 
L 117.100227 227.189235 
L 117.468409 227.052286 
L 117.836591 227.052286 
L 118.572955 226.637812 
L 118.941136 226.637812 
L 119.309318 226.498432 
L 119.6775 226.498432 
L 120.045682 225.934687 
L 120.413864 225.934687 
L 120.782045 225.505228 
L 121.886591 225.505228 
L 122.254773 225.360785 
L 122.622955 225.360785 
L 122.991136 226.749551 
L 123.7275 226.464343 
L 124.095682 226.464343 
L 124.463864 226.320767 
L 125.200227 225.739877 
L 125.568409 227.155054 
L 125.936591 227.155054 
L 126.304773 226.575167 
L 126.672955 226.281169 
L 128.145682 226.281169 
L 128.513864 225.834996 
L 128.882045 225.834996 
L 129.250227 225.382493 
L 129.618409 225.382493 
L 130.354773 225.077242 
L 130.722955 225.077242 
L 131.091136 224.923527 
L 131.459318 224.923527 
L 132.195682 224.613889 
L 132.563864 224.613889 
L 132.932045 224.457956 
L 133.300227 227.418535 
L 133.668409 227.268247 
L 134.036591 227.268247 
L 134.404773 227.117231 
L 134.772955 226.659764 
L 135.141136 226.659764 
L 135.509318 226.351048 
L 135.8775 226.195552 
L 136.982045 226.195552 
L 138.454773 225.565852 
L 139.191136 228.329542 
L 140.295682 227.865085 
L 140.663864 227.865085 
L 141.032045 229.276137 
L 141.768409 228.96817 
L 142.136591 230.399351 
L 142.872955 230.093998 
L 143.241136 230.093998 
L 143.609318 229.63002 
L 143.9775 229.63002 
L 144.345682 229.158755 
L 145.082045 228.840444 
L 145.450227 228.840444 
L 145.818409 228.518765 
L 146.186591 228.356645 
L 146.554773 228.029812 
L 146.922955 227.865085 
L 147.291136 229.197112 
L 148.0275 228.86952 
L 148.395682 230.227976 
L 148.763864 229.901549 
L 149.132045 229.901549 
L 149.868409 229.571514 
L 151.341136 229.571514 
L 151.709318 229.405126 
L 152.445682 229.405126 
L 152.813864 229.069567 
L 153.182045 229.069567 
L 153.550227 228.900382 
L 154.654773 228.900382 
L 155.022955 228.730249 
L 155.391136 228.387108 
L 155.759318 228.387108 
L 156.1275 228.214084 
L 156.863864 228.214084 
L 157.232045 227.865085 
L 157.600227 227.865085 
L 157.968409 229.453527 
L 158.336591 229.453527 
L 158.704773 229.281079 
L 159.072955 229.281079 
L 159.441136 229.10764 
L 159.809318 230.891415 
L 160.1775 230.379092 
L 160.545682 230.206326 
L 160.913864 230.206326 
L 161.650227 229.857754 
L 162.386591 229.857754 
L 162.754773 229.505069 
L 163.122955 229.327162 
L 163.491136 229.327162 
L 163.859318 229.148198 
L 165.332045 229.148198 
L 165.700227 228.96817 
L 167.172955 228.96817 
L 167.541136 228.787066 
L 168.645682 228.787066 
L 169.750227 228.23721 
L 170.118409 227.865085 
L 173.063864 227.865085 
L 173.800227 226.914736 
L 174.168409 226.914736 
L 174.536591 226.526357 
L 174.904773 226.330359 
L 175.272955 226.330359 
L 176.009318 225.534039 
L 176.745682 225.534039 
L 177.482045 225.128319 
L 177.850227 225.128319 
L 179.322955 224.301274 
L 179.691136 224.301274 
L 180.059318 224.091189 
L 180.795682 223.020165 
L 181.163864 222.801747 
L 182.268409 222.801747 
L 182.636591 222.581891 
L 183.004773 222.581891 
L 183.372955 222.360585 
L 185.213864 222.360585 
L 185.582045 222.137812 
L 185.950227 222.137812 
L 187.791136 221.001449 
L 188.159318 221.001449 
L 188.5275 220.769569 
L 188.895682 220.769569 
L 189.263864 220.536118 
L 189.632045 220.064434 
L 190.000227 220.064434 
L 190.368409 221.687813 
L 190.736591 221.452691 
L 192.209318 221.452691 
L 192.5775 221.215937 
L 194.418409 221.215937 
L 194.786591 223.34513 
L 195.154773 223.113337 
L 195.522955 223.113337 
L 196.995682 222.169727 
L 197.363864 222.169727 
L 197.732045 221.929627 
L 198.836591 221.929627 
L 199.204773 221.687813 
L 201.782045 221.687813 
L 202.150227 221.444264 
L 202.518409 221.444264 
L 202.886591 221.198964 
L 203.254773 221.198964 
L 203.991136 220.70303 
L 204.359318 220.70303 
L 204.7275 220.452358 
L 205.095682 222.679783 
L 205.832045 222.679783 
L 206.200227 222.434516 
L 206.568409 224.445931 
L 207.304773 224.445931 
L 207.672955 224.204479 
L 208.409318 224.204479 
L 209.145682 223.716171 
L 209.513864 223.716171 
L 210.250227 228.329542 
L 210.618409 228.09819 
L 211.354773 228.09819 
L 211.722955 227.865085 
L 212.459318 227.865085 
L 212.8275 227.630208 
L 213.563864 227.630208 
L 213.932045 227.393538 
L 216.141136 227.393538 
L 216.509318 227.155054 
L 216.8775 227.155054 
L 217.245682 226.914736 
L 217.613864 226.914736 
L 217.982045 226.672562 
L 219.086591 226.672562 
L 219.454773 226.42851 
L 219.822955 226.42851 
L 220.191136 225.934687 
L 221.295682 225.934687 
L 222.032045 225.433088 
L 223.504773 225.433088 
L 224.241136 224.923527 
L 224.9775 224.923527 
L 225.713864 224.405813 
L 226.450227 224.405813 
L 226.818409 224.143837 
L 230.132045 224.143837 
L 230.500227 223.879748 
L 233.813864 223.879748 
L 234.182045 223.613521 
L 234.918409 223.613521 
L 235.286591 225.848017 
L 235.654773 225.586583 
L 236.022955 225.057234 
L 236.759318 225.057234 
L 237.495682 224.519063 
L 238.968409 224.519063 
L 239.336591 224.246599 
L 240.441136 224.246599 
L 240.809318 223.971846 
L 241.913864 223.971846 
L 242.282045 226.561863 
L 243.018409 226.561863 
L 243.386591 226.294592 
L 244.859318 226.294592 
L 245.2275 226.025047 
L 245.963864 224.923527 
L 247.068409 224.923527 
L 247.436591 227.596508 
L 248.172955 227.596508 
L 248.541136 230.292834 
L 250.750227 230.292834 
L 251.486591 229.769971 
L 252.959318 229.769971 
L 253.695682 228.696108 
L 254.063864 228.696108 
L 254.432045 228.421596 
L 255.904773 228.421596 
L 256.272955 227.865085 
L 257.009318 227.865085 
L 257.3775 227.583018 
L 258.482045 227.583018 
L 259.218409 227.011084 
L 259.586591 229.588975 
L 262.900227 229.588975 
L 263.268409 232.483607 
L 264.004773 232.483607 
L 264.372955 232.215277 
L 265.109318 232.215277 
L 265.4775 231.944416 
L 268.054773 231.944416 
L 268.422955 231.394955 
L 269.5275 231.394955 
L 269.895682 231.116281 
L 270.632045 231.116281 
L 271.000227 230.834928 
L 273.209318 230.834928 
L 273.5775 230.550856 
L 275.786591 230.550856 
L 276.154773 230.264026 
L 276.522955 230.264026 
L 276.891136 229.974398 
L 278.363864 229.974398 
L 278.732045 229.68193 
L 279.100227 229.68193 
L 279.468409 229.386581 
L 280.572955 229.386581 
L 280.941136 228.787066 
L 281.309318 228.787066 
L 281.6775 228.175501 
L 282.413864 228.175501 
L 282.782045 227.865085 
L 283.150227 227.865085 
L 283.518409 227.551518 
L 283.886591 226.914736 
L 284.254773 226.591421 
L 284.622955 226.591421 
L 284.991136 226.264756 
L 285.7275 226.264756 
L 286.095682 225.601163 
L 286.463864 228.840444 
L 289.041136 228.840444 
L 289.409318 228.518765 
L 290.882045 228.518765 
L 291.250227 228.193664 
L 291.986591 234.839425 
L 292.354773 234.543218 
L 292.722955 234.543218 
L 293.091136 234.243791 
L 295.668409 234.243791 
L 296.036591 233.635065 
L 300.822955 233.635065 
L 301.191136 233.325658 
L 302.295682 233.325658 
L 302.663864 232.696472 
L 304.504773 232.696472 
L 304.872955 232.376577 
L 305.241136 232.376577 
L 305.609318 232.053067 
L 307.818409 232.053067 
L 308.554773 231.394955 
L 311.868409 231.394955 
L 312.236591 231.060226 
L 314.813864 231.060226 
L 315.182045 230.379092 
L 317.391136 230.379092 
L 317.759318 234.006234 
L 319.232045 234.006234 
L 319.600227 233.678989 
L 320.704773 233.678989 
L 321.072955 233.347872 
L 321.441136 233.347872 
L 321.809318 233.012812 
L 325.491136 233.012812 
L 325.859318 232.673741 
L 326.2275 232.673741 
L 326.595682 232.330584 
L 327.700227 232.330584 
L 328.436591 231.631715 
L 328.804773 235.444561 
L 331.013864 235.444561 
L 331.382045 235.110035 
L 332.118409 235.110035 
L 332.486591 234.771353 
L 334.3275 234.771353 
L 334.695682 234.428438 
L 338.009318 234.428438 
L 338.3775 234.081209 
L 339.113864 234.081209 
L 339.482045 233.729585 
L 341.691136 233.729585 
L 342.4275 233.012812 
L 345.372955 233.012812 
L 345.741136 232.64749 
L 346.4775 232.64749 
L 346.845682 232.277423 
L 349.054773 232.277423 
L 349.422955 231.902518 
L 350.159318 231.902518 
L 350.5275 231.522681 
L 357.891136 231.522681 
L 358.259318 231.137812 
L 361.204773 231.137812 
L 361.572955 230.747813 
L 362.309318 230.747813 
L 362.6775 234.91298 
L 367.463864 234.91298 
L 367.832045 234.543218 
L 372.250227 234.543218 
L 372.618409 234.168425 
L 373.722955 234.168425 
L 374.091136 233.788497 
L 375.195682 233.788497 
L 375.563864 233.40333 
L 385.504773 233.40333 
L 385.872955 232.616833 
L 392.132045 232.616833 
L 392.500227 232.215277 
L 394.709318 232.215277 
L 395.0775 231.394955 
L 397.286591 231.394955 
L 397.654773 230.550856 
L 400.600227 230.550856 
L 400.600227 230.550856 
" style="fill:none;stroke:#8b0000;stroke-linecap:square;stroke-width:2;"/>
   </g>
   <g id="line2d_12">
    <path clip-path="url(#pcd86260c42)" d="M 106.054773 156.551029 
L 106.422955 156.551029 
L 106.791136 155.912213 
L 107.159318 155.912213 
L 107.895682 155.482917 
L 108.263864 156.145059 
L 108.632045 155.713741 
L 109.000227 155.497036 
L 109.368409 156.380924 
L 109.736591 156.380924 
L 110.104773 156.83651 
L 110.841136 156.402518 
L 111.209318 156.643569 
L 111.945682 155.762813 
L 112.313864 158.964736 
L 112.682045 158.964736 
L 113.418409 158.526235 
L 113.786591 158.526235 
L 114.154773 158.30588 
L 114.522955 158.30588 
L 115.259318 157.862939 
L 115.6275 160.647982 
L 115.995682 161.582634 
L 116.363864 161.364853 
L 116.732045 161.868582 
L 117.100227 163.545029 
L 117.468409 163.328002 
L 117.836591 163.328002 
L 118.204773 162.891699 
L 118.572955 163.84802 
L 118.941136 163.84802 
L 119.309318 163.630014 
L 119.6775 163.630014 
L 120.045682 162.750378 
L 120.413864 162.750378 
L 120.782045 162.082549 
L 121.886591 162.082549 
L 122.254773 161.858375 
L 122.622955 161.858375 
L 122.991136 162.829714 
L 123.359318 162.606066 
L 123.7275 163.582159 
L 124.095682 163.582159 
L 124.463864 163.359051 
L 125.200227 162.458668 
L 125.568409 163.444955 
L 125.936591 163.444955 
L 126.304773 163.759215 
L 126.672955 165.757849 
L 128.145682 165.757849 
L 128.513864 166.316578 
L 128.882045 166.316578 
L 129.250227 165.641462 
L 129.618409 165.641462 
L 130.354773 165.187263 
L 130.722955 165.187263 
L 131.091136 164.958913 
L 131.459318 164.958913 
L 131.8275 164.729724 
L 132.195682 165.751072 
L 132.563864 165.751072 
L 132.932045 165.522499 
L 133.300227 167.579479 
L 133.668409 167.353026 
L 134.036591 167.353026 
L 134.404773 167.125731 
L 134.772955 166.438747 
L 135.141136 166.438747 
L 135.509318 165.976462 
L 135.8775 165.744016 
L 136.982045 165.744016 
L 138.454773 164.805426 
L 138.822955 165.857926 
L 139.191136 166.446019 
L 140.295682 165.736661 
L 140.663864 165.736661 
L 141.032045 167.877697 
L 141.768409 167.406671 
L 142.136591 166.931987 
L 142.872955 166.453602 
L 143.241136 166.453602 
L 143.609318 167.061342 
L 143.9775 167.061342 
L 144.345682 167.676274 
L 145.082045 167.193258 
L 145.450227 167.193258 
L 145.818409 166.706401 
L 146.186591 166.461518 
L 146.554773 165.968813 
L 146.922955 165.720979 
L 147.291136 167.711401 
L 148.0275 167.217772 
L 148.395682 167.853698 
L 148.763864 167.355604 
L 149.132045 167.355604 
L 149.868409 166.853418 
L 151.341136 166.853418 
L 151.709318 166.600775 
L 152.445682 166.600775 
L 152.813864 166.092358 
L 153.182045 166.092358 
L 153.550227 165.83657 
L 154.654773 165.83657 
L 155.022955 166.989472 
L 155.391136 166.478438 
L 155.759318 166.478438 
L 156.1275 166.22132 
L 156.863864 166.22132 
L 157.232045 165.70385 
L 157.600227 165.70385 
L 157.968409 166.612549 
L 158.336591 166.612549 
L 158.704773 166.353002 
L 159.072955 166.353002 
L 159.441136 166.092358 
L 159.809318 167.270228 
L 160.1775 169.385147 
L 160.545682 169.128197 
L 160.913864 169.128197 
L 161.282045 170.325179 
L 161.650227 170.069143 
L 162.386591 170.069143 
L 162.754773 169.553761 
L 163.122955 169.2944 
L 163.491136 169.2944 
L 163.859318 169.033916 
L 165.332045 169.033916 
L 165.700227 168.772303 
L 167.172955 168.772303 
L 167.541136 169.986726 
L 168.645682 169.986726 
L 169.382045 172.431481 
L 169.750227 172.175012 
L 170.118409 173.152098 
L 173.063864 173.152098 
L 173.432045 173.882282 
L 173.800227 176.387813 
L 174.168409 176.387813 
L 174.536591 175.882232 
L 174.904773 175.627745 
L 175.272955 175.627745 
L 176.009318 174.598309 
L 176.745682 174.598309 
L 177.482045 174.076588 
L 177.850227 174.076588 
L 178.218409 173.813949 
L 178.586591 175.097949 
L 179.322955 174.573739 
L 179.691136 174.573739 
L 180.059318 174.309831 
L 180.4275 175.080076 
L 180.795682 176.125051 
L 181.163864 175.861068 
L 182.268409 175.861068 
L 182.636591 175.595854 
L 183.004773 175.595854 
L 183.372955 175.329401 
L 185.213864 175.329401 
L 185.582045 175.0617 
L 185.950227 175.0617 
L 186.318409 176.387813 
L 187.791136 175.314353 
L 188.159318 175.314353 
L 188.5275 175.042801 
L 188.895682 175.042801 
L 189.263864 174.769955 
L 189.632045 175.845946 
L 190.000227 175.845946 
L 190.368409 176.660704 
L 190.736591 176.387813 
L 192.209318 176.387813 
L 192.5775 176.113599 
L 194.418409 176.113599 
L 194.786591 177.487327 
L 195.154773 177.214455 
L 195.522955 177.214455 
L 196.995682 176.109557 
L 197.363864 176.109557 
L 197.732045 177.503576 
L 198.836591 177.503576 
L 199.204773 177.226701 
L 201.782045 177.226701 
L 202.150227 176.948456 
L 202.518409 176.948456 
L 202.886591 176.66883 
L 203.254773 176.66883 
L 203.622955 176.387813 
L 203.991136 177.799907 
L 204.359318 177.799907 
L 204.7275 177.520312 
L 205.095682 178.942324 
L 205.832045 178.942324 
L 206.200227 178.664194 
L 206.568409 179.819631 
L 207.304773 179.819631 
L 207.672955 179.54161 
L 208.409318 179.54161 
L 209.145682 178.981324 
L 209.513864 178.981324 
L 210.250227 181.891009 
L 210.618409 181.614736 
L 211.354773 181.614736 
L 211.722955 181.337041 
L 212.459318 181.337041 
L 212.8275 181.057916 
L 213.563864 181.057916 
L 213.932045 180.777347 
L 216.141136 180.777347 
L 216.509318 180.495325 
L 216.8775 180.495325 
L 217.245682 180.211838 
L 217.613864 180.211838 
L 217.982045 181.696406 
L 219.086591 181.696406 
L 219.454773 181.414575 
L 219.822955 181.414575 
L 220.191136 182.629938 
L 221.295682 182.629938 
L 222.032045 182.065253 
L 223.504773 182.065253 
L 224.241136 181.494576 
L 224.9775 181.494576 
L 225.713864 180.917813 
L 226.450227 180.917813 
L 226.818409 180.627117 
L 230.132045 180.627117 
L 230.500227 180.334863 
L 233.813864 180.334863 
L 234.182045 180.041038 
L 234.918409 180.041038 
L 235.286591 181.28511 
L 235.654773 180.991471 
L 236.022955 182.250892 
L 236.759318 182.250892 
L 237.495682 181.66247 
L 238.968409 181.66247 
L 239.336591 181.365834 
L 240.441136 181.365834 
L 240.809318 182.939465 
L 241.913864 182.939465 
L 242.282045 184.52179 
L 243.018409 184.52179 
L 243.386591 184.23061 
L 244.859318 184.23061 
L 245.2275 183.937813 
L 245.963864 182.750172 
L 247.068409 182.750172 
L 247.436591 184.363165 
L 248.172955 184.363165 
L 248.541136 185.98527 
L 250.750227 185.98527 
L 251.486591 189.257131 
L 252.959318 189.257131 
L 253.695682 192.008502 
L 254.063864 192.008502 
L 254.432045 191.72715 
L 255.904773 191.72715 
L 256.272955 191.159552 
L 257.009318 191.159552 
L 257.3775 190.873278 
L 258.482045 190.873278 
L 259.218409 190.295707 
L 259.586591 191.709871 
L 262.900227 191.709871 
L 263.268409 193.425423 
L 264.004773 193.425423 
L 264.372955 193.140771 
L 265.109318 193.140771 
L 265.4775 192.85443 
L 268.054773 192.85443 
L 268.422955 192.276618 
L 269.5275 192.276618 
L 269.895682 194.019549 
L 270.632045 194.019549 
L 271.000227 195.772948 
L 273.209318 195.772948 
L 273.5775 195.490222 
L 275.786591 195.490222 
L 276.154773 195.205788 
L 276.522955 195.205788 
L 276.891136 194.919631 
L 278.363864 194.919631 
L 278.732045 194.631733 
L 279.100227 194.631733 
L 279.468409 194.342081 
L 280.572955 194.342081 
L 280.941136 195.8418 
L 281.309318 195.8418 
L 281.6775 197.360035 
L 282.413864 197.360035 
L 282.782045 197.074345 
L 283.150227 197.074345 
L 283.518409 196.786881 
L 283.886591 196.206563 
L 284.254773 198.043769 
L 284.622955 198.043769 
L 284.991136 199.892529 
L 285.7275 199.892529 
L 286.095682 199.324521 
L 286.463864 201.194955 
L 289.041136 201.194955 
L 289.409318 200.91329 
L 290.882045 200.91329 
L 291.250227 200.629825 
L 291.986591 204.427202 
L 292.354773 204.152329 
L 292.722955 204.152329 
L 293.091136 203.875677 
L 295.668409 203.875677 
L 296.036591 205.530321 
L 300.822955 205.530321 
L 301.191136 205.25546 
L 302.295682 205.25546 
L 302.663864 204.700313 
L 304.504773 204.700313 
L 304.872955 204.419991 
L 305.241136 204.419991 
L 305.609318 206.387812 
L 307.818409 206.387812 
L 308.186591 206.111234 
L 308.554773 208.097813 
L 311.868409 208.097813 
L 312.236591 210.097679 
L 314.813864 210.097679 
L 315.182045 209.562055 
L 317.391136 209.562055 
L 317.759318 211.587137 
L 319.232045 211.587137 
L 319.600227 211.322558 
L 320.704773 211.322558 
L 321.072955 211.05618 
L 321.441136 211.05618 
L 321.809318 210.787983 
L 325.491136 210.787983 
L 325.859318 210.517949 
L 326.2275 210.517949 
L 326.595682 210.24606 
L 327.700227 210.24606 
L 328.436591 209.696636 
L 328.804773 211.778437 
L 331.013864 211.778437 
L 331.382045 213.874746 
L 332.118409 213.874746 
L 332.486591 213.60984 
L 334.3275 213.60984 
L 334.695682 213.343076 
L 338.009318 213.343076 
L 338.3775 215.467038 
L 339.113864 215.467038 
L 339.482045 215.20495 
L 341.691136 215.20495 
L 342.4275 214.675179 
L 345.372955 214.675179 
L 345.741136 216.834241 
L 346.4775 216.834241 
L 346.845682 216.573296 
L 349.054773 216.573296 
L 349.422955 216.310474 
L 350.159318 216.310474 
L 350.5275 216.045755 
L 357.891136 216.045755 
L 358.259318 215.779117 
L 361.204773 215.779117 
L 361.572955 215.51054 
L 362.309318 215.51054 
L 362.6775 217.719929 
L 367.463864 217.719929 
L 367.832045 217.456494 
L 372.250227 217.456494 
L 372.618409 217.191121 
L 373.722955 217.191121 
L 374.091136 216.92379 
L 375.195682 216.92379 
L 375.563864 216.654479 
L 385.504773 216.654479 
L 385.872955 216.109827 
L 392.132045 216.109827 
L 392.500227 215.834442 
L 394.709318 215.834442 
L 395.0775 215.277435 
L 397.286591 215.277435 
L 397.654773 217.295607 
L 400.600227 217.295607 
L 400.600227 217.295607 
" style="fill:none;stroke:#000080;stroke-linecap:square;stroke-width:2;"/>
   </g>
   <g id="patch_3">
    <path d="M 91.3275 289.637812 
L 91.3275 17.837813 
" style="fill:none;stroke:#000000;stroke-linecap:square;stroke-linejoin:miter;"/>
   </g>
   <g id="patch_4">
    <path d="M 91.3275 289.637812 
L 415.3275 289.637812 
" style="fill:none;stroke:#000000;stroke-linecap:square;stroke-linejoin:miter;"/>
   </g>
  </g>
  <g id="axes_2">
   <g id="patch_5">
    <path d="M 431.5275 289.637812 
L 755.5275 289.637812 
L 755.5275 17.837813 
L 431.5275 17.837813 
z
" style="fill:none;"/>
   </g>
   <g id="matplotlib.axis_3">
    <g id="xtick_6">
     <g id="line2d_13">
      <g>
       <use style="stroke:#000000;stroke-width:0.8;" x="446.254773" xlink:href="#m7f2b002762" y="289.637812"/>
      </g>
     </g>
     <g id="text_13">
      <!-- 1 -->
      <g transform="translate(437.347273 319.413437)scale(0.28 -0.28)">
       <use xlink:href="#DejaVuSans-49"/>
      </g>
     </g>
    </g>
    <g id="xtick_7">
     <g id="line2d_14">
      <g>
       <use style="stroke:#000000;stroke-width:0.8;" x="519.891136" xlink:href="#m7f2b002762" y="289.637812"/>
      </g>
     </g>
     <g id="text_14">
      <!-- 2 -->
      <g transform="translate(510.983636 319.413437)scale(0.28 -0.28)">
       <use xlink:href="#DejaVuSans-50"/>
      </g>
     </g>
    </g>
    <g id="xtick_8">
     <g id="line2d_15">
      <g>
       <use style="stroke:#000000;stroke-width:0.8;" x="593.5275" xlink:href="#m7f2b002762" y="289.637812"/>
      </g>
     </g>
     <g id="text_15">
      <!-- 3 -->
      <g transform="translate(584.62 319.413437)scale(0.28 -0.28)">
       <use xlink:href="#DejaVuSans-51"/>
      </g>
     </g>
    </g>
    <g id="xtick_9">
     <g id="line2d_16">
      <g>
       <use style="stroke:#000000;stroke-width:0.8;" x="667.163864" xlink:href="#m7f2b002762" y="289.637812"/>
      </g>
     </g>
     <g id="text_16">
      <!-- 4 -->
      <g transform="translate(658.256364 319.413437)scale(0.28 -0.28)">
       <use xlink:href="#DejaVuSans-52"/>
      </g>
     </g>
    </g>
    <g id="xtick_10">
     <g id="line2d_17">
      <g>
       <use style="stroke:#000000;stroke-width:0.8;" x="740.800227" xlink:href="#m7f2b002762" y="289.637812"/>
      </g>
     </g>
     <g id="text_17">
      <!-- 5 -->
      <g transform="translate(731.892727 319.413437)scale(0.28 -0.28)">
       <use xlink:href="#DejaVuSans-53"/>
      </g>
     </g>
    </g>
    <g id="text_18">
     <!-- -log10 p-value -->
     <g transform="translate(492.6925 350.512187)scale(0.28 -0.28)">
      <use xlink:href="#DejaVuSans-45"/>
      <use x="36.083984" xlink:href="#DejaVuSans-108"/>
      <use x="63.867188" xlink:href="#DejaVuSans-111"/>
      <use x="125.048828" xlink:href="#DejaVuSans-103"/>
      <use x="188.525391" xlink:href="#DejaVuSans-49"/>
      <use x="252.148438" xlink:href="#DejaVuSans-48"/>
      <use x="315.771484" xlink:href="#DejaVuSans-32"/>
      <use x="347.558594" xlink:href="#DejaVuSans-112"/>
      <use x="411.035156" xlink:href="#DejaVuSans-45"/>
      <use x="447.087891" xlink:href="#DejaVuSans-118"/>
      <use x="506.267578" xlink:href="#DejaVuSans-97"/>
      <use x="567.546875" xlink:href="#DejaVuSans-108"/>
      <use x="595.330078" xlink:href="#DejaVuSans-117"/>
      <use x="658.708984" xlink:href="#DejaVuSans-101"/>
     </g>
    </g>
   </g>
   <g id="matplotlib.axis_4">
    <g id="ytick_6"/>
    <g id="ytick_7"/>
    <g id="ytick_8"/>
    <g id="ytick_9"/>
    <g id="ytick_10"/>
   </g>
   <g id="line2d_18">
    <path clip-path="url(#pe8ef708a1c)" d="M 446.254773 163.886189 
L 447.359318 163.886189 
L 447.7275 165.68993 
L 448.832045 165.68993 
L 449.200227 165.284871 
L 449.568409 165.284871 
L 449.936591 167.105026 
L 450.304773 167.105026 
L 450.672955 168.538803 
L 451.409318 168.538803 
L 451.7775 168.137813 
L 452.145682 168.137813 
L 452.513864 169.991633 
L 453.618409 169.991633 
L 454.354773 169.191324 
L 454.722955 169.191324 
L 455.091136 171.067343 
L 455.8275 171.067343 
L 456.932045 169.861541 
L 457.668409 169.861541 
L 458.404773 173.285073 
L 460.982045 173.285073 
L 462.086591 172.077259 
L 462.454773 172.077259 
L 463.191136 171.258022 
L 463.559318 171.258022 
L 463.9275 170.844106 
L 464.663864 170.844106 
L 465.032045 170.007531 
L 465.768409 170.007531 
L 466.136591 171.985869 
L 466.504773 171.985869 
L 467.241136 175.984788 
L 467.609318 175.984788 
L 467.9775 178.00567 
L 468.345682 178.00567 
L 468.713864 180.041038 
L 469.450227 180.041038 
L 469.818409 182.09105 
L 472.0275 182.09105 
L 472.395682 186.235639 
L 473.868409 186.235639 
L 474.236591 185.859631 
L 474.972955 189.711342 
L 475.341136 189.711342 
L 475.709318 188.971146 
L 477.182045 188.971146 
L 477.550227 191.122943 
L 482.704773 191.122943 
L 483.072955 190.75535 
L 483.441136 190.75535 
L 483.809318 192.929947 
L 484.1775 192.566384 
L 486.018409 192.566384 
L 486.386591 192.200077 
L 486.754773 192.200077 
L 487.122955 194.404858 
L 487.491136 194.404858 
L 487.859318 196.626406 
L 488.963864 196.626406 
L 489.332045 198.864912 
L 490.804773 198.864912 
L 491.172955 201.120571 
L 492.2775 201.120571 
L 492.645682 203.393582 
L 494.486591 203.393582 
L 495.222955 207.674777 
L 497.063864 207.674777 
L 497.432045 207.354609 
L 504.4275 207.354609 
L 504.795682 209.696636 
L 505.163864 209.696636 
L 505.532045 211.750461 
L 506.636591 211.750461 
L 507.004773 214.137812 
L 507.741136 214.137812 
L 508.109318 213.837016 
L 508.4775 213.837016 
L 508.845682 216.251813 
L 509.582045 216.251813 
L 509.950227 215.95709 
L 511.422955 215.95709 
L 511.791136 215.65999 
L 514.000227 215.65999 
L 514.368409 215.360485 
L 514.736591 215.360485 
L 515.104773 217.820739 
L 516.209318 217.820739 
L 516.5775 219.730405 
L 516.945682 219.730405 
L 517.313864 222.249383 
L 517.682045 222.249383 
L 518.050227 224.789265 
L 522.836591 224.789265 
L 523.572955 229.932792 
L 524.6775 229.932792 
L 525.045682 232.536972 
L 532.7775 232.536972 
L 533.145682 235.163129 
L 539.772955 235.163129 
L 540.141136 237.811541 
L 552.659318 237.811541 
L 553.0275 240.482493 
L 568.122955 240.482493 
L 568.491136 240.272428 
L 589.4775 240.272428 
L 589.845682 240.060559 
L 596.472955 240.060559 
L 596.841136 242.775744 
L 620.036591 242.775744 
L 620.404773 242.572877 
L 628.136591 242.572877 
L 628.504773 242.368247 
L 632.554773 242.368247 
L 633.291136 247.914128 
L 644.336591 247.914128 
L 644.704773 250.723716 
L 652.068409 250.723716 
L 652.436591 250.551529 
L 653.172955 250.551529 
L 653.541136 253.397812 
L 671.582045 253.397812 
L 671.950227 253.236027 
L 672.318409 256.119875 
L 688.518409 256.119875 
L 688.886591 255.968894 
L 690.359318 255.968894 
L 690.7275 258.891206 
L 702.509318 258.891206 
L 702.8775 258.751449 
L 705.454773 258.751449 
L 705.822955 261.713155 
L 706.559318 261.713155 
L 706.9275 261.58506 
L 715.395682 261.58506 
L 715.763864 261.455785 
L 727.545682 261.455785 
L 727.913864 267.514557 
L 740.800227 267.514557 
L 740.800227 267.514557 
" style="fill:none;stroke:#8b0000;stroke-linecap:square;stroke-width:2;"/>
   </g>
   <g id="line2d_19">
    <path clip-path="url(#pe8ef708a1c)" d="M 446.254773 205.202901 
L 447.359318 205.202901 
L 447.7275 208.744955 
L 448.832045 208.744955 
L 449.200227 208.260567 
L 449.568409 208.260567 
L 449.936591 207.770343 
L 450.304773 207.770343 
L 450.672955 206.771959 
L 451.409318 206.771959 
L 451.7775 206.263579 
L 452.145682 206.263579 
L 452.513864 205.748924 
L 453.618409 205.748924 
L 454.354773 204.700312 
L 454.722955 204.700312 
L 455.091136 204.166114 
L 455.8275 204.166114 
L 456.932045 202.522428 
L 457.668409 202.522428 
L 458.404773 209.696636 
L 460.982045 209.696636 
L 462.086591 208.097813 
L 462.454773 208.097813 
L 463.191136 206.995921 
L 463.559318 206.995921 
L 463.9275 206.433731 
L 464.663864 206.433731 
L 465.032045 205.286088 
L 465.768409 205.286088 
L 466.136591 204.700313 
L 466.504773 204.700313 
L 467.241136 203.50401 
L 467.609318 203.50401 
L 467.9775 207.712281 
L 468.345682 207.712281 
L 468.713864 207.127098 
L 469.450227 207.127098 
L 469.818409 206.533496 
L 472.0275 206.533496 
L 472.395682 205.320294 
L 473.868409 205.320294 
L 474.236591 204.700312 
L 474.604773 208.503484 
L 474.972955 207.893452 
L 475.341136 207.893452 
L 475.709318 206.645446 
L 477.182045 206.645446 
L 477.550227 206.007043 
L 482.704773 206.007043 
L 483.072955 205.358743 
L 483.441136 205.358743 
L 484.1775 204.031513 
L 486.018409 204.031513 
L 486.386591 203.352098 
L 486.754773 203.352098 
L 487.122955 202.661812 
L 487.491136 202.661812 
L 487.859318 201.960393 
L 488.963864 201.960393 
L 489.332045 201.247569 
L 490.804773 201.247569 
L 491.172955 200.523058 
L 492.2775 200.523058 
L 492.645682 205.402275 
L 494.486591 205.402275 
L 494.854773 203.986552 
L 495.222955 203.260694 
L 497.063864 203.260694 
L 497.432045 202.522428 
L 504.4275 202.522428 
L 504.795682 201.771433 
L 505.163864 201.771433 
L 505.532045 200.229918 
L 506.636591 200.229918 
L 507.004773 199.438697 
L 507.741136 199.438697 
L 508.109318 198.633348 
L 508.4775 198.633348 
L 508.845682 203.93511 
L 509.582045 203.93511 
L 509.950227 203.155994 
L 511.422955 203.155994 
L 511.791136 202.362583 
L 514.000227 202.362583 
L 514.368409 201.554479 
L 514.736591 201.554479 
L 515.104773 207.081738 
L 516.209318 207.081738 
L 516.5775 204.700312 
L 516.945682 204.700312 
L 517.313864 203.875677 
L 517.682045 203.875677 
L 518.050227 203.034871 
L 522.836591 203.034871 
L 523.572955 201.302813 
L 524.6775 201.302813 
L 525.045682 200.41054 
L 532.7775 200.41054 
L 533.145682 206.433731 
L 539.772955 206.433731 
L 540.141136 212.581111 
L 552.659318 212.581111 
L 553.0275 211.778438 
L 568.122955 211.778438 
L 568.491136 210.958865 
L 589.4775 210.958865 
L 589.845682 210.121855 
L 596.472955 210.121855 
L 596.841136 216.573296 
L 620.036591 216.573296 
L 620.404773 215.779117 
L 628.136591 215.779117 
L 628.504773 214.967483 
L 632.554773 214.967483 
L 632.922955 221.687813 
L 633.291136 220.924329 
L 644.336591 220.924329 
L 644.704773 227.865085 
L 652.068409 227.865085 
L 652.436591 227.155054 
L 653.172955 227.155054 
L 653.541136 234.329673 
L 671.582045 234.329673 
L 671.950227 233.678989 
L 672.318409 241.102098 
L 688.518409 241.102098 
L 688.886591 240.517331 
L 690.359318 240.517331 
L 690.7275 248.204886 
L 702.509318 248.204886 
L 702.8775 247.693368 
L 705.454773 247.693368 
L 705.822955 247.169062 
L 706.559318 247.169062 
L 706.9275 246.631483 
L 715.395682 246.631483 
L 715.763864 246.08012 
L 727.545682 246.08012 
L 727.913864 253.874655 
L 740.800227 253.874655 
L 740.800227 253.874655 
" style="fill:none;stroke:#000080;stroke-linecap:square;stroke-width:2;"/>
   </g>
   <g id="patch_6">
    <path d="M 431.5275 289.637812 
L 431.5275 17.837813 
" style="fill:none;stroke:#000000;stroke-linecap:square;stroke-linejoin:miter;"/>
   </g>
   <g id="patch_7">
    <path d="M 431.5275 289.637812 
L 755.5275 289.637812 
" style="fill:none;stroke:#000000;stroke-linecap:square;stroke-linejoin:miter;"/>
   </g>
  </g>
  <g id="axes_3">
   <g id="patch_8">
    <path d="M 771.7275 289.637812 
L 1095.7275 289.637812 
L 1095.7275 17.837813 
L 771.7275 17.837813 
z
" style="fill:none;"/>
   </g>
   <g id="matplotlib.axis_5">
    <g id="xtick_11">
     <g id="line2d_20">
      <g>
       <use style="stroke:#000000;stroke-width:0.8;" x="786.454773" xlink:href="#m7f2b002762" y="289.637812"/>
      </g>
     </g>
     <g id="text_19">
      <!-- 1 -->
      <g transform="translate(777.547273 319.413437)scale(0.28 -0.28)">
       <use xlink:href="#DejaVuSans-49"/>
      </g>
     </g>
    </g>
    <g id="xtick_12">
     <g id="line2d_21">
      <g>
       <use style="stroke:#000000;stroke-width:0.8;" x="860.091136" xlink:href="#m7f2b002762" y="289.637812"/>
      </g>
     </g>
     <g id="text_20">
      <!-- 2 -->
      <g transform="translate(851.183636 319.413437)scale(0.28 -0.28)">
       <use xlink:href="#DejaVuSans-50"/>
      </g>
     </g>
    </g>
    <g id="xtick_13">
     <g id="line2d_22">
      <g>
       <use style="stroke:#000000;stroke-width:0.8;" x="933.7275" xlink:href="#m7f2b002762" y="289.637812"/>
      </g>
     </g>
     <g id="text_21">
      <!-- 3 -->
      <g transform="translate(924.82 319.413437)scale(0.28 -0.28)">
       <use xlink:href="#DejaVuSans-51"/>
      </g>
     </g>
    </g>
    <g id="xtick_14">
     <g id="line2d_23">
      <g>
       <use style="stroke:#000000;stroke-width:0.8;" x="1007.363864" xlink:href="#m7f2b002762" y="289.637812"/>
      </g>
     </g>
     <g id="text_22">
      <!-- 4 -->
      <g transform="translate(998.456364 319.413437)scale(0.28 -0.28)">
       <use xlink:href="#DejaVuSans-52"/>
      </g>
     </g>
    </g>
    <g id="xtick_15">
     <g id="line2d_24">
      <g>
       <use style="stroke:#000000;stroke-width:0.8;" x="1081.000227" xlink:href="#m7f2b002762" y="289.637812"/>
      </g>
     </g>
     <g id="text_23">
      <!-- 5 -->
      <g transform="translate(1072.092727 319.413437)scale(0.28 -0.28)">
       <use xlink:href="#DejaVuSans-53"/>
      </g>
     </g>
    </g>
    <g id="text_24">
     <!-- -log10 p-value -->
     <g transform="translate(832.8925 350.512187)scale(0.28 -0.28)">
      <use xlink:href="#DejaVuSans-45"/>
      <use x="36.083984" xlink:href="#DejaVuSans-108"/>
      <use x="63.867188" xlink:href="#DejaVuSans-111"/>
      <use x="125.048828" xlink:href="#DejaVuSans-103"/>
      <use x="188.525391" xlink:href="#DejaVuSans-49"/>
      <use x="252.148438" xlink:href="#DejaVuSans-48"/>
      <use x="315.771484" xlink:href="#DejaVuSans-32"/>
      <use x="347.558594" xlink:href="#DejaVuSans-112"/>
      <use x="411.035156" xlink:href="#DejaVuSans-45"/>
      <use x="447.087891" xlink:href="#DejaVuSans-118"/>
      <use x="506.267578" xlink:href="#DejaVuSans-97"/>
      <use x="567.546875" xlink:href="#DejaVuSans-108"/>
      <use x="595.330078" xlink:href="#DejaVuSans-117"/>
      <use x="658.708984" xlink:href="#DejaVuSans-101"/>
     </g>
    </g>
   </g>
   <g id="matplotlib.axis_6">
    <g id="ytick_11"/>
    <g id="ytick_12"/>
    <g id="ytick_13"/>
    <g id="ytick_14"/>
    <g id="ytick_15"/>
   </g>
   <g id="line2d_25">
    <path clip-path="url(#p9984919029)" d="M 786.454773 56.872919 
L 786.822955 58.782043 
L 787.191136 59.742738 
L 788.295682 59.742738 
L 788.663864 61.676522 
L 789.032045 61.676522 
L 789.400227 62.649666 
L 791.609318 62.649666 
L 791.9775 63.627013 
L 792.345682 63.627013 
L 792.713864 64.608592 
L 794.922955 64.608592 
L 795.291136 65.594429 
L 795.659318 65.594429 
L 796.395682 67.578989 
L 796.763864 67.578989 
L 797.132045 68.577769 
L 797.500227 68.577769 
L 797.868409 69.58092 
L 799.341136 69.58092 
L 799.709318 70.58847 
L 801.550227 70.58847 
L 801.918409 71.60045 
L 802.654773 71.60045 
L 803.022955 72.616887 
L 803.391136 74.186593 
L 803.759318 74.186593 
L 804.1275 76.253625 
L 807.072955 76.253625 
L 807.441136 77.294063 
L 808.1775 77.294063 
L 808.545682 79.388934 
L 808.913864 78.916464 
L 809.650227 78.916464 
L 810.018409 81.032846 
L 810.754773 81.032846 
L 811.122955 82.09822 
L 811.859318 82.09822 
L 812.2275 83.168425 
L 812.595682 83.168425 
L 813.332045 85.323462 
L 815.172955 85.323462 
L 815.909318 87.498224 
L 819.591136 87.498224 
L 819.959318 87.034601 
L 820.3275 88.130916 
L 824.745682 88.130916 
L 825.113864 89.232283 
L 825.850227 89.232283 
L 826.218409 90.338736 
L 827.691136 90.338736 
L 828.059318 92.567047 
L 828.795682 94.816134 
L 829.163864 94.816134 
L 829.900227 97.08629 
L 830.636591 97.08629 
L 831.004773 98.229362 
L 831.372955 98.229362 
L 831.741136 99.377813 
L 832.109318 99.377813 
L 832.4775 98.929086 
L 833.213864 98.929086 
L 833.582045 100.084621 
L 834.686591 100.084621 
L 835.054773 101.245632 
L 836.5275 101.245632 
L 836.895682 102.412159 
L 837.263864 102.412159 
L 838.000227 104.761918 
L 838.368409 104.761918 
L 838.736591 105.945229 
L 842.786591 105.945229 
L 843.154773 108.328918 
L 850.518409 108.328918 
L 850.886591 109.529379 
L 851.622955 109.529379 
L 851.991136 110.735639 
L 852.359318 110.302461 
L 853.463864 110.302461 
L 853.832045 111.516453 
L 854.568409 111.516453 
L 854.936591 113.962203 
L 855.672955 113.962203 
L 856.7775 117.675896 
L 858.618409 117.675896 
L 858.986591 118.92599 
L 860.8275 118.92599 
L 861.563864 121.444743 
L 863.036591 121.444743 
L 863.404773 122.713495 
L 863.772955 122.713495 
L 864.509318 125.269982 
L 864.8775 125.269982 
L 865.245682 126.557813 
L 867.454773 126.557813 
L 868.559318 130.460231 
L 869.663864 130.460231 
L 870.032045 131.774176 
L 871.504773 131.774176 
L 871.872955 133.094775 
L 873.345682 133.094775 
L 873.713864 134.422076 
L 878.500227 134.422076 
L 878.868409 135.756133 
L 882.550227 135.756133 
L 882.918409 137.096996 
L 885.495682 137.096996 
L 885.863864 138.444718 
L 886.232045 138.444718 
L 886.600227 139.799351 
L 888.072955 139.799351 
L 888.441136 141.160949 
L 889.913864 141.160949 
L 890.282045 142.529565 
L 892.122955 142.529565 
L 892.491136 143.905254 
L 896.172955 143.905254 
L 896.541136 146.678072 
L 898.013864 146.678072 
L 898.382045 148.075313 
L 904.641136 148.075313 
L 905.009318 149.479849 
L 905.3775 149.479849 
L 906.113864 152.311041 
L 906.482045 152.311041 
L 906.850227 153.737813 
L 907.218409 153.737813 
L 907.586591 155.172113 
L 913.109318 155.172113 
L 913.4775 156.614003 
L 914.213864 156.614003 
L 914.582045 158.063542 
L 915.318409 158.063542 
L 915.686591 159.520791 
L 921.209318 159.520791 
L 921.5775 160.985813 
L 924.891136 160.985813 
L 925.259318 162.458668 
L 938.145682 162.458668 
L 938.513864 163.939421 
L 939.250227 163.939421 
L 939.618409 165.428135 
L 944.404773 165.428135 
L 944.772955 166.924874 
L 949.9275 166.924874 
L 950.295682 168.429704 
L 952.504773 168.429704 
L 952.872955 169.942691 
L 955.818409 169.942691 
L 956.186591 171.463899 
L 956.922955 171.463899 
L 957.291136 172.993398 
L 958.763864 172.993398 
L 959.132045 174.531255 
L 960.604773 174.531255 
L 960.972955 176.077539 
L 967.600227 176.077539 
L 967.968409 177.632318 
L 969.072955 177.632318 
L 969.441136 179.195664 
L 978.645682 179.195664 
L 979.013864 180.767647 
L 980.486591 180.767647 
L 980.854773 182.348339 
L 992.636591 182.348339 
L 993.004773 183.937813 
L 997.054773 183.937813 
L 997.422955 185.536141 
L 999.263864 185.536141 
L 999.632045 187.143399 
L 1002.945682 187.143399 
L 1003.313864 188.759661 
L 1009.572955 188.759661 
L 1009.941136 190.385004 
L 1010.309318 190.385004 
L 1010.6775 192.019503 
L 1019.882045 192.019503 
L 1020.250227 193.663236 
L 1020.618409 193.663236 
L 1020.986591 195.316283 
L 1027.982045 195.316283 
L 1028.350227 196.978722 
L 1034.241136 196.978722 
L 1034.609318 198.650633 
L 1040.868409 198.650633 
L 1041.236591 200.332098 
L 1048.968409 200.332098 
L 1049.336591 202.023199 
L 1063.695682 202.023199 
L 1064.063864 203.724019 
L 1075.109318 203.724019 
L 1075.4775 205.434642 
L 1077.686591 205.434642 
L 1078.054773 207.155154 
L 1081.000227 207.155154 
L 1081.000227 207.155154 
" style="fill:none;stroke:#8b0000;stroke-linecap:square;stroke-width:2;"/>
   </g>
   <g id="line2d_26">
    <path clip-path="url(#p9984919029)" d="M 786.454773 135.084871 
L 786.822955 133.863109 
L 787.191136 133.244955 
L 788.295682 133.244955 
L 788.663864 131.993813 
L 789.032045 131.993813 
L 789.400227 131.360704 
L 791.609318 131.360704 
L 791.9775 130.72249 
L 792.345682 130.72249 
L 792.713864 132.83012 
L 794.922955 132.83012 
L 795.291136 132.192691 
L 795.659318 132.192691 
L 796.395682 130.902157 
L 796.763864 130.902157 
L 797.132045 130.248924 
L 797.500227 130.248924 
L 797.868409 132.398143 
L 799.341136 132.398143 
L 799.709318 131.745696 
L 801.550227 131.745696 
L 801.918409 131.087813 
L 802.654773 131.087813 
L 803.022955 133.26752 
L 803.391136 134.158999 
L 803.759318 134.158999 
L 804.1275 135.733966 
L 807.072955 135.733966 
L 807.441136 137.989744 
L 808.1775 137.989744 
L 808.545682 136.676774 
L 808.913864 136.011726 
L 809.650227 136.011726 
L 810.018409 137.644391 
L 810.754773 137.644391 
L 811.122955 139.968209 
L 811.859318 139.968209 
L 812.2275 139.305954 
L 812.595682 139.305954 
L 812.963864 141.657813 
L 813.332045 140.997187 
L 815.172955 140.997187 
L 815.909318 139.658083 
L 819.591136 139.658083 
L 819.959318 138.979441 
L 820.3275 141.383267 
L 824.745682 141.383267 
L 825.113864 140.706306 
L 825.850227 140.706306 
L 826.218409 143.140106 
L 827.691136 143.140106 
L 828.059318 141.783646 
L 828.795682 140.401831 
L 829.163864 140.401831 
L 829.532045 139.701193 
L 829.900227 142.199133 
L 830.636591 142.199133 
L 831.004773 141.500372 
L 831.372955 141.500372 
L 831.741136 140.794955 
L 832.109318 140.794955 
L 832.4775 140.082789 
L 833.213864 140.082789 
L 833.582045 139.363774 
L 834.686591 139.363774 
L 835.054773 138.637813 
L 836.5275 138.637813 
L 836.895682 137.904803 
L 837.263864 137.904803 
L 837.632045 140.479276 
L 838.000227 139.748107 
L 838.368409 139.748107 
L 838.736591 139.009734 
L 842.786591 139.009734 
L 843.154773 137.510947 
L 850.518409 137.510947 
L 850.886591 140.147813 
L 851.622955 140.147813 
L 851.991136 142.811179 
L 852.359318 142.069631 
L 853.463864 142.069631 
L 853.832045 141.320554 
L 854.568409 141.320554 
L 854.936591 139.799351 
L 855.672955 139.799351 
L 856.041136 142.529565 
L 856.409318 141.767346 
L 856.7775 144.53625 
L 858.618409 144.53625 
L 858.986591 143.776556 
L 860.8275 143.776556 
L 861.563864 142.233051 
L 863.036591 142.233051 
L 863.404773 145.063344 
L 863.772955 145.063344 
L 864.141136 147.923909 
L 864.509318 147.162006 
L 864.8775 147.162006 
L 865.245682 146.391867 
L 867.454773 146.391867 
L 868.191136 144.826337 
L 868.559318 147.764186 
L 869.663864 147.764186 
L 870.032045 146.980354 
L 871.504773 146.980354 
L 871.872955 146.187813 
L 873.345682 146.187813 
L 873.713864 149.182505 
L 878.500227 149.182505 
L 878.868409 148.39343 
L 882.550227 148.39343 
L 882.918409 147.59544 
L 885.495682 147.59544 
L 885.863864 150.649176 
L 886.232045 150.649176 
L 886.600227 149.854955 
L 888.072955 149.854955 
L 888.441136 149.051606 
L 889.913864 149.051606 
L 890.282045 152.166714 
L 892.122955 152.166714 
L 892.491136 151.367464 
L 896.172955 151.367464 
L 896.541136 153.737813 
L 898.013864 153.737813 
L 898.382045 152.93367 
L 904.641136 152.93367 
L 905.009318 156.164598 
L 905.3775 156.164598 
L 905.745682 155.365357 
L 906.113864 158.649861 
L 906.482045 158.649861 
L 906.850227 157.855994 
L 907.218409 157.855994 
L 907.586591 157.052447 
L 913.109318 157.052447 
L 913.4775 160.407751 
L 914.213864 160.407751 
L 914.582045 163.804479 
L 915.318409 163.804479 
L 915.686591 163.022906 
L 921.209318 163.022906 
L 921.5775 166.478438 
L 924.891136 166.478438 
L 925.259318 165.70385 
L 938.145682 165.70385 
L 938.513864 169.220091 
L 939.250227 169.220091 
L 939.618409 172.781125 
L 944.404773 172.781125 
L 944.772955 176.387813 
L 949.9275 176.387813 
L 950.295682 175.657167 
L 952.504773 175.657167 
L 952.872955 174.917033 
L 955.818409 174.917033 
L 956.186591 174.167224 
L 956.922955 174.167224 
L 957.291136 173.407549 
L 958.763864 173.407549 
L 959.132045 172.637813 
L 960.604773 172.637813 
L 960.972955 171.857813 
L 967.600227 171.857813 
L 967.968409 175.627745 
L 969.072955 175.627745 
L 969.441136 174.857407 
L 978.645682 174.857407 
L 979.013864 178.699037 
L 980.486591 178.699037 
L 980.854773 182.593292 
L 992.636591 182.593292 
L 993.004773 181.855054 
L 997.054773 181.855054 
L 997.422955 185.825313 
L 999.263864 185.825313 
L 999.632045 185.099351 
L 1002.945682 185.099351 
L 1003.313864 189.148376 
L 1009.572955 189.148376 
L 1009.941136 188.435685 
L 1010.309318 188.435685 
L 1010.6775 187.712813 
L 1019.882045 187.712813 
L 1020.250227 191.868028 
L 1020.618409 191.868028 
L 1020.986591 191.159552 
L 1027.982045 191.159552 
L 1028.350227 190.440732 
L 1034.241136 190.440732 
L 1034.609318 189.711342 
L 1040.868409 189.711342 
L 1041.236591 188.971146 
L 1048.968409 188.971146 
L 1049.336591 188.219902 
L 1063.695682 188.219902 
L 1064.063864 192.566384 
L 1075.109318 192.566384 
L 1075.4775 191.830994 
L 1077.686591 191.830994 
L 1078.054773 191.084377 
L 1081.000227 191.084377 
L 1081.000227 191.084377 
" style="fill:none;stroke:#000080;stroke-linecap:square;stroke-width:2;"/>
   </g>
   <g id="patch_9">
    <path d="M 771.7275 289.637812 
L 771.7275 17.837813 
" style="fill:none;stroke:#000000;stroke-linecap:square;stroke-linejoin:miter;"/>
   </g>
   <g id="patch_10">
    <path d="M 771.7275 289.637812 
L 1095.7275 289.637812 
" style="fill:none;stroke:#000000;stroke-linecap:square;stroke-linejoin:miter;"/>
   </g>
  </g>
 </g>
 <defs>
  <clipPath id="pcd86260c42">
   <rect height="271.8" width="324" x="91.3275" y="17.837812"/>
  </clipPath>
  <clipPath id="pe8ef708a1c">
   <rect height="271.8" width="324" x="431.5275" y="17.837812"/>
  </clipPath>
  <clipPath id="p9984919029">
   <rect height="271.8" width="324" x="771.7275" y="17.837812"/>
  </clipPath>
 </defs>
</svg>
