<?xml version="1.0" encoding="utf-8" standalone="no"?>
<!DOCTYPE svg PUBLIC "-//W3C//DTD SVG 1.1//EN"
  "http://www.w3.org/Graphics/SVG/1.1/DTD/svg11.dtd">
<!-- Created with matplotlib (https://matplotlib.org/) -->
<svg height="363.535312pt" version="1.1" viewBox="0 0 1120.7425 363.535312" width="1120.7425pt" xmlns="http://www.w3.org/2000/svg" xmlns:xlink="http://www.w3.org/1999/xlink">
 <defs>
  <style type="text/css">
*{stroke-linecap:butt;stroke-linejoin:round;}
  </style>
 </defs>
 <g id="figure_1">
  <g id="patch_1">
   <path d="M 0 363.535312 
L 1120.7425 363.535312 
L 1120.7425 -0 
L 0 -0 
z
" style="fill:none;"/>
  </g>
  <g id="axes_1">
   <g id="patch_2">
    <path d="M 109.1425 289.637812 
L 433.1425 289.637812 
L 433.1425 17.837813 
L 109.1425 17.837813 
z
" style="fill:none;"/>
   </g>
   <g id="matplotlib.axis_1">
    <g id="xtick_1">
     <g id="line2d_1">
      <defs>
       <path d="M 0 0 
L 0 5 
" id="m95e6220e35" style="stroke:#000000;stroke-width:0.8;"/>
      </defs>
      <g>
       <use style="stroke:#000000;stroke-width:0.8;" x="123.869773" xlink:href="#m95e6220e35" y="289.637812"/>
      </g>
     </g>
     <g id="text_1">
      <!-- 1 -->
      <defs>
       <path d="M 12.40625 8.296875 
L 28.515625 8.296875 
L 28.515625 63.921875 
L 10.984375 60.40625 
L 10.984375 69.390625 
L 28.421875 72.90625 
L 38.28125 72.90625 
L 38.28125 8.296875 
L 54.390625 8.296875 
L 54.390625 0 
L 12.40625 0 
z
" id="DejaVuSans-49"/>
      </defs>
      <g transform="translate(114.962273 319.413437)scale(0.28 -0.28)">
       <use xlink:href="#DejaVuSans-49"/>
      </g>
     </g>
    </g>
    <g id="xtick_2">
     <g id="line2d_2">
      <g>
       <use style="stroke:#000000;stroke-width:0.8;" x="197.506136" xlink:href="#m95e6220e35" y="289.637812"/>
      </g>
     </g>
     <g id="text_2">
      <!-- 2 -->
      <defs>
       <path d="M 19.1875 8.296875 
L 53.609375 8.296875 
L 53.609375 0 
L 7.328125 0 
L 7.328125 8.296875 
Q 12.9375 14.109375 22.625 23.890625 
Q 32.328125 33.6875 34.8125 36.53125 
Q 39.546875 41.84375 41.421875 45.53125 
Q 43.3125 49.21875 43.3125 52.78125 
Q 43.3125 58.59375 39.234375 62.25 
Q 35.15625 65.921875 28.609375 65.921875 
Q 23.96875 65.921875 18.8125 64.3125 
Q 13.671875 62.703125 7.8125 59.421875 
L 7.8125 69.390625 
Q 13.765625 71.78125 18.9375 73 
Q 24.125 74.21875 28.421875 74.21875 
Q 39.75 74.21875 46.484375 68.546875 
Q 53.21875 62.890625 53.21875 53.421875 
Q 53.21875 48.921875 51.53125 44.890625 
Q 49.859375 40.875 45.40625 35.40625 
Q 44.1875 33.984375 37.640625 27.21875 
Q 31.109375 20.453125 19.1875 8.296875 
z
" id="DejaVuSans-50"/>
      </defs>
      <g transform="translate(188.598636 319.413437)scale(0.28 -0.28)">
       <use xlink:href="#DejaVuSans-50"/>
      </g>
     </g>
    </g>
    <g id="xtick_3">
     <g id="line2d_3">
      <g>
       <use style="stroke:#000000;stroke-width:0.8;" x="271.1425" xlink:href="#m95e6220e35" y="289.637812"/>
      </g>
     </g>
     <g id="text_3">
      <!-- 3 -->
      <defs>
       <path d="M 40.578125 39.3125 
Q 47.65625 37.796875 51.625 33 
Q 55.609375 28.21875 55.609375 21.1875 
Q 55.609375 10.40625 48.1875 4.484375 
Q 40.765625 -1.421875 27.09375 -1.421875 
Q 22.515625 -1.421875 17.65625 -0.515625 
Q 12.796875 0.390625 7.625 2.203125 
L 7.625 11.71875 
Q 11.71875 9.328125 16.59375 8.109375 
Q 21.484375 6.890625 26.8125 6.890625 
Q 36.078125 6.890625 40.9375 10.546875 
Q 45.796875 14.203125 45.796875 21.1875 
Q 45.796875 27.640625 41.28125 31.265625 
Q 36.765625 34.90625 28.71875 34.90625 
L 20.21875 34.90625 
L 20.21875 43.015625 
L 29.109375 43.015625 
Q 36.375 43.015625 40.234375 45.921875 
Q 44.09375 48.828125 44.09375 54.296875 
Q 44.09375 59.90625 40.109375 62.90625 
Q 36.140625 65.921875 28.71875 65.921875 
Q 24.65625 65.921875 20.015625 65.03125 
Q 15.375 64.15625 9.8125 62.3125 
L 9.8125 71.09375 
Q 15.4375 72.65625 20.34375 73.4375 
Q 25.25 74.21875 29.59375 74.21875 
Q 40.828125 74.21875 47.359375 69.109375 
Q 53.90625 64.015625 53.90625 55.328125 
Q 53.90625 49.265625 50.4375 45.09375 
Q 46.96875 40.921875 40.578125 39.3125 
z
" id="DejaVuSans-51"/>
      </defs>
      <g transform="translate(262.235 319.413437)scale(0.28 -0.28)">
       <use xlink:href="#DejaVuSans-51"/>
      </g>
     </g>
    </g>
    <g id="xtick_4">
     <g id="line2d_4">
      <g>
       <use style="stroke:#000000;stroke-width:0.8;" x="344.778864" xlink:href="#m95e6220e35" y="289.637812"/>
      </g>
     </g>
     <g id="text_4">
      <!-- 4 -->
      <defs>
       <path d="M 37.796875 64.3125 
L 12.890625 25.390625 
L 37.796875 25.390625 
z
M 35.203125 72.90625 
L 47.609375 72.90625 
L 47.609375 25.390625 
L 58.015625 25.390625 
L 58.015625 17.1875 
L 47.609375 17.1875 
L 47.609375 0 
L 37.796875 0 
L 37.796875 17.1875 
L 4.890625 17.1875 
L 4.890625 26.703125 
z
" id="DejaVuSans-52"/>
      </defs>
      <g transform="translate(335.871364 319.413437)scale(0.28 -0.28)">
       <use xlink:href="#DejaVuSans-52"/>
      </g>
     </g>
    </g>
    <g id="xtick_5">
     <g id="line2d_5">
      <g>
       <use style="stroke:#000000;stroke-width:0.8;" x="418.415227" xlink:href="#m95e6220e35" y="289.637812"/>
      </g>
     </g>
     <g id="text_5">
      <!-- 5 -->
      <defs>
       <path d="M 10.796875 72.90625 
L 49.515625 72.90625 
L 49.515625 64.59375 
L 19.828125 64.59375 
L 19.828125 46.734375 
Q 21.96875 47.46875 24.109375 47.828125 
Q 26.265625 48.1875 28.421875 48.1875 
Q 40.625 48.1875 47.75 41.5 
Q 54.890625 34.8125 54.890625 23.390625 
Q 54.890625 11.625 47.5625 5.09375 
Q 40.234375 -1.421875 26.90625 -1.421875 
Q 22.3125 -1.421875 17.546875 -0.640625 
Q 12.796875 0.140625 7.71875 1.703125 
L 7.71875 11.625 
Q 12.109375 9.234375 16.796875 8.0625 
Q 21.484375 6.890625 26.703125 6.890625 
Q 35.15625 6.890625 40.078125 11.328125 
Q 45.015625 15.765625 45.015625 23.390625 
Q 45.015625 31 40.078125 35.4375 
Q 35.15625 39.890625 26.703125 39.890625 
Q 22.75 39.890625 18.8125 39.015625 
Q 14.890625 38.140625 10.796875 36.28125 
z
" id="DejaVuSans-53"/>
      </defs>
      <g transform="translate(409.507727 319.413437)scale(0.28 -0.28)">
       <use xlink:href="#DejaVuSans-53"/>
      </g>
     </g>
    </g>
    <g id="text_6">
     <!-- -log10 p-value -->
     <defs>
      <path d="M 4.890625 31.390625 
L 31.203125 31.390625 
L 31.203125 23.390625 
L 4.890625 23.390625 
z
" id="DejaVuSans-45"/>
      <path d="M 9.421875 75.984375 
L 18.40625 75.984375 
L 18.40625 0 
L 9.421875 0 
z
" id="DejaVuSans-108"/>
      <path d="M 30.609375 48.390625 
Q 23.390625 48.390625 19.1875 42.75 
Q 14.984375 37.109375 14.984375 27.296875 
Q 14.984375 17.484375 19.15625 11.84375 
Q 23.34375 6.203125 30.609375 6.203125 
Q 37.796875 6.203125 41.984375 11.859375 
Q 46.1875 17.53125 46.1875 27.296875 
Q 46.1875 37.015625 41.984375 42.703125 
Q 37.796875 48.390625 30.609375 48.390625 
z
M 30.609375 56 
Q 42.328125 56 49.015625 48.375 
Q 55.71875 40.765625 55.71875 27.296875 
Q 55.71875 13.875 49.015625 6.21875 
Q 42.328125 -1.421875 30.609375 -1.421875 
Q 18.84375 -1.421875 12.171875 6.21875 
Q 5.515625 13.875 5.515625 27.296875 
Q 5.515625 40.765625 12.171875 48.375 
Q 18.84375 56 30.609375 56 
z
" id="DejaVuSans-111"/>
      <path d="M 45.40625 27.984375 
Q 45.40625 37.75 41.375 43.109375 
Q 37.359375 48.484375 30.078125 48.484375 
Q 22.859375 48.484375 18.828125 43.109375 
Q 14.796875 37.75 14.796875 27.984375 
Q 14.796875 18.265625 18.828125 12.890625 
Q 22.859375 7.515625 30.078125 7.515625 
Q 37.359375 7.515625 41.375 12.890625 
Q 45.40625 18.265625 45.40625 27.984375 
z
M 54.390625 6.78125 
Q 54.390625 -7.171875 48.1875 -13.984375 
Q 42 -20.796875 29.203125 -20.796875 
Q 24.46875 -20.796875 20.265625 -20.09375 
Q 16.0625 -19.390625 12.109375 -17.921875 
L 12.109375 -9.1875 
Q 16.0625 -11.328125 19.921875 -12.34375 
Q 23.78125 -13.375 27.78125 -13.375 
Q 36.625 -13.375 41.015625 -8.765625 
Q 45.40625 -4.15625 45.40625 5.171875 
L 45.40625 9.625 
Q 42.625 4.78125 38.28125 2.390625 
Q 33.9375 0 27.875 0 
Q 17.828125 0 11.671875 7.65625 
Q 5.515625 15.328125 5.515625 27.984375 
Q 5.515625 40.671875 11.671875 48.328125 
Q 17.828125 56 27.875 56 
Q 33.9375 56 38.28125 53.609375 
Q 42.625 51.21875 45.40625 46.390625 
L 45.40625 54.6875 
L 54.390625 54.6875 
z
" id="DejaVuSans-103"/>
      <path d="M 31.78125 66.40625 
Q 24.171875 66.40625 20.328125 58.90625 
Q 16.5 51.421875 16.5 36.375 
Q 16.5 21.390625 20.328125 13.890625 
Q 24.171875 6.390625 31.78125 6.390625 
Q 39.453125 6.390625 43.28125 13.890625 
Q 47.125 21.390625 47.125 36.375 
Q 47.125 51.421875 43.28125 58.90625 
Q 39.453125 66.40625 31.78125 66.40625 
z
M 31.78125 74.21875 
Q 44.046875 74.21875 50.515625 64.515625 
Q 56.984375 54.828125 56.984375 36.375 
Q 56.984375 17.96875 50.515625 8.265625 
Q 44.046875 -1.421875 31.78125 -1.421875 
Q 19.53125 -1.421875 13.0625 8.265625 
Q 6.59375 17.96875 6.59375 36.375 
Q 6.59375 54.828125 13.0625 64.515625 
Q 19.53125 74.21875 31.78125 74.21875 
z
" id="DejaVuSans-48"/>
      <path id="DejaVuSans-32"/>
      <path d="M 18.109375 8.203125 
L 18.109375 -20.796875 
L 9.078125 -20.796875 
L 9.078125 54.6875 
L 18.109375 54.6875 
L 18.109375 46.390625 
Q 20.953125 51.265625 25.265625 53.625 
Q 29.59375 56 35.59375 56 
Q 45.5625 56 51.78125 48.09375 
Q 58.015625 40.1875 58.015625 27.296875 
Q 58.015625 14.40625 51.78125 6.484375 
Q 45.5625 -1.421875 35.59375 -1.421875 
Q 29.59375 -1.421875 25.265625 0.953125 
Q 20.953125 3.328125 18.109375 8.203125 
z
M 48.6875 27.296875 
Q 48.6875 37.203125 44.609375 42.84375 
Q 40.53125 48.484375 33.40625 48.484375 
Q 26.265625 48.484375 22.1875 42.84375 
Q 18.109375 37.203125 18.109375 27.296875 
Q 18.109375 17.390625 22.1875 11.75 
Q 26.265625 6.109375 33.40625 6.109375 
Q 40.53125 6.109375 44.609375 11.75 
Q 48.6875 17.390625 48.6875 27.296875 
z
" id="DejaVuSans-112"/>
      <path d="M 2.984375 54.6875 
L 12.5 54.6875 
L 29.59375 8.796875 
L 46.6875 54.6875 
L 56.203125 54.6875 
L 35.6875 0 
L 23.484375 0 
z
" id="DejaVuSans-118"/>
      <path d="M 34.28125 27.484375 
Q 23.390625 27.484375 19.1875 25 
Q 14.984375 22.515625 14.984375 16.5 
Q 14.984375 11.71875 18.140625 8.90625 
Q 21.296875 6.109375 26.703125 6.109375 
Q 34.1875 6.109375 38.703125 11.40625 
Q 43.21875 16.703125 43.21875 25.484375 
L 43.21875 27.484375 
z
M 52.203125 31.203125 
L 52.203125 0 
L 43.21875 0 
L 43.21875 8.296875 
Q 40.140625 3.328125 35.546875 0.953125 
Q 30.953125 -1.421875 24.3125 -1.421875 
Q 15.921875 -1.421875 10.953125 3.296875 
Q 6 8.015625 6 15.921875 
Q 6 25.140625 12.171875 29.828125 
Q 18.359375 34.515625 30.609375 34.515625 
L 43.21875 34.515625 
L 43.21875 35.40625 
Q 43.21875 41.609375 39.140625 45 
Q 35.0625 48.390625 27.6875 48.390625 
Q 23 48.390625 18.546875 47.265625 
Q 14.109375 46.140625 10.015625 43.890625 
L 10.015625 52.203125 
Q 14.9375 54.109375 19.578125 55.046875 
Q 24.21875 56 28.609375 56 
Q 40.484375 56 46.34375 49.84375 
Q 52.203125 43.703125 52.203125 31.203125 
z
" id="DejaVuSans-97"/>
      <path d="M 8.5 21.578125 
L 8.5 54.6875 
L 17.484375 54.6875 
L 17.484375 21.921875 
Q 17.484375 14.15625 20.5 10.265625 
Q 23.53125 6.390625 29.59375 6.390625 
Q 36.859375 6.390625 41.078125 11.03125 
Q 45.3125 15.671875 45.3125 23.6875 
L 45.3125 54.6875 
L 54.296875 54.6875 
L 54.296875 0 
L 45.3125 0 
L 45.3125 8.40625 
Q 42.046875 3.421875 37.71875 1 
Q 33.40625 -1.421875 27.6875 -1.421875 
Q 18.265625 -1.421875 13.375 4.4375 
Q 8.5 10.296875 8.5 21.578125 
z
M 31.109375 56 
z
" id="DejaVuSans-117"/>
      <path d="M 56.203125 29.59375 
L 56.203125 25.203125 
L 14.890625 25.203125 
Q 15.484375 15.921875 20.484375 11.0625 
Q 25.484375 6.203125 34.421875 6.203125 
Q 39.59375 6.203125 44.453125 7.46875 
Q 49.3125 8.734375 54.109375 11.28125 
L 54.109375 2.78125 
Q 49.265625 0.734375 44.1875 -0.34375 
Q 39.109375 -1.421875 33.890625 -1.421875 
Q 20.796875 -1.421875 13.15625 6.1875 
Q 5.515625 13.8125 5.515625 26.8125 
Q 5.515625 40.234375 12.765625 48.109375 
Q 20.015625 56 32.328125 56 
Q 43.359375 56 49.78125 48.890625 
Q 56.203125 41.796875 56.203125 29.59375 
z
M 47.21875 32.234375 
Q 47.125 39.59375 43.09375 43.984375 
Q 39.0625 48.390625 32.421875 48.390625 
Q 24.90625 48.390625 20.390625 44.140625 
Q 15.875 39.890625 15.1875 32.171875 
z
" id="DejaVuSans-101"/>
     </defs>
     <g transform="translate(170.3075 350.512187)scale(0.28 -0.28)">
      <use xlink:href="#DejaVuSans-45"/>
      <use x="36.083984" xlink:href="#DejaVuSans-108"/>
      <use x="63.867188" xlink:href="#DejaVuSans-111"/>
      <use x="125.048828" xlink:href="#DejaVuSans-103"/>
      <use x="188.525391" xlink:href="#DejaVuSans-49"/>
      <use x="252.148438" xlink:href="#DejaVuSans-48"/>
      <use x="315.771484" xlink:href="#DejaVuSans-32"/>
      <use x="347.558594" xlink:href="#DejaVuSans-112"/>
      <use x="411.035156" xlink:href="#DejaVuSans-45"/>
      <use x="447.087891" xlink:href="#DejaVuSans-118"/>
      <use x="506.267578" xlink:href="#DejaVuSans-97"/>
      <use x="567.546875" xlink:href="#DejaVuSans-108"/>
      <use x="595.330078" xlink:href="#DejaVuSans-117"/>
      <use x="658.708984" xlink:href="#DejaVuSans-101"/>
     </g>
    </g>
   </g>
   <g id="matplotlib.axis_2">
    <g id="ytick_1">
     <g id="line2d_6">
      <defs>
       <path d="M 0 0 
L -5 0 
" id="mefe8144c88" style="stroke:#000000;stroke-width:0.8;"/>
      </defs>
      <g>
       <use style="stroke:#000000;stroke-width:0.8;" x="109.1425" xlink:href="#mefe8144c88" y="289.637812"/>
      </g>
     </g>
     <g id="text_7">
      <!-- 0.00 -->
      <defs>
       <path d="M 10.6875 12.40625 
L 21 12.40625 
L 21 0 
L 10.6875 0 
z
" id="DejaVuSans-46"/>
      </defs>
      <g transform="translate(38.29875 300.275625)scale(0.28 -0.28)">
       <use xlink:href="#DejaVuSans-48"/>
       <use x="63.623047" xlink:href="#DejaVuSans-46"/>
       <use x="95.410156" xlink:href="#DejaVuSans-48"/>
       <use x="159.033203" xlink:href="#DejaVuSans-48"/>
      </g>
     </g>
    </g>
    <g id="ytick_2">
     <g id="line2d_7">
      <g>
       <use style="stroke:#000000;stroke-width:0.8;" x="109.1425" xlink:href="#mefe8144c88" y="221.687813"/>
      </g>
     </g>
     <g id="text_8">
      <!-- 0.25 -->
      <g transform="translate(38.29875 232.325625)scale(0.28 -0.28)">
       <use xlink:href="#DejaVuSans-48"/>
       <use x="63.623047" xlink:href="#DejaVuSans-46"/>
       <use x="95.410156" xlink:href="#DejaVuSans-50"/>
       <use x="159.033203" xlink:href="#DejaVuSans-53"/>
      </g>
     </g>
    </g>
    <g id="ytick_3">
     <g id="line2d_8">
      <g>
       <use style="stroke:#000000;stroke-width:0.8;" x="109.1425" xlink:href="#mefe8144c88" y="153.737813"/>
      </g>
     </g>
     <g id="text_9">
      <!-- 0.50 -->
      <g transform="translate(38.29875 164.375625)scale(0.28 -0.28)">
       <use xlink:href="#DejaVuSans-48"/>
       <use x="63.623047" xlink:href="#DejaVuSans-46"/>
       <use x="95.410156" xlink:href="#DejaVuSans-53"/>
       <use x="159.033203" xlink:href="#DejaVuSans-48"/>
      </g>
     </g>
    </g>
    <g id="ytick_4">
     <g id="line2d_9">
      <g>
       <use style="stroke:#000000;stroke-width:0.8;" x="109.1425" xlink:href="#mefe8144c88" y="85.787813"/>
      </g>
     </g>
     <g id="text_10">
      <!-- 0.75 -->
      <defs>
       <path d="M 8.203125 72.90625 
L 55.078125 72.90625 
L 55.078125 68.703125 
L 28.609375 0 
L 18.3125 0 
L 43.21875 64.59375 
L 8.203125 64.59375 
z
" id="DejaVuSans-55"/>
      </defs>
      <g transform="translate(38.29875 96.425625)scale(0.28 -0.28)">
       <use xlink:href="#DejaVuSans-48"/>
       <use x="63.623047" xlink:href="#DejaVuSans-46"/>
       <use x="95.410156" xlink:href="#DejaVuSans-55"/>
       <use x="159.033203" xlink:href="#DejaVuSans-53"/>
      </g>
     </g>
    </g>
    <g id="ytick_5">
     <g id="line2d_10">
      <g>
       <use style="stroke:#000000;stroke-width:0.8;" x="109.1425" xlink:href="#mefe8144c88" y="17.837813"/>
      </g>
     </g>
     <g id="text_11">
      <!-- 1.00 -->
      <g transform="translate(38.29875 28.475625)scale(0.28 -0.28)">
       <use xlink:href="#DejaVuSans-49"/>
       <use x="63.623047" xlink:href="#DejaVuSans-46"/>
       <use x="95.410156" xlink:href="#DejaVuSans-48"/>
       <use x="159.033203" xlink:href="#DejaVuSans-48"/>
      </g>
     </g>
    </g>
    <g id="text_12">
     <!-- Precision -->
     <defs>
      <path d="M 19.671875 64.796875 
L 19.671875 37.40625 
L 32.078125 37.40625 
Q 38.96875 37.40625 42.71875 40.96875 
Q 46.484375 44.53125 46.484375 51.125 
Q 46.484375 57.671875 42.71875 61.234375 
Q 38.96875 64.796875 32.078125 64.796875 
z
M 9.8125 72.90625 
L 32.078125 72.90625 
Q 44.34375 72.90625 50.609375 67.359375 
Q 56.890625 61.8125 56.890625 51.125 
Q 56.890625 40.328125 50.609375 34.8125 
Q 44.34375 29.296875 32.078125 29.296875 
L 19.671875 29.296875 
L 19.671875 0 
L 9.8125 0 
z
" id="DejaVuSans-80"/>
      <path d="M 41.109375 46.296875 
Q 39.59375 47.171875 37.8125 47.578125 
Q 36.03125 48 33.890625 48 
Q 26.265625 48 22.1875 43.046875 
Q 18.109375 38.09375 18.109375 28.8125 
L 18.109375 0 
L 9.078125 0 
L 9.078125 54.6875 
L 18.109375 54.6875 
L 18.109375 46.1875 
Q 20.953125 51.171875 25.484375 53.578125 
Q 30.03125 56 36.53125 56 
Q 37.453125 56 38.578125 55.875 
Q 39.703125 55.765625 41.0625 55.515625 
z
" id="DejaVuSans-114"/>
      <path d="M 48.78125 52.59375 
L 48.78125 44.1875 
Q 44.96875 46.296875 41.140625 47.34375 
Q 37.3125 48.390625 33.40625 48.390625 
Q 24.65625 48.390625 19.8125 42.84375 
Q 14.984375 37.3125 14.984375 27.296875 
Q 14.984375 17.28125 19.8125 11.734375 
Q 24.65625 6.203125 33.40625 6.203125 
Q 37.3125 6.203125 41.140625 7.25 
Q 44.96875 8.296875 48.78125 10.40625 
L 48.78125 2.09375 
Q 45.015625 0.34375 40.984375 -0.53125 
Q 36.96875 -1.421875 32.421875 -1.421875 
Q 20.0625 -1.421875 12.78125 6.34375 
Q 5.515625 14.109375 5.515625 27.296875 
Q 5.515625 40.671875 12.859375 48.328125 
Q 20.21875 56 33.015625 56 
Q 37.15625 56 41.109375 55.140625 
Q 45.0625 54.296875 48.78125 52.59375 
z
" id="DejaVuSans-99"/>
      <path d="M 9.421875 54.6875 
L 18.40625 54.6875 
L 18.40625 0 
L 9.421875 0 
z
M 9.421875 75.984375 
L 18.40625 75.984375 
L 18.40625 64.59375 
L 9.421875 64.59375 
z
" id="DejaVuSans-105"/>
      <path d="M 44.28125 53.078125 
L 44.28125 44.578125 
Q 40.484375 46.53125 36.375 47.5 
Q 32.28125 48.484375 27.875 48.484375 
Q 21.1875 48.484375 17.84375 46.4375 
Q 14.5 44.390625 14.5 40.28125 
Q 14.5 37.15625 16.890625 35.375 
Q 19.28125 33.59375 26.515625 31.984375 
L 29.59375 31.296875 
Q 39.15625 29.25 43.1875 25.515625 
Q 47.21875 21.78125 47.21875 15.09375 
Q 47.21875 7.46875 41.1875 3.015625 
Q 35.15625 -1.421875 24.609375 -1.421875 
Q 20.21875 -1.421875 15.453125 -0.5625 
Q 10.6875 0.296875 5.421875 2 
L 5.421875 11.28125 
Q 10.40625 8.6875 15.234375 7.390625 
Q 20.0625 6.109375 24.8125 6.109375 
Q 31.15625 6.109375 34.5625 8.28125 
Q 37.984375 10.453125 37.984375 14.40625 
Q 37.984375 18.0625 35.515625 20.015625 
Q 33.0625 21.96875 24.703125 23.78125 
L 21.578125 24.515625 
Q 13.234375 26.265625 9.515625 29.90625 
Q 5.8125 33.546875 5.8125 39.890625 
Q 5.8125 47.609375 11.28125 51.796875 
Q 16.75 56 26.8125 56 
Q 31.78125 56 36.171875 55.265625 
Q 40.578125 54.546875 44.28125 53.078125 
z
" id="DejaVuSans-115"/>
      <path d="M 54.890625 33.015625 
L 54.890625 0 
L 45.90625 0 
L 45.90625 32.71875 
Q 45.90625 40.484375 42.875 44.328125 
Q 39.84375 48.1875 33.796875 48.1875 
Q 26.515625 48.1875 22.3125 43.546875 
Q 18.109375 38.921875 18.109375 30.90625 
L 18.109375 0 
L 9.078125 0 
L 9.078125 54.6875 
L 18.109375 54.6875 
L 18.109375 46.1875 
Q 21.34375 51.125 25.703125 53.5625 
Q 30.078125 56 35.796875 56 
Q 45.21875 56 50.046875 50.171875 
Q 54.890625 44.34375 54.890625 33.015625 
z
" id="DejaVuSans-110"/>
     </defs>
     <g transform="translate(28.475625 216.750937)rotate(-90)scale(0.28 -0.28)">
      <use xlink:href="#DejaVuSans-80"/>
      <use x="60.287109" xlink:href="#DejaVuSans-114"/>
      <use x="101.369141" xlink:href="#DejaVuSans-101"/>
      <use x="162.892578" xlink:href="#DejaVuSans-99"/>
      <use x="217.873047" xlink:href="#DejaVuSans-105"/>
      <use x="245.65625" xlink:href="#DejaVuSans-115"/>
      <use x="297.755859" xlink:href="#DejaVuSans-105"/>
      <use x="325.539062" xlink:href="#DejaVuSans-111"/>
      <use x="386.720703" xlink:href="#DejaVuSans-110"/>
     </g>
    </g>
   </g>
   <g id="line2d_11">
    <path clip-path="url(#p0b65f8df75)" d="M 123.869773 91.18067 
L 126.815227 91.18067 
L 127.183409 95.494955 
L 128.656136 95.494955 
L 129.024318 99.809241 
L 133.074318 99.809241 
L 133.4425 104.123527 
L 134.178864 104.123527 
L 134.547045 108.437813 
L 140.437955 108.437813 
L 140.806136 112.752098 
L 143.015227 112.752098 
L 143.383409 117.066384 
L 150.747045 117.066384 
L 151.115227 125.694955 
L 156.269773 125.694955 
L 157.006136 134.323527 
L 158.478864 134.323527 
L 158.847045 138.637813 
L 159.583409 138.637813 
L 159.951591 142.952098 
L 164.737955 142.952098 
L 165.106136 147.266384 
L 165.8425 147.266384 
L 166.210682 151.58067 
L 175.415227 151.58067 
L 175.783409 155.894955 
L 177.256136 155.894955 
L 177.624318 160.209241 
L 207.815227 160.209241 
L 208.183409 164.523527 
L 212.233409 164.523527 
L 212.601591 168.837813 
L 222.5425 168.837813 
L 222.910682 173.152098 
L 224.015227 173.152098 
L 224.383409 177.466384 
L 227.328864 177.466384 
L 228.065227 186.094955 
L 252.733409 186.094955 
L 253.101591 190.409241 
L 259.728864 190.409241 
L 260.097045 194.723527 
L 264.883409 194.723527 
L 265.251591 199.037813 
L 265.987955 199.037813 
L 266.356136 203.352098 
L 277.033409 203.352098 
L 277.401591 207.666384 
L 280.715227 207.666384 
L 281.083409 211.98067 
L 303.910682 211.98067 
L 304.278864 216.294955 
L 309.065227 216.294955 
L 309.801591 224.923527 
L 335.206136 224.923527 
L 335.574318 229.237813 
L 346.251591 229.237813 
L 346.619773 233.552098 
L 380.124318 233.552098 
L 380.4925 237.866384 
L 418.415227 237.866384 
L 418.415227 237.866384 
" style="fill:none;stroke:#8b0000;stroke-linecap:square;stroke-width:2;"/>
   </g>
   <g id="line2d_12">
    <path clip-path="url(#p0b65f8df75)" d="M 123.869773 111.811217 
L 125.710682 111.811217 
L 126.078864 113.256961 
L 126.815227 113.256961 
L 127.183409 114.702706 
L 127.551591 114.702706 
L 127.919773 116.148451 
L 128.656136 116.148451 
L 129.024318 117.594195 
L 129.760682 117.594195 
L 130.128864 123.377174 
L 133.074318 123.377174 
L 133.4425 127.714408 
L 133.810682 129.160153 
L 134.178864 129.160153 
L 134.547045 130.605898 
L 134.915227 133.497387 
L 136.019773 133.497387 
L 136.387955 134.943132 
L 140.437955 134.943132 
L 140.806136 136.388876 
L 141.174318 136.388876 
L 141.5425 137.834621 
L 143.015227 137.834621 
L 143.383409 139.280366 
L 143.751591 139.280366 
L 144.119773 140.72611 
L 144.487955 143.6176 
L 145.960682 143.6176 
L 146.328864 145.063344 
L 149.6425 145.063344 
L 150.010682 146.509089 
L 150.747045 146.509089 
L 151.115227 149.400578 
L 156.269773 149.400578 
L 157.006136 152.292068 
L 158.478864 152.292068 
L 158.847045 155.183557 
L 161.056136 155.183557 
L 161.424318 156.629302 
L 161.7925 156.629302 
L 162.160682 158.075047 
L 164.737955 158.075047 
L 165.106136 160.966536 
L 165.8425 160.966536 
L 166.210682 162.412281 
L 172.469773 162.412281 
L 172.837955 163.858025 
L 175.415227 163.858025 
L 175.783409 165.30377 
L 177.256136 165.30377 
L 177.624318 166.749515 
L 177.9925 169.641004 
L 178.728864 169.641004 
L 179.097045 171.086749 
L 184.987955 171.086749 
L 185.356136 172.532493 
L 186.460682 172.532493 
L 187.197045 175.423983 
L 187.565227 175.423983 
L 187.933409 176.869727 
L 190.878864 176.869727 
L 191.247045 178.315472 
L 191.615227 181.206961 
L 196.033409 181.206961 
L 196.401591 182.652706 
L 197.874318 182.652706 
L 198.610682 185.544195 
L 203.765227 185.544195 
L 204.133409 186.98994 
L 207.078864 186.98994 
L 207.447045 188.435685 
L 207.815227 188.435685 
L 208.183409 189.88143 
L 212.233409 189.88143 
L 212.601591 191.327174 
L 215.178864 191.327174 
L 215.547045 192.772919 
L 221.437955 192.772919 
L 221.806136 194.218664 
L 222.5425 194.218664 
L 222.910682 195.664408 
L 224.015227 195.664408 
L 224.383409 197.110153 
L 227.328864 197.110153 
L 228.065227 200.001642 
L 235.428864 200.001642 
L 235.797045 201.447387 
L 237.637955 201.447387 
L 238.006136 202.893132 
L 252.733409 202.893132 
L 253.101591 204.338876 
L 253.469773 204.338876 
L 253.837955 205.784621 
L 258.256136 205.784621 
L 258.624318 207.230366 
L 259.728864 207.230366 
L 260.097045 208.67611 
L 264.883409 208.67611 
L 265.251591 210.121855 
L 265.987955 210.121855 
L 266.356136 211.5676 
L 268.565227 211.5676 
L 269.301591 214.459089 
L 270.774318 214.459089 
L 271.510682 217.350578 
L 277.033409 217.350578 
L 277.401591 218.796323 
L 280.715227 218.796323 
L 281.083409 220.242068 
L 287.3425 220.242068 
L 287.710682 221.687813 
L 288.447045 221.687813 
L 288.815227 223.133557 
L 298.387955 223.133557 
L 298.756136 224.579302 
L 299.124318 224.579302 
L 299.4925 226.025047 
L 301.701591 226.025047 
L 302.069773 227.470791 
L 302.437955 227.470791 
L 302.806136 228.916536 
L 303.910682 228.916536 
L 304.278864 230.362281 
L 309.065227 230.362281 
L 309.801591 233.25377 
L 313.483409 233.25377 
L 313.851591 234.699515 
L 323.056136 234.699515 
L 323.424318 236.145259 
L 326.001591 236.145259 
L 326.369773 237.591004 
L 329.683409 237.591004 
L 330.051591 239.036749 
L 335.206136 239.036749 
L 335.574318 240.482493 
L 346.251591 240.482493 
L 346.619773 241.928238 
L 348.828864 241.928238 
L 349.197045 243.373983 
L 355.824318 243.373983 
L 356.1925 244.819727 
L 363.187955 244.819727 
L 363.556136 246.265472 
L 380.124318 246.265472 
L 380.4925 247.711217 
L 415.101591 247.711217 
L 415.469773 249.156961 
L 418.415227 249.156961 
L 418.415227 249.156961 
" style="fill:none;stroke:#000080;stroke-linecap:square;stroke-width:2;"/>
   </g>
   <g id="patch_3">
    <path d="M 109.1425 289.637812 
L 109.1425 17.837813 
" style="fill:none;stroke:#000000;stroke-linecap:square;stroke-linejoin:miter;"/>
   </g>
   <g id="patch_4">
    <path d="M 109.1425 289.637812 
L 433.1425 289.637812 
" style="fill:none;stroke:#000000;stroke-linecap:square;stroke-linejoin:miter;"/>
   </g>
  </g>
  <g id="axes_2">
   <g id="patch_5">
    <path d="M 449.3425 289.637812 
L 773.3425 289.637812 
L 773.3425 17.837813 
L 449.3425 17.837813 
z
" style="fill:none;"/>
   </g>
   <g id="matplotlib.axis_3">
    <g id="xtick_6">
     <g id="line2d_13">
      <g>
       <use style="stroke:#000000;stroke-width:0.8;" x="464.069773" xlink:href="#m95e6220e35" y="289.637812"/>
      </g>
     </g>
     <g id="text_13">
      <!-- 1 -->
      <g transform="translate(455.162273 319.413437)scale(0.28 -0.28)">
       <use xlink:href="#DejaVuSans-49"/>
      </g>
     </g>
    </g>
    <g id="xtick_7">
     <g id="line2d_14">
      <g>
       <use style="stroke:#000000;stroke-width:0.8;" x="537.706136" xlink:href="#m95e6220e35" y="289.637812"/>
      </g>
     </g>
     <g id="text_14">
      <!-- 2 -->
      <g transform="translate(528.798636 319.413437)scale(0.28 -0.28)">
       <use xlink:href="#DejaVuSans-50"/>
      </g>
     </g>
    </g>
    <g id="xtick_8">
     <g id="line2d_15">
      <g>
       <use style="stroke:#000000;stroke-width:0.8;" x="611.3425" xlink:href="#m95e6220e35" y="289.637812"/>
      </g>
     </g>
     <g id="text_15">
      <!-- 3 -->
      <g transform="translate(602.435 319.413437)scale(0.28 -0.28)">
       <use xlink:href="#DejaVuSans-51"/>
      </g>
     </g>
    </g>
    <g id="xtick_9">
     <g id="line2d_16">
      <g>
       <use style="stroke:#000000;stroke-width:0.8;" x="684.978864" xlink:href="#m95e6220e35" y="289.637812"/>
      </g>
     </g>
     <g id="text_16">
      <!-- 4 -->
      <g transform="translate(676.071364 319.413437)scale(0.28 -0.28)">
       <use xlink:href="#DejaVuSans-52"/>
      </g>
     </g>
    </g>
    <g id="xtick_10">
     <g id="line2d_17">
      <g>
       <use style="stroke:#000000;stroke-width:0.8;" x="758.615227" xlink:href="#m95e6220e35" y="289.637812"/>
      </g>
     </g>
     <g id="text_17">
      <!-- 5 -->
      <g transform="translate(749.707727 319.413437)scale(0.28 -0.28)">
       <use xlink:href="#DejaVuSans-53"/>
      </g>
     </g>
    </g>
    <g id="text_18">
     <!-- -log10 p-value -->
     <g transform="translate(510.5075 350.512187)scale(0.28 -0.28)">
      <use xlink:href="#DejaVuSans-45"/>
      <use x="36.083984" xlink:href="#DejaVuSans-108"/>
      <use x="63.867188" xlink:href="#DejaVuSans-111"/>
      <use x="125.048828" xlink:href="#DejaVuSans-103"/>
      <use x="188.525391" xlink:href="#DejaVuSans-49"/>
      <use x="252.148438" xlink:href="#DejaVuSans-48"/>
      <use x="315.771484" xlink:href="#DejaVuSans-32"/>
      <use x="347.558594" xlink:href="#DejaVuSans-112"/>
      <use x="411.035156" xlink:href="#DejaVuSans-45"/>
      <use x="447.087891" xlink:href="#DejaVuSans-118"/>
      <use x="506.267578" xlink:href="#DejaVuSans-97"/>
      <use x="567.546875" xlink:href="#DejaVuSans-108"/>
      <use x="595.330078" xlink:href="#DejaVuSans-117"/>
      <use x="658.708984" xlink:href="#DejaVuSans-101"/>
     </g>
    </g>
   </g>
   <g id="matplotlib.axis_4">
    <g id="ytick_6"/>
    <g id="ytick_7"/>
    <g id="ytick_8"/>
    <g id="ytick_9"/>
    <g id="ytick_10"/>
   </g>
   <g id="line2d_18">
    <path clip-path="url(#pab83b56775)" d="M 464.069773 214.064154 
L 465.174318 214.064154 
L 465.5425 215.390008 
L 467.383409 215.390008 
L 467.751591 216.715861 
L 468.119773 216.715861 
L 468.487955 218.041715 
L 469.960682 218.041715 
L 470.328864 219.367569 
L 472.537955 219.367569 
L 472.906136 220.693422 
L 475.483409 220.693422 
L 476.219773 223.34513 
L 483.583409 223.34513 
L 483.951591 224.670983 
L 484.319773 224.670983 
L 485.056136 227.322691 
L 485.424318 227.322691 
L 485.7925 228.648544 
L 486.160682 228.648544 
L 486.528864 229.974398 
L 487.265227 229.974398 
L 487.633409 231.300252 
L 489.8425 231.300252 
L 490.210682 233.951959 
L 492.051591 233.951959 
L 492.787955 236.603666 
L 494.997045 236.603666 
L 495.365227 237.92952 
L 501.256136 237.92952 
L 501.624318 239.255373 
L 504.569773 239.255373 
L 504.937955 240.581227 
L 505.306136 240.581227 
L 505.674318 241.907081 
L 506.778864 241.907081 
L 507.147045 243.232934 
L 508.619773 243.232934 
L 508.987955 244.558788 
L 510.0925 244.558788 
L 510.460682 245.884642 
L 512.301591 245.884642 
L 513.037955 248.536349 
L 522.2425 248.536349 
L 522.610682 249.862203 
L 522.978864 249.862203 
L 523.347045 251.188056 
L 524.451591 251.188056 
L 524.819773 252.51391 
L 526.2925 252.51391 
L 526.660682 253.839764 
L 532.551591 253.839764 
L 532.919773 255.165617 
L 534.024318 255.165617 
L 534.3925 256.491471 
L 534.760682 256.491471 
L 535.128864 257.817325 
L 535.497045 257.817325 
L 535.865227 259.143178 
L 540.651591 259.143178 
L 541.387955 261.794886 
L 542.4925 261.794886 
L 542.860682 263.120739 
L 550.5925 263.120739 
L 550.960682 264.446593 
L 557.587955 264.446593 
L 557.956136 265.772447 
L 570.474318 265.772447 
L 570.8425 267.0983 
L 614.287955 267.0983 
L 614.656136 268.424154 
L 650.369773 268.424154 
L 651.106136 271.075861 
L 662.151591 271.075861 
L 662.519773 272.401715 
L 670.987955 272.401715 
L 671.356136 273.727569 
L 689.765227 273.727569 
L 690.133409 275.053422 
L 708.174318 275.053422 
L 708.5425 276.379276 
L 723.269773 276.379276 
L 723.637955 277.70513 
L 745.360682 277.70513 
L 745.728864 280.356837 
L 758.615227 280.356837 
L 758.615227 280.356837 
" style="fill:none;stroke:#8b0000;stroke-linecap:square;stroke-width:2;"/>
   </g>
   <g id="line2d_19">
    <path clip-path="url(#pab83b56775)" d="M 464.069773 203.155994 
L 465.174318 203.155994 
L 465.5425 207.274176 
L 475.483409 207.274176 
L 476.219773 215.51054 
L 485.424318 215.51054 
L 485.7925 219.628722 
L 492.051591 219.628722 
L 492.419773 223.746903 
L 510.0925 223.746903 
L 510.460682 227.865085 
L 526.2925 227.865085 
L 526.660682 231.983267 
L 532.551591 231.983267 
L 532.919773 236.101449 
L 550.5925 236.101449 
L 550.960682 240.219631 
L 557.587955 240.219631 
L 557.956136 244.337813 
L 614.287955 244.337813 
L 614.656136 248.455994 
L 650.369773 248.455994 
L 650.737955 252.574176 
L 662.151591 252.574176 
L 662.519773 256.692358 
L 670.987955 256.692358 
L 671.356136 260.81054 
L 689.765227 260.81054 
L 690.133409 264.928722 
L 708.174318 264.928722 
L 708.5425 269.046903 
L 745.360682 269.046903 
L 745.728864 273.165085 
L 758.615227 273.165085 
L 758.615227 273.165085 
" style="fill:none;stroke:#000080;stroke-linecap:square;stroke-width:2;"/>
   </g>
   <g id="patch_6">
    <path d="M 449.3425 289.637812 
L 449.3425 17.837813 
" style="fill:none;stroke:#000000;stroke-linecap:square;stroke-linejoin:miter;"/>
   </g>
   <g id="patch_7">
    <path d="M 449.3425 289.637812 
L 773.3425 289.637812 
" style="fill:none;stroke:#000000;stroke-linecap:square;stroke-linejoin:miter;"/>
   </g>
  </g>
  <g id="axes_3">
   <g id="patch_8">
    <path d="M 789.5425 289.637812 
L 1113.5425 289.637812 
L 1113.5425 17.837813 
L 789.5425 17.837813 
z
" style="fill:none;"/>
   </g>
   <g id="matplotlib.axis_5">
    <g id="xtick_11">
     <g id="line2d_20">
      <g>
       <use style="stroke:#000000;stroke-width:0.8;" x="804.269773" xlink:href="#m95e6220e35" y="289.637812"/>
      </g>
     </g>
     <g id="text_19">
      <!-- 1 -->
      <g transform="translate(795.362273 319.413437)scale(0.28 -0.28)">
       <use xlink:href="#DejaVuSans-49"/>
      </g>
     </g>
    </g>
    <g id="xtick_12">
     <g id="line2d_21">
      <g>
       <use style="stroke:#000000;stroke-width:0.8;" x="877.906136" xlink:href="#m95e6220e35" y="289.637812"/>
      </g>
     </g>
     <g id="text_20">
      <!-- 2 -->
      <g transform="translate(868.998636 319.413437)scale(0.28 -0.28)">
       <use xlink:href="#DejaVuSans-50"/>
      </g>
     </g>
    </g>
    <g id="xtick_13">
     <g id="line2d_22">
      <g>
       <use style="stroke:#000000;stroke-width:0.8;" x="951.5425" xlink:href="#m95e6220e35" y="289.637812"/>
      </g>
     </g>
     <g id="text_21">
      <!-- 3 -->
      <g transform="translate(942.635 319.413437)scale(0.28 -0.28)">
       <use xlink:href="#DejaVuSans-51"/>
      </g>
     </g>
    </g>
    <g id="xtick_14">
     <g id="line2d_23">
      <g>
       <use style="stroke:#000000;stroke-width:0.8;" x="1025.178864" xlink:href="#m95e6220e35" y="289.637812"/>
      </g>
     </g>
     <g id="text_22">
      <!-- 4 -->
      <g transform="translate(1016.271364 319.413437)scale(0.28 -0.28)">
       <use xlink:href="#DejaVuSans-52"/>
      </g>
     </g>
    </g>
    <g id="xtick_15">
     <g id="line2d_24">
      <g>
       <use style="stroke:#000000;stroke-width:0.8;" x="1098.815227" xlink:href="#m95e6220e35" y="289.637812"/>
      </g>
     </g>
     <g id="text_23">
      <!-- 5 -->
      <g transform="translate(1089.907727 319.413437)scale(0.28 -0.28)">
       <use xlink:href="#DejaVuSans-53"/>
      </g>
     </g>
    </g>
    <g id="text_24">
     <!-- -log10 p-value -->
     <g transform="translate(850.7075 350.512187)scale(0.28 -0.28)">
      <use xlink:href="#DejaVuSans-45"/>
      <use x="36.083984" xlink:href="#DejaVuSans-108"/>
      <use x="63.867188" xlink:href="#DejaVuSans-111"/>
      <use x="125.048828" xlink:href="#DejaVuSans-103"/>
      <use x="188.525391" xlink:href="#DejaVuSans-49"/>
      <use x="252.148438" xlink:href="#DejaVuSans-48"/>
      <use x="315.771484" xlink:href="#DejaVuSans-32"/>
      <use x="347.558594" xlink:href="#DejaVuSans-112"/>
      <use x="411.035156" xlink:href="#DejaVuSans-45"/>
      <use x="447.087891" xlink:href="#DejaVuSans-118"/>
      <use x="506.267578" xlink:href="#DejaVuSans-97"/>
      <use x="567.546875" xlink:href="#DejaVuSans-108"/>
      <use x="595.330078" xlink:href="#DejaVuSans-117"/>
      <use x="658.708984" xlink:href="#DejaVuSans-101"/>
     </g>
    </g>
   </g>
   <g id="matplotlib.axis_6">
    <g id="ytick_11"/>
    <g id="ytick_12"/>
    <g id="ytick_13"/>
    <g id="ytick_14"/>
    <g id="ytick_15"/>
   </g>
   <g id="line2d_25">
    <path clip-path="url(#pce3f63d90e)" d="M 804.269773 145.691102 
L 804.637955 147.47926 
L 805.006136 148.373339 
L 806.110682 148.373339 
L 806.478864 150.161497 
L 806.847045 150.161497 
L 807.215227 151.055576 
L 809.424318 151.055576 
L 809.7925 151.949655 
L 810.160682 151.949655 
L 810.528864 152.843734 
L 812.737955 152.843734 
L 813.106136 153.737813 
L 813.474318 153.737813 
L 814.210682 155.52597 
L 814.578864 155.52597 
L 814.947045 156.420049 
L 815.315227 156.420049 
L 815.683409 157.314128 
L 817.156136 157.314128 
L 817.524318 158.208207 
L 819.365227 158.208207 
L 819.733409 159.102286 
L 820.469773 159.102286 
L 820.837955 159.996365 
L 821.206136 161.784523 
L 821.574318 161.784523 
L 821.9425 163.572681 
L 824.887955 163.572681 
L 825.256136 164.46676 
L 825.9925 164.46676 
L 826.360682 166.254918 
L 827.465227 166.254918 
L 827.833409 168.043076 
L 828.569773 168.043076 
L 828.937955 168.937155 
L 829.674318 168.937155 
L 830.0425 169.831234 
L 830.410682 169.831234 
L 831.147045 171.619391 
L 832.987955 171.619391 
L 833.724318 173.407549 
L 837.774318 173.407549 
L 838.1425 174.301628 
L 842.560682 174.301628 
L 842.928864 175.195707 
L 843.665227 175.195707 
L 844.033409 176.089786 
L 845.506136 176.089786 
L 845.874318 177.877944 
L 846.610682 179.666102 
L 846.978864 179.666102 
L 847.715227 181.45426 
L 848.451591 181.45426 
L 848.819773 182.348339 
L 849.187955 182.348339 
L 849.556136 183.242418 
L 851.028864 183.242418 
L 851.397045 184.136497 
L 852.501591 184.136497 
L 852.869773 185.030576 
L 854.3425 185.030576 
L 854.710682 185.924655 
L 855.078864 185.924655 
L 855.815227 187.712813 
L 856.183409 187.712813 
L 856.551591 188.606891 
L 860.601591 188.606891 
L 860.969773 190.395049 
L 868.333409 190.395049 
L 868.701591 191.289128 
L 869.437955 191.289128 
L 869.806136 192.183207 
L 871.278864 192.183207 
L 871.647045 193.077286 
L 872.383409 193.077286 
L 872.751591 194.865444 
L 873.487955 194.865444 
L 874.5925 197.547681 
L 876.433409 197.547681 
L 876.801591 198.44176 
L 878.6425 198.44176 
L 879.378864 200.229918 
L 880.851591 200.229918 
L 881.219773 201.123997 
L 881.587955 201.123997 
L 882.324318 202.912155 
L 882.6925 202.912155 
L 883.060682 203.806234 
L 885.269773 203.806234 
L 886.374318 206.48847 
L 887.478864 206.48847 
L 887.847045 207.382549 
L 889.319773 207.382549 
L 889.687955 208.276628 
L 891.160682 208.276628 
L 891.528864 209.170707 
L 896.315227 209.170707 
L 896.683409 210.064786 
L 900.365227 210.064786 
L 900.733409 210.958865 
L 903.310682 210.958865 
L 903.678864 211.852944 
L 904.047045 211.852944 
L 904.415227 212.747023 
L 905.887955 212.747023 
L 906.256136 213.641102 
L 907.728864 213.641102 
L 908.097045 214.535181 
L 909.937955 214.535181 
L 910.306136 215.42926 
L 913.987955 215.42926 
L 914.356136 217.217418 
L 915.828864 217.217418 
L 916.197045 218.111497 
L 922.456136 218.111497 
L 922.824318 219.005576 
L 923.1925 219.005576 
L 923.928864 220.793734 
L 924.297045 220.793734 
L 924.665227 221.687813 
L 925.033409 221.687813 
L 925.401591 222.581891 
L 930.924318 222.581891 
L 931.2925 223.47597 
L 932.028864 223.47597 
L 932.397045 224.370049 
L 933.133409 224.370049 
L 933.501591 225.264128 
L 939.024318 225.264128 
L 939.3925 226.158207 
L 942.706136 226.158207 
L 943.074318 227.052286 
L 955.960682 227.052286 
L 956.328864 227.946365 
L 957.065227 227.946365 
L 957.433409 228.840444 
L 962.219773 228.840444 
L 962.587955 229.734523 
L 967.7425 229.734523 
L 968.110682 230.628602 
L 970.319773 230.628602 
L 970.687955 231.522681 
L 973.633409 231.522681 
L 974.001591 232.41676 
L 974.737955 232.41676 
L 975.106136 233.310839 
L 976.578864 233.310839 
L 976.947045 234.204918 
L 978.419773 234.204918 
L 978.787955 235.098997 
L 985.415227 235.098997 
L 985.783409 235.993076 
L 986.887955 235.993076 
L 987.256136 236.887155 
L 996.460682 236.887155 
L 996.828864 237.781234 
L 998.301591 237.781234 
L 998.669773 238.675313 
L 1010.451591 238.675313 
L 1010.819773 239.569391 
L 1014.869773 239.569391 
L 1015.237955 240.46347 
L 1017.078864 240.46347 
L 1017.447045 241.357549 
L 1020.760682 241.357549 
L 1021.128864 242.251628 
L 1027.387955 242.251628 
L 1027.756136 243.145707 
L 1028.124318 243.145707 
L 1028.4925 244.039786 
L 1037.697045 244.039786 
L 1038.065227 244.933865 
L 1038.433409 244.933865 
L 1038.801591 245.827944 
L 1045.797045 245.827944 
L 1046.165227 246.722023 
L 1052.056136 246.722023 
L 1052.424318 247.616102 
L 1058.683409 247.616102 
L 1059.051591 248.510181 
L 1066.783409 248.510181 
L 1067.151591 249.40426 
L 1081.510682 249.40426 
L 1081.878864 250.298339 
L 1092.924318 250.298339 
L 1093.2925 251.192418 
L 1095.501591 251.192418 
L 1095.869773 252.086497 
L 1098.815227 252.086497 
L 1098.815227 252.086497 
" style="fill:none;stroke:#8b0000;stroke-linecap:square;stroke-width:2;"/>
   </g>
   <g id="line2d_26">
    <path clip-path="url(#pce3f63d90e)" d="M 804.269773 112.509723 
L 810.160682 112.509723 
L 810.528864 115.563655 
L 815.315227 115.563655 
L 815.683409 118.617588 
L 820.469773 118.617588 
L 821.206136 124.725453 
L 821.574318 124.725453 
L 821.9425 127.779386 
L 824.887955 127.779386 
L 825.256136 130.833318 
L 827.465227 130.833318 
L 827.833409 133.887251 
L 828.569773 133.887251 
L 828.937955 136.941183 
L 830.410682 136.941183 
L 830.778864 139.995116 
L 837.774318 139.995116 
L 838.1425 143.049048 
L 843.665227 143.049048 
L 844.033409 146.102981 
L 847.347045 146.102981 
L 847.715227 149.156914 
L 855.078864 149.156914 
L 855.447045 152.210846 
L 868.333409 152.210846 
L 868.701591 155.264779 
L 869.437955 155.264779 
L 869.806136 158.318711 
L 873.487955 158.318711 
L 873.856136 161.372644 
L 874.224318 161.372644 
L 874.5925 164.426577 
L 880.851591 164.426577 
L 881.219773 167.480509 
L 881.587955 167.480509 
L 881.956136 170.534442 
L 886.006136 170.534442 
L 886.374318 173.588374 
L 891.160682 173.588374 
L 891.528864 176.642307 
L 903.310682 176.642307 
L 903.678864 179.696239 
L 907.728864 179.696239 
L 908.097045 182.750172 
L 913.987955 182.750172 
L 914.356136 185.804105 
L 922.456136 185.804105 
L 922.824318 188.858037 
L 923.560682 188.858037 
L 923.928864 191.91197 
L 930.924318 191.91197 
L 931.2925 194.965902 
L 932.028864 194.965902 
L 932.397045 198.019835 
L 939.024318 198.019835 
L 939.3925 201.073768 
L 955.960682 201.073768 
L 956.328864 204.1277 
L 957.065227 204.1277 
L 957.433409 207.181633 
L 962.219773 207.181633 
L 962.587955 210.235565 
L 985.415227 210.235565 
L 985.783409 213.289498 
L 996.460682 213.289498 
L 996.828864 216.34343 
L 998.301591 216.34343 
L 998.669773 219.397363 
L 1014.869773 219.397363 
L 1015.237955 222.451296 
L 1020.760682 222.451296 
L 1021.128864 225.505228 
L 1037.697045 225.505228 
L 1038.065227 228.559161 
L 1081.510682 228.559161 
L 1081.878864 231.613093 
L 1098.815227 231.613093 
L 1098.815227 231.613093 
" style="fill:none;stroke:#000080;stroke-linecap:square;stroke-width:2;"/>
   </g>
   <g id="patch_9">
    <path d="M 789.5425 289.637812 
L 789.5425 17.837813 
" style="fill:none;stroke:#000000;stroke-linecap:square;stroke-linejoin:miter;"/>
   </g>
   <g id="patch_10">
    <path d="M 789.5425 289.637812 
L 1113.5425 289.637812 
" style="fill:none;stroke:#000000;stroke-linecap:square;stroke-linejoin:miter;"/>
   </g>
  </g>
 </g>
 <defs>
  <clipPath id="p0b65f8df75">
   <rect height="271.8" width="324" x="109.1425" y="17.837812"/>
  </clipPath>
  <clipPath id="pab83b56775">
   <rect height="271.8" width="324" x="449.3425" y="17.837812"/>
  </clipPath>
  <clipPath id="pce3f63d90e">
   <rect height="271.8" width="324" x="789.5425" y="17.837812"/>
  </clipPath>
 </defs>
</svg>
