<?xml version="1.0" encoding="utf-8" standalone="no"?>
<!DOCTYPE svg PUBLIC "-//W3C//DTD SVG 1.1//EN"
  "http://www.w3.org/Graphics/SVG/1.1/DTD/svg11.dtd">
<!-- Created with matplotlib (https://matplotlib.org/) -->
<svg height="363.535312pt" version="1.1" viewBox="0 0 1120.7425 363.535312" width="1120.7425pt" xmlns="http://www.w3.org/2000/svg" xmlns:xlink="http://www.w3.org/1999/xlink">
 <defs>
  <style type="text/css">
*{stroke-linecap:butt;stroke-linejoin:round;}
  </style>
 </defs>
 <g id="figure_1">
  <g id="patch_1">
   <path d="M 0 363.535312 
L 1120.7425 363.535312 
L 1120.7425 -0 
L 0 -0 
z
" style="fill:none;"/>
  </g>
  <g id="axes_1">
   <g id="patch_2">
    <path d="M 109.1425 289.637812 
L 433.1425 289.637812 
L 433.1425 17.837813 
L 109.1425 17.837813 
z
" style="fill:none;"/>
   </g>
   <g id="matplotlib.axis_1">
    <g id="xtick_1">
     <g id="line2d_1">
      <defs>
       <path d="M 0 0 
L 0 5 
" id="m5983a5ff34" style="stroke:#000000;stroke-width:0.8;"/>
      </defs>
      <g>
       <use style="stroke:#000000;stroke-width:0.8;" x="123.869773" xlink:href="#m5983a5ff34" y="289.637812"/>
      </g>
     </g>
     <g id="text_1">
      <!-- 1 -->
      <defs>
       <path d="M 12.40625 8.296875 
L 28.515625 8.296875 
L 28.515625 63.921875 
L 10.984375 60.40625 
L 10.984375 69.390625 
L 28.421875 72.90625 
L 38.28125 72.90625 
L 38.28125 8.296875 
L 54.390625 8.296875 
L 54.390625 0 
L 12.40625 0 
z
" id="DejaVuSans-49"/>
      </defs>
      <g transform="translate(114.962273 319.413437)scale(0.28 -0.28)">
       <use xlink:href="#DejaVuSans-49"/>
      </g>
     </g>
    </g>
    <g id="xtick_2">
     <g id="line2d_2">
      <g>
       <use style="stroke:#000000;stroke-width:0.8;" x="222.051591" xlink:href="#m5983a5ff34" y="289.637812"/>
      </g>
     </g>
     <g id="text_2">
      <!-- 2 -->
      <defs>
       <path d="M 19.1875 8.296875 
L 53.609375 8.296875 
L 53.609375 0 
L 7.328125 0 
L 7.328125 8.296875 
Q 12.9375 14.109375 22.625 23.890625 
Q 32.328125 33.6875 34.8125 36.53125 
Q 39.546875 41.84375 41.421875 45.53125 
Q 43.3125 49.21875 43.3125 52.78125 
Q 43.3125 58.59375 39.234375 62.25 
Q 35.15625 65.921875 28.609375 65.921875 
Q 23.96875 65.921875 18.8125 64.3125 
Q 13.671875 62.703125 7.8125 59.421875 
L 7.8125 69.390625 
Q 13.765625 71.78125 18.9375 73 
Q 24.125 74.21875 28.421875 74.21875 
Q 39.75 74.21875 46.484375 68.546875 
Q 53.21875 62.890625 53.21875 53.421875 
Q 53.21875 48.921875 51.53125 44.890625 
Q 49.859375 40.875 45.40625 35.40625 
Q 44.1875 33.984375 37.640625 27.21875 
Q 31.109375 20.453125 19.1875 8.296875 
z
" id="DejaVuSans-50"/>
      </defs>
      <g transform="translate(213.144091 319.413437)scale(0.28 -0.28)">
       <use xlink:href="#DejaVuSans-50"/>
      </g>
     </g>
    </g>
    <g id="xtick_3">
     <g id="line2d_3">
      <g>
       <use style="stroke:#000000;stroke-width:0.8;" x="320.233409" xlink:href="#m5983a5ff34" y="289.637812"/>
      </g>
     </g>
     <g id="text_3">
      <!-- 3 -->
      <defs>
       <path d="M 40.578125 39.3125 
Q 47.65625 37.796875 51.625 33 
Q 55.609375 28.21875 55.609375 21.1875 
Q 55.609375 10.40625 48.1875 4.484375 
Q 40.765625 -1.421875 27.09375 -1.421875 
Q 22.515625 -1.421875 17.65625 -0.515625 
Q 12.796875 0.390625 7.625 2.203125 
L 7.625 11.71875 
Q 11.71875 9.328125 16.59375 8.109375 
Q 21.484375 6.890625 26.8125 6.890625 
Q 36.078125 6.890625 40.9375 10.546875 
Q 45.796875 14.203125 45.796875 21.1875 
Q 45.796875 27.640625 41.28125 31.265625 
Q 36.765625 34.90625 28.71875 34.90625 
L 20.21875 34.90625 
L 20.21875 43.015625 
L 29.109375 43.015625 
Q 36.375 43.015625 40.234375 45.921875 
Q 44.09375 48.828125 44.09375 54.296875 
Q 44.09375 59.90625 40.109375 62.90625 
Q 36.140625 65.921875 28.71875 65.921875 
Q 24.65625 65.921875 20.015625 65.03125 
Q 15.375 64.15625 9.8125 62.3125 
L 9.8125 71.09375 
Q 15.4375 72.65625 20.34375 73.4375 
Q 25.25 74.21875 29.59375 74.21875 
Q 40.828125 74.21875 47.359375 69.109375 
Q 53.90625 64.015625 53.90625 55.328125 
Q 53.90625 49.265625 50.4375 45.09375 
Q 46.96875 40.921875 40.578125 39.3125 
z
" id="DejaVuSans-51"/>
      </defs>
      <g transform="translate(311.325909 319.413437)scale(0.28 -0.28)">
       <use xlink:href="#DejaVuSans-51"/>
      </g>
     </g>
    </g>
    <g id="xtick_4">
     <g id="line2d_4">
      <g>
       <use style="stroke:#000000;stroke-width:0.8;" x="418.415227" xlink:href="#m5983a5ff34" y="289.637812"/>
      </g>
     </g>
     <g id="text_4">
      <!-- 4 -->
      <defs>
       <path d="M 37.796875 64.3125 
L 12.890625 25.390625 
L 37.796875 25.390625 
z
M 35.203125 72.90625 
L 47.609375 72.90625 
L 47.609375 25.390625 
L 58.015625 25.390625 
L 58.015625 17.1875 
L 47.609375 17.1875 
L 47.609375 0 
L 37.796875 0 
L 37.796875 17.1875 
L 4.890625 17.1875 
L 4.890625 26.703125 
z
" id="DejaVuSans-52"/>
      </defs>
      <g transform="translate(409.507727 319.413437)scale(0.28 -0.28)">
       <use xlink:href="#DejaVuSans-52"/>
      </g>
     </g>
    </g>
    <g id="text_5">
     <!-- -log10 p-value -->
     <defs>
      <path d="M 4.890625 31.390625 
L 31.203125 31.390625 
L 31.203125 23.390625 
L 4.890625 23.390625 
z
" id="DejaVuSans-45"/>
      <path d="M 9.421875 75.984375 
L 18.40625 75.984375 
L 18.40625 0 
L 9.421875 0 
z
" id="DejaVuSans-108"/>
      <path d="M 30.609375 48.390625 
Q 23.390625 48.390625 19.1875 42.75 
Q 14.984375 37.109375 14.984375 27.296875 
Q 14.984375 17.484375 19.15625 11.84375 
Q 23.34375 6.203125 30.609375 6.203125 
Q 37.796875 6.203125 41.984375 11.859375 
Q 46.1875 17.53125 46.1875 27.296875 
Q 46.1875 37.015625 41.984375 42.703125 
Q 37.796875 48.390625 30.609375 48.390625 
z
M 30.609375 56 
Q 42.328125 56 49.015625 48.375 
Q 55.71875 40.765625 55.71875 27.296875 
Q 55.71875 13.875 49.015625 6.21875 
Q 42.328125 -1.421875 30.609375 -1.421875 
Q 18.84375 -1.421875 12.171875 6.21875 
Q 5.515625 13.875 5.515625 27.296875 
Q 5.515625 40.765625 12.171875 48.375 
Q 18.84375 56 30.609375 56 
z
" id="DejaVuSans-111"/>
      <path d="M 45.40625 27.984375 
Q 45.40625 37.75 41.375 43.109375 
Q 37.359375 48.484375 30.078125 48.484375 
Q 22.859375 48.484375 18.828125 43.109375 
Q 14.796875 37.75 14.796875 27.984375 
Q 14.796875 18.265625 18.828125 12.890625 
Q 22.859375 7.515625 30.078125 7.515625 
Q 37.359375 7.515625 41.375 12.890625 
Q 45.40625 18.265625 45.40625 27.984375 
z
M 54.390625 6.78125 
Q 54.390625 -7.171875 48.1875 -13.984375 
Q 42 -20.796875 29.203125 -20.796875 
Q 24.46875 -20.796875 20.265625 -20.09375 
Q 16.0625 -19.390625 12.109375 -17.921875 
L 12.109375 -9.1875 
Q 16.0625 -11.328125 19.921875 -12.34375 
Q 23.78125 -13.375 27.78125 -13.375 
Q 36.625 -13.375 41.015625 -8.765625 
Q 45.40625 -4.15625 45.40625 5.171875 
L 45.40625 9.625 
Q 42.625 4.78125 38.28125 2.390625 
Q 33.9375 0 27.875 0 
Q 17.828125 0 11.671875 7.65625 
Q 5.515625 15.328125 5.515625 27.984375 
Q 5.515625 40.671875 11.671875 48.328125 
Q 17.828125 56 27.875 56 
Q 33.9375 56 38.28125 53.609375 
Q 42.625 51.21875 45.40625 46.390625 
L 45.40625 54.6875 
L 54.390625 54.6875 
z
" id="DejaVuSans-103"/>
      <path d="M 31.78125 66.40625 
Q 24.171875 66.40625 20.328125 58.90625 
Q 16.5 51.421875 16.5 36.375 
Q 16.5 21.390625 20.328125 13.890625 
Q 24.171875 6.390625 31.78125 6.390625 
Q 39.453125 6.390625 43.28125 13.890625 
Q 47.125 21.390625 47.125 36.375 
Q 47.125 51.421875 43.28125 58.90625 
Q 39.453125 66.40625 31.78125 66.40625 
z
M 31.78125 74.21875 
Q 44.046875 74.21875 50.515625 64.515625 
Q 56.984375 54.828125 56.984375 36.375 
Q 56.984375 17.96875 50.515625 8.265625 
Q 44.046875 -1.421875 31.78125 -1.421875 
Q 19.53125 -1.421875 13.0625 8.265625 
Q 6.59375 17.96875 6.59375 36.375 
Q 6.59375 54.828125 13.0625 64.515625 
Q 19.53125 74.21875 31.78125 74.21875 
z
" id="DejaVuSans-48"/>
      <path id="DejaVuSans-32"/>
      <path d="M 18.109375 8.203125 
L 18.109375 -20.796875 
L 9.078125 -20.796875 
L 9.078125 54.6875 
L 18.109375 54.6875 
L 18.109375 46.390625 
Q 20.953125 51.265625 25.265625 53.625 
Q 29.59375 56 35.59375 56 
Q 45.5625 56 51.78125 48.09375 
Q 58.015625 40.1875 58.015625 27.296875 
Q 58.015625 14.40625 51.78125 6.484375 
Q 45.5625 -1.421875 35.59375 -1.421875 
Q 29.59375 -1.421875 25.265625 0.953125 
Q 20.953125 3.328125 18.109375 8.203125 
z
M 48.6875 27.296875 
Q 48.6875 37.203125 44.609375 42.84375 
Q 40.53125 48.484375 33.40625 48.484375 
Q 26.265625 48.484375 22.1875 42.84375 
Q 18.109375 37.203125 18.109375 27.296875 
Q 18.109375 17.390625 22.1875 11.75 
Q 26.265625 6.109375 33.40625 6.109375 
Q 40.53125 6.109375 44.609375 11.75 
Q 48.6875 17.390625 48.6875 27.296875 
z
" id="DejaVuSans-112"/>
      <path d="M 2.984375 54.6875 
L 12.5 54.6875 
L 29.59375 8.796875 
L 46.6875 54.6875 
L 56.203125 54.6875 
L 35.6875 0 
L 23.484375 0 
z
" id="DejaVuSans-118"/>
      <path d="M 34.28125 27.484375 
Q 23.390625 27.484375 19.1875 25 
Q 14.984375 22.515625 14.984375 16.5 
Q 14.984375 11.71875 18.140625 8.90625 
Q 21.296875 6.109375 26.703125 6.109375 
Q 34.1875 6.109375 38.703125 11.40625 
Q 43.21875 16.703125 43.21875 25.484375 
L 43.21875 27.484375 
z
M 52.203125 31.203125 
L 52.203125 0 
L 43.21875 0 
L 43.21875 8.296875 
Q 40.140625 3.328125 35.546875 0.953125 
Q 30.953125 -1.421875 24.3125 -1.421875 
Q 15.921875 -1.421875 10.953125 3.296875 
Q 6 8.015625 6 15.921875 
Q 6 25.140625 12.171875 29.828125 
Q 18.359375 34.515625 30.609375 34.515625 
L 43.21875 34.515625 
L 43.21875 35.40625 
Q 43.21875 41.609375 39.140625 45 
Q 35.0625 48.390625 27.6875 48.390625 
Q 23 48.390625 18.546875 47.265625 
Q 14.109375 46.140625 10.015625 43.890625 
L 10.015625 52.203125 
Q 14.9375 54.109375 19.578125 55.046875 
Q 24.21875 56 28.609375 56 
Q 40.484375 56 46.34375 49.84375 
Q 52.203125 43.703125 52.203125 31.203125 
z
" id="DejaVuSans-97"/>
      <path d="M 8.5 21.578125 
L 8.5 54.6875 
L 17.484375 54.6875 
L 17.484375 21.921875 
Q 17.484375 14.15625 20.5 10.265625 
Q 23.53125 6.390625 29.59375 6.390625 
Q 36.859375 6.390625 41.078125 11.03125 
Q 45.3125 15.671875 45.3125 23.6875 
L 45.3125 54.6875 
L 54.296875 54.6875 
L 54.296875 0 
L 45.3125 0 
L 45.3125 8.40625 
Q 42.046875 3.421875 37.71875 1 
Q 33.40625 -1.421875 27.6875 -1.421875 
Q 18.265625 -1.421875 13.375 4.4375 
Q 8.5 10.296875 8.5 21.578125 
z
M 31.109375 56 
z
" id="DejaVuSans-117"/>
      <path d="M 56.203125 29.59375 
L 56.203125 25.203125 
L 14.890625 25.203125 
Q 15.484375 15.921875 20.484375 11.0625 
Q 25.484375 6.203125 34.421875 6.203125 
Q 39.59375 6.203125 44.453125 7.46875 
Q 49.3125 8.734375 54.109375 11.28125 
L 54.109375 2.78125 
Q 49.265625 0.734375 44.1875 -0.34375 
Q 39.109375 -1.421875 33.890625 -1.421875 
Q 20.796875 -1.421875 13.15625 6.1875 
Q 5.515625 13.8125 5.515625 26.8125 
Q 5.515625 40.234375 12.765625 48.109375 
Q 20.015625 56 32.328125 56 
Q 43.359375 56 49.78125 48.890625 
Q 56.203125 41.796875 56.203125 29.59375 
z
M 47.21875 32.234375 
Q 47.125 39.59375 43.09375 43.984375 
Q 39.0625 48.390625 32.421875 48.390625 
Q 24.90625 48.390625 20.390625 44.140625 
Q 15.875 39.890625 15.1875 32.171875 
z
" id="DejaVuSans-101"/>
     </defs>
     <g transform="translate(170.3075 350.512187)scale(0.28 -0.28)">
      <use xlink:href="#DejaVuSans-45"/>
      <use x="36.083984" xlink:href="#DejaVuSans-108"/>
      <use x="63.867188" xlink:href="#DejaVuSans-111"/>
      <use x="125.048828" xlink:href="#DejaVuSans-103"/>
      <use x="188.525391" xlink:href="#DejaVuSans-49"/>
      <use x="252.148438" xlink:href="#DejaVuSans-48"/>
      <use x="315.771484" xlink:href="#DejaVuSans-32"/>
      <use x="347.558594" xlink:href="#DejaVuSans-112"/>
      <use x="411.035156" xlink:href="#DejaVuSans-45"/>
      <use x="447.087891" xlink:href="#DejaVuSans-118"/>
      <use x="506.267578" xlink:href="#DejaVuSans-97"/>
      <use x="567.546875" xlink:href="#DejaVuSans-108"/>
      <use x="595.330078" xlink:href="#DejaVuSans-117"/>
      <use x="658.708984" xlink:href="#DejaVuSans-101"/>
     </g>
    </g>
   </g>
   <g id="matplotlib.axis_2">
    <g id="ytick_1">
     <g id="line2d_5">
      <defs>
       <path d="M 0 0 
L -5 0 
" id="m2c44543dad" style="stroke:#000000;stroke-width:0.8;"/>
      </defs>
      <g>
       <use style="stroke:#000000;stroke-width:0.8;" x="109.1425" xlink:href="#m2c44543dad" y="289.637812"/>
      </g>
     </g>
     <g id="text_6">
      <!-- 0.00 -->
      <defs>
       <path d="M 10.6875 12.40625 
L 21 12.40625 
L 21 0 
L 10.6875 0 
z
" id="DejaVuSans-46"/>
      </defs>
      <g transform="translate(38.29875 300.275625)scale(0.28 -0.28)">
       <use xlink:href="#DejaVuSans-48"/>
       <use x="63.623047" xlink:href="#DejaVuSans-46"/>
       <use x="95.410156" xlink:href="#DejaVuSans-48"/>
       <use x="159.033203" xlink:href="#DejaVuSans-48"/>
      </g>
     </g>
    </g>
    <g id="ytick_2">
     <g id="line2d_6">
      <g>
       <use style="stroke:#000000;stroke-width:0.8;" x="109.1425" xlink:href="#m2c44543dad" y="221.687813"/>
      </g>
     </g>
     <g id="text_7">
      <!-- 0.25 -->
      <defs>
       <path d="M 10.796875 72.90625 
L 49.515625 72.90625 
L 49.515625 64.59375 
L 19.828125 64.59375 
L 19.828125 46.734375 
Q 21.96875 47.46875 24.109375 47.828125 
Q 26.265625 48.1875 28.421875 48.1875 
Q 40.625 48.1875 47.75 41.5 
Q 54.890625 34.8125 54.890625 23.390625 
Q 54.890625 11.625 47.5625 5.09375 
Q 40.234375 -1.421875 26.90625 -1.421875 
Q 22.3125 -1.421875 17.546875 -0.640625 
Q 12.796875 0.140625 7.71875 1.703125 
L 7.71875 11.625 
Q 12.109375 9.234375 16.796875 8.0625 
Q 21.484375 6.890625 26.703125 6.890625 
Q 35.15625 6.890625 40.078125 11.328125 
Q 45.015625 15.765625 45.015625 23.390625 
Q 45.015625 31 40.078125 35.4375 
Q 35.15625 39.890625 26.703125 39.890625 
Q 22.75 39.890625 18.8125 39.015625 
Q 14.890625 38.140625 10.796875 36.28125 
z
" id="DejaVuSans-53"/>
      </defs>
      <g transform="translate(38.29875 232.325625)scale(0.28 -0.28)">
       <use xlink:href="#DejaVuSans-48"/>
       <use x="63.623047" xlink:href="#DejaVuSans-46"/>
       <use x="95.410156" xlink:href="#DejaVuSans-50"/>
       <use x="159.033203" xlink:href="#DejaVuSans-53"/>
      </g>
     </g>
    </g>
    <g id="ytick_3">
     <g id="line2d_7">
      <g>
       <use style="stroke:#000000;stroke-width:0.8;" x="109.1425" xlink:href="#m2c44543dad" y="153.737813"/>
      </g>
     </g>
     <g id="text_8">
      <!-- 0.50 -->
      <g transform="translate(38.29875 164.375625)scale(0.28 -0.28)">
       <use xlink:href="#DejaVuSans-48"/>
       <use x="63.623047" xlink:href="#DejaVuSans-46"/>
       <use x="95.410156" xlink:href="#DejaVuSans-53"/>
       <use x="159.033203" xlink:href="#DejaVuSans-48"/>
      </g>
     </g>
    </g>
    <g id="ytick_4">
     <g id="line2d_8">
      <g>
       <use style="stroke:#000000;stroke-width:0.8;" x="109.1425" xlink:href="#m2c44543dad" y="85.787813"/>
      </g>
     </g>
     <g id="text_9">
      <!-- 0.75 -->
      <defs>
       <path d="M 8.203125 72.90625 
L 55.078125 72.90625 
L 55.078125 68.703125 
L 28.609375 0 
L 18.3125 0 
L 43.21875 64.59375 
L 8.203125 64.59375 
z
" id="DejaVuSans-55"/>
      </defs>
      <g transform="translate(38.29875 96.425625)scale(0.28 -0.28)">
       <use xlink:href="#DejaVuSans-48"/>
       <use x="63.623047" xlink:href="#DejaVuSans-46"/>
       <use x="95.410156" xlink:href="#DejaVuSans-55"/>
       <use x="159.033203" xlink:href="#DejaVuSans-53"/>
      </g>
     </g>
    </g>
    <g id="ytick_5">
     <g id="line2d_9">
      <g>
       <use style="stroke:#000000;stroke-width:0.8;" x="109.1425" xlink:href="#m2c44543dad" y="17.837813"/>
      </g>
     </g>
     <g id="text_10">
      <!-- 1.00 -->
      <g transform="translate(38.29875 28.475625)scale(0.28 -0.28)">
       <use xlink:href="#DejaVuSans-49"/>
       <use x="63.623047" xlink:href="#DejaVuSans-46"/>
       <use x="95.410156" xlink:href="#DejaVuSans-48"/>
       <use x="159.033203" xlink:href="#DejaVuSans-48"/>
      </g>
     </g>
    </g>
    <g id="text_11">
     <!-- Precision -->
     <defs>
      <path d="M 19.671875 64.796875 
L 19.671875 37.40625 
L 32.078125 37.40625 
Q 38.96875 37.40625 42.71875 40.96875 
Q 46.484375 44.53125 46.484375 51.125 
Q 46.484375 57.671875 42.71875 61.234375 
Q 38.96875 64.796875 32.078125 64.796875 
z
M 9.8125 72.90625 
L 32.078125 72.90625 
Q 44.34375 72.90625 50.609375 67.359375 
Q 56.890625 61.8125 56.890625 51.125 
Q 56.890625 40.328125 50.609375 34.8125 
Q 44.34375 29.296875 32.078125 29.296875 
L 19.671875 29.296875 
L 19.671875 0 
L 9.8125 0 
z
" id="DejaVuSans-80"/>
      <path d="M 41.109375 46.296875 
Q 39.59375 47.171875 37.8125 47.578125 
Q 36.03125 48 33.890625 48 
Q 26.265625 48 22.1875 43.046875 
Q 18.109375 38.09375 18.109375 28.8125 
L 18.109375 0 
L 9.078125 0 
L 9.078125 54.6875 
L 18.109375 54.6875 
L 18.109375 46.1875 
Q 20.953125 51.171875 25.484375 53.578125 
Q 30.03125 56 36.53125 56 
Q 37.453125 56 38.578125 55.875 
Q 39.703125 55.765625 41.0625 55.515625 
z
" id="DejaVuSans-114"/>
      <path d="M 48.78125 52.59375 
L 48.78125 44.1875 
Q 44.96875 46.296875 41.140625 47.34375 
Q 37.3125 48.390625 33.40625 48.390625 
Q 24.65625 48.390625 19.8125 42.84375 
Q 14.984375 37.3125 14.984375 27.296875 
Q 14.984375 17.28125 19.8125 11.734375 
Q 24.65625 6.203125 33.40625 6.203125 
Q 37.3125 6.203125 41.140625 7.25 
Q 44.96875 8.296875 48.78125 10.40625 
L 48.78125 2.09375 
Q 45.015625 0.34375 40.984375 -0.53125 
Q 36.96875 -1.421875 32.421875 -1.421875 
Q 20.0625 -1.421875 12.78125 6.34375 
Q 5.515625 14.109375 5.515625 27.296875 
Q 5.515625 40.671875 12.859375 48.328125 
Q 20.21875 56 33.015625 56 
Q 37.15625 56 41.109375 55.140625 
Q 45.0625 54.296875 48.78125 52.59375 
z
" id="DejaVuSans-99"/>
      <path d="M 9.421875 54.6875 
L 18.40625 54.6875 
L 18.40625 0 
L 9.421875 0 
z
M 9.421875 75.984375 
L 18.40625 75.984375 
L 18.40625 64.59375 
L 9.421875 64.59375 
z
" id="DejaVuSans-105"/>
      <path d="M 44.28125 53.078125 
L 44.28125 44.578125 
Q 40.484375 46.53125 36.375 47.5 
Q 32.28125 48.484375 27.875 48.484375 
Q 21.1875 48.484375 17.84375 46.4375 
Q 14.5 44.390625 14.5 40.28125 
Q 14.5 37.15625 16.890625 35.375 
Q 19.28125 33.59375 26.515625 31.984375 
L 29.59375 31.296875 
Q 39.15625 29.25 43.1875 25.515625 
Q 47.21875 21.78125 47.21875 15.09375 
Q 47.21875 7.46875 41.1875 3.015625 
Q 35.15625 -1.421875 24.609375 -1.421875 
Q 20.21875 -1.421875 15.453125 -0.5625 
Q 10.6875 0.296875 5.421875 2 
L 5.421875 11.28125 
Q 10.40625 8.6875 15.234375 7.390625 
Q 20.0625 6.109375 24.8125 6.109375 
Q 31.15625 6.109375 34.5625 8.28125 
Q 37.984375 10.453125 37.984375 14.40625 
Q 37.984375 18.0625 35.515625 20.015625 
Q 33.0625 21.96875 24.703125 23.78125 
L 21.578125 24.515625 
Q 13.234375 26.265625 9.515625 29.90625 
Q 5.8125 33.546875 5.8125 39.890625 
Q 5.8125 47.609375 11.28125 51.796875 
Q 16.75 56 26.8125 56 
Q 31.78125 56 36.171875 55.265625 
Q 40.578125 54.546875 44.28125 53.078125 
z
" id="DejaVuSans-115"/>
      <path d="M 54.890625 33.015625 
L 54.890625 0 
L 45.90625 0 
L 45.90625 32.71875 
Q 45.90625 40.484375 42.875 44.328125 
Q 39.84375 48.1875 33.796875 48.1875 
Q 26.515625 48.1875 22.3125 43.546875 
Q 18.109375 38.921875 18.109375 30.90625 
L 18.109375 0 
L 9.078125 0 
L 9.078125 54.6875 
L 18.109375 54.6875 
L 18.109375 46.1875 
Q 21.34375 51.125 25.703125 53.5625 
Q 30.078125 56 35.796875 56 
Q 45.21875 56 50.046875 50.171875 
Q 54.890625 44.34375 54.890625 33.015625 
z
" id="DejaVuSans-110"/>
     </defs>
     <g transform="translate(28.475625 216.750937)rotate(-90)scale(0.28 -0.28)">
      <use xlink:href="#DejaVuSans-80"/>
      <use x="60.287109" xlink:href="#DejaVuSans-114"/>
      <use x="101.369141" xlink:href="#DejaVuSans-101"/>
      <use x="162.892578" xlink:href="#DejaVuSans-99"/>
      <use x="217.873047" xlink:href="#DejaVuSans-105"/>
      <use x="245.65625" xlink:href="#DejaVuSans-115"/>
      <use x="297.755859" xlink:href="#DejaVuSans-105"/>
      <use x="325.539062" xlink:href="#DejaVuSans-111"/>
      <use x="386.720703" xlink:href="#DejaVuSans-110"/>
     </g>
    </g>
   </g>
   <g id="line2d_10">
    <path clip-path="url(#pf341443058)" d="M 123.869773 91.18067 
L 143.506136 91.18067 
L 143.997045 95.494955 
L 147.924318 95.494955 
L 148.415227 99.809241 
L 148.906136 99.809241 
L 149.397045 104.123527 
L 153.324318 104.123527 
L 153.815227 108.437813 
L 161.669773 108.437813 
L 162.160682 112.752098 
L 166.578864 112.752098 
L 167.069773 117.066384 
L 181.306136 117.066384 
L 181.797045 121.38067 
L 184.7425 121.38067 
L 185.233409 125.694955 
L 191.615227 125.694955 
L 192.106136 130.009241 
L 195.051591 130.009241 
L 195.5425 134.323527 
L 196.033409 134.323527 
L 197.015227 142.952098 
L 206.833409 142.952098 
L 207.324318 147.266384 
L 213.706136 147.266384 
L 214.197045 151.58067 
L 225.978864 151.58067 
L 226.469773 155.894955 
L 232.360682 155.894955 
L 232.851591 160.209241 
L 275.560682 160.209241 
L 276.051591 164.523527 
L 293.724318 164.523527 
L 294.215227 168.837813 
L 301.087955 168.837813 
L 301.578864 173.152098 
L 304.033409 173.152098 
L 304.524318 177.466384 
L 305.506136 177.466384 
L 305.997045 181.78067 
L 341.833409 181.78067 
L 342.324318 186.094955 
L 371.287955 186.094955 
L 371.778864 190.409241 
L 400.7425 190.409241 
L 401.233409 199.037813 
L 418.415227 199.037813 
L 418.415227 199.037813 
" style="fill:none;stroke:#8b0000;stroke-linecap:square;stroke-width:2;"/>
   </g>
   <g id="line2d_11">
    <path clip-path="url(#pf341443058)" d="M 123.869773 108.919727 
L 125.833409 108.919727 
L 126.324318 110.365472 
L 128.778864 110.365472 
L 129.269773 111.811217 
L 129.760682 111.811217 
L 130.251591 113.256961 
L 130.7425 113.256961 
L 131.233409 116.148451 
L 132.215227 116.148451 
L 132.706136 117.594195 
L 141.051591 117.594195 
L 141.5425 119.03994 
L 143.015227 119.03994 
L 143.506136 123.377174 
L 143.997045 126.268664 
L 147.924318 126.268664 
L 148.415227 127.714408 
L 148.906136 127.714408 
L 149.397045 130.605898 
L 151.851591 130.605898 
L 152.3425 132.051642 
L 153.324318 132.051642 
L 153.815227 134.943132 
L 157.7425 134.943132 
L 158.233409 136.388876 
L 161.669773 136.388876 
L 162.160682 137.834621 
L 166.578864 137.834621 
L 167.069773 139.280366 
L 168.5425 139.280366 
L 169.033409 140.72611 
L 172.469773 140.72611 
L 173.9425 145.063344 
L 179.3425 145.063344 
L 179.833409 146.509089 
L 181.306136 146.509089 
L 181.797045 147.954834 
L 184.7425 147.954834 
L 185.233409 149.400578 
L 186.215227 149.400578 
L 186.706136 150.846323 
L 191.124318 150.846323 
L 192.106136 153.737813 
L 195.051591 153.737813 
L 195.5425 155.183557 
L 196.033409 155.183557 
L 196.524318 156.629302 
L 206.833409 156.629302 
L 207.324318 158.075047 
L 213.706136 158.075047 
L 214.197045 159.520791 
L 221.560682 159.520791 
L 222.5425 162.412281 
L 224.015227 162.412281 
L 224.997045 165.30377 
L 225.978864 165.30377 
L 226.469773 166.749515 
L 231.378864 166.749515 
L 231.869773 168.195259 
L 232.360682 168.195259 
L 232.851591 169.641004 
L 246.106136 169.641004 
L 246.597045 171.086749 
L 249.051591 171.086749 
L 250.033409 173.978238 
L 251.506136 173.978238 
L 251.997045 175.423983 
L 255.924318 175.423983 
L 256.415227 176.869727 
L 259.360682 176.869727 
L 259.851591 178.315472 
L 271.1425 178.315472 
L 271.633409 181.206961 
L 275.560682 181.206961 
L 276.5425 184.098451 
L 284.397045 184.098451 
L 284.887955 185.544195 
L 293.724318 185.544195 
L 294.215227 186.98994 
L 294.706136 186.98994 
L 295.197045 188.435685 
L 301.087955 188.435685 
L 301.578864 189.88143 
L 304.033409 189.88143 
L 304.524318 191.327174 
L 305.506136 191.327174 
L 305.997045 194.218664 
L 308.9425 194.218664 
L 309.433409 195.664408 
L 341.833409 195.664408 
L 342.324318 197.110153 
L 345.269773 197.110153 
L 345.760682 198.555898 
L 349.687955 198.555898 
L 350.178864 200.001642 
L 359.015227 200.001642 
L 359.506136 201.447387 
L 364.906136 201.447387 
L 365.397045 204.338876 
L 371.287955 204.338876 
L 371.778864 208.67611 
L 388.469773 208.67611 
L 388.960682 210.121855 
L 400.7425 210.121855 
L 401.233409 215.904834 
L 418.415227 215.904834 
L 418.415227 215.904834 
" style="fill:none;stroke:#000080;stroke-linecap:square;stroke-width:2;"/>
   </g>
   <g id="patch_3">
    <path d="M 109.1425 289.637812 
L 109.1425 17.837813 
" style="fill:none;stroke:#000000;stroke-linecap:square;stroke-linejoin:miter;"/>
   </g>
   <g id="patch_4">
    <path d="M 109.1425 289.637812 
L 433.1425 289.637812 
" style="fill:none;stroke:#000000;stroke-linecap:square;stroke-linejoin:miter;"/>
   </g>
  </g>
  <g id="axes_2">
   <g id="patch_5">
    <path d="M 449.3425 289.637812 
L 773.3425 289.637812 
L 773.3425 17.837813 
L 449.3425 17.837813 
z
" style="fill:none;"/>
   </g>
   <g id="matplotlib.axis_3">
    <g id="xtick_5">
     <g id="line2d_12">
      <g>
       <use style="stroke:#000000;stroke-width:0.8;" x="464.069773" xlink:href="#m5983a5ff34" y="289.637812"/>
      </g>
     </g>
     <g id="text_12">
      <!-- 1 -->
      <g transform="translate(455.162273 319.413437)scale(0.28 -0.28)">
       <use xlink:href="#DejaVuSans-49"/>
      </g>
     </g>
    </g>
    <g id="xtick_6">
     <g id="line2d_13">
      <g>
       <use style="stroke:#000000;stroke-width:0.8;" x="562.251591" xlink:href="#m5983a5ff34" y="289.637812"/>
      </g>
     </g>
     <g id="text_13">
      <!-- 2 -->
      <g transform="translate(553.344091 319.413437)scale(0.28 -0.28)">
       <use xlink:href="#DejaVuSans-50"/>
      </g>
     </g>
    </g>
    <g id="xtick_7">
     <g id="line2d_14">
      <g>
       <use style="stroke:#000000;stroke-width:0.8;" x="660.433409" xlink:href="#m5983a5ff34" y="289.637812"/>
      </g>
     </g>
     <g id="text_14">
      <!-- 3 -->
      <g transform="translate(651.525909 319.413437)scale(0.28 -0.28)">
       <use xlink:href="#DejaVuSans-51"/>
      </g>
     </g>
    </g>
    <g id="xtick_8">
     <g id="line2d_15">
      <g>
       <use style="stroke:#000000;stroke-width:0.8;" x="758.615227" xlink:href="#m5983a5ff34" y="289.637812"/>
      </g>
     </g>
     <g id="text_15">
      <!-- 4 -->
      <g transform="translate(749.707727 319.413437)scale(0.28 -0.28)">
       <use xlink:href="#DejaVuSans-52"/>
      </g>
     </g>
    </g>
    <g id="text_16">
     <!-- -log10 p-value -->
     <g transform="translate(510.5075 350.512187)scale(0.28 -0.28)">
      <use xlink:href="#DejaVuSans-45"/>
      <use x="36.083984" xlink:href="#DejaVuSans-108"/>
      <use x="63.867188" xlink:href="#DejaVuSans-111"/>
      <use x="125.048828" xlink:href="#DejaVuSans-103"/>
      <use x="188.525391" xlink:href="#DejaVuSans-49"/>
      <use x="252.148438" xlink:href="#DejaVuSans-48"/>
      <use x="315.771484" xlink:href="#DejaVuSans-32"/>
      <use x="347.558594" xlink:href="#DejaVuSans-112"/>
      <use x="411.035156" xlink:href="#DejaVuSans-45"/>
      <use x="447.087891" xlink:href="#DejaVuSans-118"/>
      <use x="506.267578" xlink:href="#DejaVuSans-97"/>
      <use x="567.546875" xlink:href="#DejaVuSans-108"/>
      <use x="595.330078" xlink:href="#DejaVuSans-117"/>
      <use x="658.708984" xlink:href="#DejaVuSans-101"/>
     </g>
    </g>
   </g>
   <g id="matplotlib.axis_4">
    <g id="ytick_6"/>
    <g id="ytick_7"/>
    <g id="ytick_8"/>
    <g id="ytick_9"/>
    <g id="ytick_10"/>
   </g>
   <g id="line2d_16">
    <path clip-path="url(#pf8ebdab9eb)" d="M 464.069773 210.086593 
L 465.051591 210.086593 
L 465.5425 211.412447 
L 470.9425 211.412447 
L 471.433409 214.064154 
L 474.869773 214.064154 
L 475.360682 215.390008 
L 475.851591 215.390008 
L 476.3425 216.715861 
L 481.251591 216.715861 
L 482.233409 219.367569 
L 491.069773 219.367569 
L 491.560682 220.693422 
L 494.506136 220.693422 
L 494.997045 222.019276 
L 495.978864 222.019276 
L 496.469773 223.34513 
L 498.433409 223.34513 
L 498.924318 224.670983 
L 499.415227 224.670983 
L 499.906136 225.996837 
L 500.397045 225.996837 
L 500.887955 227.322691 
L 502.851591 227.322691 
L 503.3425 228.648544 
L 503.833409 228.648544 
L 504.324318 229.974398 
L 507.760682 229.974398 
L 508.251591 231.300252 
L 511.197045 231.300252 
L 511.687955 232.626105 
L 513.160682 232.626105 
L 513.651591 233.951959 
L 517.087955 233.951959 
L 517.578864 235.277813 
L 527.397045 235.277813 
L 527.887955 236.603666 
L 535.7425 236.603666 
L 536.233409 237.92952 
L 537.706136 237.92952 
L 538.197045 240.581227 
L 541.633409 240.581227 
L 542.124318 241.907081 
L 546.051591 241.907081 
L 546.5425 243.232934 
L 549.978864 243.232934 
L 550.469773 244.558788 
L 565.687955 244.558788 
L 566.178864 245.884642 
L 567.160682 245.884642 
L 567.651591 247.210495 
L 568.1425 247.210495 
L 568.633409 248.536349 
L 580.906136 248.536349 
L 581.397045 249.862203 
L 584.3425 249.862203 
L 584.833409 252.51391 
L 588.269773 252.51391 
L 588.760682 253.839764 
L 591.215227 253.839764 
L 591.706136 255.165617 
L 592.197045 255.165617 
L 592.687955 256.491471 
L 593.178864 256.491471 
L 593.669773 259.143178 
L 600.5425 259.143178 
L 601.033409 260.469032 
L 602.015227 260.469032 
L 602.506136 261.794886 
L 607.906136 261.794886 
L 608.397045 263.120739 
L 609.378864 263.120739 
L 609.869773 264.446593 
L 650.615227 264.446593 
L 651.106136 265.772447 
L 685.469773 265.772447 
L 685.960682 267.0983 
L 740.9425 267.0983 
L 741.433409 268.424154 
L 758.615227 268.424154 
L 758.615227 268.424154 
" style="fill:none;stroke:#8b0000;stroke-linecap:square;stroke-width:2;"/>
   </g>
   <g id="line2d_17">
    <path clip-path="url(#pf8ebdab9eb)" d="M 464.069773 203.155994 
L 481.251591 203.155994 
L 482.233409 211.392358 
L 499.415227 211.392358 
L 499.906136 215.51054 
L 502.851591 215.51054 
L 503.3425 219.628722 
L 537.706136 219.628722 
L 538.197045 223.746903 
L 580.906136 223.746903 
L 581.397045 227.865085 
L 584.3425 227.865085 
L 584.833409 231.983267 
L 593.178864 231.983267 
L 593.669773 236.101449 
L 609.378864 236.101449 
L 609.869773 240.219631 
L 685.469773 240.219631 
L 685.960682 244.337813 
L 740.9425 244.337813 
L 741.433409 248.455994 
L 758.615227 248.455994 
L 758.615227 248.455994 
" style="fill:none;stroke:#000080;stroke-linecap:square;stroke-width:2;"/>
   </g>
   <g id="patch_6">
    <path d="M 449.3425 289.637812 
L 449.3425 17.837813 
" style="fill:none;stroke:#000000;stroke-linecap:square;stroke-linejoin:miter;"/>
   </g>
   <g id="patch_7">
    <path d="M 449.3425 289.637812 
L 773.3425 289.637812 
" style="fill:none;stroke:#000000;stroke-linecap:square;stroke-linejoin:miter;"/>
   </g>
  </g>
  <g id="axes_3">
   <g id="patch_8">
    <path d="M 789.5425 289.637812 
L 1113.5425 289.637812 
L 1113.5425 17.837813 
L 789.5425 17.837813 
z
" style="fill:none;"/>
   </g>
   <g id="matplotlib.axis_5">
    <g id="xtick_9">
     <g id="line2d_18">
      <g>
       <use style="stroke:#000000;stroke-width:0.8;" x="804.269773" xlink:href="#m5983a5ff34" y="289.637812"/>
      </g>
     </g>
     <g id="text_17">
      <!-- 1 -->
      <g transform="translate(795.362273 319.413437)scale(0.28 -0.28)">
       <use xlink:href="#DejaVuSans-49"/>
      </g>
     </g>
    </g>
    <g id="xtick_10">
     <g id="line2d_19">
      <g>
       <use style="stroke:#000000;stroke-width:0.8;" x="902.451591" xlink:href="#m5983a5ff34" y="289.637812"/>
      </g>
     </g>
     <g id="text_18">
      <!-- 2 -->
      <g transform="translate(893.544091 319.413437)scale(0.28 -0.28)">
       <use xlink:href="#DejaVuSans-50"/>
      </g>
     </g>
    </g>
    <g id="xtick_11">
     <g id="line2d_20">
      <g>
       <use style="stroke:#000000;stroke-width:0.8;" x="1000.633409" xlink:href="#m5983a5ff34" y="289.637812"/>
      </g>
     </g>
     <g id="text_19">
      <!-- 3 -->
      <g transform="translate(991.725909 319.413437)scale(0.28 -0.28)">
       <use xlink:href="#DejaVuSans-51"/>
      </g>
     </g>
    </g>
    <g id="xtick_12">
     <g id="line2d_21">
      <g>
       <use style="stroke:#000000;stroke-width:0.8;" x="1098.815227" xlink:href="#m5983a5ff34" y="289.637812"/>
      </g>
     </g>
     <g id="text_20">
      <!-- 4 -->
      <g transform="translate(1089.907727 319.413437)scale(0.28 -0.28)">
       <use xlink:href="#DejaVuSans-52"/>
      </g>
     </g>
    </g>
    <g id="text_21">
     <!-- -log10 p-value -->
     <g transform="translate(850.7075 350.512187)scale(0.28 -0.28)">
      <use xlink:href="#DejaVuSans-45"/>
      <use x="36.083984" xlink:href="#DejaVuSans-108"/>
      <use x="63.867188" xlink:href="#DejaVuSans-111"/>
      <use x="125.048828" xlink:href="#DejaVuSans-103"/>
      <use x="188.525391" xlink:href="#DejaVuSans-49"/>
      <use x="252.148438" xlink:href="#DejaVuSans-48"/>
      <use x="315.771484" xlink:href="#DejaVuSans-32"/>
      <use x="347.558594" xlink:href="#DejaVuSans-112"/>
      <use x="411.035156" xlink:href="#DejaVuSans-45"/>
      <use x="447.087891" xlink:href="#DejaVuSans-118"/>
      <use x="506.267578" xlink:href="#DejaVuSans-97"/>
      <use x="567.546875" xlink:href="#DejaVuSans-108"/>
      <use x="595.330078" xlink:href="#DejaVuSans-117"/>
      <use x="658.708984" xlink:href="#DejaVuSans-101"/>
     </g>
    </g>
   </g>
   <g id="matplotlib.axis_6">
    <g id="ytick_11"/>
    <g id="ytick_12"/>
    <g id="ytick_13"/>
    <g id="ytick_14"/>
    <g id="ytick_15"/>
   </g>
   <g id="line2d_22">
    <path clip-path="url(#p16e8031e04)" d="M 804.269773 141.220707 
L 805.251591 141.220707 
L 806.233409 143.008865 
L 811.633409 143.008865 
L 812.615227 144.797023 
L 813.106136 146.585181 
L 817.524318 146.585181 
L 818.015227 147.47926 
L 818.506136 147.47926 
L 818.997045 148.373339 
L 819.487955 148.373339 
L 819.978864 149.267418 
L 820.469773 149.267418 
L 820.960682 150.161497 
L 821.9425 150.161497 
L 822.433409 151.055576 
L 825.378864 151.055576 
L 825.869773 151.949655 
L 827.833409 151.949655 
L 829.797045 155.52597 
L 831.269773 155.52597 
L 831.760682 156.420049 
L 832.251591 156.420049 
L 833.233409 158.208207 
L 836.669773 158.208207 
L 837.160682 159.102286 
L 839.124318 159.102286 
L 839.615227 159.996365 
L 842.560682 159.996365 
L 843.051591 160.890444 
L 843.5425 160.890444 
L 844.033409 161.784523 
L 844.524318 161.784523 
L 845.506136 163.572681 
L 848.9425 163.572681 
L 849.433409 164.46676 
L 855.815227 164.46676 
L 856.306136 165.360839 
L 856.797045 165.360839 
L 857.778864 167.148997 
L 859.7425 167.148997 
L 860.233409 168.043076 
L 861.215227 168.043076 
L 861.706136 168.937155 
L 865.633409 168.937155 
L 866.124318 170.725313 
L 866.615227 170.725313 
L 867.106136 171.619391 
L 868.578864 171.619391 
L 869.069773 172.51347 
L 873.978864 172.51347 
L 874.469773 173.407549 
L 875.9425 173.407549 
L 876.433409 174.301628 
L 876.924318 174.301628 
L 877.415227 175.195707 
L 881.3425 175.195707 
L 881.833409 176.089786 
L 884.287955 176.089786 
L 884.778864 176.983865 
L 886.7425 176.983865 
L 887.233409 177.877944 
L 888.706136 177.877944 
L 889.197045 178.772023 
L 889.687955 178.772023 
L 890.178864 179.666102 
L 890.669773 179.666102 
L 891.160682 180.560181 
L 891.651591 180.560181 
L 892.1425 182.348339 
L 894.597045 182.348339 
L 895.087955 184.136497 
L 899.997045 184.136497 
L 900.487955 185.030576 
L 903.433409 185.030576 
L 903.924318 185.924655 
L 906.378864 185.924655 
L 906.869773 186.818734 
L 907.360682 186.818734 
L 907.851591 188.606891 
L 913.251591 188.606891 
L 913.7425 189.50097 
L 919.1425 189.50097 
L 919.633409 190.395049 
L 922.087955 190.395049 
L 922.578864 191.289128 
L 932.887955 191.289128 
L 933.869773 194.865444 
L 934.360682 194.865444 
L 934.851591 195.759523 
L 936.324318 195.759523 
L 936.815227 196.653602 
L 940.251591 196.653602 
L 940.7425 197.547681 
L 941.724318 197.547681 
L 942.215227 198.44176 
L 948.597045 198.44176 
L 949.087955 199.335839 
L 950.560682 199.335839 
L 951.051591 201.123997 
L 953.506136 201.123997 
L 953.997045 203.806234 
L 954.978864 203.806234 
L 955.469773 204.700312 
L 956.451591 204.700312 
L 956.9425 205.594391 
L 957.433409 205.594391 
L 958.415227 207.382549 
L 962.3425 207.382549 
L 962.833409 208.276628 
L 964.797045 208.276628 
L 965.287955 209.170707 
L 967.7425 209.170707 
L 968.233409 210.958865 
L 968.724318 210.958865 
L 969.215227 211.852944 
L 970.687955 211.852944 
L 971.178864 212.747023 
L 990.815227 212.747023 
L 991.306136 213.641102 
L 1009.960682 213.641102 
L 1010.451591 215.42926 
L 1012.415227 215.42926 
L 1012.906136 216.323339 
L 1018.797045 216.323339 
L 1019.287955 217.217418 
L 1022.233409 217.217418 
L 1022.724318 218.111497 
L 1030.087955 218.111497 
L 1030.578864 219.005576 
L 1034.506136 219.005576 
L 1034.997045 219.899655 
L 1039.415227 219.899655 
L 1039.906136 220.793734 
L 1045.306136 220.793734 
L 1045.797045 222.581891 
L 1051.687955 222.581891 
L 1052.178864 223.47597 
L 1059.5425 223.47597 
L 1060.033409 225.264128 
L 1068.869773 225.264128 
L 1069.360682 228.840444 
L 1081.1425 228.840444 
L 1081.633409 232.41676 
L 1098.815227 232.41676 
L 1098.815227 232.41676 
" style="fill:none;stroke:#8b0000;stroke-linecap:square;stroke-width:2;"/>
   </g>
   <g id="line2d_23">
    <path clip-path="url(#p16e8031e04)" d="M 804.269773 112.509723 
L 812.124318 112.509723 
L 813.106136 118.617588 
L 827.833409 118.617588 
L 828.324318 121.67152 
L 828.815227 121.67152 
L 829.797045 127.779386 
L 839.124318 127.779386 
L 839.615227 130.833318 
L 844.524318 130.833318 
L 845.015227 133.887251 
L 855.815227 133.887251 
L 856.306136 136.941183 
L 857.287955 136.941183 
L 857.778864 139.995116 
L 859.7425 139.995116 
L 860.233409 143.049048 
L 865.633409 143.049048 
L 866.124318 146.102981 
L 873.978864 146.102981 
L 874.469773 149.156914 
L 891.651591 149.156914 
L 892.1425 152.210846 
L 906.378864 152.210846 
L 906.869773 155.264779 
L 907.360682 155.264779 
L 907.851591 158.318711 
L 932.887955 158.318711 
L 933.869773 164.426577 
L 934.360682 164.426577 
L 934.851591 167.480509 
L 954.978864 167.480509 
L 955.469773 170.534442 
L 957.924318 170.534442 
L 958.415227 173.588374 
L 962.3425 173.588374 
L 962.833409 176.642307 
L 967.7425 176.642307 
L 968.233409 179.696239 
L 968.724318 179.696239 
L 969.215227 182.750172 
L 1018.797045 182.750172 
L 1019.287955 185.804105 
L 1022.233409 185.804105 
L 1022.724318 188.858037 
L 1034.506136 188.858037 
L 1034.997045 191.91197 
L 1039.415227 191.91197 
L 1039.906136 194.965902 
L 1045.306136 194.965902 
L 1045.797045 198.019835 
L 1068.869773 198.019835 
L 1069.360682 201.073768 
L 1081.1425 201.073768 
L 1081.633409 210.235565 
L 1098.815227 210.235565 
L 1098.815227 210.235565 
" style="fill:none;stroke:#000080;stroke-linecap:square;stroke-width:2;"/>
   </g>
   <g id="patch_9">
    <path d="M 789.5425 289.637812 
L 789.5425 17.837813 
" style="fill:none;stroke:#000000;stroke-linecap:square;stroke-linejoin:miter;"/>
   </g>
   <g id="patch_10">
    <path d="M 789.5425 289.637812 
L 1113.5425 289.637812 
" style="fill:none;stroke:#000000;stroke-linecap:square;stroke-linejoin:miter;"/>
   </g>
  </g>
 </g>
 <defs>
  <clipPath id="pf341443058">
   <rect height="271.8" width="324" x="109.1425" y="17.837812"/>
  </clipPath>
  <clipPath id="pf8ebdab9eb">
   <rect height="271.8" width="324" x="449.3425" y="17.837812"/>
  </clipPath>
  <clipPath id="p16e8031e04">
   <rect height="271.8" width="324" x="789.5425" y="17.837812"/>
  </clipPath>
 </defs>
</svg>
