<?xml version="1.0" encoding="utf-8" standalone="no"?>
<!DOCTYPE svg PUBLIC "-//W3C//DTD SVG 1.1//EN"
  "http://www.w3.org/Graphics/SVG/1.1/DTD/svg11.dtd">
<!-- Created with matplotlib (https://matplotlib.org/) -->
<svg height="388.8975pt" version="1.1" viewBox="0 0 1102.9275 388.8975" width="1102.9275pt" xmlns="http://www.w3.org/2000/svg" xmlns:xlink="http://www.w3.org/1999/xlink">
 <defs>
  <style type="text/css">
*{stroke-linecap:butt;stroke-linejoin:round;}
  </style>
 </defs>
 <g id="figure_1">
  <g id="patch_1">
   <path d="M 0 388.8975 
L 1102.9275 388.8975 
L 1102.9275 0 
L 0 0 
z
" style="fill:none;"/>
  </g>
  <g id="axes_1">
   <g id="patch_2">
    <path d="M 91.3275 315 
L 415.3275 315 
L 415.3275 43.2 
L 91.3275 43.2 
z
" style="fill:none;"/>
   </g>
   <g id="matplotlib.axis_1">
    <g id="xtick_1">
     <g id="line2d_1">
      <defs>
       <path d="M 0 0 
L 0 5 
" id="m40d0c2a47d" style="stroke:#000000;stroke-width:0.8;"/>
      </defs>
      <g>
       <use style="stroke:#000000;stroke-width:0.8;" x="106.054773" xlink:href="#m40d0c2a47d" y="315"/>
      </g>
     </g>
     <g id="text_1">
      <!-- 0 -->
      <defs>
       <path d="M 31.78125 66.40625 
Q 24.171875 66.40625 20.328125 58.90625 
Q 16.5 51.421875 16.5 36.375 
Q 16.5 21.390625 20.328125 13.890625 
Q 24.171875 6.390625 31.78125 6.390625 
Q 39.453125 6.390625 43.28125 13.890625 
Q 47.125 21.390625 47.125 36.375 
Q 47.125 51.421875 43.28125 58.90625 
Q 39.453125 66.40625 31.78125 66.40625 
z
M 31.78125 74.21875 
Q 44.046875 74.21875 50.515625 64.515625 
Q 56.984375 54.828125 56.984375 36.375 
Q 56.984375 17.96875 50.515625 8.265625 
Q 44.046875 -1.421875 31.78125 -1.421875 
Q 19.53125 -1.421875 13.0625 8.265625 
Q 6.59375 17.96875 6.59375 36.375 
Q 6.59375 54.828125 13.0625 64.515625 
Q 19.53125 74.21875 31.78125 74.21875 
z
" id="DejaVuSans-48"/>
      </defs>
      <g transform="translate(97.147273 344.775625)scale(0.28 -0.28)">
       <use xlink:href="#DejaVuSans-48"/>
      </g>
     </g>
    </g>
    <g id="xtick_2">
     <g id="line2d_2">
      <g>
       <use style="stroke:#000000;stroke-width:0.8;" x="253.3275" xlink:href="#m40d0c2a47d" y="315"/>
      </g>
     </g>
     <g id="text_2">
      <!-- 0.5 -->
      <defs>
       <path d="M 10.6875 12.40625 
L 21 12.40625 
L 21 0 
L 10.6875 0 
z
" id="DejaVuSans-46"/>
       <path d="M 10.796875 72.90625 
L 49.515625 72.90625 
L 49.515625 64.59375 
L 19.828125 64.59375 
L 19.828125 46.734375 
Q 21.96875 47.46875 24.109375 47.828125 
Q 26.265625 48.1875 28.421875 48.1875 
Q 40.625 48.1875 47.75 41.5 
Q 54.890625 34.8125 54.890625 23.390625 
Q 54.890625 11.625 47.5625 5.09375 
Q 40.234375 -1.421875 26.90625 -1.421875 
Q 22.3125 -1.421875 17.546875 -0.640625 
Q 12.796875 0.140625 7.71875 1.703125 
L 7.71875 11.625 
Q 12.109375 9.234375 16.796875 8.0625 
Q 21.484375 6.890625 26.703125 6.890625 
Q 35.15625 6.890625 40.078125 11.328125 
Q 45.015625 15.765625 45.015625 23.390625 
Q 45.015625 31 40.078125 35.4375 
Q 35.15625 39.890625 26.703125 39.890625 
Q 22.75 39.890625 18.8125 39.015625 
Q 14.890625 38.140625 10.796875 36.28125 
z
" id="DejaVuSans-53"/>
      </defs>
      <g transform="translate(231.063125 344.775625)scale(0.28 -0.28)">
       <use xlink:href="#DejaVuSans-48"/>
       <use x="63.623047" xlink:href="#DejaVuSans-46"/>
       <use x="95.410156" xlink:href="#DejaVuSans-53"/>
      </g>
     </g>
    </g>
    <g id="xtick_3">
     <g id="line2d_3">
      <g>
       <use style="stroke:#000000;stroke-width:0.8;" x="400.600227" xlink:href="#m40d0c2a47d" y="315"/>
      </g>
     </g>
     <g id="text_3">
      <!-- 1 -->
      <defs>
       <path d="M 12.40625 8.296875 
L 28.515625 8.296875 
L 28.515625 63.921875 
L 10.984375 60.40625 
L 10.984375 69.390625 
L 28.421875 72.90625 
L 38.28125 72.90625 
L 38.28125 8.296875 
L 54.390625 8.296875 
L 54.390625 0 
L 12.40625 0 
z
" id="DejaVuSans-49"/>
      </defs>
      <g transform="translate(391.692727 344.775625)scale(0.28 -0.28)">
       <use xlink:href="#DejaVuSans-49"/>
      </g>
     </g>
    </g>
    <g id="text_4">
     <!-- Quantiles -->
     <defs>
      <path d="M 39.40625 66.21875 
Q 28.65625 66.21875 22.328125 58.203125 
Q 16.015625 50.203125 16.015625 36.375 
Q 16.015625 22.609375 22.328125 14.59375 
Q 28.65625 6.59375 39.40625 6.59375 
Q 50.140625 6.59375 56.421875 14.59375 
Q 62.703125 22.609375 62.703125 36.375 
Q 62.703125 50.203125 56.421875 58.203125 
Q 50.140625 66.21875 39.40625 66.21875 
z
M 53.21875 1.3125 
L 66.21875 -12.890625 
L 54.296875 -12.890625 
L 43.5 -1.21875 
Q 41.890625 -1.3125 41.03125 -1.359375 
Q 40.1875 -1.421875 39.40625 -1.421875 
Q 24.03125 -1.421875 14.8125 8.859375 
Q 5.609375 19.140625 5.609375 36.375 
Q 5.609375 53.65625 14.8125 63.9375 
Q 24.03125 74.21875 39.40625 74.21875 
Q 54.734375 74.21875 63.90625 63.9375 
Q 73.09375 53.65625 73.09375 36.375 
Q 73.09375 23.6875 67.984375 14.640625 
Q 62.890625 5.609375 53.21875 1.3125 
z
" id="DejaVuSans-81"/>
      <path d="M 8.5 21.578125 
L 8.5 54.6875 
L 17.484375 54.6875 
L 17.484375 21.921875 
Q 17.484375 14.15625 20.5 10.265625 
Q 23.53125 6.390625 29.59375 6.390625 
Q 36.859375 6.390625 41.078125 11.03125 
Q 45.3125 15.671875 45.3125 23.6875 
L 45.3125 54.6875 
L 54.296875 54.6875 
L 54.296875 0 
L 45.3125 0 
L 45.3125 8.40625 
Q 42.046875 3.421875 37.71875 1 
Q 33.40625 -1.421875 27.6875 -1.421875 
Q 18.265625 -1.421875 13.375 4.4375 
Q 8.5 10.296875 8.5 21.578125 
z
M 31.109375 56 
z
" id="DejaVuSans-117"/>
      <path d="M 34.28125 27.484375 
Q 23.390625 27.484375 19.1875 25 
Q 14.984375 22.515625 14.984375 16.5 
Q 14.984375 11.71875 18.140625 8.90625 
Q 21.296875 6.109375 26.703125 6.109375 
Q 34.1875 6.109375 38.703125 11.40625 
Q 43.21875 16.703125 43.21875 25.484375 
L 43.21875 27.484375 
z
M 52.203125 31.203125 
L 52.203125 0 
L 43.21875 0 
L 43.21875 8.296875 
Q 40.140625 3.328125 35.546875 0.953125 
Q 30.953125 -1.421875 24.3125 -1.421875 
Q 15.921875 -1.421875 10.953125 3.296875 
Q 6 8.015625 6 15.921875 
Q 6 25.140625 12.171875 29.828125 
Q 18.359375 34.515625 30.609375 34.515625 
L 43.21875 34.515625 
L 43.21875 35.40625 
Q 43.21875 41.609375 39.140625 45 
Q 35.0625 48.390625 27.6875 48.390625 
Q 23 48.390625 18.546875 47.265625 
Q 14.109375 46.140625 10.015625 43.890625 
L 10.015625 52.203125 
Q 14.9375 54.109375 19.578125 55.046875 
Q 24.21875 56 28.609375 56 
Q 40.484375 56 46.34375 49.84375 
Q 52.203125 43.703125 52.203125 31.203125 
z
" id="DejaVuSans-97"/>
      <path d="M 54.890625 33.015625 
L 54.890625 0 
L 45.90625 0 
L 45.90625 32.71875 
Q 45.90625 40.484375 42.875 44.328125 
Q 39.84375 48.1875 33.796875 48.1875 
Q 26.515625 48.1875 22.3125 43.546875 
Q 18.109375 38.921875 18.109375 30.90625 
L 18.109375 0 
L 9.078125 0 
L 9.078125 54.6875 
L 18.109375 54.6875 
L 18.109375 46.1875 
Q 21.34375 51.125 25.703125 53.5625 
Q 30.078125 56 35.796875 56 
Q 45.21875 56 50.046875 50.171875 
Q 54.890625 44.34375 54.890625 33.015625 
z
" id="DejaVuSans-110"/>
      <path d="M 18.3125 70.21875 
L 18.3125 54.6875 
L 36.8125 54.6875 
L 36.8125 47.703125 
L 18.3125 47.703125 
L 18.3125 18.015625 
Q 18.3125 11.328125 20.140625 9.421875 
Q 21.96875 7.515625 27.59375 7.515625 
L 36.8125 7.515625 
L 36.8125 0 
L 27.59375 0 
Q 17.1875 0 13.234375 3.875 
Q 9.28125 7.765625 9.28125 18.015625 
L 9.28125 47.703125 
L 2.6875 47.703125 
L 2.6875 54.6875 
L 9.28125 54.6875 
L 9.28125 70.21875 
z
" id="DejaVuSans-116"/>
      <path d="M 9.421875 54.6875 
L 18.40625 54.6875 
L 18.40625 0 
L 9.421875 0 
z
M 9.421875 75.984375 
L 18.40625 75.984375 
L 18.40625 64.59375 
L 9.421875 64.59375 
z
" id="DejaVuSans-105"/>
      <path d="M 9.421875 75.984375 
L 18.40625 75.984375 
L 18.40625 0 
L 9.421875 0 
z
" id="DejaVuSans-108"/>
      <path d="M 56.203125 29.59375 
L 56.203125 25.203125 
L 14.890625 25.203125 
Q 15.484375 15.921875 20.484375 11.0625 
Q 25.484375 6.203125 34.421875 6.203125 
Q 39.59375 6.203125 44.453125 7.46875 
Q 49.3125 8.734375 54.109375 11.28125 
L 54.109375 2.78125 
Q 49.265625 0.734375 44.1875 -0.34375 
Q 39.109375 -1.421875 33.890625 -1.421875 
Q 20.796875 -1.421875 13.15625 6.1875 
Q 5.515625 13.8125 5.515625 26.8125 
Q 5.515625 40.234375 12.765625 48.109375 
Q 20.015625 56 32.328125 56 
Q 43.359375 56 49.78125 48.890625 
Q 56.203125 41.796875 56.203125 29.59375 
z
M 47.21875 32.234375 
Q 47.125 39.59375 43.09375 43.984375 
Q 39.0625 48.390625 32.421875 48.390625 
Q 24.90625 48.390625 20.390625 44.140625 
Q 15.875 39.890625 15.1875 32.171875 
z
" id="DejaVuSans-101"/>
      <path d="M 44.28125 53.078125 
L 44.28125 44.578125 
Q 40.484375 46.53125 36.375 47.5 
Q 32.28125 48.484375 27.875 48.484375 
Q 21.1875 48.484375 17.84375 46.4375 
Q 14.5 44.390625 14.5 40.28125 
Q 14.5 37.15625 16.890625 35.375 
Q 19.28125 33.59375 26.515625 31.984375 
L 29.59375 31.296875 
Q 39.15625 29.25 43.1875 25.515625 
Q 47.21875 21.78125 47.21875 15.09375 
Q 47.21875 7.46875 41.1875 3.015625 
Q 35.15625 -1.421875 24.609375 -1.421875 
Q 20.21875 -1.421875 15.453125 -0.5625 
Q 10.6875 0.296875 5.421875 2 
L 5.421875 11.28125 
Q 10.40625 8.6875 15.234375 7.390625 
Q 20.0625 6.109375 24.8125 6.109375 
Q 31.15625 6.109375 34.5625 8.28125 
Q 37.984375 10.453125 37.984375 14.40625 
Q 37.984375 18.0625 35.515625 20.015625 
Q 33.0625 21.96875 24.703125 23.78125 
L 21.578125 24.515625 
Q 13.234375 26.265625 9.515625 29.90625 
Q 5.8125 33.546875 5.8125 39.890625 
Q 5.8125 47.609375 11.28125 51.796875 
Q 16.75 56 26.8125 56 
Q 31.78125 56 36.171875 55.265625 
Q 40.578125 54.546875 44.28125 53.078125 
z
" id="DejaVuSans-115"/>
     </defs>
     <g transform="translate(186.807813 375.874375)scale(0.28 -0.28)">
      <use xlink:href="#DejaVuSans-81"/>
      <use x="78.710938" xlink:href="#DejaVuSans-117"/>
      <use x="142.089844" xlink:href="#DejaVuSans-97"/>
      <use x="203.369141" xlink:href="#DejaVuSans-110"/>
      <use x="266.748047" xlink:href="#DejaVuSans-116"/>
      <use x="305.957031" xlink:href="#DejaVuSans-105"/>
      <use x="333.740234" xlink:href="#DejaVuSans-108"/>
      <use x="361.523438" xlink:href="#DejaVuSans-101"/>
      <use x="423.046875" xlink:href="#DejaVuSans-115"/>
     </g>
    </g>
   </g>
   <g id="matplotlib.axis_2">
    <g id="ytick_1">
     <g id="line2d_4">
      <defs>
       <path d="M 0 0 
L -5 0 
" id="m00c18e1808" style="stroke:#000000;stroke-width:0.8;"/>
      </defs>
      <g>
       <use style="stroke:#000000;stroke-width:0.8;" x="91.3275" xlink:href="#m00c18e1808" y="302.645455"/>
      </g>
     </g>
     <g id="text_5">
      <!-- 0.0 -->
      <g transform="translate(38.29875 313.283267)scale(0.28 -0.28)">
       <use xlink:href="#DejaVuSans-48"/>
       <use x="63.623047" xlink:href="#DejaVuSans-46"/>
       <use x="95.410156" xlink:href="#DejaVuSans-48"/>
      </g>
     </g>
    </g>
    <g id="ytick_2">
     <g id="line2d_5">
      <g>
       <use style="stroke:#000000;stroke-width:0.8;" x="91.3275" xlink:href="#m00c18e1808" y="179.1"/>
      </g>
     </g>
     <g id="text_6">
      <!-- 0.5 -->
      <g transform="translate(38.29875 189.737812)scale(0.28 -0.28)">
       <use xlink:href="#DejaVuSans-48"/>
       <use x="63.623047" xlink:href="#DejaVuSans-46"/>
       <use x="95.410156" xlink:href="#DejaVuSans-53"/>
      </g>
     </g>
    </g>
    <g id="ytick_3">
     <g id="line2d_6">
      <g>
       <use style="stroke:#000000;stroke-width:0.8;" x="91.3275" xlink:href="#m00c18e1808" y="55.554545"/>
      </g>
     </g>
     <g id="text_7">
      <!-- 1.0 -->
      <g transform="translate(38.29875 66.192358)scale(0.28 -0.28)">
       <use xlink:href="#DejaVuSans-49"/>
       <use x="63.623047" xlink:href="#DejaVuSans-46"/>
       <use x="95.410156" xlink:href="#DejaVuSans-48"/>
      </g>
     </g>
    </g>
    <g id="text_8">
     <!-- p-values -->
     <defs>
      <path d="M 18.109375 8.203125 
L 18.109375 -20.796875 
L 9.078125 -20.796875 
L 9.078125 54.6875 
L 18.109375 54.6875 
L 18.109375 46.390625 
Q 20.953125 51.265625 25.265625 53.625 
Q 29.59375 56 35.59375 56 
Q 45.5625 56 51.78125 48.09375 
Q 58.015625 40.1875 58.015625 27.296875 
Q 58.015625 14.40625 51.78125 6.484375 
Q 45.5625 -1.421875 35.59375 -1.421875 
Q 29.59375 -1.421875 25.265625 0.953125 
Q 20.953125 3.328125 18.109375 8.203125 
z
M 48.6875 27.296875 
Q 48.6875 37.203125 44.609375 42.84375 
Q 40.53125 48.484375 33.40625 48.484375 
Q 26.265625 48.484375 22.1875 42.84375 
Q 18.109375 37.203125 18.109375 27.296875 
Q 18.109375 17.390625 22.1875 11.75 
Q 26.265625 6.109375 33.40625 6.109375 
Q 40.53125 6.109375 44.609375 11.75 
Q 48.6875 17.390625 48.6875 27.296875 
z
" id="DejaVuSans-112"/>
      <path d="M 4.890625 31.390625 
L 31.203125 31.390625 
L 31.203125 23.390625 
L 4.890625 23.390625 
z
" id="DejaVuSans-45"/>
      <path d="M 2.984375 54.6875 
L 12.5 54.6875 
L 29.59375 8.796875 
L 46.6875 54.6875 
L 56.203125 54.6875 
L 35.6875 0 
L 23.484375 0 
z
" id="DejaVuSans-118"/>
     </defs>
     <g transform="translate(28.475625 238.569375)rotate(-90)scale(0.28 -0.28)">
      <use xlink:href="#DejaVuSans-112"/>
      <use x="63.476562" xlink:href="#DejaVuSans-45"/>
      <use x="99.529297" xlink:href="#DejaVuSans-118"/>
      <use x="158.708984" xlink:href="#DejaVuSans-97"/>
      <use x="219.988281" xlink:href="#DejaVuSans-108"/>
      <use x="247.771484" xlink:href="#DejaVuSans-117"/>
      <use x="311.150391" xlink:href="#DejaVuSans-101"/>
      <use x="372.673828" xlink:href="#DejaVuSans-115"/>
     </g>
    </g>
   </g>
   <g id="line2d_7">
    <path clip-path="url(#p0be07ba133)" d="M 106.287478 302.633101 
L 168.05564 302.534269 
L 172.755664 302.4725 
L 176.784256 302.386022 
L 177.455688 302.324252 
L 182.491427 302.237775 
L 184.505723 302.101882 
L 187.191451 302.00305 
L 193.905771 301.65714 
L 196.591499 301.447124 
L 197.934363 301.360646 
L 200.62009 301.125921 
L 201.627238 300.705888 
L 205.991546 300.162315 
L 206.327262 300.014068 
L 206.662978 299.98936 
L 206.998694 299.828759 
L 209.684422 299.544619 
L 211.027286 299.35931 
L 212.37015 299.198709 
L 214.720162 298.642782 
L 215.055878 298.370996 
L 218.077322 297.950962 
L 218.413038 297.679176 
L 220.76305 297.259142 
L 221.098766 297.086187 
L 223.448777 296.752631 
L 224.791641 296.382013 
L 225.798789 296.233766 
L 226.470221 296.085519 
L 226.805937 295.924918 
L 227.141653 295.591362 
L 228.148801 295.294868 
L 228.820233 295.134266 
L 229.155949 294.92425 
L 230.163097 294.813064 
L 230.834529 294.701879 
L 231.170245 294.442447 
L 234.863121 293.454132 
L 235.198837 293.120576 
L 235.534553 293.046453 
L 236.205985 292.564649 
L 236.541701 292.539942 
L 236.877417 292.292863 
L 238.555997 291.81106 
L 238.891713 291.576335 
L 239.227429 291.502212 
L 239.898861 290.77333 
L 240.570293 290.637437 
L 240.906009 290.402712 
L 241.577441 290.242111 
L 242.248873 289.303213 
L 242.584589 289.253797 
L 242.920304 289.019072 
L 243.927452 288.809055 
L 244.598884 288.710224 
L 245.270316 287.215399 
L 245.941748 286.96832 
L 246.61318 286.943612 
L 247.284612 286.33827 
L 248.29176 285.93059 
L 248.627476 285.436433 
L 249.298908 285.102877 
L 249.634624 284.818737 
L 250.641772 284.559304 
L 250.977488 284.32458 
L 252.320352 284.163979 
L 252.991784 284.089855 
L 253.3275 283.85513 
L 254.334648 282.422075 
L 254.670364 282.422075 
L 255.00608 282.100873 
L 256.013228 281.779671 
L 256.348944 281.779671 
L 256.68466 281.61907 
L 257.020376 281.297867 
L 257.356092 281.248452 
L 257.691808 281.075497 
L 258.027524 280.643109 
L 258.36324 280.630755 
L 259.034672 279.975997 
L 259.370388 279.963643 
L 259.706104 279.284177 
L 260.04182 279.271823 
L 261.048968 278.913559 
L 261.384684 278.468818 
L 261.7204 278.431756 
L 262.727548 277.937599 
L 263.063264 277.789352 
L 264.070411 276.825746 
L 264.406127 275.775662 
L 264.741843 275.405044 
L 265.077559 275.256797 
L 265.748991 274.602039 
L 267.091855 273.873157 
L 267.427571 273.144275 
L 268.099003 273.107213 
L 268.770435 272.094191 
L 269.106151 271.93359 
L 269.441867 271.488849 
L 269.777583 271.390017 
L 270.113299 270.945276 
L 270.449015 269.351619 
L 270.784731 268.560968 
L 271.791879 268.029749 
L 272.127595 267.350283 
L 272.799027 267.239098 
L 273.470459 267.15262 
L 273.806175 266.423738 
L 275.149039 265.76898 
L 276.156187 265.546609 
L 276.491903 265.521902 
L 276.827619 265.040098 
L 277.163335 264.323571 
L 278.170483 263.557627 
L 278.506199 263.051116 
L 278.841915 263.0017 
L 279.177631 262.705206 
L 280.520495 262.211049 
L 280.856211 261.988678 
L 281.191927 261.939263 
L 281.863359 260.666808 
L 282.199075 260.555623 
L 282.534791 260.320898 
L 282.870507 259.394353 
L 284.213371 259.209045 
L 284.884803 258.653118 
L 285.220519 257.775989 
L 285.89195 257.355955 
L 286.227666 256.800029 
L 286.563382 256.701197 
L 286.899098 255.404035 
L 287.234814 254.576322 
L 287.906246 254.205704 
L 288.577678 254.008041 
L 288.913394 253.78567 
L 289.24911 252.130244 
L 289.920542 251.747272 
L 290.591974 251.265469 
L 291.263406 250.907205 
L 291.599122 250.338924 
L 291.934838 250.314217 
L 292.270554 249.968307 
L 292.941986 249.857121 
L 293.277702 249.338256 
L 293.949134 248.992346 
L 294.620566 248.831745 
L 294.956282 248.424066 
L 295.291998 247.596352 
L 295.627714 247.522229 
L 296.299146 246.126235 
L 296.970578 245.854449 
L 297.977726 245.162629 
L 298.313442 244.544932 
L 298.649158 244.520224 
L 299.32059 243.59368 
L 299.656306 242.14827 
L 299.992022 242.012377 
L 300.327738 241.444096 
L 300.663454 241.258788 
L 301.670602 241.209372 
L 302.006318 241.085833 
L 302.67775 240.109872 
L 304.692046 238.232075 
L 305.027762 237.676148 
L 305.363478 237.392008 
L 305.699194 236.156615 
L 306.03491 235.563627 
L 306.370626 233.994678 
L 306.706342 233.945262 
L 307.042057 233.722892 
L 307.713489 233.586998 
L 308.049205 232.166297 
L 308.384921 231.252106 
L 308.720637 231.017381 
L 309.056353 230.63441 
L 309.392069 229.238416 
L 309.727785 228.657781 
L 310.063501 228.534242 
L 310.399217 228.200686 
L 310.734933 228.175978 
L 311.406365 227.533574 
L 311.742081 227.52122 
L 312.077797 227.348265 
L 312.413513 226.063456 
L 312.749229 225.85344 
L 313.084945 225.38399 
L 313.420661 225.38399 
L 313.756377 224.074474 
L 314.092093 223.506193 
L 314.763525 223.246761 
L 315.099241 221.937245 
L 315.434957 221.690166 
L 315.770673 219.997678 
L 316.106389 219.97297 
L 316.442105 219.602352 
L 316.777821 218.502853 
L 317.113537 218.391667 
L 317.449253 216.822718 
L 317.784969 216.22973 
L 318.120685 216.155606 
L 318.456401 215.439079 
L 318.792117 215.414371 
L 319.127833 214.722551 
L 320.134981 214.203686 
L 320.806413 214.129562 
L 321.142129 213.87013 
L 321.813561 211.831732 
L 322.149277 211.498176 
L 322.484993 210.682816 
L 323.156425 210.571631 
L 323.492141 210.040412 
L 323.827857 209.830395 
L 324.163573 208.212031 
L 324.499289 207.804351 
L 324.835005 206.853099 
L 325.170721 206.840745 
L 325.506437 206.272464 
L 326.513585 205.333566 
L 327.185017 203.764617 
L 327.520733 203.468123 
L 328.192164 202.343915 
L 328.52788 201.812696 
L 328.863596 196.895833 
L 329.199312 196.537569 
L 329.870744 196.401676 
L 330.20646 195.129221 
L 330.877892 194.882143 
L 331.213608 194.215031 
L 331.549324 194.190323 
L 331.88504 192.831391 
L 332.220756 190.928886 
L 332.892188 189.063443 
L 333.56362 188.087482 
L 333.899336 187.939235 
L 334.235052 187.370955 
L 334.570768 186.197331 
L 334.906484 185.987315 
L 335.2422 185.530219 
L 335.577916 185.480804 
L 335.913632 184.282473 
L 336.249348 184.257765 
L 336.92078 182.98531 
L 337.256496 182.911187 
L 337.592212 181.3793 
L 338.263644 180.662772 
L 338.59936 180.316862 
L 339.270792 178.32788 
L 339.942224 177.98197 
L 340.27794 177.969616 
L 340.613656 177.784307 
L 341.620804 176.203004 
L 341.95652 176.165942 
L 342.292236 175.412353 
L 343.299384 175.325875 
L 343.6351 175.227044 
L 343.970816 174.769948 
L 344.306532 174.016359 
L 345.649396 172.472118 
L 346.320828 172.225039 
L 346.656544 170.297826 
L 347.327976 170.050748 
L 347.663692 169.865439 
L 347.999408 168.6424 
L 348.335124 168.630046 
L 348.67084 168.432383 
L 349.006556 163.812014 
L 349.342272 163.589644 
L 349.677987 163.219026 
L 350.349419 162.996655 
L 350.685135 162.13188 
L 351.356567 161.724201 
L 351.692283 160.365269 
L 352.027999 159.525201 
L 352.699431 157.35091 
L 353.035147 156.745568 
L 353.370863 155.893147 
L 354.378011 154.880125 
L 355.049443 153.447069 
L 355.385159 153.027035 
L 355.720875 151.655749 
L 356.056591 151.507502 
L 357.063739 150.630373 
L 357.735171 149.45675 
L 358.070887 149.382627 
L 359.078035 148.653745 
L 359.413751 147.455414 
L 359.749467 147.319521 
L 360.420899 141.945562 
L 360.756615 141.253742 
L 361.092331 139.487131 
L 361.428047 139.153575 
L 361.763763 138.214676 
L 362.099479 135.855076 
L 362.435195 135.669767 
L 362.770911 135.620351 
L 363.106627 133.495476 
L 363.442343 133.470768 
L 364.113775 130.74055 
L 364.449491 130.04873 
L 364.785207 129.628696 
L 365.120923 128.961584 
L 365.456639 128.899815 
L 365.792355 127.787961 
L 366.128071 127.787961 
L 366.463787 126.984956 
L 366.799503 126.564922 
L 367.135219 126.552568 
L 367.806651 125.354237 
L 368.142367 123.488794 
L 369.149515 123.105822 
L 369.485231 122.166924 
L 369.820947 120.882115 
L 370.156663 120.783284 
L 370.492379 120.474436 
L 370.828094 119.201981 
L 371.16381 119.140212 
L 371.499526 118.831363 
L 372.170958 118.744886 
L 372.506674 118.633701 
L 372.84239 116.990628 
L 373.513822 115.779943 
L 373.849538 112.197304 
L 374.856686 111.876102 
L 375.192402 110.554232 
L 375.528118 107.490458 
L 375.863834 107.317503 
L 376.19955 105.39029 
L 376.870982 104.204313 
L 377.206698 103.401308 
L 377.542414 103.401308 
L 377.87813 103.104813 
L 378.213846 102.005314 
L 378.549562 101.820005 
L 379.220994 100.251056 
L 379.55671 100.20164 
L 380.228142 99.188618 
L 380.563858 98.966248 
L 380.899574 98.014995 
L 381.23529 94.938867 
L 381.906722 94.630019 
L 382.578154 91.282105 
L 382.91387 90.41733 
L 383.249586 89.935526 
L 383.585302 89.898465 
L 384.256734 89.564909 
L 384.928166 86.859398 
L 385.263882 86.698797 
L 385.599598 85.784607 
L 385.935314 84.153888 
L 386.27103 83.869748 
L 386.606746 83.43736 
L 386.942462 82.733187 
L 387.278178 80.311817 
L 387.613894 80.212985 
L 388.621042 78.298126 
L 389.292474 78.02634 
L 389.62819 76.963902 
L 389.963906 76.741532 
L 390.299622 75.889111 
L 390.635338 75.802633 
L 391.30677 73.356555 
L 391.642486 71.466404 
L 391.978202 71.355219 
L 392.985349 70.342197 
L 393.321065 68.674417 
L 393.656781 67.784934 
L 393.992497 66.1048 
L 394.328213 65.919491 
L 395.671077 63.325166 
L 396.342509 61.916818 
L 398.021089 60.187268 
L 398.356805 59.001291 
L 398.692521 58.284763 
L 399.028237 58.14887 
L 399.363953 56.740523 
L 399.699669 56.505798 
L 400.035385 55.715147 
L 400.367522 55.678085 
L 400.367522 55.678085 
" style="fill:none;stroke:#b8860b;stroke-linecap:square;stroke-opacity:0.75;stroke-width:2;"/>
   </g>
   <g id="line2d_8">
    <path clip-path="url(#p0be07ba133)" d="M 109.277698 302.633101 
L 113.875695 302.633101 
L 118.524088 302.633101 
L 123.172482 302.633101 
L 127.820875 302.633101 
L 132.469269 302.633101 
L 137.117662 302.633101 
L 141.766056 302.633101 
L 146.414449 302.633101 
L 151.062843 302.633101 
L 155.711236 302.633101 
L 160.35963 302.633101 
L 165.008023 302.633101 
L 169.656417 302.633101 
L 174.30481 302.633101 
L 178.953204 302.633101 
L 183.601597 302.620747 
L 188.249991 302.620747 
L 192.898384 302.620747 
L 197.546778 302.620747 
L 202.195171 302.620747 
L 206.843565 302.608393 
L 211.491958 302.608393 
L 216.140352 302.571331 
L 220.788745 302.497207 
L 225.437139 302.299545 
L 230.085532 302.287191 
L 234.733926 302.262483 
L 239.382319 302.188359 
L 244.030713 301.941281 
L 248.679106 300.705888 
L 253.3275 300.409394 
L 257.975894 299.64345 
L 262.624287 299.124585 
L 267.272681 298.160979 
L 271.921074 298.148625 
L 276.569468 298.012732 
L 281.217861 297.62976 
L 285.866255 296.752631 
L 290.514648 296.233766 
L 295.163042 293.590025 
L 299.811435 292.539942 
L 304.459829 290.378004 
L 309.108222 289.019072 
L 313.756616 288.710224 
L 318.405009 287.215399 
L 323.053403 268.560968 
L 327.701796 263.557627 
L 332.35019 262.272819 
L 336.998583 261.988678 
L 341.646977 251.969643 
L 346.29537 251.265469 
L 350.943764 250.338924 
L 355.592157 247.596352 
L 360.240551 243.59368 
L 364.888944 221.937245 
L 369.537338 203.764617 
L 374.185731 178.117863 
L 378.834125 177.98197 
L 383.482518 129.628696 
L 388.130912 126.984956 
L 392.779305 104.204313 
L 397.377302 80.212985 
" style="fill:none;stroke:#8b0000;stroke-linecap:square;stroke-opacity:0.75;stroke-width:2;"/>
   </g>
   <g id="line2d_9">
    <path clip-path="url(#p0be07ba133)" d="M 107.138748 302.633101 
L 202.507405 302.546623 
L 207.19849 302.497207 
L 208.762186 302.324252 
L 219.708052 302.077174 
L 222.835443 301.941281 
L 229.090224 301.533601 
L 232.217614 301.360646 
L 235.345005 301.249461 
L 236.9087 300.705888 
L 238.472395 300.668826 
L 240.03609 300.409394 
L 246.290871 300.162315 
L 249.418262 299.124585 
L 250.981957 298.148625 
L 252.545652 298.012732 
L 254.109348 297.62976 
L 255.673043 297.580344 
L 257.236738 296.93794 
L 258.800433 296.752631 
L 260.364129 296.233766 
L 261.927824 295.924918 
L 263.491519 294.92425 
L 266.61891 294.813064 
L 268.182605 294.071829 
L 269.7463 293.590025 
L 274.437386 290.402712 
L 276.001081 290.378004 
L 277.564776 289.834431 
L 279.128472 289.019072 
L 280.692167 288.98201 
L 282.255862 288.710224 
L 283.819557 287.215399 
L 286.946948 286.96832 
L 290.074338 286.943612 
L 291.638033 286.214731 
L 293.201729 282.422075 
L 294.765424 281.779671 
L 296.329119 281.61907 
L 297.892814 281.297867 
L 299.45651 280.630755 
L 301.020205 279.284177 
L 302.5839 273.144275 
L 304.147595 271.93359 
L 305.711291 268.560968 
L 307.274986 264.088846 
L 308.838681 263.557627 
L 310.402376 262.705206 
L 311.966072 262.272819 
L 313.529767 261.988678 
L 315.093462 260.555623 
L 316.657157 260.320898 
L 318.220853 254.13158 
L 319.784548 252.130244 
L 321.348243 251.969643 
L 322.911938 251.265469 
L 324.475634 250.338924 
L 326.039329 247.596352 
L 327.603024 243.59368 
L 329.166719 241.209372 
L 330.730415 233.994678 
L 332.29411 227.533574 
L 333.857805 224.074474 
L 335.4215 211.498176 
L 336.985196 210.682816 
L 338.548891 203.764617 
L 341.676281 201.812696 
L 343.239977 196.895833 
L 344.803672 194.215031 
L 346.367367 192.831391 
L 347.931062 182.911187 
L 349.494757 178.117863 
L 351.058453 177.98197 
L 352.622148 176.203004 
L 354.185843 170.297826 
L 355.749538 168.630046 
L 357.313234 151.235716 
L 358.876929 149.382627 
L 360.440624 148.653745 
L 362.004319 135.855076 
L 363.568015 130.04873 
L 365.13171 129.628696 
L 366.695405 128.961584 
L 368.2591 126.984956 
L 369.822796 125.947226 
L 371.386491 119.140212 
L 372.950186 118.81901 
L 374.513881 111.876102 
L 376.077577 104.204313 
L 377.641272 103.401308 
L 379.204967 99.658068 
L 380.768662 99.188618 
L 382.332358 94.630019 
L 383.896053 85.784607 
L 385.459748 84.153888 
L 387.023443 80.212985 
L 388.587139 79.570581 
L 390.150834 78.298126 
L 391.714529 78.137525 
L 393.278224 75.889111 
L 396.405615 61.212644 
L 397.96931 58.284763 
L 399.516252 58.14887 
L 399.516252 58.14887 
" style="fill:none;stroke:#000080;stroke-linecap:square;stroke-opacity:0.75;stroke-width:2;"/>
   </g>
   <g id="line2d_10">
    <path clip-path="url(#p0be07ba133)" d="M 106.054773 290.290909 
L 400.600227 290.290909 
" style="fill:none;stroke:#ff0000;stroke-dasharray:3.7,1.6;stroke-dashoffset:0;"/>
   </g>
   <g id="patch_3">
    <path d="M 91.3275 315 
L 91.3275 43.2 
" style="fill:none;stroke:#000000;stroke-linecap:square;stroke-linejoin:miter;"/>
   </g>
   <g id="patch_4">
    <path d="M 91.3275 315 
L 415.3275 315 
" style="fill:none;stroke:#000000;stroke-linecap:square;stroke-linejoin:miter;"/>
   </g>
   <g id="text_9">
    <!-- Chen -->
    <defs>
     <path d="M 64.40625 67.28125 
L 64.40625 56.890625 
Q 59.421875 61.53125 53.78125 63.8125 
Q 48.140625 66.109375 41.796875 66.109375 
Q 29.296875 66.109375 22.65625 58.46875 
Q 16.015625 50.828125 16.015625 36.375 
Q 16.015625 21.96875 22.65625 14.328125 
Q 29.296875 6.6875 41.796875 6.6875 
Q 48.140625 6.6875 53.78125 8.984375 
Q 59.421875 11.28125 64.40625 15.921875 
L 64.40625 5.609375 
Q 59.234375 2.09375 53.4375 0.328125 
Q 47.65625 -1.421875 41.21875 -1.421875 
Q 24.65625 -1.421875 15.125 8.703125 
Q 5.609375 18.84375 5.609375 36.375 
Q 5.609375 53.953125 15.125 64.078125 
Q 24.65625 74.21875 41.21875 74.21875 
Q 47.75 74.21875 53.53125 72.484375 
Q 59.328125 70.75 64.40625 67.28125 
z
" id="DejaVuSans-67"/>
     <path d="M 54.890625 33.015625 
L 54.890625 0 
L 45.90625 0 
L 45.90625 32.71875 
Q 45.90625 40.484375 42.875 44.328125 
Q 39.84375 48.1875 33.796875 48.1875 
Q 26.515625 48.1875 22.3125 43.546875 
Q 18.109375 38.921875 18.109375 30.90625 
L 18.109375 0 
L 9.078125 0 
L 9.078125 75.984375 
L 18.109375 75.984375 
L 18.109375 46.1875 
Q 21.34375 51.125 25.703125 53.5625 
Q 30.078125 56 35.796875 56 
Q 45.21875 56 50.046875 50.171875 
Q 54.890625 44.34375 54.890625 33.015625 
z
" id="DejaVuSans-104"/>
    </defs>
    <g transform="translate(120.782045 76.83017)scale(0.28 -0.28)">
     <use xlink:href="#DejaVuSans-67"/>
     <use x="69.824219" xlink:href="#DejaVuSans-104"/>
     <use x="133.203125" xlink:href="#DejaVuSans-101"/>
     <use x="194.726562" xlink:href="#DejaVuSans-110"/>
    </g>
   </g>
  </g>
  <g id="axes_2">
   <g id="patch_5">
    <path d="M 431.5275 315 
L 755.5275 315 
L 755.5275 43.2 
L 431.5275 43.2 
z
" style="fill:none;"/>
   </g>
   <g id="matplotlib.axis_3">
    <g id="xtick_4">
     <g id="line2d_11">
      <g>
       <use style="stroke:#000000;stroke-width:0.8;" x="446.254773" xlink:href="#m40d0c2a47d" y="315"/>
      </g>
     </g>
     <g id="text_10">
      <!-- 0 -->
      <g transform="translate(437.347273 344.775625)scale(0.28 -0.28)">
       <use xlink:href="#DejaVuSans-48"/>
      </g>
     </g>
    </g>
    <g id="xtick_5">
     <g id="line2d_12">
      <g>
       <use style="stroke:#000000;stroke-width:0.8;" x="593.5275" xlink:href="#m40d0c2a47d" y="315"/>
      </g>
     </g>
     <g id="text_11">
      <!-- 0.5 -->
      <g transform="translate(571.263125 344.775625)scale(0.28 -0.28)">
       <use xlink:href="#DejaVuSans-48"/>
       <use x="63.623047" xlink:href="#DejaVuSans-46"/>
       <use x="95.410156" xlink:href="#DejaVuSans-53"/>
      </g>
     </g>
    </g>
    <g id="xtick_6">
     <g id="line2d_13">
      <g>
       <use style="stroke:#000000;stroke-width:0.8;" x="740.800227" xlink:href="#m40d0c2a47d" y="315"/>
      </g>
     </g>
     <g id="text_12">
      <!-- 1 -->
      <g transform="translate(731.892727 344.775625)scale(0.28 -0.28)">
       <use xlink:href="#DejaVuSans-49"/>
      </g>
     </g>
    </g>
    <g id="text_13">
     <!-- Quantiles -->
     <g transform="translate(527.007812 375.874375)scale(0.28 -0.28)">
      <use xlink:href="#DejaVuSans-81"/>
      <use x="78.710938" xlink:href="#DejaVuSans-117"/>
      <use x="142.089844" xlink:href="#DejaVuSans-97"/>
      <use x="203.369141" xlink:href="#DejaVuSans-110"/>
      <use x="266.748047" xlink:href="#DejaVuSans-116"/>
      <use x="305.957031" xlink:href="#DejaVuSans-105"/>
      <use x="333.740234" xlink:href="#DejaVuSans-108"/>
      <use x="361.523438" xlink:href="#DejaVuSans-101"/>
      <use x="423.046875" xlink:href="#DejaVuSans-115"/>
     </g>
    </g>
   </g>
   <g id="matplotlib.axis_4">
    <g id="ytick_4"/>
    <g id="ytick_5"/>
    <g id="ytick_6"/>
   </g>
   <g id="line2d_14">
    <path clip-path="url(#pe91d1f1d67)" d="M 446.655607 302.633101 
L 461.684198 302.583685 
L 463.997238 302.336606 
L 464.575498 301.953635 
L 468.623319 301.607725 
L 472.09288 301.397708 
L 474.98418 301.064152 
L 475.56244 300.718242 
L 476.1407 300.508225 
L 477.29722 300.384686 
L 477.875481 299.458141 
L 478.453741 299.384018 
L 479.610261 298.791029 
L 480.188521 298.66749 
L 480.766781 298.66749 
L 481.345041 298.25981 
L 482.501561 298.160979 
L 483.079821 298.062147 
L 483.658081 297.506221 
L 484.814602 296.678507 
L 485.392862 295.591362 
L 486.549382 295.319575 
L 488.284162 294.034767 
L 488.862422 293.861812 
L 491.753723 291.971661 
L 492.331983 291.909891 
L 492.910243 291.712228 
L 493.488503 291.05747 
L 494.066763 290.612729 
L 495.223283 290.550959 
L 495.801544 289.636769 
L 497.536324 289.352628 
L 498.114584 288.487853 
L 498.692844 286.758303 
L 499.271104 286.659472 
L 499.849364 286.325916 
L 500.427624 286.288854 
L 501.005884 285.757635 
L 501.584145 285.720574 
L 502.162405 285.004046 
L 502.740665 284.794029 
L 503.318925 284.213394 
L 503.897185 284.089855 
L 504.475445 283.496867 
L 505.053705 281.804378 
L 505.631965 281.767317 
L 506.210225 278.888851 
L 506.788485 278.888851 
L 508.523266 278.011723 
L 509.101526 277.863475 
L 510.258046 277.159302 
L 511.414566 276.801038 
L 511.992826 276.356296 
L 512.571086 276.072156 
L 513.727607 275.886847 
L 515.462387 274.503207 
L 516.040647 273.144275 
L 516.618907 273.144275 
L 517.197167 272.575994 
L 517.775427 272.403039 
L 518.353687 271.99536 
L 518.931947 271.748281 
L 519.510208 270.945276 
L 520.088468 270.661136 
L 520.666728 270.018731 
L 521.244988 269.611052 
L 524.714548 268.412721 
L 525.292808 267.819732 
L 525.871069 266.769648 
L 526.449329 266.003705 
L 527.027589 265.978997 
L 527.605849 265.756626 
L 528.184109 265.225407 
L 528.762369 264.978329 
L 530.497149 262.285173 
L 531.075409 262.149279 
L 532.23193 259.95028 
L 532.81019 259.715556 
L 533.38845 259.134921 
L 533.96671 258.986674 
L 534.54497 258.578994 
L 535.12323 258.467809 
L 535.70149 258.134253 
L 536.27975 257.170646 
L 536.85801 257.022399 
L 537.436271 256.61472 
L 539.171051 255.86113 
L 540.327571 255.243434 
L 540.905831 255.008709 
L 542.062351 253.884502 
L 542.640611 253.822732 
L 543.218872 253.143266 
L 543.797132 252.031413 
L 545.531912 251.636087 
L 546.110172 250.709542 
L 546.688432 250.684834 
L 547.266692 249.980661 
L 548.423212 249.375318 
L 549.001472 249.325902 
L 549.579733 248.930577 
L 550.157993 248.893515 
L 550.736253 247.756954 
L 551.314513 247.435751 
L 551.892773 246.805701 
L 552.471033 246.719224 
L 553.049293 245.903864 
L 554.205813 245.5456 
L 554.784073 243.334247 
L 555.362334 243.000691 
L 555.940594 242.172978 
L 556.518854 241.740591 
L 557.097114 241.641759 
L 557.675374 240.999355 
L 558.253634 239.85044 
L 559.410154 238.985665 
L 559.988414 238.18266 
L 560.566674 237.725564 
L 561.144935 236.341924 
L 561.723195 235.835413 
L 562.301455 235.106531 
L 562.879715 234.810037 
L 563.457975 234.25411 
L 564.036235 233.871139 
L 564.614495 233.204027 
L 565.192755 233.204027 
L 566.349275 232.462791 
L 567.505796 232.339252 
L 568.084056 231.511539 
L 568.662316 229.090169 
L 569.240576 228.929568 
L 569.818836 228.633073 
L 570.397096 228.077147 
L 570.975356 227.212372 
L 571.553616 226.13758 
L 572.131876 225.890501 
L 573.866657 223.827395 
L 574.444917 222.33257 
L 576.179697 222.036076 
L 576.757957 220.528897 
L 577.336217 219.379981 
L 577.914477 219.268796 
L 578.492737 216.452101 
L 579.649258 216.007359 
L 580.227518 215.340247 
L 580.805778 215.327893 
L 581.384038 214.178978 
L 583.118818 213.709529 
L 584.275338 212.733568 
L 584.853599 212.214703 
L 586.010119 211.955271 
L 586.588379 211.930563 
L 587.166639 211.127558 
L 587.744899 210.831063 
L 588.323159 209.348592 
L 589.479679 209.200345 
L 590.057939 208.767958 
L 591.21446 208.496171 
L 591.79272 207.606688 
L 592.37098 207.58198 
L 594.10576 207.001346 
L 594.68402 206.148925 
L 595.26228 205.827723 
L 596.997061 205.803015 
L 597.575321 204.407021 
L 598.153581 204.283482 
L 598.731841 203.319875 
L 599.310101 202.714533 
L 599.888361 201.676803 
L 600.466621 201.664449 
L 601.044881 201.108522 
L 601.623141 200.960275 
L 602.201401 200.490826 
L 602.779662 199.860776 
L 603.357922 198.044748 
L 603.936182 197.847085 
L 604.514442 196.735232 
L 605.092702 196.204013 
L 605.670962 193.943244 
L 606.827482 193.782643 
L 607.405742 192.868452 
L 607.984002 192.275464 
L 609.140523 189.977633 
L 609.718783 189.569954 
L 610.297043 189.520538 
L 610.875303 189.347583 
L 611.453563 188.013359 
L 612.031823 187.469786 
L 612.610083 187.272123 
L 613.188343 184.677798 
L 614.344864 184.010686 
L 614.923124 182.972956 
L 615.501384 182.565277 
L 616.657904 182.07112 
L 617.814424 180.143907 
L 618.392684 179.946244 
L 618.970944 178.624374 
L 620.705725 177.018363 
L 621.283985 176.919532 
L 621.862245 176.425375 
L 623.018765 175.90651 
L 624.753545 174.596993 
L 625.331805 173.868112 
L 625.910065 173.546909 
L 626.488326 172.694488 
L 627.644846 172.546241 
L 628.223106 171.767944 
L 628.801366 171.669112 
L 629.379626 170.927877 
L 631.114406 170.643736 
L 632.270927 170.161933 
L 634.005707 169.976624 
L 634.583967 169.828377 
L 635.162227 169.457759 
L 635.740487 169.33422 
L 636.318747 168.938894 
L 636.897007 168.938894 
L 637.475267 168.531215 
L 638.631788 166.826373 
L 639.210048 166.727541 
L 639.788308 166.393985 
L 640.366568 165.800997 
L 641.523088 165.146239 
L 642.101348 165.096823 
L 642.679608 163.120194 
L 643.257868 162.304835 
L 643.836128 162.25542 
L 645.570909 161.761262 
L 646.149169 160.303499 
L 646.727429 159.253415 
L 647.305689 158.907505 
L 647.883949 158.129208 
L 648.462209 157.622697 
L 649.040469 155.473113 
L 649.618729 155.238389 
L 650.19699 154.6454 
L 650.77525 153.632378 
L 652.51003 151.30984 
L 653.08829 151.013345 
L 653.66655 148.19665 
L 654.24481 147.319521 
L 654.82307 146.800656 
L 655.40133 146.714178 
L 655.979591 146.207667 
L 656.557851 146.022358 
L 657.714371 145.08346 
L 658.870891 144.73755 
L 659.449151 144.206331 
L 660.027411 142.155579 
L 660.605671 141.822023 
L 661.183931 141.649068 
L 661.762192 140.944894 
L 662.340452 139.042389 
L 662.918712 138.894142 
L 663.496972 138.140553 
L 664.075232 136.670435 
L 664.653492 136.583958 
L 665.231752 135.756244 
L 666.388272 135.348565 
L 666.966532 134.792638 
L 668.123053 134.508498 
L 668.701313 133.804324 
L 669.279573 133.79197 
L 669.857833 133.285459 
L 670.436093 132.630701 
L 671.592613 132.321853 
L 672.170873 131.382954 
L 672.749133 131.382954 
L 673.327393 130.011668 
L 673.905654 128.986292 
L 674.483914 128.553905 
L 675.062174 127.948562 
L 676.218694 127.602652 
L 676.796954 126.836709 
L 677.375214 126.762585 
L 677.953474 126.379613 
L 678.531734 126.30549 
L 679.109994 124.328861 
L 680.266515 123.908828 
L 680.844775 123.760581 
L 681.423035 122.611665 
L 682.001295 122.512834 
L 683.157815 120.116172 
L 683.736075 118.263083 
L 684.892595 116.385286 
L 685.470855 116.113499 
L 686.049116 115.619342 
L 686.627376 114.964584 
L 687.205636 114.927522 
L 687.783896 114.692798 
L 688.362156 114.618674 
L 688.940416 114.235702 
L 689.518676 113.086787 
L 690.096936 112.740877 
L 691.253456 111.703147 
L 692.409977 111.517838 
L 693.566497 107.898137 
L 695.301277 107.515166 
L 695.879537 107.280441 
L 696.457797 105.056734 
L 697.614318 104.883779 
L 698.770838 102.771257 
L 699.349098 102.721842 
L 699.927358 102.264746 
L 700.505618 101.597634 
L 701.083878 100.596966 
L 702.240398 99.089787 
L 702.818658 98.225012 
L 703.396919 98.101473 
L 703.975179 98.101473 
L 704.553439 97.866748 
L 705.131699 97.49613 
L 705.709959 95.581271 
L 706.288219 94.333525 
L 706.866479 94.148216 
L 708.022999 93.357564 
L 708.601259 91.245043 
L 709.179519 89.72551 
L 709.75778 89.651386 
L 710.33604 88.453055 
L 710.9143 87.884774 
L 711.49256 87.674758 
L 712.07082 87.316494 
L 713.22734 85.908146 
L 714.96212 85.216326 
L 715.540381 84.425675 
L 716.118641 84.351551 
L 716.696901 84.153888 
L 717.275161 83.066743 
L 717.853421 82.906142 
L 718.431681 82.103136 
L 720.166461 80.707142 
L 721.322982 80.015322 
L 721.901242 78.409312 
L 722.479502 77.556891 
L 723.057762 77.223335 
L 724.214282 75.728509 
L 724.792542 75.66674 
L 725.949062 74.999628 
L 726.527322 74.863735 
L 727.105583 74.159561 
L 727.683843 72.763567 
L 729.418623 70.675753 
L 729.996883 69.304467 
L 731.731663 67.723164 
L 732.309923 67.463732 
L 732.888183 67.352546 
L 733.466444 66.747204 
L 734.622964 66.277755 
L 735.201224 63.831677 
L 735.779484 60.533178 
L 736.357744 60.397285 
L 736.936004 59.804297 
L 737.514264 58.692443 
L 740.399393 57.308803 
L 740.399393 57.308803 
" style="fill:none;stroke:#b8860b;stroke-linecap:square;stroke-opacity:0.75;stroke-width:2;"/>
   </g>
   <g id="line2d_15">
    <path clip-path="url(#pe91d1f1d67)" d="M 447.24901 302.633101 
L 470.181705 302.608393 
L 473.050212 302.336606 
L 474.484466 301.830095 
L 477.352973 301.681848 
L 478.787226 301.644786 
L 480.221479 301.459477 
L 484.52424 301.397708 
L 490.261253 301.064152 
L 491.695507 300.508225 
L 494.564014 300.384686 
L 495.998267 299.384018 
L 498.866774 298.66749 
L 500.301027 298.25981 
L 501.735281 298.25981 
L 503.169534 298.062147 
L 504.603788 297.110895 
L 506.038041 295.591362 
L 507.472295 294.86248 
L 508.906548 294.51657 
L 510.340801 293.861812 
L 511.775055 293.021745 
L 513.209308 292.700543 
L 514.643562 292.169324 
L 517.512068 291.712228 
L 518.946322 291.05747 
L 520.380575 290.612729 
L 521.814829 289.562645 
L 523.249082 286.325916 
L 524.683336 286.288854 
L 526.117589 284.089855 
L 527.551842 283.496867 
L 528.986096 281.804378 
L 530.420349 281.767317 
L 531.854603 278.580003 
L 534.72311 277.159302 
L 539.02587 276.072156 
L 540.460123 274.503207 
L 541.894377 273.144275 
L 544.762884 271.748281 
L 546.197137 270.661136 
L 547.63139 270.018731 
L 549.065644 268.412721 
L 550.499897 265.978997 
L 551.934151 264.978329 
L 553.368404 262.285173 
L 554.802658 262.149279 
L 556.236911 259.134921 
L 559.105418 257.022399 
L 560.539671 256.61472 
L 561.973925 256.379995 
L 563.408178 253.884502 
L 564.842432 253.143266 
L 566.276685 249.69652 
L 567.710938 249.375318 
L 569.145192 249.325902 
L 570.579445 246.805701 
L 572.013699 246.719224 
L 573.447952 238.985665 
L 576.316459 233.871139 
L 577.750712 233.204027 
L 579.184966 228.929568 
L 580.619219 228.633073 
L 582.053473 228.077147 
L 583.487726 225.890501 
L 584.921979 222.209031 
L 587.790486 222.036076 
L 589.22474 220.528897 
L 590.658993 216.452101 
L 592.093247 216.007359 
L 593.5275 214.178978 
L 594.961753 213.968961 
L 596.396007 212.029394 
L 597.83026 211.930563 
L 599.264514 210.831063 
L 600.698767 209.237407 
L 602.133021 209.200345 
L 603.567274 208.496171 
L 605.001527 207.371964 
L 606.435781 207.260778 
L 607.870034 206.148925 
L 609.304288 205.815369 
L 610.738541 204.407021 
L 612.172795 204.283482 
L 613.607048 202.714533 
L 615.041301 201.676803 
L 616.475555 201.664449 
L 617.909808 196.204013 
L 620.778315 191.237734 
L 623.646822 188.013359 
L 625.081075 187.469786 
L 626.515329 187.272123 
L 627.949582 182.972956 
L 629.383836 180.143907 
L 630.818089 179.946244 
L 632.252342 178.624374 
L 633.686596 175.165274 
L 635.120849 173.546909 
L 636.555103 172.694488 
L 637.989356 172.546241 
L 639.42361 171.669112 
L 640.857863 170.927877 
L 642.292116 170.643736 
L 643.72637 169.828377 
L 645.160623 169.457759 
L 646.594877 168.938894 
L 648.02913 167.592316 
L 649.463384 166.826373 
L 650.897637 166.393985 
L 652.33189 165.430379 
L 653.766144 165.146239 
L 655.200397 161.934217 
L 656.634651 161.761262 
L 658.068904 159.253415 
L 659.503158 158.129208 
L 660.937411 153.632378 
L 662.371664 152.903496 
L 663.805918 148.19665 
L 665.240171 146.714178 
L 666.674425 146.207667 
L 668.108678 144.73755 
L 669.542932 142.155579 
L 670.977185 141.822023 
L 672.411438 140.944894 
L 673.845692 136.670435 
L 675.279945 135.52152 
L 676.714199 134.792638 
L 678.148452 133.79197 
L 679.582705 133.285459 
L 681.016959 131.382954 
L 682.451212 130.011668 
L 683.885466 128.986292 
L 685.319719 128.553905 
L 686.753973 127.948562 
L 688.188226 126.836709 
L 689.622479 123.908828 
L 691.056733 122.611665 
L 692.490986 117.274769 
L 693.92524 116.385286 
L 695.359493 116.113499 
L 696.793747 115.619342 
L 698.228 114.964584 
L 699.662253 114.927522 
L 701.096507 113.086787 
L 702.53076 111.703147 
L 705.399267 111.517838 
L 706.833521 107.515166 
L 708.267774 101.597634 
L 709.702027 100.596966 
L 711.136281 99.9175 
L 712.570534 98.225012 
L 714.004788 98.101473 
L 715.439041 94.333525 
L 716.873295 93.740536 
L 718.307548 91.245043 
L 719.741801 89.651386 
L 721.176055 87.884774 
L 722.610308 87.674758 
L 725.478815 85.661067 
L 726.913068 80.015322 
L 728.347322 77.223335 
L 729.781575 74.159561 
L 731.215829 72.121163 
L 732.650082 71.342865 
L 734.084336 68.217321 
L 735.518589 67.463732 
L 736.952842 67.352546 
L 738.387096 66.747204 
L 739.80599 60.397285 
L 739.80599 60.397285 
" style="fill:none;stroke:#8b0000;stroke-linecap:square;stroke-opacity:0.75;stroke-width:2;"/>
   </g>
   <g id="line2d_16">
    <path clip-path="url(#pe91d1f1d67)" d="M 449.33197 302.633101 
L 453.722154 302.633101 
L 458.160419 302.633101 
L 462.598683 302.633101 
L 467.036948 302.633101 
L 471.475213 302.633101 
L 475.913478 302.633101 
L 480.351743 302.633101 
L 484.790008 302.633101 
L 489.228273 302.620747 
L 493.666538 302.608393 
L 498.104803 302.509561 
L 502.543068 301.830095 
L 506.981333 301.459477 
L 511.419598 301.187691 
L 515.857863 301.064152 
L 520.296128 298.25981 
L 524.734393 292.700543 
L 529.172658 291.971661 
L 533.610923 286.325916 
L 538.049188 286.288854 
L 542.487453 277.863475 
L 546.925718 276.801038 
L 551.363983 276.356296 
L 555.802248 276.072156 
L 560.240513 257.022399 
L 564.678778 249.375318 
L 569.117043 249.325902 
L 573.555308 246.805701 
L 577.993573 225.890501 
L 582.431838 222.085492 
L 586.870103 216.452101 
L 591.308368 216.007359 
L 595.746632 212.029394 
L 600.184897 211.930563 
L 604.623162 207.371964 
L 609.061427 207.260778 
L 613.499692 204.283482 
L 617.937957 201.676803 
L 622.376222 193.782643 
L 626.814487 191.237734 
L 631.252752 189.569954 
L 635.691017 180.143907 
L 640.129282 175.165274 
L 644.567547 171.669112 
L 649.005812 170.927877 
L 653.444077 169.457759 
L 657.882342 167.592316 
L 662.320607 165.146239 
L 666.758872 161.934217 
L 671.197137 161.761262 
L 675.635402 158.129208 
L 680.073667 153.632378 
L 684.511932 148.19665 
L 688.950197 146.714178 
L 693.388462 146.207667 
L 697.826727 133.285459 
L 702.264992 128.553905 
L 706.703257 127.948562 
L 711.141522 126.836709 
L 715.579787 116.385286 
L 720.018052 115.619342 
L 724.456317 98.101473 
L 728.894581 80.015322 
L 733.332846 67.352546 
L 737.72303 60.397285 
" style="fill:none;stroke:#000080;stroke-linecap:square;stroke-opacity:0.75;stroke-width:2;"/>
   </g>
   <g id="line2d_17">
    <path clip-path="url(#pe91d1f1d67)" d="M 446.254773 290.290909 
L 740.800227 290.290909 
" style="fill:none;stroke:#ff0000;stroke-dasharray:3.7,1.6;stroke-dashoffset:0;"/>
   </g>
   <g id="patch_6">
    <path d="M 431.5275 315 
L 431.5275 43.2 
" style="fill:none;stroke:#000000;stroke-linecap:square;stroke-linejoin:miter;"/>
   </g>
   <g id="patch_7">
    <path d="M 431.5275 315 
L 755.5275 315 
" style="fill:none;stroke:#000000;stroke-linecap:square;stroke-linejoin:miter;"/>
   </g>
   <g id="text_14">
    <!-- Trapnell -->
    <defs>
     <path d="M -0.296875 72.90625 
L 61.375 72.90625 
L 61.375 64.59375 
L 35.5 64.59375 
L 35.5 0 
L 25.59375 0 
L 25.59375 64.59375 
L -0.296875 64.59375 
z
" id="DejaVuSans-84"/>
     <path d="M 41.109375 46.296875 
Q 39.59375 47.171875 37.8125 47.578125 
Q 36.03125 48 33.890625 48 
Q 26.265625 48 22.1875 43.046875 
Q 18.109375 38.09375 18.109375 28.8125 
L 18.109375 0 
L 9.078125 0 
L 9.078125 54.6875 
L 18.109375 54.6875 
L 18.109375 46.1875 
Q 20.953125 51.171875 25.484375 53.578125 
Q 30.03125 56 36.53125 56 
Q 37.453125 56 38.578125 55.875 
Q 39.703125 55.765625 41.0625 55.515625 
z
" id="DejaVuSans-114"/>
    </defs>
    <g transform="translate(460.982045 76.83017)scale(0.28 -0.28)">
     <use xlink:href="#DejaVuSans-84"/>
     <use x="60.865234" xlink:href="#DejaVuSans-114"/>
     <use x="101.978516" xlink:href="#DejaVuSans-97"/>
     <use x="163.257812" xlink:href="#DejaVuSans-112"/>
     <use x="226.734375" xlink:href="#DejaVuSans-110"/>
     <use x="290.113281" xlink:href="#DejaVuSans-101"/>
     <use x="351.636719" xlink:href="#DejaVuSans-108"/>
     <use x="379.419922" xlink:href="#DejaVuSans-108"/>
    </g>
   </g>
  </g>
  <g id="axes_3">
   <g id="patch_8">
    <path d="M 771.7275 315 
L 1095.7275 315 
L 1095.7275 43.2 
L 771.7275 43.2 
z
" style="fill:none;"/>
   </g>
   <g id="matplotlib.axis_5">
    <g id="xtick_7">
     <g id="line2d_18">
      <g>
       <use style="stroke:#000000;stroke-width:0.8;" x="786.454773" xlink:href="#m40d0c2a47d" y="315"/>
      </g>
     </g>
     <g id="text_15">
      <!-- 0 -->
      <g transform="translate(777.547273 344.775625)scale(0.28 -0.28)">
       <use xlink:href="#DejaVuSans-48"/>
      </g>
     </g>
    </g>
    <g id="xtick_8">
     <g id="line2d_19">
      <g>
       <use style="stroke:#000000;stroke-width:0.8;" x="933.7275" xlink:href="#m40d0c2a47d" y="315"/>
      </g>
     </g>
     <g id="text_16">
      <!-- 0.5 -->
      <g transform="translate(911.463125 344.775625)scale(0.28 -0.28)">
       <use xlink:href="#DejaVuSans-48"/>
       <use x="63.623047" xlink:href="#DejaVuSans-46"/>
       <use x="95.410156" xlink:href="#DejaVuSans-53"/>
      </g>
     </g>
    </g>
    <g id="xtick_9">
     <g id="line2d_20">
      <g>
       <use style="stroke:#000000;stroke-width:0.8;" x="1081.000227" xlink:href="#m40d0c2a47d" y="315"/>
      </g>
     </g>
     <g id="text_17">
      <!-- 1 -->
      <g transform="translate(1072.092727 344.775625)scale(0.28 -0.28)">
       <use xlink:href="#DejaVuSans-49"/>
      </g>
     </g>
    </g>
    <g id="text_18">
     <!-- Quantiles -->
     <g transform="translate(867.207812 375.874375)scale(0.28 -0.28)">
      <use xlink:href="#DejaVuSans-81"/>
      <use x="78.710938" xlink:href="#DejaVuSans-117"/>
      <use x="142.089844" xlink:href="#DejaVuSans-97"/>
      <use x="203.369141" xlink:href="#DejaVuSans-110"/>
      <use x="266.748047" xlink:href="#DejaVuSans-116"/>
      <use x="305.957031" xlink:href="#DejaVuSans-105"/>
      <use x="333.740234" xlink:href="#DejaVuSans-108"/>
      <use x="361.523438" xlink:href="#DejaVuSans-101"/>
      <use x="423.046875" xlink:href="#DejaVuSans-115"/>
     </g>
    </g>
   </g>
   <g id="matplotlib.axis_6">
    <g id="ytick_7"/>
    <g id="ytick_8"/>
    <g id="ytick_9"/>
   </g>
   <g id="line2d_21">
    <path clip-path="url(#p9d7cd29ff6)" d="M 787.090109 302.633101 
L 858.570817 302.534269 
L 865.903177 302.336606 
L 866.819722 302.151297 
L 883.31753 301.632432 
L 885.15062 301.484185 
L 888.816799 301.447124 
L 889.733344 301.101214 
L 890.649889 300.990028 
L 892.482979 300.458809 
L 894.316069 300.409394 
L 896.149159 300.038776 
L 897.065704 299.70522 
L 897.982249 299.70522 
L 898.898793 299.495203 
L 900.731883 299.421079 
L 903.481518 299.087523 
L 905.314608 298.630428 
L 906.231153 298.173333 
L 908.064243 297.864485 
L 908.980787 297.209726 
L 909.897332 296.93794 
L 911.730422 296.826755 
L 916.313147 295.443115 
L 917.229692 295.331929 
L 918.146237 294.010059 
L 919.979326 293.1947 
L 921.812416 293.046453 
L 923.645506 292.601711 
L 924.562051 291.736936 
L 926.395141 291.205717 
L 927.311686 290.069156 
L 929.144775 289.612061 
L 930.06132 288.98201 
L 931.89441 288.710224 
L 932.810955 288.463145 
L 933.7275 287.709556 
L 934.644045 286.362978 
L 936.477135 285.485849 
L 938.310225 284.596366 
L 939.226769 282.459137 
L 940.143314 282.397367 
L 941.976404 281.915564 
L 942.892949 278.925913 
L 943.809494 278.617065 
L 946.559129 275.689184 
L 947.475674 275.343274 
L 948.392219 275.33092 
L 949.308763 273.700202 
L 950.225308 270.031085 
L 951.141853 269.994023 
L 952.058398 269.697529 
L 952.974943 268.845108 
L 953.891488 268.363305 
L 954.808033 267.300867 
L 955.724578 267.15262 
L 957.557668 265.509548 
L 958.474213 265.373654 
L 959.390757 264.187677 
L 961.223847 263.730582 
L 962.140392 263.718228 
L 963.056937 263.594689 
L 963.973482 263.187009 
L 964.890027 257.850112 
L 965.806572 256.132917 
L 966.723117 255.972315 
L 967.639662 255.490512 
L 968.556207 253.84744 
L 969.472751 252.896187 
L 970.389296 251.006037 
L 971.305841 250.116554 
L 972.222386 246.719224 
L 973.138931 246.472145 
L 974.055476 246.027404 
L 974.972021 245.817387 
L 975.888566 242.518888 
L 976.805111 241.901192 
L 977.721656 241.876484 
L 978.638201 241.481158 
L 979.554745 236.897851 
L 981.387835 236.823727 
L 983.220925 235.662458 
L 984.13747 235.341256 
L 985.054015 235.155947 
L 985.97056 234.451773 
L 986.887105 232.450437 
L 987.80365 231.449769 
L 988.720195 228.682489 
L 989.636739 228.571304 
L 990.553284 223.926227 
L 991.469829 221.566627 
L 993.302919 221.41838 
L 994.219464 218.453437 
L 995.136009 216.390331 
L 996.052554 214.722551 
L 996.969099 213.845422 
L 997.885644 212.696507 
L 998.802189 211.152266 
L 999.718733 211.139912 
L 1000.635278 210.225721 
L 1001.551823 210.00335 
L 1002.468368 209.076806 
L 1003.384913 208.990328 
L 1004.301458 200.873798 
L 1005.218003 200.762612 
L 1006.134548 199.230725 
L 1007.051093 198.662445 
L 1007.967638 197.402344 
L 1008.884183 197.266451 
L 1009.800727 194.412693 
L 1010.717272 191.064779 
L 1011.633817 190.298836 
L 1012.550362 185.443742 
L 1013.466907 184.455428 
L 1014.383452 184.010686 
L 1015.299997 183.244743 
L 1016.216542 182.70117 
L 1017.133087 182.540569 
L 1018.049632 182.503507 
L 1018.966176 180.230384 
L 1020.799266 179.538564 
L 1021.715811 177.63606 
L 1022.632356 176.845408 
L 1023.548901 173.682803 
L 1024.465446 173.102168 
L 1025.381991 172.03973 
L 1026.298536 168.605338 
L 1027.215081 166.56694 
L 1028.131626 165.24507 
L 1029.04817 165.170946 
L 1029.964715 164.812683 
L 1030.88126 162.354251 
L 1031.797805 160.772948 
L 1032.71435 152.359923 
L 1033.630895 152.088137 
L 1034.54744 151.964598 
L 1035.463985 149.012009 
L 1037.297075 148.357251 
L 1038.21362 144.428702 
L 1039.130164 141.68613 
L 1040.046709 135.694475 
L 1040.963254 134.718515 
L 1043.712889 123.711165 
L 1044.629434 123.031699 
L 1045.545979 117.78128 
L 1047.379069 114.729859 
L 1048.295614 106.539205 
L 1050.128703 105.909155 
L 1051.045248 102.845381 
L 1051.961793 97.84204 
L 1052.878338 97.767917 
L 1053.794883 96.52017 
L 1054.711428 96.186614 
L 1055.627973 96.100136 
L 1056.544518 95.815996 
L 1058.377608 95.605979 
L 1059.294152 93.493458 
L 1060.210697 91.998632 
L 1061.127242 91.356228 
L 1062.043787 90.442037 
L 1062.960332 89.194291 
L 1063.876877 88.761903 
L 1064.793422 88.465409 
L 1065.709967 84.524506 
L 1066.626512 79.496457 
L 1067.543057 76.778593 
L 1068.459602 75.913818 
L 1069.376146 72.306471 
L 1070.292691 71.997623 
L 1071.209236 71.157556 
L 1072.125781 69.749208 
L 1073.042326 69.712147 
L 1073.958871 68.106136 
L 1074.875416 67.83435 
L 1075.791961 65.956553 
L 1076.708506 65.684766 
L 1077.625051 59.174246 
L 1078.541596 57.209972 
L 1079.45814 57.11114 
L 1080.364891 56.592275 
L 1080.364891 56.592275 
" style="fill:none;stroke:#b8860b;stroke-linecap:square;stroke-opacity:0.75;stroke-width:2;"/>
   </g>
   <g id="line2d_22">
    <path clip-path="url(#p9d7cd29ff6)" d="M 787.125598 302.633101 
L 862.598786 302.534269 
L 868.405212 302.447792 
L 872.276162 302.114236 
L 875.179375 302.040112 
L 878.082588 301.953635 
L 886.792226 301.632432 
L 888.727702 301.484185 
L 892.598652 301.447124 
L 893.56639 301.101214 
L 894.534127 300.990028 
L 896.469602 300.458809 
L 898.405078 300.409394 
L 900.340553 300.038776 
L 901.30829 299.70522 
L 902.276028 299.70522 
L 903.243766 299.495203 
L 905.179241 299.421079 
L 908.082454 299.087523 
L 910.017929 298.630428 
L 910.985666 298.173333 
L 912.921142 297.864485 
L 913.888879 297.209726 
L 914.856617 296.93794 
L 916.792092 296.826755 
L 917.75983 296.159642 
L 918.727567 295.949626 
L 919.695305 295.566654 
L 921.63078 295.331929 
L 922.598518 294.010059 
L 923.566255 293.1947 
L 924.533993 293.108222 
L 926.469468 292.601711 
L 927.437206 291.736936 
L 928.404943 291.205717 
L 929.372681 290.069156 
L 931.308156 289.612061 
L 932.275894 288.98201 
L 934.211369 288.710224 
L 935.179106 288.463145 
L 936.146844 287.709556 
L 937.114582 286.362978 
L 939.050057 285.485849 
L 940.985532 284.596366 
L 941.95327 282.459137 
L 942.921007 282.397367 
L 944.856482 281.915564 
L 945.82422 278.925913 
L 946.791958 278.617065 
L 947.759695 277.616397 
L 948.727433 275.689184 
L 949.69517 275.343274 
L 950.662908 275.33092 
L 951.630646 273.700202 
L 952.598383 270.031085 
L 953.566121 269.994023 
L 954.533858 269.697529 
L 955.501596 268.845108 
L 956.469334 268.363305 
L 957.437071 267.300867 
L 958.404809 267.15262 
L 960.340284 265.509548 
L 961.308022 265.373654 
L 962.275759 263.965307 
L 963.243497 263.730582 
L 964.211234 263.718228 
L 965.178972 263.594689 
L 966.14671 257.850112 
L 967.114447 256.132917 
L 968.082185 255.972315 
L 969.049922 255.490512 
L 970.01766 253.84744 
L 970.985398 252.896187 
L 971.953135 251.006037 
L 972.920873 250.116554 
L 973.88861 246.719224 
L 974.856348 246.472145 
L 975.824086 246.027404 
L 976.791823 245.817387 
L 977.759561 242.518888 
L 978.727298 241.901192 
L 979.695036 241.876484 
L 980.662774 241.481158 
L 981.630511 236.897851 
L 983.565986 236.823727 
L 985.501462 235.662458 
L 986.469199 235.341256 
L 987.436937 235.155947 
L 988.404674 234.451773 
L 989.372412 232.450437 
L 990.34015 231.449769 
L 991.307887 228.682489 
L 992.275625 223.926227 
L 993.243362 221.566627 
L 995.178838 221.41838 
L 996.146575 218.453437 
L 997.114313 216.390331 
L 998.08205 214.722551 
L 999.049788 213.845422 
L 1000.017526 212.696507 
L 1000.985263 211.152266 
L 1001.953001 211.139912 
L 1002.920738 210.225721 
L 1003.888476 210.00335 
L 1004.856214 209.076806 
L 1005.823951 208.990328 
L 1006.791689 200.873798 
L 1007.759426 200.762612 
L 1008.727164 199.230725 
L 1009.694902 198.662445 
L 1010.662639 197.402344 
L 1011.630377 197.266451 
L 1012.598114 194.412693 
L 1013.565852 191.064779 
L 1014.53359 190.298836 
L 1015.501327 185.443742 
L 1016.469065 184.455428 
L 1017.436802 184.010686 
L 1018.40454 182.70117 
L 1019.372278 182.540569 
L 1020.340015 182.503507 
L 1021.307753 180.230384 
L 1023.243228 179.538564 
L 1024.210966 176.845408 
L 1025.178703 173.682803 
L 1026.146441 173.102168 
L 1027.114178 172.03973 
L 1028.081916 166.56694 
L 1029.049654 165.170946 
L 1030.017391 164.812683 
L 1030.985129 162.354251 
L 1031.952866 160.772948 
L 1032.920604 152.359923 
L 1033.888342 152.088137 
L 1034.856079 149.012009 
L 1036.791554 148.357251 
L 1037.759292 144.428702 
L 1038.72703 141.68613 
L 1039.694767 135.694475 
L 1040.662505 134.718515 
L 1043.565718 123.711165 
L 1044.533455 123.031699 
L 1045.501193 117.78128 
L 1046.46893 114.729859 
L 1047.436668 106.539205 
L 1049.372143 105.909155 
L 1050.339881 102.845381 
L 1051.307618 97.84204 
L 1052.275356 97.767917 
L 1053.243094 96.52017 
L 1054.210831 96.186614 
L 1055.178569 96.100136 
L 1056.146306 95.815996 
L 1058.081782 95.605979 
L 1060.017257 91.356228 
L 1060.984994 90.442037 
L 1061.952732 89.194291 
L 1062.92047 88.761903 
L 1063.888207 88.465409 
L 1064.855945 84.524506 
L 1065.823682 79.496457 
L 1066.79142 76.778593 
L 1067.759158 75.913818 
L 1068.726895 72.306471 
L 1069.694633 71.997623 
L 1070.66237 71.157556 
L 1071.630108 69.749208 
L 1072.597846 69.712147 
L 1073.565583 68.106136 
L 1074.533321 67.83435 
L 1075.501058 65.956553 
L 1076.468796 65.684766 
L 1077.436534 59.174246 
L 1078.404271 57.209972 
L 1079.372009 57.11114 
L 1080.329402 56.592275 
L 1080.329402 56.592275 
" style="fill:none;stroke:#8b0000;stroke-linecap:square;stroke-opacity:0.75;stroke-width:2;"/>
   </g>
   <g id="line2d_23">
    <path clip-path="url(#p9d7cd29ff6)" d="M 788.739833 302.633101 
L 792.000263 302.633101 
L 795.296245 302.633101 
L 798.592227 302.633101 
L 801.88821 302.633101 
L 805.184192 302.633101 
L 808.480174 302.633101 
L 811.776156 302.633101 
L 815.072139 302.633101 
L 818.368121 302.633101 
L 821.664103 302.633101 
L 824.960085 302.633101 
L 828.256068 302.633101 
L 831.55205 302.633101 
L 834.848032 302.633101 
L 838.144014 302.633101 
L 841.439997 302.633101 
L 844.735979 302.633101 
L 848.031961 302.633101 
L 851.327944 302.633101 
L 854.623926 302.633101 
L 857.919908 302.633101 
L 861.21589 302.633101 
L 864.511873 302.620747 
L 867.807855 302.620747 
L 871.103837 302.620747 
L 874.399819 302.608393 
L 877.695802 302.608393 
L 880.991784 302.608393 
L 884.287766 302.596039 
L 887.583748 302.558977 
L 890.879731 302.546623 
L 894.175713 302.534269 
L 897.471695 302.497207 
L 900.767677 302.484853 
L 904.06366 302.12659 
L 907.359642 302.114236 
L 910.655624 302.040112 
L 913.951606 301.978342 
L 917.247589 301.928927 
L 920.543571 301.484185 
L 923.839553 301.459477 
L 927.135535 301.447124 
L 930.431518 300.446455 
L 933.7275 300.409394 
L 937.023482 299.495203 
L 940.319465 297.864485 
L 943.615447 296.826755 
L 946.911429 295.949626 
L 950.207411 295.566654 
L 953.503394 295.331929 
L 956.799376 293.108222 
L 960.095358 291.736936 
L 963.39134 288.98201 
L 966.687323 288.870825 
L 969.983305 288.463145 
L 973.279287 282.459137 
L 976.575269 282.125581 
L 979.871252 275.689184 
L 983.167234 270.031085 
L 986.463216 267.15262 
L 989.759198 266.312553 
L 993.055181 263.594689 
L 996.351163 257.850112 
L 999.647145 251.006037 
L 1002.943127 250.116554 
L 1006.23911 246.027404 
L 1009.535092 245.817387 
L 1012.831074 236.243093 
L 1016.127056 235.341256 
L 1019.423039 232.450437 
L 1022.719021 221.41838 
L 1026.015003 216.390331 
L 1029.310986 210.00335 
L 1032.606968 194.412693 
L 1035.90295 190.298836 
L 1039.198932 185.443742 
L 1042.494915 184.455428 
L 1045.790897 182.503507 
L 1049.086879 179.538564 
L 1052.382861 160.772948 
L 1055.678844 135.694475 
L 1058.974826 134.718515 
L 1062.270808 123.711165 
L 1065.56679 123.031699 
L 1068.862773 97.767917 
L 1072.158755 96.52017 
L 1075.454737 89.194291 
L 1078.715167 65.684766 
" style="fill:none;stroke:#000080;stroke-linecap:square;stroke-opacity:0.75;stroke-width:2;"/>
   </g>
   <g id="line2d_24">
    <path clip-path="url(#p9d7cd29ff6)" d="M 786.454773 290.290909 
L 1081.000227 290.290909 
" style="fill:none;stroke:#ff0000;stroke-dasharray:3.7,1.6;stroke-dashoffset:0;"/>
   </g>
   <g id="patch_9">
    <path d="M 771.7275 315 
L 771.7275 43.2 
" style="fill:none;stroke:#000000;stroke-linecap:square;stroke-linejoin:miter;"/>
   </g>
   <g id="patch_10">
    <path d="M 771.7275 315 
L 1095.7275 315 
" style="fill:none;stroke:#000000;stroke-linecap:square;stroke-linejoin:miter;"/>
   </g>
   <g id="text_19">
    <!-- Song -->
    <defs>
     <path d="M 53.515625 70.515625 
L 53.515625 60.890625 
Q 47.90625 63.578125 42.921875 64.890625 
Q 37.9375 66.21875 33.296875 66.21875 
Q 25.25 66.21875 20.875 63.09375 
Q 16.5 59.96875 16.5 54.203125 
Q 16.5 49.359375 19.40625 46.890625 
Q 22.3125 44.4375 30.421875 42.921875 
L 36.375 41.703125 
Q 47.40625 39.59375 52.65625 34.296875 
Q 57.90625 29 57.90625 20.125 
Q 57.90625 9.515625 50.796875 4.046875 
Q 43.703125 -1.421875 29.984375 -1.421875 
Q 24.8125 -1.421875 18.96875 -0.25 
Q 13.140625 0.921875 6.890625 3.21875 
L 6.890625 13.375 
Q 12.890625 10.015625 18.65625 8.296875 
Q 24.421875 6.59375 29.984375 6.59375 
Q 38.421875 6.59375 43.015625 9.90625 
Q 47.609375 13.234375 47.609375 19.390625 
Q 47.609375 24.75 44.3125 27.78125 
Q 41.015625 30.8125 33.5 32.328125 
L 27.484375 33.5 
Q 16.453125 35.6875 11.515625 40.375 
Q 6.59375 45.0625 6.59375 53.421875 
Q 6.59375 63.09375 13.40625 68.65625 
Q 20.21875 74.21875 32.171875 74.21875 
Q 37.3125 74.21875 42.625 73.28125 
Q 47.953125 72.359375 53.515625 70.515625 
z
" id="DejaVuSans-83"/>
     <path d="M 30.609375 48.390625 
Q 23.390625 48.390625 19.1875 42.75 
Q 14.984375 37.109375 14.984375 27.296875 
Q 14.984375 17.484375 19.15625 11.84375 
Q 23.34375 6.203125 30.609375 6.203125 
Q 37.796875 6.203125 41.984375 11.859375 
Q 46.1875 17.53125 46.1875 27.296875 
Q 46.1875 37.015625 41.984375 42.703125 
Q 37.796875 48.390625 30.609375 48.390625 
z
M 30.609375 56 
Q 42.328125 56 49.015625 48.375 
Q 55.71875 40.765625 55.71875 27.296875 
Q 55.71875 13.875 49.015625 6.21875 
Q 42.328125 -1.421875 30.609375 -1.421875 
Q 18.84375 -1.421875 12.171875 6.21875 
Q 5.515625 13.875 5.515625 27.296875 
Q 5.515625 40.765625 12.171875 48.375 
Q 18.84375 56 30.609375 56 
z
" id="DejaVuSans-111"/>
     <path d="M 45.40625 27.984375 
Q 45.40625 37.75 41.375 43.109375 
Q 37.359375 48.484375 30.078125 48.484375 
Q 22.859375 48.484375 18.828125 43.109375 
Q 14.796875 37.75 14.796875 27.984375 
Q 14.796875 18.265625 18.828125 12.890625 
Q 22.859375 7.515625 30.078125 7.515625 
Q 37.359375 7.515625 41.375 12.890625 
Q 45.40625 18.265625 45.40625 27.984375 
z
M 54.390625 6.78125 
Q 54.390625 -7.171875 48.1875 -13.984375 
Q 42 -20.796875 29.203125 -20.796875 
Q 24.46875 -20.796875 20.265625 -20.09375 
Q 16.0625 -19.390625 12.109375 -17.921875 
L 12.109375 -9.1875 
Q 16.0625 -11.328125 19.921875 -12.34375 
Q 23.78125 -13.375 27.78125 -13.375 
Q 36.625 -13.375 41.015625 -8.765625 
Q 45.40625 -4.15625 45.40625 5.171875 
L 45.40625 9.625 
Q 42.625 4.78125 38.28125 2.390625 
Q 33.9375 0 27.875 0 
Q 17.828125 0 11.671875 7.65625 
Q 5.515625 15.328125 5.515625 27.984375 
Q 5.515625 40.671875 11.671875 48.328125 
Q 17.828125 56 27.875 56 
Q 33.9375 56 38.28125 53.609375 
Q 42.625 51.21875 45.40625 46.390625 
L 45.40625 54.6875 
L 54.390625 54.6875 
z
" id="DejaVuSans-103"/>
    </defs>
    <g transform="translate(801.182045 76.83017)scale(0.28 -0.28)">
     <use xlink:href="#DejaVuSans-83"/>
     <use x="63.476562" xlink:href="#DejaVuSans-111"/>
     <use x="124.658203" xlink:href="#DejaVuSans-110"/>
     <use x="188.037109" xlink:href="#DejaVuSans-103"/>
    </g>
   </g>
  </g>
  <g id="text_20">
   <!-- p-values of Autocorrelation test -->
   <defs>
    <path id="DejaVuSans-32"/>
    <path d="M 37.109375 75.984375 
L 37.109375 68.5 
L 28.515625 68.5 
Q 23.6875 68.5 21.796875 66.546875 
Q 19.921875 64.59375 19.921875 59.515625 
L 19.921875 54.6875 
L 34.71875 54.6875 
L 34.71875 47.703125 
L 19.921875 47.703125 
L 19.921875 0 
L 10.890625 0 
L 10.890625 47.703125 
L 2.296875 47.703125 
L 2.296875 54.6875 
L 10.890625 54.6875 
L 10.890625 58.5 
Q 10.890625 67.625 15.140625 71.796875 
Q 19.390625 75.984375 28.609375 75.984375 
z
" id="DejaVuSans-102"/>
    <path d="M 34.1875 63.1875 
L 20.796875 26.90625 
L 47.609375 26.90625 
z
M 28.609375 72.90625 
L 39.796875 72.90625 
L 67.578125 0 
L 57.328125 0 
L 50.6875 18.703125 
L 17.828125 18.703125 
L 11.1875 0 
L 0.78125 0 
z
" id="DejaVuSans-65"/>
    <path d="M 48.78125 52.59375 
L 48.78125 44.1875 
Q 44.96875 46.296875 41.140625 47.34375 
Q 37.3125 48.390625 33.40625 48.390625 
Q 24.65625 48.390625 19.8125 42.84375 
Q 14.984375 37.3125 14.984375 27.296875 
Q 14.984375 17.28125 19.8125 11.734375 
Q 24.65625 6.203125 33.40625 6.203125 
Q 37.3125 6.203125 41.140625 7.25 
Q 44.96875 8.296875 48.78125 10.40625 
L 48.78125 2.09375 
Q 45.015625 0.34375 40.984375 -0.53125 
Q 36.96875 -1.421875 32.421875 -1.421875 
Q 20.0625 -1.421875 12.78125 6.34375 
Q 5.515625 14.109375 5.515625 27.296875 
Q 5.515625 40.671875 12.859375 48.328125 
Q 20.21875 56 33.015625 56 
Q 37.15625 56 41.109375 55.140625 
Q 45.0625 54.296875 48.78125 52.59375 
z
" id="DejaVuSans-99"/>
   </defs>
   <g transform="translate(355.959062 28.475625)scale(0.28 -0.28)">
    <use xlink:href="#DejaVuSans-112"/>
    <use x="63.476562" xlink:href="#DejaVuSans-45"/>
    <use x="99.529297" xlink:href="#DejaVuSans-118"/>
    <use x="158.708984" xlink:href="#DejaVuSans-97"/>
    <use x="219.988281" xlink:href="#DejaVuSans-108"/>
    <use x="247.771484" xlink:href="#DejaVuSans-117"/>
    <use x="311.150391" xlink:href="#DejaVuSans-101"/>
    <use x="372.673828" xlink:href="#DejaVuSans-115"/>
    <use x="424.773438" xlink:href="#DejaVuSans-32"/>
    <use x="456.560547" xlink:href="#DejaVuSans-111"/>
    <use x="517.742188" xlink:href="#DejaVuSans-102"/>
    <use x="552.947266" xlink:href="#DejaVuSans-32"/>
    <use x="584.734375" xlink:href="#DejaVuSans-65"/>
    <use x="653.142578" xlink:href="#DejaVuSans-117"/>
    <use x="716.521484" xlink:href="#DejaVuSans-116"/>
    <use x="755.730469" xlink:href="#DejaVuSans-111"/>
    <use x="816.912109" xlink:href="#DejaVuSans-99"/>
    <use x="871.892578" xlink:href="#DejaVuSans-111"/>
    <use x="933.074219" xlink:href="#DejaVuSans-114"/>
    <use x="974.171875" xlink:href="#DejaVuSans-114"/>
    <use x="1015.253906" xlink:href="#DejaVuSans-101"/>
    <use x="1076.777344" xlink:href="#DejaVuSans-108"/>
    <use x="1104.560547" xlink:href="#DejaVuSans-97"/>
    <use x="1165.839844" xlink:href="#DejaVuSans-116"/>
    <use x="1205.048828" xlink:href="#DejaVuSans-105"/>
    <use x="1232.832031" xlink:href="#DejaVuSans-111"/>
    <use x="1294.013672" xlink:href="#DejaVuSans-110"/>
    <use x="1357.392578" xlink:href="#DejaVuSans-32"/>
    <use x="1389.179688" xlink:href="#DejaVuSans-116"/>
    <use x="1428.388672" xlink:href="#DejaVuSans-101"/>
    <use x="1489.912109" xlink:href="#DejaVuSans-115"/>
    <use x="1542.011719" xlink:href="#DejaVuSans-116"/>
   </g>
  </g>
 </g>
 <defs>
  <clipPath id="p0be07ba133">
   <rect height="271.8" width="324" x="91.3275" y="43.2"/>
  </clipPath>
  <clipPath id="pe91d1f1d67">
   <rect height="271.8" width="324" x="431.5275" y="43.2"/>
  </clipPath>
  <clipPath id="p9d7cd29ff6">
   <rect height="271.8" width="324" x="771.7275" y="43.2"/>
  </clipPath>
 </defs>
</svg>
