<?xml version="1.0" encoding="utf-8" standalone="no"?>
<!DOCTYPE svg PUBLIC "-//W3C//DTD SVG 1.1//EN"
  "http://www.w3.org/Graphics/SVG/1.1/DTD/svg11.dtd">
<!-- Created with matplotlib (https://matplotlib.org/) -->
<svg height="327.3375pt" version="1.1" viewBox="0 0 1102.9275 327.3375" width="1102.9275pt" xmlns="http://www.w3.org/2000/svg" xmlns:xlink="http://www.w3.org/1999/xlink">
 <defs>
  <style type="text/css">
*{stroke-linecap:butt;stroke-linejoin:round;}
  </style>
 </defs>
 <g id="figure_1">
  <g id="patch_1">
   <path d="M 0 327.3375 
L 1102.9275 327.3375 
L 1102.9275 0 
L 0 0 
z
" style="fill:none;"/>
  </g>
  <g id="axes_1">
   <g id="patch_2">
    <path d="M 91.3275 253.44 
L 415.3275 253.44 
L 415.3275 36 
L 91.3275 36 
z
" style="fill:none;"/>
   </g>
   <g id="matplotlib.axis_1">
    <g id="xtick_1">
     <g id="line2d_1">
      <defs>
       <path d="M 0 0 
L 0 5 
" id="m284efb0394" style="stroke:#000000;stroke-width:0.8;"/>
      </defs>
      <g>
       <use style="stroke:#000000;stroke-width:0.8;" x="106.054773" xlink:href="#m284efb0394" y="253.44"/>
      </g>
     </g>
     <g id="text_1">
      <!-- 0 -->
      <defs>
       <path d="M 31.78125 66.40625 
Q 24.171875 66.40625 20.328125 58.90625 
Q 16.5 51.421875 16.5 36.375 
Q 16.5 21.390625 20.328125 13.890625 
Q 24.171875 6.390625 31.78125 6.390625 
Q 39.453125 6.390625 43.28125 13.890625 
Q 47.125 21.390625 47.125 36.375 
Q 47.125 51.421875 43.28125 58.90625 
Q 39.453125 66.40625 31.78125 66.40625 
z
M 31.78125 74.21875 
Q 44.046875 74.21875 50.515625 64.515625 
Q 56.984375 54.828125 56.984375 36.375 
Q 56.984375 17.96875 50.515625 8.265625 
Q 44.046875 -1.421875 31.78125 -1.421875 
Q 19.53125 -1.421875 13.0625 8.265625 
Q 6.59375 17.96875 6.59375 36.375 
Q 6.59375 54.828125 13.0625 64.515625 
Q 19.53125 74.21875 31.78125 74.21875 
z
" id="DejaVuSans-48"/>
      </defs>
      <g transform="translate(97.147273 283.215625)scale(0.28 -0.28)">
       <use xlink:href="#DejaVuSans-48"/>
      </g>
     </g>
    </g>
    <g id="xtick_2">
     <g id="line2d_2">
      <g>
       <use style="stroke:#000000;stroke-width:0.8;" x="253.3275" xlink:href="#m284efb0394" y="253.44"/>
      </g>
     </g>
     <g id="text_2">
      <!-- 0.5 -->
      <defs>
       <path d="M 10.6875 12.40625 
L 21 12.40625 
L 21 0 
L 10.6875 0 
z
" id="DejaVuSans-46"/>
       <path d="M 10.796875 72.90625 
L 49.515625 72.90625 
L 49.515625 64.59375 
L 19.828125 64.59375 
L 19.828125 46.734375 
Q 21.96875 47.46875 24.109375 47.828125 
Q 26.265625 48.1875 28.421875 48.1875 
Q 40.625 48.1875 47.75 41.5 
Q 54.890625 34.8125 54.890625 23.390625 
Q 54.890625 11.625 47.5625 5.09375 
Q 40.234375 -1.421875 26.90625 -1.421875 
Q 22.3125 -1.421875 17.546875 -0.640625 
Q 12.796875 0.140625 7.71875 1.703125 
L 7.71875 11.625 
Q 12.109375 9.234375 16.796875 8.0625 
Q 21.484375 6.890625 26.703125 6.890625 
Q 35.15625 6.890625 40.078125 11.328125 
Q 45.015625 15.765625 45.015625 23.390625 
Q 45.015625 31 40.078125 35.4375 
Q 35.15625 39.890625 26.703125 39.890625 
Q 22.75 39.890625 18.8125 39.015625 
Q 14.890625 38.140625 10.796875 36.28125 
z
" id="DejaVuSans-53"/>
      </defs>
      <g transform="translate(231.063125 283.215625)scale(0.28 -0.28)">
       <use xlink:href="#DejaVuSans-48"/>
       <use x="63.623047" xlink:href="#DejaVuSans-46"/>
       <use x="95.410156" xlink:href="#DejaVuSans-53"/>
      </g>
     </g>
    </g>
    <g id="xtick_3">
     <g id="line2d_3">
      <g>
       <use style="stroke:#000000;stroke-width:0.8;" x="400.600227" xlink:href="#m284efb0394" y="253.44"/>
      </g>
     </g>
     <g id="text_3">
      <!-- 1 -->
      <defs>
       <path d="M 12.40625 8.296875 
L 28.515625 8.296875 
L 28.515625 63.921875 
L 10.984375 60.40625 
L 10.984375 69.390625 
L 28.421875 72.90625 
L 38.28125 72.90625 
L 38.28125 8.296875 
L 54.390625 8.296875 
L 54.390625 0 
L 12.40625 0 
z
" id="DejaVuSans-49"/>
      </defs>
      <g transform="translate(391.692727 283.215625)scale(0.28 -0.28)">
       <use xlink:href="#DejaVuSans-49"/>
      </g>
     </g>
    </g>
    <g id="text_4">
     <!-- Quantiles -->
     <defs>
      <path d="M 39.40625 66.21875 
Q 28.65625 66.21875 22.328125 58.203125 
Q 16.015625 50.203125 16.015625 36.375 
Q 16.015625 22.609375 22.328125 14.59375 
Q 28.65625 6.59375 39.40625 6.59375 
Q 50.140625 6.59375 56.421875 14.59375 
Q 62.703125 22.609375 62.703125 36.375 
Q 62.703125 50.203125 56.421875 58.203125 
Q 50.140625 66.21875 39.40625 66.21875 
z
M 53.21875 1.3125 
L 66.21875 -12.890625 
L 54.296875 -12.890625 
L 43.5 -1.21875 
Q 41.890625 -1.3125 41.03125 -1.359375 
Q 40.1875 -1.421875 39.40625 -1.421875 
Q 24.03125 -1.421875 14.8125 8.859375 
Q 5.609375 19.140625 5.609375 36.375 
Q 5.609375 53.65625 14.8125 63.9375 
Q 24.03125 74.21875 39.40625 74.21875 
Q 54.734375 74.21875 63.90625 63.9375 
Q 73.09375 53.65625 73.09375 36.375 
Q 73.09375 23.6875 67.984375 14.640625 
Q 62.890625 5.609375 53.21875 1.3125 
z
" id="DejaVuSans-81"/>
      <path d="M 8.5 21.578125 
L 8.5 54.6875 
L 17.484375 54.6875 
L 17.484375 21.921875 
Q 17.484375 14.15625 20.5 10.265625 
Q 23.53125 6.390625 29.59375 6.390625 
Q 36.859375 6.390625 41.078125 11.03125 
Q 45.3125 15.671875 45.3125 23.6875 
L 45.3125 54.6875 
L 54.296875 54.6875 
L 54.296875 0 
L 45.3125 0 
L 45.3125 8.40625 
Q 42.046875 3.421875 37.71875 1 
Q 33.40625 -1.421875 27.6875 -1.421875 
Q 18.265625 -1.421875 13.375 4.4375 
Q 8.5 10.296875 8.5 21.578125 
z
M 31.109375 56 
z
" id="DejaVuSans-117"/>
      <path d="M 34.28125 27.484375 
Q 23.390625 27.484375 19.1875 25 
Q 14.984375 22.515625 14.984375 16.5 
Q 14.984375 11.71875 18.140625 8.90625 
Q 21.296875 6.109375 26.703125 6.109375 
Q 34.1875 6.109375 38.703125 11.40625 
Q 43.21875 16.703125 43.21875 25.484375 
L 43.21875 27.484375 
z
M 52.203125 31.203125 
L 52.203125 0 
L 43.21875 0 
L 43.21875 8.296875 
Q 40.140625 3.328125 35.546875 0.953125 
Q 30.953125 -1.421875 24.3125 -1.421875 
Q 15.921875 -1.421875 10.953125 3.296875 
Q 6 8.015625 6 15.921875 
Q 6 25.140625 12.171875 29.828125 
Q 18.359375 34.515625 30.609375 34.515625 
L 43.21875 34.515625 
L 43.21875 35.40625 
Q 43.21875 41.609375 39.140625 45 
Q 35.0625 48.390625 27.6875 48.390625 
Q 23 48.390625 18.546875 47.265625 
Q 14.109375 46.140625 10.015625 43.890625 
L 10.015625 52.203125 
Q 14.9375 54.109375 19.578125 55.046875 
Q 24.21875 56 28.609375 56 
Q 40.484375 56 46.34375 49.84375 
Q 52.203125 43.703125 52.203125 31.203125 
z
" id="DejaVuSans-97"/>
      <path d="M 54.890625 33.015625 
L 54.890625 0 
L 45.90625 0 
L 45.90625 32.71875 
Q 45.90625 40.484375 42.875 44.328125 
Q 39.84375 48.1875 33.796875 48.1875 
Q 26.515625 48.1875 22.3125 43.546875 
Q 18.109375 38.921875 18.109375 30.90625 
L 18.109375 0 
L 9.078125 0 
L 9.078125 54.6875 
L 18.109375 54.6875 
L 18.109375 46.1875 
Q 21.34375 51.125 25.703125 53.5625 
Q 30.078125 56 35.796875 56 
Q 45.21875 56 50.046875 50.171875 
Q 54.890625 44.34375 54.890625 33.015625 
z
" id="DejaVuSans-110"/>
      <path d="M 18.3125 70.21875 
L 18.3125 54.6875 
L 36.8125 54.6875 
L 36.8125 47.703125 
L 18.3125 47.703125 
L 18.3125 18.015625 
Q 18.3125 11.328125 20.140625 9.421875 
Q 21.96875 7.515625 27.59375 7.515625 
L 36.8125 7.515625 
L 36.8125 0 
L 27.59375 0 
Q 17.1875 0 13.234375 3.875 
Q 9.28125 7.765625 9.28125 18.015625 
L 9.28125 47.703125 
L 2.6875 47.703125 
L 2.6875 54.6875 
L 9.28125 54.6875 
L 9.28125 70.21875 
z
" id="DejaVuSans-116"/>
      <path d="M 9.421875 54.6875 
L 18.40625 54.6875 
L 18.40625 0 
L 9.421875 0 
z
M 9.421875 75.984375 
L 18.40625 75.984375 
L 18.40625 64.59375 
L 9.421875 64.59375 
z
" id="DejaVuSans-105"/>
      <path d="M 9.421875 75.984375 
L 18.40625 75.984375 
L 18.40625 0 
L 9.421875 0 
z
" id="DejaVuSans-108"/>
      <path d="M 56.203125 29.59375 
L 56.203125 25.203125 
L 14.890625 25.203125 
Q 15.484375 15.921875 20.484375 11.0625 
Q 25.484375 6.203125 34.421875 6.203125 
Q 39.59375 6.203125 44.453125 7.46875 
Q 49.3125 8.734375 54.109375 11.28125 
L 54.109375 2.78125 
Q 49.265625 0.734375 44.1875 -0.34375 
Q 39.109375 -1.421875 33.890625 -1.421875 
Q 20.796875 -1.421875 13.15625 6.1875 
Q 5.515625 13.8125 5.515625 26.8125 
Q 5.515625 40.234375 12.765625 48.109375 
Q 20.015625 56 32.328125 56 
Q 43.359375 56 49.78125 48.890625 
Q 56.203125 41.796875 56.203125 29.59375 
z
M 47.21875 32.234375 
Q 47.125 39.59375 43.09375 43.984375 
Q 39.0625 48.390625 32.421875 48.390625 
Q 24.90625 48.390625 20.390625 44.140625 
Q 15.875 39.890625 15.1875 32.171875 
z
" id="DejaVuSans-101"/>
      <path d="M 44.28125 53.078125 
L 44.28125 44.578125 
Q 40.484375 46.53125 36.375 47.5 
Q 32.28125 48.484375 27.875 48.484375 
Q 21.1875 48.484375 17.84375 46.4375 
Q 14.5 44.390625 14.5 40.28125 
Q 14.5 37.15625 16.890625 35.375 
Q 19.28125 33.59375 26.515625 31.984375 
L 29.59375 31.296875 
Q 39.15625 29.25 43.1875 25.515625 
Q 47.21875 21.78125 47.21875 15.09375 
Q 47.21875 7.46875 41.1875 3.015625 
Q 35.15625 -1.421875 24.609375 -1.421875 
Q 20.21875 -1.421875 15.453125 -0.5625 
Q 10.6875 0.296875 5.421875 2 
L 5.421875 11.28125 
Q 10.40625 8.6875 15.234375 7.390625 
Q 20.0625 6.109375 24.8125 6.109375 
Q 31.15625 6.109375 34.5625 8.28125 
Q 37.984375 10.453125 37.984375 14.40625 
Q 37.984375 18.0625 35.515625 20.015625 
Q 33.0625 21.96875 24.703125 23.78125 
L 21.578125 24.515625 
Q 13.234375 26.265625 9.515625 29.90625 
Q 5.8125 33.546875 5.8125 39.890625 
Q 5.8125 47.609375 11.28125 51.796875 
Q 16.75 56 26.8125 56 
Q 31.78125 56 36.171875 55.265625 
Q 40.578125 54.546875 44.28125 53.078125 
z
" id="DejaVuSans-115"/>
     </defs>
     <g transform="translate(186.807813 314.314375)scale(0.28 -0.28)">
      <use xlink:href="#DejaVuSans-81"/>
      <use x="78.710938" xlink:href="#DejaVuSans-117"/>
      <use x="142.089844" xlink:href="#DejaVuSans-97"/>
      <use x="203.369141" xlink:href="#DejaVuSans-110"/>
      <use x="266.748047" xlink:href="#DejaVuSans-116"/>
      <use x="305.957031" xlink:href="#DejaVuSans-105"/>
      <use x="333.740234" xlink:href="#DejaVuSans-108"/>
      <use x="361.523438" xlink:href="#DejaVuSans-101"/>
      <use x="423.046875" xlink:href="#DejaVuSans-115"/>
     </g>
    </g>
   </g>
   <g id="matplotlib.axis_2">
    <g id="ytick_1">
     <g id="line2d_4">
      <defs>
       <path d="M 0 0 
L -5 0 
" id="mefefcdb412" style="stroke:#000000;stroke-width:0.8;"/>
      </defs>
      <g>
       <use style="stroke:#000000;stroke-width:0.8;" x="91.3275" xlink:href="#mefefcdb412" y="243.556364"/>
      </g>
     </g>
     <g id="text_5">
      <!-- 0.0 -->
      <g transform="translate(38.29875 254.194176)scale(0.28 -0.28)">
       <use xlink:href="#DejaVuSans-48"/>
       <use x="63.623047" xlink:href="#DejaVuSans-46"/>
       <use x="95.410156" xlink:href="#DejaVuSans-48"/>
      </g>
     </g>
    </g>
    <g id="ytick_2">
     <g id="line2d_5">
      <g>
       <use style="stroke:#000000;stroke-width:0.8;" x="91.3275" xlink:href="#mefefcdb412" y="144.72"/>
      </g>
     </g>
     <g id="text_6">
      <!-- 0.5 -->
      <g transform="translate(38.29875 155.357812)scale(0.28 -0.28)">
       <use xlink:href="#DejaVuSans-48"/>
       <use x="63.623047" xlink:href="#DejaVuSans-46"/>
       <use x="95.410156" xlink:href="#DejaVuSans-53"/>
      </g>
     </g>
    </g>
    <g id="ytick_3">
     <g id="line2d_6">
      <g>
       <use style="stroke:#000000;stroke-width:0.8;" x="91.3275" xlink:href="#mefefcdb412" y="45.883636"/>
      </g>
     </g>
     <g id="text_7">
      <!-- 1.0 -->
      <g transform="translate(38.29875 56.521449)scale(0.28 -0.28)">
       <use xlink:href="#DejaVuSans-49"/>
       <use x="63.623047" xlink:href="#DejaVuSans-46"/>
       <use x="95.410156" xlink:href="#DejaVuSans-48"/>
      </g>
     </g>
    </g>
    <g id="text_8">
     <!-- p-values -->
     <defs>
      <path d="M 18.109375 8.203125 
L 18.109375 -20.796875 
L 9.078125 -20.796875 
L 9.078125 54.6875 
L 18.109375 54.6875 
L 18.109375 46.390625 
Q 20.953125 51.265625 25.265625 53.625 
Q 29.59375 56 35.59375 56 
Q 45.5625 56 51.78125 48.09375 
Q 58.015625 40.1875 58.015625 27.296875 
Q 58.015625 14.40625 51.78125 6.484375 
Q 45.5625 -1.421875 35.59375 -1.421875 
Q 29.59375 -1.421875 25.265625 0.953125 
Q 20.953125 3.328125 18.109375 8.203125 
z
M 48.6875 27.296875 
Q 48.6875 37.203125 44.609375 42.84375 
Q 40.53125 48.484375 33.40625 48.484375 
Q 26.265625 48.484375 22.1875 42.84375 
Q 18.109375 37.203125 18.109375 27.296875 
Q 18.109375 17.390625 22.1875 11.75 
Q 26.265625 6.109375 33.40625 6.109375 
Q 40.53125 6.109375 44.609375 11.75 
Q 48.6875 17.390625 48.6875 27.296875 
z
" id="DejaVuSans-112"/>
      <path d="M 4.890625 31.390625 
L 31.203125 31.390625 
L 31.203125 23.390625 
L 4.890625 23.390625 
z
" id="DejaVuSans-45"/>
      <path d="M 2.984375 54.6875 
L 12.5 54.6875 
L 29.59375 8.796875 
L 46.6875 54.6875 
L 56.203125 54.6875 
L 35.6875 0 
L 23.484375 0 
z
" id="DejaVuSans-118"/>
     </defs>
     <g transform="translate(28.475625 204.189375)rotate(-90)scale(0.28 -0.28)">
      <use xlink:href="#DejaVuSans-112"/>
      <use x="63.476562" xlink:href="#DejaVuSans-45"/>
      <use x="99.529297" xlink:href="#DejaVuSans-118"/>
      <use x="158.708984" xlink:href="#DejaVuSans-97"/>
      <use x="219.988281" xlink:href="#DejaVuSans-108"/>
      <use x="247.771484" xlink:href="#DejaVuSans-117"/>
      <use x="311.150391" xlink:href="#DejaVuSans-101"/>
      <use x="372.673828" xlink:href="#DejaVuSans-115"/>
     </g>
    </g>
   </g>
   <g id="line2d_7">
    <path clip-path="url(#p8c0fce5dd2)" d="M 106.287478 243.54648 
L 171.4128 243.437766 
L 181.484279 243.249986 
L 184.170007 243.141272 
L 188.534315 242.993025 
L 191.220043 242.923843 
L 192.562907 242.815128 
L 197.262931 242.568049 
L 199.277227 242.429685 
L 200.62009 242.340737 
L 201.627238 242.00471 
L 205.991546 241.569852 
L 206.998694 241.303007 
L 210.020138 241.016396 
L 213.377298 240.62107 
L 216.398742 239.988549 
L 218.077322 239.80077 
L 218.413038 239.58334 
L 220.76305 239.247314 
L 221.434481 239.0793 
L 222.441629 238.990352 
L 223.784493 238.753157 
L 224.455925 238.654325 
L 225.127357 238.535727 
L 226.805937 238.179934 
L 227.141653 237.913089 
L 228.148801 237.675894 
L 228.820233 237.547413 
L 229.155949 237.3794 
L 230.498813 237.241036 
L 230.834529 237.201503 
L 231.170245 236.993957 
L 234.863121 236.203306 
L 235.198837 235.936461 
L 235.534553 235.877162 
L 236.205985 235.49172 
L 236.541701 235.471953 
L 237.213133 235.205108 
L 238.555997 234.888848 
L 238.891713 234.701068 
L 239.227429 234.641769 
L 239.898861 234.058664 
L 240.570293 233.949949 
L 240.906009 233.76217 
L 241.577441 233.633689 
L 242.248873 232.88257 
L 242.584589 232.843037 
L 242.920304 232.655258 
L 244.598884 232.408179 
L 245.270316 231.212319 
L 245.941748 231.014656 
L 246.61318 230.99489 
L 247.284612 230.510616 
L 248.29176 230.184472 
L 248.627476 229.789147 
L 250.977488 228.899664 
L 252.320352 228.771183 
L 253.3275 228.524104 
L 254.334648 227.37766 
L 254.670364 227.37766 
L 255.00608 227.120698 
L 257.691808 226.300397 
L 258.027524 225.954487 
L 258.36324 225.944604 
L 259.034672 225.420798 
L 259.370388 225.410915 
L 259.706104 224.867342 
L 260.377536 224.748744 
L 260.713252 224.580731 
L 261.048968 224.570847 
L 261.384684 224.215054 
L 261.7204 224.185405 
L 263.39898 223.394754 
L 264.070411 222.900596 
L 264.406127 222.060529 
L 264.741843 221.764035 
L 265.077559 221.645437 
L 265.748991 221.121631 
L 267.091855 220.538525 
L 267.427571 219.95542 
L 268.099003 219.925771 
L 268.770435 219.115353 
L 269.106151 218.986872 
L 269.441867 218.631079 
L 269.777583 218.552014 
L 270.113299 218.196221 
L 270.449015 216.921295 
L 270.784731 216.288774 
L 271.791879 215.863799 
L 272.127595 215.320226 
L 272.799027 215.231278 
L 273.470459 215.162096 
L 273.806175 214.578991 
L 275.149039 214.055184 
L 276.156187 213.877288 
L 276.491903 213.857521 
L 276.827619 213.472079 
L 277.163335 212.898857 
L 278.170483 212.286102 
L 278.506199 211.880893 
L 278.841915 211.84136 
L 279.177631 211.604165 
L 280.520495 211.208839 
L 280.856211 211.030943 
L 281.191927 210.99141 
L 281.863359 209.973446 
L 282.534791 209.696718 
L 282.870507 208.955483 
L 284.213371 208.807236 
L 284.884803 208.362494 
L 285.220519 207.660791 
L 285.89195 207.324764 
L 286.227666 206.880023 
L 286.563382 206.800958 
L 286.899098 205.763228 
L 287.234814 205.101057 
L 287.906246 204.804563 
L 288.577678 204.646433 
L 288.913394 204.468536 
L 289.24911 203.144195 
L 289.920542 202.837818 
L 290.92769 202.284362 
L 291.263406 202.165764 
L 291.599122 201.71114 
L 291.934838 201.691373 
L 292.270554 201.414645 
L 292.941986 201.325697 
L 293.277702 200.910605 
L 293.949134 200.633877 
L 294.620566 200.505396 
L 294.956282 200.179252 
L 295.291998 199.517082 
L 295.627714 199.457783 
L 296.299146 198.340988 
L 296.970578 198.123559 
L 297.977726 197.570103 
L 298.313442 197.075946 
L 298.649158 197.05618 
L 299.32059 196.314944 
L 299.656306 195.158616 
L 299.992022 195.049902 
L 300.327738 194.595277 
L 300.663454 194.44703 
L 301.670602 194.407497 
L 302.006318 194.308666 
L 302.67775 193.527898 
L 304.692046 192.02566 
L 305.027762 191.580919 
L 305.363478 191.353607 
L 305.699194 190.365292 
L 306.03491 189.890901 
L 306.370626 188.635742 
L 306.706342 188.59621 
L 307.042057 188.418313 
L 307.713489 188.309599 
L 308.049205 187.173037 
L 308.384921 186.441685 
L 309.056353 185.947528 
L 309.392069 184.830733 
L 309.727785 184.366225 
L 310.063501 184.267394 
L 310.399217 184.000549 
L 310.734933 183.980782 
L 311.406365 183.466859 
L 311.742081 183.456976 
L 312.077797 183.318612 
L 312.413513 182.290765 
L 312.749229 182.122752 
L 313.084945 181.747192 
L 313.420661 181.747192 
L 313.756377 180.699579 
L 314.092093 180.244955 
L 314.763525 180.037409 
L 315.099241 178.989796 
L 315.434957 178.792133 
L 315.770673 177.438142 
L 316.106389 177.418376 
L 316.442105 177.121882 
L 316.777821 176.242282 
L 317.113537 176.153334 
L 317.449253 174.898175 
L 317.784969 174.423784 
L 318.120685 174.364485 
L 318.456401 173.791263 
L 318.792117 173.771497 
L 319.127833 173.218041 
L 320.134981 172.802949 
L 320.806413 172.74365 
L 321.142129 172.536104 
L 321.813561 170.905385 
L 322.149277 170.63854 
L 322.484993 169.986253 
L 323.156425 169.897305 
L 323.492141 169.47233 
L 323.827857 169.304316 
L 324.163573 168.009625 
L 324.499289 167.683481 
L 324.835005 166.922479 
L 325.170721 166.912596 
L 325.506437 166.457971 
L 326.513585 165.706852 
L 327.185017 164.451693 
L 327.520733 164.214498 
L 328.192164 163.315132 
L 328.52788 162.890157 
L 328.863596 158.956666 
L 329.199312 158.670055 
L 329.870744 158.561341 
L 330.20646 157.543377 
L 330.877892 157.345714 
L 331.213608 156.812024 
L 331.549324 156.792258 
L 331.88504 155.705113 
L 332.220756 154.183109 
L 332.892188 152.690754 
L 333.56362 151.909986 
L 333.899336 151.791388 
L 334.235052 151.336764 
L 334.570768 150.397865 
L 334.906484 150.229852 
L 335.2422 149.864176 
L 335.577916 149.824643 
L 335.913632 148.865978 
L 336.249348 148.846212 
L 336.92078 147.828248 
L 337.256496 147.768949 
L 337.592212 146.54344 
L 338.263644 145.970217 
L 338.59936 145.69349 
L 339.270792 144.102304 
L 339.942224 143.825576 
L 340.27794 143.815692 
L 340.613656 143.667445 
L 341.620804 142.402403 
L 341.95652 142.372754 
L 342.292236 141.769882 
L 343.6351 141.621635 
L 343.970816 141.255959 
L 344.306532 140.653087 
L 345.649396 139.417694 
L 346.320828 139.220031 
L 346.656544 137.678261 
L 347.663692 137.332351 
L 347.999408 136.35392 
L 348.335124 136.344037 
L 348.67084 136.185907 
L 349.006556 132.489612 
L 350.349419 131.837324 
L 350.685135 131.145504 
L 351.356567 130.81936 
L 351.692283 129.732215 
L 352.363715 128.141029 
L 352.699431 127.320728 
L 353.035147 126.836454 
L 353.370863 126.154517 
L 354.378011 125.3441 
L 355.049443 124.197655 
L 355.385159 123.861628 
L 355.720875 122.7646 
L 356.392307 122.428573 
L 357.063739 121.944299 
L 357.735171 121.0054 
L 358.070887 120.946101 
L 359.078035 120.362996 
L 359.413751 119.404331 
L 359.749467 119.295617 
L 360.420899 114.99645 
L 360.756615 114.442994 
L 361.092331 113.029705 
L 361.428047 112.76286 
L 361.763763 112.011741 
L 362.099479 110.124061 
L 362.770911 109.936281 
L 363.106627 108.236381 
L 363.442343 108.216614 
L 364.113775 106.03244 
L 364.449491 105.478984 
L 364.785207 105.142957 
L 365.120923 104.609267 
L 365.456639 104.559852 
L 365.792355 103.670369 
L 366.128071 103.670369 
L 366.463787 103.027965 
L 366.799503 102.691938 
L 367.135219 102.682055 
L 367.806651 101.72339 
L 368.142367 100.231035 
L 369.149515 99.924658 
L 369.485231 99.173539 
L 369.820947 98.145692 
L 370.156663 98.066627 
L 370.492379 97.819549 
L 370.828094 96.801585 
L 371.16381 96.752169 
L 371.499526 96.505091 
L 372.170958 96.435909 
L 372.506674 96.34696 
L 372.84239 95.032503 
L 373.513822 94.063955 
L 373.849538 91.197843 
L 374.856686 90.940882 
L 375.192402 89.883385 
L 375.528118 87.432366 
L 375.863834 87.294002 
L 376.19955 85.752232 
L 376.870982 84.80345 
L 377.206698 84.161046 
L 377.542414 84.161046 
L 377.87813 83.923851 
L 378.213846 83.044251 
L 378.549562 82.896004 
L 379.220994 81.640845 
L 379.55671 81.601312 
L 380.228142 80.790895 
L 380.563858 80.612998 
L 380.899574 79.851996 
L 381.23529 77.391094 
L 381.906722 77.144015 
L 382.578154 74.465684 
L 382.91387 73.773864 
L 383.249586 73.388421 
L 383.921018 73.230291 
L 384.256734 73.091927 
L 384.928166 70.927519 
L 385.263882 70.799038 
L 385.599598 70.067685 
L 385.935314 68.763111 
L 386.606746 68.189888 
L 386.942462 67.626549 
L 387.278178 65.689453 
L 387.613894 65.610388 
L 388.621042 64.078501 
L 389.292474 63.861072 
L 389.62819 63.011122 
L 389.963906 62.833225 
L 390.299622 62.151288 
L 390.635338 62.082106 
L 391.30677 60.125244 
L 391.642486 58.613124 
L 391.978202 58.524175 
L 392.985349 57.713758 
L 393.321065 56.379533 
L 393.656781 55.667947 
L 393.992497 54.32384 
L 394.328213 54.175593 
L 395.671077 52.100133 
L 396.342509 50.973455 
L 398.021089 49.589815 
L 398.356805 48.641033 
L 398.692521 48.067811 
L 399.028237 47.959096 
L 399.363953 46.832418 
L 399.699669 46.644638 
L 400.035385 46.012117 
L 400.367522 45.982468 
L 400.367522 45.982468 
" style="fill:none;stroke:#b8860b;stroke-linecap:square;stroke-opacity:0.75;stroke-width:2;"/>
   </g>
   <g id="line2d_8">
    <path clip-path="url(#p8c0fce5dd2)" d="M 109.277698 243.54648 
L 113.875695 243.54648 
L 118.524088 243.54648 
L 123.172482 243.54648 
L 127.820875 243.54648 
L 132.469269 243.54648 
L 137.117662 243.54648 
L 141.766056 243.54648 
L 146.414449 243.54648 
L 151.062843 243.54648 
L 155.711236 243.54648 
L 160.35963 243.54648 
L 165.008023 243.54648 
L 169.656417 243.54648 
L 174.30481 243.54648 
L 178.953204 243.54648 
L 183.601597 243.536597 
L 188.249991 243.536597 
L 192.898384 243.536597 
L 197.546778 243.536597 
L 202.195171 243.536597 
L 206.843565 243.526714 
L 211.491958 243.526714 
L 216.140352 243.497065 
L 220.788745 243.437766 
L 225.437139 243.279636 
L 230.085532 243.269753 
L 234.733926 243.249986 
L 239.382319 243.190687 
L 244.030713 242.993025 
L 248.679106 242.00471 
L 253.3275 241.767515 
L 257.975894 241.15476 
L 262.624287 240.739668 
L 267.272681 239.968783 
L 271.921074 239.9589 
L 276.569468 239.850185 
L 281.217861 239.543808 
L 285.866255 238.842105 
L 290.514648 238.427013 
L 295.163042 236.31202 
L 299.811435 235.471953 
L 304.459829 233.742403 
L 309.108222 232.655258 
L 313.756616 232.408179 
L 318.405009 231.212319 
L 323.053403 216.288774 
L 327.701796 212.286102 
L 332.35019 211.258255 
L 336.998583 211.030943 
L 341.646977 203.015714 
L 346.29537 202.452375 
L 350.943764 201.71114 
L 355.592157 199.517082 
L 360.240551 196.314944 
L 364.888944 178.989796 
L 369.537338 164.451693 
L 374.185731 143.93429 
L 378.834125 143.825576 
L 383.482518 105.142957 
L 388.130912 103.027965 
L 392.779305 84.80345 
L 397.377302 65.610388 
" style="fill:none;stroke:#8b0000;stroke-linecap:square;stroke-opacity:0.75;stroke-width:2;"/>
   </g>
   <g id="line2d_9">
    <path clip-path="url(#p8c0fce5dd2)" d="M 107.138748 243.54648 
L 207.19849 243.437766 
L 208.762186 243.299402 
L 219.708052 243.101739 
L 222.835443 242.993025 
L 229.090224 242.666881 
L 232.217614 242.528517 
L 235.345005 242.439569 
L 236.9087 242.00471 
L 238.472395 241.975061 
L 240.03609 241.767515 
L 246.290871 241.569852 
L 249.418262 240.739668 
L 250.981957 239.9589 
L 252.545652 239.850185 
L 254.109348 239.543808 
L 255.673043 239.504275 
L 257.236738 238.990352 
L 258.800433 238.842105 
L 260.364129 238.427013 
L 261.927824 238.179934 
L 263.491519 237.3794 
L 266.61891 237.290451 
L 268.182605 236.697463 
L 269.7463 236.31202 
L 274.437386 233.76217 
L 276.001081 233.742403 
L 277.564776 233.307545 
L 279.128472 232.655258 
L 280.692167 232.625608 
L 282.255862 232.408179 
L 283.819557 231.212319 
L 286.946948 231.014656 
L 290.074338 230.99489 
L 291.638033 230.411785 
L 293.201729 227.37766 
L 294.765424 226.863736 
L 296.329119 226.735256 
L 297.892814 226.478294 
L 299.45651 225.944604 
L 301.020205 224.867342 
L 302.5839 219.95542 
L 304.147595 218.986872 
L 305.711291 216.288774 
L 307.274986 212.711077 
L 308.838681 212.286102 
L 310.402376 211.604165 
L 311.966072 211.258255 
L 313.529767 211.030943 
L 315.093462 209.884498 
L 316.657157 209.696718 
L 318.220853 204.745264 
L 319.784548 203.144195 
L 321.348243 203.015714 
L 322.911938 202.452375 
L 324.475634 201.71114 
L 326.039329 199.517082 
L 327.603024 196.314944 
L 329.166719 194.407497 
L 330.730415 188.635742 
L 332.29411 183.466859 
L 333.857805 180.699579 
L 335.4215 170.63854 
L 336.985196 169.986253 
L 338.548891 164.451693 
L 341.676281 162.890157 
L 343.239977 158.956666 
L 344.803672 156.812024 
L 346.367367 155.705113 
L 347.931062 147.768949 
L 349.494757 143.93429 
L 351.058453 143.825576 
L 352.622148 142.402403 
L 354.185843 137.678261 
L 355.749538 136.344037 
L 357.313234 122.428573 
L 358.876929 120.946101 
L 360.440624 120.362996 
L 362.004319 110.124061 
L 363.568015 105.478984 
L 365.13171 105.142957 
L 366.695405 104.609267 
L 368.2591 103.027965 
L 369.822796 102.197781 
L 371.386491 96.752169 
L 372.950186 96.495208 
L 374.513881 90.940882 
L 376.077577 84.80345 
L 377.641272 84.161046 
L 379.204967 81.166454 
L 380.768662 80.790895 
L 382.332358 77.144015 
L 383.896053 70.067685 
L 385.459748 68.763111 
L 387.023443 65.610388 
L 388.587139 65.096465 
L 390.150834 64.078501 
L 391.714529 63.95002 
L 393.278224 62.151288 
L 396.405615 50.410115 
L 397.96931 48.067811 
L 399.516252 47.959096 
L 399.516252 47.959096 
" style="fill:none;stroke:#000080;stroke-linecap:square;stroke-opacity:0.75;stroke-width:2;"/>
   </g>
   <g id="line2d_10">
    <path clip-path="url(#p8c0fce5dd2)" d="M 106.054773 233.672727 
L 400.600227 233.672727 
" style="fill:none;stroke:#ff0000;stroke-dasharray:3.7,1.6;stroke-dashoffset:0;"/>
   </g>
   <g id="patch_3">
    <path d="M 91.3275 253.44 
L 91.3275 36 
" style="fill:none;stroke:#000000;stroke-linecap:square;stroke-linejoin:miter;"/>
   </g>
   <g id="patch_4">
    <path d="M 91.3275 253.44 
L 415.3275 253.44 
" style="fill:none;stroke:#000000;stroke-linecap:square;stroke-linejoin:miter;"/>
   </g>
   <g id="text_9">
    <!-- Chen -->
    <defs>
     <path d="M 64.40625 67.28125 
L 64.40625 56.890625 
Q 59.421875 61.53125 53.78125 63.8125 
Q 48.140625 66.109375 41.796875 66.109375 
Q 29.296875 66.109375 22.65625 58.46875 
Q 16.015625 50.828125 16.015625 36.375 
Q 16.015625 21.96875 22.65625 14.328125 
Q 29.296875 6.6875 41.796875 6.6875 
Q 48.140625 6.6875 53.78125 8.984375 
Q 59.421875 11.28125 64.40625 15.921875 
L 64.40625 5.609375 
Q 59.234375 2.09375 53.4375 0.328125 
Q 47.65625 -1.421875 41.21875 -1.421875 
Q 24.65625 -1.421875 15.125 8.703125 
Q 5.609375 18.84375 5.609375 36.375 
Q 5.609375 53.953125 15.125 64.078125 
Q 24.65625 74.21875 41.21875 74.21875 
Q 47.75 74.21875 53.53125 72.484375 
Q 59.328125 70.75 64.40625 67.28125 
z
" id="DejaVuSans-67"/>
     <path d="M 54.890625 33.015625 
L 54.890625 0 
L 45.90625 0 
L 45.90625 32.71875 
Q 45.90625 40.484375 42.875 44.328125 
Q 39.84375 48.1875 33.796875 48.1875 
Q 26.515625 48.1875 22.3125 43.546875 
Q 18.109375 38.921875 18.109375 30.90625 
L 18.109375 0 
L 9.078125 0 
L 9.078125 75.984375 
L 18.109375 75.984375 
L 18.109375 46.1875 
Q 21.34375 51.125 25.703125 53.5625 
Q 30.078125 56 35.796875 56 
Q 45.21875 56 50.046875 50.171875 
Q 54.890625 44.34375 54.890625 33.015625 
z
" id="DejaVuSans-104"/>
    </defs>
    <g transform="translate(120.782045 67.159261)scale(0.28 -0.28)">
     <use xlink:href="#DejaVuSans-67"/>
     <use x="69.824219" xlink:href="#DejaVuSans-104"/>
     <use x="133.203125" xlink:href="#DejaVuSans-101"/>
     <use x="194.726562" xlink:href="#DejaVuSans-110"/>
    </g>
   </g>
  </g>
  <g id="axes_2">
   <g id="patch_5">
    <path d="M 431.5275 253.44 
L 755.5275 253.44 
L 755.5275 36 
L 431.5275 36 
z
" style="fill:none;"/>
   </g>
   <g id="matplotlib.axis_3">
    <g id="xtick_4">
     <g id="line2d_11">
      <g>
       <use style="stroke:#000000;stroke-width:0.8;" x="446.254773" xlink:href="#m284efb0394" y="253.44"/>
      </g>
     </g>
     <g id="text_10">
      <!-- 0 -->
      <g transform="translate(437.347273 283.215625)scale(0.28 -0.28)">
       <use xlink:href="#DejaVuSans-48"/>
      </g>
     </g>
    </g>
    <g id="xtick_5">
     <g id="line2d_12">
      <g>
       <use style="stroke:#000000;stroke-width:0.8;" x="593.5275" xlink:href="#m284efb0394" y="253.44"/>
      </g>
     </g>
     <g id="text_11">
      <!-- 0.5 -->
      <g transform="translate(571.263125 283.215625)scale(0.28 -0.28)">
       <use xlink:href="#DejaVuSans-48"/>
       <use x="63.623047" xlink:href="#DejaVuSans-46"/>
       <use x="95.410156" xlink:href="#DejaVuSans-53"/>
      </g>
     </g>
    </g>
    <g id="xtick_6">
     <g id="line2d_13">
      <g>
       <use style="stroke:#000000;stroke-width:0.8;" x="740.800227" xlink:href="#m284efb0394" y="253.44"/>
      </g>
     </g>
     <g id="text_12">
      <!-- 1 -->
      <g transform="translate(731.892727 283.215625)scale(0.28 -0.28)">
       <use xlink:href="#DejaVuSans-49"/>
      </g>
     </g>
    </g>
    <g id="text_13">
     <!-- Quantiles -->
     <g transform="translate(527.007812 314.314375)scale(0.28 -0.28)">
      <use xlink:href="#DejaVuSans-81"/>
      <use x="78.710938" xlink:href="#DejaVuSans-117"/>
      <use x="142.089844" xlink:href="#DejaVuSans-97"/>
      <use x="203.369141" xlink:href="#DejaVuSans-110"/>
      <use x="266.748047" xlink:href="#DejaVuSans-116"/>
      <use x="305.957031" xlink:href="#DejaVuSans-105"/>
      <use x="333.740234" xlink:href="#DejaVuSans-108"/>
      <use x="361.523438" xlink:href="#DejaVuSans-101"/>
      <use x="423.046875" xlink:href="#DejaVuSans-115"/>
     </g>
    </g>
   </g>
   <g id="matplotlib.axis_4">
    <g id="ytick_4"/>
    <g id="ytick_5"/>
    <g id="ytick_6"/>
   </g>
   <g id="line2d_14">
    <path clip-path="url(#p436dd22ee1)" d="M 446.655607 243.54648 
L 462.262458 243.447649 
L 463.997238 243.309285 
L 464.575498 243.002908 
L 470.358099 242.607582 
L 472.09288 242.558166 
L 474.98418 242.291321 
L 476.1407 241.84658 
L 477.29722 241.747749 
L 477.875481 241.006513 
L 478.453741 240.947214 
L 479.610261 240.472823 
L 480.766781 240.373992 
L 481.345041 240.047848 
L 482.501561 239.968783 
L 483.079821 239.889718 
L 484.236342 239.128716 
L 484.814602 238.782806 
L 485.392862 237.913089 
L 486.549382 237.69566 
L 488.284162 236.667814 
L 488.862422 236.52945 
L 491.753723 235.017329 
L 492.910243 234.809783 
L 493.488503 234.285976 
L 494.066763 233.930183 
L 495.223283 233.880767 
L 495.801544 233.149415 
L 497.536324 232.922103 
L 498.114584 232.230283 
L 498.692844 230.846643 
L 499.271104 230.767578 
L 499.849364 230.500733 
L 500.427624 230.471083 
L 501.005884 230.046108 
L 501.584145 230.016459 
L 502.162405 229.443237 
L 502.740665 229.275223 
L 503.318925 228.810715 
L 503.897185 228.711884 
L 504.475445 228.237493 
L 505.053705 226.883503 
L 505.631965 226.853853 
L 506.210225 224.551081 
L 506.788485 224.551081 
L 508.523266 223.849378 
L 509.101526 223.73078 
L 510.258046 223.167441 
L 511.414566 222.88083 
L 512.571086 222.297725 
L 513.727607 222.149478 
L 515.462387 221.042566 
L 516.040647 219.95542 
L 516.618907 219.95542 
L 517.197167 219.500796 
L 517.775427 219.362432 
L 518.353687 219.036288 
L 518.931947 218.838625 
L 519.510208 218.196221 
L 520.088468 217.968908 
L 520.666728 217.454985 
L 521.244988 217.128841 
L 524.714548 216.170177 
L 525.292808 215.695786 
L 525.871069 214.855719 
L 526.449329 214.242964 
L 527.027589 214.223198 
L 527.605849 214.045301 
L 528.184109 213.620326 
L 528.762369 213.422663 
L 530.497149 211.268138 
L 531.075409 211.159423 
L 532.23193 209.400224 
L 532.81019 209.212444 
L 533.38845 208.747937 
L 533.96671 208.629339 
L 534.54497 208.303195 
L 535.12323 208.214247 
L 535.70149 207.947402 
L 536.27975 207.176517 
L 536.85801 207.057919 
L 537.436271 206.731776 
L 539.171051 206.128904 
L 540.327571 205.634747 
L 540.905831 205.446967 
L 542.062351 204.547601 
L 542.640611 204.498186 
L 543.218872 203.954613 
L 543.797132 203.06513 
L 545.531912 202.748869 
L 546.110172 202.007634 
L 546.688432 201.987868 
L 547.266692 201.424528 
L 548.423212 200.940254 
L 549.001472 200.900722 
L 549.579733 200.584461 
L 550.157993 200.554812 
L 550.736253 199.645563 
L 551.314513 199.388601 
L 551.892773 198.884561 
L 552.471033 198.815379 
L 553.049293 198.163091 
L 554.205813 197.87648 
L 554.784073 196.107398 
L 555.362334 195.840553 
L 555.940594 195.178383 
L 556.518854 194.832473 
L 557.097114 194.753407 
L 557.675374 194.239484 
L 558.253634 193.320352 
L 559.410154 192.628532 
L 559.988414 191.986128 
L 560.566674 191.620451 
L 561.144935 190.513539 
L 561.723195 190.108331 
L 562.301455 189.525225 
L 562.879715 189.28803 
L 564.614495 188.003221 
L 565.192755 188.003221 
L 566.349275 187.410233 
L 567.505796 187.311401 
L 568.084056 186.649231 
L 568.662316 184.712135 
L 569.818836 184.346459 
L 570.397096 183.901717 
L 571.553616 182.350064 
L 572.131876 182.152401 
L 573.866657 180.501916 
L 574.444917 179.306056 
L 576.179697 179.068861 
L 576.757957 177.863117 
L 577.336217 176.943985 
L 577.914477 176.855037 
L 578.492737 174.60168 
L 579.649258 174.245887 
L 580.227518 173.712198 
L 580.805778 173.702315 
L 581.384038 172.783182 
L 583.118818 172.407623 
L 584.275338 171.626855 
L 584.853599 171.211763 
L 586.010119 171.004217 
L 586.588379 170.98445 
L 587.166639 170.342046 
L 587.744899 170.104851 
L 588.323159 168.918874 
L 589.479679 168.800276 
L 590.057939 168.454366 
L 591.21446 168.236937 
L 591.79272 167.525351 
L 592.37098 167.505584 
L 594.10576 167.041077 
L 594.68402 166.35914 
L 595.26228 166.102178 
L 596.997061 166.082412 
L 597.575321 164.965617 
L 598.153581 164.866785 
L 598.731841 164.0959 
L 599.310101 163.611626 
L 599.888361 162.781442 
L 600.466621 162.771559 
L 601.044881 162.326818 
L 601.623141 162.20822 
L 602.779662 161.32862 
L 603.357922 159.875799 
L 603.936182 159.717668 
L 604.514442 158.828185 
L 605.092702 158.40321 
L 605.670962 156.594595 
L 606.827482 156.466115 
L 607.405742 155.734762 
L 607.984002 155.260371 
L 609.140523 153.422107 
L 609.718783 153.095963 
L 610.875303 152.918066 
L 611.453563 151.850687 
L 612.031823 151.415829 
L 612.610083 151.257699 
L 613.188343 149.182239 
L 614.344864 148.648549 
L 614.923124 147.818365 
L 615.501384 147.492221 
L 616.657904 147.096896 
L 617.814424 145.555126 
L 618.392684 145.396995 
L 618.970944 144.339499 
L 620.705725 143.054691 
L 621.283985 142.975625 
L 621.862245 142.5803 
L 623.018765 142.165208 
L 624.753545 141.117595 
L 625.331805 140.534489 
L 625.910065 140.277528 
L 626.488326 139.595591 
L 627.644846 139.476993 
L 628.223106 138.854355 
L 628.801366 138.77529 
L 629.379626 138.182301 
L 631.114406 137.954989 
L 632.270927 137.569547 
L 634.583967 137.302702 
L 635.162227 137.006208 
L 635.740487 136.907376 
L 636.318747 136.591116 
L 636.897007 136.591116 
L 637.475267 136.264972 
L 638.631788 134.901098 
L 639.210048 134.822033 
L 639.788308 134.555188 
L 640.366568 134.080797 
L 641.523088 133.556991 
L 642.101348 133.517458 
L 642.679608 131.936156 
L 643.257868 131.283868 
L 644.414389 131.096088 
L 645.570909 130.84901 
L 646.149169 129.682799 
L 646.727429 128.842732 
L 647.305689 128.566004 
L 647.883949 127.943366 
L 648.462209 127.538157 
L 649.040469 125.818491 
L 649.618729 125.630711 
L 650.19699 125.15632 
L 650.77525 124.345902 
L 652.51003 122.487872 
L 653.08829 122.250676 
L 653.66655 119.99732 
L 654.24481 119.295617 
L 654.82307 118.880525 
L 655.40133 118.811343 
L 655.979591 118.406134 
L 656.557851 118.257887 
L 657.714371 117.506768 
L 658.870891 117.23004 
L 659.449151 116.805065 
L 660.027411 115.164463 
L 660.605671 114.897618 
L 661.183931 114.759254 
L 661.762192 114.195915 
L 662.340452 112.673911 
L 662.918712 112.555314 
L 663.496972 111.952442 
L 664.075232 110.776348 
L 664.653492 110.707166 
L 665.231752 110.044996 
L 666.388272 109.718852 
L 666.966532 109.27411 
L 668.123053 109.046798 
L 668.701313 108.483459 
L 669.279573 108.473576 
L 671.014353 107.38643 
L 671.592613 107.297482 
L 672.170873 106.546363 
L 672.749133 106.546363 
L 673.327393 105.449334 
L 673.905654 104.629034 
L 674.483914 104.283124 
L 675.062174 103.79885 
L 676.218694 103.522122 
L 676.796954 102.909367 
L 677.375214 102.850068 
L 677.953474 102.543691 
L 678.531734 102.484392 
L 679.109994 100.903089 
L 680.266515 100.567062 
L 680.844775 100.448464 
L 681.423035 99.529332 
L 682.001295 99.450267 
L 683.157815 97.532938 
L 683.736075 96.050466 
L 684.892595 94.548229 
L 685.470855 94.330799 
L 686.627376 93.411667 
L 687.205636 93.382018 
L 687.783896 93.194238 
L 688.362156 93.134939 
L 688.940416 92.828562 
L 689.518676 91.90943 
L 690.096936 91.632702 
L 691.253456 90.802518 
L 692.409977 90.654271 
L 693.566497 87.75851 
L 695.879537 87.264353 
L 696.457797 85.485387 
L 697.614318 85.347023 
L 698.770838 83.657006 
L 699.349098 83.617473 
L 699.927358 83.251797 
L 700.505618 82.718107 
L 701.083878 81.917573 
L 702.240398 80.711829 
L 702.818658 80.02001 
L 704.553439 79.733398 
L 705.131699 79.436904 
L 705.709959 77.905017 
L 706.288219 76.90682 
L 706.866479 76.758573 
L 708.022999 76.126052 
L 708.601259 74.436034 
L 709.179519 73.220408 
L 709.75778 73.161109 
L 710.33604 72.202444 
L 710.9143 71.74782 
L 711.49256 71.579806 
L 712.07082 71.293195 
L 713.22734 70.166517 
L 714.96212 69.613061 
L 715.540381 68.98054 
L 716.696901 68.763111 
L 717.275161 67.893394 
L 717.853421 67.764913 
L 718.431681 67.122509 
L 720.166461 66.005714 
L 721.322982 65.452258 
L 721.901242 64.167449 
L 722.479502 63.485513 
L 723.057762 63.218668 
L 724.214282 62.022808 
L 724.792542 61.973392 
L 725.949062 61.439702 
L 726.527322 61.330988 
L 727.105583 60.767649 
L 727.683843 59.650853 
L 729.418623 57.980602 
L 729.996883 56.883574 
L 731.731663 55.618531 
L 732.309923 55.410985 
L 732.888183 55.322037 
L 733.466444 54.837763 
L 734.622964 54.462204 
L 735.201224 52.505342 
L 735.779484 49.866543 
L 736.357744 49.757828 
L 736.936004 49.283437 
L 737.514264 48.393954 
L 740.399393 47.287043 
L 740.399393 47.287043 
" style="fill:none;stroke:#b8860b;stroke-linecap:square;stroke-opacity:0.75;stroke-width:2;"/>
   </g>
   <g id="line2d_15">
    <path clip-path="url(#p436dd22ee1)" d="M 447.24901 243.54648 
L 471.615959 243.447649 
L 473.050212 243.309285 
L 474.484466 242.904076 
L 478.787226 242.755829 
L 480.221479 242.607582 
L 484.52424 242.558166 
L 490.261253 242.291321 
L 491.695507 241.84658 
L 494.564014 241.747749 
L 495.998267 240.947214 
L 498.866774 240.373992 
L 500.301027 240.047848 
L 501.735281 240.047848 
L 503.169534 239.889718 
L 504.603788 239.128716 
L 506.038041 237.913089 
L 507.472295 237.329984 
L 508.906548 237.053256 
L 510.340801 236.52945 
L 511.775055 235.857396 
L 513.209308 235.600434 
L 514.643562 235.175459 
L 517.512068 234.809783 
L 518.946322 234.285976 
L 520.380575 233.930183 
L 521.814829 233.090116 
L 523.249082 230.500733 
L 524.683336 230.471083 
L 526.117589 228.711884 
L 527.551842 228.237493 
L 528.986096 226.883503 
L 530.420349 226.853853 
L 531.854603 224.304003 
L 534.72311 223.167441 
L 539.02587 222.297725 
L 540.460123 221.042566 
L 541.894377 219.95542 
L 544.762884 218.838625 
L 546.197137 217.968908 
L 547.63139 217.454985 
L 549.065644 216.170177 
L 550.499897 214.223198 
L 551.934151 213.422663 
L 553.368404 211.268138 
L 554.802658 211.159423 
L 556.236911 208.747937 
L 559.105418 207.057919 
L 560.539671 206.731776 
L 561.973925 206.543996 
L 563.408178 204.547601 
L 564.842432 203.954613 
L 566.276685 201.197216 
L 567.710938 200.940254 
L 569.145192 200.900722 
L 570.579445 198.884561 
L 572.013699 198.815379 
L 573.447952 192.628532 
L 576.316459 188.536911 
L 577.750712 188.003221 
L 579.184966 184.583654 
L 580.619219 184.346459 
L 582.053473 183.901717 
L 583.487726 182.152401 
L 584.921979 179.207225 
L 587.790486 179.068861 
L 589.22474 177.863117 
L 590.658993 174.60168 
L 592.093247 174.245887 
L 593.5275 172.783182 
L 594.961753 172.615169 
L 596.396007 171.063516 
L 597.83026 170.98445 
L 599.264514 170.104851 
L 600.698767 168.829925 
L 602.133021 168.800276 
L 603.567274 168.236937 
L 605.001527 167.337571 
L 606.435781 167.248623 
L 607.870034 166.35914 
L 609.304288 166.092295 
L 610.738541 164.965617 
L 612.172795 164.866785 
L 613.607048 163.611626 
L 615.041301 162.781442 
L 616.475555 162.771559 
L 617.909808 158.40321 
L 620.778315 154.430187 
L 623.646822 151.850687 
L 625.081075 151.415829 
L 626.515329 151.257699 
L 627.949582 147.818365 
L 629.383836 145.555126 
L 630.818089 145.396995 
L 632.252342 144.339499 
L 633.686596 141.572219 
L 635.120849 140.277528 
L 636.555103 139.595591 
L 637.989356 139.476993 
L 640.857863 138.182301 
L 642.292116 137.954989 
L 643.72637 137.302702 
L 645.160623 137.006208 
L 646.594877 136.591116 
L 648.02913 135.513853 
L 649.463384 134.901098 
L 650.897637 134.555188 
L 652.33189 133.784303 
L 653.766144 133.556991 
L 655.200397 130.987374 
L 656.634651 130.84901 
L 658.068904 128.842732 
L 659.503158 127.943366 
L 660.937411 124.345902 
L 662.371664 123.762797 
L 663.805918 119.99732 
L 665.240171 118.811343 
L 666.674425 118.406134 
L 668.108678 117.23004 
L 669.542932 115.164463 
L 670.977185 114.897618 
L 672.411438 114.195915 
L 673.845692 110.776348 
L 675.279945 109.857216 
L 676.714199 109.27411 
L 678.148452 108.473576 
L 679.582705 108.068367 
L 681.016959 106.546363 
L 682.451212 105.449334 
L 683.885466 104.629034 
L 685.319719 104.283124 
L 686.753973 103.79885 
L 688.188226 102.909367 
L 689.622479 100.567062 
L 691.056733 99.529332 
L 692.490986 95.259815 
L 693.92524 94.548229 
L 695.359493 94.330799 
L 696.793747 93.935474 
L 698.228 93.411667 
L 699.662253 93.382018 
L 701.096507 91.90943 
L 702.53076 90.802518 
L 705.399267 90.654271 
L 706.833521 87.452132 
L 708.267774 82.718107 
L 709.702027 81.917573 
L 711.136281 81.374 
L 712.570534 80.02001 
L 714.004788 79.921178 
L 715.439041 76.90682 
L 716.873295 76.432429 
L 718.307548 74.436034 
L 721.176055 71.74782 
L 722.610308 71.579806 
L 725.478815 69.968854 
L 726.913068 65.452258 
L 728.347322 63.218668 
L 729.781575 60.767649 
L 731.215829 59.13693 
L 732.650082 58.514292 
L 734.084336 56.013857 
L 735.518589 55.410985 
L 736.952842 55.322037 
L 738.387096 54.837763 
L 739.80599 49.757828 
L 739.80599 49.757828 
" style="fill:none;stroke:#8b0000;stroke-linecap:square;stroke-opacity:0.75;stroke-width:2;"/>
   </g>
   <g id="line2d_16">
    <path clip-path="url(#p436dd22ee1)" d="M 449.33197 243.54648 
L 453.722154 243.54648 
L 458.160419 243.54648 
L 462.598683 243.54648 
L 467.036948 243.54648 
L 471.475213 243.54648 
L 475.913478 243.54648 
L 480.351743 243.54648 
L 484.790008 243.54648 
L 489.228273 243.536597 
L 493.666538 243.526714 
L 498.104803 243.447649 
L 502.543068 242.904076 
L 506.981333 242.607582 
L 511.419598 242.390153 
L 515.857863 242.291321 
L 520.296128 240.047848 
L 524.734393 235.600434 
L 529.172658 235.017329 
L 533.610923 230.500733 
L 538.049188 230.471083 
L 542.487453 223.73078 
L 546.925718 222.88083 
L 551.363983 222.525037 
L 555.802248 222.297725 
L 560.240513 207.057919 
L 564.678778 200.940254 
L 569.117043 200.900722 
L 573.555308 198.884561 
L 577.993573 182.152401 
L 582.431838 179.108393 
L 586.870103 174.60168 
L 591.308368 174.245887 
L 595.746632 171.063516 
L 600.184897 170.98445 
L 604.623162 167.337571 
L 609.061427 167.248623 
L 613.499692 164.866785 
L 617.937957 162.781442 
L 622.376222 156.466115 
L 626.814487 154.430187 
L 631.252752 153.095963 
L 635.691017 145.555126 
L 640.129282 141.572219 
L 644.567547 138.77529 
L 649.005812 138.182301 
L 653.444077 137.006208 
L 657.882342 135.513853 
L 662.320607 133.556991 
L 666.758872 130.987374 
L 671.197137 130.84901 
L 675.635402 127.943366 
L 680.073667 124.345902 
L 684.511932 119.99732 
L 688.950197 118.811343 
L 693.388462 118.406134 
L 697.826727 108.068367 
L 702.264992 104.283124 
L 706.703257 103.79885 
L 711.141522 102.909367 
L 715.579787 94.548229 
L 720.018052 93.935474 
L 724.456317 79.921178 
L 728.894581 65.452258 
L 733.332846 55.322037 
L 737.72303 49.757828 
" style="fill:none;stroke:#000080;stroke-linecap:square;stroke-opacity:0.75;stroke-width:2;"/>
   </g>
   <g id="line2d_17">
    <path clip-path="url(#p436dd22ee1)" d="M 446.254773 233.672727 
L 740.800227 233.672727 
" style="fill:none;stroke:#ff0000;stroke-dasharray:3.7,1.6;stroke-dashoffset:0;"/>
   </g>
   <g id="patch_6">
    <path d="M 431.5275 253.44 
L 431.5275 36 
" style="fill:none;stroke:#000000;stroke-linecap:square;stroke-linejoin:miter;"/>
   </g>
   <g id="patch_7">
    <path d="M 431.5275 253.44 
L 755.5275 253.44 
" style="fill:none;stroke:#000000;stroke-linecap:square;stroke-linejoin:miter;"/>
   </g>
   <g id="text_14">
    <!-- Trapnell -->
    <defs>
     <path d="M -0.296875 72.90625 
L 61.375 72.90625 
L 61.375 64.59375 
L 35.5 64.59375 
L 35.5 0 
L 25.59375 0 
L 25.59375 64.59375 
L -0.296875 64.59375 
z
" id="DejaVuSans-84"/>
     <path d="M 41.109375 46.296875 
Q 39.59375 47.171875 37.8125 47.578125 
Q 36.03125 48 33.890625 48 
Q 26.265625 48 22.1875 43.046875 
Q 18.109375 38.09375 18.109375 28.8125 
L 18.109375 0 
L 9.078125 0 
L 9.078125 54.6875 
L 18.109375 54.6875 
L 18.109375 46.1875 
Q 20.953125 51.171875 25.484375 53.578125 
Q 30.03125 56 36.53125 56 
Q 37.453125 56 38.578125 55.875 
Q 39.703125 55.765625 41.0625 55.515625 
z
" id="DejaVuSans-114"/>
    </defs>
    <g transform="translate(460.982045 67.159261)scale(0.28 -0.28)">
     <use xlink:href="#DejaVuSans-84"/>
     <use x="60.865234" xlink:href="#DejaVuSans-114"/>
     <use x="101.978516" xlink:href="#DejaVuSans-97"/>
     <use x="163.257812" xlink:href="#DejaVuSans-112"/>
     <use x="226.734375" xlink:href="#DejaVuSans-110"/>
     <use x="290.113281" xlink:href="#DejaVuSans-101"/>
     <use x="351.636719" xlink:href="#DejaVuSans-108"/>
     <use x="379.419922" xlink:href="#DejaVuSans-108"/>
    </g>
   </g>
  </g>
  <g id="axes_3">
   <g id="patch_8">
    <path d="M 771.7275 253.44 
L 1095.7275 253.44 
L 1095.7275 36 
L 771.7275 36 
z
" style="fill:none;"/>
   </g>
   <g id="matplotlib.axis_5">
    <g id="xtick_7">
     <g id="line2d_18">
      <g>
       <use style="stroke:#000000;stroke-width:0.8;" x="786.454773" xlink:href="#m284efb0394" y="253.44"/>
      </g>
     </g>
     <g id="text_15">
      <!-- 0 -->
      <g transform="translate(777.547273 283.215625)scale(0.28 -0.28)">
       <use xlink:href="#DejaVuSans-48"/>
      </g>
     </g>
    </g>
    <g id="xtick_8">
     <g id="line2d_19">
      <g>
       <use style="stroke:#000000;stroke-width:0.8;" x="933.7275" xlink:href="#m284efb0394" y="253.44"/>
      </g>
     </g>
     <g id="text_16">
      <!-- 0.5 -->
      <g transform="translate(911.463125 283.215625)scale(0.28 -0.28)">
       <use xlink:href="#DejaVuSans-48"/>
       <use x="63.623047" xlink:href="#DejaVuSans-46"/>
       <use x="95.410156" xlink:href="#DejaVuSans-53"/>
      </g>
     </g>
    </g>
    <g id="xtick_9">
     <g id="line2d_20">
      <g>
       <use style="stroke:#000000;stroke-width:0.8;" x="1081.000227" xlink:href="#m284efb0394" y="253.44"/>
      </g>
     </g>
     <g id="text_17">
      <!-- 1 -->
      <g transform="translate(1072.092727 283.215625)scale(0.28 -0.28)">
       <use xlink:href="#DejaVuSans-49"/>
      </g>
     </g>
    </g>
    <g id="text_18">
     <!-- Quantiles -->
     <g transform="translate(867.207812 314.314375)scale(0.28 -0.28)">
      <use xlink:href="#DejaVuSans-81"/>
      <use x="78.710938" xlink:href="#DejaVuSans-117"/>
      <use x="142.089844" xlink:href="#DejaVuSans-97"/>
      <use x="203.369141" xlink:href="#DejaVuSans-110"/>
      <use x="266.748047" xlink:href="#DejaVuSans-116"/>
      <use x="305.957031" xlink:href="#DejaVuSans-105"/>
      <use x="333.740234" xlink:href="#DejaVuSans-108"/>
      <use x="361.523438" xlink:href="#DejaVuSans-101"/>
      <use x="423.046875" xlink:href="#DejaVuSans-115"/>
     </g>
    </g>
   </g>
   <g id="matplotlib.axis_6">
    <g id="ytick_7"/>
    <g id="ytick_8"/>
    <g id="ytick_9"/>
   </g>
   <g id="line2d_21">
    <path clip-path="url(#pf5aa982b3e)" d="M 787.090109 243.54648 
L 860.403907 243.437766 
L 865.903177 243.309285 
L 866.819722 243.161038 
L 883.31753 242.745946 
L 886.067165 242.607582 
L 888.816799 242.597699 
L 889.733344 242.320971 
L 890.649889 242.232023 
L 892.482979 241.807047 
L 894.316069 241.767515 
L 896.149159 241.471021 
L 897.065704 241.204176 
L 897.982249 241.204176 
L 898.898793 241.036162 
L 901.648428 240.917565 
L 904.398063 240.561772 
L 905.314608 240.344342 
L 906.231153 239.978666 
L 908.064243 239.731588 
L 908.980787 239.207781 
L 909.897332 238.990352 
L 911.730422 238.901404 
L 916.313147 237.794492 
L 917.229692 237.705543 
L 918.146237 236.648047 
L 919.979326 235.99576 
L 922.728961 235.689382 
L 923.645506 235.521369 
L 924.562051 234.829549 
L 926.395141 234.404574 
L 927.311686 233.495325 
L 929.144775 233.129649 
L 930.06132 232.625608 
L 931.89441 232.408179 
L 932.810955 232.210516 
L 933.7275 231.607645 
L 934.644045 230.530382 
L 936.477135 229.828679 
L 938.310225 229.117093 
L 939.226769 227.407309 
L 940.143314 227.357894 
L 941.976404 226.972451 
L 942.892949 224.580731 
L 943.809494 224.333652 
L 946.559129 221.991347 
L 947.475674 221.714619 
L 948.392219 221.704736 
L 949.308763 220.400161 
L 950.225308 217.464868 
L 951.141853 217.435219 
L 952.058398 217.198023 
L 952.974943 216.516087 
L 953.891488 216.130644 
L 954.808033 215.280694 
L 955.724578 215.162096 
L 957.557668 213.847638 
L 958.474213 213.738924 
L 959.390757 212.790142 
L 961.223847 212.424466 
L 963.056937 212.315751 
L 963.973482 211.989607 
L 964.890027 207.72009 
L 965.806572 206.346333 
L 966.723117 206.217852 
L 967.639662 205.83241 
L 968.556207 204.517952 
L 969.472751 203.75695 
L 970.389296 202.244829 
L 971.305841 201.533243 
L 972.222386 198.815379 
L 973.138931 198.617716 
L 974.055476 198.261923 
L 974.972021 198.093909 
L 975.888566 195.455111 
L 976.805111 194.960953 
L 977.721656 194.941187 
L 978.638201 194.624927 
L 979.554745 190.958281 
L 981.387835 190.898982 
L 983.220925 189.969967 
L 985.054015 189.564758 
L 985.97056 189.001419 
L 986.887105 187.40035 
L 987.80365 186.599815 
L 988.720195 184.385991 
L 989.636739 184.297043 
L 990.553284 180.580981 
L 991.469829 178.693301 
L 993.302919 178.574704 
L 994.219464 176.202749 
L 995.136009 174.552265 
L 996.052554 173.218041 
L 996.969099 172.516337 
L 997.885644 171.597205 
L 998.802189 170.361812 
L 999.718733 170.351929 
L 1000.635278 169.620577 
L 1001.551823 169.44268 
L 1002.468368 168.701445 
L 1003.384913 168.632263 
L 1004.301458 162.139038 
L 1005.218003 162.05009 
L 1006.134548 160.82458 
L 1007.051093 160.369956 
L 1007.967638 159.361875 
L 1008.884183 159.253161 
L 1009.800727 156.970155 
L 1010.717272 154.291823 
L 1011.633817 153.679068 
L 1012.550362 149.794994 
L 1013.466907 149.004342 
L 1014.383452 148.648549 
L 1015.299997 148.035794 
L 1016.216542 147.600936 
L 1018.049632 147.442806 
L 1018.966176 145.624308 
L 1020.799266 145.070852 
L 1021.715811 143.548848 
L 1022.632356 142.916327 
L 1023.548901 140.386242 
L 1024.465446 139.921734 
L 1025.381991 139.071784 
L 1026.298536 136.324271 
L 1027.215081 134.693552 
L 1028.131626 133.636056 
L 1029.04817 133.576757 
L 1029.964715 133.290146 
L 1030.88126 131.323401 
L 1031.797805 130.058359 
L 1032.71435 123.327939 
L 1033.630895 123.11051 
L 1034.54744 123.011678 
L 1035.463985 120.649607 
L 1037.297075 120.125801 
L 1038.21362 116.982961 
L 1039.130164 114.788904 
L 1040.046709 109.99558 
L 1040.963254 109.214812 
L 1043.712889 100.408932 
L 1044.629434 99.865359 
L 1045.545979 95.665024 
L 1047.379069 93.223888 
L 1048.295614 86.671364 
L 1050.128703 86.167324 
L 1051.045248 83.716305 
L 1051.961793 79.713632 
L 1052.878338 79.654333 
L 1053.794883 78.656136 
L 1054.711428 78.389291 
L 1055.627973 78.320109 
L 1056.544518 78.092797 
L 1058.377608 77.924783 
L 1059.294152 76.234766 
L 1060.210697 75.038906 
L 1061.127242 74.524982 
L 1062.043787 73.79363 
L 1062.960332 72.795433 
L 1064.793422 72.212327 
L 1065.709967 69.059605 
L 1066.626512 65.037166 
L 1067.543057 62.862875 
L 1068.459602 62.171055 
L 1069.376146 59.285177 
L 1070.292691 59.038099 
L 1071.209236 58.366045 
L 1072.125781 57.239367 
L 1073.042326 57.209717 
L 1073.958871 55.924909 
L 1074.875416 55.70748 
L 1075.791961 54.205242 
L 1076.708506 53.987813 
L 1077.625051 48.779397 
L 1078.541596 47.207977 
L 1079.45814 47.128912 
L 1080.364891 46.71382 
L 1080.364891 46.71382 
" style="fill:none;stroke:#b8860b;stroke-linecap:square;stroke-opacity:0.75;stroke-width:2;"/>
   </g>
   <g id="line2d_22">
    <path clip-path="url(#pf5aa982b3e)" d="M 787.125598 243.54648 
L 864.534262 243.437766 
L 869.37295 243.309285 
L 870.340687 243.161038 
L 886.792226 242.745946 
L 889.695439 242.607582 
L 892.598652 242.597699 
L 893.56639 242.320971 
L 894.534127 242.232023 
L 896.469602 241.807047 
L 898.405078 241.767515 
L 900.340553 241.471021 
L 901.30829 241.204176 
L 902.276028 241.204176 
L 903.243766 241.036162 
L 906.146978 240.917565 
L 909.050191 240.561772 
L 910.017929 240.344342 
L 910.985666 239.978666 
L 912.921142 239.731588 
L 913.888879 239.207781 
L 914.856617 238.990352 
L 916.792092 238.901404 
L 917.75983 238.367714 
L 918.727567 238.199701 
L 919.695305 237.893323 
L 921.63078 237.705543 
L 922.598518 236.648047 
L 923.566255 235.99576 
L 924.533993 235.926578 
L 926.469468 235.521369 
L 927.437206 234.829549 
L 928.404943 234.404574 
L 929.372681 233.495325 
L 931.308156 233.129649 
L 932.275894 232.625608 
L 934.211369 232.408179 
L 935.179106 232.210516 
L 936.146844 231.607645 
L 937.114582 230.530382 
L 939.050057 229.828679 
L 940.985532 229.117093 
L 941.95327 227.407309 
L 942.921007 227.357894 
L 944.856482 226.972451 
L 945.82422 224.580731 
L 946.791958 224.333652 
L 947.759695 223.533118 
L 948.727433 221.991347 
L 949.69517 221.714619 
L 950.662908 221.704736 
L 951.630646 220.400161 
L 952.598383 217.464868 
L 953.566121 217.435219 
L 954.533858 217.198023 
L 955.501596 216.516087 
L 956.469334 216.130644 
L 957.437071 215.280694 
L 958.404809 215.162096 
L 960.340284 213.847638 
L 961.308022 213.738924 
L 962.275759 212.612245 
L 963.243497 212.424466 
L 965.178972 212.315751 
L 966.14671 207.72009 
L 967.114447 206.346333 
L 968.082185 206.217852 
L 969.049922 205.83241 
L 970.01766 204.517952 
L 970.985398 203.75695 
L 971.953135 202.244829 
L 972.920873 201.533243 
L 973.88861 198.815379 
L 974.856348 198.617716 
L 975.824086 198.261923 
L 976.791823 198.093909 
L 977.759561 195.455111 
L 978.727298 194.960953 
L 979.695036 194.941187 
L 980.662774 194.624927 
L 981.630511 190.958281 
L 983.565986 190.898982 
L 985.501462 189.969967 
L 987.436937 189.564758 
L 988.404674 189.001419 
L 989.372412 187.40035 
L 990.34015 186.599815 
L 991.307887 184.385991 
L 992.275625 180.580981 
L 993.243362 178.693301 
L 995.178838 178.574704 
L 996.146575 176.202749 
L 997.114313 174.552265 
L 998.08205 173.218041 
L 999.049788 172.516337 
L 1000.017526 171.597205 
L 1000.985263 170.361812 
L 1001.953001 170.351929 
L 1002.920738 169.620577 
L 1003.888476 169.44268 
L 1004.856214 168.701445 
L 1005.823951 168.632263 
L 1006.791689 162.139038 
L 1007.759426 162.05009 
L 1008.727164 160.82458 
L 1009.694902 160.369956 
L 1010.662639 159.361875 
L 1011.630377 159.253161 
L 1012.598114 156.970155 
L 1013.565852 154.291823 
L 1014.53359 153.679068 
L 1015.501327 149.794994 
L 1016.469065 149.004342 
L 1017.436802 148.648549 
L 1018.40454 147.600936 
L 1020.340015 147.442806 
L 1021.307753 145.624308 
L 1023.243228 145.070852 
L 1024.210966 142.916327 
L 1025.178703 140.386242 
L 1026.146441 139.921734 
L 1027.114178 139.071784 
L 1028.081916 134.693552 
L 1029.049654 133.576757 
L 1030.017391 133.290146 
L 1030.985129 131.323401 
L 1031.952866 130.058359 
L 1032.920604 123.327939 
L 1033.888342 123.11051 
L 1034.856079 120.649607 
L 1036.791554 120.125801 
L 1037.759292 116.982961 
L 1038.72703 114.788904 
L 1039.694767 109.99558 
L 1040.662505 109.214812 
L 1043.565718 100.408932 
L 1044.533455 99.865359 
L 1045.501193 95.665024 
L 1046.46893 93.223888 
L 1047.436668 86.671364 
L 1049.372143 86.167324 
L 1050.339881 83.716305 
L 1051.307618 79.713632 
L 1052.275356 79.654333 
L 1053.243094 78.656136 
L 1054.210831 78.389291 
L 1055.178569 78.320109 
L 1056.146306 78.092797 
L 1058.081782 77.924783 
L 1060.017257 74.524982 
L 1060.984994 73.79363 
L 1061.952732 72.795433 
L 1063.888207 72.212327 
L 1064.855945 69.059605 
L 1065.823682 65.037166 
L 1066.79142 62.862875 
L 1067.759158 62.171055 
L 1068.726895 59.285177 
L 1069.694633 59.038099 
L 1070.66237 58.366045 
L 1071.630108 57.239367 
L 1072.597846 57.209717 
L 1073.565583 55.924909 
L 1074.533321 55.70748 
L 1075.501058 54.205242 
L 1076.468796 53.987813 
L 1077.436534 48.779397 
L 1078.404271 47.207977 
L 1079.372009 47.128912 
L 1080.329402 46.71382 
L 1080.329402 46.71382 
" style="fill:none;stroke:#8b0000;stroke-linecap:square;stroke-opacity:0.75;stroke-width:2;"/>
   </g>
   <g id="line2d_23">
    <path clip-path="url(#pf5aa982b3e)" d="M 788.739833 243.54648 
L 792.000263 243.54648 
L 795.296245 243.54648 
L 798.592227 243.54648 
L 801.88821 243.54648 
L 805.184192 243.54648 
L 808.480174 243.54648 
L 811.776156 243.54648 
L 815.072139 243.54648 
L 818.368121 243.54648 
L 821.664103 243.54648 
L 824.960085 243.54648 
L 828.256068 243.54648 
L 831.55205 243.54648 
L 834.848032 243.54648 
L 838.144014 243.54648 
L 841.439997 243.54648 
L 844.735979 243.54648 
L 848.031961 243.54648 
L 851.327944 243.54648 
L 854.623926 243.54648 
L 857.919908 243.54648 
L 861.21589 243.54648 
L 864.511873 243.536597 
L 867.807855 243.536597 
L 871.103837 243.536597 
L 874.399819 243.526714 
L 877.695802 243.526714 
L 880.991784 243.526714 
L 884.287766 243.516831 
L 887.583748 243.487182 
L 890.879731 243.477298 
L 894.175713 243.467415 
L 897.471695 243.437766 
L 900.767677 243.427883 
L 904.06366 243.141272 
L 907.359642 243.131389 
L 910.655624 243.07209 
L 913.951606 243.022674 
L 917.247589 242.983141 
L 920.543571 242.627348 
L 923.839553 242.607582 
L 927.135535 242.597699 
L 930.431518 241.797164 
L 933.7275 241.767515 
L 937.023482 241.036162 
L 940.319465 239.731588 
L 943.615447 238.901404 
L 946.911429 238.199701 
L 950.207411 237.893323 
L 953.503394 237.705543 
L 956.799376 235.926578 
L 960.095358 234.829549 
L 963.39134 232.625608 
L 966.687323 232.53666 
L 969.983305 232.210516 
L 973.279287 227.407309 
L 976.575269 227.140464 
L 979.871252 221.991347 
L 983.167234 217.464868 
L 986.463216 215.162096 
L 989.759198 214.490042 
L 993.055181 212.315751 
L 996.351163 207.72009 
L 999.647145 202.244829 
L 1002.943127 201.533243 
L 1006.23911 198.261923 
L 1009.535092 198.093909 
L 1012.831074 190.434474 
L 1016.127056 189.713005 
L 1019.423039 187.40035 
L 1022.719021 178.574704 
L 1026.015003 174.552265 
L 1029.310986 169.44268 
L 1032.606968 156.970155 
L 1035.90295 153.679068 
L 1039.198932 149.794994 
L 1042.494915 149.004342 
L 1045.790897 147.442806 
L 1049.086879 145.070852 
L 1052.382861 130.058359 
L 1055.678844 109.99558 
L 1058.974826 109.214812 
L 1062.270808 100.408932 
L 1065.56679 99.865359 
L 1068.862773 79.654333 
L 1072.158755 78.656136 
L 1075.454737 72.795433 
L 1078.715167 53.987813 
" style="fill:none;stroke:#000080;stroke-linecap:square;stroke-opacity:0.75;stroke-width:2;"/>
   </g>
   <g id="line2d_24">
    <path clip-path="url(#pf5aa982b3e)" d="M 786.454773 233.672727 
L 1081.000227 233.672727 
" style="fill:none;stroke:#ff0000;stroke-dasharray:3.7,1.6;stroke-dashoffset:0;"/>
   </g>
   <g id="patch_9">
    <path d="M 771.7275 253.44 
L 771.7275 36 
" style="fill:none;stroke:#000000;stroke-linecap:square;stroke-linejoin:miter;"/>
   </g>
   <g id="patch_10">
    <path d="M 771.7275 253.44 
L 1095.7275 253.44 
" style="fill:none;stroke:#000000;stroke-linecap:square;stroke-linejoin:miter;"/>
   </g>
   <g id="text_19">
    <!-- Song -->
    <defs>
     <path d="M 53.515625 70.515625 
L 53.515625 60.890625 
Q 47.90625 63.578125 42.921875 64.890625 
Q 37.9375 66.21875 33.296875 66.21875 
Q 25.25 66.21875 20.875 63.09375 
Q 16.5 59.96875 16.5 54.203125 
Q 16.5 49.359375 19.40625 46.890625 
Q 22.3125 44.4375 30.421875 42.921875 
L 36.375 41.703125 
Q 47.40625 39.59375 52.65625 34.296875 
Q 57.90625 29 57.90625 20.125 
Q 57.90625 9.515625 50.796875 4.046875 
Q 43.703125 -1.421875 29.984375 -1.421875 
Q 24.8125 -1.421875 18.96875 -0.25 
Q 13.140625 0.921875 6.890625 3.21875 
L 6.890625 13.375 
Q 12.890625 10.015625 18.65625 8.296875 
Q 24.421875 6.59375 29.984375 6.59375 
Q 38.421875 6.59375 43.015625 9.90625 
Q 47.609375 13.234375 47.609375 19.390625 
Q 47.609375 24.75 44.3125 27.78125 
Q 41.015625 30.8125 33.5 32.328125 
L 27.484375 33.5 
Q 16.453125 35.6875 11.515625 40.375 
Q 6.59375 45.0625 6.59375 53.421875 
Q 6.59375 63.09375 13.40625 68.65625 
Q 20.21875 74.21875 32.171875 74.21875 
Q 37.3125 74.21875 42.625 73.28125 
Q 47.953125 72.359375 53.515625 70.515625 
z
" id="DejaVuSans-83"/>
     <path d="M 30.609375 48.390625 
Q 23.390625 48.390625 19.1875 42.75 
Q 14.984375 37.109375 14.984375 27.296875 
Q 14.984375 17.484375 19.15625 11.84375 
Q 23.34375 6.203125 30.609375 6.203125 
Q 37.796875 6.203125 41.984375 11.859375 
Q 46.1875 17.53125 46.1875 27.296875 
Q 46.1875 37.015625 41.984375 42.703125 
Q 37.796875 48.390625 30.609375 48.390625 
z
M 30.609375 56 
Q 42.328125 56 49.015625 48.375 
Q 55.71875 40.765625 55.71875 27.296875 
Q 55.71875 13.875 49.015625 6.21875 
Q 42.328125 -1.421875 30.609375 -1.421875 
Q 18.84375 -1.421875 12.171875 6.21875 
Q 5.515625 13.875 5.515625 27.296875 
Q 5.515625 40.765625 12.171875 48.375 
Q 18.84375 56 30.609375 56 
z
" id="DejaVuSans-111"/>
     <path d="M 45.40625 27.984375 
Q 45.40625 37.75 41.375 43.109375 
Q 37.359375 48.484375 30.078125 48.484375 
Q 22.859375 48.484375 18.828125 43.109375 
Q 14.796875 37.75 14.796875 27.984375 
Q 14.796875 18.265625 18.828125 12.890625 
Q 22.859375 7.515625 30.078125 7.515625 
Q 37.359375 7.515625 41.375 12.890625 
Q 45.40625 18.265625 45.40625 27.984375 
z
M 54.390625 6.78125 
Q 54.390625 -7.171875 48.1875 -13.984375 
Q 42 -20.796875 29.203125 -20.796875 
Q 24.46875 -20.796875 20.265625 -20.09375 
Q 16.0625 -19.390625 12.109375 -17.921875 
L 12.109375 -9.1875 
Q 16.0625 -11.328125 19.921875 -12.34375 
Q 23.78125 -13.375 27.78125 -13.375 
Q 36.625 -13.375 41.015625 -8.765625 
Q 45.40625 -4.15625 45.40625 5.171875 
L 45.40625 9.625 
Q 42.625 4.78125 38.28125 2.390625 
Q 33.9375 0 27.875 0 
Q 17.828125 0 11.671875 7.65625 
Q 5.515625 15.328125 5.515625 27.984375 
Q 5.515625 40.671875 11.671875 48.328125 
Q 17.828125 56 27.875 56 
Q 33.9375 56 38.28125 53.609375 
Q 42.625 51.21875 45.40625 46.390625 
L 45.40625 54.6875 
L 54.390625 54.6875 
z
" id="DejaVuSans-103"/>
    </defs>
    <g transform="translate(801.182045 67.159261)scale(0.28 -0.28)">
     <use xlink:href="#DejaVuSans-83"/>
     <use x="63.476562" xlink:href="#DejaVuSans-111"/>
     <use x="124.658203" xlink:href="#DejaVuSans-110"/>
     <use x="188.037109" xlink:href="#DejaVuSans-103"/>
    </g>
   </g>
  </g>
  <g id="text_20">
   <!-- p-values of Autocorrelation test -->
   <defs>
    <path id="DejaVuSans-32"/>
    <path d="M 37.109375 75.984375 
L 37.109375 68.5 
L 28.515625 68.5 
Q 23.6875 68.5 21.796875 66.546875 
Q 19.921875 64.59375 19.921875 59.515625 
L 19.921875 54.6875 
L 34.71875 54.6875 
L 34.71875 47.703125 
L 19.921875 47.703125 
L 19.921875 0 
L 10.890625 0 
L 10.890625 47.703125 
L 2.296875 47.703125 
L 2.296875 54.6875 
L 10.890625 54.6875 
L 10.890625 58.5 
Q 10.890625 67.625 15.140625 71.796875 
Q 19.390625 75.984375 28.609375 75.984375 
z
" id="DejaVuSans-102"/>
    <path d="M 34.1875 63.1875 
L 20.796875 26.90625 
L 47.609375 26.90625 
z
M 28.609375 72.90625 
L 39.796875 72.90625 
L 67.578125 0 
L 57.328125 0 
L 50.6875 18.703125 
L 17.828125 18.703125 
L 11.1875 0 
L 0.78125 0 
z
" id="DejaVuSans-65"/>
    <path d="M 48.78125 52.59375 
L 48.78125 44.1875 
Q 44.96875 46.296875 41.140625 47.34375 
Q 37.3125 48.390625 33.40625 48.390625 
Q 24.65625 48.390625 19.8125 42.84375 
Q 14.984375 37.3125 14.984375 27.296875 
Q 14.984375 17.28125 19.8125 11.734375 
Q 24.65625 6.203125 33.40625 6.203125 
Q 37.3125 6.203125 41.140625 7.25 
Q 44.96875 8.296875 48.78125 10.40625 
L 48.78125 2.09375 
Q 45.015625 0.34375 40.984375 -0.53125 
Q 36.96875 -1.421875 32.421875 -1.421875 
Q 20.0625 -1.421875 12.78125 6.34375 
Q 5.515625 14.109375 5.515625 27.296875 
Q 5.515625 40.671875 12.859375 48.328125 
Q 20.21875 56 33.015625 56 
Q 37.15625 56 41.109375 55.140625 
Q 45.0625 54.296875 48.78125 52.59375 
z
" id="DejaVuSans-99"/>
   </defs>
   <g transform="translate(355.959062 28.475625)scale(0.28 -0.28)">
    <use xlink:href="#DejaVuSans-112"/>
    <use x="63.476562" xlink:href="#DejaVuSans-45"/>
    <use x="99.529297" xlink:href="#DejaVuSans-118"/>
    <use x="158.708984" xlink:href="#DejaVuSans-97"/>
    <use x="219.988281" xlink:href="#DejaVuSans-108"/>
    <use x="247.771484" xlink:href="#DejaVuSans-117"/>
    <use x="311.150391" xlink:href="#DejaVuSans-101"/>
    <use x="372.673828" xlink:href="#DejaVuSans-115"/>
    <use x="424.773438" xlink:href="#DejaVuSans-32"/>
    <use x="456.560547" xlink:href="#DejaVuSans-111"/>
    <use x="517.742188" xlink:href="#DejaVuSans-102"/>
    <use x="552.947266" xlink:href="#DejaVuSans-32"/>
    <use x="584.734375" xlink:href="#DejaVuSans-65"/>
    <use x="653.142578" xlink:href="#DejaVuSans-117"/>
    <use x="716.521484" xlink:href="#DejaVuSans-116"/>
    <use x="755.730469" xlink:href="#DejaVuSans-111"/>
    <use x="816.912109" xlink:href="#DejaVuSans-99"/>
    <use x="871.892578" xlink:href="#DejaVuSans-111"/>
    <use x="933.074219" xlink:href="#DejaVuSans-114"/>
    <use x="974.171875" xlink:href="#DejaVuSans-114"/>
    <use x="1015.253906" xlink:href="#DejaVuSans-101"/>
    <use x="1076.777344" xlink:href="#DejaVuSans-108"/>
    <use x="1104.560547" xlink:href="#DejaVuSans-97"/>
    <use x="1165.839844" xlink:href="#DejaVuSans-116"/>
    <use x="1205.048828" xlink:href="#DejaVuSans-105"/>
    <use x="1232.832031" xlink:href="#DejaVuSans-111"/>
    <use x="1294.013672" xlink:href="#DejaVuSans-110"/>
    <use x="1357.392578" xlink:href="#DejaVuSans-32"/>
    <use x="1389.179688" xlink:href="#DejaVuSans-116"/>
    <use x="1428.388672" xlink:href="#DejaVuSans-101"/>
    <use x="1489.912109" xlink:href="#DejaVuSans-115"/>
    <use x="1542.011719" xlink:href="#DejaVuSans-116"/>
   </g>
  </g>
 </g>
 <defs>
  <clipPath id="p8c0fce5dd2">
   <rect height="217.44" width="324" x="91.3275" y="36"/>
  </clipPath>
  <clipPath id="p436dd22ee1">
   <rect height="217.44" width="324" x="431.5275" y="36"/>
  </clipPath>
  <clipPath id="pf5aa982b3e">
   <rect height="217.44" width="324" x="771.7275" y="36"/>
  </clipPath>
 </defs>
</svg>
