<?xml version="1.0" encoding="utf-8" standalone="no"?>
<!DOCTYPE svg PUBLIC "-//W3C//DTD SVG 1.1//EN"
  "http://www.w3.org/Graphics/SVG/1.1/DTD/svg11.dtd">
<!-- Created with matplotlib (https://matplotlib.org/) -->
<svg height="363.535312pt" version="1.1" viewBox="0 0 1120.7425 363.535312" width="1120.7425pt" xmlns="http://www.w3.org/2000/svg" xmlns:xlink="http://www.w3.org/1999/xlink">
 <defs>
  <style type="text/css">
*{stroke-linecap:butt;stroke-linejoin:round;}
  </style>
 </defs>
 <g id="figure_1">
  <g id="patch_1">
   <path d="M 0 363.535312 
L 1120.7425 363.535312 
L 1120.7425 -0 
L 0 -0 
z
" style="fill:none;"/>
  </g>
  <g id="axes_1">
   <g id="patch_2">
    <path d="M 109.1425 289.637812 
L 433.1425 289.637812 
L 433.1425 17.837813 
L 109.1425 17.837813 
z
" style="fill:none;"/>
   </g>
   <g id="matplotlib.axis_1">
    <g id="xtick_1">
     <g id="line2d_1">
      <defs>
       <path d="M 0 0 
L 0 5 
" id="md92854af8d" style="stroke:#000000;stroke-width:0.8;"/>
      </defs>
      <g>
       <use style="stroke:#000000;stroke-width:0.8;" x="123.869773" xlink:href="#md92854af8d" y="289.637812"/>
      </g>
     </g>
     <g id="text_1">
      <!-- 1 -->
      <defs>
       <path d="M 12.40625 8.296875 
L 28.515625 8.296875 
L 28.515625 63.921875 
L 10.984375 60.40625 
L 10.984375 69.390625 
L 28.421875 72.90625 
L 38.28125 72.90625 
L 38.28125 8.296875 
L 54.390625 8.296875 
L 54.390625 0 
L 12.40625 0 
z
" id="DejaVuSans-49"/>
      </defs>
      <g transform="translate(114.962273 319.413437)scale(0.28 -0.28)">
       <use xlink:href="#DejaVuSans-49"/>
      </g>
     </g>
    </g>
    <g id="xtick_2">
     <g id="line2d_2">
      <g>
       <use style="stroke:#000000;stroke-width:0.8;" x="197.506136" xlink:href="#md92854af8d" y="289.637812"/>
      </g>
     </g>
     <g id="text_2">
      <!-- 2 -->
      <defs>
       <path d="M 19.1875 8.296875 
L 53.609375 8.296875 
L 53.609375 0 
L 7.328125 0 
L 7.328125 8.296875 
Q 12.9375 14.109375 22.625 23.890625 
Q 32.328125 33.6875 34.8125 36.53125 
Q 39.546875 41.84375 41.421875 45.53125 
Q 43.3125 49.21875 43.3125 52.78125 
Q 43.3125 58.59375 39.234375 62.25 
Q 35.15625 65.921875 28.609375 65.921875 
Q 23.96875 65.921875 18.8125 64.3125 
Q 13.671875 62.703125 7.8125 59.421875 
L 7.8125 69.390625 
Q 13.765625 71.78125 18.9375 73 
Q 24.125 74.21875 28.421875 74.21875 
Q 39.75 74.21875 46.484375 68.546875 
Q 53.21875 62.890625 53.21875 53.421875 
Q 53.21875 48.921875 51.53125 44.890625 
Q 49.859375 40.875 45.40625 35.40625 
Q 44.1875 33.984375 37.640625 27.21875 
Q 31.109375 20.453125 19.1875 8.296875 
z
" id="DejaVuSans-50"/>
      </defs>
      <g transform="translate(188.598636 319.413437)scale(0.28 -0.28)">
       <use xlink:href="#DejaVuSans-50"/>
      </g>
     </g>
    </g>
    <g id="xtick_3">
     <g id="line2d_3">
      <g>
       <use style="stroke:#000000;stroke-width:0.8;" x="271.1425" xlink:href="#md92854af8d" y="289.637812"/>
      </g>
     </g>
     <g id="text_3">
      <!-- 3 -->
      <defs>
       <path d="M 40.578125 39.3125 
Q 47.65625 37.796875 51.625 33 
Q 55.609375 28.21875 55.609375 21.1875 
Q 55.609375 10.40625 48.1875 4.484375 
Q 40.765625 -1.421875 27.09375 -1.421875 
Q 22.515625 -1.421875 17.65625 -0.515625 
Q 12.796875 0.390625 7.625 2.203125 
L 7.625 11.71875 
Q 11.71875 9.328125 16.59375 8.109375 
Q 21.484375 6.890625 26.8125 6.890625 
Q 36.078125 6.890625 40.9375 10.546875 
Q 45.796875 14.203125 45.796875 21.1875 
Q 45.796875 27.640625 41.28125 31.265625 
Q 36.765625 34.90625 28.71875 34.90625 
L 20.21875 34.90625 
L 20.21875 43.015625 
L 29.109375 43.015625 
Q 36.375 43.015625 40.234375 45.921875 
Q 44.09375 48.828125 44.09375 54.296875 
Q 44.09375 59.90625 40.109375 62.90625 
Q 36.140625 65.921875 28.71875 65.921875 
Q 24.65625 65.921875 20.015625 65.03125 
Q 15.375 64.15625 9.8125 62.3125 
L 9.8125 71.09375 
Q 15.4375 72.65625 20.34375 73.4375 
Q 25.25 74.21875 29.59375 74.21875 
Q 40.828125 74.21875 47.359375 69.109375 
Q 53.90625 64.015625 53.90625 55.328125 
Q 53.90625 49.265625 50.4375 45.09375 
Q 46.96875 40.921875 40.578125 39.3125 
z
" id="DejaVuSans-51"/>
      </defs>
      <g transform="translate(262.235 319.413437)scale(0.28 -0.28)">
       <use xlink:href="#DejaVuSans-51"/>
      </g>
     </g>
    </g>
    <g id="xtick_4">
     <g id="line2d_4">
      <g>
       <use style="stroke:#000000;stroke-width:0.8;" x="344.778864" xlink:href="#md92854af8d" y="289.637812"/>
      </g>
     </g>
     <g id="text_4">
      <!-- 4 -->
      <defs>
       <path d="M 37.796875 64.3125 
L 12.890625 25.390625 
L 37.796875 25.390625 
z
M 35.203125 72.90625 
L 47.609375 72.90625 
L 47.609375 25.390625 
L 58.015625 25.390625 
L 58.015625 17.1875 
L 47.609375 17.1875 
L 47.609375 0 
L 37.796875 0 
L 37.796875 17.1875 
L 4.890625 17.1875 
L 4.890625 26.703125 
z
" id="DejaVuSans-52"/>
      </defs>
      <g transform="translate(335.871364 319.413437)scale(0.28 -0.28)">
       <use xlink:href="#DejaVuSans-52"/>
      </g>
     </g>
    </g>
    <g id="xtick_5">
     <g id="line2d_5">
      <g>
       <use style="stroke:#000000;stroke-width:0.8;" x="418.415227" xlink:href="#md92854af8d" y="289.637812"/>
      </g>
     </g>
     <g id="text_5">
      <!-- 5 -->
      <defs>
       <path d="M 10.796875 72.90625 
L 49.515625 72.90625 
L 49.515625 64.59375 
L 19.828125 64.59375 
L 19.828125 46.734375 
Q 21.96875 47.46875 24.109375 47.828125 
Q 26.265625 48.1875 28.421875 48.1875 
Q 40.625 48.1875 47.75 41.5 
Q 54.890625 34.8125 54.890625 23.390625 
Q 54.890625 11.625 47.5625 5.09375 
Q 40.234375 -1.421875 26.90625 -1.421875 
Q 22.3125 -1.421875 17.546875 -0.640625 
Q 12.796875 0.140625 7.71875 1.703125 
L 7.71875 11.625 
Q 12.109375 9.234375 16.796875 8.0625 
Q 21.484375 6.890625 26.703125 6.890625 
Q 35.15625 6.890625 40.078125 11.328125 
Q 45.015625 15.765625 45.015625 23.390625 
Q 45.015625 31 40.078125 35.4375 
Q 35.15625 39.890625 26.703125 39.890625 
Q 22.75 39.890625 18.8125 39.015625 
Q 14.890625 38.140625 10.796875 36.28125 
z
" id="DejaVuSans-53"/>
      </defs>
      <g transform="translate(409.507727 319.413437)scale(0.28 -0.28)">
       <use xlink:href="#DejaVuSans-53"/>
      </g>
     </g>
    </g>
    <g id="text_6">
     <!-- -log10 p-value -->
     <defs>
      <path d="M 4.890625 31.390625 
L 31.203125 31.390625 
L 31.203125 23.390625 
L 4.890625 23.390625 
z
" id="DejaVuSans-45"/>
      <path d="M 9.421875 75.984375 
L 18.40625 75.984375 
L 18.40625 0 
L 9.421875 0 
z
" id="DejaVuSans-108"/>
      <path d="M 30.609375 48.390625 
Q 23.390625 48.390625 19.1875 42.75 
Q 14.984375 37.109375 14.984375 27.296875 
Q 14.984375 17.484375 19.15625 11.84375 
Q 23.34375 6.203125 30.609375 6.203125 
Q 37.796875 6.203125 41.984375 11.859375 
Q 46.1875 17.53125 46.1875 27.296875 
Q 46.1875 37.015625 41.984375 42.703125 
Q 37.796875 48.390625 30.609375 48.390625 
z
M 30.609375 56 
Q 42.328125 56 49.015625 48.375 
Q 55.71875 40.765625 55.71875 27.296875 
Q 55.71875 13.875 49.015625 6.21875 
Q 42.328125 -1.421875 30.609375 -1.421875 
Q 18.84375 -1.421875 12.171875 6.21875 
Q 5.515625 13.875 5.515625 27.296875 
Q 5.515625 40.765625 12.171875 48.375 
Q 18.84375 56 30.609375 56 
z
" id="DejaVuSans-111"/>
      <path d="M 45.40625 27.984375 
Q 45.40625 37.75 41.375 43.109375 
Q 37.359375 48.484375 30.078125 48.484375 
Q 22.859375 48.484375 18.828125 43.109375 
Q 14.796875 37.75 14.796875 27.984375 
Q 14.796875 18.265625 18.828125 12.890625 
Q 22.859375 7.515625 30.078125 7.515625 
Q 37.359375 7.515625 41.375 12.890625 
Q 45.40625 18.265625 45.40625 27.984375 
z
M 54.390625 6.78125 
Q 54.390625 -7.171875 48.1875 -13.984375 
Q 42 -20.796875 29.203125 -20.796875 
Q 24.46875 -20.796875 20.265625 -20.09375 
Q 16.0625 -19.390625 12.109375 -17.921875 
L 12.109375 -9.1875 
Q 16.0625 -11.328125 19.921875 -12.34375 
Q 23.78125 -13.375 27.78125 -13.375 
Q 36.625 -13.375 41.015625 -8.765625 
Q 45.40625 -4.15625 45.40625 5.171875 
L 45.40625 9.625 
Q 42.625 4.78125 38.28125 2.390625 
Q 33.9375 0 27.875 0 
Q 17.828125 0 11.671875 7.65625 
Q 5.515625 15.328125 5.515625 27.984375 
Q 5.515625 40.671875 11.671875 48.328125 
Q 17.828125 56 27.875 56 
Q 33.9375 56 38.28125 53.609375 
Q 42.625 51.21875 45.40625 46.390625 
L 45.40625 54.6875 
L 54.390625 54.6875 
z
" id="DejaVuSans-103"/>
      <path d="M 31.78125 66.40625 
Q 24.171875 66.40625 20.328125 58.90625 
Q 16.5 51.421875 16.5 36.375 
Q 16.5 21.390625 20.328125 13.890625 
Q 24.171875 6.390625 31.78125 6.390625 
Q 39.453125 6.390625 43.28125 13.890625 
Q 47.125 21.390625 47.125 36.375 
Q 47.125 51.421875 43.28125 58.90625 
Q 39.453125 66.40625 31.78125 66.40625 
z
M 31.78125 74.21875 
Q 44.046875 74.21875 50.515625 64.515625 
Q 56.984375 54.828125 56.984375 36.375 
Q 56.984375 17.96875 50.515625 8.265625 
Q 44.046875 -1.421875 31.78125 -1.421875 
Q 19.53125 -1.421875 13.0625 8.265625 
Q 6.59375 17.96875 6.59375 36.375 
Q 6.59375 54.828125 13.0625 64.515625 
Q 19.53125 74.21875 31.78125 74.21875 
z
" id="DejaVuSans-48"/>
      <path id="DejaVuSans-32"/>
      <path d="M 18.109375 8.203125 
L 18.109375 -20.796875 
L 9.078125 -20.796875 
L 9.078125 54.6875 
L 18.109375 54.6875 
L 18.109375 46.390625 
Q 20.953125 51.265625 25.265625 53.625 
Q 29.59375 56 35.59375 56 
Q 45.5625 56 51.78125 48.09375 
Q 58.015625 40.1875 58.015625 27.296875 
Q 58.015625 14.40625 51.78125 6.484375 
Q 45.5625 -1.421875 35.59375 -1.421875 
Q 29.59375 -1.421875 25.265625 0.953125 
Q 20.953125 3.328125 18.109375 8.203125 
z
M 48.6875 27.296875 
Q 48.6875 37.203125 44.609375 42.84375 
Q 40.53125 48.484375 33.40625 48.484375 
Q 26.265625 48.484375 22.1875 42.84375 
Q 18.109375 37.203125 18.109375 27.296875 
Q 18.109375 17.390625 22.1875 11.75 
Q 26.265625 6.109375 33.40625 6.109375 
Q 40.53125 6.109375 44.609375 11.75 
Q 48.6875 17.390625 48.6875 27.296875 
z
" id="DejaVuSans-112"/>
      <path d="M 2.984375 54.6875 
L 12.5 54.6875 
L 29.59375 8.796875 
L 46.6875 54.6875 
L 56.203125 54.6875 
L 35.6875 0 
L 23.484375 0 
z
" id="DejaVuSans-118"/>
      <path d="M 34.28125 27.484375 
Q 23.390625 27.484375 19.1875 25 
Q 14.984375 22.515625 14.984375 16.5 
Q 14.984375 11.71875 18.140625 8.90625 
Q 21.296875 6.109375 26.703125 6.109375 
Q 34.1875 6.109375 38.703125 11.40625 
Q 43.21875 16.703125 43.21875 25.484375 
L 43.21875 27.484375 
z
M 52.203125 31.203125 
L 52.203125 0 
L 43.21875 0 
L 43.21875 8.296875 
Q 40.140625 3.328125 35.546875 0.953125 
Q 30.953125 -1.421875 24.3125 -1.421875 
Q 15.921875 -1.421875 10.953125 3.296875 
Q 6 8.015625 6 15.921875 
Q 6 25.140625 12.171875 29.828125 
Q 18.359375 34.515625 30.609375 34.515625 
L 43.21875 34.515625 
L 43.21875 35.40625 
Q 43.21875 41.609375 39.140625 45 
Q 35.0625 48.390625 27.6875 48.390625 
Q 23 48.390625 18.546875 47.265625 
Q 14.109375 46.140625 10.015625 43.890625 
L 10.015625 52.203125 
Q 14.9375 54.109375 19.578125 55.046875 
Q 24.21875 56 28.609375 56 
Q 40.484375 56 46.34375 49.84375 
Q 52.203125 43.703125 52.203125 31.203125 
z
" id="DejaVuSans-97"/>
      <path d="M 8.5 21.578125 
L 8.5 54.6875 
L 17.484375 54.6875 
L 17.484375 21.921875 
Q 17.484375 14.15625 20.5 10.265625 
Q 23.53125 6.390625 29.59375 6.390625 
Q 36.859375 6.390625 41.078125 11.03125 
Q 45.3125 15.671875 45.3125 23.6875 
L 45.3125 54.6875 
L 54.296875 54.6875 
L 54.296875 0 
L 45.3125 0 
L 45.3125 8.40625 
Q 42.046875 3.421875 37.71875 1 
Q 33.40625 -1.421875 27.6875 -1.421875 
Q 18.265625 -1.421875 13.375 4.4375 
Q 8.5 10.296875 8.5 21.578125 
z
M 31.109375 56 
z
" id="DejaVuSans-117"/>
      <path d="M 56.203125 29.59375 
L 56.203125 25.203125 
L 14.890625 25.203125 
Q 15.484375 15.921875 20.484375 11.0625 
Q 25.484375 6.203125 34.421875 6.203125 
Q 39.59375 6.203125 44.453125 7.46875 
Q 49.3125 8.734375 54.109375 11.28125 
L 54.109375 2.78125 
Q 49.265625 0.734375 44.1875 -0.34375 
Q 39.109375 -1.421875 33.890625 -1.421875 
Q 20.796875 -1.421875 13.15625 6.1875 
Q 5.515625 13.8125 5.515625 26.8125 
Q 5.515625 40.234375 12.765625 48.109375 
Q 20.015625 56 32.328125 56 
Q 43.359375 56 49.78125 48.890625 
Q 56.203125 41.796875 56.203125 29.59375 
z
M 47.21875 32.234375 
Q 47.125 39.59375 43.09375 43.984375 
Q 39.0625 48.390625 32.421875 48.390625 
Q 24.90625 48.390625 20.390625 44.140625 
Q 15.875 39.890625 15.1875 32.171875 
z
" id="DejaVuSans-101"/>
     </defs>
     <g transform="translate(170.3075 350.512187)scale(0.28 -0.28)">
      <use xlink:href="#DejaVuSans-45"/>
      <use x="36.083984" xlink:href="#DejaVuSans-108"/>
      <use x="63.867188" xlink:href="#DejaVuSans-111"/>
      <use x="125.048828" xlink:href="#DejaVuSans-103"/>
      <use x="188.525391" xlink:href="#DejaVuSans-49"/>
      <use x="252.148438" xlink:href="#DejaVuSans-48"/>
      <use x="315.771484" xlink:href="#DejaVuSans-32"/>
      <use x="347.558594" xlink:href="#DejaVuSans-112"/>
      <use x="411.035156" xlink:href="#DejaVuSans-45"/>
      <use x="447.087891" xlink:href="#DejaVuSans-118"/>
      <use x="506.267578" xlink:href="#DejaVuSans-97"/>
      <use x="567.546875" xlink:href="#DejaVuSans-108"/>
      <use x="595.330078" xlink:href="#DejaVuSans-117"/>
      <use x="658.708984" xlink:href="#DejaVuSans-101"/>
     </g>
    </g>
   </g>
   <g id="matplotlib.axis_2">
    <g id="ytick_1">
     <g id="line2d_6">
      <defs>
       <path d="M 0 0 
L -5 0 
" id="m502a56befc" style="stroke:#000000;stroke-width:0.8;"/>
      </defs>
      <g>
       <use style="stroke:#000000;stroke-width:0.8;" x="109.1425" xlink:href="#m502a56befc" y="289.637812"/>
      </g>
     </g>
     <g id="text_7">
      <!-- 0.00 -->
      <defs>
       <path d="M 10.6875 12.40625 
L 21 12.40625 
L 21 0 
L 10.6875 0 
z
" id="DejaVuSans-46"/>
      </defs>
      <g transform="translate(38.29875 300.275625)scale(0.28 -0.28)">
       <use xlink:href="#DejaVuSans-48"/>
       <use x="63.623047" xlink:href="#DejaVuSans-46"/>
       <use x="95.410156" xlink:href="#DejaVuSans-48"/>
       <use x="159.033203" xlink:href="#DejaVuSans-48"/>
      </g>
     </g>
    </g>
    <g id="ytick_2">
     <g id="line2d_7">
      <g>
       <use style="stroke:#000000;stroke-width:0.8;" x="109.1425" xlink:href="#m502a56befc" y="221.687813"/>
      </g>
     </g>
     <g id="text_8">
      <!-- 0.25 -->
      <g transform="translate(38.29875 232.325625)scale(0.28 -0.28)">
       <use xlink:href="#DejaVuSans-48"/>
       <use x="63.623047" xlink:href="#DejaVuSans-46"/>
       <use x="95.410156" xlink:href="#DejaVuSans-50"/>
       <use x="159.033203" xlink:href="#DejaVuSans-53"/>
      </g>
     </g>
    </g>
    <g id="ytick_3">
     <g id="line2d_8">
      <g>
       <use style="stroke:#000000;stroke-width:0.8;" x="109.1425" xlink:href="#m502a56befc" y="153.737813"/>
      </g>
     </g>
     <g id="text_9">
      <!-- 0.50 -->
      <g transform="translate(38.29875 164.375625)scale(0.28 -0.28)">
       <use xlink:href="#DejaVuSans-48"/>
       <use x="63.623047" xlink:href="#DejaVuSans-46"/>
       <use x="95.410156" xlink:href="#DejaVuSans-53"/>
       <use x="159.033203" xlink:href="#DejaVuSans-48"/>
      </g>
     </g>
    </g>
    <g id="ytick_4">
     <g id="line2d_9">
      <g>
       <use style="stroke:#000000;stroke-width:0.8;" x="109.1425" xlink:href="#m502a56befc" y="85.787813"/>
      </g>
     </g>
     <g id="text_10">
      <!-- 0.75 -->
      <defs>
       <path d="M 8.203125 72.90625 
L 55.078125 72.90625 
L 55.078125 68.703125 
L 28.609375 0 
L 18.3125 0 
L 43.21875 64.59375 
L 8.203125 64.59375 
z
" id="DejaVuSans-55"/>
      </defs>
      <g transform="translate(38.29875 96.425625)scale(0.28 -0.28)">
       <use xlink:href="#DejaVuSans-48"/>
       <use x="63.623047" xlink:href="#DejaVuSans-46"/>
       <use x="95.410156" xlink:href="#DejaVuSans-55"/>
       <use x="159.033203" xlink:href="#DejaVuSans-53"/>
      </g>
     </g>
    </g>
    <g id="ytick_5">
     <g id="line2d_10">
      <g>
       <use style="stroke:#000000;stroke-width:0.8;" x="109.1425" xlink:href="#m502a56befc" y="17.837813"/>
      </g>
     </g>
     <g id="text_11">
      <!-- 1.00 -->
      <g transform="translate(38.29875 28.475625)scale(0.28 -0.28)">
       <use xlink:href="#DejaVuSans-49"/>
       <use x="63.623047" xlink:href="#DejaVuSans-46"/>
       <use x="95.410156" xlink:href="#DejaVuSans-48"/>
       <use x="159.033203" xlink:href="#DejaVuSans-48"/>
      </g>
     </g>
    </g>
    <g id="text_12">
     <!-- Recall -->
     <defs>
      <path d="M 44.390625 34.1875 
Q 47.5625 33.109375 50.5625 29.59375 
Q 53.5625 26.078125 56.59375 19.921875 
L 66.609375 0 
L 56 0 
L 46.6875 18.703125 
Q 43.0625 26.03125 39.671875 28.421875 
Q 36.28125 30.8125 30.421875 30.8125 
L 19.671875 30.8125 
L 19.671875 0 
L 9.8125 0 
L 9.8125 72.90625 
L 32.078125 72.90625 
Q 44.578125 72.90625 50.734375 67.671875 
Q 56.890625 62.453125 56.890625 51.90625 
Q 56.890625 45.015625 53.6875 40.46875 
Q 50.484375 35.9375 44.390625 34.1875 
z
M 19.671875 64.796875 
L 19.671875 38.921875 
L 32.078125 38.921875 
Q 39.203125 38.921875 42.84375 42.21875 
Q 46.484375 45.515625 46.484375 51.90625 
Q 46.484375 58.296875 42.84375 61.546875 
Q 39.203125 64.796875 32.078125 64.796875 
z
" id="DejaVuSans-82"/>
      <path d="M 48.78125 52.59375 
L 48.78125 44.1875 
Q 44.96875 46.296875 41.140625 47.34375 
Q 37.3125 48.390625 33.40625 48.390625 
Q 24.65625 48.390625 19.8125 42.84375 
Q 14.984375 37.3125 14.984375 27.296875 
Q 14.984375 17.28125 19.8125 11.734375 
Q 24.65625 6.203125 33.40625 6.203125 
Q 37.3125 6.203125 41.140625 7.25 
Q 44.96875 8.296875 48.78125 10.40625 
L 48.78125 2.09375 
Q 45.015625 0.34375 40.984375 -0.53125 
Q 36.96875 -1.421875 32.421875 -1.421875 
Q 20.0625 -1.421875 12.78125 6.34375 
Q 5.515625 14.109375 5.515625 27.296875 
Q 5.515625 40.671875 12.859375 48.328125 
Q 20.21875 56 33.015625 56 
Q 37.15625 56 41.109375 55.140625 
Q 45.0625 54.296875 48.78125 52.59375 
z
" id="DejaVuSans-99"/>
     </defs>
     <g transform="translate(28.475625 196.127187)rotate(-90)scale(0.28 -0.28)">
      <use xlink:href="#DejaVuSans-82"/>
      <use x="69.419922" xlink:href="#DejaVuSans-101"/>
      <use x="130.943359" xlink:href="#DejaVuSans-99"/>
      <use x="185.923828" xlink:href="#DejaVuSans-97"/>
      <use x="247.203125" xlink:href="#DejaVuSans-108"/>
      <use x="274.986328" xlink:href="#DejaVuSans-108"/>
     </g>
    </g>
   </g>
   <g id="line2d_11">
    <path clip-path="url(#pcc7fca7e7e)" d="M 123.869773 261.222358 
L 124.237955 261.222358 
L 124.606136 261.027286 
L 125.3425 260.961666 
L 126.078864 260.762986 
L 126.815227 260.561533 
L 127.183409 261.127323 
L 127.551591 261.127323 
L 127.919773 260.926545 
L 128.656136 260.791114 
L 129.024318 261.163527 
L 129.760682 260.889736 
L 130.128864 260.469032 
L 130.865227 260.397715 
L 131.969773 260.254029 
L 132.706136 260.181655 
L 133.074318 260.108924 
L 133.4425 260.564678 
L 134.178864 260.419312 
L 134.547045 260.883153 
L 134.915227 260.664208 
L 137.124318 260.291797 
L 137.4925 260.291797 
L 137.860682 259.986903 
L 138.228864 259.986903 
L 138.597045 259.754043 
L 140.437955 259.675608 
L 140.806136 260.312023 
L 143.015227 259.761673 
L 143.383409 260.412006 
L 143.751591 260.412006 
L 144.119773 260.094334 
L 144.487955 259.932894 
L 145.960682 259.932894 
L 146.328864 259.687399 
L 146.697045 259.687399 
L 147.065227 259.437813 
L 147.801591 259.35369 
L 148.906136 259.184031 
L 149.6425 259.098487 
L 150.747045 258.925948 
L 151.115227 260.295767 
L 154.428864 259.613394 
L 155.165227 259.525859 
L 156.269773 259.260165 
L 157.006136 260.516384 
L 158.478864 260.254029 
L 158.847045 260.897631 
L 159.583409 260.722919 
L 159.951591 261.377262 
L 161.7925 260.938434 
L 162.160682 260.668534 
L 164.737955 259.923343 
L 165.106136 260.516384 
L 165.8425 260.326048 
L 166.210682 260.932862 
L 166.578864 260.742131 
L 167.315227 260.645812 
L 168.051591 260.548849 
L 170.260682 260.451235 
L 170.628864 260.254029 
L 172.469773 260.154423 
L 174.310682 259.749153 
L 174.678864 259.749153 
L 175.047045 259.542311 
L 175.415227 259.542311 
L 175.783409 260.279624 
L 176.887955 260.176973 
L 177.256136 260.073602 
L 177.624318 260.926545 
L 177.9925 260.620019 
L 179.465227 260.306877 
L 180.201591 260.306877 
L 180.937955 259.986903 
L 183.147045 259.878688 
L 183.883409 259.769681 
L 186.460682 259.659871 
L 187.565227 259.325545 
L 187.933409 259.098487 
L 190.878864 259.098487 
L 191.615227 258.515675 
L 191.983409 258.515675 
L 192.719773 258.155187 
L 193.087955 258.155187 
L 193.824318 257.661342 
L 194.560682 257.661342 
L 195.297045 257.408563 
L 195.665227 257.408563 
L 197.137955 256.890825 
L 197.506136 256.890825 
L 197.874318 256.75878 
L 198.610682 256.082257 
L 198.978864 255.943598 
L 200.083409 255.943598 
L 200.451591 255.803788 
L 200.819773 255.803788 
L 201.187955 255.662813 
L 203.028864 255.662813 
L 203.397045 255.520658 
L 203.765227 255.520658 
L 205.606136 254.791659 
L 205.974318 254.791659 
L 206.3425 254.642104 
L 206.710682 254.642104 
L 207.078864 254.491261 
L 207.447045 254.185639 
L 207.815227 254.185639 
L 208.183409 254.914464 
L 208.551591 254.760821 
L 210.024318 254.760821 
L 210.3925 254.605813 
L 212.233409 254.605813 
L 212.601591 255.662813 
L 212.969773 255.510458 
L 213.337955 255.510458 
L 214.810682 254.887128 
L 215.178864 254.887128 
L 215.547045 254.727721 
L 216.651591 254.727721 
L 217.019773 254.566845 
L 219.597045 254.566845 
L 219.965227 254.404479 
L 220.333409 254.404479 
L 220.701591 254.240603 
L 221.069773 254.240603 
L 221.806136 253.908235 
L 222.174318 253.908235 
L 222.5425 253.739699 
L 222.910682 254.857718 
L 223.647045 254.857718 
L 224.015227 254.692098 
L 224.383409 255.662813 
L 225.119773 255.662813 
L 225.487955 255.498682 
L 226.224318 255.498682 
L 226.960682 255.165617 
L 227.328864 255.165617 
L 228.065227 257.503822 
L 228.433409 257.344743 
L 229.169773 257.344743 
L 229.537955 257.184081 
L 230.274318 257.184081 
L 230.6425 257.021813 
L 231.378864 257.021813 
L 231.747045 256.857913 
L 233.956136 256.857913 
L 234.324318 256.692358 
L 234.6925 256.692358 
L 235.060682 256.525122 
L 235.428864 256.525122 
L 235.797045 256.35618 
L 236.901591 256.35618 
L 237.269773 256.185505 
L 237.637955 256.185505 
L 238.006136 255.838849 
L 239.110682 255.838849 
L 239.847045 255.484933 
L 241.319773 255.484933 
L 242.056136 255.123527 
L 242.7925 255.123527 
L 243.528864 254.75439 
L 244.265227 254.75439 
L 244.633409 254.566845 
L 247.947045 254.566845 
L 248.315227 254.377272 
L 251.628864 254.377272 
L 251.997045 254.185639 
L 252.733409 254.185639 
L 253.101591 255.289461 
L 253.469773 255.099691 
L 253.837955 254.71379 
L 254.574318 254.71379 
L 255.310682 254.319168 
L 256.783409 254.319168 
L 257.151591 254.118494 
L 258.256136 254.118494 
L 258.624318 253.915527 
L 259.728864 253.915527 
L 260.097045 255.272295 
L 260.833409 255.272295 
L 261.201591 255.073651 
L 262.674318 255.073651 
L 263.0425 254.872696 
L 263.778864 254.044955 
L 264.883409 254.044955 
L 265.251591 255.459369 
L 265.987955 255.459369 
L 266.356136 256.890825 
L 268.565227 256.890825 
L 269.301591 256.491471 
L 270.774318 256.491471 
L 271.510682 255.662813 
L 271.878864 255.662813 
L 272.247045 255.449133 
L 273.719773 255.449133 
L 274.087955 255.013609 
L 274.824318 255.013609 
L 275.1925 254.791659 
L 276.297045 254.791659 
L 277.033409 254.339111 
L 277.401591 255.662813 
L 280.715227 255.662813 
L 281.083409 257.237813 
L 281.819773 257.237813 
L 282.187955 257.021813 
L 282.924318 257.021813 
L 283.2925 256.802913 
L 285.869773 256.802913 
L 286.237955 256.35618 
L 287.3425 256.35618 
L 287.710682 256.128223 
L 288.447045 256.128223 
L 288.815227 255.897123 
L 291.024318 255.897123 
L 291.3925 255.662813 
L 293.601591 255.662813 
L 293.969773 255.425225 
L 294.337955 255.425225 
L 294.706136 255.184291 
L 296.178864 255.184291 
L 296.547045 254.93994 
L 296.915227 254.93994 
L 297.283409 254.692098 
L 298.387955 254.692098 
L 298.756136 254.185639 
L 299.124318 254.185639 
L 299.4925 253.664283 
L 300.228864 253.664283 
L 300.597045 253.397812 
L 300.965227 253.397812 
L 301.333409 253.127365 
L 301.701591 252.574176 
L 302.069773 252.291248 
L 302.437955 252.291248 
L 302.806136 252.003966 
L 303.5425 252.003966 
L 303.910682 251.415937 
L 304.278864 253.255135 
L 306.856136 253.255135 
L 307.224318 252.966384 
L 308.697045 252.966384 
L 309.065227 252.673012 
L 309.801591 256.491471 
L 310.169773 256.21978 
L 310.537955 256.21978 
L 310.906136 255.943598 
L 313.483409 255.943598 
L 313.851591 255.377308 
L 318.637955 255.377308 
L 319.006136 255.086965 
L 320.110682 255.086965 
L 320.478864 254.491261 
L 322.319773 254.491261 
L 322.687955 254.185639 
L 323.056136 254.185639 
L 323.424318 253.874655 
L 325.633409 253.874655 
L 326.369773 253.236027 
L 329.683409 253.236027 
L 330.051591 252.908083 
L 332.628864 252.908083 
L 332.997045 252.234143 
L 335.206136 252.234143 
L 335.574318 254.404479 
L 337.047045 254.404479 
L 337.415227 254.075196 
L 338.519773 254.075196 
L 338.887955 253.739699 
L 339.256136 253.739699 
L 339.624318 253.397812 
L 343.306136 253.397812 
L 343.674318 253.049351 
L 344.0425 253.049351 
L 344.410682 252.694123 
L 345.515227 252.694123 
L 346.251591 251.962565 
L 346.619773 254.303812 
L 348.828864 254.303812 
L 349.197045 253.946903 
L 349.933409 253.946903 
L 350.301591 253.58271 
L 352.1425 253.58271 
L 352.510682 253.211008 
L 355.824318 253.211008 
L 356.1925 252.831563 
L 356.928864 252.831563 
L 357.297045 252.444128 
L 359.506136 252.444128 
L 360.2425 251.644264 
L 363.187955 251.644264 
L 363.556136 251.231291 
L 364.2925 251.231291 
L 364.660682 250.809241 
L 366.869773 250.809241 
L 367.237955 250.377813 
L 367.974318 250.377813 
L 368.3425 249.936689 
L 375.706136 249.936689 
L 376.074318 249.48554 
L 379.019773 249.48554 
L 379.387955 249.024019 
L 380.124318 249.024019 
L 380.4925 251.712231 
L 385.278864 251.712231 
L 385.647045 251.266048 
L 390.065227 251.266048 
L 390.433409 250.809241 
L 391.537955 250.809241 
L 391.906136 250.341427 
L 393.010682 250.341427 
L 393.378864 249.862203 
L 403.319773 249.862203 
L 403.687955 248.867813 
L 409.947045 248.867813 
L 410.315227 248.351737 
L 412.524318 248.351737 
L 412.8925 247.279371 
L 415.101591 247.279371 
L 415.469773 246.149812 
L 418.415227 246.149812 
L 418.415227 246.149812 
" style="fill:none;stroke:#8b0000;stroke-linecap:square;stroke-width:2;"/>
   </g>
   <g id="line2d_12">
    <path clip-path="url(#pcc7fca7e7e)" d="M 123.869773 213.657358 
L 124.237955 213.657358 
L 124.606136 213.135753 
L 124.974318 213.135753 
L 125.710682 212.784019 
L 126.078864 213.05675 
L 126.447045 212.701386 
L 126.815227 212.522464 
L 127.183409 212.976274 
L 128.287955 212.894283 
L 129.3925 212.259344 
L 129.760682 211.887332 
L 130.128864 213.401227 
L 130.497045 213.401227 
L 131.233409 213.027518 
L 131.601591 213.027518 
L 131.969773 212.839287 
L 132.337955 212.839287 
L 133.074318 212.460035 
L 133.4425 213.912439 
L 133.810682 214.401404 
L 134.178864 214.213313 
L 134.547045 214.327989 
L 134.915227 215.134259 
L 135.283409 214.944683 
L 135.651591 214.944683 
L 136.019773 214.562621 
L 136.387955 215.067043 
L 136.756136 215.067043 
L 137.124318 214.875345 
L 137.4925 214.875345 
L 137.860682 214.098592 
L 138.228864 214.098592 
L 138.597045 213.505352 
L 139.701591 213.505352 
L 140.069773 213.305529 
L 140.437955 213.305529 
L 140.806136 213.819918 
L 141.174318 213.619871 
L 141.5425 214.137812 
L 141.910682 214.137812 
L 142.278864 213.937547 
L 143.015227 213.125748 
L 143.383409 213.650716 
L 144.119773 213.563356 
L 144.487955 214.632894 
L 145.960682 214.632894 
L 146.328864 214.761779 
L 146.697045 214.761779 
L 147.065227 214.137812 
L 147.433409 214.137812 
L 148.169773 213.716025 
L 148.537955 213.716025 
L 148.906136 213.503359 
L 149.274318 213.503359 
L 149.6425 213.289498 
L 150.010682 213.840066 
L 150.378864 213.840066 
L 150.747045 213.625948 
L 151.115227 214.738381 
L 151.483409 214.524992 
L 151.851591 214.524992 
L 152.219773 214.310384 
L 152.587955 213.659138 
L 152.956136 213.659138 
L 153.324318 213.218682 
L 153.6925 212.996533 
L 154.797045 212.996533 
L 156.269773 212.094871 
L 156.637955 212.667901 
L 157.006136 212.789598 
L 158.110682 212.097272 
L 158.478864 212.097272 
L 158.847045 213.271045 
L 159.583409 212.806809 
L 159.951591 212.336895 
L 160.687955 211.861197 
L 161.056136 211.861197 
L 161.424318 211.98067 
L 161.7925 211.98067 
L 162.160682 212.102389 
L 162.897045 211.613207 
L 163.265227 211.613207 
L 163.633409 211.117813 
L 164.001591 210.867749 
L 164.369773 210.362813 
L 164.737955 210.107909 
L 165.106136 211.098202 
L 165.8425 210.584871 
L 166.210682 210.699199 
L 166.578864 210.17469 
L 166.947045 210.17469 
L 167.683409 209.643164 
L 169.156136 209.643164 
L 169.524318 209.374725 
L 170.260682 209.374725 
L 170.628864 208.832407 
L 170.997045 208.832407 
L 171.365227 208.55849 
L 172.469773 208.55849 
L 172.837955 209.2072 
L 173.206136 208.656306 
L 173.574318 208.656306 
L 173.9425 208.378019 
L 174.678864 208.378019 
L 175.047045 207.815667 
L 175.415227 207.815667 
L 175.783409 208.192516 
L 176.151591 208.192516 
L 176.519773 207.907743 
L 176.887955 207.907743 
L 177.256136 207.62097 
L 177.624318 208.289221 
L 177.9925 209.35525 
L 178.360682 209.068527 
L 178.728864 209.068527 
L 179.097045 209.753942 
L 179.465227 209.466589 
L 180.201591 209.466589 
L 180.569773 208.885639 
L 180.937955 208.591994 
L 181.306136 208.591994 
L 181.674318 208.296207 
L 183.147045 208.296207 
L 183.515227 207.998252 
L 184.987955 207.998252 
L 185.356136 208.697371 
L 186.460682 208.697371 
L 187.197045 210.111146 
L 187.565227 209.815508 
L 187.933409 210.235565 
L 190.878864 210.235565 
L 191.247045 210.362813 
L 191.615227 211.832469 
L 191.983409 211.832469 
L 192.351591 211.233966 
L 192.719773 210.931249 
L 193.087955 210.931249 
L 193.824318 209.696636 
L 194.560682 209.696636 
L 195.297045 209.06469 
L 195.665227 209.06469 
L 196.033409 208.744955 
L 196.401591 209.505542 
L 197.137955 208.861909 
L 197.506136 208.861909 
L 197.874318 208.5362 
L 198.2425 208.652506 
L 198.610682 209.104479 
L 198.978864 208.771697 
L 200.083409 208.771697 
L 200.451591 208.436153 
L 200.819773 208.436153 
L 201.187955 208.097813 
L 203.028864 208.097813 
L 203.397045 207.756641 
L 203.765227 207.756641 
L 204.133409 208.554619 
L 205.606136 207.168582 
L 205.974318 207.168582 
L 206.3425 206.814637 
L 206.710682 206.814637 
L 207.078864 206.45764 
L 207.447045 206.916073 
L 208.183409 207.020191 
L 208.551591 206.654627 
L 210.024318 206.654627 
L 210.3925 206.285813 
L 212.233409 206.285813 
L 212.601591 207.127098 
L 212.969773 206.757095 
L 213.337955 206.757095 
L 214.810682 205.243292 
L 215.178864 205.243292 
L 215.547045 206.10295 
L 216.651591 206.10295 
L 217.019773 205.717997 
L 219.597045 205.717997 
L 219.965227 205.329479 
L 220.333409 205.329479 
L 220.701591 204.937347 
L 221.069773 204.937347 
L 221.437955 204.541551 
L 221.806136 205.418094 
L 222.174318 205.418094 
L 222.5425 205.020831 
L 222.910682 205.907955 
L 223.647045 205.907955 
L 224.015227 205.509241 
L 224.383409 206.007043 
L 225.119773 206.007043 
L 225.487955 205.60303 
L 226.224318 205.60303 
L 226.960682 204.783178 
L 227.328864 204.783178 
L 228.065227 206.625005 
L 228.433409 206.21405 
L 229.169773 206.21405 
L 229.537955 205.799007 
L 230.274318 205.799007 
L 230.6425 205.379813 
L 231.378864 205.379813 
L 231.747045 204.956405 
L 233.956136 204.956405 
L 234.324318 204.528722 
L 234.6925 204.528722 
L 235.060682 204.096696 
L 235.428864 204.096696 
L 235.797045 205.046996 
L 236.901591 205.046996 
L 237.269773 204.613197 
L 237.637955 204.613197 
L 238.006136 205.140403 
L 239.110682 205.140403 
L 239.847045 204.255614 
L 241.319773 204.255614 
L 242.056136 203.352098 
L 242.7925 203.352098 
L 243.528864 202.429256 
L 244.265227 202.429256 
L 244.633409 201.960393 
L 247.947045 201.960393 
L 248.315227 201.486461 
L 251.628864 201.486461 
L 251.997045 201.007378 
L 252.733409 201.007378 
L 253.101591 201.526823 
L 253.469773 201.040022 
L 253.837955 201.568539 
L 254.574318 201.568539 
L 255.310682 200.573406 
L 256.783409 200.573406 
L 257.151591 200.067358 
L 258.256136 200.067358 
L 258.624318 201.10867 
L 259.728864 201.10867 
L 260.097045 202.16195 
L 260.833409 202.16195 
L 261.201591 201.65631 
L 262.674318 201.65631 
L 263.0425 201.144789 
L 263.778864 199.037813 
L 264.883409 199.037813 
L 265.251591 200.122842 
L 265.987955 200.122842 
L 266.356136 201.220945 
L 268.565227 201.220945 
L 269.301591 203.457325 
L 270.774318 203.457325 
L 271.510682 204.700312 
L 271.878864 204.700312 
L 272.247045 204.166114 
L 273.719773 204.166114 
L 274.087955 203.077303 
L 274.824318 203.077303 
L 275.1925 202.522428 
L 276.297045 202.522428 
L 277.033409 201.391059 
L 277.401591 202.018076 
L 280.715227 202.018076 
L 281.083409 203.237813 
L 281.819773 203.237813 
L 282.187955 202.661812 
L 282.924318 202.661812 
L 283.2925 202.078081 
L 285.869773 202.078081 
L 286.237955 200.886792 
L 287.3425 200.886792 
L 287.710682 202.140552 
L 288.447045 202.140552 
L 288.815227 203.411606 
L 291.024318 203.411606 
L 291.3925 202.812813 
L 293.601591 202.812813 
L 293.969773 202.205645 
L 294.337955 202.205645 
L 294.706136 201.589925 
L 296.178864 201.589925 
L 296.547045 200.965472 
L 296.915227 200.965472 
L 297.283409 200.332098 
L 298.387955 200.332098 
L 298.756136 201.007378 
L 299.124318 201.007378 
L 299.4925 201.702518 
L 300.228864 201.702518 
L 300.597045 201.051146 
L 300.965227 201.051146 
L 301.333409 200.390051 
L 301.701591 199.037813 
L 302.069773 200.421019 
L 302.437955 200.421019 
L 302.806136 201.825505 
L 303.5425 201.825505 
L 303.910682 200.453438 
L 304.278864 201.891356 
L 306.856136 201.891356 
L 307.224318 201.194955 
L 308.697045 201.194955 
L 309.065227 200.487413 
L 309.801591 203.457325 
L 310.169773 202.750927 
L 310.537955 202.750927 
L 310.906136 202.032854 
L 313.483409 202.032854 
L 313.851591 202.844535 
L 318.637955 202.844535 
L 319.006136 202.108999 
L 320.110682 202.108999 
L 320.478864 200.599881 
L 322.319773 200.599881 
L 322.687955 199.825639 
L 323.056136 199.825639 
L 323.424318 201.422023 
L 325.633409 201.422023 
L 326.001591 200.641352 
L 326.369773 202.273527 
L 329.683409 202.273527 
L 330.051591 203.93511 
L 332.628864 203.93511 
L 332.997045 202.362583 
L 335.206136 202.362583 
L 335.574318 204.071146 
L 337.047045 204.071146 
L 337.415227 203.271457 
L 338.519773 203.271457 
L 338.887955 202.45668 
L 339.256136 202.45668 
L 339.624318 201.626384 
L 343.306136 201.626384 
L 343.674318 200.78012 
L 344.0425 200.78012 
L 344.410682 199.917424 
L 345.515227 199.917424 
L 346.251591 198.140783 
L 346.619773 199.943813 
L 348.828864 199.943813 
L 349.197045 201.783267 
L 349.933409 201.783267 
L 350.301591 200.886792 
L 352.1425 200.886792 
L 352.510682 199.971833 
L 355.824318 199.971833 
L 356.1925 201.869062 
L 356.928864 201.869062 
L 357.297045 200.945181 
L 359.506136 200.945181 
L 360.2425 199.037813 
L 363.187955 199.037813 
L 363.556136 201.007378 
L 364.2925 201.007378 
L 364.660682 200.033417 
L 366.869773 200.033417 
L 367.237955 199.037813 
L 367.974318 199.037813 
L 368.3425 198.019835 
L 375.706136 198.019835 
L 376.074318 196.978722 
L 379.019773 196.978722 
L 379.387955 195.913675 
L 380.124318 195.913675 
L 380.4925 197.984324 
L 385.278864 197.984324 
L 385.647045 196.906048 
L 390.065227 196.906048 
L 390.433409 195.802098 
L 391.537955 195.802098 
L 391.906136 194.671547 
L 393.010682 194.671547 
L 393.378864 193.513422 
L 403.319773 193.513422 
L 403.687955 191.110313 
L 409.947045 191.110313 
L 410.315227 189.863129 
L 412.524318 189.863129 
L 412.8925 187.271579 
L 415.101591 187.271579 
L 415.469773 188.165813 
L 418.415227 188.165813 
L 418.415227 188.165813 
" style="fill:none;stroke:#000080;stroke-linecap:square;stroke-width:2;"/>
   </g>
   <g id="patch_3">
    <path d="M 109.1425 289.637812 
L 109.1425 17.837813 
" style="fill:none;stroke:#000000;stroke-linecap:square;stroke-linejoin:miter;"/>
   </g>
   <g id="patch_4">
    <path d="M 109.1425 289.637812 
L 433.1425 289.637812 
" style="fill:none;stroke:#000000;stroke-linecap:square;stroke-linejoin:miter;"/>
   </g>
  </g>
  <g id="axes_2">
   <g id="patch_5">
    <path d="M 449.3425 289.637812 
L 773.3425 289.637812 
L 773.3425 17.837813 
L 449.3425 17.837813 
z
" style="fill:none;"/>
   </g>
   <g id="matplotlib.axis_3">
    <g id="xtick_6">
     <g id="line2d_13">
      <g>
       <use style="stroke:#000000;stroke-width:0.8;" x="464.069773" xlink:href="#md92854af8d" y="289.637812"/>
      </g>
     </g>
     <g id="text_13">
      <!-- 1 -->
      <g transform="translate(455.162273 319.413437)scale(0.28 -0.28)">
       <use xlink:href="#DejaVuSans-49"/>
      </g>
     </g>
    </g>
    <g id="xtick_7">
     <g id="line2d_14">
      <g>
       <use style="stroke:#000000;stroke-width:0.8;" x="537.706136" xlink:href="#md92854af8d" y="289.637812"/>
      </g>
     </g>
     <g id="text_14">
      <!-- 2 -->
      <g transform="translate(528.798636 319.413437)scale(0.28 -0.28)">
       <use xlink:href="#DejaVuSans-50"/>
      </g>
     </g>
    </g>
    <g id="xtick_8">
     <g id="line2d_15">
      <g>
       <use style="stroke:#000000;stroke-width:0.8;" x="611.3425" xlink:href="#md92854af8d" y="289.637812"/>
      </g>
     </g>
     <g id="text_15">
      <!-- 3 -->
      <g transform="translate(602.435 319.413437)scale(0.28 -0.28)">
       <use xlink:href="#DejaVuSans-51"/>
      </g>
     </g>
    </g>
    <g id="xtick_9">
     <g id="line2d_16">
      <g>
       <use style="stroke:#000000;stroke-width:0.8;" x="684.978864" xlink:href="#md92854af8d" y="289.637812"/>
      </g>
     </g>
     <g id="text_16">
      <!-- 4 -->
      <g transform="translate(676.071364 319.413437)scale(0.28 -0.28)">
       <use xlink:href="#DejaVuSans-52"/>
      </g>
     </g>
    </g>
    <g id="xtick_10">
     <g id="line2d_17">
      <g>
       <use style="stroke:#000000;stroke-width:0.8;" x="758.615227" xlink:href="#md92854af8d" y="289.637812"/>
      </g>
     </g>
     <g id="text_17">
      <!-- 5 -->
      <g transform="translate(749.707727 319.413437)scale(0.28 -0.28)">
       <use xlink:href="#DejaVuSans-53"/>
      </g>
     </g>
    </g>
    <g id="text_18">
     <!-- -log10 p-value -->
     <g transform="translate(510.5075 350.512187)scale(0.28 -0.28)">
      <use xlink:href="#DejaVuSans-45"/>
      <use x="36.083984" xlink:href="#DejaVuSans-108"/>
      <use x="63.867188" xlink:href="#DejaVuSans-111"/>
      <use x="125.048828" xlink:href="#DejaVuSans-103"/>
      <use x="188.525391" xlink:href="#DejaVuSans-49"/>
      <use x="252.148438" xlink:href="#DejaVuSans-48"/>
      <use x="315.771484" xlink:href="#DejaVuSans-32"/>
      <use x="347.558594" xlink:href="#DejaVuSans-112"/>
      <use x="411.035156" xlink:href="#DejaVuSans-45"/>
      <use x="447.087891" xlink:href="#DejaVuSans-118"/>
      <use x="506.267578" xlink:href="#DejaVuSans-97"/>
      <use x="567.546875" xlink:href="#DejaVuSans-108"/>
      <use x="595.330078" xlink:href="#DejaVuSans-117"/>
      <use x="658.708984" xlink:href="#DejaVuSans-101"/>
     </g>
    </g>
   </g>
   <g id="matplotlib.axis_4">
    <g id="ytick_6"/>
    <g id="ytick_7"/>
    <g id="ytick_8"/>
    <g id="ytick_9"/>
    <g id="ytick_10"/>
   </g>
   <g id="line2d_18">
    <path clip-path="url(#pd65911ffdb)" d="M 464.069773 139.22422 
L 465.174318 139.22422 
L 465.5425 140.414283 
L 466.647045 140.414283 
L 467.015227 138.936822 
L 467.383409 138.936822 
L 467.751591 140.147813 
L 468.119773 140.147813 
L 468.487955 139.870466 
L 469.224318 139.870466 
L 469.5925 138.326472 
L 469.960682 138.326472 
L 470.328864 139.581563 
L 471.433409 139.581563 
L 472.169773 136.388876 
L 472.537955 136.388876 
L 472.906136 137.663619 
L 473.6425 137.663619 
L 474.747045 132.597813 
L 475.483409 132.597813 
L 475.851591 133.887251 
L 476.219773 133.430916 
L 478.797045 133.430916 
L 479.901591 127.852098 
L 480.269773 127.852098 
L 481.006136 123.906105 
L 481.374318 123.906105 
L 481.7425 121.860035 
L 482.478864 121.860035 
L 482.847045 117.612496 
L 483.583409 117.612496 
L 483.951591 118.891659 
L 484.319773 118.891659 
L 485.056136 121.55097 
L 485.424318 121.55097 
L 485.7925 122.933813 
L 486.160682 122.933813 
L 486.528864 124.354029 
L 487.265227 124.354029 
L 487.633409 125.813155 
L 489.8425 125.813155 
L 490.210682 128.854714 
L 491.683409 128.854714 
L 492.051591 126.557813 
L 492.419773 125.758401 
L 492.787955 127.369156 
L 493.156136 127.369156 
L 493.524318 122.376274 
L 494.997045 122.376274 
L 495.365227 124.009688 
L 500.519773 124.009688 
L 500.887955 121.38067 
L 501.256136 121.38067 
L 501.624318 123.050716 
L 501.9925 120.31978 
L 503.833409 120.31978 
L 504.201591 117.497813 
L 504.569773 117.497813 
L 504.937955 119.186965 
L 505.306136 119.186965 
L 505.674318 120.934364 
L 506.778864 120.934364 
L 507.147045 122.743076 
L 508.619773 122.743076 
L 508.987955 124.616384 
L 510.0925 124.616384 
L 510.460682 126.557813 
L 512.301591 126.557813 
L 512.669773 125.532152 
L 513.037955 127.603197 
L 514.878864 127.603197 
L 515.247045 124.426048 
L 522.2425 124.426048 
L 522.610682 126.557813 
L 522.978864 126.557813 
L 523.347045 125.425313 
L 524.451591 125.425313 
L 524.819773 127.714408 
L 525.556136 127.714408 
L 525.924318 124.194334 
L 526.2925 124.194334 
L 526.660682 126.557813 
L 527.397045 126.557813 
L 527.765227 122.851449 
L 529.237955 122.851449 
L 529.606136 118.972696 
L 531.815227 118.972696 
L 532.183409 114.909241 
L 532.551591 114.909241 
L 532.919773 117.276837 
L 534.024318 117.276837 
L 534.3925 110.822023 
L 534.760682 110.822023 
L 535.128864 113.33511 
L 535.497045 113.33511 
L 535.865227 115.987813 
L 540.651591 115.987813 
L 541.387955 121.761342 
L 542.4925 121.761342 
L 542.860682 124.91054 
L 550.5925 124.91054 
L 550.960682 128.256563 
L 557.587955 128.256563 
L 557.956136 131.818458 
L 570.474318 131.818458 
L 570.8425 135.617813 
L 585.937955 135.617813 
L 586.306136 130.306778 
L 607.2925 130.306778 
L 607.660682 124.616384 
L 614.287955 124.616384 
L 614.656136 128.571146 
L 637.851591 128.571146 
L 638.219773 122.376274 
L 645.951591 122.376274 
L 646.319773 115.685813 
L 650.369773 115.685813 
L 651.106136 124.194334 
L 662.151591 124.194334 
L 662.519773 129.028722 
L 669.883409 129.028722 
L 670.251591 121.38067 
L 670.987955 121.38067 
L 671.356136 126.557813 
L 689.397045 126.557813 
L 689.765227 117.974655 
L 690.133409 123.537813 
L 706.333409 123.537813 
L 706.701591 113.767224 
L 708.174318 113.767224 
L 708.5425 119.762813 
L 720.324318 119.762813 
L 720.6925 108.437813 
L 723.269773 108.437813 
L 723.637955 114.909241 
L 724.374318 114.909241 
L 724.7425 101.468582 
L 733.210682 101.468582 
L 733.578864 85.787813 
L 745.360682 85.787813 
L 745.728864 99.377813 
L 758.615227 99.377813 
L 758.615227 99.377813 
" style="fill:none;stroke:#8b0000;stroke-linecap:square;stroke-width:2;"/>
   </g>
   <g id="line2d_19">
    <path clip-path="url(#pd65911ffdb)" d="M 464.069773 234.222279 
L 465.174318 234.222279 
L 465.5425 236.343695 
L 466.647045 236.343695 
L 467.015227 235.81603 
L 467.383409 235.81603 
L 467.751591 235.277813 
L 468.119773 235.277813 
L 468.487955 234.168425 
L 469.224318 234.168425 
L 469.5925 233.596575 
L 469.960682 233.596575 
L 470.328864 233.012812 
L 471.433409 233.012812 
L 472.169773 231.808025 
L 472.537955 231.808025 
L 472.906136 231.1862 
L 473.6425 231.1862 
L 474.747045 229.237813 
L 475.483409 229.237813 
L 476.219773 233.40333 
L 478.797045 233.40333 
L 479.901591 231.394955 
L 480.269773 231.394955 
L 481.006136 229.974398 
L 481.374318 229.974398 
L 481.7425 229.237813 
L 482.478864 229.237813 
L 482.847045 227.708699 
L 483.583409 227.708699 
L 483.951591 226.914736 
L 484.319773 226.914736 
L 485.056136 225.264128 
L 485.424318 225.264128 
L 485.7925 228.029812 
L 486.160682 228.029812 
L 486.528864 227.197272 
L 487.265227 227.197272 
L 487.633409 226.341922 
L 489.8425 226.341922 
L 490.210682 224.558939 
L 491.683409 224.558939 
L 492.051591 223.629241 
L 492.419773 225.684871 
L 492.787955 224.73035 
L 493.156136 224.73035 
L 493.524318 222.733197 
L 494.997045 222.733197 
L 495.365227 221.687813 
L 500.519773 221.687813 
L 500.887955 220.609241 
L 501.256136 220.609241 
L 501.9925 218.346009 
L 503.833409 218.346009 
L 504.201591 217.157813 
L 504.569773 217.157813 
L 504.937955 215.929338 
L 505.306136 215.929338 
L 505.674318 214.658502 
L 506.778864 214.658502 
L 507.147045 213.343076 
L 508.619773 213.343076 
L 508.987955 211.98067 
L 510.0925 211.98067 
L 510.460682 215.51054 
L 512.301591 215.51054 
L 512.669773 212.713284 
L 513.037955 211.233966 
L 514.878864 211.233966 
L 515.247045 209.696636 
L 522.2425 209.696636 
L 522.610682 208.097813 
L 522.978864 208.097813 
L 523.347045 204.700312 
L 524.451591 204.700312 
L 524.819773 202.893132 
L 525.556136 202.893132 
L 525.924318 201.007378 
L 526.2925 201.007378 
L 526.660682 205.077812 
L 527.397045 205.077812 
L 527.765227 203.155994 
L 529.237955 203.155994 
L 529.606136 201.144789 
L 531.815227 201.144789 
L 532.183409 199.037813 
L 532.551591 199.037813 
L 532.919773 203.457325 
L 534.024318 203.457325 
L 534.3925 196.653602 
L 534.760682 196.653602 
L 535.128864 194.140515 
L 535.497045 194.140515 
L 535.865227 191.487813 
L 540.651591 191.487813 
L 541.387955 185.714283 
L 542.4925 185.714283 
L 542.860682 182.565085 
L 550.5925 182.565085 
L 550.960682 187.712813 
L 557.587955 187.712813 
L 557.956136 193.192651 
L 570.474318 193.192651 
L 570.8425 189.977813 
L 585.937955 189.977813 
L 586.306136 186.541261 
L 607.2925 186.541261 
L 607.660682 182.859241 
L 614.287955 182.859241 
L 614.656136 188.971146 
L 637.851591 188.971146 
L 638.219773 185.099351 
L 645.951591 185.099351 
L 646.319773 180.917813 
L 650.369773 180.917813 
L 650.737955 187.712813 
L 651.106136 183.281291 
L 662.151591 183.281291 
L 662.519773 190.801449 
L 669.883409 190.801449 
L 670.251591 186.094955 
L 670.987955 186.094955 
L 671.356136 194.507812 
L 689.397045 194.507812 
L 689.765227 189.50097 
L 690.133409 199.037813 
L 706.333409 199.037813 
L 706.701591 193.708401 
L 708.174318 193.708401 
L 708.5425 204.700312 
L 720.324318 204.700312 
L 720.6925 199.037813 
L 723.269773 199.037813 
L 723.637955 192.566384 
L 724.374318 192.566384 
L 724.7425 185.099351 
L 733.210682 185.099351 
L 733.578864 176.387812 
L 745.360682 176.387812 
L 745.728864 180.917813 
L 758.615227 180.917813 
L 758.615227 180.917813 
" style="fill:none;stroke:#000080;stroke-linecap:square;stroke-width:2;"/>
   </g>
   <g id="patch_6">
    <path d="M 449.3425 289.637812 
L 449.3425 17.837813 
" style="fill:none;stroke:#000000;stroke-linecap:square;stroke-linejoin:miter;"/>
   </g>
   <g id="patch_7">
    <path d="M 449.3425 289.637812 
L 773.3425 289.637812 
" style="fill:none;stroke:#000000;stroke-linecap:square;stroke-linejoin:miter;"/>
   </g>
  </g>
  <g id="axes_3">
   <g id="patch_8">
    <path d="M 789.5425 289.637812 
L 1113.5425 289.637812 
L 1113.5425 17.837813 
L 789.5425 17.837813 
z
" style="fill:none;"/>
   </g>
   <g id="matplotlib.axis_5">
    <g id="xtick_11">
     <g id="line2d_20">
      <g>
       <use style="stroke:#000000;stroke-width:0.8;" x="804.269773" xlink:href="#md92854af8d" y="289.637812"/>
      </g>
     </g>
     <g id="text_19">
      <!-- 1 -->
      <g transform="translate(795.362273 319.413437)scale(0.28 -0.28)">
       <use xlink:href="#DejaVuSans-49"/>
      </g>
     </g>
    </g>
    <g id="xtick_12">
     <g id="line2d_21">
      <g>
       <use style="stroke:#000000;stroke-width:0.8;" x="877.906136" xlink:href="#md92854af8d" y="289.637812"/>
      </g>
     </g>
     <g id="text_20">
      <!-- 2 -->
      <g transform="translate(868.998636 319.413437)scale(0.28 -0.28)">
       <use xlink:href="#DejaVuSans-50"/>
      </g>
     </g>
    </g>
    <g id="xtick_13">
     <g id="line2d_22">
      <g>
       <use style="stroke:#000000;stroke-width:0.8;" x="951.5425" xlink:href="#md92854af8d" y="289.637812"/>
      </g>
     </g>
     <g id="text_21">
      <!-- 3 -->
      <g transform="translate(942.635 319.413437)scale(0.28 -0.28)">
       <use xlink:href="#DejaVuSans-51"/>
      </g>
     </g>
    </g>
    <g id="xtick_14">
     <g id="line2d_23">
      <g>
       <use style="stroke:#000000;stroke-width:0.8;" x="1025.178864" xlink:href="#md92854af8d" y="289.637812"/>
      </g>
     </g>
     <g id="text_22">
      <!-- 4 -->
      <g transform="translate(1016.271364 319.413437)scale(0.28 -0.28)">
       <use xlink:href="#DejaVuSans-52"/>
      </g>
     </g>
    </g>
    <g id="xtick_15">
     <g id="line2d_24">
      <g>
       <use style="stroke:#000000;stroke-width:0.8;" x="1098.815227" xlink:href="#md92854af8d" y="289.637812"/>
      </g>
     </g>
     <g id="text_23">
      <!-- 5 -->
      <g transform="translate(1089.907727 319.413437)scale(0.28 -0.28)">
       <use xlink:href="#DejaVuSans-53"/>
      </g>
     </g>
    </g>
    <g id="text_24">
     <!-- -log10 p-value -->
     <g transform="translate(850.7075 350.512187)scale(0.28 -0.28)">
      <use xlink:href="#DejaVuSans-45"/>
      <use x="36.083984" xlink:href="#DejaVuSans-108"/>
      <use x="63.867188" xlink:href="#DejaVuSans-111"/>
      <use x="125.048828" xlink:href="#DejaVuSans-103"/>
      <use x="188.525391" xlink:href="#DejaVuSans-49"/>
      <use x="252.148438" xlink:href="#DejaVuSans-48"/>
      <use x="315.771484" xlink:href="#DejaVuSans-32"/>
      <use x="347.558594" xlink:href="#DejaVuSans-112"/>
      <use x="411.035156" xlink:href="#DejaVuSans-45"/>
      <use x="447.087891" xlink:href="#DejaVuSans-118"/>
      <use x="506.267578" xlink:href="#DejaVuSans-97"/>
      <use x="567.546875" xlink:href="#DejaVuSans-108"/>
      <use x="595.330078" xlink:href="#DejaVuSans-117"/>
      <use x="658.708984" xlink:href="#DejaVuSans-101"/>
     </g>
    </g>
   </g>
   <g id="matplotlib.axis_6">
    <g id="ytick_11"/>
    <g id="ytick_12"/>
    <g id="ytick_13"/>
    <g id="ytick_14"/>
    <g id="ytick_15"/>
   </g>
   <g id="line2d_25">
    <path clip-path="url(#p3fa41be403)" d="M 804.269773 26.024559 
L 805.006136 26.175236 
L 806.847045 26.278806 
L 807.951591 26.331563 
L 812.737955 26.439078 
L 814.947045 26.662488 
L 817.156136 26.720165 
L 817.8925 26.778602 
L 820.469773 26.837813 
L 820.837955 26.897813 
L 821.206136 25.233731 
L 824.887955 25.335744 
L 826.360682 25.494151 
L 826.728864 23.620791 
L 828.569773 23.704 
L 830.0425 23.789637 
L 832.987955 23.877813 
L 834.460682 23.96864 
L 837.406136 23.96864 
L 837.774318 21.955994 
L 839.247045 21.987431 
L 845.506136 22.051766 
L 846.610682 22.186613 
L 849.187955 22.29355 
L 849.924318 22.330374 
L 850.2925 20.102813 
L 856.183409 20.201291 
L 858.3925 20.222023 
L 869.806136 20.308722 
L 870.174318 17.837813 
L 1098.815227 17.837813 
L 1098.815227 17.837813 
" style="fill:none;stroke:#8b0000;stroke-linecap:square;stroke-width:2;"/>
   </g>
   <g id="line2d_26">
    <path clip-path="url(#p3fa41be403)" d="M 804.269773 194.671547 
L 804.637955 193.513422 
L 805.006136 192.923702 
L 806.110682 192.923702 
L 806.478864 191.722285 
L 806.847045 191.722285 
L 807.215227 191.110313 
L 809.424318 191.110313 
L 809.7925 190.490643 
L 810.160682 190.490643 
L 810.528864 191.583382 
L 812.737955 191.583382 
L 813.106136 190.958832 
L 813.474318 190.958832 
L 814.210682 189.685554 
L 814.578864 189.685554 
L 814.947045 189.036514 
L 815.315227 189.036514 
L 815.683409 190.15546 
L 817.156136 190.15546 
L 817.524318 189.50097 
L 819.365227 189.50097 
L 819.733409 188.837813 
L 820.469773 188.837813 
L 820.837955 189.977813 
L 821.206136 189.792915 
L 821.574318 189.792915 
L 821.9425 190.290226 
L 824.887955 190.290226 
L 825.256136 191.487813 
L 825.9925 191.487813 
L 826.360682 190.105418 
L 826.728864 189.399515 
L 827.465227 189.399515 
L 827.833409 189.912633 
L 828.569773 189.912633 
L 828.937955 191.159552 
L 829.674318 191.159552 
L 830.0425 190.440732 
L 830.410682 190.440732 
L 830.778864 191.709871 
L 831.147045 190.984479 
L 832.987955 190.984479 
L 833.724318 189.50097 
L 837.406136 189.50097 
L 837.774318 188.742358 
L 838.1425 190.046973 
L 842.560682 190.046973 
L 842.928864 189.280889 
L 843.665227 189.280889 
L 844.033409 190.609906 
L 845.506136 190.609906 
L 845.874318 189.050411 
L 846.610682 187.441012 
L 846.978864 187.441012 
L 847.347045 186.616845 
L 847.715227 187.989032 
L 848.451591 187.989032 
L 848.819773 187.155845 
L 849.187955 187.155845 
L 849.556136 186.308887 
L 849.924318 186.308887 
L 850.2925 185.447812 
L 851.028864 185.447812 
L 851.397045 184.572266 
L 852.501591 184.572266 
L 852.869773 183.68188 
L 854.3425 183.68188 
L 854.710682 182.776274 
L 855.078864 182.776274 
L 855.447045 184.198157 
L 855.815227 183.281291 
L 856.183409 183.281291 
L 856.551591 182.348339 
L 860.601591 182.348339 
L 860.969773 180.432455 
L 868.333409 180.432455 
L 868.701591 181.897272 
L 869.437955 181.897272 
L 869.806136 183.388722 
L 870.174318 182.413959 
L 871.278864 182.413959 
L 871.647045 181.421146 
L 872.383409 181.421146 
L 872.751591 179.379322 
L 873.487955 179.379322 
L 873.856136 180.917813 
L 874.224318 179.872428 
L 874.5925 181.445579 
L 876.433409 181.445579 
L 876.801591 180.384871 
L 878.6425 180.384871 
L 879.378864 178.199813 
L 880.851591 178.199813 
L 881.219773 179.819631 
L 881.587955 179.819631 
L 881.956136 181.472506 
L 882.324318 180.3574 
L 882.6925 180.3574 
L 883.060682 179.219063 
L 885.269773 179.219063 
L 886.006136 176.869727 
L 886.374318 178.579748 
L 887.478864 178.579748 
L 887.847045 177.372595 
L 889.319773 177.372595 
L 889.687955 176.138911 
L 891.160682 176.138911 
L 891.528864 177.897813 
L 896.315227 177.897813 
L 896.683409 176.642307 
L 900.365227 176.642307 
L 900.733409 175.358267 
L 903.310682 175.358267 
L 903.678864 177.168847 
L 904.047045 177.168847 
L 904.415227 175.861068 
L 905.887955 175.861068 
L 906.256136 174.522518 
L 907.728864 174.522518 
L 908.097045 176.387812 
L 909.937955 176.387812 
L 910.306136 175.023355 
L 913.987955 175.023355 
L 914.356136 175.548924 
L 915.828864 175.548924 
L 916.197045 174.122813 
L 922.456136 174.122813 
L 922.824318 176.101104 
L 923.1925 176.101104 
L 923.560682 174.645505 
L 923.928864 176.681968 
L 924.297045 176.681968 
L 924.665227 175.195707 
L 925.033409 175.195707 
L 925.401591 173.669813 
L 930.924318 173.669813 
L 931.2925 175.77565 
L 932.028864 175.77565 
L 932.397045 177.939182 
L 933.133409 177.939182 
L 933.501591 176.387812 
L 939.024318 176.387812 
L 939.3925 178.620911 
L 942.706136 178.620911 
L 943.074318 177.034955 
L 955.960682 177.034955 
L 956.328864 179.34216 
L 957.065227 179.34216 
L 957.433409 181.717224 
L 962.219773 181.717224 
L 962.587955 184.163186 
L 967.7425 184.163186 
L 968.110682 182.565085 
L 970.319773 182.565085 
L 970.687955 180.917813 
L 973.633409 180.917813 
L 974.001591 179.219063 
L 974.737955 179.219063 
L 975.106136 177.466384 
L 976.578864 177.466384 
L 976.947045 175.657167 
L 978.419773 175.657167 
L 978.787955 173.788632 
L 985.415227 173.788632 
L 985.783409 176.387812 
L 986.887955 176.387812 
L 987.256136 174.468321 
L 996.460682 174.468321 
L 996.828864 177.168847 
L 998.301591 177.168847 
L 998.669773 179.964128 
L 1010.451591 179.964128 
L 1010.819773 178.00567 
L 1014.869773 178.00567 
L 1015.237955 180.917813 
L 1017.078864 180.917813 
L 1017.447045 178.904479 
L 1020.760682 178.904479 
L 1021.128864 181.943473 
L 1027.387955 181.943473 
L 1027.756136 179.872428 
L 1028.124318 179.872428 
L 1028.4925 177.720165 
L 1037.697045 177.720165 
L 1038.065227 180.917813 
L 1038.433409 180.917813 
L 1038.801591 178.699037 
L 1045.797045 178.699037 
L 1046.165227 176.387812 
L 1052.056136 176.387812 
L 1052.424318 173.978238 
L 1058.683409 173.978238 
L 1059.051591 171.463899 
L 1066.783409 171.463899 
L 1067.151591 168.837813 
L 1081.510682 168.837813 
L 1081.878864 172.269631 
L 1092.924318 172.269631 
L 1093.2925 169.540138 
L 1095.501591 169.540138 
L 1095.869773 166.68067 
L 1098.815227 166.68067 
L 1098.815227 166.68067 
" style="fill:none;stroke:#000080;stroke-linecap:square;stroke-width:2;"/>
   </g>
   <g id="patch_9">
    <path d="M 789.5425 289.637812 
L 789.5425 17.837813 
" style="fill:none;stroke:#000000;stroke-linecap:square;stroke-linejoin:miter;"/>
   </g>
   <g id="patch_10">
    <path d="M 789.5425 289.637812 
L 1113.5425 289.637812 
" style="fill:none;stroke:#000000;stroke-linecap:square;stroke-linejoin:miter;"/>
   </g>
  </g>
 </g>
 <defs>
  <clipPath id="pcc7fca7e7e">
   <rect height="271.8" width="324" x="109.1425" y="17.837812"/>
  </clipPath>
  <clipPath id="pd65911ffdb">
   <rect height="271.8" width="324" x="449.3425" y="17.837812"/>
  </clipPath>
  <clipPath id="p3fa41be403">
   <rect height="271.8" width="324" x="789.5425" y="17.837812"/>
  </clipPath>
 </defs>
</svg>
