<?xml version="1.0" encoding="utf-8" standalone="no"?>
<!DOCTYPE svg PUBLIC "-//W3C//DTD SVG 1.1//EN"
  "http://www.w3.org/Graphics/SVG/1.1/DTD/svg11.dtd">
<!-- Created with matplotlib (https://matplotlib.org/) -->
<svg height="309.175313pt" version="1.1" viewBox="0 0 1102.9275 309.175313" width="1102.9275pt" xmlns="http://www.w3.org/2000/svg" xmlns:xlink="http://www.w3.org/1999/xlink">
 <defs>
  <style type="text/css">
*{stroke-linecap:butt;stroke-linejoin:round;}
  </style>
 </defs>
 <g id="figure_1">
  <g id="patch_1">
   <path d="M 0 309.175313 
L 1102.9275 309.175313 
L 1102.9275 0 
L 0 0 
z
" style="fill:none;"/>
  </g>
  <g id="axes_1">
   <g id="patch_2">
    <path d="M 91.3275 235.277813 
L 415.3275 235.277813 
L 415.3275 17.837813 
L 91.3275 17.837813 
z
" style="fill:none;"/>
   </g>
   <g id="matplotlib.axis_1">
    <g id="xtick_1">
     <g id="line2d_1">
      <defs>
       <path d="M 0 0 
L 0 5 
" id="m41ed3df2d4" style="stroke:#000000;stroke-width:0.8;"/>
      </defs>
      <g>
       <use style="stroke:#000000;stroke-width:0.8;" x="106.054773" xlink:href="#m41ed3df2d4" y="235.277813"/>
      </g>
     </g>
     <g id="text_1">
      <!-- 1 -->
      <defs>
       <path d="M 12.40625 8.296875 
L 28.515625 8.296875 
L 28.515625 63.921875 
L 10.984375 60.40625 
L 10.984375 69.390625 
L 28.421875 72.90625 
L 38.28125 72.90625 
L 38.28125 8.296875 
L 54.390625 8.296875 
L 54.390625 0 
L 12.40625 0 
z
" id="DejaVuSans-49"/>
      </defs>
      <g transform="translate(97.147273 265.053438)scale(0.28 -0.28)">
       <use xlink:href="#DejaVuSans-49"/>
      </g>
     </g>
    </g>
    <g id="xtick_2">
     <g id="line2d_2">
      <g>
       <use style="stroke:#000000;stroke-width:0.8;" x="204.236591" xlink:href="#m41ed3df2d4" y="235.277813"/>
      </g>
     </g>
     <g id="text_2">
      <!-- 2 -->
      <defs>
       <path d="M 19.1875 8.296875 
L 53.609375 8.296875 
L 53.609375 0 
L 7.328125 0 
L 7.328125 8.296875 
Q 12.9375 14.109375 22.625 23.890625 
Q 32.328125 33.6875 34.8125 36.53125 
Q 39.546875 41.84375 41.421875 45.53125 
Q 43.3125 49.21875 43.3125 52.78125 
Q 43.3125 58.59375 39.234375 62.25 
Q 35.15625 65.921875 28.609375 65.921875 
Q 23.96875 65.921875 18.8125 64.3125 
Q 13.671875 62.703125 7.8125 59.421875 
L 7.8125 69.390625 
Q 13.765625 71.78125 18.9375 73 
Q 24.125 74.21875 28.421875 74.21875 
Q 39.75 74.21875 46.484375 68.546875 
Q 53.21875 62.890625 53.21875 53.421875 
Q 53.21875 48.921875 51.53125 44.890625 
Q 49.859375 40.875 45.40625 35.40625 
Q 44.1875 33.984375 37.640625 27.21875 
Q 31.109375 20.453125 19.1875 8.296875 
z
" id="DejaVuSans-50"/>
      </defs>
      <g transform="translate(195.329091 265.053438)scale(0.28 -0.28)">
       <use xlink:href="#DejaVuSans-50"/>
      </g>
     </g>
    </g>
    <g id="xtick_3">
     <g id="line2d_3">
      <g>
       <use style="stroke:#000000;stroke-width:0.8;" x="302.418409" xlink:href="#m41ed3df2d4" y="235.277813"/>
      </g>
     </g>
     <g id="text_3">
      <!-- 3 -->
      <defs>
       <path d="M 40.578125 39.3125 
Q 47.65625 37.796875 51.625 33 
Q 55.609375 28.21875 55.609375 21.1875 
Q 55.609375 10.40625 48.1875 4.484375 
Q 40.765625 -1.421875 27.09375 -1.421875 
Q 22.515625 -1.421875 17.65625 -0.515625 
Q 12.796875 0.390625 7.625 2.203125 
L 7.625 11.71875 
Q 11.71875 9.328125 16.59375 8.109375 
Q 21.484375 6.890625 26.8125 6.890625 
Q 36.078125 6.890625 40.9375 10.546875 
Q 45.796875 14.203125 45.796875 21.1875 
Q 45.796875 27.640625 41.28125 31.265625 
Q 36.765625 34.90625 28.71875 34.90625 
L 20.21875 34.90625 
L 20.21875 43.015625 
L 29.109375 43.015625 
Q 36.375 43.015625 40.234375 45.921875 
Q 44.09375 48.828125 44.09375 54.296875 
Q 44.09375 59.90625 40.109375 62.90625 
Q 36.140625 65.921875 28.71875 65.921875 
Q 24.65625 65.921875 20.015625 65.03125 
Q 15.375 64.15625 9.8125 62.3125 
L 9.8125 71.09375 
Q 15.4375 72.65625 20.34375 73.4375 
Q 25.25 74.21875 29.59375 74.21875 
Q 40.828125 74.21875 47.359375 69.109375 
Q 53.90625 64.015625 53.90625 55.328125 
Q 53.90625 49.265625 50.4375 45.09375 
Q 46.96875 40.921875 40.578125 39.3125 
z
" id="DejaVuSans-51"/>
      </defs>
      <g transform="translate(293.510909 265.053438)scale(0.28 -0.28)">
       <use xlink:href="#DejaVuSans-51"/>
      </g>
     </g>
    </g>
    <g id="xtick_4">
     <g id="line2d_4">
      <g>
       <use style="stroke:#000000;stroke-width:0.8;" x="400.600227" xlink:href="#m41ed3df2d4" y="235.277813"/>
      </g>
     </g>
     <g id="text_4">
      <!-- 4 -->
      <defs>
       <path d="M 37.796875 64.3125 
L 12.890625 25.390625 
L 37.796875 25.390625 
z
M 35.203125 72.90625 
L 47.609375 72.90625 
L 47.609375 25.390625 
L 58.015625 25.390625 
L 58.015625 17.1875 
L 47.609375 17.1875 
L 47.609375 0 
L 37.796875 0 
L 37.796875 17.1875 
L 4.890625 17.1875 
L 4.890625 26.703125 
z
" id="DejaVuSans-52"/>
      </defs>
      <g transform="translate(391.692727 265.053438)scale(0.28 -0.28)">
       <use xlink:href="#DejaVuSans-52"/>
      </g>
     </g>
    </g>
    <g id="text_5">
     <!-- -log10 p-value -->
     <defs>
      <path d="M 4.890625 31.390625 
L 31.203125 31.390625 
L 31.203125 23.390625 
L 4.890625 23.390625 
z
" id="DejaVuSans-45"/>
      <path d="M 9.421875 75.984375 
L 18.40625 75.984375 
L 18.40625 0 
L 9.421875 0 
z
" id="DejaVuSans-108"/>
      <path d="M 30.609375 48.390625 
Q 23.390625 48.390625 19.1875 42.75 
Q 14.984375 37.109375 14.984375 27.296875 
Q 14.984375 17.484375 19.15625 11.84375 
Q 23.34375 6.203125 30.609375 6.203125 
Q 37.796875 6.203125 41.984375 11.859375 
Q 46.1875 17.53125 46.1875 27.296875 
Q 46.1875 37.015625 41.984375 42.703125 
Q 37.796875 48.390625 30.609375 48.390625 
z
M 30.609375 56 
Q 42.328125 56 49.015625 48.375 
Q 55.71875 40.765625 55.71875 27.296875 
Q 55.71875 13.875 49.015625 6.21875 
Q 42.328125 -1.421875 30.609375 -1.421875 
Q 18.84375 -1.421875 12.171875 6.21875 
Q 5.515625 13.875 5.515625 27.296875 
Q 5.515625 40.765625 12.171875 48.375 
Q 18.84375 56 30.609375 56 
z
" id="DejaVuSans-111"/>
      <path d="M 45.40625 27.984375 
Q 45.40625 37.75 41.375 43.109375 
Q 37.359375 48.484375 30.078125 48.484375 
Q 22.859375 48.484375 18.828125 43.109375 
Q 14.796875 37.75 14.796875 27.984375 
Q 14.796875 18.265625 18.828125 12.890625 
Q 22.859375 7.515625 30.078125 7.515625 
Q 37.359375 7.515625 41.375 12.890625 
Q 45.40625 18.265625 45.40625 27.984375 
z
M 54.390625 6.78125 
Q 54.390625 -7.171875 48.1875 -13.984375 
Q 42 -20.796875 29.203125 -20.796875 
Q 24.46875 -20.796875 20.265625 -20.09375 
Q 16.0625 -19.390625 12.109375 -17.921875 
L 12.109375 -9.1875 
Q 16.0625 -11.328125 19.921875 -12.34375 
Q 23.78125 -13.375 27.78125 -13.375 
Q 36.625 -13.375 41.015625 -8.765625 
Q 45.40625 -4.15625 45.40625 5.171875 
L 45.40625 9.625 
Q 42.625 4.78125 38.28125 2.390625 
Q 33.9375 0 27.875 0 
Q 17.828125 0 11.671875 7.65625 
Q 5.515625 15.328125 5.515625 27.984375 
Q 5.515625 40.671875 11.671875 48.328125 
Q 17.828125 56 27.875 56 
Q 33.9375 56 38.28125 53.609375 
Q 42.625 51.21875 45.40625 46.390625 
L 45.40625 54.6875 
L 54.390625 54.6875 
z
" id="DejaVuSans-103"/>
      <path d="M 31.78125 66.40625 
Q 24.171875 66.40625 20.328125 58.90625 
Q 16.5 51.421875 16.5 36.375 
Q 16.5 21.390625 20.328125 13.890625 
Q 24.171875 6.390625 31.78125 6.390625 
Q 39.453125 6.390625 43.28125 13.890625 
Q 47.125 21.390625 47.125 36.375 
Q 47.125 51.421875 43.28125 58.90625 
Q 39.453125 66.40625 31.78125 66.40625 
z
M 31.78125 74.21875 
Q 44.046875 74.21875 50.515625 64.515625 
Q 56.984375 54.828125 56.984375 36.375 
Q 56.984375 17.96875 50.515625 8.265625 
Q 44.046875 -1.421875 31.78125 -1.421875 
Q 19.53125 -1.421875 13.0625 8.265625 
Q 6.59375 17.96875 6.59375 36.375 
Q 6.59375 54.828125 13.0625 64.515625 
Q 19.53125 74.21875 31.78125 74.21875 
z
" id="DejaVuSans-48"/>
      <path id="DejaVuSans-32"/>
      <path d="M 18.109375 8.203125 
L 18.109375 -20.796875 
L 9.078125 -20.796875 
L 9.078125 54.6875 
L 18.109375 54.6875 
L 18.109375 46.390625 
Q 20.953125 51.265625 25.265625 53.625 
Q 29.59375 56 35.59375 56 
Q 45.5625 56 51.78125 48.09375 
Q 58.015625 40.1875 58.015625 27.296875 
Q 58.015625 14.40625 51.78125 6.484375 
Q 45.5625 -1.421875 35.59375 -1.421875 
Q 29.59375 -1.421875 25.265625 0.953125 
Q 20.953125 3.328125 18.109375 8.203125 
z
M 48.6875 27.296875 
Q 48.6875 37.203125 44.609375 42.84375 
Q 40.53125 48.484375 33.40625 48.484375 
Q 26.265625 48.484375 22.1875 42.84375 
Q 18.109375 37.203125 18.109375 27.296875 
Q 18.109375 17.390625 22.1875 11.75 
Q 26.265625 6.109375 33.40625 6.109375 
Q 40.53125 6.109375 44.609375 11.75 
Q 48.6875 17.390625 48.6875 27.296875 
z
" id="DejaVuSans-112"/>
      <path d="M 2.984375 54.6875 
L 12.5 54.6875 
L 29.59375 8.796875 
L 46.6875 54.6875 
L 56.203125 54.6875 
L 35.6875 0 
L 23.484375 0 
z
" id="DejaVuSans-118"/>
      <path d="M 34.28125 27.484375 
Q 23.390625 27.484375 19.1875 25 
Q 14.984375 22.515625 14.984375 16.5 
Q 14.984375 11.71875 18.140625 8.90625 
Q 21.296875 6.109375 26.703125 6.109375 
Q 34.1875 6.109375 38.703125 11.40625 
Q 43.21875 16.703125 43.21875 25.484375 
L 43.21875 27.484375 
z
M 52.203125 31.203125 
L 52.203125 0 
L 43.21875 0 
L 43.21875 8.296875 
Q 40.140625 3.328125 35.546875 0.953125 
Q 30.953125 -1.421875 24.3125 -1.421875 
Q 15.921875 -1.421875 10.953125 3.296875 
Q 6 8.015625 6 15.921875 
Q 6 25.140625 12.171875 29.828125 
Q 18.359375 34.515625 30.609375 34.515625 
L 43.21875 34.515625 
L 43.21875 35.40625 
Q 43.21875 41.609375 39.140625 45 
Q 35.0625 48.390625 27.6875 48.390625 
Q 23 48.390625 18.546875 47.265625 
Q 14.109375 46.140625 10.015625 43.890625 
L 10.015625 52.203125 
Q 14.9375 54.109375 19.578125 55.046875 
Q 24.21875 56 28.609375 56 
Q 40.484375 56 46.34375 49.84375 
Q 52.203125 43.703125 52.203125 31.203125 
z
" id="DejaVuSans-97"/>
      <path d="M 8.5 21.578125 
L 8.5 54.6875 
L 17.484375 54.6875 
L 17.484375 21.921875 
Q 17.484375 14.15625 20.5 10.265625 
Q 23.53125 6.390625 29.59375 6.390625 
Q 36.859375 6.390625 41.078125 11.03125 
Q 45.3125 15.671875 45.3125 23.6875 
L 45.3125 54.6875 
L 54.296875 54.6875 
L 54.296875 0 
L 45.3125 0 
L 45.3125 8.40625 
Q 42.046875 3.421875 37.71875 1 
Q 33.40625 -1.421875 27.6875 -1.421875 
Q 18.265625 -1.421875 13.375 4.4375 
Q 8.5 10.296875 8.5 21.578125 
z
M 31.109375 56 
z
" id="DejaVuSans-117"/>
      <path d="M 56.203125 29.59375 
L 56.203125 25.203125 
L 14.890625 25.203125 
Q 15.484375 15.921875 20.484375 11.0625 
Q 25.484375 6.203125 34.421875 6.203125 
Q 39.59375 6.203125 44.453125 7.46875 
Q 49.3125 8.734375 54.109375 11.28125 
L 54.109375 2.78125 
Q 49.265625 0.734375 44.1875 -0.34375 
Q 39.109375 -1.421875 33.890625 -1.421875 
Q 20.796875 -1.421875 13.15625 6.1875 
Q 5.515625 13.8125 5.515625 26.8125 
Q 5.515625 40.234375 12.765625 48.109375 
Q 20.015625 56 32.328125 56 
Q 43.359375 56 49.78125 48.890625 
Q 56.203125 41.796875 56.203125 29.59375 
z
M 47.21875 32.234375 
Q 47.125 39.59375 43.09375 43.984375 
Q 39.0625 48.390625 32.421875 48.390625 
Q 24.90625 48.390625 20.390625 44.140625 
Q 15.875 39.890625 15.1875 32.171875 
z
" id="DejaVuSans-101"/>
     </defs>
     <g transform="translate(152.4925 296.152188)scale(0.28 -0.28)">
      <use xlink:href="#DejaVuSans-45"/>
      <use x="36.083984" xlink:href="#DejaVuSans-108"/>
      <use x="63.867188" xlink:href="#DejaVuSans-111"/>
      <use x="125.048828" xlink:href="#DejaVuSans-103"/>
      <use x="188.525391" xlink:href="#DejaVuSans-49"/>
      <use x="252.148438" xlink:href="#DejaVuSans-48"/>
      <use x="315.771484" xlink:href="#DejaVuSans-32"/>
      <use x="347.558594" xlink:href="#DejaVuSans-112"/>
      <use x="411.035156" xlink:href="#DejaVuSans-45"/>
      <use x="447.087891" xlink:href="#DejaVuSans-118"/>
      <use x="506.267578" xlink:href="#DejaVuSans-97"/>
      <use x="567.546875" xlink:href="#DejaVuSans-108"/>
      <use x="595.330078" xlink:href="#DejaVuSans-117"/>
      <use x="658.708984" xlink:href="#DejaVuSans-101"/>
     </g>
    </g>
   </g>
   <g id="matplotlib.axis_2">
    <g id="ytick_1">
     <g id="line2d_5">
      <defs>
       <path d="M 0 0 
L -5 0 
" id="mf1236d539e" style="stroke:#000000;stroke-width:0.8;"/>
      </defs>
      <g>
       <use style="stroke:#000000;stroke-width:0.8;" x="91.3275" xlink:href="#mf1236d539e" y="235.277813"/>
      </g>
     </g>
     <g id="text_6">
      <!-- 0.0 -->
      <defs>
       <path d="M 10.6875 12.40625 
L 21 12.40625 
L 21 0 
L 10.6875 0 
z
" id="DejaVuSans-46"/>
      </defs>
      <g transform="translate(38.29875 245.915625)scale(0.28 -0.28)">
       <use xlink:href="#DejaVuSans-48"/>
       <use x="63.623047" xlink:href="#DejaVuSans-46"/>
       <use x="95.410156" xlink:href="#DejaVuSans-48"/>
      </g>
     </g>
    </g>
    <g id="ytick_2">
     <g id="line2d_6">
      <g>
       <use style="stroke:#000000;stroke-width:0.8;" x="91.3275" xlink:href="#mf1236d539e" y="126.557813"/>
      </g>
     </g>
     <g id="text_7">
      <!-- 0.5 -->
      <defs>
       <path d="M 10.796875 72.90625 
L 49.515625 72.90625 
L 49.515625 64.59375 
L 19.828125 64.59375 
L 19.828125 46.734375 
Q 21.96875 47.46875 24.109375 47.828125 
Q 26.265625 48.1875 28.421875 48.1875 
Q 40.625 48.1875 47.75 41.5 
Q 54.890625 34.8125 54.890625 23.390625 
Q 54.890625 11.625 47.5625 5.09375 
Q 40.234375 -1.421875 26.90625 -1.421875 
Q 22.3125 -1.421875 17.546875 -0.640625 
Q 12.796875 0.140625 7.71875 1.703125 
L 7.71875 11.625 
Q 12.109375 9.234375 16.796875 8.0625 
Q 21.484375 6.890625 26.703125 6.890625 
Q 35.15625 6.890625 40.078125 11.328125 
Q 45.015625 15.765625 45.015625 23.390625 
Q 45.015625 31 40.078125 35.4375 
Q 35.15625 39.890625 26.703125 39.890625 
Q 22.75 39.890625 18.8125 39.015625 
Q 14.890625 38.140625 10.796875 36.28125 
z
" id="DejaVuSans-53"/>
      </defs>
      <g transform="translate(38.29875 137.195625)scale(0.28 -0.28)">
       <use xlink:href="#DejaVuSans-48"/>
       <use x="63.623047" xlink:href="#DejaVuSans-46"/>
       <use x="95.410156" xlink:href="#DejaVuSans-53"/>
      </g>
     </g>
    </g>
    <g id="ytick_3">
     <g id="line2d_7">
      <g>
       <use style="stroke:#000000;stroke-width:0.8;" x="91.3275" xlink:href="#mf1236d539e" y="17.837813"/>
      </g>
     </g>
     <g id="text_8">
      <!-- 1.0 -->
      <g transform="translate(38.29875 28.475625)scale(0.28 -0.28)">
       <use xlink:href="#DejaVuSans-49"/>
       <use x="63.623047" xlink:href="#DejaVuSans-46"/>
       <use x="95.410156" xlink:href="#DejaVuSans-48"/>
      </g>
     </g>
    </g>
    <g id="text_9">
     <!-- Recall -->
     <defs>
      <path d="M 44.390625 34.1875 
Q 47.5625 33.109375 50.5625 29.59375 
Q 53.5625 26.078125 56.59375 19.921875 
L 66.609375 0 
L 56 0 
L 46.6875 18.703125 
Q 43.0625 26.03125 39.671875 28.421875 
Q 36.28125 30.8125 30.421875 30.8125 
L 19.671875 30.8125 
L 19.671875 0 
L 9.8125 0 
L 9.8125 72.90625 
L 32.078125 72.90625 
Q 44.578125 72.90625 50.734375 67.671875 
Q 56.890625 62.453125 56.890625 51.90625 
Q 56.890625 45.015625 53.6875 40.46875 
Q 50.484375 35.9375 44.390625 34.1875 
z
M 19.671875 64.796875 
L 19.671875 38.921875 
L 32.078125 38.921875 
Q 39.203125 38.921875 42.84375 42.21875 
Q 46.484375 45.515625 46.484375 51.90625 
Q 46.484375 58.296875 42.84375 61.546875 
Q 39.203125 64.796875 32.078125 64.796875 
z
" id="DejaVuSans-82"/>
      <path d="M 48.78125 52.59375 
L 48.78125 44.1875 
Q 44.96875 46.296875 41.140625 47.34375 
Q 37.3125 48.390625 33.40625 48.390625 
Q 24.65625 48.390625 19.8125 42.84375 
Q 14.984375 37.3125 14.984375 27.296875 
Q 14.984375 17.28125 19.8125 11.734375 
Q 24.65625 6.203125 33.40625 6.203125 
Q 37.3125 6.203125 41.140625 7.25 
Q 44.96875 8.296875 48.78125 10.40625 
L 48.78125 2.09375 
Q 45.015625 0.34375 40.984375 -0.53125 
Q 36.96875 -1.421875 32.421875 -1.421875 
Q 20.0625 -1.421875 12.78125 6.34375 
Q 5.515625 14.109375 5.515625 27.296875 
Q 5.515625 40.671875 12.859375 48.328125 
Q 20.21875 56 33.015625 56 
Q 37.15625 56 41.109375 55.140625 
Q 45.0625 54.296875 48.78125 52.59375 
z
" id="DejaVuSans-99"/>
     </defs>
     <g transform="translate(28.475625 168.947188)rotate(-90)scale(0.28 -0.28)">
      <use xlink:href="#DejaVuSans-82"/>
      <use x="69.419922" xlink:href="#DejaVuSans-101"/>
      <use x="130.943359" xlink:href="#DejaVuSans-99"/>
      <use x="185.923828" xlink:href="#DejaVuSans-97"/>
      <use x="247.203125" xlink:href="#DejaVuSans-108"/>
      <use x="274.986328" xlink:href="#DejaVuSans-108"/>
     </g>
    </g>
   </g>
   <g id="line2d_8">
    <path clip-path="url(#p17594ecbe0)" d="M 106.054773 213.85974 
L 109.000227 213.391073 
L 109.982045 213.294867 
L 113.418409 212.851265 
L 114.891136 212.596996 
L 117.345682 212.493667 
L 118.3275 212.336895 
L 118.818409 212.070759 
L 119.800227 211.962568 
L 121.272955 211.74313 
L 125.691136 211.233966 
L 126.182045 211.64303 
L 130.109318 211.585803 
L 130.600227 211.999564 
L 131.091136 211.942788 
L 131.582045 212.305036 
L 132.072955 212.305036 
L 133.054773 212.19159 
L 135.018409 212.134446 
L 135.509318 212.077018 
L 136.000227 212.503548 
L 136.982045 212.446613 
L 137.472955 212.331883 
L 139.9275 212.274085 
L 140.418409 212.15761 
L 141.400227 212.098929 
L 143.854773 211.801 
L 144.345682 212.241533 
L 146.309318 212.181854 
L 146.800227 212.061563 
L 148.763864 212.000946 
L 149.254773 212.389391 
L 160.054773 211.117813 
L 162.509318 211.050514 
L 163.491136 210.914787 
L 163.982045 211.390038 
L 164.472955 211.390038 
L 164.963864 211.254696 
L 165.945682 211.186449 
L 166.436591 211.048784 
L 166.9275 211.048784 
L 167.418409 211.534364 
L 171.836591 210.975695 
L 172.818409 210.904007 
L 173.800227 210.759356 
L 174.291136 211.262051 
L 175.272955 211.190148 
L 177.236591 211.117813 
L 177.7275 211.628749 
L 178.218409 211.628749 
L 179.200227 212.7383 
L 179.691136 212.7383 
L 180.672955 212.530243 
L 181.654773 212.460035 
L 185.091136 212.389391 
L 187.545682 212.102389 
L 189.018409 212.029511 
L 189.509318 212.642103 
L 190.491136 212.570471 
L 194.909318 211.98067 
L 195.400227 211.98067 
L 195.891136 211.828401 
L 196.382045 212.464435 
L 197.363864 212.389391 
L 199.818409 212.084213 
L 201.291136 212.006642 
L 202.272955 211.928551 
L 204.236591 211.849934 
L 205.218409 211.770785 
L 206.200227 211.691101 
L 207.182045 211.448771 
L 208.163864 211.284433 
L 208.654773 211.953799 
L 211.109318 211.872813 
L 212.091136 211.791262 
L 213.563864 211.709141 
L 214.545682 211.626444 
L 215.036591 212.227636 
L 224.854773 212.145898 
L 225.345682 211.98067 
L 227.800227 211.897167 
L 228.782045 211.557085 
L 231.7275 211.470513 
L 232.218409 211.29546 
L 234.672955 211.206964 
L 235.163864 211.027998 
L 237.1275 210.937514 
L 238.600227 210.754504 
L 241.054773 210.661963 
L 244.491136 210.091712 
L 245.963864 209.994092 
L 246.945682 209.895711 
L 249.400227 209.796563 
L 249.891136 209.595923 
L 252.345682 209.595923 
L 252.836591 209.392098 
L 253.3275 209.392098 
L 254.309318 208.974587 
L 257.745682 208.868096 
L 258.236591 209.540017 
L 258.7275 209.328183 
L 261.672955 209.220953 
L 263.636591 208.893879 
L 265.600227 208.783023 
L 266.091136 208.55849 
L 266.582045 208.55849 
L 267.563864 208.444791 
L 268.545682 208.444791 
L 269.036591 208.214465 
L 270.509318 208.214465 
L 271.000227 208.097813 
L 274.9275 208.097813 
L 275.418409 207.98015 
L 275.909318 207.98015 
L 276.400227 208.691262 
L 276.891136 208.691262 
L 277.382045 208.574655 
L 280.818409 208.574655 
L 281.309318 208.45702 
L 282.291136 208.45702 
L 282.782045 208.338343 
L 283.272955 208.338343 
L 283.763864 209.068527 
L 284.745682 209.068527 
L 285.236591 208.832407 
L 286.218409 208.832407 
L 286.709318 209.463018 
L 287.691136 209.463018 
L 288.182045 210.227121 
L 289.163864 210.227121 
L 289.654773 209.994092 
L 291.1275 209.994092 
L 291.618409 209.514779 
L 299.963864 209.514779 
L 300.454773 209.268243 
L 304.382045 209.268243 
L 304.872955 209.143197 
L 306.836591 209.143197 
L 307.3275 209.016943 
L 309.291136 209.016943 
L 309.782045 208.630754 
L 311.745682 208.630754 
L 312.236591 208.499487 
L 314.200227 208.499487 
L 314.691136 208.233036 
L 317.145682 208.233036 
L 317.636591 207.823267 
L 320.582045 207.823267 
L 321.072955 207.400889 
L 324.018409 207.400889 
L 324.509318 208.097813 
L 327.454773 208.097813 
L 327.945682 207.519515 
L 331.872955 207.519515 
L 332.363864 207.06938 
L 336.291136 207.06938 
L 336.782045 206.916073 
L 341.200227 206.916073 
L 341.691136 205.794423 
L 347.091136 205.794423 
L 347.582045 204.937347 
L 353.472955 204.937347 
L 353.963864 204.596095 
L 361.3275 204.596095 
L 361.818409 203.625154 
L 370.654773 203.625154 
L 371.145682 202.803007 
L 382.9275 202.803007 
L 383.418409 203.346064 
L 400.600227 203.346064 
L 400.600227 203.346064 
" style="fill:none;stroke:#8b0000;stroke-linecap:square;stroke-width:2;"/>
   </g>
   <g id="line2d_9">
    <path clip-path="url(#p17594ecbe0)" d="M 106.054773 177.076528 
L 106.545682 176.8262 
L 107.036591 176.446644 
L 107.5275 176.446644 
L 108.018409 176.190856 
L 109.000227 176.278775 
L 109.491136 176.278775 
L 109.982045 176.019439 
L 110.472955 175.888914 
L 110.963864 175.888914 
L 111.454773 176.107193 
L 111.945682 175.975994 
L 112.436591 176.19612 
L 112.9275 176.19612 
L 113.418409 176.773777 
L 113.909318 176.510245 
L 114.400227 176.377587 
L 114.891136 176.603527 
L 115.382045 176.603527 
L 115.872955 176.470176 
L 116.363864 176.470176 
L 116.854773 176.336218 
L 117.345682 176.336218 
L 117.836591 176.201648 
L 118.3275 175.930657 
L 118.818409 175.242174 
L 119.309318 175.242174 
L 120.291136 174.67978 
L 121.763864 174.25102 
L 122.254773 174.25102 
L 122.745682 174.106749 
L 123.236591 174.106749 
L 123.7275 174.332634 
L 124.709318 174.041727 
L 125.200227 174.041727 
L 125.691136 175.168197 
L 126.182045 175.928247 
L 128.145682 175.928247 
L 128.636591 175.784544 
L 130.109318 175.784544 
L 130.600227 176.02409 
L 131.091136 175.879569 
L 131.582045 176.510245 
L 132.072955 176.510245 
L 132.563864 176.220035 
L 134.036591 176.220035 
L 134.5275 176.61207 
L 135.018409 176.61207 
L 135.509318 176.466497 
L 136.000227 177.257663 
L 136.491136 177.257663 
L 136.982045 177.112613 
L 137.472955 176.820325 
L 137.963864 176.820325 
L 138.454773 176.673077 
L 139.9275 176.673077 
L 140.418409 176.926825 
L 140.909318 176.926825 
L 142.382045 176.480261 
L 142.872955 176.178736 
L 143.363864 176.02681 
L 143.854773 176.02681 
L 144.345682 176.282464 
L 145.3275 176.282464 
L 145.818409 176.129626 
L 146.309318 176.129626 
L 146.800227 175.821563 
L 147.782045 175.821563 
L 148.272955 175.666324 
L 149.745682 175.6109 
L 150.7275 175.294364 
L 151.218409 175.713132 
L 151.709318 175.554293 
L 152.200227 175.554293 
L 152.691136 175.234059 
L 153.182045 175.072651 
L 154.163864 175.072651 
L 154.654773 174.910373 
L 155.636591 175.437377 
L 156.1275 175.867976 
L 156.618409 175.867976 
L 157.109318 175.70521 
L 157.600227 175.70521 
L 158.091136 175.211514 
L 158.582045 175.211514 
L 159.563864 174.877813 
L 161.5275 174.877813 
L 162.018409 175.31525 
L 162.509318 175.31525 
L 163.491136 174.979325 
L 163.982045 175.252122 
L 164.472955 175.252122 
L 164.963864 174.912033 
L 165.454773 174.912033 
L 165.945682 174.74054 
L 166.436591 174.394613 
L 166.9275 174.394613 
L 167.418409 174.669537 
L 167.909318 174.494873 
L 168.400227 174.494873 
L 168.891136 174.772769 
L 169.382045 174.41997 
L 169.872955 174.242023 
L 170.854773 174.242023 
L 171.836591 173.882989 
L 172.3275 173.882989 
L 173.309318 173.519706 
L 173.800227 173.98167 
L 174.291136 174.264798 
L 174.782045 174.082124 
L 176.745682 174.082124 
L 177.236591 173.898353 
L 177.7275 174.184399 
L 178.218409 174.184399 
L 178.709318 174.658176 
L 179.200227 174.288544 
L 179.691136 174.288544 
L 180.182045 173.914377 
L 181.163864 173.53559 
L 183.618409 173.53559 
L 184.109318 173.344438 
L 185.091136 173.344438 
L 186.563864 172.763813 
L 187.054773 172.763813 
L 187.545682 172.567844 
L 188.036591 172.567844 
L 188.5275 172.370643 
L 189.018409 172.370643 
L 189.509318 172.858128 
L 190.000227 172.858128 
L 191.963864 172.060432 
L 192.454773 171.65389 
L 192.945682 171.65389 
L 193.9275 171.242084 
L 194.418409 171.242084 
L 194.909318 171.034176 
L 195.400227 171.034176 
L 195.891136 170.614283 
L 196.382045 171.11519 
L 196.872955 171.11519 
L 197.854773 170.691674 
L 198.345682 170.26253 
L 198.836591 170.045813 
L 200.800227 170.045813 
L 201.782045 169.608014 
L 203.745682 169.608014 
L 204.7275 170.633488 
L 205.709318 170.633488 
L 206.200227 170.414355 
L 206.691136 170.713717 
L 207.182045 171.237265 
L 208.163864 170.795606 
L 208.654773 171.324871 
L 210.1275 171.324871 
L 210.618409 171.102813 
L 211.109318 171.102813 
L 211.600227 170.879206 
L 212.582045 170.879206 
L 213.072955 170.654036 
L 213.563864 170.654036 
L 214.054773 171.190234 
L 214.545682 171.190234 
L 215.036591 171.505657 
L 220.436591 171.505657 
L 220.9275 171.279515 
L 224.854773 171.279515 
L 225.345682 170.822384 
L 227.309318 170.822384 
L 227.800227 170.591361 
L 228.291136 170.124311 
L 228.782045 170.441158 
L 231.236591 170.441158 
L 231.7275 170.998104 
L 232.218409 171.324871 
L 233.691136 171.324871 
L 234.182045 171.891244 
L 234.672955 171.891244 
L 235.163864 171.419969 
L 235.654773 171.419969 
L 236.145682 171.181693 
L 237.1275 171.181693 
L 237.618409 170.941633 
L 238.109318 170.941633 
L 238.600227 171.517211 
L 240.563864 171.517211 
L 241.545682 171.034176 
L 242.036591 171.37369 
L 243.018409 171.37369 
L 244.491136 170.633488 
L 245.472955 170.633488 
L 246.454773 170.13042 
L 247.9275 170.13042 
L 248.418409 169.875938 
L 249.400227 169.875938 
L 249.891136 169.360962 
L 252.345682 169.360962 
L 252.836591 168.837813 
L 253.3275 168.837813 
L 253.818409 170.045813 
L 254.309318 169.519748 
L 255.291136 169.519748 
L 255.782045 169.253521 
L 257.745682 169.253521 
L 258.7275 169.956331 
L 260.691136 169.956331 
L 261.182045 169.686408 
L 261.672955 169.686408 
L 262.654773 169.139813 
L 263.145682 169.139813 
L 263.636591 168.863084 
L 264.618409 168.863084 
L 265.109318 168.584031 
L 265.600227 168.584031 
L 266.091136 168.018829 
L 266.582045 168.018829 
L 267.072955 168.657898 
L 268.545682 168.657898 
L 269.036591 168.086053 
L 270.509318 168.086053 
L 271.000227 167.796433 
L 274.9275 167.796433 
L 275.418409 167.504306 
L 275.909318 167.504306 
L 276.400227 167.861917 
L 276.891136 167.861917 
L 277.382045 168.519918 
L 280.818409 168.519918 
L 281.309318 168.22583 
L 282.291136 168.22583 
L 282.782045 167.92914 
L 283.272955 167.92914 
L 283.763864 168.298527 
L 284.745682 168.298527 
L 285.236591 167.69511 
L 287.691136 167.762196 
L 288.182045 169.143988 
L 289.163864 169.143988 
L 289.654773 168.528789 
L 291.1275 168.528789 
L 291.618409 168.293926 
L 299.963864 168.293926 
L 300.454773 167.652932 
L 304.382045 167.652932 
L 304.872955 167.327813 
L 306.836591 167.327813 
L 307.3275 166.999552 
L 309.291136 166.999552 
L 309.782045 165.99546 
L 311.745682 165.99546 
L 312.236591 165.654167 
L 314.200227 165.654167 
L 314.691136 164.961395 
L 317.145682 164.961395 
L 317.636591 163.895994 
L 320.582045 163.895994 
L 321.072955 162.797813 
L 327.454773 162.797813 
L 327.945682 162.412281 
L 336.291136 162.406029 
L 336.782045 162.009986 
L 341.200227 162.009986 
L 341.691136 160.340863 
L 347.091136 160.340863 
L 347.582045 160.690836 
L 353.472955 160.690836 
L 353.963864 160.5745 
L 361.3275 160.5745 
L 361.818409 158.210471 
L 370.654773 158.210471 
L 371.145682 157.62067 
L 400.600227 157.729281 
L 400.600227 157.729281 
" style="fill:none;stroke:#000080;stroke-linecap:square;stroke-width:2;"/>
   </g>
   <g id="patch_3">
    <path d="M 91.3275 235.277813 
L 91.3275 17.837813 
" style="fill:none;stroke:#000000;stroke-linecap:square;stroke-linejoin:miter;"/>
   </g>
   <g id="patch_4">
    <path d="M 91.3275 235.277813 
L 415.3275 235.277813 
" style="fill:none;stroke:#000000;stroke-linecap:square;stroke-linejoin:miter;"/>
   </g>
  </g>
  <g id="axes_2">
   <g id="patch_5">
    <path d="M 431.5275 235.277813 
L 755.5275 235.277813 
L 755.5275 17.837813 
L 431.5275 17.837813 
z
" style="fill:none;"/>
   </g>
   <g id="matplotlib.axis_3">
    <g id="xtick_5">
     <g id="line2d_10">
      <g>
       <use style="stroke:#000000;stroke-width:0.8;" x="446.254773" xlink:href="#m41ed3df2d4" y="235.277813"/>
      </g>
     </g>
     <g id="text_10">
      <!-- 1 -->
      <g transform="translate(437.347273 265.053438)scale(0.28 -0.28)">
       <use xlink:href="#DejaVuSans-49"/>
      </g>
     </g>
    </g>
    <g id="xtick_6">
     <g id="line2d_11">
      <g>
       <use style="stroke:#000000;stroke-width:0.8;" x="544.436591" xlink:href="#m41ed3df2d4" y="235.277813"/>
      </g>
     </g>
     <g id="text_11">
      <!-- 2 -->
      <g transform="translate(535.529091 265.053438)scale(0.28 -0.28)">
       <use xlink:href="#DejaVuSans-50"/>
      </g>
     </g>
    </g>
    <g id="xtick_7">
     <g id="line2d_12">
      <g>
       <use style="stroke:#000000;stroke-width:0.8;" x="642.618409" xlink:href="#m41ed3df2d4" y="235.277813"/>
      </g>
     </g>
     <g id="text_12">
      <!-- 3 -->
      <g transform="translate(633.710909 265.053438)scale(0.28 -0.28)">
       <use xlink:href="#DejaVuSans-51"/>
      </g>
     </g>
    </g>
    <g id="xtick_8">
     <g id="line2d_13">
      <g>
       <use style="stroke:#000000;stroke-width:0.8;" x="740.800227" xlink:href="#m41ed3df2d4" y="235.277813"/>
      </g>
     </g>
     <g id="text_13">
      <!-- 4 -->
      <g transform="translate(731.892727 265.053438)scale(0.28 -0.28)">
       <use xlink:href="#DejaVuSans-52"/>
      </g>
     </g>
    </g>
    <g id="text_14">
     <!-- -log10 p-value -->
     <g transform="translate(492.6925 296.152188)scale(0.28 -0.28)">
      <use xlink:href="#DejaVuSans-45"/>
      <use x="36.083984" xlink:href="#DejaVuSans-108"/>
      <use x="63.867188" xlink:href="#DejaVuSans-111"/>
      <use x="125.048828" xlink:href="#DejaVuSans-103"/>
      <use x="188.525391" xlink:href="#DejaVuSans-49"/>
      <use x="252.148438" xlink:href="#DejaVuSans-48"/>
      <use x="315.771484" xlink:href="#DejaVuSans-32"/>
      <use x="347.558594" xlink:href="#DejaVuSans-112"/>
      <use x="411.035156" xlink:href="#DejaVuSans-45"/>
      <use x="447.087891" xlink:href="#DejaVuSans-118"/>
      <use x="506.267578" xlink:href="#DejaVuSans-97"/>
      <use x="567.546875" xlink:href="#DejaVuSans-108"/>
      <use x="595.330078" xlink:href="#DejaVuSans-117"/>
      <use x="658.708984" xlink:href="#DejaVuSans-101"/>
     </g>
    </g>
   </g>
   <g id="matplotlib.axis_4">
    <g id="ytick_4"/>
    <g id="ytick_5"/>
    <g id="ytick_6"/>
   </g>
   <g id="line2d_14">
    <path clip-path="url(#paede45d6ca)" d="M 446.254773 114.477813 
L 447.236591 112.198567 
L 447.7275 113.097241 
L 448.218409 110.724803 
L 453.1275 110.724803 
L 453.618409 112.564149 
L 457.054773 112.564149 
L 457.545682 113.511413 
L 458.036591 113.511413 
L 458.5275 114.477813 
L 459.018409 113.245159 
L 460.000227 113.245159 
L 460.982045 110.702813 
L 461.963864 110.702813 
L 462.945682 108.052281 
L 463.436591 108.052281 
L 464.418409 110.013465 
L 465.400227 107.229813 
L 469.818409 107.229813 
L 470.309318 105.791071 
L 472.272955 105.791071 
L 473.254773 102.814364 
L 473.745682 102.255695 
L 476.691136 102.255695 
L 477.182045 100.040739 
L 478.163864 100.040739 
L 478.654773 101.05559 
L 480.618409 101.05559 
L 481.109318 102.095813 
L 481.600227 102.095813 
L 482.091136 101.468582 
L 482.582045 101.468582 
L 483.072955 102.554696 
L 485.036591 102.554696 
L 485.5275 103.669391 
L 486.018409 103.669391 
L 486.509318 104.813813 
L 488.472955 104.813813 
L 488.963864 103.050785 
L 489.945682 103.050785 
L 490.436591 104.218086 
L 490.9275 104.218086 
L 491.418409 102.397813 
L 493.382045 102.397813 
L 493.872955 103.588798 
L 495.345682 103.588798 
L 495.836591 104.813813 
L 497.800227 104.813813 
L 498.782045 100.976636 
L 499.272955 100.976636 
L 499.763864 102.217514 
L 506.636591 102.217514 
L 507.1275 100.201449 
L 509.582045 100.201449 
L 510.072955 101.468582 
L 513.018409 101.468582 
L 513.509318 99.377813 
L 517.9275 99.377813 
L 518.418409 100.672098 
L 518.909318 100.672098 
L 519.400227 98.501038 
L 519.891136 98.501038 
L 520.382045 101.189813 
L 523.818409 101.189813 
L 524.309318 100.315054 
L 525.291136 100.315054 
L 525.782045 97.947286 
L 528.236591 97.947286 
L 528.7275 99.377813 
L 532.163864 99.377813 
L 532.654773 100.860358 
L 533.145682 100.860358 
L 533.636591 98.371146 
L 547.872955 98.371146 
L 548.363864 99.890643 
L 549.345682 99.890643 
L 549.836591 101.468582 
L 550.3275 101.468582 
L 550.818409 103.108401 
L 554.745682 103.108401 
L 555.236591 100.465013 
L 563.091136 100.465013 
L 563.582045 102.151282 
L 564.072955 102.151282 
L 564.563864 99.377813 
L 566.5275 99.377813 
L 567.018409 102.92303 
L 570.454773 102.92303 
L 570.945682 104.813813 
L 573.400227 104.813813 
L 573.891136 106.79054 
L 574.382045 106.79054 
L 574.872955 108.859208 
L 575.363864 108.859208 
L 575.854773 110.249813 
L 580.272955 110.249813 
L 580.763864 107.043966 
L 581.254773 107.043966 
L 581.745682 103.669391 
L 582.7275 103.669391 
L 583.218409 102.397813 
L 584.200227 102.397813 
L 584.691136 104.813813 
L 590.091136 104.813813 
L 590.582045 107.37193 
L 591.563864 107.37193 
L 592.054773 110.085085 
L 595.000227 110.085085 
L 595.491136 106.172813 
L 598.436591 106.172813 
L 598.9275 102.008135 
L 632.800227 102.008135 
L 633.291136 104.813813 
L 636.236591 104.813813 
L 636.7275 100.315054 
L 644.582045 100.315054 
L 645.072955 95.494955 
L 667.654773 95.494955 
L 668.145682 98.371146 
L 701.5275 98.371146 
L 702.018409 93.105505 
L 723.1275 93.105505 
L 723.618409 84.015204 
L 740.800227 84.015204 
L 740.800227 84.015204 
" style="fill:none;stroke:#8b0000;stroke-linecap:square;stroke-width:2;"/>
   </g>
   <g id="line2d_15">
    <path clip-path="url(#paede45d6ca)" d="M 446.254773 192.997813 
L 447.7275 191.789813 
L 448.218409 190.945385 
L 453.1275 190.945385 
L 453.618409 190.067515 
L 457.054773 190.067515 
L 457.545682 189.615413 
L 458.036591 189.615413 
L 459.018409 188.683527 
L 460.000227 188.683527 
L 460.982045 187.712813 
L 461.963864 187.712813 
L 462.945682 186.700791 
L 463.436591 186.700791 
L 464.418409 190.371726 
L 465.400227 189.373813 
L 469.818409 189.373813 
L 470.309318 188.858037 
L 472.272955 188.858037 
L 473.254773 187.790916 
L 473.745682 186.673577 
L 476.691136 186.673577 
L 477.182045 184.895373 
L 478.163864 184.895373 
L 478.654773 184.273368 
L 480.618409 184.273368 
L 481.109318 183.635813 
L 481.600227 183.635813 
L 482.091136 185.099351 
L 482.582045 185.099351 
L 483.072955 184.447683 
L 485.036591 184.447683 
L 485.5275 186.639918 
L 486.018409 186.639918 
L 486.509318 185.991413 
L 488.472955 185.991413 
L 488.963864 185.32538 
L 489.945682 185.32538 
L 490.436591 184.6411 
L 490.9275 184.6411 
L 491.418409 183.937813 
L 493.382045 183.937813 
L 493.872955 183.214714 
L 495.345682 183.214714 
L 495.836591 182.470955 
L 497.800227 182.470955 
L 498.782045 180.917813 
L 499.272955 180.917813 
L 499.763864 180.106469 
L 506.636591 180.106469 
L 507.1275 179.27054 
L 509.582045 179.27054 
L 510.072955 178.408889 
L 513.018409 178.408889 
L 513.509318 177.520313 
L 517.9275 177.520313 
L 518.418409 176.603527 
L 518.909318 176.603527 
L 519.400227 175.657167 
L 519.891136 175.657167 
L 520.382045 177.293813 
L 523.818409 177.293813 
L 524.309318 175.294364 
L 525.291136 175.294364 
L 525.782045 174.242023 
L 528.236591 174.242023 
L 528.7275 173.152098 
L 532.163864 173.152098 
L 532.654773 172.02254 
L 533.145682 172.02254 
L 533.636591 170.851146 
L 547.872955 170.851146 
L 548.363864 169.635548 
L 549.345682 169.635548 
L 549.836591 168.373197 
L 550.3275 168.373197 
L 550.818409 167.061342 
L 554.745682 167.061342 
L 555.236591 165.697013 
L 563.091136 165.697013 
L 563.582045 168.714547 
L 564.072955 168.714547 
L 564.563864 167.327813 
L 566.5275 167.327813 
L 567.018409 169.100421 
L 570.454773 169.100421 
L 570.945682 167.629813 
L 573.400227 167.629813 
L 573.891136 166.092358 
L 574.382045 166.092358 
L 574.872955 164.483394 
L 575.363864 164.483394 
L 575.854773 164.609813 
L 580.272955 164.609813 
L 580.763864 162.797813 
L 581.254773 162.797813 
L 581.745682 160.890444 
L 582.7275 160.890444 
L 583.218409 156.757813 
L 584.200227 156.757813 
L 584.691136 154.514384 
L 590.091136 154.514384 
L 590.582045 152.138989 
L 591.563864 152.138989 
L 592.054773 156.208722 
L 595.000227 156.208722 
L 595.491136 153.737813 
L 598.436591 153.737813 
L 598.9275 151.10749 
L 632.800227 151.10749 
L 633.291136 148.301813 
L 636.236591 148.301813 
L 636.7275 145.30264 
L 644.582045 145.30264 
L 645.072955 142.089241 
L 667.654773 142.089241 
L 668.145682 146.691146 
L 701.5275 146.691146 
L 702.018409 143.283966 
L 723.1275 143.283966 
L 723.618409 140.738682 
L 740.800227 140.738682 
L 740.800227 140.738682 
" style="fill:none;stroke:#000080;stroke-linecap:square;stroke-width:2;"/>
   </g>
   <g id="patch_6">
    <path d="M 431.5275 235.277813 
L 431.5275 17.837813 
" style="fill:none;stroke:#000000;stroke-linecap:square;stroke-linejoin:miter;"/>
   </g>
   <g id="patch_7">
    <path d="M 431.5275 235.277813 
L 755.5275 235.277813 
" style="fill:none;stroke:#000000;stroke-linecap:square;stroke-linejoin:miter;"/>
   </g>
  </g>
  <g id="axes_3">
   <g id="patch_8">
    <path d="M 771.7275 235.277813 
L 1095.7275 235.277813 
L 1095.7275 17.837813 
L 771.7275 17.837813 
z
" style="fill:none;"/>
   </g>
   <g id="matplotlib.axis_5">
    <g id="xtick_9">
     <g id="line2d_16">
      <g>
       <use style="stroke:#000000;stroke-width:0.8;" x="786.454773" xlink:href="#m41ed3df2d4" y="235.277813"/>
      </g>
     </g>
     <g id="text_15">
      <!-- 1 -->
      <g transform="translate(777.547273 265.053438)scale(0.28 -0.28)">
       <use xlink:href="#DejaVuSans-49"/>
      </g>
     </g>
    </g>
    <g id="xtick_10">
     <g id="line2d_17">
      <g>
       <use style="stroke:#000000;stroke-width:0.8;" x="884.636591" xlink:href="#m41ed3df2d4" y="235.277813"/>
      </g>
     </g>
     <g id="text_16">
      <!-- 2 -->
      <g transform="translate(875.729091 265.053438)scale(0.28 -0.28)">
       <use xlink:href="#DejaVuSans-50"/>
      </g>
     </g>
    </g>
    <g id="xtick_11">
     <g id="line2d_18">
      <g>
       <use style="stroke:#000000;stroke-width:0.8;" x="982.818409" xlink:href="#m41ed3df2d4" y="235.277813"/>
      </g>
     </g>
     <g id="text_17">
      <!-- 3 -->
      <g transform="translate(973.910909 265.053438)scale(0.28 -0.28)">
       <use xlink:href="#DejaVuSans-51"/>
      </g>
     </g>
    </g>
    <g id="xtick_12">
     <g id="line2d_19">
      <g>
       <use style="stroke:#000000;stroke-width:0.8;" x="1081.000227" xlink:href="#m41ed3df2d4" y="235.277813"/>
      </g>
     </g>
     <g id="text_18">
      <!-- 4 -->
      <g transform="translate(1072.092727 265.053438)scale(0.28 -0.28)">
       <use xlink:href="#DejaVuSans-52"/>
      </g>
     </g>
    </g>
    <g id="text_19">
     <!-- -log10 p-value -->
     <g transform="translate(832.8925 296.152188)scale(0.28 -0.28)">
      <use xlink:href="#DejaVuSans-45"/>
      <use x="36.083984" xlink:href="#DejaVuSans-108"/>
      <use x="63.867188" xlink:href="#DejaVuSans-111"/>
      <use x="125.048828" xlink:href="#DejaVuSans-103"/>
      <use x="188.525391" xlink:href="#DejaVuSans-49"/>
      <use x="252.148438" xlink:href="#DejaVuSans-48"/>
      <use x="315.771484" xlink:href="#DejaVuSans-32"/>
      <use x="347.558594" xlink:href="#DejaVuSans-112"/>
      <use x="411.035156" xlink:href="#DejaVuSans-45"/>
      <use x="447.087891" xlink:href="#DejaVuSans-118"/>
      <use x="506.267578" xlink:href="#DejaVuSans-97"/>
      <use x="567.546875" xlink:href="#DejaVuSans-108"/>
      <use x="595.330078" xlink:href="#DejaVuSans-117"/>
      <use x="658.708984" xlink:href="#DejaVuSans-101"/>
     </g>
    </g>
   </g>
   <g id="matplotlib.axis_6">
    <g id="ytick_7"/>
    <g id="ytick_8"/>
    <g id="ytick_9"/>
   </g>
   <g id="line2d_20">
    <path clip-path="url(#pa7f7ad74c0)" d="M 786.454773 25.422929 
L 793.818409 25.512165 
L 796.763864 25.69709 
L 801.672955 25.792934 
L 803.636591 25.891146 
L 810.018409 25.991813 
L 812.963864 26.200889 
L 814.9275 26.309501 
L 816.400227 26.364871 
L 820.3275 26.42097 
L 820.818409 25.037813 
L 825.7275 25.134457 
L 826.709318 25.183758 
L 827.200227 23.795073 
L 828.672955 23.836157 
L 829.163864 23.836157 
L 829.654773 22.367813 
L 839.472955 22.464195 
L 841.436591 22.497241 
L 845.854773 22.564769 
L 846.345682 21.012119 
L 856.163864 21.107587 
L 859.600227 21.183043 
L 871.872955 21.289241 
L 875.800227 21.402403 
L 885.618409 21.492266 
L 887.582045 21.523236 
L 895.436591 21.619378 
L 897.400227 21.652549 
L 915.072955 21.72067 
L 917.036591 21.902112 
L 923.909318 21.979527 
L 925.382045 22.019351 
L 927.836591 22.019351 
L 928.3275 19.94888 
L 935.691136 20.012213 
L 936.672955 20.079462 
L 944.5275 20.175877 
L 947.472955 20.227263 
L 973.000227 20.337123 
L 974.963864 20.366185 
L 1000.982045 20.457572 
L 1001.472955 17.837813 
L 1081.000227 17.837813 
L 1081.000227 17.837813 
" style="fill:none;stroke:#8b0000;stroke-linecap:square;stroke-width:2;"/>
   </g>
   <g id="line2d_21">
    <path clip-path="url(#pa7f7ad74c0)" d="M 786.454773 161.955022 
L 787.436591 161.955022 
L 788.418409 161.092401 
L 793.818409 161.092401 
L 794.309318 160.653434 
L 794.800227 161.503527 
L 795.291136 161.924559 
L 799.709318 161.924559 
L 800.200227 161.479994 
L 800.691136 161.479994 
L 801.182045 161.030008 
L 801.672955 161.030008 
L 802.163864 160.5745 
L 802.654773 160.5745 
L 803.145682 160.113368 
L 804.1275 160.113368 
L 804.618409 159.646508 
L 807.563864 159.646508 
L 808.054773 159.173813 
L 810.018409 159.173813 
L 810.509318 160.062718 
L 811.000227 159.586673 
L 811.982045 161.403966 
L 813.454773 161.403966 
L 813.945682 160.927361 
L 814.436591 160.927361 
L 815.418409 159.95546 
L 818.854773 159.95546 
L 819.345682 159.459918 
L 820.3275 159.459918 
L 820.818409 158.957813 
L 821.309318 158.957813 
L 821.800227 159.898613 
L 824.745682 159.898613 
L 825.236591 159.392712 
L 825.7275 159.392712 
L 826.218409 158.879975 
L 826.709318 158.879975 
L 827.200227 159.322744 
L 827.691136 158.798916 
L 829.163864 158.798916 
L 829.654773 158.267813 
L 831.1275 158.267813 
L 831.618409 157.729281 
L 838.000227 157.729281 
L 838.491136 158.714432 
L 838.982045 158.714432 
L 839.472955 158.17143 
L 839.963864 159.173813 
L 841.9275 159.173813 
L 842.418409 160.190618 
L 843.400227 160.190618 
L 843.891136 159.646508 
L 845.854773 159.646508 
L 846.345682 159.094455 
L 847.818409 159.094455 
L 848.309318 159.576479 
L 848.800227 159.576479 
L 849.291136 159.011544 
L 850.763864 159.011544 
L 851.254773 158.438113 
L 856.163864 158.438113 
L 856.654773 159.503267 
L 858.1275 159.503267 
L 858.618409 158.924835 
L 859.109318 158.924835 
L 859.600227 158.337505 
L 863.5275 158.337505 
L 864.018409 157.741068 
L 866.472955 157.741068 
L 866.963864 157.135313 
L 868.9275 157.135313 
L 869.418409 156.520017 
L 870.891136 156.520017 
L 871.382045 155.894955 
L 871.872955 155.894955 
L 872.363864 155.259893 
L 872.854773 155.259893 
L 873.345682 154.614587 
L 873.836591 154.614587 
L 874.3275 155.074534 
L 876.782045 155.074534 
L 877.272955 153.737813 
L 882.182045 153.737813 
L 882.672955 153.052602 
L 885.618409 153.052602 
L 886.109318 152.355779 
L 888.563864 152.355779 
L 889.054773 153.505505 
L 889.545682 153.505505 
L 890.036591 153.97416 
L 895.436591 153.97416 
L 895.9275 153.26097 
L 901.3275 153.26097 
L 901.818409 152.535158 
L 904.272955 152.535158 
L 904.763864 151.796384 
L 915.072955 151.796384 
L 916.054773 152.731146 
L 916.545682 152.731146 
L 917.036591 153.991831 
L 918.509318 153.991831 
L 919.000227 153.224982 
L 922.436591 153.224982 
L 922.9275 152.443527 
L 923.909318 152.443527 
L 924.400227 151.647043 
L 927.836591 151.647043 
L 928.3275 150.835094 
L 930.782045 150.835094 
L 931.272955 150.007224 
L 932.745682 150.007224 
L 933.236591 148.301813 
L 935.691136 148.301813 
L 936.182045 145.611833 
L 937.163864 145.611833 
L 937.654773 146.942813 
L 938.636591 146.942813 
L 939.1275 146.01297 
L 939.618409 146.01297 
L 940.109318 145.063344 
L 940.600227 146.431361 
L 944.5275 146.431361 
L 945.018409 147.829117 
L 946.982045 147.829117 
L 947.472955 146.868142 
L 949.9275 146.868142 
L 950.418409 147.324554 
L 950.909318 147.324554 
L 951.400227 148.795994 
L 952.872955 148.795994 
L 953.363864 147.80195 
L 973.000227 147.80195 
L 973.491136 146.784789 
L 992.145682 146.784789 
L 992.636591 144.677813 
L 994.600227 144.677813 
L 995.091136 143.586246 
L 1000.982045 143.586246 
L 1001.472955 144.006701 
L 1004.418409 144.006701 
L 1004.909318 145.583813 
L 1012.272955 145.583813 
L 1012.763864 144.448445 
L 1016.691136 144.448445 
L 1017.182045 146.071659 
L 1021.600227 146.071659 
L 1022.091136 147.737033 
L 1027.491136 147.737033 
L 1027.982045 148.301813 
L 1033.872955 148.301813 
L 1034.363864 147.126461 
L 1041.7275 147.126461 
L 1042.218409 144.677813 
L 1051.054773 144.677813 
L 1051.545682 142.546048 
L 1063.3275 142.546048 
L 1063.818409 146.942813 
L 1081.000227 146.942813 
L 1081.000227 146.942813 
" style="fill:none;stroke:#000080;stroke-linecap:square;stroke-width:2;"/>
   </g>
   <g id="patch_9">
    <path d="M 771.7275 235.277813 
L 771.7275 17.837813 
" style="fill:none;stroke:#000000;stroke-linecap:square;stroke-linejoin:miter;"/>
   </g>
   <g id="patch_10">
    <path d="M 771.7275 235.277813 
L 1095.7275 235.277813 
" style="fill:none;stroke:#000000;stroke-linecap:square;stroke-linejoin:miter;"/>
   </g>
  </g>
 </g>
 <defs>
  <clipPath id="p17594ecbe0">
   <rect height="217.44" width="324" x="91.3275" y="17.837813"/>
  </clipPath>
  <clipPath id="paede45d6ca">
   <rect height="217.44" width="324" x="431.5275" y="17.837813"/>
  </clipPath>
  <clipPath id="pa7f7ad74c0">
   <rect height="217.44" width="324" x="771.7275" y="17.837813"/>
  </clipPath>
 </defs>
</svg>
