<?xml version="1.0" encoding="utf-8" standalone="no"?>
<!DOCTYPE svg PUBLIC "-//W3C//DTD SVG 1.1//EN"
  "http://www.w3.org/Graphics/SVG/1.1/DTD/svg11.dtd">
<!-- Created with matplotlib (https://matplotlib.org/) -->
<svg height="309.175313pt" version="1.1" viewBox="0 0 1102.9275 309.175313" width="1102.9275pt" xmlns="http://www.w3.org/2000/svg" xmlns:xlink="http://www.w3.org/1999/xlink">
 <defs>
  <style type="text/css">
*{stroke-linecap:butt;stroke-linejoin:round;}
  </style>
 </defs>
 <g id="figure_1">
  <g id="patch_1">
   <path d="M 0 309.175313 
L 1102.9275 309.175313 
L 1102.9275 0 
L 0 0 
z
" style="fill:none;"/>
  </g>
  <g id="axes_1">
   <g id="patch_2">
    <path d="M 91.3275 235.277813 
L 415.3275 235.277813 
L 415.3275 17.837813 
L 91.3275 17.837813 
z
" style="fill:none;"/>
   </g>
   <g id="matplotlib.axis_1">
    <g id="xtick_1">
     <g id="line2d_1">
      <defs>
       <path d="M 0 0 
L 0 5 
" id="m74ba648eea" style="stroke:#000000;stroke-width:0.8;"/>
      </defs>
      <g>
       <use style="stroke:#000000;stroke-width:0.8;" x="106.054773" xlink:href="#m74ba648eea" y="235.277813"/>
      </g>
     </g>
     <g id="text_1">
      <!-- 1 -->
      <defs>
       <path d="M 12.40625 8.296875 
L 28.515625 8.296875 
L 28.515625 63.921875 
L 10.984375 60.40625 
L 10.984375 69.390625 
L 28.421875 72.90625 
L 38.28125 72.90625 
L 38.28125 8.296875 
L 54.390625 8.296875 
L 54.390625 0 
L 12.40625 0 
z
" id="DejaVuSans-49"/>
      </defs>
      <g transform="translate(97.147273 265.053438)scale(0.28 -0.28)">
       <use xlink:href="#DejaVuSans-49"/>
      </g>
     </g>
    </g>
    <g id="xtick_2">
     <g id="line2d_2">
      <g>
       <use style="stroke:#000000;stroke-width:0.8;" x="204.236591" xlink:href="#m74ba648eea" y="235.277813"/>
      </g>
     </g>
     <g id="text_2">
      <!-- 2 -->
      <defs>
       <path d="M 19.1875 8.296875 
L 53.609375 8.296875 
L 53.609375 0 
L 7.328125 0 
L 7.328125 8.296875 
Q 12.9375 14.109375 22.625 23.890625 
Q 32.328125 33.6875 34.8125 36.53125 
Q 39.546875 41.84375 41.421875 45.53125 
Q 43.3125 49.21875 43.3125 52.78125 
Q 43.3125 58.59375 39.234375 62.25 
Q 35.15625 65.921875 28.609375 65.921875 
Q 23.96875 65.921875 18.8125 64.3125 
Q 13.671875 62.703125 7.8125 59.421875 
L 7.8125 69.390625 
Q 13.765625 71.78125 18.9375 73 
Q 24.125 74.21875 28.421875 74.21875 
Q 39.75 74.21875 46.484375 68.546875 
Q 53.21875 62.890625 53.21875 53.421875 
Q 53.21875 48.921875 51.53125 44.890625 
Q 49.859375 40.875 45.40625 35.40625 
Q 44.1875 33.984375 37.640625 27.21875 
Q 31.109375 20.453125 19.1875 8.296875 
z
" id="DejaVuSans-50"/>
      </defs>
      <g transform="translate(195.329091 265.053438)scale(0.28 -0.28)">
       <use xlink:href="#DejaVuSans-50"/>
      </g>
     </g>
    </g>
    <g id="xtick_3">
     <g id="line2d_3">
      <g>
       <use style="stroke:#000000;stroke-width:0.8;" x="302.418409" xlink:href="#m74ba648eea" y="235.277813"/>
      </g>
     </g>
     <g id="text_3">
      <!-- 3 -->
      <defs>
       <path d="M 40.578125 39.3125 
Q 47.65625 37.796875 51.625 33 
Q 55.609375 28.21875 55.609375 21.1875 
Q 55.609375 10.40625 48.1875 4.484375 
Q 40.765625 -1.421875 27.09375 -1.421875 
Q 22.515625 -1.421875 17.65625 -0.515625 
Q 12.796875 0.390625 7.625 2.203125 
L 7.625 11.71875 
Q 11.71875 9.328125 16.59375 8.109375 
Q 21.484375 6.890625 26.8125 6.890625 
Q 36.078125 6.890625 40.9375 10.546875 
Q 45.796875 14.203125 45.796875 21.1875 
Q 45.796875 27.640625 41.28125 31.265625 
Q 36.765625 34.90625 28.71875 34.90625 
L 20.21875 34.90625 
L 20.21875 43.015625 
L 29.109375 43.015625 
Q 36.375 43.015625 40.234375 45.921875 
Q 44.09375 48.828125 44.09375 54.296875 
Q 44.09375 59.90625 40.109375 62.90625 
Q 36.140625 65.921875 28.71875 65.921875 
Q 24.65625 65.921875 20.015625 65.03125 
Q 15.375 64.15625 9.8125 62.3125 
L 9.8125 71.09375 
Q 15.4375 72.65625 20.34375 73.4375 
Q 25.25 74.21875 29.59375 74.21875 
Q 40.828125 74.21875 47.359375 69.109375 
Q 53.90625 64.015625 53.90625 55.328125 
Q 53.90625 49.265625 50.4375 45.09375 
Q 46.96875 40.921875 40.578125 39.3125 
z
" id="DejaVuSans-51"/>
      </defs>
      <g transform="translate(293.510909 265.053438)scale(0.28 -0.28)">
       <use xlink:href="#DejaVuSans-51"/>
      </g>
     </g>
    </g>
    <g id="xtick_4">
     <g id="line2d_4">
      <g>
       <use style="stroke:#000000;stroke-width:0.8;" x="400.600227" xlink:href="#m74ba648eea" y="235.277813"/>
      </g>
     </g>
     <g id="text_4">
      <!-- 4 -->
      <defs>
       <path d="M 37.796875 64.3125 
L 12.890625 25.390625 
L 37.796875 25.390625 
z
M 35.203125 72.90625 
L 47.609375 72.90625 
L 47.609375 25.390625 
L 58.015625 25.390625 
L 58.015625 17.1875 
L 47.609375 17.1875 
L 47.609375 0 
L 37.796875 0 
L 37.796875 17.1875 
L 4.890625 17.1875 
L 4.890625 26.703125 
z
" id="DejaVuSans-52"/>
      </defs>
      <g transform="translate(391.692727 265.053438)scale(0.28 -0.28)">
       <use xlink:href="#DejaVuSans-52"/>
      </g>
     </g>
    </g>
    <g id="text_5">
     <!-- -log10 p-value -->
     <defs>
      <path d="M 4.890625 31.390625 
L 31.203125 31.390625 
L 31.203125 23.390625 
L 4.890625 23.390625 
z
" id="DejaVuSans-45"/>
      <path d="M 9.421875 75.984375 
L 18.40625 75.984375 
L 18.40625 0 
L 9.421875 0 
z
" id="DejaVuSans-108"/>
      <path d="M 30.609375 48.390625 
Q 23.390625 48.390625 19.1875 42.75 
Q 14.984375 37.109375 14.984375 27.296875 
Q 14.984375 17.484375 19.15625 11.84375 
Q 23.34375 6.203125 30.609375 6.203125 
Q 37.796875 6.203125 41.984375 11.859375 
Q 46.1875 17.53125 46.1875 27.296875 
Q 46.1875 37.015625 41.984375 42.703125 
Q 37.796875 48.390625 30.609375 48.390625 
z
M 30.609375 56 
Q 42.328125 56 49.015625 48.375 
Q 55.71875 40.765625 55.71875 27.296875 
Q 55.71875 13.875 49.015625 6.21875 
Q 42.328125 -1.421875 30.609375 -1.421875 
Q 18.84375 -1.421875 12.171875 6.21875 
Q 5.515625 13.875 5.515625 27.296875 
Q 5.515625 40.765625 12.171875 48.375 
Q 18.84375 56 30.609375 56 
z
" id="DejaVuSans-111"/>
      <path d="M 45.40625 27.984375 
Q 45.40625 37.75 41.375 43.109375 
Q 37.359375 48.484375 30.078125 48.484375 
Q 22.859375 48.484375 18.828125 43.109375 
Q 14.796875 37.75 14.796875 27.984375 
Q 14.796875 18.265625 18.828125 12.890625 
Q 22.859375 7.515625 30.078125 7.515625 
Q 37.359375 7.515625 41.375 12.890625 
Q 45.40625 18.265625 45.40625 27.984375 
z
M 54.390625 6.78125 
Q 54.390625 -7.171875 48.1875 -13.984375 
Q 42 -20.796875 29.203125 -20.796875 
Q 24.46875 -20.796875 20.265625 -20.09375 
Q 16.0625 -19.390625 12.109375 -17.921875 
L 12.109375 -9.1875 
Q 16.0625 -11.328125 19.921875 -12.34375 
Q 23.78125 -13.375 27.78125 -13.375 
Q 36.625 -13.375 41.015625 -8.765625 
Q 45.40625 -4.15625 45.40625 5.171875 
L 45.40625 9.625 
Q 42.625 4.78125 38.28125 2.390625 
Q 33.9375 0 27.875 0 
Q 17.828125 0 11.671875 7.65625 
Q 5.515625 15.328125 5.515625 27.984375 
Q 5.515625 40.671875 11.671875 48.328125 
Q 17.828125 56 27.875 56 
Q 33.9375 56 38.28125 53.609375 
Q 42.625 51.21875 45.40625 46.390625 
L 45.40625 54.6875 
L 54.390625 54.6875 
z
" id="DejaVuSans-103"/>
      <path d="M 31.78125 66.40625 
Q 24.171875 66.40625 20.328125 58.90625 
Q 16.5 51.421875 16.5 36.375 
Q 16.5 21.390625 20.328125 13.890625 
Q 24.171875 6.390625 31.78125 6.390625 
Q 39.453125 6.390625 43.28125 13.890625 
Q 47.125 21.390625 47.125 36.375 
Q 47.125 51.421875 43.28125 58.90625 
Q 39.453125 66.40625 31.78125 66.40625 
z
M 31.78125 74.21875 
Q 44.046875 74.21875 50.515625 64.515625 
Q 56.984375 54.828125 56.984375 36.375 
Q 56.984375 17.96875 50.515625 8.265625 
Q 44.046875 -1.421875 31.78125 -1.421875 
Q 19.53125 -1.421875 13.0625 8.265625 
Q 6.59375 17.96875 6.59375 36.375 
Q 6.59375 54.828125 13.0625 64.515625 
Q 19.53125 74.21875 31.78125 74.21875 
z
" id="DejaVuSans-48"/>
      <path id="DejaVuSans-32"/>
      <path d="M 18.109375 8.203125 
L 18.109375 -20.796875 
L 9.078125 -20.796875 
L 9.078125 54.6875 
L 18.109375 54.6875 
L 18.109375 46.390625 
Q 20.953125 51.265625 25.265625 53.625 
Q 29.59375 56 35.59375 56 
Q 45.5625 56 51.78125 48.09375 
Q 58.015625 40.1875 58.015625 27.296875 
Q 58.015625 14.40625 51.78125 6.484375 
Q 45.5625 -1.421875 35.59375 -1.421875 
Q 29.59375 -1.421875 25.265625 0.953125 
Q 20.953125 3.328125 18.109375 8.203125 
z
M 48.6875 27.296875 
Q 48.6875 37.203125 44.609375 42.84375 
Q 40.53125 48.484375 33.40625 48.484375 
Q 26.265625 48.484375 22.1875 42.84375 
Q 18.109375 37.203125 18.109375 27.296875 
Q 18.109375 17.390625 22.1875 11.75 
Q 26.265625 6.109375 33.40625 6.109375 
Q 40.53125 6.109375 44.609375 11.75 
Q 48.6875 17.390625 48.6875 27.296875 
z
" id="DejaVuSans-112"/>
      <path d="M 2.984375 54.6875 
L 12.5 54.6875 
L 29.59375 8.796875 
L 46.6875 54.6875 
L 56.203125 54.6875 
L 35.6875 0 
L 23.484375 0 
z
" id="DejaVuSans-118"/>
      <path d="M 34.28125 27.484375 
Q 23.390625 27.484375 19.1875 25 
Q 14.984375 22.515625 14.984375 16.5 
Q 14.984375 11.71875 18.140625 8.90625 
Q 21.296875 6.109375 26.703125 6.109375 
Q 34.1875 6.109375 38.703125 11.40625 
Q 43.21875 16.703125 43.21875 25.484375 
L 43.21875 27.484375 
z
M 52.203125 31.203125 
L 52.203125 0 
L 43.21875 0 
L 43.21875 8.296875 
Q 40.140625 3.328125 35.546875 0.953125 
Q 30.953125 -1.421875 24.3125 -1.421875 
Q 15.921875 -1.421875 10.953125 3.296875 
Q 6 8.015625 6 15.921875 
Q 6 25.140625 12.171875 29.828125 
Q 18.359375 34.515625 30.609375 34.515625 
L 43.21875 34.515625 
L 43.21875 35.40625 
Q 43.21875 41.609375 39.140625 45 
Q 35.0625 48.390625 27.6875 48.390625 
Q 23 48.390625 18.546875 47.265625 
Q 14.109375 46.140625 10.015625 43.890625 
L 10.015625 52.203125 
Q 14.9375 54.109375 19.578125 55.046875 
Q 24.21875 56 28.609375 56 
Q 40.484375 56 46.34375 49.84375 
Q 52.203125 43.703125 52.203125 31.203125 
z
" id="DejaVuSans-97"/>
      <path d="M 8.5 21.578125 
L 8.5 54.6875 
L 17.484375 54.6875 
L 17.484375 21.921875 
Q 17.484375 14.15625 20.5 10.265625 
Q 23.53125 6.390625 29.59375 6.390625 
Q 36.859375 6.390625 41.078125 11.03125 
Q 45.3125 15.671875 45.3125 23.6875 
L 45.3125 54.6875 
L 54.296875 54.6875 
L 54.296875 0 
L 45.3125 0 
L 45.3125 8.40625 
Q 42.046875 3.421875 37.71875 1 
Q 33.40625 -1.421875 27.6875 -1.421875 
Q 18.265625 -1.421875 13.375 4.4375 
Q 8.5 10.296875 8.5 21.578125 
z
M 31.109375 56 
z
" id="DejaVuSans-117"/>
      <path d="M 56.203125 29.59375 
L 56.203125 25.203125 
L 14.890625 25.203125 
Q 15.484375 15.921875 20.484375 11.0625 
Q 25.484375 6.203125 34.421875 6.203125 
Q 39.59375 6.203125 44.453125 7.46875 
Q 49.3125 8.734375 54.109375 11.28125 
L 54.109375 2.78125 
Q 49.265625 0.734375 44.1875 -0.34375 
Q 39.109375 -1.421875 33.890625 -1.421875 
Q 20.796875 -1.421875 13.15625 6.1875 
Q 5.515625 13.8125 5.515625 26.8125 
Q 5.515625 40.234375 12.765625 48.109375 
Q 20.015625 56 32.328125 56 
Q 43.359375 56 49.78125 48.890625 
Q 56.203125 41.796875 56.203125 29.59375 
z
M 47.21875 32.234375 
Q 47.125 39.59375 43.09375 43.984375 
Q 39.0625 48.390625 32.421875 48.390625 
Q 24.90625 48.390625 20.390625 44.140625 
Q 15.875 39.890625 15.1875 32.171875 
z
" id="DejaVuSans-101"/>
     </defs>
     <g transform="translate(152.4925 296.152188)scale(0.28 -0.28)">
      <use xlink:href="#DejaVuSans-45"/>
      <use x="36.083984" xlink:href="#DejaVuSans-108"/>
      <use x="63.867188" xlink:href="#DejaVuSans-111"/>
      <use x="125.048828" xlink:href="#DejaVuSans-103"/>
      <use x="188.525391" xlink:href="#DejaVuSans-49"/>
      <use x="252.148438" xlink:href="#DejaVuSans-48"/>
      <use x="315.771484" xlink:href="#DejaVuSans-32"/>
      <use x="347.558594" xlink:href="#DejaVuSans-112"/>
      <use x="411.035156" xlink:href="#DejaVuSans-45"/>
      <use x="447.087891" xlink:href="#DejaVuSans-118"/>
      <use x="506.267578" xlink:href="#DejaVuSans-97"/>
      <use x="567.546875" xlink:href="#DejaVuSans-108"/>
      <use x="595.330078" xlink:href="#DejaVuSans-117"/>
      <use x="658.708984" xlink:href="#DejaVuSans-101"/>
     </g>
    </g>
   </g>
   <g id="matplotlib.axis_2">
    <g id="ytick_1">
     <g id="line2d_5">
      <defs>
       <path d="M 0 0 
L -5 0 
" id="md3f6d5dafa" style="stroke:#000000;stroke-width:0.8;"/>
      </defs>
      <g>
       <use style="stroke:#000000;stroke-width:0.8;" x="91.3275" xlink:href="#md3f6d5dafa" y="235.277813"/>
      </g>
     </g>
     <g id="text_6">
      <!-- 0.0 -->
      <defs>
       <path d="M 10.6875 12.40625 
L 21 12.40625 
L 21 0 
L 10.6875 0 
z
" id="DejaVuSans-46"/>
      </defs>
      <g transform="translate(38.29875 245.915625)scale(0.28 -0.28)">
       <use xlink:href="#DejaVuSans-48"/>
       <use x="63.623047" xlink:href="#DejaVuSans-46"/>
       <use x="95.410156" xlink:href="#DejaVuSans-48"/>
      </g>
     </g>
    </g>
    <g id="ytick_2">
     <g id="line2d_6">
      <g>
       <use style="stroke:#000000;stroke-width:0.8;" x="91.3275" xlink:href="#md3f6d5dafa" y="126.557813"/>
      </g>
     </g>
     <g id="text_7">
      <!-- 0.5 -->
      <defs>
       <path d="M 10.796875 72.90625 
L 49.515625 72.90625 
L 49.515625 64.59375 
L 19.828125 64.59375 
L 19.828125 46.734375 
Q 21.96875 47.46875 24.109375 47.828125 
Q 26.265625 48.1875 28.421875 48.1875 
Q 40.625 48.1875 47.75 41.5 
Q 54.890625 34.8125 54.890625 23.390625 
Q 54.890625 11.625 47.5625 5.09375 
Q 40.234375 -1.421875 26.90625 -1.421875 
Q 22.3125 -1.421875 17.546875 -0.640625 
Q 12.796875 0.140625 7.71875 1.703125 
L 7.71875 11.625 
Q 12.109375 9.234375 16.796875 8.0625 
Q 21.484375 6.890625 26.703125 6.890625 
Q 35.15625 6.890625 40.078125 11.328125 
Q 45.015625 15.765625 45.015625 23.390625 
Q 45.015625 31 40.078125 35.4375 
Q 35.15625 39.890625 26.703125 39.890625 
Q 22.75 39.890625 18.8125 39.015625 
Q 14.890625 38.140625 10.796875 36.28125 
z
" id="DejaVuSans-53"/>
      </defs>
      <g transform="translate(38.29875 137.195625)scale(0.28 -0.28)">
       <use xlink:href="#DejaVuSans-48"/>
       <use x="63.623047" xlink:href="#DejaVuSans-46"/>
       <use x="95.410156" xlink:href="#DejaVuSans-53"/>
      </g>
     </g>
    </g>
    <g id="ytick_3">
     <g id="line2d_7">
      <g>
       <use style="stroke:#000000;stroke-width:0.8;" x="91.3275" xlink:href="#md3f6d5dafa" y="17.837813"/>
      </g>
     </g>
     <g id="text_8">
      <!-- 1.0 -->
      <g transform="translate(38.29875 28.475625)scale(0.28 -0.28)">
       <use xlink:href="#DejaVuSans-49"/>
       <use x="63.623047" xlink:href="#DejaVuSans-46"/>
       <use x="95.410156" xlink:href="#DejaVuSans-48"/>
      </g>
     </g>
    </g>
    <g id="text_9">
     <!-- Specificity -->
     <defs>
      <path d="M 53.515625 70.515625 
L 53.515625 60.890625 
Q 47.90625 63.578125 42.921875 64.890625 
Q 37.9375 66.21875 33.296875 66.21875 
Q 25.25 66.21875 20.875 63.09375 
Q 16.5 59.96875 16.5 54.203125 
Q 16.5 49.359375 19.40625 46.890625 
Q 22.3125 44.4375 30.421875 42.921875 
L 36.375 41.703125 
Q 47.40625 39.59375 52.65625 34.296875 
Q 57.90625 29 57.90625 20.125 
Q 57.90625 9.515625 50.796875 4.046875 
Q 43.703125 -1.421875 29.984375 -1.421875 
Q 24.8125 -1.421875 18.96875 -0.25 
Q 13.140625 0.921875 6.890625 3.21875 
L 6.890625 13.375 
Q 12.890625 10.015625 18.65625 8.296875 
Q 24.421875 6.59375 29.984375 6.59375 
Q 38.421875 6.59375 43.015625 9.90625 
Q 47.609375 13.234375 47.609375 19.390625 
Q 47.609375 24.75 44.3125 27.78125 
Q 41.015625 30.8125 33.5 32.328125 
L 27.484375 33.5 
Q 16.453125 35.6875 11.515625 40.375 
Q 6.59375 45.0625 6.59375 53.421875 
Q 6.59375 63.09375 13.40625 68.65625 
Q 20.21875 74.21875 32.171875 74.21875 
Q 37.3125 74.21875 42.625 73.28125 
Q 47.953125 72.359375 53.515625 70.515625 
z
" id="DejaVuSans-83"/>
      <path d="M 48.78125 52.59375 
L 48.78125 44.1875 
Q 44.96875 46.296875 41.140625 47.34375 
Q 37.3125 48.390625 33.40625 48.390625 
Q 24.65625 48.390625 19.8125 42.84375 
Q 14.984375 37.3125 14.984375 27.296875 
Q 14.984375 17.28125 19.8125 11.734375 
Q 24.65625 6.203125 33.40625 6.203125 
Q 37.3125 6.203125 41.140625 7.25 
Q 44.96875 8.296875 48.78125 10.40625 
L 48.78125 2.09375 
Q 45.015625 0.34375 40.984375 -0.53125 
Q 36.96875 -1.421875 32.421875 -1.421875 
Q 20.0625 -1.421875 12.78125 6.34375 
Q 5.515625 14.109375 5.515625 27.296875 
Q 5.515625 40.671875 12.859375 48.328125 
Q 20.21875 56 33.015625 56 
Q 37.15625 56 41.109375 55.140625 
Q 45.0625 54.296875 48.78125 52.59375 
z
" id="DejaVuSans-99"/>
      <path d="M 9.421875 54.6875 
L 18.40625 54.6875 
L 18.40625 0 
L 9.421875 0 
z
M 9.421875 75.984375 
L 18.40625 75.984375 
L 18.40625 64.59375 
L 9.421875 64.59375 
z
" id="DejaVuSans-105"/>
      <path d="M 37.109375 75.984375 
L 37.109375 68.5 
L 28.515625 68.5 
Q 23.6875 68.5 21.796875 66.546875 
Q 19.921875 64.59375 19.921875 59.515625 
L 19.921875 54.6875 
L 34.71875 54.6875 
L 34.71875 47.703125 
L 19.921875 47.703125 
L 19.921875 0 
L 10.890625 0 
L 10.890625 47.703125 
L 2.296875 47.703125 
L 2.296875 54.6875 
L 10.890625 54.6875 
L 10.890625 58.5 
Q 10.890625 67.625 15.140625 71.796875 
Q 19.390625 75.984375 28.609375 75.984375 
z
" id="DejaVuSans-102"/>
      <path d="M 18.3125 70.21875 
L 18.3125 54.6875 
L 36.8125 54.6875 
L 36.8125 47.703125 
L 18.3125 47.703125 
L 18.3125 18.015625 
Q 18.3125 11.328125 20.140625 9.421875 
Q 21.96875 7.515625 27.59375 7.515625 
L 36.8125 7.515625 
L 36.8125 0 
L 27.59375 0 
Q 17.1875 0 13.234375 3.875 
Q 9.28125 7.765625 9.28125 18.015625 
L 9.28125 47.703125 
L 2.6875 47.703125 
L 2.6875 54.6875 
L 9.28125 54.6875 
L 9.28125 70.21875 
z
" id="DejaVuSans-116"/>
      <path d="M 32.171875 -5.078125 
Q 28.375 -14.84375 24.75 -17.8125 
Q 21.140625 -20.796875 15.09375 -20.796875 
L 7.90625 -20.796875 
L 7.90625 -13.28125 
L 13.1875 -13.28125 
Q 16.890625 -13.28125 18.9375 -11.515625 
Q 21 -9.765625 23.484375 -3.21875 
L 25.09375 0.875 
L 2.984375 54.6875 
L 12.5 54.6875 
L 29.59375 11.921875 
L 46.6875 54.6875 
L 56.203125 54.6875 
z
" id="DejaVuSans-121"/>
     </defs>
     <g transform="translate(28.475625 198.714688)rotate(-90)scale(0.28 -0.28)">
      <use xlink:href="#DejaVuSans-83"/>
      <use x="63.476562" xlink:href="#DejaVuSans-112"/>
      <use x="126.953125" xlink:href="#DejaVuSans-101"/>
      <use x="188.476562" xlink:href="#DejaVuSans-99"/>
      <use x="243.457031" xlink:href="#DejaVuSans-105"/>
      <use x="271.240234" xlink:href="#DejaVuSans-102"/>
      <use x="306.445312" xlink:href="#DejaVuSans-105"/>
      <use x="334.228516" xlink:href="#DejaVuSans-99"/>
      <use x="389.208984" xlink:href="#DejaVuSans-105"/>
      <use x="416.992188" xlink:href="#DejaVuSans-116"/>
      <use x="456.201172" xlink:href="#DejaVuSans-121"/>
     </g>
    </g>
   </g>
   <g id="line2d_8">
    <path clip-path="url(#p01da56dbb3)" d="M 106.054773 26.853617 
L 109.982045 26.597244 
L 125.691136 25.856207 
L 126.182045 26.291203 
L 130.109318 26.272985 
L 130.600227 26.703392 
L 131.091136 26.684408 
L 131.582045 27.090578 
L 135.509318 27.012496 
L 136.000227 27.430754 
L 139.9275 27.350813 
L 142.872955 27.214075 
L 143.854773 27.194862 
L 144.345682 27.600425 
L 148.763864 27.521375 
L 149.254773 27.900428 
L 161.036591 27.511159 
L 163.491136 27.455351 
L 163.982045 27.835054 
L 166.9275 27.740203 
L 167.418409 28.113805 
L 173.800227 27.904479 
L 174.291136 28.268514 
L 177.236591 28.230165 
L 177.7275 28.59034 
L 178.218409 28.59034 
L 179.200227 29.323714 
L 185.091136 29.220051 
L 189.018409 29.118242 
L 189.509318 29.486384 
L 191.963864 29.40377 
L 193.9275 29.32232 
L 195.891136 29.261981 
L 196.382045 29.622148 
L 200.800227 29.520031 
L 205.218409 29.439603 
L 207.672955 29.340611 
L 208.163864 29.321015 
L 208.654773 29.671282 
L 214.545682 29.591326 
L 215.036591 29.917813 
L 227.800227 29.83701 
L 229.763864 29.757281 
L 234.672955 29.678605 
L 236.636591 29.620276 
L 241.545682 29.543392 
L 243.509318 29.486384 
L 248.418409 29.392595 
L 253.818409 29.282023 
L 255.782045 29.227527 
L 257.745682 29.227527 
L 258.236591 29.535534 
L 260.200227 29.498633 
L 265.600227 29.40739 
L 267.563864 29.353327 
L 275.909318 29.282023 
L 276.400227 29.582257 
L 283.272955 29.528135 
L 283.763864 29.825316 
L 286.218409 29.788713 
L 286.709318 30.064682 
L 287.691136 30.064682 
L 288.182045 30.357085 
L 291.1275 30.319263 
L 292.109318 30.244299 
L 309.291136 30.17023 
L 310.763864 30.115257 
L 320.582045 30.006767 
L 322.054773 29.953238 
L 324.018409 29.953238 
L 324.509318 30.217608 
L 331.872955 30.145737 
L 333.345682 30.092379 
L 341.200227 30.074696 
L 341.691136 29.952327 
L 382.9275 29.867688 
L 383.418409 30.279883 
L 400.600227 30.279883 
L 400.600227 30.279883 
" style="fill:none;stroke:#8b0000;stroke-linecap:square;stroke-width:2;"/>
   </g>
   <g id="line2d_9">
    <path clip-path="url(#p01da56dbb3)" d="M 106.054773 51.249325 
L 108.018409 50.68846 
L 108.509318 50.971527 
L 109.491136 50.971527 
L 110.472955 50.736536 
L 110.963864 50.736536 
L 111.454773 51.093342 
L 111.945682 51.015277 
L 112.436591 51.36828 
L 112.9275 51.36828 
L 113.418409 52.143891 
L 114.400227 51.906753 
L 114.891136 52.249189 
L 116.363864 52.170444 
L 118.3275 51.859037 
L 118.818409 51.477633 
L 119.309318 51.477633 
L 120.782045 51.104686 
L 122.745682 50.884861 
L 123.236591 50.884861 
L 123.7275 51.21676 
L 125.200227 51.071 
L 125.691136 52.269743 
L 126.182045 53.060275 
L 130.109318 52.984364 
L 130.600227 53.30013 
L 131.091136 53.224194 
L 131.582045 53.9236 
L 132.072955 53.9236 
L 132.563864 53.770694 
L 134.036591 53.770694 
L 134.5275 54.15443 
L 135.509318 54.077813 
L 136.000227 54.839157 
L 136.982045 54.761586 
L 137.472955 54.607416 
L 139.9275 54.530813 
L 140.418409 54.82968 
L 141.400227 54.753092 
L 143.854773 54.374862 
L 144.345682 54.669486 
L 146.309318 54.594472 
L 146.800227 54.445358 
L 148.763864 54.371254 
L 149.254773 54.588235 
L 150.7275 54.367733 
L 151.218409 54.72883 
L 153.672955 54.436624 
L 154.654773 54.364295 
L 156.1275 55.283449 
L 157.600227 55.210313 
L 158.091136 54.992609 
L 159.072955 54.920603 
L 160.054773 54.848876 
L 161.5275 54.848876 
L 162.018409 55.197195 
L 163.000227 55.125211 
L 163.491136 55.053505 
L 163.982045 55.327468 
L 164.472955 55.327468 
L 164.963864 55.184377 
L 165.945682 55.113241 
L 166.436591 54.971778 
L 166.9275 54.971778 
L 167.418409 55.242425 
L 168.400227 55.17185 
L 168.891136 55.440219 
L 169.872955 55.229364 
L 171.345682 55.159604 
L 173.309318 54.951876 
L 174.291136 55.548809 
L 175.272955 55.479359 
L 177.236591 55.410165 
L 177.7275 55.67078 
L 178.218409 55.67078 
L 178.709318 55.999129 
L 179.200227 55.860108 
L 179.691136 55.860108 
L 180.672955 55.653465 
L 181.654773 55.585082 
L 185.091136 55.516946 
L 187.545682 55.246845 
L 189.018409 55.179923 
L 189.509318 55.501527 
L 190.491136 55.43439 
L 194.909318 54.905791 
L 195.400227 54.905791 
L 195.891136 54.775956 
L 196.382045 55.091519 
L 197.363864 55.026504 
L 199.818409 54.768696 
L 201.291136 54.704802 
L 202.272955 54.641129 
L 203.745682 54.641129 
L 204.7275 55.262942 
L 206.200227 55.198637 
L 207.182045 55.750428 
L 208.163864 55.621254 
L 208.654773 55.926792 
L 211.109318 55.862125 
L 212.091136 55.797677 
L 213.563864 55.733447 
L 214.054773 56.036731 
L 214.545682 56.036731 
L 215.036591 56.274176 
L 224.854773 56.209577 
L 225.345682 56.081029 
L 227.800227 56.017077 
L 228.291136 55.889813 
L 228.782045 56.12459 
L 231.236591 56.12459 
L 232.218409 56.653548 
L 233.691136 56.653548 
L 234.182045 56.948308 
L 234.672955 56.948308 
L 235.163864 56.819655 
L 237.1275 56.755645 
L 238.109318 56.691845 
L 238.600227 56.98413 
L 241.054773 56.920165 
L 241.545682 56.85641 
L 242.036591 57.083081 
L 243.509318 57.019371 
L 244.982045 56.89257 
L 245.963864 56.829476 
L 246.945682 56.766587 
L 249.400227 56.703899 
L 249.891136 56.579129 
L 252.345682 56.579129 
L 252.836591 56.455157 
L 253.3275 56.455157 
L 253.818409 57.025564 
L 254.309318 56.90096 
L 257.745682 56.838955 
L 258.7275 57.278822 
L 261.672955 57.21671 
L 263.636591 57.031543 
L 265.600227 56.970207 
L 266.091136 56.848109 
L 266.582045 56.848109 
L 267.072955 57.126037 
L 268.545682 57.126037 
L 269.036591 57.004024 
L 274.9275 56.943301 
L 275.909318 56.882766 
L 276.400227 57.097813 
L 276.891136 57.097813 
L 277.382045 57.372358 
L 282.291136 57.311536 
L 283.272955 57.2509 
L 283.763864 57.463172 
L 284.745682 57.463172 
L 285.236591 57.342179 
L 286.218409 57.342179 
L 286.709318 57.492524 
L 287.691136 57.492524 
L 288.182045 58.031267 
L 289.163864 58.031267 
L 289.654773 57.909837 
L 306.836591 57.81557 
L 307.818409 57.755902 
L 309.291136 57.755902 
L 309.782045 57.577961 
L 314.200227 57.518999 
L 314.691136 57.401599 
L 317.145682 57.401599 
L 317.636591 57.226796 
L 320.582045 57.226796 
L 321.072955 57.053531 
L 324.018409 57.053531 
L 324.509318 57.199214 
L 331.872955 57.286289 
L 332.363864 57.429489 
L 341.200227 57.372358 
L 342.182045 57.287641 
L 347.091136 57.287641 
L 347.582045 57.624706 
L 353.472955 57.624706 
L 353.963864 58.036804 
L 361.3275 58.036804 
L 361.818409 57.757256 
L 382.9275 57.837149 
L 383.418409 58.422663 
L 400.600227 58.422663 
L 400.600227 58.422663 
" style="fill:none;stroke:#000080;stroke-linecap:square;stroke-width:2;"/>
   </g>
   <g id="patch_3">
    <path d="M 91.3275 235.277813 
L 91.3275 17.837813 
" style="fill:none;stroke:#000000;stroke-linecap:square;stroke-linejoin:miter;"/>
   </g>
   <g id="patch_4">
    <path d="M 91.3275 235.277813 
L 415.3275 235.277813 
" style="fill:none;stroke:#000000;stroke-linecap:square;stroke-linejoin:miter;"/>
   </g>
  </g>
  <g id="axes_2">
   <g id="patch_5">
    <path d="M 431.5275 235.277813 
L 755.5275 235.277813 
L 755.5275 17.837813 
L 431.5275 17.837813 
z
" style="fill:none;"/>
   </g>
   <g id="matplotlib.axis_3">
    <g id="xtick_5">
     <g id="line2d_10">
      <g>
       <use style="stroke:#000000;stroke-width:0.8;" x="446.254773" xlink:href="#m74ba648eea" y="235.277813"/>
      </g>
     </g>
     <g id="text_10">
      <!-- 1 -->
      <g transform="translate(437.347273 265.053438)scale(0.28 -0.28)">
       <use xlink:href="#DejaVuSans-49"/>
      </g>
     </g>
    </g>
    <g id="xtick_6">
     <g id="line2d_11">
      <g>
       <use style="stroke:#000000;stroke-width:0.8;" x="544.436591" xlink:href="#m74ba648eea" y="235.277813"/>
      </g>
     </g>
     <g id="text_11">
      <!-- 2 -->
      <g transform="translate(535.529091 265.053438)scale(0.28 -0.28)">
       <use xlink:href="#DejaVuSans-50"/>
      </g>
     </g>
    </g>
    <g id="xtick_7">
     <g id="line2d_12">
      <g>
       <use style="stroke:#000000;stroke-width:0.8;" x="642.618409" xlink:href="#m74ba648eea" y="235.277813"/>
      </g>
     </g>
     <g id="text_12">
      <!-- 3 -->
      <g transform="translate(633.710909 265.053438)scale(0.28 -0.28)">
       <use xlink:href="#DejaVuSans-51"/>
      </g>
     </g>
    </g>
    <g id="xtick_8">
     <g id="line2d_13">
      <g>
       <use style="stroke:#000000;stroke-width:0.8;" x="740.800227" xlink:href="#m74ba648eea" y="235.277813"/>
      </g>
     </g>
     <g id="text_13">
      <!-- 4 -->
      <g transform="translate(731.892727 265.053438)scale(0.28 -0.28)">
       <use xlink:href="#DejaVuSans-52"/>
      </g>
     </g>
    </g>
    <g id="text_14">
     <!-- -log10 p-value -->
     <g transform="translate(492.6925 296.152188)scale(0.28 -0.28)">
      <use xlink:href="#DejaVuSans-45"/>
      <use x="36.083984" xlink:href="#DejaVuSans-108"/>
      <use x="63.867188" xlink:href="#DejaVuSans-111"/>
      <use x="125.048828" xlink:href="#DejaVuSans-103"/>
      <use x="188.525391" xlink:href="#DejaVuSans-49"/>
      <use x="252.148438" xlink:href="#DejaVuSans-48"/>
      <use x="315.771484" xlink:href="#DejaVuSans-32"/>
      <use x="347.558594" xlink:href="#DejaVuSans-112"/>
      <use x="411.035156" xlink:href="#DejaVuSans-45"/>
      <use x="447.087891" xlink:href="#DejaVuSans-118"/>
      <use x="506.267578" xlink:href="#DejaVuSans-97"/>
      <use x="567.546875" xlink:href="#DejaVuSans-108"/>
      <use x="595.330078" xlink:href="#DejaVuSans-117"/>
      <use x="658.708984" xlink:href="#DejaVuSans-101"/>
     </g>
    </g>
   </g>
   <g id="matplotlib.axis_4">
    <g id="ytick_4"/>
    <g id="ytick_5"/>
    <g id="ytick_6"/>
   </g>
   <g id="line2d_14">
    <path clip-path="url(#p8b5564fdb2)" d="M 446.254773 96.463249 
L 447.236591 96.073048 
L 447.7275 96.417614 
L 448.218409 96.030522 
L 453.1275 96.030522 
L 453.618409 96.713107 
L 457.054773 96.713107 
L 457.545682 97.051896 
L 458.036591 97.051896 
L 458.5275 97.389032 
L 459.018409 97.195477 
L 460.000227 97.195477 
L 460.982045 96.811178 
L 461.963864 96.811178 
L 462.945682 96.430584 
L 463.436591 96.430584 
L 464.418409 97.096518 
L 465.400227 96.718194 
L 469.818409 96.718194 
L 470.309318 96.530384 
L 472.272955 96.530384 
L 473.254773 96.157433 
L 473.745682 96.300831 
L 478.163864 96.258796 
L 478.654773 96.583607 
L 480.618409 96.583607 
L 481.109318 96.906903 
L 481.600227 96.906903 
L 482.091136 97.044495 
L 482.582045 97.044495 
L 483.072955 97.364479 
L 485.036591 97.364479 
L 485.5275 97.682986 
L 486.018409 97.682986 
L 486.509318 98.000024 
L 488.472955 98.000024 
L 488.963864 97.815744 
L 489.945682 97.815744 
L 490.436591 98.131024 
L 490.9275 98.131024 
L 491.418409 97.947286 
L 493.382045 97.947286 
L 493.872955 98.260826 
L 495.345682 98.260826 
L 495.836591 98.572938 
L 497.800227 98.572938 
L 498.782045 98.206792 
L 499.272955 98.206792 
L 499.763864 98.516908 
L 506.636591 98.516908 
L 507.1275 98.334788 
L 509.582045 98.334788 
L 510.072955 98.643218 
L 513.018409 98.643218 
L 513.509318 98.461633 
L 517.9275 98.461633 
L 518.418409 98.768395 
L 518.909318 98.768395 
L 519.400227 98.587343 
L 519.891136 98.587343 
L 520.382045 99.196209 
L 523.818409 99.196209 
L 524.309318 99.317546 
L 525.291136 99.317546 
L 525.782045 99.137282 
L 528.236591 99.137282 
L 528.7275 99.437813 
L 532.163864 99.437813 
L 532.654773 99.73702 
L 533.145682 99.73702 
L 533.636591 99.557021 
L 547.872955 99.557021 
L 548.363864 99.854655 
L 549.345682 99.854655 
L 549.836591 100.150985 
L 550.3275 100.150985 
L 550.818409 100.446022 
L 554.745682 100.446022 
L 555.236591 100.266048 
L 563.091136 100.266048 
L 563.582045 100.559552 
L 564.072955 100.559552 
L 564.563864 100.380112 
L 566.5275 100.380112 
L 567.018409 100.962823 
L 570.454773 100.962823 
L 570.945682 101.252295 
L 573.400227 101.252295 
L 573.891136 101.540522 
L 574.382045 101.540522 
L 574.872955 101.827512 
L 575.363864 101.827512 
L 575.854773 102.217514 
L 580.272955 102.217514 
L 580.763864 102.037983 
L 581.254773 102.037983 
L 581.745682 101.859214 
L 584.200227 101.963648 
L 584.691136 102.244901 
L 590.091136 102.244901 
L 590.582045 102.52497 
L 591.563864 102.52497 
L 592.054773 102.803863 
L 595.000227 102.803863 
L 595.491136 102.625737 
L 598.436591 102.625737 
L 598.9275 102.448356 
L 632.800227 102.448356 
L 633.291136 102.725662 
L 636.236591 102.725662 
L 636.7275 102.548813 
L 644.582045 102.548813 
L 645.072955 102.372698 
L 667.654773 102.372698 
L 668.145682 102.648435 
L 701.5275 102.648435 
L 702.018409 102.472844 
L 740.800227 102.397813 
L 740.800227 102.397813 
" style="fill:none;stroke:#8b0000;stroke-linecap:square;stroke-width:2;"/>
   </g>
   <g id="line2d_15">
    <path clip-path="url(#p8b5564fdb2)" d="M 446.254773 42.23881 
L 449.200227 41.938305 
L 453.1275 41.938305 
L 453.618409 41.820165 
L 458.036591 41.761529 
L 459.509318 41.645112 
L 460.491136 41.587327 
L 461.472955 41.529822 
L 462.454773 41.472595 
L 463.436591 41.415644 
L 464.418409 42.345438 
L 465.891136 42.228457 
L 472.272955 42.170384 
L 474.7275 41.940831 
L 476.691136 41.940831 
L 477.182045 41.771489 
L 480.618409 41.71557 
L 481.600227 41.65991 
L 482.091136 42.053868 
L 485.036591 41.997813 
L 485.5275 42.444187 
L 488.472955 42.38749 
L 489.454773 42.331054 
L 490.9275 42.274877 
L 491.909318 42.218957 
L 497.800227 42.107881 
L 500.254773 41.943152 
L 513.018409 41.834569 
L 514.491136 41.780644 
L 519.891136 41.673517 
L 520.382045 42.051621 
L 525.291136 41.944243 
L 526.763864 41.89091 
L 533.145682 41.784949 
L 534.618409 41.732318 
L 550.3275 41.627747 
L 551.800227 41.575804 
L 563.091136 41.524087 
L 563.582045 41.945291 
L 566.5275 41.892997 
L 567.018409 42.25872 
L 574.382045 42.153683 
L 575.363864 42.101503 
L 575.854773 42.409923 
L 582.7275 42.305583 
L 583.709318 42.202125 
L 591.563864 42.099539 
L 592.054773 42.505376 
L 632.800227 42.402164 
L 634.272955 42.350881 
L 667.654773 42.248956 
L 668.145682 42.649431 
L 723.1275 42.598061 
L 723.618409 42.892627 
L 740.800227 42.892627 
L 740.800227 42.892627 
" style="fill:none;stroke:#000080;stroke-linecap:square;stroke-width:2;"/>
   </g>
   <g id="patch_6">
    <path d="M 431.5275 235.277813 
L 431.5275 17.837813 
" style="fill:none;stroke:#000000;stroke-linecap:square;stroke-linejoin:miter;"/>
   </g>
   <g id="patch_7">
    <path d="M 431.5275 235.277813 
L 755.5275 235.277813 
" style="fill:none;stroke:#000000;stroke-linecap:square;stroke-linejoin:miter;"/>
   </g>
  </g>
  <g id="axes_3">
   <g id="patch_8">
    <path d="M 771.7275 235.277813 
L 1095.7275 235.277813 
L 1095.7275 17.837813 
L 771.7275 17.837813 
z
" style="fill:none;"/>
   </g>
   <g id="matplotlib.axis_5">
    <g id="xtick_9">
     <g id="line2d_16">
      <g>
       <use style="stroke:#000000;stroke-width:0.8;" x="786.454773" xlink:href="#m74ba648eea" y="235.277813"/>
      </g>
     </g>
     <g id="text_15">
      <!-- 1 -->
      <g transform="translate(777.547273 265.053438)scale(0.28 -0.28)">
       <use xlink:href="#DejaVuSans-49"/>
      </g>
     </g>
    </g>
    <g id="xtick_10">
     <g id="line2d_17">
      <g>
       <use style="stroke:#000000;stroke-width:0.8;" x="884.636591" xlink:href="#m74ba648eea" y="235.277813"/>
      </g>
     </g>
     <g id="text_16">
      <!-- 2 -->
      <g transform="translate(875.729091 265.053438)scale(0.28 -0.28)">
       <use xlink:href="#DejaVuSans-50"/>
      </g>
     </g>
    </g>
    <g id="xtick_11">
     <g id="line2d_18">
      <g>
       <use style="stroke:#000000;stroke-width:0.8;" x="982.818409" xlink:href="#m74ba648eea" y="235.277813"/>
      </g>
     </g>
     <g id="text_17">
      <!-- 3 -->
      <g transform="translate(973.910909 265.053438)scale(0.28 -0.28)">
       <use xlink:href="#DejaVuSans-51"/>
      </g>
     </g>
    </g>
    <g id="xtick_12">
     <g id="line2d_19">
      <g>
       <use style="stroke:#000000;stroke-width:0.8;" x="1081.000227" xlink:href="#m74ba648eea" y="235.277813"/>
      </g>
     </g>
     <g id="text_18">
      <!-- 4 -->
      <g transform="translate(1072.092727 265.053438)scale(0.28 -0.28)">
       <use xlink:href="#DejaVuSans-52"/>
      </g>
     </g>
    </g>
    <g id="text_19">
     <!-- -log10 p-value -->
     <g transform="translate(832.8925 296.152188)scale(0.28 -0.28)">
      <use xlink:href="#DejaVuSans-45"/>
      <use x="36.083984" xlink:href="#DejaVuSans-108"/>
      <use x="63.867188" xlink:href="#DejaVuSans-111"/>
      <use x="125.048828" xlink:href="#DejaVuSans-103"/>
      <use x="188.525391" xlink:href="#DejaVuSans-49"/>
      <use x="252.148438" xlink:href="#DejaVuSans-48"/>
      <use x="315.771484" xlink:href="#DejaVuSans-32"/>
      <use x="347.558594" xlink:href="#DejaVuSans-112"/>
      <use x="411.035156" xlink:href="#DejaVuSans-45"/>
      <use x="447.087891" xlink:href="#DejaVuSans-118"/>
      <use x="506.267578" xlink:href="#DejaVuSans-97"/>
      <use x="567.546875" xlink:href="#DejaVuSans-108"/>
      <use x="595.330078" xlink:href="#DejaVuSans-117"/>
      <use x="658.708984" xlink:href="#DejaVuSans-101"/>
     </g>
    </g>
   </g>
   <g id="matplotlib.axis_6">
    <g id="ytick_7"/>
    <g id="ytick_8"/>
    <g id="ytick_9"/>
   </g>
   <g id="line2d_20">
    <path clip-path="url(#pd8eba16047)" d="M 786.454773 219.225195 
L 787.9275 219.332213 
L 788.909318 219.437813 
L 794.309318 219.542023 
L 796.272955 219.846587 
L 800.691136 219.945505 
L 802.163864 220.139585 
L 804.1275 220.234794 
L 805.109318 220.328812 
L 810.018409 220.421663 
L 812.472955 220.781813 
L 814.436591 220.869138 
L 815.909318 221.04067 
L 820.3275 221.124913 
L 820.818409 219.929107 
L 824.745682 220.018865 
L 826.218409 220.195269 
L 826.709318 220.195269 
L 827.200227 219.125127 
L 828.182045 219.216903 
L 829.163864 219.216903 
L 829.654773 218.079168 
L 838.000227 218.17579 
L 839.963864 218.459249 
L 843.400227 218.551659 
L 844.382045 218.643058 
L 845.854773 218.643058 
L 846.345682 217.551726 
L 847.818409 217.551726 
L 848.309318 217.742329 
L 850.763864 217.836101 
L 851.745682 217.928876 
L 858.1275 218.02067 
L 859.600227 218.201373 
L 866.472955 218.290313 
L 867.454773 218.378331 
L 870.891136 218.465441 
L 872.363864 218.636996 
L 873.836591 218.721467 
L 874.3275 218.887863 
L 876.782045 218.887863 
L 877.272955 219.050947 
L 885.618409 219.131278 
L 886.600227 219.210817 
L 889.545682 219.289577 
L 890.036591 219.444803 
L 901.3275 219.521291 
L 902.309318 219.597043 
L 915.072955 219.672071 
L 916.054773 219.965136 
L 918.509318 220.036691 
L 919.491136 220.10758 
L 923.909318 220.177813 
L 924.891136 220.247398 
L 927.836591 220.247398 
L 928.3275 219.318913 
L 932.745682 219.391785 
L 933.236591 219.53555 
L 935.691136 219.53555 
L 936.182045 219.746384 
L 938.636591 219.815413 
L 940.600227 220.018865 
L 946.982045 220.085498 
L 947.963864 220.151552 
L 949.9275 220.151552 
L 950.418409 220.28195 
L 952.872955 220.34631 
L 953.854773 220.41012 
L 992.145682 220.473387 
L 992.636591 220.598319 
L 1000.982045 220.659997 
L 1001.472955 219.875813 
L 1012.272955 219.939721 
L 1013.254773 220.003102 
L 1021.600227 220.065961 
L 1022.582045 220.128304 
L 1027.491136 220.128304 
L 1027.982045 220.251471 
L 1041.7275 220.312306 
L 1042.218409 220.432511 
L 1051.054773 220.432511 
L 1051.545682 220.66722 
L 1063.3275 220.66722 
L 1063.818409 220.894622 
L 1081.000227 220.894622 
L 1081.000227 220.894622 
" style="fill:none;stroke:#8b0000;stroke-linecap:square;stroke-width:2;"/>
   </g>
   <g id="line2d_21">
    <path clip-path="url(#pd8eba16047)" d="M 786.454773 63.077007 
L 787.436591 63.077007 
L 788.418409 62.477813 
L 793.818409 62.477813 
L 794.309318 62.184128 
L 794.800227 63.31546 
L 795.291136 64.13149 
L 799.709318 64.13149 
L 800.200227 63.834736 
L 800.691136 63.834736 
L 801.182045 63.541762 
L 801.672955 63.541762 
L 802.163864 63.252496 
L 802.654773 63.252496 
L 803.145682 62.966869 
L 804.1275 62.966869 
L 804.618409 62.684813 
L 807.563864 62.684813 
L 808.054773 62.40626 
L 810.018409 62.40626 
L 810.509318 63.473368 
L 811.000227 63.193395 
L 811.982045 65.279267 
L 813.454773 65.279267 
L 813.945682 64.993475 
L 814.436591 64.993475 
L 815.418409 64.432098 
L 818.854773 64.432098 
L 819.345682 64.156392 
L 820.3275 64.156392 
L 820.818409 63.88393 
L 821.309318 63.88393 
L 821.800227 64.886234 
L 824.745682 64.886234 
L 825.236591 64.612696 
L 825.7275 64.612696 
L 826.218409 64.342321 
L 826.709318 64.342321 
L 827.200227 65.053355 
L 827.691136 64.785085 
L 829.163864 64.785085 
L 829.654773 64.519846 
L 831.1275 64.519846 
L 831.618409 64.257588 
L 838.000227 64.257588 
L 838.491136 65.213008 
L 838.982045 65.213008 
L 839.472955 64.949813 
L 839.963864 65.890851 
L 841.9275 65.890851 
L 842.418409 66.821549 
L 843.400227 66.821549 
L 843.891136 66.553878 
L 845.854773 66.553878 
L 846.345682 66.289117 
L 847.818409 66.289117 
L 848.309318 66.937167 
L 848.800227 66.937167 
L 849.291136 66.674604 
L 850.763864 66.674604 
L 851.254773 66.414834 
L 856.163864 66.414834 
L 856.654773 67.308289 
L 858.1275 67.308289 
L 858.618409 67.047918 
L 859.109318 67.047918 
L 859.600227 66.790273 
L 863.5275 66.790273 
L 864.018409 66.535313 
L 866.472955 66.535313 
L 866.963864 66.282994 
L 868.9275 66.282994 
L 869.418409 66.033276 
L 870.891136 66.033276 
L 871.382045 65.78612 
L 871.872955 65.78612 
L 872.363864 65.541486 
L 872.854773 65.541486 
L 873.345682 65.299335 
L 873.836591 65.299335 
L 874.3275 65.914998 
L 876.782045 65.914998 
L 877.272955 65.436618 
L 882.182045 65.436618 
L 882.672955 65.200981 
L 885.618409 65.200981 
L 886.109318 64.967665 
L 888.563864 64.967665 
L 889.054773 65.802518 
L 889.545682 65.802518 
L 890.036591 66.392376 
L 895.436591 66.392376 
L 895.9275 66.157813 
L 901.3275 66.157813 
L 901.818409 65.925505 
L 904.272955 65.925505 
L 904.763864 65.69542 
L 915.072955 65.69542 
L 916.054773 66.838376 
L 916.545682 66.838376 
L 917.036591 67.625476 
L 918.509318 67.625476 
L 919.000227 67.393906 
L 922.436591 67.393906 
L 922.9275 67.164479 
L 923.909318 67.164479 
L 924.400227 66.937167 
L 927.836591 66.937167 
L 928.3275 66.711941 
L 930.782045 66.711941 
L 931.272955 66.488771 
L 932.745682 66.488771 
L 933.236591 66.048491 
L 935.691136 66.048491 
L 936.182045 65.402813 
L 937.163864 65.402813 
L 937.654773 66.157813 
L 938.636591 66.157813 
L 939.1275 65.944007 
L 939.618409 65.944007 
L 940.109318 65.732086 
L 940.600227 66.475707 
L 944.5275 66.475707 
L 945.018409 67.212834 
L 946.982045 67.212834 
L 947.472955 66.99816 
L 949.9275 66.99816 
L 950.418409 67.511606 
L 950.909318 67.511606 
L 951.400227 68.231632 
L 952.872955 68.231632 
L 953.363864 68.016274 
L 973.000227 68.016274 
L 973.491136 67.802749 
L 992.145682 67.802749 
L 992.636591 67.381104 
L 994.600227 67.381104 
L 995.091136 67.172939 
L 1000.982045 67.172939 
L 1001.472955 67.667813 
L 1004.418409 67.667813 
L 1004.909318 68.36329 
L 1012.272955 68.36329 
L 1012.763864 68.154507 
L 1016.691136 68.154507 
L 1017.182045 68.842257 
L 1021.600227 68.842257 
L 1022.091136 69.52437 
L 1027.491136 69.52437 
L 1027.982045 69.988056 
L 1033.872955 69.988056 
L 1034.363864 69.776922 
L 1041.7275 69.776922 
L 1042.218409 69.35974 
L 1063.3275 69.404611 
L 1063.818409 71.140225 
L 1081.000227 71.140225 
L 1081.000227 71.140225 
" style="fill:none;stroke:#000080;stroke-linecap:square;stroke-width:2;"/>
   </g>
   <g id="patch_9">
    <path d="M 771.7275 235.277813 
L 771.7275 17.837813 
" style="fill:none;stroke:#000000;stroke-linecap:square;stroke-linejoin:miter;"/>
   </g>
   <g id="patch_10">
    <path d="M 771.7275 235.277813 
L 1095.7275 235.277813 
" style="fill:none;stroke:#000000;stroke-linecap:square;stroke-linejoin:miter;"/>
   </g>
  </g>
 </g>
 <defs>
  <clipPath id="p01da56dbb3">
   <rect height="217.44" width="324" x="91.3275" y="17.837813"/>
  </clipPath>
  <clipPath id="p8b5564fdb2">
   <rect height="217.44" width="324" x="431.5275" y="17.837813"/>
  </clipPath>
  <clipPath id="pd8eba16047">
   <rect height="217.44" width="324" x="771.7275" y="17.837813"/>
  </clipPath>
 </defs>
</svg>
