<?xml version="1.0" encoding="utf-8" standalone="no"?>
<!DOCTYPE svg PUBLIC "-//W3C//DTD SVG 1.1//EN"
  "http://www.w3.org/Graphics/SVG/1.1/DTD/svg11.dtd">
<!-- Created with matplotlib (https://matplotlib.org/) -->
<svg height="363.535312pt" version="1.1" viewBox="0 0 1120.7425 363.535312" width="1120.7425pt" xmlns="http://www.w3.org/2000/svg" xmlns:xlink="http://www.w3.org/1999/xlink">
 <defs>
  <style type="text/css">
*{stroke-linecap:butt;stroke-linejoin:round;}
  </style>
 </defs>
 <g id="figure_1">
  <g id="patch_1">
   <path d="M 0 363.535312 
L 1120.7425 363.535312 
L 1120.7425 -0 
L 0 -0 
z
" style="fill:none;"/>
  </g>
  <g id="axes_1">
   <g id="patch_2">
    <path d="M 109.1425 289.637812 
L 433.1425 289.637812 
L 433.1425 17.837813 
L 109.1425 17.837813 
z
" style="fill:none;"/>
   </g>
   <g id="matplotlib.axis_1">
    <g id="xtick_1">
     <g id="line2d_1">
      <defs>
       <path d="M 0 0 
L 0 5 
" id="m7de4277f51" style="stroke:#000000;stroke-width:0.8;"/>
      </defs>
      <g>
       <use style="stroke:#000000;stroke-width:0.8;" x="123.869773" xlink:href="#m7de4277f51" y="289.637812"/>
      </g>
     </g>
     <g id="text_1">
      <!-- 1 -->
      <defs>
       <path d="M 12.40625 8.296875 
L 28.515625 8.296875 
L 28.515625 63.921875 
L 10.984375 60.40625 
L 10.984375 69.390625 
L 28.421875 72.90625 
L 38.28125 72.90625 
L 38.28125 8.296875 
L 54.390625 8.296875 
L 54.390625 0 
L 12.40625 0 
z
" id="DejaVuSans-49"/>
      </defs>
      <g transform="translate(114.962273 319.413437)scale(0.28 -0.28)">
       <use xlink:href="#DejaVuSans-49"/>
      </g>
     </g>
    </g>
    <g id="xtick_2">
     <g id="line2d_2">
      <g>
       <use style="stroke:#000000;stroke-width:0.8;" x="197.506136" xlink:href="#m7de4277f51" y="289.637812"/>
      </g>
     </g>
     <g id="text_2">
      <!-- 2 -->
      <defs>
       <path d="M 19.1875 8.296875 
L 53.609375 8.296875 
L 53.609375 0 
L 7.328125 0 
L 7.328125 8.296875 
Q 12.9375 14.109375 22.625 23.890625 
Q 32.328125 33.6875 34.8125 36.53125 
Q 39.546875 41.84375 41.421875 45.53125 
Q 43.3125 49.21875 43.3125 52.78125 
Q 43.3125 58.59375 39.234375 62.25 
Q 35.15625 65.921875 28.609375 65.921875 
Q 23.96875 65.921875 18.8125 64.3125 
Q 13.671875 62.703125 7.8125 59.421875 
L 7.8125 69.390625 
Q 13.765625 71.78125 18.9375 73 
Q 24.125 74.21875 28.421875 74.21875 
Q 39.75 74.21875 46.484375 68.546875 
Q 53.21875 62.890625 53.21875 53.421875 
Q 53.21875 48.921875 51.53125 44.890625 
Q 49.859375 40.875 45.40625 35.40625 
Q 44.1875 33.984375 37.640625 27.21875 
Q 31.109375 20.453125 19.1875 8.296875 
z
" id="DejaVuSans-50"/>
      </defs>
      <g transform="translate(188.598636 319.413437)scale(0.28 -0.28)">
       <use xlink:href="#DejaVuSans-50"/>
      </g>
     </g>
    </g>
    <g id="xtick_3">
     <g id="line2d_3">
      <g>
       <use style="stroke:#000000;stroke-width:0.8;" x="271.1425" xlink:href="#m7de4277f51" y="289.637812"/>
      </g>
     </g>
     <g id="text_3">
      <!-- 3 -->
      <defs>
       <path d="M 40.578125 39.3125 
Q 47.65625 37.796875 51.625 33 
Q 55.609375 28.21875 55.609375 21.1875 
Q 55.609375 10.40625 48.1875 4.484375 
Q 40.765625 -1.421875 27.09375 -1.421875 
Q 22.515625 -1.421875 17.65625 -0.515625 
Q 12.796875 0.390625 7.625 2.203125 
L 7.625 11.71875 
Q 11.71875 9.328125 16.59375 8.109375 
Q 21.484375 6.890625 26.8125 6.890625 
Q 36.078125 6.890625 40.9375 10.546875 
Q 45.796875 14.203125 45.796875 21.1875 
Q 45.796875 27.640625 41.28125 31.265625 
Q 36.765625 34.90625 28.71875 34.90625 
L 20.21875 34.90625 
L 20.21875 43.015625 
L 29.109375 43.015625 
Q 36.375 43.015625 40.234375 45.921875 
Q 44.09375 48.828125 44.09375 54.296875 
Q 44.09375 59.90625 40.109375 62.90625 
Q 36.140625 65.921875 28.71875 65.921875 
Q 24.65625 65.921875 20.015625 65.03125 
Q 15.375 64.15625 9.8125 62.3125 
L 9.8125 71.09375 
Q 15.4375 72.65625 20.34375 73.4375 
Q 25.25 74.21875 29.59375 74.21875 
Q 40.828125 74.21875 47.359375 69.109375 
Q 53.90625 64.015625 53.90625 55.328125 
Q 53.90625 49.265625 50.4375 45.09375 
Q 46.96875 40.921875 40.578125 39.3125 
z
" id="DejaVuSans-51"/>
      </defs>
      <g transform="translate(262.235 319.413437)scale(0.28 -0.28)">
       <use xlink:href="#DejaVuSans-51"/>
      </g>
     </g>
    </g>
    <g id="xtick_4">
     <g id="line2d_4">
      <g>
       <use style="stroke:#000000;stroke-width:0.8;" x="344.778864" xlink:href="#m7de4277f51" y="289.637812"/>
      </g>
     </g>
     <g id="text_4">
      <!-- 4 -->
      <defs>
       <path d="M 37.796875 64.3125 
L 12.890625 25.390625 
L 37.796875 25.390625 
z
M 35.203125 72.90625 
L 47.609375 72.90625 
L 47.609375 25.390625 
L 58.015625 25.390625 
L 58.015625 17.1875 
L 47.609375 17.1875 
L 47.609375 0 
L 37.796875 0 
L 37.796875 17.1875 
L 4.890625 17.1875 
L 4.890625 26.703125 
z
" id="DejaVuSans-52"/>
      </defs>
      <g transform="translate(335.871364 319.413437)scale(0.28 -0.28)">
       <use xlink:href="#DejaVuSans-52"/>
      </g>
     </g>
    </g>
    <g id="xtick_5">
     <g id="line2d_5">
      <g>
       <use style="stroke:#000000;stroke-width:0.8;" x="418.415227" xlink:href="#m7de4277f51" y="289.637812"/>
      </g>
     </g>
     <g id="text_5">
      <!-- 5 -->
      <defs>
       <path d="M 10.796875 72.90625 
L 49.515625 72.90625 
L 49.515625 64.59375 
L 19.828125 64.59375 
L 19.828125 46.734375 
Q 21.96875 47.46875 24.109375 47.828125 
Q 26.265625 48.1875 28.421875 48.1875 
Q 40.625 48.1875 47.75 41.5 
Q 54.890625 34.8125 54.890625 23.390625 
Q 54.890625 11.625 47.5625 5.09375 
Q 40.234375 -1.421875 26.90625 -1.421875 
Q 22.3125 -1.421875 17.546875 -0.640625 
Q 12.796875 0.140625 7.71875 1.703125 
L 7.71875 11.625 
Q 12.109375 9.234375 16.796875 8.0625 
Q 21.484375 6.890625 26.703125 6.890625 
Q 35.15625 6.890625 40.078125 11.328125 
Q 45.015625 15.765625 45.015625 23.390625 
Q 45.015625 31 40.078125 35.4375 
Q 35.15625 39.890625 26.703125 39.890625 
Q 22.75 39.890625 18.8125 39.015625 
Q 14.890625 38.140625 10.796875 36.28125 
z
" id="DejaVuSans-53"/>
      </defs>
      <g transform="translate(409.507727 319.413437)scale(0.28 -0.28)">
       <use xlink:href="#DejaVuSans-53"/>
      </g>
     </g>
    </g>
    <g id="text_6">
     <!-- -log10 p-value -->
     <defs>
      <path d="M 4.890625 31.390625 
L 31.203125 31.390625 
L 31.203125 23.390625 
L 4.890625 23.390625 
z
" id="DejaVuSans-45"/>
      <path d="M 9.421875 75.984375 
L 18.40625 75.984375 
L 18.40625 0 
L 9.421875 0 
z
" id="DejaVuSans-108"/>
      <path d="M 30.609375 48.390625 
Q 23.390625 48.390625 19.1875 42.75 
Q 14.984375 37.109375 14.984375 27.296875 
Q 14.984375 17.484375 19.15625 11.84375 
Q 23.34375 6.203125 30.609375 6.203125 
Q 37.796875 6.203125 41.984375 11.859375 
Q 46.1875 17.53125 46.1875 27.296875 
Q 46.1875 37.015625 41.984375 42.703125 
Q 37.796875 48.390625 30.609375 48.390625 
z
M 30.609375 56 
Q 42.328125 56 49.015625 48.375 
Q 55.71875 40.765625 55.71875 27.296875 
Q 55.71875 13.875 49.015625 6.21875 
Q 42.328125 -1.421875 30.609375 -1.421875 
Q 18.84375 -1.421875 12.171875 6.21875 
Q 5.515625 13.875 5.515625 27.296875 
Q 5.515625 40.765625 12.171875 48.375 
Q 18.84375 56 30.609375 56 
z
" id="DejaVuSans-111"/>
      <path d="M 45.40625 27.984375 
Q 45.40625 37.75 41.375 43.109375 
Q 37.359375 48.484375 30.078125 48.484375 
Q 22.859375 48.484375 18.828125 43.109375 
Q 14.796875 37.75 14.796875 27.984375 
Q 14.796875 18.265625 18.828125 12.890625 
Q 22.859375 7.515625 30.078125 7.515625 
Q 37.359375 7.515625 41.375 12.890625 
Q 45.40625 18.265625 45.40625 27.984375 
z
M 54.390625 6.78125 
Q 54.390625 -7.171875 48.1875 -13.984375 
Q 42 -20.796875 29.203125 -20.796875 
Q 24.46875 -20.796875 20.265625 -20.09375 
Q 16.0625 -19.390625 12.109375 -17.921875 
L 12.109375 -9.1875 
Q 16.0625 -11.328125 19.921875 -12.34375 
Q 23.78125 -13.375 27.78125 -13.375 
Q 36.625 -13.375 41.015625 -8.765625 
Q 45.40625 -4.15625 45.40625 5.171875 
L 45.40625 9.625 
Q 42.625 4.78125 38.28125 2.390625 
Q 33.9375 0 27.875 0 
Q 17.828125 0 11.671875 7.65625 
Q 5.515625 15.328125 5.515625 27.984375 
Q 5.515625 40.671875 11.671875 48.328125 
Q 17.828125 56 27.875 56 
Q 33.9375 56 38.28125 53.609375 
Q 42.625 51.21875 45.40625 46.390625 
L 45.40625 54.6875 
L 54.390625 54.6875 
z
" id="DejaVuSans-103"/>
      <path d="M 31.78125 66.40625 
Q 24.171875 66.40625 20.328125 58.90625 
Q 16.5 51.421875 16.5 36.375 
Q 16.5 21.390625 20.328125 13.890625 
Q 24.171875 6.390625 31.78125 6.390625 
Q 39.453125 6.390625 43.28125 13.890625 
Q 47.125 21.390625 47.125 36.375 
Q 47.125 51.421875 43.28125 58.90625 
Q 39.453125 66.40625 31.78125 66.40625 
z
M 31.78125 74.21875 
Q 44.046875 74.21875 50.515625 64.515625 
Q 56.984375 54.828125 56.984375 36.375 
Q 56.984375 17.96875 50.515625 8.265625 
Q 44.046875 -1.421875 31.78125 -1.421875 
Q 19.53125 -1.421875 13.0625 8.265625 
Q 6.59375 17.96875 6.59375 36.375 
Q 6.59375 54.828125 13.0625 64.515625 
Q 19.53125 74.21875 31.78125 74.21875 
z
" id="DejaVuSans-48"/>
      <path id="DejaVuSans-32"/>
      <path d="M 18.109375 8.203125 
L 18.109375 -20.796875 
L 9.078125 -20.796875 
L 9.078125 54.6875 
L 18.109375 54.6875 
L 18.109375 46.390625 
Q 20.953125 51.265625 25.265625 53.625 
Q 29.59375 56 35.59375 56 
Q 45.5625 56 51.78125 48.09375 
Q 58.015625 40.1875 58.015625 27.296875 
Q 58.015625 14.40625 51.78125 6.484375 
Q 45.5625 -1.421875 35.59375 -1.421875 
Q 29.59375 -1.421875 25.265625 0.953125 
Q 20.953125 3.328125 18.109375 8.203125 
z
M 48.6875 27.296875 
Q 48.6875 37.203125 44.609375 42.84375 
Q 40.53125 48.484375 33.40625 48.484375 
Q 26.265625 48.484375 22.1875 42.84375 
Q 18.109375 37.203125 18.109375 27.296875 
Q 18.109375 17.390625 22.1875 11.75 
Q 26.265625 6.109375 33.40625 6.109375 
Q 40.53125 6.109375 44.609375 11.75 
Q 48.6875 17.390625 48.6875 27.296875 
z
" id="DejaVuSans-112"/>
      <path d="M 2.984375 54.6875 
L 12.5 54.6875 
L 29.59375 8.796875 
L 46.6875 54.6875 
L 56.203125 54.6875 
L 35.6875 0 
L 23.484375 0 
z
" id="DejaVuSans-118"/>
      <path d="M 34.28125 27.484375 
Q 23.390625 27.484375 19.1875 25 
Q 14.984375 22.515625 14.984375 16.5 
Q 14.984375 11.71875 18.140625 8.90625 
Q 21.296875 6.109375 26.703125 6.109375 
Q 34.1875 6.109375 38.703125 11.40625 
Q 43.21875 16.703125 43.21875 25.484375 
L 43.21875 27.484375 
z
M 52.203125 31.203125 
L 52.203125 0 
L 43.21875 0 
L 43.21875 8.296875 
Q 40.140625 3.328125 35.546875 0.953125 
Q 30.953125 -1.421875 24.3125 -1.421875 
Q 15.921875 -1.421875 10.953125 3.296875 
Q 6 8.015625 6 15.921875 
Q 6 25.140625 12.171875 29.828125 
Q 18.359375 34.515625 30.609375 34.515625 
L 43.21875 34.515625 
L 43.21875 35.40625 
Q 43.21875 41.609375 39.140625 45 
Q 35.0625 48.390625 27.6875 48.390625 
Q 23 48.390625 18.546875 47.265625 
Q 14.109375 46.140625 10.015625 43.890625 
L 10.015625 52.203125 
Q 14.9375 54.109375 19.578125 55.046875 
Q 24.21875 56 28.609375 56 
Q 40.484375 56 46.34375 49.84375 
Q 52.203125 43.703125 52.203125 31.203125 
z
" id="DejaVuSans-97"/>
      <path d="M 8.5 21.578125 
L 8.5 54.6875 
L 17.484375 54.6875 
L 17.484375 21.921875 
Q 17.484375 14.15625 20.5 10.265625 
Q 23.53125 6.390625 29.59375 6.390625 
Q 36.859375 6.390625 41.078125 11.03125 
Q 45.3125 15.671875 45.3125 23.6875 
L 45.3125 54.6875 
L 54.296875 54.6875 
L 54.296875 0 
L 45.3125 0 
L 45.3125 8.40625 
Q 42.046875 3.421875 37.71875 1 
Q 33.40625 -1.421875 27.6875 -1.421875 
Q 18.265625 -1.421875 13.375 4.4375 
Q 8.5 10.296875 8.5 21.578125 
z
M 31.109375 56 
z
" id="DejaVuSans-117"/>
      <path d="M 56.203125 29.59375 
L 56.203125 25.203125 
L 14.890625 25.203125 
Q 15.484375 15.921875 20.484375 11.0625 
Q 25.484375 6.203125 34.421875 6.203125 
Q 39.59375 6.203125 44.453125 7.46875 
Q 49.3125 8.734375 54.109375 11.28125 
L 54.109375 2.78125 
Q 49.265625 0.734375 44.1875 -0.34375 
Q 39.109375 -1.421875 33.890625 -1.421875 
Q 20.796875 -1.421875 13.15625 6.1875 
Q 5.515625 13.8125 5.515625 26.8125 
Q 5.515625 40.234375 12.765625 48.109375 
Q 20.015625 56 32.328125 56 
Q 43.359375 56 49.78125 48.890625 
Q 56.203125 41.796875 56.203125 29.59375 
z
M 47.21875 32.234375 
Q 47.125 39.59375 43.09375 43.984375 
Q 39.0625 48.390625 32.421875 48.390625 
Q 24.90625 48.390625 20.390625 44.140625 
Q 15.875 39.890625 15.1875 32.171875 
z
" id="DejaVuSans-101"/>
     </defs>
     <g transform="translate(170.3075 350.512187)scale(0.28 -0.28)">
      <use xlink:href="#DejaVuSans-45"/>
      <use x="36.083984" xlink:href="#DejaVuSans-108"/>
      <use x="63.867188" xlink:href="#DejaVuSans-111"/>
      <use x="125.048828" xlink:href="#DejaVuSans-103"/>
      <use x="188.525391" xlink:href="#DejaVuSans-49"/>
      <use x="252.148438" xlink:href="#DejaVuSans-48"/>
      <use x="315.771484" xlink:href="#DejaVuSans-32"/>
      <use x="347.558594" xlink:href="#DejaVuSans-112"/>
      <use x="411.035156" xlink:href="#DejaVuSans-45"/>
      <use x="447.087891" xlink:href="#DejaVuSans-118"/>
      <use x="506.267578" xlink:href="#DejaVuSans-97"/>
      <use x="567.546875" xlink:href="#DejaVuSans-108"/>
      <use x="595.330078" xlink:href="#DejaVuSans-117"/>
      <use x="658.708984" xlink:href="#DejaVuSans-101"/>
     </g>
    </g>
   </g>
   <g id="matplotlib.axis_2">
    <g id="ytick_1">
     <g id="line2d_6">
      <defs>
       <path d="M 0 0 
L -5 0 
" id="m07613e0671" style="stroke:#000000;stroke-width:0.8;"/>
      </defs>
      <g>
       <use style="stroke:#000000;stroke-width:0.8;" x="109.1425" xlink:href="#m07613e0671" y="289.637812"/>
      </g>
     </g>
     <g id="text_7">
      <!-- 0.00 -->
      <defs>
       <path d="M 10.6875 12.40625 
L 21 12.40625 
L 21 0 
L 10.6875 0 
z
" id="DejaVuSans-46"/>
      </defs>
      <g transform="translate(38.29875 300.275625)scale(0.28 -0.28)">
       <use xlink:href="#DejaVuSans-48"/>
       <use x="63.623047" xlink:href="#DejaVuSans-46"/>
       <use x="95.410156" xlink:href="#DejaVuSans-48"/>
       <use x="159.033203" xlink:href="#DejaVuSans-48"/>
      </g>
     </g>
    </g>
    <g id="ytick_2">
     <g id="line2d_7">
      <g>
       <use style="stroke:#000000;stroke-width:0.8;" x="109.1425" xlink:href="#m07613e0671" y="221.687813"/>
      </g>
     </g>
     <g id="text_8">
      <!-- 0.25 -->
      <g transform="translate(38.29875 232.325625)scale(0.28 -0.28)">
       <use xlink:href="#DejaVuSans-48"/>
       <use x="63.623047" xlink:href="#DejaVuSans-46"/>
       <use x="95.410156" xlink:href="#DejaVuSans-50"/>
       <use x="159.033203" xlink:href="#DejaVuSans-53"/>
      </g>
     </g>
    </g>
    <g id="ytick_3">
     <g id="line2d_8">
      <g>
       <use style="stroke:#000000;stroke-width:0.8;" x="109.1425" xlink:href="#m07613e0671" y="153.737813"/>
      </g>
     </g>
     <g id="text_9">
      <!-- 0.50 -->
      <g transform="translate(38.29875 164.375625)scale(0.28 -0.28)">
       <use xlink:href="#DejaVuSans-48"/>
       <use x="63.623047" xlink:href="#DejaVuSans-46"/>
       <use x="95.410156" xlink:href="#DejaVuSans-53"/>
       <use x="159.033203" xlink:href="#DejaVuSans-48"/>
      </g>
     </g>
    </g>
    <g id="ytick_4">
     <g id="line2d_9">
      <g>
       <use style="stroke:#000000;stroke-width:0.8;" x="109.1425" xlink:href="#m07613e0671" y="85.787813"/>
      </g>
     </g>
     <g id="text_10">
      <!-- 0.75 -->
      <defs>
       <path d="M 8.203125 72.90625 
L 55.078125 72.90625 
L 55.078125 68.703125 
L 28.609375 0 
L 18.3125 0 
L 43.21875 64.59375 
L 8.203125 64.59375 
z
" id="DejaVuSans-55"/>
      </defs>
      <g transform="translate(38.29875 96.425625)scale(0.28 -0.28)">
       <use xlink:href="#DejaVuSans-48"/>
       <use x="63.623047" xlink:href="#DejaVuSans-46"/>
       <use x="95.410156" xlink:href="#DejaVuSans-55"/>
       <use x="159.033203" xlink:href="#DejaVuSans-53"/>
      </g>
     </g>
    </g>
    <g id="ytick_5">
     <g id="line2d_10">
      <g>
       <use style="stroke:#000000;stroke-width:0.8;" x="109.1425" xlink:href="#m07613e0671" y="17.837813"/>
      </g>
     </g>
     <g id="text_11">
      <!-- 1.00 -->
      <g transform="translate(38.29875 28.475625)scale(0.28 -0.28)">
       <use xlink:href="#DejaVuSans-49"/>
       <use x="63.623047" xlink:href="#DejaVuSans-46"/>
       <use x="95.410156" xlink:href="#DejaVuSans-48"/>
       <use x="159.033203" xlink:href="#DejaVuSans-48"/>
      </g>
     </g>
    </g>
    <g id="text_12">
     <!-- Specificity -->
     <defs>
      <path d="M 53.515625 70.515625 
L 53.515625 60.890625 
Q 47.90625 63.578125 42.921875 64.890625 
Q 37.9375 66.21875 33.296875 66.21875 
Q 25.25 66.21875 20.875 63.09375 
Q 16.5 59.96875 16.5 54.203125 
Q 16.5 49.359375 19.40625 46.890625 
Q 22.3125 44.4375 30.421875 42.921875 
L 36.375 41.703125 
Q 47.40625 39.59375 52.65625 34.296875 
Q 57.90625 29 57.90625 20.125 
Q 57.90625 9.515625 50.796875 4.046875 
Q 43.703125 -1.421875 29.984375 -1.421875 
Q 24.8125 -1.421875 18.96875 -0.25 
Q 13.140625 0.921875 6.890625 3.21875 
L 6.890625 13.375 
Q 12.890625 10.015625 18.65625 8.296875 
Q 24.421875 6.59375 29.984375 6.59375 
Q 38.421875 6.59375 43.015625 9.90625 
Q 47.609375 13.234375 47.609375 19.390625 
Q 47.609375 24.75 44.3125 27.78125 
Q 41.015625 30.8125 33.5 32.328125 
L 27.484375 33.5 
Q 16.453125 35.6875 11.515625 40.375 
Q 6.59375 45.0625 6.59375 53.421875 
Q 6.59375 63.09375 13.40625 68.65625 
Q 20.21875 74.21875 32.171875 74.21875 
Q 37.3125 74.21875 42.625 73.28125 
Q 47.953125 72.359375 53.515625 70.515625 
z
" id="DejaVuSans-83"/>
      <path d="M 48.78125 52.59375 
L 48.78125 44.1875 
Q 44.96875 46.296875 41.140625 47.34375 
Q 37.3125 48.390625 33.40625 48.390625 
Q 24.65625 48.390625 19.8125 42.84375 
Q 14.984375 37.3125 14.984375 27.296875 
Q 14.984375 17.28125 19.8125 11.734375 
Q 24.65625 6.203125 33.40625 6.203125 
Q 37.3125 6.203125 41.140625 7.25 
Q 44.96875 8.296875 48.78125 10.40625 
L 48.78125 2.09375 
Q 45.015625 0.34375 40.984375 -0.53125 
Q 36.96875 -1.421875 32.421875 -1.421875 
Q 20.0625 -1.421875 12.78125 6.34375 
Q 5.515625 14.109375 5.515625 27.296875 
Q 5.515625 40.671875 12.859375 48.328125 
Q 20.21875 56 33.015625 56 
Q 37.15625 56 41.109375 55.140625 
Q 45.0625 54.296875 48.78125 52.59375 
z
" id="DejaVuSans-99"/>
      <path d="M 9.421875 54.6875 
L 18.40625 54.6875 
L 18.40625 0 
L 9.421875 0 
z
M 9.421875 75.984375 
L 18.40625 75.984375 
L 18.40625 64.59375 
L 9.421875 64.59375 
z
" id="DejaVuSans-105"/>
      <path d="M 37.109375 75.984375 
L 37.109375 68.5 
L 28.515625 68.5 
Q 23.6875 68.5 21.796875 66.546875 
Q 19.921875 64.59375 19.921875 59.515625 
L 19.921875 54.6875 
L 34.71875 54.6875 
L 34.71875 47.703125 
L 19.921875 47.703125 
L 19.921875 0 
L 10.890625 0 
L 10.890625 47.703125 
L 2.296875 47.703125 
L 2.296875 54.6875 
L 10.890625 54.6875 
L 10.890625 58.5 
Q 10.890625 67.625 15.140625 71.796875 
Q 19.390625 75.984375 28.609375 75.984375 
z
" id="DejaVuSans-102"/>
      <path d="M 18.3125 70.21875 
L 18.3125 54.6875 
L 36.8125 54.6875 
L 36.8125 47.703125 
L 18.3125 47.703125 
L 18.3125 18.015625 
Q 18.3125 11.328125 20.140625 9.421875 
Q 21.96875 7.515625 27.59375 7.515625 
L 36.8125 7.515625 
L 36.8125 0 
L 27.59375 0 
Q 17.1875 0 13.234375 3.875 
Q 9.28125 7.765625 9.28125 18.015625 
L 9.28125 47.703125 
L 2.6875 47.703125 
L 2.6875 54.6875 
L 9.28125 54.6875 
L 9.28125 70.21875 
z
" id="DejaVuSans-116"/>
      <path d="M 32.171875 -5.078125 
Q 28.375 -14.84375 24.75 -17.8125 
Q 21.140625 -20.796875 15.09375 -20.796875 
L 7.90625 -20.796875 
L 7.90625 -13.28125 
L 13.1875 -13.28125 
Q 16.890625 -13.28125 18.9375 -11.515625 
Q 21 -9.765625 23.484375 -3.21875 
L 25.09375 0.875 
L 2.984375 54.6875 
L 12.5 54.6875 
L 29.59375 11.921875 
L 46.6875 54.6875 
L 56.203125 54.6875 
z
" id="DejaVuSans-121"/>
     </defs>
     <g transform="translate(28.475625 225.894688)rotate(-90)scale(0.28 -0.28)">
      <use xlink:href="#DejaVuSans-83"/>
      <use x="63.476562" xlink:href="#DejaVuSans-112"/>
      <use x="126.953125" xlink:href="#DejaVuSans-101"/>
      <use x="188.476562" xlink:href="#DejaVuSans-99"/>
      <use x="243.457031" xlink:href="#DejaVuSans-105"/>
      <use x="271.240234" xlink:href="#DejaVuSans-102"/>
      <use x="306.445312" xlink:href="#DejaVuSans-105"/>
      <use x="334.228516" xlink:href="#DejaVuSans-99"/>
      <use x="389.208984" xlink:href="#DejaVuSans-105"/>
      <use x="416.992188" xlink:href="#DejaVuSans-116"/>
      <use x="456.201172" xlink:href="#DejaVuSans-121"/>
     </g>
    </g>
   </g>
   <g id="line2d_11">
    <path clip-path="url(#pfd9d9a025b)" d="M 123.869773 28.411268 
L 125.3425 28.315364 
L 126.815227 28.174725 
L 127.183409 28.758348 
L 128.287955 28.661706 
L 128.656136 28.637813 
L 129.024318 29.138031 
L 131.969773 28.825472 
L 133.074318 28.778914 
L 133.4425 29.282023 
L 134.178864 29.234039 
L 134.547045 29.729063 
L 135.283409 29.630788 
L 137.4925 29.534124 
L 138.228864 29.439032 
L 138.965227 29.368722 
L 140.437955 29.345474 
L 140.806136 29.869201 
L 143.015227 29.702098 
L 143.383409 30.216822 
L 144.119773 30.119541 
L 145.224318 30.071472 
L 146.697045 30.000069 
L 147.433409 29.929495 
L 150.747045 29.790776 
L 151.115227 30.78067 
L 156.269773 30.491444 
L 157.006136 31.402692 
L 158.478864 31.327886 
L 158.847045 31.776274 
L 159.583409 31.725404 
L 159.951591 32.169085 
L 164.737955 31.763961 
L 165.106136 32.168217 
L 165.8425 32.118023 
L 166.210682 32.516907 
L 167.683409 32.415321 
L 172.469773 32.315132 
L 175.415227 32.167404 
L 175.783409 32.579507 
L 177.256136 32.529704 
L 177.624318 32.963276 
L 178.360682 32.861933 
L 180.569773 32.761939 
L 182.778864 32.712439 
L 187.197045 32.614419 
L 189.774318 32.541747 
L 191.247045 32.469786 
L 192.719773 32.351405 
L 194.560682 32.25807 
L 201.556136 31.918503 
L 205.237955 31.808841 
L 207.815227 31.700873 
L 208.183409 32.055043 
L 210.760682 32.011432 
L 212.233409 32.011432 
L 212.601591 32.40596 
L 216.283409 32.273321 
L 222.174318 32.16462 
L 222.5425 32.143076 
L 222.910682 32.529704 
L 224.015227 32.507678 
L 224.383409 32.870099 
L 227.328864 32.802991 
L 228.065227 33.565112 
L 230.6425 33.49542 
L 236.901591 33.403451 
L 240.215227 33.289999 
L 244.265227 33.200421 
L 246.474318 33.178189 
L 252.733409 33.133916 
L 253.101591 33.480978 
L 256.415227 33.369241 
L 259.728864 33.324992 
L 260.097045 33.689591 
L 263.410682 33.599906 
L 264.515227 33.555443 
L 264.883409 33.555443 
L 265.251591 33.916122 
L 265.987955 33.916122 
L 266.356136 34.275787 
L 271.1425 34.183826 
L 272.247045 34.115528 
L 276.665227 34.025347 
L 277.033409 34.002958 
L 277.401591 34.333261 
L 280.715227 34.333261 
L 281.083409 34.68492 
L 287.3425 34.592607 
L 289.551591 34.546829 
L 296.915227 34.456019 
L 300.597045 34.32164 
L 303.5425 34.211306 
L 303.910682 34.167586 
L 304.278864 34.508213 
L 309.065227 34.463876 
L 309.801591 35.14073 
L 312.010682 35.094955 
L 320.110682 35.026745 
L 321.215227 34.981571 
L 329.683409 34.89193 
L 331.524318 34.869666 
L 335.206136 34.825313 
L 335.574318 35.156668 
L 344.0425 35.067049 
L 346.251591 35.000441 
L 346.619773 35.32816 
L 356.928864 35.238581 
L 359.137955 35.216329 
L 367.974318 35.105919 
L 370.183409 35.084005 
L 380.124318 35.040344 
L 380.4925 35.362212 
L 403.319773 35.274039 
L 404.424318 35.230284 
L 418.415227 35.121852 
L 418.415227 35.121852 
" style="fill:none;stroke:#8b0000;stroke-linecap:square;stroke-width:2;"/>
   </g>
   <g id="line2d_12">
    <path clip-path="url(#pfd9d9a025b)" d="M 123.869773 58.26573 
L 124.237955 58.26573 
L 124.606136 57.990085 
L 125.3425 57.899037 
L 125.710682 57.808401 
L 126.078864 58.240515 
L 126.815227 57.969356 
L 127.183409 58.486473 
L 127.551591 58.486473 
L 127.919773 58.818744 
L 128.656136 58.637813 
L 129.024318 58.875449 
L 129.760682 58.519374 
L 130.128864 60.32475 
L 130.865227 60.233966 
L 131.969773 60.053557 
L 132.706136 59.963927 
L 133.074318 59.874677 
L 133.4425 61.325813 
L 133.810682 61.80546 
L 134.178864 61.713284 
L 134.547045 62.005313 
L 134.915227 62.856446 
L 136.019773 62.578553 
L 136.387955 63.044794 
L 137.4925 62.952157 
L 137.860682 62.585373 
L 138.228864 62.585373 
L 138.597045 62.314176 
L 140.437955 62.224506 
L 140.806136 62.682078 
L 141.174318 62.592029 
L 141.5425 63.047031 
L 142.278864 62.956613 
L 143.015227 62.598527 
L 143.383409 63.04811 
L 143.751591 63.04811 
L 144.119773 63.226811 
L 144.487955 64.112959 
L 145.960682 64.112959 
L 146.328864 64.371665 
L 146.697045 64.371665 
L 147.065227 64.101642 
L 147.801591 64.01233 
L 148.906136 63.834736 
L 149.6425 63.74645 
L 150.010682 64.179192 
L 150.747045 64.090585 
L 151.115227 64.949813 
L 154.428864 64.242691 
L 155.165227 64.15579 
L 156.269773 63.89703 
L 156.637955 64.316623 
L 157.006136 64.561288 
L 158.478864 64.303621 
L 158.847045 65.129021 
L 161.056136 64.614986 
L 161.424318 64.851867 
L 161.7925 64.851867 
L 162.160682 65.0862 
L 164.737955 64.418378 
L 165.106136 65.128146 
L 165.8425 64.962506 
L 166.210682 65.189729 
L 166.578864 65.025313 
L 167.315227 64.943532 
L 168.051591 64.862034 
L 170.260682 64.780818 
L 170.628864 64.619224 
L 172.469773 64.538843 
L 172.837955 64.924948 
L 173.206136 64.763966 
L 174.678864 64.683888 
L 175.047045 64.524547 
L 175.415227 64.524547 
L 175.783409 64.826965 
L 176.887955 64.747457 
L 177.256136 64.668218 
L 177.624318 65.047593 
L 177.9925 65.722041 
L 178.728864 65.641833 
L 179.097045 66.016408 
L 179.833409 65.935976 
L 180.201591 65.935976 
L 180.937955 65.696284 
L 183.147045 65.616917 
L 183.883409 65.537813 
L 184.987955 65.537813 
L 185.356136 65.908226 
L 186.460682 65.908226 
L 187.197045 66.645391 
L 187.565227 66.565115 
L 187.933409 66.850927 
L 190.878864 66.850927 
L 191.247045 67.054452 
L 191.615227 67.7783 
L 191.983409 67.7783 
L 192.719773 67.535871 
L 193.087955 67.535871 
L 193.824318 67.216269 
L 194.928864 67.13701 
L 196.033409 66.979253 
L 196.401591 67.334937 
L 197.874318 67.098862 
L 198.610682 67.567781 
L 199.347045 67.489466 
L 200.819773 67.411397 
L 201.556136 67.333574 
L 203.765227 67.255994 
L 204.133409 67.60401 
L 206.3425 67.217626 
L 207.078864 67.141068 
L 207.447045 67.408755 
L 207.815227 67.408755 
L 208.183409 67.59812 
L 208.919773 67.521683 
L 212.233409 67.445481 
L 212.601591 67.785745 
L 214.810682 67.406202 
L 215.178864 67.406202 
L 215.547045 67.743427 
L 219.597045 67.667813 
L 220.701591 67.517269 
L 221.437955 67.442337 
L 221.806136 67.776969 
L 222.5425 67.701873 
L 222.910682 68.03511 
L 224.015227 67.959851 
L 224.383409 68.216288 
L 226.224318 68.141096 
L 227.328864 67.991384 
L 228.065227 68.649088 
L 228.801591 68.573813 
L 230.274318 68.498759 
L 231.010682 68.423928 
L 233.956136 68.349317 
L 235.060682 68.200754 
L 235.428864 68.200754 
L 235.797045 68.525918 
L 237.637955 68.451595 
L 238.006136 68.70097 
L 239.478864 68.626718 
L 240.215227 68.552681 
L 241.687955 68.478861 
L 242.424318 68.405254 
L 243.160682 68.331862 
L 243.897045 68.258682 
L 247.947045 68.185714 
L 248.683409 68.112957 
L 252.733409 68.04041 
L 253.101591 68.287021 
L 253.469773 68.214537 
L 253.837955 68.459589 
L 254.9425 68.387169 
L 255.678864 68.314955 
L 258.256136 68.242948 
L 258.624318 68.558325 
L 259.728864 68.558325 
L 260.097045 68.872805 
L 262.674318 68.800313 
L 263.410682 68.584064 
L 263.778864 68.440915 
L 264.883409 68.440915 
L 265.251591 68.75246 
L 265.987955 68.75246 
L 266.356136 69.063129 
L 268.565227 69.063129 
L 269.301591 69.681852 
L 270.774318 69.681852 
L 271.510682 70.150783 
L 273.719773 70.077924 
L 274.087955 69.932813 
L 276.297045 69.860559 
L 277.033409 69.716651 
L 277.401591 69.948433 
L 280.715227 69.948433 
L 281.083409 70.251036 
L 282.924318 70.17894 
L 283.660682 70.107043 
L 285.869773 70.107043 
L 286.237955 69.96384 
L 287.3425 69.96384 
L 287.710682 70.264351 
L 288.447045 70.264351 
L 288.815227 70.564042 
L 293.601591 70.49211 
L 294.706136 70.348833 
L 296.915227 70.277486 
L 297.651591 70.206334 
L 298.387955 70.206334 
L 298.756136 70.4324 
L 299.124318 70.4324 
L 299.4925 70.657246 
L 300.965227 70.58606 
L 301.701591 70.373651 
L 302.069773 70.667571 
L 302.437955 70.667571 
L 302.806136 70.960704 
L 303.5425 70.960704 
L 303.910682 70.818854 
L 304.278864 71.110613 
L 308.697045 71.039677 
L 309.065227 70.96893 
L 309.801591 71.548953 
L 310.906136 71.40686 
L 313.483409 71.40686 
L 313.851591 71.624092 
L 320.110682 71.553228 
L 320.478864 71.412057 
L 323.056136 71.34175 
L 323.424318 71.627852 
L 326.001591 71.557446 
L 326.369773 71.842518 
L 329.683409 71.842518 
L 330.051591 72.126846 
L 332.628864 72.126846 
L 332.997045 71.985469 
L 335.206136 71.985469 
L 335.574318 72.268502 
L 338.519773 72.197813 
L 339.624318 72.056983 
L 344.0425 71.986842 
L 344.778864 71.916882 
L 345.883409 71.847103 
L 346.251591 71.777503 
L 346.619773 72.05789 
L 348.828864 72.05789 
L 349.197045 72.337555 
L 352.1425 72.267594 
L 352.878864 72.197813 
L 355.824318 72.197813 
L 356.1925 72.476225 
L 359.506136 72.406355 
L 360.610682 72.267149 
L 363.187955 72.267149 
L 363.556136 72.544055 
L 366.869773 72.474454 
L 367.606136 72.40503 
L 375.706136 72.335782 
L 376.4425 72.26671 
L 380.124318 72.197813 
L 380.4925 72.472705 
L 390.065227 72.403722 
L 390.801591 72.334912 
L 393.010682 72.266276 
L 393.747045 72.197813 
L 403.319773 72.197813 
L 403.687955 72.061401 
L 412.524318 71.993452 
L 412.8925 71.858063 
L 415.101591 71.858063 
L 415.469773 72.062251 
L 418.415227 72.062251 
L 418.415227 72.062251 
" style="fill:none;stroke:#000080;stroke-linecap:square;stroke-width:2;"/>
   </g>
   <g id="patch_3">
    <path d="M 109.1425 289.637812 
L 109.1425 17.837813 
" style="fill:none;stroke:#000000;stroke-linecap:square;stroke-linejoin:miter;"/>
   </g>
   <g id="patch_4">
    <path d="M 109.1425 289.637812 
L 433.1425 289.637812 
" style="fill:none;stroke:#000000;stroke-linecap:square;stroke-linejoin:miter;"/>
   </g>
  </g>
  <g id="axes_2">
   <g id="patch_5">
    <path d="M 449.3425 289.637812 
L 773.3425 289.637812 
L 773.3425 17.837813 
L 449.3425 17.837813 
z
" style="fill:none;"/>
   </g>
   <g id="matplotlib.axis_3">
    <g id="xtick_6">
     <g id="line2d_13">
      <g>
       <use style="stroke:#000000;stroke-width:0.8;" x="464.069773" xlink:href="#m7de4277f51" y="289.637812"/>
      </g>
     </g>
     <g id="text_13">
      <!-- 1 -->
      <g transform="translate(455.162273 319.413437)scale(0.28 -0.28)">
       <use xlink:href="#DejaVuSans-49"/>
      </g>
     </g>
    </g>
    <g id="xtick_7">
     <g id="line2d_14">
      <g>
       <use style="stroke:#000000;stroke-width:0.8;" x="537.706136" xlink:href="#m7de4277f51" y="289.637812"/>
      </g>
     </g>
     <g id="text_14">
      <!-- 2 -->
      <g transform="translate(528.798636 319.413437)scale(0.28 -0.28)">
       <use xlink:href="#DejaVuSans-50"/>
      </g>
     </g>
    </g>
    <g id="xtick_8">
     <g id="line2d_15">
      <g>
       <use style="stroke:#000000;stroke-width:0.8;" x="611.3425" xlink:href="#m7de4277f51" y="289.637812"/>
      </g>
     </g>
     <g id="text_15">
      <!-- 3 -->
      <g transform="translate(602.435 319.413437)scale(0.28 -0.28)">
       <use xlink:href="#DejaVuSans-51"/>
      </g>
     </g>
    </g>
    <g id="xtick_9">
     <g id="line2d_16">
      <g>
       <use style="stroke:#000000;stroke-width:0.8;" x="684.978864" xlink:href="#m7de4277f51" y="289.637812"/>
      </g>
     </g>
     <g id="text_16">
      <!-- 4 -->
      <g transform="translate(676.071364 319.413437)scale(0.28 -0.28)">
       <use xlink:href="#DejaVuSans-52"/>
      </g>
     </g>
    </g>
    <g id="xtick_10">
     <g id="line2d_17">
      <g>
       <use style="stroke:#000000;stroke-width:0.8;" x="758.615227" xlink:href="#m7de4277f51" y="289.637812"/>
      </g>
     </g>
     <g id="text_17">
      <!-- 5 -->
      <g transform="translate(749.707727 319.413437)scale(0.28 -0.28)">
       <use xlink:href="#DejaVuSans-53"/>
      </g>
     </g>
    </g>
    <g id="text_18">
     <!-- -log10 p-value -->
     <g transform="translate(510.5075 350.512187)scale(0.28 -0.28)">
      <use xlink:href="#DejaVuSans-45"/>
      <use x="36.083984" xlink:href="#DejaVuSans-108"/>
      <use x="63.867188" xlink:href="#DejaVuSans-111"/>
      <use x="125.048828" xlink:href="#DejaVuSans-103"/>
      <use x="188.525391" xlink:href="#DejaVuSans-49"/>
      <use x="252.148438" xlink:href="#DejaVuSans-48"/>
      <use x="315.771484" xlink:href="#DejaVuSans-32"/>
      <use x="347.558594" xlink:href="#DejaVuSans-112"/>
      <use x="411.035156" xlink:href="#DejaVuSans-45"/>
      <use x="447.087891" xlink:href="#DejaVuSans-118"/>
      <use x="506.267578" xlink:href="#DejaVuSans-97"/>
      <use x="567.546875" xlink:href="#DejaVuSans-108"/>
      <use x="595.330078" xlink:href="#DejaVuSans-117"/>
      <use x="658.708984" xlink:href="#DejaVuSans-101"/>
     </g>
    </g>
   </g>
   <g id="matplotlib.axis_4">
    <g id="ytick_6"/>
    <g id="ytick_7"/>
    <g id="ytick_8"/>
    <g id="ytick_9"/>
    <g id="ytick_10"/>
   </g>
   <g id="line2d_18">
    <path clip-path="url(#pac491d129f)" d="M 464.069773 116.917615 
L 465.174318 116.917615 
L 465.5425 117.341989 
L 466.647045 117.341989 
L 467.015227 117.098107 
L 467.383409 117.098107 
L 467.751591 117.519964 
L 468.119773 117.519964 
L 468.487955 117.696207 
L 469.224318 117.696207 
L 469.5925 117.453832 
L 469.960682 117.453832 
L 470.328864 117.870742 
L 471.433409 117.870742 
L 472.169773 117.388656 
L 472.537955 117.388656 
L 472.906136 117.802716 
L 473.6425 117.802716 
L 474.747045 117.086977 
L 475.483409 117.086977 
L 475.851591 117.497813 
L 476.219773 117.669566 
L 478.797045 117.669566 
L 479.901591 116.964871 
L 480.269773 116.964871 
L 481.006136 116.500576 
L 481.374318 116.500576 
L 481.7425 116.270055 
L 482.478864 116.270055 
L 482.847045 115.812231 
L 483.583409 115.812231 
L 483.951591 116.215539 
L 484.319773 116.215539 
L 485.056136 117.016565 
L 485.424318 117.016565 
L 485.7925 117.41431 
L 486.160682 117.41431 
L 486.528864 117.810226 
L 487.265227 117.810226 
L 487.633409 118.204326 
L 489.8425 118.204326 
L 490.210682 118.987128 
L 491.683409 118.987128 
L 492.051591 118.756719 
L 492.419773 118.915364 
L 492.787955 119.301613 
L 493.156136 119.301613 
L 493.524318 118.844569 
L 494.997045 118.844569 
L 495.365227 119.228374 
L 500.519773 119.228374 
L 500.887955 119.001041 
L 501.256136 119.001041 
L 501.624318 119.382779 
L 501.9925 119.156116 
L 503.833409 119.156116 
L 504.201591 118.930463 
L 504.569773 118.930463 
L 504.937955 119.309813 
L 505.306136 119.309813 
L 505.674318 119.68748 
L 506.778864 119.68748 
L 507.147045 120.063476 
L 508.619773 120.063476 
L 508.987955 120.437813 
L 510.0925 120.437813 
L 510.460682 120.8105 
L 512.301591 120.8105 
L 512.669773 120.954918 
L 513.037955 121.324027 
L 514.878864 121.324027 
L 515.247045 121.098075 
L 522.2425 121.098075 
L 522.610682 121.465263 
L 522.978864 121.465263 
L 523.347045 121.605275 
L 524.451591 121.605275 
L 524.819773 121.968981 
L 525.556136 121.968981 
L 525.924318 121.744076 
L 526.2925 121.744076 
L 526.660682 122.105916 
L 527.397045 122.105916 
L 527.765227 121.881683 
L 529.237955 121.881683 
L 529.606136 121.658413 
L 531.815227 121.658413 
L 532.183409 121.436099 
L 532.551591 121.436099 
L 532.919773 121.795505 
L 534.760682 121.710424 
L 535.128864 122.066202 
L 535.497045 122.066202 
L 535.865227 122.420476 
L 540.651591 122.420476 
L 541.387955 123.124549 
L 542.4925 123.124549 
L 542.860682 123.474367 
L 550.5925 123.474367 
L 550.960682 123.822718 
L 557.587955 123.822718 
L 557.956136 124.169612 
L 570.474318 124.169612 
L 570.8425 124.515057 
L 585.937955 124.515057 
L 586.306136 124.292813 
L 607.2925 124.292813 
L 607.660682 124.071492 
L 614.287955 124.071492 
L 614.656136 124.414991 
L 637.851591 124.414991 
L 638.219773 124.194334 
L 645.951591 124.194334 
L 646.319773 123.974589 
L 650.369773 123.974589 
L 651.106136 124.656331 
L 662.151591 124.656331 
L 662.519773 124.995102 
L 669.883409 124.995102 
L 670.251591 124.775517 
L 670.987955 124.775517 
L 671.356136 125.112659 
L 689.397045 125.112659 
L 689.765227 124.893731 
L 690.133409 125.229259 
L 706.333409 125.229259 
L 706.701591 125.010983 
L 708.174318 125.010983 
L 708.5425 125.344912 
L 720.324318 125.344912 
L 720.6925 125.127286 
L 723.269773 125.127286 
L 723.637955 125.459631 
L 724.374318 125.459631 
L 724.7425 125.242651 
L 733.210682 125.242651 
L 733.578864 125.026545 
L 745.360682 125.026545 
L 745.728864 125.686309 
L 758.615227 125.686309 
L 758.615227 125.686309 
" style="fill:none;stroke:#8b0000;stroke-linecap:square;stroke-width:2;"/>
   </g>
   <g id="line2d_19">
    <path clip-path="url(#pac491d129f)" d="M 464.069773 47.963428 
L 465.174318 47.963428 
L 465.5425 48.557223 
L 467.383409 48.48193 
L 468.856136 48.25825 
L 469.960682 48.184414 
L 470.697045 48.110936 
L 471.801591 48.037813 
L 472.906136 47.89262 
L 474.010682 47.820546 
L 475.115227 47.677431 
L 475.483409 47.677431 
L 476.219773 48.753452 
L 479.165227 48.680366 
L 481.006136 48.391442 
L 482.478864 48.320055 
L 482.847045 48.178278 
L 484.319773 48.107882 
L 485.424318 47.968067 
L 485.7925 48.524909 
L 487.265227 48.454364 
L 488.001591 48.384143 
L 489.8425 48.384143 
L 490.210682 48.244662 
L 492.051591 48.175398 
L 492.419773 48.654139 
L 493.8925 48.445921 
L 500.519773 48.377138 
L 501.9925 48.172634 
L 504.569773 48.105073 
L 505.674318 47.97085 
L 508.619773 47.904184 
L 509.356136 47.837813 
L 510.0925 47.837813 
L 510.460682 48.370412 
L 512.301591 48.370412 
L 513.037955 48.169979 
L 522.2425 48.103751 
L 523.715227 47.906793 
L 525.556136 47.841709 
L 526.2925 47.776905 
L 526.660682 48.298157 
L 529.237955 48.232651 
L 529.974318 48.167426 
L 532.551591 48.102481 
L 532.919773 48.618582 
L 534.024318 48.618582 
L 534.3925 48.422526 
L 535.497045 48.357728 
L 536.233409 48.293204 
L 541.019773 48.228952 
L 541.756136 48.16497 
L 550.5925 48.101258 
L 550.960682 48.607624 
L 557.587955 48.607624 
L 557.956136 49.111871 
L 585.937955 49.046581 
L 586.674318 48.981563 
L 614.287955 48.916815 
L 614.656136 49.416236 
L 645.951591 49.350856 
L 646.687955 49.285746 
L 650.369773 49.285746 
L 650.737955 49.781318 
L 651.474318 49.71559 
L 662.151591 49.71559 
L 662.519773 50.208244 
L 670.987955 50.141911 
L 671.356136 50.631678 
L 689.765227 50.564751 
L 690.133409 51.051662 
L 708.174318 50.984154 
L 708.5425 51.468238 
L 723.269773 51.400161 
L 724.006136 51.332358 
L 733.210682 51.264829 
L 733.947045 51.197571 
L 745.360682 51.197571 
L 745.728864 51.608554 
L 758.615227 51.608554 
L 758.615227 51.608554 
" style="fill:none;stroke:#000080;stroke-linecap:square;stroke-width:2;"/>
   </g>
   <g id="patch_6">
    <path d="M 449.3425 289.637812 
L 449.3425 17.837813 
" style="fill:none;stroke:#000000;stroke-linecap:square;stroke-linejoin:miter;"/>
   </g>
   <g id="patch_7">
    <path d="M 449.3425 289.637812 
L 773.3425 289.637812 
" style="fill:none;stroke:#000000;stroke-linecap:square;stroke-linejoin:miter;"/>
   </g>
  </g>
  <g id="axes_3">
   <g id="patch_8">
    <path d="M 789.5425 289.637812 
L 1113.5425 289.637812 
L 1113.5425 17.837813 
L 789.5425 17.837813 
z
" style="fill:none;"/>
   </g>
   <g id="matplotlib.axis_5">
    <g id="xtick_11">
     <g id="line2d_20">
      <g>
       <use style="stroke:#000000;stroke-width:0.8;" x="804.269773" xlink:href="#m7de4277f51" y="289.637812"/>
      </g>
     </g>
     <g id="text_19">
      <!-- 1 -->
      <g transform="translate(795.362273 319.413437)scale(0.28 -0.28)">
       <use xlink:href="#DejaVuSans-49"/>
      </g>
     </g>
    </g>
    <g id="xtick_12">
     <g id="line2d_21">
      <g>
       <use style="stroke:#000000;stroke-width:0.8;" x="877.906136" xlink:href="#m7de4277f51" y="289.637812"/>
      </g>
     </g>
     <g id="text_20">
      <!-- 2 -->
      <g transform="translate(868.998636 319.413437)scale(0.28 -0.28)">
       <use xlink:href="#DejaVuSans-50"/>
      </g>
     </g>
    </g>
    <g id="xtick_13">
     <g id="line2d_22">
      <g>
       <use style="stroke:#000000;stroke-width:0.8;" x="951.5425" xlink:href="#m7de4277f51" y="289.637812"/>
      </g>
     </g>
     <g id="text_21">
      <!-- 3 -->
      <g transform="translate(942.635 319.413437)scale(0.28 -0.28)">
       <use xlink:href="#DejaVuSans-51"/>
      </g>
     </g>
    </g>
    <g id="xtick_14">
     <g id="line2d_23">
      <g>
       <use style="stroke:#000000;stroke-width:0.8;" x="1025.178864" xlink:href="#m7de4277f51" y="289.637812"/>
      </g>
     </g>
     <g id="text_22">
      <!-- 4 -->
      <g transform="translate(1016.271364 319.413437)scale(0.28 -0.28)">
       <use xlink:href="#DejaVuSans-52"/>
      </g>
     </g>
    </g>
    <g id="xtick_15">
     <g id="line2d_24">
      <g>
       <use style="stroke:#000000;stroke-width:0.8;" x="1098.815227" xlink:href="#m7de4277f51" y="289.637812"/>
      </g>
     </g>
     <g id="text_23">
      <!-- 5 -->
      <g transform="translate(1089.907727 319.413437)scale(0.28 -0.28)">
       <use xlink:href="#DejaVuSans-53"/>
      </g>
     </g>
    </g>
    <g id="text_24">
     <!-- -log10 p-value -->
     <g transform="translate(850.7075 350.512187)scale(0.28 -0.28)">
      <use xlink:href="#DejaVuSans-45"/>
      <use x="36.083984" xlink:href="#DejaVuSans-108"/>
      <use x="63.867188" xlink:href="#DejaVuSans-111"/>
      <use x="125.048828" xlink:href="#DejaVuSans-103"/>
      <use x="188.525391" xlink:href="#DejaVuSans-49"/>
      <use x="252.148438" xlink:href="#DejaVuSans-48"/>
      <use x="315.771484" xlink:href="#DejaVuSans-32"/>
      <use x="347.558594" xlink:href="#DejaVuSans-112"/>
      <use x="411.035156" xlink:href="#DejaVuSans-45"/>
      <use x="447.087891" xlink:href="#DejaVuSans-118"/>
      <use x="506.267578" xlink:href="#DejaVuSans-97"/>
      <use x="567.546875" xlink:href="#DejaVuSans-108"/>
      <use x="595.330078" xlink:href="#DejaVuSans-117"/>
      <use x="658.708984" xlink:href="#DejaVuSans-101"/>
     </g>
    </g>
   </g>
   <g id="matplotlib.axis_6">
    <g id="ytick_11"/>
    <g id="ytick_12"/>
    <g id="ytick_13"/>
    <g id="ytick_14"/>
    <g id="ytick_15"/>
   </g>
   <g id="line2d_25">
    <path clip-path="url(#pf5aebc234a)" d="M 804.269773 268.595232 
L 805.006136 268.994775 
L 806.110682 268.994775 
L 806.478864 269.252813 
L 806.847045 269.252813 
L 807.215227 269.379427 
L 809.424318 269.379427 
L 809.7925 269.504479 
L 810.160682 269.504479 
L 810.528864 269.627997 
L 812.737955 269.627997 
L 813.106136 269.750008 
L 813.474318 269.750008 
L 814.210682 269.98962 
L 814.578864 269.98962 
L 814.947045 270.107274 
L 815.315227 270.107274 
L 816.051591 270.223527 
L 817.156136 270.223527 
L 817.8925 270.338404 
L 819.365227 270.338404 
L 820.101591 270.45193 
L 820.469773 270.45193 
L 820.837955 270.564128 
L 821.206136 269.330916 
L 821.574318 269.330916 
L 821.9425 269.561676 
L 824.887955 269.561676 
L 825.624318 269.675101 
L 825.9925 269.675101 
L 826.360682 269.898148 
L 826.728864 268.497813 
L 827.465227 268.497813 
L 827.833409 268.73012 
L 828.569773 268.73012 
L 829.306136 268.84437 
L 829.674318 268.84437 
L 830.778864 269.069164 
L 831.515227 269.179748 
L 833.356136 269.289149 
L 834.0925 269.397387 
L 837.406136 269.397387 
L 837.774318 268.066384 
L 838.510682 268.179918 
L 842.560682 268.179918 
L 843.297045 268.292263 
L 843.665227 268.292263 
L 844.401591 268.403437 
L 845.506136 268.403437 
L 846.2425 268.73012 
L 847.715227 269.046903 
L 849.187955 269.150375 
L 849.924318 269.252813 
L 850.2925 268.001992 
L 852.501591 268.1091 
L 853.237955 268.215152 
L 855.078864 268.320165 
L 856.551591 268.629117 
L 860.601591 268.629117 
L 860.969773 268.830157 
L 869.437955 268.929241 
L 869.806136 269.027386 
L 870.174318 267.842529 
L 872.383409 267.944855 
L 872.751591 268.14665 
L 873.856136 268.246146 
L 874.960682 268.4424 
L 878.6425 268.539182 
L 879.747045 268.73012 
L 881.587955 268.824299 
L 883.060682 269.101812 
L 885.637955 269.19268 
L 886.7425 269.372023 
L 889.319773 269.46052 
L 890.056136 269.548247 
L 896.315227 269.635215 
L 897.051591 269.721433 
L 903.310682 269.806911 
L 904.415227 269.975685 
L 907.728864 270.058999 
L 908.465227 270.14161 
L 913.987955 270.223527 
L 914.356136 270.385312 
L 922.456136 270.465198 
L 923.928864 270.700927 
L 925.033409 270.778221 
L 925.769773 270.854886 
L 932.028864 270.93093 
L 932.765227 271.006361 
L 939.024318 271.081186 
L 939.760682 271.155413 
L 955.960682 271.229048 
L 956.697045 271.302098 
L 962.219773 271.374571 
L 962.956136 271.446474 
L 970.319773 271.517812 
L 971.056136 271.588594 
L 974.737955 271.658824 
L 975.474318 271.72851 
L 978.419773 271.797658 
L 979.156136 271.866274 
L 986.887955 271.934364 
L 987.624318 272.001935 
L 998.301591 272.068991 
L 999.037955 272.13554 
L 1014.869773 272.201586 
L 1015.606136 272.267136 
L 1020.760682 272.332195 
L 1021.497045 272.396768 
L 1028.124318 272.460861 
L 1028.860682 272.524479 
L 1038.433409 272.587628 
L 1039.169773 272.650312 
L 1052.056136 272.712538 
L 1052.7925 272.774309 
L 1066.783409 272.835631 
L 1067.519773 272.896508 
L 1092.924318 272.956946 
L 1093.660682 273.016949 
L 1098.815227 273.076522 
L 1098.815227 273.076522 
" style="fill:none;stroke:#8b0000;stroke-linecap:square;stroke-width:2;"/>
   </g>
   <g id="line2d_26">
    <path clip-path="url(#pf5aebc234a)" d="M 804.269773 72.197813 
L 804.637955 71.505328 
L 805.006136 71.165661 
L 806.110682 71.165661 
L 806.478864 70.499063 
L 806.847045 70.499063 
L 807.215227 70.171974 
L 809.424318 70.171974 
L 809.7925 69.848924 
L 810.160682 69.848924 
L 810.528864 71.197322 
L 812.737955 71.197322 
L 813.106136 70.871959 
L 813.474318 70.871959 
L 814.210682 70.232993 
L 814.578864 70.232993 
L 814.947045 69.91925 
L 815.315227 69.91925 
L 815.683409 71.227098 
L 817.156136 71.227098 
L 817.524318 70.911185 
L 819.365227 70.911185 
L 819.733409 70.598989 
L 820.469773 70.598989 
L 820.837955 71.879918 
L 821.206136 72.510226 
L 821.574318 72.510226 
L 821.9425 73.433267 
L 824.887955 73.433267 
L 825.256136 74.654762 
L 825.9925 74.654762 
L 826.360682 74.019935 
L 826.728864 73.707813 
L 827.465227 73.707813 
L 827.833409 74.587263 
L 828.569773 74.587263 
L 828.937955 75.762403 
L 829.674318 75.762403 
L 830.0425 75.447595 
L 830.410682 75.447595 
L 830.778864 76.60538 
L 831.147045 76.289425 
L 832.987955 76.289425 
L 833.724318 75.6676 
L 837.406136 75.6676 
L 837.774318 75.361622 
L 838.1425 76.489391 
L 842.560682 76.489391 
L 842.928864 76.182315 
L 843.665227 76.182315 
L 844.033409 77.294063 
L 845.506136 77.294063 
L 845.874318 76.681111 
L 846.610682 76.08067 
L 846.978864 76.08067 
L 847.347045 75.785021 
L 847.715227 76.865085 
L 848.451591 76.865085 
L 848.819773 76.568466 
L 849.187955 76.568466 
L 849.556136 76.274813 
L 849.924318 76.274813 
L 850.2925 75.984081 
L 851.028864 75.984081 
L 851.397045 75.696228 
L 852.501591 75.696228 
L 852.869773 75.411212 
L 854.3425 75.411212 
L 854.710682 75.128989 
L 855.078864 75.128989 
L 855.447045 76.175373 
L 855.815227 75.892181 
L 856.183409 75.892181 
L 856.551591 75.611726 
L 860.601591 75.611726 
L 860.969773 75.058865 
L 868.333409 75.058865 
L 868.701591 76.08067 
L 869.437955 76.08067 
L 869.806136 77.092789 
L 870.174318 76.813284 
L 871.278864 76.813284 
L 871.647045 76.536404 
L 872.383409 76.536404 
L 872.751591 75.990371 
L 873.487955 75.990371 
L 873.856136 76.979479 
L 874.224318 76.706937 
L 874.5925 77.683684 
L 876.433409 77.683684 
L 876.801591 77.410415 
L 878.6425 77.410415 
L 879.378864 76.871297 
L 880.851591 76.871297 
L 881.219773 77.829704 
L 881.587955 77.829704 
L 881.956136 78.779517 
L 882.324318 78.507455 
L 882.6925 78.507455 
L 883.060682 78.237813 
L 885.269773 78.237813 
L 886.006136 77.705654 
L 886.374318 78.635181 
L 887.478864 78.635181 
L 887.847045 78.36969 
L 889.319773 78.36969 
L 889.687955 78.106508 
L 891.160682 78.106508 
L 891.528864 79.022228 
L 896.315227 79.022228 
L 896.683409 78.758502 
L 900.365227 78.758502 
L 900.733409 78.49704 
L 903.310682 78.49704 
L 903.678864 79.399351 
L 904.047045 79.399351 
L 904.415227 79.137387 
L 905.887955 79.137387 
L 906.256136 78.877643 
L 907.728864 78.877643 
L 908.097045 79.766926 
L 909.937955 79.766926 
L 910.306136 79.50672 
L 913.987955 79.50672 
L 914.356136 80.125313 
L 915.828864 80.125313 
L 916.197045 79.866858 
L 922.456136 79.866858 
L 922.824318 80.73368 
L 923.1925 80.73368 
L 923.560682 80.47485 
L 923.928864 81.332075 
L 924.297045 81.332075 
L 924.665227 81.072915 
L 925.033409 81.072915 
L 925.401591 80.815861 
L 930.924318 80.815861 
L 931.2925 81.661294 
L 932.028864 81.661294 
L 932.397045 82.499909 
L 933.133409 82.499909 
L 933.501591 82.240222 
L 939.024318 82.240222 
L 939.3925 83.069813 
L 942.706136 83.069813 
L 943.074318 82.809924 
L 955.960682 82.809924 
L 956.328864 83.63067 
L 957.065227 83.63067 
L 957.433409 84.444927 
L 962.219773 84.444927 
L 962.587955 85.252773 
L 967.7425 85.252773 
L 968.110682 84.988401 
L 970.319773 84.988401 
L 970.687955 84.726094 
L 973.633409 84.726094 
L 974.001591 84.465828 
L 974.737955 84.465828 
L 975.106136 84.20758 
L 976.578864 84.20758 
L 976.947045 83.951326 
L 978.419773 83.951326 
L 978.787955 83.697043 
L 985.415227 83.697043 
L 985.783409 84.486088 
L 986.887955 84.486088 
L 987.256136 84.231706 
L 996.460682 84.231706 
L 996.828864 85.012717 
L 998.301591 85.012717 
L 998.669773 85.787813 
L 1010.451591 85.787813 
L 1010.819773 85.531397 
L 1014.869773 85.531397 
L 1015.237955 86.298715 
L 1017.078864 86.298715 
L 1017.447045 86.042307 
L 1020.760682 86.042307 
L 1021.128864 86.801992 
L 1027.387955 86.801992 
L 1027.756136 86.545619 
L 1028.124318 86.545619 
L 1028.4925 86.291146 
L 1037.697045 86.291146 
L 1038.065227 87.041503 
L 1038.433409 87.041503 
L 1038.801591 86.787077 
L 1045.797045 86.787077 
L 1046.165227 86.534516 
L 1052.056136 86.534516 
L 1052.424318 86.283798 
L 1058.683409 86.283798 
L 1059.051591 86.034903 
L 1066.783409 86.034903 
L 1067.151591 85.787813 
L 1081.510682 85.787813 
L 1081.878864 86.523733 
L 1092.924318 86.523733 
L 1093.2925 86.276661 
L 1095.501591 86.276661 
L 1095.869773 86.031361 
L 1098.815227 86.031361 
L 1098.815227 86.031361 
" style="fill:none;stroke:#000080;stroke-linecap:square;stroke-width:2;"/>
   </g>
   <g id="patch_9">
    <path d="M 789.5425 289.637812 
L 789.5425 17.837813 
" style="fill:none;stroke:#000000;stroke-linecap:square;stroke-linejoin:miter;"/>
   </g>
   <g id="patch_10">
    <path d="M 789.5425 289.637812 
L 1113.5425 289.637812 
" style="fill:none;stroke:#000000;stroke-linecap:square;stroke-linejoin:miter;"/>
   </g>
  </g>
 </g>
 <defs>
  <clipPath id="pfd9d9a025b">
   <rect height="271.8" width="324" x="109.1425" y="17.837812"/>
  </clipPath>
  <clipPath id="pac491d129f">
   <rect height="271.8" width="324" x="449.3425" y="17.837812"/>
  </clipPath>
  <clipPath id="pf5aebc234a">
   <rect height="271.8" width="324" x="789.5425" y="17.837812"/>
  </clipPath>
 </defs>
</svg>
