<?xml version="1.0" encoding="utf-8" standalone="no"?>
<!DOCTYPE svg PUBLIC "-//W3C//DTD SVG 1.1//EN"
  "http://www.w3.org/Graphics/SVG/1.1/DTD/svg11.dtd">
<!-- Created with matplotlib (https://matplotlib.org/) -->
<svg height="363.535312pt" version="1.1" viewBox="0 0 1120.7425 363.535312" width="1120.7425pt" xmlns="http://www.w3.org/2000/svg" xmlns:xlink="http://www.w3.org/1999/xlink">
 <defs>
  <style type="text/css">
*{stroke-linecap:butt;stroke-linejoin:round;}
  </style>
 </defs>
 <g id="figure_1">
  <g id="patch_1">
   <path d="M 0 363.535312 
L 1120.7425 363.535312 
L 1120.7425 -0 
L 0 -0 
z
" style="fill:none;"/>
  </g>
  <g id="axes_1">
   <g id="patch_2">
    <path d="M 109.1425 289.637812 
L 433.1425 289.637812 
L 433.1425 17.837813 
L 109.1425 17.837813 
z
" style="fill:none;"/>
   </g>
   <g id="matplotlib.axis_1">
    <g id="xtick_1">
     <g id="line2d_1">
      <defs>
       <path d="M 0 0 
L 0 5 
" id="m34af0b3578" style="stroke:#000000;stroke-width:0.8;"/>
      </defs>
      <g>
       <use style="stroke:#000000;stroke-width:0.8;" x="123.869773" xlink:href="#m34af0b3578" y="289.637812"/>
      </g>
     </g>
     <g id="text_1">
      <!-- 1 -->
      <defs>
       <path d="M 12.40625 8.296875 
L 28.515625 8.296875 
L 28.515625 63.921875 
L 10.984375 60.40625 
L 10.984375 69.390625 
L 28.421875 72.90625 
L 38.28125 72.90625 
L 38.28125 8.296875 
L 54.390625 8.296875 
L 54.390625 0 
L 12.40625 0 
z
" id="DejaVuSans-49"/>
      </defs>
      <g transform="translate(114.962273 319.413437)scale(0.28 -0.28)">
       <use xlink:href="#DejaVuSans-49"/>
      </g>
     </g>
    </g>
    <g id="xtick_2">
     <g id="line2d_2">
      <g>
       <use style="stroke:#000000;stroke-width:0.8;" x="222.051591" xlink:href="#m34af0b3578" y="289.637812"/>
      </g>
     </g>
     <g id="text_2">
      <!-- 2 -->
      <defs>
       <path d="M 19.1875 8.296875 
L 53.609375 8.296875 
L 53.609375 0 
L 7.328125 0 
L 7.328125 8.296875 
Q 12.9375 14.109375 22.625 23.890625 
Q 32.328125 33.6875 34.8125 36.53125 
Q 39.546875 41.84375 41.421875 45.53125 
Q 43.3125 49.21875 43.3125 52.78125 
Q 43.3125 58.59375 39.234375 62.25 
Q 35.15625 65.921875 28.609375 65.921875 
Q 23.96875 65.921875 18.8125 64.3125 
Q 13.671875 62.703125 7.8125 59.421875 
L 7.8125 69.390625 
Q 13.765625 71.78125 18.9375 73 
Q 24.125 74.21875 28.421875 74.21875 
Q 39.75 74.21875 46.484375 68.546875 
Q 53.21875 62.890625 53.21875 53.421875 
Q 53.21875 48.921875 51.53125 44.890625 
Q 49.859375 40.875 45.40625 35.40625 
Q 44.1875 33.984375 37.640625 27.21875 
Q 31.109375 20.453125 19.1875 8.296875 
z
" id="DejaVuSans-50"/>
      </defs>
      <g transform="translate(213.144091 319.413437)scale(0.28 -0.28)">
       <use xlink:href="#DejaVuSans-50"/>
      </g>
     </g>
    </g>
    <g id="xtick_3">
     <g id="line2d_3">
      <g>
       <use style="stroke:#000000;stroke-width:0.8;" x="320.233409" xlink:href="#m34af0b3578" y="289.637812"/>
      </g>
     </g>
     <g id="text_3">
      <!-- 3 -->
      <defs>
       <path d="M 40.578125 39.3125 
Q 47.65625 37.796875 51.625 33 
Q 55.609375 28.21875 55.609375 21.1875 
Q 55.609375 10.40625 48.1875 4.484375 
Q 40.765625 -1.421875 27.09375 -1.421875 
Q 22.515625 -1.421875 17.65625 -0.515625 
Q 12.796875 0.390625 7.625 2.203125 
L 7.625 11.71875 
Q 11.71875 9.328125 16.59375 8.109375 
Q 21.484375 6.890625 26.8125 6.890625 
Q 36.078125 6.890625 40.9375 10.546875 
Q 45.796875 14.203125 45.796875 21.1875 
Q 45.796875 27.640625 41.28125 31.265625 
Q 36.765625 34.90625 28.71875 34.90625 
L 20.21875 34.90625 
L 20.21875 43.015625 
L 29.109375 43.015625 
Q 36.375 43.015625 40.234375 45.921875 
Q 44.09375 48.828125 44.09375 54.296875 
Q 44.09375 59.90625 40.109375 62.90625 
Q 36.140625 65.921875 28.71875 65.921875 
Q 24.65625 65.921875 20.015625 65.03125 
Q 15.375 64.15625 9.8125 62.3125 
L 9.8125 71.09375 
Q 15.4375 72.65625 20.34375 73.4375 
Q 25.25 74.21875 29.59375 74.21875 
Q 40.828125 74.21875 47.359375 69.109375 
Q 53.90625 64.015625 53.90625 55.328125 
Q 53.90625 49.265625 50.4375 45.09375 
Q 46.96875 40.921875 40.578125 39.3125 
z
" id="DejaVuSans-51"/>
      </defs>
      <g transform="translate(311.325909 319.413437)scale(0.28 -0.28)">
       <use xlink:href="#DejaVuSans-51"/>
      </g>
     </g>
    </g>
    <g id="xtick_4">
     <g id="line2d_4">
      <g>
       <use style="stroke:#000000;stroke-width:0.8;" x="418.415227" xlink:href="#m34af0b3578" y="289.637812"/>
      </g>
     </g>
     <g id="text_4">
      <!-- 4 -->
      <defs>
       <path d="M 37.796875 64.3125 
L 12.890625 25.390625 
L 37.796875 25.390625 
z
M 35.203125 72.90625 
L 47.609375 72.90625 
L 47.609375 25.390625 
L 58.015625 25.390625 
L 58.015625 17.1875 
L 47.609375 17.1875 
L 47.609375 0 
L 37.796875 0 
L 37.796875 17.1875 
L 4.890625 17.1875 
L 4.890625 26.703125 
z
" id="DejaVuSans-52"/>
      </defs>
      <g transform="translate(409.507727 319.413437)scale(0.28 -0.28)">
       <use xlink:href="#DejaVuSans-52"/>
      </g>
     </g>
    </g>
    <g id="text_5">
     <!-- -log10 p-value -->
     <defs>
      <path d="M 4.890625 31.390625 
L 31.203125 31.390625 
L 31.203125 23.390625 
L 4.890625 23.390625 
z
" id="DejaVuSans-45"/>
      <path d="M 9.421875 75.984375 
L 18.40625 75.984375 
L 18.40625 0 
L 9.421875 0 
z
" id="DejaVuSans-108"/>
      <path d="M 30.609375 48.390625 
Q 23.390625 48.390625 19.1875 42.75 
Q 14.984375 37.109375 14.984375 27.296875 
Q 14.984375 17.484375 19.15625 11.84375 
Q 23.34375 6.203125 30.609375 6.203125 
Q 37.796875 6.203125 41.984375 11.859375 
Q 46.1875 17.53125 46.1875 27.296875 
Q 46.1875 37.015625 41.984375 42.703125 
Q 37.796875 48.390625 30.609375 48.390625 
z
M 30.609375 56 
Q 42.328125 56 49.015625 48.375 
Q 55.71875 40.765625 55.71875 27.296875 
Q 55.71875 13.875 49.015625 6.21875 
Q 42.328125 -1.421875 30.609375 -1.421875 
Q 18.84375 -1.421875 12.171875 6.21875 
Q 5.515625 13.875 5.515625 27.296875 
Q 5.515625 40.765625 12.171875 48.375 
Q 18.84375 56 30.609375 56 
z
" id="DejaVuSans-111"/>
      <path d="M 45.40625 27.984375 
Q 45.40625 37.75 41.375 43.109375 
Q 37.359375 48.484375 30.078125 48.484375 
Q 22.859375 48.484375 18.828125 43.109375 
Q 14.796875 37.75 14.796875 27.984375 
Q 14.796875 18.265625 18.828125 12.890625 
Q 22.859375 7.515625 30.078125 7.515625 
Q 37.359375 7.515625 41.375 12.890625 
Q 45.40625 18.265625 45.40625 27.984375 
z
M 54.390625 6.78125 
Q 54.390625 -7.171875 48.1875 -13.984375 
Q 42 -20.796875 29.203125 -20.796875 
Q 24.46875 -20.796875 20.265625 -20.09375 
Q 16.0625 -19.390625 12.109375 -17.921875 
L 12.109375 -9.1875 
Q 16.0625 -11.328125 19.921875 -12.34375 
Q 23.78125 -13.375 27.78125 -13.375 
Q 36.625 -13.375 41.015625 -8.765625 
Q 45.40625 -4.15625 45.40625 5.171875 
L 45.40625 9.625 
Q 42.625 4.78125 38.28125 2.390625 
Q 33.9375 0 27.875 0 
Q 17.828125 0 11.671875 7.65625 
Q 5.515625 15.328125 5.515625 27.984375 
Q 5.515625 40.671875 11.671875 48.328125 
Q 17.828125 56 27.875 56 
Q 33.9375 56 38.28125 53.609375 
Q 42.625 51.21875 45.40625 46.390625 
L 45.40625 54.6875 
L 54.390625 54.6875 
z
" id="DejaVuSans-103"/>
      <path d="M 31.78125 66.40625 
Q 24.171875 66.40625 20.328125 58.90625 
Q 16.5 51.421875 16.5 36.375 
Q 16.5 21.390625 20.328125 13.890625 
Q 24.171875 6.390625 31.78125 6.390625 
Q 39.453125 6.390625 43.28125 13.890625 
Q 47.125 21.390625 47.125 36.375 
Q 47.125 51.421875 43.28125 58.90625 
Q 39.453125 66.40625 31.78125 66.40625 
z
M 31.78125 74.21875 
Q 44.046875 74.21875 50.515625 64.515625 
Q 56.984375 54.828125 56.984375 36.375 
Q 56.984375 17.96875 50.515625 8.265625 
Q 44.046875 -1.421875 31.78125 -1.421875 
Q 19.53125 -1.421875 13.0625 8.265625 
Q 6.59375 17.96875 6.59375 36.375 
Q 6.59375 54.828125 13.0625 64.515625 
Q 19.53125 74.21875 31.78125 74.21875 
z
" id="DejaVuSans-48"/>
      <path id="DejaVuSans-32"/>
      <path d="M 18.109375 8.203125 
L 18.109375 -20.796875 
L 9.078125 -20.796875 
L 9.078125 54.6875 
L 18.109375 54.6875 
L 18.109375 46.390625 
Q 20.953125 51.265625 25.265625 53.625 
Q 29.59375 56 35.59375 56 
Q 45.5625 56 51.78125 48.09375 
Q 58.015625 40.1875 58.015625 27.296875 
Q 58.015625 14.40625 51.78125 6.484375 
Q 45.5625 -1.421875 35.59375 -1.421875 
Q 29.59375 -1.421875 25.265625 0.953125 
Q 20.953125 3.328125 18.109375 8.203125 
z
M 48.6875 27.296875 
Q 48.6875 37.203125 44.609375 42.84375 
Q 40.53125 48.484375 33.40625 48.484375 
Q 26.265625 48.484375 22.1875 42.84375 
Q 18.109375 37.203125 18.109375 27.296875 
Q 18.109375 17.390625 22.1875 11.75 
Q 26.265625 6.109375 33.40625 6.109375 
Q 40.53125 6.109375 44.609375 11.75 
Q 48.6875 17.390625 48.6875 27.296875 
z
" id="DejaVuSans-112"/>
      <path d="M 2.984375 54.6875 
L 12.5 54.6875 
L 29.59375 8.796875 
L 46.6875 54.6875 
L 56.203125 54.6875 
L 35.6875 0 
L 23.484375 0 
z
" id="DejaVuSans-118"/>
      <path d="M 34.28125 27.484375 
Q 23.390625 27.484375 19.1875 25 
Q 14.984375 22.515625 14.984375 16.5 
Q 14.984375 11.71875 18.140625 8.90625 
Q 21.296875 6.109375 26.703125 6.109375 
Q 34.1875 6.109375 38.703125 11.40625 
Q 43.21875 16.703125 43.21875 25.484375 
L 43.21875 27.484375 
z
M 52.203125 31.203125 
L 52.203125 0 
L 43.21875 0 
L 43.21875 8.296875 
Q 40.140625 3.328125 35.546875 0.953125 
Q 30.953125 -1.421875 24.3125 -1.421875 
Q 15.921875 -1.421875 10.953125 3.296875 
Q 6 8.015625 6 15.921875 
Q 6 25.140625 12.171875 29.828125 
Q 18.359375 34.515625 30.609375 34.515625 
L 43.21875 34.515625 
L 43.21875 35.40625 
Q 43.21875 41.609375 39.140625 45 
Q 35.0625 48.390625 27.6875 48.390625 
Q 23 48.390625 18.546875 47.265625 
Q 14.109375 46.140625 10.015625 43.890625 
L 10.015625 52.203125 
Q 14.9375 54.109375 19.578125 55.046875 
Q 24.21875 56 28.609375 56 
Q 40.484375 56 46.34375 49.84375 
Q 52.203125 43.703125 52.203125 31.203125 
z
" id="DejaVuSans-97"/>
      <path d="M 8.5 21.578125 
L 8.5 54.6875 
L 17.484375 54.6875 
L 17.484375 21.921875 
Q 17.484375 14.15625 20.5 10.265625 
Q 23.53125 6.390625 29.59375 6.390625 
Q 36.859375 6.390625 41.078125 11.03125 
Q 45.3125 15.671875 45.3125 23.6875 
L 45.3125 54.6875 
L 54.296875 54.6875 
L 54.296875 0 
L 45.3125 0 
L 45.3125 8.40625 
Q 42.046875 3.421875 37.71875 1 
Q 33.40625 -1.421875 27.6875 -1.421875 
Q 18.265625 -1.421875 13.375 4.4375 
Q 8.5 10.296875 8.5 21.578125 
z
M 31.109375 56 
z
" id="DejaVuSans-117"/>
      <path d="M 56.203125 29.59375 
L 56.203125 25.203125 
L 14.890625 25.203125 
Q 15.484375 15.921875 20.484375 11.0625 
Q 25.484375 6.203125 34.421875 6.203125 
Q 39.59375 6.203125 44.453125 7.46875 
Q 49.3125 8.734375 54.109375 11.28125 
L 54.109375 2.78125 
Q 49.265625 0.734375 44.1875 -0.34375 
Q 39.109375 -1.421875 33.890625 -1.421875 
Q 20.796875 -1.421875 13.15625 6.1875 
Q 5.515625 13.8125 5.515625 26.8125 
Q 5.515625 40.234375 12.765625 48.109375 
Q 20.015625 56 32.328125 56 
Q 43.359375 56 49.78125 48.890625 
Q 56.203125 41.796875 56.203125 29.59375 
z
M 47.21875 32.234375 
Q 47.125 39.59375 43.09375 43.984375 
Q 39.0625 48.390625 32.421875 48.390625 
Q 24.90625 48.390625 20.390625 44.140625 
Q 15.875 39.890625 15.1875 32.171875 
z
" id="DejaVuSans-101"/>
     </defs>
     <g transform="translate(170.3075 350.512187)scale(0.28 -0.28)">
      <use xlink:href="#DejaVuSans-45"/>
      <use x="36.083984" xlink:href="#DejaVuSans-108"/>
      <use x="63.867188" xlink:href="#DejaVuSans-111"/>
      <use x="125.048828" xlink:href="#DejaVuSans-103"/>
      <use x="188.525391" xlink:href="#DejaVuSans-49"/>
      <use x="252.148438" xlink:href="#DejaVuSans-48"/>
      <use x="315.771484" xlink:href="#DejaVuSans-32"/>
      <use x="347.558594" xlink:href="#DejaVuSans-112"/>
      <use x="411.035156" xlink:href="#DejaVuSans-45"/>
      <use x="447.087891" xlink:href="#DejaVuSans-118"/>
      <use x="506.267578" xlink:href="#DejaVuSans-97"/>
      <use x="567.546875" xlink:href="#DejaVuSans-108"/>
      <use x="595.330078" xlink:href="#DejaVuSans-117"/>
      <use x="658.708984" xlink:href="#DejaVuSans-101"/>
     </g>
    </g>
   </g>
   <g id="matplotlib.axis_2">
    <g id="ytick_1">
     <g id="line2d_5">
      <defs>
       <path d="M 0 0 
L -5 0 
" id="md2f8b44ebd" style="stroke:#000000;stroke-width:0.8;"/>
      </defs>
      <g>
       <use style="stroke:#000000;stroke-width:0.8;" x="109.1425" xlink:href="#md2f8b44ebd" y="289.637812"/>
      </g>
     </g>
     <g id="text_6">
      <!-- 0.00 -->
      <defs>
       <path d="M 10.6875 12.40625 
L 21 12.40625 
L 21 0 
L 10.6875 0 
z
" id="DejaVuSans-46"/>
      </defs>
      <g transform="translate(38.29875 300.275625)scale(0.28 -0.28)">
       <use xlink:href="#DejaVuSans-48"/>
       <use x="63.623047" xlink:href="#DejaVuSans-46"/>
       <use x="95.410156" xlink:href="#DejaVuSans-48"/>
       <use x="159.033203" xlink:href="#DejaVuSans-48"/>
      </g>
     </g>
    </g>
    <g id="ytick_2">
     <g id="line2d_6">
      <g>
       <use style="stroke:#000000;stroke-width:0.8;" x="109.1425" xlink:href="#md2f8b44ebd" y="221.687813"/>
      </g>
     </g>
     <g id="text_7">
      <!-- 0.25 -->
      <defs>
       <path d="M 10.796875 72.90625 
L 49.515625 72.90625 
L 49.515625 64.59375 
L 19.828125 64.59375 
L 19.828125 46.734375 
Q 21.96875 47.46875 24.109375 47.828125 
Q 26.265625 48.1875 28.421875 48.1875 
Q 40.625 48.1875 47.75 41.5 
Q 54.890625 34.8125 54.890625 23.390625 
Q 54.890625 11.625 47.5625 5.09375 
Q 40.234375 -1.421875 26.90625 -1.421875 
Q 22.3125 -1.421875 17.546875 -0.640625 
Q 12.796875 0.140625 7.71875 1.703125 
L 7.71875 11.625 
Q 12.109375 9.234375 16.796875 8.0625 
Q 21.484375 6.890625 26.703125 6.890625 
Q 35.15625 6.890625 40.078125 11.328125 
Q 45.015625 15.765625 45.015625 23.390625 
Q 45.015625 31 40.078125 35.4375 
Q 35.15625 39.890625 26.703125 39.890625 
Q 22.75 39.890625 18.8125 39.015625 
Q 14.890625 38.140625 10.796875 36.28125 
z
" id="DejaVuSans-53"/>
      </defs>
      <g transform="translate(38.29875 232.325625)scale(0.28 -0.28)">
       <use xlink:href="#DejaVuSans-48"/>
       <use x="63.623047" xlink:href="#DejaVuSans-46"/>
       <use x="95.410156" xlink:href="#DejaVuSans-50"/>
       <use x="159.033203" xlink:href="#DejaVuSans-53"/>
      </g>
     </g>
    </g>
    <g id="ytick_3">
     <g id="line2d_7">
      <g>
       <use style="stroke:#000000;stroke-width:0.8;" x="109.1425" xlink:href="#md2f8b44ebd" y="153.737813"/>
      </g>
     </g>
     <g id="text_8">
      <!-- 0.50 -->
      <g transform="translate(38.29875 164.375625)scale(0.28 -0.28)">
       <use xlink:href="#DejaVuSans-48"/>
       <use x="63.623047" xlink:href="#DejaVuSans-46"/>
       <use x="95.410156" xlink:href="#DejaVuSans-53"/>
       <use x="159.033203" xlink:href="#DejaVuSans-48"/>
      </g>
     </g>
    </g>
    <g id="ytick_4">
     <g id="line2d_8">
      <g>
       <use style="stroke:#000000;stroke-width:0.8;" x="109.1425" xlink:href="#md2f8b44ebd" y="85.787813"/>
      </g>
     </g>
     <g id="text_9">
      <!-- 0.75 -->
      <defs>
       <path d="M 8.203125 72.90625 
L 55.078125 72.90625 
L 55.078125 68.703125 
L 28.609375 0 
L 18.3125 0 
L 43.21875 64.59375 
L 8.203125 64.59375 
z
" id="DejaVuSans-55"/>
      </defs>
      <g transform="translate(38.29875 96.425625)scale(0.28 -0.28)">
       <use xlink:href="#DejaVuSans-48"/>
       <use x="63.623047" xlink:href="#DejaVuSans-46"/>
       <use x="95.410156" xlink:href="#DejaVuSans-55"/>
       <use x="159.033203" xlink:href="#DejaVuSans-53"/>
      </g>
     </g>
    </g>
    <g id="ytick_5">
     <g id="line2d_9">
      <g>
       <use style="stroke:#000000;stroke-width:0.8;" x="109.1425" xlink:href="#md2f8b44ebd" y="17.837813"/>
      </g>
     </g>
     <g id="text_10">
      <!-- 1.00 -->
      <g transform="translate(38.29875 28.475625)scale(0.28 -0.28)">
       <use xlink:href="#DejaVuSans-49"/>
       <use x="63.623047" xlink:href="#DejaVuSans-46"/>
       <use x="95.410156" xlink:href="#DejaVuSans-48"/>
       <use x="159.033203" xlink:href="#DejaVuSans-48"/>
      </g>
     </g>
    </g>
    <g id="text_11">
     <!-- Specificity -->
     <defs>
      <path d="M 53.515625 70.515625 
L 53.515625 60.890625 
Q 47.90625 63.578125 42.921875 64.890625 
Q 37.9375 66.21875 33.296875 66.21875 
Q 25.25 66.21875 20.875 63.09375 
Q 16.5 59.96875 16.5 54.203125 
Q 16.5 49.359375 19.40625 46.890625 
Q 22.3125 44.4375 30.421875 42.921875 
L 36.375 41.703125 
Q 47.40625 39.59375 52.65625 34.296875 
Q 57.90625 29 57.90625 20.125 
Q 57.90625 9.515625 50.796875 4.046875 
Q 43.703125 -1.421875 29.984375 -1.421875 
Q 24.8125 -1.421875 18.96875 -0.25 
Q 13.140625 0.921875 6.890625 3.21875 
L 6.890625 13.375 
Q 12.890625 10.015625 18.65625 8.296875 
Q 24.421875 6.59375 29.984375 6.59375 
Q 38.421875 6.59375 43.015625 9.90625 
Q 47.609375 13.234375 47.609375 19.390625 
Q 47.609375 24.75 44.3125 27.78125 
Q 41.015625 30.8125 33.5 32.328125 
L 27.484375 33.5 
Q 16.453125 35.6875 11.515625 40.375 
Q 6.59375 45.0625 6.59375 53.421875 
Q 6.59375 63.09375 13.40625 68.65625 
Q 20.21875 74.21875 32.171875 74.21875 
Q 37.3125 74.21875 42.625 73.28125 
Q 47.953125 72.359375 53.515625 70.515625 
z
" id="DejaVuSans-83"/>
      <path d="M 48.78125 52.59375 
L 48.78125 44.1875 
Q 44.96875 46.296875 41.140625 47.34375 
Q 37.3125 48.390625 33.40625 48.390625 
Q 24.65625 48.390625 19.8125 42.84375 
Q 14.984375 37.3125 14.984375 27.296875 
Q 14.984375 17.28125 19.8125 11.734375 
Q 24.65625 6.203125 33.40625 6.203125 
Q 37.3125 6.203125 41.140625 7.25 
Q 44.96875 8.296875 48.78125 10.40625 
L 48.78125 2.09375 
Q 45.015625 0.34375 40.984375 -0.53125 
Q 36.96875 -1.421875 32.421875 -1.421875 
Q 20.0625 -1.421875 12.78125 6.34375 
Q 5.515625 14.109375 5.515625 27.296875 
Q 5.515625 40.671875 12.859375 48.328125 
Q 20.21875 56 33.015625 56 
Q 37.15625 56 41.109375 55.140625 
Q 45.0625 54.296875 48.78125 52.59375 
z
" id="DejaVuSans-99"/>
      <path d="M 9.421875 54.6875 
L 18.40625 54.6875 
L 18.40625 0 
L 9.421875 0 
z
M 9.421875 75.984375 
L 18.40625 75.984375 
L 18.40625 64.59375 
L 9.421875 64.59375 
z
" id="DejaVuSans-105"/>
      <path d="M 37.109375 75.984375 
L 37.109375 68.5 
L 28.515625 68.5 
Q 23.6875 68.5 21.796875 66.546875 
Q 19.921875 64.59375 19.921875 59.515625 
L 19.921875 54.6875 
L 34.71875 54.6875 
L 34.71875 47.703125 
L 19.921875 47.703125 
L 19.921875 0 
L 10.890625 0 
L 10.890625 47.703125 
L 2.296875 47.703125 
L 2.296875 54.6875 
L 10.890625 54.6875 
L 10.890625 58.5 
Q 10.890625 67.625 15.140625 71.796875 
Q 19.390625 75.984375 28.609375 75.984375 
z
" id="DejaVuSans-102"/>
      <path d="M 18.3125 70.21875 
L 18.3125 54.6875 
L 36.8125 54.6875 
L 36.8125 47.703125 
L 18.3125 47.703125 
L 18.3125 18.015625 
Q 18.3125 11.328125 20.140625 9.421875 
Q 21.96875 7.515625 27.59375 7.515625 
L 36.8125 7.515625 
L 36.8125 0 
L 27.59375 0 
Q 17.1875 0 13.234375 3.875 
Q 9.28125 7.765625 9.28125 18.015625 
L 9.28125 47.703125 
L 2.6875 47.703125 
L 2.6875 54.6875 
L 9.28125 54.6875 
L 9.28125 70.21875 
z
" id="DejaVuSans-116"/>
      <path d="M 32.171875 -5.078125 
Q 28.375 -14.84375 24.75 -17.8125 
Q 21.140625 -20.796875 15.09375 -20.796875 
L 7.90625 -20.796875 
L 7.90625 -13.28125 
L 13.1875 -13.28125 
Q 16.890625 -13.28125 18.9375 -11.515625 
Q 21 -9.765625 23.484375 -3.21875 
L 25.09375 0.875 
L 2.984375 54.6875 
L 12.5 54.6875 
L 29.59375 11.921875 
L 46.6875 54.6875 
L 56.203125 54.6875 
z
" id="DejaVuSans-121"/>
     </defs>
     <g transform="translate(28.475625 225.894688)rotate(-90)scale(0.28 -0.28)">
      <use xlink:href="#DejaVuSans-83"/>
      <use x="63.476562" xlink:href="#DejaVuSans-112"/>
      <use x="126.953125" xlink:href="#DejaVuSans-101"/>
      <use x="188.476562" xlink:href="#DejaVuSans-99"/>
      <use x="243.457031" xlink:href="#DejaVuSans-105"/>
      <use x="271.240234" xlink:href="#DejaVuSans-102"/>
      <use x="306.445312" xlink:href="#DejaVuSans-105"/>
      <use x="334.228516" xlink:href="#DejaVuSans-99"/>
      <use x="389.208984" xlink:href="#DejaVuSans-105"/>
      <use x="416.992188" xlink:href="#DejaVuSans-116"/>
      <use x="456.201172" xlink:href="#DejaVuSans-121"/>
     </g>
    </g>
   </g>
   <g id="line2d_10">
    <path clip-path="url(#pf6959ba6a6)" d="M 123.869773 29.107569 
L 126.815227 28.839241 
L 128.778864 28.761217 
L 132.706136 28.435519 
L 135.651591 28.363097 
L 140.069773 28.037813 
L 143.506136 27.860806 
L 143.997045 28.404551 
L 147.924318 28.381778 
L 148.415227 28.919787 
L 148.906136 28.896057 
L 149.397045 29.40377 
L 153.324318 29.306167 
L 153.815227 29.828989 
L 157.7425 29.729063 
L 159.706136 29.630788 
L 161.669773 29.534124 
L 162.160682 30.041078 
L 166.578864 29.942266 
L 167.069773 30.416082 
L 178.360682 29.929495 
L 181.306136 29.859736 
L 181.797045 30.334364 
L 183.760682 30.262955 
L 184.7425 30.215801 
L 185.233409 30.682803 
L 191.615227 30.421146 
L 192.106136 30.876189 
L 195.051591 30.828254 
L 195.5425 31.278472 
L 196.033409 31.278472 
L 197.015227 32.19519 
L 201.433409 32.091339 
L 206.3425 31.938349 
L 206.833409 31.938349 
L 207.324318 32.398527 
L 209.778864 32.295259 
L 211.7425 32.193446 
L 213.706136 32.118023 
L 214.197045 32.568232 
L 216.160682 32.465938 
L 219.597045 32.390144 
L 224.015227 32.315132 
L 225.978864 32.191816 
L 226.469773 32.629649 
L 232.360682 32.529704 
L 232.851591 32.937813 
L 245.615227 32.836809 
L 247.578864 32.737148 
L 252.487955 32.638803 
L 253.960682 32.565891 
L 259.360682 32.469786 
L 260.833409 32.422203 
L 265.251591 32.304587 
L 270.160682 32.234923 
L 272.615227 32.09759 
L 275.560682 32.074955 
L 276.051591 32.459964 
L 277.524318 32.413838 
L 282.433409 32.322452 
L 287.3425 32.187502 
L 293.724318 32.143076 
L 294.215227 32.518368 
L 301.087955 32.450716 
L 301.578864 32.822192 
L 304.033409 32.776438 
L 304.524318 33.121399 
L 305.506136 33.121399 
L 305.997045 33.486903 
L 308.9425 33.439625 
L 309.924318 33.345921 
L 327.106136 33.253335 
L 328.087955 33.184618 
L 334.960682 33.116511 
L 335.9425 33.049005 
L 341.833409 32.982094 
L 342.324318 33.312557 
L 349.687955 33.222718 
L 350.669773 33.156021 
L 359.015227 33.133916 
L 359.506136 32.980955 
L 400.7425 32.875157 
L 401.233409 33.390401 
L 418.415227 33.390401 
L 418.415227 33.390401 
" style="fill:none;stroke:#8b0000;stroke-linecap:square;stroke-width:2;"/>
   </g>
   <g id="line2d_11">
    <path clip-path="url(#pf6959ba6a6)" d="M 123.869773 59.602203 
L 125.833409 58.901122 
L 126.324318 59.254955 
L 127.306136 59.254955 
L 128.287955 58.961217 
L 128.778864 58.961217 
L 129.269773 59.407224 
L 129.760682 59.309643 
L 130.251591 59.750897 
L 130.7425 59.750897 
L 131.233409 60.720411 
L 132.215227 60.423988 
L 132.706136 60.852033 
L 134.178864 60.753602 
L 136.1425 60.364343 
L 136.633409 59.887588 
L 137.124318 59.887588 
L 138.597045 59.421405 
L 140.560682 59.146623 
L 141.051591 59.146623 
L 141.5425 59.561497 
L 143.015227 59.379297 
L 143.506136 60.877726 
L 143.997045 61.86589 
L 147.924318 61.771002 
L 148.415227 62.165709 
L 148.906136 62.070789 
L 149.397045 62.945047 
L 149.887955 62.945047 
L 150.378864 62.753914 
L 151.851591 62.753914 
L 152.3425 63.233584 
L 153.324318 63.137813 
L 153.815227 64.089493 
L 154.797045 63.992529 
L 155.287955 63.799817 
L 157.7425 63.704063 
L 158.233409 64.077647 
L 159.215227 63.981912 
L 161.669773 63.509124 
L 162.160682 63.877404 
L 164.124318 63.783637 
L 164.615227 63.597245 
L 166.578864 63.504614 
L 167.069773 63.775841 
L 168.5425 63.500213 
L 169.033409 63.951585 
L 171.487955 63.586327 
L 172.469773 63.495915 
L 173.9425 64.644858 
L 175.415227 64.553438 
L 175.906136 64.281308 
L 176.887955 64.191301 
L 177.869773 64.101642 
L 179.3425 64.101642 
L 179.833409 64.53704 
L 180.815227 64.447061 
L 181.306136 64.357428 
L 181.797045 64.699881 
L 182.287955 64.699881 
L 182.778864 64.521019 
L 183.760682 64.432098 
L 184.251591 64.25527 
L 184.7425 64.25527 
L 185.233409 64.593578 
L 186.215227 64.50536 
L 186.706136 64.84082 
L 187.687955 64.577252 
L 189.160682 64.490051 
L 191.124318 64.230391 
L 192.106136 64.976558 
L 193.087955 64.889746 
L 195.051591 64.803254 
L 195.5425 65.129021 
L 196.033409 65.129021 
L 196.524318 65.539458 
L 197.015227 65.365681 
L 197.506136 65.365681 
L 198.487955 65.107378 
L 199.469773 65.021899 
L 202.906136 64.936729 
L 205.360682 64.599103 
L 206.833409 64.515451 
L 207.324318 64.917455 
L 208.306136 64.833534 
L 212.724318 64.172786 
L 213.215227 64.172786 
L 213.706136 64.010492 
L 214.197045 64.404945 
L 215.178864 64.323676 
L 217.633409 64.001417 
L 219.106136 63.92155 
L 220.087955 63.841958 
L 221.560682 63.841958 
L 222.5425 64.619224 
L 224.015227 64.538843 
L 224.997045 65.228582 
L 225.978864 65.067114 
L 226.469773 65.449037 
L 228.924318 65.368203 
L 229.906136 65.287643 
L 231.378864 65.207356 
L 231.869773 65.586461 
L 232.360682 65.586461 
L 232.851591 65.883267 
L 242.669773 65.802518 
L 243.160682 65.641833 
L 245.615227 65.561893 
L 246.106136 65.402813 
L 246.597045 65.696284 
L 249.051591 65.696284 
L 250.033409 66.357482 
L 251.506136 66.357482 
L 251.997045 66.725931 
L 252.487955 66.725931 
L 252.978864 66.565115 
L 254.9425 66.485103 
L 255.924318 66.405353 
L 256.415227 66.770709 
L 258.869773 66.690754 
L 259.360682 66.611059 
L 259.851591 66.894398 
L 261.324318 66.814761 
L 262.797045 66.656259 
L 263.778864 66.577392 
L 264.760682 66.49878 
L 267.215227 66.420421 
L 267.706136 66.264458 
L 270.160682 66.264458 
L 270.651591 66.109493 
L 271.1425 66.109493 
L 271.633409 66.822501 
L 272.124318 66.666747 
L 275.560682 66.589241 
L 276.5425 67.139074 
L 279.487955 67.061435 
L 281.451591 66.829976 
L 283.415227 66.753305 
L 283.906136 66.600683 
L 284.397045 66.600683 
L 284.887955 66.948093 
L 286.360682 66.948093 
L 286.851591 66.795576 
L 292.7425 66.719673 
L 293.724318 66.644004 
L 294.215227 66.912813 
L 294.706136 66.912813 
L 295.197045 67.255994 
L 300.106136 67.179966 
L 301.087955 67.104172 
L 301.578864 67.369512 
L 302.560682 67.369512 
L 303.051591 67.218271 
L 304.033409 67.218271 
L 304.524318 67.406202 
L 305.506136 67.406202 
L 305.997045 68.079631 
L 306.978864 68.079631 
L 307.469773 67.927843 
L 322.197045 67.884818 
L 323.178864 67.81001 
L 327.106136 67.735424 
L 327.597045 67.512998 
L 332.015227 67.439296 
L 332.506136 67.292546 
L 334.960682 67.292546 
L 335.451591 67.074042 
L 338.397045 67.074042 
L 338.887955 66.857461 
L 341.833409 66.857461 
L 342.324318 67.039564 
L 349.687955 67.148408 
L 350.178864 67.327408 
L 359.015227 67.255994 
L 359.997045 67.150098 
L 364.906136 67.150098 
L 365.397045 67.57143 
L 371.287955 67.57143 
L 371.778864 68.086552 
L 379.1425 68.086552 
L 379.633409 67.737117 
L 400.7425 67.836983 
L 401.233409 68.568875 
L 418.415227 68.568875 
L 418.415227 68.568875 
" style="fill:none;stroke:#000080;stroke-linecap:square;stroke-width:2;"/>
   </g>
   <g id="patch_3">
    <path d="M 109.1425 289.637812 
L 109.1425 17.837813 
" style="fill:none;stroke:#000000;stroke-linecap:square;stroke-linejoin:miter;"/>
   </g>
   <g id="patch_4">
    <path d="M 109.1425 289.637812 
L 433.1425 289.637812 
" style="fill:none;stroke:#000000;stroke-linecap:square;stroke-linejoin:miter;"/>
   </g>
  </g>
  <g id="axes_2">
   <g id="patch_5">
    <path d="M 449.3425 289.637812 
L 773.3425 289.637812 
L 773.3425 17.837813 
L 449.3425 17.837813 
z
" style="fill:none;"/>
   </g>
   <g id="matplotlib.axis_3">
    <g id="xtick_5">
     <g id="line2d_12">
      <g>
       <use style="stroke:#000000;stroke-width:0.8;" x="464.069773" xlink:href="#m34af0b3578" y="289.637812"/>
      </g>
     </g>
     <g id="text_12">
      <!-- 1 -->
      <g transform="translate(455.162273 319.413437)scale(0.28 -0.28)">
       <use xlink:href="#DejaVuSans-49"/>
      </g>
     </g>
    </g>
    <g id="xtick_6">
     <g id="line2d_13">
      <g>
       <use style="stroke:#000000;stroke-width:0.8;" x="562.251591" xlink:href="#m34af0b3578" y="289.637812"/>
      </g>
     </g>
     <g id="text_13">
      <!-- 2 -->
      <g transform="translate(553.344091 319.413437)scale(0.28 -0.28)">
       <use xlink:href="#DejaVuSans-50"/>
      </g>
     </g>
    </g>
    <g id="xtick_7">
     <g id="line2d_14">
      <g>
       <use style="stroke:#000000;stroke-width:0.8;" x="660.433409" xlink:href="#m34af0b3578" y="289.637812"/>
      </g>
     </g>
     <g id="text_14">
      <!-- 3 -->
      <g transform="translate(651.525909 319.413437)scale(0.28 -0.28)">
       <use xlink:href="#DejaVuSans-51"/>
      </g>
     </g>
    </g>
    <g id="xtick_8">
     <g id="line2d_15">
      <g>
       <use style="stroke:#000000;stroke-width:0.8;" x="758.615227" xlink:href="#m34af0b3578" y="289.637812"/>
      </g>
     </g>
     <g id="text_15">
      <!-- 4 -->
      <g transform="translate(749.707727 319.413437)scale(0.28 -0.28)">
       <use xlink:href="#DejaVuSans-52"/>
      </g>
     </g>
    </g>
    <g id="text_16">
     <!-- -log10 p-value -->
     <g transform="translate(510.5075 350.512187)scale(0.28 -0.28)">
      <use xlink:href="#DejaVuSans-45"/>
      <use x="36.083984" xlink:href="#DejaVuSans-108"/>
      <use x="63.867188" xlink:href="#DejaVuSans-111"/>
      <use x="125.048828" xlink:href="#DejaVuSans-103"/>
      <use x="188.525391" xlink:href="#DejaVuSans-49"/>
      <use x="252.148438" xlink:href="#DejaVuSans-48"/>
      <use x="315.771484" xlink:href="#DejaVuSans-32"/>
      <use x="347.558594" xlink:href="#DejaVuSans-112"/>
      <use x="411.035156" xlink:href="#DejaVuSans-45"/>
      <use x="447.087891" xlink:href="#DejaVuSans-118"/>
      <use x="506.267578" xlink:href="#DejaVuSans-97"/>
      <use x="567.546875" xlink:href="#DejaVuSans-108"/>
      <use x="595.330078" xlink:href="#DejaVuSans-117"/>
      <use x="658.708984" xlink:href="#DejaVuSans-101"/>
     </g>
    </g>
   </g>
   <g id="matplotlib.axis_4">
    <g id="ytick_6"/>
    <g id="ytick_7"/>
    <g id="ytick_8"/>
    <g id="ytick_9"/>
    <g id="ytick_10"/>
   </g>
   <g id="line2d_16">
    <path clip-path="url(#p4269c18a05)" d="M 464.069773 116.119608 
L 465.051591 115.631857 
L 465.5425 116.062565 
L 466.033409 115.578699 
L 470.9425 115.578699 
L 471.433409 116.43193 
L 474.869773 116.43193 
L 475.360682 116.855416 
L 475.851591 116.855416 
L 476.3425 117.276837 
L 476.833409 117.034893 
L 477.815227 117.034893 
L 478.797045 116.55452 
L 479.778864 116.55452 
L 480.760682 116.078776 
L 481.251591 116.078776 
L 482.233409 116.911194 
L 483.215227 116.43829 
L 487.633409 116.43829 
L 488.124318 116.203527 
L 490.087955 116.203527 
L 491.069773 115.737339 
L 491.560682 115.916586 
L 495.978864 115.864042 
L 496.469773 116.270055 
L 498.433409 116.270055 
L 498.924318 116.674176 
L 499.415227 116.674176 
L 499.906136 116.846165 
L 500.397045 116.846165 
L 500.887955 117.246146 
L 502.851591 117.246146 
L 503.3425 117.644279 
L 503.833409 117.644279 
L 504.324318 118.040577 
L 506.287955 118.040577 
L 506.778864 117.810226 
L 507.760682 117.810226 
L 508.251591 118.204326 
L 508.7425 118.204326 
L 509.233409 117.974655 
L 511.197045 117.974655 
L 511.687955 118.36658 
L 513.160682 118.36658 
L 513.651591 118.756719 
L 515.615227 118.756719 
L 516.597045 118.299037 
L 517.087955 118.299037 
L 517.578864 118.686681 
L 524.451591 118.686681 
L 524.9425 118.459031 
L 527.397045 118.459031 
L 527.887955 118.844569 
L 530.833409 118.844569 
L 531.324318 118.617588 
L 535.7425 118.617588 
L 536.233409 119.001041 
L 536.724318 119.001041 
L 537.215227 118.774725 
L 537.706136 118.774725 
L 538.197045 119.535808 
L 541.633409 119.535808 
L 542.124318 119.68748 
L 543.106136 119.68748 
L 543.597045 119.462149 
L 546.051591 119.462149 
L 546.5425 119.837813 
L 549.978864 119.837813 
L 550.469773 120.211821 
L 550.960682 120.211821 
L 551.451591 119.986823 
L 565.687955 119.986823 
L 566.178864 120.358865 
L 567.160682 120.358865 
L 567.651591 120.729279 
L 568.1425 120.729279 
L 568.633409 121.098075 
L 572.560682 121.098075 
L 573.051591 120.873107 
L 580.906136 120.873107 
L 581.397045 121.239986 
L 581.887955 121.239986 
L 582.378864 121.015687 
L 584.3425 121.015687 
L 584.833409 121.744076 
L 588.269773 121.744076 
L 588.760682 122.105916 
L 591.215227 122.105916 
L 591.706136 122.4662 
L 592.197045 122.4662 
L 592.687955 122.824937 
L 593.178864 122.824937 
L 593.669773 123.312439 
L 598.087955 123.312439 
L 598.578864 123.088025 
L 599.069773 123.088025 
L 599.560682 122.864564 
L 600.5425 122.864564 
L 601.033409 122.995106 
L 602.015227 122.995106 
L 602.506136 123.346673 
L 607.906136 123.346673 
L 608.397045 123.69676 
L 609.378864 123.69676 
L 609.869773 124.045376 
L 612.815227 124.045376 
L 613.306136 123.822718 
L 616.251591 123.822718 
L 616.7425 123.600992 
L 650.615227 123.600992 
L 651.106136 123.947625 
L 654.051591 123.947625 
L 654.5425 123.726562 
L 662.397045 123.726562 
L 662.887955 123.50642 
L 685.469773 123.50642 
L 685.960682 123.851091 
L 719.3425 123.851091 
L 719.833409 123.631601 
L 758.615227 123.537813 
L 758.615227 123.537813 
" style="fill:none;stroke:#8b0000;stroke-linecap:square;stroke-width:2;"/>
   </g>
   <g id="line2d_17">
    <path clip-path="url(#p4269c18a05)" d="M 464.069773 48.339059 
L 467.015227 47.963428 
L 470.9425 47.963428 
L 471.433409 47.815754 
L 475.851591 47.742458 
L 477.324318 47.596937 
L 478.306136 47.524706 
L 479.287955 47.452825 
L 480.269773 47.381291 
L 481.251591 47.310102 
L 482.233409 48.472345 
L 483.706136 48.326118 
L 490.087955 48.253527 
L 492.5425 47.966586 
L 494.506136 47.966586 
L 494.997045 47.754909 
L 498.433409 47.685009 
L 499.415227 47.615435 
L 499.906136 48.107882 
L 502.851591 48.037813 
L 503.3425 48.59578 
L 506.287955 48.524909 
L 507.269773 48.454364 
L 508.7425 48.384143 
L 509.724318 48.314243 
L 513.160682 48.244662 
L 514.1425 48.175398 
L 516.106136 48.106449 
L 517.578864 47.969487 
L 527.397045 47.901469 
L 528.378864 47.833758 
L 535.7425 47.766352 
L 537.215227 47.632443 
L 537.706136 47.632443 
L 538.197045 48.105073 
L 541.633409 48.105073 
L 542.124318 47.97085 
L 546.051591 47.904184 
L 547.033409 47.837813 
L 550.960682 47.771733 
L 551.9425 47.705944 
L 567.160682 47.640444 
L 568.633409 47.510302 
L 580.906136 47.445656 
L 581.397045 47.97216 
L 584.3425 47.906793 
L 584.833409 48.363946 
L 591.215227 48.298157 
L 592.687955 48.167426 
L 593.178864 48.167426 
L 593.669773 48.552951 
L 599.069773 48.4876 
L 600.051591 48.422526 
L 600.5425 48.422526 
L 601.033409 48.293204 
L 607.906136 48.228952 
L 608.887955 48.16497 
L 609.378864 48.16497 
L 609.869773 48.672266 
L 616.251591 48.607624 
L 617.233409 48.543252 
L 654.051591 48.479149 
L 655.033409 48.415313 
L 685.469773 48.351742 
L 685.960682 48.852335 
L 740.9425 48.788123 
L 741.433409 49.156331 
L 758.615227 49.156331 
L 758.615227 49.156331 
" style="fill:none;stroke:#000080;stroke-linecap:square;stroke-width:2;"/>
   </g>
   <g id="patch_6">
    <path d="M 449.3425 289.637812 
L 449.3425 17.837813 
" style="fill:none;stroke:#000000;stroke-linecap:square;stroke-linejoin:miter;"/>
   </g>
   <g id="patch_7">
    <path d="M 449.3425 289.637812 
L 773.3425 289.637812 
" style="fill:none;stroke:#000000;stroke-linecap:square;stroke-linejoin:miter;"/>
   </g>
  </g>
  <g id="axes_3">
   <g id="patch_8">
    <path d="M 789.5425 289.637812 
L 1113.5425 289.637812 
L 1113.5425 17.837813 
L 789.5425 17.837813 
z
" style="fill:none;"/>
   </g>
   <g id="matplotlib.axis_5">
    <g id="xtick_9">
     <g id="line2d_18">
      <g>
       <use style="stroke:#000000;stroke-width:0.8;" x="804.269773" xlink:href="#m34af0b3578" y="289.637812"/>
      </g>
     </g>
     <g id="text_17">
      <!-- 1 -->
      <g transform="translate(795.362273 319.413437)scale(0.28 -0.28)">
       <use xlink:href="#DejaVuSans-49"/>
      </g>
     </g>
    </g>
    <g id="xtick_10">
     <g id="line2d_19">
      <g>
       <use style="stroke:#000000;stroke-width:0.8;" x="902.451591" xlink:href="#m34af0b3578" y="289.637812"/>
      </g>
     </g>
     <g id="text_18">
      <!-- 2 -->
      <g transform="translate(893.544091 319.413437)scale(0.28 -0.28)">
       <use xlink:href="#DejaVuSans-50"/>
      </g>
     </g>
    </g>
    <g id="xtick_11">
     <g id="line2d_20">
      <g>
       <use style="stroke:#000000;stroke-width:0.8;" x="1000.633409" xlink:href="#m34af0b3578" y="289.637812"/>
      </g>
     </g>
     <g id="text_19">
      <!-- 3 -->
      <g transform="translate(991.725909 319.413437)scale(0.28 -0.28)">
       <use xlink:href="#DejaVuSans-51"/>
      </g>
     </g>
    </g>
    <g id="xtick_12">
     <g id="line2d_21">
      <g>
       <use style="stroke:#000000;stroke-width:0.8;" x="1098.815227" xlink:href="#m34af0b3578" y="289.637812"/>
      </g>
     </g>
     <g id="text_20">
      <!-- 4 -->
      <g transform="translate(1089.907727 319.413437)scale(0.28 -0.28)">
       <use xlink:href="#DejaVuSans-52"/>
      </g>
     </g>
    </g>
    <g id="text_21">
     <!-- -log10 p-value -->
     <g transform="translate(850.7075 350.512187)scale(0.28 -0.28)">
      <use xlink:href="#DejaVuSans-45"/>
      <use x="36.083984" xlink:href="#DejaVuSans-108"/>
      <use x="63.867188" xlink:href="#DejaVuSans-111"/>
      <use x="125.048828" xlink:href="#DejaVuSans-103"/>
      <use x="188.525391" xlink:href="#DejaVuSans-49"/>
      <use x="252.148438" xlink:href="#DejaVuSans-48"/>
      <use x="315.771484" xlink:href="#DejaVuSans-32"/>
      <use x="347.558594" xlink:href="#DejaVuSans-112"/>
      <use x="411.035156" xlink:href="#DejaVuSans-45"/>
      <use x="447.087891" xlink:href="#DejaVuSans-118"/>
      <use x="506.267578" xlink:href="#DejaVuSans-97"/>
      <use x="567.546875" xlink:href="#DejaVuSans-108"/>
      <use x="595.330078" xlink:href="#DejaVuSans-117"/>
      <use x="658.708984" xlink:href="#DejaVuSans-101"/>
     </g>
    </g>
   </g>
   <g id="matplotlib.axis_6">
    <g id="ytick_11"/>
    <g id="ytick_12"/>
    <g id="ytick_13"/>
    <g id="ytick_14"/>
    <g id="ytick_15"/>
   </g>
   <g id="line2d_22">
    <path clip-path="url(#p5bdba344fa)" d="M 804.269773 269.572041 
L 805.251591 269.572041 
L 806.233409 269.837812 
L 811.633409 269.837812 
L 812.615227 270.096636 
L 813.106136 270.34878 
L 817.524318 270.34878 
L 818.015227 270.472428 
L 818.506136 270.472428 
L 818.997045 270.5945 
L 819.487955 270.5945 
L 819.978864 270.715028 
L 820.469773 270.715028 
L 820.960682 270.834039 
L 821.9425 270.834039 
L 822.433409 270.951563 
L 825.378864 270.951563 
L 825.869773 271.067626 
L 827.833409 271.067626 
L 829.797045 271.517812 
L 832.251591 271.626969 
L 833.724318 271.841384 
L 838.1425 271.946688 
L 838.633409 270.45193 
L 839.124318 270.45193 
L 840.106136 270.564128 
L 843.5425 270.675022 
L 844.524318 270.784633 
L 845.015227 269.446955 
L 845.506136 269.561676 
L 846.978864 269.561676 
L 847.469773 268.139507 
L 848.9425 268.139507 
L 849.433409 268.260284 
L 855.815227 268.260284 
L 856.306136 268.379712 
L 856.797045 268.379712 
L 857.778864 268.614608 
L 859.7425 268.614608 
L 860.233409 268.73012 
L 861.215227 268.73012 
L 861.706136 268.84437 
L 863.669773 268.84437 
L 864.160682 267.480204 
L 865.633409 267.480204 
L 866.124318 267.718458 
L 866.615227 267.718458 
L 867.106136 267.835673 
L 868.578864 267.835673 
L 869.069773 267.951642 
L 873.978864 267.951642 
L 874.469773 268.066384 
L 875.9425 268.066384 
L 876.924318 268.179918 
L 877.906136 268.292263 
L 881.3425 268.292263 
L 882.324318 268.403437 
L 886.7425 268.51346 
L 887.724318 268.622349 
L 889.687955 268.73012 
L 891.160682 268.942381 
L 891.651591 268.942381 
L 892.1425 269.150375 
L 894.597045 269.150375 
L 895.087955 269.35423 
L 903.433409 269.454644 
L 904.415227 269.554069 
L 907.360682 269.652518 
L 907.851591 269.84655 
L 919.1425 269.94216 
L 920.124318 270.036851 
L 932.887955 270.130635 
L 933.869773 270.496967 
L 936.324318 270.586411 
L 937.306136 270.675022 
L 941.724318 270.762812 
L 942.706136 270.849794 
L 945.651591 270.849794 
L 946.1425 269.689189 
L 950.560682 269.780278 
L 951.051591 269.959984 
L 953.506136 269.959984 
L 953.997045 270.223527 
L 956.451591 270.309813 
L 958.415227 270.564128 
L 964.797045 270.647419 
L 965.778864 270.729986 
L 967.7425 270.729986 
L 968.233409 270.892985 
L 970.687955 270.973435 
L 971.669773 271.053197 
L 1009.960682 271.132281 
L 1010.451591 271.288445 
L 1018.797045 271.365544 
L 1019.287955 270.385312 
L 1030.087955 270.465198 
L 1031.069773 270.544424 
L 1039.415227 270.622998 
L 1040.397045 270.700927 
L 1045.306136 270.700927 
L 1045.797045 270.854886 
L 1059.5425 270.93093 
L 1060.033409 271.081186 
L 1068.869773 271.081186 
L 1069.360682 271.374571 
L 1081.1425 271.374571 
L 1081.633409 271.658824 
L 1098.815227 271.658824 
L 1098.815227 271.658824 
" style="fill:none;stroke:#8b0000;stroke-linecap:square;stroke-width:2;"/>
   </g>
   <g id="line2d_23">
    <path clip-path="url(#p5bdba344fa)" d="M 804.269773 74.386806 
L 805.251591 74.386806 
L 806.233409 73.637813 
L 811.633409 73.637813 
L 812.124318 73.270707 
L 812.615227 74.684871 
L 813.106136 75.704909 
L 817.524318 75.704909 
L 818.015227 75.333966 
L 818.506136 75.333966 
L 818.997045 74.967749 
L 819.487955 74.967749 
L 819.978864 74.606167 
L 820.469773 74.606167 
L 820.960682 74.249133 
L 821.9425 74.249133 
L 822.433409 73.896563 
L 825.378864 73.896563 
L 825.869773 73.548372 
L 827.833409 73.548372 
L 828.324318 74.882257 
L 828.815227 74.532291 
L 829.797045 77.139631 
L 831.269773 77.139631 
L 831.760682 76.782391 
L 832.251591 76.782391 
L 833.233409 76.08067 
L 836.669773 76.08067 
L 837.160682 75.736037 
L 838.1425 75.736037 
L 838.633409 75.39546 
L 839.124318 75.39546 
L 839.615227 76.648339 
L 842.560682 76.648339 
L 843.051591 76.306417 
L 843.5425 76.306417 
L 844.033409 75.968448 
L 844.524318 75.968448 
L 845.015227 76.857241 
L 845.506136 76.521903 
L 846.978864 76.521903 
L 847.469773 76.190355 
L 848.9425 76.190355 
L 849.433409 75.862532 
L 855.815227 75.862532 
L 856.306136 77.056807 
L 856.797045 77.056807 
L 857.287955 76.727813 
L 857.778864 77.904111 
L 859.7425 77.904111 
L 860.233409 79.067483 
L 861.215227 79.067483 
L 861.706136 78.732894 
L 863.669773 78.732894 
L 864.160682 78.401943 
L 865.633409 78.401943 
L 866.124318 79.212006 
L 866.615227 79.212006 
L 867.106136 78.883802 
L 868.578864 78.883802 
L 869.069773 78.559089 
L 873.978864 78.559089 
L 874.469773 79.675908 
L 875.9425 79.675908 
L 876.433409 79.350444 
L 876.924318 79.350444 
L 877.415227 79.028388 
L 881.3425 79.028388 
L 881.833409 78.709688 
L 884.287955 78.709688 
L 884.778864 78.394289 
L 886.7425 78.394289 
L 887.233409 78.082142 
L 888.706136 78.082142 
L 889.197045 77.773197 
L 889.687955 77.773197 
L 890.178864 77.467404 
L 890.669773 77.467404 
L 891.160682 77.164716 
L 891.651591 77.164716 
L 892.1425 77.934295 
L 894.597045 77.934295 
L 895.087955 77.33632 
L 899.997045 77.33632 
L 900.487955 77.041773 
L 903.433409 77.041773 
L 903.924318 76.750128 
L 906.378864 76.750128 
L 906.869773 77.793695 
L 907.360682 77.793695 
L 907.851591 78.531016 
L 913.251591 78.531016 
L 913.7425 78.237813 
L 919.1425 78.237813 
L 919.633409 77.947428 
L 922.087955 77.947428 
L 922.578864 77.659822 
L 932.887955 77.659822 
L 933.869773 79.088517 
L 934.360682 79.088517 
L 934.851591 80.072392 
L 936.324318 80.072392 
L 936.815227 79.782929 
L 940.251591 79.782929 
L 940.7425 79.496146 
L 941.724318 79.496146 
L 942.215227 79.212006 
L 945.651591 79.212006 
L 946.1425 78.930473 
L 948.597045 78.930473 
L 949.087955 78.651511 
L 950.560682 78.651511 
L 951.051591 78.101161 
L 953.506136 78.101161 
L 953.997045 77.294063 
L 954.978864 77.294063 
L 955.469773 78.237813 
L 956.451591 78.237813 
L 956.9425 77.970556 
L 957.433409 77.970556 
L 957.924318 77.705654 
L 958.415227 78.635181 
L 962.3425 78.635181 
L 962.833409 79.55659 
L 964.797045 79.55659 
L 965.287955 79.288247 
L 967.7425 79.288247 
L 968.233409 79.930054 
L 968.724318 79.930054 
L 969.215227 80.830087 
L 970.687955 80.830087 
L 971.178864 80.560889 
L 990.815227 80.560889 
L 991.306136 80.293983 
L 1009.960682 80.293983 
L 1010.451591 79.766926 
L 1012.415227 79.766926 
L 1012.906136 79.50672 
L 1018.797045 79.50672 
L 1019.287955 80.125313 
L 1022.233409 80.125313 
L 1022.724318 80.994659 
L 1030.087955 80.994659 
L 1030.578864 80.73368 
L 1034.506136 80.73368 
L 1034.997045 81.593368 
L 1039.415227 81.593368 
L 1039.906136 82.446009 
L 1045.306136 82.446009 
L 1045.797045 83.025617 
L 1051.687955 83.025617 
L 1052.178864 82.761699 
L 1059.5425 82.761699 
L 1060.033409 82.240222 
L 1081.1425 82.296311 
L 1081.633409 84.465828 
L 1098.815227 84.465828 
L 1098.815227 84.465828 
" style="fill:none;stroke:#000080;stroke-linecap:square;stroke-width:2;"/>
   </g>
   <g id="patch_9">
    <path d="M 789.5425 289.637812 
L 789.5425 17.837813 
" style="fill:none;stroke:#000000;stroke-linecap:square;stroke-linejoin:miter;"/>
   </g>
   <g id="patch_10">
    <path d="M 789.5425 289.637812 
L 1113.5425 289.637812 
" style="fill:none;stroke:#000000;stroke-linecap:square;stroke-linejoin:miter;"/>
   </g>
  </g>
 </g>
 <defs>
  <clipPath id="pf6959ba6a6">
   <rect height="271.8" width="324" x="109.1425" y="17.837812"/>
  </clipPath>
  <clipPath id="p4269c18a05">
   <rect height="271.8" width="324" x="449.3425" y="17.837812"/>
  </clipPath>
  <clipPath id="p5bdba344fa">
   <rect height="271.8" width="324" x="789.5425" y="17.837812"/>
  </clipPath>
 </defs>
</svg>
