<?xml version="1.0" encoding="utf-8" standalone="no"?>
<!DOCTYPE svg PUBLIC "-//W3C//DTD SVG 1.1//EN"
  "http://www.w3.org/Graphics/SVG/1.1/DTD/svg11.dtd">
<!-- Created with matplotlib (http://matplotlib.org/) -->
<svg height="832pt" version="1.1" viewBox="0 0 888 832" width="888pt" xmlns="http://www.w3.org/2000/svg" xmlns:xlink="http://www.w3.org/1999/xlink">
 <defs>
  <style type="text/css">
*{stroke-linecap:butt;stroke-linejoin:round;}
  </style>
 </defs>
 <g id="figure_1">
  <g id="patch_1">
   <path d="M 0 832.45625 
L 888.555625 832.45625 
L 888.555625 0 
L 0 0 
z
" style="fill:#ffffff;"/>
  </g>
  <g id="axes_1">
   <g id="patch_2">
    <path d="M 152.455625 732.96 
L 694.320685 732.96 
L 694.320685 236.003855 
L 152.455625 236.003855 
z
" style="fill:#ffffff;"/>
   </g>
   <g id="PathCollection_1">
    <defs>
     <path d="M 0 5 
C 1.326016 5 2.597899 4.473168 3.535534 3.535534 
C 4.473168 2.597899 5 1.326016 5 0 
C 5 -1.326016 4.473168 -2.597899 3.535534 -3.535534 
C 2.597899 -4.473168 1.326016 -5 0 -5 
C -1.326016 -5 -2.597899 -4.473168 -3.535534 -3.535534 
C -4.473168 -2.597899 -5 -1.326016 -5 0 
C -5 1.326016 -4.473168 2.597899 -3.535534 3.535534 
C -2.597899 4.473168 -1.326016 5 0 5 
z
" id="C0_0_a2c4a1d547"/>
    </defs>
    <g clip-path="url(#p352e8b0ce9)">
     <use style="fill:#000080;fill-opacity:0.5;" x="376.475944" xlink:href="#C0_0_a2c4a1d547" y="328.765438"/>
    </g>
    <g clip-path="url(#p352e8b0ce9)">
     <use style="fill:#000080;fill-opacity:0.5;" x="475.138442" xlink:href="#C0_0_a2c4a1d547" y="330.84072"/>
    </g>
    <g clip-path="url(#p352e8b0ce9)">
     <use style="fill:#000080;fill-opacity:0.5;" x="246.416025" xlink:href="#C0_0_a2c4a1d547" y="315.273445"/>
    </g>
    <g clip-path="url(#p352e8b0ce9)">
     <use style="fill:#000080;fill-opacity:0.5;" x="301.230989" xlink:href="#C0_0_a2c4a1d547" y="309.523938"/>
    </g>
    <g clip-path="url(#p352e8b0ce9)">
     <use style="fill:#000080;fill-opacity:0.5;" x="227.265288" xlink:href="#C0_0_a2c4a1d547" y="284.165128"/>
    </g>
    <g clip-path="url(#p352e8b0ce9)">
     <use style="fill:#000080;fill-opacity:0.5;" x="449.289202" xlink:href="#C0_0_a2c4a1d547" y="305.809507"/>
    </g>
    <g clip-path="url(#p352e8b0ce9)">
     <use style="fill:#000080;fill-opacity:0.5;" x="388.593949" xlink:href="#C0_0_a2c4a1d547" y="333.889157"/>
    </g>
    <g clip-path="url(#p352e8b0ce9)">
     <use style="fill:#000080;fill-opacity:0.5;" x="418.058011" xlink:href="#C0_0_a2c4a1d547" y="379.991934"/>
    </g>
    <g clip-path="url(#p352e8b0ce9)">
     <use style="fill:#000080;fill-opacity:0.5;" x="487.027041" xlink:href="#C0_0_a2c4a1d547" y="365.320217"/>
    </g>
    <g clip-path="url(#p352e8b0ce9)">
     <use style="fill:#000080;fill-opacity:0.5;" x="441.629232" xlink:href="#C0_0_a2c4a1d547" y="301.521932"/>
    </g>
    <g clip-path="url(#p352e8b0ce9)">
     <use style="fill:#000080;fill-opacity:0.5;" x="427.595203" xlink:href="#C0_0_a2c4a1d547" y="315.491803"/>
    </g>
    <g clip-path="url(#p352e8b0ce9)">
     <use style="fill:#000080;fill-opacity:0.5;" x="347.985232" xlink:href="#C0_0_a2c4a1d547" y="350.95913"/>
    </g>
    <g clip-path="url(#p352e8b0ce9)">
     <use style="fill:#000080;fill-opacity:0.5;" x="409.526683" xlink:href="#C0_0_a2c4a1d547" y="330.430312"/>
    </g>
    <g clip-path="url(#p352e8b0ce9)">
     <use style="fill:#000080;fill-opacity:0.5;" x="375.454919" xlink:href="#C0_0_a2c4a1d547" y="340.3545"/>
    </g>
    <g clip-path="url(#p352e8b0ce9)">
     <use style="fill:#000080;fill-opacity:0.5;" x="472.658624" xlink:href="#C0_0_a2c4a1d547" y="302.313253"/>
    </g>
    <g clip-path="url(#p352e8b0ce9)">
     <use style="fill:#000080;fill-opacity:0.5;" x="470.390523" xlink:href="#C0_0_a2c4a1d547" y="348.509814"/>
    </g>
    <g clip-path="url(#p352e8b0ce9)">
     <use style="fill:#000080;fill-opacity:0.5;" x="574.306636" xlink:href="#C0_0_a2c4a1d547" y="383.177877"/>
    </g>
    <g clip-path="url(#p352e8b0ce9)">
     <use style="fill:#000080;fill-opacity:0.5;" x="445.284503" xlink:href="#C0_0_a2c4a1d547" y="368.147656"/>
    </g>
    <g clip-path="url(#p352e8b0ce9)">
     <use style="fill:#000080;fill-opacity:0.5;" x="371.294515" xlink:href="#C0_0_a2c4a1d547" y="338.987967"/>
    </g>
    <g clip-path="url(#p352e8b0ce9)">
     <use style="fill:#000080;fill-opacity:0.5;" x="463.909714" xlink:href="#C0_0_a2c4a1d547" y="375.625841"/>
    </g>
    <g clip-path="url(#p352e8b0ce9)">
     <use style="fill:#000080;fill-opacity:0.5;" x="577.822417" xlink:href="#C0_0_a2c4a1d547" y="339.466667"/>
    </g>
    <g clip-path="url(#p352e8b0ce9)">
     <use style="fill:#000080;fill-opacity:0.5;" x="393.713517" xlink:href="#C0_0_a2c4a1d547" y="334.28755"/>
    </g>
    <g clip-path="url(#p352e8b0ce9)">
     <use style="fill:#000080;fill-opacity:0.5;" x="439.038115" xlink:href="#C0_0_a2c4a1d547" y="312.63987"/>
    </g>
    <g clip-path="url(#p352e8b0ce9)">
     <use style="fill:#000080;fill-opacity:0.5;" x="421.654695" xlink:href="#C0_0_a2c4a1d547" y="342.747555"/>
    </g>
    <g clip-path="url(#p352e8b0ce9)">
     <use style="fill:#000080;fill-opacity:0.5;" x="450.102312" xlink:href="#C0_0_a2c4a1d547" y="347.598009"/>
    </g>
    <g clip-path="url(#p352e8b0ce9)">
     <use style="fill:#000080;fill-opacity:0.5;" x="300.826249" xlink:href="#C0_0_a2c4a1d547" y="309.630488"/>
    </g>
    <g clip-path="url(#p352e8b0ce9)">
     <use style="fill:#000080;fill-opacity:0.5;" x="397.575198" xlink:href="#C0_0_a2c4a1d547" y="316.968621"/>
    </g>
    <g clip-path="url(#p352e8b0ce9)">
     <use style="fill:#000080;fill-opacity:0.5;" x="413.043141" xlink:href="#C0_0_a2c4a1d547" y="295.185407"/>
    </g>
    <g clip-path="url(#p352e8b0ce9)">
     <use style="fill:#000080;fill-opacity:0.5;" x="352.997399" xlink:href="#C0_0_a2c4a1d547" y="303.234897"/>
    </g>
    <g clip-path="url(#p352e8b0ce9)">
     <use style="fill:#000080;fill-opacity:0.5;" x="478.304661" xlink:href="#C0_0_a2c4a1d547" y="337.162913"/>
    </g>
    <g clip-path="url(#p352e8b0ce9)">
     <use style="fill:#000080;fill-opacity:0.5;" x="425.856234" xlink:href="#C0_0_a2c4a1d547" y="336.080016"/>
    </g>
    <g clip-path="url(#p352e8b0ce9)">
     <use style="fill:#000080;fill-opacity:0.5;" x="453.033081" xlink:href="#C0_0_a2c4a1d547" y="380.595849"/>
    </g>
    <g clip-path="url(#p352e8b0ce9)">
     <use style="fill:#000080;fill-opacity:0.5;" x="469.421651" xlink:href="#C0_0_a2c4a1d547" y="421.786162"/>
    </g>
    <g clip-path="url(#p352e8b0ce9)">
     <use style="fill:#000080;fill-opacity:0.5;" x="668.167525" xlink:href="#C0_0_a2c4a1d547" y="378.730468"/>
    </g>
    <g clip-path="url(#p352e8b0ce9)">
     <use style="fill:#000080;fill-opacity:0.5;" x="396.281782" xlink:href="#C0_0_a2c4a1d547" y="389.885747"/>
    </g>
    <g clip-path="url(#p352e8b0ce9)">
     <use style="fill:#000080;fill-opacity:0.5;" x="406.739313" xlink:href="#C0_0_a2c4a1d547" y="311.885655"/>
    </g>
    <g clip-path="url(#p352e8b0ce9)">
     <use style="fill:#000080;fill-opacity:0.5;" x="325.095762" xlink:href="#C0_0_a2c4a1d547" y="316.619343"/>
    </g>
    <g clip-path="url(#p352e8b0ce9)">
     <use style="fill:#000080;fill-opacity:0.5;" x="418.34713" xlink:href="#C0_0_a2c4a1d547" y="343.918695"/>
    </g>
    <g clip-path="url(#p352e8b0ce9)">
     <use style="fill:#000080;fill-opacity:0.5;" x="400.156015" xlink:href="#C0_0_a2c4a1d547" y="282.761981"/>
    </g>
    <g clip-path="url(#p352e8b0ce9)">
     <use style="fill:#000080;fill-opacity:0.5;" x="382.909678" xlink:href="#C0_0_a2c4a1d547" y="330.916931"/>
    </g>
    <g clip-path="url(#p352e8b0ce9)">
     <use style="fill:#000080;fill-opacity:0.5;" x="427.982717" xlink:href="#C0_0_a2c4a1d547" y="309.374054"/>
    </g>
    <g clip-path="url(#p352e8b0ce9)">
     <use style="fill:#000080;fill-opacity:0.5;" x="348.730613" xlink:href="#C0_0_a2c4a1d547" y="288.879585"/>
    </g>
    <g clip-path="url(#p352e8b0ce9)">
     <use style="fill:#000080;fill-opacity:0.5;" x="412.360596" xlink:href="#C0_0_a2c4a1d547" y="318.978981"/>
    </g>
    <g clip-path="url(#p352e8b0ce9)">
     <use style="fill:#000080;fill-opacity:0.5;" x="380.079597" xlink:href="#C0_0_a2c4a1d547" y="310.790265"/>
    </g>
    <g clip-path="url(#p352e8b0ce9)">
     <use style="fill:#000080;fill-opacity:0.5;" x="468.273496" xlink:href="#C0_0_a2c4a1d547" y="382.601755"/>
    </g>
    <g clip-path="url(#p352e8b0ce9)">
     <use style="fill:#000080;fill-opacity:0.5;" x="612.724378" xlink:href="#C0_0_a2c4a1d547" y="363.10865"/>
    </g>
    <g clip-path="url(#p352e8b0ce9)">
     <use style="fill:#000080;fill-opacity:0.5;" x="296.003733" xlink:href="#C0_0_a2c4a1d547" y="288.711325"/>
    </g>
    <g clip-path="url(#p352e8b0ce9)">
     <use style="fill:#000080;fill-opacity:0.5;" x="499.663153" xlink:href="#C0_0_a2c4a1d547" y="310.359036"/>
    </g>
    <g clip-path="url(#p352e8b0ce9)">
     <use style="fill:#000080;fill-opacity:0.5;" x="360.439308" xlink:href="#C0_0_a2c4a1d547" y="286.319238"/>
    </g>
    <g clip-path="url(#p352e8b0ce9)">
     <use style="fill:#000080;fill-opacity:0.5;" x="402.617094" xlink:href="#C0_0_a2c4a1d547" y="352.089939"/>
    </g>
    <g clip-path="url(#p352e8b0ce9)">
     <use style="fill:#000080;fill-opacity:0.5;" x="471.288517" xlink:href="#C0_0_a2c4a1d547" y="378.007541"/>
    </g>
    <g clip-path="url(#p352e8b0ce9)">
     <use style="fill:#000080;fill-opacity:0.5;" x="510.446205" xlink:href="#C0_0_a2c4a1d547" y="382.523215"/>
    </g>
    <g clip-path="url(#p352e8b0ce9)">
     <use style="fill:#000080;fill-opacity:0.5;" x="383.344131" xlink:href="#C0_0_a2c4a1d547" y="300.946988"/>
    </g>
    <g clip-path="url(#p352e8b0ce9)">
     <use style="fill:#000080;fill-opacity:0.5;" x="522.482059" xlink:href="#C0_0_a2c4a1d547" y="384.971286"/>
    </g>
    <g clip-path="url(#p352e8b0ce9)">
     <use style="fill:#000080;fill-opacity:0.5;" x="366.538212" xlink:href="#C0_0_a2c4a1d547" y="336.931435"/>
    </g>
    <g clip-path="url(#p352e8b0ce9)">
     <use style="fill:#000080;fill-opacity:0.5;" x="419.380141" xlink:href="#C0_0_a2c4a1d547" y="310.721038"/>
    </g>
    <g clip-path="url(#p352e8b0ce9)">
     <use style="fill:#000080;fill-opacity:0.5;" x="381.946147" xlink:href="#C0_0_a2c4a1d547" y="365.540292"/>
    </g>
    <g clip-path="url(#p352e8b0ce9)">
     <use style="fill:#000080;fill-opacity:0.5;" x="450.234229" xlink:href="#C0_0_a2c4a1d547" y="365.607414"/>
    </g>
    <g clip-path="url(#p352e8b0ce9)">
     <use style="fill:#000080;fill-opacity:0.5;" x="441.611725" xlink:href="#C0_0_a2c4a1d547" y="359.269961"/>
    </g>
    <g clip-path="url(#p352e8b0ce9)">
     <use style="fill:#000080;fill-opacity:0.5;" x="333.905144" xlink:href="#C0_0_a2c4a1d547" y="302.264675"/>
    </g>
    <g clip-path="url(#p352e8b0ce9)">
     <use style="fill:#000080;fill-opacity:0.5;" x="381.078202" xlink:href="#C0_0_a2c4a1d547" y="305.061398"/>
    </g>
    <g clip-path="url(#p352e8b0ce9)">
     <use style="fill:#000080;fill-opacity:0.5;" x="468.407357" xlink:href="#C0_0_a2c4a1d547" y="335.133725"/>
    </g>
    <g clip-path="url(#p352e8b0ce9)">
     <use style="fill:#000080;fill-opacity:0.5;" x="242.836742" xlink:href="#C0_0_a2c4a1d547" y="315.06506"/>
    </g>
    <g clip-path="url(#p352e8b0ce9)">
     <use style="fill:#000080;fill-opacity:0.5;" x="277.218546" xlink:href="#C0_0_a2c4a1d547" y="312.335916"/>
    </g>
    <g clip-path="url(#p352e8b0ce9)">
     <use style="fill:#000080;fill-opacity:0.5;" x="474.028099" xlink:href="#C0_0_a2c4a1d547" y="358.206666"/>
    </g>
    <g clip-path="url(#p352e8b0ce9)">
     <use style="fill:#000080;fill-opacity:0.5;" x="434.769035" xlink:href="#C0_0_a2c4a1d547" y="318.990941"/>
    </g>
    <g clip-path="url(#p352e8b0ce9)">
     <use style="fill:#000080;fill-opacity:0.5;" x="278.909755" xlink:href="#C0_0_a2c4a1d547" y="307.117108"/>
    </g>
    <g clip-path="url(#p352e8b0ce9)">
     <use style="fill:#000080;fill-opacity:0.5;" x="389.39125" xlink:href="#C0_0_a2c4a1d547" y="314.217128"/>
    </g>
    <g clip-path="url(#p352e8b0ce9)">
     <use style="fill:#000080;fill-opacity:0.5;" x="388.375533" xlink:href="#C0_0_a2c4a1d547" y="340.670508"/>
    </g>
    <g clip-path="url(#p352e8b0ce9)">
     <use style="fill:#000080;fill-opacity:0.5;" x="332.210613" xlink:href="#C0_0_a2c4a1d547" y="336.901012"/>
    </g>
    <g clip-path="url(#p352e8b0ce9)">
     <use style="fill:#000080;fill-opacity:0.5;" x="448.191171" xlink:href="#C0_0_a2c4a1d547" y="358.987952"/>
    </g>
    <g clip-path="url(#p352e8b0ce9)">
     <use style="fill:#000080;fill-opacity:0.5;" x="427.378556" xlink:href="#C0_0_a2c4a1d547" y="364.860823"/>
    </g>
    <g clip-path="url(#p352e8b0ce9)">
     <use style="fill:#000080;fill-opacity:0.5;" x="357.037096" xlink:href="#C0_0_a2c4a1d547" y="344.442828"/>
    </g>
    <g clip-path="url(#p352e8b0ce9)">
     <use style="fill:#000080;fill-opacity:0.5;" x="392.528656" xlink:href="#C0_0_a2c4a1d547" y="338.351868"/>
    </g>
    <g clip-path="url(#p352e8b0ce9)">
     <use style="fill:#000080;fill-opacity:0.5;" x="588.58413" xlink:href="#C0_0_a2c4a1d547" y="373.920146"/>
    </g>
    <g clip-path="url(#p352e8b0ce9)">
     <use style="fill:#000080;fill-opacity:0.5;" x="485.436547" xlink:href="#C0_0_a2c4a1d547" y="385.467895"/>
    </g>
    <g clip-path="url(#p352e8b0ce9)">
     <use style="fill:#000080;fill-opacity:0.5;" x="608.223318" xlink:href="#C0_0_a2c4a1d547" y="366.297652"/>
    </g>
    <g clip-path="url(#p352e8b0ce9)">
     <use style="fill:#000080;fill-opacity:0.5;" x="547.686587" xlink:href="#C0_0_a2c4a1d547" y="406.472159"/>
    </g>
    <g clip-path="url(#p352e8b0ce9)">
     <use style="fill:#000080;fill-opacity:0.5;" x="178.608785" xlink:href="#C0_0_a2c4a1d547" y="267.939909"/>
    </g>
    <g clip-path="url(#p352e8b0ce9)">
     <use style="fill:#000080;fill-opacity:0.5;" x="384.17622" xlink:href="#C0_0_a2c4a1d547" y="318.261605"/>
    </g>
    <g clip-path="url(#p352e8b0ce9)">
     <use style="fill:#000080;fill-opacity:0.5;" x="397.772922" xlink:href="#C0_0_a2c4a1d547" y="315.429398"/>
    </g>
    <g clip-path="url(#p352e8b0ce9)">
     <use style="fill:#000080;fill-opacity:0.5;" x="343.683023" xlink:href="#C0_0_a2c4a1d547" y="286.296158"/>
    </g>
    <g clip-path="url(#p352e8b0ce9)">
     <use style="fill:#000080;fill-opacity:0.5;" x="430.726892" xlink:href="#C0_0_a2c4a1d547" y="325.955343"/>
    </g>
    <g clip-path="url(#p352e8b0ce9)">
     <use style="fill:#000080;fill-opacity:0.5;" x="378.987934" xlink:href="#C0_0_a2c4a1d547" y="324.937838"/>
    </g>
    <g clip-path="url(#p352e8b0ce9)">
     <use style="fill:#000080;fill-opacity:0.5;" x="288.094928" xlink:href="#C0_0_a2c4a1d547" y="283.947676"/>
    </g>
    <g clip-path="url(#p352e8b0ce9)">
     <use style="fill:#000080;fill-opacity:0.5;" x="422.673068" xlink:href="#C0_0_a2c4a1d547" y="347.97556"/>
    </g>
    <g clip-path="url(#p352e8b0ce9)">
     <use style="fill:#000080;fill-opacity:0.5;" x="308.392419" xlink:href="#C0_0_a2c4a1d547" y="341.922587"/>
    </g>
    <g clip-path="url(#p352e8b0ce9)">
     <use style="fill:#000080;fill-opacity:0.5;" x="442.576474" xlink:href="#C0_0_a2c4a1d547" y="380.445344"/>
    </g>
    <g clip-path="url(#p352e8b0ce9)">
     <use style="fill:#000080;fill-opacity:0.5;" x="449.531195" xlink:href="#C0_0_a2c4a1d547" y="327.255114"/>
    </g>
    <g clip-path="url(#p352e8b0ce9)">
     <use style="fill:#000080;fill-opacity:0.5;" x="346.405602" xlink:href="#C0_0_a2c4a1d547" y="324.188395"/>
    </g>
    <g clip-path="url(#p352e8b0ce9)">
     <use style="fill:#000080;fill-opacity:0.5;" x="611.335073" xlink:href="#C0_0_a2c4a1d547" y="382.771409"/>
    </g>
    <g clip-path="url(#p352e8b0ce9)">
     <use style="fill:#000080;fill-opacity:0.5;" x="611.964833" xlink:href="#C0_0_a2c4a1d547" y="388.262232"/>
    </g>
    <g clip-path="url(#p352e8b0ce9)">
     <use style="fill:#000080;fill-opacity:0.5;" x="470.620774" xlink:href="#C0_0_a2c4a1d547" y="373.380268"/>
    </g>
    <g clip-path="url(#p352e8b0ce9)">
     <use style="fill:#000080;fill-opacity:0.5;" x="412.649462" xlink:href="#C0_0_a2c4a1d547" y="356.25442"/>
    </g>
    <g clip-path="url(#p352e8b0ce9)">
     <use style="fill:#000080;fill-opacity:0.5;" x="371.279574" xlink:href="#C0_0_a2c4a1d547" y="320.562363"/>
    </g>
    <g clip-path="url(#p352e8b0ce9)">
     <use style="fill:#000080;fill-opacity:0.5;" x="434.969212" xlink:href="#C0_0_a2c4a1d547" y="360.723507"/>
    </g>
    <g clip-path="url(#p352e8b0ce9)">
     <use style="fill:#000080;fill-opacity:0.5;" x="383.911695" xlink:href="#C0_0_a2c4a1d547" y="363.39401"/>
    </g>
    <g clip-path="url(#p352e8b0ce9)">
     <use style="fill:#000080;fill-opacity:0.5;" x="378.821848" xlink:href="#C0_0_a2c4a1d547" y="352.209935"/>
    </g>
    <g clip-path="url(#p352e8b0ce9)">
     <use style="fill:#000080;fill-opacity:0.5;" x="346.95322" xlink:href="#C0_0_a2c4a1d547" y="363.077637"/>
    </g>
    <g clip-path="url(#p352e8b0ce9)">
     <use style="fill:#000080;fill-opacity:0.5;" x="253.533792" xlink:href="#C0_0_a2c4a1d547" y="298.261111"/>
    </g>
    <g clip-path="url(#p352e8b0ce9)">
     <use style="fill:#000080;fill-opacity:0.5;" x="527.988162" xlink:href="#C0_0_a2c4a1d547" y="303.770602"/>
    </g>
    <g clip-path="url(#p352e8b0ce9)">
     <use style="fill:#000080;fill-opacity:0.5;" x="383.494587" xlink:href="#C0_0_a2c4a1d547" y="380.695018"/>
    </g>
    <g clip-path="url(#p352e8b0ce9)">
     <use style="fill:#000080;fill-opacity:0.5;" x="616.952359" xlink:href="#C0_0_a2c4a1d547" y="329.010056"/>
    </g>
    <g clip-path="url(#p352e8b0ce9)">
     <use style="fill:#000080;fill-opacity:0.5;" x="630.463914" xlink:href="#C0_0_a2c4a1d547" y="347.978358"/>
    </g>
    <g clip-path="url(#p352e8b0ce9)">
     <use style="fill:#000080;fill-opacity:0.5;" x="421.306129" xlink:href="#C0_0_a2c4a1d547" y="392.905243"/>
    </g>
    <g clip-path="url(#p352e8b0ce9)">
     <use style="fill:#000080;fill-opacity:0.5;" x="382.969487" xlink:href="#C0_0_a2c4a1d547" y="390.133077"/>
    </g>
    <g clip-path="url(#p352e8b0ce9)">
     <use style="fill:#000080;fill-opacity:0.5;" x="585.859373" xlink:href="#C0_0_a2c4a1d547" y="382.820175"/>
    </g>
    <g clip-path="url(#p352e8b0ce9)">
     <use style="fill:#000080;fill-opacity:0.5;" x="422.518016" xlink:href="#C0_0_a2c4a1d547" y="317.899577"/>
    </g>
    <g clip-path="url(#p352e8b0ce9)">
     <use style="fill:#000080;fill-opacity:0.5;" x="437.371236" xlink:href="#C0_0_a2c4a1d547" y="361.617718"/>
    </g>
    <g clip-path="url(#p352e8b0ce9)">
     <use style="fill:#000080;fill-opacity:0.5;" x="402.607549" xlink:href="#C0_0_a2c4a1d547" y="325.118369"/>
    </g>
    <g clip-path="url(#p352e8b0ce9)">
     <use style="fill:#000080;fill-opacity:0.5;" x="477.287884" xlink:href="#C0_0_a2c4a1d547" y="318.882078"/>
    </g>
    <g clip-path="url(#p352e8b0ce9)">
     <use style="fill:#000080;fill-opacity:0.5;" x="435.962154" xlink:href="#C0_0_a2c4a1d547" y="317.398626"/>
    </g>
    <g clip-path="url(#p352e8b0ce9)">
     <use style="fill:#000080;fill-opacity:0.5;" x="398.417805" xlink:href="#C0_0_a2c4a1d547" y="317.468136"/>
    </g>
    <g clip-path="url(#p352e8b0ce9)">
     <use style="fill:#000080;fill-opacity:0.5;" x="331.022716" xlink:href="#C0_0_a2c4a1d547" y="298.123373"/>
    </g>
    <g clip-path="url(#p352e8b0ce9)">
     <use style="fill:#000080;fill-opacity:0.5;" x="376.072706" xlink:href="#C0_0_a2c4a1d547" y="320.712289"/>
    </g>
    <g clip-path="url(#p352e8b0ce9)">
     <use style="fill:#000080;fill-opacity:0.5;" x="256.913455" xlink:href="#C0_0_a2c4a1d547" y="295.223445"/>
    </g>
    <g clip-path="url(#p352e8b0ce9)">
     <use style="fill:#000080;fill-opacity:0.5;" x="275.312176" xlink:href="#C0_0_a2c4a1d547" y="296.879069"/>
    </g>
    <g clip-path="url(#p352e8b0ce9)">
     <use style="fill:#000080;fill-opacity:0.5;" x="517.796945" xlink:href="#C0_0_a2c4a1d547" y="320.562363"/>
    </g>
    <g clip-path="url(#p352e8b0ce9)">
     <use style="fill:#000080;fill-opacity:0.5;" x="421.511581" xlink:href="#C0_0_a2c4a1d547" y="295.185407"/>
    </g>
    <g clip-path="url(#p352e8b0ce9)">
     <use style="fill:#000080;fill-opacity:0.5;" x="608.425346" xlink:href="#C0_0_a2c4a1d547" y="357.710195"/>
    </g>
    <g clip-path="url(#p352e8b0ce9)">
     <use style="fill:#000080;fill-opacity:0.5;" x="305.415048" xlink:href="#C0_0_a2c4a1d547" y="313.561996"/>
    </g>
    <g clip-path="url(#p352e8b0ce9)">
     <use style="fill:#000080;fill-opacity:0.5;" x="297.229475" xlink:href="#C0_0_a2c4a1d547" y="296.711566"/>
    </g>
    <g clip-path="url(#p352e8b0ce9)">
     <use style="fill:#000080;fill-opacity:0.5;" x="422.872384" xlink:href="#C0_0_a2c4a1d547" y="338.265099"/>
    </g>
    <g clip-path="url(#p352e8b0ce9)">
     <use style="fill:#000080;fill-opacity:0.5;" x="473.116988" xlink:href="#C0_0_a2c4a1d547" y="363.801419"/>
    </g>
    <g clip-path="url(#p352e8b0ce9)">
     <use style="fill:#000080;fill-opacity:0.5;" x="444.785897" xlink:href="#C0_0_a2c4a1d547" y="335.309843"/>
    </g>
    <g clip-path="url(#p352e8b0ce9)">
     <use style="fill:#000080;fill-opacity:0.5;" x="385.501359" xlink:href="#C0_0_a2c4a1d547" y="306.955463"/>
    </g>
    <g clip-path="url(#p352e8b0ce9)">
     <use style="fill:#000080;fill-opacity:0.5;" x="407.141388" xlink:href="#C0_0_a2c4a1d547" y="336.73053"/>
    </g>
    <g clip-path="url(#p352e8b0ce9)">
     <use style="fill:#000080;fill-opacity:0.5;" x="282.805197" xlink:href="#C0_0_a2c4a1d547" y="304.888075"/>
    </g>
    <g clip-path="url(#p352e8b0ce9)">
     <use style="fill:#000080;fill-opacity:0.5;" x="469.083768" xlink:href="#C0_0_a2c4a1d547" y="353.097418"/>
    </g>
    <g clip-path="url(#p352e8b0ce9)">
     <use style="fill:#000080;fill-opacity:0.5;" x="388.323609" xlink:href="#C0_0_a2c4a1d547" y="346.757993"/>
    </g>
    <g clip-path="url(#p352e8b0ce9)">
     <use style="fill:#000080;fill-opacity:0.5;" x="310.088678" xlink:href="#C0_0_a2c4a1d547" y="318.607602"/>
    </g>
    <g clip-path="url(#p352e8b0ce9)">
     <use style="fill:#000080;fill-opacity:0.5;" x="409.121375" xlink:href="#C0_0_a2c4a1d547" y="312.375904"/>
    </g>
    <g clip-path="url(#p352e8b0ce9)">
     <use style="fill:#000080;fill-opacity:0.5;" x="481.635616" xlink:href="#C0_0_a2c4a1d547" y="374.370201"/>
    </g>
    <g clip-path="url(#p352e8b0ce9)">
     <use style="fill:#000080;fill-opacity:0.5;" x="422.886844" xlink:href="#C0_0_a2c4a1d547" y="336.935831"/>
    </g>
    <g clip-path="url(#p352e8b0ce9)">
     <use style="fill:#000080;fill-opacity:0.5;" x="409.677931" xlink:href="#C0_0_a2c4a1d547" y="383.634277"/>
    </g>
    <g clip-path="url(#p352e8b0ce9)">
     <use style="fill:#000080;fill-opacity:0.5;" x="397.283627" xlink:href="#C0_0_a2c4a1d547" y="326.9586"/>
    </g>
    <g clip-path="url(#p352e8b0ce9)">
     <use style="fill:#000080;fill-opacity:0.5;" x="552.885466" xlink:href="#C0_0_a2c4a1d547" y="376.144791"/>
    </g>
    <g clip-path="url(#p352e8b0ce9)">
     <use style="fill:#000080;fill-opacity:0.5;" x="463.204508" xlink:href="#C0_0_a2c4a1d547" y="363.186296"/>
    </g>
    <g clip-path="url(#p352e8b0ce9)">
     <use style="fill:#000080;fill-opacity:0.5;" x="595.463179" xlink:href="#C0_0_a2c4a1d547" y="377.434948"/>
    </g>
    <g clip-path="url(#p352e8b0ce9)">
     <use style="fill:#000080;fill-opacity:0.5;" x="535.295075" xlink:href="#C0_0_a2c4a1d547" y="379.597342"/>
    </g>
    <g clip-path="url(#p352e8b0ce9)">
     <use style="fill:#000080;fill-opacity:0.5;" x="435.495832" xlink:href="#C0_0_a2c4a1d547" y="338.785407"/>
    </g>
    <g clip-path="url(#p352e8b0ce9)">
     <use style="fill:#000080;fill-opacity:0.5;" x="352.477611" xlink:href="#C0_0_a2c4a1d547" y="326.785724"/>
    </g>
    <g clip-path="url(#p352e8b0ce9)">
     <use style="fill:#000080;fill-opacity:0.5;" x="431.107548" xlink:href="#C0_0_a2c4a1d547" y="339.406564"/>
    </g>
    <g clip-path="url(#p352e8b0ce9)">
     <use style="fill:#000080;fill-opacity:0.5;" x="339.872495" xlink:href="#C0_0_a2c4a1d547" y="333.61131"/>
    </g>
    <g clip-path="url(#p352e8b0ce9)">
     <use style="fill:#000080;fill-opacity:0.5;" x="491.294665" xlink:href="#C0_0_a2c4a1d547" y="343.752261"/>
    </g>
    <g clip-path="url(#p352e8b0ce9)">
     <use style="fill:#000080;fill-opacity:0.5;" x="427.867467" xlink:href="#C0_0_a2c4a1d547" y="295.340289"/>
    </g>
    <g clip-path="url(#p352e8b0ce9)">
     <use style="fill:#000080;fill-opacity:0.5;" x="490.392103" xlink:href="#C0_0_a2c4a1d547" y="378.674269"/>
    </g>
    <g clip-path="url(#p352e8b0ce9)">
     <use style="fill:#000080;fill-opacity:0.5;" x="455.394978" xlink:href="#C0_0_a2c4a1d547" y="333.889157"/>
    </g>
    <g clip-path="url(#p352e8b0ce9)">
     <use style="fill:#000080;fill-opacity:0.5;" x="420.337524" xlink:href="#C0_0_a2c4a1d547" y="336.170865"/>
    </g>
    <g clip-path="url(#p352e8b0ce9)">
     <use style="fill:#000080;fill-opacity:0.5;" x="398.929871" xlink:href="#C0_0_a2c4a1d547" y="347.870939"/>
    </g>
    <g clip-path="url(#p352e8b0ce9)">
     <use style="fill:#000080;fill-opacity:0.5;" x="393.184322" xlink:href="#C0_0_a2c4a1d547" y="313.999545"/>
    </g>
    <g clip-path="url(#p352e8b0ce9)">
     <use style="fill:#000080;fill-opacity:0.5;" x="376.10652" xlink:href="#C0_0_a2c4a1d547" y="375.680452"/>
    </g>
    <g clip-path="url(#p352e8b0ce9)">
     <use style="fill:#000080;fill-opacity:0.5;" x="339.142622" xlink:href="#C0_0_a2c4a1d547" y="300.877441"/>
    </g>
    <g clip-path="url(#p352e8b0ce9)">
     <use style="fill:#000080;fill-opacity:0.5;" x="236.670672" xlink:href="#C0_0_a2c4a1d547" y="304.633873"/>
    </g>
    <g clip-path="url(#p352e8b0ce9)">
     <use style="fill:#000080;fill-opacity:0.5;" x="313.723727" xlink:href="#C0_0_a2c4a1d547" y="328.960048"/>
    </g>
    <g clip-path="url(#p352e8b0ce9)">
     <use style="fill:#000080;fill-opacity:0.5;" x="413.402243" xlink:href="#C0_0_a2c4a1d547" y="323.13253"/>
    </g>
    <g clip-path="url(#p352e8b0ce9)">
     <use style="fill:#000080;fill-opacity:0.5;" x="341.905183" xlink:href="#C0_0_a2c4a1d547" y="277.159003"/>
    </g>
    <g clip-path="url(#p352e8b0ce9)">
     <use style="fill:#000080;fill-opacity:0.5;" x="405.114573" xlink:href="#C0_0_a2c4a1d547" y="322.139611"/>
    </g>
    <g clip-path="url(#p352e8b0ce9)">
     <use style="fill:#000080;fill-opacity:0.5;" x="458.182345" xlink:href="#C0_0_a2c4a1d547" y="332.65479"/>
    </g>
    <g clip-path="url(#p352e8b0ce9)">
     <use style="fill:#000080;fill-opacity:0.5;" x="483.428063" xlink:href="#C0_0_a2c4a1d547" y="367.910689"/>
    </g>
    <g clip-path="url(#p352e8b0ce9)">
     <use style="fill:#000080;fill-opacity:0.5;" x="435.996285" xlink:href="#C0_0_a2c4a1d547" y="398.314202"/>
    </g>
    <g clip-path="url(#p352e8b0ce9)">
     <use style="fill:#000080;fill-opacity:0.5;" x="531.017713" xlink:href="#C0_0_a2c4a1d547" y="378.9033"/>
    </g>
    <g clip-path="url(#p352e8b0ce9)">
     <use style="fill:#000080;fill-opacity:0.5;" x="400.807908" xlink:href="#C0_0_a2c4a1d547" y="348.948434"/>
    </g>
    <g clip-path="url(#p352e8b0ce9)">
     <use style="fill:#000080;fill-opacity:0.5;" x="402.01402" xlink:href="#C0_0_a2c4a1d547" y="341.122353"/>
    </g>
    <g clip-path="url(#p352e8b0ce9)">
     <use style="fill:#000080;fill-opacity:0.5;" x="420.787229" xlink:href="#C0_0_a2c4a1d547" y="356.690175"/>
    </g>
    <g clip-path="url(#p352e8b0ce9)">
     <use style="fill:#000080;fill-opacity:0.5;" x="362.124406" xlink:href="#C0_0_a2c4a1d547" y="333.205886"/>
    </g>
    <g clip-path="url(#p352e8b0ce9)">
     <use style="fill:#000080;fill-opacity:0.5;" x="466.600637" xlink:href="#C0_0_a2c4a1d547" y="307.28744"/>
    </g>
    <g clip-path="url(#p352e8b0ce9)">
     <use style="fill:#000080;fill-opacity:0.5;" x="386.334954" xlink:href="#C0_0_a2c4a1d547" y="322.880913"/>
    </g>
    <g clip-path="url(#p352e8b0ce9)">
     <use style="fill:#000080;fill-opacity:0.5;" x="444.465832" xlink:href="#C0_0_a2c4a1d547" y="366.937796"/>
    </g>
    <g clip-path="url(#p352e8b0ce9)">
     <use style="fill:#000080;fill-opacity:0.5;" x="415.275872" xlink:href="#C0_0_a2c4a1d547" y="317.734659"/>
    </g>
    <g clip-path="url(#p352e8b0ce9)">
     <use style="fill:#000080;fill-opacity:0.5;" x="358.974901" xlink:href="#C0_0_a2c4a1d547" y="341.83636"/>
    </g>
    <g clip-path="url(#p352e8b0ce9)">
     <use style="fill:#000080;fill-opacity:0.5;" x="430.369539" xlink:href="#C0_0_a2c4a1d547" y="344.016741"/>
    </g>
    <g clip-path="url(#p352e8b0ce9)">
     <use style="fill:#000080;fill-opacity:0.5;" x="387.185508" xlink:href="#C0_0_a2c4a1d547" y="353.441257"/>
    </g>
    <g clip-path="url(#p352e8b0ce9)">
     <use style="fill:#000080;fill-opacity:0.5;" x="509.580278" xlink:href="#C0_0_a2c4a1d547" y="372.111839"/>
    </g>
    <g clip-path="url(#p352e8b0ce9)">
     <use style="fill:#000080;fill-opacity:0.5;" x="380.660925" xlink:href="#C0_0_a2c4a1d547" y="325.235884"/>
    </g>
    <g clip-path="url(#p352e8b0ce9)">
     <use style="fill:#000080;fill-opacity:0.5;" x="617.659202" xlink:href="#C0_0_a2c4a1d547" y="344.251045"/>
    </g>
    <g clip-path="url(#p352e8b0ce9)">
     <use style="fill:#000080;fill-opacity:0.5;" x="391.529368" xlink:href="#C0_0_a2c4a1d547" y="281.76089"/>
    </g>
    <g clip-path="url(#p352e8b0ce9)">
     <use style="fill:#000080;fill-opacity:0.5;" x="555.572807" xlink:href="#C0_0_a2c4a1d547" y="313.660277"/>
    </g>
    <g clip-path="url(#p352e8b0ce9)">
     <use style="fill:#000080;fill-opacity:0.5;" x="357.456447" xlink:href="#C0_0_a2c4a1d547" y="304.904774"/>
    </g>
    <g clip-path="url(#p352e8b0ce9)">
     <use style="fill:#000080;fill-opacity:0.5;" x="412.38779" xlink:href="#C0_0_a2c4a1d547" y="305.328459"/>
    </g>
    <g clip-path="url(#p352e8b0ce9)">
     <use style="fill:#000080;fill-opacity:0.5;" x="458.638506" xlink:href="#C0_0_a2c4a1d547" y="375.902898"/>
    </g>
    <g clip-path="url(#p352e8b0ce9)">
     <use style="fill:#000080;fill-opacity:0.5;" x="487.377965" xlink:href="#C0_0_a2c4a1d547" y="370.944776"/>
    </g>
    <g clip-path="url(#p352e8b0ce9)">
     <use style="fill:#000080;fill-opacity:0.5;" x="428.184346" xlink:href="#C0_0_a2c4a1d547" y="362.547549"/>
    </g>
    <g clip-path="url(#p352e8b0ce9)">
     <use style="fill:#000080;fill-opacity:0.5;" x="440.428867" xlink:href="#C0_0_a2c4a1d547" y="289.34208"/>
    </g>
    <g clip-path="url(#p352e8b0ce9)">
     <use style="fill:#000080;fill-opacity:0.5;" x="395.417891" xlink:href="#C0_0_a2c4a1d547" y="332.536527"/>
    </g>
    <g clip-path="url(#p352e8b0ce9)">
     <use style="fill:#000080;fill-opacity:0.5;" x="652.123766" xlink:href="#C0_0_a2c4a1d547" y="351.605953"/>
    </g>
    <g clip-path="url(#p352e8b0ce9)">
     <use style="fill:#000080;fill-opacity:0.5;" x="372.194306" xlink:href="#C0_0_a2c4a1d547" y="360.570474"/>
    </g>
    <g clip-path="url(#p352e8b0ce9)">
     <use style="fill:#000080;fill-opacity:0.5;" x="280.711981" xlink:href="#C0_0_a2c4a1d547" y="291.172938"/>
    </g>
    <g clip-path="url(#p352e8b0ce9)">
     <use style="fill:#000080;fill-opacity:0.5;" x="452.678324" xlink:href="#C0_0_a2c4a1d547" y="330.877301"/>
    </g>
    <g clip-path="url(#p352e8b0ce9)">
     <use style="fill:#000080;fill-opacity:0.5;" x="438.133758" xlink:href="#C0_0_a2c4a1d547" y="310.814458"/>
    </g>
    <g clip-path="url(#p352e8b0ce9)">
     <use style="fill:#000080;fill-opacity:0.5;" x="479.002744" xlink:href="#C0_0_a2c4a1d547" y="338.576869"/>
    </g>
    <g clip-path="url(#p352e8b0ce9)">
     <use style="fill:#000080;fill-opacity:0.5;" x="420.551814" xlink:href="#C0_0_a2c4a1d547" y="323.671484"/>
    </g>
    <g clip-path="url(#p352e8b0ce9)">
     <use style="fill:#000080;fill-opacity:0.5;" x="440.229104" xlink:href="#C0_0_a2c4a1d547" y="329.39385"/>
    </g>
    <g clip-path="url(#p352e8b0ce9)">
     <use style="fill:#000080;fill-opacity:0.5;" x="471.989852" xlink:href="#C0_0_a2c4a1d547" y="343.848996"/>
    </g>
    <g clip-path="url(#p352e8b0ce9)">
     <use style="fill:#000080;fill-opacity:0.5;" x="425.527513" xlink:href="#C0_0_a2c4a1d547" y="343.530023"/>
    </g>
    <g clip-path="url(#p352e8b0ce9)">
     <use style="fill:#000080;fill-opacity:0.5;" x="334.552815" xlink:href="#C0_0_a2c4a1d547" y="282.018313"/>
    </g>
    <g clip-path="url(#p352e8b0ce9)">
     <use style="fill:#000080;fill-opacity:0.5;" x="453.317781" xlink:href="#C0_0_a2c4a1d547" y="321.511669"/>
    </g>
    <g clip-path="url(#p352e8b0ce9)">
     <use style="fill:#000080;fill-opacity:0.5;" x="634.121684" xlink:href="#C0_0_a2c4a1d547" y="344.556145"/>
    </g>
    <g clip-path="url(#p352e8b0ce9)">
     <use style="fill:#000080;fill-opacity:0.5;" x="494.270787" xlink:href="#C0_0_a2c4a1d547" y="377.223602"/>
    </g>
    <g clip-path="url(#p352e8b0ce9)">
     <use style="fill:#000080;fill-opacity:0.5;" x="556.029934" xlink:href="#C0_0_a2c4a1d547" y="397.290185"/>
    </g>
    <g clip-path="url(#p352e8b0ce9)">
     <use style="fill:#000080;fill-opacity:0.5;" x="356.860225" xlink:href="#C0_0_a2c4a1d547" y="350.847802"/>
    </g>
    <g clip-path="url(#p352e8b0ce9)">
     <use style="fill:#000080;fill-opacity:0.5;" x="577.723609" xlink:href="#C0_0_a2c4a1d547" y="365.898664"/>
    </g>
    <g clip-path="url(#p352e8b0ce9)">
     <use style="fill:#000080;fill-opacity:0.5;" x="548.721353" xlink:href="#C0_0_a2c4a1d547" y="382.648654"/>
    </g>
    <g clip-path="url(#p352e8b0ce9)">
     <use style="fill:#000080;fill-opacity:0.5;" x="377.018708" xlink:href="#C0_0_a2c4a1d547" y="342.413276"/>
    </g>
    <g clip-path="url(#p352e8b0ce9)">
     <use style="fill:#000080;fill-opacity:0.5;" x="414.6798" xlink:href="#C0_0_a2c4a1d547" y="306.530663"/>
    </g>
    <g clip-path="url(#p352e8b0ce9)">
     <use style="fill:#000080;fill-opacity:0.5;" x="363.434462" xlink:href="#C0_0_a2c4a1d547" y="345.117565"/>
    </g>
   </g>
   <g id="matplotlib.axis_1">
    <g id="xtick_1">
     <g id="line2d_1">
      <defs>
       <path d="M 0 0 
L 0 3.5 
" id="ma4d046af42" style="stroke:#000000;stroke-width:0.8;"/>
      </defs>
      <g>
       <use style="stroke:#000000;stroke-width:0.8;" x="204.693008" xlink:href="#ma4d046af42" y="732.96"/>
      </g>
     </g>
     <g id="text_1">
      <!-- 4 -->
      <defs>
       <path d="M 37.796875 64.3125 
L 12.890625 25.390625 
L 37.796875 25.390625 
z
M 35.203125 72.90625 
L 47.609375 72.90625 
L 47.609375 25.390625 
L 58.015625 25.390625 
L 58.015625 17.1875 
L 47.609375 17.1875 
L 47.609375 0 
L 37.796875 0 
L 37.796875 17.1875 
L 4.890625 17.1875 
L 4.890625 26.703125 
z
" id="DejaVuSans-34"/>
      </defs>
      <g transform="translate(191.331758 771.873437)scale(0.42 -0.42)">
       <use xlink:href="#DejaVuSans-34"/>
      </g>
     </g>
    </g>
    <g id="xtick_2">
     <g id="line2d_2">
      <g>
       <use style="stroke:#000000;stroke-width:0.8;" x="433.921478" xlink:href="#ma4d046af42" y="732.96"/>
      </g>
     </g>
     <g id="text_2">
      <!-- 5 -->
      <defs>
       <path d="M 10.796875 72.90625 
L 49.515625 72.90625 
L 49.515625 64.59375 
L 19.828125 64.59375 
L 19.828125 46.734375 
Q 21.96875 47.46875 24.109375 47.828125 
Q 26.265625 48.1875 28.421875 48.1875 
Q 40.625 48.1875 47.75 41.5 
Q 54.890625 34.8125 54.890625 23.390625 
Q 54.890625 11.625 47.5625 5.09375 
Q 40.234375 -1.421875 26.90625 -1.421875 
Q 22.3125 -1.421875 17.546875 -0.640625 
Q 12.796875 0.140625 7.71875 1.703125 
L 7.71875 11.625 
Q 12.109375 9.234375 16.796875 8.0625 
Q 21.484375 6.890625 26.703125 6.890625 
Q 35.15625 6.890625 40.078125 11.328125 
Q 45.015625 15.765625 45.015625 23.390625 
Q 45.015625 31 40.078125 35.4375 
Q 35.15625 39.890625 26.703125 39.890625 
Q 22.75 39.890625 18.8125 39.015625 
Q 14.890625 38.140625 10.796875 36.28125 
z
" id="DejaVuSans-35"/>
      </defs>
      <g transform="translate(420.560228 771.873437)scale(0.42 -0.42)">
       <use xlink:href="#DejaVuSans-35"/>
      </g>
     </g>
    </g>
    <g id="xtick_3">
     <g id="line2d_3">
      <g>
       <use style="stroke:#000000;stroke-width:0.8;" x="663.149947" xlink:href="#ma4d046af42" y="732.96"/>
      </g>
     </g>
     <g id="text_3">
      <!-- 6 -->
      <defs>
       <path d="M 33.015625 40.375 
Q 26.375 40.375 22.484375 35.828125 
Q 18.609375 31.296875 18.609375 23.390625 
Q 18.609375 15.53125 22.484375 10.953125 
Q 26.375 6.390625 33.015625 6.390625 
Q 39.65625 6.390625 43.53125 10.953125 
Q 47.40625 15.53125 47.40625 23.390625 
Q 47.40625 31.296875 43.53125 35.828125 
Q 39.65625 40.375 33.015625 40.375 
z
M 52.59375 71.296875 
L 52.59375 62.3125 
Q 48.875 64.0625 45.09375 64.984375 
Q 41.3125 65.921875 37.59375 65.921875 
Q 27.828125 65.921875 22.671875 59.328125 
Q 17.53125 52.734375 16.796875 39.40625 
Q 19.671875 43.65625 24.015625 45.921875 
Q 28.375 48.1875 33.59375 48.1875 
Q 44.578125 48.1875 50.953125 41.515625 
Q 57.328125 34.859375 57.328125 23.390625 
Q 57.328125 12.15625 50.6875 5.359375 
Q 44.046875 -1.421875 33.015625 -1.421875 
Q 20.359375 -1.421875 13.671875 8.265625 
Q 6.984375 17.96875 6.984375 36.375 
Q 6.984375 53.65625 15.1875 63.9375 
Q 23.390625 74.21875 37.203125 74.21875 
Q 40.921875 74.21875 44.703125 73.484375 
Q 48.484375 72.75 52.59375 71.296875 
z
" id="DejaVuSans-36"/>
      </defs>
      <g transform="translate(649.788697 771.873437)scale(0.42 -0.42)">
       <use xlink:href="#DejaVuSans-36"/>
      </g>
     </g>
    </g>
    <g id="text_4">
     <!-- log10 of total SJ reads in cell -->
     <defs>
      <path d="M 9.421875 75.984375 
L 18.40625 75.984375 
L 18.40625 0 
L 9.421875 0 
z
" id="DejaVuSans-6c"/>
      <path d="M 30.609375 48.390625 
Q 23.390625 48.390625 19.1875 42.75 
Q 14.984375 37.109375 14.984375 27.296875 
Q 14.984375 17.484375 19.15625 11.84375 
Q 23.34375 6.203125 30.609375 6.203125 
Q 37.796875 6.203125 41.984375 11.859375 
Q 46.1875 17.53125 46.1875 27.296875 
Q 46.1875 37.015625 41.984375 42.703125 
Q 37.796875 48.390625 30.609375 48.390625 
z
M 30.609375 56 
Q 42.328125 56 49.015625 48.375 
Q 55.71875 40.765625 55.71875 27.296875 
Q 55.71875 13.875 49.015625 6.21875 
Q 42.328125 -1.421875 30.609375 -1.421875 
Q 18.84375 -1.421875 12.171875 6.21875 
Q 5.515625 13.875 5.515625 27.296875 
Q 5.515625 40.765625 12.171875 48.375 
Q 18.84375 56 30.609375 56 
z
" id="DejaVuSans-6f"/>
      <path d="M 45.40625 27.984375 
Q 45.40625 37.75 41.375 43.109375 
Q 37.359375 48.484375 30.078125 48.484375 
Q 22.859375 48.484375 18.828125 43.109375 
Q 14.796875 37.75 14.796875 27.984375 
Q 14.796875 18.265625 18.828125 12.890625 
Q 22.859375 7.515625 30.078125 7.515625 
Q 37.359375 7.515625 41.375 12.890625 
Q 45.40625 18.265625 45.40625 27.984375 
z
M 54.390625 6.78125 
Q 54.390625 -7.171875 48.1875 -13.984375 
Q 42 -20.796875 29.203125 -20.796875 
Q 24.46875 -20.796875 20.265625 -20.09375 
Q 16.0625 -19.390625 12.109375 -17.921875 
L 12.109375 -9.1875 
Q 16.0625 -11.328125 19.921875 -12.34375 
Q 23.78125 -13.375 27.78125 -13.375 
Q 36.625 -13.375 41.015625 -8.765625 
Q 45.40625 -4.15625 45.40625 5.171875 
L 45.40625 9.625 
Q 42.625 4.78125 38.28125 2.390625 
Q 33.9375 0 27.875 0 
Q 17.828125 0 11.671875 7.65625 
Q 5.515625 15.328125 5.515625 27.984375 
Q 5.515625 40.671875 11.671875 48.328125 
Q 17.828125 56 27.875 56 
Q 33.9375 56 38.28125 53.609375 
Q 42.625 51.21875 45.40625 46.390625 
L 45.40625 54.6875 
L 54.390625 54.6875 
z
" id="DejaVuSans-67"/>
      <path d="M 12.40625 8.296875 
L 28.515625 8.296875 
L 28.515625 63.921875 
L 10.984375 60.40625 
L 10.984375 69.390625 
L 28.421875 72.90625 
L 38.28125 72.90625 
L 38.28125 8.296875 
L 54.390625 8.296875 
L 54.390625 0 
L 12.40625 0 
z
" id="DejaVuSans-31"/>
      <path d="M 31.78125 66.40625 
Q 24.171875 66.40625 20.328125 58.90625 
Q 16.5 51.421875 16.5 36.375 
Q 16.5 21.390625 20.328125 13.890625 
Q 24.171875 6.390625 31.78125 6.390625 
Q 39.453125 6.390625 43.28125 13.890625 
Q 47.125 21.390625 47.125 36.375 
Q 47.125 51.421875 43.28125 58.90625 
Q 39.453125 66.40625 31.78125 66.40625 
z
M 31.78125 74.21875 
Q 44.046875 74.21875 50.515625 64.515625 
Q 56.984375 54.828125 56.984375 36.375 
Q 56.984375 17.96875 50.515625 8.265625 
Q 44.046875 -1.421875 31.78125 -1.421875 
Q 19.53125 -1.421875 13.0625 8.265625 
Q 6.59375 17.96875 6.59375 36.375 
Q 6.59375 54.828125 13.0625 64.515625 
Q 19.53125 74.21875 31.78125 74.21875 
z
" id="DejaVuSans-30"/>
      <path id="DejaVuSans-20"/>
      <path d="M 37.109375 75.984375 
L 37.109375 68.5 
L 28.515625 68.5 
Q 23.6875 68.5 21.796875 66.546875 
Q 19.921875 64.59375 19.921875 59.515625 
L 19.921875 54.6875 
L 34.71875 54.6875 
L 34.71875 47.703125 
L 19.921875 47.703125 
L 19.921875 0 
L 10.890625 0 
L 10.890625 47.703125 
L 2.296875 47.703125 
L 2.296875 54.6875 
L 10.890625 54.6875 
L 10.890625 58.5 
Q 10.890625 67.625 15.140625 71.796875 
Q 19.390625 75.984375 28.609375 75.984375 
z
" id="DejaVuSans-66"/>
      <path d="M 18.3125 70.21875 
L 18.3125 54.6875 
L 36.8125 54.6875 
L 36.8125 47.703125 
L 18.3125 47.703125 
L 18.3125 18.015625 
Q 18.3125 11.328125 20.140625 9.421875 
Q 21.96875 7.515625 27.59375 7.515625 
L 36.8125 7.515625 
L 36.8125 0 
L 27.59375 0 
Q 17.1875 0 13.234375 3.875 
Q 9.28125 7.765625 9.28125 18.015625 
L 9.28125 47.703125 
L 2.6875 47.703125 
L 2.6875 54.6875 
L 9.28125 54.6875 
L 9.28125 70.21875 
z
" id="DejaVuSans-74"/>
      <path d="M 34.28125 27.484375 
Q 23.390625 27.484375 19.1875 25 
Q 14.984375 22.515625 14.984375 16.5 
Q 14.984375 11.71875 18.140625 8.90625 
Q 21.296875 6.109375 26.703125 6.109375 
Q 34.1875 6.109375 38.703125 11.40625 
Q 43.21875 16.703125 43.21875 25.484375 
L 43.21875 27.484375 
z
M 52.203125 31.203125 
L 52.203125 0 
L 43.21875 0 
L 43.21875 8.296875 
Q 40.140625 3.328125 35.546875 0.953125 
Q 30.953125 -1.421875 24.3125 -1.421875 
Q 15.921875 -1.421875 10.953125 3.296875 
Q 6 8.015625 6 15.921875 
Q 6 25.140625 12.171875 29.828125 
Q 18.359375 34.515625 30.609375 34.515625 
L 43.21875 34.515625 
L 43.21875 35.40625 
Q 43.21875 41.609375 39.140625 45 
Q 35.0625 48.390625 27.6875 48.390625 
Q 23 48.390625 18.546875 47.265625 
Q 14.109375 46.140625 10.015625 43.890625 
L 10.015625 52.203125 
Q 14.9375 54.109375 19.578125 55.046875 
Q 24.21875 56 28.609375 56 
Q 40.484375 56 46.34375 49.84375 
Q 52.203125 43.703125 52.203125 31.203125 
z
" id="DejaVuSans-61"/>
      <path d="M 53.515625 70.515625 
L 53.515625 60.890625 
Q 47.90625 63.578125 42.921875 64.890625 
Q 37.9375 66.21875 33.296875 66.21875 
Q 25.25 66.21875 20.875 63.09375 
Q 16.5 59.96875 16.5 54.203125 
Q 16.5 49.359375 19.40625 46.890625 
Q 22.3125 44.4375 30.421875 42.921875 
L 36.375 41.703125 
Q 47.40625 39.59375 52.65625 34.296875 
Q 57.90625 29 57.90625 20.125 
Q 57.90625 9.515625 50.796875 4.046875 
Q 43.703125 -1.421875 29.984375 -1.421875 
Q 24.8125 -1.421875 18.96875 -0.25 
Q 13.140625 0.921875 6.890625 3.21875 
L 6.890625 13.375 
Q 12.890625 10.015625 18.65625 8.296875 
Q 24.421875 6.59375 29.984375 6.59375 
Q 38.421875 6.59375 43.015625 9.90625 
Q 47.609375 13.234375 47.609375 19.390625 
Q 47.609375 24.75 44.3125 27.78125 
Q 41.015625 30.8125 33.5 32.328125 
L 27.484375 33.5 
Q 16.453125 35.6875 11.515625 40.375 
Q 6.59375 45.0625 6.59375 53.421875 
Q 6.59375 63.09375 13.40625 68.65625 
Q 20.21875 74.21875 32.171875 74.21875 
Q 37.3125 74.21875 42.625 73.28125 
Q 47.953125 72.359375 53.515625 70.515625 
z
" id="DejaVuSans-53"/>
      <path d="M 9.8125 72.90625 
L 19.671875 72.90625 
L 19.671875 5.078125 
Q 19.671875 -8.109375 14.671875 -14.0625 
Q 9.671875 -20.015625 -1.421875 -20.015625 
L -5.171875 -20.015625 
L -5.171875 -11.71875 
L -2.09375 -11.71875 
Q 4.4375 -11.71875 7.125 -8.046875 
Q 9.8125 -4.390625 9.8125 5.078125 
z
" id="DejaVuSans-4a"/>
      <path d="M 41.109375 46.296875 
Q 39.59375 47.171875 37.8125 47.578125 
Q 36.03125 48 33.890625 48 
Q 26.265625 48 22.1875 43.046875 
Q 18.109375 38.09375 18.109375 28.8125 
L 18.109375 0 
L 9.078125 0 
L 9.078125 54.6875 
L 18.109375 54.6875 
L 18.109375 46.1875 
Q 20.953125 51.171875 25.484375 53.578125 
Q 30.03125 56 36.53125 56 
Q 37.453125 56 38.578125 55.875 
Q 39.703125 55.765625 41.0625 55.515625 
z
" id="DejaVuSans-72"/>
      <path d="M 56.203125 29.59375 
L 56.203125 25.203125 
L 14.890625 25.203125 
Q 15.484375 15.921875 20.484375 11.0625 
Q 25.484375 6.203125 34.421875 6.203125 
Q 39.59375 6.203125 44.453125 7.46875 
Q 49.3125 8.734375 54.109375 11.28125 
L 54.109375 2.78125 
Q 49.265625 0.734375 44.1875 -0.34375 
Q 39.109375 -1.421875 33.890625 -1.421875 
Q 20.796875 -1.421875 13.15625 6.1875 
Q 5.515625 13.8125 5.515625 26.8125 
Q 5.515625 40.234375 12.765625 48.109375 
Q 20.015625 56 32.328125 56 
Q 43.359375 56 49.78125 48.890625 
Q 56.203125 41.796875 56.203125 29.59375 
z
M 47.21875 32.234375 
Q 47.125 39.59375 43.09375 43.984375 
Q 39.0625 48.390625 32.421875 48.390625 
Q 24.90625 48.390625 20.390625 44.140625 
Q 15.875 39.890625 15.1875 32.171875 
z
" id="DejaVuSans-65"/>
      <path d="M 45.40625 46.390625 
L 45.40625 75.984375 
L 54.390625 75.984375 
L 54.390625 0 
L 45.40625 0 
L 45.40625 8.203125 
Q 42.578125 3.328125 38.25 0.953125 
Q 33.9375 -1.421875 27.875 -1.421875 
Q 17.96875 -1.421875 11.734375 6.484375 
Q 5.515625 14.40625 5.515625 27.296875 
Q 5.515625 40.1875 11.734375 48.09375 
Q 17.96875 56 27.875 56 
Q 33.9375 56 38.25 53.625 
Q 42.578125 51.265625 45.40625 46.390625 
z
M 14.796875 27.296875 
Q 14.796875 17.390625 18.875 11.75 
Q 22.953125 6.109375 30.078125 6.109375 
Q 37.203125 6.109375 41.296875 11.75 
Q 45.40625 17.390625 45.40625 27.296875 
Q 45.40625 37.203125 41.296875 42.84375 
Q 37.203125 48.484375 30.078125 48.484375 
Q 22.953125 48.484375 18.875 42.84375 
Q 14.796875 37.203125 14.796875 27.296875 
z
" id="DejaVuSans-64"/>
      <path d="M 44.28125 53.078125 
L 44.28125 44.578125 
Q 40.484375 46.53125 36.375 47.5 
Q 32.28125 48.484375 27.875 48.484375 
Q 21.1875 48.484375 17.84375 46.4375 
Q 14.5 44.390625 14.5 40.28125 
Q 14.5 37.15625 16.890625 35.375 
Q 19.28125 33.59375 26.515625 31.984375 
L 29.59375 31.296875 
Q 39.15625 29.25 43.1875 25.515625 
Q 47.21875 21.78125 47.21875 15.09375 
Q 47.21875 7.46875 41.1875 3.015625 
Q 35.15625 -1.421875 24.609375 -1.421875 
Q 20.21875 -1.421875 15.453125 -0.5625 
Q 10.6875 0.296875 5.421875 2 
L 5.421875 11.28125 
Q 10.40625 8.6875 15.234375 7.390625 
Q 20.0625 6.109375 24.8125 6.109375 
Q 31.15625 6.109375 34.5625 8.28125 
Q 37.984375 10.453125 37.984375 14.40625 
Q 37.984375 18.0625 35.515625 20.015625 
Q 33.0625 21.96875 24.703125 23.78125 
L 21.578125 24.515625 
Q 13.234375 26.265625 9.515625 29.90625 
Q 5.8125 33.546875 5.8125 39.890625 
Q 5.8125 47.609375 11.28125 51.796875 
Q 16.75 56 26.8125 56 
Q 31.78125 56 36.171875 55.265625 
Q 40.578125 54.546875 44.28125 53.078125 
z
" id="DejaVuSans-73"/>
      <path d="M 9.421875 54.6875 
L 18.40625 54.6875 
L 18.40625 0 
L 9.421875 0 
z
M 9.421875 75.984375 
L 18.40625 75.984375 
L 18.40625 64.59375 
L 9.421875 64.59375 
z
" id="DejaVuSans-69"/>
      <path d="M 54.890625 33.015625 
L 54.890625 0 
L 45.90625 0 
L 45.90625 32.71875 
Q 45.90625 40.484375 42.875 44.328125 
Q 39.84375 48.1875 33.796875 48.1875 
Q 26.515625 48.1875 22.3125 43.546875 
Q 18.109375 38.921875 18.109375 30.90625 
L 18.109375 0 
L 9.078125 0 
L 9.078125 54.6875 
L 18.109375 54.6875 
L 18.109375 46.1875 
Q 21.34375 51.125 25.703125 53.5625 
Q 30.078125 56 35.796875 56 
Q 45.21875 56 50.046875 50.171875 
Q 54.890625 44.34375 54.890625 33.015625 
z
" id="DejaVuSans-6e"/>
      <path d="M 48.78125 52.59375 
L 48.78125 44.1875 
Q 44.96875 46.296875 41.140625 47.34375 
Q 37.3125 48.390625 33.40625 48.390625 
Q 24.65625 48.390625 19.8125 42.84375 
Q 14.984375 37.3125 14.984375 27.296875 
Q 14.984375 17.28125 19.8125 11.734375 
Q 24.65625 6.203125 33.40625 6.203125 
Q 37.3125 6.203125 41.140625 7.25 
Q 44.96875 8.296875 48.78125 10.40625 
L 48.78125 2.09375 
Q 45.015625 0.34375 40.984375 -0.53125 
Q 36.96875 -1.421875 32.421875 -1.421875 
Q 20.0625 -1.421875 12.78125 6.34375 
Q 5.515625 14.109375 5.515625 27.296875 
Q 5.515625 40.671875 12.859375 48.328125 
Q 20.21875 56 33.015625 56 
Q 37.15625 56 41.109375 55.140625 
Q 45.0625 54.296875 48.78125 52.59375 
z
" id="DejaVuSans-63"/>
     </defs>
     <g transform="translate(122.851905 816.521562)scale(0.42 -0.42)">
      <use xlink:href="#DejaVuSans-6c"/>
      <use x="27.783203" xlink:href="#DejaVuSans-6f"/>
      <use x="88.964844" xlink:href="#DejaVuSans-67"/>
      <use x="152.441406" xlink:href="#DejaVuSans-31"/>
      <use x="216.064453" xlink:href="#DejaVuSans-30"/>
      <use x="279.6875" xlink:href="#DejaVuSans-20"/>
      <use x="311.474609" xlink:href="#DejaVuSans-6f"/>
      <use x="372.65625" xlink:href="#DejaVuSans-66"/>
      <use x="407.861328" xlink:href="#DejaVuSans-20"/>
      <use x="439.648438" xlink:href="#DejaVuSans-74"/>
      <use x="478.857422" xlink:href="#DejaVuSans-6f"/>
      <use x="540.039062" xlink:href="#DejaVuSans-74"/>
      <use x="579.248047" xlink:href="#DejaVuSans-61"/>
      <use x="640.527344" xlink:href="#DejaVuSans-6c"/>
      <use x="668.310547" xlink:href="#DejaVuSans-20"/>
      <use x="700.097656" xlink:href="#DejaVuSans-53"/>
      <use x="763.574219" xlink:href="#DejaVuSans-4a"/>
      <use x="793.066406" xlink:href="#DejaVuSans-20"/>
      <use x="824.853516" xlink:href="#DejaVuSans-72"/>
      <use x="865.935547" xlink:href="#DejaVuSans-65"/>
      <use x="927.458984" xlink:href="#DejaVuSans-61"/>
      <use x="988.738281" xlink:href="#DejaVuSans-64"/>
      <use x="1052.214844" xlink:href="#DejaVuSans-73"/>
      <use x="1104.314453" xlink:href="#DejaVuSans-20"/>
      <use x="1136.101562" xlink:href="#DejaVuSans-69"/>
      <use x="1163.884766" xlink:href="#DejaVuSans-6e"/>
      <use x="1227.263672" xlink:href="#DejaVuSans-20"/>
      <use x="1259.050781" xlink:href="#DejaVuSans-63"/>
      <use x="1314.03125" xlink:href="#DejaVuSans-65"/>
      <use x="1375.554688" xlink:href="#DejaVuSans-6c"/>
      <use x="1403.337891" xlink:href="#DejaVuSans-6c"/>
     </g>
    </g>
   </g>
   <g id="matplotlib.axis_2">
    <g id="ytick_1">
     <g id="line2d_4">
      <defs>
       <path d="M 0 0 
L -3.5 0 
" id="m937afd02d9" style="stroke:#000000;stroke-width:0.8;"/>
      </defs>
      <g>
       <use style="stroke:#000000;stroke-width:0.8;" x="152.455625" xlink:href="#m937afd02d9" y="710.371084"/>
      </g>
     </g>
     <g id="text_5">
      <!-- 0.00 -->
      <defs>
       <path d="M 10.6875 12.40625 
L 21 12.40625 
L 21 0 
L 10.6875 0 
z
" id="DejaVuSans-2e"/>
      </defs>
      <g transform="translate(51.94 726.327803)scale(0.42 -0.42)">
       <use xlink:href="#DejaVuSans-30"/>
       <use x="63.623047" xlink:href="#DejaVuSans-2e"/>
       <use x="95.410156" xlink:href="#DejaVuSans-30"/>
       <use x="159.033203" xlink:href="#DejaVuSans-30"/>
      </g>
     </g>
    </g>
    <g id="ytick_2">
     <g id="line2d_5">
      <g>
       <use style="stroke:#000000;stroke-width:0.8;" x="152.455625" xlink:href="#m937afd02d9" y="597.426506"/>
      </g>
     </g>
     <g id="text_6">
      <!-- 0.25 -->
      <defs>
       <path d="M 19.1875 8.296875 
L 53.609375 8.296875 
L 53.609375 0 
L 7.328125 0 
L 7.328125 8.296875 
Q 12.9375 14.109375 22.625 23.890625 
Q 32.328125 33.6875 34.8125 36.53125 
Q 39.546875 41.84375 41.421875 45.53125 
Q 43.3125 49.21875 43.3125 52.78125 
Q 43.3125 58.59375 39.234375 62.25 
Q 35.15625 65.921875 28.609375 65.921875 
Q 23.96875 65.921875 18.8125 64.3125 
Q 13.671875 62.703125 7.8125 59.421875 
L 7.8125 69.390625 
Q 13.765625 71.78125 18.9375 73 
Q 24.125 74.21875 28.421875 74.21875 
Q 39.75 74.21875 46.484375 68.546875 
Q 53.21875 62.890625 53.21875 53.421875 
Q 53.21875 48.921875 51.53125 44.890625 
Q 49.859375 40.875 45.40625 35.40625 
Q 44.1875 33.984375 37.640625 27.21875 
Q 31.109375 20.453125 19.1875 8.296875 
z
" id="DejaVuSans-32"/>
      </defs>
      <g transform="translate(51.94 613.383225)scale(0.42 -0.42)">
       <use xlink:href="#DejaVuSans-30"/>
       <use x="63.623047" xlink:href="#DejaVuSans-2e"/>
       <use x="95.410156" xlink:href="#DejaVuSans-32"/>
       <use x="159.033203" xlink:href="#DejaVuSans-35"/>
      </g>
     </g>
    </g>
    <g id="ytick_3">
     <g id="line2d_6">
      <g>
       <use style="stroke:#000000;stroke-width:0.8;" x="152.455625" xlink:href="#m937afd02d9" y="484.481928"/>
      </g>
     </g>
     <g id="text_7">
      <!-- 0.50 -->
      <g transform="translate(51.94 500.438646)scale(0.42 -0.42)">
       <use xlink:href="#DejaVuSans-30"/>
       <use x="63.623047" xlink:href="#DejaVuSans-2e"/>
       <use x="95.410156" xlink:href="#DejaVuSans-35"/>
       <use x="159.033203" xlink:href="#DejaVuSans-30"/>
      </g>
     </g>
    </g>
    <g id="ytick_4">
     <g id="line2d_7">
      <g>
       <use style="stroke:#000000;stroke-width:0.8;" x="152.455625" xlink:href="#m937afd02d9" y="371.537349"/>
      </g>
     </g>
     <g id="text_8">
      <!-- 0.75 -->
      <defs>
       <path d="M 8.203125 72.90625 
L 55.078125 72.90625 
L 55.078125 68.703125 
L 28.609375 0 
L 18.3125 0 
L 43.21875 64.59375 
L 8.203125 64.59375 
z
" id="DejaVuSans-37"/>
      </defs>
      <g transform="translate(51.94 387.494068)scale(0.42 -0.42)">
       <use xlink:href="#DejaVuSans-30"/>
       <use x="63.623047" xlink:href="#DejaVuSans-2e"/>
       <use x="95.410156" xlink:href="#DejaVuSans-37"/>
       <use x="159.033203" xlink:href="#DejaVuSans-35"/>
      </g>
     </g>
    </g>
    <g id="ytick_5">
     <g id="line2d_8">
      <g>
       <use style="stroke:#000000;stroke-width:0.8;" x="152.455625" xlink:href="#m937afd02d9" y="258.592771"/>
      </g>
     </g>
     <g id="text_9">
      <!-- 1.00 -->
      <g transform="translate(51.94 274.54949)scale(0.42 -0.42)">
       <use xlink:href="#DejaVuSans-31"/>
       <use x="63.623047" xlink:href="#DejaVuSans-2e"/>
       <use x="95.410156" xlink:href="#DejaVuSans-30"/>
       <use x="159.033203" xlink:href="#DejaVuSans-30"/>
      </g>
     </g>
    </g>
    <g id="text_10">
     <!-- % exons with binary $\Psi$ -->
     <defs>
      <path d="M 72.703125 32.078125 
Q 68.453125 32.078125 66.03125 28.46875 
Q 63.625 24.859375 63.625 18.40625 
Q 63.625 12.0625 66.03125 8.421875 
Q 68.453125 4.78125 72.703125 4.78125 
Q 76.859375 4.78125 79.265625 8.421875 
Q 81.6875 12.0625 81.6875 18.40625 
Q 81.6875 24.8125 79.265625 28.4375 
Q 76.859375 32.078125 72.703125 32.078125 
z
M 72.703125 38.28125 
Q 80.421875 38.28125 84.953125 32.90625 
Q 89.5 27.546875 89.5 18.40625 
Q 89.5 9.28125 84.9375 3.921875 
Q 80.375 -1.421875 72.703125 -1.421875 
Q 64.890625 -1.421875 60.34375 3.921875 
Q 55.8125 9.28125 55.8125 18.40625 
Q 55.8125 27.59375 60.375 32.9375 
Q 64.9375 38.28125 72.703125 38.28125 
z
M 22.3125 68.015625 
Q 18.109375 68.015625 15.6875 64.375 
Q 13.28125 60.75 13.28125 54.390625 
Q 13.28125 47.953125 15.671875 44.328125 
Q 18.0625 40.71875 22.3125 40.71875 
Q 26.5625 40.71875 28.96875 44.328125 
Q 31.390625 47.953125 31.390625 54.390625 
Q 31.390625 60.6875 28.953125 64.34375 
Q 26.515625 68.015625 22.3125 68.015625 
z
M 66.40625 74.21875 
L 74.21875 74.21875 
L 28.609375 -1.421875 
L 20.796875 -1.421875 
z
M 22.3125 74.21875 
Q 30.03125 74.21875 34.609375 68.875 
Q 39.203125 63.53125 39.203125 54.390625 
Q 39.203125 45.171875 34.640625 39.84375 
Q 30.078125 34.515625 22.3125 34.515625 
Q 14.546875 34.515625 10.03125 39.859375 
Q 5.515625 45.21875 5.515625 54.390625 
Q 5.515625 63.484375 10.046875 68.84375 
Q 14.59375 74.21875 22.3125 74.21875 
z
" id="DejaVuSans-25"/>
      <path d="M 54.890625 54.6875 
L 35.109375 28.078125 
L 55.90625 0 
L 45.3125 0 
L 29.390625 21.484375 
L 13.484375 0 
L 2.875 0 
L 24.125 28.609375 
L 4.6875 54.6875 
L 15.28125 54.6875 
L 29.78125 35.203125 
L 44.28125 54.6875 
z
" id="DejaVuSans-78"/>
      <path d="M 4.203125 54.6875 
L 13.1875 54.6875 
L 24.421875 12.015625 
L 35.59375 54.6875 
L 46.1875 54.6875 
L 57.421875 12.015625 
L 68.609375 54.6875 
L 77.59375 54.6875 
L 63.28125 0 
L 52.6875 0 
L 40.921875 44.828125 
L 29.109375 0 
L 18.5 0 
z
" id="DejaVuSans-77"/>
      <path d="M 54.890625 33.015625 
L 54.890625 0 
L 45.90625 0 
L 45.90625 32.71875 
Q 45.90625 40.484375 42.875 44.328125 
Q 39.84375 48.1875 33.796875 48.1875 
Q 26.515625 48.1875 22.3125 43.546875 
Q 18.109375 38.921875 18.109375 30.90625 
L 18.109375 0 
L 9.078125 0 
L 9.078125 75.984375 
L 18.109375 75.984375 
L 18.109375 46.1875 
Q 21.34375 51.125 25.703125 53.5625 
Q 30.078125 56 35.796875 56 
Q 45.21875 56 50.046875 50.171875 
Q 54.890625 44.34375 54.890625 33.015625 
z
" id="DejaVuSans-68"/>
      <path d="M 48.6875 27.296875 
Q 48.6875 37.203125 44.609375 42.84375 
Q 40.53125 48.484375 33.40625 48.484375 
Q 26.265625 48.484375 22.1875 42.84375 
Q 18.109375 37.203125 18.109375 27.296875 
Q 18.109375 17.390625 22.1875 11.75 
Q 26.265625 6.109375 33.40625 6.109375 
Q 40.53125 6.109375 44.609375 11.75 
Q 48.6875 17.390625 48.6875 27.296875 
z
M 18.109375 46.390625 
Q 20.953125 51.265625 25.265625 53.625 
Q 29.59375 56 35.59375 56 
Q 45.5625 56 51.78125 48.09375 
Q 58.015625 40.1875 58.015625 27.296875 
Q 58.015625 14.40625 51.78125 6.484375 
Q 45.5625 -1.421875 35.59375 -1.421875 
Q 29.59375 -1.421875 25.265625 0.953125 
Q 20.953125 3.328125 18.109375 8.203125 
L 18.109375 0 
L 9.078125 0 
L 9.078125 75.984375 
L 18.109375 75.984375 
z
" id="DejaVuSans-62"/>
      <path d="M 32.171875 -5.078125 
Q 28.375 -14.84375 24.75 -17.8125 
Q 21.140625 -20.796875 15.09375 -20.796875 
L 7.90625 -20.796875 
L 7.90625 -13.28125 
L 13.1875 -13.28125 
Q 16.890625 -13.28125 18.9375 -11.515625 
Q 21 -9.765625 23.484375 -3.21875 
L 25.09375 0.875 
L 2.984375 54.6875 
L 12.5 54.6875 
L 29.59375 11.921875 
L 46.6875 54.6875 
L 56.203125 54.6875 
z
" id="DejaVuSans-79"/>
      <path d="M 72.40625 69 
L 72.40625 67.09375 
Q 69.796875 66.59375 68.75 63.34375 
Q 67.703125 60.09375 67.703125 56.703125 
Q 67.703125 55.203125 67.890625 52.203125 
Q 68.09375 49.203125 68.09375 47.703125 
Q 68.09375 40.59375 64.34375 35.796875 
Q 60.59375 31 55 29 
Q 49.40625 27 42.40625 27 
L 42.40625 11.09375 
Q 42.40625 5.296875 44.546875 3.6875 
Q 46.703125 2.09375 52.703125 1.90625 
L 52.703125 0 
L 22.09375 0 
L 22.09375 1.90625 
Q 28.59375 2.203125 30.390625 4.046875 
Q 32.203125 5.90625 32.203125 12.40625 
L 32.203125 27 
Q 25.203125 27 19.59375 29 
Q 14 31 10.25 35.796875 
Q 6.5 40.59375 6.5 47.703125 
Q 6.5 49.203125 6.703125 52.203125 
Q 6.90625 55.203125 6.90625 56.703125 
Q 6.90625 60.09375 5.84375 63.34375 
Q 4.796875 66.59375 2.203125 67.09375 
L 2.203125 69 
Q 17.703125 69 17.703125 50.90625 
Q 17.703125 47.59375 17.890625 45.09375 
Q 18.09375 42.59375 18.9375 39.75 
Q 19.796875 36.90625 21.140625 35.046875 
Q 22.5 33.203125 25.046875 31.953125 
Q 27.59375 30.703125 31.09375 30.703125 
L 32.203125 30.703125 
L 32.203125 56.203125 
Q 32.203125 61.09375 29.75 62.6875 
Q 27.296875 64.296875 22.09375 64.296875 
L 22.09375 66.203125 
L 52.703125 66.203125 
L 52.703125 64.296875 
Q 47.296875 64.296875 44.84375 62.796875 
Q 42.40625 61.296875 42.40625 56.203125 
L 42.40625 30.703125 
L 43.5 30.703125 
Q 47 30.703125 49.546875 31.953125 
Q 52.09375 33.203125 53.4375 35.046875 
Q 54.796875 36.90625 55.640625 39.75 
Q 56.5 42.59375 56.703125 45.09375 
Q 56.90625 47.59375 56.90625 50.90625 
Q 56.90625 69 72.40625 69 
z
" id="STIXGeneral-Regular-3a8"/>
     </defs>
     <g transform="translate(39.12 720.311928)rotate(-90)scale(0.42 -0.42)">
      <use transform="translate(0 0.015625)" xlink:href="#DejaVuSans-25"/>
      <use transform="translate(95.019531 0.015625)" xlink:href="#DejaVuSans-20"/>
      <use transform="translate(126.806641 0.015625)" xlink:href="#DejaVuSans-65"/>
      <use transform="translate(188.330078 0.015625)" xlink:href="#DejaVuSans-78"/>
      <use transform="translate(247.509766 0.015625)" xlink:href="#DejaVuSans-6f"/>
      <use transform="translate(308.691406 0.015625)" xlink:href="#DejaVuSans-6e"/>
      <use transform="translate(372.070312 0.015625)" xlink:href="#DejaVuSans-73"/>
      <use transform="translate(424.169922 0.015625)" xlink:href="#DejaVuSans-20"/>
      <use transform="translate(455.957031 0.015625)" xlink:href="#DejaVuSans-77"/>
      <use transform="translate(537.744141 0.015625)" xlink:href="#DejaVuSans-69"/>
      <use transform="translate(565.527344 0.015625)" xlink:href="#DejaVuSans-74"/>
      <use transform="translate(604.736328 0.015625)" xlink:href="#DejaVuSans-68"/>
      <use transform="translate(668.115234 0.015625)" xlink:href="#DejaVuSans-20"/>
      <use transform="translate(699.902344 0.015625)" xlink:href="#DejaVuSans-62"/>
      <use transform="translate(763.378906 0.015625)" xlink:href="#DejaVuSans-69"/>
      <use transform="translate(791.162109 0.015625)" xlink:href="#DejaVuSans-6e"/>
      <use transform="translate(854.541016 0.015625)" xlink:href="#DejaVuSans-61"/>
      <use transform="translate(915.820312 0.015625)" xlink:href="#DejaVuSans-72"/>
      <use transform="translate(956.933594 0.015625)" xlink:href="#DejaVuSans-79"/>
      <use transform="translate(1016.113281 0.015625)" xlink:href="#DejaVuSans-20"/>
      <use transform="translate(1047.900391 0.015625)" xlink:href="#STIXGeneral-Regular-3a8"/>
     </g>
    </g>
   </g>
   <g id="patch_3">
    <path d="M 152.455625 732.96 
L 152.455625 236.003855 
" style="fill:none;stroke:#000000;stroke-linecap:square;stroke-linejoin:miter;stroke-width:0.8;"/>
   </g>
   <g id="patch_4">
    <path d="M 152.455625 732.96 
L 694.320685 732.96 
" style="fill:none;stroke:#000000;stroke-linecap:square;stroke-linejoin:miter;stroke-width:0.8;"/>
   </g>
   <g id="text_11">
    <!-- R = -0.558 -->
    <defs>
     <path d="M 44.390625 34.1875 
Q 47.5625 33.109375 50.5625 29.59375 
Q 53.5625 26.078125 56.59375 19.921875 
L 66.609375 0 
L 56 0 
L 46.6875 18.703125 
Q 43.0625 26.03125 39.671875 28.421875 
Q 36.28125 30.8125 30.421875 30.8125 
L 19.671875 30.8125 
L 19.671875 0 
L 9.8125 0 
L 9.8125 72.90625 
L 32.078125 72.90625 
Q 44.578125 72.90625 50.734375 67.671875 
Q 56.890625 62.453125 56.890625 51.90625 
Q 56.890625 45.015625 53.6875 40.46875 
Q 50.484375 35.9375 44.390625 34.1875 
z
M 19.671875 64.796875 
L 19.671875 38.921875 
L 32.078125 38.921875 
Q 39.203125 38.921875 42.84375 42.21875 
Q 46.484375 45.515625 46.484375 51.90625 
Q 46.484375 58.296875 42.84375 61.546875 
Q 39.203125 64.796875 32.078125 64.796875 
z
" id="DejaVuSans-52"/>
     <path d="M 10.59375 45.40625 
L 73.1875 45.40625 
L 73.1875 37.203125 
L 10.59375 37.203125 
z
M 10.59375 25.484375 
L 73.1875 25.484375 
L 73.1875 17.1875 
L 10.59375 17.1875 
z
" id="DejaVuSans-3d"/>
     <path d="M 4.890625 31.390625 
L 31.203125 31.390625 
L 31.203125 23.390625 
L 4.890625 23.390625 
z
" id="DejaVuSans-2d"/>
     <path d="M 31.78125 34.625 
Q 24.75 34.625 20.71875 30.859375 
Q 16.703125 27.09375 16.703125 20.515625 
Q 16.703125 13.921875 20.71875 10.15625 
Q 24.75 6.390625 31.78125 6.390625 
Q 38.8125 6.390625 42.859375 10.171875 
Q 46.921875 13.96875 46.921875 20.515625 
Q 46.921875 27.09375 42.890625 30.859375 
Q 38.875 34.625 31.78125 34.625 
z
M 21.921875 38.8125 
Q 15.578125 40.375 12.03125 44.71875 
Q 8.5 49.078125 8.5 55.328125 
Q 8.5 64.0625 14.71875 69.140625 
Q 20.953125 74.21875 31.78125 74.21875 
Q 42.671875 74.21875 48.875 69.140625 
Q 55.078125 64.0625 55.078125 55.328125 
Q 55.078125 49.078125 51.53125 44.71875 
Q 48 40.375 41.703125 38.8125 
Q 48.828125 37.15625 52.796875 32.3125 
Q 56.78125 27.484375 56.78125 20.515625 
Q 56.78125 9.90625 50.3125 4.234375 
Q 43.84375 -1.421875 31.78125 -1.421875 
Q 19.734375 -1.421875 13.25 4.234375 
Q 6.78125 9.90625 6.78125 20.515625 
Q 6.78125 27.484375 10.78125 32.3125 
Q 14.796875 37.15625 21.921875 38.8125 
z
M 18.3125 54.390625 
Q 18.3125 48.734375 21.84375 45.5625 
Q 25.390625 42.390625 31.78125 42.390625 
Q 38.140625 42.390625 41.71875 45.5625 
Q 45.3125 48.734375 45.3125 54.390625 
Q 45.3125 60.0625 41.71875 63.234375 
Q 38.140625 66.40625 31.78125 66.40625 
Q 25.390625 66.40625 21.84375 63.234375 
Q 18.3125 60.0625 18.3125 54.390625 
z
" id="DejaVuSans-38"/>
    </defs>
    <g transform="translate(227.564659 651.928859)scale(0.42 -0.42)">
     <use xlink:href="#DejaVuSans-52"/>
     <use x="69.482422" xlink:href="#DejaVuSans-20"/>
     <use x="101.269531" xlink:href="#DejaVuSans-3d"/>
     <use x="185.058594" xlink:href="#DejaVuSans-20"/>
     <use x="216.845703" xlink:href="#DejaVuSans-2d"/>
     <use x="252.929688" xlink:href="#DejaVuSans-30"/>
     <use x="316.552734" xlink:href="#DejaVuSans-2e"/>
     <use x="348.339844" xlink:href="#DejaVuSans-35"/>
     <use x="411.962891" xlink:href="#DejaVuSans-35"/>
     <use x="475.585938" xlink:href="#DejaVuSans-38"/>
    </g>
   </g>
  </g>
  <g id="axes_2">
   <g id="patch_5">
    <path d="M 152.455625 227.988434 
L 694.320685 227.988434 
L 694.320685 67.68 
L 152.455625 67.68 
z
" style="fill:#ffffff;"/>
   </g>
   <g id="patch_6">
    <path clip-path="url(#p824a10e2b6)" d="M 177.085855 227.988434 
L 226.346315 227.988434 
L 226.346315 223.361928 
L 177.085855 223.361928 
z
" style="fill:#87ceeb;opacity:0.5;"/>
   </g>
   <g id="patch_7">
    <path clip-path="url(#p824a10e2b6)" d="M 226.346315 227.988434 
L 275.606775 227.988434 
L 275.606775 214.108916 
L 226.346315 214.108916 
z
" style="fill:#87ceeb;opacity:0.5;"/>
   </g>
   <g id="patch_8">
    <path clip-path="url(#p824a10e2b6)" d="M 275.606775 227.988434 
L 324.867235 227.988434 
L 324.867235 195.602892 
L 275.606775 195.602892 
z
" style="fill:#87ceeb;opacity:0.5;"/>
   </g>
   <g id="patch_9">
    <path clip-path="url(#p824a10e2b6)" d="M 324.867235 227.988434 
L 374.127695 227.988434 
L 374.127695 170.157108 
L 324.867235 170.157108 
z
" style="fill:#87ceeb;opacity:0.5;"/>
   </g>
   <g id="patch_10">
    <path clip-path="url(#p824a10e2b6)" d="M 374.127695 227.988434 
L 423.388155 227.988434 
L 423.388155 75.313735 
L 374.127695 75.313735 
z
" style="fill:#87ceeb;opacity:0.5;"/>
   </g>
   <g id="patch_11">
    <path clip-path="url(#p824a10e2b6)" d="M 423.388155 227.988434 
L 472.648615 227.988434 
L 472.648615 116.952289 
L 423.388155 116.952289 
z
" style="fill:#87ceeb;opacity:0.5;"/>
   </g>
   <g id="patch_12">
    <path clip-path="url(#p824a10e2b6)" d="M 472.648615 227.988434 
L 521.909075 227.988434 
L 521.909075 184.036627 
L 472.648615 184.036627 
z
" style="fill:#87ceeb;opacity:0.5;"/>
   </g>
   <g id="patch_13">
    <path clip-path="url(#p824a10e2b6)" d="M 521.909075 227.988434 
L 571.169535 227.988434 
L 571.169535 207.169157 
L 521.909075 207.169157 
z
" style="fill:#87ceeb;opacity:0.5;"/>
   </g>
   <g id="patch_14">
    <path clip-path="url(#p824a10e2b6)" d="M 571.169535 227.988434 
L 620.429995 227.988434 
L 620.429995 197.916145 
L 571.169535 197.916145 
z
" style="fill:#87ceeb;opacity:0.5;"/>
   </g>
   <g id="patch_15">
    <path clip-path="url(#p824a10e2b6)" d="M 620.429995 227.988434 
L 669.690455 227.988434 
L 669.690455 218.735422 
L 620.429995 218.735422 
z
" style="fill:#87ceeb;opacity:0.5;"/>
   </g>
   <g id="matplotlib.axis_3">
    <g id="xtick_4"/>
    <g id="xtick_5"/>
    <g id="xtick_6"/>
    <g id="xtick_7"/>
    <g id="xtick_8"/>
   </g>
   <g id="matplotlib.axis_4">
    <g id="ytick_6"/>
    <g id="ytick_7"/>
    <g id="ytick_8"/>
    <g id="ytick_9"/>
    <g id="ytick_10"/>
    <g id="ytick_11"/>
    <g id="ytick_12"/>
   </g>
  </g>
  <g id="axes_3">
   <g id="patch_16">
    <path d="M 703.060444 732.96 
L 877.855625 732.96 
L 877.855625 236.003855 
L 703.060444 236.003855 
z
" style="fill:#ffffff;"/>
   </g>
   <g id="patch_17">
    <path clip-path="url(#p5dac6fc3cf)" d="M 703.060444 421.786162 
L 710.987663 421.786162 
L 710.987663 406.401536 
L 703.060444 406.401536 
z
" style="fill:#87ceeb;opacity:0.5;"/>
   </g>
   <g id="patch_18">
    <path clip-path="url(#p5dac6fc3cf)" d="M 703.060444 406.401536 
L 714.951273 406.401536 
L 714.951273 391.016911 
L 703.060444 391.016911 
z
" style="fill:#87ceeb;opacity:0.5;"/>
   </g>
   <g id="patch_19">
    <path clip-path="url(#p5dac6fc3cf)" d="M 703.060444 391.016911 
L 806.114292 391.016911 
L 806.114292 375.632286 
L 703.060444 375.632286 
z
" style="fill:#87ceeb;opacity:0.5;"/>
   </g>
   <g id="patch_20">
    <path clip-path="url(#p5dac6fc3cf)" d="M 703.060444 375.632286 
L 798.187073 375.632286 
L 798.187073 360.247661 
L 703.060444 360.247661 
z
" style="fill:#87ceeb;opacity:0.5;"/>
   </g>
   <g id="patch_21">
    <path clip-path="url(#p5dac6fc3cf)" d="M 703.060444 360.247661 
L 786.296245 360.247661 
L 786.296245 344.863035 
L 703.060444 344.863035 
z
" style="fill:#87ceeb;opacity:0.5;"/>
   </g>
   <g id="patch_22">
    <path clip-path="url(#p5dac6fc3cf)" d="M 703.060444 344.863035 
L 869.532045 344.863035 
L 869.532045 329.47841 
L 703.060444 329.47841 
z
" style="fill:#87ceeb;opacity:0.5;"/>
   </g>
   <g id="patch_23">
    <path clip-path="url(#p5dac6fc3cf)" d="M 703.060444 329.47841 
L 845.750388 329.47841 
L 845.750388 314.093785 
L 703.060444 314.093785 
z
" style="fill:#87ceeb;opacity:0.5;"/>
   </g>
   <g id="patch_24">
    <path clip-path="url(#p5dac6fc3cf)" d="M 703.060444 314.093785 
L 825.93234 314.093785 
L 825.93234 298.709159 
L 703.060444 298.709159 
z
" style="fill:#87ceeb;opacity:0.5;"/>
   </g>
   <g id="patch_25">
    <path clip-path="url(#p5dac6fc3cf)" d="M 703.060444 298.709159 
L 766.478197 298.709159 
L 766.478197 283.324534 
L 703.060444 283.324534 
z
" style="fill:#87ceeb;opacity:0.5;"/>
   </g>
   <g id="patch_26">
    <path clip-path="url(#p5dac6fc3cf)" d="M 703.060444 283.324534 
L 722.878492 283.324534 
L 722.878492 267.939909 
L 703.060444 267.939909 
z
" style="fill:#87ceeb;opacity:0.5;"/>
   </g>
   <g id="matplotlib.axis_5">
    <g id="xtick_9"/>
    <g id="xtick_10"/>
    <g id="xtick_11"/>
    <g id="xtick_12"/>
    <g id="xtick_13"/>
   </g>
   <g id="matplotlib.axis_6">
    <g id="ytick_13"/>
    <g id="ytick_14"/>
    <g id="ytick_15"/>
    <g id="ytick_16"/>
    <g id="ytick_17"/>
    <g id="ytick_18"/>
   </g>
  </g>
  <g id="text_12">
   <!-- Song -->
   <g transform="translate(385.114063 39.113437)scale(0.42 -0.42)">
    <use xlink:href="#DejaVuSans-53"/>
    <use x="63.476562" xlink:href="#DejaVuSans-6f"/>
    <use x="124.658203" xlink:href="#DejaVuSans-6e"/>
    <use x="188.037109" xlink:href="#DejaVuSans-67"/>
   </g>
  </g>
 </g>
 <defs>
  <clipPath id="p352e8b0ce9">
   <rect height="496.956145" width="541.86506" x="152.455625" y="236.003855"/>
  </clipPath>
  <clipPath id="p824a10e2b6">
   <rect height="160.308434" width="541.86506" x="152.455625" y="67.68"/>
  </clipPath>
  <clipPath id="p5dac6fc3cf">
   <rect height="496.956145" width="174.795181" x="703.060444" y="236.003855"/>
  </clipPath>
 </defs>
</svg>
