<?xml version="1.0" encoding="utf-8" standalone="no"?>
<!DOCTYPE svg PUBLIC "-//W3C//DTD SVG 1.1//EN"
  "http://www.w3.org/Graphics/SVG/1.1/DTD/svg11.dtd">
<!-- Created with matplotlib (https://matplotlib.org/) -->
<svg height="368.935313pt" version="1.1" viewBox="0 0 1120.7425 368.935313" width="1120.7425pt" xmlns="http://www.w3.org/2000/svg" xmlns:xlink="http://www.w3.org/1999/xlink">
 <defs>
  <style type="text/css">
*{stroke-linecap:butt;stroke-linejoin:round;}
  </style>
 </defs>
 <g id="figure_1">
  <g id="patch_1">
   <path d="M 0 368.935313 
L 1120.7425 368.935313 
L 1120.7425 0 
L 0 0 
z
" style="fill:none;"/>
  </g>
  <g id="axes_1">
   <g id="patch_2">
    <path d="M 109.1425 295.037813 
L 433.1425 295.037813 
L 433.1425 17.837813 
L 109.1425 17.837813 
z
" style="fill:none;"/>
   </g>
   <g id="matplotlib.axis_1">
    <g id="xtick_1">
     <g id="line2d_1">
      <defs>
       <path d="M 0 0 
L 0 5 
" id="mc73c97878f" style="stroke:#000000;stroke-width:0.8;"/>
      </defs>
      <g>
       <use style="stroke:#000000;stroke-width:0.8;" x="123.869773" xlink:href="#mc73c97878f" y="295.037813"/>
      </g>
     </g>
     <g id="text_1">
      <!-- 1 -->
      <defs>
       <path d="M 12.40625 8.296875 
L 28.515625 8.296875 
L 28.515625 63.921875 
L 10.984375 60.40625 
L 10.984375 69.390625 
L 28.421875 72.90625 
L 38.28125 72.90625 
L 38.28125 8.296875 
L 54.390625 8.296875 
L 54.390625 0 
L 12.40625 0 
z
" id="DejaVuSans-49"/>
      </defs>
      <g transform="translate(114.962273 324.813438)scale(0.28 -0.28)">
       <use xlink:href="#DejaVuSans-49"/>
      </g>
     </g>
    </g>
    <g id="xtick_2">
     <g id="line2d_2">
      <g>
       <use style="stroke:#000000;stroke-width:0.8;" x="197.506136" xlink:href="#mc73c97878f" y="295.037813"/>
      </g>
     </g>
     <g id="text_2">
      <!-- 2 -->
      <defs>
       <path d="M 19.1875 8.296875 
L 53.609375 8.296875 
L 53.609375 0 
L 7.328125 0 
L 7.328125 8.296875 
Q 12.9375 14.109375 22.625 23.890625 
Q 32.328125 33.6875 34.8125 36.53125 
Q 39.546875 41.84375 41.421875 45.53125 
Q 43.3125 49.21875 43.3125 52.78125 
Q 43.3125 58.59375 39.234375 62.25 
Q 35.15625 65.921875 28.609375 65.921875 
Q 23.96875 65.921875 18.8125 64.3125 
Q 13.671875 62.703125 7.8125 59.421875 
L 7.8125 69.390625 
Q 13.765625 71.78125 18.9375 73 
Q 24.125 74.21875 28.421875 74.21875 
Q 39.75 74.21875 46.484375 68.546875 
Q 53.21875 62.890625 53.21875 53.421875 
Q 53.21875 48.921875 51.53125 44.890625 
Q 49.859375 40.875 45.40625 35.40625 
Q 44.1875 33.984375 37.640625 27.21875 
Q 31.109375 20.453125 19.1875 8.296875 
z
" id="DejaVuSans-50"/>
      </defs>
      <g transform="translate(188.598636 324.813438)scale(0.28 -0.28)">
       <use xlink:href="#DejaVuSans-50"/>
      </g>
     </g>
    </g>
    <g id="xtick_3">
     <g id="line2d_3">
      <g>
       <use style="stroke:#000000;stroke-width:0.8;" x="271.1425" xlink:href="#mc73c97878f" y="295.037813"/>
      </g>
     </g>
     <g id="text_3">
      <!-- 3 -->
      <defs>
       <path d="M 40.578125 39.3125 
Q 47.65625 37.796875 51.625 33 
Q 55.609375 28.21875 55.609375 21.1875 
Q 55.609375 10.40625 48.1875 4.484375 
Q 40.765625 -1.421875 27.09375 -1.421875 
Q 22.515625 -1.421875 17.65625 -0.515625 
Q 12.796875 0.390625 7.625 2.203125 
L 7.625 11.71875 
Q 11.71875 9.328125 16.59375 8.109375 
Q 21.484375 6.890625 26.8125 6.890625 
Q 36.078125 6.890625 40.9375 10.546875 
Q 45.796875 14.203125 45.796875 21.1875 
Q 45.796875 27.640625 41.28125 31.265625 
Q 36.765625 34.90625 28.71875 34.90625 
L 20.21875 34.90625 
L 20.21875 43.015625 
L 29.109375 43.015625 
Q 36.375 43.015625 40.234375 45.921875 
Q 44.09375 48.828125 44.09375 54.296875 
Q 44.09375 59.90625 40.109375 62.90625 
Q 36.140625 65.921875 28.71875 65.921875 
Q 24.65625 65.921875 20.015625 65.03125 
Q 15.375 64.15625 9.8125 62.3125 
L 9.8125 71.09375 
Q 15.4375 72.65625 20.34375 73.4375 
Q 25.25 74.21875 29.59375 74.21875 
Q 40.828125 74.21875 47.359375 69.109375 
Q 53.90625 64.015625 53.90625 55.328125 
Q 53.90625 49.265625 50.4375 45.09375 
Q 46.96875 40.921875 40.578125 39.3125 
z
" id="DejaVuSans-51"/>
      </defs>
      <g transform="translate(262.235 324.813438)scale(0.28 -0.28)">
       <use xlink:href="#DejaVuSans-51"/>
      </g>
     </g>
    </g>
    <g id="xtick_4">
     <g id="line2d_4">
      <g>
       <use style="stroke:#000000;stroke-width:0.8;" x="344.778864" xlink:href="#mc73c97878f" y="295.037813"/>
      </g>
     </g>
     <g id="text_4">
      <!-- 4 -->
      <defs>
       <path d="M 37.796875 64.3125 
L 12.890625 25.390625 
L 37.796875 25.390625 
z
M 35.203125 72.90625 
L 47.609375 72.90625 
L 47.609375 25.390625 
L 58.015625 25.390625 
L 58.015625 17.1875 
L 47.609375 17.1875 
L 47.609375 0 
L 37.796875 0 
L 37.796875 17.1875 
L 4.890625 17.1875 
L 4.890625 26.703125 
z
" id="DejaVuSans-52"/>
      </defs>
      <g transform="translate(335.871364 324.813438)scale(0.28 -0.28)">
       <use xlink:href="#DejaVuSans-52"/>
      </g>
     </g>
    </g>
    <g id="xtick_5">
     <g id="line2d_5">
      <g>
       <use style="stroke:#000000;stroke-width:0.8;" x="418.415227" xlink:href="#mc73c97878f" y="295.037813"/>
      </g>
     </g>
     <g id="text_5">
      <!-- 5 -->
      <defs>
       <path d="M 10.796875 72.90625 
L 49.515625 72.90625 
L 49.515625 64.59375 
L 19.828125 64.59375 
L 19.828125 46.734375 
Q 21.96875 47.46875 24.109375 47.828125 
Q 26.265625 48.1875 28.421875 48.1875 
Q 40.625 48.1875 47.75 41.5 
Q 54.890625 34.8125 54.890625 23.390625 
Q 54.890625 11.625 47.5625 5.09375 
Q 40.234375 -1.421875 26.90625 -1.421875 
Q 22.3125 -1.421875 17.546875 -0.640625 
Q 12.796875 0.140625 7.71875 1.703125 
L 7.71875 11.625 
Q 12.109375 9.234375 16.796875 8.0625 
Q 21.484375 6.890625 26.703125 6.890625 
Q 35.15625 6.890625 40.078125 11.328125 
Q 45.015625 15.765625 45.015625 23.390625 
Q 45.015625 31 40.078125 35.4375 
Q 35.15625 39.890625 26.703125 39.890625 
Q 22.75 39.890625 18.8125 39.015625 
Q 14.890625 38.140625 10.796875 36.28125 
z
" id="DejaVuSans-53"/>
      </defs>
      <g transform="translate(409.507727 324.813438)scale(0.28 -0.28)">
       <use xlink:href="#DejaVuSans-53"/>
      </g>
     </g>
    </g>
    <g id="text_6">
     <!-- -log10 p-value -->
     <defs>
      <path d="M 4.890625 31.390625 
L 31.203125 31.390625 
L 31.203125 23.390625 
L 4.890625 23.390625 
z
" id="DejaVuSans-45"/>
      <path d="M 9.421875 75.984375 
L 18.40625 75.984375 
L 18.40625 0 
L 9.421875 0 
z
" id="DejaVuSans-108"/>
      <path d="M 30.609375 48.390625 
Q 23.390625 48.390625 19.1875 42.75 
Q 14.984375 37.109375 14.984375 27.296875 
Q 14.984375 17.484375 19.15625 11.84375 
Q 23.34375 6.203125 30.609375 6.203125 
Q 37.796875 6.203125 41.984375 11.859375 
Q 46.1875 17.53125 46.1875 27.296875 
Q 46.1875 37.015625 41.984375 42.703125 
Q 37.796875 48.390625 30.609375 48.390625 
z
M 30.609375 56 
Q 42.328125 56 49.015625 48.375 
Q 55.71875 40.765625 55.71875 27.296875 
Q 55.71875 13.875 49.015625 6.21875 
Q 42.328125 -1.421875 30.609375 -1.421875 
Q 18.84375 -1.421875 12.171875 6.21875 
Q 5.515625 13.875 5.515625 27.296875 
Q 5.515625 40.765625 12.171875 48.375 
Q 18.84375 56 30.609375 56 
z
" id="DejaVuSans-111"/>
      <path d="M 45.40625 27.984375 
Q 45.40625 37.75 41.375 43.109375 
Q 37.359375 48.484375 30.078125 48.484375 
Q 22.859375 48.484375 18.828125 43.109375 
Q 14.796875 37.75 14.796875 27.984375 
Q 14.796875 18.265625 18.828125 12.890625 
Q 22.859375 7.515625 30.078125 7.515625 
Q 37.359375 7.515625 41.375 12.890625 
Q 45.40625 18.265625 45.40625 27.984375 
z
M 54.390625 6.78125 
Q 54.390625 -7.171875 48.1875 -13.984375 
Q 42 -20.796875 29.203125 -20.796875 
Q 24.46875 -20.796875 20.265625 -20.09375 
Q 16.0625 -19.390625 12.109375 -17.921875 
L 12.109375 -9.1875 
Q 16.0625 -11.328125 19.921875 -12.34375 
Q 23.78125 -13.375 27.78125 -13.375 
Q 36.625 -13.375 41.015625 -8.765625 
Q 45.40625 -4.15625 45.40625 5.171875 
L 45.40625 9.625 
Q 42.625 4.78125 38.28125 2.390625 
Q 33.9375 0 27.875 0 
Q 17.828125 0 11.671875 7.65625 
Q 5.515625 15.328125 5.515625 27.984375 
Q 5.515625 40.671875 11.671875 48.328125 
Q 17.828125 56 27.875 56 
Q 33.9375 56 38.28125 53.609375 
Q 42.625 51.21875 45.40625 46.390625 
L 45.40625 54.6875 
L 54.390625 54.6875 
z
" id="DejaVuSans-103"/>
      <path d="M 31.78125 66.40625 
Q 24.171875 66.40625 20.328125 58.90625 
Q 16.5 51.421875 16.5 36.375 
Q 16.5 21.390625 20.328125 13.890625 
Q 24.171875 6.390625 31.78125 6.390625 
Q 39.453125 6.390625 43.28125 13.890625 
Q 47.125 21.390625 47.125 36.375 
Q 47.125 51.421875 43.28125 58.90625 
Q 39.453125 66.40625 31.78125 66.40625 
z
M 31.78125 74.21875 
Q 44.046875 74.21875 50.515625 64.515625 
Q 56.984375 54.828125 56.984375 36.375 
Q 56.984375 17.96875 50.515625 8.265625 
Q 44.046875 -1.421875 31.78125 -1.421875 
Q 19.53125 -1.421875 13.0625 8.265625 
Q 6.59375 17.96875 6.59375 36.375 
Q 6.59375 54.828125 13.0625 64.515625 
Q 19.53125 74.21875 31.78125 74.21875 
z
" id="DejaVuSans-48"/>
      <path id="DejaVuSans-32"/>
      <path d="M 18.109375 8.203125 
L 18.109375 -20.796875 
L 9.078125 -20.796875 
L 9.078125 54.6875 
L 18.109375 54.6875 
L 18.109375 46.390625 
Q 20.953125 51.265625 25.265625 53.625 
Q 29.59375 56 35.59375 56 
Q 45.5625 56 51.78125 48.09375 
Q 58.015625 40.1875 58.015625 27.296875 
Q 58.015625 14.40625 51.78125 6.484375 
Q 45.5625 -1.421875 35.59375 -1.421875 
Q 29.59375 -1.421875 25.265625 0.953125 
Q 20.953125 3.328125 18.109375 8.203125 
z
M 48.6875 27.296875 
Q 48.6875 37.203125 44.609375 42.84375 
Q 40.53125 48.484375 33.40625 48.484375 
Q 26.265625 48.484375 22.1875 42.84375 
Q 18.109375 37.203125 18.109375 27.296875 
Q 18.109375 17.390625 22.1875 11.75 
Q 26.265625 6.109375 33.40625 6.109375 
Q 40.53125 6.109375 44.609375 11.75 
Q 48.6875 17.390625 48.6875 27.296875 
z
" id="DejaVuSans-112"/>
      <path d="M 2.984375 54.6875 
L 12.5 54.6875 
L 29.59375 8.796875 
L 46.6875 54.6875 
L 56.203125 54.6875 
L 35.6875 0 
L 23.484375 0 
z
" id="DejaVuSans-118"/>
      <path d="M 34.28125 27.484375 
Q 23.390625 27.484375 19.1875 25 
Q 14.984375 22.515625 14.984375 16.5 
Q 14.984375 11.71875 18.140625 8.90625 
Q 21.296875 6.109375 26.703125 6.109375 
Q 34.1875 6.109375 38.703125 11.40625 
Q 43.21875 16.703125 43.21875 25.484375 
L 43.21875 27.484375 
z
M 52.203125 31.203125 
L 52.203125 0 
L 43.21875 0 
L 43.21875 8.296875 
Q 40.140625 3.328125 35.546875 0.953125 
Q 30.953125 -1.421875 24.3125 -1.421875 
Q 15.921875 -1.421875 10.953125 3.296875 
Q 6 8.015625 6 15.921875 
Q 6 25.140625 12.171875 29.828125 
Q 18.359375 34.515625 30.609375 34.515625 
L 43.21875 34.515625 
L 43.21875 35.40625 
Q 43.21875 41.609375 39.140625 45 
Q 35.0625 48.390625 27.6875 48.390625 
Q 23 48.390625 18.546875 47.265625 
Q 14.109375 46.140625 10.015625 43.890625 
L 10.015625 52.203125 
Q 14.9375 54.109375 19.578125 55.046875 
Q 24.21875 56 28.609375 56 
Q 40.484375 56 46.34375 49.84375 
Q 52.203125 43.703125 52.203125 31.203125 
z
" id="DejaVuSans-97"/>
      <path d="M 8.5 21.578125 
L 8.5 54.6875 
L 17.484375 54.6875 
L 17.484375 21.921875 
Q 17.484375 14.15625 20.5 10.265625 
Q 23.53125 6.390625 29.59375 6.390625 
Q 36.859375 6.390625 41.078125 11.03125 
Q 45.3125 15.671875 45.3125 23.6875 
L 45.3125 54.6875 
L 54.296875 54.6875 
L 54.296875 0 
L 45.3125 0 
L 45.3125 8.40625 
Q 42.046875 3.421875 37.71875 1 
Q 33.40625 -1.421875 27.6875 -1.421875 
Q 18.265625 -1.421875 13.375 4.4375 
Q 8.5 10.296875 8.5 21.578125 
z
M 31.109375 56 
z
" id="DejaVuSans-117"/>
      <path d="M 56.203125 29.59375 
L 56.203125 25.203125 
L 14.890625 25.203125 
Q 15.484375 15.921875 20.484375 11.0625 
Q 25.484375 6.203125 34.421875 6.203125 
Q 39.59375 6.203125 44.453125 7.46875 
Q 49.3125 8.734375 54.109375 11.28125 
L 54.109375 2.78125 
Q 49.265625 0.734375 44.1875 -0.34375 
Q 39.109375 -1.421875 33.890625 -1.421875 
Q 20.796875 -1.421875 13.15625 6.1875 
Q 5.515625 13.8125 5.515625 26.8125 
Q 5.515625 40.234375 12.765625 48.109375 
Q 20.015625 56 32.328125 56 
Q 43.359375 56 49.78125 48.890625 
Q 56.203125 41.796875 56.203125 29.59375 
z
M 47.21875 32.234375 
Q 47.125 39.59375 43.09375 43.984375 
Q 39.0625 48.390625 32.421875 48.390625 
Q 24.90625 48.390625 20.390625 44.140625 
Q 15.875 39.890625 15.1875 32.171875 
z
" id="DejaVuSans-101"/>
     </defs>
     <g transform="translate(170.3075 355.912188)scale(0.28 -0.28)">
      <use xlink:href="#DejaVuSans-45"/>
      <use x="36.083984" xlink:href="#DejaVuSans-108"/>
      <use x="63.867188" xlink:href="#DejaVuSans-111"/>
      <use x="125.048828" xlink:href="#DejaVuSans-103"/>
      <use x="188.525391" xlink:href="#DejaVuSans-49"/>
      <use x="252.148438" xlink:href="#DejaVuSans-48"/>
      <use x="315.771484" xlink:href="#DejaVuSans-32"/>
      <use x="347.558594" xlink:href="#DejaVuSans-112"/>
      <use x="411.035156" xlink:href="#DejaVuSans-45"/>
      <use x="447.087891" xlink:href="#DejaVuSans-118"/>
      <use x="506.267578" xlink:href="#DejaVuSans-97"/>
      <use x="567.546875" xlink:href="#DejaVuSans-108"/>
      <use x="595.330078" xlink:href="#DejaVuSans-117"/>
      <use x="658.708984" xlink:href="#DejaVuSans-101"/>
     </g>
    </g>
   </g>
   <g id="matplotlib.axis_2">
    <g id="ytick_1">
     <g id="line2d_6">
      <defs>
       <path d="M 0 0 
L -5 0 
" id="mbfd42c94c2" style="stroke:#000000;stroke-width:0.8;"/>
      </defs>
      <g>
       <use style="stroke:#000000;stroke-width:0.8;" x="109.1425" xlink:href="#mbfd42c94c2" y="295.037813"/>
      </g>
     </g>
     <g id="text_7">
      <!-- 0.00 -->
      <defs>
       <path d="M 10.6875 12.40625 
L 21 12.40625 
L 21 0 
L 10.6875 0 
z
" id="DejaVuSans-46"/>
      </defs>
      <g transform="translate(38.29875 305.675625)scale(0.28 -0.28)">
       <use xlink:href="#DejaVuSans-48"/>
       <use x="63.623047" xlink:href="#DejaVuSans-46"/>
       <use x="95.410156" xlink:href="#DejaVuSans-48"/>
       <use x="159.033203" xlink:href="#DejaVuSans-48"/>
      </g>
     </g>
    </g>
    <g id="ytick_2">
     <g id="line2d_7">
      <g>
       <use style="stroke:#000000;stroke-width:0.8;" x="109.1425" xlink:href="#mbfd42c94c2" y="225.737813"/>
      </g>
     </g>
     <g id="text_8">
      <!-- 0.25 -->
      <g transform="translate(38.29875 236.375625)scale(0.28 -0.28)">
       <use xlink:href="#DejaVuSans-48"/>
       <use x="63.623047" xlink:href="#DejaVuSans-46"/>
       <use x="95.410156" xlink:href="#DejaVuSans-50"/>
       <use x="159.033203" xlink:href="#DejaVuSans-53"/>
      </g>
     </g>
    </g>
    <g id="ytick_3">
     <g id="line2d_8">
      <g>
       <use style="stroke:#000000;stroke-width:0.8;" x="109.1425" xlink:href="#mbfd42c94c2" y="156.437813"/>
      </g>
     </g>
     <g id="text_9">
      <!-- 0.50 -->
      <g transform="translate(38.29875 167.075625)scale(0.28 -0.28)">
       <use xlink:href="#DejaVuSans-48"/>
       <use x="63.623047" xlink:href="#DejaVuSans-46"/>
       <use x="95.410156" xlink:href="#DejaVuSans-53"/>
       <use x="159.033203" xlink:href="#DejaVuSans-48"/>
      </g>
     </g>
    </g>
    <g id="ytick_4">
     <g id="line2d_9">
      <g>
       <use style="stroke:#000000;stroke-width:0.8;" x="109.1425" xlink:href="#mbfd42c94c2" y="87.137813"/>
      </g>
     </g>
     <g id="text_10">
      <!-- 0.75 -->
      <defs>
       <path d="M 8.203125 72.90625 
L 55.078125 72.90625 
L 55.078125 68.703125 
L 28.609375 0 
L 18.3125 0 
L 43.21875 64.59375 
L 8.203125 64.59375 
z
" id="DejaVuSans-55"/>
      </defs>
      <g transform="translate(38.29875 97.775625)scale(0.28 -0.28)">
       <use xlink:href="#DejaVuSans-48"/>
       <use x="63.623047" xlink:href="#DejaVuSans-46"/>
       <use x="95.410156" xlink:href="#DejaVuSans-55"/>
       <use x="159.033203" xlink:href="#DejaVuSans-53"/>
      </g>
     </g>
    </g>
    <g id="ytick_5">
     <g id="line2d_10">
      <g>
       <use style="stroke:#000000;stroke-width:0.8;" x="109.1425" xlink:href="#mbfd42c94c2" y="17.837813"/>
      </g>
     </g>
     <g id="text_11">
      <!-- 1.00 -->
      <g transform="translate(38.29875 28.475625)scale(0.28 -0.28)">
       <use xlink:href="#DejaVuSans-49"/>
       <use x="63.623047" xlink:href="#DejaVuSans-46"/>
       <use x="95.410156" xlink:href="#DejaVuSans-48"/>
       <use x="159.033203" xlink:href="#DejaVuSans-48"/>
      </g>
     </g>
    </g>
    <g id="text_12">
     <!-- Accuracy -->
     <defs>
      <path d="M 34.1875 63.1875 
L 20.796875 26.90625 
L 47.609375 26.90625 
z
M 28.609375 72.90625 
L 39.796875 72.90625 
L 67.578125 0 
L 57.328125 0 
L 50.6875 18.703125 
L 17.828125 18.703125 
L 11.1875 0 
L 0.78125 0 
z
" id="DejaVuSans-65"/>
      <path d="M 48.78125 52.59375 
L 48.78125 44.1875 
Q 44.96875 46.296875 41.140625 47.34375 
Q 37.3125 48.390625 33.40625 48.390625 
Q 24.65625 48.390625 19.8125 42.84375 
Q 14.984375 37.3125 14.984375 27.296875 
Q 14.984375 17.28125 19.8125 11.734375 
Q 24.65625 6.203125 33.40625 6.203125 
Q 37.3125 6.203125 41.140625 7.25 
Q 44.96875 8.296875 48.78125 10.40625 
L 48.78125 2.09375 
Q 45.015625 0.34375 40.984375 -0.53125 
Q 36.96875 -1.421875 32.421875 -1.421875 
Q 20.0625 -1.421875 12.78125 6.34375 
Q 5.515625 14.109375 5.515625 27.296875 
Q 5.515625 40.671875 12.859375 48.328125 
Q 20.21875 56 33.015625 56 
Q 37.15625 56 41.109375 55.140625 
Q 45.0625 54.296875 48.78125 52.59375 
z
" id="DejaVuSans-99"/>
      <path d="M 41.109375 46.296875 
Q 39.59375 47.171875 37.8125 47.578125 
Q 36.03125 48 33.890625 48 
Q 26.265625 48 22.1875 43.046875 
Q 18.109375 38.09375 18.109375 28.8125 
L 18.109375 0 
L 9.078125 0 
L 9.078125 54.6875 
L 18.109375 54.6875 
L 18.109375 46.1875 
Q 20.953125 51.171875 25.484375 53.578125 
Q 30.03125 56 36.53125 56 
Q 37.453125 56 38.578125 55.875 
Q 39.703125 55.765625 41.0625 55.515625 
z
" id="DejaVuSans-114"/>
      <path d="M 32.171875 -5.078125 
Q 28.375 -14.84375 24.75 -17.8125 
Q 21.140625 -20.796875 15.09375 -20.796875 
L 7.90625 -20.796875 
L 7.90625 -13.28125 
L 13.1875 -13.28125 
Q 16.890625 -13.28125 18.9375 -11.515625 
Q 21 -9.765625 23.484375 -3.21875 
L 25.09375 0.875 
L 2.984375 54.6875 
L 12.5 54.6875 
L 29.59375 11.921875 
L 46.6875 54.6875 
L 56.203125 54.6875 
z
" id="DejaVuSans-121"/>
     </defs>
     <g transform="translate(28.475625 220.599375)rotate(-90)scale(0.28 -0.28)">
      <use xlink:href="#DejaVuSans-65"/>
      <use x="68.392578" xlink:href="#DejaVuSans-99"/>
      <use x="123.373047" xlink:href="#DejaVuSans-99"/>
      <use x="178.353516" xlink:href="#DejaVuSans-117"/>
      <use x="241.732422" xlink:href="#DejaVuSans-114"/>
      <use x="282.845703" xlink:href="#DejaVuSans-97"/>
      <use x="344.125" xlink:href="#DejaVuSans-99"/>
      <use x="399.105469" xlink:href="#DejaVuSans-121"/>
     </g>
    </g>
   </g>
   <g id="line2d_11">
    <path clip-path="url(#p5f93be965a)" d="M 123.869773 179.964871 
L 127.551591 177.63546 
L 131.233409 173.908401 
L 134.915227 172.510754 
L 138.597045 167.85193 
L 142.278864 163.658989 
L 145.960682 160.863695 
L 149.6425 157.602518 
L 153.324318 155.738989 
L 157.006136 152.01193 
L 160.687955 150.614283 
L 164.369773 148.284871 
L 168.051591 145.95546 
L 171.733409 142.228401 
L 175.415227 139.433107 
L 179.097045 138.03546 
L 182.778864 136.637813 
L 186.460682 133.842518 
L 190.1425 131.978989 
L 193.824318 130.11546 
L 197.506136 129.649577 
L 201.187955 127.786048 
L 204.869773 125.922518 
L 208.551591 124.058989 
L 212.233409 123.127224 
L 215.915227 121.729577 
L 219.597045 119.400165 
L 223.278864 117.536636 
L 226.960682 116.138989 
L 230.6425 113.809577 
L 234.324318 113.343695 
L 238.006136 111.946048 
L 241.687955 111.480165 
L 245.369773 110.082518 
L 249.051591 109.616636 
L 252.733409 106.35546 
L 256.415227 104.49193 
L 260.097045 103.094283 
L 263.778864 102.162518 
L 267.460682 100.764871 
L 271.1425 99.367224 
L 274.824318 97.969577 
L 278.506136 97.503695 
L 282.187955 96.57193 
L 285.869773 96.106048 
L 289.551591 96.106048 
L 293.233409 95.640165 
L 296.915227 95.640165 
L 300.597045 95.174283 
L 304.278864 96.106048 
L 307.960682 95.174283 
L 311.6425 94.242518 
L 315.324318 93.776636 
L 319.006136 93.310754 
L 322.687955 91.447224 
L 326.369773 91.447224 
L 330.051591 89.583695 
L 333.733409 89.583695 
L 337.415227 89.117813 
L 341.097045 88.65193 
L 344.778864 88.186048 
L 348.460682 88.186048 
L 352.1425 87.254283 
L 355.824318 86.322518 
L 359.506136 86.322518 
L 363.187955 84.458989 
L 366.869773 83.993107 
L 370.551591 83.993107 
L 374.233409 82.59546 
L 377.915227 82.59546 
L 381.597045 82.129577 
L 385.278864 81.663695 
L 388.960682 80.266048 
L 392.6425 80.266048 
L 396.324318 78.868401 
L 400.006136 79.334283 
L 403.687955 79.334283 
L 407.369773 79.800165 
L 411.051591 79.800165 
L 414.733409 79.800165 
L 418.415227 79.334283 
" style="fill:none;stroke:#8b0000;stroke-linecap:square;stroke-width:2;"/>
   </g>
   <g id="line2d_12">
    <path clip-path="url(#p5f93be965a)" d="M 123.869773 148.284871 
L 127.551591 146.887224 
L 131.233409 145.023695 
L 134.915227 144.557813 
L 138.597045 142.694283 
L 142.278864 138.501342 
L 145.960682 135.706048 
L 149.6425 132.444871 
L 153.324318 131.513107 
L 157.006136 128.717813 
L 160.687955 128.25193 
L 164.369773 125.922518 
L 168.051591 124.524871 
L 171.733409 122.661342 
L 175.415227 121.729577 
L 179.097045 120.33193 
L 182.778864 119.866048 
L 186.460682 118.002518 
L 190.1425 117.070754 
L 193.824318 116.138989 
L 197.506136 115.673107 
L 201.187955 113.809577 
L 204.869773 113.809577 
L 208.551591 111.946048 
L 212.233409 111.014283 
L 215.915227 110.548401 
L 219.597045 109.150754 
L 223.278864 108.218989 
L 226.960682 107.753107 
L 230.6425 108.218989 
L 234.324318 107.753107 
L 238.006136 107.287224 
L 241.687955 107.753107 
L 245.369773 107.287224 
L 249.051591 106.821342 
L 252.733409 105.423695 
L 256.415227 104.49193 
L 260.097045 105.889577 
L 263.778864 106.821342 
L 267.460682 107.287224 
L 271.1425 107.753107 
L 274.824318 109.150754 
L 278.506136 108.684871 
L 282.187955 108.684871 
L 285.869773 108.218989 
L 289.551591 108.218989 
L 293.233409 108.684871 
L 296.915227 108.684871 
L 300.597045 109.150754 
L 304.278864 110.082518 
L 307.960682 111.014283 
L 311.6425 111.014283 
L 315.324318 110.548401 
L 319.006136 110.082518 
L 322.687955 108.218989 
L 326.369773 108.218989 
L 330.051591 111.014283 
L 333.733409 111.014283 
L 337.415227 110.548401 
L 341.097045 110.082518 
L 344.778864 109.616636 
L 348.460682 109.616636 
L 352.1425 109.616636 
L 355.824318 108.684871 
L 359.506136 108.684871 
L 363.187955 106.821342 
L 366.869773 106.35546 
L 370.551591 106.35546 
L 374.233409 105.889577 
L 377.915227 105.889577 
L 381.597045 105.423695 
L 385.278864 105.889577 
L 388.960682 105.423695 
L 392.6425 105.423695 
L 396.324318 105.889577 
L 400.006136 106.35546 
L 403.687955 106.35546 
L 407.369773 106.821342 
L 411.051591 107.753107 
L 414.733409 107.753107 
L 418.415227 108.218989 
" style="fill:none;stroke:#000080;stroke-linecap:square;stroke-width:2;"/>
   </g>
   <g id="patch_3">
    <path d="M 109.1425 295.037813 
L 109.1425 17.837813 
" style="fill:none;stroke:#000000;stroke-linecap:square;stroke-linejoin:miter;stroke-width:0.8;"/>
   </g>
   <g id="patch_4">
    <path d="M 109.1425 295.037813 
L 433.1425 295.037813 
" style="fill:none;stroke:#000000;stroke-linecap:square;stroke-linejoin:miter;stroke-width:0.8;"/>
   </g>
  </g>
  <g id="axes_2">
   <g id="patch_5">
    <path d="M 449.3425 295.037813 
L 773.3425 295.037813 
L 773.3425 17.837813 
L 449.3425 17.837813 
z
" style="fill:none;"/>
   </g>
   <g id="matplotlib.axis_3">
    <g id="xtick_6">
     <g id="line2d_13">
      <g>
       <use style="stroke:#000000;stroke-width:0.8;" x="464.069773" xlink:href="#mc73c97878f" y="295.037813"/>
      </g>
     </g>
     <g id="text_13">
      <!-- 1 -->
      <g transform="translate(455.162273 324.813438)scale(0.28 -0.28)">
       <use xlink:href="#DejaVuSans-49"/>
      </g>
     </g>
    </g>
    <g id="xtick_7">
     <g id="line2d_14">
      <g>
       <use style="stroke:#000000;stroke-width:0.8;" x="537.706136" xlink:href="#mc73c97878f" y="295.037813"/>
      </g>
     </g>
     <g id="text_14">
      <!-- 2 -->
      <g transform="translate(528.798636 324.813438)scale(0.28 -0.28)">
       <use xlink:href="#DejaVuSans-50"/>
      </g>
     </g>
    </g>
    <g id="xtick_8">
     <g id="line2d_15">
      <g>
       <use style="stroke:#000000;stroke-width:0.8;" x="611.3425" xlink:href="#mc73c97878f" y="295.037813"/>
      </g>
     </g>
     <g id="text_15">
      <!-- 3 -->
      <g transform="translate(602.435 324.813438)scale(0.28 -0.28)">
       <use xlink:href="#DejaVuSans-51"/>
      </g>
     </g>
    </g>
    <g id="xtick_9">
     <g id="line2d_16">
      <g>
       <use style="stroke:#000000;stroke-width:0.8;" x="684.978864" xlink:href="#mc73c97878f" y="295.037813"/>
      </g>
     </g>
     <g id="text_16">
      <!-- 4 -->
      <g transform="translate(676.071364 324.813438)scale(0.28 -0.28)">
       <use xlink:href="#DejaVuSans-52"/>
      </g>
     </g>
    </g>
    <g id="xtick_10">
     <g id="line2d_17">
      <g>
       <use style="stroke:#000000;stroke-width:0.8;" x="758.615227" xlink:href="#mc73c97878f" y="295.037813"/>
      </g>
     </g>
     <g id="text_17">
      <!-- 5 -->
      <g transform="translate(749.707727 324.813438)scale(0.28 -0.28)">
       <use xlink:href="#DejaVuSans-53"/>
      </g>
     </g>
    </g>
    <g id="text_18">
     <!-- -log10 p-value -->
     <g transform="translate(510.5075 355.912188)scale(0.28 -0.28)">
      <use xlink:href="#DejaVuSans-45"/>
      <use x="36.083984" xlink:href="#DejaVuSans-108"/>
      <use x="63.867188" xlink:href="#DejaVuSans-111"/>
      <use x="125.048828" xlink:href="#DejaVuSans-103"/>
      <use x="188.525391" xlink:href="#DejaVuSans-49"/>
      <use x="252.148438" xlink:href="#DejaVuSans-48"/>
      <use x="315.771484" xlink:href="#DejaVuSans-32"/>
      <use x="347.558594" xlink:href="#DejaVuSans-112"/>
      <use x="411.035156" xlink:href="#DejaVuSans-45"/>
      <use x="447.087891" xlink:href="#DejaVuSans-118"/>
      <use x="506.267578" xlink:href="#DejaVuSans-97"/>
      <use x="567.546875" xlink:href="#DejaVuSans-108"/>
      <use x="595.330078" xlink:href="#DejaVuSans-117"/>
      <use x="658.708984" xlink:href="#DejaVuSans-101"/>
     </g>
    </g>
   </g>
   <g id="matplotlib.axis_4">
    <g id="ytick_6"/>
    <g id="ytick_7"/>
    <g id="ytick_8"/>
    <g id="ytick_9"/>
    <g id="ytick_10"/>
   </g>
   <g id="line2d_18">
    <path clip-path="url(#pa12748e376)" d="M 464.069773 130.865857 
L 467.751591 134.95737 
L 471.433409 132.911613 
L 475.115227 132.400174 
L 478.797045 131.377296 
L 482.478864 131.888735 
L 486.160682 133.934491 
L 489.8425 134.95737 
L 493.524318 133.423052 
L 497.206136 134.445931 
L 500.887955 134.95737 
L 504.569773 134.95737 
L 508.251591 137.003126 
L 511.933409 138.026004 
L 515.615227 140.5832 
L 519.297045 142.117517 
L 522.978864 143.140396 
L 526.660682 143.140396 
L 530.3425 143.651835 
L 534.024318 144.674713 
L 537.706136 145.186152 
L 541.387955 145.186152 
L 545.069773 146.20903 
L 548.751591 147.743348 
L 552.433409 148.254787 
L 556.115227 148.766226 
L 559.797045 149.789104 
L 563.478864 149.277665 
L 567.160682 148.254787 
L 570.8425 148.766226 
L 574.524318 149.277665 
L 578.206136 148.766226 
L 581.887955 149.277665 
L 585.569773 149.277665 
L 589.251591 150.300543 
L 592.933409 150.811982 
L 596.615227 150.811982 
L 600.297045 152.3463 
L 603.978864 151.323421 
L 607.660682 151.83486 
L 611.3425 152.857739 
L 615.024318 152.857739 
L 618.706136 152.857739 
L 622.387955 152.857739 
L 626.069773 152.857739 
L 629.751591 152.857739 
L 633.433409 152.3463 
L 637.115227 152.3463 
L 640.797045 151.83486 
L 644.478864 153.369178 
L 648.160682 153.880617 
L 651.8425 154.392056 
L 655.524318 154.392056 
L 659.206136 154.392056 
L 662.887955 154.392056 
L 666.569773 154.903495 
L 670.251591 154.903495 
L 673.933409 155.414934 
L 677.615227 155.926373 
L 681.297045 156.437813 
L 684.978864 156.437813 
L 688.660682 156.437813 
L 692.3425 156.437813 
L 696.024318 156.949252 
L 699.706136 156.949252 
L 703.387955 156.949252 
L 707.069773 156.949252 
L 710.751591 156.949252 
L 714.433409 156.949252 
L 718.115227 156.949252 
L 721.797045 157.460691 
L 725.478864 157.460691 
L 729.160682 157.460691 
L 732.8425 157.460691 
L 736.524318 157.460691 
L 740.206136 157.460691 
L 743.887955 157.460691 
L 747.569773 157.97213 
L 751.251591 157.97213 
L 754.933409 157.97213 
L 758.615227 157.97213 
" style="fill:none;stroke:#8b0000;stroke-linecap:square;stroke-width:2;"/>
   </g>
   <g id="line2d_19">
    <path clip-path="url(#pa12748e376)" d="M 464.069773 106.316779 
L 467.751591 104.271023 
L 471.433409 100.17951 
L 475.115227 98.645193 
L 478.797045 96.599436 
L 482.478864 95.065119 
L 486.160682 94.042241 
L 489.8425 90.973606 
L 493.524318 89.439289 
L 497.206136 89.439289 
L 500.887955 86.882093 
L 504.569773 86.882093 
L 508.251591 84.836336 
L 511.933409 83.813458 
L 515.615227 80.233384 
L 519.297045 77.676189 
L 522.978864 76.653311 
L 526.660682 75.630432 
L 530.3425 76.141872 
L 534.024318 74.096115 
L 537.706136 72.561798 
L 541.387955 69.493163 
L 545.069773 69.493163 
L 548.751591 71.02748 
L 552.433409 70.516041 
L 556.115227 70.004602 
L 559.797045 70.004602 
L 563.478864 69.493163 
L 567.160682 68.470285 
L 570.8425 68.981724 
L 574.524318 69.493163 
L 578.206136 68.981724 
L 581.887955 68.470285 
L 585.569773 68.470285 
L 589.251591 67.447407 
L 592.933409 67.958846 
L 596.615227 67.958846 
L 600.297045 69.493163 
L 603.978864 67.447407 
L 607.660682 67.958846 
L 611.3425 68.981724 
L 615.024318 68.981724 
L 618.706136 68.981724 
L 622.387955 68.981724 
L 626.069773 68.981724 
L 629.751591 68.981724 
L 633.433409 68.470285 
L 637.115227 68.470285 
L 640.797045 67.958846 
L 644.478864 67.447407 
L 648.160682 66.935967 
L 651.8425 66.424528 
L 655.524318 66.424528 
L 659.206136 66.424528 
L 662.887955 66.424528 
L 666.569773 66.935967 
L 670.251591 66.935967 
L 673.933409 66.424528 
L 677.615227 66.935967 
L 681.297045 67.447407 
L 684.978864 67.447407 
L 688.660682 67.447407 
L 692.3425 67.447407 
L 696.024318 66.935967 
L 699.706136 66.935967 
L 703.387955 66.935967 
L 707.069773 66.935967 
L 710.751591 66.935967 
L 714.433409 66.935967 
L 718.115227 66.935967 
L 721.797045 67.447407 
L 725.478864 67.447407 
L 729.160682 67.447407 
L 732.8425 67.447407 
L 736.524318 67.447407 
L 740.206136 67.447407 
L 743.887955 67.447407 
L 747.569773 67.958846 
L 751.251591 67.958846 
L 754.933409 67.958846 
L 758.615227 67.958846 
" style="fill:none;stroke:#000080;stroke-linecap:square;stroke-width:2;"/>
   </g>
   <g id="patch_6">
    <path d="M 449.3425 295.037813 
L 449.3425 17.837813 
" style="fill:none;stroke:#000000;stroke-linecap:square;stroke-linejoin:miter;stroke-width:0.8;"/>
   </g>
   <g id="patch_7">
    <path d="M 449.3425 295.037813 
L 773.3425 295.037813 
" style="fill:none;stroke:#000000;stroke-linecap:square;stroke-linejoin:miter;stroke-width:0.8;"/>
   </g>
  </g>
  <g id="axes_3">
   <g id="patch_8">
    <path d="M 789.5425 295.037813 
L 1113.5425 295.037813 
L 1113.5425 17.837813 
L 789.5425 17.837813 
z
" style="fill:none;"/>
   </g>
   <g id="matplotlib.axis_5">
    <g id="xtick_11">
     <g id="line2d_20">
      <g>
       <use style="stroke:#000000;stroke-width:0.8;" x="804.269773" xlink:href="#mc73c97878f" y="295.037813"/>
      </g>
     </g>
     <g id="text_19">
      <!-- 1 -->
      <g transform="translate(795.362273 324.813438)scale(0.28 -0.28)">
       <use xlink:href="#DejaVuSans-49"/>
      </g>
     </g>
    </g>
    <g id="xtick_12">
     <g id="line2d_21">
      <g>
       <use style="stroke:#000000;stroke-width:0.8;" x="877.906136" xlink:href="#mc73c97878f" y="295.037813"/>
      </g>
     </g>
     <g id="text_20">
      <!-- 2 -->
      <g transform="translate(868.998636 324.813438)scale(0.28 -0.28)">
       <use xlink:href="#DejaVuSans-50"/>
      </g>
     </g>
    </g>
    <g id="xtick_13">
     <g id="line2d_22">
      <g>
       <use style="stroke:#000000;stroke-width:0.8;" x="951.5425" xlink:href="#mc73c97878f" y="295.037813"/>
      </g>
     </g>
     <g id="text_21">
      <!-- 3 -->
      <g transform="translate(942.635 324.813438)scale(0.28 -0.28)">
       <use xlink:href="#DejaVuSans-51"/>
      </g>
     </g>
    </g>
    <g id="xtick_14">
     <g id="line2d_23">
      <g>
       <use style="stroke:#000000;stroke-width:0.8;" x="1025.178864" xlink:href="#mc73c97878f" y="295.037813"/>
      </g>
     </g>
     <g id="text_22">
      <!-- 4 -->
      <g transform="translate(1016.271364 324.813438)scale(0.28 -0.28)">
       <use xlink:href="#DejaVuSans-52"/>
      </g>
     </g>
    </g>
    <g id="xtick_15">
     <g id="line2d_24">
      <g>
       <use style="stroke:#000000;stroke-width:0.8;" x="1098.815227" xlink:href="#mc73c97878f" y="295.037813"/>
      </g>
     </g>
     <g id="text_23">
      <!-- 5 -->
      <g transform="translate(1089.907727 324.813438)scale(0.28 -0.28)">
       <use xlink:href="#DejaVuSans-53"/>
      </g>
     </g>
    </g>
    <g id="text_24">
     <!-- -log10 p-value -->
     <g transform="translate(850.7075 355.912188)scale(0.28 -0.28)">
      <use xlink:href="#DejaVuSans-45"/>
      <use x="36.083984" xlink:href="#DejaVuSans-108"/>
      <use x="63.867188" xlink:href="#DejaVuSans-111"/>
      <use x="125.048828" xlink:href="#DejaVuSans-103"/>
      <use x="188.525391" xlink:href="#DejaVuSans-49"/>
      <use x="252.148438" xlink:href="#DejaVuSans-48"/>
      <use x="315.771484" xlink:href="#DejaVuSans-32"/>
      <use x="347.558594" xlink:href="#DejaVuSans-112"/>
      <use x="411.035156" xlink:href="#DejaVuSans-45"/>
      <use x="447.087891" xlink:href="#DejaVuSans-118"/>
      <use x="506.267578" xlink:href="#DejaVuSans-97"/>
      <use x="567.546875" xlink:href="#DejaVuSans-108"/>
      <use x="595.330078" xlink:href="#DejaVuSans-117"/>
      <use x="658.708984" xlink:href="#DejaVuSans-101"/>
     </g>
    </g>
   </g>
   <g id="matplotlib.axis_6">
    <g id="ytick_11"/>
    <g id="ytick_12"/>
    <g id="ytick_13"/>
    <g id="ytick_14"/>
    <g id="ytick_15"/>
   </g>
   <g id="line2d_25">
    <path clip-path="url(#p94a2f546d9)" d="M 804.269773 100.485834 
L 807.951591 100.485834 
L 811.633409 102.680029 
L 815.315227 106.337021 
L 818.997045 109.262615 
L 822.678864 110.725411 
L 826.360682 115.113802 
L 830.0425 118.770794 
L 833.724318 120.233591 
L 837.406136 123.159185 
L 841.087955 124.621981 
L 844.769773 126.816177 
L 848.451591 130.473169 
L 852.133409 133.398762 
L 855.815227 134.861559 
L 859.497045 136.324356 
L 863.178864 137.055754 
L 866.860682 139.24995 
L 870.5425 143.63834 
L 874.224318 145.832535 
L 877.906136 146.563934 
L 881.587955 149.489528 
L 885.269773 152.415121 
L 888.951591 154.609316 
L 892.633409 156.072113 
L 896.315227 158.266309 
L 899.997045 161.923301 
L 903.678864 163.386097 
L 907.360682 165.580293 
L 911.0425 167.774488 
L 914.724318 168.505886 
L 918.406136 168.505886 
L 922.087955 169.968683 
L 925.769773 171.43148 
L 929.451591 172.894277 
L 933.133409 174.357074 
L 936.815227 175.088472 
L 940.497045 178.745464 
L 944.178864 180.939659 
L 947.860682 181.671058 
L 951.5425 182.402456 
L 955.224318 183.133855 
L 958.906136 183.865253 
L 962.587955 186.059448 
L 966.269773 186.059448 
L 969.951591 186.059448 
L 973.633409 188.985042 
L 977.315227 191.179237 
L 980.997045 193.373433 
L 984.678864 194.836229 
L 988.360682 197.030425 
L 992.0425 197.761823 
L 995.724318 198.493221 
L 999.406136 200.687417 
L 1003.087955 202.150214 
L 1006.769773 202.881612 
L 1010.451591 205.807206 
L 1014.133409 207.270002 
L 1017.815227 207.270002 
L 1021.497045 208.732799 
L 1025.178864 210.195596 
L 1028.860682 210.926995 
L 1032.5425 210.926995 
L 1036.224318 210.926995 
L 1039.906136 211.658393 
L 1043.587955 211.658393 
L 1047.269773 214.583987 
L 1050.951591 215.315385 
L 1054.633409 216.778182 
L 1058.315227 218.240979 
L 1061.997045 218.240979 
L 1065.678864 218.972377 
L 1069.360682 219.703776 
L 1073.0425 219.703776 
L 1076.724318 219.703776 
L 1080.406136 219.703776 
L 1084.087955 222.629369 
L 1087.769773 223.360768 
L 1091.451591 223.360768 
L 1095.133409 224.092166 
L 1098.815227 224.823564 
" style="fill:none;stroke:#8b0000;stroke-linecap:square;stroke-width:2;"/>
   </g>
   <g id="line2d_26">
    <path clip-path="url(#p94a2f546d9)" d="M 804.269773 165.580293 
L 807.951591 165.580293 
L 811.633409 164.848894 
L 815.315227 159.729105 
L 818.997045 156.803512 
L 822.678864 156.803512 
L 826.360682 153.877918 
L 830.0425 150.220926 
L 833.724318 148.758129 
L 837.406136 148.758129 
L 841.087955 147.295332 
L 844.769773 148.026731 
L 848.451591 145.832535 
L 852.133409 142.906942 
L 855.815227 141.444145 
L 859.497045 139.981348 
L 863.178864 139.24995 
L 866.860682 138.518551 
L 870.5425 135.592958 
L 874.224318 133.398762 
L 877.906136 132.667364 
L 881.587955 132.667364 
L 885.269773 129.74177 
L 888.951591 127.547575 
L 892.633409 129.010372 
L 896.315227 126.816177 
L 899.997045 123.159185 
L 903.678864 121.696388 
L 907.360682 119.502192 
L 911.0425 118.770794 
L 914.724318 119.502192 
L 918.406136 119.502192 
L 922.087955 119.502192 
L 925.769773 118.039396 
L 929.451591 115.113802 
L 933.133409 113.651005 
L 936.815227 112.919607 
L 940.497045 110.725411 
L 944.178864 107.068419 
L 947.860682 106.337021 
L 951.5425 105.605623 
L 955.224318 106.337021 
L 958.906136 107.068419 
L 962.587955 107.799818 
L 966.269773 107.799818 
L 969.951591 107.799818 
L 973.633409 104.874224 
L 977.315227 102.680029 
L 980.997045 100.485834 
L 984.678864 100.485834 
L 988.360682 98.291638 
L 992.0425 97.56024 
L 995.724318 98.291638 
L 999.406136 99.023037 
L 1003.087955 99.023037 
L 1006.769773 98.291638 
L 1010.451591 98.291638 
L 1014.133409 98.291638 
L 1017.815227 98.291638 
L 1021.497045 98.291638 
L 1025.178864 99.754435 
L 1028.860682 99.023037 
L 1032.5425 99.023037 
L 1036.224318 99.023037 
L 1039.906136 98.291638 
L 1043.587955 98.291638 
L 1047.269773 98.291638 
L 1050.951591 97.56024 
L 1054.633409 96.097443 
L 1058.315227 94.634646 
L 1061.997045 94.634646 
L 1065.678864 93.903248 
L 1069.360682 93.171849 
L 1073.0425 93.171849 
L 1076.724318 93.171849 
L 1080.406136 93.171849 
L 1084.087955 94.634646 
L 1087.769773 93.903248 
L 1091.451591 93.903248 
L 1095.133409 93.171849 
L 1098.815227 93.903248 
" style="fill:none;stroke:#000080;stroke-linecap:square;stroke-width:2;"/>
   </g>
   <g id="patch_9">
    <path d="M 789.5425 295.037813 
L 789.5425 17.837813 
" style="fill:none;stroke:#000000;stroke-linecap:square;stroke-linejoin:miter;stroke-width:0.8;"/>
   </g>
   <g id="patch_10">
    <path d="M 789.5425 295.037813 
L 1113.5425 295.037813 
" style="fill:none;stroke:#000000;stroke-linecap:square;stroke-linejoin:miter;stroke-width:0.8;"/>
   </g>
  </g>
 </g>
 <defs>
  <clipPath id="p5f93be965a">
   <rect height="277.2" width="324" x="109.1425" y="17.837812"/>
  </clipPath>
  <clipPath id="pa12748e376">
   <rect height="277.2" width="324" x="449.3425" y="17.837812"/>
  </clipPath>
  <clipPath id="p94a2f546d9">
   <rect height="277.2" width="324" x="789.5425" y="17.837812"/>
  </clipPath>
 </defs>
</svg>
