<?xml version="1.0" encoding="utf-8" standalone="no"?>
<!DOCTYPE svg PUBLIC "-//W3C//DTD SVG 1.1//EN"
  "http://www.w3.org/Graphics/SVG/1.1/DTD/svg11.dtd">
<!-- Created with matplotlib (https://matplotlib.org/) -->
<svg height="368.935313pt" version="1.1" viewBox="0 0 1120.7425 368.935313" width="1120.7425pt" xmlns="http://www.w3.org/2000/svg" xmlns:xlink="http://www.w3.org/1999/xlink">
 <defs>
  <style type="text/css">
*{stroke-linecap:butt;stroke-linejoin:round;}
  </style>
 </defs>
 <g id="figure_1">
  <g id="patch_1">
   <path d="M 0 368.935313 
L 1120.7425 368.935313 
L 1120.7425 0 
L 0 0 
z
" style="fill:none;"/>
  </g>
  <g id="axes_1">
   <g id="patch_2">
    <path d="M 109.1425 295.037813 
L 433.1425 295.037813 
L 433.1425 17.837813 
L 109.1425 17.837813 
z
" style="fill:none;"/>
   </g>
   <g id="matplotlib.axis_1">
    <g id="xtick_1">
     <g id="line2d_1">
      <defs>
       <path d="M 0 0 
L 0 5 
" id="m9eb7586602" style="stroke:#000000;stroke-width:0.8;"/>
      </defs>
      <g>
       <use style="stroke:#000000;stroke-width:0.8;" x="123.869773" xlink:href="#m9eb7586602" y="295.037813"/>
      </g>
     </g>
     <g id="text_1">
      <!-- 1 -->
      <defs>
       <path d="M 12.40625 8.296875 
L 28.515625 8.296875 
L 28.515625 63.921875 
L 10.984375 60.40625 
L 10.984375 69.390625 
L 28.421875 72.90625 
L 38.28125 72.90625 
L 38.28125 8.296875 
L 54.390625 8.296875 
L 54.390625 0 
L 12.40625 0 
z
" id="DejaVuSans-49"/>
      </defs>
      <g transform="translate(114.962273 324.813438)scale(0.28 -0.28)">
       <use xlink:href="#DejaVuSans-49"/>
      </g>
     </g>
    </g>
    <g id="xtick_2">
     <g id="line2d_2">
      <g>
       <use style="stroke:#000000;stroke-width:0.8;" x="197.506136" xlink:href="#m9eb7586602" y="295.037813"/>
      </g>
     </g>
     <g id="text_2">
      <!-- 2 -->
      <defs>
       <path d="M 19.1875 8.296875 
L 53.609375 8.296875 
L 53.609375 0 
L 7.328125 0 
L 7.328125 8.296875 
Q 12.9375 14.109375 22.625 23.890625 
Q 32.328125 33.6875 34.8125 36.53125 
Q 39.546875 41.84375 41.421875 45.53125 
Q 43.3125 49.21875 43.3125 52.78125 
Q 43.3125 58.59375 39.234375 62.25 
Q 35.15625 65.921875 28.609375 65.921875 
Q 23.96875 65.921875 18.8125 64.3125 
Q 13.671875 62.703125 7.8125 59.421875 
L 7.8125 69.390625 
Q 13.765625 71.78125 18.9375 73 
Q 24.125 74.21875 28.421875 74.21875 
Q 39.75 74.21875 46.484375 68.546875 
Q 53.21875 62.890625 53.21875 53.421875 
Q 53.21875 48.921875 51.53125 44.890625 
Q 49.859375 40.875 45.40625 35.40625 
Q 44.1875 33.984375 37.640625 27.21875 
Q 31.109375 20.453125 19.1875 8.296875 
z
" id="DejaVuSans-50"/>
      </defs>
      <g transform="translate(188.598636 324.813438)scale(0.28 -0.28)">
       <use xlink:href="#DejaVuSans-50"/>
      </g>
     </g>
    </g>
    <g id="xtick_3">
     <g id="line2d_3">
      <g>
       <use style="stroke:#000000;stroke-width:0.8;" x="271.1425" xlink:href="#m9eb7586602" y="295.037813"/>
      </g>
     </g>
     <g id="text_3">
      <!-- 3 -->
      <defs>
       <path d="M 40.578125 39.3125 
Q 47.65625 37.796875 51.625 33 
Q 55.609375 28.21875 55.609375 21.1875 
Q 55.609375 10.40625 48.1875 4.484375 
Q 40.765625 -1.421875 27.09375 -1.421875 
Q 22.515625 -1.421875 17.65625 -0.515625 
Q 12.796875 0.390625 7.625 2.203125 
L 7.625 11.71875 
Q 11.71875 9.328125 16.59375 8.109375 
Q 21.484375 6.890625 26.8125 6.890625 
Q 36.078125 6.890625 40.9375 10.546875 
Q 45.796875 14.203125 45.796875 21.1875 
Q 45.796875 27.640625 41.28125 31.265625 
Q 36.765625 34.90625 28.71875 34.90625 
L 20.21875 34.90625 
L 20.21875 43.015625 
L 29.109375 43.015625 
Q 36.375 43.015625 40.234375 45.921875 
Q 44.09375 48.828125 44.09375 54.296875 
Q 44.09375 59.90625 40.109375 62.90625 
Q 36.140625 65.921875 28.71875 65.921875 
Q 24.65625 65.921875 20.015625 65.03125 
Q 15.375 64.15625 9.8125 62.3125 
L 9.8125 71.09375 
Q 15.4375 72.65625 20.34375 73.4375 
Q 25.25 74.21875 29.59375 74.21875 
Q 40.828125 74.21875 47.359375 69.109375 
Q 53.90625 64.015625 53.90625 55.328125 
Q 53.90625 49.265625 50.4375 45.09375 
Q 46.96875 40.921875 40.578125 39.3125 
z
" id="DejaVuSans-51"/>
      </defs>
      <g transform="translate(262.235 324.813438)scale(0.28 -0.28)">
       <use xlink:href="#DejaVuSans-51"/>
      </g>
     </g>
    </g>
    <g id="xtick_4">
     <g id="line2d_4">
      <g>
       <use style="stroke:#000000;stroke-width:0.8;" x="344.778864" xlink:href="#m9eb7586602" y="295.037813"/>
      </g>
     </g>
     <g id="text_4">
      <!-- 4 -->
      <defs>
       <path d="M 37.796875 64.3125 
L 12.890625 25.390625 
L 37.796875 25.390625 
z
M 35.203125 72.90625 
L 47.609375 72.90625 
L 47.609375 25.390625 
L 58.015625 25.390625 
L 58.015625 17.1875 
L 47.609375 17.1875 
L 47.609375 0 
L 37.796875 0 
L 37.796875 17.1875 
L 4.890625 17.1875 
L 4.890625 26.703125 
z
" id="DejaVuSans-52"/>
      </defs>
      <g transform="translate(335.871364 324.813438)scale(0.28 -0.28)">
       <use xlink:href="#DejaVuSans-52"/>
      </g>
     </g>
    </g>
    <g id="xtick_5">
     <g id="line2d_5">
      <g>
       <use style="stroke:#000000;stroke-width:0.8;" x="418.415227" xlink:href="#m9eb7586602" y="295.037813"/>
      </g>
     </g>
     <g id="text_5">
      <!-- 5 -->
      <defs>
       <path d="M 10.796875 72.90625 
L 49.515625 72.90625 
L 49.515625 64.59375 
L 19.828125 64.59375 
L 19.828125 46.734375 
Q 21.96875 47.46875 24.109375 47.828125 
Q 26.265625 48.1875 28.421875 48.1875 
Q 40.625 48.1875 47.75 41.5 
Q 54.890625 34.8125 54.890625 23.390625 
Q 54.890625 11.625 47.5625 5.09375 
Q 40.234375 -1.421875 26.90625 -1.421875 
Q 22.3125 -1.421875 17.546875 -0.640625 
Q 12.796875 0.140625 7.71875 1.703125 
L 7.71875 11.625 
Q 12.109375 9.234375 16.796875 8.0625 
Q 21.484375 6.890625 26.703125 6.890625 
Q 35.15625 6.890625 40.078125 11.328125 
Q 45.015625 15.765625 45.015625 23.390625 
Q 45.015625 31 40.078125 35.4375 
Q 35.15625 39.890625 26.703125 39.890625 
Q 22.75 39.890625 18.8125 39.015625 
Q 14.890625 38.140625 10.796875 36.28125 
z
" id="DejaVuSans-53"/>
      </defs>
      <g transform="translate(409.507727 324.813438)scale(0.28 -0.28)">
       <use xlink:href="#DejaVuSans-53"/>
      </g>
     </g>
    </g>
    <g id="text_6">
     <!-- -log10 p-value -->
     <defs>
      <path d="M 4.890625 31.390625 
L 31.203125 31.390625 
L 31.203125 23.390625 
L 4.890625 23.390625 
z
" id="DejaVuSans-45"/>
      <path d="M 9.421875 75.984375 
L 18.40625 75.984375 
L 18.40625 0 
L 9.421875 0 
z
" id="DejaVuSans-108"/>
      <path d="M 30.609375 48.390625 
Q 23.390625 48.390625 19.1875 42.75 
Q 14.984375 37.109375 14.984375 27.296875 
Q 14.984375 17.484375 19.15625 11.84375 
Q 23.34375 6.203125 30.609375 6.203125 
Q 37.796875 6.203125 41.984375 11.859375 
Q 46.1875 17.53125 46.1875 27.296875 
Q 46.1875 37.015625 41.984375 42.703125 
Q 37.796875 48.390625 30.609375 48.390625 
z
M 30.609375 56 
Q 42.328125 56 49.015625 48.375 
Q 55.71875 40.765625 55.71875 27.296875 
Q 55.71875 13.875 49.015625 6.21875 
Q 42.328125 -1.421875 30.609375 -1.421875 
Q 18.84375 -1.421875 12.171875 6.21875 
Q 5.515625 13.875 5.515625 27.296875 
Q 5.515625 40.765625 12.171875 48.375 
Q 18.84375 56 30.609375 56 
z
" id="DejaVuSans-111"/>
      <path d="M 45.40625 27.984375 
Q 45.40625 37.75 41.375 43.109375 
Q 37.359375 48.484375 30.078125 48.484375 
Q 22.859375 48.484375 18.828125 43.109375 
Q 14.796875 37.75 14.796875 27.984375 
Q 14.796875 18.265625 18.828125 12.890625 
Q 22.859375 7.515625 30.078125 7.515625 
Q 37.359375 7.515625 41.375 12.890625 
Q 45.40625 18.265625 45.40625 27.984375 
z
M 54.390625 6.78125 
Q 54.390625 -7.171875 48.1875 -13.984375 
Q 42 -20.796875 29.203125 -20.796875 
Q 24.46875 -20.796875 20.265625 -20.09375 
Q 16.0625 -19.390625 12.109375 -17.921875 
L 12.109375 -9.1875 
Q 16.0625 -11.328125 19.921875 -12.34375 
Q 23.78125 -13.375 27.78125 -13.375 
Q 36.625 -13.375 41.015625 -8.765625 
Q 45.40625 -4.15625 45.40625 5.171875 
L 45.40625 9.625 
Q 42.625 4.78125 38.28125 2.390625 
Q 33.9375 0 27.875 0 
Q 17.828125 0 11.671875 7.65625 
Q 5.515625 15.328125 5.515625 27.984375 
Q 5.515625 40.671875 11.671875 48.328125 
Q 17.828125 56 27.875 56 
Q 33.9375 56 38.28125 53.609375 
Q 42.625 51.21875 45.40625 46.390625 
L 45.40625 54.6875 
L 54.390625 54.6875 
z
" id="DejaVuSans-103"/>
      <path d="M 31.78125 66.40625 
Q 24.171875 66.40625 20.328125 58.90625 
Q 16.5 51.421875 16.5 36.375 
Q 16.5 21.390625 20.328125 13.890625 
Q 24.171875 6.390625 31.78125 6.390625 
Q 39.453125 6.390625 43.28125 13.890625 
Q 47.125 21.390625 47.125 36.375 
Q 47.125 51.421875 43.28125 58.90625 
Q 39.453125 66.40625 31.78125 66.40625 
z
M 31.78125 74.21875 
Q 44.046875 74.21875 50.515625 64.515625 
Q 56.984375 54.828125 56.984375 36.375 
Q 56.984375 17.96875 50.515625 8.265625 
Q 44.046875 -1.421875 31.78125 -1.421875 
Q 19.53125 -1.421875 13.0625 8.265625 
Q 6.59375 17.96875 6.59375 36.375 
Q 6.59375 54.828125 13.0625 64.515625 
Q 19.53125 74.21875 31.78125 74.21875 
z
" id="DejaVuSans-48"/>
      <path id="DejaVuSans-32"/>
      <path d="M 18.109375 8.203125 
L 18.109375 -20.796875 
L 9.078125 -20.796875 
L 9.078125 54.6875 
L 18.109375 54.6875 
L 18.109375 46.390625 
Q 20.953125 51.265625 25.265625 53.625 
Q 29.59375 56 35.59375 56 
Q 45.5625 56 51.78125 48.09375 
Q 58.015625 40.1875 58.015625 27.296875 
Q 58.015625 14.40625 51.78125 6.484375 
Q 45.5625 -1.421875 35.59375 -1.421875 
Q 29.59375 -1.421875 25.265625 0.953125 
Q 20.953125 3.328125 18.109375 8.203125 
z
M 48.6875 27.296875 
Q 48.6875 37.203125 44.609375 42.84375 
Q 40.53125 48.484375 33.40625 48.484375 
Q 26.265625 48.484375 22.1875 42.84375 
Q 18.109375 37.203125 18.109375 27.296875 
Q 18.109375 17.390625 22.1875 11.75 
Q 26.265625 6.109375 33.40625 6.109375 
Q 40.53125 6.109375 44.609375 11.75 
Q 48.6875 17.390625 48.6875 27.296875 
z
" id="DejaVuSans-112"/>
      <path d="M 2.984375 54.6875 
L 12.5 54.6875 
L 29.59375 8.796875 
L 46.6875 54.6875 
L 56.203125 54.6875 
L 35.6875 0 
L 23.484375 0 
z
" id="DejaVuSans-118"/>
      <path d="M 34.28125 27.484375 
Q 23.390625 27.484375 19.1875 25 
Q 14.984375 22.515625 14.984375 16.5 
Q 14.984375 11.71875 18.140625 8.90625 
Q 21.296875 6.109375 26.703125 6.109375 
Q 34.1875 6.109375 38.703125 11.40625 
Q 43.21875 16.703125 43.21875 25.484375 
L 43.21875 27.484375 
z
M 52.203125 31.203125 
L 52.203125 0 
L 43.21875 0 
L 43.21875 8.296875 
Q 40.140625 3.328125 35.546875 0.953125 
Q 30.953125 -1.421875 24.3125 -1.421875 
Q 15.921875 -1.421875 10.953125 3.296875 
Q 6 8.015625 6 15.921875 
Q 6 25.140625 12.171875 29.828125 
Q 18.359375 34.515625 30.609375 34.515625 
L 43.21875 34.515625 
L 43.21875 35.40625 
Q 43.21875 41.609375 39.140625 45 
Q 35.0625 48.390625 27.6875 48.390625 
Q 23 48.390625 18.546875 47.265625 
Q 14.109375 46.140625 10.015625 43.890625 
L 10.015625 52.203125 
Q 14.9375 54.109375 19.578125 55.046875 
Q 24.21875 56 28.609375 56 
Q 40.484375 56 46.34375 49.84375 
Q 52.203125 43.703125 52.203125 31.203125 
z
" id="DejaVuSans-97"/>
      <path d="M 8.5 21.578125 
L 8.5 54.6875 
L 17.484375 54.6875 
L 17.484375 21.921875 
Q 17.484375 14.15625 20.5 10.265625 
Q 23.53125 6.390625 29.59375 6.390625 
Q 36.859375 6.390625 41.078125 11.03125 
Q 45.3125 15.671875 45.3125 23.6875 
L 45.3125 54.6875 
L 54.296875 54.6875 
L 54.296875 0 
L 45.3125 0 
L 45.3125 8.40625 
Q 42.046875 3.421875 37.71875 1 
Q 33.40625 -1.421875 27.6875 -1.421875 
Q 18.265625 -1.421875 13.375 4.4375 
Q 8.5 10.296875 8.5 21.578125 
z
M 31.109375 56 
z
" id="DejaVuSans-117"/>
      <path d="M 56.203125 29.59375 
L 56.203125 25.203125 
L 14.890625 25.203125 
Q 15.484375 15.921875 20.484375 11.0625 
Q 25.484375 6.203125 34.421875 6.203125 
Q 39.59375 6.203125 44.453125 7.46875 
Q 49.3125 8.734375 54.109375 11.28125 
L 54.109375 2.78125 
Q 49.265625 0.734375 44.1875 -0.34375 
Q 39.109375 -1.421875 33.890625 -1.421875 
Q 20.796875 -1.421875 13.15625 6.1875 
Q 5.515625 13.8125 5.515625 26.8125 
Q 5.515625 40.234375 12.765625 48.109375 
Q 20.015625 56 32.328125 56 
Q 43.359375 56 49.78125 48.890625 
Q 56.203125 41.796875 56.203125 29.59375 
z
M 47.21875 32.234375 
Q 47.125 39.59375 43.09375 43.984375 
Q 39.0625 48.390625 32.421875 48.390625 
Q 24.90625 48.390625 20.390625 44.140625 
Q 15.875 39.890625 15.1875 32.171875 
z
" id="DejaVuSans-101"/>
     </defs>
     <g transform="translate(170.3075 355.912188)scale(0.28 -0.28)">
      <use xlink:href="#DejaVuSans-45"/>
      <use x="36.083984" xlink:href="#DejaVuSans-108"/>
      <use x="63.867188" xlink:href="#DejaVuSans-111"/>
      <use x="125.048828" xlink:href="#DejaVuSans-103"/>
      <use x="188.525391" xlink:href="#DejaVuSans-49"/>
      <use x="252.148438" xlink:href="#DejaVuSans-48"/>
      <use x="315.771484" xlink:href="#DejaVuSans-32"/>
      <use x="347.558594" xlink:href="#DejaVuSans-112"/>
      <use x="411.035156" xlink:href="#DejaVuSans-45"/>
      <use x="447.087891" xlink:href="#DejaVuSans-118"/>
      <use x="506.267578" xlink:href="#DejaVuSans-97"/>
      <use x="567.546875" xlink:href="#DejaVuSans-108"/>
      <use x="595.330078" xlink:href="#DejaVuSans-117"/>
      <use x="658.708984" xlink:href="#DejaVuSans-101"/>
     </g>
    </g>
   </g>
   <g id="matplotlib.axis_2">
    <g id="ytick_1">
     <g id="line2d_6">
      <defs>
       <path d="M 0 0 
L -5 0 
" id="m445e29b0de" style="stroke:#000000;stroke-width:0.8;"/>
      </defs>
      <g>
       <use style="stroke:#000000;stroke-width:0.8;" x="109.1425" xlink:href="#m445e29b0de" y="295.037813"/>
      </g>
     </g>
     <g id="text_7">
      <!-- 0.00 -->
      <defs>
       <path d="M 10.6875 12.40625 
L 21 12.40625 
L 21 0 
L 10.6875 0 
z
" id="DejaVuSans-46"/>
      </defs>
      <g transform="translate(38.29875 305.675625)scale(0.28 -0.28)">
       <use xlink:href="#DejaVuSans-48"/>
       <use x="63.623047" xlink:href="#DejaVuSans-46"/>
       <use x="95.410156" xlink:href="#DejaVuSans-48"/>
       <use x="159.033203" xlink:href="#DejaVuSans-48"/>
      </g>
     </g>
    </g>
    <g id="ytick_2">
     <g id="line2d_7">
      <g>
       <use style="stroke:#000000;stroke-width:0.8;" x="109.1425" xlink:href="#m445e29b0de" y="225.737813"/>
      </g>
     </g>
     <g id="text_8">
      <!-- 0.25 -->
      <g transform="translate(38.29875 236.375625)scale(0.28 -0.28)">
       <use xlink:href="#DejaVuSans-48"/>
       <use x="63.623047" xlink:href="#DejaVuSans-46"/>
       <use x="95.410156" xlink:href="#DejaVuSans-50"/>
       <use x="159.033203" xlink:href="#DejaVuSans-53"/>
      </g>
     </g>
    </g>
    <g id="ytick_3">
     <g id="line2d_8">
      <g>
       <use style="stroke:#000000;stroke-width:0.8;" x="109.1425" xlink:href="#m445e29b0de" y="156.437813"/>
      </g>
     </g>
     <g id="text_9">
      <!-- 0.50 -->
      <g transform="translate(38.29875 167.075625)scale(0.28 -0.28)">
       <use xlink:href="#DejaVuSans-48"/>
       <use x="63.623047" xlink:href="#DejaVuSans-46"/>
       <use x="95.410156" xlink:href="#DejaVuSans-53"/>
       <use x="159.033203" xlink:href="#DejaVuSans-48"/>
      </g>
     </g>
    </g>
    <g id="ytick_4">
     <g id="line2d_9">
      <g>
       <use style="stroke:#000000;stroke-width:0.8;" x="109.1425" xlink:href="#m445e29b0de" y="87.137813"/>
      </g>
     </g>
     <g id="text_10">
      <!-- 0.75 -->
      <defs>
       <path d="M 8.203125 72.90625 
L 55.078125 72.90625 
L 55.078125 68.703125 
L 28.609375 0 
L 18.3125 0 
L 43.21875 64.59375 
L 8.203125 64.59375 
z
" id="DejaVuSans-55"/>
      </defs>
      <g transform="translate(38.29875 97.775625)scale(0.28 -0.28)">
       <use xlink:href="#DejaVuSans-48"/>
       <use x="63.623047" xlink:href="#DejaVuSans-46"/>
       <use x="95.410156" xlink:href="#DejaVuSans-55"/>
       <use x="159.033203" xlink:href="#DejaVuSans-53"/>
      </g>
     </g>
    </g>
    <g id="ytick_5">
     <g id="line2d_10">
      <g>
       <use style="stroke:#000000;stroke-width:0.8;" x="109.1425" xlink:href="#m445e29b0de" y="17.837813"/>
      </g>
     </g>
     <g id="text_11">
      <!-- 1.00 -->
      <g transform="translate(38.29875 28.475625)scale(0.28 -0.28)">
       <use xlink:href="#DejaVuSans-49"/>
       <use x="63.623047" xlink:href="#DejaVuSans-46"/>
       <use x="95.410156" xlink:href="#DejaVuSans-48"/>
       <use x="159.033203" xlink:href="#DejaVuSans-48"/>
      </g>
     </g>
    </g>
    <g id="text_12">
     <!-- Accuracy -->
     <defs>
      <path d="M 34.1875 63.1875 
L 20.796875 26.90625 
L 47.609375 26.90625 
z
M 28.609375 72.90625 
L 39.796875 72.90625 
L 67.578125 0 
L 57.328125 0 
L 50.6875 18.703125 
L 17.828125 18.703125 
L 11.1875 0 
L 0.78125 0 
z
" id="DejaVuSans-65"/>
      <path d="M 48.78125 52.59375 
L 48.78125 44.1875 
Q 44.96875 46.296875 41.140625 47.34375 
Q 37.3125 48.390625 33.40625 48.390625 
Q 24.65625 48.390625 19.8125 42.84375 
Q 14.984375 37.3125 14.984375 27.296875 
Q 14.984375 17.28125 19.8125 11.734375 
Q 24.65625 6.203125 33.40625 6.203125 
Q 37.3125 6.203125 41.140625 7.25 
Q 44.96875 8.296875 48.78125 10.40625 
L 48.78125 2.09375 
Q 45.015625 0.34375 40.984375 -0.53125 
Q 36.96875 -1.421875 32.421875 -1.421875 
Q 20.0625 -1.421875 12.78125 6.34375 
Q 5.515625 14.109375 5.515625 27.296875 
Q 5.515625 40.671875 12.859375 48.328125 
Q 20.21875 56 33.015625 56 
Q 37.15625 56 41.109375 55.140625 
Q 45.0625 54.296875 48.78125 52.59375 
z
" id="DejaVuSans-99"/>
      <path d="M 41.109375 46.296875 
Q 39.59375 47.171875 37.8125 47.578125 
Q 36.03125 48 33.890625 48 
Q 26.265625 48 22.1875 43.046875 
Q 18.109375 38.09375 18.109375 28.8125 
L 18.109375 0 
L 9.078125 0 
L 9.078125 54.6875 
L 18.109375 54.6875 
L 18.109375 46.1875 
Q 20.953125 51.171875 25.484375 53.578125 
Q 30.03125 56 36.53125 56 
Q 37.453125 56 38.578125 55.875 
Q 39.703125 55.765625 41.0625 55.515625 
z
" id="DejaVuSans-114"/>
      <path d="M 32.171875 -5.078125 
Q 28.375 -14.84375 24.75 -17.8125 
Q 21.140625 -20.796875 15.09375 -20.796875 
L 7.90625 -20.796875 
L 7.90625 -13.28125 
L 13.1875 -13.28125 
Q 16.890625 -13.28125 18.9375 -11.515625 
Q 21 -9.765625 23.484375 -3.21875 
L 25.09375 0.875 
L 2.984375 54.6875 
L 12.5 54.6875 
L 29.59375 11.921875 
L 46.6875 54.6875 
L 56.203125 54.6875 
z
" id="DejaVuSans-121"/>
     </defs>
     <g transform="translate(28.475625 220.599375)rotate(-90)scale(0.28 -0.28)">
      <use xlink:href="#DejaVuSans-65"/>
      <use x="68.392578" xlink:href="#DejaVuSans-99"/>
      <use x="123.373047" xlink:href="#DejaVuSans-99"/>
      <use x="178.353516" xlink:href="#DejaVuSans-117"/>
      <use x="241.732422" xlink:href="#DejaVuSans-114"/>
      <use x="282.845703" xlink:href="#DejaVuSans-97"/>
      <use x="344.125" xlink:href="#DejaVuSans-99"/>
      <use x="399.105469" xlink:href="#DejaVuSans-121"/>
     </g>
    </g>
   </g>
   <g id="line2d_11">
    <path clip-path="url(#paf2b7c5552)" d="M 123.869773 164.622324 
L 127.551591 160.32881 
L 131.233409 155.766951 
L 134.915227 152.81516 
L 138.597045 149.32668 
L 142.278864 143.959787 
L 145.960682 139.934618 
L 149.6425 136.446138 
L 153.324318 133.494347 
L 157.006136 128.664144 
L 160.687955 127.32242 
L 164.369773 124.37063 
L 168.051591 121.955528 
L 171.733409 118.735392 
L 175.415227 116.320291 
L 179.097045 114.441878 
L 182.778864 113.3685 
L 186.460682 111.758432 
L 190.1425 110.148364 
L 193.824318 107.733263 
L 197.506136 106.928229 
L 201.187955 105.586506 
L 204.869773 104.244782 
L 208.551591 101.561336 
L 212.233409 100.487958 
L 215.915227 99.414579 
L 219.597045 97.267822 
L 223.278864 96.194444 
L 226.960682 95.121065 
L 230.6425 93.510997 
L 234.324318 92.169274 
L 238.006136 90.559206 
L 241.687955 89.485828 
L 245.369773 88.144105 
L 249.051591 87.607416 
L 252.733409 84.923969 
L 256.415227 83.582246 
L 260.097045 82.508868 
L 263.778864 81.435489 
L 267.460682 80.630455 
L 271.1425 79.557077 
L 274.824318 78.752043 
L 278.506136 77.947009 
L 282.187955 77.141975 
L 285.869773 76.605286 
L 289.551591 76.605286 
L 293.233409 76.336941 
L 296.915227 76.068597 
L 300.597045 75.531907 
L 304.278864 75.800252 
L 307.960682 74.458529 
L 311.6425 73.653495 
L 315.324318 73.116806 
L 319.006136 72.848461 
L 322.687955 71.238393 
L 326.369773 71.238393 
L 330.051591 69.628326 
L 333.733409 69.628326 
L 337.415227 69.091636 
L 341.097045 68.554947 
L 344.778864 68.286602 
L 348.460682 68.286602 
L 352.1425 67.749913 
L 355.824318 67.213224 
L 359.506136 67.213224 
L 363.187955 66.139845 
L 366.869773 65.871501 
L 370.551591 65.871501 
L 374.233409 65.066467 
L 377.915227 65.066467 
L 381.597045 64.798122 
L 385.278864 64.529778 
L 388.960682 63.724744 
L 392.6425 63.456399 
L 396.324318 62.651365 
L 400.006136 62.91971 
L 403.687955 62.651365 
L 407.369773 62.91971 
L 411.051591 62.91971 
L 414.733409 62.651365 
L 418.415227 62.383021 
" style="fill:none;stroke:#8b0000;stroke-linecap:square;stroke-width:2;"/>
   </g>
   <g id="line2d_12">
    <path clip-path="url(#paf2b7c5552)" d="M 123.869773 145.8382 
L 127.551591 142.618064 
L 131.233409 139.129584 
L 134.915227 136.714482 
L 138.597045 135.372759 
L 142.278864 130.005867 
L 145.960682 126.517387 
L 149.6425 123.028906 
L 153.324318 120.613805 
L 157.006136 116.320291 
L 160.687955 115.515257 
L 164.369773 112.563466 
L 168.051591 111.758432 
L 171.733409 109.611675 
L 175.415227 108.269952 
L 179.097045 106.39154 
L 182.778864 105.85485 
L 186.460682 104.781472 
L 190.1425 103.708093 
L 193.824318 101.829681 
L 197.506136 101.024647 
L 201.187955 99.682924 
L 204.869773 99.414579 
L 208.551591 96.731133 
L 212.233409 95.657754 
L 215.915227 95.121065 
L 219.597045 93.510997 
L 223.278864 92.974308 
L 226.960682 92.437619 
L 230.6425 92.437619 
L 234.324318 91.095896 
L 238.006136 90.022517 
L 241.687955 90.022517 
L 245.369773 89.217483 
L 249.051591 88.680794 
L 252.733409 87.070726 
L 256.415227 86.265692 
L 260.097045 86.802382 
L 263.778864 86.802382 
L 267.460682 87.070726 
L 271.1425 87.070726 
L 274.824318 87.87576 
L 278.506136 87.070726 
L 282.187955 86.802382 
L 285.869773 86.265692 
L 289.551591 86.265692 
L 293.233409 86.534037 
L 296.915227 86.265692 
L 300.597045 86.265692 
L 304.278864 86.534037 
L 307.960682 86.265692 
L 311.6425 85.997348 
L 315.324318 85.460659 
L 319.006136 85.192314 
L 322.687955 83.582246 
L 326.369773 83.582246 
L 330.051591 84.655625 
L 333.733409 84.655625 
L 337.415227 84.118935 
L 341.097045 84.118935 
L 344.778864 83.850591 
L 348.460682 83.850591 
L 352.1425 83.850591 
L 355.824318 83.313902 
L 359.506136 83.313902 
L 363.187955 82.240523 
L 366.869773 81.972178 
L 370.551591 81.972178 
L 374.233409 81.703834 
L 377.915227 81.703834 
L 381.597045 81.435489 
L 385.278864 81.703834 
L 388.960682 81.435489 
L 392.6425 81.703834 
L 396.324318 81.972178 
L 400.006136 82.240523 
L 403.687955 81.972178 
L 407.369773 82.240523 
L 411.051591 82.777212 
L 414.733409 82.508868 
L 418.415227 82.777212 
" style="fill:none;stroke:#000080;stroke-linecap:square;stroke-width:2;"/>
   </g>
   <g id="patch_3">
    <path d="M 109.1425 295.037813 
L 109.1425 17.837813 
" style="fill:none;stroke:#000000;stroke-linecap:square;stroke-linejoin:miter;stroke-width:0.8;"/>
   </g>
   <g id="patch_4">
    <path d="M 109.1425 295.037813 
L 433.1425 295.037813 
" style="fill:none;stroke:#000000;stroke-linecap:square;stroke-linejoin:miter;stroke-width:0.8;"/>
   </g>
  </g>
  <g id="axes_2">
   <g id="patch_5">
    <path d="M 449.3425 295.037813 
L 773.3425 295.037813 
L 773.3425 17.837813 
L 449.3425 17.837813 
z
" style="fill:none;"/>
   </g>
   <g id="matplotlib.axis_3">
    <g id="xtick_6">
     <g id="line2d_13">
      <g>
       <use style="stroke:#000000;stroke-width:0.8;" x="464.069773" xlink:href="#m9eb7586602" y="295.037813"/>
      </g>
     </g>
     <g id="text_13">
      <!-- 1 -->
      <g transform="translate(455.162273 324.813438)scale(0.28 -0.28)">
       <use xlink:href="#DejaVuSans-49"/>
      </g>
     </g>
    </g>
    <g id="xtick_7">
     <g id="line2d_14">
      <g>
       <use style="stroke:#000000;stroke-width:0.8;" x="537.706136" xlink:href="#m9eb7586602" y="295.037813"/>
      </g>
     </g>
     <g id="text_14">
      <!-- 2 -->
      <g transform="translate(528.798636 324.813438)scale(0.28 -0.28)">
       <use xlink:href="#DejaVuSans-50"/>
      </g>
     </g>
    </g>
    <g id="xtick_8">
     <g id="line2d_15">
      <g>
       <use style="stroke:#000000;stroke-width:0.8;" x="611.3425" xlink:href="#m9eb7586602" y="295.037813"/>
      </g>
     </g>
     <g id="text_15">
      <!-- 3 -->
      <g transform="translate(602.435 324.813438)scale(0.28 -0.28)">
       <use xlink:href="#DejaVuSans-51"/>
      </g>
     </g>
    </g>
    <g id="xtick_9">
     <g id="line2d_16">
      <g>
       <use style="stroke:#000000;stroke-width:0.8;" x="684.978864" xlink:href="#m9eb7586602" y="295.037813"/>
      </g>
     </g>
     <g id="text_16">
      <!-- 4 -->
      <g transform="translate(676.071364 324.813438)scale(0.28 -0.28)">
       <use xlink:href="#DejaVuSans-52"/>
      </g>
     </g>
    </g>
    <g id="xtick_10">
     <g id="line2d_17">
      <g>
       <use style="stroke:#000000;stroke-width:0.8;" x="758.615227" xlink:href="#m9eb7586602" y="295.037813"/>
      </g>
     </g>
     <g id="text_17">
      <!-- 5 -->
      <g transform="translate(749.707727 324.813438)scale(0.28 -0.28)">
       <use xlink:href="#DejaVuSans-53"/>
      </g>
     </g>
    </g>
    <g id="text_18">
     <!-- -log10 p-value -->
     <g transform="translate(510.5075 355.912188)scale(0.28 -0.28)">
      <use xlink:href="#DejaVuSans-45"/>
      <use x="36.083984" xlink:href="#DejaVuSans-108"/>
      <use x="63.867188" xlink:href="#DejaVuSans-111"/>
      <use x="125.048828" xlink:href="#DejaVuSans-103"/>
      <use x="188.525391" xlink:href="#DejaVuSans-49"/>
      <use x="252.148438" xlink:href="#DejaVuSans-48"/>
      <use x="315.771484" xlink:href="#DejaVuSans-32"/>
      <use x="347.558594" xlink:href="#DejaVuSans-112"/>
      <use x="411.035156" xlink:href="#DejaVuSans-45"/>
      <use x="447.087891" xlink:href="#DejaVuSans-118"/>
      <use x="506.267578" xlink:href="#DejaVuSans-97"/>
      <use x="567.546875" xlink:href="#DejaVuSans-108"/>
      <use x="595.330078" xlink:href="#DejaVuSans-117"/>
      <use x="658.708984" xlink:href="#DejaVuSans-101"/>
     </g>
    </g>
   </g>
   <g id="matplotlib.axis_4">
    <g id="ytick_6"/>
    <g id="ytick_7"/>
    <g id="ytick_8"/>
    <g id="ytick_9"/>
    <g id="ytick_10"/>
   </g>
   <g id="line2d_18">
    <path clip-path="url(#pd69f090e05)" d="M 464.069773 120.86446 
L 467.751591 123.197139 
L 471.433409 120.475681 
L 475.115227 119.698121 
L 478.797045 117.754222 
L 482.478864 118.143002 
L 486.160682 118.143002 
L 489.8425 118.920561 
L 493.524318 117.754222 
L 497.206136 118.143002 
L 500.887955 116.976662 
L 504.569773 116.587883 
L 508.251591 117.754222 
L 511.933409 118.531782 
L 515.615227 120.475681 
L 519.297045 121.25324 
L 522.978864 122.0308 
L 526.660682 122.0308 
L 530.3425 121.64202 
L 534.024318 122.0308 
L 537.706136 122.0308 
L 541.387955 122.0308 
L 545.069773 122.808359 
L 548.751591 123.974699 
L 552.433409 124.363479 
L 556.115227 124.752259 
L 559.797045 125.141038 
L 563.478864 124.363479 
L 567.160682 123.197139 
L 570.8425 123.585919 
L 574.524318 123.974699 
L 578.206136 123.585919 
L 581.887955 123.974699 
L 585.569773 123.974699 
L 589.251591 124.752259 
L 592.933409 125.141038 
L 596.615227 124.363479 
L 600.297045 125.141038 
L 603.978864 124.363479 
L 607.660682 124.752259 
L 611.3425 125.529818 
L 615.024318 125.529818 
L 618.706136 125.529818 
L 622.387955 125.141038 
L 626.069773 124.752259 
L 629.751591 124.752259 
L 633.433409 124.363479 
L 637.115227 124.363479 
L 640.797045 123.974699 
L 644.478864 125.141038 
L 648.160682 125.529818 
L 651.8425 126.307378 
L 655.524318 125.918598 
L 659.206136 126.307378 
L 662.887955 126.307378 
L 666.569773 127.084937 
L 670.251591 127.084937 
L 673.933409 127.473717 
L 677.615227 127.862497 
L 681.297045 128.251277 
L 684.978864 128.251277 
L 688.660682 128.251277 
L 692.3425 128.251277 
L 696.024318 128.640057 
L 699.706136 128.640057 
L 703.387955 128.640057 
L 707.069773 127.862497 
L 710.751591 127.862497 
L 714.433409 127.862497 
L 718.115227 127.862497 
L 721.797045 128.251277 
L 725.478864 128.251277 
L 729.160682 128.251277 
L 732.8425 128.251277 
L 736.524318 128.251277 
L 740.206136 128.251277 
L 743.887955 128.251277 
L 747.569773 128.640057 
L 751.251591 128.640057 
L 754.933409 128.640057 
L 758.615227 128.640057 
" style="fill:none;stroke:#8b0000;stroke-linecap:square;stroke-width:2;"/>
   </g>
   <g id="line2d_19">
    <path clip-path="url(#pd69f090e05)" d="M 464.069773 101.81425 
L 467.751591 99.481571 
L 471.433409 95.204993 
L 475.115227 93.649874 
L 478.797045 90.928416 
L 482.478864 88.984517 
L 486.160682 86.651838 
L 489.8425 84.319159 
L 493.524318 83.15282 
L 497.206136 82.76404 
L 500.887955 79.265021 
L 504.569773 78.876242 
L 508.251591 76.932343 
L 511.933409 76.154783 
L 515.615227 73.433324 
L 519.297045 71.100646 
L 522.978864 70.323086 
L 526.660682 69.545526 
L 530.3425 69.156747 
L 534.024318 67.212848 
L 537.706136 65.657728 
L 541.387955 63.32505 
L 545.069773 63.32505 
L 548.751591 64.491389 
L 552.433409 64.102609 
L 556.115227 63.713829 
L 559.797045 63.32505 
L 563.478864 62.54749 
L 567.160682 61.381151 
L 570.8425 61.76993 
L 574.524318 62.15871 
L 578.206136 61.76993 
L 581.887955 61.381151 
L 585.569773 61.381151 
L 589.251591 60.603591 
L 592.933409 60.992371 
L 596.615227 60.214811 
L 600.297045 60.992371 
L 603.978864 59.437251 
L 607.660682 59.826031 
L 611.3425 60.603591 
L 615.024318 60.603591 
L 618.706136 60.603591 
L 622.387955 60.214811 
L 626.069773 59.826031 
L 629.751591 59.826031 
L 633.433409 59.437251 
L 637.115227 59.437251 
L 640.797045 59.048472 
L 644.478864 58.659692 
L 648.160682 58.270912 
L 651.8425 57.493352 
L 655.524318 57.104573 
L 659.206136 56.715793 
L 662.887955 56.715793 
L 666.569773 56.715793 
L 670.251591 56.715793 
L 673.933409 56.327013 
L 677.615227 56.715793 
L 681.297045 57.104573 
L 684.978864 57.104573 
L 688.660682 57.104573 
L 692.3425 57.104573 
L 696.024318 56.715793 
L 699.706136 56.715793 
L 703.387955 56.715793 
L 707.069773 55.938233 
L 710.751591 55.938233 
L 714.433409 55.938233 
L 718.115227 55.938233 
L 721.797045 56.327013 
L 725.478864 56.327013 
L 729.160682 56.327013 
L 732.8425 56.327013 
L 736.524318 56.327013 
L 740.206136 56.327013 
L 743.887955 56.327013 
L 747.569773 56.715793 
L 751.251591 56.715793 
L 754.933409 56.715793 
L 758.615227 56.715793 
" style="fill:none;stroke:#000080;stroke-linecap:square;stroke-width:2;"/>
   </g>
   <g id="patch_6">
    <path d="M 449.3425 295.037813 
L 449.3425 17.837813 
" style="fill:none;stroke:#000000;stroke-linecap:square;stroke-linejoin:miter;stroke-width:0.8;"/>
   </g>
   <g id="patch_7">
    <path d="M 449.3425 295.037813 
L 773.3425 295.037813 
" style="fill:none;stroke:#000000;stroke-linecap:square;stroke-linejoin:miter;stroke-width:0.8;"/>
   </g>
  </g>
  <g id="axes_3">
   <g id="patch_8">
    <path d="M 789.5425 295.037813 
L 1113.5425 295.037813 
L 1113.5425 17.837813 
L 789.5425 17.837813 
z
" style="fill:none;"/>
   </g>
   <g id="matplotlib.axis_5">
    <g id="xtick_11">
     <g id="line2d_20">
      <g>
       <use style="stroke:#000000;stroke-width:0.8;" x="804.269773" xlink:href="#m9eb7586602" y="295.037813"/>
      </g>
     </g>
     <g id="text_19">
      <!-- 1 -->
      <g transform="translate(795.362273 324.813438)scale(0.28 -0.28)">
       <use xlink:href="#DejaVuSans-49"/>
      </g>
     </g>
    </g>
    <g id="xtick_12">
     <g id="line2d_21">
      <g>
       <use style="stroke:#000000;stroke-width:0.8;" x="877.906136" xlink:href="#m9eb7586602" y="295.037813"/>
      </g>
     </g>
     <g id="text_20">
      <!-- 2 -->
      <g transform="translate(868.998636 324.813438)scale(0.28 -0.28)">
       <use xlink:href="#DejaVuSans-50"/>
      </g>
     </g>
    </g>
    <g id="xtick_13">
     <g id="line2d_22">
      <g>
       <use style="stroke:#000000;stroke-width:0.8;" x="951.5425" xlink:href="#m9eb7586602" y="295.037813"/>
      </g>
     </g>
     <g id="text_21">
      <!-- 3 -->
      <g transform="translate(942.635 324.813438)scale(0.28 -0.28)">
       <use xlink:href="#DejaVuSans-51"/>
      </g>
     </g>
    </g>
    <g id="xtick_14">
     <g id="line2d_23">
      <g>
       <use style="stroke:#000000;stroke-width:0.8;" x="1025.178864" xlink:href="#m9eb7586602" y="295.037813"/>
      </g>
     </g>
     <g id="text_22">
      <!-- 4 -->
      <g transform="translate(1016.271364 324.813438)scale(0.28 -0.28)">
       <use xlink:href="#DejaVuSans-52"/>
      </g>
     </g>
    </g>
    <g id="xtick_15">
     <g id="line2d_24">
      <g>
       <use style="stroke:#000000;stroke-width:0.8;" x="1098.815227" xlink:href="#m9eb7586602" y="295.037813"/>
      </g>
     </g>
     <g id="text_23">
      <!-- 5 -->
      <g transform="translate(1089.907727 324.813438)scale(0.28 -0.28)">
       <use xlink:href="#DejaVuSans-53"/>
      </g>
     </g>
    </g>
    <g id="text_24">
     <!-- -log10 p-value -->
     <g transform="translate(850.7075 355.912188)scale(0.28 -0.28)">
      <use xlink:href="#DejaVuSans-45"/>
      <use x="36.083984" xlink:href="#DejaVuSans-108"/>
      <use x="63.867188" xlink:href="#DejaVuSans-111"/>
      <use x="125.048828" xlink:href="#DejaVuSans-103"/>
      <use x="188.525391" xlink:href="#DejaVuSans-49"/>
      <use x="252.148438" xlink:href="#DejaVuSans-48"/>
      <use x="315.771484" xlink:href="#DejaVuSans-32"/>
      <use x="347.558594" xlink:href="#DejaVuSans-112"/>
      <use x="411.035156" xlink:href="#DejaVuSans-45"/>
      <use x="447.087891" xlink:href="#DejaVuSans-118"/>
      <use x="506.267578" xlink:href="#DejaVuSans-97"/>
      <use x="567.546875" xlink:href="#DejaVuSans-108"/>
      <use x="595.330078" xlink:href="#DejaVuSans-117"/>
      <use x="658.708984" xlink:href="#DejaVuSans-101"/>
     </g>
    </g>
   </g>
   <g id="matplotlib.axis_6">
    <g id="ytick_11"/>
    <g id="ytick_12"/>
    <g id="ytick_13"/>
    <g id="ytick_14"/>
    <g id="ytick_15"/>
   </g>
   <g id="line2d_25">
    <path clip-path="url(#p5daaaedbff)" d="M 804.269773 100.485834 
L 807.951591 100.485834 
L 811.633409 102.680029 
L 815.315227 106.337021 
L 818.997045 109.262615 
L 822.678864 110.725411 
L 826.360682 115.113802 
L 830.0425 118.770794 
L 833.724318 120.233591 
L 837.406136 123.159185 
L 841.087955 124.621981 
L 844.769773 126.816177 
L 848.451591 130.473169 
L 852.133409 133.398762 
L 855.815227 134.861559 
L 859.497045 136.324356 
L 863.178864 137.055754 
L 866.860682 139.24995 
L 870.5425 143.63834 
L 874.224318 145.832535 
L 877.906136 146.563934 
L 881.587955 149.489528 
L 885.269773 152.415121 
L 888.951591 154.609316 
L 892.633409 156.072113 
L 896.315227 158.266309 
L 899.997045 161.923301 
L 903.678864 163.386097 
L 907.360682 165.580293 
L 911.0425 167.774488 
L 914.724318 168.505886 
L 918.406136 168.505886 
L 922.087955 169.968683 
L 925.769773 171.43148 
L 929.451591 172.894277 
L 933.133409 174.357074 
L 936.815227 175.088472 
L 940.497045 178.745464 
L 944.178864 180.939659 
L 947.860682 181.671058 
L 951.5425 182.402456 
L 955.224318 183.133855 
L 958.906136 183.865253 
L 962.587955 186.059448 
L 966.269773 186.059448 
L 969.951591 186.059448 
L 973.633409 188.985042 
L 977.315227 191.179237 
L 980.997045 193.373433 
L 984.678864 194.836229 
L 988.360682 197.030425 
L 992.0425 197.761823 
L 995.724318 198.493221 
L 999.406136 200.687417 
L 1003.087955 202.150214 
L 1006.769773 202.881612 
L 1010.451591 205.807206 
L 1014.133409 207.270002 
L 1017.815227 207.270002 
L 1021.497045 208.732799 
L 1025.178864 210.195596 
L 1028.860682 210.926995 
L 1032.5425 210.926995 
L 1036.224318 210.926995 
L 1039.906136 211.658393 
L 1043.587955 211.658393 
L 1047.269773 214.583987 
L 1050.951591 215.315385 
L 1054.633409 216.778182 
L 1058.315227 218.240979 
L 1061.997045 218.240979 
L 1065.678864 218.972377 
L 1069.360682 219.703776 
L 1073.0425 219.703776 
L 1076.724318 219.703776 
L 1080.406136 219.703776 
L 1084.087955 222.629369 
L 1087.769773 223.360768 
L 1091.451591 223.360768 
L 1095.133409 224.092166 
L 1098.815227 224.823564 
" style="fill:none;stroke:#8b0000;stroke-linecap:square;stroke-width:2;"/>
   </g>
   <g id="line2d_26">
    <path clip-path="url(#p5daaaedbff)" d="M 804.269773 165.580293 
L 807.951591 165.580293 
L 811.633409 164.848894 
L 815.315227 159.729105 
L 818.997045 156.803512 
L 822.678864 156.803512 
L 826.360682 153.877918 
L 830.0425 150.220926 
L 833.724318 148.758129 
L 837.406136 148.758129 
L 841.087955 147.295332 
L 844.769773 148.026731 
L 848.451591 145.832535 
L 852.133409 142.906942 
L 855.815227 141.444145 
L 859.497045 139.981348 
L 863.178864 139.24995 
L 866.860682 138.518551 
L 870.5425 135.592958 
L 874.224318 133.398762 
L 877.906136 132.667364 
L 881.587955 132.667364 
L 885.269773 129.74177 
L 888.951591 127.547575 
L 892.633409 129.010372 
L 896.315227 126.816177 
L 899.997045 123.159185 
L 903.678864 121.696388 
L 907.360682 119.502192 
L 911.0425 118.770794 
L 914.724318 119.502192 
L 918.406136 119.502192 
L 922.087955 119.502192 
L 925.769773 118.039396 
L 929.451591 115.113802 
L 933.133409 113.651005 
L 936.815227 112.919607 
L 940.497045 110.725411 
L 944.178864 107.068419 
L 947.860682 106.337021 
L 951.5425 105.605623 
L 955.224318 106.337021 
L 958.906136 107.068419 
L 962.587955 107.799818 
L 966.269773 107.799818 
L 969.951591 107.799818 
L 973.633409 104.874224 
L 977.315227 102.680029 
L 980.997045 100.485834 
L 984.678864 100.485834 
L 988.360682 98.291638 
L 992.0425 97.56024 
L 995.724318 98.291638 
L 999.406136 99.023037 
L 1003.087955 99.023037 
L 1006.769773 98.291638 
L 1010.451591 98.291638 
L 1014.133409 98.291638 
L 1017.815227 98.291638 
L 1021.497045 98.291638 
L 1025.178864 99.754435 
L 1028.860682 99.023037 
L 1032.5425 99.023037 
L 1036.224318 99.023037 
L 1039.906136 98.291638 
L 1043.587955 98.291638 
L 1047.269773 98.291638 
L 1050.951591 97.56024 
L 1054.633409 96.097443 
L 1058.315227 94.634646 
L 1061.997045 94.634646 
L 1065.678864 93.903248 
L 1069.360682 93.171849 
L 1073.0425 93.171849 
L 1076.724318 93.171849 
L 1080.406136 93.171849 
L 1084.087955 94.634646 
L 1087.769773 93.903248 
L 1091.451591 93.903248 
L 1095.133409 93.171849 
L 1098.815227 93.903248 
" style="fill:none;stroke:#000080;stroke-linecap:square;stroke-width:2;"/>
   </g>
   <g id="patch_9">
    <path d="M 789.5425 295.037813 
L 789.5425 17.837813 
" style="fill:none;stroke:#000000;stroke-linecap:square;stroke-linejoin:miter;stroke-width:0.8;"/>
   </g>
   <g id="patch_10">
    <path d="M 789.5425 295.037813 
L 1113.5425 295.037813 
" style="fill:none;stroke:#000000;stroke-linecap:square;stroke-linejoin:miter;stroke-width:0.8;"/>
   </g>
  </g>
 </g>
 <defs>
  <clipPath id="paf2b7c5552">
   <rect height="277.2" width="324" x="109.1425" y="17.837812"/>
  </clipPath>
  <clipPath id="pd69f090e05">
   <rect height="277.2" width="324" x="449.3425" y="17.837812"/>
  </clipPath>
  <clipPath id="p5daaaedbff">
   <rect height="277.2" width="324" x="789.5425" y="17.837812"/>
  </clipPath>
 </defs>
</svg>
