<?xml version="1.0" encoding="utf-8" standalone="no"?>
<!DOCTYPE svg PUBLIC "-//W3C//DTD SVG 1.1//EN"
  "http://www.w3.org/Graphics/SVG/1.1/DTD/svg11.dtd">
<!-- Created with matplotlib (https://matplotlib.org/) -->
<svg height="363.535312pt" version="1.1" viewBox="0 0 1120.7425 363.535312" width="1120.7425pt" xmlns="http://www.w3.org/2000/svg" xmlns:xlink="http://www.w3.org/1999/xlink">
 <defs>
  <style type="text/css">
*{stroke-linecap:butt;stroke-linejoin:round;}
  </style>
 </defs>
 <g id="figure_1">
  <g id="patch_1">
   <path d="M 0 363.535312 
L 1120.7425 363.535312 
L 1120.7425 -0 
L 0 -0 
z
" style="fill:none;"/>
  </g>
  <g id="axes_1">
   <g id="patch_2">
    <path d="M 109.1425 289.637812 
L 433.1425 289.637812 
L 433.1425 17.837813 
L 109.1425 17.837813 
z
" style="fill:none;"/>
   </g>
   <g id="matplotlib.axis_1">
    <g id="xtick_1">
     <g id="line2d_1">
      <defs>
       <path d="M 0 0 
L 0 5 
" id="mfced9cfdc1" style="stroke:#000000;stroke-width:0.8;"/>
      </defs>
      <g>
       <use style="stroke:#000000;stroke-width:0.8;" x="123.869773" xlink:href="#mfced9cfdc1" y="289.637812"/>
      </g>
     </g>
     <g id="text_1">
      <!-- 1 -->
      <defs>
       <path d="M 12.40625 8.296875 
L 28.515625 8.296875 
L 28.515625 63.921875 
L 10.984375 60.40625 
L 10.984375 69.390625 
L 28.421875 72.90625 
L 38.28125 72.90625 
L 38.28125 8.296875 
L 54.390625 8.296875 
L 54.390625 0 
L 12.40625 0 
z
" id="DejaVuSans-49"/>
      </defs>
      <g transform="translate(114.962273 319.413437)scale(0.28 -0.28)">
       <use xlink:href="#DejaVuSans-49"/>
      </g>
     </g>
    </g>
    <g id="xtick_2">
     <g id="line2d_2">
      <g>
       <use style="stroke:#000000;stroke-width:0.8;" x="197.506136" xlink:href="#mfced9cfdc1" y="289.637812"/>
      </g>
     </g>
     <g id="text_2">
      <!-- 2 -->
      <defs>
       <path d="M 19.1875 8.296875 
L 53.609375 8.296875 
L 53.609375 0 
L 7.328125 0 
L 7.328125 8.296875 
Q 12.9375 14.109375 22.625 23.890625 
Q 32.328125 33.6875 34.8125 36.53125 
Q 39.546875 41.84375 41.421875 45.53125 
Q 43.3125 49.21875 43.3125 52.78125 
Q 43.3125 58.59375 39.234375 62.25 
Q 35.15625 65.921875 28.609375 65.921875 
Q 23.96875 65.921875 18.8125 64.3125 
Q 13.671875 62.703125 7.8125 59.421875 
L 7.8125 69.390625 
Q 13.765625 71.78125 18.9375 73 
Q 24.125 74.21875 28.421875 74.21875 
Q 39.75 74.21875 46.484375 68.546875 
Q 53.21875 62.890625 53.21875 53.421875 
Q 53.21875 48.921875 51.53125 44.890625 
Q 49.859375 40.875 45.40625 35.40625 
Q 44.1875 33.984375 37.640625 27.21875 
Q 31.109375 20.453125 19.1875 8.296875 
z
" id="DejaVuSans-50"/>
      </defs>
      <g transform="translate(188.598636 319.413437)scale(0.28 -0.28)">
       <use xlink:href="#DejaVuSans-50"/>
      </g>
     </g>
    </g>
    <g id="xtick_3">
     <g id="line2d_3">
      <g>
       <use style="stroke:#000000;stroke-width:0.8;" x="271.1425" xlink:href="#mfced9cfdc1" y="289.637812"/>
      </g>
     </g>
     <g id="text_3">
      <!-- 3 -->
      <defs>
       <path d="M 40.578125 39.3125 
Q 47.65625 37.796875 51.625 33 
Q 55.609375 28.21875 55.609375 21.1875 
Q 55.609375 10.40625 48.1875 4.484375 
Q 40.765625 -1.421875 27.09375 -1.421875 
Q 22.515625 -1.421875 17.65625 -0.515625 
Q 12.796875 0.390625 7.625 2.203125 
L 7.625 11.71875 
Q 11.71875 9.328125 16.59375 8.109375 
Q 21.484375 6.890625 26.8125 6.890625 
Q 36.078125 6.890625 40.9375 10.546875 
Q 45.796875 14.203125 45.796875 21.1875 
Q 45.796875 27.640625 41.28125 31.265625 
Q 36.765625 34.90625 28.71875 34.90625 
L 20.21875 34.90625 
L 20.21875 43.015625 
L 29.109375 43.015625 
Q 36.375 43.015625 40.234375 45.921875 
Q 44.09375 48.828125 44.09375 54.296875 
Q 44.09375 59.90625 40.109375 62.90625 
Q 36.140625 65.921875 28.71875 65.921875 
Q 24.65625 65.921875 20.015625 65.03125 
Q 15.375 64.15625 9.8125 62.3125 
L 9.8125 71.09375 
Q 15.4375 72.65625 20.34375 73.4375 
Q 25.25 74.21875 29.59375 74.21875 
Q 40.828125 74.21875 47.359375 69.109375 
Q 53.90625 64.015625 53.90625 55.328125 
Q 53.90625 49.265625 50.4375 45.09375 
Q 46.96875 40.921875 40.578125 39.3125 
z
" id="DejaVuSans-51"/>
      </defs>
      <g transform="translate(262.235 319.413437)scale(0.28 -0.28)">
       <use xlink:href="#DejaVuSans-51"/>
      </g>
     </g>
    </g>
    <g id="xtick_4">
     <g id="line2d_4">
      <g>
       <use style="stroke:#000000;stroke-width:0.8;" x="344.778864" xlink:href="#mfced9cfdc1" y="289.637812"/>
      </g>
     </g>
     <g id="text_4">
      <!-- 4 -->
      <defs>
       <path d="M 37.796875 64.3125 
L 12.890625 25.390625 
L 37.796875 25.390625 
z
M 35.203125 72.90625 
L 47.609375 72.90625 
L 47.609375 25.390625 
L 58.015625 25.390625 
L 58.015625 17.1875 
L 47.609375 17.1875 
L 47.609375 0 
L 37.796875 0 
L 37.796875 17.1875 
L 4.890625 17.1875 
L 4.890625 26.703125 
z
" id="DejaVuSans-52"/>
      </defs>
      <g transform="translate(335.871364 319.413437)scale(0.28 -0.28)">
       <use xlink:href="#DejaVuSans-52"/>
      </g>
     </g>
    </g>
    <g id="xtick_5">
     <g id="line2d_5">
      <g>
       <use style="stroke:#000000;stroke-width:0.8;" x="418.415227" xlink:href="#mfced9cfdc1" y="289.637812"/>
      </g>
     </g>
     <g id="text_5">
      <!-- 5 -->
      <defs>
       <path d="M 10.796875 72.90625 
L 49.515625 72.90625 
L 49.515625 64.59375 
L 19.828125 64.59375 
L 19.828125 46.734375 
Q 21.96875 47.46875 24.109375 47.828125 
Q 26.265625 48.1875 28.421875 48.1875 
Q 40.625 48.1875 47.75 41.5 
Q 54.890625 34.8125 54.890625 23.390625 
Q 54.890625 11.625 47.5625 5.09375 
Q 40.234375 -1.421875 26.90625 -1.421875 
Q 22.3125 -1.421875 17.546875 -0.640625 
Q 12.796875 0.140625 7.71875 1.703125 
L 7.71875 11.625 
Q 12.109375 9.234375 16.796875 8.0625 
Q 21.484375 6.890625 26.703125 6.890625 
Q 35.15625 6.890625 40.078125 11.328125 
Q 45.015625 15.765625 45.015625 23.390625 
Q 45.015625 31 40.078125 35.4375 
Q 35.15625 39.890625 26.703125 39.890625 
Q 22.75 39.890625 18.8125 39.015625 
Q 14.890625 38.140625 10.796875 36.28125 
z
" id="DejaVuSans-53"/>
      </defs>
      <g transform="translate(409.507727 319.413437)scale(0.28 -0.28)">
       <use xlink:href="#DejaVuSans-53"/>
      </g>
     </g>
    </g>
    <g id="text_6">
     <!-- -log10 p-value -->
     <defs>
      <path d="M 4.890625 31.390625 
L 31.203125 31.390625 
L 31.203125 23.390625 
L 4.890625 23.390625 
z
" id="DejaVuSans-45"/>
      <path d="M 9.421875 75.984375 
L 18.40625 75.984375 
L 18.40625 0 
L 9.421875 0 
z
" id="DejaVuSans-108"/>
      <path d="M 30.609375 48.390625 
Q 23.390625 48.390625 19.1875 42.75 
Q 14.984375 37.109375 14.984375 27.296875 
Q 14.984375 17.484375 19.15625 11.84375 
Q 23.34375 6.203125 30.609375 6.203125 
Q 37.796875 6.203125 41.984375 11.859375 
Q 46.1875 17.53125 46.1875 27.296875 
Q 46.1875 37.015625 41.984375 42.703125 
Q 37.796875 48.390625 30.609375 48.390625 
z
M 30.609375 56 
Q 42.328125 56 49.015625 48.375 
Q 55.71875 40.765625 55.71875 27.296875 
Q 55.71875 13.875 49.015625 6.21875 
Q 42.328125 -1.421875 30.609375 -1.421875 
Q 18.84375 -1.421875 12.171875 6.21875 
Q 5.515625 13.875 5.515625 27.296875 
Q 5.515625 40.765625 12.171875 48.375 
Q 18.84375 56 30.609375 56 
z
" id="DejaVuSans-111"/>
      <path d="M 45.40625 27.984375 
Q 45.40625 37.75 41.375 43.109375 
Q 37.359375 48.484375 30.078125 48.484375 
Q 22.859375 48.484375 18.828125 43.109375 
Q 14.796875 37.75 14.796875 27.984375 
Q 14.796875 18.265625 18.828125 12.890625 
Q 22.859375 7.515625 30.078125 7.515625 
Q 37.359375 7.515625 41.375 12.890625 
Q 45.40625 18.265625 45.40625 27.984375 
z
M 54.390625 6.78125 
Q 54.390625 -7.171875 48.1875 -13.984375 
Q 42 -20.796875 29.203125 -20.796875 
Q 24.46875 -20.796875 20.265625 -20.09375 
Q 16.0625 -19.390625 12.109375 -17.921875 
L 12.109375 -9.1875 
Q 16.0625 -11.328125 19.921875 -12.34375 
Q 23.78125 -13.375 27.78125 -13.375 
Q 36.625 -13.375 41.015625 -8.765625 
Q 45.40625 -4.15625 45.40625 5.171875 
L 45.40625 9.625 
Q 42.625 4.78125 38.28125 2.390625 
Q 33.9375 0 27.875 0 
Q 17.828125 0 11.671875 7.65625 
Q 5.515625 15.328125 5.515625 27.984375 
Q 5.515625 40.671875 11.671875 48.328125 
Q 17.828125 56 27.875 56 
Q 33.9375 56 38.28125 53.609375 
Q 42.625 51.21875 45.40625 46.390625 
L 45.40625 54.6875 
L 54.390625 54.6875 
z
" id="DejaVuSans-103"/>
      <path d="M 31.78125 66.40625 
Q 24.171875 66.40625 20.328125 58.90625 
Q 16.5 51.421875 16.5 36.375 
Q 16.5 21.390625 20.328125 13.890625 
Q 24.171875 6.390625 31.78125 6.390625 
Q 39.453125 6.390625 43.28125 13.890625 
Q 47.125 21.390625 47.125 36.375 
Q 47.125 51.421875 43.28125 58.90625 
Q 39.453125 66.40625 31.78125 66.40625 
z
M 31.78125 74.21875 
Q 44.046875 74.21875 50.515625 64.515625 
Q 56.984375 54.828125 56.984375 36.375 
Q 56.984375 17.96875 50.515625 8.265625 
Q 44.046875 -1.421875 31.78125 -1.421875 
Q 19.53125 -1.421875 13.0625 8.265625 
Q 6.59375 17.96875 6.59375 36.375 
Q 6.59375 54.828125 13.0625 64.515625 
Q 19.53125 74.21875 31.78125 74.21875 
z
" id="DejaVuSans-48"/>
      <path id="DejaVuSans-32"/>
      <path d="M 18.109375 8.203125 
L 18.109375 -20.796875 
L 9.078125 -20.796875 
L 9.078125 54.6875 
L 18.109375 54.6875 
L 18.109375 46.390625 
Q 20.953125 51.265625 25.265625 53.625 
Q 29.59375 56 35.59375 56 
Q 45.5625 56 51.78125 48.09375 
Q 58.015625 40.1875 58.015625 27.296875 
Q 58.015625 14.40625 51.78125 6.484375 
Q 45.5625 -1.421875 35.59375 -1.421875 
Q 29.59375 -1.421875 25.265625 0.953125 
Q 20.953125 3.328125 18.109375 8.203125 
z
M 48.6875 27.296875 
Q 48.6875 37.203125 44.609375 42.84375 
Q 40.53125 48.484375 33.40625 48.484375 
Q 26.265625 48.484375 22.1875 42.84375 
Q 18.109375 37.203125 18.109375 27.296875 
Q 18.109375 17.390625 22.1875 11.75 
Q 26.265625 6.109375 33.40625 6.109375 
Q 40.53125 6.109375 44.609375 11.75 
Q 48.6875 17.390625 48.6875 27.296875 
z
" id="DejaVuSans-112"/>
      <path d="M 2.984375 54.6875 
L 12.5 54.6875 
L 29.59375 8.796875 
L 46.6875 54.6875 
L 56.203125 54.6875 
L 35.6875 0 
L 23.484375 0 
z
" id="DejaVuSans-118"/>
      <path d="M 34.28125 27.484375 
Q 23.390625 27.484375 19.1875 25 
Q 14.984375 22.515625 14.984375 16.5 
Q 14.984375 11.71875 18.140625 8.90625 
Q 21.296875 6.109375 26.703125 6.109375 
Q 34.1875 6.109375 38.703125 11.40625 
Q 43.21875 16.703125 43.21875 25.484375 
L 43.21875 27.484375 
z
M 52.203125 31.203125 
L 52.203125 0 
L 43.21875 0 
L 43.21875 8.296875 
Q 40.140625 3.328125 35.546875 0.953125 
Q 30.953125 -1.421875 24.3125 -1.421875 
Q 15.921875 -1.421875 10.953125 3.296875 
Q 6 8.015625 6 15.921875 
Q 6 25.140625 12.171875 29.828125 
Q 18.359375 34.515625 30.609375 34.515625 
L 43.21875 34.515625 
L 43.21875 35.40625 
Q 43.21875 41.609375 39.140625 45 
Q 35.0625 48.390625 27.6875 48.390625 
Q 23 48.390625 18.546875 47.265625 
Q 14.109375 46.140625 10.015625 43.890625 
L 10.015625 52.203125 
Q 14.9375 54.109375 19.578125 55.046875 
Q 24.21875 56 28.609375 56 
Q 40.484375 56 46.34375 49.84375 
Q 52.203125 43.703125 52.203125 31.203125 
z
" id="DejaVuSans-97"/>
      <path d="M 8.5 21.578125 
L 8.5 54.6875 
L 17.484375 54.6875 
L 17.484375 21.921875 
Q 17.484375 14.15625 20.5 10.265625 
Q 23.53125 6.390625 29.59375 6.390625 
Q 36.859375 6.390625 41.078125 11.03125 
Q 45.3125 15.671875 45.3125 23.6875 
L 45.3125 54.6875 
L 54.296875 54.6875 
L 54.296875 0 
L 45.3125 0 
L 45.3125 8.40625 
Q 42.046875 3.421875 37.71875 1 
Q 33.40625 -1.421875 27.6875 -1.421875 
Q 18.265625 -1.421875 13.375 4.4375 
Q 8.5 10.296875 8.5 21.578125 
z
M 31.109375 56 
z
" id="DejaVuSans-117"/>
      <path d="M 56.203125 29.59375 
L 56.203125 25.203125 
L 14.890625 25.203125 
Q 15.484375 15.921875 20.484375 11.0625 
Q 25.484375 6.203125 34.421875 6.203125 
Q 39.59375 6.203125 44.453125 7.46875 
Q 49.3125 8.734375 54.109375 11.28125 
L 54.109375 2.78125 
Q 49.265625 0.734375 44.1875 -0.34375 
Q 39.109375 -1.421875 33.890625 -1.421875 
Q 20.796875 -1.421875 13.15625 6.1875 
Q 5.515625 13.8125 5.515625 26.8125 
Q 5.515625 40.234375 12.765625 48.109375 
Q 20.015625 56 32.328125 56 
Q 43.359375 56 49.78125 48.890625 
Q 56.203125 41.796875 56.203125 29.59375 
z
M 47.21875 32.234375 
Q 47.125 39.59375 43.09375 43.984375 
Q 39.0625 48.390625 32.421875 48.390625 
Q 24.90625 48.390625 20.390625 44.140625 
Q 15.875 39.890625 15.1875 32.171875 
z
" id="DejaVuSans-101"/>
     </defs>
     <g transform="translate(170.3075 350.512187)scale(0.28 -0.28)">
      <use xlink:href="#DejaVuSans-45"/>
      <use x="36.083984" xlink:href="#DejaVuSans-108"/>
      <use x="63.867188" xlink:href="#DejaVuSans-111"/>
      <use x="125.048828" xlink:href="#DejaVuSans-103"/>
      <use x="188.525391" xlink:href="#DejaVuSans-49"/>
      <use x="252.148438" xlink:href="#DejaVuSans-48"/>
      <use x="315.771484" xlink:href="#DejaVuSans-32"/>
      <use x="347.558594" xlink:href="#DejaVuSans-112"/>
      <use x="411.035156" xlink:href="#DejaVuSans-45"/>
      <use x="447.087891" xlink:href="#DejaVuSans-118"/>
      <use x="506.267578" xlink:href="#DejaVuSans-97"/>
      <use x="567.546875" xlink:href="#DejaVuSans-108"/>
      <use x="595.330078" xlink:href="#DejaVuSans-117"/>
      <use x="658.708984" xlink:href="#DejaVuSans-101"/>
     </g>
    </g>
   </g>
   <g id="matplotlib.axis_2">
    <g id="ytick_1">
     <g id="line2d_6">
      <defs>
       <path d="M 0 0 
L -5 0 
" id="m839575d948" style="stroke:#000000;stroke-width:0.8;"/>
      </defs>
      <g>
       <use style="stroke:#000000;stroke-width:0.8;" x="109.1425" xlink:href="#m839575d948" y="289.637812"/>
      </g>
     </g>
     <g id="text_7">
      <!-- 0.00 -->
      <defs>
       <path d="M 10.6875 12.40625 
L 21 12.40625 
L 21 0 
L 10.6875 0 
z
" id="DejaVuSans-46"/>
      </defs>
      <g transform="translate(38.29875 300.275625)scale(0.28 -0.28)">
       <use xlink:href="#DejaVuSans-48"/>
       <use x="63.623047" xlink:href="#DejaVuSans-46"/>
       <use x="95.410156" xlink:href="#DejaVuSans-48"/>
       <use x="159.033203" xlink:href="#DejaVuSans-48"/>
      </g>
     </g>
    </g>
    <g id="ytick_2">
     <g id="line2d_7">
      <g>
       <use style="stroke:#000000;stroke-width:0.8;" x="109.1425" xlink:href="#m839575d948" y="221.687813"/>
      </g>
     </g>
     <g id="text_8">
      <!-- 0.25 -->
      <g transform="translate(38.29875 232.325625)scale(0.28 -0.28)">
       <use xlink:href="#DejaVuSans-48"/>
       <use x="63.623047" xlink:href="#DejaVuSans-46"/>
       <use x="95.410156" xlink:href="#DejaVuSans-50"/>
       <use x="159.033203" xlink:href="#DejaVuSans-53"/>
      </g>
     </g>
    </g>
    <g id="ytick_3">
     <g id="line2d_8">
      <g>
       <use style="stroke:#000000;stroke-width:0.8;" x="109.1425" xlink:href="#m839575d948" y="153.737813"/>
      </g>
     </g>
     <g id="text_9">
      <!-- 0.50 -->
      <g transform="translate(38.29875 164.375625)scale(0.28 -0.28)">
       <use xlink:href="#DejaVuSans-48"/>
       <use x="63.623047" xlink:href="#DejaVuSans-46"/>
       <use x="95.410156" xlink:href="#DejaVuSans-53"/>
       <use x="159.033203" xlink:href="#DejaVuSans-48"/>
      </g>
     </g>
    </g>
    <g id="ytick_4">
     <g id="line2d_9">
      <g>
       <use style="stroke:#000000;stroke-width:0.8;" x="109.1425" xlink:href="#m839575d948" y="85.787813"/>
      </g>
     </g>
     <g id="text_10">
      <!-- 0.75 -->
      <defs>
       <path d="M 8.203125 72.90625 
L 55.078125 72.90625 
L 55.078125 68.703125 
L 28.609375 0 
L 18.3125 0 
L 43.21875 64.59375 
L 8.203125 64.59375 
z
" id="DejaVuSans-55"/>
      </defs>
      <g transform="translate(38.29875 96.425625)scale(0.28 -0.28)">
       <use xlink:href="#DejaVuSans-48"/>
       <use x="63.623047" xlink:href="#DejaVuSans-46"/>
       <use x="95.410156" xlink:href="#DejaVuSans-55"/>
       <use x="159.033203" xlink:href="#DejaVuSans-53"/>
      </g>
     </g>
    </g>
    <g id="ytick_5">
     <g id="line2d_10">
      <g>
       <use style="stroke:#000000;stroke-width:0.8;" x="109.1425" xlink:href="#m839575d948" y="17.837813"/>
      </g>
     </g>
     <g id="text_11">
      <!-- 1.00 -->
      <g transform="translate(38.29875 28.475625)scale(0.28 -0.28)">
       <use xlink:href="#DejaVuSans-49"/>
       <use x="63.623047" xlink:href="#DejaVuSans-46"/>
       <use x="95.410156" xlink:href="#DejaVuSans-48"/>
       <use x="159.033203" xlink:href="#DejaVuSans-48"/>
      </g>
     </g>
    </g>
    <g id="text_12">
     <!-- Accuracy -->
     <defs>
      <path d="M 34.1875 63.1875 
L 20.796875 26.90625 
L 47.609375 26.90625 
z
M 28.609375 72.90625 
L 39.796875 72.90625 
L 67.578125 0 
L 57.328125 0 
L 50.6875 18.703125 
L 17.828125 18.703125 
L 11.1875 0 
L 0.78125 0 
z
" id="DejaVuSans-65"/>
      <path d="M 48.78125 52.59375 
L 48.78125 44.1875 
Q 44.96875 46.296875 41.140625 47.34375 
Q 37.3125 48.390625 33.40625 48.390625 
Q 24.65625 48.390625 19.8125 42.84375 
Q 14.984375 37.3125 14.984375 27.296875 
Q 14.984375 17.28125 19.8125 11.734375 
Q 24.65625 6.203125 33.40625 6.203125 
Q 37.3125 6.203125 41.140625 7.25 
Q 44.96875 8.296875 48.78125 10.40625 
L 48.78125 2.09375 
Q 45.015625 0.34375 40.984375 -0.53125 
Q 36.96875 -1.421875 32.421875 -1.421875 
Q 20.0625 -1.421875 12.78125 6.34375 
Q 5.515625 14.109375 5.515625 27.296875 
Q 5.515625 40.671875 12.859375 48.328125 
Q 20.21875 56 33.015625 56 
Q 37.15625 56 41.109375 55.140625 
Q 45.0625 54.296875 48.78125 52.59375 
z
" id="DejaVuSans-99"/>
      <path d="M 41.109375 46.296875 
Q 39.59375 47.171875 37.8125 47.578125 
Q 36.03125 48 33.890625 48 
Q 26.265625 48 22.1875 43.046875 
Q 18.109375 38.09375 18.109375 28.8125 
L 18.109375 0 
L 9.078125 0 
L 9.078125 54.6875 
L 18.109375 54.6875 
L 18.109375 46.1875 
Q 20.953125 51.171875 25.484375 53.578125 
Q 30.03125 56 36.53125 56 
Q 37.453125 56 38.578125 55.875 
Q 39.703125 55.765625 41.0625 55.515625 
z
" id="DejaVuSans-114"/>
      <path d="M 32.171875 -5.078125 
Q 28.375 -14.84375 24.75 -17.8125 
Q 21.140625 -20.796875 15.09375 -20.796875 
L 7.90625 -20.796875 
L 7.90625 -13.28125 
L 13.1875 -13.28125 
Q 16.890625 -13.28125 18.9375 -11.515625 
Q 21 -9.765625 23.484375 -3.21875 
L 25.09375 0.875 
L 2.984375 54.6875 
L 12.5 54.6875 
L 29.59375 11.921875 
L 46.6875 54.6875 
L 56.203125 54.6875 
z
" id="DejaVuSans-121"/>
     </defs>
     <g transform="translate(28.475625 217.899375)rotate(-90)scale(0.28 -0.28)">
      <use xlink:href="#DejaVuSans-65"/>
      <use x="68.392578" xlink:href="#DejaVuSans-99"/>
      <use x="123.373047" xlink:href="#DejaVuSans-99"/>
      <use x="178.353516" xlink:href="#DejaVuSans-117"/>
      <use x="241.732422" xlink:href="#DejaVuSans-114"/>
      <use x="282.845703" xlink:href="#DejaVuSans-97"/>
      <use x="344.125" xlink:href="#DejaVuSans-99"/>
      <use x="399.105469" xlink:href="#DejaVuSans-121"/>
     </g>
    </g>
   </g>
   <g id="line2d_11">
    <path clip-path="url(#pad02d39b96)" d="M 123.869773 161.762885 
L 127.551591 157.553011 
L 131.233409 153.08002 
L 134.915227 150.185731 
L 138.597045 146.765208 
L 142.278864 141.502866 
L 145.960682 137.556109 
L 149.6425 134.135586 
L 153.324318 131.241297 
L 157.006136 126.505189 
L 160.687955 125.189603 
L 164.369773 122.295315 
L 168.051591 119.927261 
L 171.733409 116.769855 
L 175.415227 114.401801 
L 179.097045 112.559981 
L 182.778864 111.507512 
L 186.460682 109.92881 
L 190.1425 108.350107 
L 193.824318 105.982053 
L 197.506136 105.192701 
L 201.187955 103.877116 
L 204.869773 102.56153 
L 208.551591 99.930358 
L 212.233409 98.87789 
L 215.915227 97.825421 
L 219.597045 95.720484 
L 223.278864 94.668016 
L 226.960682 93.615547 
L 230.6425 92.036844 
L 234.324318 90.721259 
L 238.006136 89.142556 
L 241.687955 88.090087 
L 245.369773 86.774502 
L 249.051591 86.248267 
L 252.733409 83.617096 
L 256.415227 82.30151 
L 260.097045 81.249042 
L 263.778864 80.196573 
L 267.460682 79.407222 
L 271.1425 78.354753 
L 274.824318 77.565402 
L 278.506136 76.776051 
L 282.187955 75.986699 
L 285.869773 75.460465 
L 289.551591 75.460465 
L 293.233409 75.197348 
L 296.915227 74.934231 
L 300.597045 74.407996 
L 304.278864 74.671114 
L 307.960682 73.355528 
L 311.6425 72.566176 
L 315.324318 72.039942 
L 319.006136 71.776825 
L 322.687955 70.198122 
L 326.369773 70.198122 
L 330.051591 68.619419 
L 333.733409 68.619419 
L 337.415227 68.093185 
L 341.097045 67.566951 
L 344.778864 67.303834 
L 348.460682 67.303834 
L 352.1425 66.7776 
L 355.824318 66.251365 
L 359.506136 66.251365 
L 363.187955 65.198897 
L 366.869773 64.93578 
L 370.551591 64.93578 
L 374.233409 64.146428 
L 377.915227 64.146428 
L 381.597045 63.883311 
L 385.278864 63.620194 
L 388.960682 62.830843 
L 392.6425 62.567725 
L 396.324318 61.778374 
L 400.006136 62.041491 
L 403.687955 61.778374 
L 407.369773 62.041491 
L 411.051591 62.041491 
L 414.733409 61.778374 
L 418.415227 61.515257 
" style="fill:none;stroke:#8b0000;stroke-linecap:square;stroke-width:2;"/>
   </g>
   <g id="line2d_12">
    <path clip-path="url(#pad02d39b96)" d="M 123.869773 143.344686 
L 127.551591 140.18728 
L 131.233409 136.766757 
L 134.915227 134.398703 
L 138.597045 133.083117 
L 142.278864 127.820775 
L 145.960682 124.400252 
L 149.6425 120.979729 
L 153.324318 118.611675 
L 157.006136 114.401801 
L 160.687955 113.612449 
L 164.369773 110.718161 
L 168.051591 109.92881 
L 171.733409 107.823873 
L 175.415227 106.508287 
L 179.097045 104.666467 
L 182.778864 104.140233 
L 186.460682 103.087764 
L 190.1425 102.035296 
L 193.824318 100.193476 
L 197.506136 99.404124 
L 201.187955 98.088539 
L 204.869773 97.825421 
L 208.551591 95.19425 
L 212.233409 94.141782 
L 215.915227 93.615547 
L 219.597045 92.036844 
L 223.278864 91.51061 
L 226.960682 90.984376 
L 230.6425 90.984376 
L 234.324318 89.66879 
L 238.006136 88.616322 
L 241.687955 88.616322 
L 245.369773 87.82697 
L 249.051591 87.300736 
L 252.733409 85.722033 
L 256.415227 84.932682 
L 260.097045 85.458916 
L 263.778864 85.458916 
L 267.460682 85.722033 
L 271.1425 85.722033 
L 274.824318 86.511385 
L 278.506136 85.722033 
L 282.187955 85.458916 
L 285.869773 84.932682 
L 289.551591 84.932682 
L 293.233409 85.195799 
L 296.915227 84.932682 
L 300.597045 84.932682 
L 304.278864 85.195799 
L 307.960682 84.932682 
L 311.6425 84.669565 
L 315.324318 84.14333 
L 319.006136 83.880213 
L 322.687955 82.30151 
L 326.369773 82.30151 
L 330.051591 83.353979 
L 333.733409 83.353979 
L 337.415227 82.827745 
L 341.097045 82.827745 
L 344.778864 82.564628 
L 348.460682 82.564628 
L 352.1425 82.564628 
L 355.824318 82.038393 
L 359.506136 82.038393 
L 363.187955 80.985925 
L 366.869773 80.722808 
L 370.551591 80.722808 
L 374.233409 80.459691 
L 377.915227 80.459691 
L 381.597045 80.196573 
L 385.278864 80.459691 
L 388.960682 80.196573 
L 392.6425 80.459691 
L 396.324318 80.722808 
L 400.006136 80.985925 
L 403.687955 80.722808 
L 407.369773 80.985925 
L 411.051591 81.512159 
L 414.733409 81.249042 
L 418.415227 81.512159 
" style="fill:none;stroke:#000080;stroke-linecap:square;stroke-width:2;"/>
   </g>
   <g id="patch_3">
    <path d="M 109.1425 289.637812 
L 109.1425 17.837813 
" style="fill:none;stroke:#000000;stroke-linecap:square;stroke-linejoin:miter;stroke-width:0.8;"/>
   </g>
   <g id="patch_4">
    <path d="M 109.1425 289.637812 
L 433.1425 289.637812 
" style="fill:none;stroke:#000000;stroke-linecap:square;stroke-linejoin:miter;stroke-width:0.8;"/>
   </g>
  </g>
  <g id="axes_2">
   <g id="patch_5">
    <path d="M 449.3425 289.637812 
L 773.3425 289.637812 
L 773.3425 17.837813 
L 449.3425 17.837813 
z
" style="fill:none;"/>
   </g>
   <g id="matplotlib.axis_3">
    <g id="xtick_6">
     <g id="line2d_13">
      <g>
       <use style="stroke:#000000;stroke-width:0.8;" x="464.069773" xlink:href="#mfced9cfdc1" y="289.637812"/>
      </g>
     </g>
     <g id="text_13">
      <!-- 1 -->
      <g transform="translate(455.162273 319.413437)scale(0.28 -0.28)">
       <use xlink:href="#DejaVuSans-49"/>
      </g>
     </g>
    </g>
    <g id="xtick_7">
     <g id="line2d_14">
      <g>
       <use style="stroke:#000000;stroke-width:0.8;" x="537.706136" xlink:href="#mfced9cfdc1" y="289.637812"/>
      </g>
     </g>
     <g id="text_14">
      <!-- 2 -->
      <g transform="translate(528.798636 319.413437)scale(0.28 -0.28)">
       <use xlink:href="#DejaVuSans-50"/>
      </g>
     </g>
    </g>
    <g id="xtick_8">
     <g id="line2d_15">
      <g>
       <use style="stroke:#000000;stroke-width:0.8;" x="611.3425" xlink:href="#mfced9cfdc1" y="289.637812"/>
      </g>
     </g>
     <g id="text_15">
      <!-- 3 -->
      <g transform="translate(602.435 319.413437)scale(0.28 -0.28)">
       <use xlink:href="#DejaVuSans-51"/>
      </g>
     </g>
    </g>
    <g id="xtick_9">
     <g id="line2d_16">
      <g>
       <use style="stroke:#000000;stroke-width:0.8;" x="684.978864" xlink:href="#mfced9cfdc1" y="289.637812"/>
      </g>
     </g>
     <g id="text_16">
      <!-- 4 -->
      <g transform="translate(676.071364 319.413437)scale(0.28 -0.28)">
       <use xlink:href="#DejaVuSans-52"/>
      </g>
     </g>
    </g>
    <g id="xtick_10">
     <g id="line2d_17">
      <g>
       <use style="stroke:#000000;stroke-width:0.8;" x="758.615227" xlink:href="#mfced9cfdc1" y="289.637812"/>
      </g>
     </g>
     <g id="text_17">
      <!-- 5 -->
      <g transform="translate(749.707727 319.413437)scale(0.28 -0.28)">
       <use xlink:href="#DejaVuSans-53"/>
      </g>
     </g>
    </g>
    <g id="text_18">
     <!-- -log10 p-value -->
     <g transform="translate(510.5075 350.512187)scale(0.28 -0.28)">
      <use xlink:href="#DejaVuSans-45"/>
      <use x="36.083984" xlink:href="#DejaVuSans-108"/>
      <use x="63.867188" xlink:href="#DejaVuSans-111"/>
      <use x="125.048828" xlink:href="#DejaVuSans-103"/>
      <use x="188.525391" xlink:href="#DejaVuSans-49"/>
      <use x="252.148438" xlink:href="#DejaVuSans-48"/>
      <use x="315.771484" xlink:href="#DejaVuSans-32"/>
      <use x="347.558594" xlink:href="#DejaVuSans-112"/>
      <use x="411.035156" xlink:href="#DejaVuSans-45"/>
      <use x="447.087891" xlink:href="#DejaVuSans-118"/>
      <use x="506.267578" xlink:href="#DejaVuSans-97"/>
      <use x="567.546875" xlink:href="#DejaVuSans-108"/>
      <use x="595.330078" xlink:href="#DejaVuSans-117"/>
      <use x="658.708984" xlink:href="#DejaVuSans-101"/>
     </g>
    </g>
   </g>
   <g id="matplotlib.axis_4">
    <g id="ytick_6"/>
    <g id="ytick_7"/>
    <g id="ytick_8"/>
    <g id="ytick_9"/>
    <g id="ytick_10"/>
   </g>
   <g id="line2d_18">
    <path clip-path="url(#p3541a0813f)" d="M 464.069773 118.857448 
L 467.751591 121.144685 
L 471.433409 118.476242 
L 475.115227 117.713829 
L 478.797045 115.807798 
L 482.478864 116.189005 
L 486.160682 116.189005 
L 489.8425 116.951417 
L 493.524318 115.807798 
L 497.206136 116.189005 
L 500.887955 115.045386 
L 504.569773 114.66418 
L 508.251591 115.807798 
L 511.933409 116.570211 
L 515.615227 118.476242 
L 519.297045 119.238654 
L 522.978864 120.001066 
L 526.660682 120.001066 
L 530.3425 119.61986 
L 534.024318 120.001066 
L 537.706136 120.001066 
L 541.387955 120.001066 
L 545.069773 120.763479 
L 548.751591 121.907097 
L 552.433409 122.288303 
L 556.115227 122.66951 
L 559.797045 123.050716 
L 563.478864 122.288303 
L 567.160682 121.144685 
L 570.8425 121.525891 
L 574.524318 121.907097 
L 578.206136 121.525891 
L 581.887955 121.907097 
L 585.569773 121.907097 
L 589.251591 122.66951 
L 592.933409 123.050716 
L 596.615227 122.288303 
L 600.297045 123.050716 
L 603.978864 122.288303 
L 607.660682 122.66951 
L 611.3425 123.431922 
L 615.024318 123.431922 
L 618.706136 123.431922 
L 622.387955 123.050716 
L 626.069773 122.66951 
L 629.751591 122.66951 
L 633.433409 122.288303 
L 637.115227 122.288303 
L 640.797045 121.907097 
L 644.478864 123.050716 
L 648.160682 123.431922 
L 651.8425 124.194334 
L 655.524318 123.813128 
L 659.206136 124.194334 
L 662.887955 124.194334 
L 666.569773 124.956747 
L 670.251591 124.956747 
L 673.933409 125.337953 
L 677.615227 125.719159 
L 681.297045 126.100365 
L 684.978864 126.100365 
L 688.660682 126.100365 
L 692.3425 126.100365 
L 696.024318 126.481571 
L 699.706136 126.481571 
L 703.387955 126.481571 
L 707.069773 125.719159 
L 710.751591 125.719159 
L 714.433409 125.719159 
L 718.115227 125.719159 
L 721.797045 126.100365 
L 725.478864 126.100365 
L 729.160682 126.100365 
L 732.8425 126.100365 
L 736.524318 126.100365 
L 740.206136 126.100365 
L 743.887955 126.100365 
L 747.569773 126.481571 
L 751.251591 126.481571 
L 754.933409 126.481571 
L 758.615227 126.481571 
" style="fill:none;stroke:#8b0000;stroke-linecap:square;stroke-width:2;"/>
   </g>
   <g id="line2d_19">
    <path clip-path="url(#p3541a0813f)" d="M 464.069773 100.178345 
L 467.751591 97.891108 
L 471.433409 93.697841 
L 475.115227 92.173016 
L 478.797045 89.504573 
L 482.478864 87.598542 
L 486.160682 85.311305 
L 489.8425 83.024068 
L 493.524318 81.880449 
L 497.206136 81.499243 
L 500.887955 78.068388 
L 504.569773 77.687181 
L 508.251591 75.781151 
L 511.933409 75.018738 
L 515.615227 72.350295 
L 519.297045 70.063058 
L 522.978864 69.300646 
L 526.660682 68.538233 
L 530.3425 68.157027 
L 534.024318 66.250996 
L 537.706136 64.726172 
L 541.387955 62.438935 
L 545.069773 62.438935 
L 548.751591 63.582553 
L 552.433409 63.201347 
L 556.115227 62.820141 
L 559.797045 62.438935 
L 563.478864 61.676522 
L 567.160682 60.532904 
L 570.8425 60.91411 
L 574.524318 61.295316 
L 578.206136 60.91411 
L 581.887955 60.532904 
L 585.569773 60.532904 
L 589.251591 59.770491 
L 592.933409 60.151697 
L 596.615227 59.389285 
L 600.297045 60.151697 
L 603.978864 58.626873 
L 607.660682 59.008079 
L 611.3425 59.770491 
L 615.024318 59.770491 
L 618.706136 59.770491 
L 622.387955 59.389285 
L 626.069773 59.008079 
L 629.751591 59.008079 
L 633.433409 58.626873 
L 637.115227 58.626873 
L 640.797045 58.245667 
L 644.478864 57.86446 
L 648.160682 57.483254 
L 651.8425 56.720842 
L 655.524318 56.339636 
L 659.206136 55.95843 
L 662.887955 55.95843 
L 666.569773 55.95843 
L 670.251591 55.95843 
L 673.933409 55.577223 
L 677.615227 55.95843 
L 681.297045 56.339636 
L 684.978864 56.339636 
L 688.660682 56.339636 
L 692.3425 56.339636 
L 696.024318 55.95843 
L 699.706136 55.95843 
L 703.387955 55.95843 
L 707.069773 55.196017 
L 710.751591 55.196017 
L 714.433409 55.196017 
L 718.115227 55.196017 
L 721.797045 55.577223 
L 725.478864 55.577223 
L 729.160682 55.577223 
L 732.8425 55.577223 
L 736.524318 55.577223 
L 740.206136 55.577223 
L 743.887955 55.577223 
L 747.569773 55.95843 
L 751.251591 55.95843 
L 754.933409 55.95843 
L 758.615227 55.95843 
" style="fill:none;stroke:#000080;stroke-linecap:square;stroke-width:2;"/>
   </g>
   <g id="patch_6">
    <path d="M 449.3425 289.637812 
L 449.3425 17.837813 
" style="fill:none;stroke:#000000;stroke-linecap:square;stroke-linejoin:miter;stroke-width:0.8;"/>
   </g>
   <g id="patch_7">
    <path d="M 449.3425 289.637812 
L 773.3425 289.637812 
" style="fill:none;stroke:#000000;stroke-linecap:square;stroke-linejoin:miter;stroke-width:0.8;"/>
   </g>
  </g>
  <g id="axes_3">
   <g id="patch_8">
    <path d="M 789.5425 289.637812 
L 1113.5425 289.637812 
L 1113.5425 17.837813 
L 789.5425 17.837813 
z
" style="fill:none;"/>
   </g>
   <g id="matplotlib.axis_5">
    <g id="xtick_11">
     <g id="line2d_20">
      <g>
       <use style="stroke:#000000;stroke-width:0.8;" x="804.269773" xlink:href="#mfced9cfdc1" y="289.637812"/>
      </g>
     </g>
     <g id="text_19">
      <!-- 1 -->
      <g transform="translate(795.362273 319.413437)scale(0.28 -0.28)">
       <use xlink:href="#DejaVuSans-49"/>
      </g>
     </g>
    </g>
    <g id="xtick_12">
     <g id="line2d_21">
      <g>
       <use style="stroke:#000000;stroke-width:0.8;" x="877.906136" xlink:href="#mfced9cfdc1" y="289.637812"/>
      </g>
     </g>
     <g id="text_20">
      <!-- 2 -->
      <g transform="translate(868.998636 319.413437)scale(0.28 -0.28)">
       <use xlink:href="#DejaVuSans-50"/>
      </g>
     </g>
    </g>
    <g id="xtick_13">
     <g id="line2d_22">
      <g>
       <use style="stroke:#000000;stroke-width:0.8;" x="951.5425" xlink:href="#mfced9cfdc1" y="289.637812"/>
      </g>
     </g>
     <g id="text_21">
      <!-- 3 -->
      <g transform="translate(942.635 319.413437)scale(0.28 -0.28)">
       <use xlink:href="#DejaVuSans-51"/>
      </g>
     </g>
    </g>
    <g id="xtick_14">
     <g id="line2d_23">
      <g>
       <use style="stroke:#000000;stroke-width:0.8;" x="1025.178864" xlink:href="#mfced9cfdc1" y="289.637812"/>
      </g>
     </g>
     <g id="text_22">
      <!-- 4 -->
      <g transform="translate(1016.271364 319.413437)scale(0.28 -0.28)">
       <use xlink:href="#DejaVuSans-52"/>
      </g>
     </g>
    </g>
    <g id="xtick_15">
     <g id="line2d_24">
      <g>
       <use style="stroke:#000000;stroke-width:0.8;" x="1098.815227" xlink:href="#mfced9cfdc1" y="289.637812"/>
      </g>
     </g>
     <g id="text_23">
      <!-- 5 -->
      <g transform="translate(1089.907727 319.413437)scale(0.28 -0.28)">
       <use xlink:href="#DejaVuSans-53"/>
      </g>
     </g>
    </g>
    <g id="text_24">
     <!-- -log10 p-value -->
     <g transform="translate(850.7075 350.512187)scale(0.28 -0.28)">
      <use xlink:href="#DejaVuSans-45"/>
      <use x="36.083984" xlink:href="#DejaVuSans-108"/>
      <use x="63.867188" xlink:href="#DejaVuSans-111"/>
      <use x="125.048828" xlink:href="#DejaVuSans-103"/>
      <use x="188.525391" xlink:href="#DejaVuSans-49"/>
      <use x="252.148438" xlink:href="#DejaVuSans-48"/>
      <use x="315.771484" xlink:href="#DejaVuSans-32"/>
      <use x="347.558594" xlink:href="#DejaVuSans-112"/>
      <use x="411.035156" xlink:href="#DejaVuSans-45"/>
      <use x="447.087891" xlink:href="#DejaVuSans-118"/>
      <use x="506.267578" xlink:href="#DejaVuSans-97"/>
      <use x="567.546875" xlink:href="#DejaVuSans-108"/>
      <use x="595.330078" xlink:href="#DejaVuSans-117"/>
      <use x="658.708984" xlink:href="#DejaVuSans-101"/>
     </g>
    </g>
   </g>
   <g id="matplotlib.axis_6">
    <g id="ytick_11"/>
    <g id="ytick_12"/>
    <g id="ytick_13"/>
    <g id="ytick_14"/>
    <g id="ytick_15"/>
   </g>
   <g id="line2d_25">
    <path clip-path="url(#p5162277995)" d="M 804.269773 98.875807 
L 807.951591 98.875807 
L 811.633409 101.027258 
L 815.315227 104.61301 
L 818.997045 107.481612 
L 822.678864 108.915913 
L 826.360682 113.218815 
L 830.0425 116.804567 
L 833.724318 118.238868 
L 837.406136 121.107469 
L 841.087955 122.54177 
L 844.769773 124.693221 
L 848.451591 128.278973 
L 852.133409 131.147575 
L 855.815227 132.581876 
L 859.497045 134.016177 
L 863.178864 134.733327 
L 866.860682 136.884778 
L 870.5425 141.187681 
L 874.224318 143.339132 
L 877.906136 144.056282 
L 881.587955 146.924884 
L 885.269773 149.793485 
L 888.951591 151.944937 
L 892.633409 153.379237 
L 896.315227 155.530688 
L 899.997045 159.11644 
L 903.678864 160.550741 
L 907.360682 162.702192 
L 911.0425 164.853644 
L 914.724318 165.570794 
L 918.406136 165.570794 
L 922.087955 167.005095 
L 925.769773 168.439396 
L 929.451591 169.873696 
L 933.133409 171.307997 
L 936.815227 172.025148 
L 940.497045 175.6109 
L 944.178864 177.762351 
L 947.860682 178.479501 
L 951.5425 179.196652 
L 955.224318 179.913802 
L 958.906136 180.630952 
L 962.587955 182.782404 
L 966.269773 182.782404 
L 969.951591 182.782404 
L 973.633409 185.651005 
L 977.315227 187.802456 
L 980.997045 189.953907 
L 984.678864 191.388208 
L 988.360682 193.539659 
L 992.0425 194.25681 
L 995.724318 194.97396 
L 999.406136 197.125411 
L 1003.087955 198.559712 
L 1006.769773 199.276863 
L 1010.451591 202.145464 
L 1014.133409 203.579765 
L 1017.815227 203.579765 
L 1021.497045 205.014066 
L 1025.178864 206.448367 
L 1028.860682 207.165517 
L 1032.5425 207.165517 
L 1036.224318 207.165517 
L 1039.906136 207.882667 
L 1043.587955 207.882667 
L 1047.269773 210.751269 
L 1050.951591 211.468419 
L 1054.633409 212.90272 
L 1058.315227 214.337021 
L 1061.997045 214.337021 
L 1065.678864 215.054171 
L 1069.360682 215.771322 
L 1073.0425 215.771322 
L 1076.724318 215.771322 
L 1080.406136 215.771322 
L 1084.087955 218.639923 
L 1087.769773 219.357074 
L 1091.451591 219.357074 
L 1095.133409 220.074224 
L 1098.815227 220.791375 
" style="fill:none;stroke:#8b0000;stroke-linecap:square;stroke-width:2;"/>
   </g>
   <g id="line2d_26">
    <path clip-path="url(#p5162277995)" d="M 804.269773 162.702192 
L 807.951591 162.702192 
L 811.633409 161.985042 
L 815.315227 156.964989 
L 818.997045 154.096388 
L 822.678864 154.096388 
L 826.360682 151.227786 
L 830.0425 147.642034 
L 833.724318 146.207733 
L 837.406136 146.207733 
L 841.087955 144.773433 
L 844.769773 145.490583 
L 848.451591 143.339132 
L 852.133409 140.47053 
L 855.815227 139.036229 
L 859.497045 137.601929 
L 863.178864 136.884778 
L 866.860682 136.167628 
L 870.5425 133.299026 
L 874.224318 131.147575 
L 877.906136 130.430425 
L 881.587955 130.430425 
L 885.269773 127.561823 
L 888.951591 125.410372 
L 892.633409 126.844673 
L 896.315227 124.693221 
L 899.997045 121.107469 
L 903.678864 119.673169 
L 907.360682 117.521718 
L 911.0425 116.804567 
L 914.724318 117.521718 
L 918.406136 117.521718 
L 922.087955 117.521718 
L 925.769773 116.087417 
L 929.451591 113.218815 
L 933.133409 111.784514 
L 936.815227 111.067364 
L 940.497045 108.915913 
L 944.178864 105.330161 
L 947.860682 104.61301 
L 951.5425 103.89586 
L 955.224318 104.61301 
L 958.906136 105.330161 
L 962.587955 106.047311 
L 966.269773 106.047311 
L 969.951591 106.047311 
L 973.633409 103.17871 
L 977.315227 101.027258 
L 980.997045 98.875807 
L 984.678864 98.875807 
L 988.360682 96.724356 
L 992.0425 96.007206 
L 995.724318 96.724356 
L 999.406136 97.441506 
L 1003.087955 97.441506 
L 1006.769773 96.724356 
L 1010.451591 96.724356 
L 1014.133409 96.724356 
L 1017.815227 96.724356 
L 1021.497045 96.724356 
L 1025.178864 98.158657 
L 1028.860682 97.441506 
L 1032.5425 97.441506 
L 1036.224318 97.441506 
L 1039.906136 96.724356 
L 1043.587955 96.724356 
L 1047.269773 96.724356 
L 1050.951591 96.007206 
L 1054.633409 94.572905 
L 1058.315227 93.138604 
L 1061.997045 93.138604 
L 1065.678864 92.421454 
L 1069.360682 91.704303 
L 1073.0425 91.704303 
L 1076.724318 91.704303 
L 1080.406136 91.704303 
L 1084.087955 93.138604 
L 1087.769773 92.421454 
L 1091.451591 92.421454 
L 1095.133409 91.704303 
L 1098.815227 92.421454 
" style="fill:none;stroke:#000080;stroke-linecap:square;stroke-width:2;"/>
   </g>
   <g id="patch_9">
    <path d="M 789.5425 289.637812 
L 789.5425 17.837813 
" style="fill:none;stroke:#000000;stroke-linecap:square;stroke-linejoin:miter;stroke-width:0.8;"/>
   </g>
   <g id="patch_10">
    <path d="M 789.5425 289.637812 
L 1113.5425 289.637812 
" style="fill:none;stroke:#000000;stroke-linecap:square;stroke-linejoin:miter;stroke-width:0.8;"/>
   </g>
  </g>
 </g>
 <defs>
  <clipPath id="pad02d39b96">
   <rect height="271.8" width="324" x="109.1425" y="17.837812"/>
  </clipPath>
  <clipPath id="p3541a0813f">
   <rect height="271.8" width="324" x="449.3425" y="17.837812"/>
  </clipPath>
  <clipPath id="p5162277995">
   <rect height="271.8" width="324" x="789.5425" y="17.837812"/>
  </clipPath>
 </defs>
</svg>
