<?xml version="1.0" encoding="utf-8" standalone="no"?>
<!DOCTYPE svg PUBLIC "-//W3C//DTD SVG 1.1//EN"
  "http://www.w3.org/Graphics/SVG/1.1/DTD/svg11.dtd">
<!-- Created with matplotlib (https://matplotlib.org/) -->
<svg height="368.935313pt" version="1.1" viewBox="0 0 1120.7425 368.935313" width="1120.7425pt" xmlns="http://www.w3.org/2000/svg" xmlns:xlink="http://www.w3.org/1999/xlink">
 <defs>
  <style type="text/css">
*{stroke-linecap:butt;stroke-linejoin:round;}
  </style>
 </defs>
 <g id="figure_1">
  <g id="patch_1">
   <path d="M 0 368.935313 
L 1120.7425 368.935313 
L 1120.7425 0 
L 0 0 
z
" style="fill:none;"/>
  </g>
  <g id="axes_1">
   <g id="patch_2">
    <path d="M 109.1425 295.037813 
L 433.1425 295.037813 
L 433.1425 17.837813 
L 109.1425 17.837813 
z
" style="fill:none;"/>
   </g>
   <g id="matplotlib.axis_1">
    <g id="xtick_1">
     <g id="line2d_1">
      <defs>
       <path d="M 0 0 
L 0 5 
" id="mf6ce40c70f" style="stroke:#000000;stroke-width:0.8;"/>
      </defs>
      <g>
       <use style="stroke:#000000;stroke-width:0.8;" x="123.869773" xlink:href="#mf6ce40c70f" y="295.037813"/>
      </g>
     </g>
     <g id="text_1">
      <!-- 1 -->
      <defs>
       <path d="M 12.40625 8.296875 
L 28.515625 8.296875 
L 28.515625 63.921875 
L 10.984375 60.40625 
L 10.984375 69.390625 
L 28.421875 72.90625 
L 38.28125 72.90625 
L 38.28125 8.296875 
L 54.390625 8.296875 
L 54.390625 0 
L 12.40625 0 
z
" id="DejaVuSans-49"/>
      </defs>
      <g transform="translate(114.962273 324.813438)scale(0.28 -0.28)">
       <use xlink:href="#DejaVuSans-49"/>
      </g>
     </g>
    </g>
    <g id="xtick_2">
     <g id="line2d_2">
      <g>
       <use style="stroke:#000000;stroke-width:0.8;" x="197.506136" xlink:href="#mf6ce40c70f" y="295.037813"/>
      </g>
     </g>
     <g id="text_2">
      <!-- 2 -->
      <defs>
       <path d="M 19.1875 8.296875 
L 53.609375 8.296875 
L 53.609375 0 
L 7.328125 0 
L 7.328125 8.296875 
Q 12.9375 14.109375 22.625 23.890625 
Q 32.328125 33.6875 34.8125 36.53125 
Q 39.546875 41.84375 41.421875 45.53125 
Q 43.3125 49.21875 43.3125 52.78125 
Q 43.3125 58.59375 39.234375 62.25 
Q 35.15625 65.921875 28.609375 65.921875 
Q 23.96875 65.921875 18.8125 64.3125 
Q 13.671875 62.703125 7.8125 59.421875 
L 7.8125 69.390625 
Q 13.765625 71.78125 18.9375 73 
Q 24.125 74.21875 28.421875 74.21875 
Q 39.75 74.21875 46.484375 68.546875 
Q 53.21875 62.890625 53.21875 53.421875 
Q 53.21875 48.921875 51.53125 44.890625 
Q 49.859375 40.875 45.40625 35.40625 
Q 44.1875 33.984375 37.640625 27.21875 
Q 31.109375 20.453125 19.1875 8.296875 
z
" id="DejaVuSans-50"/>
      </defs>
      <g transform="translate(188.598636 324.813438)scale(0.28 -0.28)">
       <use xlink:href="#DejaVuSans-50"/>
      </g>
     </g>
    </g>
    <g id="xtick_3">
     <g id="line2d_3">
      <g>
       <use style="stroke:#000000;stroke-width:0.8;" x="271.1425" xlink:href="#mf6ce40c70f" y="295.037813"/>
      </g>
     </g>
     <g id="text_3">
      <!-- 3 -->
      <defs>
       <path d="M 40.578125 39.3125 
Q 47.65625 37.796875 51.625 33 
Q 55.609375 28.21875 55.609375 21.1875 
Q 55.609375 10.40625 48.1875 4.484375 
Q 40.765625 -1.421875 27.09375 -1.421875 
Q 22.515625 -1.421875 17.65625 -0.515625 
Q 12.796875 0.390625 7.625 2.203125 
L 7.625 11.71875 
Q 11.71875 9.328125 16.59375 8.109375 
Q 21.484375 6.890625 26.8125 6.890625 
Q 36.078125 6.890625 40.9375 10.546875 
Q 45.796875 14.203125 45.796875 21.1875 
Q 45.796875 27.640625 41.28125 31.265625 
Q 36.765625 34.90625 28.71875 34.90625 
L 20.21875 34.90625 
L 20.21875 43.015625 
L 29.109375 43.015625 
Q 36.375 43.015625 40.234375 45.921875 
Q 44.09375 48.828125 44.09375 54.296875 
Q 44.09375 59.90625 40.109375 62.90625 
Q 36.140625 65.921875 28.71875 65.921875 
Q 24.65625 65.921875 20.015625 65.03125 
Q 15.375 64.15625 9.8125 62.3125 
L 9.8125 71.09375 
Q 15.4375 72.65625 20.34375 73.4375 
Q 25.25 74.21875 29.59375 74.21875 
Q 40.828125 74.21875 47.359375 69.109375 
Q 53.90625 64.015625 53.90625 55.328125 
Q 53.90625 49.265625 50.4375 45.09375 
Q 46.96875 40.921875 40.578125 39.3125 
z
" id="DejaVuSans-51"/>
      </defs>
      <g transform="translate(262.235 324.813438)scale(0.28 -0.28)">
       <use xlink:href="#DejaVuSans-51"/>
      </g>
     </g>
    </g>
    <g id="xtick_4">
     <g id="line2d_4">
      <g>
       <use style="stroke:#000000;stroke-width:0.8;" x="344.778864" xlink:href="#mf6ce40c70f" y="295.037813"/>
      </g>
     </g>
     <g id="text_4">
      <!-- 4 -->
      <defs>
       <path d="M 37.796875 64.3125 
L 12.890625 25.390625 
L 37.796875 25.390625 
z
M 35.203125 72.90625 
L 47.609375 72.90625 
L 47.609375 25.390625 
L 58.015625 25.390625 
L 58.015625 17.1875 
L 47.609375 17.1875 
L 47.609375 0 
L 37.796875 0 
L 37.796875 17.1875 
L 4.890625 17.1875 
L 4.890625 26.703125 
z
" id="DejaVuSans-52"/>
      </defs>
      <g transform="translate(335.871364 324.813438)scale(0.28 -0.28)">
       <use xlink:href="#DejaVuSans-52"/>
      </g>
     </g>
    </g>
    <g id="xtick_5">
     <g id="line2d_5">
      <g>
       <use style="stroke:#000000;stroke-width:0.8;" x="418.415227" xlink:href="#mf6ce40c70f" y="295.037813"/>
      </g>
     </g>
     <g id="text_5">
      <!-- 5 -->
      <defs>
       <path d="M 10.796875 72.90625 
L 49.515625 72.90625 
L 49.515625 64.59375 
L 19.828125 64.59375 
L 19.828125 46.734375 
Q 21.96875 47.46875 24.109375 47.828125 
Q 26.265625 48.1875 28.421875 48.1875 
Q 40.625 48.1875 47.75 41.5 
Q 54.890625 34.8125 54.890625 23.390625 
Q 54.890625 11.625 47.5625 5.09375 
Q 40.234375 -1.421875 26.90625 -1.421875 
Q 22.3125 -1.421875 17.546875 -0.640625 
Q 12.796875 0.140625 7.71875 1.703125 
L 7.71875 11.625 
Q 12.109375 9.234375 16.796875 8.0625 
Q 21.484375 6.890625 26.703125 6.890625 
Q 35.15625 6.890625 40.078125 11.328125 
Q 45.015625 15.765625 45.015625 23.390625 
Q 45.015625 31 40.078125 35.4375 
Q 35.15625 39.890625 26.703125 39.890625 
Q 22.75 39.890625 18.8125 39.015625 
Q 14.890625 38.140625 10.796875 36.28125 
z
" id="DejaVuSans-53"/>
      </defs>
      <g transform="translate(409.507727 324.813438)scale(0.28 -0.28)">
       <use xlink:href="#DejaVuSans-53"/>
      </g>
     </g>
    </g>
    <g id="text_6">
     <!-- -log10 p-value -->
     <defs>
      <path d="M 4.890625 31.390625 
L 31.203125 31.390625 
L 31.203125 23.390625 
L 4.890625 23.390625 
z
" id="DejaVuSans-45"/>
      <path d="M 9.421875 75.984375 
L 18.40625 75.984375 
L 18.40625 0 
L 9.421875 0 
z
" id="DejaVuSans-108"/>
      <path d="M 30.609375 48.390625 
Q 23.390625 48.390625 19.1875 42.75 
Q 14.984375 37.109375 14.984375 27.296875 
Q 14.984375 17.484375 19.15625 11.84375 
Q 23.34375 6.203125 30.609375 6.203125 
Q 37.796875 6.203125 41.984375 11.859375 
Q 46.1875 17.53125 46.1875 27.296875 
Q 46.1875 37.015625 41.984375 42.703125 
Q 37.796875 48.390625 30.609375 48.390625 
z
M 30.609375 56 
Q 42.328125 56 49.015625 48.375 
Q 55.71875 40.765625 55.71875 27.296875 
Q 55.71875 13.875 49.015625 6.21875 
Q 42.328125 -1.421875 30.609375 -1.421875 
Q 18.84375 -1.421875 12.171875 6.21875 
Q 5.515625 13.875 5.515625 27.296875 
Q 5.515625 40.765625 12.171875 48.375 
Q 18.84375 56 30.609375 56 
z
" id="DejaVuSans-111"/>
      <path d="M 45.40625 27.984375 
Q 45.40625 37.75 41.375 43.109375 
Q 37.359375 48.484375 30.078125 48.484375 
Q 22.859375 48.484375 18.828125 43.109375 
Q 14.796875 37.75 14.796875 27.984375 
Q 14.796875 18.265625 18.828125 12.890625 
Q 22.859375 7.515625 30.078125 7.515625 
Q 37.359375 7.515625 41.375 12.890625 
Q 45.40625 18.265625 45.40625 27.984375 
z
M 54.390625 6.78125 
Q 54.390625 -7.171875 48.1875 -13.984375 
Q 42 -20.796875 29.203125 -20.796875 
Q 24.46875 -20.796875 20.265625 -20.09375 
Q 16.0625 -19.390625 12.109375 -17.921875 
L 12.109375 -9.1875 
Q 16.0625 -11.328125 19.921875 -12.34375 
Q 23.78125 -13.375 27.78125 -13.375 
Q 36.625 -13.375 41.015625 -8.765625 
Q 45.40625 -4.15625 45.40625 5.171875 
L 45.40625 9.625 
Q 42.625 4.78125 38.28125 2.390625 
Q 33.9375 0 27.875 0 
Q 17.828125 0 11.671875 7.65625 
Q 5.515625 15.328125 5.515625 27.984375 
Q 5.515625 40.671875 11.671875 48.328125 
Q 17.828125 56 27.875 56 
Q 33.9375 56 38.28125 53.609375 
Q 42.625 51.21875 45.40625 46.390625 
L 45.40625 54.6875 
L 54.390625 54.6875 
z
" id="DejaVuSans-103"/>
      <path d="M 31.78125 66.40625 
Q 24.171875 66.40625 20.328125 58.90625 
Q 16.5 51.421875 16.5 36.375 
Q 16.5 21.390625 20.328125 13.890625 
Q 24.171875 6.390625 31.78125 6.390625 
Q 39.453125 6.390625 43.28125 13.890625 
Q 47.125 21.390625 47.125 36.375 
Q 47.125 51.421875 43.28125 58.90625 
Q 39.453125 66.40625 31.78125 66.40625 
z
M 31.78125 74.21875 
Q 44.046875 74.21875 50.515625 64.515625 
Q 56.984375 54.828125 56.984375 36.375 
Q 56.984375 17.96875 50.515625 8.265625 
Q 44.046875 -1.421875 31.78125 -1.421875 
Q 19.53125 -1.421875 13.0625 8.265625 
Q 6.59375 17.96875 6.59375 36.375 
Q 6.59375 54.828125 13.0625 64.515625 
Q 19.53125 74.21875 31.78125 74.21875 
z
" id="DejaVuSans-48"/>
      <path id="DejaVuSans-32"/>
      <path d="M 18.109375 8.203125 
L 18.109375 -20.796875 
L 9.078125 -20.796875 
L 9.078125 54.6875 
L 18.109375 54.6875 
L 18.109375 46.390625 
Q 20.953125 51.265625 25.265625 53.625 
Q 29.59375 56 35.59375 56 
Q 45.5625 56 51.78125 48.09375 
Q 58.015625 40.1875 58.015625 27.296875 
Q 58.015625 14.40625 51.78125 6.484375 
Q 45.5625 -1.421875 35.59375 -1.421875 
Q 29.59375 -1.421875 25.265625 0.953125 
Q 20.953125 3.328125 18.109375 8.203125 
z
M 48.6875 27.296875 
Q 48.6875 37.203125 44.609375 42.84375 
Q 40.53125 48.484375 33.40625 48.484375 
Q 26.265625 48.484375 22.1875 42.84375 
Q 18.109375 37.203125 18.109375 27.296875 
Q 18.109375 17.390625 22.1875 11.75 
Q 26.265625 6.109375 33.40625 6.109375 
Q 40.53125 6.109375 44.609375 11.75 
Q 48.6875 17.390625 48.6875 27.296875 
z
" id="DejaVuSans-112"/>
      <path d="M 2.984375 54.6875 
L 12.5 54.6875 
L 29.59375 8.796875 
L 46.6875 54.6875 
L 56.203125 54.6875 
L 35.6875 0 
L 23.484375 0 
z
" id="DejaVuSans-118"/>
      <path d="M 34.28125 27.484375 
Q 23.390625 27.484375 19.1875 25 
Q 14.984375 22.515625 14.984375 16.5 
Q 14.984375 11.71875 18.140625 8.90625 
Q 21.296875 6.109375 26.703125 6.109375 
Q 34.1875 6.109375 38.703125 11.40625 
Q 43.21875 16.703125 43.21875 25.484375 
L 43.21875 27.484375 
z
M 52.203125 31.203125 
L 52.203125 0 
L 43.21875 0 
L 43.21875 8.296875 
Q 40.140625 3.328125 35.546875 0.953125 
Q 30.953125 -1.421875 24.3125 -1.421875 
Q 15.921875 -1.421875 10.953125 3.296875 
Q 6 8.015625 6 15.921875 
Q 6 25.140625 12.171875 29.828125 
Q 18.359375 34.515625 30.609375 34.515625 
L 43.21875 34.515625 
L 43.21875 35.40625 
Q 43.21875 41.609375 39.140625 45 
Q 35.0625 48.390625 27.6875 48.390625 
Q 23 48.390625 18.546875 47.265625 
Q 14.109375 46.140625 10.015625 43.890625 
L 10.015625 52.203125 
Q 14.9375 54.109375 19.578125 55.046875 
Q 24.21875 56 28.609375 56 
Q 40.484375 56 46.34375 49.84375 
Q 52.203125 43.703125 52.203125 31.203125 
z
" id="DejaVuSans-97"/>
      <path d="M 8.5 21.578125 
L 8.5 54.6875 
L 17.484375 54.6875 
L 17.484375 21.921875 
Q 17.484375 14.15625 20.5 10.265625 
Q 23.53125 6.390625 29.59375 6.390625 
Q 36.859375 6.390625 41.078125 11.03125 
Q 45.3125 15.671875 45.3125 23.6875 
L 45.3125 54.6875 
L 54.296875 54.6875 
L 54.296875 0 
L 45.3125 0 
L 45.3125 8.40625 
Q 42.046875 3.421875 37.71875 1 
Q 33.40625 -1.421875 27.6875 -1.421875 
Q 18.265625 -1.421875 13.375 4.4375 
Q 8.5 10.296875 8.5 21.578125 
z
M 31.109375 56 
z
" id="DejaVuSans-117"/>
      <path d="M 56.203125 29.59375 
L 56.203125 25.203125 
L 14.890625 25.203125 
Q 15.484375 15.921875 20.484375 11.0625 
Q 25.484375 6.203125 34.421875 6.203125 
Q 39.59375 6.203125 44.453125 7.46875 
Q 49.3125 8.734375 54.109375 11.28125 
L 54.109375 2.78125 
Q 49.265625 0.734375 44.1875 -0.34375 
Q 39.109375 -1.421875 33.890625 -1.421875 
Q 20.796875 -1.421875 13.15625 6.1875 
Q 5.515625 13.8125 5.515625 26.8125 
Q 5.515625 40.234375 12.765625 48.109375 
Q 20.015625 56 32.328125 56 
Q 43.359375 56 49.78125 48.890625 
Q 56.203125 41.796875 56.203125 29.59375 
z
M 47.21875 32.234375 
Q 47.125 39.59375 43.09375 43.984375 
Q 39.0625 48.390625 32.421875 48.390625 
Q 24.90625 48.390625 20.390625 44.140625 
Q 15.875 39.890625 15.1875 32.171875 
z
" id="DejaVuSans-101"/>
     </defs>
     <g transform="translate(170.3075 355.912188)scale(0.28 -0.28)">
      <use xlink:href="#DejaVuSans-45"/>
      <use x="36.083984" xlink:href="#DejaVuSans-108"/>
      <use x="63.867188" xlink:href="#DejaVuSans-111"/>
      <use x="125.048828" xlink:href="#DejaVuSans-103"/>
      <use x="188.525391" xlink:href="#DejaVuSans-49"/>
      <use x="252.148438" xlink:href="#DejaVuSans-48"/>
      <use x="315.771484" xlink:href="#DejaVuSans-32"/>
      <use x="347.558594" xlink:href="#DejaVuSans-112"/>
      <use x="411.035156" xlink:href="#DejaVuSans-45"/>
      <use x="447.087891" xlink:href="#DejaVuSans-118"/>
      <use x="506.267578" xlink:href="#DejaVuSans-97"/>
      <use x="567.546875" xlink:href="#DejaVuSans-108"/>
      <use x="595.330078" xlink:href="#DejaVuSans-117"/>
      <use x="658.708984" xlink:href="#DejaVuSans-101"/>
     </g>
    </g>
   </g>
   <g id="matplotlib.axis_2">
    <g id="ytick_1">
     <g id="line2d_6">
      <defs>
       <path d="M 0 0 
L -5 0 
" id="m9603eeb26a" style="stroke:#000000;stroke-width:0.8;"/>
      </defs>
      <g>
       <use style="stroke:#000000;stroke-width:0.8;" x="109.1425" xlink:href="#m9603eeb26a" y="295.037813"/>
      </g>
     </g>
     <g id="text_7">
      <!-- 0.00 -->
      <defs>
       <path d="M 10.6875 12.40625 
L 21 12.40625 
L 21 0 
L 10.6875 0 
z
" id="DejaVuSans-46"/>
      </defs>
      <g transform="translate(38.29875 305.675625)scale(0.28 -0.28)">
       <use xlink:href="#DejaVuSans-48"/>
       <use x="63.623047" xlink:href="#DejaVuSans-46"/>
       <use x="95.410156" xlink:href="#DejaVuSans-48"/>
       <use x="159.033203" xlink:href="#DejaVuSans-48"/>
      </g>
     </g>
    </g>
    <g id="ytick_2">
     <g id="line2d_7">
      <g>
       <use style="stroke:#000000;stroke-width:0.8;" x="109.1425" xlink:href="#m9603eeb26a" y="225.737813"/>
      </g>
     </g>
     <g id="text_8">
      <!-- 0.25 -->
      <g transform="translate(38.29875 236.375625)scale(0.28 -0.28)">
       <use xlink:href="#DejaVuSans-48"/>
       <use x="63.623047" xlink:href="#DejaVuSans-46"/>
       <use x="95.410156" xlink:href="#DejaVuSans-50"/>
       <use x="159.033203" xlink:href="#DejaVuSans-53"/>
      </g>
     </g>
    </g>
    <g id="ytick_3">
     <g id="line2d_8">
      <g>
       <use style="stroke:#000000;stroke-width:0.8;" x="109.1425" xlink:href="#m9603eeb26a" y="156.437813"/>
      </g>
     </g>
     <g id="text_9">
      <!-- 0.50 -->
      <g transform="translate(38.29875 167.075625)scale(0.28 -0.28)">
       <use xlink:href="#DejaVuSans-48"/>
       <use x="63.623047" xlink:href="#DejaVuSans-46"/>
       <use x="95.410156" xlink:href="#DejaVuSans-53"/>
       <use x="159.033203" xlink:href="#DejaVuSans-48"/>
      </g>
     </g>
    </g>
    <g id="ytick_4">
     <g id="line2d_9">
      <g>
       <use style="stroke:#000000;stroke-width:0.8;" x="109.1425" xlink:href="#m9603eeb26a" y="87.137813"/>
      </g>
     </g>
     <g id="text_10">
      <!-- 0.75 -->
      <defs>
       <path d="M 8.203125 72.90625 
L 55.078125 72.90625 
L 55.078125 68.703125 
L 28.609375 0 
L 18.3125 0 
L 43.21875 64.59375 
L 8.203125 64.59375 
z
" id="DejaVuSans-55"/>
      </defs>
      <g transform="translate(38.29875 97.775625)scale(0.28 -0.28)">
       <use xlink:href="#DejaVuSans-48"/>
       <use x="63.623047" xlink:href="#DejaVuSans-46"/>
       <use x="95.410156" xlink:href="#DejaVuSans-55"/>
       <use x="159.033203" xlink:href="#DejaVuSans-53"/>
      </g>
     </g>
    </g>
    <g id="ytick_5">
     <g id="line2d_10">
      <g>
       <use style="stroke:#000000;stroke-width:0.8;" x="109.1425" xlink:href="#m9603eeb26a" y="17.837813"/>
      </g>
     </g>
     <g id="text_11">
      <!-- 1.00 -->
      <g transform="translate(38.29875 28.475625)scale(0.28 -0.28)">
       <use xlink:href="#DejaVuSans-49"/>
       <use x="63.623047" xlink:href="#DejaVuSans-46"/>
       <use x="95.410156" xlink:href="#DejaVuSans-48"/>
       <use x="159.033203" xlink:href="#DejaVuSans-48"/>
      </g>
     </g>
    </g>
    <g id="text_12">
     <!-- Accuracy -->
     <defs>
      <path d="M 34.1875 63.1875 
L 20.796875 26.90625 
L 47.609375 26.90625 
z
M 28.609375 72.90625 
L 39.796875 72.90625 
L 67.578125 0 
L 57.328125 0 
L 50.6875 18.703125 
L 17.828125 18.703125 
L 11.1875 0 
L 0.78125 0 
z
" id="DejaVuSans-65"/>
      <path d="M 48.78125 52.59375 
L 48.78125 44.1875 
Q 44.96875 46.296875 41.140625 47.34375 
Q 37.3125 48.390625 33.40625 48.390625 
Q 24.65625 48.390625 19.8125 42.84375 
Q 14.984375 37.3125 14.984375 27.296875 
Q 14.984375 17.28125 19.8125 11.734375 
Q 24.65625 6.203125 33.40625 6.203125 
Q 37.3125 6.203125 41.140625 7.25 
Q 44.96875 8.296875 48.78125 10.40625 
L 48.78125 2.09375 
Q 45.015625 0.34375 40.984375 -0.53125 
Q 36.96875 -1.421875 32.421875 -1.421875 
Q 20.0625 -1.421875 12.78125 6.34375 
Q 5.515625 14.109375 5.515625 27.296875 
Q 5.515625 40.671875 12.859375 48.328125 
Q 20.21875 56 33.015625 56 
Q 37.15625 56 41.109375 55.140625 
Q 45.0625 54.296875 48.78125 52.59375 
z
" id="DejaVuSans-99"/>
      <path d="M 41.109375 46.296875 
Q 39.59375 47.171875 37.8125 47.578125 
Q 36.03125 48 33.890625 48 
Q 26.265625 48 22.1875 43.046875 
Q 18.109375 38.09375 18.109375 28.8125 
L 18.109375 0 
L 9.078125 0 
L 9.078125 54.6875 
L 18.109375 54.6875 
L 18.109375 46.1875 
Q 20.953125 51.171875 25.484375 53.578125 
Q 30.03125 56 36.53125 56 
Q 37.453125 56 38.578125 55.875 
Q 39.703125 55.765625 41.0625 55.515625 
z
" id="DejaVuSans-114"/>
      <path d="M 32.171875 -5.078125 
Q 28.375 -14.84375 24.75 -17.8125 
Q 21.140625 -20.796875 15.09375 -20.796875 
L 7.90625 -20.796875 
L 7.90625 -13.28125 
L 13.1875 -13.28125 
Q 16.890625 -13.28125 18.9375 -11.515625 
Q 21 -9.765625 23.484375 -3.21875 
L 25.09375 0.875 
L 2.984375 54.6875 
L 12.5 54.6875 
L 29.59375 11.921875 
L 46.6875 54.6875 
L 56.203125 54.6875 
z
" id="DejaVuSans-121"/>
     </defs>
     <g transform="translate(28.475625 220.599375)rotate(-90)scale(0.28 -0.28)">
      <use xlink:href="#DejaVuSans-65"/>
      <use x="68.392578" xlink:href="#DejaVuSans-99"/>
      <use x="123.373047" xlink:href="#DejaVuSans-99"/>
      <use x="178.353516" xlink:href="#DejaVuSans-117"/>
      <use x="241.732422" xlink:href="#DejaVuSans-114"/>
      <use x="282.845703" xlink:href="#DejaVuSans-97"/>
      <use x="344.125" xlink:href="#DejaVuSans-99"/>
      <use x="399.105469" xlink:href="#DejaVuSans-121"/>
     </g>
    </g>
   </g>
   <g id="line2d_11">
    <path clip-path="url(#p3652ba1124)" d="M 123.869773 174.029351 
L 127.551591 168.96512 
L 131.233409 167.365889 
L 134.915227 163.367813 
L 138.597045 159.902813 
L 142.278864 153.772428 
L 145.960682 151.906659 
L 149.6425 148.17512 
L 153.324318 145.776274 
L 157.006136 142.577813 
L 160.687955 138.046659 
L 164.369773 135.114736 
L 168.051591 133.515505 
L 171.733409 131.116659 
L 175.415227 128.717813 
L 179.097045 126.318966 
L 182.778864 124.186659 
L 186.460682 122.054351 
L 190.1425 119.122428 
L 193.824318 116.190505 
L 197.506136 113.791659 
L 201.187955 112.992043 
L 204.869773 111.392813 
L 208.551591 108.993966 
L 212.233409 108.194351 
L 215.915227 106.861659 
L 219.597045 104.995889 
L 223.278864 102.330505 
L 226.960682 101.264351 
L 230.6425 99.132043 
L 234.324318 98.065889 
L 238.006136 96.20012 
L 241.687955 94.600889 
L 245.369773 93.268197 
L 249.051591 92.202043 
L 252.733409 91.135889 
L 256.415227 90.602813 
L 260.097045 89.803197 
L 263.778864 89.27012 
L 267.460682 87.937428 
L 271.1425 85.80512 
L 274.824318 84.472428 
L 278.506136 83.406274 
L 282.187955 82.873197 
L 285.869773 82.073582 
L 289.551591 81.273966 
L 293.233409 80.474351 
L 296.915227 79.941274 
L 300.597045 78.608582 
L 304.278864 78.342043 
L 307.960682 77.808966 
L 311.6425 76.209736 
L 315.324318 75.143582 
L 319.006136 74.877043 
L 322.687955 74.077428 
L 326.369773 73.277813 
L 330.051591 72.744736 
L 333.733409 71.678582 
L 337.415227 70.878966 
L 341.097045 70.612428 
L 344.778864 70.612428 
L 348.460682 70.345889 
L 352.1425 70.079351 
L 355.824318 69.279736 
L 359.506136 68.213582 
L 363.187955 67.680505 
L 366.869773 67.680505 
L 370.551591 67.413966 
L 374.233409 67.147428 
L 377.915227 66.347813 
L 381.597045 65.548197 
L 385.278864 65.548197 
L 388.960682 64.748582 
L 392.6425 64.748582 
L 396.324318 64.482043 
L 400.006136 64.215505 
L 403.687955 63.682428 
L 407.369773 63.415889 
L 411.051591 62.882813 
L 414.733409 62.882813 
L 418.415227 62.616274 
" style="fill:none;stroke:#8b0000;stroke-linecap:square;stroke-width:2;"/>
   </g>
   <g id="line2d_12">
    <path clip-path="url(#p3652ba1124)" d="M 123.869773 151.64012 
L 127.551591 146.575889 
L 131.233409 145.509736 
L 134.915227 142.044736 
L 138.597045 139.645889 
L 142.278864 135.647813 
L 145.960682 134.31512 
L 149.6425 131.649736 
L 153.324318 129.783966 
L 157.006136 126.585505 
L 160.687955 123.120505 
L 164.369773 120.188582 
L 168.051591 119.122428 
L 171.733409 118.322813 
L 175.415227 116.457043 
L 179.097045 114.591274 
L 182.778864 113.52512 
L 186.460682 111.392813 
L 190.1425 109.527043 
L 193.824318 108.194351 
L 197.506136 105.795505 
L 201.187955 106.062043 
L 204.869773 104.462813 
L 208.551591 102.063966 
L 212.233409 101.797428 
L 215.915227 100.464736 
L 219.597045 99.132043 
L 223.278864 98.065889 
L 226.960682 96.999736 
L 230.6425 96.999736 
L 234.324318 95.933582 
L 238.006136 94.067813 
L 241.687955 93.001659 
L 245.369773 92.73512 
L 249.051591 92.202043 
L 252.733409 91.668966 
L 256.415227 91.135889 
L 260.097045 90.869351 
L 263.778864 90.869351 
L 267.460682 91.135889 
L 271.1425 89.536659 
L 274.824318 88.737043 
L 278.506136 88.203966 
L 282.187955 88.203966 
L 285.869773 88.470505 
L 289.551591 87.670889 
L 293.233409 87.404351 
L 296.915227 87.404351 
L 300.597045 86.604736 
L 304.278864 86.338197 
L 307.960682 85.80512 
L 311.6425 85.80512 
L 315.324318 85.80512 
L 319.006136 85.538582 
L 322.687955 84.738966 
L 326.369773 85.538582 
L 330.051591 85.005505 
L 333.733409 83.939351 
L 337.415227 84.205889 
L 341.097045 83.939351 
L 344.778864 84.472428 
L 348.460682 84.205889 
L 352.1425 83.939351 
L 355.824318 83.672813 
L 359.506136 83.672813 
L 363.187955 83.139736 
L 366.869773 83.672813 
L 370.551591 83.406274 
L 374.233409 83.672813 
L 377.915227 83.939351 
L 381.597045 83.672813 
L 385.278864 83.672813 
L 388.960682 82.873197 
L 392.6425 82.873197 
L 396.324318 83.139736 
L 400.006136 82.873197 
L 403.687955 83.406274 
L 407.369773 83.139736 
L 411.051591 82.606659 
L 414.733409 82.606659 
L 418.415227 82.873197 
" style="fill:none;stroke:#000080;stroke-linecap:square;stroke-width:2;"/>
   </g>
   <g id="patch_3">
    <path d="M 109.1425 295.037813 
L 109.1425 17.837813 
" style="fill:none;stroke:#000000;stroke-linecap:square;stroke-linejoin:miter;stroke-width:0.8;"/>
   </g>
   <g id="patch_4">
    <path d="M 109.1425 295.037813 
L 433.1425 295.037813 
" style="fill:none;stroke:#000000;stroke-linecap:square;stroke-linejoin:miter;stroke-width:0.8;"/>
   </g>
  </g>
  <g id="axes_2">
   <g id="patch_5">
    <path d="M 449.3425 295.037813 
L 773.3425 295.037813 
L 773.3425 17.837813 
L 449.3425 17.837813 
z
" style="fill:none;"/>
   </g>
   <g id="matplotlib.axis_3">
    <g id="xtick_6">
     <g id="line2d_13">
      <g>
       <use style="stroke:#000000;stroke-width:0.8;" x="464.069773" xlink:href="#mf6ce40c70f" y="295.037813"/>
      </g>
     </g>
     <g id="text_13">
      <!-- 1 -->
      <g transform="translate(455.162273 324.813438)scale(0.28 -0.28)">
       <use xlink:href="#DejaVuSans-49"/>
      </g>
     </g>
    </g>
    <g id="xtick_7">
     <g id="line2d_14">
      <g>
       <use style="stroke:#000000;stroke-width:0.8;" x="537.706136" xlink:href="#mf6ce40c70f" y="295.037813"/>
      </g>
     </g>
     <g id="text_14">
      <!-- 2 -->
      <g transform="translate(528.798636 324.813438)scale(0.28 -0.28)">
       <use xlink:href="#DejaVuSans-50"/>
      </g>
     </g>
    </g>
    <g id="xtick_8">
     <g id="line2d_15">
      <g>
       <use style="stroke:#000000;stroke-width:0.8;" x="611.3425" xlink:href="#mf6ce40c70f" y="295.037813"/>
      </g>
     </g>
     <g id="text_15">
      <!-- 3 -->
      <g transform="translate(602.435 324.813438)scale(0.28 -0.28)">
       <use xlink:href="#DejaVuSans-51"/>
      </g>
     </g>
    </g>
    <g id="xtick_9">
     <g id="line2d_16">
      <g>
       <use style="stroke:#000000;stroke-width:0.8;" x="684.978864" xlink:href="#mf6ce40c70f" y="295.037813"/>
      </g>
     </g>
     <g id="text_16">
      <!-- 4 -->
      <g transform="translate(676.071364 324.813438)scale(0.28 -0.28)">
       <use xlink:href="#DejaVuSans-52"/>
      </g>
     </g>
    </g>
    <g id="xtick_10">
     <g id="line2d_17">
      <g>
       <use style="stroke:#000000;stroke-width:0.8;" x="758.615227" xlink:href="#mf6ce40c70f" y="295.037813"/>
      </g>
     </g>
     <g id="text_17">
      <!-- 5 -->
      <g transform="translate(749.707727 324.813438)scale(0.28 -0.28)">
       <use xlink:href="#DejaVuSans-53"/>
      </g>
     </g>
    </g>
    <g id="text_18">
     <!-- -log10 p-value -->
     <g transform="translate(510.5075 355.912188)scale(0.28 -0.28)">
      <use xlink:href="#DejaVuSans-45"/>
      <use x="36.083984" xlink:href="#DejaVuSans-108"/>
      <use x="63.867188" xlink:href="#DejaVuSans-111"/>
      <use x="125.048828" xlink:href="#DejaVuSans-103"/>
      <use x="188.525391" xlink:href="#DejaVuSans-49"/>
      <use x="252.148438" xlink:href="#DejaVuSans-48"/>
      <use x="315.771484" xlink:href="#DejaVuSans-32"/>
      <use x="347.558594" xlink:href="#DejaVuSans-112"/>
      <use x="411.035156" xlink:href="#DejaVuSans-45"/>
      <use x="447.087891" xlink:href="#DejaVuSans-118"/>
      <use x="506.267578" xlink:href="#DejaVuSans-97"/>
      <use x="567.546875" xlink:href="#DejaVuSans-108"/>
      <use x="595.330078" xlink:href="#DejaVuSans-117"/>
      <use x="658.708984" xlink:href="#DejaVuSans-101"/>
     </g>
    </g>
   </g>
   <g id="matplotlib.axis_4">
    <g id="ytick_6"/>
    <g id="ytick_7"/>
    <g id="ytick_8"/>
    <g id="ytick_9"/>
    <g id="ytick_10"/>
   </g>
   <g id="line2d_18">
    <path clip-path="url(#p53a8160923)" d="M 464.069773 113.92854 
L 467.751591 113.533105 
L 471.433409 114.323975 
L 475.115227 113.92854 
L 478.797045 115.114845 
L 482.478864 113.13767 
L 486.160682 113.533105 
L 489.8425 111.951365 
L 493.524318 113.533105 
L 497.206136 113.533105 
L 500.887955 114.323975 
L 504.569773 114.71941 
L 508.251591 115.51028 
L 511.933409 115.905715 
L 515.615227 115.114845 
L 519.297045 114.71941 
L 522.978864 116.696586 
L 526.660682 117.487456 
L 530.3425 117.882891 
L 534.024318 118.673761 
L 537.706136 118.278326 
L 541.387955 120.650937 
L 545.069773 121.837242 
L 548.751591 121.441807 
L 552.433409 121.837242 
L 556.115227 121.046372 
L 559.797045 122.232677 
L 563.478864 122.628112 
L 567.160682 123.418982 
L 570.8425 122.232677 
L 574.524318 121.837242 
L 578.206136 122.232677 
L 581.887955 123.418982 
L 585.569773 123.814417 
L 589.251591 124.605288 
L 592.933409 125.000723 
L 596.615227 126.582463 
L 600.297045 126.977898 
L 603.978864 126.977898 
L 607.660682 127.373333 
L 611.3425 126.977898 
L 615.024318 126.977898 
L 618.706136 127.373333 
L 622.387955 126.977898 
L 626.069773 126.977898 
L 629.751591 127.768768 
L 633.433409 128.164203 
L 637.115227 128.559638 
L 640.797045 127.768768 
L 644.478864 128.164203 
L 648.160682 128.164203 
L 651.8425 128.559638 
L 655.524318 128.559638 
L 659.206136 128.559638 
L 662.887955 128.559638 
L 666.569773 128.559638 
L 670.251591 128.559638 
L 673.933409 128.955074 
L 677.615227 128.955074 
L 681.297045 128.559638 
L 684.978864 128.559638 
L 688.660682 128.164203 
L 692.3425 128.164203 
L 696.024318 128.164203 
L 699.706136 128.559638 
L 703.387955 128.955074 
L 707.069773 129.350509 
L 710.751591 129.745944 
L 714.433409 130.141379 
L 718.115227 130.536814 
L 721.797045 130.536814 
L 725.478864 130.536814 
L 729.160682 130.536814 
L 732.8425 130.141379 
L 736.524318 130.141379 
L 740.206136 130.141379 
L 743.887955 130.141379 
L 747.569773 129.745944 
L 751.251591 129.745944 
L 754.933409 129.745944 
L 758.615227 129.745944 
" style="fill:none;stroke:#8b0000;stroke-linecap:square;stroke-width:2;"/>
   </g>
   <g id="line2d_19">
    <path clip-path="url(#p53a8160923)" d="M 464.069773 96.924831 
L 467.751591 94.947656 
L 471.433409 94.156785 
L 475.115227 92.97048 
L 478.797045 89.411564 
L 482.478864 87.434389 
L 486.160682 83.084603 
L 489.8425 81.502862 
L 493.524318 79.130252 
L 497.206136 75.966771 
L 500.887955 74.385031 
L 504.569773 73.198725 
L 508.251591 71.616985 
L 511.933409 70.43068 
L 515.615227 69.63981 
L 519.297045 69.244375 
L 522.978864 68.058069 
L 526.660682 68.848939 
L 530.3425 67.662634 
L 534.024318 66.871764 
L 537.706136 66.476329 
L 541.387955 66.476329 
L 545.069773 66.080894 
L 548.751591 64.894589 
L 552.433409 64.499153 
L 556.115227 63.708283 
L 559.797045 64.103718 
L 563.478864 63.708283 
L 567.160682 62.917413 
L 570.8425 61.731108 
L 574.524318 61.335673 
L 578.206136 61.731108 
L 581.887955 62.126543 
L 585.569773 62.521978 
L 589.251591 61.731108 
L 592.933409 61.335673 
L 596.615227 62.126543 
L 600.297045 61.731108 
L 603.978864 60.940238 
L 607.660682 60.544803 
L 611.3425 60.149367 
L 615.024318 60.149367 
L 618.706136 60.544803 
L 622.387955 60.149367 
L 626.069773 60.149367 
L 629.751591 60.149367 
L 633.433409 59.753932 
L 637.115227 60.149367 
L 640.797045 59.358497 
L 644.478864 58.963062 
L 648.160682 58.172192 
L 651.8425 57.776757 
L 655.524318 57.776757 
L 659.206136 57.776757 
L 662.887955 57.776757 
L 666.569773 57.776757 
L 670.251591 57.776757 
L 673.933409 58.172192 
L 677.615227 58.172192 
L 681.297045 57.776757 
L 684.978864 57.776757 
L 688.660682 57.381322 
L 692.3425 57.381322 
L 696.024318 57.381322 
L 699.706136 56.985887 
L 703.387955 57.381322 
L 707.069773 57.776757 
L 710.751591 56.590452 
L 714.433409 56.195016 
L 718.115227 56.590452 
L 721.797045 56.590452 
L 725.478864 56.590452 
L 729.160682 56.590452 
L 732.8425 56.195016 
L 736.524318 56.195016 
L 740.206136 56.195016 
L 743.887955 56.195016 
L 747.569773 55.799581 
L 751.251591 55.799581 
L 754.933409 55.799581 
L 758.615227 55.799581 
" style="fill:none;stroke:#000080;stroke-linecap:square;stroke-width:2;"/>
   </g>
   <g id="patch_6">
    <path d="M 449.3425 295.037813 
L 449.3425 17.837813 
" style="fill:none;stroke:#000000;stroke-linecap:square;stroke-linejoin:miter;stroke-width:0.8;"/>
   </g>
   <g id="patch_7">
    <path d="M 449.3425 295.037813 
L 773.3425 295.037813 
" style="fill:none;stroke:#000000;stroke-linecap:square;stroke-linejoin:miter;stroke-width:0.8;"/>
   </g>
  </g>
  <g id="axes_3">
   <g id="patch_8">
    <path d="M 789.5425 295.037813 
L 1113.5425 295.037813 
L 1113.5425 17.837813 
L 789.5425 17.837813 
z
" style="fill:none;"/>
   </g>
   <g id="matplotlib.axis_5">
    <g id="xtick_11">
     <g id="line2d_20">
      <g>
       <use style="stroke:#000000;stroke-width:0.8;" x="804.269773" xlink:href="#mf6ce40c70f" y="295.037813"/>
      </g>
     </g>
     <g id="text_19">
      <!-- 1 -->
      <g transform="translate(795.362273 324.813438)scale(0.28 -0.28)">
       <use xlink:href="#DejaVuSans-49"/>
      </g>
     </g>
    </g>
    <g id="xtick_12">
     <g id="line2d_21">
      <g>
       <use style="stroke:#000000;stroke-width:0.8;" x="877.906136" xlink:href="#mf6ce40c70f" y="295.037813"/>
      </g>
     </g>
     <g id="text_20">
      <!-- 2 -->
      <g transform="translate(868.998636 324.813438)scale(0.28 -0.28)">
       <use xlink:href="#DejaVuSans-50"/>
      </g>
     </g>
    </g>
    <g id="xtick_13">
     <g id="line2d_22">
      <g>
       <use style="stroke:#000000;stroke-width:0.8;" x="951.5425" xlink:href="#mf6ce40c70f" y="295.037813"/>
      </g>
     </g>
     <g id="text_21">
      <!-- 3 -->
      <g transform="translate(942.635 324.813438)scale(0.28 -0.28)">
       <use xlink:href="#DejaVuSans-51"/>
      </g>
     </g>
    </g>
    <g id="xtick_14">
     <g id="line2d_23">
      <g>
       <use style="stroke:#000000;stroke-width:0.8;" x="1025.178864" xlink:href="#mf6ce40c70f" y="295.037813"/>
      </g>
     </g>
     <g id="text_22">
      <!-- 4 -->
      <g transform="translate(1016.271364 324.813438)scale(0.28 -0.28)">
       <use xlink:href="#DejaVuSans-52"/>
      </g>
     </g>
    </g>
    <g id="xtick_15">
     <g id="line2d_24">
      <g>
       <use style="stroke:#000000;stroke-width:0.8;" x="1098.815227" xlink:href="#mf6ce40c70f" y="295.037813"/>
      </g>
     </g>
     <g id="text_23">
      <!-- 5 -->
      <g transform="translate(1089.907727 324.813438)scale(0.28 -0.28)">
       <use xlink:href="#DejaVuSans-53"/>
      </g>
     </g>
    </g>
    <g id="text_24">
     <!-- -log10 p-value -->
     <g transform="translate(850.7075 355.912188)scale(0.28 -0.28)">
      <use xlink:href="#DejaVuSans-45"/>
      <use x="36.083984" xlink:href="#DejaVuSans-108"/>
      <use x="63.867188" xlink:href="#DejaVuSans-111"/>
      <use x="125.048828" xlink:href="#DejaVuSans-103"/>
      <use x="188.525391" xlink:href="#DejaVuSans-49"/>
      <use x="252.148438" xlink:href="#DejaVuSans-48"/>
      <use x="315.771484" xlink:href="#DejaVuSans-32"/>
      <use x="347.558594" xlink:href="#DejaVuSans-112"/>
      <use x="411.035156" xlink:href="#DejaVuSans-45"/>
      <use x="447.087891" xlink:href="#DejaVuSans-118"/>
      <use x="506.267578" xlink:href="#DejaVuSans-97"/>
      <use x="567.546875" xlink:href="#DejaVuSans-108"/>
      <use x="595.330078" xlink:href="#DejaVuSans-117"/>
      <use x="658.708984" xlink:href="#DejaVuSans-101"/>
     </g>
    </g>
   </g>
   <g id="matplotlib.axis_6">
    <g id="ytick_11"/>
    <g id="ytick_12"/>
    <g id="ytick_13"/>
    <g id="ytick_14"/>
    <g id="ytick_15"/>
   </g>
   <g id="line2d_25">
    <path clip-path="url(#p6b12ae21bc)" d="M 804.269773 107.157813 
L 807.951591 109.467813 
L 811.633409 111.007813 
L 815.315227 111.007813 
L 818.997045 111.007813 
L 822.678864 111.007813 
L 826.360682 114.087813 
L 830.0425 115.627813 
L 833.724318 121.017813 
L 837.406136 122.557813 
L 841.087955 124.097813 
L 844.769773 126.407813 
L 848.451591 129.487813 
L 852.133409 132.567813 
L 855.815227 131.797813 
L 859.497045 132.567813 
L 863.178864 133.337813 
L 866.860682 134.877813 
L 870.5425 138.727813 
L 874.224318 141.037813 
L 877.906136 144.887813 
L 881.587955 146.427813 
L 885.269773 150.277813 
L 888.951591 150.277813 
L 892.633409 152.587813 
L 896.315227 153.357813 
L 899.997045 156.437813 
L 903.678864 158.747813 
L 907.360682 160.287813 
L 911.0425 161.057813 
L 914.724318 162.597813 
L 918.406136 163.367813 
L 922.087955 165.677813 
L 925.769773 166.447813 
L 929.451591 168.757813 
L 933.133409 170.297813 
L 936.815227 171.067813 
L 940.497045 171.067813 
L 944.178864 171.837813 
L 947.860682 173.377813 
L 951.5425 174.917813 
L 955.224318 176.457813 
L 958.906136 176.457813 
L 962.587955 177.997813 
L 966.269773 181.847813 
L 969.951591 182.617813 
L 973.633409 184.927813 
L 977.315227 186.467813 
L 980.997045 188.777813 
L 984.678864 189.547813 
L 988.360682 191.087813 
L 992.0425 192.627813 
L 995.724318 197.247813 
L 999.406136 200.327813 
L 1003.087955 201.097813 
L 1006.769773 201.867813 
L 1010.451591 201.867813 
L 1014.133409 202.637813 
L 1017.815227 202.637813 
L 1021.497045 203.407813 
L 1025.178864 204.947813 
L 1028.860682 207.257813 
L 1032.5425 209.567813 
L 1036.224318 211.877813 
L 1039.906136 211.877813 
L 1043.587955 213.417813 
L 1047.269773 213.417813 
L 1050.951591 213.417813 
L 1054.633409 212.647813 
L 1058.315227 212.647813 
L 1061.997045 213.417813 
L 1065.678864 214.187813 
L 1069.360682 214.957813 
L 1073.0425 215.727813 
L 1076.724318 218.037813 
L 1080.406136 218.807813 
L 1084.087955 218.807813 
L 1087.769773 219.577813 
L 1091.451591 219.577813 
L 1095.133409 221.887813 
L 1098.815227 221.887813 
" style="fill:none;stroke:#8b0000;stroke-linecap:square;stroke-width:2;"/>
   </g>
   <g id="line2d_26">
    <path clip-path="url(#p6b12ae21bc)" d="M 804.269773 164.137813 
L 807.951591 163.367813 
L 811.633409 163.367813 
L 815.315227 160.287813 
L 818.997045 160.287813 
L 822.678864 157.207813 
L 826.360682 155.667813 
L 830.0425 152.587813 
L 833.724318 148.737813 
L 837.406136 145.657813 
L 841.087955 144.117813 
L 844.769773 143.347813 
L 848.451591 140.267813 
L 852.133409 137.187813 
L 855.815227 136.417813 
L 859.497045 137.187813 
L 863.178864 136.417813 
L 866.860682 134.877813 
L 870.5425 134.107813 
L 874.224318 131.797813 
L 877.906136 131.027813 
L 881.587955 129.487813 
L 885.269773 125.637813 
L 888.951591 125.637813 
L 892.633409 127.947813 
L 896.315227 128.717813 
L 899.997045 127.177813 
L 903.678864 126.407813 
L 907.360682 124.867813 
L 911.0425 124.097813 
L 914.724318 122.557813 
L 918.406136 120.247813 
L 922.087955 119.477813 
L 925.769773 117.167813 
L 929.451591 114.857813 
L 933.133409 114.857813 
L 936.815227 114.087813 
L 940.497045 114.087813 
L 944.178864 113.317813 
L 947.860682 114.857813 
L 951.5425 113.317813 
L 955.224318 111.777813 
L 958.906136 111.777813 
L 962.587955 111.777813 
L 966.269773 107.927813 
L 969.951591 108.697813 
L 973.633409 107.927813 
L 977.315227 106.387813 
L 980.997045 104.077813 
L 984.678864 103.307813 
L 988.360682 103.307813 
L 992.0425 101.767813 
L 995.724318 98.687813 
L 999.406136 98.687813 
L 1003.087955 97.917813 
L 1006.769773 97.147813 
L 1010.451591 97.147813 
L 1014.133409 96.377813 
L 1017.815227 96.377813 
L 1021.497045 95.607813 
L 1025.178864 97.147813 
L 1028.860682 97.917813 
L 1032.5425 98.687813 
L 1036.224318 97.917813 
L 1039.906136 97.917813 
L 1043.587955 96.377813 
L 1047.269773 96.377813 
L 1050.951591 96.377813 
L 1054.633409 95.607813 
L 1058.315227 95.607813 
L 1061.997045 96.377813 
L 1065.678864 95.607813 
L 1069.360682 94.837813 
L 1073.0425 94.067813 
L 1076.724318 93.297813 
L 1080.406136 94.067813 
L 1084.087955 94.067813 
L 1087.769773 94.837813 
L 1091.451591 94.837813 
L 1095.133409 94.067813 
L 1098.815227 94.067813 
" style="fill:none;stroke:#000080;stroke-linecap:square;stroke-width:2;"/>
   </g>
   <g id="patch_9">
    <path d="M 789.5425 295.037813 
L 789.5425 17.837813 
" style="fill:none;stroke:#000000;stroke-linecap:square;stroke-linejoin:miter;stroke-width:0.8;"/>
   </g>
   <g id="patch_10">
    <path d="M 789.5425 295.037813 
L 1113.5425 295.037813 
" style="fill:none;stroke:#000000;stroke-linecap:square;stroke-linejoin:miter;stroke-width:0.8;"/>
   </g>
  </g>
 </g>
 <defs>
  <clipPath id="p3652ba1124">
   <rect height="277.2" width="324" x="109.1425" y="17.837812"/>
  </clipPath>
  <clipPath id="p53a8160923">
   <rect height="277.2" width="324" x="449.3425" y="17.837812"/>
  </clipPath>
  <clipPath id="p6b12ae21bc">
   <rect height="277.2" width="324" x="789.5425" y="17.837812"/>
  </clipPath>
 </defs>
</svg>
