<?xml version="1.0" encoding="utf-8" standalone="no"?>
<!DOCTYPE svg PUBLIC "-//W3C//DTD SVG 1.1//EN"
  "http://www.w3.org/Graphics/SVG/1.1/DTD/svg11.dtd">
<!-- Created with matplotlib (https://matplotlib.org/) -->
<svg height="352.8975pt" version="1.1" viewBox="0 0 1076.21375 352.8975" width="1076.21375pt" xmlns="http://www.w3.org/2000/svg" xmlns:xlink="http://www.w3.org/1999/xlink">
 <defs>
  <style type="text/css">
*{stroke-linecap:butt;stroke-linejoin:round;}
  </style>
 </defs>
 <g id="figure_1">
  <g id="patch_1">
   <path d="M 0 352.8975 
L 1076.21375 352.8975 
L 1076.21375 0 
L 0 0 
z
" style="fill:none;"/>
  </g>
  <g id="axes_1">
   <g id="patch_2">
    <path d="M 64.61375 279 
L 388.61375 279 
L 388.61375 7.2 
L 64.61375 7.2 
z
" style="fill:none;"/>
   </g>
   <g id="matplotlib.axis_1">
    <g id="xtick_1">
     <g id="line2d_1">
      <defs>
       <path d="M 0 0 
L 0 5 
" id="md76fbcd640" style="stroke:#000000;stroke-width:0.8;"/>
      </defs>
      <g>
       <use style="stroke:#000000;stroke-width:0.8;" x="79.341023" xlink:href="#md76fbcd640" y="279"/>
      </g>
     </g>
     <g id="text_1">
      <!-- 1 -->
      <defs>
       <path d="M 12.40625 8.296875 
L 28.515625 8.296875 
L 28.515625 63.921875 
L 10.984375 60.40625 
L 10.984375 69.390625 
L 28.421875 72.90625 
L 38.28125 72.90625 
L 38.28125 8.296875 
L 54.390625 8.296875 
L 54.390625 0 
L 12.40625 0 
z
" id="DejaVuSans-49"/>
      </defs>
      <g transform="translate(70.433523 308.775625)scale(0.28 -0.28)">
       <use xlink:href="#DejaVuSans-49"/>
      </g>
     </g>
    </g>
    <g id="xtick_2">
     <g id="line2d_2">
      <g>
       <use style="stroke:#000000;stroke-width:0.8;" x="152.977386" xlink:href="#md76fbcd640" y="279"/>
      </g>
     </g>
     <g id="text_2">
      <!-- 2 -->
      <defs>
       <path d="M 19.1875 8.296875 
L 53.609375 8.296875 
L 53.609375 0 
L 7.328125 0 
L 7.328125 8.296875 
Q 12.9375 14.109375 22.625 23.890625 
Q 32.328125 33.6875 34.8125 36.53125 
Q 39.546875 41.84375 41.421875 45.53125 
Q 43.3125 49.21875 43.3125 52.78125 
Q 43.3125 58.59375 39.234375 62.25 
Q 35.15625 65.921875 28.609375 65.921875 
Q 23.96875 65.921875 18.8125 64.3125 
Q 13.671875 62.703125 7.8125 59.421875 
L 7.8125 69.390625 
Q 13.765625 71.78125 18.9375 73 
Q 24.125 74.21875 28.421875 74.21875 
Q 39.75 74.21875 46.484375 68.546875 
Q 53.21875 62.890625 53.21875 53.421875 
Q 53.21875 48.921875 51.53125 44.890625 
Q 49.859375 40.875 45.40625 35.40625 
Q 44.1875 33.984375 37.640625 27.21875 
Q 31.109375 20.453125 19.1875 8.296875 
z
" id="DejaVuSans-50"/>
      </defs>
      <g transform="translate(144.069886 308.775625)scale(0.28 -0.28)">
       <use xlink:href="#DejaVuSans-50"/>
      </g>
     </g>
    </g>
    <g id="xtick_3">
     <g id="line2d_3">
      <g>
       <use style="stroke:#000000;stroke-width:0.8;" x="226.61375" xlink:href="#md76fbcd640" y="279"/>
      </g>
     </g>
     <g id="text_3">
      <!-- 3 -->
      <defs>
       <path d="M 40.578125 39.3125 
Q 47.65625 37.796875 51.625 33 
Q 55.609375 28.21875 55.609375 21.1875 
Q 55.609375 10.40625 48.1875 4.484375 
Q 40.765625 -1.421875 27.09375 -1.421875 
Q 22.515625 -1.421875 17.65625 -0.515625 
Q 12.796875 0.390625 7.625 2.203125 
L 7.625 11.71875 
Q 11.71875 9.328125 16.59375 8.109375 
Q 21.484375 6.890625 26.8125 6.890625 
Q 36.078125 6.890625 40.9375 10.546875 
Q 45.796875 14.203125 45.796875 21.1875 
Q 45.796875 27.640625 41.28125 31.265625 
Q 36.765625 34.90625 28.71875 34.90625 
L 20.21875 34.90625 
L 20.21875 43.015625 
L 29.109375 43.015625 
Q 36.375 43.015625 40.234375 45.921875 
Q 44.09375 48.828125 44.09375 54.296875 
Q 44.09375 59.90625 40.109375 62.90625 
Q 36.140625 65.921875 28.71875 65.921875 
Q 24.65625 65.921875 20.015625 65.03125 
Q 15.375 64.15625 9.8125 62.3125 
L 9.8125 71.09375 
Q 15.4375 72.65625 20.34375 73.4375 
Q 25.25 74.21875 29.59375 74.21875 
Q 40.828125 74.21875 47.359375 69.109375 
Q 53.90625 64.015625 53.90625 55.328125 
Q 53.90625 49.265625 50.4375 45.09375 
Q 46.96875 40.921875 40.578125 39.3125 
z
" id="DejaVuSans-51"/>
      </defs>
      <g transform="translate(217.70625 308.775625)scale(0.28 -0.28)">
       <use xlink:href="#DejaVuSans-51"/>
      </g>
     </g>
    </g>
    <g id="xtick_4">
     <g id="line2d_4">
      <g>
       <use style="stroke:#000000;stroke-width:0.8;" x="300.250114" xlink:href="#md76fbcd640" y="279"/>
      </g>
     </g>
     <g id="text_4">
      <!-- 4 -->
      <defs>
       <path d="M 37.796875 64.3125 
L 12.890625 25.390625 
L 37.796875 25.390625 
z
M 35.203125 72.90625 
L 47.609375 72.90625 
L 47.609375 25.390625 
L 58.015625 25.390625 
L 58.015625 17.1875 
L 47.609375 17.1875 
L 47.609375 0 
L 37.796875 0 
L 37.796875 17.1875 
L 4.890625 17.1875 
L 4.890625 26.703125 
z
" id="DejaVuSans-52"/>
      </defs>
      <g transform="translate(291.342614 308.775625)scale(0.28 -0.28)">
       <use xlink:href="#DejaVuSans-52"/>
      </g>
     </g>
    </g>
    <g id="xtick_5">
     <g id="line2d_5">
      <g>
       <use style="stroke:#000000;stroke-width:0.8;" x="373.886477" xlink:href="#md76fbcd640" y="279"/>
      </g>
     </g>
     <g id="text_5">
      <!-- 5 -->
      <defs>
       <path d="M 10.796875 72.90625 
L 49.515625 72.90625 
L 49.515625 64.59375 
L 19.828125 64.59375 
L 19.828125 46.734375 
Q 21.96875 47.46875 24.109375 47.828125 
Q 26.265625 48.1875 28.421875 48.1875 
Q 40.625 48.1875 47.75 41.5 
Q 54.890625 34.8125 54.890625 23.390625 
Q 54.890625 11.625 47.5625 5.09375 
Q 40.234375 -1.421875 26.90625 -1.421875 
Q 22.3125 -1.421875 17.546875 -0.640625 
Q 12.796875 0.140625 7.71875 1.703125 
L 7.71875 11.625 
Q 12.109375 9.234375 16.796875 8.0625 
Q 21.484375 6.890625 26.703125 6.890625 
Q 35.15625 6.890625 40.078125 11.328125 
Q 45.015625 15.765625 45.015625 23.390625 
Q 45.015625 31 40.078125 35.4375 
Q 35.15625 39.890625 26.703125 39.890625 
Q 22.75 39.890625 18.8125 39.015625 
Q 14.890625 38.140625 10.796875 36.28125 
z
" id="DejaVuSans-53"/>
      </defs>
      <g transform="translate(364.978977 308.775625)scale(0.28 -0.28)">
       <use xlink:href="#DejaVuSans-53"/>
      </g>
     </g>
    </g>
    <g id="text_6">
     <!-- -log10 p-value -->
     <defs>
      <path d="M 4.890625 31.390625 
L 31.203125 31.390625 
L 31.203125 23.390625 
L 4.890625 23.390625 
z
" id="DejaVuSans-45"/>
      <path d="M 9.421875 75.984375 
L 18.40625 75.984375 
L 18.40625 0 
L 9.421875 0 
z
" id="DejaVuSans-108"/>
      <path d="M 30.609375 48.390625 
Q 23.390625 48.390625 19.1875 42.75 
Q 14.984375 37.109375 14.984375 27.296875 
Q 14.984375 17.484375 19.15625 11.84375 
Q 23.34375 6.203125 30.609375 6.203125 
Q 37.796875 6.203125 41.984375 11.859375 
Q 46.1875 17.53125 46.1875 27.296875 
Q 46.1875 37.015625 41.984375 42.703125 
Q 37.796875 48.390625 30.609375 48.390625 
z
M 30.609375 56 
Q 42.328125 56 49.015625 48.375 
Q 55.71875 40.765625 55.71875 27.296875 
Q 55.71875 13.875 49.015625 6.21875 
Q 42.328125 -1.421875 30.609375 -1.421875 
Q 18.84375 -1.421875 12.171875 6.21875 
Q 5.515625 13.875 5.515625 27.296875 
Q 5.515625 40.765625 12.171875 48.375 
Q 18.84375 56 30.609375 56 
z
" id="DejaVuSans-111"/>
      <path d="M 45.40625 27.984375 
Q 45.40625 37.75 41.375 43.109375 
Q 37.359375 48.484375 30.078125 48.484375 
Q 22.859375 48.484375 18.828125 43.109375 
Q 14.796875 37.75 14.796875 27.984375 
Q 14.796875 18.265625 18.828125 12.890625 
Q 22.859375 7.515625 30.078125 7.515625 
Q 37.359375 7.515625 41.375 12.890625 
Q 45.40625 18.265625 45.40625 27.984375 
z
M 54.390625 6.78125 
Q 54.390625 -7.171875 48.1875 -13.984375 
Q 42 -20.796875 29.203125 -20.796875 
Q 24.46875 -20.796875 20.265625 -20.09375 
Q 16.0625 -19.390625 12.109375 -17.921875 
L 12.109375 -9.1875 
Q 16.0625 -11.328125 19.921875 -12.34375 
Q 23.78125 -13.375 27.78125 -13.375 
Q 36.625 -13.375 41.015625 -8.765625 
Q 45.40625 -4.15625 45.40625 5.171875 
L 45.40625 9.625 
Q 42.625 4.78125 38.28125 2.390625 
Q 33.9375 0 27.875 0 
Q 17.828125 0 11.671875 7.65625 
Q 5.515625 15.328125 5.515625 27.984375 
Q 5.515625 40.671875 11.671875 48.328125 
Q 17.828125 56 27.875 56 
Q 33.9375 56 38.28125 53.609375 
Q 42.625 51.21875 45.40625 46.390625 
L 45.40625 54.6875 
L 54.390625 54.6875 
z
" id="DejaVuSans-103"/>
      <path d="M 31.78125 66.40625 
Q 24.171875 66.40625 20.328125 58.90625 
Q 16.5 51.421875 16.5 36.375 
Q 16.5 21.390625 20.328125 13.890625 
Q 24.171875 6.390625 31.78125 6.390625 
Q 39.453125 6.390625 43.28125 13.890625 
Q 47.125 21.390625 47.125 36.375 
Q 47.125 51.421875 43.28125 58.90625 
Q 39.453125 66.40625 31.78125 66.40625 
z
M 31.78125 74.21875 
Q 44.046875 74.21875 50.515625 64.515625 
Q 56.984375 54.828125 56.984375 36.375 
Q 56.984375 17.96875 50.515625 8.265625 
Q 44.046875 -1.421875 31.78125 -1.421875 
Q 19.53125 -1.421875 13.0625 8.265625 
Q 6.59375 17.96875 6.59375 36.375 
Q 6.59375 54.828125 13.0625 64.515625 
Q 19.53125 74.21875 31.78125 74.21875 
z
" id="DejaVuSans-48"/>
      <path id="DejaVuSans-32"/>
      <path d="M 18.109375 8.203125 
L 18.109375 -20.796875 
L 9.078125 -20.796875 
L 9.078125 54.6875 
L 18.109375 54.6875 
L 18.109375 46.390625 
Q 20.953125 51.265625 25.265625 53.625 
Q 29.59375 56 35.59375 56 
Q 45.5625 56 51.78125 48.09375 
Q 58.015625 40.1875 58.015625 27.296875 
Q 58.015625 14.40625 51.78125 6.484375 
Q 45.5625 -1.421875 35.59375 -1.421875 
Q 29.59375 -1.421875 25.265625 0.953125 
Q 20.953125 3.328125 18.109375 8.203125 
z
M 48.6875 27.296875 
Q 48.6875 37.203125 44.609375 42.84375 
Q 40.53125 48.484375 33.40625 48.484375 
Q 26.265625 48.484375 22.1875 42.84375 
Q 18.109375 37.203125 18.109375 27.296875 
Q 18.109375 17.390625 22.1875 11.75 
Q 26.265625 6.109375 33.40625 6.109375 
Q 40.53125 6.109375 44.609375 11.75 
Q 48.6875 17.390625 48.6875 27.296875 
z
" id="DejaVuSans-112"/>
      <path d="M 2.984375 54.6875 
L 12.5 54.6875 
L 29.59375 8.796875 
L 46.6875 54.6875 
L 56.203125 54.6875 
L 35.6875 0 
L 23.484375 0 
z
" id="DejaVuSans-118"/>
      <path d="M 34.28125 27.484375 
Q 23.390625 27.484375 19.1875 25 
Q 14.984375 22.515625 14.984375 16.5 
Q 14.984375 11.71875 18.140625 8.90625 
Q 21.296875 6.109375 26.703125 6.109375 
Q 34.1875 6.109375 38.703125 11.40625 
Q 43.21875 16.703125 43.21875 25.484375 
L 43.21875 27.484375 
z
M 52.203125 31.203125 
L 52.203125 0 
L 43.21875 0 
L 43.21875 8.296875 
Q 40.140625 3.328125 35.546875 0.953125 
Q 30.953125 -1.421875 24.3125 -1.421875 
Q 15.921875 -1.421875 10.953125 3.296875 
Q 6 8.015625 6 15.921875 
Q 6 25.140625 12.171875 29.828125 
Q 18.359375 34.515625 30.609375 34.515625 
L 43.21875 34.515625 
L 43.21875 35.40625 
Q 43.21875 41.609375 39.140625 45 
Q 35.0625 48.390625 27.6875 48.390625 
Q 23 48.390625 18.546875 47.265625 
Q 14.109375 46.140625 10.015625 43.890625 
L 10.015625 52.203125 
Q 14.9375 54.109375 19.578125 55.046875 
Q 24.21875 56 28.609375 56 
Q 40.484375 56 46.34375 49.84375 
Q 52.203125 43.703125 52.203125 31.203125 
z
" id="DejaVuSans-97"/>
      <path d="M 8.5 21.578125 
L 8.5 54.6875 
L 17.484375 54.6875 
L 17.484375 21.921875 
Q 17.484375 14.15625 20.5 10.265625 
Q 23.53125 6.390625 29.59375 6.390625 
Q 36.859375 6.390625 41.078125 11.03125 
Q 45.3125 15.671875 45.3125 23.6875 
L 45.3125 54.6875 
L 54.296875 54.6875 
L 54.296875 0 
L 45.3125 0 
L 45.3125 8.40625 
Q 42.046875 3.421875 37.71875 1 
Q 33.40625 -1.421875 27.6875 -1.421875 
Q 18.265625 -1.421875 13.375 4.4375 
Q 8.5 10.296875 8.5 21.578125 
z
M 31.109375 56 
z
" id="DejaVuSans-117"/>
      <path d="M 56.203125 29.59375 
L 56.203125 25.203125 
L 14.890625 25.203125 
Q 15.484375 15.921875 20.484375 11.0625 
Q 25.484375 6.203125 34.421875 6.203125 
Q 39.59375 6.203125 44.453125 7.46875 
Q 49.3125 8.734375 54.109375 11.28125 
L 54.109375 2.78125 
Q 49.265625 0.734375 44.1875 -0.34375 
Q 39.109375 -1.421875 33.890625 -1.421875 
Q 20.796875 -1.421875 13.15625 6.1875 
Q 5.515625 13.8125 5.515625 26.8125 
Q 5.515625 40.234375 12.765625 48.109375 
Q 20.015625 56 32.328125 56 
Q 43.359375 56 49.78125 48.890625 
Q 56.203125 41.796875 56.203125 29.59375 
z
M 47.21875 32.234375 
Q 47.125 39.59375 43.09375 43.984375 
Q 39.0625 48.390625 32.421875 48.390625 
Q 24.90625 48.390625 20.390625 44.140625 
Q 15.875 39.890625 15.1875 32.171875 
z
" id="DejaVuSans-101"/>
     </defs>
     <g transform="translate(125.77875 339.874375)scale(0.28 -0.28)">
      <use xlink:href="#DejaVuSans-45"/>
      <use x="36.083984" xlink:href="#DejaVuSans-108"/>
      <use x="63.867188" xlink:href="#DejaVuSans-111"/>
      <use x="125.048828" xlink:href="#DejaVuSans-103"/>
      <use x="188.525391" xlink:href="#DejaVuSans-49"/>
      <use x="252.148438" xlink:href="#DejaVuSans-48"/>
      <use x="315.771484" xlink:href="#DejaVuSans-32"/>
      <use x="347.558594" xlink:href="#DejaVuSans-112"/>
      <use x="411.035156" xlink:href="#DejaVuSans-45"/>
      <use x="447.087891" xlink:href="#DejaVuSans-118"/>
      <use x="506.267578" xlink:href="#DejaVuSans-97"/>
      <use x="567.546875" xlink:href="#DejaVuSans-108"/>
      <use x="595.330078" xlink:href="#DejaVuSans-117"/>
      <use x="658.708984" xlink:href="#DejaVuSans-101"/>
     </g>
    </g>
   </g>
   <g id="matplotlib.axis_2">
    <g id="ytick_1">
     <g id="line2d_6">
      <defs>
       <path d="M 0 0 
L -5 0 
" id="md1891c469f" style="stroke:#000000;stroke-width:0.8;"/>
      </defs>
      <g>
       <use style="stroke:#000000;stroke-width:0.8;" x="64.61375" xlink:href="#md1891c469f" y="264.941379"/>
      </g>
     </g>
     <g id="text_7">
      <!-- 1 -->
      <g transform="translate(38.29875 275.579192)scale(0.28 -0.28)">
       <use xlink:href="#DejaVuSans-49"/>
      </g>
     </g>
    </g>
    <g id="ytick_2">
     <g id="line2d_7">
      <g>
       <use style="stroke:#000000;stroke-width:0.8;" x="64.61375" xlink:href="#md1891c469f" y="171.217241"/>
      </g>
     </g>
     <g id="text_8">
      <!-- 2 -->
      <g transform="translate(38.29875 181.855054)scale(0.28 -0.28)">
       <use xlink:href="#DejaVuSans-50"/>
      </g>
     </g>
    </g>
    <g id="ytick_3">
     <g id="line2d_8">
      <g>
       <use style="stroke:#000000;stroke-width:0.8;" x="64.61375" xlink:href="#md1891c469f" y="77.493103"/>
      </g>
     </g>
     <g id="text_9">
      <!-- 3 -->
      <g transform="translate(38.29875 88.130916)scale(0.28 -0.28)">
       <use xlink:href="#DejaVuSans-51"/>
      </g>
     </g>
    </g>
    <g id="text_10">
     <!-- fold enrichment -->
     <defs>
      <path d="M 37.109375 75.984375 
L 37.109375 68.5 
L 28.515625 68.5 
Q 23.6875 68.5 21.796875 66.546875 
Q 19.921875 64.59375 19.921875 59.515625 
L 19.921875 54.6875 
L 34.71875 54.6875 
L 34.71875 47.703125 
L 19.921875 47.703125 
L 19.921875 0 
L 10.890625 0 
L 10.890625 47.703125 
L 2.296875 47.703125 
L 2.296875 54.6875 
L 10.890625 54.6875 
L 10.890625 58.5 
Q 10.890625 67.625 15.140625 71.796875 
Q 19.390625 75.984375 28.609375 75.984375 
z
" id="DejaVuSans-102"/>
      <path d="M 45.40625 46.390625 
L 45.40625 75.984375 
L 54.390625 75.984375 
L 54.390625 0 
L 45.40625 0 
L 45.40625 8.203125 
Q 42.578125 3.328125 38.25 0.953125 
Q 33.9375 -1.421875 27.875 -1.421875 
Q 17.96875 -1.421875 11.734375 6.484375 
Q 5.515625 14.40625 5.515625 27.296875 
Q 5.515625 40.1875 11.734375 48.09375 
Q 17.96875 56 27.875 56 
Q 33.9375 56 38.25 53.625 
Q 42.578125 51.265625 45.40625 46.390625 
z
M 14.796875 27.296875 
Q 14.796875 17.390625 18.875 11.75 
Q 22.953125 6.109375 30.078125 6.109375 
Q 37.203125 6.109375 41.296875 11.75 
Q 45.40625 17.390625 45.40625 27.296875 
Q 45.40625 37.203125 41.296875 42.84375 
Q 37.203125 48.484375 30.078125 48.484375 
Q 22.953125 48.484375 18.875 42.84375 
Q 14.796875 37.203125 14.796875 27.296875 
z
" id="DejaVuSans-100"/>
      <path d="M 54.890625 33.015625 
L 54.890625 0 
L 45.90625 0 
L 45.90625 32.71875 
Q 45.90625 40.484375 42.875 44.328125 
Q 39.84375 48.1875 33.796875 48.1875 
Q 26.515625 48.1875 22.3125 43.546875 
Q 18.109375 38.921875 18.109375 30.90625 
L 18.109375 0 
L 9.078125 0 
L 9.078125 54.6875 
L 18.109375 54.6875 
L 18.109375 46.1875 
Q 21.34375 51.125 25.703125 53.5625 
Q 30.078125 56 35.796875 56 
Q 45.21875 56 50.046875 50.171875 
Q 54.890625 44.34375 54.890625 33.015625 
z
" id="DejaVuSans-110"/>
      <path d="M 41.109375 46.296875 
Q 39.59375 47.171875 37.8125 47.578125 
Q 36.03125 48 33.890625 48 
Q 26.265625 48 22.1875 43.046875 
Q 18.109375 38.09375 18.109375 28.8125 
L 18.109375 0 
L 9.078125 0 
L 9.078125 54.6875 
L 18.109375 54.6875 
L 18.109375 46.1875 
Q 20.953125 51.171875 25.484375 53.578125 
Q 30.03125 56 36.53125 56 
Q 37.453125 56 38.578125 55.875 
Q 39.703125 55.765625 41.0625 55.515625 
z
" id="DejaVuSans-114"/>
      <path d="M 9.421875 54.6875 
L 18.40625 54.6875 
L 18.40625 0 
L 9.421875 0 
z
M 9.421875 75.984375 
L 18.40625 75.984375 
L 18.40625 64.59375 
L 9.421875 64.59375 
z
" id="DejaVuSans-105"/>
      <path d="M 48.78125 52.59375 
L 48.78125 44.1875 
Q 44.96875 46.296875 41.140625 47.34375 
Q 37.3125 48.390625 33.40625 48.390625 
Q 24.65625 48.390625 19.8125 42.84375 
Q 14.984375 37.3125 14.984375 27.296875 
Q 14.984375 17.28125 19.8125 11.734375 
Q 24.65625 6.203125 33.40625 6.203125 
Q 37.3125 6.203125 41.140625 7.25 
Q 44.96875 8.296875 48.78125 10.40625 
L 48.78125 2.09375 
Q 45.015625 0.34375 40.984375 -0.53125 
Q 36.96875 -1.421875 32.421875 -1.421875 
Q 20.0625 -1.421875 12.78125 6.34375 
Q 5.515625 14.109375 5.515625 27.296875 
Q 5.515625 40.671875 12.859375 48.328125 
Q 20.21875 56 33.015625 56 
Q 37.15625 56 41.109375 55.140625 
Q 45.0625 54.296875 48.78125 52.59375 
z
" id="DejaVuSans-99"/>
      <path d="M 54.890625 33.015625 
L 54.890625 0 
L 45.90625 0 
L 45.90625 32.71875 
Q 45.90625 40.484375 42.875 44.328125 
Q 39.84375 48.1875 33.796875 48.1875 
Q 26.515625 48.1875 22.3125 43.546875 
Q 18.109375 38.921875 18.109375 30.90625 
L 18.109375 0 
L 9.078125 0 
L 9.078125 75.984375 
L 18.109375 75.984375 
L 18.109375 46.1875 
Q 21.34375 51.125 25.703125 53.5625 
Q 30.078125 56 35.796875 56 
Q 45.21875 56 50.046875 50.171875 
Q 54.890625 44.34375 54.890625 33.015625 
z
" id="DejaVuSans-104"/>
      <path d="M 52 44.1875 
Q 55.375 50.25 60.0625 53.125 
Q 64.75 56 71.09375 56 
Q 79.640625 56 84.28125 50.015625 
Q 88.921875 44.046875 88.921875 33.015625 
L 88.921875 0 
L 79.890625 0 
L 79.890625 32.71875 
Q 79.890625 40.578125 77.09375 44.375 
Q 74.3125 48.1875 68.609375 48.1875 
Q 61.625 48.1875 57.5625 43.546875 
Q 53.515625 38.921875 53.515625 30.90625 
L 53.515625 0 
L 44.484375 0 
L 44.484375 32.71875 
Q 44.484375 40.625 41.703125 44.40625 
Q 38.921875 48.1875 33.109375 48.1875 
Q 26.21875 48.1875 22.15625 43.53125 
Q 18.109375 38.875 18.109375 30.90625 
L 18.109375 0 
L 9.078125 0 
L 9.078125 54.6875 
L 18.109375 54.6875 
L 18.109375 46.1875 
Q 21.1875 51.21875 25.484375 53.609375 
Q 29.78125 56 35.6875 56 
Q 41.65625 56 45.828125 52.96875 
Q 50 49.953125 52 44.1875 
z
" id="DejaVuSans-109"/>
      <path d="M 18.3125 70.21875 
L 18.3125 54.6875 
L 36.8125 54.6875 
L 36.8125 47.703125 
L 18.3125 47.703125 
L 18.3125 18.015625 
Q 18.3125 11.328125 20.140625 9.421875 
Q 21.96875 7.515625 27.59375 7.515625 
L 36.8125 7.515625 
L 36.8125 0 
L 27.59375 0 
Q 17.1875 0 13.234375 3.875 
Q 9.28125 7.765625 9.28125 18.015625 
L 9.28125 47.703125 
L 2.6875 47.703125 
L 2.6875 54.6875 
L 9.28125 54.6875 
L 9.28125 70.21875 
z
" id="DejaVuSans-116"/>
     </defs>
     <g transform="translate(28.475625 254.135312)rotate(-90)scale(0.28 -0.28)">
      <use xlink:href="#DejaVuSans-102"/>
      <use x="35.205078" xlink:href="#DejaVuSans-111"/>
      <use x="96.386719" xlink:href="#DejaVuSans-108"/>
      <use x="124.169922" xlink:href="#DejaVuSans-100"/>
      <use x="187.646484" xlink:href="#DejaVuSans-32"/>
      <use x="219.433594" xlink:href="#DejaVuSans-101"/>
      <use x="280.957031" xlink:href="#DejaVuSans-110"/>
      <use x="344.335938" xlink:href="#DejaVuSans-114"/>
      <use x="385.449219" xlink:href="#DejaVuSans-105"/>
      <use x="413.232422" xlink:href="#DejaVuSans-99"/>
      <use x="468.212891" xlink:href="#DejaVuSans-104"/>
      <use x="531.591797" xlink:href="#DejaVuSans-109"/>
      <use x="629.003906" xlink:href="#DejaVuSans-101"/>
      <use x="690.527344" xlink:href="#DejaVuSans-110"/>
      <use x="753.90625" xlink:href="#DejaVuSans-116"/>
     </g>
    </g>
   </g>
   <g id="line2d_9">
    <path clip-path="url(#p67948c3e18)" d="M 79.341023 214.177101 
L 83.022841 212.225524 
L 86.704659 207.811552 
L 90.386477 206.914679 
L 94.068295 205.404721 
L 97.750114 199.46438 
L 101.431932 196.980423 
L 105.11375 192.655513 
L 108.795568 191.194191 
L 112.477386 187.038558 
L 116.159205 185.123079 
L 119.841023 180.754733 
L 123.522841 177.013619 
L 127.204659 174.414097 
L 130.886477 170.319622 
L 134.568295 169.743388 
L 138.250114 167.815612 
L 141.931932 164.849033 
L 145.61375 161.788772 
L 149.295568 157.012787 
L 152.977386 158.265959 
L 156.659205 155.490342 
L 160.341023 152.636758 
L 164.022841 146.68217 
L 167.704659 144.202832 
L 171.386477 141.664812 
L 175.068295 139.521269 
L 178.750114 136.815784 
L 182.431932 134.042663 
L 186.11375 129.750506 
L 189.795568 126.04638 
L 193.477386 121.44006 
L 197.159205 121.586767 
L 200.841023 117.5272 
L 204.522841 119.271545 
L 208.204659 110.660251 
L 211.886477 106.11803 
L 215.568295 105.936906 
L 219.250114 102.093125 
L 222.931932 99.132674 
L 226.61375 98.777271 
L 230.295568 103.289951 
L 233.977386 100.150087 
L 237.659205 96.932053 
L 241.341023 98.704167 
L 245.022841 98.704167 
L 248.704659 101.640238 
L 252.386477 100.537125 
L 256.068295 98.302247 
L 259.750114 107.744176 
L 263.431932 102.118137 
L 267.11375 98.619763 
L 270.795568 96.234023 
L 274.477386 95.024661 
L 278.159205 87.527764 
L 281.841023 91.951924 
L 285.522841 88.63459 
L 289.204659 88.63459 
L 292.886477 85.920712 
L 296.568295 83.151729 
L 300.250114 81.746046 
L 303.931932 81.746046 
L 307.61375 78.891206 
L 311.295568 75.976891 
L 314.977386 75.976891 
L 318.659205 69.962239 
L 322.341023 73.209887 
L 326.022841 73.209887 
L 329.704659 68.504575 
L 333.386477 68.504575 
L 337.068295 66.901476 
L 340.750114 65.280564 
L 344.431932 60.307938 
L 348.11375 58.612724 
L 351.795568 53.409497 
L 355.477386 60.163385 
L 359.159205 58.417758 
L 362.841023 65.280564 
L 366.522841 70.519581 
L 370.204659 68.794157 
L 373.886477 72.436295 
" style="fill:none;stroke:#8b0000;stroke-linecap:square;stroke-width:2;"/>
   </g>
   <g id="line2d_10">
    <path clip-path="url(#p67948c3e18)" d="M 79.341023 232.622909 
L 83.022841 231.011166 
L 86.704659 228.738304 
L 90.386477 227.284903 
L 94.068295 227.751069 
L 97.750114 222.676866 
L 101.431932 219.824005 
L 105.11375 216.110137 
L 108.795568 214.069989 
L 112.477386 209.646852 
L 116.159205 208.975025 
L 119.841023 205.207072 
L 123.522841 205.093097 
L 127.204659 203.11805 
L 130.886477 201.854599 
L 134.568295 199.412217 
L 138.250114 198.920129 
L 141.931932 197.587597 
L 145.61375 196.212985 
L 149.295568 193.469163 
L 152.977386 192.42581 
L 156.659205 190.123321 
L 160.341023 190.251183 
L 164.022841 185.383717 
L 167.704659 183.357029 
L 171.386477 182.596321 
L 175.068295 179.936375 
L 178.750114 179.100568 
L 182.431932 178.243865 
L 186.11375 179.039453 
L 189.795568 176.132882 
L 193.477386 173.9841 
L 197.159205 174.739171 
L 200.841023 173.110688 
L 204.522841 172.075603 
L 208.204659 168.558806 
L 211.886477 166.703793 
L 215.568295 169.043452 
L 219.250114 169.536765 
L 222.931932 170.770778 
L 226.61375 171.577771 
L 230.295568 175.265868 
L 233.977386 173.010954 
L 237.659205 172.542702 
L 241.341023 171.275291 
L 245.022841 171.275291 
L 248.704659 172.668705 
L 252.386477 171.870436 
L 256.068295 172.175737 
L 259.750114 173.617668 
L 263.431932 173.451706 
L 267.11375 172.944767 
L 270.795568 171.240907 
L 274.477386 170.377199 
L 278.159205 165.023029 
L 281.841023 165.294942 
L 285.522841 170.85576 
L 289.204659 170.85576 
L 292.886477 168.968225 
L 296.568295 169.296754 
L 300.250114 168.330587 
L 303.931932 168.330587 
L 307.61375 168.657623 
L 311.295568 166.678374 
L 314.977386 166.678374 
L 318.659205 162.593541 
L 322.341023 161.814616 
L 326.022841 161.814616 
L 329.704659 161.010013 
L 333.386477 161.010013 
L 337.068295 159.917993 
L 340.750114 161.281145 
L 344.431932 160.444771 
L 348.11375 161.841896 
L 351.795568 163.563045 
L 355.477386 165.010792 
L 359.159205 163.878308 
L 362.841023 165.344941 
L 366.522841 168.330587 
L 370.204659 167.190857 
L 373.886477 169.104306 
" style="fill:none;stroke:#000080;stroke-linecap:square;stroke-width:2;"/>
   </g>
   <g id="line2d_11">
    <path clip-path="url(#p67948c3e18)" d="M 79.341023 264.941379 
L 373.886477 264.941379 
" style="fill:none;stroke:#0000ff;stroke-dasharray:3.7,1.6;stroke-dashoffset:0;"/>
   </g>
   <g id="patch_3">
    <path d="M 64.61375 279 
L 64.61375 7.2 
" style="fill:none;stroke:#000000;stroke-linecap:square;stroke-linejoin:miter;stroke-width:0.8;"/>
   </g>
   <g id="patch_4">
    <path d="M 64.61375 279 
L 388.61375 279 
" style="fill:none;stroke:#000000;stroke-linecap:square;stroke-linejoin:miter;stroke-width:0.8;"/>
   </g>
  </g>
  <g id="axes_2">
   <g id="patch_5">
    <path d="M 404.81375 279 
L 728.81375 279 
L 728.81375 7.2 
L 404.81375 7.2 
z
" style="fill:none;"/>
   </g>
   <g id="matplotlib.axis_3">
    <g id="xtick_6">
     <g id="line2d_12">
      <g>
       <use style="stroke:#000000;stroke-width:0.8;" x="419.541023" xlink:href="#md76fbcd640" y="279"/>
      </g>
     </g>
     <g id="text_11">
      <!-- 1 -->
      <g transform="translate(410.633523 308.775625)scale(0.28 -0.28)">
       <use xlink:href="#DejaVuSans-49"/>
      </g>
     </g>
    </g>
    <g id="xtick_7">
     <g id="line2d_13">
      <g>
       <use style="stroke:#000000;stroke-width:0.8;" x="493.177386" xlink:href="#md76fbcd640" y="279"/>
      </g>
     </g>
     <g id="text_12">
      <!-- 2 -->
      <g transform="translate(484.269886 308.775625)scale(0.28 -0.28)">
       <use xlink:href="#DejaVuSans-50"/>
      </g>
     </g>
    </g>
    <g id="xtick_8">
     <g id="line2d_14">
      <g>
       <use style="stroke:#000000;stroke-width:0.8;" x="566.81375" xlink:href="#md76fbcd640" y="279"/>
      </g>
     </g>
     <g id="text_13">
      <!-- 3 -->
      <g transform="translate(557.90625 308.775625)scale(0.28 -0.28)">
       <use xlink:href="#DejaVuSans-51"/>
      </g>
     </g>
    </g>
    <g id="xtick_9">
     <g id="line2d_15">
      <g>
       <use style="stroke:#000000;stroke-width:0.8;" x="640.450114" xlink:href="#md76fbcd640" y="279"/>
      </g>
     </g>
     <g id="text_14">
      <!-- 4 -->
      <g transform="translate(631.542614 308.775625)scale(0.28 -0.28)">
       <use xlink:href="#DejaVuSans-52"/>
      </g>
     </g>
    </g>
    <g id="xtick_10">
     <g id="line2d_16">
      <g>
       <use style="stroke:#000000;stroke-width:0.8;" x="714.086477" xlink:href="#md76fbcd640" y="279"/>
      </g>
     </g>
     <g id="text_15">
      <!-- 5 -->
      <g transform="translate(705.178977 308.775625)scale(0.28 -0.28)">
       <use xlink:href="#DejaVuSans-53"/>
      </g>
     </g>
    </g>
    <g id="text_16">
     <!-- -log10 p-value -->
     <g transform="translate(465.97875 339.874375)scale(0.28 -0.28)">
      <use xlink:href="#DejaVuSans-45"/>
      <use x="36.083984" xlink:href="#DejaVuSans-108"/>
      <use x="63.867188" xlink:href="#DejaVuSans-111"/>
      <use x="125.048828" xlink:href="#DejaVuSans-103"/>
      <use x="188.525391" xlink:href="#DejaVuSans-49"/>
      <use x="252.148438" xlink:href="#DejaVuSans-48"/>
      <use x="315.771484" xlink:href="#DejaVuSans-32"/>
      <use x="347.558594" xlink:href="#DejaVuSans-112"/>
      <use x="411.035156" xlink:href="#DejaVuSans-45"/>
      <use x="447.087891" xlink:href="#DejaVuSans-118"/>
      <use x="506.267578" xlink:href="#DejaVuSans-97"/>
      <use x="567.546875" xlink:href="#DejaVuSans-108"/>
      <use x="595.330078" xlink:href="#DejaVuSans-117"/>
      <use x="658.708984" xlink:href="#DejaVuSans-101"/>
     </g>
    </g>
   </g>
   <g id="matplotlib.axis_4">
    <g id="ytick_4"/>
    <g id="ytick_5"/>
    <g id="ytick_6"/>
   </g>
   <g id="line2d_17">
    <path clip-path="url(#pfc3fe7405e)" d="M 419.541023 230.093005 
L 423.222841 232.152004 
L 426.904659 227.355441 
L 430.586477 225.585241 
L 434.268295 221.728406 
L 437.950114 221.132842 
L 441.631932 219.629666 
L 445.31375 219.735558 
L 448.995568 216.238999 
L 452.677386 215.996991 
L 456.359205 211.502672 
L 460.041023 209.868374 
L 463.722841 210.566181 
L 467.404659 211.26772 
L 471.086477 213.533328 
L 474.768295 213.837588 
L 478.450114 215.393997 
L 482.131932 214.798096 
L 485.81375 212.718894 
L 489.495568 212.160919 
L 493.177386 209.868374 
L 496.859205 207.240333 
L 500.541023 209.098733 
L 504.222841 212.067346 
L 507.904659 213.108965 
L 511.586477 214.17836 
L 515.268295 214.429205 
L 518.950114 210.308168 
L 522.631932 203.665302 
L 526.31375 204.737438 
L 529.995568 205.842562 
L 533.677386 203.454704 
L 537.359205 204.574551 
L 541.041023 204.574551 
L 544.722841 206.924394 
L 548.404659 208.158062 
L 552.086477 202.968149 
L 555.768295 203.977299 
L 559.450114 196.117465 
L 563.131932 197.407529 
L 566.81375 200.152346 
L 570.495568 200.152346 
L 574.177386 200.152346 
L 577.859205 196.706407 
L 581.541023 193.107316 
L 585.222841 193.107316 
L 588.904659 189.34463 
L 592.586477 189.34463 
L 596.268295 185.406934 
L 599.950114 189.34463 
L 603.631932 190.791817 
L 607.31375 193.92087 
L 610.995568 189.34463 
L 614.677386 190.957209 
L 618.359205 190.957209 
L 622.041023 194.475566 
L 625.722841 194.475566 
L 629.404659 196.399667 
L 633.086477 198.447903 
L 636.768295 200.632689 
L 640.450114 200.632689 
L 644.131932 200.632689 
L 647.81375 200.632689 
L 651.495568 202.968149 
L 655.177386 202.968149 
L 658.859205 202.968149 
L 662.541023 191.435011 
L 666.222841 191.435011 
L 669.904659 191.435011 
L 673.586477 191.435011 
L 677.268295 193.686191 
L 680.950114 193.686191 
L 684.631932 193.686191 
L 688.31375 193.686191 
L 691.995568 193.686191 
L 695.677386 193.686191 
L 699.359205 193.686191 
L 703.041023 196.117465 
L 706.722841 196.117465 
L 710.404659 196.117465 
L 714.086477 196.117465 
" style="fill:none;stroke:#8b0000;stroke-linecap:square;stroke-width:2;"/>
   </g>
   <g id="line2d_18">
    <path clip-path="url(#pfc3fe7405e)" d="M 419.541023 197.555265 
L 423.222841 202.458621 
L 426.904659 193.691907 
L 430.586477 192.264065 
L 434.268295 185.898982 
L 437.950114 185.221998 
L 441.631932 183.408999 
L 445.31375 179.027586 
L 448.995568 180.23321 
L 452.677386 184.017529 
L 456.359205 172.37433 
L 460.041023 173.584013 
L 463.722841 168.967862 
L 467.404659 168.635309 
L 471.086477 159.780665 
L 474.768295 148.523032 
L 478.450114 144.48183 
L 482.131932 140.28215 
L 485.81375 140.922571 
L 489.495568 129.340499 
L 493.177386 121.870063 
L 496.859205 104.543566 
L 500.541023 107.172414 
L 504.222841 125.369503 
L 507.904659 122.299819 
L 511.586477 119.148276 
L 515.268295 119.148276 
L 518.950114 112.304926 
L 522.631932 101.273855 
L 526.31375 108.261129 
L 529.995568 115.463395 
L 533.677386 111.663362 
L 537.359205 107.742693 
L 541.041023 107.742693 
L 544.722841 99.515715 
L 548.404659 107.172414 
L 552.086477 98.500238 
L 555.768295 119.148276 
L 559.450114 99.986897 
L 563.131932 109.372062 
L 566.81375 129.340499 
L 570.495568 129.340499 
L 574.177386 129.340499 
L 577.859205 124.355172 
L 581.541023 119.148276 
L 585.222841 119.148276 
L 588.904659 113.704702 
L 592.586477 113.704702 
L 596.268295 108.007939 
L 599.950114 107.172414 
L 603.631932 100.723873 
L 607.31375 86.781081 
L 610.995568 79.228736 
L 614.677386 71.244828 
L 618.359205 71.244828 
L 622.041023 75.599687 
L 625.722841 75.599687 
L 629.404659 66.753879 
L 633.086477 80.516463 
L 636.768295 95.196552 
L 640.450114 95.196552 
L 644.131932 95.196552 
L 647.81375 95.196552 
L 651.495568 86.111415 
L 655.177386 86.111415 
L 658.859205 86.111415 
L 662.541023 65.922222 
L 666.222841 65.922222 
L 669.904659 65.922222 
L 673.586477 65.922222 
L 677.268295 82.299469 
L 680.950114 82.299469 
L 684.631932 82.299469 
L 688.31375 82.299469 
L 691.995568 82.299469 
L 695.677386 82.299469 
L 699.359205 82.299469 
L 703.041023 99.986897 
L 706.722841 99.986897 
L 710.404659 99.986897 
L 714.086477 99.986897 
" style="fill:none;stroke:#000080;stroke-linecap:square;stroke-width:2;"/>
   </g>
   <g id="line2d_19">
    <path clip-path="url(#pfc3fe7405e)" d="M 419.541023 264.941379 
L 714.086477 264.941379 
" style="fill:none;stroke:#0000ff;stroke-dasharray:3.7,1.6;stroke-dashoffset:0;"/>
   </g>
   <g id="patch_6">
    <path d="M 404.81375 279 
L 404.81375 7.2 
" style="fill:none;stroke:#000000;stroke-linecap:square;stroke-linejoin:miter;stroke-width:0.8;"/>
   </g>
   <g id="patch_7">
    <path d="M 404.81375 279 
L 728.81375 279 
" style="fill:none;stroke:#000000;stroke-linecap:square;stroke-linejoin:miter;stroke-width:0.8;"/>
   </g>
  </g>
  <g id="axes_3">
   <g id="patch_8">
    <path d="M 745.01375 279 
L 1069.01375 279 
L 1069.01375 7.2 
L 745.01375 7.2 
z
" style="fill:none;"/>
   </g>
   <g id="matplotlib.axis_5">
    <g id="xtick_11">
     <g id="line2d_20">
      <g>
       <use style="stroke:#000000;stroke-width:0.8;" x="759.741023" xlink:href="#md76fbcd640" y="279"/>
      </g>
     </g>
     <g id="text_17">
      <!-- 1 -->
      <g transform="translate(750.833523 308.775625)scale(0.28 -0.28)">
       <use xlink:href="#DejaVuSans-49"/>
      </g>
     </g>
    </g>
    <g id="xtick_12">
     <g id="line2d_21">
      <g>
       <use style="stroke:#000000;stroke-width:0.8;" x="833.377386" xlink:href="#md76fbcd640" y="279"/>
      </g>
     </g>
     <g id="text_18">
      <!-- 2 -->
      <g transform="translate(824.469886 308.775625)scale(0.28 -0.28)">
       <use xlink:href="#DejaVuSans-50"/>
      </g>
     </g>
    </g>
    <g id="xtick_13">
     <g id="line2d_22">
      <g>
       <use style="stroke:#000000;stroke-width:0.8;" x="907.01375" xlink:href="#md76fbcd640" y="279"/>
      </g>
     </g>
     <g id="text_19">
      <!-- 3 -->
      <g transform="translate(898.10625 308.775625)scale(0.28 -0.28)">
       <use xlink:href="#DejaVuSans-51"/>
      </g>
     </g>
    </g>
    <g id="xtick_14">
     <g id="line2d_23">
      <g>
       <use style="stroke:#000000;stroke-width:0.8;" x="980.650114" xlink:href="#md76fbcd640" y="279"/>
      </g>
     </g>
     <g id="text_20">
      <!-- 4 -->
      <g transform="translate(971.742614 308.775625)scale(0.28 -0.28)">
       <use xlink:href="#DejaVuSans-52"/>
      </g>
     </g>
    </g>
    <g id="xtick_15">
     <g id="line2d_24">
      <g>
       <use style="stroke:#000000;stroke-width:0.8;" x="1054.286477" xlink:href="#md76fbcd640" y="279"/>
      </g>
     </g>
     <g id="text_21">
      <!-- 5 -->
      <g transform="translate(1045.378977 308.775625)scale(0.28 -0.28)">
       <use xlink:href="#DejaVuSans-53"/>
      </g>
     </g>
    </g>
    <g id="text_22">
     <!-- -log10 p-value -->
     <g transform="translate(806.17875 339.874375)scale(0.28 -0.28)">
      <use xlink:href="#DejaVuSans-45"/>
      <use x="36.083984" xlink:href="#DejaVuSans-108"/>
      <use x="63.867188" xlink:href="#DejaVuSans-111"/>
      <use x="125.048828" xlink:href="#DejaVuSans-103"/>
      <use x="188.525391" xlink:href="#DejaVuSans-49"/>
      <use x="252.148438" xlink:href="#DejaVuSans-48"/>
      <use x="315.771484" xlink:href="#DejaVuSans-32"/>
      <use x="347.558594" xlink:href="#DejaVuSans-112"/>
      <use x="411.035156" xlink:href="#DejaVuSans-45"/>
      <use x="447.087891" xlink:href="#DejaVuSans-118"/>
      <use x="506.267578" xlink:href="#DejaVuSans-97"/>
      <use x="567.546875" xlink:href="#DejaVuSans-108"/>
      <use x="595.330078" xlink:href="#DejaVuSans-117"/>
      <use x="658.708984" xlink:href="#DejaVuSans-101"/>
     </g>
    </g>
   </g>
   <g id="matplotlib.axis_6">
    <g id="ytick_7"/>
    <g id="ytick_8"/>
    <g id="ytick_9"/>
   </g>
   <g id="line2d_25">
    <path clip-path="url(#pa6fcc71be5)" d="M 759.741023 262.227196 
L 763.422841 262.227196 
L 767.104659 262.262934 
L 770.786477 261.951658 
L 774.468295 261.996959 
L 778.150114 262.020166 
L 781.831932 262.092128 
L 785.51375 261.750074 
L 789.195568 261.772645 
L 792.877386 261.818992 
L 796.559205 261.842788 
L 800.241023 261.879295 
L 803.922841 261.942402 
L 807.604659 261.546041 
L 811.286477 261.56904 
L 814.968295 261.592488 
L 818.650114 261.604384 
L 822.331932 261.640783 
L 826.01375 261.71694 
L 829.695568 261.756804 
L 833.377386 261.271479 
L 837.059205 261.31701 
L 840.741023 261.364554 
L 844.422841 261.401614 
L 848.104659 261.427022 
L 851.786477 261.466237 
L 855.468295 261.534706 
L 859.150114 261.563249 
L 862.831932 261.019697 
L 866.51375 261.0549 
L 870.195568 261.066933 
L 873.877386 261.066933 
L 877.559205 261.091466 
L 881.241023 261.11664 
L 884.922841 260.501231 
L 888.604659 260.519402 
L 892.286477 260.528674 
L 895.968295 260.577008 
L 899.650114 259.897279 
L 903.331932 259.902698 
L 907.01375 259.908198 
L 910.695568 259.913781 
L 914.377386 259.919449 
L 918.059205 259.936979 
L 921.741023 259.936979 
L 925.422841 259.936979 
L 929.104659 259.961661 
L 932.786477 259.981235 
L 936.468295 260.001795 
L 940.150114 260.016088 
L 943.831932 260.038468 
L 947.51375 260.046192 
L 951.195568 260.054054 
L 954.877386 260.078505 
L 958.559205 260.095567 
L 962.241023 260.10434 
L 965.922841 260.141151 
L 969.604659 260.160661 
L 973.286477 260.160661 
L 976.968295 260.180967 
L 980.650114 260.202119 
L 984.331932 260.213029 
L 988.01375 260.213029 
L 991.695568 260.213029 
L 995.377386 260.224171 
L 999.059205 260.224171 
L 1002.741023 260.271216 
L 1006.422841 260.283638 
L 1010.104659 260.309339 
L 1013.786477 260.336249 
L 1017.468295 260.336249 
L 1021.150114 260.350184 
L 1024.831932 260.364456 
L 1028.51375 260.364456 
L 1032.195568 260.364456 
L 1035.877386 260.364456 
L 1039.559205 260.425154 
L 1043.241023 260.441301 
L 1046.922841 260.441301 
L 1050.604659 260.457868 
L 1054.286477 260.474871 
" style="fill:none;stroke:#8b0000;stroke-linecap:square;stroke-width:2;"/>
   </g>
   <g id="line2d_26">
    <path clip-path="url(#pa6fcc71be5)" d="M 759.741023 252.258812 
L 763.422841 252.258812 
L 767.104659 252.345708 
L 770.786477 249.368753 
L 774.468295 247.59157 
L 778.150114 248.080933 
L 781.831932 246.72818 
L 785.51375 244.814721 
L 789.195568 243.820391 
L 792.877386 244.814721 
L 796.559205 243.793638 
L 800.241023 245.332225 
L 803.922841 244.285183 
L 807.604659 242.635759 
L 811.286477 241.514698 
L 814.968295 240.371764 
L 818.650114 239.791892 
L 822.331932 239.716925 
L 826.01375 237.808519 
L 829.695568 235.920128 
L 833.377386 235.778944 
L 837.059205 236.814395 
L 840.741023 234.121553 
L 844.422841 232.022497 
L 848.104659 234.464649 
L 851.786477 232.310877 
L 855.468295 228.550322 
L 859.150114 226.982669 
L 862.831932 225.014583 
L 866.51375 224.638631 
L 870.195568 225.96045 
L 873.877386 225.96045 
L 877.559205 226.45169 
L 881.241023 224.723405 
L 884.922841 221.127643 
L 888.604659 219.25638 
L 892.286477 218.301522 
L 895.968295 215.746433 
L 899.650114 210.492055 
L 903.331932 209.394474 
L 907.01375 208.280511 
L 910.695568 209.71786 
L 914.377386 211.176986 
L 918.059205 213.042406 
L 921.741023 213.042406 
L 925.422841 213.042406 
L 929.104659 208.382467 
L 932.786477 204.686982 
L 936.468295 200.80517 
L 940.150114 201.025954 
L 943.831932 196.877544 
L 947.51375 195.445792 
L 951.195568 197.038048 
L 954.877386 198.856602 
L 958.559205 199.061598 
L 962.241023 197.555901 
L 965.922841 197.934982 
L 969.604659 198.135895 
L 973.286477 198.135895 
L 976.968295 198.345009 
L 980.650114 202.120673 
L 984.331932 200.472833 
L 988.01375 200.472833 
L 991.695568 200.472833 
L 995.377386 198.789932 
L 999.059205 198.789932 
L 1002.741023 199.274403 
L 1006.422841 197.483492 
L 1010.104659 193.778158 
L 1013.786477 189.898455 
L 1017.468295 189.898455 
L 1021.150114 187.889324 
L 1024.831932 185.831779 
L 1028.51375 185.831779 
L 1032.195568 185.831779 
L 1035.877386 185.831779 
L 1039.559205 190.051048 
L 1043.241023 187.889324 
L 1046.922841 187.889324 
L 1050.604659 185.671451 
L 1054.286477 187.889324 
" style="fill:none;stroke:#000080;stroke-linecap:square;stroke-width:2;"/>
   </g>
   <g id="line2d_27">
    <path clip-path="url(#pa6fcc71be5)" d="M 759.741023 264.941379 
L 1054.286477 264.941379 
" style="fill:none;stroke:#0000ff;stroke-dasharray:3.7,1.6;stroke-dashoffset:0;"/>
   </g>
   <g id="patch_9">
    <path d="M 745.01375 279 
L 745.01375 7.2 
" style="fill:none;stroke:#000000;stroke-linecap:square;stroke-linejoin:miter;stroke-width:0.8;"/>
   </g>
   <g id="patch_10">
    <path d="M 745.01375 279 
L 1069.01375 279 
" style="fill:none;stroke:#000000;stroke-linecap:square;stroke-linejoin:miter;stroke-width:0.8;"/>
   </g>
  </g>
 </g>
 <defs>
  <clipPath id="p67948c3e18">
   <rect height="271.8" width="324" x="64.61375" y="7.2"/>
  </clipPath>
  <clipPath id="pfc3fe7405e">
   <rect height="271.8" width="324" x="404.81375" y="7.2"/>
  </clipPath>
  <clipPath id="pa6fcc71be5">
   <rect height="271.8" width="324" x="745.01375" y="7.2"/>
  </clipPath>
 </defs>
</svg>
