<?xml version="1.0" encoding="utf-8" standalone="no"?>
<!DOCTYPE svg PUBLIC "-//W3C//DTD SVG 1.1//EN"
  "http://www.w3.org/Graphics/SVG/1.1/DTD/svg11.dtd">
<!-- Created with matplotlib (https://matplotlib.org/) -->
<svg height="353.937187pt" version="1.1" viewBox="0 0 1094.02875 353.937187" width="1094.02875pt" xmlns="http://www.w3.org/2000/svg" xmlns:xlink="http://www.w3.org/1999/xlink">
 <defs>
  <style type="text/css">
*{stroke-linecap:butt;stroke-linejoin:round;}
  </style>
 </defs>
 <g id="figure_1">
  <g id="patch_1">
   <path d="M 0 353.937187 
L 1094.02875 353.937187 
L 1094.02875 0 
L 0 0 
z
" style="fill:none;"/>
  </g>
  <g id="axes_1">
   <g id="patch_2">
    <path d="M 82.42875 280.039688 
L 406.42875 280.039688 
L 406.42875 8.239688 
L 82.42875 8.239688 
z
" style="fill:none;"/>
   </g>
   <g id="matplotlib.axis_1">
    <g id="xtick_1">
     <g id="line2d_1">
      <defs>
       <path d="M 0 0 
L 0 5 
" id="mb7ef5097a1" style="stroke:#000000;stroke-width:0.8;"/>
      </defs>
      <g>
       <use style="stroke:#000000;stroke-width:0.8;" x="97.156023" xlink:href="#mb7ef5097a1" y="280.039688"/>
      </g>
     </g>
     <g id="text_1">
      <!-- 1 -->
      <defs>
       <path d="M 12.40625 8.296875 
L 28.515625 8.296875 
L 28.515625 63.921875 
L 10.984375 60.40625 
L 10.984375 69.390625 
L 28.421875 72.90625 
L 38.28125 72.90625 
L 38.28125 8.296875 
L 54.390625 8.296875 
L 54.390625 0 
L 12.40625 0 
z
" id="DejaVuSans-49"/>
      </defs>
      <g transform="translate(88.248523 309.815313)scale(0.28 -0.28)">
       <use xlink:href="#DejaVuSans-49"/>
      </g>
     </g>
    </g>
    <g id="xtick_2">
     <g id="line2d_2">
      <g>
       <use style="stroke:#000000;stroke-width:0.8;" x="170.792386" xlink:href="#mb7ef5097a1" y="280.039688"/>
      </g>
     </g>
     <g id="text_2">
      <!-- 2 -->
      <defs>
       <path d="M 19.1875 8.296875 
L 53.609375 8.296875 
L 53.609375 0 
L 7.328125 0 
L 7.328125 8.296875 
Q 12.9375 14.109375 22.625 23.890625 
Q 32.328125 33.6875 34.8125 36.53125 
Q 39.546875 41.84375 41.421875 45.53125 
Q 43.3125 49.21875 43.3125 52.78125 
Q 43.3125 58.59375 39.234375 62.25 
Q 35.15625 65.921875 28.609375 65.921875 
Q 23.96875 65.921875 18.8125 64.3125 
Q 13.671875 62.703125 7.8125 59.421875 
L 7.8125 69.390625 
Q 13.765625 71.78125 18.9375 73 
Q 24.125 74.21875 28.421875 74.21875 
Q 39.75 74.21875 46.484375 68.546875 
Q 53.21875 62.890625 53.21875 53.421875 
Q 53.21875 48.921875 51.53125 44.890625 
Q 49.859375 40.875 45.40625 35.40625 
Q 44.1875 33.984375 37.640625 27.21875 
Q 31.109375 20.453125 19.1875 8.296875 
z
" id="DejaVuSans-50"/>
      </defs>
      <g transform="translate(161.884886 309.815313)scale(0.28 -0.28)">
       <use xlink:href="#DejaVuSans-50"/>
      </g>
     </g>
    </g>
    <g id="xtick_3">
     <g id="line2d_3">
      <g>
       <use style="stroke:#000000;stroke-width:0.8;" x="244.42875" xlink:href="#mb7ef5097a1" y="280.039688"/>
      </g>
     </g>
     <g id="text_3">
      <!-- 3 -->
      <defs>
       <path d="M 40.578125 39.3125 
Q 47.65625 37.796875 51.625 33 
Q 55.609375 28.21875 55.609375 21.1875 
Q 55.609375 10.40625 48.1875 4.484375 
Q 40.765625 -1.421875 27.09375 -1.421875 
Q 22.515625 -1.421875 17.65625 -0.515625 
Q 12.796875 0.390625 7.625 2.203125 
L 7.625 11.71875 
Q 11.71875 9.328125 16.59375 8.109375 
Q 21.484375 6.890625 26.8125 6.890625 
Q 36.078125 6.890625 40.9375 10.546875 
Q 45.796875 14.203125 45.796875 21.1875 
Q 45.796875 27.640625 41.28125 31.265625 
Q 36.765625 34.90625 28.71875 34.90625 
L 20.21875 34.90625 
L 20.21875 43.015625 
L 29.109375 43.015625 
Q 36.375 43.015625 40.234375 45.921875 
Q 44.09375 48.828125 44.09375 54.296875 
Q 44.09375 59.90625 40.109375 62.90625 
Q 36.140625 65.921875 28.71875 65.921875 
Q 24.65625 65.921875 20.015625 65.03125 
Q 15.375 64.15625 9.8125 62.3125 
L 9.8125 71.09375 
Q 15.4375 72.65625 20.34375 73.4375 
Q 25.25 74.21875 29.59375 74.21875 
Q 40.828125 74.21875 47.359375 69.109375 
Q 53.90625 64.015625 53.90625 55.328125 
Q 53.90625 49.265625 50.4375 45.09375 
Q 46.96875 40.921875 40.578125 39.3125 
z
" id="DejaVuSans-51"/>
      </defs>
      <g transform="translate(235.52125 309.815313)scale(0.28 -0.28)">
       <use xlink:href="#DejaVuSans-51"/>
      </g>
     </g>
    </g>
    <g id="xtick_4">
     <g id="line2d_4">
      <g>
       <use style="stroke:#000000;stroke-width:0.8;" x="318.065114" xlink:href="#mb7ef5097a1" y="280.039688"/>
      </g>
     </g>
     <g id="text_4">
      <!-- 4 -->
      <defs>
       <path d="M 37.796875 64.3125 
L 12.890625 25.390625 
L 37.796875 25.390625 
z
M 35.203125 72.90625 
L 47.609375 72.90625 
L 47.609375 25.390625 
L 58.015625 25.390625 
L 58.015625 17.1875 
L 47.609375 17.1875 
L 47.609375 0 
L 37.796875 0 
L 37.796875 17.1875 
L 4.890625 17.1875 
L 4.890625 26.703125 
z
" id="DejaVuSans-52"/>
      </defs>
      <g transform="translate(309.157614 309.815313)scale(0.28 -0.28)">
       <use xlink:href="#DejaVuSans-52"/>
      </g>
     </g>
    </g>
    <g id="xtick_5">
     <g id="line2d_5">
      <g>
       <use style="stroke:#000000;stroke-width:0.8;" x="391.701477" xlink:href="#mb7ef5097a1" y="280.039688"/>
      </g>
     </g>
     <g id="text_5">
      <!-- 5 -->
      <defs>
       <path d="M 10.796875 72.90625 
L 49.515625 72.90625 
L 49.515625 64.59375 
L 19.828125 64.59375 
L 19.828125 46.734375 
Q 21.96875 47.46875 24.109375 47.828125 
Q 26.265625 48.1875 28.421875 48.1875 
Q 40.625 48.1875 47.75 41.5 
Q 54.890625 34.8125 54.890625 23.390625 
Q 54.890625 11.625 47.5625 5.09375 
Q 40.234375 -1.421875 26.90625 -1.421875 
Q 22.3125 -1.421875 17.546875 -0.640625 
Q 12.796875 0.140625 7.71875 1.703125 
L 7.71875 11.625 
Q 12.109375 9.234375 16.796875 8.0625 
Q 21.484375 6.890625 26.703125 6.890625 
Q 35.15625 6.890625 40.078125 11.328125 
Q 45.015625 15.765625 45.015625 23.390625 
Q 45.015625 31 40.078125 35.4375 
Q 35.15625 39.890625 26.703125 39.890625 
Q 22.75 39.890625 18.8125 39.015625 
Q 14.890625 38.140625 10.796875 36.28125 
z
" id="DejaVuSans-53"/>
      </defs>
      <g transform="translate(382.793977 309.815313)scale(0.28 -0.28)">
       <use xlink:href="#DejaVuSans-53"/>
      </g>
     </g>
    </g>
    <g id="text_6">
     <!-- -log10 p-value -->
     <defs>
      <path d="M 4.890625 31.390625 
L 31.203125 31.390625 
L 31.203125 23.390625 
L 4.890625 23.390625 
z
" id="DejaVuSans-45"/>
      <path d="M 9.421875 75.984375 
L 18.40625 75.984375 
L 18.40625 0 
L 9.421875 0 
z
" id="DejaVuSans-108"/>
      <path d="M 30.609375 48.390625 
Q 23.390625 48.390625 19.1875 42.75 
Q 14.984375 37.109375 14.984375 27.296875 
Q 14.984375 17.484375 19.15625 11.84375 
Q 23.34375 6.203125 30.609375 6.203125 
Q 37.796875 6.203125 41.984375 11.859375 
Q 46.1875 17.53125 46.1875 27.296875 
Q 46.1875 37.015625 41.984375 42.703125 
Q 37.796875 48.390625 30.609375 48.390625 
z
M 30.609375 56 
Q 42.328125 56 49.015625 48.375 
Q 55.71875 40.765625 55.71875 27.296875 
Q 55.71875 13.875 49.015625 6.21875 
Q 42.328125 -1.421875 30.609375 -1.421875 
Q 18.84375 -1.421875 12.171875 6.21875 
Q 5.515625 13.875 5.515625 27.296875 
Q 5.515625 40.765625 12.171875 48.375 
Q 18.84375 56 30.609375 56 
z
" id="DejaVuSans-111"/>
      <path d="M 45.40625 27.984375 
Q 45.40625 37.75 41.375 43.109375 
Q 37.359375 48.484375 30.078125 48.484375 
Q 22.859375 48.484375 18.828125 43.109375 
Q 14.796875 37.75 14.796875 27.984375 
Q 14.796875 18.265625 18.828125 12.890625 
Q 22.859375 7.515625 30.078125 7.515625 
Q 37.359375 7.515625 41.375 12.890625 
Q 45.40625 18.265625 45.40625 27.984375 
z
M 54.390625 6.78125 
Q 54.390625 -7.171875 48.1875 -13.984375 
Q 42 -20.796875 29.203125 -20.796875 
Q 24.46875 -20.796875 20.265625 -20.09375 
Q 16.0625 -19.390625 12.109375 -17.921875 
L 12.109375 -9.1875 
Q 16.0625 -11.328125 19.921875 -12.34375 
Q 23.78125 -13.375 27.78125 -13.375 
Q 36.625 -13.375 41.015625 -8.765625 
Q 45.40625 -4.15625 45.40625 5.171875 
L 45.40625 9.625 
Q 42.625 4.78125 38.28125 2.390625 
Q 33.9375 0 27.875 0 
Q 17.828125 0 11.671875 7.65625 
Q 5.515625 15.328125 5.515625 27.984375 
Q 5.515625 40.671875 11.671875 48.328125 
Q 17.828125 56 27.875 56 
Q 33.9375 56 38.28125 53.609375 
Q 42.625 51.21875 45.40625 46.390625 
L 45.40625 54.6875 
L 54.390625 54.6875 
z
" id="DejaVuSans-103"/>
      <path d="M 31.78125 66.40625 
Q 24.171875 66.40625 20.328125 58.90625 
Q 16.5 51.421875 16.5 36.375 
Q 16.5 21.390625 20.328125 13.890625 
Q 24.171875 6.390625 31.78125 6.390625 
Q 39.453125 6.390625 43.28125 13.890625 
Q 47.125 21.390625 47.125 36.375 
Q 47.125 51.421875 43.28125 58.90625 
Q 39.453125 66.40625 31.78125 66.40625 
z
M 31.78125 74.21875 
Q 44.046875 74.21875 50.515625 64.515625 
Q 56.984375 54.828125 56.984375 36.375 
Q 56.984375 17.96875 50.515625 8.265625 
Q 44.046875 -1.421875 31.78125 -1.421875 
Q 19.53125 -1.421875 13.0625 8.265625 
Q 6.59375 17.96875 6.59375 36.375 
Q 6.59375 54.828125 13.0625 64.515625 
Q 19.53125 74.21875 31.78125 74.21875 
z
" id="DejaVuSans-48"/>
      <path id="DejaVuSans-32"/>
      <path d="M 18.109375 8.203125 
L 18.109375 -20.796875 
L 9.078125 -20.796875 
L 9.078125 54.6875 
L 18.109375 54.6875 
L 18.109375 46.390625 
Q 20.953125 51.265625 25.265625 53.625 
Q 29.59375 56 35.59375 56 
Q 45.5625 56 51.78125 48.09375 
Q 58.015625 40.1875 58.015625 27.296875 
Q 58.015625 14.40625 51.78125 6.484375 
Q 45.5625 -1.421875 35.59375 -1.421875 
Q 29.59375 -1.421875 25.265625 0.953125 
Q 20.953125 3.328125 18.109375 8.203125 
z
M 48.6875 27.296875 
Q 48.6875 37.203125 44.609375 42.84375 
Q 40.53125 48.484375 33.40625 48.484375 
Q 26.265625 48.484375 22.1875 42.84375 
Q 18.109375 37.203125 18.109375 27.296875 
Q 18.109375 17.390625 22.1875 11.75 
Q 26.265625 6.109375 33.40625 6.109375 
Q 40.53125 6.109375 44.609375 11.75 
Q 48.6875 17.390625 48.6875 27.296875 
z
" id="DejaVuSans-112"/>
      <path d="M 2.984375 54.6875 
L 12.5 54.6875 
L 29.59375 8.796875 
L 46.6875 54.6875 
L 56.203125 54.6875 
L 35.6875 0 
L 23.484375 0 
z
" id="DejaVuSans-118"/>
      <path d="M 34.28125 27.484375 
Q 23.390625 27.484375 19.1875 25 
Q 14.984375 22.515625 14.984375 16.5 
Q 14.984375 11.71875 18.140625 8.90625 
Q 21.296875 6.109375 26.703125 6.109375 
Q 34.1875 6.109375 38.703125 11.40625 
Q 43.21875 16.703125 43.21875 25.484375 
L 43.21875 27.484375 
z
M 52.203125 31.203125 
L 52.203125 0 
L 43.21875 0 
L 43.21875 8.296875 
Q 40.140625 3.328125 35.546875 0.953125 
Q 30.953125 -1.421875 24.3125 -1.421875 
Q 15.921875 -1.421875 10.953125 3.296875 
Q 6 8.015625 6 15.921875 
Q 6 25.140625 12.171875 29.828125 
Q 18.359375 34.515625 30.609375 34.515625 
L 43.21875 34.515625 
L 43.21875 35.40625 
Q 43.21875 41.609375 39.140625 45 
Q 35.0625 48.390625 27.6875 48.390625 
Q 23 48.390625 18.546875 47.265625 
Q 14.109375 46.140625 10.015625 43.890625 
L 10.015625 52.203125 
Q 14.9375 54.109375 19.578125 55.046875 
Q 24.21875 56 28.609375 56 
Q 40.484375 56 46.34375 49.84375 
Q 52.203125 43.703125 52.203125 31.203125 
z
" id="DejaVuSans-97"/>
      <path d="M 8.5 21.578125 
L 8.5 54.6875 
L 17.484375 54.6875 
L 17.484375 21.921875 
Q 17.484375 14.15625 20.5 10.265625 
Q 23.53125 6.390625 29.59375 6.390625 
Q 36.859375 6.390625 41.078125 11.03125 
Q 45.3125 15.671875 45.3125 23.6875 
L 45.3125 54.6875 
L 54.296875 54.6875 
L 54.296875 0 
L 45.3125 0 
L 45.3125 8.40625 
Q 42.046875 3.421875 37.71875 1 
Q 33.40625 -1.421875 27.6875 -1.421875 
Q 18.265625 -1.421875 13.375 4.4375 
Q 8.5 10.296875 8.5 21.578125 
z
M 31.109375 56 
z
" id="DejaVuSans-117"/>
      <path d="M 56.203125 29.59375 
L 56.203125 25.203125 
L 14.890625 25.203125 
Q 15.484375 15.921875 20.484375 11.0625 
Q 25.484375 6.203125 34.421875 6.203125 
Q 39.59375 6.203125 44.453125 7.46875 
Q 49.3125 8.734375 54.109375 11.28125 
L 54.109375 2.78125 
Q 49.265625 0.734375 44.1875 -0.34375 
Q 39.109375 -1.421875 33.890625 -1.421875 
Q 20.796875 -1.421875 13.15625 6.1875 
Q 5.515625 13.8125 5.515625 26.8125 
Q 5.515625 40.234375 12.765625 48.109375 
Q 20.015625 56 32.328125 56 
Q 43.359375 56 49.78125 48.890625 
Q 56.203125 41.796875 56.203125 29.59375 
z
M 47.21875 32.234375 
Q 47.125 39.59375 43.09375 43.984375 
Q 39.0625 48.390625 32.421875 48.390625 
Q 24.90625 48.390625 20.390625 44.140625 
Q 15.875 39.890625 15.1875 32.171875 
z
" id="DejaVuSans-101"/>
     </defs>
     <g transform="translate(143.59375 340.914062)scale(0.28 -0.28)">
      <use xlink:href="#DejaVuSans-45"/>
      <use x="36.083984" xlink:href="#DejaVuSans-108"/>
      <use x="63.867188" xlink:href="#DejaVuSans-111"/>
      <use x="125.048828" xlink:href="#DejaVuSans-103"/>
      <use x="188.525391" xlink:href="#DejaVuSans-49"/>
      <use x="252.148438" xlink:href="#DejaVuSans-48"/>
      <use x="315.771484" xlink:href="#DejaVuSans-32"/>
      <use x="347.558594" xlink:href="#DejaVuSans-112"/>
      <use x="411.035156" xlink:href="#DejaVuSans-45"/>
      <use x="447.087891" xlink:href="#DejaVuSans-118"/>
      <use x="506.267578" xlink:href="#DejaVuSans-97"/>
      <use x="567.546875" xlink:href="#DejaVuSans-108"/>
      <use x="595.330078" xlink:href="#DejaVuSans-117"/>
      <use x="658.708984" xlink:href="#DejaVuSans-101"/>
     </g>
    </g>
   </g>
   <g id="matplotlib.axis_2">
    <g id="ytick_1">
     <g id="line2d_6">
      <defs>
       <path d="M 0 0 
L -5 0 
" id="m5e257ba78e" style="stroke:#000000;stroke-width:0.8;"/>
      </defs>
      <g>
       <use style="stroke:#000000;stroke-width:0.8;" x="82.42875" xlink:href="#m5e257ba78e" y="279.497173"/>
      </g>
     </g>
     <g id="text_7">
      <!-- 0 -->
      <g transform="translate(56.11375 290.134985)scale(0.28 -0.28)">
       <use xlink:href="#DejaVuSans-48"/>
      </g>
     </g>
    </g>
    <g id="ytick_2">
     <g id="line2d_7">
      <g>
       <use style="stroke:#000000;stroke-width:0.8;" x="82.42875" xlink:href="#m5e257ba78e" y="170.994179"/>
      </g>
     </g>
     <g id="text_8">
      <!-- 10 -->
      <g transform="translate(38.29875 181.631991)scale(0.28 -0.28)">
       <use xlink:href="#DejaVuSans-49"/>
       <use x="63.623047" xlink:href="#DejaVuSans-48"/>
      </g>
     </g>
    </g>
    <g id="ytick_3">
     <g id="line2d_8">
      <g>
       <use style="stroke:#000000;stroke-width:0.8;" x="82.42875" xlink:href="#m5e257ba78e" y="62.491185"/>
      </g>
     </g>
     <g id="text_9">
      <!-- 20 -->
      <g transform="translate(38.29875 73.128997)scale(0.28 -0.28)">
       <use xlink:href="#DejaVuSans-50"/>
       <use x="63.623047" xlink:href="#DejaVuSans-48"/>
      </g>
     </g>
    </g>
    <g id="text_10">
     <!-- enrichment p-value -->
     <defs>
      <path d="M 54.890625 33.015625 
L 54.890625 0 
L 45.90625 0 
L 45.90625 32.71875 
Q 45.90625 40.484375 42.875 44.328125 
Q 39.84375 48.1875 33.796875 48.1875 
Q 26.515625 48.1875 22.3125 43.546875 
Q 18.109375 38.921875 18.109375 30.90625 
L 18.109375 0 
L 9.078125 0 
L 9.078125 54.6875 
L 18.109375 54.6875 
L 18.109375 46.1875 
Q 21.34375 51.125 25.703125 53.5625 
Q 30.078125 56 35.796875 56 
Q 45.21875 56 50.046875 50.171875 
Q 54.890625 44.34375 54.890625 33.015625 
z
" id="DejaVuSans-110"/>
      <path d="M 41.109375 46.296875 
Q 39.59375 47.171875 37.8125 47.578125 
Q 36.03125 48 33.890625 48 
Q 26.265625 48 22.1875 43.046875 
Q 18.109375 38.09375 18.109375 28.8125 
L 18.109375 0 
L 9.078125 0 
L 9.078125 54.6875 
L 18.109375 54.6875 
L 18.109375 46.1875 
Q 20.953125 51.171875 25.484375 53.578125 
Q 30.03125 56 36.53125 56 
Q 37.453125 56 38.578125 55.875 
Q 39.703125 55.765625 41.0625 55.515625 
z
" id="DejaVuSans-114"/>
      <path d="M 9.421875 54.6875 
L 18.40625 54.6875 
L 18.40625 0 
L 9.421875 0 
z
M 9.421875 75.984375 
L 18.40625 75.984375 
L 18.40625 64.59375 
L 9.421875 64.59375 
z
" id="DejaVuSans-105"/>
      <path d="M 48.78125 52.59375 
L 48.78125 44.1875 
Q 44.96875 46.296875 41.140625 47.34375 
Q 37.3125 48.390625 33.40625 48.390625 
Q 24.65625 48.390625 19.8125 42.84375 
Q 14.984375 37.3125 14.984375 27.296875 
Q 14.984375 17.28125 19.8125 11.734375 
Q 24.65625 6.203125 33.40625 6.203125 
Q 37.3125 6.203125 41.140625 7.25 
Q 44.96875 8.296875 48.78125 10.40625 
L 48.78125 2.09375 
Q 45.015625 0.34375 40.984375 -0.53125 
Q 36.96875 -1.421875 32.421875 -1.421875 
Q 20.0625 -1.421875 12.78125 6.34375 
Q 5.515625 14.109375 5.515625 27.296875 
Q 5.515625 40.671875 12.859375 48.328125 
Q 20.21875 56 33.015625 56 
Q 37.15625 56 41.109375 55.140625 
Q 45.0625 54.296875 48.78125 52.59375 
z
" id="DejaVuSans-99"/>
      <path d="M 54.890625 33.015625 
L 54.890625 0 
L 45.90625 0 
L 45.90625 32.71875 
Q 45.90625 40.484375 42.875 44.328125 
Q 39.84375 48.1875 33.796875 48.1875 
Q 26.515625 48.1875 22.3125 43.546875 
Q 18.109375 38.921875 18.109375 30.90625 
L 18.109375 0 
L 9.078125 0 
L 9.078125 75.984375 
L 18.109375 75.984375 
L 18.109375 46.1875 
Q 21.34375 51.125 25.703125 53.5625 
Q 30.078125 56 35.796875 56 
Q 45.21875 56 50.046875 50.171875 
Q 54.890625 44.34375 54.890625 33.015625 
z
" id="DejaVuSans-104"/>
      <path d="M 52 44.1875 
Q 55.375 50.25 60.0625 53.125 
Q 64.75 56 71.09375 56 
Q 79.640625 56 84.28125 50.015625 
Q 88.921875 44.046875 88.921875 33.015625 
L 88.921875 0 
L 79.890625 0 
L 79.890625 32.71875 
Q 79.890625 40.578125 77.09375 44.375 
Q 74.3125 48.1875 68.609375 48.1875 
Q 61.625 48.1875 57.5625 43.546875 
Q 53.515625 38.921875 53.515625 30.90625 
L 53.515625 0 
L 44.484375 0 
L 44.484375 32.71875 
Q 44.484375 40.625 41.703125 44.40625 
Q 38.921875 48.1875 33.109375 48.1875 
Q 26.21875 48.1875 22.15625 43.53125 
Q 18.109375 38.875 18.109375 30.90625 
L 18.109375 0 
L 9.078125 0 
L 9.078125 54.6875 
L 18.109375 54.6875 
L 18.109375 46.1875 
Q 21.1875 51.21875 25.484375 53.609375 
Q 29.78125 56 35.6875 56 
Q 41.65625 56 45.828125 52.96875 
Q 50 49.953125 52 44.1875 
z
" id="DejaVuSans-109"/>
      <path d="M 18.3125 70.21875 
L 18.3125 54.6875 
L 36.8125 54.6875 
L 36.8125 47.703125 
L 18.3125 47.703125 
L 18.3125 18.015625 
Q 18.3125 11.328125 20.140625 9.421875 
Q 21.96875 7.515625 27.59375 7.515625 
L 36.8125 7.515625 
L 36.8125 0 
L 27.59375 0 
Q 17.1875 0 13.234375 3.875 
Q 9.28125 7.765625 9.28125 18.015625 
L 9.28125 47.703125 
L 2.6875 47.703125 
L 2.6875 54.6875 
L 9.28125 54.6875 
L 9.28125 70.21875 
z
" id="DejaVuSans-116"/>
     </defs>
     <g transform="translate(28.475625 281.079375)rotate(-90)scale(0.28 -0.28)">
      <use xlink:href="#DejaVuSans-101"/>
      <use x="61.523438" xlink:href="#DejaVuSans-110"/>
      <use x="124.902344" xlink:href="#DejaVuSans-114"/>
      <use x="166.015625" xlink:href="#DejaVuSans-105"/>
      <use x="193.798828" xlink:href="#DejaVuSans-99"/>
      <use x="248.779297" xlink:href="#DejaVuSans-104"/>
      <use x="312.158203" xlink:href="#DejaVuSans-109"/>
      <use x="409.570312" xlink:href="#DejaVuSans-101"/>
      <use x="471.09375" xlink:href="#DejaVuSans-110"/>
      <use x="534.472656" xlink:href="#DejaVuSans-116"/>
      <use x="573.681641" xlink:href="#DejaVuSans-32"/>
      <use x="605.46875" xlink:href="#DejaVuSans-112"/>
      <use x="668.945312" xlink:href="#DejaVuSans-45"/>
      <use x="704.998047" xlink:href="#DejaVuSans-118"/>
      <use x="764.177734" xlink:href="#DejaVuSans-97"/>
      <use x="825.457031" xlink:href="#DejaVuSans-108"/>
      <use x="853.240234" xlink:href="#DejaVuSans-117"/>
      <use x="916.619141" xlink:href="#DejaVuSans-101"/>
     </g>
    </g>
   </g>
   <g id="line2d_9">
    <path clip-path="url(#peb6a7927cd)" d="M 97.156023 192.512372 
L 100.837841 193.633368 
L 104.519659 186.588851 
L 108.201477 189.499908 
L 111.883295 191.285434 
L 115.565114 182.712081 
L 119.246932 183.363069 
L 122.92875 177.518262 
L 126.610568 179.659517 
L 130.292386 178.47364 
L 133.974205 176.148872 
L 137.656023 171.141938 
L 141.337841 166.775898 
L 145.019659 167.979623 
L 148.701477 163.472775 
L 152.383295 166.953353 
L 156.065114 164.933089 
L 159.746932 161.743271 
L 163.42875 158.599243 
L 167.110568 154.181522 
L 170.792386 159.265544 
L 174.474205 156.69035 
L 178.156023 154.189338 
L 181.837841 148.817783 
L 185.519659 146.581045 
L 189.201477 144.277885 
L 192.883295 146.732077 
L 196.565114 144.41497 
L 200.246932 141.933032 
L 203.92875 138.189615 
L 207.610568 134.965702 
L 211.292386 131.432491 
L 214.974205 135.962752 
L 218.656023 132.890076 
L 222.337841 138.805859 
L 226.019659 132.423798 
L 229.701477 129.260561 
L 233.383295 133.139011 
L 237.065114 130.926033 
L 240.746932 129.038263 
L 244.42875 132.915113 
L 248.110568 145.061071 
L 251.792386 142.931221 
L 255.474205 140.722293 
L 259.156023 146.364553 
L 262.837841 146.364553 
L 266.519659 152.341087 
L 270.201477 151.652612 
L 273.883295 150.265869 
L 277.565114 163.675068 
L 281.246932 160.20382 
L 284.92875 158.135252 
L 288.610568 156.738441 
L 292.292386 156.18934 
L 295.974205 152.187177 
L 299.656023 158.273897 
L 303.337841 160.406219 
L 307.019659 160.406219 
L 310.701477 158.946494 
L 314.383295 157.498644 
L 318.065114 156.738441 
L 321.746932 156.738441 
L 325.42875 155.425254 
L 329.110568 154.045967 
L 332.792386 154.045967 
L 336.474205 151.046178 
L 340.156023 156.546822 
L 343.837841 156.546822 
L 347.519659 154.314415 
L 351.201477 154.314415 
L 354.883295 153.715794 
L 358.565114 152.869135 
L 362.246932 150.516624 
L 365.92875 149.684792 
L 369.610568 147.154866 
L 373.292386 154.464349 
L 376.974205 153.833624 
L 380.656023 160.746316 
L 384.337841 167.40485 
L 388.019659 166.627519 
L 391.701477 172.165708 
" style="fill:none;stroke:#8b0000;stroke-linecap:square;stroke-width:2;"/>
   </g>
   <g id="line2d_10">
    <path clip-path="url(#peb6a7927cd)" d="M 97.156023 157.394993 
L 100.837841 155.535538 
L 104.519659 149.560073 
L 108.201477 146.910407 
L 111.883295 156.66276 
L 115.565114 137.001279 
L 119.246932 130.191926 
L 122.92875 116.277877 
L 126.610568 112.202122 
L 130.292386 99.773178 
L 133.974205 99.560461 
L 137.656023 85.308605 
L 141.337841 91.363321 
L 145.019659 91.294387 
L 148.701477 91.294387 
L 152.383295 85.321808 
L 156.065114 85.822722 
L 159.746932 84.027335 
L 163.42875 81.785737 
L 167.110568 74.970271 
L 170.792386 74.136269 
L 174.474205 66.814844 
L 178.156023 72.083146 
L 181.837841 56.805849 
L 185.519659 51.84638 
L 189.201477 51.84638 
L 192.883295 51.84638 
L 196.565114 51.84638 
L 200.246932 51.84638 
L 203.92875 58.116823 
L 207.610568 51.84638 
L 211.292386 51.84638 
L 214.974205 56.805849 
L 218.656023 55.295637 
L 222.337841 55.295637 
L 226.019659 51.84638 
L 229.701477 51.84638 
L 233.383295 64.973501 
L 237.065114 71.273649 
L 240.746932 78.949269 
L 244.42875 87.694857 
L 248.110568 107.585309 
L 251.792386 102.767883 
L 255.474205 103.679744 
L 259.156023 103.289959 
L 262.837841 103.289959 
L 266.519659 110.654952 
L 270.201477 108.969911 
L 273.883295 111.679162 
L 277.565114 118.967571 
L 281.246932 122.668652 
L 284.92875 123.673601 
L 288.610568 120.664108 
L 292.292386 118.967571 
L 295.974205 108.753822 
L 299.656023 111.41493 
L 303.337841 132.951372 
L 307.019659 132.951372 
L 310.701477 130.286901 
L 314.383295 132.557687 
L 318.065114 130.929494 
L 321.746932 130.929494 
L 325.42875 133.139011 
L 329.110568 130.363392 
L 332.792386 130.363392 
L 336.474205 123.83693 
L 340.156023 124.620411 
L 343.837841 124.620411 
L 347.519659 125.387322 
L 351.201477 125.387322 
L 354.883295 123.825372 
L 358.565114 128.092533 
L 362.246932 128.909962 
L 365.92875 132.682515 
L 369.610568 139.190287 
L 373.292386 143.521892 
L 376.974205 141.798617 
L 380.656023 146.065215 
L 384.337841 153.990137 
L 388.019659 152.419373 
L 391.701477 158.368046 
" style="fill:none;stroke:#000080;stroke-linecap:square;stroke-width:2;"/>
   </g>
   <g id="line2d_11">
    <path clip-path="url(#peb6a7927cd)" d="M 97.156023 265.380608 
L 391.701477 265.380608 
" style="fill:none;stroke:#ff0000;stroke-dasharray:3.7,1.6;stroke-dashoffset:0;"/>
   </g>
   <g id="patch_3">
    <path d="M 82.42875 280.039687 
L 82.42875 8.239688 
" style="fill:none;stroke:#000000;stroke-linecap:square;stroke-linejoin:miter;"/>
   </g>
   <g id="patch_4">
    <path d="M 82.42875 280.039688 
L 406.42875 280.039688 
" style="fill:none;stroke:#000000;stroke-linecap:square;stroke-linejoin:miter;"/>
   </g>
  </g>
  <g id="axes_2">
   <g id="patch_5">
    <path d="M 422.62875 280.039688 
L 746.62875 280.039688 
L 746.62875 8.239688 
L 422.62875 8.239688 
z
" style="fill:none;"/>
   </g>
   <g id="matplotlib.axis_3">
    <g id="xtick_6">
     <g id="line2d_12">
      <g>
       <use style="stroke:#000000;stroke-width:0.8;" x="437.356023" xlink:href="#mb7ef5097a1" y="280.039688"/>
      </g>
     </g>
     <g id="text_11">
      <!-- 1 -->
      <g transform="translate(428.448523 309.815313)scale(0.28 -0.28)">
       <use xlink:href="#DejaVuSans-49"/>
      </g>
     </g>
    </g>
    <g id="xtick_7">
     <g id="line2d_13">
      <g>
       <use style="stroke:#000000;stroke-width:0.8;" x="510.992386" xlink:href="#mb7ef5097a1" y="280.039688"/>
      </g>
     </g>
     <g id="text_12">
      <!-- 2 -->
      <g transform="translate(502.084886 309.815313)scale(0.28 -0.28)">
       <use xlink:href="#DejaVuSans-50"/>
      </g>
     </g>
    </g>
    <g id="xtick_8">
     <g id="line2d_14">
      <g>
       <use style="stroke:#000000;stroke-width:0.8;" x="584.62875" xlink:href="#mb7ef5097a1" y="280.039688"/>
      </g>
     </g>
     <g id="text_13">
      <!-- 3 -->
      <g transform="translate(575.72125 309.815313)scale(0.28 -0.28)">
       <use xlink:href="#DejaVuSans-51"/>
      </g>
     </g>
    </g>
    <g id="xtick_9">
     <g id="line2d_15">
      <g>
       <use style="stroke:#000000;stroke-width:0.8;" x="658.265114" xlink:href="#mb7ef5097a1" y="280.039688"/>
      </g>
     </g>
     <g id="text_14">
      <!-- 4 -->
      <g transform="translate(649.357614 309.815313)scale(0.28 -0.28)">
       <use xlink:href="#DejaVuSans-52"/>
      </g>
     </g>
    </g>
    <g id="xtick_10">
     <g id="line2d_16">
      <g>
       <use style="stroke:#000000;stroke-width:0.8;" x="731.901477" xlink:href="#mb7ef5097a1" y="280.039688"/>
      </g>
     </g>
     <g id="text_15">
      <!-- 5 -->
      <g transform="translate(722.993977 309.815313)scale(0.28 -0.28)">
       <use xlink:href="#DejaVuSans-53"/>
      </g>
     </g>
    </g>
    <g id="text_16">
     <!-- -log10 p-value -->
     <g transform="translate(483.79375 340.914062)scale(0.28 -0.28)">
      <use xlink:href="#DejaVuSans-45"/>
      <use x="36.083984" xlink:href="#DejaVuSans-108"/>
      <use x="63.867188" xlink:href="#DejaVuSans-111"/>
      <use x="125.048828" xlink:href="#DejaVuSans-103"/>
      <use x="188.525391" xlink:href="#DejaVuSans-49"/>
      <use x="252.148438" xlink:href="#DejaVuSans-48"/>
      <use x="315.771484" xlink:href="#DejaVuSans-32"/>
      <use x="347.558594" xlink:href="#DejaVuSans-112"/>
      <use x="411.035156" xlink:href="#DejaVuSans-45"/>
      <use x="447.087891" xlink:href="#DejaVuSans-118"/>
      <use x="506.267578" xlink:href="#DejaVuSans-97"/>
      <use x="567.546875" xlink:href="#DejaVuSans-108"/>
      <use x="595.330078" xlink:href="#DejaVuSans-117"/>
      <use x="658.708984" xlink:href="#DejaVuSans-101"/>
     </g>
    </g>
   </g>
   <g id="matplotlib.axis_4">
    <g id="ytick_4"/>
    <g id="ytick_5"/>
    <g id="ytick_6"/>
   </g>
   <g id="line2d_17">
    <path clip-path="url(#pa297fc5f75)" d="M 437.356023 206.335793 
L 441.037841 218.054941 
L 444.719659 207.880526 
L 448.401477 206.037552 
L 452.083295 200.646795 
L 455.765114 201.189212 
L 459.446932 201.405723 
L 463.12875 205.311586 
L 466.810568 201.189212 
L 470.492386 202.135678 
L 474.174205 199.071461 
L 477.856023 197.417201 
L 481.537841 201.189212 
L 485.219659 203.968895 
L 488.901477 212.914473 
L 492.583295 217.09844 
L 496.265114 220.253779 
L 499.946932 220.253779 
L 503.62875 218.484116 
L 507.310568 220.13147 
L 510.992386 219.879139 
L 514.674205 219.327032 
L 518.356023 222.478154 
L 522.037841 227.792237 
L 525.719659 229.891851 
L 529.401477 232.034607 
L 533.083295 234.046314 
L 536.765114 229.512726 
L 540.446932 222.706741 
L 544.12875 224.672657 
L 547.810568 226.597049 
L 551.492386 224.504242 
L 555.174205 226.294389 
L 558.856023 226.294389 
L 562.537841 230.5874 
L 566.219659 233.067267 
L 569.901477 227.792237 
L 573.583295 232.060371 
L 577.265114 226.188668 
L 580.946932 228.303964 
L 584.62875 233.121257 
L 588.310568 233.121257 
L 591.992386 233.121257 
L 595.674205 230.119513 
L 599.356023 227.020197 
L 603.037841 227.020197 
L 606.719659 224.242443 
L 610.401477 224.242443 
L 614.083295 221.517664 
L 617.765114 227.960194 
L 621.446932 230.570845 
L 625.12875 235.882456 
L 628.810568 232.348542 
L 632.492386 235.049814 
L 636.174205 235.049814 
L 639.856023 240.669952 
L 643.537841 240.669952 
L 647.219659 243.294124 
L 650.901477 245.761138 
L 654.583295 248.121283 
L 658.265114 248.121283 
L 661.946932 248.121283 
L 665.62875 248.121283 
L 669.310568 250.657004 
L 672.992386 250.657004 
L 676.674205 250.657004 
L 680.356023 244.351635 
L 684.037841 244.351635 
L 687.719659 244.351635 
L 691.401477 244.351635 
L 695.083295 246.872283 
L 698.765114 246.872283 
L 702.446932 246.872283 
L 706.12875 246.872283 
L 709.810568 246.872283 
L 713.492386 246.872283 
L 717.174205 246.872283 
L 720.856023 249.57363 
L 724.537841 249.57363 
L 728.219659 249.57363 
L 731.901477 249.57363 
" style="fill:none;stroke:#8b0000;stroke-linecap:square;stroke-width:2;"/>
   </g>
   <g id="line2d_18">
    <path clip-path="url(#pa297fc5f75)" d="M 437.356023 220.61429 
L 441.037841 230.045938 
L 444.719659 223.875789 
L 448.401477 224.142759 
L 452.083295 220.373097 
L 455.765114 222.478154 
L 459.446932 223.829605 
L 463.12875 222.532801 
L 466.810568 225.897706 
L 470.492386 230.5874 
L 474.174205 224.504242 
L 477.856023 226.349029 
L 481.537841 225.757371 
L 485.219659 226.86661 
L 488.901477 224.504242 
L 492.583295 220.373097 
L 496.265114 219.257121 
L 499.946932 217.728629 
L 503.62875 219.403051 
L 507.310568 214.717599 
L 510.992386 213.737773 
L 514.674205 206.950451 
L 518.356023 210.108701 
L 522.037841 222.331971 
L 525.719659 221.405106 
L 529.401477 220.373097 
L 533.083295 222.331971 
L 536.765114 220.373097 
L 540.446932 217.728629 
L 544.12875 221.156401 
L 547.810568 224.664117 
L 551.492386 223.811185 
L 555.174205 222.532801 
L 558.856023 222.532801 
L 562.537841 220.772214 
L 566.219659 224.504242 
L 569.901477 222.478154 
L 573.583295 234.125912 
L 577.265114 229.100011 
L 580.946932 233.848489 
L 584.62875 243.421707 
L 588.310568 243.421707 
L 591.992386 243.421707 
L 595.674205 242.239056 
L 599.356023 241.010165 
L 603.037841 241.010165 
L 606.719659 239.80612 
L 610.401477 239.80612 
L 614.083295 238.451345 
L 617.765114 240.690026 
L 621.446932 239.345372 
L 625.12875 236.256353 
L 628.810568 234.682003 
L 632.492386 233.086212 
L 636.174205 233.086212 
L 639.856023 236.820689 
L 643.537841 236.820689 
L 647.219659 235.100207 
L 650.901477 240.690026 
L 654.583295 245.761138 
L 658.265114 245.761138 
L 661.946932 245.761138 
L 665.62875 245.761138 
L 669.310568 244.348015 
L 672.992386 244.348015 
L 676.674205 244.348015 
L 680.356023 241.010165 
L 684.037841 241.010165 
L 687.719659 241.010165 
L 691.401477 241.010165 
L 695.083295 246.296724 
L 698.765114 246.296724 
L 702.446932 246.296724 
L 706.12875 246.296724 
L 709.810568 246.296724 
L 713.492386 246.296724 
L 717.174205 246.296724 
L 720.856023 251.378092 
L 724.537841 251.378092 
L 728.219659 251.378092 
L 731.901477 251.378092 
" style="fill:none;stroke:#000080;stroke-linecap:square;stroke-width:2;"/>
   </g>
   <g id="line2d_19">
    <path clip-path="url(#pa297fc5f75)" d="M 437.356023 265.380608 
L 731.901477 265.380608 
" style="fill:none;stroke:#ff0000;stroke-dasharray:3.7,1.6;stroke-dashoffset:0;"/>
   </g>
   <g id="patch_6">
    <path d="M 422.62875 280.039687 
L 422.62875 8.239688 
" style="fill:none;stroke:#000000;stroke-linecap:square;stroke-linejoin:miter;"/>
   </g>
   <g id="patch_7">
    <path d="M 422.62875 280.039688 
L 746.62875 280.039688 
" style="fill:none;stroke:#000000;stroke-linecap:square;stroke-linejoin:miter;"/>
   </g>
  </g>
  <g id="axes_3">
   <g id="patch_8">
    <path d="M 762.82875 280.039688 
L 1086.82875 280.039688 
L 1086.82875 8.239688 
L 762.82875 8.239688 
z
" style="fill:none;"/>
   </g>
   <g id="matplotlib.axis_5">
    <g id="xtick_11">
     <g id="line2d_20">
      <g>
       <use style="stroke:#000000;stroke-width:0.8;" x="777.556023" xlink:href="#mb7ef5097a1" y="280.039688"/>
      </g>
     </g>
     <g id="text_17">
      <!-- 1 -->
      <g transform="translate(768.648523 309.815313)scale(0.28 -0.28)">
       <use xlink:href="#DejaVuSans-49"/>
      </g>
     </g>
    </g>
    <g id="xtick_12">
     <g id="line2d_21">
      <g>
       <use style="stroke:#000000;stroke-width:0.8;" x="851.192386" xlink:href="#mb7ef5097a1" y="280.039688"/>
      </g>
     </g>
     <g id="text_18">
      <!-- 2 -->
      <g transform="translate(842.284886 309.815313)scale(0.28 -0.28)">
       <use xlink:href="#DejaVuSans-50"/>
      </g>
     </g>
    </g>
    <g id="xtick_13">
     <g id="line2d_22">
      <g>
       <use style="stroke:#000000;stroke-width:0.8;" x="924.82875" xlink:href="#mb7ef5097a1" y="280.039688"/>
      </g>
     </g>
     <g id="text_19">
      <!-- 3 -->
      <g transform="translate(915.92125 309.815313)scale(0.28 -0.28)">
       <use xlink:href="#DejaVuSans-51"/>
      </g>
     </g>
    </g>
    <g id="xtick_14">
     <g id="line2d_23">
      <g>
       <use style="stroke:#000000;stroke-width:0.8;" x="998.465114" xlink:href="#mb7ef5097a1" y="280.039688"/>
      </g>
     </g>
     <g id="text_20">
      <!-- 4 -->
      <g transform="translate(989.557614 309.815313)scale(0.28 -0.28)">
       <use xlink:href="#DejaVuSans-52"/>
      </g>
     </g>
    </g>
    <g id="xtick_15">
     <g id="line2d_24">
      <g>
       <use style="stroke:#000000;stroke-width:0.8;" x="1072.101477" xlink:href="#mb7ef5097a1" y="280.039688"/>
      </g>
     </g>
     <g id="text_21">
      <!-- 5 -->
      <g transform="translate(1063.193977 309.815313)scale(0.28 -0.28)">
       <use xlink:href="#DejaVuSans-53"/>
      </g>
     </g>
    </g>
    <g id="text_22">
     <!-- -log10 p-value -->
     <g transform="translate(823.99375 340.914062)scale(0.28 -0.28)">
      <use xlink:href="#DejaVuSans-45"/>
      <use x="36.083984" xlink:href="#DejaVuSans-108"/>
      <use x="63.867188" xlink:href="#DejaVuSans-111"/>
      <use x="125.048828" xlink:href="#DejaVuSans-103"/>
      <use x="188.525391" xlink:href="#DejaVuSans-49"/>
      <use x="252.148438" xlink:href="#DejaVuSans-48"/>
      <use x="315.771484" xlink:href="#DejaVuSans-32"/>
      <use x="347.558594" xlink:href="#DejaVuSans-112"/>
      <use x="411.035156" xlink:href="#DejaVuSans-45"/>
      <use x="447.087891" xlink:href="#DejaVuSans-118"/>
      <use x="506.267578" xlink:href="#DejaVuSans-97"/>
      <use x="567.546875" xlink:href="#DejaVuSans-108"/>
      <use x="595.330078" xlink:href="#DejaVuSans-117"/>
      <use x="658.708984" xlink:href="#DejaVuSans-101"/>
     </g>
    </g>
   </g>
   <g id="matplotlib.axis_6">
    <g id="ytick_7"/>
    <g id="ytick_8"/>
    <g id="ytick_9"/>
   </g>
   <g id="line2d_25">
    <path clip-path="url(#p1629c936b7)" d="M 777.556023 250.234656 
L 781.237841 250.234656 
L 784.919659 251.245626 
L 788.601477 248.167752 
L 792.283295 249.725835 
L 795.965114 250.393898 
L 799.646932 252.359075 
L 803.32875 249.21706 
L 807.010568 249.942405 
L 810.692386 251.195648 
L 814.374205 251.879201 
L 818.056023 252.813077 
L 821.737841 254.436363 
L 825.419659 250.780308 
L 829.101477 251.314239 
L 832.783295 251.975129 
L 836.465114 252.301408 
L 840.146932 253.23894 
L 843.82875 255.072853 
L 847.510568 255.961948 
L 851.192386 251.1543 
L 854.874205 252.327338 
L 858.556023 253.595036 
L 862.237841 254.478759 
L 865.919659 255.072853 
L 869.601477 255.961948 
L 873.283295 257.490852 
L 876.965114 258.016631 
L 880.646932 253.536199 
L 884.32875 254.431477 
L 888.010568 254.678888 
L 891.692386 254.678888 
L 895.374205 255.26307 
L 899.056023 255.884807 
L 902.737841 250.562385 
L 906.419659 251.1543 
L 910.101477 251.366034 
L 913.783295 252.87936 
L 917.465114 246.788661 
L 921.146932 247.149243 
L 924.82875 247.508035 
L 928.510568 247.833099 
L 932.192386 248.167752 
L 935.874205 249.121961 
L 939.556023 249.121961 
L 943.237841 249.121961 
L 946.919659 250.363506 
L 950.601477 251.195648 
L 954.283295 252.103424 
L 957.965114 252.694889 
L 961.646932 253.61118 
L 965.32875 253.918028 
L 969.010568 254.239562 
L 972.692386 255.089286 
L 976.374205 255.726646 
L 980.056023 255.975061 
L 983.737841 257.291442 
L 987.419659 257.818341 
L 991.101477 257.818341 
L 994.783295 258.42728 
L 998.465114 259.008516 
L 1002.146932 259.244492 
L 1005.82875 259.244492 
L 1009.510568 259.244492 
L 1013.192386 259.521404 
L 1016.874205 259.521404 
L 1020.556023 260.757599 
L 1024.237841 261.047055 
L 1027.919659 261.641542 
L 1031.601477 262.209123 
L 1035.283295 262.209123 
L 1038.965114 262.490522 
L 1042.646932 262.710551 
L 1046.32875 262.710551 
L 1050.010568 262.710551 
L 1053.692386 262.710551 
L 1057.374205 263.873554 
L 1061.056023 264.125758 
L 1064.737841 264.125758 
L 1068.419659 264.396026 
L 1072.101477 264.66468 
" style="fill:none;stroke:#8b0000;stroke-linecap:square;stroke-width:2;"/>
   </g>
   <g id="line2d_26">
    <path clip-path="url(#p1629c936b7)" d="M 777.556023 258.481973 
L 781.237841 258.481973 
L 784.919659 259.21418 
L 788.601477 253.918028 
L 792.283295 250.832496 
L 795.965114 252.327338 
L 799.646932 250.814682 
L 803.32875 248.307841 
L 807.010568 246.549885 
L 810.692386 249.86149 
L 814.374205 248.167752 
L 818.056023 251.893908 
L 821.737841 251.032976 
L 825.419659 249.281327 
L 829.101477 247.613832 
L 832.783295 245.700434 
L 836.465114 244.736735 
L 840.146932 245.497694 
L 843.82875 243.268407 
L 847.510568 240.197455 
L 851.192386 240.916221 
L 854.874205 244.465562 
L 858.556023 240.256812 
L 862.237841 236.880889 
L 865.919659 242.644786 
L 869.601477 239.508926 
L 873.283295 233.824492 
L 876.965114 231.531033 
L 880.646932 229.696693 
L 884.32875 230.335081 
L 888.010568 233.44407 
L 891.692386 233.44407 
L 895.374205 235.103277 
L 899.056023 232.902502 
L 902.737841 227.743149 
L 906.419659 224.979895 
L 910.101477 223.835247 
L 913.783295 222.098937 
L 917.465114 216.074459 
L 921.146932 216.074459 
L 924.82875 215.595638 
L 928.510568 216.537538 
L 932.192386 219.084397 
L 935.874205 223.62305 
L 939.556023 223.62305 
L 943.237841 223.62305 
L 946.919659 218.837608 
L 950.601477 216.074459 
L 954.283295 213.78519 
L 957.965114 215.045235 
L 961.646932 213.78519 
L 965.32875 213.78519 
L 969.010568 213.78519 
L 972.692386 216.028358 
L 976.374205 216.074459 
L 980.056023 216.028358 
L 983.737841 217.49977 
L 987.419659 218.914353 
L 991.101477 218.914353 
L 994.783295 220.426287 
L 998.465114 226.523423 
L 1002.146932 224.913307 
L 1005.82875 224.913307 
L 1009.510568 224.913307 
L 1013.192386 223.552593 
L 1016.874205 223.552593 
L 1020.556023 226.625127 
L 1024.237841 224.953154 
L 1027.919659 222.098937 
L 1031.601477 218.914353 
L 1035.283295 218.914353 
L 1038.965114 217.49977 
L 1042.646932 216.074459 
L 1046.32875 216.074459 
L 1050.010568 216.074459 
L 1053.692386 216.074459 
L 1057.374205 223.346324 
L 1061.056023 221.746577 
L 1064.737841 221.746577 
L 1068.419659 220.070645 
L 1072.101477 223.166011 
" style="fill:none;stroke:#000080;stroke-linecap:square;stroke-width:2;"/>
   </g>
   <g id="line2d_27">
    <path clip-path="url(#p1629c936b7)" d="M 777.556023 265.380608 
L 1072.101477 265.380608 
" style="fill:none;stroke:#ff0000;stroke-dasharray:3.7,1.6;stroke-dashoffset:0;"/>
   </g>
   <g id="patch_9">
    <path d="M 762.82875 280.039687 
L 762.82875 8.239688 
" style="fill:none;stroke:#000000;stroke-linecap:square;stroke-linejoin:miter;"/>
   </g>
   <g id="patch_10">
    <path d="M 762.82875 280.039688 
L 1086.82875 280.039688 
" style="fill:none;stroke:#000000;stroke-linecap:square;stroke-linejoin:miter;"/>
   </g>
  </g>
 </g>
 <defs>
  <clipPath id="peb6a7927cd">
   <rect height="271.8" width="324" x="82.42875" y="8.239688"/>
  </clipPath>
  <clipPath id="pa297fc5f75">
   <rect height="271.8" width="324" x="422.62875" y="8.239688"/>
  </clipPath>
  <clipPath id="p1629c936b7">
   <rect height="271.8" width="324" x="762.82875" y="8.239688"/>
  </clipPath>
 </defs>
</svg>
