<?xml version="1.0" encoding="utf-8" standalone="no"?>
<!DOCTYPE svg PUBLIC "-//W3C//DTD SVG 1.1//EN"
  "http://www.w3.org/Graphics/SVG/1.1/DTD/svg11.dtd">
<!-- Created with matplotlib (https://matplotlib.org/) -->
<svg height="353.937187pt" version="1.1" viewBox="0 0 1094.02875 353.937187" width="1094.02875pt" xmlns="http://www.w3.org/2000/svg" xmlns:xlink="http://www.w3.org/1999/xlink">
 <defs>
  <style type="text/css">
*{stroke-linecap:butt;stroke-linejoin:round;}
  </style>
 </defs>
 <g id="figure_1">
  <g id="patch_1">
   <path d="M 0 353.937187 
L 1094.02875 353.937187 
L 1094.02875 0 
L 0 0 
z
" style="fill:none;"/>
  </g>
  <g id="axes_1">
   <g id="patch_2">
    <path d="M 82.42875 280.039688 
L 406.42875 280.039688 
L 406.42875 8.239688 
L 82.42875 8.239688 
z
" style="fill:none;"/>
   </g>
   <g id="matplotlib.axis_1">
    <g id="xtick_1">
     <g id="line2d_1">
      <defs>
       <path d="M 0 0 
L 0 5 
" id="mebe73106d7" style="stroke:#000000;stroke-width:0.8;"/>
      </defs>
      <g>
       <use style="stroke:#000000;stroke-width:0.8;" x="97.156023" xlink:href="#mebe73106d7" y="280.039688"/>
      </g>
     </g>
     <g id="text_1">
      <!-- 1 -->
      <defs>
       <path d="M 12.40625 8.296875 
L 28.515625 8.296875 
L 28.515625 63.921875 
L 10.984375 60.40625 
L 10.984375 69.390625 
L 28.421875 72.90625 
L 38.28125 72.90625 
L 38.28125 8.296875 
L 54.390625 8.296875 
L 54.390625 0 
L 12.40625 0 
z
" id="DejaVuSans-49"/>
      </defs>
      <g transform="translate(88.248523 309.815313)scale(0.28 -0.28)">
       <use xlink:href="#DejaVuSans-49"/>
      </g>
     </g>
    </g>
    <g id="xtick_2">
     <g id="line2d_2">
      <g>
       <use style="stroke:#000000;stroke-width:0.8;" x="170.792386" xlink:href="#mebe73106d7" y="280.039688"/>
      </g>
     </g>
     <g id="text_2">
      <!-- 2 -->
      <defs>
       <path d="M 19.1875 8.296875 
L 53.609375 8.296875 
L 53.609375 0 
L 7.328125 0 
L 7.328125 8.296875 
Q 12.9375 14.109375 22.625 23.890625 
Q 32.328125 33.6875 34.8125 36.53125 
Q 39.546875 41.84375 41.421875 45.53125 
Q 43.3125 49.21875 43.3125 52.78125 
Q 43.3125 58.59375 39.234375 62.25 
Q 35.15625 65.921875 28.609375 65.921875 
Q 23.96875 65.921875 18.8125 64.3125 
Q 13.671875 62.703125 7.8125 59.421875 
L 7.8125 69.390625 
Q 13.765625 71.78125 18.9375 73 
Q 24.125 74.21875 28.421875 74.21875 
Q 39.75 74.21875 46.484375 68.546875 
Q 53.21875 62.890625 53.21875 53.421875 
Q 53.21875 48.921875 51.53125 44.890625 
Q 49.859375 40.875 45.40625 35.40625 
Q 44.1875 33.984375 37.640625 27.21875 
Q 31.109375 20.453125 19.1875 8.296875 
z
" id="DejaVuSans-50"/>
      </defs>
      <g transform="translate(161.884886 309.815313)scale(0.28 -0.28)">
       <use xlink:href="#DejaVuSans-50"/>
      </g>
     </g>
    </g>
    <g id="xtick_3">
     <g id="line2d_3">
      <g>
       <use style="stroke:#000000;stroke-width:0.8;" x="244.42875" xlink:href="#mebe73106d7" y="280.039688"/>
      </g>
     </g>
     <g id="text_3">
      <!-- 3 -->
      <defs>
       <path d="M 40.578125 39.3125 
Q 47.65625 37.796875 51.625 33 
Q 55.609375 28.21875 55.609375 21.1875 
Q 55.609375 10.40625 48.1875 4.484375 
Q 40.765625 -1.421875 27.09375 -1.421875 
Q 22.515625 -1.421875 17.65625 -0.515625 
Q 12.796875 0.390625 7.625 2.203125 
L 7.625 11.71875 
Q 11.71875 9.328125 16.59375 8.109375 
Q 21.484375 6.890625 26.8125 6.890625 
Q 36.078125 6.890625 40.9375 10.546875 
Q 45.796875 14.203125 45.796875 21.1875 
Q 45.796875 27.640625 41.28125 31.265625 
Q 36.765625 34.90625 28.71875 34.90625 
L 20.21875 34.90625 
L 20.21875 43.015625 
L 29.109375 43.015625 
Q 36.375 43.015625 40.234375 45.921875 
Q 44.09375 48.828125 44.09375 54.296875 
Q 44.09375 59.90625 40.109375 62.90625 
Q 36.140625 65.921875 28.71875 65.921875 
Q 24.65625 65.921875 20.015625 65.03125 
Q 15.375 64.15625 9.8125 62.3125 
L 9.8125 71.09375 
Q 15.4375 72.65625 20.34375 73.4375 
Q 25.25 74.21875 29.59375 74.21875 
Q 40.828125 74.21875 47.359375 69.109375 
Q 53.90625 64.015625 53.90625 55.328125 
Q 53.90625 49.265625 50.4375 45.09375 
Q 46.96875 40.921875 40.578125 39.3125 
z
" id="DejaVuSans-51"/>
      </defs>
      <g transform="translate(235.52125 309.815313)scale(0.28 -0.28)">
       <use xlink:href="#DejaVuSans-51"/>
      </g>
     </g>
    </g>
    <g id="xtick_4">
     <g id="line2d_4">
      <g>
       <use style="stroke:#000000;stroke-width:0.8;" x="318.065114" xlink:href="#mebe73106d7" y="280.039688"/>
      </g>
     </g>
     <g id="text_4">
      <!-- 4 -->
      <defs>
       <path d="M 37.796875 64.3125 
L 12.890625 25.390625 
L 37.796875 25.390625 
z
M 35.203125 72.90625 
L 47.609375 72.90625 
L 47.609375 25.390625 
L 58.015625 25.390625 
L 58.015625 17.1875 
L 47.609375 17.1875 
L 47.609375 0 
L 37.796875 0 
L 37.796875 17.1875 
L 4.890625 17.1875 
L 4.890625 26.703125 
z
" id="DejaVuSans-52"/>
      </defs>
      <g transform="translate(309.157614 309.815313)scale(0.28 -0.28)">
       <use xlink:href="#DejaVuSans-52"/>
      </g>
     </g>
    </g>
    <g id="xtick_5">
     <g id="line2d_5">
      <g>
       <use style="stroke:#000000;stroke-width:0.8;" x="391.701477" xlink:href="#mebe73106d7" y="280.039688"/>
      </g>
     </g>
     <g id="text_5">
      <!-- 5 -->
      <defs>
       <path d="M 10.796875 72.90625 
L 49.515625 72.90625 
L 49.515625 64.59375 
L 19.828125 64.59375 
L 19.828125 46.734375 
Q 21.96875 47.46875 24.109375 47.828125 
Q 26.265625 48.1875 28.421875 48.1875 
Q 40.625 48.1875 47.75 41.5 
Q 54.890625 34.8125 54.890625 23.390625 
Q 54.890625 11.625 47.5625 5.09375 
Q 40.234375 -1.421875 26.90625 -1.421875 
Q 22.3125 -1.421875 17.546875 -0.640625 
Q 12.796875 0.140625 7.71875 1.703125 
L 7.71875 11.625 
Q 12.109375 9.234375 16.796875 8.0625 
Q 21.484375 6.890625 26.703125 6.890625 
Q 35.15625 6.890625 40.078125 11.328125 
Q 45.015625 15.765625 45.015625 23.390625 
Q 45.015625 31 40.078125 35.4375 
Q 35.15625 39.890625 26.703125 39.890625 
Q 22.75 39.890625 18.8125 39.015625 
Q 14.890625 38.140625 10.796875 36.28125 
z
" id="DejaVuSans-53"/>
      </defs>
      <g transform="translate(382.793977 309.815313)scale(0.28 -0.28)">
       <use xlink:href="#DejaVuSans-53"/>
      </g>
     </g>
    </g>
    <g id="text_6">
     <!-- -log10 p-value -->
     <defs>
      <path d="M 4.890625 31.390625 
L 31.203125 31.390625 
L 31.203125 23.390625 
L 4.890625 23.390625 
z
" id="DejaVuSans-45"/>
      <path d="M 9.421875 75.984375 
L 18.40625 75.984375 
L 18.40625 0 
L 9.421875 0 
z
" id="DejaVuSans-108"/>
      <path d="M 30.609375 48.390625 
Q 23.390625 48.390625 19.1875 42.75 
Q 14.984375 37.109375 14.984375 27.296875 
Q 14.984375 17.484375 19.15625 11.84375 
Q 23.34375 6.203125 30.609375 6.203125 
Q 37.796875 6.203125 41.984375 11.859375 
Q 46.1875 17.53125 46.1875 27.296875 
Q 46.1875 37.015625 41.984375 42.703125 
Q 37.796875 48.390625 30.609375 48.390625 
z
M 30.609375 56 
Q 42.328125 56 49.015625 48.375 
Q 55.71875 40.765625 55.71875 27.296875 
Q 55.71875 13.875 49.015625 6.21875 
Q 42.328125 -1.421875 30.609375 -1.421875 
Q 18.84375 -1.421875 12.171875 6.21875 
Q 5.515625 13.875 5.515625 27.296875 
Q 5.515625 40.765625 12.171875 48.375 
Q 18.84375 56 30.609375 56 
z
" id="DejaVuSans-111"/>
      <path d="M 45.40625 27.984375 
Q 45.40625 37.75 41.375 43.109375 
Q 37.359375 48.484375 30.078125 48.484375 
Q 22.859375 48.484375 18.828125 43.109375 
Q 14.796875 37.75 14.796875 27.984375 
Q 14.796875 18.265625 18.828125 12.890625 
Q 22.859375 7.515625 30.078125 7.515625 
Q 37.359375 7.515625 41.375 12.890625 
Q 45.40625 18.265625 45.40625 27.984375 
z
M 54.390625 6.78125 
Q 54.390625 -7.171875 48.1875 -13.984375 
Q 42 -20.796875 29.203125 -20.796875 
Q 24.46875 -20.796875 20.265625 -20.09375 
Q 16.0625 -19.390625 12.109375 -17.921875 
L 12.109375 -9.1875 
Q 16.0625 -11.328125 19.921875 -12.34375 
Q 23.78125 -13.375 27.78125 -13.375 
Q 36.625 -13.375 41.015625 -8.765625 
Q 45.40625 -4.15625 45.40625 5.171875 
L 45.40625 9.625 
Q 42.625 4.78125 38.28125 2.390625 
Q 33.9375 0 27.875 0 
Q 17.828125 0 11.671875 7.65625 
Q 5.515625 15.328125 5.515625 27.984375 
Q 5.515625 40.671875 11.671875 48.328125 
Q 17.828125 56 27.875 56 
Q 33.9375 56 38.28125 53.609375 
Q 42.625 51.21875 45.40625 46.390625 
L 45.40625 54.6875 
L 54.390625 54.6875 
z
" id="DejaVuSans-103"/>
      <path d="M 31.78125 66.40625 
Q 24.171875 66.40625 20.328125 58.90625 
Q 16.5 51.421875 16.5 36.375 
Q 16.5 21.390625 20.328125 13.890625 
Q 24.171875 6.390625 31.78125 6.390625 
Q 39.453125 6.390625 43.28125 13.890625 
Q 47.125 21.390625 47.125 36.375 
Q 47.125 51.421875 43.28125 58.90625 
Q 39.453125 66.40625 31.78125 66.40625 
z
M 31.78125 74.21875 
Q 44.046875 74.21875 50.515625 64.515625 
Q 56.984375 54.828125 56.984375 36.375 
Q 56.984375 17.96875 50.515625 8.265625 
Q 44.046875 -1.421875 31.78125 -1.421875 
Q 19.53125 -1.421875 13.0625 8.265625 
Q 6.59375 17.96875 6.59375 36.375 
Q 6.59375 54.828125 13.0625 64.515625 
Q 19.53125 74.21875 31.78125 74.21875 
z
" id="DejaVuSans-48"/>
      <path id="DejaVuSans-32"/>
      <path d="M 18.109375 8.203125 
L 18.109375 -20.796875 
L 9.078125 -20.796875 
L 9.078125 54.6875 
L 18.109375 54.6875 
L 18.109375 46.390625 
Q 20.953125 51.265625 25.265625 53.625 
Q 29.59375 56 35.59375 56 
Q 45.5625 56 51.78125 48.09375 
Q 58.015625 40.1875 58.015625 27.296875 
Q 58.015625 14.40625 51.78125 6.484375 
Q 45.5625 -1.421875 35.59375 -1.421875 
Q 29.59375 -1.421875 25.265625 0.953125 
Q 20.953125 3.328125 18.109375 8.203125 
z
M 48.6875 27.296875 
Q 48.6875 37.203125 44.609375 42.84375 
Q 40.53125 48.484375 33.40625 48.484375 
Q 26.265625 48.484375 22.1875 42.84375 
Q 18.109375 37.203125 18.109375 27.296875 
Q 18.109375 17.390625 22.1875 11.75 
Q 26.265625 6.109375 33.40625 6.109375 
Q 40.53125 6.109375 44.609375 11.75 
Q 48.6875 17.390625 48.6875 27.296875 
z
" id="DejaVuSans-112"/>
      <path d="M 2.984375 54.6875 
L 12.5 54.6875 
L 29.59375 8.796875 
L 46.6875 54.6875 
L 56.203125 54.6875 
L 35.6875 0 
L 23.484375 0 
z
" id="DejaVuSans-118"/>
      <path d="M 34.28125 27.484375 
Q 23.390625 27.484375 19.1875 25 
Q 14.984375 22.515625 14.984375 16.5 
Q 14.984375 11.71875 18.140625 8.90625 
Q 21.296875 6.109375 26.703125 6.109375 
Q 34.1875 6.109375 38.703125 11.40625 
Q 43.21875 16.703125 43.21875 25.484375 
L 43.21875 27.484375 
z
M 52.203125 31.203125 
L 52.203125 0 
L 43.21875 0 
L 43.21875 8.296875 
Q 40.140625 3.328125 35.546875 0.953125 
Q 30.953125 -1.421875 24.3125 -1.421875 
Q 15.921875 -1.421875 10.953125 3.296875 
Q 6 8.015625 6 15.921875 
Q 6 25.140625 12.171875 29.828125 
Q 18.359375 34.515625 30.609375 34.515625 
L 43.21875 34.515625 
L 43.21875 35.40625 
Q 43.21875 41.609375 39.140625 45 
Q 35.0625 48.390625 27.6875 48.390625 
Q 23 48.390625 18.546875 47.265625 
Q 14.109375 46.140625 10.015625 43.890625 
L 10.015625 52.203125 
Q 14.9375 54.109375 19.578125 55.046875 
Q 24.21875 56 28.609375 56 
Q 40.484375 56 46.34375 49.84375 
Q 52.203125 43.703125 52.203125 31.203125 
z
" id="DejaVuSans-97"/>
      <path d="M 8.5 21.578125 
L 8.5 54.6875 
L 17.484375 54.6875 
L 17.484375 21.921875 
Q 17.484375 14.15625 20.5 10.265625 
Q 23.53125 6.390625 29.59375 6.390625 
Q 36.859375 6.390625 41.078125 11.03125 
Q 45.3125 15.671875 45.3125 23.6875 
L 45.3125 54.6875 
L 54.296875 54.6875 
L 54.296875 0 
L 45.3125 0 
L 45.3125 8.40625 
Q 42.046875 3.421875 37.71875 1 
Q 33.40625 -1.421875 27.6875 -1.421875 
Q 18.265625 -1.421875 13.375 4.4375 
Q 8.5 10.296875 8.5 21.578125 
z
M 31.109375 56 
z
" id="DejaVuSans-117"/>
      <path d="M 56.203125 29.59375 
L 56.203125 25.203125 
L 14.890625 25.203125 
Q 15.484375 15.921875 20.484375 11.0625 
Q 25.484375 6.203125 34.421875 6.203125 
Q 39.59375 6.203125 44.453125 7.46875 
Q 49.3125 8.734375 54.109375 11.28125 
L 54.109375 2.78125 
Q 49.265625 0.734375 44.1875 -0.34375 
Q 39.109375 -1.421875 33.890625 -1.421875 
Q 20.796875 -1.421875 13.15625 6.1875 
Q 5.515625 13.8125 5.515625 26.8125 
Q 5.515625 40.234375 12.765625 48.109375 
Q 20.015625 56 32.328125 56 
Q 43.359375 56 49.78125 48.890625 
Q 56.203125 41.796875 56.203125 29.59375 
z
M 47.21875 32.234375 
Q 47.125 39.59375 43.09375 43.984375 
Q 39.0625 48.390625 32.421875 48.390625 
Q 24.90625 48.390625 20.390625 44.140625 
Q 15.875 39.890625 15.1875 32.171875 
z
" id="DejaVuSans-101"/>
     </defs>
     <g transform="translate(143.59375 340.914062)scale(0.28 -0.28)">
      <use xlink:href="#DejaVuSans-45"/>
      <use x="36.083984" xlink:href="#DejaVuSans-108"/>
      <use x="63.867188" xlink:href="#DejaVuSans-111"/>
      <use x="125.048828" xlink:href="#DejaVuSans-103"/>
      <use x="188.525391" xlink:href="#DejaVuSans-49"/>
      <use x="252.148438" xlink:href="#DejaVuSans-48"/>
      <use x="315.771484" xlink:href="#DejaVuSans-32"/>
      <use x="347.558594" xlink:href="#DejaVuSans-112"/>
      <use x="411.035156" xlink:href="#DejaVuSans-45"/>
      <use x="447.087891" xlink:href="#DejaVuSans-118"/>
      <use x="506.267578" xlink:href="#DejaVuSans-97"/>
      <use x="567.546875" xlink:href="#DejaVuSans-108"/>
      <use x="595.330078" xlink:href="#DejaVuSans-117"/>
      <use x="658.708984" xlink:href="#DejaVuSans-101"/>
     </g>
    </g>
   </g>
   <g id="matplotlib.axis_2">
    <g id="ytick_1">
     <g id="line2d_6">
      <defs>
       <path d="M 0 0 
L -5 0 
" id="m5ea05234a9" style="stroke:#000000;stroke-width:0.8;"/>
      </defs>
      <g>
       <use style="stroke:#000000;stroke-width:0.8;" x="82.42875" xlink:href="#m5ea05234a9" y="279.497173"/>
      </g>
     </g>
     <g id="text_7">
      <!-- 0 -->
      <g transform="translate(56.11375 290.134985)scale(0.28 -0.28)">
       <use xlink:href="#DejaVuSans-48"/>
      </g>
     </g>
    </g>
    <g id="ytick_2">
     <g id="line2d_7">
      <g>
       <use style="stroke:#000000;stroke-width:0.8;" x="82.42875" xlink:href="#m5ea05234a9" y="170.994179"/>
      </g>
     </g>
     <g id="text_8">
      <!-- 10 -->
      <g transform="translate(38.29875 181.631991)scale(0.28 -0.28)">
       <use xlink:href="#DejaVuSans-49"/>
       <use x="63.623047" xlink:href="#DejaVuSans-48"/>
      </g>
     </g>
    </g>
    <g id="ytick_3">
     <g id="line2d_8">
      <g>
       <use style="stroke:#000000;stroke-width:0.8;" x="82.42875" xlink:href="#m5ea05234a9" y="62.491185"/>
      </g>
     </g>
     <g id="text_9">
      <!-- 20 -->
      <g transform="translate(38.29875 73.128997)scale(0.28 -0.28)">
       <use xlink:href="#DejaVuSans-50"/>
       <use x="63.623047" xlink:href="#DejaVuSans-48"/>
      </g>
     </g>
    </g>
    <g id="text_10">
     <!-- enrichment p-value -->
     <defs>
      <path d="M 54.890625 33.015625 
L 54.890625 0 
L 45.90625 0 
L 45.90625 32.71875 
Q 45.90625 40.484375 42.875 44.328125 
Q 39.84375 48.1875 33.796875 48.1875 
Q 26.515625 48.1875 22.3125 43.546875 
Q 18.109375 38.921875 18.109375 30.90625 
L 18.109375 0 
L 9.078125 0 
L 9.078125 54.6875 
L 18.109375 54.6875 
L 18.109375 46.1875 
Q 21.34375 51.125 25.703125 53.5625 
Q 30.078125 56 35.796875 56 
Q 45.21875 56 50.046875 50.171875 
Q 54.890625 44.34375 54.890625 33.015625 
z
" id="DejaVuSans-110"/>
      <path d="M 41.109375 46.296875 
Q 39.59375 47.171875 37.8125 47.578125 
Q 36.03125 48 33.890625 48 
Q 26.265625 48 22.1875 43.046875 
Q 18.109375 38.09375 18.109375 28.8125 
L 18.109375 0 
L 9.078125 0 
L 9.078125 54.6875 
L 18.109375 54.6875 
L 18.109375 46.1875 
Q 20.953125 51.171875 25.484375 53.578125 
Q 30.03125 56 36.53125 56 
Q 37.453125 56 38.578125 55.875 
Q 39.703125 55.765625 41.0625 55.515625 
z
" id="DejaVuSans-114"/>
      <path d="M 9.421875 54.6875 
L 18.40625 54.6875 
L 18.40625 0 
L 9.421875 0 
z
M 9.421875 75.984375 
L 18.40625 75.984375 
L 18.40625 64.59375 
L 9.421875 64.59375 
z
" id="DejaVuSans-105"/>
      <path d="M 48.78125 52.59375 
L 48.78125 44.1875 
Q 44.96875 46.296875 41.140625 47.34375 
Q 37.3125 48.390625 33.40625 48.390625 
Q 24.65625 48.390625 19.8125 42.84375 
Q 14.984375 37.3125 14.984375 27.296875 
Q 14.984375 17.28125 19.8125 11.734375 
Q 24.65625 6.203125 33.40625 6.203125 
Q 37.3125 6.203125 41.140625 7.25 
Q 44.96875 8.296875 48.78125 10.40625 
L 48.78125 2.09375 
Q 45.015625 0.34375 40.984375 -0.53125 
Q 36.96875 -1.421875 32.421875 -1.421875 
Q 20.0625 -1.421875 12.78125 6.34375 
Q 5.515625 14.109375 5.515625 27.296875 
Q 5.515625 40.671875 12.859375 48.328125 
Q 20.21875 56 33.015625 56 
Q 37.15625 56 41.109375 55.140625 
Q 45.0625 54.296875 48.78125 52.59375 
z
" id="DejaVuSans-99"/>
      <path d="M 54.890625 33.015625 
L 54.890625 0 
L 45.90625 0 
L 45.90625 32.71875 
Q 45.90625 40.484375 42.875 44.328125 
Q 39.84375 48.1875 33.796875 48.1875 
Q 26.515625 48.1875 22.3125 43.546875 
Q 18.109375 38.921875 18.109375 30.90625 
L 18.109375 0 
L 9.078125 0 
L 9.078125 75.984375 
L 18.109375 75.984375 
L 18.109375 46.1875 
Q 21.34375 51.125 25.703125 53.5625 
Q 30.078125 56 35.796875 56 
Q 45.21875 56 50.046875 50.171875 
Q 54.890625 44.34375 54.890625 33.015625 
z
" id="DejaVuSans-104"/>
      <path d="M 52 44.1875 
Q 55.375 50.25 60.0625 53.125 
Q 64.75 56 71.09375 56 
Q 79.640625 56 84.28125 50.015625 
Q 88.921875 44.046875 88.921875 33.015625 
L 88.921875 0 
L 79.890625 0 
L 79.890625 32.71875 
Q 79.890625 40.578125 77.09375 44.375 
Q 74.3125 48.1875 68.609375 48.1875 
Q 61.625 48.1875 57.5625 43.546875 
Q 53.515625 38.921875 53.515625 30.90625 
L 53.515625 0 
L 44.484375 0 
L 44.484375 32.71875 
Q 44.484375 40.625 41.703125 44.40625 
Q 38.921875 48.1875 33.109375 48.1875 
Q 26.21875 48.1875 22.15625 43.53125 
Q 18.109375 38.875 18.109375 30.90625 
L 18.109375 0 
L 9.078125 0 
L 9.078125 54.6875 
L 18.109375 54.6875 
L 18.109375 46.1875 
Q 21.1875 51.21875 25.484375 53.609375 
Q 29.78125 56 35.6875 56 
Q 41.65625 56 45.828125 52.96875 
Q 50 49.953125 52 44.1875 
z
" id="DejaVuSans-109"/>
      <path d="M 18.3125 70.21875 
L 18.3125 54.6875 
L 36.8125 54.6875 
L 36.8125 47.703125 
L 18.3125 47.703125 
L 18.3125 18.015625 
Q 18.3125 11.328125 20.140625 9.421875 
Q 21.96875 7.515625 27.59375 7.515625 
L 36.8125 7.515625 
L 36.8125 0 
L 27.59375 0 
Q 17.1875 0 13.234375 3.875 
Q 9.28125 7.765625 9.28125 18.015625 
L 9.28125 47.703125 
L 2.6875 47.703125 
L 2.6875 54.6875 
L 9.28125 54.6875 
L 9.28125 70.21875 
z
" id="DejaVuSans-116"/>
     </defs>
     <g transform="translate(28.475625 281.079375)rotate(-90)scale(0.28 -0.28)">
      <use xlink:href="#DejaVuSans-101"/>
      <use x="61.523438" xlink:href="#DejaVuSans-110"/>
      <use x="124.902344" xlink:href="#DejaVuSans-114"/>
      <use x="166.015625" xlink:href="#DejaVuSans-105"/>
      <use x="193.798828" xlink:href="#DejaVuSans-99"/>
      <use x="248.779297" xlink:href="#DejaVuSans-104"/>
      <use x="312.158203" xlink:href="#DejaVuSans-109"/>
      <use x="409.570312" xlink:href="#DejaVuSans-101"/>
      <use x="471.09375" xlink:href="#DejaVuSans-110"/>
      <use x="534.472656" xlink:href="#DejaVuSans-116"/>
      <use x="573.681641" xlink:href="#DejaVuSans-32"/>
      <use x="605.46875" xlink:href="#DejaVuSans-112"/>
      <use x="668.945312" xlink:href="#DejaVuSans-45"/>
      <use x="704.998047" xlink:href="#DejaVuSans-118"/>
      <use x="764.177734" xlink:href="#DejaVuSans-97"/>
      <use x="825.457031" xlink:href="#DejaVuSans-108"/>
      <use x="853.240234" xlink:href="#DejaVuSans-117"/>
      <use x="916.619141" xlink:href="#DejaVuSans-101"/>
     </g>
    </g>
   </g>
   <g id="line2d_9">
    <path clip-path="url(#p5a2b690b89)" d="M 97.156023 192.492696 
L 100.837841 193.574831 
L 104.519659 186.609206 
L 108.201477 189.520003 
L 111.883295 191.285434 
L 115.565114 182.732977 
L 119.246932 183.342356 
L 122.92875 177.561693 
L 126.610568 179.701779 
L 130.292386 178.47364 
L 133.974205 176.170944 
L 137.656023 170.811948 
L 141.337841 166.450788 
L 145.019659 167.518936 
L 148.701477 163.207974 
L 152.383295 166.58212 
L 156.065114 164.62398 
L 159.746932 161.529042 
L 163.42875 158.716323 
L 167.110568 155.040807 
L 170.792386 159.265544 
L 174.474205 157.018458 
L 178.156023 155.040807 
L 181.837841 151.105605 
L 185.519659 149.207384 
L 189.201477 147.817831 
L 192.883295 149.22411 
L 196.565114 147.817831 
L 200.246932 146.067778 
L 203.92875 143.122312 
L 207.610568 140.586442 
L 211.292386 139.20767 
L 214.974205 141.19173 
L 218.656023 139.20767 
L 222.337841 143.378404 
L 226.019659 139.20767 
L 229.701477 139.20767 
L 233.383295 139.20767 
L 237.065114 139.20767 
L 240.746932 139.20767 
L 244.42875 139.20767 
L 248.110568 148.239255 
L 251.792386 146.787283 
L 255.474205 145.112005 
L 259.156023 149.177767 
L 262.837841 149.177767 
L 266.519659 153.809358 
L 270.201477 153.360349 
L 273.883295 152.334921 
L 277.565114 163.387807 
L 281.246932 160.175687 
L 284.92875 158.346058 
L 288.610568 157.018458 
L 292.292386 156.836799 
L 295.974205 153.772709 
L 299.656023 158.42256 
L 303.337841 160.268826 
L 307.019659 160.268826 
L 310.701477 159.004314 
L 314.383295 157.74349 
L 318.065114 157.018458 
L 321.746932 157.018458 
L 325.42875 156.087095 
L 329.110568 155.040807 
L 332.792386 155.040807 
L 336.474205 152.881424 
L 340.156023 157.018458 
L 343.837841 157.018458 
L 347.519659 155.040807 
L 351.201477 155.040807 
L 354.883295 155.040807 
L 358.565114 154.333926 
L 362.246932 152.446619 
L 365.92875 151.899555 
L 369.610568 149.520836 
L 373.292386 155.107924 
L 376.974205 155.040807 
L 380.656023 160.58381 
L 384.337841 166.988434 
L 388.019659 166.349506 
L 391.701477 171.935798 
" style="fill:none;stroke:#8b0000;stroke-linecap:square;stroke-width:2;"/>
   </g>
   <g id="line2d_10">
    <path clip-path="url(#p5a2b690b89)" d="M 97.156023 155.395157 
L 100.837841 153.312713 
L 104.519659 146.558495 
L 108.201477 143.728291 
L 111.883295 154.569686 
L 115.565114 133.230937 
L 119.246932 125.764566 
L 122.92875 111.100969 
L 126.610568 107.025213 
L 130.292386 94.596269 
L 133.974205 94.383552 
L 137.656023 80.131696 
L 141.337841 86.186413 
L 145.019659 86.117479 
L 148.701477 86.117479 
L 152.383295 80.1449 
L 156.065114 80.645814 
L 159.746932 78.850427 
L 163.42875 76.608829 
L 167.110568 69.793362 
L 170.792386 68.959361 
L 174.474205 61.637935 
L 178.156023 66.906237 
L 181.837841 51.628941 
L 185.519659 46.669471 
L 189.201477 46.669471 
L 192.883295 46.669471 
L 196.565114 46.669471 
L 200.246932 46.669471 
L 203.92875 52.939914 
L 207.610568 46.669471 
L 211.292386 46.669471 
L 214.974205 51.628941 
L 218.656023 50.118728 
L 222.337841 50.118728 
L 226.019659 46.669471 
L 229.701477 46.669471 
L 233.383295 59.796592 
L 237.065114 66.09674 
L 240.746932 73.772361 
L 244.42875 82.517948 
L 248.110568 102.408401 
L 251.792386 97.590974 
L 255.474205 98.502836 
L 259.156023 98.11305 
L 262.837841 98.11305 
L 266.519659 105.478044 
L 270.201477 103.793002 
L 273.883295 106.502254 
L 277.565114 113.892005 
L 281.246932 117.868922 
L 284.92875 118.95455 
L 288.610568 115.586408 
L 292.292386 113.892005 
L 295.974205 103.576913 
L 299.656023 106.238022 
L 303.337841 128.840011 
L 307.019659 128.840011 
L 310.701477 125.847781 
L 314.383295 128.312978 
L 318.065114 126.574178 
L 321.746932 126.574178 
L 325.42875 129.052357 
L 329.110568 125.901827 
L 332.792386 125.901827 
L 336.474205 119.184142 
L 340.156023 119.948868 
L 343.837841 119.948868 
L 347.519659 120.698321 
L 351.201477 120.698321 
L 354.883295 119.182494 
L 358.565114 123.470645 
L 362.246932 124.278879 
L 365.92875 128.424776 
L 369.610568 135.55058 
L 373.292386 140.032256 
L 376.974205 138.2356 
L 380.656023 142.690118 
L 384.337841 151.423963 
L 388.019659 149.698933 
L 391.701477 156.457403 
" style="fill:none;stroke:#000080;stroke-linecap:square;stroke-width:2;"/>
   </g>
   <g id="line2d_11">
    <path clip-path="url(#p5a2b690b89)" d="M 97.156023 265.380608 
L 391.701477 265.380608 
" style="fill:none;stroke:#ff0000;stroke-dasharray:3.7,1.6;stroke-dashoffset:0;"/>
   </g>
   <g id="patch_3">
    <path d="M 82.42875 280.039687 
L 82.42875 8.239688 
" style="fill:none;stroke:#000000;stroke-linecap:square;stroke-linejoin:miter;stroke-width:0.8;"/>
   </g>
   <g id="patch_4">
    <path d="M 82.42875 280.039688 
L 406.42875 280.039688 
" style="fill:none;stroke:#000000;stroke-linecap:square;stroke-linejoin:miter;stroke-width:0.8;"/>
   </g>
  </g>
  <g id="axes_2">
   <g id="patch_5">
    <path d="M 422.62875 280.039688 
L 746.62875 280.039688 
L 746.62875 8.239688 
L 422.62875 8.239688 
z
" style="fill:none;"/>
   </g>
   <g id="matplotlib.axis_3">
    <g id="xtick_6">
     <g id="line2d_12">
      <g>
       <use style="stroke:#000000;stroke-width:0.8;" x="437.356023" xlink:href="#mebe73106d7" y="280.039688"/>
      </g>
     </g>
     <g id="text_11">
      <!-- 1 -->
      <g transform="translate(428.448523 309.815313)scale(0.28 -0.28)">
       <use xlink:href="#DejaVuSans-49"/>
      </g>
     </g>
    </g>
    <g id="xtick_7">
     <g id="line2d_13">
      <g>
       <use style="stroke:#000000;stroke-width:0.8;" x="510.992386" xlink:href="#mebe73106d7" y="280.039688"/>
      </g>
     </g>
     <g id="text_12">
      <!-- 2 -->
      <g transform="translate(502.084886 309.815313)scale(0.28 -0.28)">
       <use xlink:href="#DejaVuSans-50"/>
      </g>
     </g>
    </g>
    <g id="xtick_8">
     <g id="line2d_14">
      <g>
       <use style="stroke:#000000;stroke-width:0.8;" x="584.62875" xlink:href="#mebe73106d7" y="280.039688"/>
      </g>
     </g>
     <g id="text_13">
      <!-- 3 -->
      <g transform="translate(575.72125 309.815313)scale(0.28 -0.28)">
       <use xlink:href="#DejaVuSans-51"/>
      </g>
     </g>
    </g>
    <g id="xtick_9">
     <g id="line2d_15">
      <g>
       <use style="stroke:#000000;stroke-width:0.8;" x="658.265114" xlink:href="#mebe73106d7" y="280.039688"/>
      </g>
     </g>
     <g id="text_14">
      <!-- 4 -->
      <g transform="translate(649.357614 309.815313)scale(0.28 -0.28)">
       <use xlink:href="#DejaVuSans-52"/>
      </g>
     </g>
    </g>
    <g id="xtick_10">
     <g id="line2d_16">
      <g>
       <use style="stroke:#000000;stroke-width:0.8;" x="731.901477" xlink:href="#mebe73106d7" y="280.039688"/>
      </g>
     </g>
     <g id="text_15">
      <!-- 5 -->
      <g transform="translate(722.993977 309.815313)scale(0.28 -0.28)">
       <use xlink:href="#DejaVuSans-53"/>
      </g>
     </g>
    </g>
    <g id="text_16">
     <!-- -log10 p-value -->
     <g transform="translate(483.79375 340.914062)scale(0.28 -0.28)">
      <use xlink:href="#DejaVuSans-45"/>
      <use x="36.083984" xlink:href="#DejaVuSans-108"/>
      <use x="63.867188" xlink:href="#DejaVuSans-111"/>
      <use x="125.048828" xlink:href="#DejaVuSans-103"/>
      <use x="188.525391" xlink:href="#DejaVuSans-49"/>
      <use x="252.148438" xlink:href="#DejaVuSans-48"/>
      <use x="315.771484" xlink:href="#DejaVuSans-32"/>
      <use x="347.558594" xlink:href="#DejaVuSans-112"/>
      <use x="411.035156" xlink:href="#DejaVuSans-45"/>
      <use x="447.087891" xlink:href="#DejaVuSans-118"/>
      <use x="506.267578" xlink:href="#DejaVuSans-97"/>
      <use x="567.546875" xlink:href="#DejaVuSans-108"/>
      <use x="595.330078" xlink:href="#DejaVuSans-117"/>
      <use x="658.708984" xlink:href="#DejaVuSans-101"/>
     </g>
    </g>
   </g>
   <g id="matplotlib.axis_4">
    <g id="ytick_4"/>
    <g id="ytick_5"/>
    <g id="ytick_6"/>
   </g>
   <g id="line2d_17">
    <path clip-path="url(#p97fbda1a4b)" d="M 437.356023 203.574543 
L 441.037841 217.85439 
L 444.719659 205.785067 
L 448.401477 202.91196 
L 452.083295 197.877012 
L 455.765114 198.142632 
L 459.446932 198.35867 
L 463.12875 202.34944 
L 466.810568 198.142632 
L 470.492386 198.869412 
L 474.174205 197.160818 
L 477.856023 197.160818 
L 481.537841 198.142632 
L 485.219659 200.874002 
L 488.901477 212.055333 
L 492.583295 216.77333 
L 496.265114 220.034566 
L 499.946932 220.034566 
L 503.62875 218.484116 
L 507.310568 220.034566 
L 510.992386 219.795734 
L 514.674205 219.327032 
L 518.356023 223.299158 
L 522.037841 228.952843 
L 525.719659 230.95101 
L 529.401477 232.902407 
L 533.083295 234.560885 
L 536.765114 230.532709 
L 540.446932 223.870002 
L 544.12875 225.904808 
L 547.810568 227.988236 
L 551.492386 225.6619 
L 555.174205 227.759181 
L 558.856023 227.759181 
L 562.537841 231.581436 
L 566.219659 233.672854 
L 569.901477 228.952843 
L 573.583295 232.902407 
L 577.265114 227.62218 
L 580.946932 229.282407 
L 584.62875 233.672854 
L 588.310568 233.672854 
L 591.992386 233.672854 
L 595.674205 231.125922 
L 599.356023 228.273746 
L 603.037841 228.273746 
L 606.719659 225.509985 
L 610.401477 225.509985 
L 614.083295 221.972992 
L 617.765114 229.028202 
L 621.446932 231.496484 
L 625.12875 236.292473 
L 628.810568 233.117709 
L 632.492386 235.493645 
L 636.174205 235.493645 
L 639.856023 241.141568 
L 643.537841 241.141568 
L 647.219659 243.926738 
L 650.901477 246.343987 
L 654.583295 248.328903 
L 658.265114 248.328903 
L 661.946932 248.328903 
L 665.62875 248.328903 
L 669.310568 250.578791 
L 672.992386 250.578791 
L 676.674205 250.578791 
L 680.356023 244.901022 
L 684.037841 244.901022 
L 687.719659 244.901022 
L 691.401477 244.901022 
L 695.083295 247.259808 
L 698.765114 247.259808 
L 702.446932 247.259808 
L 706.12875 247.259808 
L 709.810568 247.259808 
L 713.492386 247.259808 
L 717.174205 247.259808 
L 720.856023 249.613734 
L 724.537841 249.613734 
L 728.219659 249.613734 
L 731.901477 249.613734 
" style="fill:none;stroke:#8b0000;stroke-linecap:square;stroke-width:2;"/>
   </g>
   <g id="line2d_18">
    <path clip-path="url(#p97fbda1a4b)" d="M 437.356023 223.312086 
L 441.037841 231.619326 
L 444.719659 225.093483 
L 448.401477 225.320541 
L 452.083295 223.312086 
L 455.765114 224.039631 
L 459.446932 225.093483 
L 463.12875 224.039631 
L 466.810568 226.843312 
L 470.492386 232.266888 
L 474.174205 225.492492 
L 477.856023 227.563978 
L 481.537841 226.769441 
L 485.219659 228.05086 
L 488.901477 225.492492 
L 492.583295 223.312086 
L 496.265114 223.310802 
L 499.946932 222.046398 
L 503.62875 223.310802 
L 507.310568 220.271687 
L 510.992386 220.271687 
L 514.674205 216.749248 
L 518.356023 217.847248 
L 522.037841 224.039631 
L 525.719659 223.508111 
L 529.401477 223.312086 
L 533.083295 224.039631 
L 536.765114 223.312086 
L 540.446932 222.046398 
L 544.12875 223.436161 
L 547.810568 225.540116 
L 551.492386 225.093483 
L 555.174205 224.039631 
L 558.856023 224.039631 
L 562.537841 223.312086 
L 566.219659 225.492492 
L 569.901477 224.039631 
L 573.583295 235.673897 
L 577.265114 230.584744 
L 580.946932 235.455863 
L 584.62875 243.735167 
L 588.310568 243.735167 
L 591.992386 243.735167 
L 595.674205 242.688179 
L 599.356023 241.514627 
L 603.037841 241.514627 
L 606.719659 240.751725 
L 610.401477 240.751725 
L 614.083295 239.606417 
L 617.765114 241.514627 
L 621.446932 240.428822 
L 625.12875 237.638082 
L 628.810568 236.145958 
L 632.492386 234.699711 
L 636.174205 234.699711 
L 639.856023 238.04929 
L 643.537841 238.04929 
L 647.219659 236.535475 
L 650.901477 241.514627 
L 654.583295 245.85005 
L 658.265114 245.85005 
L 661.946932 245.85005 
L 665.62875 245.85005 
L 669.310568 244.511731 
L 672.992386 244.511731 
L 676.674205 244.511731 
L 680.356023 241.514627 
L 684.037841 241.514627 
L 687.719659 241.514627 
L 691.401477 241.514627 
L 695.083295 246.088185 
L 698.765114 246.088185 
L 702.446932 246.088185 
L 706.12875 246.088185 
L 709.810568 246.088185 
L 713.492386 246.088185 
L 717.174205 246.088185 
L 720.856023 251.378092 
L 724.537841 251.378092 
L 728.219659 251.378092 
L 731.901477 251.378092 
" style="fill:none;stroke:#000080;stroke-linecap:square;stroke-width:2;"/>
   </g>
   <g id="line2d_19">
    <path clip-path="url(#p97fbda1a4b)" d="M 437.356023 265.380608 
L 731.901477 265.380608 
" style="fill:none;stroke:#ff0000;stroke-dasharray:3.7,1.6;stroke-dashoffset:0;"/>
   </g>
   <g id="patch_6">
    <path d="M 422.62875 280.039687 
L 422.62875 8.239688 
" style="fill:none;stroke:#000000;stroke-linecap:square;stroke-linejoin:miter;stroke-width:0.8;"/>
   </g>
   <g id="patch_7">
    <path d="M 422.62875 280.039688 
L 746.62875 280.039688 
" style="fill:none;stroke:#000000;stroke-linecap:square;stroke-linejoin:miter;stroke-width:0.8;"/>
   </g>
  </g>
  <g id="axes_3">
   <g id="patch_8">
    <path d="M 762.82875 280.039688 
L 1086.82875 280.039688 
L 1086.82875 8.239688 
L 762.82875 8.239688 
z
" style="fill:none;"/>
   </g>
   <g id="matplotlib.axis_5">
    <g id="xtick_11">
     <g id="line2d_20">
      <g>
       <use style="stroke:#000000;stroke-width:0.8;" x="777.556023" xlink:href="#mebe73106d7" y="280.039688"/>
      </g>
     </g>
     <g id="text_17">
      <!-- 1 -->
      <g transform="translate(768.648523 309.815313)scale(0.28 -0.28)">
       <use xlink:href="#DejaVuSans-49"/>
      </g>
     </g>
    </g>
    <g id="xtick_12">
     <g id="line2d_21">
      <g>
       <use style="stroke:#000000;stroke-width:0.8;" x="851.192386" xlink:href="#mebe73106d7" y="280.039688"/>
      </g>
     </g>
     <g id="text_18">
      <!-- 2 -->
      <g transform="translate(842.284886 309.815313)scale(0.28 -0.28)">
       <use xlink:href="#DejaVuSans-50"/>
      </g>
     </g>
    </g>
    <g id="xtick_13">
     <g id="line2d_22">
      <g>
       <use style="stroke:#000000;stroke-width:0.8;" x="924.82875" xlink:href="#mebe73106d7" y="280.039688"/>
      </g>
     </g>
     <g id="text_19">
      <!-- 3 -->
      <g transform="translate(915.92125 309.815313)scale(0.28 -0.28)">
       <use xlink:href="#DejaVuSans-51"/>
      </g>
     </g>
    </g>
    <g id="xtick_14">
     <g id="line2d_23">
      <g>
       <use style="stroke:#000000;stroke-width:0.8;" x="998.465114" xlink:href="#mebe73106d7" y="280.039688"/>
      </g>
     </g>
     <g id="text_20">
      <!-- 4 -->
      <g transform="translate(989.557614 309.815313)scale(0.28 -0.28)">
       <use xlink:href="#DejaVuSans-52"/>
      </g>
     </g>
    </g>
    <g id="xtick_15">
     <g id="line2d_24">
      <g>
       <use style="stroke:#000000;stroke-width:0.8;" x="1072.101477" xlink:href="#mebe73106d7" y="280.039688"/>
      </g>
     </g>
     <g id="text_21">
      <!-- 5 -->
      <g transform="translate(1063.193977 309.815313)scale(0.28 -0.28)">
       <use xlink:href="#DejaVuSans-53"/>
      </g>
     </g>
    </g>
    <g id="text_22">
     <!-- -log10 p-value -->
     <g transform="translate(823.99375 340.914062)scale(0.28 -0.28)">
      <use xlink:href="#DejaVuSans-45"/>
      <use x="36.083984" xlink:href="#DejaVuSans-108"/>
      <use x="63.867188" xlink:href="#DejaVuSans-111"/>
      <use x="125.048828" xlink:href="#DejaVuSans-103"/>
      <use x="188.525391" xlink:href="#DejaVuSans-49"/>
      <use x="252.148438" xlink:href="#DejaVuSans-48"/>
      <use x="315.771484" xlink:href="#DejaVuSans-32"/>
      <use x="347.558594" xlink:href="#DejaVuSans-112"/>
      <use x="411.035156" xlink:href="#DejaVuSans-45"/>
      <use x="447.087891" xlink:href="#DejaVuSans-118"/>
      <use x="506.267578" xlink:href="#DejaVuSans-97"/>
      <use x="567.546875" xlink:href="#DejaVuSans-108"/>
      <use x="595.330078" xlink:href="#DejaVuSans-117"/>
      <use x="658.708984" xlink:href="#DejaVuSans-101"/>
     </g>
    </g>
   </g>
   <g id="matplotlib.axis_6">
    <g id="ytick_7"/>
    <g id="ytick_8"/>
    <g id="ytick_9"/>
   </g>
   <g id="line2d_25">
    <path clip-path="url(#p5504ee457a)" d="M 777.556023 255.438788 
L 781.237841 255.438788 
L 784.919659 255.438788 
L 788.601477 255.438788 
L 792.283295 255.438788 
L 795.965114 255.438788 
L 799.646932 255.625341 
L 803.32875 255.438788 
L 807.010568 255.438788 
L 810.692386 255.438788 
L 814.374205 255.625341 
L 818.056023 255.785739 
L 821.737841 256.521473 
L 825.419659 255.438788 
L 829.101477 255.438788 
L 832.783295 255.625341 
L 836.465114 255.625341 
L 840.146932 256.03359 
L 843.82875 256.730586 
L 847.510568 257.197936 
L 851.192386 255.438788 
L 854.874205 255.625341 
L 858.556023 256.092128 
L 862.237841 256.521473 
L 865.919659 256.730586 
L 869.601477 257.197936 
L 873.283295 258.609196 
L 876.965114 258.998401 
L 880.646932 256.092128 
L 884.32875 256.521473 
L 888.010568 256.554496 
L 891.692386 256.554496 
L 895.374205 256.830249 
L 899.056023 257.197936 
L 902.737841 255.438788 
L 906.419659 255.438788 
L 910.101477 255.438788 
L 913.783295 255.785739 
L 917.465114 255.438788 
L 921.146932 255.438788 
L 924.82875 255.438788 
L 928.510568 255.438788 
L 932.192386 255.438788 
L 935.874205 255.438788 
L 939.556023 255.438788 
L 943.237841 255.438788 
L 946.919659 255.438788 
L 950.601477 255.438788 
L 954.283295 255.625341 
L 957.965114 255.785739 
L 961.646932 256.092128 
L 965.32875 256.321154 
L 969.010568 256.521473 
L 972.692386 256.730586 
L 976.374205 257.197936 
L 980.056023 257.197936 
L 983.737841 258.450238 
L 987.419659 258.858998 
L 991.101477 258.858998 
L 994.783295 259.351418 
L 998.465114 259.918877 
L 1002.146932 260.012772 
L 1005.82875 260.012772 
L 1009.510568 260.012772 
L 1013.192386 260.186199 
L 1016.874205 260.186199 
L 1020.556023 261.372154 
L 1024.237841 261.612331 
L 1027.919659 262.158468 
L 1031.601477 262.632028 
L 1035.283295 262.632028 
L 1038.965114 262.867702 
L 1042.646932 262.912824 
L 1046.32875 262.912824 
L 1050.010568 262.912824 
L 1053.692386 262.912824 
L 1057.374205 264.033985 
L 1061.056023 264.204625 
L 1064.737841 264.204625 
L 1068.419659 264.435132 
L 1072.101477 264.66468 
" style="fill:none;stroke:#8b0000;stroke-linecap:square;stroke-width:2;"/>
   </g>
   <g id="line2d_26">
    <path clip-path="url(#p5504ee457a)" d="M 777.556023 258.093327 
L 781.237841 258.093327 
L 784.919659 258.809449 
L 788.601477 253.058887 
L 792.283295 249.574903 
L 795.965114 251.268635 
L 799.646932 249.574903 
L 803.32875 246.784723 
L 807.010568 244.94556 
L 810.692386 248.44733 
L 814.374205 246.664692 
L 818.056023 250.779991 
L 821.737841 249.739768 
L 825.419659 247.873799 
L 829.101477 246.069695 
L 832.783295 244.133902 
L 836.465114 243.214585 
L 840.146932 243.969803 
L 843.82875 241.758271 
L 847.510568 238.676474 
L 851.192386 239.346369 
L 854.874205 242.914806 
L 858.556023 238.692529 
L 862.237841 235.334462 
L 865.919659 241.176238 
L 869.601477 237.994502 
L 873.283295 232.000314 
L 876.965114 229.713705 
L 880.646932 227.931053 
L 884.32875 228.566526 
L 888.010568 231.621509 
L 891.692386 231.621509 
L 895.374205 233.442899 
L 899.056023 231.128455 
L 902.737841 225.882371 
L 906.419659 223.227218 
L 910.101477 222.273818 
L 913.783295 220.892922 
L 917.465114 215.664442 
L 921.146932 215.664442 
L 924.82875 215.664442 
L 928.510568 215.947741 
L 932.192386 218.110784 
L 935.874205 222.127588 
L 939.556023 222.127588 
L 943.237841 222.127588 
L 946.919659 218.055213 
L 950.601477 215.664442 
L 954.283295 214.916841 
L 957.965114 215.664442 
L 961.646932 214.488883 
L 965.32875 214.488883 
L 969.010568 214.881604 
L 972.692386 215.664442 
L 976.374205 215.664442 
L 980.056023 215.664442 
L 983.737841 217.088819 
L 987.419659 218.055213 
L 991.101477 218.055213 
L 994.783295 219.532112 
L 998.465114 224.767293 
L 1002.146932 223.227218 
L 1005.82875 223.227218 
L 1009.510568 223.227218 
L 1013.192386 222.127588 
L 1016.874205 222.127588 
L 1020.556023 224.815826 
L 1024.237841 223.227218 
L 1027.919659 220.892922 
L 1031.601477 218.055213 
L 1035.283295 218.055213 
L 1038.965114 217.088819 
L 1042.646932 215.664442 
L 1046.32875 215.664442 
L 1050.010568 215.664442 
L 1053.692386 215.664442 
L 1057.374205 222.127588 
L 1061.056023 220.722079 
L 1064.737841 220.722079 
L 1068.419659 219.064236 
L 1072.101477 222.126764 
" style="fill:none;stroke:#000080;stroke-linecap:square;stroke-width:2;"/>
   </g>
   <g id="line2d_27">
    <path clip-path="url(#p5504ee457a)" d="M 777.556023 265.380608 
L 1072.101477 265.380608 
" style="fill:none;stroke:#ff0000;stroke-dasharray:3.7,1.6;stroke-dashoffset:0;"/>
   </g>
   <g id="patch_9">
    <path d="M 762.82875 280.039687 
L 762.82875 8.239688 
" style="fill:none;stroke:#000000;stroke-linecap:square;stroke-linejoin:miter;stroke-width:0.8;"/>
   </g>
   <g id="patch_10">
    <path d="M 762.82875 280.039688 
L 1086.82875 280.039688 
" style="fill:none;stroke:#000000;stroke-linecap:square;stroke-linejoin:miter;stroke-width:0.8;"/>
   </g>
  </g>
 </g>
 <defs>
  <clipPath id="p5a2b690b89">
   <rect height="271.8" width="324" x="82.42875" y="8.239688"/>
  </clipPath>
  <clipPath id="p97fbda1a4b">
   <rect height="271.8" width="324" x="422.62875" y="8.239688"/>
  </clipPath>
  <clipPath id="p5504ee457a">
   <rect height="271.8" width="324" x="762.82875" y="8.239688"/>
  </clipPath>
 </defs>
</svg>
