<?xml version="1.0" encoding="utf-8" standalone="no"?>
<!DOCTYPE svg PUBLIC "-//W3C//DTD SVG 1.1//EN"
  "http://www.w3.org/Graphics/SVG/1.1/DTD/svg11.dtd">
<!-- Created with matplotlib (https://matplotlib.org/) -->
<svg height="352.8975pt" version="1.1" viewBox="0 0 1076.21375 352.8975" width="1076.21375pt" xmlns="http://www.w3.org/2000/svg" xmlns:xlink="http://www.w3.org/1999/xlink">
 <defs>
  <style type="text/css">
*{stroke-linecap:butt;stroke-linejoin:round;}
  </style>
 </defs>
 <g id="figure_1">
  <g id="patch_1">
   <path d="M 0 352.8975 
L 1076.21375 352.8975 
L 1076.21375 0 
L 0 0 
z
" style="fill:none;"/>
  </g>
  <g id="axes_1">
   <g id="patch_2">
    <path d="M 64.61375 279 
L 388.61375 279 
L 388.61375 7.2 
L 64.61375 7.2 
z
" style="fill:none;"/>
   </g>
   <g id="matplotlib.axis_1">
    <g id="xtick_1">
     <g id="line2d_1">
      <defs>
       <path d="M 0 0 
L 0 5 
" id="mbcdcf24009" style="stroke:#000000;stroke-width:0.8;"/>
      </defs>
      <g>
       <use style="stroke:#000000;stroke-width:0.8;" x="79.341023" xlink:href="#mbcdcf24009" y="279"/>
      </g>
     </g>
     <g id="text_1">
      <!-- 1 -->
      <defs>
       <path d="M 12.40625 8.296875 
L 28.515625 8.296875 
L 28.515625 63.921875 
L 10.984375 60.40625 
L 10.984375 69.390625 
L 28.421875 72.90625 
L 38.28125 72.90625 
L 38.28125 8.296875 
L 54.390625 8.296875 
L 54.390625 0 
L 12.40625 0 
z
" id="DejaVuSans-49"/>
      </defs>
      <g transform="translate(70.433523 308.775625)scale(0.28 -0.28)">
       <use xlink:href="#DejaVuSans-49"/>
      </g>
     </g>
    </g>
    <g id="xtick_2">
     <g id="line2d_2">
      <g>
       <use style="stroke:#000000;stroke-width:0.8;" x="152.977386" xlink:href="#mbcdcf24009" y="279"/>
      </g>
     </g>
     <g id="text_2">
      <!-- 2 -->
      <defs>
       <path d="M 19.1875 8.296875 
L 53.609375 8.296875 
L 53.609375 0 
L 7.328125 0 
L 7.328125 8.296875 
Q 12.9375 14.109375 22.625 23.890625 
Q 32.328125 33.6875 34.8125 36.53125 
Q 39.546875 41.84375 41.421875 45.53125 
Q 43.3125 49.21875 43.3125 52.78125 
Q 43.3125 58.59375 39.234375 62.25 
Q 35.15625 65.921875 28.609375 65.921875 
Q 23.96875 65.921875 18.8125 64.3125 
Q 13.671875 62.703125 7.8125 59.421875 
L 7.8125 69.390625 
Q 13.765625 71.78125 18.9375 73 
Q 24.125 74.21875 28.421875 74.21875 
Q 39.75 74.21875 46.484375 68.546875 
Q 53.21875 62.890625 53.21875 53.421875 
Q 53.21875 48.921875 51.53125 44.890625 
Q 49.859375 40.875 45.40625 35.40625 
Q 44.1875 33.984375 37.640625 27.21875 
Q 31.109375 20.453125 19.1875 8.296875 
z
" id="DejaVuSans-50"/>
      </defs>
      <g transform="translate(144.069886 308.775625)scale(0.28 -0.28)">
       <use xlink:href="#DejaVuSans-50"/>
      </g>
     </g>
    </g>
    <g id="xtick_3">
     <g id="line2d_3">
      <g>
       <use style="stroke:#000000;stroke-width:0.8;" x="226.61375" xlink:href="#mbcdcf24009" y="279"/>
      </g>
     </g>
     <g id="text_3">
      <!-- 3 -->
      <defs>
       <path d="M 40.578125 39.3125 
Q 47.65625 37.796875 51.625 33 
Q 55.609375 28.21875 55.609375 21.1875 
Q 55.609375 10.40625 48.1875 4.484375 
Q 40.765625 -1.421875 27.09375 -1.421875 
Q 22.515625 -1.421875 17.65625 -0.515625 
Q 12.796875 0.390625 7.625 2.203125 
L 7.625 11.71875 
Q 11.71875 9.328125 16.59375 8.109375 
Q 21.484375 6.890625 26.8125 6.890625 
Q 36.078125 6.890625 40.9375 10.546875 
Q 45.796875 14.203125 45.796875 21.1875 
Q 45.796875 27.640625 41.28125 31.265625 
Q 36.765625 34.90625 28.71875 34.90625 
L 20.21875 34.90625 
L 20.21875 43.015625 
L 29.109375 43.015625 
Q 36.375 43.015625 40.234375 45.921875 
Q 44.09375 48.828125 44.09375 54.296875 
Q 44.09375 59.90625 40.109375 62.90625 
Q 36.140625 65.921875 28.71875 65.921875 
Q 24.65625 65.921875 20.015625 65.03125 
Q 15.375 64.15625 9.8125 62.3125 
L 9.8125 71.09375 
Q 15.4375 72.65625 20.34375 73.4375 
Q 25.25 74.21875 29.59375 74.21875 
Q 40.828125 74.21875 47.359375 69.109375 
Q 53.90625 64.015625 53.90625 55.328125 
Q 53.90625 49.265625 50.4375 45.09375 
Q 46.96875 40.921875 40.578125 39.3125 
z
" id="DejaVuSans-51"/>
      </defs>
      <g transform="translate(217.70625 308.775625)scale(0.28 -0.28)">
       <use xlink:href="#DejaVuSans-51"/>
      </g>
     </g>
    </g>
    <g id="xtick_4">
     <g id="line2d_4">
      <g>
       <use style="stroke:#000000;stroke-width:0.8;" x="300.250114" xlink:href="#mbcdcf24009" y="279"/>
      </g>
     </g>
     <g id="text_4">
      <!-- 4 -->
      <defs>
       <path d="M 37.796875 64.3125 
L 12.890625 25.390625 
L 37.796875 25.390625 
z
M 35.203125 72.90625 
L 47.609375 72.90625 
L 47.609375 25.390625 
L 58.015625 25.390625 
L 58.015625 17.1875 
L 47.609375 17.1875 
L 47.609375 0 
L 37.796875 0 
L 37.796875 17.1875 
L 4.890625 17.1875 
L 4.890625 26.703125 
z
" id="DejaVuSans-52"/>
      </defs>
      <g transform="translate(291.342614 308.775625)scale(0.28 -0.28)">
       <use xlink:href="#DejaVuSans-52"/>
      </g>
     </g>
    </g>
    <g id="xtick_5">
     <g id="line2d_5">
      <g>
       <use style="stroke:#000000;stroke-width:0.8;" x="373.886477" xlink:href="#mbcdcf24009" y="279"/>
      </g>
     </g>
     <g id="text_5">
      <!-- 5 -->
      <defs>
       <path d="M 10.796875 72.90625 
L 49.515625 72.90625 
L 49.515625 64.59375 
L 19.828125 64.59375 
L 19.828125 46.734375 
Q 21.96875 47.46875 24.109375 47.828125 
Q 26.265625 48.1875 28.421875 48.1875 
Q 40.625 48.1875 47.75 41.5 
Q 54.890625 34.8125 54.890625 23.390625 
Q 54.890625 11.625 47.5625 5.09375 
Q 40.234375 -1.421875 26.90625 -1.421875 
Q 22.3125 -1.421875 17.546875 -0.640625 
Q 12.796875 0.140625 7.71875 1.703125 
L 7.71875 11.625 
Q 12.109375 9.234375 16.796875 8.0625 
Q 21.484375 6.890625 26.703125 6.890625 
Q 35.15625 6.890625 40.078125 11.328125 
Q 45.015625 15.765625 45.015625 23.390625 
Q 45.015625 31 40.078125 35.4375 
Q 35.15625 39.890625 26.703125 39.890625 
Q 22.75 39.890625 18.8125 39.015625 
Q 14.890625 38.140625 10.796875 36.28125 
z
" id="DejaVuSans-53"/>
      </defs>
      <g transform="translate(364.978977 308.775625)scale(0.28 -0.28)">
       <use xlink:href="#DejaVuSans-53"/>
      </g>
     </g>
    </g>
    <g id="text_6">
     <!-- -log10 p-value -->
     <defs>
      <path d="M 4.890625 31.390625 
L 31.203125 31.390625 
L 31.203125 23.390625 
L 4.890625 23.390625 
z
" id="DejaVuSans-45"/>
      <path d="M 9.421875 75.984375 
L 18.40625 75.984375 
L 18.40625 0 
L 9.421875 0 
z
" id="DejaVuSans-108"/>
      <path d="M 30.609375 48.390625 
Q 23.390625 48.390625 19.1875 42.75 
Q 14.984375 37.109375 14.984375 27.296875 
Q 14.984375 17.484375 19.15625 11.84375 
Q 23.34375 6.203125 30.609375 6.203125 
Q 37.796875 6.203125 41.984375 11.859375 
Q 46.1875 17.53125 46.1875 27.296875 
Q 46.1875 37.015625 41.984375 42.703125 
Q 37.796875 48.390625 30.609375 48.390625 
z
M 30.609375 56 
Q 42.328125 56 49.015625 48.375 
Q 55.71875 40.765625 55.71875 27.296875 
Q 55.71875 13.875 49.015625 6.21875 
Q 42.328125 -1.421875 30.609375 -1.421875 
Q 18.84375 -1.421875 12.171875 6.21875 
Q 5.515625 13.875 5.515625 27.296875 
Q 5.515625 40.765625 12.171875 48.375 
Q 18.84375 56 30.609375 56 
z
" id="DejaVuSans-111"/>
      <path d="M 45.40625 27.984375 
Q 45.40625 37.75 41.375 43.109375 
Q 37.359375 48.484375 30.078125 48.484375 
Q 22.859375 48.484375 18.828125 43.109375 
Q 14.796875 37.75 14.796875 27.984375 
Q 14.796875 18.265625 18.828125 12.890625 
Q 22.859375 7.515625 30.078125 7.515625 
Q 37.359375 7.515625 41.375 12.890625 
Q 45.40625 18.265625 45.40625 27.984375 
z
M 54.390625 6.78125 
Q 54.390625 -7.171875 48.1875 -13.984375 
Q 42 -20.796875 29.203125 -20.796875 
Q 24.46875 -20.796875 20.265625 -20.09375 
Q 16.0625 -19.390625 12.109375 -17.921875 
L 12.109375 -9.1875 
Q 16.0625 -11.328125 19.921875 -12.34375 
Q 23.78125 -13.375 27.78125 -13.375 
Q 36.625 -13.375 41.015625 -8.765625 
Q 45.40625 -4.15625 45.40625 5.171875 
L 45.40625 9.625 
Q 42.625 4.78125 38.28125 2.390625 
Q 33.9375 0 27.875 0 
Q 17.828125 0 11.671875 7.65625 
Q 5.515625 15.328125 5.515625 27.984375 
Q 5.515625 40.671875 11.671875 48.328125 
Q 17.828125 56 27.875 56 
Q 33.9375 56 38.28125 53.609375 
Q 42.625 51.21875 45.40625 46.390625 
L 45.40625 54.6875 
L 54.390625 54.6875 
z
" id="DejaVuSans-103"/>
      <path d="M 31.78125 66.40625 
Q 24.171875 66.40625 20.328125 58.90625 
Q 16.5 51.421875 16.5 36.375 
Q 16.5 21.390625 20.328125 13.890625 
Q 24.171875 6.390625 31.78125 6.390625 
Q 39.453125 6.390625 43.28125 13.890625 
Q 47.125 21.390625 47.125 36.375 
Q 47.125 51.421875 43.28125 58.90625 
Q 39.453125 66.40625 31.78125 66.40625 
z
M 31.78125 74.21875 
Q 44.046875 74.21875 50.515625 64.515625 
Q 56.984375 54.828125 56.984375 36.375 
Q 56.984375 17.96875 50.515625 8.265625 
Q 44.046875 -1.421875 31.78125 -1.421875 
Q 19.53125 -1.421875 13.0625 8.265625 
Q 6.59375 17.96875 6.59375 36.375 
Q 6.59375 54.828125 13.0625 64.515625 
Q 19.53125 74.21875 31.78125 74.21875 
z
" id="DejaVuSans-48"/>
      <path id="DejaVuSans-32"/>
      <path d="M 18.109375 8.203125 
L 18.109375 -20.796875 
L 9.078125 -20.796875 
L 9.078125 54.6875 
L 18.109375 54.6875 
L 18.109375 46.390625 
Q 20.953125 51.265625 25.265625 53.625 
Q 29.59375 56 35.59375 56 
Q 45.5625 56 51.78125 48.09375 
Q 58.015625 40.1875 58.015625 27.296875 
Q 58.015625 14.40625 51.78125 6.484375 
Q 45.5625 -1.421875 35.59375 -1.421875 
Q 29.59375 -1.421875 25.265625 0.953125 
Q 20.953125 3.328125 18.109375 8.203125 
z
M 48.6875 27.296875 
Q 48.6875 37.203125 44.609375 42.84375 
Q 40.53125 48.484375 33.40625 48.484375 
Q 26.265625 48.484375 22.1875 42.84375 
Q 18.109375 37.203125 18.109375 27.296875 
Q 18.109375 17.390625 22.1875 11.75 
Q 26.265625 6.109375 33.40625 6.109375 
Q 40.53125 6.109375 44.609375 11.75 
Q 48.6875 17.390625 48.6875 27.296875 
z
" id="DejaVuSans-112"/>
      <path d="M 2.984375 54.6875 
L 12.5 54.6875 
L 29.59375 8.796875 
L 46.6875 54.6875 
L 56.203125 54.6875 
L 35.6875 0 
L 23.484375 0 
z
" id="DejaVuSans-118"/>
      <path d="M 34.28125 27.484375 
Q 23.390625 27.484375 19.1875 25 
Q 14.984375 22.515625 14.984375 16.5 
Q 14.984375 11.71875 18.140625 8.90625 
Q 21.296875 6.109375 26.703125 6.109375 
Q 34.1875 6.109375 38.703125 11.40625 
Q 43.21875 16.703125 43.21875 25.484375 
L 43.21875 27.484375 
z
M 52.203125 31.203125 
L 52.203125 0 
L 43.21875 0 
L 43.21875 8.296875 
Q 40.140625 3.328125 35.546875 0.953125 
Q 30.953125 -1.421875 24.3125 -1.421875 
Q 15.921875 -1.421875 10.953125 3.296875 
Q 6 8.015625 6 15.921875 
Q 6 25.140625 12.171875 29.828125 
Q 18.359375 34.515625 30.609375 34.515625 
L 43.21875 34.515625 
L 43.21875 35.40625 
Q 43.21875 41.609375 39.140625 45 
Q 35.0625 48.390625 27.6875 48.390625 
Q 23 48.390625 18.546875 47.265625 
Q 14.109375 46.140625 10.015625 43.890625 
L 10.015625 52.203125 
Q 14.9375 54.109375 19.578125 55.046875 
Q 24.21875 56 28.609375 56 
Q 40.484375 56 46.34375 49.84375 
Q 52.203125 43.703125 52.203125 31.203125 
z
" id="DejaVuSans-97"/>
      <path d="M 8.5 21.578125 
L 8.5 54.6875 
L 17.484375 54.6875 
L 17.484375 21.921875 
Q 17.484375 14.15625 20.5 10.265625 
Q 23.53125 6.390625 29.59375 6.390625 
Q 36.859375 6.390625 41.078125 11.03125 
Q 45.3125 15.671875 45.3125 23.6875 
L 45.3125 54.6875 
L 54.296875 54.6875 
L 54.296875 0 
L 45.3125 0 
L 45.3125 8.40625 
Q 42.046875 3.421875 37.71875 1 
Q 33.40625 -1.421875 27.6875 -1.421875 
Q 18.265625 -1.421875 13.375 4.4375 
Q 8.5 10.296875 8.5 21.578125 
z
M 31.109375 56 
z
" id="DejaVuSans-117"/>
      <path d="M 56.203125 29.59375 
L 56.203125 25.203125 
L 14.890625 25.203125 
Q 15.484375 15.921875 20.484375 11.0625 
Q 25.484375 6.203125 34.421875 6.203125 
Q 39.59375 6.203125 44.453125 7.46875 
Q 49.3125 8.734375 54.109375 11.28125 
L 54.109375 2.78125 
Q 49.265625 0.734375 44.1875 -0.34375 
Q 39.109375 -1.421875 33.890625 -1.421875 
Q 20.796875 -1.421875 13.15625 6.1875 
Q 5.515625 13.8125 5.515625 26.8125 
Q 5.515625 40.234375 12.765625 48.109375 
Q 20.015625 56 32.328125 56 
Q 43.359375 56 49.78125 48.890625 
Q 56.203125 41.796875 56.203125 29.59375 
z
M 47.21875 32.234375 
Q 47.125 39.59375 43.09375 43.984375 
Q 39.0625 48.390625 32.421875 48.390625 
Q 24.90625 48.390625 20.390625 44.140625 
Q 15.875 39.890625 15.1875 32.171875 
z
" id="DejaVuSans-101"/>
     </defs>
     <g transform="translate(125.77875 339.874375)scale(0.28 -0.28)">
      <use xlink:href="#DejaVuSans-45"/>
      <use x="36.083984" xlink:href="#DejaVuSans-108"/>
      <use x="63.867188" xlink:href="#DejaVuSans-111"/>
      <use x="125.048828" xlink:href="#DejaVuSans-103"/>
      <use x="188.525391" xlink:href="#DejaVuSans-49"/>
      <use x="252.148438" xlink:href="#DejaVuSans-48"/>
      <use x="315.771484" xlink:href="#DejaVuSans-32"/>
      <use x="347.558594" xlink:href="#DejaVuSans-112"/>
      <use x="411.035156" xlink:href="#DejaVuSans-45"/>
      <use x="447.087891" xlink:href="#DejaVuSans-118"/>
      <use x="506.267578" xlink:href="#DejaVuSans-97"/>
      <use x="567.546875" xlink:href="#DejaVuSans-108"/>
      <use x="595.330078" xlink:href="#DejaVuSans-117"/>
      <use x="658.708984" xlink:href="#DejaVuSans-101"/>
     </g>
    </g>
   </g>
   <g id="matplotlib.axis_2">
    <g id="ytick_1">
     <g id="line2d_6">
      <defs>
       <path d="M 0 0 
L -5 0 
" id="m12413c0ff6" style="stroke:#000000;stroke-width:0.8;"/>
      </defs>
      <g>
       <use style="stroke:#000000;stroke-width:0.8;" x="64.61375" xlink:href="#m12413c0ff6" y="262.0125"/>
      </g>
     </g>
     <g id="text_7">
      <!-- 1 -->
      <g transform="translate(38.29875 272.650312)scale(0.28 -0.28)">
       <use xlink:href="#DejaVuSans-49"/>
      </g>
     </g>
    </g>
    <g id="ytick_2">
     <g id="line2d_7">
      <g>
       <use style="stroke:#000000;stroke-width:0.8;" x="64.61375" xlink:href="#m12413c0ff6" y="148.7625"/>
      </g>
     </g>
     <g id="text_8">
      <!-- 2 -->
      <g transform="translate(38.29875 159.400312)scale(0.28 -0.28)">
       <use xlink:href="#DejaVuSans-50"/>
      </g>
     </g>
    </g>
    <g id="ytick_3">
     <g id="line2d_8">
      <g>
       <use style="stroke:#000000;stroke-width:0.8;" x="64.61375" xlink:href="#m12413c0ff6" y="35.5125"/>
      </g>
     </g>
     <g id="text_9">
      <!-- 3 -->
      <g transform="translate(38.29875 46.150312)scale(0.28 -0.28)">
       <use xlink:href="#DejaVuSans-51"/>
      </g>
     </g>
    </g>
    <g id="text_10">
     <!-- fold enrichment -->
     <defs>
      <path d="M 37.109375 75.984375 
L 37.109375 68.5 
L 28.515625 68.5 
Q 23.6875 68.5 21.796875 66.546875 
Q 19.921875 64.59375 19.921875 59.515625 
L 19.921875 54.6875 
L 34.71875 54.6875 
L 34.71875 47.703125 
L 19.921875 47.703125 
L 19.921875 0 
L 10.890625 0 
L 10.890625 47.703125 
L 2.296875 47.703125 
L 2.296875 54.6875 
L 10.890625 54.6875 
L 10.890625 58.5 
Q 10.890625 67.625 15.140625 71.796875 
Q 19.390625 75.984375 28.609375 75.984375 
z
" id="DejaVuSans-102"/>
      <path d="M 45.40625 46.390625 
L 45.40625 75.984375 
L 54.390625 75.984375 
L 54.390625 0 
L 45.40625 0 
L 45.40625 8.203125 
Q 42.578125 3.328125 38.25 0.953125 
Q 33.9375 -1.421875 27.875 -1.421875 
Q 17.96875 -1.421875 11.734375 6.484375 
Q 5.515625 14.40625 5.515625 27.296875 
Q 5.515625 40.1875 11.734375 48.09375 
Q 17.96875 56 27.875 56 
Q 33.9375 56 38.25 53.625 
Q 42.578125 51.265625 45.40625 46.390625 
z
M 14.796875 27.296875 
Q 14.796875 17.390625 18.875 11.75 
Q 22.953125 6.109375 30.078125 6.109375 
Q 37.203125 6.109375 41.296875 11.75 
Q 45.40625 17.390625 45.40625 27.296875 
Q 45.40625 37.203125 41.296875 42.84375 
Q 37.203125 48.484375 30.078125 48.484375 
Q 22.953125 48.484375 18.875 42.84375 
Q 14.796875 37.203125 14.796875 27.296875 
z
" id="DejaVuSans-100"/>
      <path d="M 54.890625 33.015625 
L 54.890625 0 
L 45.90625 0 
L 45.90625 32.71875 
Q 45.90625 40.484375 42.875 44.328125 
Q 39.84375 48.1875 33.796875 48.1875 
Q 26.515625 48.1875 22.3125 43.546875 
Q 18.109375 38.921875 18.109375 30.90625 
L 18.109375 0 
L 9.078125 0 
L 9.078125 54.6875 
L 18.109375 54.6875 
L 18.109375 46.1875 
Q 21.34375 51.125 25.703125 53.5625 
Q 30.078125 56 35.796875 56 
Q 45.21875 56 50.046875 50.171875 
Q 54.890625 44.34375 54.890625 33.015625 
z
" id="DejaVuSans-110"/>
      <path d="M 41.109375 46.296875 
Q 39.59375 47.171875 37.8125 47.578125 
Q 36.03125 48 33.890625 48 
Q 26.265625 48 22.1875 43.046875 
Q 18.109375 38.09375 18.109375 28.8125 
L 18.109375 0 
L 9.078125 0 
L 9.078125 54.6875 
L 18.109375 54.6875 
L 18.109375 46.1875 
Q 20.953125 51.171875 25.484375 53.578125 
Q 30.03125 56 36.53125 56 
Q 37.453125 56 38.578125 55.875 
Q 39.703125 55.765625 41.0625 55.515625 
z
" id="DejaVuSans-114"/>
      <path d="M 9.421875 54.6875 
L 18.40625 54.6875 
L 18.40625 0 
L 9.421875 0 
z
M 9.421875 75.984375 
L 18.40625 75.984375 
L 18.40625 64.59375 
L 9.421875 64.59375 
z
" id="DejaVuSans-105"/>
      <path d="M 48.78125 52.59375 
L 48.78125 44.1875 
Q 44.96875 46.296875 41.140625 47.34375 
Q 37.3125 48.390625 33.40625 48.390625 
Q 24.65625 48.390625 19.8125 42.84375 
Q 14.984375 37.3125 14.984375 27.296875 
Q 14.984375 17.28125 19.8125 11.734375 
Q 24.65625 6.203125 33.40625 6.203125 
Q 37.3125 6.203125 41.140625 7.25 
Q 44.96875 8.296875 48.78125 10.40625 
L 48.78125 2.09375 
Q 45.015625 0.34375 40.984375 -0.53125 
Q 36.96875 -1.421875 32.421875 -1.421875 
Q 20.0625 -1.421875 12.78125 6.34375 
Q 5.515625 14.109375 5.515625 27.296875 
Q 5.515625 40.671875 12.859375 48.328125 
Q 20.21875 56 33.015625 56 
Q 37.15625 56 41.109375 55.140625 
Q 45.0625 54.296875 48.78125 52.59375 
z
" id="DejaVuSans-99"/>
      <path d="M 54.890625 33.015625 
L 54.890625 0 
L 45.90625 0 
L 45.90625 32.71875 
Q 45.90625 40.484375 42.875 44.328125 
Q 39.84375 48.1875 33.796875 48.1875 
Q 26.515625 48.1875 22.3125 43.546875 
Q 18.109375 38.921875 18.109375 30.90625 
L 18.109375 0 
L 9.078125 0 
L 9.078125 75.984375 
L 18.109375 75.984375 
L 18.109375 46.1875 
Q 21.34375 51.125 25.703125 53.5625 
Q 30.078125 56 35.796875 56 
Q 45.21875 56 50.046875 50.171875 
Q 54.890625 44.34375 54.890625 33.015625 
z
" id="DejaVuSans-104"/>
      <path d="M 52 44.1875 
Q 55.375 50.25 60.0625 53.125 
Q 64.75 56 71.09375 56 
Q 79.640625 56 84.28125 50.015625 
Q 88.921875 44.046875 88.921875 33.015625 
L 88.921875 0 
L 79.890625 0 
L 79.890625 32.71875 
Q 79.890625 40.578125 77.09375 44.375 
Q 74.3125 48.1875 68.609375 48.1875 
Q 61.625 48.1875 57.5625 43.546875 
Q 53.515625 38.921875 53.515625 30.90625 
L 53.515625 0 
L 44.484375 0 
L 44.484375 32.71875 
Q 44.484375 40.625 41.703125 44.40625 
Q 38.921875 48.1875 33.109375 48.1875 
Q 26.21875 48.1875 22.15625 43.53125 
Q 18.109375 38.875 18.109375 30.90625 
L 18.109375 0 
L 9.078125 0 
L 9.078125 54.6875 
L 18.109375 54.6875 
L 18.109375 46.1875 
Q 21.1875 51.21875 25.484375 53.609375 
Q 29.78125 56 35.6875 56 
Q 41.65625 56 45.828125 52.96875 
Q 50 49.953125 52 44.1875 
z
" id="DejaVuSans-109"/>
      <path d="M 18.3125 70.21875 
L 18.3125 54.6875 
L 36.8125 54.6875 
L 36.8125 47.703125 
L 18.3125 47.703125 
L 18.3125 18.015625 
Q 18.3125 11.328125 20.140625 9.421875 
Q 21.96875 7.515625 27.59375 7.515625 
L 36.8125 7.515625 
L 36.8125 0 
L 27.59375 0 
Q 17.1875 0 13.234375 3.875 
Q 9.28125 7.765625 9.28125 18.015625 
L 9.28125 47.703125 
L 2.6875 47.703125 
L 2.6875 54.6875 
L 9.28125 54.6875 
L 9.28125 70.21875 
z
" id="DejaVuSans-116"/>
     </defs>
     <g transform="translate(28.475625 254.135312)rotate(-90)scale(0.28 -0.28)">
      <use xlink:href="#DejaVuSans-102"/>
      <use x="35.205078" xlink:href="#DejaVuSans-111"/>
      <use x="96.386719" xlink:href="#DejaVuSans-108"/>
      <use x="124.169922" xlink:href="#DejaVuSans-100"/>
      <use x="187.646484" xlink:href="#DejaVuSans-32"/>
      <use x="219.433594" xlink:href="#DejaVuSans-101"/>
      <use x="280.957031" xlink:href="#DejaVuSans-110"/>
      <use x="344.335938" xlink:href="#DejaVuSans-114"/>
      <use x="385.449219" xlink:href="#DejaVuSans-105"/>
      <use x="413.232422" xlink:href="#DejaVuSans-99"/>
      <use x="468.212891" xlink:href="#DejaVuSans-104"/>
      <use x="531.591797" xlink:href="#DejaVuSans-109"/>
      <use x="629.003906" xlink:href="#DejaVuSans-101"/>
      <use x="690.527344" xlink:href="#DejaVuSans-110"/>
      <use x="753.90625" xlink:href="#DejaVuSans-116"/>
     </g>
    </g>
   </g>
   <g id="line2d_9">
    <path clip-path="url(#pa427da9c6f)" d="M 79.341023 200.672331 
L 83.022841 198.314174 
L 86.704659 192.980625 
L 90.386477 191.896904 
L 94.068295 190.072371 
L 97.750114 182.894459 
L 101.431932 179.893011 
L 105.11375 174.667078 
L 108.795568 172.901314 
L 112.477386 167.879924 
L 116.159205 165.565387 
L 119.841023 160.28697 
L 123.522841 155.766456 
L 127.204659 152.625368 
L 130.886477 147.677876 
L 134.568295 146.981594 
L 138.250114 144.652197 
L 141.931932 141.067581 
L 145.61375 137.369767 
L 149.295568 131.598784 
L 152.977386 133.113034 
L 156.659205 129.759163 
L 160.341023 126.311083 
L 164.022841 119.115955 
L 167.704659 116.120089 
L 171.386477 113.053315 
L 175.068295 110.4632 
L 178.750114 107.194073 
L 182.431932 103.843217 
L 186.11375 98.656862 
L 189.795568 94.181042 
L 193.477386 88.615073 
L 197.159205 88.792344 
L 200.841023 83.887033 
L 204.522841 85.994784 
L 208.204659 75.58947 
L 211.886477 70.100953 
L 215.568295 69.882095 
L 219.250114 65.237526 
L 222.931932 61.660315 
L 226.61375 61.23087 
L 230.295568 66.683691 
L 233.977386 62.889689 
L 237.659205 59.001231 
L 241.341023 61.142535 
L 245.022841 61.142535 
L 248.704659 64.690287 
L 252.386477 63.35736 
L 256.068295 60.656882 
L 259.750114 72.065879 
L 263.431932 65.267749 
L 267.11375 61.040548 
L 270.795568 58.157777 
L 274.477386 56.696465 
L 278.159205 47.637715 
L 281.841023 52.983574 
L 285.522841 48.97513 
L 289.204659 48.97513 
L 292.886477 45.69586 
L 296.568295 42.350006 
L 300.250114 40.651473 
L 303.931932 40.651473 
L 307.61375 37.201874 
L 311.295568 33.68041 
L 314.977386 33.68041 
L 318.659205 26.412706 
L 322.341023 30.336947 
L 326.022841 30.336947 
L 329.704659 24.651361 
L 333.386477 24.651361 
L 337.068295 22.714283 
L 340.750114 20.755682 
L 344.431932 14.747092 
L 348.11375 12.698709 
L 351.795568 6.411475 
L 355.477386 14.572423 
L 359.159205 12.463125 
L 362.841023 20.755682 
L 366.522841 27.086161 
L 370.204659 25.001272 
L 373.886477 29.40219 
" style="fill:none;stroke:#8b0000;stroke-linecap:square;stroke-width:2;"/>
   </g>
   <g id="line2d_10">
    <path clip-path="url(#pa427da9c6f)" d="M 79.341023 222.961015 
L 83.022841 221.013493 
L 86.704659 218.267118 
L 90.386477 216.510924 
L 94.068295 217.074208 
L 97.750114 210.942879 
L 101.431932 207.495673 
L 105.11375 203.008083 
L 108.795568 200.542903 
L 112.477386 195.19828 
L 116.159205 194.386489 
L 119.841023 189.833546 
L 123.522841 189.695825 
L 127.204659 187.309311 
L 130.886477 185.782641 
L 134.568295 182.831429 
L 138.250114 182.236823 
L 141.931932 180.62668 
L 145.61375 178.96569 
L 149.295568 175.650238 
L 152.977386 174.389521 
L 156.659205 171.607347 
L 160.341023 171.761846 
L 164.022841 165.880324 
L 167.704659 163.43141 
L 171.386477 162.512222 
L 175.068295 159.29812 
L 178.750114 158.288186 
L 182.431932 157.253003 
L 186.11375 158.214339 
L 189.795568 154.702232 
L 193.477386 152.105787 
L 197.159205 153.018164 
L 200.841023 151.050415 
L 204.522841 149.799687 
L 208.204659 145.550224 
L 211.886477 143.30875 
L 215.568295 146.135838 
L 219.250114 146.731925 
L 222.931932 148.223024 
L 226.61375 149.19814 
L 230.295568 153.65459 
L 233.977386 150.929903 
L 237.659205 150.364098 
L 241.341023 148.832643 
L 245.022841 148.832643 
L 248.704659 150.516352 
L 252.386477 149.551776 
L 256.068295 149.920682 
L 259.750114 151.663016 
L 263.431932 151.462478 
L 267.11375 150.849927 
L 270.795568 148.791096 
L 274.477386 147.747449 
L 278.159205 141.277827 
L 281.841023 141.606389 
L 285.522841 148.32571 
L 289.204659 148.32571 
L 292.886477 146.044939 
L 296.568295 146.441911 
L 300.250114 145.274459 
L 303.931932 145.274459 
L 307.61375 145.669628 
L 311.295568 143.278035 
L 314.977386 143.278035 
L 318.659205 138.342196 
L 322.341023 137.400995 
L 326.022841 137.400995 
L 329.704659 136.428766 
L 333.386477 136.428766 
L 337.068295 135.109242 
L 340.750114 136.756384 
L 344.431932 135.745765 
L 348.11375 137.433958 
L 351.795568 139.51368 
L 355.477386 141.26304 
L 359.159205 139.894622 
L 362.841023 141.666804 
L 366.522841 145.274459 
L 370.204659 143.897285 
L 373.886477 146.20937 
" style="fill:none;stroke:#000080;stroke-linecap:square;stroke-width:2;"/>
   </g>
   <g id="line2d_11">
    <path clip-path="url(#pa427da9c6f)" d="M 79.341023 262.0125 
L 373.886477 262.0125 
" style="fill:none;stroke:#0000ff;stroke-dasharray:3.7,1.6;stroke-dashoffset:0;"/>
   </g>
   <g id="patch_3">
    <path d="M 64.61375 279 
L 64.61375 7.2 
" style="fill:none;stroke:#000000;stroke-linecap:square;stroke-linejoin:miter;"/>
   </g>
   <g id="patch_4">
    <path d="M 64.61375 279 
L 388.61375 279 
" style="fill:none;stroke:#000000;stroke-linecap:square;stroke-linejoin:miter;"/>
   </g>
  </g>
  <g id="axes_2">
   <g id="patch_5">
    <path d="M 404.81375 279 
L 728.81375 279 
L 728.81375 7.2 
L 404.81375 7.2 
z
" style="fill:none;"/>
   </g>
   <g id="matplotlib.axis_3">
    <g id="xtick_6">
     <g id="line2d_12">
      <g>
       <use style="stroke:#000000;stroke-width:0.8;" x="419.541023" xlink:href="#mbcdcf24009" y="279"/>
      </g>
     </g>
     <g id="text_11">
      <!-- 1 -->
      <g transform="translate(410.633523 308.775625)scale(0.28 -0.28)">
       <use xlink:href="#DejaVuSans-49"/>
      </g>
     </g>
    </g>
    <g id="xtick_7">
     <g id="line2d_13">
      <g>
       <use style="stroke:#000000;stroke-width:0.8;" x="493.177386" xlink:href="#mbcdcf24009" y="279"/>
      </g>
     </g>
     <g id="text_12">
      <!-- 2 -->
      <g transform="translate(484.269886 308.775625)scale(0.28 -0.28)">
       <use xlink:href="#DejaVuSans-50"/>
      </g>
     </g>
    </g>
    <g id="xtick_8">
     <g id="line2d_14">
      <g>
       <use style="stroke:#000000;stroke-width:0.8;" x="566.81375" xlink:href="#mbcdcf24009" y="279"/>
      </g>
     </g>
     <g id="text_13">
      <!-- 3 -->
      <g transform="translate(557.90625 308.775625)scale(0.28 -0.28)">
       <use xlink:href="#DejaVuSans-51"/>
      </g>
     </g>
    </g>
    <g id="xtick_9">
     <g id="line2d_15">
      <g>
       <use style="stroke:#000000;stroke-width:0.8;" x="640.450114" xlink:href="#mbcdcf24009" y="279"/>
      </g>
     </g>
     <g id="text_14">
      <!-- 4 -->
      <g transform="translate(631.542614 308.775625)scale(0.28 -0.28)">
       <use xlink:href="#DejaVuSans-52"/>
      </g>
     </g>
    </g>
    <g id="xtick_10">
     <g id="line2d_16">
      <g>
       <use style="stroke:#000000;stroke-width:0.8;" x="714.086477" xlink:href="#mbcdcf24009" y="279"/>
      </g>
     </g>
     <g id="text_15">
      <!-- 5 -->
      <g transform="translate(705.178977 308.775625)scale(0.28 -0.28)">
       <use xlink:href="#DejaVuSans-53"/>
      </g>
     </g>
    </g>
    <g id="text_16">
     <!-- -log10 p-value -->
     <g transform="translate(465.97875 339.874375)scale(0.28 -0.28)">
      <use xlink:href="#DejaVuSans-45"/>
      <use x="36.083984" xlink:href="#DejaVuSans-108"/>
      <use x="63.867188" xlink:href="#DejaVuSans-111"/>
      <use x="125.048828" xlink:href="#DejaVuSans-103"/>
      <use x="188.525391" xlink:href="#DejaVuSans-49"/>
      <use x="252.148438" xlink:href="#DejaVuSans-48"/>
      <use x="315.771484" xlink:href="#DejaVuSans-32"/>
      <use x="347.558594" xlink:href="#DejaVuSans-112"/>
      <use x="411.035156" xlink:href="#DejaVuSans-45"/>
      <use x="447.087891" xlink:href="#DejaVuSans-118"/>
      <use x="506.267578" xlink:href="#DejaVuSans-97"/>
      <use x="567.546875" xlink:href="#DejaVuSans-108"/>
      <use x="595.330078" xlink:href="#DejaVuSans-117"/>
      <use x="658.708984" xlink:href="#DejaVuSans-101"/>
     </g>
    </g>
   </g>
   <g id="matplotlib.axis_4">
    <g id="ytick_4"/>
    <g id="ytick_5"/>
    <g id="ytick_6"/>
   </g>
   <g id="line2d_17">
    <path clip-path="url(#pdac7d2a5d9)" d="M 419.541023 219.904047 
L 423.222841 222.392005 
L 426.904659 216.596158 
L 430.586477 214.457166 
L 434.268295 209.796824 
L 437.950114 209.077184 
L 441.631932 207.260847 
L 445.31375 207.388799 
L 448.995568 203.16379 
L 452.677386 202.871365 
L 456.359205 197.440728 
L 460.041023 195.465951 
L 463.722841 196.309135 
L 467.404659 197.156828 
L 471.086477 199.894438 
L 474.768295 200.262086 
L 478.450114 202.142746 
L 482.131932 201.4227 
L 485.81375 198.91033 
L 489.495568 198.236111 
L 493.177386 195.465951 
L 496.859205 192.290403 
L 500.541023 194.535969 
L 504.222841 198.123043 
L 507.904659 199.381666 
L 511.586477 200.673851 
L 515.268295 200.976957 
L 518.950114 195.99737 
L 522.631932 187.970573 
L 526.31375 189.26607 
L 529.995568 190.601429 
L 533.677386 187.7161 
L 537.359205 189.069249 
L 541.041023 189.069249 
L 544.722841 191.908643 
L 548.404659 193.399324 
L 552.086477 187.12818 
L 555.768295 188.347569 
L 559.450114 178.85027 
L 563.131932 180.409097 
L 566.81375 183.725751 
L 570.495568 183.725751 
L 574.177386 183.725751 
L 577.859205 179.561909 
L 581.541023 175.213007 
L 585.222841 175.213007 
L 588.904659 170.666427 
L 592.586477 170.666427 
L 596.268295 165.908379 
L 599.950114 170.666427 
L 603.631932 172.415112 
L 607.31375 176.196051 
L 610.995568 170.666427 
L 614.677386 172.614961 
L 618.359205 172.614961 
L 622.041023 176.866308 
L 625.722841 176.866308 
L 629.404659 179.191264 
L 633.086477 181.666216 
L 636.768295 184.306166 
L 640.450114 184.306166 
L 644.131932 184.306166 
L 647.81375 184.306166 
L 651.495568 187.12818 
L 655.177386 187.12818 
L 658.859205 187.12818 
L 662.541023 173.192305 
L 666.222841 173.192305 
L 669.904659 173.192305 
L 673.586477 173.192305 
L 677.268295 175.912481 
L 680.950114 175.912481 
L 684.631932 175.912481 
L 688.31375 175.912481 
L 691.995568 175.912481 
L 695.677386 175.912481 
L 699.359205 175.912481 
L 703.041023 178.85027 
L 706.722841 178.85027 
L 710.404659 178.85027 
L 714.086477 178.85027 
" style="fill:none;stroke:#8b0000;stroke-linecap:square;stroke-width:2;"/>
   </g>
   <g id="line2d_18">
    <path clip-path="url(#pdac7d2a5d9)" d="M 419.541023 180.587612 
L 423.222841 186.5125 
L 426.904659 175.919388 
L 430.586477 174.194079 
L 434.268295 166.502937 
L 437.950114 165.684914 
L 441.631932 163.494207 
L 445.31375 158.2 
L 448.995568 159.656795 
L 452.677386 164.229514 
L 456.359205 150.160648 
L 460.041023 151.622348 
L 463.722841 146.0445 
L 467.404659 145.642665 
L 471.086477 134.943304 
L 474.768295 121.34033 
L 478.450114 116.457212 
L 482.131932 111.382598 
L 485.81375 112.156439 
L 489.495568 98.161436 
L 493.177386 89.134659 
L 496.859205 68.198476 
L 500.541023 71.375 
L 504.222841 93.363149 
L 507.904659 89.653947 
L 511.586477 85.845833 
L 515.268295 85.845833 
L 518.950114 77.576786 
L 522.631932 64.247575 
L 526.31375 72.69053 
L 529.995568 81.393269 
L 533.677386 76.801562 
L 537.359205 72.064087 
L 541.041023 72.064087 
L 544.722841 62.123156 
L 548.404659 71.375 
L 552.086477 60.896121 
L 555.768295 85.845833 
L 559.450114 62.6925 
L 563.131932 74.032908 
L 566.81375 98.161436 
L 570.495568 98.161436 
L 574.177386 98.161436 
L 577.859205 92.1375 
L 581.541023 85.845833 
L 585.222841 85.845833 
L 588.904659 79.268182 
L 592.586477 79.268182 
L 596.268295 72.384593 
L 599.950114 71.375 
L 603.631932 63.583013 
L 607.31375 46.735473 
L 610.995568 37.609722 
L 614.677386 27.9625 
L 618.359205 27.9625 
L 622.041023 33.224621 
L 625.722841 33.224621 
L 629.404659 22.535937 
L 633.086477 39.165726 
L 636.768295 56.904167 
L 640.450114 56.904167 
L 644.131932 56.904167 
L 647.81375 56.904167 
L 651.495568 45.926293 
L 655.177386 45.926293 
L 658.859205 45.926293 
L 662.541023 21.531019 
L 666.222841 21.531019 
L 669.904659 21.531019 
L 673.586477 21.531019 
L 677.268295 41.320192 
L 680.950114 41.320192 
L 684.631932 41.320192 
L 688.31375 41.320192 
L 691.995568 41.320192 
L 695.677386 41.320192 
L 699.359205 41.320192 
L 703.041023 62.6925 
L 706.722841 62.6925 
L 710.404659 62.6925 
L 714.086477 62.6925 
" style="fill:none;stroke:#000080;stroke-linecap:square;stroke-width:2;"/>
   </g>
   <g id="line2d_19">
    <path clip-path="url(#pdac7d2a5d9)" d="M 419.541023 262.0125 
L 714.086477 262.0125 
" style="fill:none;stroke:#0000ff;stroke-dasharray:3.7,1.6;stroke-dashoffset:0;"/>
   </g>
   <g id="patch_6">
    <path d="M 404.81375 279 
L 404.81375 7.2 
" style="fill:none;stroke:#000000;stroke-linecap:square;stroke-linejoin:miter;"/>
   </g>
   <g id="patch_7">
    <path d="M 404.81375 279 
L 728.81375 279 
" style="fill:none;stroke:#000000;stroke-linecap:square;stroke-linejoin:miter;"/>
   </g>
  </g>
  <g id="axes_3">
   <g id="patch_8">
    <path d="M 745.01375 279 
L 1069.01375 279 
L 1069.01375 7.2 
L 745.01375 7.2 
z
" style="fill:none;"/>
   </g>
   <g id="matplotlib.axis_5">
    <g id="xtick_11">
     <g id="line2d_20">
      <g>
       <use style="stroke:#000000;stroke-width:0.8;" x="759.741023" xlink:href="#mbcdcf24009" y="279"/>
      </g>
     </g>
     <g id="text_17">
      <!-- 1 -->
      <g transform="translate(750.833523 308.775625)scale(0.28 -0.28)">
       <use xlink:href="#DejaVuSans-49"/>
      </g>
     </g>
    </g>
    <g id="xtick_12">
     <g id="line2d_21">
      <g>
       <use style="stroke:#000000;stroke-width:0.8;" x="833.377386" xlink:href="#mbcdcf24009" y="279"/>
      </g>
     </g>
     <g id="text_18">
      <!-- 2 -->
      <g transform="translate(824.469886 308.775625)scale(0.28 -0.28)">
       <use xlink:href="#DejaVuSans-50"/>
      </g>
     </g>
    </g>
    <g id="xtick_13">
     <g id="line2d_22">
      <g>
       <use style="stroke:#000000;stroke-width:0.8;" x="907.01375" xlink:href="#mbcdcf24009" y="279"/>
      </g>
     </g>
     <g id="text_19">
      <!-- 3 -->
      <g transform="translate(898.10625 308.775625)scale(0.28 -0.28)">
       <use xlink:href="#DejaVuSans-51"/>
      </g>
     </g>
    </g>
    <g id="xtick_14">
     <g id="line2d_23">
      <g>
       <use style="stroke:#000000;stroke-width:0.8;" x="980.650114" xlink:href="#mbcdcf24009" y="279"/>
      </g>
     </g>
     <g id="text_20">
      <!-- 4 -->
      <g transform="translate(971.742614 308.775625)scale(0.28 -0.28)">
       <use xlink:href="#DejaVuSans-52"/>
      </g>
     </g>
    </g>
    <g id="xtick_15">
     <g id="line2d_24">
      <g>
       <use style="stroke:#000000;stroke-width:0.8;" x="1054.286477" xlink:href="#mbcdcf24009" y="279"/>
      </g>
     </g>
     <g id="text_21">
      <!-- 5 -->
      <g transform="translate(1045.378977 308.775625)scale(0.28 -0.28)">
       <use xlink:href="#DejaVuSans-53"/>
      </g>
     </g>
    </g>
    <g id="text_22">
     <!-- -log10 p-value -->
     <g transform="translate(806.17875 339.874375)scale(0.28 -0.28)">
      <use xlink:href="#DejaVuSans-45"/>
      <use x="36.083984" xlink:href="#DejaVuSans-108"/>
      <use x="63.867188" xlink:href="#DejaVuSans-111"/>
      <use x="125.048828" xlink:href="#DejaVuSans-103"/>
      <use x="188.525391" xlink:href="#DejaVuSans-49"/>
      <use x="252.148438" xlink:href="#DejaVuSans-48"/>
      <use x="315.771484" xlink:href="#DejaVuSans-32"/>
      <use x="347.558594" xlink:href="#DejaVuSans-112"/>
      <use x="411.035156" xlink:href="#DejaVuSans-45"/>
      <use x="447.087891" xlink:href="#DejaVuSans-118"/>
      <use x="506.267578" xlink:href="#DejaVuSans-97"/>
      <use x="567.546875" xlink:href="#DejaVuSans-108"/>
      <use x="595.330078" xlink:href="#DejaVuSans-117"/>
      <use x="658.708984" xlink:href="#DejaVuSans-101"/>
     </g>
    </g>
   </g>
   <g id="matplotlib.axis_6">
    <g id="ytick_7"/>
    <g id="ytick_8"/>
    <g id="ytick_9"/>
   </g>
   <g id="line2d_25">
    <path clip-path="url(#pa57c77ebcb)" d="M 759.741023 258.732862 
L 763.422841 258.732862 
L 767.104659 258.776045 
L 770.786477 258.39992 
L 774.468295 258.454659 
L 778.150114 258.482701 
L 781.831932 258.569655 
L 785.51375 258.156339 
L 789.195568 258.183613 
L 792.877386 258.239615 
L 796.559205 258.268369 
L 800.241023 258.312481 
L 803.922841 258.388736 
L 807.604659 257.9098 
L 811.286477 257.93759 
L 814.968295 257.965923 
L 818.650114 257.980297 
L 822.331932 258.024279 
L 826.01375 258.116303 
L 829.695568 258.164472 
L 833.377386 257.578037 
L 837.059205 257.633054 
L 840.741023 257.690503 
L 844.422841 257.735283 
L 848.104659 257.765985 
L 851.786477 257.813369 
L 855.468295 257.896103 
L 859.150114 257.930593 
L 862.831932 257.2738 
L 866.51375 257.316337 
L 870.195568 257.330878 
L 873.877386 257.330878 
L 877.559205 257.360521 
L 881.241023 257.39094 
L 884.922841 256.64732 
L 888.604659 256.669277 
L 892.286477 256.680481 
L 895.968295 256.738884 
L 899.650114 255.917545 
L 903.331932 255.924094 
L 907.01375 255.93074 
L 910.695568 255.937486 
L 914.377386 255.944334 
L 918.059205 255.965516 
L 921.741023 255.965516 
L 925.422841 255.965516 
L 929.104659 255.99534 
L 932.786477 256.018992 
L 936.468295 256.043836 
L 940.150114 256.061107 
L 943.831932 256.088149 
L 947.51375 256.097482 
L 951.195568 256.106982 
L 954.877386 256.136527 
L 958.559205 256.157144 
L 962.241023 256.167744 
L 965.922841 256.212224 
L 969.604659 256.235798 
L 973.286477 256.235798 
L 976.968295 256.260335 
L 980.650114 256.285894 
L 984.331932 256.299077 
L 988.01375 256.299077 
L 991.695568 256.299077 
L 995.377386 256.31254 
L 999.059205 256.31254 
L 1002.741023 256.369386 
L 1006.422841 256.384396 
L 1010.104659 256.415451 
L 1013.786477 256.447967 
L 1017.468295 256.447967 
L 1021.150114 256.464806 
L 1024.831932 256.48205 
L 1028.51375 256.48205 
L 1032.195568 256.48205 
L 1035.877386 256.48205 
L 1039.559205 256.555394 
L 1043.241023 256.574906 
L 1046.922841 256.574906 
L 1050.604659 256.594924 
L 1054.286477 256.615469 
" style="fill:none;stroke:#8b0000;stroke-linecap:square;stroke-width:2;"/>
   </g>
   <g id="line2d_26">
    <path clip-path="url(#pa57c77ebcb)" d="M 759.741023 246.687731 
L 763.422841 246.687731 
L 767.104659 246.79273 
L 770.786477 243.195577 
L 774.468295 241.048147 
L 778.150114 241.639461 
L 781.831932 240.004884 
L 785.51375 237.692788 
L 789.195568 236.491306 
L 792.877386 237.692788 
L 796.559205 236.458979 
L 800.241023 238.318105 
L 803.922841 237.052929 
L 807.604659 235.059875 
L 811.286477 233.705261 
L 814.968295 232.324214 
L 818.650114 231.623536 
L 822.331932 231.532951 
L 826.01375 229.22696 
L 829.695568 226.945155 
L 833.377386 226.774557 
L 837.059205 228.025728 
L 840.741023 224.771876 
L 844.422841 222.235518 
L 848.104659 225.186451 
L 851.786477 222.583976 
L 855.468295 218.039973 
L 859.150114 216.145725 
L 862.831932 213.767621 
L 866.51375 213.313346 
L 870.195568 214.910543 
L 873.877386 214.910543 
L 877.559205 215.504125 
L 881.241023 213.415781 
L 884.922841 209.070902 
L 888.604659 206.809792 
L 892.286477 205.656006 
L 895.968295 202.568607 
L 899.650114 196.219567 
L 903.331932 194.893323 
L 907.01375 193.547284 
L 910.695568 195.28408 
L 914.377386 197.047192 
L 918.059205 199.301241 
L 921.741023 199.301241 
L 925.422841 199.301241 
L 929.104659 193.670481 
L 932.786477 189.205103 
L 936.468295 184.514581 
L 940.150114 184.781361 
L 943.831932 179.768699 
L 947.51375 178.038666 
L 951.195568 179.962642 
L 954.877386 182.160061 
L 958.559205 182.407764 
L 962.241023 180.58838 
L 965.922841 181.046437 
L 969.604659 181.289207 
L 973.286477 181.289207 
L 976.968295 181.541886 
L 980.650114 186.104147 
L 984.331932 184.113006 
L 988.01375 184.113006 
L 991.695568 184.113006 
L 995.377386 182.079501 
L 999.059205 182.079501 
L 1002.741023 182.664904 
L 1006.422841 180.500886 
L 1010.104659 176.023607 
L 1013.786477 171.335633 
L 1017.468295 171.335633 
L 1021.150114 168.907933 
L 1024.831932 166.421733 
L 1028.51375 166.421733 
L 1032.195568 166.421733 
L 1035.877386 166.421733 
L 1039.559205 171.520016 
L 1043.241023 168.907933 
L 1046.922841 168.907933 
L 1050.604659 166.228003 
L 1054.286477 168.907933 
" style="fill:none;stroke:#000080;stroke-linecap:square;stroke-width:2;"/>
   </g>
   <g id="line2d_27">
    <path clip-path="url(#pa57c77ebcb)" d="M 759.741023 262.0125 
L 1054.286477 262.0125 
" style="fill:none;stroke:#0000ff;stroke-dasharray:3.7,1.6;stroke-dashoffset:0;"/>
   </g>
   <g id="patch_9">
    <path d="M 745.01375 279 
L 745.01375 7.2 
" style="fill:none;stroke:#000000;stroke-linecap:square;stroke-linejoin:miter;"/>
   </g>
   <g id="patch_10">
    <path d="M 745.01375 279 
L 1069.01375 279 
" style="fill:none;stroke:#000000;stroke-linecap:square;stroke-linejoin:miter;"/>
   </g>
  </g>
 </g>
 <defs>
  <clipPath id="pa427da9c6f">
   <rect height="271.8" width="324" x="64.61375" y="7.2"/>
  </clipPath>
  <clipPath id="pdac7d2a5d9">
   <rect height="271.8" width="324" x="404.81375" y="7.2"/>
  </clipPath>
  <clipPath id="pa57c77ebcb">
   <rect height="271.8" width="324" x="745.01375" y="7.2"/>
  </clipPath>
 </defs>
</svg>
