<?xml version="1.0" encoding="utf-8" standalone="no"?>
<!DOCTYPE svg PUBLIC "-//W3C//DTD SVG 1.1//EN"
  "http://www.w3.org/Graphics/SVG/1.1/DTD/svg11.dtd">
<!-- Created with matplotlib (https://matplotlib.org/) -->
<svg height="358.2975pt" version="1.1" viewBox="0 0 1076.21375 358.2975" width="1076.21375pt" xmlns="http://www.w3.org/2000/svg" xmlns:xlink="http://www.w3.org/1999/xlink">
 <defs>
  <style type="text/css">
*{stroke-linecap:butt;stroke-linejoin:round;}
  </style>
 </defs>
 <g id="figure_1">
  <g id="patch_1">
   <path d="M 0 358.2975 
L 1076.21375 358.2975 
L 1076.21375 0 
L 0 0 
z
" style="fill:none;"/>
  </g>
  <g id="axes_1">
   <g id="patch_2">
    <path d="M 64.61375 284.4 
L 388.61375 284.4 
L 388.61375 7.2 
L 64.61375 7.2 
z
" style="fill:none;"/>
   </g>
   <g id="matplotlib.axis_1">
    <g id="xtick_1">
     <g id="line2d_1">
      <defs>
       <path d="M 0 0 
L 0 5 
" id="mfcab84b9d6" style="stroke:#000000;stroke-width:0.8;"/>
      </defs>
      <g>
       <use style="stroke:#000000;stroke-width:0.8;" x="79.341023" xlink:href="#mfcab84b9d6" y="284.4"/>
      </g>
     </g>
     <g id="text_1">
      <!-- 1 -->
      <defs>
       <path d="M 12.40625 8.296875 
L 28.515625 8.296875 
L 28.515625 63.921875 
L 10.984375 60.40625 
L 10.984375 69.390625 
L 28.421875 72.90625 
L 38.28125 72.90625 
L 38.28125 8.296875 
L 54.390625 8.296875 
L 54.390625 0 
L 12.40625 0 
z
" id="DejaVuSans-49"/>
      </defs>
      <g transform="translate(70.433523 314.175625)scale(0.28 -0.28)">
       <use xlink:href="#DejaVuSans-49"/>
      </g>
     </g>
    </g>
    <g id="xtick_2">
     <g id="line2d_2">
      <g>
       <use style="stroke:#000000;stroke-width:0.8;" x="152.977386" xlink:href="#mfcab84b9d6" y="284.4"/>
      </g>
     </g>
     <g id="text_2">
      <!-- 2 -->
      <defs>
       <path d="M 19.1875 8.296875 
L 53.609375 8.296875 
L 53.609375 0 
L 7.328125 0 
L 7.328125 8.296875 
Q 12.9375 14.109375 22.625 23.890625 
Q 32.328125 33.6875 34.8125 36.53125 
Q 39.546875 41.84375 41.421875 45.53125 
Q 43.3125 49.21875 43.3125 52.78125 
Q 43.3125 58.59375 39.234375 62.25 
Q 35.15625 65.921875 28.609375 65.921875 
Q 23.96875 65.921875 18.8125 64.3125 
Q 13.671875 62.703125 7.8125 59.421875 
L 7.8125 69.390625 
Q 13.765625 71.78125 18.9375 73 
Q 24.125 74.21875 28.421875 74.21875 
Q 39.75 74.21875 46.484375 68.546875 
Q 53.21875 62.890625 53.21875 53.421875 
Q 53.21875 48.921875 51.53125 44.890625 
Q 49.859375 40.875 45.40625 35.40625 
Q 44.1875 33.984375 37.640625 27.21875 
Q 31.109375 20.453125 19.1875 8.296875 
z
" id="DejaVuSans-50"/>
      </defs>
      <g transform="translate(144.069886 314.175625)scale(0.28 -0.28)">
       <use xlink:href="#DejaVuSans-50"/>
      </g>
     </g>
    </g>
    <g id="xtick_3">
     <g id="line2d_3">
      <g>
       <use style="stroke:#000000;stroke-width:0.8;" x="226.61375" xlink:href="#mfcab84b9d6" y="284.4"/>
      </g>
     </g>
     <g id="text_3">
      <!-- 3 -->
      <defs>
       <path d="M 40.578125 39.3125 
Q 47.65625 37.796875 51.625 33 
Q 55.609375 28.21875 55.609375 21.1875 
Q 55.609375 10.40625 48.1875 4.484375 
Q 40.765625 -1.421875 27.09375 -1.421875 
Q 22.515625 -1.421875 17.65625 -0.515625 
Q 12.796875 0.390625 7.625 2.203125 
L 7.625 11.71875 
Q 11.71875 9.328125 16.59375 8.109375 
Q 21.484375 6.890625 26.8125 6.890625 
Q 36.078125 6.890625 40.9375 10.546875 
Q 45.796875 14.203125 45.796875 21.1875 
Q 45.796875 27.640625 41.28125 31.265625 
Q 36.765625 34.90625 28.71875 34.90625 
L 20.21875 34.90625 
L 20.21875 43.015625 
L 29.109375 43.015625 
Q 36.375 43.015625 40.234375 45.921875 
Q 44.09375 48.828125 44.09375 54.296875 
Q 44.09375 59.90625 40.109375 62.90625 
Q 36.140625 65.921875 28.71875 65.921875 
Q 24.65625 65.921875 20.015625 65.03125 
Q 15.375 64.15625 9.8125 62.3125 
L 9.8125 71.09375 
Q 15.4375 72.65625 20.34375 73.4375 
Q 25.25 74.21875 29.59375 74.21875 
Q 40.828125 74.21875 47.359375 69.109375 
Q 53.90625 64.015625 53.90625 55.328125 
Q 53.90625 49.265625 50.4375 45.09375 
Q 46.96875 40.921875 40.578125 39.3125 
z
" id="DejaVuSans-51"/>
      </defs>
      <g transform="translate(217.70625 314.175625)scale(0.28 -0.28)">
       <use xlink:href="#DejaVuSans-51"/>
      </g>
     </g>
    </g>
    <g id="xtick_4">
     <g id="line2d_4">
      <g>
       <use style="stroke:#000000;stroke-width:0.8;" x="300.250114" xlink:href="#mfcab84b9d6" y="284.4"/>
      </g>
     </g>
     <g id="text_4">
      <!-- 4 -->
      <defs>
       <path d="M 37.796875 64.3125 
L 12.890625 25.390625 
L 37.796875 25.390625 
z
M 35.203125 72.90625 
L 47.609375 72.90625 
L 47.609375 25.390625 
L 58.015625 25.390625 
L 58.015625 17.1875 
L 47.609375 17.1875 
L 47.609375 0 
L 37.796875 0 
L 37.796875 17.1875 
L 4.890625 17.1875 
L 4.890625 26.703125 
z
" id="DejaVuSans-52"/>
      </defs>
      <g transform="translate(291.342614 314.175625)scale(0.28 -0.28)">
       <use xlink:href="#DejaVuSans-52"/>
      </g>
     </g>
    </g>
    <g id="xtick_5">
     <g id="line2d_5">
      <g>
       <use style="stroke:#000000;stroke-width:0.8;" x="373.886477" xlink:href="#mfcab84b9d6" y="284.4"/>
      </g>
     </g>
     <g id="text_5">
      <!-- 5 -->
      <defs>
       <path d="M 10.796875 72.90625 
L 49.515625 72.90625 
L 49.515625 64.59375 
L 19.828125 64.59375 
L 19.828125 46.734375 
Q 21.96875 47.46875 24.109375 47.828125 
Q 26.265625 48.1875 28.421875 48.1875 
Q 40.625 48.1875 47.75 41.5 
Q 54.890625 34.8125 54.890625 23.390625 
Q 54.890625 11.625 47.5625 5.09375 
Q 40.234375 -1.421875 26.90625 -1.421875 
Q 22.3125 -1.421875 17.546875 -0.640625 
Q 12.796875 0.140625 7.71875 1.703125 
L 7.71875 11.625 
Q 12.109375 9.234375 16.796875 8.0625 
Q 21.484375 6.890625 26.703125 6.890625 
Q 35.15625 6.890625 40.078125 11.328125 
Q 45.015625 15.765625 45.015625 23.390625 
Q 45.015625 31 40.078125 35.4375 
Q 35.15625 39.890625 26.703125 39.890625 
Q 22.75 39.890625 18.8125 39.015625 
Q 14.890625 38.140625 10.796875 36.28125 
z
" id="DejaVuSans-53"/>
      </defs>
      <g transform="translate(364.978977 314.175625)scale(0.28 -0.28)">
       <use xlink:href="#DejaVuSans-53"/>
      </g>
     </g>
    </g>
    <g id="text_6">
     <!-- -log10 p-value -->
     <defs>
      <path d="M 4.890625 31.390625 
L 31.203125 31.390625 
L 31.203125 23.390625 
L 4.890625 23.390625 
z
" id="DejaVuSans-45"/>
      <path d="M 9.421875 75.984375 
L 18.40625 75.984375 
L 18.40625 0 
L 9.421875 0 
z
" id="DejaVuSans-108"/>
      <path d="M 30.609375 48.390625 
Q 23.390625 48.390625 19.1875 42.75 
Q 14.984375 37.109375 14.984375 27.296875 
Q 14.984375 17.484375 19.15625 11.84375 
Q 23.34375 6.203125 30.609375 6.203125 
Q 37.796875 6.203125 41.984375 11.859375 
Q 46.1875 17.53125 46.1875 27.296875 
Q 46.1875 37.015625 41.984375 42.703125 
Q 37.796875 48.390625 30.609375 48.390625 
z
M 30.609375 56 
Q 42.328125 56 49.015625 48.375 
Q 55.71875 40.765625 55.71875 27.296875 
Q 55.71875 13.875 49.015625 6.21875 
Q 42.328125 -1.421875 30.609375 -1.421875 
Q 18.84375 -1.421875 12.171875 6.21875 
Q 5.515625 13.875 5.515625 27.296875 
Q 5.515625 40.765625 12.171875 48.375 
Q 18.84375 56 30.609375 56 
z
" id="DejaVuSans-111"/>
      <path d="M 45.40625 27.984375 
Q 45.40625 37.75 41.375 43.109375 
Q 37.359375 48.484375 30.078125 48.484375 
Q 22.859375 48.484375 18.828125 43.109375 
Q 14.796875 37.75 14.796875 27.984375 
Q 14.796875 18.265625 18.828125 12.890625 
Q 22.859375 7.515625 30.078125 7.515625 
Q 37.359375 7.515625 41.375 12.890625 
Q 45.40625 18.265625 45.40625 27.984375 
z
M 54.390625 6.78125 
Q 54.390625 -7.171875 48.1875 -13.984375 
Q 42 -20.796875 29.203125 -20.796875 
Q 24.46875 -20.796875 20.265625 -20.09375 
Q 16.0625 -19.390625 12.109375 -17.921875 
L 12.109375 -9.1875 
Q 16.0625 -11.328125 19.921875 -12.34375 
Q 23.78125 -13.375 27.78125 -13.375 
Q 36.625 -13.375 41.015625 -8.765625 
Q 45.40625 -4.15625 45.40625 5.171875 
L 45.40625 9.625 
Q 42.625 4.78125 38.28125 2.390625 
Q 33.9375 0 27.875 0 
Q 17.828125 0 11.671875 7.65625 
Q 5.515625 15.328125 5.515625 27.984375 
Q 5.515625 40.671875 11.671875 48.328125 
Q 17.828125 56 27.875 56 
Q 33.9375 56 38.28125 53.609375 
Q 42.625 51.21875 45.40625 46.390625 
L 45.40625 54.6875 
L 54.390625 54.6875 
z
" id="DejaVuSans-103"/>
      <path d="M 31.78125 66.40625 
Q 24.171875 66.40625 20.328125 58.90625 
Q 16.5 51.421875 16.5 36.375 
Q 16.5 21.390625 20.328125 13.890625 
Q 24.171875 6.390625 31.78125 6.390625 
Q 39.453125 6.390625 43.28125 13.890625 
Q 47.125 21.390625 47.125 36.375 
Q 47.125 51.421875 43.28125 58.90625 
Q 39.453125 66.40625 31.78125 66.40625 
z
M 31.78125 74.21875 
Q 44.046875 74.21875 50.515625 64.515625 
Q 56.984375 54.828125 56.984375 36.375 
Q 56.984375 17.96875 50.515625 8.265625 
Q 44.046875 -1.421875 31.78125 -1.421875 
Q 19.53125 -1.421875 13.0625 8.265625 
Q 6.59375 17.96875 6.59375 36.375 
Q 6.59375 54.828125 13.0625 64.515625 
Q 19.53125 74.21875 31.78125 74.21875 
z
" id="DejaVuSans-48"/>
      <path id="DejaVuSans-32"/>
      <path d="M 18.109375 8.203125 
L 18.109375 -20.796875 
L 9.078125 -20.796875 
L 9.078125 54.6875 
L 18.109375 54.6875 
L 18.109375 46.390625 
Q 20.953125 51.265625 25.265625 53.625 
Q 29.59375 56 35.59375 56 
Q 45.5625 56 51.78125 48.09375 
Q 58.015625 40.1875 58.015625 27.296875 
Q 58.015625 14.40625 51.78125 6.484375 
Q 45.5625 -1.421875 35.59375 -1.421875 
Q 29.59375 -1.421875 25.265625 0.953125 
Q 20.953125 3.328125 18.109375 8.203125 
z
M 48.6875 27.296875 
Q 48.6875 37.203125 44.609375 42.84375 
Q 40.53125 48.484375 33.40625 48.484375 
Q 26.265625 48.484375 22.1875 42.84375 
Q 18.109375 37.203125 18.109375 27.296875 
Q 18.109375 17.390625 22.1875 11.75 
Q 26.265625 6.109375 33.40625 6.109375 
Q 40.53125 6.109375 44.609375 11.75 
Q 48.6875 17.390625 48.6875 27.296875 
z
" id="DejaVuSans-112"/>
      <path d="M 2.984375 54.6875 
L 12.5 54.6875 
L 29.59375 8.796875 
L 46.6875 54.6875 
L 56.203125 54.6875 
L 35.6875 0 
L 23.484375 0 
z
" id="DejaVuSans-118"/>
      <path d="M 34.28125 27.484375 
Q 23.390625 27.484375 19.1875 25 
Q 14.984375 22.515625 14.984375 16.5 
Q 14.984375 11.71875 18.140625 8.90625 
Q 21.296875 6.109375 26.703125 6.109375 
Q 34.1875 6.109375 38.703125 11.40625 
Q 43.21875 16.703125 43.21875 25.484375 
L 43.21875 27.484375 
z
M 52.203125 31.203125 
L 52.203125 0 
L 43.21875 0 
L 43.21875 8.296875 
Q 40.140625 3.328125 35.546875 0.953125 
Q 30.953125 -1.421875 24.3125 -1.421875 
Q 15.921875 -1.421875 10.953125 3.296875 
Q 6 8.015625 6 15.921875 
Q 6 25.140625 12.171875 29.828125 
Q 18.359375 34.515625 30.609375 34.515625 
L 43.21875 34.515625 
L 43.21875 35.40625 
Q 43.21875 41.609375 39.140625 45 
Q 35.0625 48.390625 27.6875 48.390625 
Q 23 48.390625 18.546875 47.265625 
Q 14.109375 46.140625 10.015625 43.890625 
L 10.015625 52.203125 
Q 14.9375 54.109375 19.578125 55.046875 
Q 24.21875 56 28.609375 56 
Q 40.484375 56 46.34375 49.84375 
Q 52.203125 43.703125 52.203125 31.203125 
z
" id="DejaVuSans-97"/>
      <path d="M 8.5 21.578125 
L 8.5 54.6875 
L 17.484375 54.6875 
L 17.484375 21.921875 
Q 17.484375 14.15625 20.5 10.265625 
Q 23.53125 6.390625 29.59375 6.390625 
Q 36.859375 6.390625 41.078125 11.03125 
Q 45.3125 15.671875 45.3125 23.6875 
L 45.3125 54.6875 
L 54.296875 54.6875 
L 54.296875 0 
L 45.3125 0 
L 45.3125 8.40625 
Q 42.046875 3.421875 37.71875 1 
Q 33.40625 -1.421875 27.6875 -1.421875 
Q 18.265625 -1.421875 13.375 4.4375 
Q 8.5 10.296875 8.5 21.578125 
z
M 31.109375 56 
z
" id="DejaVuSans-117"/>
      <path d="M 56.203125 29.59375 
L 56.203125 25.203125 
L 14.890625 25.203125 
Q 15.484375 15.921875 20.484375 11.0625 
Q 25.484375 6.203125 34.421875 6.203125 
Q 39.59375 6.203125 44.453125 7.46875 
Q 49.3125 8.734375 54.109375 11.28125 
L 54.109375 2.78125 
Q 49.265625 0.734375 44.1875 -0.34375 
Q 39.109375 -1.421875 33.890625 -1.421875 
Q 20.796875 -1.421875 13.15625 6.1875 
Q 5.515625 13.8125 5.515625 26.8125 
Q 5.515625 40.234375 12.765625 48.109375 
Q 20.015625 56 32.328125 56 
Q 43.359375 56 49.78125 48.890625 
Q 56.203125 41.796875 56.203125 29.59375 
z
M 47.21875 32.234375 
Q 47.125 39.59375 43.09375 43.984375 
Q 39.0625 48.390625 32.421875 48.390625 
Q 24.90625 48.390625 20.390625 44.140625 
Q 15.875 39.890625 15.1875 32.171875 
z
" id="DejaVuSans-101"/>
     </defs>
     <g transform="translate(125.77875 345.274375)scale(0.28 -0.28)">
      <use xlink:href="#DejaVuSans-45"/>
      <use x="36.083984" xlink:href="#DejaVuSans-108"/>
      <use x="63.867188" xlink:href="#DejaVuSans-111"/>
      <use x="125.048828" xlink:href="#DejaVuSans-103"/>
      <use x="188.525391" xlink:href="#DejaVuSans-49"/>
      <use x="252.148438" xlink:href="#DejaVuSans-48"/>
      <use x="315.771484" xlink:href="#DejaVuSans-32"/>
      <use x="347.558594" xlink:href="#DejaVuSans-112"/>
      <use x="411.035156" xlink:href="#DejaVuSans-45"/>
      <use x="447.087891" xlink:href="#DejaVuSans-118"/>
      <use x="506.267578" xlink:href="#DejaVuSans-97"/>
      <use x="567.546875" xlink:href="#DejaVuSans-108"/>
      <use x="595.330078" xlink:href="#DejaVuSans-117"/>
      <use x="658.708984" xlink:href="#DejaVuSans-101"/>
     </g>
    </g>
   </g>
   <g id="matplotlib.axis_2">
    <g id="ytick_1">
     <g id="line2d_6">
      <defs>
       <path d="M 0 0 
L -5 0 
" id="m34d02ae008" style="stroke:#000000;stroke-width:0.8;"/>
      </defs>
      <g>
       <use style="stroke:#000000;stroke-width:0.8;" x="64.61375" xlink:href="#m34d02ae008" y="267.075"/>
      </g>
     </g>
     <g id="text_7">
      <!-- 1 -->
      <g transform="translate(38.29875 277.712812)scale(0.28 -0.28)">
       <use xlink:href="#DejaVuSans-49"/>
      </g>
     </g>
    </g>
    <g id="ytick_2">
     <g id="line2d_7">
      <g>
       <use style="stroke:#000000;stroke-width:0.8;" x="64.61375" xlink:href="#m34d02ae008" y="151.575"/>
      </g>
     </g>
     <g id="text_8">
      <!-- 2 -->
      <g transform="translate(38.29875 162.212812)scale(0.28 -0.28)">
       <use xlink:href="#DejaVuSans-50"/>
      </g>
     </g>
    </g>
    <g id="ytick_3">
     <g id="line2d_8">
      <g>
       <use style="stroke:#000000;stroke-width:0.8;" x="64.61375" xlink:href="#m34d02ae008" y="36.075"/>
      </g>
     </g>
     <g id="text_9">
      <!-- 3 -->
      <g transform="translate(38.29875 46.712812)scale(0.28 -0.28)">
       <use xlink:href="#DejaVuSans-51"/>
      </g>
     </g>
    </g>
    <g id="text_10">
     <!-- fold enrichment -->
     <defs>
      <path d="M 37.109375 75.984375 
L 37.109375 68.5 
L 28.515625 68.5 
Q 23.6875 68.5 21.796875 66.546875 
Q 19.921875 64.59375 19.921875 59.515625 
L 19.921875 54.6875 
L 34.71875 54.6875 
L 34.71875 47.703125 
L 19.921875 47.703125 
L 19.921875 0 
L 10.890625 0 
L 10.890625 47.703125 
L 2.296875 47.703125 
L 2.296875 54.6875 
L 10.890625 54.6875 
L 10.890625 58.5 
Q 10.890625 67.625 15.140625 71.796875 
Q 19.390625 75.984375 28.609375 75.984375 
z
" id="DejaVuSans-102"/>
      <path d="M 45.40625 46.390625 
L 45.40625 75.984375 
L 54.390625 75.984375 
L 54.390625 0 
L 45.40625 0 
L 45.40625 8.203125 
Q 42.578125 3.328125 38.25 0.953125 
Q 33.9375 -1.421875 27.875 -1.421875 
Q 17.96875 -1.421875 11.734375 6.484375 
Q 5.515625 14.40625 5.515625 27.296875 
Q 5.515625 40.1875 11.734375 48.09375 
Q 17.96875 56 27.875 56 
Q 33.9375 56 38.25 53.625 
Q 42.578125 51.265625 45.40625 46.390625 
z
M 14.796875 27.296875 
Q 14.796875 17.390625 18.875 11.75 
Q 22.953125 6.109375 30.078125 6.109375 
Q 37.203125 6.109375 41.296875 11.75 
Q 45.40625 17.390625 45.40625 27.296875 
Q 45.40625 37.203125 41.296875 42.84375 
Q 37.203125 48.484375 30.078125 48.484375 
Q 22.953125 48.484375 18.875 42.84375 
Q 14.796875 37.203125 14.796875 27.296875 
z
" id="DejaVuSans-100"/>
      <path d="M 54.890625 33.015625 
L 54.890625 0 
L 45.90625 0 
L 45.90625 32.71875 
Q 45.90625 40.484375 42.875 44.328125 
Q 39.84375 48.1875 33.796875 48.1875 
Q 26.515625 48.1875 22.3125 43.546875 
Q 18.109375 38.921875 18.109375 30.90625 
L 18.109375 0 
L 9.078125 0 
L 9.078125 54.6875 
L 18.109375 54.6875 
L 18.109375 46.1875 
Q 21.34375 51.125 25.703125 53.5625 
Q 30.078125 56 35.796875 56 
Q 45.21875 56 50.046875 50.171875 
Q 54.890625 44.34375 54.890625 33.015625 
z
" id="DejaVuSans-110"/>
      <path d="M 41.109375 46.296875 
Q 39.59375 47.171875 37.8125 47.578125 
Q 36.03125 48 33.890625 48 
Q 26.265625 48 22.1875 43.046875 
Q 18.109375 38.09375 18.109375 28.8125 
L 18.109375 0 
L 9.078125 0 
L 9.078125 54.6875 
L 18.109375 54.6875 
L 18.109375 46.1875 
Q 20.953125 51.171875 25.484375 53.578125 
Q 30.03125 56 36.53125 56 
Q 37.453125 56 38.578125 55.875 
Q 39.703125 55.765625 41.0625 55.515625 
z
" id="DejaVuSans-114"/>
      <path d="M 9.421875 54.6875 
L 18.40625 54.6875 
L 18.40625 0 
L 9.421875 0 
z
M 9.421875 75.984375 
L 18.40625 75.984375 
L 18.40625 64.59375 
L 9.421875 64.59375 
z
" id="DejaVuSans-105"/>
      <path d="M 48.78125 52.59375 
L 48.78125 44.1875 
Q 44.96875 46.296875 41.140625 47.34375 
Q 37.3125 48.390625 33.40625 48.390625 
Q 24.65625 48.390625 19.8125 42.84375 
Q 14.984375 37.3125 14.984375 27.296875 
Q 14.984375 17.28125 19.8125 11.734375 
Q 24.65625 6.203125 33.40625 6.203125 
Q 37.3125 6.203125 41.140625 7.25 
Q 44.96875 8.296875 48.78125 10.40625 
L 48.78125 2.09375 
Q 45.015625 0.34375 40.984375 -0.53125 
Q 36.96875 -1.421875 32.421875 -1.421875 
Q 20.0625 -1.421875 12.78125 6.34375 
Q 5.515625 14.109375 5.515625 27.296875 
Q 5.515625 40.671875 12.859375 48.328125 
Q 20.21875 56 33.015625 56 
Q 37.15625 56 41.109375 55.140625 
Q 45.0625 54.296875 48.78125 52.59375 
z
" id="DejaVuSans-99"/>
      <path d="M 54.890625 33.015625 
L 54.890625 0 
L 45.90625 0 
L 45.90625 32.71875 
Q 45.90625 40.484375 42.875 44.328125 
Q 39.84375 48.1875 33.796875 48.1875 
Q 26.515625 48.1875 22.3125 43.546875 
Q 18.109375 38.921875 18.109375 30.90625 
L 18.109375 0 
L 9.078125 0 
L 9.078125 75.984375 
L 18.109375 75.984375 
L 18.109375 46.1875 
Q 21.34375 51.125 25.703125 53.5625 
Q 30.078125 56 35.796875 56 
Q 45.21875 56 50.046875 50.171875 
Q 54.890625 44.34375 54.890625 33.015625 
z
" id="DejaVuSans-104"/>
      <path d="M 52 44.1875 
Q 55.375 50.25 60.0625 53.125 
Q 64.75 56 71.09375 56 
Q 79.640625 56 84.28125 50.015625 
Q 88.921875 44.046875 88.921875 33.015625 
L 88.921875 0 
L 79.890625 0 
L 79.890625 32.71875 
Q 79.890625 40.578125 77.09375 44.375 
Q 74.3125 48.1875 68.609375 48.1875 
Q 61.625 48.1875 57.5625 43.546875 
Q 53.515625 38.921875 53.515625 30.90625 
L 53.515625 0 
L 44.484375 0 
L 44.484375 32.71875 
Q 44.484375 40.625 41.703125 44.40625 
Q 38.921875 48.1875 33.109375 48.1875 
Q 26.21875 48.1875 22.15625 43.53125 
Q 18.109375 38.875 18.109375 30.90625 
L 18.109375 0 
L 9.078125 0 
L 9.078125 54.6875 
L 18.109375 54.6875 
L 18.109375 46.1875 
Q 21.1875 51.21875 25.484375 53.609375 
Q 29.78125 56 35.6875 56 
Q 41.65625 56 45.828125 52.96875 
Q 50 49.953125 52 44.1875 
z
" id="DejaVuSans-109"/>
      <path d="M 18.3125 70.21875 
L 18.3125 54.6875 
L 36.8125 54.6875 
L 36.8125 47.703125 
L 18.3125 47.703125 
L 18.3125 18.015625 
Q 18.3125 11.328125 20.140625 9.421875 
Q 21.96875 7.515625 27.59375 7.515625 
L 36.8125 7.515625 
L 36.8125 0 
L 27.59375 0 
Q 17.1875 0 13.234375 3.875 
Q 9.28125 7.765625 9.28125 18.015625 
L 9.28125 47.703125 
L 2.6875 47.703125 
L 2.6875 54.6875 
L 9.28125 54.6875 
L 9.28125 70.21875 
z
" id="DejaVuSans-116"/>
     </defs>
     <g transform="translate(28.475625 256.835312)rotate(-90)scale(0.28 -0.28)">
      <use xlink:href="#DejaVuSans-102"/>
      <use x="35.205078" xlink:href="#DejaVuSans-111"/>
      <use x="96.386719" xlink:href="#DejaVuSans-108"/>
      <use x="124.169922" xlink:href="#DejaVuSans-100"/>
      <use x="187.646484" xlink:href="#DejaVuSans-32"/>
      <use x="219.433594" xlink:href="#DejaVuSans-101"/>
      <use x="280.957031" xlink:href="#DejaVuSans-110"/>
      <use x="344.335938" xlink:href="#DejaVuSans-114"/>
      <use x="385.449219" xlink:href="#DejaVuSans-105"/>
      <use x="413.232422" xlink:href="#DejaVuSans-99"/>
      <use x="468.212891" xlink:href="#DejaVuSans-104"/>
      <use x="531.591797" xlink:href="#DejaVuSans-109"/>
      <use x="629.003906" xlink:href="#DejaVuSans-101"/>
      <use x="690.527344" xlink:href="#DejaVuSans-110"/>
      <use x="753.90625" xlink:href="#DejaVuSans-116"/>
     </g>
    </g>
   </g>
   <g id="line2d_9">
    <path clip-path="url(#p87eaa926fc)" d="M 79.341023 204.516152 
L 83.022841 202.111145 
L 86.704659 196.671631 
L 90.386477 195.566379 
L 94.068295 193.705597 
L 97.750114 186.385078 
L 101.431932 183.323998 
L 105.11375 177.994239 
L 108.795568 176.193393 
L 112.477386 171.072241 
L 116.159205 168.711719 
L 119.841023 163.328432 
L 123.522841 158.718107 
L 127.204659 155.514614 
L 130.886477 150.468827 
L 134.568295 149.758712 
L 138.250114 147.383036 
L 141.931932 143.727202 
L 145.61375 139.955921 
L 149.295568 134.070283 
L 152.977386 135.614617 
L 156.659205 132.194114 
L 160.341023 128.677528 
L 164.022841 121.339451 
L 167.704659 118.284064 
L 171.386477 115.156361 
L 175.068295 112.514787 
L 178.750114 109.18071 
L 182.431932 105.763281 
L 186.11375 100.473885 
L 189.795568 95.909142 
L 193.477386 90.232591 
L 197.159205 90.413384 
L 200.841023 85.410616 
L 204.522841 87.560243 
L 208.204659 76.948201 
L 211.886477 71.350641 
L 215.568295 71.127434 
L 219.250114 66.390589 
L 222.931932 62.742308 
L 226.61375 62.304331 
L 230.295568 67.865486 
L 233.977386 63.996107 
L 237.659205 60.030394 
L 241.341023 62.214241 
L 245.022841 62.214241 
L 248.704659 65.832479 
L 252.386477 64.473069 
L 256.068295 61.718939 
L 259.750114 73.354605 
L 263.431932 66.421413 
L 267.11375 62.110227 
L 270.795568 59.170183 
L 274.477386 57.679839 
L 278.159205 48.441114 
L 281.841023 53.893182 
L 285.522841 49.8051 
L 289.204659 49.8051 
L 292.886477 46.460678 
L 296.568295 43.04835 
L 300.250114 41.316071 
L 303.931932 41.316071 
L 307.61375 37.797938 
L 311.295568 34.20651 
L 314.977386 34.20651 
L 318.659205 26.794415 
L 322.341023 30.796622 
L 326.022841 30.796622 
L 329.704659 24.998077 
L 333.386477 24.998077 
L 337.068295 23.022514 
L 340.750114 21.025 
L 344.431932 14.897034 
L 348.11375 12.807955 
L 351.795568 6.395809 
L 355.477386 14.718895 
L 359.159205 12.56769 
L 362.841023 21.025 
L 366.522841 27.48125 
L 370.204659 25.35494 
L 373.886477 29.843293 
" style="fill:none;stroke:#8b0000;stroke-linecap:square;stroke-width:2;"/>
   </g>
   <g id="line2d_10">
    <path clip-path="url(#p87eaa926fc)" d="M 79.341023 227.247658 
L 83.022841 225.261443 
L 86.704659 222.460504 
L 90.386477 220.66942 
L 94.068295 221.243895 
L 97.750114 214.990751 
L 101.431932 211.475057 
L 105.11375 206.89831 
L 108.795568 204.384153 
L 112.477386 198.933345 
L 116.159205 198.105426 
L 119.841023 193.462027 
L 123.522841 193.32157 
L 127.204659 190.887641 
L 130.886477 189.330641 
L 134.568295 186.320795 
L 138.250114 185.714376 
L 141.931932 184.072243 
L 145.61375 182.378253 
L 149.295568 178.996932 
L 152.977386 177.711167 
L 156.659205 174.873718 
L 160.341023 175.031287 
L 164.022841 169.032914 
L 167.704659 166.535345 
L 171.386477 165.597895 
L 175.068295 162.319937 
L 178.750114 161.289938 
L 182.431932 160.234189 
L 186.11375 161.214623 
L 189.795568 157.63274 
L 193.477386 154.98471 
L 197.159205 155.915214 
L 200.841023 153.90837 
L 204.522841 152.632793 
L 208.204659 148.298904 
L 211.886477 146.012897 
L 215.568295 148.896152 
L 219.250114 149.504082 
L 222.931932 151.024806 
L 226.61375 152.019295 
L 230.295568 156.564284 
L 233.977386 153.785464 
L 237.659205 153.208418 
L 241.341023 151.646536 
L 245.022841 151.646536 
L 248.704659 153.363697 
L 252.386477 152.379957 
L 256.068295 152.756193 
L 259.750114 154.533142 
L 263.431932 154.32862 
L 267.11375 153.703899 
L 270.795568 151.604164 
L 274.477386 150.539782 
L 278.159205 143.941625 
L 281.841023 144.276714 
L 285.522841 151.129532 
L 289.204659 151.129532 
L 292.886477 148.803447 
L 296.568295 149.208307 
L 300.250114 148.017661 
L 303.931932 148.017661 
L 307.61375 148.42068 
L 311.295568 145.981573 
L 314.977386 145.981573 
L 318.659205 140.94767 
L 322.341023 139.98777 
L 326.022841 139.98777 
L 329.704659 138.996224 
L 333.386477 138.996224 
L 337.068295 137.650485 
L 340.750114 139.330352 
L 344.431932 138.299654 
L 348.11375 140.021388 
L 351.795568 142.142429 
L 355.477386 143.926544 
L 359.159205 142.530939 
L 362.841023 144.33833 
L 366.522841 148.017661 
L 370.204659 146.613126 
L 373.886477 148.971146 
" style="fill:none;stroke:#000080;stroke-linecap:square;stroke-width:2;"/>
   </g>
   <g id="line2d_11">
    <path clip-path="url(#p87eaa926fc)" d="M 79.341023 267.075 
L 373.886477 267.075 
" style="fill:none;stroke:#0000ff;stroke-dasharray:3.7,1.6;stroke-dashoffset:0;"/>
   </g>
   <g id="patch_3">
    <path d="M 64.61375 284.4 
L 64.61375 7.2 
" style="fill:none;stroke:#000000;stroke-linecap:square;stroke-linejoin:miter;stroke-width:0.8;"/>
   </g>
   <g id="patch_4">
    <path d="M 64.61375 284.4 
L 388.61375 284.4 
" style="fill:none;stroke:#000000;stroke-linecap:square;stroke-linejoin:miter;stroke-width:0.8;"/>
   </g>
  </g>
  <g id="axes_2">
   <g id="patch_5">
    <path d="M 404.81375 284.4 
L 728.81375 284.4 
L 728.81375 7.2 
L 404.81375 7.2 
z
" style="fill:none;"/>
   </g>
   <g id="matplotlib.axis_3">
    <g id="xtick_6">
     <g id="line2d_12">
      <g>
       <use style="stroke:#000000;stroke-width:0.8;" x="419.541023" xlink:href="#mfcab84b9d6" y="284.4"/>
      </g>
     </g>
     <g id="text_11">
      <!-- 1 -->
      <g transform="translate(410.633523 314.175625)scale(0.28 -0.28)">
       <use xlink:href="#DejaVuSans-49"/>
      </g>
     </g>
    </g>
    <g id="xtick_7">
     <g id="line2d_13">
      <g>
       <use style="stroke:#000000;stroke-width:0.8;" x="493.177386" xlink:href="#mfcab84b9d6" y="284.4"/>
      </g>
     </g>
     <g id="text_12">
      <!-- 2 -->
      <g transform="translate(484.269886 314.175625)scale(0.28 -0.28)">
       <use xlink:href="#DejaVuSans-50"/>
      </g>
     </g>
    </g>
    <g id="xtick_8">
     <g id="line2d_14">
      <g>
       <use style="stroke:#000000;stroke-width:0.8;" x="566.81375" xlink:href="#mfcab84b9d6" y="284.4"/>
      </g>
     </g>
     <g id="text_13">
      <!-- 3 -->
      <g transform="translate(557.90625 314.175625)scale(0.28 -0.28)">
       <use xlink:href="#DejaVuSans-51"/>
      </g>
     </g>
    </g>
    <g id="xtick_9">
     <g id="line2d_15">
      <g>
       <use style="stroke:#000000;stroke-width:0.8;" x="640.450114" xlink:href="#mfcab84b9d6" y="284.4"/>
      </g>
     </g>
     <g id="text_14">
      <!-- 4 -->
      <g transform="translate(631.542614 314.175625)scale(0.28 -0.28)">
       <use xlink:href="#DejaVuSans-52"/>
      </g>
     </g>
    </g>
    <g id="xtick_10">
     <g id="line2d_16">
      <g>
       <use style="stroke:#000000;stroke-width:0.8;" x="714.086477" xlink:href="#mfcab84b9d6" y="284.4"/>
      </g>
     </g>
     <g id="text_15">
      <!-- 5 -->
      <g transform="translate(705.178977 314.175625)scale(0.28 -0.28)">
       <use xlink:href="#DejaVuSans-53"/>
      </g>
     </g>
    </g>
    <g id="text_16">
     <!-- -log10 p-value -->
     <g transform="translate(465.97875 345.274375)scale(0.28 -0.28)">
      <use xlink:href="#DejaVuSans-45"/>
      <use x="36.083984" xlink:href="#DejaVuSans-108"/>
      <use x="63.867188" xlink:href="#DejaVuSans-111"/>
      <use x="125.048828" xlink:href="#DejaVuSans-103"/>
      <use x="188.525391" xlink:href="#DejaVuSans-49"/>
      <use x="252.148438" xlink:href="#DejaVuSans-48"/>
      <use x="315.771484" xlink:href="#DejaVuSans-32"/>
      <use x="347.558594" xlink:href="#DejaVuSans-112"/>
      <use x="411.035156" xlink:href="#DejaVuSans-45"/>
      <use x="447.087891" xlink:href="#DejaVuSans-118"/>
      <use x="506.267578" xlink:href="#DejaVuSans-97"/>
      <use x="567.546875" xlink:href="#DejaVuSans-108"/>
      <use x="595.330078" xlink:href="#DejaVuSans-117"/>
      <use x="658.708984" xlink:href="#DejaVuSans-101"/>
     </g>
    </g>
   </g>
   <g id="matplotlib.axis_4">
    <g id="ytick_4"/>
    <g id="ytick_5"/>
    <g id="ytick_6"/>
   </g>
   <g id="line2d_17">
    <path clip-path="url(#pe2b8cfd809)" d="M 419.541023 224.129955 
L 423.222841 226.667342 
L 426.904659 220.756347 
L 430.586477 218.574858 
L 434.268295 213.821926 
L 437.950114 213.087989 
L 441.631932 211.235566 
L 445.31375 211.36606 
L 448.995568 207.05711 
L 452.677386 206.758875 
L 456.359205 201.220345 
L 460.041023 199.206334 
L 463.722841 200.06627 
L 467.404659 200.930805 
L 471.086477 203.722804 
L 474.768295 204.097756 
L 478.450114 206.015781 
L 482.131932 205.281429 
L 485.81375 202.719144 
L 489.495568 202.03153 
L 493.177386 199.206334 
L 496.859205 195.967695 
L 500.541023 198.257876 
L 504.222841 201.916216 
L 507.904659 203.199844 
L 511.586477 204.517703 
L 515.268295 204.82683 
L 518.950114 199.748311 
L 522.631932 191.562041 
L 526.31375 192.883277 
L 529.995568 194.245166 
L 533.677386 191.302513 
L 537.359205 192.682545 
L 541.041023 192.682545 
L 544.722841 195.578351 
L 548.404659 197.098649 
L 552.086477 190.702912 
L 555.768295 191.946528 
L 559.450114 182.260541 
L 563.131932 183.850338 
L 566.81375 187.232885 
L 570.495568 187.232885 
L 574.177386 187.232885 
L 577.859205 182.986318 
L 581.541023 178.551014 
L 585.222841 178.551014 
L 588.904659 173.914105 
L 592.586477 173.914105 
L 596.268295 169.061526 
L 599.950114 173.914105 
L 603.631932 175.697531 
L 607.31375 179.553588 
L 610.995568 173.914105 
L 614.677386 175.901351 
L 618.359205 175.901351 
L 622.041023 180.237162 
L 625.722841 180.237162 
L 629.404659 182.608309 
L 633.086477 185.132432 
L 636.768295 187.824831 
L 640.450114 187.824831 
L 644.131932 187.824831 
L 647.81375 187.824831 
L 651.495568 190.702912 
L 655.177386 190.702912 
L 658.859205 190.702912 
L 662.541023 176.490165 
L 666.222841 176.490165 
L 669.904659 176.490165 
L 673.586477 176.490165 
L 677.268295 179.264384 
L 680.950114 179.264384 
L 684.631932 179.264384 
L 688.31375 179.264384 
L 691.995568 179.264384 
L 695.677386 179.264384 
L 699.359205 179.264384 
L 703.041023 182.260541 
L 706.722841 182.260541 
L 710.404659 182.260541 
L 714.086477 182.260541 
" style="fill:none;stroke:#8b0000;stroke-linecap:square;stroke-width:2;"/>
   </g>
   <g id="line2d_18">
    <path clip-path="url(#pe2b8cfd809)" d="M 419.541023 184.032399 
L 423.222841 190.075 
L 426.904659 179.271429 
L 430.586477 177.511842 
L 434.268295 169.667896 
L 437.950114 168.833621 
L 441.631932 166.59939 
L 445.31375 161.2 
L 448.995568 162.685738 
L 452.677386 167.349306 
L 456.359205 153.000926 
L 460.041023 154.491667 
L 463.722841 148.803 
L 467.404659 148.393182 
L 471.086477 137.48125 
L 474.768295 123.608019 
L 478.450114 118.627885 
L 482.131932 113.452451 
L 485.81375 114.241667 
L 489.495568 99.968617 
L 493.177386 90.7625 
L 496.859205 69.410366 
L 500.541023 72.65 
L 504.222841 95.075 
L 507.904659 91.292105 
L 511.586477 87.408333 
L 515.268295 87.408333 
L 518.950114 78.975 
L 522.631932 65.38097 
L 526.31375 73.991667 
L 529.995568 82.867308 
L 533.677386 78.184375 
L 537.359205 73.352778 
L 541.041023 73.352778 
L 544.722841 63.214344 
L 548.404659 72.65 
L 552.086477 61.962931 
L 555.768295 87.408333 
L 559.450114 63.795 
L 563.131932 75.360714 
L 566.81375 99.968617 
L 570.495568 99.968617 
L 574.177386 99.968617 
L 577.859205 93.825 
L 581.541023 87.408333 
L 585.222841 87.408333 
L 588.904659 80.7 
L 592.586477 80.7 
L 596.268295 73.679651 
L 599.950114 72.65 
L 603.631932 64.703205 
L 607.31375 47.520946 
L 610.995568 38.213889 
L 614.677386 28.375 
L 618.359205 28.375 
L 622.041023 33.741667 
L 625.722841 33.741667 
L 629.404659 22.840625 
L 633.086477 39.800806 
L 636.768295 57.891667 
L 640.450114 57.891667 
L 644.131932 57.891667 
L 647.81375 57.891667 
L 651.495568 46.69569 
L 655.177386 46.69569 
L 658.859205 46.69569 
L 662.541023 21.815741 
L 666.222841 21.815741 
L 669.904659 21.815741 
L 673.586477 21.815741 
L 677.268295 41.998077 
L 680.950114 41.998077 
L 684.631932 41.998077 
L 688.31375 41.998077 
L 691.995568 41.998077 
L 695.677386 41.998077 
L 699.359205 41.998077 
L 703.041023 63.795 
L 706.722841 63.795 
L 710.404659 63.795 
L 714.086477 63.795 
" style="fill:none;stroke:#000080;stroke-linecap:square;stroke-width:2;"/>
   </g>
   <g id="line2d_19">
    <path clip-path="url(#pe2b8cfd809)" d="M 419.541023 267.075 
L 714.086477 267.075 
" style="fill:none;stroke:#0000ff;stroke-dasharray:3.7,1.6;stroke-dashoffset:0;"/>
   </g>
   <g id="patch_6">
    <path d="M 404.81375 284.4 
L 404.81375 7.2 
" style="fill:none;stroke:#000000;stroke-linecap:square;stroke-linejoin:miter;stroke-width:0.8;"/>
   </g>
   <g id="patch_7">
    <path d="M 404.81375 284.4 
L 728.81375 284.4 
" style="fill:none;stroke:#000000;stroke-linecap:square;stroke-linejoin:miter;stroke-width:0.8;"/>
   </g>
  </g>
  <g id="axes_3">
   <g id="patch_8">
    <path d="M 745.01375 284.4 
L 1069.01375 284.4 
L 1069.01375 7.2 
L 745.01375 7.2 
z
" style="fill:none;"/>
   </g>
   <g id="matplotlib.axis_5">
    <g id="xtick_11">
     <g id="line2d_20">
      <g>
       <use style="stroke:#000000;stroke-width:0.8;" x="759.741023" xlink:href="#mfcab84b9d6" y="284.4"/>
      </g>
     </g>
     <g id="text_17">
      <!-- 1 -->
      <g transform="translate(750.833523 314.175625)scale(0.28 -0.28)">
       <use xlink:href="#DejaVuSans-49"/>
      </g>
     </g>
    </g>
    <g id="xtick_12">
     <g id="line2d_21">
      <g>
       <use style="stroke:#000000;stroke-width:0.8;" x="833.377386" xlink:href="#mfcab84b9d6" y="284.4"/>
      </g>
     </g>
     <g id="text_18">
      <!-- 2 -->
      <g transform="translate(824.469886 314.175625)scale(0.28 -0.28)">
       <use xlink:href="#DejaVuSans-50"/>
      </g>
     </g>
    </g>
    <g id="xtick_13">
     <g id="line2d_22">
      <g>
       <use style="stroke:#000000;stroke-width:0.8;" x="907.01375" xlink:href="#mfcab84b9d6" y="284.4"/>
      </g>
     </g>
     <g id="text_19">
      <!-- 3 -->
      <g transform="translate(898.10625 314.175625)scale(0.28 -0.28)">
       <use xlink:href="#DejaVuSans-51"/>
      </g>
     </g>
    </g>
    <g id="xtick_14">
     <g id="line2d_23">
      <g>
       <use style="stroke:#000000;stroke-width:0.8;" x="980.650114" xlink:href="#mfcab84b9d6" y="284.4"/>
      </g>
     </g>
     <g id="text_20">
      <!-- 4 -->
      <g transform="translate(971.742614 314.175625)scale(0.28 -0.28)">
       <use xlink:href="#DejaVuSans-52"/>
      </g>
     </g>
    </g>
    <g id="xtick_15">
     <g id="line2d_24">
      <g>
       <use style="stroke:#000000;stroke-width:0.8;" x="1054.286477" xlink:href="#mfcab84b9d6" y="284.4"/>
      </g>
     </g>
     <g id="text_21">
      <!-- 5 -->
      <g transform="translate(1045.378977 314.175625)scale(0.28 -0.28)">
       <use xlink:href="#DejaVuSans-53"/>
      </g>
     </g>
    </g>
    <g id="text_22">
     <!-- -log10 p-value -->
     <g transform="translate(806.17875 345.274375)scale(0.28 -0.28)">
      <use xlink:href="#DejaVuSans-45"/>
      <use x="36.083984" xlink:href="#DejaVuSans-108"/>
      <use x="63.867188" xlink:href="#DejaVuSans-111"/>
      <use x="125.048828" xlink:href="#DejaVuSans-103"/>
      <use x="188.525391" xlink:href="#DejaVuSans-49"/>
      <use x="252.148438" xlink:href="#DejaVuSans-48"/>
      <use x="315.771484" xlink:href="#DejaVuSans-32"/>
      <use x="347.558594" xlink:href="#DejaVuSans-112"/>
      <use x="411.035156" xlink:href="#DejaVuSans-45"/>
      <use x="447.087891" xlink:href="#DejaVuSans-118"/>
      <use x="506.267578" xlink:href="#DejaVuSans-97"/>
      <use x="567.546875" xlink:href="#DejaVuSans-108"/>
      <use x="595.330078" xlink:href="#DejaVuSans-117"/>
      <use x="658.708984" xlink:href="#DejaVuSans-101"/>
     </g>
    </g>
   </g>
   <g id="matplotlib.axis_6">
    <g id="ytick_7"/>
    <g id="ytick_8"/>
    <g id="ytick_9"/>
   </g>
   <g id="line2d_25">
    <path clip-path="url(#p674aecd1d3)" d="M 759.741023 263.730204 
L 763.422841 263.730204 
L 767.104659 263.774245 
L 770.786477 263.390647 
L 774.468295 263.446473 
L 778.150114 263.475072 
L 781.831932 263.563754 
L 785.51375 263.142227 
L 789.195568 263.170042 
L 792.877386 263.227157 
L 796.559205 263.256482 
L 800.241023 263.301471 
L 803.922841 263.379241 
L 807.604659 262.890789 
L 811.286477 262.919132 
L 814.968295 262.948027 
L 818.650114 262.962687 
L 822.331932 263.007543 
L 826.01375 263.101395 
L 829.695568 263.150521 
L 833.377386 262.552435 
L 837.059205 262.608545 
L 840.741023 262.667135 
L 844.422841 262.712806 
L 848.104659 262.744118 
L 851.786477 262.792443 
L 855.468295 262.876821 
L 859.150114 262.911995 
L 862.831932 262.242154 
L 866.51375 262.285536 
L 870.195568 262.300365 
L 873.877386 262.300365 
L 877.559205 262.330598 
L 881.241023 262.361621 
L 884.922841 261.603227 
L 888.604659 261.62562 
L 892.286477 261.637047 
L 895.968295 261.69661 
L 899.650114 260.858953 
L 903.331932 260.865632 
L 907.01375 260.87241 
L 910.695568 260.87929 
L 914.377386 260.886275 
L 918.059205 260.907877 
L 921.741023 260.907877 
L 925.422841 260.907877 
L 929.104659 260.938294 
L 932.786477 260.962416 
L 936.468295 260.987753 
L 940.150114 261.005367 
L 943.831932 261.032946 
L 947.51375 261.042465 
L 951.195568 261.052153 
L 954.877386 261.082285 
L 958.559205 261.103312 
L 962.241023 261.114123 
L 965.922841 261.159487 
L 969.604659 261.183529 
L 973.286477 261.183529 
L 976.968295 261.208553 
L 980.650114 261.23462 
L 984.331932 261.248065 
L 988.01375 261.248065 
L 991.695568 261.248065 
L 995.377386 261.261796 
L 999.059205 261.261796 
L 1002.741023 261.319771 
L 1006.422841 261.335079 
L 1010.104659 261.366751 
L 1013.786477 261.399913 
L 1017.468295 261.399913 
L 1021.150114 261.417087 
L 1024.831932 261.434674 
L 1028.51375 261.434674 
L 1032.195568 261.434674 
L 1035.877386 261.434674 
L 1039.559205 261.509475 
L 1043.241023 261.529374 
L 1046.922841 261.529374 
L 1050.604659 261.54979 
L 1054.286477 261.570743 
" style="fill:none;stroke:#8b0000;stroke-linecap:square;stroke-width:2;"/>
   </g>
   <g id="line2d_26">
    <path clip-path="url(#p674aecd1d3)" d="M 759.741023 251.445766 
L 763.422841 251.445766 
L 767.104659 251.552851 
L 770.786477 247.884231 
L 774.468295 245.694137 
L 778.150114 246.297198 
L 781.831932 244.630147 
L 785.51375 242.272115 
L 789.195568 241.046763 
L 792.877386 242.272115 
L 796.559205 241.013794 
L 800.241023 242.909856 
L 803.922841 241.619544 
L 807.604659 239.586893 
L 811.286477 238.205365 
L 814.968295 236.796881 
L 818.650114 236.082282 
L 822.331932 235.989897 
L 826.01375 233.638092 
L 829.695568 231.310953 
L 833.377386 231.136966 
L 837.059205 232.412994 
L 840.741023 229.094496 
L 844.422841 226.507746 
L 848.104659 229.517308 
L 851.786477 226.863128 
L 855.468295 222.228846 
L 859.150114 220.296965 
L 862.831932 217.871614 
L 866.51375 217.408313 
L 870.195568 219.037243 
L 873.877386 219.037243 
L 877.559205 219.642618 
L 881.241023 217.512783 
L 884.922841 213.081582 
L 888.604659 210.775549 
L 892.286477 209.598841 
L 895.968295 206.450102 
L 899.650114 199.974922 
L 903.331932 198.622329 
L 907.01375 197.249548 
L 910.695568 199.02085 
L 914.377386 200.81899 
L 918.059205 203.117822 
L 921.741023 203.117822 
L 925.422841 203.117822 
L 929.104659 197.375192 
L 932.786477 192.821099 
L 936.468295 188.037387 
L 940.150114 188.309467 
L 943.831932 183.197217 
L 947.51375 181.432811 
L 951.195568 183.395012 
L 954.877386 185.636089 
L 958.559205 185.888713 
L 962.241023 184.033182 
L 965.922841 184.500339 
L 969.604659 184.747933 
L 973.286477 184.747933 
L 976.968295 185.005632 
L 980.650114 189.658534 
L 984.331932 187.627834 
L 988.01375 187.627834 
L 991.695568 187.627834 
L 995.377386 185.553928 
L 999.059205 185.553928 
L 1002.741023 186.150962 
L 1006.422841 183.94395 
L 1010.104659 179.377719 
L 1013.786477 174.596606 
L 1017.468295 174.596606 
L 1021.150114 172.120673 
L 1024.831932 169.585079 
L 1028.51375 169.585079 
L 1032.195568 169.585079 
L 1035.877386 169.585079 
L 1039.559205 174.784652 
L 1043.241023 172.120673 
L 1046.922841 172.120673 
L 1050.604659 169.3875 
L 1054.286477 172.120673 
" style="fill:none;stroke:#000080;stroke-linecap:square;stroke-width:2;"/>
   </g>
   <g id="line2d_27">
    <path clip-path="url(#p674aecd1d3)" d="M 759.741023 267.075 
L 1054.286477 267.075 
" style="fill:none;stroke:#0000ff;stroke-dasharray:3.7,1.6;stroke-dashoffset:0;"/>
   </g>
   <g id="patch_9">
    <path d="M 745.01375 284.4 
L 745.01375 7.2 
" style="fill:none;stroke:#000000;stroke-linecap:square;stroke-linejoin:miter;stroke-width:0.8;"/>
   </g>
   <g id="patch_10">
    <path d="M 745.01375 284.4 
L 1069.01375 284.4 
" style="fill:none;stroke:#000000;stroke-linecap:square;stroke-linejoin:miter;stroke-width:0.8;"/>
   </g>
  </g>
 </g>
 <defs>
  <clipPath id="p87eaa926fc">
   <rect height="277.2" width="324" x="64.61375" y="7.2"/>
  </clipPath>
  <clipPath id="pe2b8cfd809">
   <rect height="277.2" width="324" x="404.81375" y="7.2"/>
  </clipPath>
  <clipPath id="p674aecd1d3">
   <rect height="277.2" width="324" x="745.01375" y="7.2"/>
  </clipPath>
 </defs>
</svg>
