<?xml version="1.0" encoding="utf-8" standalone="no"?>
<!DOCTYPE svg PUBLIC "-//W3C//DTD SVG 1.1//EN"
  "http://www.w3.org/Graphics/SVG/1.1/DTD/svg11.dtd">
<!-- Created with matplotlib (https://matplotlib.org/) -->
<svg height="358.2975pt" version="1.1" viewBox="0 0 1094.02875 358.2975" width="1094.02875pt" xmlns="http://www.w3.org/2000/svg" xmlns:xlink="http://www.w3.org/1999/xlink">
 <defs>
  <style type="text/css">
*{stroke-linecap:butt;stroke-linejoin:round;}
  </style>
 </defs>
 <g id="figure_1">
  <g id="patch_1">
   <path d="M 0 358.2975 
L 1094.02875 358.2975 
L 1094.02875 0 
L 0 0 
z
" style="fill:none;"/>
  </g>
  <g id="axes_1">
   <g id="patch_2">
    <path d="M 82.42875 284.4 
L 406.42875 284.4 
L 406.42875 7.2 
L 82.42875 7.2 
z
" style="fill:none;"/>
   </g>
   <g id="matplotlib.axis_1">
    <g id="xtick_1">
     <g id="line2d_1">
      <defs>
       <path d="M 0 0 
L 0 5 
" id="m5eb50c9150" style="stroke:#000000;stroke-width:0.8;"/>
      </defs>
      <g>
       <use style="stroke:#000000;stroke-width:0.8;" x="97.156023" xlink:href="#m5eb50c9150" y="284.4"/>
      </g>
     </g>
     <g id="text_1">
      <!-- 1 -->
      <defs>
       <path d="M 12.40625 8.296875 
L 28.515625 8.296875 
L 28.515625 63.921875 
L 10.984375 60.40625 
L 10.984375 69.390625 
L 28.421875 72.90625 
L 38.28125 72.90625 
L 38.28125 8.296875 
L 54.390625 8.296875 
L 54.390625 0 
L 12.40625 0 
z
" id="DejaVuSans-49"/>
      </defs>
      <g transform="translate(88.248523 314.175625)scale(0.28 -0.28)">
       <use xlink:href="#DejaVuSans-49"/>
      </g>
     </g>
    </g>
    <g id="xtick_2">
     <g id="line2d_2">
      <g>
       <use style="stroke:#000000;stroke-width:0.8;" x="170.792386" xlink:href="#m5eb50c9150" y="284.4"/>
      </g>
     </g>
     <g id="text_2">
      <!-- 2 -->
      <defs>
       <path d="M 19.1875 8.296875 
L 53.609375 8.296875 
L 53.609375 0 
L 7.328125 0 
L 7.328125 8.296875 
Q 12.9375 14.109375 22.625 23.890625 
Q 32.328125 33.6875 34.8125 36.53125 
Q 39.546875 41.84375 41.421875 45.53125 
Q 43.3125 49.21875 43.3125 52.78125 
Q 43.3125 58.59375 39.234375 62.25 
Q 35.15625 65.921875 28.609375 65.921875 
Q 23.96875 65.921875 18.8125 64.3125 
Q 13.671875 62.703125 7.8125 59.421875 
L 7.8125 69.390625 
Q 13.765625 71.78125 18.9375 73 
Q 24.125 74.21875 28.421875 74.21875 
Q 39.75 74.21875 46.484375 68.546875 
Q 53.21875 62.890625 53.21875 53.421875 
Q 53.21875 48.921875 51.53125 44.890625 
Q 49.859375 40.875 45.40625 35.40625 
Q 44.1875 33.984375 37.640625 27.21875 
Q 31.109375 20.453125 19.1875 8.296875 
z
" id="DejaVuSans-50"/>
      </defs>
      <g transform="translate(161.884886 314.175625)scale(0.28 -0.28)">
       <use xlink:href="#DejaVuSans-50"/>
      </g>
     </g>
    </g>
    <g id="xtick_3">
     <g id="line2d_3">
      <g>
       <use style="stroke:#000000;stroke-width:0.8;" x="244.42875" xlink:href="#m5eb50c9150" y="284.4"/>
      </g>
     </g>
     <g id="text_3">
      <!-- 3 -->
      <defs>
       <path d="M 40.578125 39.3125 
Q 47.65625 37.796875 51.625 33 
Q 55.609375 28.21875 55.609375 21.1875 
Q 55.609375 10.40625 48.1875 4.484375 
Q 40.765625 -1.421875 27.09375 -1.421875 
Q 22.515625 -1.421875 17.65625 -0.515625 
Q 12.796875 0.390625 7.625 2.203125 
L 7.625 11.71875 
Q 11.71875 9.328125 16.59375 8.109375 
Q 21.484375 6.890625 26.8125 6.890625 
Q 36.078125 6.890625 40.9375 10.546875 
Q 45.796875 14.203125 45.796875 21.1875 
Q 45.796875 27.640625 41.28125 31.265625 
Q 36.765625 34.90625 28.71875 34.90625 
L 20.21875 34.90625 
L 20.21875 43.015625 
L 29.109375 43.015625 
Q 36.375 43.015625 40.234375 45.921875 
Q 44.09375 48.828125 44.09375 54.296875 
Q 44.09375 59.90625 40.109375 62.90625 
Q 36.140625 65.921875 28.71875 65.921875 
Q 24.65625 65.921875 20.015625 65.03125 
Q 15.375 64.15625 9.8125 62.3125 
L 9.8125 71.09375 
Q 15.4375 72.65625 20.34375 73.4375 
Q 25.25 74.21875 29.59375 74.21875 
Q 40.828125 74.21875 47.359375 69.109375 
Q 53.90625 64.015625 53.90625 55.328125 
Q 53.90625 49.265625 50.4375 45.09375 
Q 46.96875 40.921875 40.578125 39.3125 
z
" id="DejaVuSans-51"/>
      </defs>
      <g transform="translate(235.52125 314.175625)scale(0.28 -0.28)">
       <use xlink:href="#DejaVuSans-51"/>
      </g>
     </g>
    </g>
    <g id="xtick_4">
     <g id="line2d_4">
      <g>
       <use style="stroke:#000000;stroke-width:0.8;" x="318.065114" xlink:href="#m5eb50c9150" y="284.4"/>
      </g>
     </g>
     <g id="text_4">
      <!-- 4 -->
      <defs>
       <path d="M 37.796875 64.3125 
L 12.890625 25.390625 
L 37.796875 25.390625 
z
M 35.203125 72.90625 
L 47.609375 72.90625 
L 47.609375 25.390625 
L 58.015625 25.390625 
L 58.015625 17.1875 
L 47.609375 17.1875 
L 47.609375 0 
L 37.796875 0 
L 37.796875 17.1875 
L 4.890625 17.1875 
L 4.890625 26.703125 
z
" id="DejaVuSans-52"/>
      </defs>
      <g transform="translate(309.157614 314.175625)scale(0.28 -0.28)">
       <use xlink:href="#DejaVuSans-52"/>
      </g>
     </g>
    </g>
    <g id="xtick_5">
     <g id="line2d_5">
      <g>
       <use style="stroke:#000000;stroke-width:0.8;" x="391.701477" xlink:href="#m5eb50c9150" y="284.4"/>
      </g>
     </g>
     <g id="text_5">
      <!-- 5 -->
      <defs>
       <path d="M 10.796875 72.90625 
L 49.515625 72.90625 
L 49.515625 64.59375 
L 19.828125 64.59375 
L 19.828125 46.734375 
Q 21.96875 47.46875 24.109375 47.828125 
Q 26.265625 48.1875 28.421875 48.1875 
Q 40.625 48.1875 47.75 41.5 
Q 54.890625 34.8125 54.890625 23.390625 
Q 54.890625 11.625 47.5625 5.09375 
Q 40.234375 -1.421875 26.90625 -1.421875 
Q 22.3125 -1.421875 17.546875 -0.640625 
Q 12.796875 0.140625 7.71875 1.703125 
L 7.71875 11.625 
Q 12.109375 9.234375 16.796875 8.0625 
Q 21.484375 6.890625 26.703125 6.890625 
Q 35.15625 6.890625 40.078125 11.328125 
Q 45.015625 15.765625 45.015625 23.390625 
Q 45.015625 31 40.078125 35.4375 
Q 35.15625 39.890625 26.703125 39.890625 
Q 22.75 39.890625 18.8125 39.015625 
Q 14.890625 38.140625 10.796875 36.28125 
z
" id="DejaVuSans-53"/>
      </defs>
      <g transform="translate(382.793977 314.175625)scale(0.28 -0.28)">
       <use xlink:href="#DejaVuSans-53"/>
      </g>
     </g>
    </g>
    <g id="text_6">
     <!-- -log10 p-value -->
     <defs>
      <path d="M 4.890625 31.390625 
L 31.203125 31.390625 
L 31.203125 23.390625 
L 4.890625 23.390625 
z
" id="DejaVuSans-45"/>
      <path d="M 9.421875 75.984375 
L 18.40625 75.984375 
L 18.40625 0 
L 9.421875 0 
z
" id="DejaVuSans-108"/>
      <path d="M 30.609375 48.390625 
Q 23.390625 48.390625 19.1875 42.75 
Q 14.984375 37.109375 14.984375 27.296875 
Q 14.984375 17.484375 19.15625 11.84375 
Q 23.34375 6.203125 30.609375 6.203125 
Q 37.796875 6.203125 41.984375 11.859375 
Q 46.1875 17.53125 46.1875 27.296875 
Q 46.1875 37.015625 41.984375 42.703125 
Q 37.796875 48.390625 30.609375 48.390625 
z
M 30.609375 56 
Q 42.328125 56 49.015625 48.375 
Q 55.71875 40.765625 55.71875 27.296875 
Q 55.71875 13.875 49.015625 6.21875 
Q 42.328125 -1.421875 30.609375 -1.421875 
Q 18.84375 -1.421875 12.171875 6.21875 
Q 5.515625 13.875 5.515625 27.296875 
Q 5.515625 40.765625 12.171875 48.375 
Q 18.84375 56 30.609375 56 
z
" id="DejaVuSans-111"/>
      <path d="M 45.40625 27.984375 
Q 45.40625 37.75 41.375 43.109375 
Q 37.359375 48.484375 30.078125 48.484375 
Q 22.859375 48.484375 18.828125 43.109375 
Q 14.796875 37.75 14.796875 27.984375 
Q 14.796875 18.265625 18.828125 12.890625 
Q 22.859375 7.515625 30.078125 7.515625 
Q 37.359375 7.515625 41.375 12.890625 
Q 45.40625 18.265625 45.40625 27.984375 
z
M 54.390625 6.78125 
Q 54.390625 -7.171875 48.1875 -13.984375 
Q 42 -20.796875 29.203125 -20.796875 
Q 24.46875 -20.796875 20.265625 -20.09375 
Q 16.0625 -19.390625 12.109375 -17.921875 
L 12.109375 -9.1875 
Q 16.0625 -11.328125 19.921875 -12.34375 
Q 23.78125 -13.375 27.78125 -13.375 
Q 36.625 -13.375 41.015625 -8.765625 
Q 45.40625 -4.15625 45.40625 5.171875 
L 45.40625 9.625 
Q 42.625 4.78125 38.28125 2.390625 
Q 33.9375 0 27.875 0 
Q 17.828125 0 11.671875 7.65625 
Q 5.515625 15.328125 5.515625 27.984375 
Q 5.515625 40.671875 11.671875 48.328125 
Q 17.828125 56 27.875 56 
Q 33.9375 56 38.28125 53.609375 
Q 42.625 51.21875 45.40625 46.390625 
L 45.40625 54.6875 
L 54.390625 54.6875 
z
" id="DejaVuSans-103"/>
      <path d="M 31.78125 66.40625 
Q 24.171875 66.40625 20.328125 58.90625 
Q 16.5 51.421875 16.5 36.375 
Q 16.5 21.390625 20.328125 13.890625 
Q 24.171875 6.390625 31.78125 6.390625 
Q 39.453125 6.390625 43.28125 13.890625 
Q 47.125 21.390625 47.125 36.375 
Q 47.125 51.421875 43.28125 58.90625 
Q 39.453125 66.40625 31.78125 66.40625 
z
M 31.78125 74.21875 
Q 44.046875 74.21875 50.515625 64.515625 
Q 56.984375 54.828125 56.984375 36.375 
Q 56.984375 17.96875 50.515625 8.265625 
Q 44.046875 -1.421875 31.78125 -1.421875 
Q 19.53125 -1.421875 13.0625 8.265625 
Q 6.59375 17.96875 6.59375 36.375 
Q 6.59375 54.828125 13.0625 64.515625 
Q 19.53125 74.21875 31.78125 74.21875 
z
" id="DejaVuSans-48"/>
      <path id="DejaVuSans-32"/>
      <path d="M 18.109375 8.203125 
L 18.109375 -20.796875 
L 9.078125 -20.796875 
L 9.078125 54.6875 
L 18.109375 54.6875 
L 18.109375 46.390625 
Q 20.953125 51.265625 25.265625 53.625 
Q 29.59375 56 35.59375 56 
Q 45.5625 56 51.78125 48.09375 
Q 58.015625 40.1875 58.015625 27.296875 
Q 58.015625 14.40625 51.78125 6.484375 
Q 45.5625 -1.421875 35.59375 -1.421875 
Q 29.59375 -1.421875 25.265625 0.953125 
Q 20.953125 3.328125 18.109375 8.203125 
z
M 48.6875 27.296875 
Q 48.6875 37.203125 44.609375 42.84375 
Q 40.53125 48.484375 33.40625 48.484375 
Q 26.265625 48.484375 22.1875 42.84375 
Q 18.109375 37.203125 18.109375 27.296875 
Q 18.109375 17.390625 22.1875 11.75 
Q 26.265625 6.109375 33.40625 6.109375 
Q 40.53125 6.109375 44.609375 11.75 
Q 48.6875 17.390625 48.6875 27.296875 
z
" id="DejaVuSans-112"/>
      <path d="M 2.984375 54.6875 
L 12.5 54.6875 
L 29.59375 8.796875 
L 46.6875 54.6875 
L 56.203125 54.6875 
L 35.6875 0 
L 23.484375 0 
z
" id="DejaVuSans-118"/>
      <path d="M 34.28125 27.484375 
Q 23.390625 27.484375 19.1875 25 
Q 14.984375 22.515625 14.984375 16.5 
Q 14.984375 11.71875 18.140625 8.90625 
Q 21.296875 6.109375 26.703125 6.109375 
Q 34.1875 6.109375 38.703125 11.40625 
Q 43.21875 16.703125 43.21875 25.484375 
L 43.21875 27.484375 
z
M 52.203125 31.203125 
L 52.203125 0 
L 43.21875 0 
L 43.21875 8.296875 
Q 40.140625 3.328125 35.546875 0.953125 
Q 30.953125 -1.421875 24.3125 -1.421875 
Q 15.921875 -1.421875 10.953125 3.296875 
Q 6 8.015625 6 15.921875 
Q 6 25.140625 12.171875 29.828125 
Q 18.359375 34.515625 30.609375 34.515625 
L 43.21875 34.515625 
L 43.21875 35.40625 
Q 43.21875 41.609375 39.140625 45 
Q 35.0625 48.390625 27.6875 48.390625 
Q 23 48.390625 18.546875 47.265625 
Q 14.109375 46.140625 10.015625 43.890625 
L 10.015625 52.203125 
Q 14.9375 54.109375 19.578125 55.046875 
Q 24.21875 56 28.609375 56 
Q 40.484375 56 46.34375 49.84375 
Q 52.203125 43.703125 52.203125 31.203125 
z
" id="DejaVuSans-97"/>
      <path d="M 8.5 21.578125 
L 8.5 54.6875 
L 17.484375 54.6875 
L 17.484375 21.921875 
Q 17.484375 14.15625 20.5 10.265625 
Q 23.53125 6.390625 29.59375 6.390625 
Q 36.859375 6.390625 41.078125 11.03125 
Q 45.3125 15.671875 45.3125 23.6875 
L 45.3125 54.6875 
L 54.296875 54.6875 
L 54.296875 0 
L 45.3125 0 
L 45.3125 8.40625 
Q 42.046875 3.421875 37.71875 1 
Q 33.40625 -1.421875 27.6875 -1.421875 
Q 18.265625 -1.421875 13.375 4.4375 
Q 8.5 10.296875 8.5 21.578125 
z
M 31.109375 56 
z
" id="DejaVuSans-117"/>
      <path d="M 56.203125 29.59375 
L 56.203125 25.203125 
L 14.890625 25.203125 
Q 15.484375 15.921875 20.484375 11.0625 
Q 25.484375 6.203125 34.421875 6.203125 
Q 39.59375 6.203125 44.453125 7.46875 
Q 49.3125 8.734375 54.109375 11.28125 
L 54.109375 2.78125 
Q 49.265625 0.734375 44.1875 -0.34375 
Q 39.109375 -1.421875 33.890625 -1.421875 
Q 20.796875 -1.421875 13.15625 6.1875 
Q 5.515625 13.8125 5.515625 26.8125 
Q 5.515625 40.234375 12.765625 48.109375 
Q 20.015625 56 32.328125 56 
Q 43.359375 56 49.78125 48.890625 
Q 56.203125 41.796875 56.203125 29.59375 
z
M 47.21875 32.234375 
Q 47.125 39.59375 43.09375 43.984375 
Q 39.0625 48.390625 32.421875 48.390625 
Q 24.90625 48.390625 20.390625 44.140625 
Q 15.875 39.890625 15.1875 32.171875 
z
" id="DejaVuSans-101"/>
     </defs>
     <g transform="translate(143.59375 345.274375)scale(0.28 -0.28)">
      <use xlink:href="#DejaVuSans-45"/>
      <use x="36.083984" xlink:href="#DejaVuSans-108"/>
      <use x="63.867188" xlink:href="#DejaVuSans-111"/>
      <use x="125.048828" xlink:href="#DejaVuSans-103"/>
      <use x="188.525391" xlink:href="#DejaVuSans-49"/>
      <use x="252.148438" xlink:href="#DejaVuSans-48"/>
      <use x="315.771484" xlink:href="#DejaVuSans-32"/>
      <use x="347.558594" xlink:href="#DejaVuSans-112"/>
      <use x="411.035156" xlink:href="#DejaVuSans-45"/>
      <use x="447.087891" xlink:href="#DejaVuSans-118"/>
      <use x="506.267578" xlink:href="#DejaVuSans-97"/>
      <use x="567.546875" xlink:href="#DejaVuSans-108"/>
      <use x="595.330078" xlink:href="#DejaVuSans-117"/>
      <use x="658.708984" xlink:href="#DejaVuSans-101"/>
     </g>
    </g>
   </g>
   <g id="matplotlib.axis_2">
    <g id="ytick_1">
     <g id="line2d_6">
      <defs>
       <path d="M 0 0 
L -5 0 
" id="mf16869181a" style="stroke:#000000;stroke-width:0.8;"/>
      </defs>
      <g>
       <use style="stroke:#000000;stroke-width:0.8;" x="82.42875" xlink:href="#mf16869181a" y="283.846707"/>
      </g>
     </g>
     <g id="text_7">
      <!-- 0 -->
      <g transform="translate(56.11375 294.484519)scale(0.28 -0.28)">
       <use xlink:href="#DejaVuSans-48"/>
      </g>
     </g>
    </g>
    <g id="ytick_2">
     <g id="line2d_7">
      <g>
       <use style="stroke:#000000;stroke-width:0.8;" x="82.42875" xlink:href="#mf16869181a" y="173.188024"/>
      </g>
     </g>
     <g id="text_8">
      <!-- 10 -->
      <g transform="translate(38.29875 183.825836)scale(0.28 -0.28)">
       <use xlink:href="#DejaVuSans-49"/>
       <use x="63.623047" xlink:href="#DejaVuSans-48"/>
      </g>
     </g>
    </g>
    <g id="ytick_3">
     <g id="line2d_8">
      <g>
       <use style="stroke:#000000;stroke-width:0.8;" x="82.42875" xlink:href="#mf16869181a" y="62.529341"/>
      </g>
     </g>
     <g id="text_9">
      <!-- 20 -->
      <g transform="translate(38.29875 73.167154)scale(0.28 -0.28)">
       <use xlink:href="#DejaVuSans-50"/>
       <use x="63.623047" xlink:href="#DejaVuSans-48"/>
      </g>
     </g>
    </g>
    <g id="text_10">
     <!-- enrichment p-value -->
     <defs>
      <path d="M 54.890625 33.015625 
L 54.890625 0 
L 45.90625 0 
L 45.90625 32.71875 
Q 45.90625 40.484375 42.875 44.328125 
Q 39.84375 48.1875 33.796875 48.1875 
Q 26.515625 48.1875 22.3125 43.546875 
Q 18.109375 38.921875 18.109375 30.90625 
L 18.109375 0 
L 9.078125 0 
L 9.078125 54.6875 
L 18.109375 54.6875 
L 18.109375 46.1875 
Q 21.34375 51.125 25.703125 53.5625 
Q 30.078125 56 35.796875 56 
Q 45.21875 56 50.046875 50.171875 
Q 54.890625 44.34375 54.890625 33.015625 
z
" id="DejaVuSans-110"/>
      <path d="M 41.109375 46.296875 
Q 39.59375 47.171875 37.8125 47.578125 
Q 36.03125 48 33.890625 48 
Q 26.265625 48 22.1875 43.046875 
Q 18.109375 38.09375 18.109375 28.8125 
L 18.109375 0 
L 9.078125 0 
L 9.078125 54.6875 
L 18.109375 54.6875 
L 18.109375 46.1875 
Q 20.953125 51.171875 25.484375 53.578125 
Q 30.03125 56 36.53125 56 
Q 37.453125 56 38.578125 55.875 
Q 39.703125 55.765625 41.0625 55.515625 
z
" id="DejaVuSans-114"/>
      <path d="M 9.421875 54.6875 
L 18.40625 54.6875 
L 18.40625 0 
L 9.421875 0 
z
M 9.421875 75.984375 
L 18.40625 75.984375 
L 18.40625 64.59375 
L 9.421875 64.59375 
z
" id="DejaVuSans-105"/>
      <path d="M 48.78125 52.59375 
L 48.78125 44.1875 
Q 44.96875 46.296875 41.140625 47.34375 
Q 37.3125 48.390625 33.40625 48.390625 
Q 24.65625 48.390625 19.8125 42.84375 
Q 14.984375 37.3125 14.984375 27.296875 
Q 14.984375 17.28125 19.8125 11.734375 
Q 24.65625 6.203125 33.40625 6.203125 
Q 37.3125 6.203125 41.140625 7.25 
Q 44.96875 8.296875 48.78125 10.40625 
L 48.78125 2.09375 
Q 45.015625 0.34375 40.984375 -0.53125 
Q 36.96875 -1.421875 32.421875 -1.421875 
Q 20.0625 -1.421875 12.78125 6.34375 
Q 5.515625 14.109375 5.515625 27.296875 
Q 5.515625 40.671875 12.859375 48.328125 
Q 20.21875 56 33.015625 56 
Q 37.15625 56 41.109375 55.140625 
Q 45.0625 54.296875 48.78125 52.59375 
z
" id="DejaVuSans-99"/>
      <path d="M 54.890625 33.015625 
L 54.890625 0 
L 45.90625 0 
L 45.90625 32.71875 
Q 45.90625 40.484375 42.875 44.328125 
Q 39.84375 48.1875 33.796875 48.1875 
Q 26.515625 48.1875 22.3125 43.546875 
Q 18.109375 38.921875 18.109375 30.90625 
L 18.109375 0 
L 9.078125 0 
L 9.078125 75.984375 
L 18.109375 75.984375 
L 18.109375 46.1875 
Q 21.34375 51.125 25.703125 53.5625 
Q 30.078125 56 35.796875 56 
Q 45.21875 56 50.046875 50.171875 
Q 54.890625 44.34375 54.890625 33.015625 
z
" id="DejaVuSans-104"/>
      <path d="M 52 44.1875 
Q 55.375 50.25 60.0625 53.125 
Q 64.75 56 71.09375 56 
Q 79.640625 56 84.28125 50.015625 
Q 88.921875 44.046875 88.921875 33.015625 
L 88.921875 0 
L 79.890625 0 
L 79.890625 32.71875 
Q 79.890625 40.578125 77.09375 44.375 
Q 74.3125 48.1875 68.609375 48.1875 
Q 61.625 48.1875 57.5625 43.546875 
Q 53.515625 38.921875 53.515625 30.90625 
L 53.515625 0 
L 44.484375 0 
L 44.484375 32.71875 
Q 44.484375 40.625 41.703125 44.40625 
Q 38.921875 48.1875 33.109375 48.1875 
Q 26.21875 48.1875 22.15625 43.53125 
Q 18.109375 38.875 18.109375 30.90625 
L 18.109375 0 
L 9.078125 0 
L 9.078125 54.6875 
L 18.109375 54.6875 
L 18.109375 46.1875 
Q 21.1875 51.21875 25.484375 53.609375 
Q 29.78125 56 35.6875 56 
Q 41.65625 56 45.828125 52.96875 
Q 50 49.953125 52 44.1875 
z
" id="DejaVuSans-109"/>
      <path d="M 18.3125 70.21875 
L 18.3125 54.6875 
L 36.8125 54.6875 
L 36.8125 47.703125 
L 18.3125 47.703125 
L 18.3125 18.015625 
Q 18.3125 11.328125 20.140625 9.421875 
Q 21.96875 7.515625 27.59375 7.515625 
L 36.8125 7.515625 
L 36.8125 0 
L 27.59375 0 
Q 17.1875 0 13.234375 3.875 
Q 9.28125 7.765625 9.28125 18.015625 
L 9.28125 47.703125 
L 2.6875 47.703125 
L 2.6875 54.6875 
L 9.28125 54.6875 
L 9.28125 70.21875 
z
" id="DejaVuSans-116"/>
     </defs>
     <g transform="translate(28.475625 282.739688)rotate(-90)scale(0.28 -0.28)">
      <use xlink:href="#DejaVuSans-101"/>
      <use x="61.523438" xlink:href="#DejaVuSans-110"/>
      <use x="124.902344" xlink:href="#DejaVuSans-114"/>
      <use x="166.015625" xlink:href="#DejaVuSans-105"/>
      <use x="193.798828" xlink:href="#DejaVuSans-99"/>
      <use x="248.779297" xlink:href="#DejaVuSans-104"/>
      <use x="312.158203" xlink:href="#DejaVuSans-109"/>
      <use x="409.570312" xlink:href="#DejaVuSans-101"/>
      <use x="471.09375" xlink:href="#DejaVuSans-110"/>
      <use x="534.472656" xlink:href="#DejaVuSans-116"/>
      <use x="573.681641" xlink:href="#DejaVuSans-32"/>
      <use x="605.46875" xlink:href="#DejaVuSans-112"/>
      <use x="668.945312" xlink:href="#DejaVuSans-45"/>
      <use x="704.998047" xlink:href="#DejaVuSans-118"/>
      <use x="764.177734" xlink:href="#DejaVuSans-97"/>
      <use x="825.457031" xlink:href="#DejaVuSans-108"/>
      <use x="853.240234" xlink:href="#DejaVuSans-117"/>
      <use x="916.619141" xlink:href="#DejaVuSans-101"/>
     </g>
    </g>
   </g>
   <g id="line2d_9">
    <path clip-path="url(#p63e7525e91)" d="M 97.156023 195.083722 
L 100.837841 196.217298 
L 104.519659 188.99005 
L 108.201477 191.990368 
L 111.883295 193.821965 
L 115.565114 184.971555 
L 119.246932 185.625987 
L 122.92875 179.594667 
L 126.610568 181.846531 
L 130.292386 180.559712 
L 133.974205 178.140584 
L 137.656023 172.601453 
L 141.337841 167.996542 
L 145.019659 169.205005 
L 148.701477 164.51757 
L 152.383295 168.171052 
L 156.065114 166.049534 
L 159.746932 162.759809 
L 163.42875 159.539744 
L 167.110568 154.975969 
L 170.792386 160.206692 
L 174.474205 157.622789 
L 178.156023 154.976919 
L 181.837841 149.474062 
L 185.519659 147.096669 
L 189.201477 144.795176 
L 192.883295 147.286439 
L 196.565114 144.92667 
L 200.246932 142.429761 
L 203.92875 138.558141 
L 207.610568 135.191182 
L 211.292386 131.497472 
L 214.974205 136.252831 
L 218.656023 133.011546 
L 222.337841 139.177784 
L 226.019659 132.500097 
L 229.701477 129.287747 
L 233.383295 133.281793 
L 237.065114 130.941267 
L 240.746932 128.997543 
L 244.42875 133.028834 
L 248.110568 145.577464 
L 251.792386 143.438921 
L 255.474205 141.213278 
L 259.156023 146.883386 
L 262.837841 146.883386 
L 266.519659 153.084386 
L 270.201477 152.39749 
L 273.883295 150.967563 
L 277.565114 164.745397 
L 281.246932 161.186304 
L 284.92875 159.086076 
L 288.610568 157.651177 
L 292.292386 157.108448 
L 295.974205 152.934979 
L 299.656023 159.220872 
L 303.337841 161.380286 
L 307.019659 161.380286 
L 310.701477 159.887557 
L 314.383295 158.413194 
L 318.065114 157.651177 
L 321.746932 157.651177 
L 325.42875 156.310865 
L 329.110568 154.844856 
L 332.792386 154.844856 
L 336.474205 151.78684 
L 340.156023 157.490689 
L 343.837841 157.490689 
L 347.519659 155.090769 
L 351.201477 155.090769 
L 354.883295 154.537856 
L 358.565114 153.682123 
L 362.246932 151.215506 
L 365.92875 150.382879 
L 369.610568 147.702563 
L 373.292386 155.236987 
L 376.974205 154.650409 
L 380.656023 161.74923 
L 384.337841 168.625127 
L 388.019659 167.851767 
L 391.701477 173.784849 
" style="fill:none;stroke:#8b0000;stroke-linecap:square;stroke-width:2;"/>
   </g>
   <g id="line2d_10">
    <path clip-path="url(#p63e7525e91)" d="M 97.156023 158.314081 
L 100.837841 156.416153 
L 104.519659 150.263766 
L 108.201477 147.460708 
L 111.883295 157.601738 
L 115.565114 137.355248 
L 119.246932 130.228042 
L 122.92875 115.436041 
L 126.610568 111.27931 
L 130.292386 98.603434 
L 133.974205 98.38649 
L 137.656023 83.851485 
L 141.337841 90.026494 
L 145.019659 89.95619 
L 148.701477 89.95619 
L 152.383295 83.864951 
L 156.065114 84.375817 
L 159.746932 82.54476 
L 163.42875 80.258627 
L 167.110568 73.307754 
L 170.792386 72.457183 
L 174.474205 64.990299 
L 178.156023 70.363269 
L 181.837841 54.782449 
L 185.519659 49.724448 
L 189.201477 49.724448 
L 192.883295 49.724448 
L 196.565114 49.724448 
L 200.246932 49.724448 
L 203.92875 56.119469 
L 207.610568 49.724448 
L 211.292386 49.724448 
L 214.974205 54.782449 
L 218.656023 53.242233 
L 222.337841 53.242233 
L 226.019659 49.724448 
L 229.701477 49.724448 
L 233.383295 63.112372 
L 237.065114 69.537689 
L 240.746932 77.365805 
L 244.42875 86.285146 
L 248.110568 106.570773 
L 251.792386 101.657636 
L 255.474205 102.587614 
L 259.156023 102.190085 
L 262.837841 102.190085 
L 266.519659 109.701402 
L 270.201477 107.982883 
L 273.883295 110.745961 
L 277.565114 118.282528 
L 281.246932 122.338458 
L 284.92875 123.445654 
L 288.610568 120.010595 
L 292.292386 118.282528 
L 295.974205 107.762501 
L 299.656023 110.476479 
L 303.337841 133.049946 
L 307.019659 133.049946 
L 310.701477 130.315627 
L 314.383295 132.628499 
L 318.065114 130.993097 
L 321.746932 130.993097 
L 325.42875 133.273201 
L 329.110568 130.375916 
L 332.792386 130.375916 
L 336.474205 123.679807 
L 340.156023 124.459726 
L 343.837841 124.459726 
L 347.519659 125.224069 
L 351.201477 125.224069 
L 354.883295 123.678126 
L 358.565114 128.051472 
L 362.246932 128.875764 
L 365.92875 132.747878 
L 369.610568 139.611006 
L 373.292386 144.032655 
L 376.974205 142.301731 
L 380.656023 146.59358 
L 384.337841 154.802538 
L 388.019659 153.156795 
L 391.701477 159.310378 
" style="fill:none;stroke:#000080;stroke-linecap:square;stroke-width:2;"/>
   </g>
   <g id="line2d_11">
    <path clip-path="url(#p63e7525e91)" d="M 97.156023 269.44968 
L 391.701477 269.44968 
" style="fill:none;stroke:#ff0000;stroke-dasharray:3.7,1.6;stroke-dashoffset:0;"/>
   </g>
   <g id="patch_3">
    <path d="M 82.42875 284.4 
L 82.42875 7.2 
" style="fill:none;stroke:#000000;stroke-linecap:square;stroke-linejoin:miter;stroke-width:0.8;"/>
   </g>
   <g id="patch_4">
    <path d="M 82.42875 284.4 
L 406.42875 284.4 
" style="fill:none;stroke:#000000;stroke-linecap:square;stroke-linejoin:miter;stroke-width:0.8;"/>
   </g>
  </g>
  <g id="axes_2">
   <g id="patch_5">
    <path d="M 422.62875 284.4 
L 746.62875 284.4 
L 746.62875 7.2 
L 422.62875 7.2 
z
" style="fill:none;"/>
   </g>
   <g id="matplotlib.axis_3">
    <g id="xtick_6">
     <g id="line2d_12">
      <g>
       <use style="stroke:#000000;stroke-width:0.8;" x="437.356023" xlink:href="#m5eb50c9150" y="284.4"/>
      </g>
     </g>
     <g id="text_11">
      <!-- 1 -->
      <g transform="translate(428.448523 314.175625)scale(0.28 -0.28)">
       <use xlink:href="#DejaVuSans-49"/>
      </g>
     </g>
    </g>
    <g id="xtick_7">
     <g id="line2d_13">
      <g>
       <use style="stroke:#000000;stroke-width:0.8;" x="510.992386" xlink:href="#m5eb50c9150" y="284.4"/>
      </g>
     </g>
     <g id="text_12">
      <!-- 2 -->
      <g transform="translate(502.084886 314.175625)scale(0.28 -0.28)">
       <use xlink:href="#DejaVuSans-50"/>
      </g>
     </g>
    </g>
    <g id="xtick_8">
     <g id="line2d_14">
      <g>
       <use style="stroke:#000000;stroke-width:0.8;" x="584.62875" xlink:href="#m5eb50c9150" y="284.4"/>
      </g>
     </g>
     <g id="text_13">
      <!-- 3 -->
      <g transform="translate(575.72125 314.175625)scale(0.28 -0.28)">
       <use xlink:href="#DejaVuSans-51"/>
      </g>
     </g>
    </g>
    <g id="xtick_9">
     <g id="line2d_15">
      <g>
       <use style="stroke:#000000;stroke-width:0.8;" x="658.265114" xlink:href="#m5eb50c9150" y="284.4"/>
      </g>
     </g>
     <g id="text_14">
      <!-- 4 -->
      <g transform="translate(649.357614 314.175625)scale(0.28 -0.28)">
       <use xlink:href="#DejaVuSans-52"/>
      </g>
     </g>
    </g>
    <g id="xtick_10">
     <g id="line2d_16">
      <g>
       <use style="stroke:#000000;stroke-width:0.8;" x="731.901477" xlink:href="#m5eb50c9150" y="284.4"/>
      </g>
     </g>
     <g id="text_15">
      <!-- 5 -->
      <g transform="translate(722.993977 314.175625)scale(0.28 -0.28)">
       <use xlink:href="#DejaVuSans-53"/>
      </g>
     </g>
    </g>
    <g id="text_16">
     <!-- -log10 p-value -->
     <g transform="translate(483.79375 345.274375)scale(0.28 -0.28)">
      <use xlink:href="#DejaVuSans-45"/>
      <use x="36.083984" xlink:href="#DejaVuSans-108"/>
      <use x="63.867188" xlink:href="#DejaVuSans-111"/>
      <use x="125.048828" xlink:href="#DejaVuSans-103"/>
      <use x="188.525391" xlink:href="#DejaVuSans-49"/>
      <use x="252.148438" xlink:href="#DejaVuSans-48"/>
      <use x="315.771484" xlink:href="#DejaVuSans-32"/>
      <use x="347.558594" xlink:href="#DejaVuSans-112"/>
      <use x="411.035156" xlink:href="#DejaVuSans-45"/>
      <use x="447.087891" xlink:href="#DejaVuSans-118"/>
      <use x="506.267578" xlink:href="#DejaVuSans-97"/>
      <use x="567.546875" xlink:href="#DejaVuSans-108"/>
      <use x="595.330078" xlink:href="#DejaVuSans-117"/>
      <use x="658.708984" xlink:href="#DejaVuSans-101"/>
     </g>
    </g>
   </g>
   <g id="matplotlib.axis_4">
    <g id="ytick_4"/>
    <g id="ytick_5"/>
    <g id="ytick_6"/>
   </g>
   <g id="line2d_17">
    <path clip-path="url(#p5016f9b406)" d="M 437.356023 209.746839 
L 441.037841 222.779952 
L 444.719659 211.645129 
L 448.401477 209.071092 
L 452.083295 203.936111 
L 455.765114 204.207009 
L 459.446932 204.427339 
L 463.12875 208.497396 
L 466.810568 204.207009 
L 470.492386 204.948228 
L 474.174205 203.205689 
L 477.856023 203.205689 
L 481.537841 204.207009 
L 485.219659 206.992645 
L 488.901477 217.75439 
L 492.583295 222.071805 
L 496.265114 225.043326 
L 499.946932 225.043326 
L 503.62875 223.499914 
L 507.310568 224.934906 
L 510.992386 224.601541 
L 514.674205 224.210775 
L 518.356023 227.006065 
L 522.037841 232.429861 
L 525.719659 234.638405 
L 529.401477 236.763414 
L 533.083295 238.554898 
L 536.765114 234.155946 
L 540.446932 227.310544 
L 544.12875 229.026668 
L 547.810568 231.242144 
L 551.492386 228.932011 
L 555.174205 231.006297 
L 558.856023 231.006297 
L 562.537841 235.318378 
L 566.219659 237.660382 
L 569.901477 232.429861 
L 573.583295 236.763414 
L 577.265114 230.706608 
L 580.946932 232.887294 
L 584.62875 237.660382 
L 588.310568 237.660382 
L 591.992386 237.660382 
L 595.674205 234.809368 
L 599.356023 231.605596 
L 603.037841 231.605596 
L 606.719659 228.786925 
L 610.401477 228.786925 
L 614.083295 225.973009 
L 617.765114 232.568591 
L 621.446932 235.239924 
L 625.12875 240.289982 
L 628.810568 237.029474 
L 632.492386 239.485182 
L 636.174205 239.485182 
L 639.856023 244.971787 
L 643.537841 244.971787 
L 647.219659 247.487422 
L 650.901477 249.777606 
L 654.583295 251.962759 
L 658.265114 251.962759 
L 661.946932 251.962759 
L 665.62875 251.962759 
L 669.310568 254.47394 
L 672.992386 254.47394 
L 676.674205 254.47394 
L 680.356023 248.410636 
L 684.037841 248.410636 
L 687.719659 248.410636 
L 691.401477 248.410636 
L 695.083295 250.734386 
L 698.765114 250.734386 
L 702.446932 250.734386 
L 706.12875 250.734386 
L 709.810568 250.734386 
L 713.492386 250.734386 
L 717.174205 250.734386 
L 720.856023 253.400464 
L 724.537841 253.400464 
L 728.219659 253.400464 
L 731.901477 253.400464 
" style="fill:none;stroke:#8b0000;stroke-linecap:square;stroke-width:2;"/>
   </g>
   <g id="line2d_18">
    <path clip-path="url(#p5016f9b406)" d="M 437.356023 225.24469 
L 441.037841 234.764647 
L 444.719659 228.455469 
L 448.401477 228.775092 
L 452.083295 225.048678 
L 455.765114 227.006065 
L 459.446932 228.455469 
L 463.12875 227.184005 
L 466.810568 230.447206 
L 470.492386 235.318378 
L 474.174205 228.932011 
L 477.856023 231.025195 
L 481.537841 230.302129 
L 485.219659 231.517591 
L 488.901477 228.932011 
L 492.583295 225.048678 
L 496.265114 224.177062 
L 499.946932 222.565099 
L 503.62875 224.210775 
L 507.310568 219.54735 
L 510.992386 218.569754 
L 514.674205 210.856542 
L 518.356023 214.619795 
L 522.037841 226.928328 
L 525.719659 225.919394 
L 529.401477 225.048678 
L 533.083295 226.928328 
L 536.765114 225.048678 
L 540.446932 222.565099 
L 544.12875 225.664015 
L 547.810568 229.026668 
L 551.492386 228.455469 
L 555.174205 227.184005 
L 558.856023 227.184005 
L 562.537841 225.337582 
L 566.219659 228.932011 
L 569.901477 227.006065 
L 573.583295 238.612218 
L 577.265114 233.766323 
L 580.946932 238.377399 
L 584.62875 247.568793 
L 588.310568 247.568793 
L 591.992386 247.568793 
L 595.674205 246.428082 
L 599.356023 245.191694 
L 603.037841 245.191694 
L 606.719659 244.146619 
L 610.401477 244.146619 
L 614.083295 242.82518 
L 617.765114 244.971787 
L 621.446932 243.716584 
L 625.12875 240.649632 
L 628.810568 239.155886 
L 632.492386 237.660382 
L 636.174205 237.660382 
L 639.856023 241.182824 
L 643.537841 241.182824 
L 647.219659 239.514209 
L 650.901477 244.971787 
L 654.583295 249.777606 
L 658.265114 249.777606 
L 661.946932 249.777606 
L 665.62875 249.777606 
L 669.310568 248.410636 
L 672.992386 248.410636 
L 676.674205 248.410636 
L 680.356023 245.191694 
L 684.037841 245.191694 
L 687.719659 245.191694 
L 691.401477 245.191694 
L 695.083295 250.23201 
L 698.765114 250.23201 
L 702.446932 250.23201 
L 706.12875 250.23201 
L 709.810568 250.23201 
L 713.492386 250.23201 
L 717.174205 250.23201 
L 720.856023 255.168969 
L 724.537841 255.168969 
L 728.219659 255.168969 
L 731.901477 255.168969 
" style="fill:none;stroke:#000080;stroke-linecap:square;stroke-width:2;"/>
   </g>
   <g id="line2d_19">
    <path clip-path="url(#p5016f9b406)" d="M 437.356023 269.44968 
L 731.901477 269.44968 
" style="fill:none;stroke:#ff0000;stroke-dasharray:3.7,1.6;stroke-dashoffset:0;"/>
   </g>
   <g id="patch_6">
    <path d="M 422.62875 284.4 
L 422.62875 7.2 
" style="fill:none;stroke:#000000;stroke-linecap:square;stroke-linejoin:miter;stroke-width:0.8;"/>
   </g>
   <g id="patch_7">
    <path d="M 422.62875 284.4 
L 746.62875 284.4 
" style="fill:none;stroke:#000000;stroke-linecap:square;stroke-linejoin:miter;stroke-width:0.8;"/>
   </g>
  </g>
  <g id="axes_3">
   <g id="patch_8">
    <path d="M 762.82875 284.4 
L 1086.82875 284.4 
L 1086.82875 7.2 
L 762.82875 7.2 
z
" style="fill:none;"/>
   </g>
   <g id="matplotlib.axis_5">
    <g id="xtick_11">
     <g id="line2d_20">
      <g>
       <use style="stroke:#000000;stroke-width:0.8;" x="777.556023" xlink:href="#m5eb50c9150" y="284.4"/>
      </g>
     </g>
     <g id="text_17">
      <!-- 1 -->
      <g transform="translate(768.648523 314.175625)scale(0.28 -0.28)">
       <use xlink:href="#DejaVuSans-49"/>
      </g>
     </g>
    </g>
    <g id="xtick_12">
     <g id="line2d_21">
      <g>
       <use style="stroke:#000000;stroke-width:0.8;" x="851.192386" xlink:href="#m5eb50c9150" y="284.4"/>
      </g>
     </g>
     <g id="text_18">
      <!-- 2 -->
      <g transform="translate(842.284886 314.175625)scale(0.28 -0.28)">
       <use xlink:href="#DejaVuSans-50"/>
      </g>
     </g>
    </g>
    <g id="xtick_13">
     <g id="line2d_22">
      <g>
       <use style="stroke:#000000;stroke-width:0.8;" x="924.82875" xlink:href="#m5eb50c9150" y="284.4"/>
      </g>
     </g>
     <g id="text_19">
      <!-- 3 -->
      <g transform="translate(915.92125 314.175625)scale(0.28 -0.28)">
       <use xlink:href="#DejaVuSans-51"/>
      </g>
     </g>
    </g>
    <g id="xtick_14">
     <g id="line2d_23">
      <g>
       <use style="stroke:#000000;stroke-width:0.8;" x="998.465114" xlink:href="#m5eb50c9150" y="284.4"/>
      </g>
     </g>
     <g id="text_20">
      <!-- 4 -->
      <g transform="translate(989.557614 314.175625)scale(0.28 -0.28)">
       <use xlink:href="#DejaVuSans-52"/>
      </g>
     </g>
    </g>
    <g id="xtick_15">
     <g id="line2d_24">
      <g>
       <use style="stroke:#000000;stroke-width:0.8;" x="1072.101477" xlink:href="#m5eb50c9150" y="284.4"/>
      </g>
     </g>
     <g id="text_21">
      <!-- 5 -->
      <g transform="translate(1063.193977 314.175625)scale(0.28 -0.28)">
       <use xlink:href="#DejaVuSans-53"/>
      </g>
     </g>
    </g>
    <g id="text_22">
     <!-- -log10 p-value -->
     <g transform="translate(823.99375 345.274375)scale(0.28 -0.28)">
      <use xlink:href="#DejaVuSans-45"/>
      <use x="36.083984" xlink:href="#DejaVuSans-108"/>
      <use x="63.867188" xlink:href="#DejaVuSans-111"/>
      <use x="125.048828" xlink:href="#DejaVuSans-103"/>
      <use x="188.525391" xlink:href="#DejaVuSans-49"/>
      <use x="252.148438" xlink:href="#DejaVuSans-48"/>
      <use x="315.771484" xlink:href="#DejaVuSans-32"/>
      <use x="347.558594" xlink:href="#DejaVuSans-112"/>
      <use x="411.035156" xlink:href="#DejaVuSans-45"/>
      <use x="447.087891" xlink:href="#DejaVuSans-118"/>
      <use x="506.267578" xlink:href="#DejaVuSans-97"/>
      <use x="567.546875" xlink:href="#DejaVuSans-108"/>
      <use x="595.330078" xlink:href="#DejaVuSans-117"/>
      <use x="658.708984" xlink:href="#DejaVuSans-101"/>
     </g>
    </g>
   </g>
   <g id="matplotlib.axis_6">
    <g id="ytick_7"/>
    <g id="ytick_8"/>
    <g id="ytick_9"/>
   </g>
   <g id="line2d_25">
    <path clip-path="url(#p5e353b8d31)" d="M 777.556023 255.156478 
L 781.237841 255.156478 
L 784.919659 255.899171 
L 788.601477 253.309336 
L 792.283295 254.717642 
L 795.965114 255.266653 
L 799.646932 256.833371 
L 803.32875 254.256593 
L 807.010568 254.883384 
L 810.692386 255.870107 
L 814.374205 256.476074 
L 818.056023 257.259609 
L 821.737841 258.746046 
L 825.419659 255.610294 
L 829.101477 255.947584 
L 832.783295 256.538647 
L 836.465114 256.819801 
L 840.146932 257.658195 
L 843.82875 259.31885 
L 847.510568 260.140047 
L 851.192386 255.870107 
L 854.874205 256.819801 
L 858.556023 257.986085 
L 862.237841 258.773612 
L 865.919659 259.31885 
L 869.601477 260.140047 
L 873.283295 261.681852 
L 876.965114 262.223179 
L 880.646932 257.943869 
L 884.32875 258.746046 
L 888.010568 258.946991 
L 891.692386 258.946991 
L 895.374205 259.483678 
L 899.056023 260.089334 
L 902.737841 255.413048 
L 906.419659 255.870107 
L 910.101477 255.979183 
L 913.783295 257.309212 
L 917.465114 252.145607 
L 921.146932 252.476453 
L 924.82875 252.806253 
L 928.510568 253.067776 
L 932.192386 253.309336 
L 935.874205 254.189348 
L 939.556023 254.189348 
L 943.237841 254.189348 
L 946.919659 255.261543 
L 950.601477 255.870107 
L 954.283295 256.649536 
L 957.965114 257.157332 
L 961.646932 257.986085 
L 965.32875 258.265713 
L 969.010568 258.577317 
L 972.692386 259.320932 
L 976.374205 259.942157 
L 980.056023 260.140047 
L 983.737841 261.469141 
L 987.419659 262.034062 
L 991.101477 262.034062 
L 994.783295 262.629031 
L 998.465114 263.183846 
L 1002.146932 263.375893 
L 1005.82875 263.375893 
L 1009.510568 263.375893 
L 1013.192386 263.634815 
L 1016.874205 263.634815 
L 1020.556023 264.884019 
L 1024.237841 265.167804 
L 1027.919659 265.762805 
L 1031.601477 266.319438 
L 1035.283295 266.319438 
L 1038.965114 266.595496 
L 1042.646932 266.777325 
L 1046.32875 266.777325 
L 1050.010568 266.777325 
L 1053.692386 266.777325 
L 1057.374205 267.95307 
L 1061.056023 268.189882 
L 1064.737841 268.189882 
L 1068.419659 268.455477 
L 1072.101477 268.719529 
" style="fill:none;stroke:#8b0000;stroke-linecap:square;stroke-width:2;"/>
   </g>
   <g id="line2d_26">
    <path clip-path="url(#p5e353b8d31)" d="M 777.556023 262.65935 
L 781.237841 262.65935 
L 784.919659 263.375893 
L 788.601477 258.265713 
L 792.283295 255.614767 
L 795.965114 256.819801 
L 799.646932 255.614767 
L 803.32875 253.420275 
L 807.010568 251.939796 
L 810.692386 254.827869 
L 814.374205 253.309336 
L 818.056023 256.476074 
L 821.737841 255.795461 
L 825.419659 254.292949 
L 829.101477 252.878787 
L 832.783295 251.112013 
L 836.465114 250.174431 
L 840.146932 250.944654 
L 843.82875 248.689184 
L 847.510568 245.546159 
L 851.192386 246.229363 
L 854.874205 249.868696 
L 858.556023 245.562533 
L 862.237841 242.137749 
L 865.919659 248.095587 
L 869.601477 244.850638 
L 873.283295 238.73736 
L 876.965114 236.405322 
L 880.646932 234.587253 
L 884.32875 235.235351 
L 888.010568 238.351029 
L 891.692386 238.351029 
L 895.374205 240.208606 
L 899.056023 237.84818 
L 902.737841 232.497869 
L 906.419659 229.789965 
L 910.101477 228.817622 
L 913.783295 227.409291 
L 917.465114 222.076935 
L 921.146932 222.076935 
L 924.82875 222.076935 
L 928.510568 222.365861 
L 932.192386 224.57188 
L 935.874205 228.668487 
L 939.556023 228.668487 
L 943.237841 228.668487 
L 946.919659 224.515204 
L 950.601477 222.076935 
L 954.283295 221.31448 
L 957.965114 222.076935 
L 961.646932 220.87802 
L 965.32875 220.87802 
L 969.010568 221.278544 
L 972.692386 222.076935 
L 976.374205 222.076935 
L 980.056023 222.076935 
L 983.737841 223.52961 
L 987.419659 224.515204 
L 991.101477 224.515204 
L 994.783295 226.021445 
L 998.465114 231.360637 
L 1002.146932 229.789965 
L 1005.82875 229.789965 
L 1009.510568 229.789965 
L 1013.192386 228.668487 
L 1016.874205 228.668487 
L 1020.556023 231.410134 
L 1024.237841 229.789965 
L 1027.919659 227.409291 
L 1031.601477 224.515204 
L 1035.283295 224.515204 
L 1038.965114 223.52961 
L 1042.646932 222.076935 
L 1046.32875 222.076935 
L 1050.010568 222.076935 
L 1053.692386 222.076935 
L 1057.374205 228.668487 
L 1061.056023 227.235054 
L 1064.737841 227.235054 
L 1068.419659 225.544274 
L 1072.101477 228.667647 
" style="fill:none;stroke:#000080;stroke-linecap:square;stroke-width:2;"/>
   </g>
   <g id="line2d_27">
    <path clip-path="url(#p5e353b8d31)" d="M 777.556023 269.44968 
L 1072.101477 269.44968 
" style="fill:none;stroke:#ff0000;stroke-dasharray:3.7,1.6;stroke-dashoffset:0;"/>
   </g>
   <g id="patch_9">
    <path d="M 762.82875 284.4 
L 762.82875 7.2 
" style="fill:none;stroke:#000000;stroke-linecap:square;stroke-linejoin:miter;stroke-width:0.8;"/>
   </g>
   <g id="patch_10">
    <path d="M 762.82875 284.4 
L 1086.82875 284.4 
" style="fill:none;stroke:#000000;stroke-linecap:square;stroke-linejoin:miter;stroke-width:0.8;"/>
   </g>
  </g>
 </g>
 <defs>
  <clipPath id="p63e7525e91">
   <rect height="277.2" width="324" x="82.42875" y="7.2"/>
  </clipPath>
  <clipPath id="p5016f9b406">
   <rect height="277.2" width="324" x="422.62875" y="7.2"/>
  </clipPath>
  <clipPath id="p5e353b8d31">
   <rect height="277.2" width="324" x="762.82875" y="7.2"/>
  </clipPath>
 </defs>
</svg>
