<?xml version="1.0" encoding="utf-8" standalone="no"?>
<!DOCTYPE svg PUBLIC "-//W3C//DTD SVG 1.1//EN"
  "http://www.w3.org/Graphics/SVG/1.1/DTD/svg11.dtd">
<!-- Created with matplotlib (https://matplotlib.org/) -->
<svg height="368.935313pt" version="1.1" viewBox="0 0 1102.9275 368.935313" width="1102.9275pt" xmlns="http://www.w3.org/2000/svg" xmlns:xlink="http://www.w3.org/1999/xlink">
 <defs>
  <style type="text/css">
*{stroke-linecap:butt;stroke-linejoin:round;}
  </style>
 </defs>
 <g id="figure_1">
  <g id="patch_1">
   <path d="M 0 368.935313 
L 1102.9275 368.935313 
L 1102.9275 0 
L 0 0 
z
" style="fill:none;"/>
  </g>
  <g id="axes_1">
   <g id="patch_2">
    <path d="M 91.3275 295.037813 
L 415.3275 295.037813 
L 415.3275 17.837813 
L 91.3275 17.837813 
z
" style="fill:none;"/>
   </g>
   <g id="matplotlib.axis_1">
    <g id="xtick_1">
     <g id="line2d_1">
      <defs>
       <path d="M 0 0 
L 0 5 
" id="m7d4c895318" style="stroke:#000000;stroke-width:0.8;"/>
      </defs>
      <g>
       <use style="stroke:#000000;stroke-width:0.8;" x="106.054773" xlink:href="#m7d4c895318" y="295.037813"/>
      </g>
     </g>
     <g id="text_1">
      <!-- 1 -->
      <defs>
       <path d="M 12.40625 8.296875 
L 28.515625 8.296875 
L 28.515625 63.921875 
L 10.984375 60.40625 
L 10.984375 69.390625 
L 28.421875 72.90625 
L 38.28125 72.90625 
L 38.28125 8.296875 
L 54.390625 8.296875 
L 54.390625 0 
L 12.40625 0 
z
" id="DejaVuSans-49"/>
      </defs>
      <g transform="translate(97.147273 324.813438)scale(0.28 -0.28)">
       <use xlink:href="#DejaVuSans-49"/>
      </g>
     </g>
    </g>
    <g id="xtick_2">
     <g id="line2d_2">
      <g>
       <use style="stroke:#000000;stroke-width:0.8;" x="179.691136" xlink:href="#m7d4c895318" y="295.037813"/>
      </g>
     </g>
     <g id="text_2">
      <!-- 2 -->
      <defs>
       <path d="M 19.1875 8.296875 
L 53.609375 8.296875 
L 53.609375 0 
L 7.328125 0 
L 7.328125 8.296875 
Q 12.9375 14.109375 22.625 23.890625 
Q 32.328125 33.6875 34.8125 36.53125 
Q 39.546875 41.84375 41.421875 45.53125 
Q 43.3125 49.21875 43.3125 52.78125 
Q 43.3125 58.59375 39.234375 62.25 
Q 35.15625 65.921875 28.609375 65.921875 
Q 23.96875 65.921875 18.8125 64.3125 
Q 13.671875 62.703125 7.8125 59.421875 
L 7.8125 69.390625 
Q 13.765625 71.78125 18.9375 73 
Q 24.125 74.21875 28.421875 74.21875 
Q 39.75 74.21875 46.484375 68.546875 
Q 53.21875 62.890625 53.21875 53.421875 
Q 53.21875 48.921875 51.53125 44.890625 
Q 49.859375 40.875 45.40625 35.40625 
Q 44.1875 33.984375 37.640625 27.21875 
Q 31.109375 20.453125 19.1875 8.296875 
z
" id="DejaVuSans-50"/>
      </defs>
      <g transform="translate(170.783636 324.813438)scale(0.28 -0.28)">
       <use xlink:href="#DejaVuSans-50"/>
      </g>
     </g>
    </g>
    <g id="xtick_3">
     <g id="line2d_3">
      <g>
       <use style="stroke:#000000;stroke-width:0.8;" x="253.3275" xlink:href="#m7d4c895318" y="295.037813"/>
      </g>
     </g>
     <g id="text_3">
      <!-- 3 -->
      <defs>
       <path d="M 40.578125 39.3125 
Q 47.65625 37.796875 51.625 33 
Q 55.609375 28.21875 55.609375 21.1875 
Q 55.609375 10.40625 48.1875 4.484375 
Q 40.765625 -1.421875 27.09375 -1.421875 
Q 22.515625 -1.421875 17.65625 -0.515625 
Q 12.796875 0.390625 7.625 2.203125 
L 7.625 11.71875 
Q 11.71875 9.328125 16.59375 8.109375 
Q 21.484375 6.890625 26.8125 6.890625 
Q 36.078125 6.890625 40.9375 10.546875 
Q 45.796875 14.203125 45.796875 21.1875 
Q 45.796875 27.640625 41.28125 31.265625 
Q 36.765625 34.90625 28.71875 34.90625 
L 20.21875 34.90625 
L 20.21875 43.015625 
L 29.109375 43.015625 
Q 36.375 43.015625 40.234375 45.921875 
Q 44.09375 48.828125 44.09375 54.296875 
Q 44.09375 59.90625 40.109375 62.90625 
Q 36.140625 65.921875 28.71875 65.921875 
Q 24.65625 65.921875 20.015625 65.03125 
Q 15.375 64.15625 9.8125 62.3125 
L 9.8125 71.09375 
Q 15.4375 72.65625 20.34375 73.4375 
Q 25.25 74.21875 29.59375 74.21875 
Q 40.828125 74.21875 47.359375 69.109375 
Q 53.90625 64.015625 53.90625 55.328125 
Q 53.90625 49.265625 50.4375 45.09375 
Q 46.96875 40.921875 40.578125 39.3125 
z
" id="DejaVuSans-51"/>
      </defs>
      <g transform="translate(244.42 324.813438)scale(0.28 -0.28)">
       <use xlink:href="#DejaVuSans-51"/>
      </g>
     </g>
    </g>
    <g id="xtick_4">
     <g id="line2d_4">
      <g>
       <use style="stroke:#000000;stroke-width:0.8;" x="326.963864" xlink:href="#m7d4c895318" y="295.037813"/>
      </g>
     </g>
     <g id="text_4">
      <!-- 4 -->
      <defs>
       <path d="M 37.796875 64.3125 
L 12.890625 25.390625 
L 37.796875 25.390625 
z
M 35.203125 72.90625 
L 47.609375 72.90625 
L 47.609375 25.390625 
L 58.015625 25.390625 
L 58.015625 17.1875 
L 47.609375 17.1875 
L 47.609375 0 
L 37.796875 0 
L 37.796875 17.1875 
L 4.890625 17.1875 
L 4.890625 26.703125 
z
" id="DejaVuSans-52"/>
      </defs>
      <g transform="translate(318.056364 324.813438)scale(0.28 -0.28)">
       <use xlink:href="#DejaVuSans-52"/>
      </g>
     </g>
    </g>
    <g id="xtick_5">
     <g id="line2d_5">
      <g>
       <use style="stroke:#000000;stroke-width:0.8;" x="400.600227" xlink:href="#m7d4c895318" y="295.037813"/>
      </g>
     </g>
     <g id="text_5">
      <!-- 5 -->
      <defs>
       <path d="M 10.796875 72.90625 
L 49.515625 72.90625 
L 49.515625 64.59375 
L 19.828125 64.59375 
L 19.828125 46.734375 
Q 21.96875 47.46875 24.109375 47.828125 
Q 26.265625 48.1875 28.421875 48.1875 
Q 40.625 48.1875 47.75 41.5 
Q 54.890625 34.8125 54.890625 23.390625 
Q 54.890625 11.625 47.5625 5.09375 
Q 40.234375 -1.421875 26.90625 -1.421875 
Q 22.3125 -1.421875 17.546875 -0.640625 
Q 12.796875 0.140625 7.71875 1.703125 
L 7.71875 11.625 
Q 12.109375 9.234375 16.796875 8.0625 
Q 21.484375 6.890625 26.703125 6.890625 
Q 35.15625 6.890625 40.078125 11.328125 
Q 45.015625 15.765625 45.015625 23.390625 
Q 45.015625 31 40.078125 35.4375 
Q 35.15625 39.890625 26.703125 39.890625 
Q 22.75 39.890625 18.8125 39.015625 
Q 14.890625 38.140625 10.796875 36.28125 
z
" id="DejaVuSans-53"/>
      </defs>
      <g transform="translate(391.692727 324.813438)scale(0.28 -0.28)">
       <use xlink:href="#DejaVuSans-53"/>
      </g>
     </g>
    </g>
    <g id="text_6">
     <!-- -log10 p-value -->
     <defs>
      <path d="M 4.890625 31.390625 
L 31.203125 31.390625 
L 31.203125 23.390625 
L 4.890625 23.390625 
z
" id="DejaVuSans-45"/>
      <path d="M 9.421875 75.984375 
L 18.40625 75.984375 
L 18.40625 0 
L 9.421875 0 
z
" id="DejaVuSans-108"/>
      <path d="M 30.609375 48.390625 
Q 23.390625 48.390625 19.1875 42.75 
Q 14.984375 37.109375 14.984375 27.296875 
Q 14.984375 17.484375 19.15625 11.84375 
Q 23.34375 6.203125 30.609375 6.203125 
Q 37.796875 6.203125 41.984375 11.859375 
Q 46.1875 17.53125 46.1875 27.296875 
Q 46.1875 37.015625 41.984375 42.703125 
Q 37.796875 48.390625 30.609375 48.390625 
z
M 30.609375 56 
Q 42.328125 56 49.015625 48.375 
Q 55.71875 40.765625 55.71875 27.296875 
Q 55.71875 13.875 49.015625 6.21875 
Q 42.328125 -1.421875 30.609375 -1.421875 
Q 18.84375 -1.421875 12.171875 6.21875 
Q 5.515625 13.875 5.515625 27.296875 
Q 5.515625 40.765625 12.171875 48.375 
Q 18.84375 56 30.609375 56 
z
" id="DejaVuSans-111"/>
      <path d="M 45.40625 27.984375 
Q 45.40625 37.75 41.375 43.109375 
Q 37.359375 48.484375 30.078125 48.484375 
Q 22.859375 48.484375 18.828125 43.109375 
Q 14.796875 37.75 14.796875 27.984375 
Q 14.796875 18.265625 18.828125 12.890625 
Q 22.859375 7.515625 30.078125 7.515625 
Q 37.359375 7.515625 41.375 12.890625 
Q 45.40625 18.265625 45.40625 27.984375 
z
M 54.390625 6.78125 
Q 54.390625 -7.171875 48.1875 -13.984375 
Q 42 -20.796875 29.203125 -20.796875 
Q 24.46875 -20.796875 20.265625 -20.09375 
Q 16.0625 -19.390625 12.109375 -17.921875 
L 12.109375 -9.1875 
Q 16.0625 -11.328125 19.921875 -12.34375 
Q 23.78125 -13.375 27.78125 -13.375 
Q 36.625 -13.375 41.015625 -8.765625 
Q 45.40625 -4.15625 45.40625 5.171875 
L 45.40625 9.625 
Q 42.625 4.78125 38.28125 2.390625 
Q 33.9375 0 27.875 0 
Q 17.828125 0 11.671875 7.65625 
Q 5.515625 15.328125 5.515625 27.984375 
Q 5.515625 40.671875 11.671875 48.328125 
Q 17.828125 56 27.875 56 
Q 33.9375 56 38.28125 53.609375 
Q 42.625 51.21875 45.40625 46.390625 
L 45.40625 54.6875 
L 54.390625 54.6875 
z
" id="DejaVuSans-103"/>
      <path d="M 31.78125 66.40625 
Q 24.171875 66.40625 20.328125 58.90625 
Q 16.5 51.421875 16.5 36.375 
Q 16.5 21.390625 20.328125 13.890625 
Q 24.171875 6.390625 31.78125 6.390625 
Q 39.453125 6.390625 43.28125 13.890625 
Q 47.125 21.390625 47.125 36.375 
Q 47.125 51.421875 43.28125 58.90625 
Q 39.453125 66.40625 31.78125 66.40625 
z
M 31.78125 74.21875 
Q 44.046875 74.21875 50.515625 64.515625 
Q 56.984375 54.828125 56.984375 36.375 
Q 56.984375 17.96875 50.515625 8.265625 
Q 44.046875 -1.421875 31.78125 -1.421875 
Q 19.53125 -1.421875 13.0625 8.265625 
Q 6.59375 17.96875 6.59375 36.375 
Q 6.59375 54.828125 13.0625 64.515625 
Q 19.53125 74.21875 31.78125 74.21875 
z
" id="DejaVuSans-48"/>
      <path id="DejaVuSans-32"/>
      <path d="M 18.109375 8.203125 
L 18.109375 -20.796875 
L 9.078125 -20.796875 
L 9.078125 54.6875 
L 18.109375 54.6875 
L 18.109375 46.390625 
Q 20.953125 51.265625 25.265625 53.625 
Q 29.59375 56 35.59375 56 
Q 45.5625 56 51.78125 48.09375 
Q 58.015625 40.1875 58.015625 27.296875 
Q 58.015625 14.40625 51.78125 6.484375 
Q 45.5625 -1.421875 35.59375 -1.421875 
Q 29.59375 -1.421875 25.265625 0.953125 
Q 20.953125 3.328125 18.109375 8.203125 
z
M 48.6875 27.296875 
Q 48.6875 37.203125 44.609375 42.84375 
Q 40.53125 48.484375 33.40625 48.484375 
Q 26.265625 48.484375 22.1875 42.84375 
Q 18.109375 37.203125 18.109375 27.296875 
Q 18.109375 17.390625 22.1875 11.75 
Q 26.265625 6.109375 33.40625 6.109375 
Q 40.53125 6.109375 44.609375 11.75 
Q 48.6875 17.390625 48.6875 27.296875 
z
" id="DejaVuSans-112"/>
      <path d="M 2.984375 54.6875 
L 12.5 54.6875 
L 29.59375 8.796875 
L 46.6875 54.6875 
L 56.203125 54.6875 
L 35.6875 0 
L 23.484375 0 
z
" id="DejaVuSans-118"/>
      <path d="M 34.28125 27.484375 
Q 23.390625 27.484375 19.1875 25 
Q 14.984375 22.515625 14.984375 16.5 
Q 14.984375 11.71875 18.140625 8.90625 
Q 21.296875 6.109375 26.703125 6.109375 
Q 34.1875 6.109375 38.703125 11.40625 
Q 43.21875 16.703125 43.21875 25.484375 
L 43.21875 27.484375 
z
M 52.203125 31.203125 
L 52.203125 0 
L 43.21875 0 
L 43.21875 8.296875 
Q 40.140625 3.328125 35.546875 0.953125 
Q 30.953125 -1.421875 24.3125 -1.421875 
Q 15.921875 -1.421875 10.953125 3.296875 
Q 6 8.015625 6 15.921875 
Q 6 25.140625 12.171875 29.828125 
Q 18.359375 34.515625 30.609375 34.515625 
L 43.21875 34.515625 
L 43.21875 35.40625 
Q 43.21875 41.609375 39.140625 45 
Q 35.0625 48.390625 27.6875 48.390625 
Q 23 48.390625 18.546875 47.265625 
Q 14.109375 46.140625 10.015625 43.890625 
L 10.015625 52.203125 
Q 14.9375 54.109375 19.578125 55.046875 
Q 24.21875 56 28.609375 56 
Q 40.484375 56 46.34375 49.84375 
Q 52.203125 43.703125 52.203125 31.203125 
z
" id="DejaVuSans-97"/>
      <path d="M 8.5 21.578125 
L 8.5 54.6875 
L 17.484375 54.6875 
L 17.484375 21.921875 
Q 17.484375 14.15625 20.5 10.265625 
Q 23.53125 6.390625 29.59375 6.390625 
Q 36.859375 6.390625 41.078125 11.03125 
Q 45.3125 15.671875 45.3125 23.6875 
L 45.3125 54.6875 
L 54.296875 54.6875 
L 54.296875 0 
L 45.3125 0 
L 45.3125 8.40625 
Q 42.046875 3.421875 37.71875 1 
Q 33.40625 -1.421875 27.6875 -1.421875 
Q 18.265625 -1.421875 13.375 4.4375 
Q 8.5 10.296875 8.5 21.578125 
z
M 31.109375 56 
z
" id="DejaVuSans-117"/>
      <path d="M 56.203125 29.59375 
L 56.203125 25.203125 
L 14.890625 25.203125 
Q 15.484375 15.921875 20.484375 11.0625 
Q 25.484375 6.203125 34.421875 6.203125 
Q 39.59375 6.203125 44.453125 7.46875 
Q 49.3125 8.734375 54.109375 11.28125 
L 54.109375 2.78125 
Q 49.265625 0.734375 44.1875 -0.34375 
Q 39.109375 -1.421875 33.890625 -1.421875 
Q 20.796875 -1.421875 13.15625 6.1875 
Q 5.515625 13.8125 5.515625 26.8125 
Q 5.515625 40.234375 12.765625 48.109375 
Q 20.015625 56 32.328125 56 
Q 43.359375 56 49.78125 48.890625 
Q 56.203125 41.796875 56.203125 29.59375 
z
M 47.21875 32.234375 
Q 47.125 39.59375 43.09375 43.984375 
Q 39.0625 48.390625 32.421875 48.390625 
Q 24.90625 48.390625 20.390625 44.140625 
Q 15.875 39.890625 15.1875 32.171875 
z
" id="DejaVuSans-101"/>
     </defs>
     <g transform="translate(152.4925 355.912188)scale(0.28 -0.28)">
      <use xlink:href="#DejaVuSans-45"/>
      <use x="36.083984" xlink:href="#DejaVuSans-108"/>
      <use x="63.867188" xlink:href="#DejaVuSans-111"/>
      <use x="125.048828" xlink:href="#DejaVuSans-103"/>
      <use x="188.525391" xlink:href="#DejaVuSans-49"/>
      <use x="252.148438" xlink:href="#DejaVuSans-48"/>
      <use x="315.771484" xlink:href="#DejaVuSans-32"/>
      <use x="347.558594" xlink:href="#DejaVuSans-112"/>
      <use x="411.035156" xlink:href="#DejaVuSans-45"/>
      <use x="447.087891" xlink:href="#DejaVuSans-118"/>
      <use x="506.267578" xlink:href="#DejaVuSans-97"/>
      <use x="567.546875" xlink:href="#DejaVuSans-108"/>
      <use x="595.330078" xlink:href="#DejaVuSans-117"/>
      <use x="658.708984" xlink:href="#DejaVuSans-101"/>
     </g>
    </g>
   </g>
   <g id="matplotlib.axis_2">
    <g id="ytick_1">
     <g id="line2d_6">
      <defs>
       <path d="M 0 0 
L -5 0 
" id="mebdfcf2fed" style="stroke:#000000;stroke-width:0.8;"/>
      </defs>
      <g>
       <use style="stroke:#000000;stroke-width:0.8;" x="91.3275" xlink:href="#mebdfcf2fed" y="295.037813"/>
      </g>
     </g>
     <g id="text_7">
      <!-- 0.0 -->
      <defs>
       <path d="M 10.6875 12.40625 
L 21 12.40625 
L 21 0 
L 10.6875 0 
z
" id="DejaVuSans-46"/>
      </defs>
      <g transform="translate(38.29875 305.675625)scale(0.28 -0.28)">
       <use xlink:href="#DejaVuSans-48"/>
       <use x="63.623047" xlink:href="#DejaVuSans-46"/>
       <use x="95.410156" xlink:href="#DejaVuSans-48"/>
      </g>
     </g>
    </g>
    <g id="ytick_2">
     <g id="line2d_7">
      <g>
       <use style="stroke:#000000;stroke-width:0.8;" x="91.3275" xlink:href="#mebdfcf2fed" y="225.737813"/>
      </g>
     </g>
     <g id="text_8">
      <!-- 0.2 -->
      <g transform="translate(38.29875 236.375625)scale(0.28 -0.28)">
       <use xlink:href="#DejaVuSans-48"/>
       <use x="63.623047" xlink:href="#DejaVuSans-46"/>
       <use x="95.410156" xlink:href="#DejaVuSans-50"/>
      </g>
     </g>
    </g>
    <g id="ytick_3">
     <g id="line2d_8">
      <g>
       <use style="stroke:#000000;stroke-width:0.8;" x="91.3275" xlink:href="#mebdfcf2fed" y="156.437813"/>
      </g>
     </g>
     <g id="text_9">
      <!-- 0.4 -->
      <g transform="translate(38.29875 167.075625)scale(0.28 -0.28)">
       <use xlink:href="#DejaVuSans-48"/>
       <use x="63.623047" xlink:href="#DejaVuSans-46"/>
       <use x="95.410156" xlink:href="#DejaVuSans-52"/>
      </g>
     </g>
    </g>
    <g id="ytick_4">
     <g id="line2d_9">
      <g>
       <use style="stroke:#000000;stroke-width:0.8;" x="91.3275" xlink:href="#mebdfcf2fed" y="87.137813"/>
      </g>
     </g>
     <g id="text_10">
      <!-- 0.6 -->
      <defs>
       <path d="M 33.015625 40.375 
Q 26.375 40.375 22.484375 35.828125 
Q 18.609375 31.296875 18.609375 23.390625 
Q 18.609375 15.53125 22.484375 10.953125 
Q 26.375 6.390625 33.015625 6.390625 
Q 39.65625 6.390625 43.53125 10.953125 
Q 47.40625 15.53125 47.40625 23.390625 
Q 47.40625 31.296875 43.53125 35.828125 
Q 39.65625 40.375 33.015625 40.375 
z
M 52.59375 71.296875 
L 52.59375 62.3125 
Q 48.875 64.0625 45.09375 64.984375 
Q 41.3125 65.921875 37.59375 65.921875 
Q 27.828125 65.921875 22.671875 59.328125 
Q 17.53125 52.734375 16.796875 39.40625 
Q 19.671875 43.65625 24.015625 45.921875 
Q 28.375 48.1875 33.59375 48.1875 
Q 44.578125 48.1875 50.953125 41.515625 
Q 57.328125 34.859375 57.328125 23.390625 
Q 57.328125 12.15625 50.6875 5.359375 
Q 44.046875 -1.421875 33.015625 -1.421875 
Q 20.359375 -1.421875 13.671875 8.265625 
Q 6.984375 17.96875 6.984375 36.375 
Q 6.984375 53.65625 15.1875 63.9375 
Q 23.390625 74.21875 37.203125 74.21875 
Q 40.921875 74.21875 44.703125 73.484375 
Q 48.484375 72.75 52.59375 71.296875 
z
" id="DejaVuSans-54"/>
      </defs>
      <g transform="translate(38.29875 97.775625)scale(0.28 -0.28)">
       <use xlink:href="#DejaVuSans-48"/>
       <use x="63.623047" xlink:href="#DejaVuSans-46"/>
       <use x="95.410156" xlink:href="#DejaVuSans-54"/>
      </g>
     </g>
    </g>
    <g id="ytick_5">
     <g id="line2d_10">
      <g>
       <use style="stroke:#000000;stroke-width:0.8;" x="91.3275" xlink:href="#mebdfcf2fed" y="17.837813"/>
      </g>
     </g>
     <g id="text_11">
      <!-- 0.8 -->
      <defs>
       <path d="M 31.78125 34.625 
Q 24.75 34.625 20.71875 30.859375 
Q 16.703125 27.09375 16.703125 20.515625 
Q 16.703125 13.921875 20.71875 10.15625 
Q 24.75 6.390625 31.78125 6.390625 
Q 38.8125 6.390625 42.859375 10.171875 
Q 46.921875 13.96875 46.921875 20.515625 
Q 46.921875 27.09375 42.890625 30.859375 
Q 38.875 34.625 31.78125 34.625 
z
M 21.921875 38.8125 
Q 15.578125 40.375 12.03125 44.71875 
Q 8.5 49.078125 8.5 55.328125 
Q 8.5 64.0625 14.71875 69.140625 
Q 20.953125 74.21875 31.78125 74.21875 
Q 42.671875 74.21875 48.875 69.140625 
Q 55.078125 64.0625 55.078125 55.328125 
Q 55.078125 49.078125 51.53125 44.71875 
Q 48 40.375 41.703125 38.8125 
Q 48.828125 37.15625 52.796875 32.3125 
Q 56.78125 27.484375 56.78125 20.515625 
Q 56.78125 9.90625 50.3125 4.234375 
Q 43.84375 -1.421875 31.78125 -1.421875 
Q 19.734375 -1.421875 13.25 4.234375 
Q 6.78125 9.90625 6.78125 20.515625 
Q 6.78125 27.484375 10.78125 32.3125 
Q 14.796875 37.15625 21.921875 38.8125 
z
M 18.3125 54.390625 
Q 18.3125 48.734375 21.84375 45.5625 
Q 25.390625 42.390625 31.78125 42.390625 
Q 38.140625 42.390625 41.71875 45.5625 
Q 45.3125 48.734375 45.3125 54.390625 
Q 45.3125 60.0625 41.71875 63.234375 
Q 38.140625 66.40625 31.78125 66.40625 
Q 25.390625 66.40625 21.84375 63.234375 
Q 18.3125 60.0625 18.3125 54.390625 
z
" id="DejaVuSans-56"/>
      </defs>
      <g transform="translate(38.29875 28.475625)scale(0.28 -0.28)">
       <use xlink:href="#DejaVuSans-48"/>
       <use x="63.623047" xlink:href="#DejaVuSans-46"/>
       <use x="95.410156" xlink:href="#DejaVuSans-56"/>
      </g>
     </g>
    </g>
    <g id="text_12">
     <!-- F1 score -->
     <defs>
      <path d="M 9.8125 72.90625 
L 51.703125 72.90625 
L 51.703125 64.59375 
L 19.671875 64.59375 
L 19.671875 43.109375 
L 48.578125 43.109375 
L 48.578125 34.8125 
L 19.671875 34.8125 
L 19.671875 0 
L 9.8125 0 
z
" id="DejaVuSans-70"/>
      <path d="M 44.28125 53.078125 
L 44.28125 44.578125 
Q 40.484375 46.53125 36.375 47.5 
Q 32.28125 48.484375 27.875 48.484375 
Q 21.1875 48.484375 17.84375 46.4375 
Q 14.5 44.390625 14.5 40.28125 
Q 14.5 37.15625 16.890625 35.375 
Q 19.28125 33.59375 26.515625 31.984375 
L 29.59375 31.296875 
Q 39.15625 29.25 43.1875 25.515625 
Q 47.21875 21.78125 47.21875 15.09375 
Q 47.21875 7.46875 41.1875 3.015625 
Q 35.15625 -1.421875 24.609375 -1.421875 
Q 20.21875 -1.421875 15.453125 -0.5625 
Q 10.6875 0.296875 5.421875 2 
L 5.421875 11.28125 
Q 10.40625 8.6875 15.234375 7.390625 
Q 20.0625 6.109375 24.8125 6.109375 
Q 31.15625 6.109375 34.5625 8.28125 
Q 37.984375 10.453125 37.984375 14.40625 
Q 37.984375 18.0625 35.515625 20.015625 
Q 33.0625 21.96875 24.703125 23.78125 
L 21.578125 24.515625 
Q 13.234375 26.265625 9.515625 29.90625 
Q 5.8125 33.546875 5.8125 39.890625 
Q 5.8125 47.609375 11.28125 51.796875 
Q 16.75 56 26.8125 56 
Q 31.78125 56 36.171875 55.265625 
Q 40.578125 54.546875 44.28125 53.078125 
z
" id="DejaVuSans-115"/>
      <path d="M 48.78125 52.59375 
L 48.78125 44.1875 
Q 44.96875 46.296875 41.140625 47.34375 
Q 37.3125 48.390625 33.40625 48.390625 
Q 24.65625 48.390625 19.8125 42.84375 
Q 14.984375 37.3125 14.984375 27.296875 
Q 14.984375 17.28125 19.8125 11.734375 
Q 24.65625 6.203125 33.40625 6.203125 
Q 37.3125 6.203125 41.140625 7.25 
Q 44.96875 8.296875 48.78125 10.40625 
L 48.78125 2.09375 
Q 45.015625 0.34375 40.984375 -0.53125 
Q 36.96875 -1.421875 32.421875 -1.421875 
Q 20.0625 -1.421875 12.78125 6.34375 
Q 5.515625 14.109375 5.515625 27.296875 
Q 5.515625 40.671875 12.859375 48.328125 
Q 20.21875 56 33.015625 56 
Q 37.15625 56 41.109375 55.140625 
Q 45.0625 54.296875 48.78125 52.59375 
z
" id="DejaVuSans-99"/>
      <path d="M 41.109375 46.296875 
Q 39.59375 47.171875 37.8125 47.578125 
Q 36.03125 48 33.890625 48 
Q 26.265625 48 22.1875 43.046875 
Q 18.109375 38.09375 18.109375 28.8125 
L 18.109375 0 
L 9.078125 0 
L 9.078125 54.6875 
L 18.109375 54.6875 
L 18.109375 46.1875 
Q 20.953125 51.171875 25.484375 53.578125 
Q 30.03125 56 36.53125 56 
Q 37.453125 56 38.578125 55.875 
Q 39.703125 55.765625 41.0625 55.515625 
z
" id="DejaVuSans-114"/>
     </defs>
     <g transform="translate(28.475625 215.769375)rotate(-90)scale(0.28 -0.28)">
      <use xlink:href="#DejaVuSans-70"/>
      <use x="57.519531" xlink:href="#DejaVuSans-49"/>
      <use x="121.142578" xlink:href="#DejaVuSans-32"/>
      <use x="152.929688" xlink:href="#DejaVuSans-115"/>
      <use x="205.029297" xlink:href="#DejaVuSans-99"/>
      <use x="260.009766" xlink:href="#DejaVuSans-111"/>
      <use x="321.191406" xlink:href="#DejaVuSans-114"/>
      <use x="362.273438" xlink:href="#DejaVuSans-101"/>
     </g>
    </g>
   </g>
   <g id="line2d_11">
    <path clip-path="url(#p214ee58538)" d="M 106.054773 207.297469 
L 109.736591 207.469185 
L 113.418409 205.915861 
L 117.100227 206.470548 
L 120.782045 205.618458 
L 124.463864 203.724871 
L 128.145682 203.634935 
L 131.8275 202.074398 
L 135.509318 202.4091 
L 139.191136 201.817 
L 142.872955 201.101751 
L 146.554773 199.884963 
L 150.236591 198.636238 
L 153.918409 197.905737 
L 157.600227 196.309045 
L 161.282045 196.862813 
L 164.963864 196.037813 
L 168.645682 194.345505 
L 172.3275 193.184787 
L 176.009318 191.996996 
L 179.691136 193.126048 
L 183.372955 191.912813 
L 187.054773 190.670343 
L 190.736591 189.397569 
L 194.418409 188.749469 
L 198.100227 187.762271 
L 201.782045 187.578952 
L 205.463864 186.201274 
L 209.145682 185.144609 
L 212.8275 183.337155 
L 216.509318 182.968506 
L 220.191136 181.847813 
L 223.872955 183.037813 
L 227.554773 181.894955 
L 231.236591 183.109977 
L 234.918409 180.351193 
L 238.600227 178.712813 
L 242.282045 179.117813 
L 245.963864 178.268582 
L 249.645682 176.971146 
L 253.3275 177.358567 
L 257.009318 179.537813 
L 260.691136 179.088396 
L 264.372955 178.178989 
L 268.054773 179.537813 
L 271.736591 179.537813 
L 275.418409 180.929379 
L 279.100227 180.929379 
L 282.782045 180.469264 
L 286.463864 185.171959 
L 290.145682 184.271419 
L 293.8275 183.355994 
L 297.509318 182.892584 
L 301.191136 182.425313 
L 304.872955 180.516626 
L 308.554773 182.499351 
L 312.236591 182.577286 
L 315.918409 182.577286 
L 319.600227 182.081865 
L 323.282045 181.58206 
L 326.963864 181.077813 
L 330.645682 181.077813 
L 334.3275 180.05575 
L 338.009318 179.015188 
L 341.691136 179.015188 
L 345.372955 176.876522 
L 349.054773 178.458373 
L 352.736591 178.458373 
L 356.418409 176.800846 
L 360.100227 176.800846 
L 363.782045 176.237813 
L 367.463864 175.669391 
L 371.145682 173.931016 
L 374.8275 173.931016 
L 378.509318 172.141261 
L 382.191136 174.963555 
L 385.872955 174.963555 
L 389.554773 177.813932 
L 393.236591 180.118215 
L 396.918409 180.118215 
L 400.600227 181.894955 
" style="fill:none;stroke:#8b0000;stroke-linecap:square;stroke-width:2;"/>
   </g>
   <g id="line2d_12">
    <path clip-path="url(#p214ee58538)" d="M 106.054773 110.778615 
L 109.736591 110.941366 
L 113.418409 110.792529 
L 117.100227 111.596636 
L 120.782045 112.60495 
L 124.463864 109.657202 
L 128.145682 108.21814 
L 131.8275 105.80534 
L 135.509318 106.272887 
L 139.191136 105.319181 
L 142.872955 105.555977 
L 146.554773 103.727002 
L 150.236591 103.213251 
L 153.918409 103.532842 
L 157.600227 104.009643 
L 161.282045 103.476837 
L 164.963864 103.718794 
L 168.645682 102.776943 
L 172.3275 102.618188 
L 176.009318 102.45676 
L 179.691136 102.700948 
L 183.372955 101.057043 
L 187.054773 102.371864 
L 190.736591 100.696508 
L 194.418409 99.847856 
L 198.100227 100.083966 
L 201.782045 100.131563 
L 205.463864 99.936461 
L 209.145682 100.18067 
L 212.8275 102.714418 
L 216.509318 102.272295 
L 220.191136 102.537813 
L 223.872955 104.422428 
L 227.554773 104.706827 
L 231.236591 104.995259 
L 234.918409 105.129159 
L 238.600227 104.967424 
L 242.282045 109.443218 
L 245.963864 111.948924 
L 249.645682 114.03035 
L 253.3275 116.987435 
L 257.009318 122.676274 
L 260.691136 122.233185 
L 264.372955 123.130836 
L 268.054773 123.5925 
L 271.736591 123.5925 
L 275.418409 125.880332 
L 279.100227 125.880332 
L 282.782045 127.258865 
L 286.463864 130.037813 
L 290.145682 132.846323 
L 293.8275 133.83193 
L 297.509318 133.399743 
L 301.191136 132.965232 
L 304.872955 131.203573 
L 308.554773 132.201747 
L 312.236591 141.037813 
L 315.918409 141.037813 
L 319.600227 140.608843 
L 323.282045 140.177477 
L 326.963864 139.743695 
L 330.645682 139.743695 
L 334.3275 140.820911 
L 338.009318 139.947161 
L 341.691136 139.947161 
L 345.372955 138.169618 
L 349.054773 138.812379 
L 352.736591 138.812379 
L 356.418409 139.466384 
L 360.100227 139.466384 
L 363.782045 139.011497 
L 367.463864 140.5862 
L 371.145682 141.265623 
L 374.8275 141.265623 
L 378.509318 144.025872 
L 382.191136 145.648591 
L 385.872955 145.648591 
L 389.554773 147.281056 
L 393.236591 150.575577 
L 396.918409 150.575577 
L 400.600227 153.479886 
" style="fill:none;stroke:#000080;stroke-linecap:square;stroke-width:2;"/>
   </g>
   <g id="patch_3">
    <path d="M 91.3275 295.037813 
L 91.3275 17.837813 
" style="fill:none;stroke:#000000;stroke-linecap:square;stroke-linejoin:miter;stroke-width:0.8;"/>
   </g>
   <g id="patch_4">
    <path d="M 91.3275 295.037813 
L 415.3275 295.037813 
" style="fill:none;stroke:#000000;stroke-linecap:square;stroke-linejoin:miter;stroke-width:0.8;"/>
   </g>
  </g>
  <g id="axes_2">
   <g id="patch_5">
    <path d="M 431.5275 295.037813 
L 755.5275 295.037813 
L 755.5275 17.837813 
L 431.5275 17.837813 
z
" style="fill:none;"/>
   </g>
   <g id="matplotlib.axis_3">
    <g id="xtick_6">
     <g id="line2d_13">
      <g>
       <use style="stroke:#000000;stroke-width:0.8;" x="446.254773" xlink:href="#m7d4c895318" y="295.037813"/>
      </g>
     </g>
     <g id="text_13">
      <!-- 1 -->
      <g transform="translate(437.347273 324.813438)scale(0.28 -0.28)">
       <use xlink:href="#DejaVuSans-49"/>
      </g>
     </g>
    </g>
    <g id="xtick_7">
     <g id="line2d_14">
      <g>
       <use style="stroke:#000000;stroke-width:0.8;" x="519.891136" xlink:href="#m7d4c895318" y="295.037813"/>
      </g>
     </g>
     <g id="text_14">
      <!-- 2 -->
      <g transform="translate(510.983636 324.813438)scale(0.28 -0.28)">
       <use xlink:href="#DejaVuSans-50"/>
      </g>
     </g>
    </g>
    <g id="xtick_8">
     <g id="line2d_15">
      <g>
       <use style="stroke:#000000;stroke-width:0.8;" x="593.5275" xlink:href="#m7d4c895318" y="295.037813"/>
      </g>
     </g>
     <g id="text_15">
      <!-- 3 -->
      <g transform="translate(584.62 324.813438)scale(0.28 -0.28)">
       <use xlink:href="#DejaVuSans-51"/>
      </g>
     </g>
    </g>
    <g id="xtick_9">
     <g id="line2d_16">
      <g>
       <use style="stroke:#000000;stroke-width:0.8;" x="667.163864" xlink:href="#m7d4c895318" y="295.037813"/>
      </g>
     </g>
     <g id="text_16">
      <!-- 4 -->
      <g transform="translate(658.256364 324.813438)scale(0.28 -0.28)">
       <use xlink:href="#DejaVuSans-52"/>
      </g>
     </g>
    </g>
    <g id="xtick_10">
     <g id="line2d_17">
      <g>
       <use style="stroke:#000000;stroke-width:0.8;" x="740.800227" xlink:href="#m7d4c895318" y="295.037813"/>
      </g>
     </g>
     <g id="text_17">
      <!-- 5 -->
      <g transform="translate(731.892727 324.813438)scale(0.28 -0.28)">
       <use xlink:href="#DejaVuSans-53"/>
      </g>
     </g>
    </g>
    <g id="text_18">
     <!-- -log10 p-value -->
     <g transform="translate(492.6925 355.912188)scale(0.28 -0.28)">
      <use xlink:href="#DejaVuSans-45"/>
      <use x="36.083984" xlink:href="#DejaVuSans-108"/>
      <use x="63.867188" xlink:href="#DejaVuSans-111"/>
      <use x="125.048828" xlink:href="#DejaVuSans-103"/>
      <use x="188.525391" xlink:href="#DejaVuSans-49"/>
      <use x="252.148438" xlink:href="#DejaVuSans-48"/>
      <use x="315.771484" xlink:href="#DejaVuSans-32"/>
      <use x="347.558594" xlink:href="#DejaVuSans-112"/>
      <use x="411.035156" xlink:href="#DejaVuSans-45"/>
      <use x="447.087891" xlink:href="#DejaVuSans-118"/>
      <use x="506.267578" xlink:href="#DejaVuSans-97"/>
      <use x="567.546875" xlink:href="#DejaVuSans-108"/>
      <use x="595.330078" xlink:href="#DejaVuSans-117"/>
      <use x="658.708984" xlink:href="#DejaVuSans-101"/>
     </g>
    </g>
   </g>
   <g id="matplotlib.axis_4">
    <g id="ytick_6"/>
    <g id="ytick_7"/>
    <g id="ytick_8"/>
    <g id="ytick_9"/>
    <g id="ytick_10"/>
   </g>
   <g id="line2d_18">
    <path clip-path="url(#p9e5c236752)" d="M 446.254773 113.218458 
L 449.936591 124.476837 
L 453.618409 124.525397 
L 457.300227 125.743292 
L 460.982045 125.779748 
L 464.663864 129.496829 
L 468.345682 135.367979 
L 472.0275 140.664931 
L 475.709318 141.417123 
L 479.391136 145.060201 
L 483.072955 148.40809 
L 486.754773 149.420091 
L 490.436591 156.081514 
L 494.118409 160.037813 
L 497.800227 169.708025 
L 501.482045 175.490643 
L 505.163864 178.598788 
L 508.845682 179.852526 
L 512.5275 181.431255 
L 516.209318 185.919028 
L 519.891136 190.214283 
L 523.572955 194.345505 
L 527.254773 197.739818 
L 530.936591 202.904865 
L 534.618409 204.646508 
L 538.300227 206.398278 
L 541.982045 209.932549 
L 545.663864 209.682974 
L 549.345682 209.179405 
L 553.0275 210.975682 
L 556.709318 212.78262 
L 560.391136 212.537813 
L 564.072955 214.360201 
L 567.754773 214.360201 
L 571.436591 218.037813 
L 575.118409 219.893234 
L 578.800227 219.893234 
L 582.482045 225.527174 
L 586.163864 226.803966 
L 589.845682 228.732257 
L 593.5275 232.624769 
L 597.209318 232.624769 
L 600.891136 232.624769 
L 604.572955 232.624769 
L 608.254773 232.624769 
L 611.936591 232.624769 
L 615.618409 232.430336 
L 619.300227 232.430336 
L 622.982045 232.234688 
L 626.663864 238.198696 
L 630.345682 240.211863 
L 634.0275 242.237813 
L 637.709318 242.237813 
L 641.391136 242.237813 
L 645.072955 242.237813 
L 648.754773 244.276666 
L 652.436591 244.276666 
L 656.118409 246.328547 
L 659.800227 248.393582 
L 663.482045 250.471896 
L 667.163864 250.471896 
L 670.845682 250.471896 
L 674.5275 250.471896 
L 678.209318 252.563619 
L 681.891136 252.563619 
L 685.572955 252.563619 
L 689.254773 252.563619 
L 692.936591 252.563619 
L 696.618409 252.563619 
L 700.300227 252.563619 
L 703.982045 254.66888 
L 707.663864 254.66888 
L 711.345682 254.66888 
L 715.0275 254.66888 
L 718.709318 254.66888 
L 722.391136 254.66888 
L 726.072955 254.66888 
L 729.754773 256.787813 
L 733.436591 256.787813 
L 737.118409 256.787813 
L 740.800227 256.787813 
" style="fill:none;stroke:#8b0000;stroke-linecap:square;stroke-width:2;"/>
   </g>
   <g id="line2d_19">
    <path clip-path="url(#p9e5c236752)" d="M 446.254773 169.735229 
L 449.936591 176.391898 
L 453.618409 172.579981 
L 457.300227 172.910763 
L 460.982045 170.875313 
L 464.663864 173.093606 
L 468.345682 175.976138 
L 472.0275 174.791237 
L 475.709318 177.358567 
L 479.391136 181.758966 
L 483.072955 178.968847 
L 486.754773 181.261693 
L 490.436591 181.314736 
L 494.118409 182.561373 
L 497.800227 180.807043 
L 501.482045 177.580185 
L 505.163864 176.237813 
L 508.845682 174.864402 
L 512.5275 178.194789 
L 516.209318 175.412813 
L 519.891136 175.994868 
L 523.572955 171.445456 
L 527.254773 174.321683 
L 530.936591 185.61676 
L 534.618409 184.892117 
L 538.300227 184.157813 
L 541.982045 187.341867 
L 545.663864 186.609241 
L 549.345682 185.113675 
L 553.0275 189.162813 
L 556.709318 193.268582 
L 560.391136 192.551897 
L 564.072955 191.825047 
L 567.754773 191.825047 
L 571.436591 190.339971 
L 575.118409 194.60303 
L 578.800227 194.60303 
L 582.482045 207.771146 
L 586.163864 205.106515 
L 589.845682 209.745505 
L 593.5275 219.240938 
L 597.209318 219.240938 
L 600.891136 219.240938 
L 604.572955 219.240938 
L 608.254773 219.240938 
L 611.936591 219.240938 
L 615.618409 218.644112 
L 619.300227 218.644112 
L 622.982045 218.037813 
L 626.663864 221.79391 
L 630.345682 221.19355 
L 634.0275 220.583267 
L 637.709318 220.583267 
L 641.391136 220.583267 
L 645.072955 220.583267 
L 648.754773 225.737813 
L 652.436591 225.737813 
L 656.118409 225.15546 
L 659.800227 230.436118 
L 663.482045 235.807043 
L 667.163864 235.807043 
L 670.845682 235.807043 
L 674.5275 235.807043 
L 678.209318 235.296433 
L 681.891136 235.296433 
L 685.572955 235.296433 
L 689.254773 235.296433 
L 692.936591 235.296433 
L 696.618409 235.296433 
L 700.300227 235.296433 
L 703.982045 240.80303 
L 707.663864 240.80303 
L 711.345682 240.80303 
L 715.0275 240.80303 
L 718.709318 240.80303 
L 722.391136 240.80303 
L 726.072955 240.80303 
L 729.754773 246.406234 
L 733.436591 246.406234 
L 737.118409 246.406234 
L 740.800227 246.406234 
" style="fill:none;stroke:#000080;stroke-linecap:square;stroke-width:2;"/>
   </g>
   <g id="patch_6">
    <path d="M 431.5275 295.037813 
L 431.5275 17.837813 
" style="fill:none;stroke:#000000;stroke-linecap:square;stroke-linejoin:miter;stroke-width:0.8;"/>
   </g>
   <g id="patch_7">
    <path d="M 431.5275 295.037813 
L 755.5275 295.037813 
" style="fill:none;stroke:#000000;stroke-linecap:square;stroke-linejoin:miter;stroke-width:0.8;"/>
   </g>
  </g>
  <g id="axes_3">
   <g id="patch_8">
    <path d="M 771.7275 295.037813 
L 1095.7275 295.037813 
L 1095.7275 17.837813 
L 771.7275 17.837813 
z
" style="fill:none;"/>
   </g>
   <g id="matplotlib.axis_5">
    <g id="xtick_11">
     <g id="line2d_20">
      <g>
       <use style="stroke:#000000;stroke-width:0.8;" x="786.454773" xlink:href="#m7d4c895318" y="295.037813"/>
      </g>
     </g>
     <g id="text_19">
      <!-- 1 -->
      <g transform="translate(777.547273 324.813438)scale(0.28 -0.28)">
       <use xlink:href="#DejaVuSans-49"/>
      </g>
     </g>
    </g>
    <g id="xtick_12">
     <g id="line2d_21">
      <g>
       <use style="stroke:#000000;stroke-width:0.8;" x="860.091136" xlink:href="#m7d4c895318" y="295.037813"/>
      </g>
     </g>
     <g id="text_20">
      <!-- 2 -->
      <g transform="translate(851.183636 324.813438)scale(0.28 -0.28)">
       <use xlink:href="#DejaVuSans-50"/>
      </g>
     </g>
    </g>
    <g id="xtick_13">
     <g id="line2d_22">
      <g>
       <use style="stroke:#000000;stroke-width:0.8;" x="933.7275" xlink:href="#m7d4c895318" y="295.037813"/>
      </g>
     </g>
     <g id="text_21">
      <!-- 3 -->
      <g transform="translate(924.82 324.813438)scale(0.28 -0.28)">
       <use xlink:href="#DejaVuSans-51"/>
      </g>
     </g>
    </g>
    <g id="xtick_14">
     <g id="line2d_23">
      <g>
       <use style="stroke:#000000;stroke-width:0.8;" x="1007.363864" xlink:href="#m7d4c895318" y="295.037813"/>
      </g>
     </g>
     <g id="text_22">
      <!-- 4 -->
      <g transform="translate(998.456364 324.813438)scale(0.28 -0.28)">
       <use xlink:href="#DejaVuSans-52"/>
      </g>
     </g>
    </g>
    <g id="xtick_15">
     <g id="line2d_24">
      <g>
       <use style="stroke:#000000;stroke-width:0.8;" x="1081.000227" xlink:href="#m7d4c895318" y="295.037813"/>
      </g>
     </g>
     <g id="text_23">
      <!-- 5 -->
      <g transform="translate(1072.092727 324.813438)scale(0.28 -0.28)">
       <use xlink:href="#DejaVuSans-53"/>
      </g>
     </g>
    </g>
    <g id="text_24">
     <!-- -log10 p-value -->
     <g transform="translate(832.8925 355.912188)scale(0.28 -0.28)">
      <use xlink:href="#DejaVuSans-45"/>
      <use x="36.083984" xlink:href="#DejaVuSans-108"/>
      <use x="63.867188" xlink:href="#DejaVuSans-111"/>
      <use x="125.048828" xlink:href="#DejaVuSans-103"/>
      <use x="188.525391" xlink:href="#DejaVuSans-49"/>
      <use x="252.148438" xlink:href="#DejaVuSans-48"/>
      <use x="315.771484" xlink:href="#DejaVuSans-32"/>
      <use x="347.558594" xlink:href="#DejaVuSans-112"/>
      <use x="411.035156" xlink:href="#DejaVuSans-45"/>
      <use x="447.087891" xlink:href="#DejaVuSans-118"/>
      <use x="506.267578" xlink:href="#DejaVuSans-97"/>
      <use x="567.546875" xlink:href="#DejaVuSans-108"/>
      <use x="595.330078" xlink:href="#DejaVuSans-117"/>
      <use x="658.708984" xlink:href="#DejaVuSans-101"/>
     </g>
    </g>
   </g>
   <g id="matplotlib.axis_6">
    <g id="ytick_11"/>
    <g id="ytick_12"/>
    <g id="ytick_13"/>
    <g id="ytick_14"/>
    <g id="ytick_15"/>
   </g>
   <g id="line2d_25">
    <path clip-path="url(#p4137bb1c9e)" d="M 786.454773 11.997294 
L 790.136591 11.997294 
L 793.818409 14.000353 
L 797.500227 17.609476 
L 801.182045 20.366171 
L 804.863864 21.758278 
L 808.545682 25.990754 
L 812.2275 29.859241 
L 815.909318 31.319382 
L 819.591136 34.269771 
L 823.272955 35.760226 
L 826.954773 38.015282 
L 830.636591 41.826274 
L 834.318409 45.263961 
L 838.000227 46.835685 
L 841.682045 48.418595 
L 845.363864 49.214283 
L 849.045682 51.618458 
L 852.7275 56.505204 
L 856.409318 58.988632 
L 860.091136 60.23012 
L 863.772955 63.611613 
L 867.454773 67.043389 
L 871.136591 69.650897 
L 874.818409 71.405542 
L 878.500227 74.062341 
L 882.182045 78.557813 
L 885.863864 80.380069 
L 889.545682 83.659434 
L 893.2275 86.464997 
L 896.909318 87.407462 
L 900.591136 87.407462 
L 904.272955 89.303438 
L 907.954773 91.214283 
L 911.636591 93.711726 
L 915.318409 95.662813 
L 919.000227 96.644174 
L 922.682045 101.610102 
L 926.363864 105.271078 
L 930.045682 106.29391 
L 933.7275 107.320908 
L 937.409318 108.352098 
L 941.091136 109.387506 
L 944.772955 112.519294 
L 948.454773 112.519294 
L 952.136591 112.519294 
L 955.818409 116.755655 
L 959.500227 119.979357 
L 963.182045 123.243695 
L 966.863864 125.442876 
L 970.545682 128.776666 
L 974.2275 129.897387 
L 977.909318 131.022887 
L 981.591136 134.42837 
L 985.272955 136.723157 
L 988.954773 137.877985 
L 992.636591 142.547616 
L 996.318409 144.913086 
L 1000.000227 144.913086 
L 1003.682045 147.299351 
L 1007.363864 149.706687 
L 1011.045682 150.918343 
L 1014.7275 150.918343 
L 1018.409318 150.918343 
L 1022.091136 152.135373 
L 1025.772955 152.135373 
L 1029.454773 157.057947 
L 1033.136591 158.302386 
L 1036.818409 160.808083 
L 1040.500227 163.336455 
L 1044.182045 163.336455 
L 1047.863864 164.609241 
L 1051.545682 165.887813 
L 1055.2275 165.887813 
L 1058.909318 165.887813 
L 1062.591136 165.887813 
L 1066.272955 171.060748 
L 1069.954773 172.368847 
L 1073.636591 172.368847 
L 1077.318409 173.682974 
L 1081.000227 175.00317 
" style="fill:none;stroke:#8b0000;stroke-linecap:square;stroke-width:2;"/>
   </g>
   <g id="line2d_26">
    <path clip-path="url(#p4137bb1c9e)" d="M 786.454773 140.826274 
L 790.136591 140.826274 
L 793.818409 141.464405 
L 797.500227 138.427643 
L 801.182045 136.637813 
L 804.863864 137.718847 
L 808.545682 136.985181 
L 812.2275 135.751245 
L 815.909318 134.794569 
L 819.591136 137.059089 
L 823.272955 136.092858 
L 826.954773 138.898924 
L 830.636591 138.624019 
L 834.318409 137.839729 
L 838.000227 136.828809 
L 841.682045 135.804803 
L 845.363864 135.287813 
L 849.045682 135.988632 
L 852.7275 135.114736 
L 856.409318 133.493894 
L 860.091136 134.205048 
L 863.772955 136.774837 
L 867.454773 134.553602 
L 871.136591 132.846323 
L 874.818409 136.637813 
L 878.500227 134.922289 
L 882.182045 131.978989 
L 885.863864 130.771146 
L 889.545682 130.286869 
L 893.2275 131.045446 
L 896.909318 133.072295 
L 900.591136 133.072295 
L 904.272955 134.497272 
L 907.954773 133.247929 
L 911.636591 130.689986 
L 915.318409 129.380442 
L 919.000227 128.717813 
L 922.682045 128.152098 
L 926.363864 124.675313 
L 930.045682 123.962499 
L 933.7275 123.243695 
L 937.409318 125.442876 
L 941.091136 127.660694 
L 944.772955 131.454122 
L 948.454773 131.454122 
L 952.136591 131.454122 
L 955.818409 128.596764 
L 959.500227 126.38737 
L 963.182045 124.11853 
L 966.863864 125.707496 
L 970.545682 123.377262 
L 974.2275 122.5862 
L 977.909318 124.996146 
L 981.591136 129.108235 
L 985.272955 130.819803 
L 988.954773 130.037813 
L 992.636591 133.562084 
L 996.318409 135.376048 
L 1000.000227 135.376048 
L 1003.682045 137.225931 
L 1007.363864 142.577813 
L 1011.045682 141.811682 
L 1014.7275 141.811682 
L 1018.409318 141.811682 
L 1022.091136 141.037813 
L 1025.772955 141.037813 
L 1029.454773 145.006885 
L 1033.136591 144.229522 
L 1036.818409 142.650378 
L 1040.500227 141.037813 
L 1044.182045 141.037813 
L 1047.863864 140.218664 
L 1051.545682 139.390754 
L 1055.2275 139.390754 
L 1058.909318 139.390754 
L 1062.591136 139.390754 
L 1066.272955 147.349288 
L 1069.954773 146.537813 
L 1073.636591 146.537813 
L 1077.318409 145.717371 
L 1081.000227 148.737813 
" style="fill:none;stroke:#000080;stroke-linecap:square;stroke-width:2;"/>
   </g>
   <g id="patch_9">
    <path d="M 771.7275 295.037813 
L 771.7275 17.837813 
" style="fill:none;stroke:#000000;stroke-linecap:square;stroke-linejoin:miter;stroke-width:0.8;"/>
   </g>
   <g id="patch_10">
    <path d="M 771.7275 295.037813 
L 1095.7275 295.037813 
" style="fill:none;stroke:#000000;stroke-linecap:square;stroke-linejoin:miter;stroke-width:0.8;"/>
   </g>
  </g>
 </g>
 <defs>
  <clipPath id="p214ee58538">
   <rect height="277.2" width="324" x="91.3275" y="17.837812"/>
  </clipPath>
  <clipPath id="p9e5c236752">
   <rect height="277.2" width="324" x="431.5275" y="17.837812"/>
  </clipPath>
  <clipPath id="p4137bb1c9e">
   <rect height="277.2" width="324" x="771.7275" y="17.837812"/>
  </clipPath>
 </defs>
</svg>
