<?xml version="1.0" encoding="utf-8" standalone="no"?>
<!DOCTYPE svg PUBLIC "-//W3C//DTD SVG 1.1//EN"
  "http://www.w3.org/Graphics/SVG/1.1/DTD/svg11.dtd">
<!-- Created with matplotlib (https://matplotlib.org/) -->
<svg height="363.535312pt" version="1.1" viewBox="0 0 1102.9275 363.535312" width="1102.9275pt" xmlns="http://www.w3.org/2000/svg" xmlns:xlink="http://www.w3.org/1999/xlink">
 <defs>
  <style type="text/css">
*{stroke-linecap:butt;stroke-linejoin:round;}
  </style>
 </defs>
 <g id="figure_1">
  <g id="patch_1">
   <path d="M 0 363.535312 
L 1102.9275 363.535312 
L 1102.9275 -0 
L 0 -0 
z
" style="fill:none;"/>
  </g>
  <g id="axes_1">
   <g id="patch_2">
    <path d="M 91.3275 289.637812 
L 415.3275 289.637812 
L 415.3275 17.837813 
L 91.3275 17.837813 
z
" style="fill:none;"/>
   </g>
   <g id="matplotlib.axis_1">
    <g id="xtick_1">
     <g id="line2d_1">
      <defs>
       <path d="M 0 0 
L 0 5 
" id="mb7572e30f4" style="stroke:#000000;stroke-width:0.8;"/>
      </defs>
      <g>
       <use style="stroke:#000000;stroke-width:0.8;" x="106.054773" xlink:href="#mb7572e30f4" y="289.637812"/>
      </g>
     </g>
     <g id="text_1">
      <!-- 1 -->
      <defs>
       <path d="M 12.40625 8.296875 
L 28.515625 8.296875 
L 28.515625 63.921875 
L 10.984375 60.40625 
L 10.984375 69.390625 
L 28.421875 72.90625 
L 38.28125 72.90625 
L 38.28125 8.296875 
L 54.390625 8.296875 
L 54.390625 0 
L 12.40625 0 
z
" id="DejaVuSans-49"/>
      </defs>
      <g transform="translate(97.147273 319.413437)scale(0.28 -0.28)">
       <use xlink:href="#DejaVuSans-49"/>
      </g>
     </g>
    </g>
    <g id="xtick_2">
     <g id="line2d_2">
      <g>
       <use style="stroke:#000000;stroke-width:0.8;" x="179.691136" xlink:href="#mb7572e30f4" y="289.637812"/>
      </g>
     </g>
     <g id="text_2">
      <!-- 2 -->
      <defs>
       <path d="M 19.1875 8.296875 
L 53.609375 8.296875 
L 53.609375 0 
L 7.328125 0 
L 7.328125 8.296875 
Q 12.9375 14.109375 22.625 23.890625 
Q 32.328125 33.6875 34.8125 36.53125 
Q 39.546875 41.84375 41.421875 45.53125 
Q 43.3125 49.21875 43.3125 52.78125 
Q 43.3125 58.59375 39.234375 62.25 
Q 35.15625 65.921875 28.609375 65.921875 
Q 23.96875 65.921875 18.8125 64.3125 
Q 13.671875 62.703125 7.8125 59.421875 
L 7.8125 69.390625 
Q 13.765625 71.78125 18.9375 73 
Q 24.125 74.21875 28.421875 74.21875 
Q 39.75 74.21875 46.484375 68.546875 
Q 53.21875 62.890625 53.21875 53.421875 
Q 53.21875 48.921875 51.53125 44.890625 
Q 49.859375 40.875 45.40625 35.40625 
Q 44.1875 33.984375 37.640625 27.21875 
Q 31.109375 20.453125 19.1875 8.296875 
z
" id="DejaVuSans-50"/>
      </defs>
      <g transform="translate(170.783636 319.413437)scale(0.28 -0.28)">
       <use xlink:href="#DejaVuSans-50"/>
      </g>
     </g>
    </g>
    <g id="xtick_3">
     <g id="line2d_3">
      <g>
       <use style="stroke:#000000;stroke-width:0.8;" x="253.3275" xlink:href="#mb7572e30f4" y="289.637812"/>
      </g>
     </g>
     <g id="text_3">
      <!-- 3 -->
      <defs>
       <path d="M 40.578125 39.3125 
Q 47.65625 37.796875 51.625 33 
Q 55.609375 28.21875 55.609375 21.1875 
Q 55.609375 10.40625 48.1875 4.484375 
Q 40.765625 -1.421875 27.09375 -1.421875 
Q 22.515625 -1.421875 17.65625 -0.515625 
Q 12.796875 0.390625 7.625 2.203125 
L 7.625 11.71875 
Q 11.71875 9.328125 16.59375 8.109375 
Q 21.484375 6.890625 26.8125 6.890625 
Q 36.078125 6.890625 40.9375 10.546875 
Q 45.796875 14.203125 45.796875 21.1875 
Q 45.796875 27.640625 41.28125 31.265625 
Q 36.765625 34.90625 28.71875 34.90625 
L 20.21875 34.90625 
L 20.21875 43.015625 
L 29.109375 43.015625 
Q 36.375 43.015625 40.234375 45.921875 
Q 44.09375 48.828125 44.09375 54.296875 
Q 44.09375 59.90625 40.109375 62.90625 
Q 36.140625 65.921875 28.71875 65.921875 
Q 24.65625 65.921875 20.015625 65.03125 
Q 15.375 64.15625 9.8125 62.3125 
L 9.8125 71.09375 
Q 15.4375 72.65625 20.34375 73.4375 
Q 25.25 74.21875 29.59375 74.21875 
Q 40.828125 74.21875 47.359375 69.109375 
Q 53.90625 64.015625 53.90625 55.328125 
Q 53.90625 49.265625 50.4375 45.09375 
Q 46.96875 40.921875 40.578125 39.3125 
z
" id="DejaVuSans-51"/>
      </defs>
      <g transform="translate(244.42 319.413437)scale(0.28 -0.28)">
       <use xlink:href="#DejaVuSans-51"/>
      </g>
     </g>
    </g>
    <g id="xtick_4">
     <g id="line2d_4">
      <g>
       <use style="stroke:#000000;stroke-width:0.8;" x="326.963864" xlink:href="#mb7572e30f4" y="289.637812"/>
      </g>
     </g>
     <g id="text_4">
      <!-- 4 -->
      <defs>
       <path d="M 37.796875 64.3125 
L 12.890625 25.390625 
L 37.796875 25.390625 
z
M 35.203125 72.90625 
L 47.609375 72.90625 
L 47.609375 25.390625 
L 58.015625 25.390625 
L 58.015625 17.1875 
L 47.609375 17.1875 
L 47.609375 0 
L 37.796875 0 
L 37.796875 17.1875 
L 4.890625 17.1875 
L 4.890625 26.703125 
z
" id="DejaVuSans-52"/>
      </defs>
      <g transform="translate(318.056364 319.413437)scale(0.28 -0.28)">
       <use xlink:href="#DejaVuSans-52"/>
      </g>
     </g>
    </g>
    <g id="xtick_5">
     <g id="line2d_5">
      <g>
       <use style="stroke:#000000;stroke-width:0.8;" x="400.600227" xlink:href="#mb7572e30f4" y="289.637812"/>
      </g>
     </g>
     <g id="text_5">
      <!-- 5 -->
      <defs>
       <path d="M 10.796875 72.90625 
L 49.515625 72.90625 
L 49.515625 64.59375 
L 19.828125 64.59375 
L 19.828125 46.734375 
Q 21.96875 47.46875 24.109375 47.828125 
Q 26.265625 48.1875 28.421875 48.1875 
Q 40.625 48.1875 47.75 41.5 
Q 54.890625 34.8125 54.890625 23.390625 
Q 54.890625 11.625 47.5625 5.09375 
Q 40.234375 -1.421875 26.90625 -1.421875 
Q 22.3125 -1.421875 17.546875 -0.640625 
Q 12.796875 0.140625 7.71875 1.703125 
L 7.71875 11.625 
Q 12.109375 9.234375 16.796875 8.0625 
Q 21.484375 6.890625 26.703125 6.890625 
Q 35.15625 6.890625 40.078125 11.328125 
Q 45.015625 15.765625 45.015625 23.390625 
Q 45.015625 31 40.078125 35.4375 
Q 35.15625 39.890625 26.703125 39.890625 
Q 22.75 39.890625 18.8125 39.015625 
Q 14.890625 38.140625 10.796875 36.28125 
z
" id="DejaVuSans-53"/>
      </defs>
      <g transform="translate(391.692727 319.413437)scale(0.28 -0.28)">
       <use xlink:href="#DejaVuSans-53"/>
      </g>
     </g>
    </g>
    <g id="text_6">
     <!-- -log10 p-value -->
     <defs>
      <path d="M 4.890625 31.390625 
L 31.203125 31.390625 
L 31.203125 23.390625 
L 4.890625 23.390625 
z
" id="DejaVuSans-45"/>
      <path d="M 9.421875 75.984375 
L 18.40625 75.984375 
L 18.40625 0 
L 9.421875 0 
z
" id="DejaVuSans-108"/>
      <path d="M 30.609375 48.390625 
Q 23.390625 48.390625 19.1875 42.75 
Q 14.984375 37.109375 14.984375 27.296875 
Q 14.984375 17.484375 19.15625 11.84375 
Q 23.34375 6.203125 30.609375 6.203125 
Q 37.796875 6.203125 41.984375 11.859375 
Q 46.1875 17.53125 46.1875 27.296875 
Q 46.1875 37.015625 41.984375 42.703125 
Q 37.796875 48.390625 30.609375 48.390625 
z
M 30.609375 56 
Q 42.328125 56 49.015625 48.375 
Q 55.71875 40.765625 55.71875 27.296875 
Q 55.71875 13.875 49.015625 6.21875 
Q 42.328125 -1.421875 30.609375 -1.421875 
Q 18.84375 -1.421875 12.171875 6.21875 
Q 5.515625 13.875 5.515625 27.296875 
Q 5.515625 40.765625 12.171875 48.375 
Q 18.84375 56 30.609375 56 
z
" id="DejaVuSans-111"/>
      <path d="M 45.40625 27.984375 
Q 45.40625 37.75 41.375 43.109375 
Q 37.359375 48.484375 30.078125 48.484375 
Q 22.859375 48.484375 18.828125 43.109375 
Q 14.796875 37.75 14.796875 27.984375 
Q 14.796875 18.265625 18.828125 12.890625 
Q 22.859375 7.515625 30.078125 7.515625 
Q 37.359375 7.515625 41.375 12.890625 
Q 45.40625 18.265625 45.40625 27.984375 
z
M 54.390625 6.78125 
Q 54.390625 -7.171875 48.1875 -13.984375 
Q 42 -20.796875 29.203125 -20.796875 
Q 24.46875 -20.796875 20.265625 -20.09375 
Q 16.0625 -19.390625 12.109375 -17.921875 
L 12.109375 -9.1875 
Q 16.0625 -11.328125 19.921875 -12.34375 
Q 23.78125 -13.375 27.78125 -13.375 
Q 36.625 -13.375 41.015625 -8.765625 
Q 45.40625 -4.15625 45.40625 5.171875 
L 45.40625 9.625 
Q 42.625 4.78125 38.28125 2.390625 
Q 33.9375 0 27.875 0 
Q 17.828125 0 11.671875 7.65625 
Q 5.515625 15.328125 5.515625 27.984375 
Q 5.515625 40.671875 11.671875 48.328125 
Q 17.828125 56 27.875 56 
Q 33.9375 56 38.28125 53.609375 
Q 42.625 51.21875 45.40625 46.390625 
L 45.40625 54.6875 
L 54.390625 54.6875 
z
" id="DejaVuSans-103"/>
      <path d="M 31.78125 66.40625 
Q 24.171875 66.40625 20.328125 58.90625 
Q 16.5 51.421875 16.5 36.375 
Q 16.5 21.390625 20.328125 13.890625 
Q 24.171875 6.390625 31.78125 6.390625 
Q 39.453125 6.390625 43.28125 13.890625 
Q 47.125 21.390625 47.125 36.375 
Q 47.125 51.421875 43.28125 58.90625 
Q 39.453125 66.40625 31.78125 66.40625 
z
M 31.78125 74.21875 
Q 44.046875 74.21875 50.515625 64.515625 
Q 56.984375 54.828125 56.984375 36.375 
Q 56.984375 17.96875 50.515625 8.265625 
Q 44.046875 -1.421875 31.78125 -1.421875 
Q 19.53125 -1.421875 13.0625 8.265625 
Q 6.59375 17.96875 6.59375 36.375 
Q 6.59375 54.828125 13.0625 64.515625 
Q 19.53125 74.21875 31.78125 74.21875 
z
" id="DejaVuSans-48"/>
      <path id="DejaVuSans-32"/>
      <path d="M 18.109375 8.203125 
L 18.109375 -20.796875 
L 9.078125 -20.796875 
L 9.078125 54.6875 
L 18.109375 54.6875 
L 18.109375 46.390625 
Q 20.953125 51.265625 25.265625 53.625 
Q 29.59375 56 35.59375 56 
Q 45.5625 56 51.78125 48.09375 
Q 58.015625 40.1875 58.015625 27.296875 
Q 58.015625 14.40625 51.78125 6.484375 
Q 45.5625 -1.421875 35.59375 -1.421875 
Q 29.59375 -1.421875 25.265625 0.953125 
Q 20.953125 3.328125 18.109375 8.203125 
z
M 48.6875 27.296875 
Q 48.6875 37.203125 44.609375 42.84375 
Q 40.53125 48.484375 33.40625 48.484375 
Q 26.265625 48.484375 22.1875 42.84375 
Q 18.109375 37.203125 18.109375 27.296875 
Q 18.109375 17.390625 22.1875 11.75 
Q 26.265625 6.109375 33.40625 6.109375 
Q 40.53125 6.109375 44.609375 11.75 
Q 48.6875 17.390625 48.6875 27.296875 
z
" id="DejaVuSans-112"/>
      <path d="M 2.984375 54.6875 
L 12.5 54.6875 
L 29.59375 8.796875 
L 46.6875 54.6875 
L 56.203125 54.6875 
L 35.6875 0 
L 23.484375 0 
z
" id="DejaVuSans-118"/>
      <path d="M 34.28125 27.484375 
Q 23.390625 27.484375 19.1875 25 
Q 14.984375 22.515625 14.984375 16.5 
Q 14.984375 11.71875 18.140625 8.90625 
Q 21.296875 6.109375 26.703125 6.109375 
Q 34.1875 6.109375 38.703125 11.40625 
Q 43.21875 16.703125 43.21875 25.484375 
L 43.21875 27.484375 
z
M 52.203125 31.203125 
L 52.203125 0 
L 43.21875 0 
L 43.21875 8.296875 
Q 40.140625 3.328125 35.546875 0.953125 
Q 30.953125 -1.421875 24.3125 -1.421875 
Q 15.921875 -1.421875 10.953125 3.296875 
Q 6 8.015625 6 15.921875 
Q 6 25.140625 12.171875 29.828125 
Q 18.359375 34.515625 30.609375 34.515625 
L 43.21875 34.515625 
L 43.21875 35.40625 
Q 43.21875 41.609375 39.140625 45 
Q 35.0625 48.390625 27.6875 48.390625 
Q 23 48.390625 18.546875 47.265625 
Q 14.109375 46.140625 10.015625 43.890625 
L 10.015625 52.203125 
Q 14.9375 54.109375 19.578125 55.046875 
Q 24.21875 56 28.609375 56 
Q 40.484375 56 46.34375 49.84375 
Q 52.203125 43.703125 52.203125 31.203125 
z
" id="DejaVuSans-97"/>
      <path d="M 8.5 21.578125 
L 8.5 54.6875 
L 17.484375 54.6875 
L 17.484375 21.921875 
Q 17.484375 14.15625 20.5 10.265625 
Q 23.53125 6.390625 29.59375 6.390625 
Q 36.859375 6.390625 41.078125 11.03125 
Q 45.3125 15.671875 45.3125 23.6875 
L 45.3125 54.6875 
L 54.296875 54.6875 
L 54.296875 0 
L 45.3125 0 
L 45.3125 8.40625 
Q 42.046875 3.421875 37.71875 1 
Q 33.40625 -1.421875 27.6875 -1.421875 
Q 18.265625 -1.421875 13.375 4.4375 
Q 8.5 10.296875 8.5 21.578125 
z
M 31.109375 56 
z
" id="DejaVuSans-117"/>
      <path d="M 56.203125 29.59375 
L 56.203125 25.203125 
L 14.890625 25.203125 
Q 15.484375 15.921875 20.484375 11.0625 
Q 25.484375 6.203125 34.421875 6.203125 
Q 39.59375 6.203125 44.453125 7.46875 
Q 49.3125 8.734375 54.109375 11.28125 
L 54.109375 2.78125 
Q 49.265625 0.734375 44.1875 -0.34375 
Q 39.109375 -1.421875 33.890625 -1.421875 
Q 20.796875 -1.421875 13.15625 6.1875 
Q 5.515625 13.8125 5.515625 26.8125 
Q 5.515625 40.234375 12.765625 48.109375 
Q 20.015625 56 32.328125 56 
Q 43.359375 56 49.78125 48.890625 
Q 56.203125 41.796875 56.203125 29.59375 
z
M 47.21875 32.234375 
Q 47.125 39.59375 43.09375 43.984375 
Q 39.0625 48.390625 32.421875 48.390625 
Q 24.90625 48.390625 20.390625 44.140625 
Q 15.875 39.890625 15.1875 32.171875 
z
" id="DejaVuSans-101"/>
     </defs>
     <g transform="translate(152.4925 350.512187)scale(0.28 -0.28)">
      <use xlink:href="#DejaVuSans-45"/>
      <use x="36.083984" xlink:href="#DejaVuSans-108"/>
      <use x="63.867188" xlink:href="#DejaVuSans-111"/>
      <use x="125.048828" xlink:href="#DejaVuSans-103"/>
      <use x="188.525391" xlink:href="#DejaVuSans-49"/>
      <use x="252.148438" xlink:href="#DejaVuSans-48"/>
      <use x="315.771484" xlink:href="#DejaVuSans-32"/>
      <use x="347.558594" xlink:href="#DejaVuSans-112"/>
      <use x="411.035156" xlink:href="#DejaVuSans-45"/>
      <use x="447.087891" xlink:href="#DejaVuSans-118"/>
      <use x="506.267578" xlink:href="#DejaVuSans-97"/>
      <use x="567.546875" xlink:href="#DejaVuSans-108"/>
      <use x="595.330078" xlink:href="#DejaVuSans-117"/>
      <use x="658.708984" xlink:href="#DejaVuSans-101"/>
     </g>
    </g>
   </g>
   <g id="matplotlib.axis_2">
    <g id="ytick_1">
     <g id="line2d_6">
      <defs>
       <path d="M 0 0 
L -5 0 
" id="m7482dc97f2" style="stroke:#000000;stroke-width:0.8;"/>
      </defs>
      <g>
       <use style="stroke:#000000;stroke-width:0.8;" x="91.3275" xlink:href="#m7482dc97f2" y="289.637812"/>
      </g>
     </g>
     <g id="text_7">
      <!-- 0.0 -->
      <defs>
       <path d="M 10.6875 12.40625 
L 21 12.40625 
L 21 0 
L 10.6875 0 
z
" id="DejaVuSans-46"/>
      </defs>
      <g transform="translate(38.29875 300.275625)scale(0.28 -0.28)">
       <use xlink:href="#DejaVuSans-48"/>
       <use x="63.623047" xlink:href="#DejaVuSans-46"/>
       <use x="95.410156" xlink:href="#DejaVuSans-48"/>
      </g>
     </g>
    </g>
    <g id="ytick_2">
     <g id="line2d_7">
      <g>
       <use style="stroke:#000000;stroke-width:0.8;" x="91.3275" xlink:href="#m7482dc97f2" y="221.687813"/>
      </g>
     </g>
     <g id="text_8">
      <!-- 0.2 -->
      <g transform="translate(38.29875 232.325625)scale(0.28 -0.28)">
       <use xlink:href="#DejaVuSans-48"/>
       <use x="63.623047" xlink:href="#DejaVuSans-46"/>
       <use x="95.410156" xlink:href="#DejaVuSans-50"/>
      </g>
     </g>
    </g>
    <g id="ytick_3">
     <g id="line2d_8">
      <g>
       <use style="stroke:#000000;stroke-width:0.8;" x="91.3275" xlink:href="#m7482dc97f2" y="153.737813"/>
      </g>
     </g>
     <g id="text_9">
      <!-- 0.4 -->
      <g transform="translate(38.29875 164.375625)scale(0.28 -0.28)">
       <use xlink:href="#DejaVuSans-48"/>
       <use x="63.623047" xlink:href="#DejaVuSans-46"/>
       <use x="95.410156" xlink:href="#DejaVuSans-52"/>
      </g>
     </g>
    </g>
    <g id="ytick_4">
     <g id="line2d_9">
      <g>
       <use style="stroke:#000000;stroke-width:0.8;" x="91.3275" xlink:href="#m7482dc97f2" y="85.787813"/>
      </g>
     </g>
     <g id="text_10">
      <!-- 0.6 -->
      <defs>
       <path d="M 33.015625 40.375 
Q 26.375 40.375 22.484375 35.828125 
Q 18.609375 31.296875 18.609375 23.390625 
Q 18.609375 15.53125 22.484375 10.953125 
Q 26.375 6.390625 33.015625 6.390625 
Q 39.65625 6.390625 43.53125 10.953125 
Q 47.40625 15.53125 47.40625 23.390625 
Q 47.40625 31.296875 43.53125 35.828125 
Q 39.65625 40.375 33.015625 40.375 
z
M 52.59375 71.296875 
L 52.59375 62.3125 
Q 48.875 64.0625 45.09375 64.984375 
Q 41.3125 65.921875 37.59375 65.921875 
Q 27.828125 65.921875 22.671875 59.328125 
Q 17.53125 52.734375 16.796875 39.40625 
Q 19.671875 43.65625 24.015625 45.921875 
Q 28.375 48.1875 33.59375 48.1875 
Q 44.578125 48.1875 50.953125 41.515625 
Q 57.328125 34.859375 57.328125 23.390625 
Q 57.328125 12.15625 50.6875 5.359375 
Q 44.046875 -1.421875 33.015625 -1.421875 
Q 20.359375 -1.421875 13.671875 8.265625 
Q 6.984375 17.96875 6.984375 36.375 
Q 6.984375 53.65625 15.1875 63.9375 
Q 23.390625 74.21875 37.203125 74.21875 
Q 40.921875 74.21875 44.703125 73.484375 
Q 48.484375 72.75 52.59375 71.296875 
z
" id="DejaVuSans-54"/>
      </defs>
      <g transform="translate(38.29875 96.425625)scale(0.28 -0.28)">
       <use xlink:href="#DejaVuSans-48"/>
       <use x="63.623047" xlink:href="#DejaVuSans-46"/>
       <use x="95.410156" xlink:href="#DejaVuSans-54"/>
      </g>
     </g>
    </g>
    <g id="ytick_5">
     <g id="line2d_10">
      <g>
       <use style="stroke:#000000;stroke-width:0.8;" x="91.3275" xlink:href="#m7482dc97f2" y="17.837813"/>
      </g>
     </g>
     <g id="text_11">
      <!-- 0.8 -->
      <defs>
       <path d="M 31.78125 34.625 
Q 24.75 34.625 20.71875 30.859375 
Q 16.703125 27.09375 16.703125 20.515625 
Q 16.703125 13.921875 20.71875 10.15625 
Q 24.75 6.390625 31.78125 6.390625 
Q 38.8125 6.390625 42.859375 10.171875 
Q 46.921875 13.96875 46.921875 20.515625 
Q 46.921875 27.09375 42.890625 30.859375 
Q 38.875 34.625 31.78125 34.625 
z
M 21.921875 38.8125 
Q 15.578125 40.375 12.03125 44.71875 
Q 8.5 49.078125 8.5 55.328125 
Q 8.5 64.0625 14.71875 69.140625 
Q 20.953125 74.21875 31.78125 74.21875 
Q 42.671875 74.21875 48.875 69.140625 
Q 55.078125 64.0625 55.078125 55.328125 
Q 55.078125 49.078125 51.53125 44.71875 
Q 48 40.375 41.703125 38.8125 
Q 48.828125 37.15625 52.796875 32.3125 
Q 56.78125 27.484375 56.78125 20.515625 
Q 56.78125 9.90625 50.3125 4.234375 
Q 43.84375 -1.421875 31.78125 -1.421875 
Q 19.734375 -1.421875 13.25 4.234375 
Q 6.78125 9.90625 6.78125 20.515625 
Q 6.78125 27.484375 10.78125 32.3125 
Q 14.796875 37.15625 21.921875 38.8125 
z
M 18.3125 54.390625 
Q 18.3125 48.734375 21.84375 45.5625 
Q 25.390625 42.390625 31.78125 42.390625 
Q 38.140625 42.390625 41.71875 45.5625 
Q 45.3125 48.734375 45.3125 54.390625 
Q 45.3125 60.0625 41.71875 63.234375 
Q 38.140625 66.40625 31.78125 66.40625 
Q 25.390625 66.40625 21.84375 63.234375 
Q 18.3125 60.0625 18.3125 54.390625 
z
" id="DejaVuSans-56"/>
      </defs>
      <g transform="translate(38.29875 28.475625)scale(0.28 -0.28)">
       <use xlink:href="#DejaVuSans-48"/>
       <use x="63.623047" xlink:href="#DejaVuSans-46"/>
       <use x="95.410156" xlink:href="#DejaVuSans-56"/>
      </g>
     </g>
    </g>
    <g id="text_12">
     <!-- F1 score -->
     <defs>
      <path d="M 9.8125 72.90625 
L 51.703125 72.90625 
L 51.703125 64.59375 
L 19.671875 64.59375 
L 19.671875 43.109375 
L 48.578125 43.109375 
L 48.578125 34.8125 
L 19.671875 34.8125 
L 19.671875 0 
L 9.8125 0 
z
" id="DejaVuSans-70"/>
      <path d="M 44.28125 53.078125 
L 44.28125 44.578125 
Q 40.484375 46.53125 36.375 47.5 
Q 32.28125 48.484375 27.875 48.484375 
Q 21.1875 48.484375 17.84375 46.4375 
Q 14.5 44.390625 14.5 40.28125 
Q 14.5 37.15625 16.890625 35.375 
Q 19.28125 33.59375 26.515625 31.984375 
L 29.59375 31.296875 
Q 39.15625 29.25 43.1875 25.515625 
Q 47.21875 21.78125 47.21875 15.09375 
Q 47.21875 7.46875 41.1875 3.015625 
Q 35.15625 -1.421875 24.609375 -1.421875 
Q 20.21875 -1.421875 15.453125 -0.5625 
Q 10.6875 0.296875 5.421875 2 
L 5.421875 11.28125 
Q 10.40625 8.6875 15.234375 7.390625 
Q 20.0625 6.109375 24.8125 6.109375 
Q 31.15625 6.109375 34.5625 8.28125 
Q 37.984375 10.453125 37.984375 14.40625 
Q 37.984375 18.0625 35.515625 20.015625 
Q 33.0625 21.96875 24.703125 23.78125 
L 21.578125 24.515625 
Q 13.234375 26.265625 9.515625 29.90625 
Q 5.8125 33.546875 5.8125 39.890625 
Q 5.8125 47.609375 11.28125 51.796875 
Q 16.75 56 26.8125 56 
Q 31.78125 56 36.171875 55.265625 
Q 40.578125 54.546875 44.28125 53.078125 
z
" id="DejaVuSans-115"/>
      <path d="M 48.78125 52.59375 
L 48.78125 44.1875 
Q 44.96875 46.296875 41.140625 47.34375 
Q 37.3125 48.390625 33.40625 48.390625 
Q 24.65625 48.390625 19.8125 42.84375 
Q 14.984375 37.3125 14.984375 27.296875 
Q 14.984375 17.28125 19.8125 11.734375 
Q 24.65625 6.203125 33.40625 6.203125 
Q 37.3125 6.203125 41.140625 7.25 
Q 44.96875 8.296875 48.78125 10.40625 
L 48.78125 2.09375 
Q 45.015625 0.34375 40.984375 -0.53125 
Q 36.96875 -1.421875 32.421875 -1.421875 
Q 20.0625 -1.421875 12.78125 6.34375 
Q 5.515625 14.109375 5.515625 27.296875 
Q 5.515625 40.671875 12.859375 48.328125 
Q 20.21875 56 33.015625 56 
Q 37.15625 56 41.109375 55.140625 
Q 45.0625 54.296875 48.78125 52.59375 
z
" id="DejaVuSans-99"/>
      <path d="M 41.109375 46.296875 
Q 39.59375 47.171875 37.8125 47.578125 
Q 36.03125 48 33.890625 48 
Q 26.265625 48 22.1875 43.046875 
Q 18.109375 38.09375 18.109375 28.8125 
L 18.109375 0 
L 9.078125 0 
L 9.078125 54.6875 
L 18.109375 54.6875 
L 18.109375 46.1875 
Q 20.953125 51.171875 25.484375 53.578125 
Q 30.03125 56 36.53125 56 
Q 37.453125 56 38.578125 55.875 
Q 39.703125 55.765625 41.0625 55.515625 
z
" id="DejaVuSans-114"/>
     </defs>
     <g transform="translate(28.475625 213.069375)rotate(-90)scale(0.28 -0.28)">
      <use xlink:href="#DejaVuSans-70"/>
      <use x="57.519531" xlink:href="#DejaVuSans-49"/>
      <use x="121.142578" xlink:href="#DejaVuSans-32"/>
      <use x="152.929688" xlink:href="#DejaVuSans-115"/>
      <use x="205.029297" xlink:href="#DejaVuSans-99"/>
      <use x="260.009766" xlink:href="#DejaVuSans-111"/>
      <use x="321.191406" xlink:href="#DejaVuSans-114"/>
      <use x="362.273438" xlink:href="#DejaVuSans-101"/>
     </g>
    </g>
   </g>
   <g id="line2d_11">
    <path clip-path="url(#p133faf21f0)" d="M 106.054773 229.351346 
L 109.736591 228.724366 
L 113.418409 227.08067 
L 117.100227 226.863907 
L 120.782045 226.42851 
L 124.463864 224.256369 
L 128.145682 223.491795 
L 131.8275 221.934008 
L 135.509318 221.561746 
L 139.191136 220.247639 
L 142.872955 219.572637 
L 146.554773 218.040397 
L 150.236591 216.735991 
L 153.918409 216.025312 
L 157.600227 214.618704 
L 161.282045 214.628072 
L 164.963864 213.972965 
L 168.645682 212.968565 
L 172.3275 211.93714 
L 176.009318 210.336897 
L 179.691136 210.991979 
L 183.372955 210.071068 
L 187.054773 209.128334 
L 190.736591 207.17422 
L 194.418409 206.365754 
L 198.100227 205.541278 
L 201.782045 205.131467 
L 205.463864 204.264736 
L 209.145682 203.38004 
L 212.8275 202.018076 
L 216.509318 200.849813 
L 220.191136 199.406105 
L 223.872955 199.786573 
L 227.554773 198.531667 
L 231.236591 199.421711 
L 234.918409 196.79915 
L 238.600227 195.429848 
L 242.282045 195.772948 
L 245.963864 194.631733 
L 249.645682 193.757444 
L 253.3275 194.083125 
L 257.009318 196.287972 
L 260.691136 195.384587 
L 264.372955 194.463545 
L 268.054773 195.449694 
L 271.736591 195.449694 
L 275.418409 196.772813 
L 279.100227 196.462227 
L 282.782045 195.834782 
L 286.463864 199.500057 
L 290.145682 197.940581 
L 293.8275 196.978722 
L 297.509318 196.326193 
L 301.191136 195.99647 
L 304.872955 193.968137 
L 308.554773 195.743267 
L 312.236591 195.474891 
L 315.918409 195.474891 
L 319.600227 194.764228 
L 323.282045 194.042755 
L 326.963864 193.677889 
L 330.645682 193.677889 
L 334.3275 192.939736 
L 338.009318 192.190138 
L 341.691136 192.190138 
L 345.372955 190.655529 
L 349.054773 192.179645 
L 352.736591 192.179645 
L 356.418409 191.000716 
L 360.100227 191.000716 
L 363.782045 190.601375 
L 367.463864 190.198788 
L 371.145682 188.971146 
L 374.8275 188.555168 
L 378.509318 187.286348 
L 382.191136 189.711342 
L 385.872955 189.289711 
L 389.554773 191.743745 
L 393.236591 193.810889 
L 396.918409 193.399615 
L 400.600227 195.098682 
" style="fill:none;stroke:#8b0000;stroke-linecap:square;stroke-width:2;"/>
   </g>
   <g id="line2d_12">
    <path clip-path="url(#p133faf21f0)" d="M 106.054773 148.248584 
L 109.736591 147.614659 
L 113.418409 146.26505 
L 117.100227 145.608554 
L 120.782045 147.249218 
L 124.463864 143.36942 
L 128.145682 141.796808 
L 131.8275 139.06679 
L 135.509318 138.200765 
L 139.191136 135.712328 
L 142.872955 135.577002 
L 146.554773 132.989721 
L 150.236591 133.96289 
L 153.918409 133.739869 
L 157.600227 133.669113 
L 161.282045 132.489604 
L 164.963864 132.573058 
L 168.645682 132.137813 
L 172.3275 131.693833 
L 176.009318 130.434077 
L 179.691136 130.234559 
L 183.372955 128.85802 
L 187.054773 129.825095 
L 190.736591 126.991536 
L 194.418409 125.829777 
L 198.100227 125.873424 
L 201.782045 125.363087 
L 205.463864 125.404418 
L 209.145682 125.446363 
L 212.8275 127.426346 
L 216.509318 125.887338 
L 220.191136 125.305759 
L 223.872955 127.349463 
L 227.554773 127.090754 
L 231.236591 127.148682 
L 234.918409 126.612611 
L 238.600227 126.336387 
L 242.282045 129.920287 
L 245.963864 131.417438 
L 249.645682 133.26752 
L 253.3275 135.598618 
L 257.009318 140.5862 
L 260.691136 139.618332 
L 264.372955 140.118205 
L 268.054773 140.297153 
L 271.736591 140.297153 
L 275.418409 142.312591 
L 279.100227 141.985928 
L 282.782045 142.841599 
L 286.463864 144.901265 
L 290.145682 146.341894 
L 293.8275 146.911785 
L 297.509318 146.257079 
L 301.191136 145.927468 
L 304.872955 143.917533 
L 308.554773 144.826337 
L 312.236591 151.79175 
L 315.918409 151.79175 
L 319.600227 151.130618 
L 323.282045 152.100463 
L 326.963864 151.768247 
L 330.645682 151.768247 
L 334.3275 152.748249 
L 338.009318 152.080495 
L 341.691136 152.080495 
L 345.372955 150.725251 
L 349.054773 151.377267 
L 352.736591 151.377267 
L 356.418409 152.039063 
L 360.100227 152.039063 
L 363.782045 151.694203 
L 367.463864 153.054898 
L 371.145682 153.737813 
L 374.8275 155.117508 
L 378.509318 157.561086 
L 382.191136 158.964736 
L 385.872955 158.628815 
L 389.554773 160.042452 
L 393.236591 162.891699 
L 396.918409 162.562488 
L 400.600227 165.122106 
" style="fill:none;stroke:#000080;stroke-linecap:square;stroke-width:2;"/>
   </g>
   <g id="patch_3">
    <path d="M 91.3275 289.637812 
L 91.3275 17.837813 
" style="fill:none;stroke:#000000;stroke-linecap:square;stroke-linejoin:miter;stroke-width:0.8;"/>
   </g>
   <g id="patch_4">
    <path d="M 91.3275 289.637812 
L 415.3275 289.637812 
" style="fill:none;stroke:#000000;stroke-linecap:square;stroke-linejoin:miter;stroke-width:0.8;"/>
   </g>
  </g>
  <g id="axes_2">
   <g id="patch_5">
    <path d="M 431.5275 289.637812 
L 755.5275 289.637812 
L 755.5275 17.837813 
L 431.5275 17.837813 
z
" style="fill:none;"/>
   </g>
   <g id="matplotlib.axis_3">
    <g id="xtick_6">
     <g id="line2d_13">
      <g>
       <use style="stroke:#000000;stroke-width:0.8;" x="446.254773" xlink:href="#mb7572e30f4" y="289.637812"/>
      </g>
     </g>
     <g id="text_13">
      <!-- 1 -->
      <g transform="translate(437.347273 319.413437)scale(0.28 -0.28)">
       <use xlink:href="#DejaVuSans-49"/>
      </g>
     </g>
    </g>
    <g id="xtick_7">
     <g id="line2d_14">
      <g>
       <use style="stroke:#000000;stroke-width:0.8;" x="519.891136" xlink:href="#mb7572e30f4" y="289.637812"/>
      </g>
     </g>
     <g id="text_14">
      <!-- 2 -->
      <g transform="translate(510.983636 319.413437)scale(0.28 -0.28)">
       <use xlink:href="#DejaVuSans-50"/>
      </g>
     </g>
    </g>
    <g id="xtick_8">
     <g id="line2d_15">
      <g>
       <use style="stroke:#000000;stroke-width:0.8;" x="593.5275" xlink:href="#mb7572e30f4" y="289.637812"/>
      </g>
     </g>
     <g id="text_15">
      <!-- 3 -->
      <g transform="translate(584.62 319.413437)scale(0.28 -0.28)">
       <use xlink:href="#DejaVuSans-51"/>
      </g>
     </g>
    </g>
    <g id="xtick_9">
     <g id="line2d_16">
      <g>
       <use style="stroke:#000000;stroke-width:0.8;" x="667.163864" xlink:href="#mb7572e30f4" y="289.637812"/>
      </g>
     </g>
     <g id="text_16">
      <!-- 4 -->
      <g transform="translate(658.256364 319.413437)scale(0.28 -0.28)">
       <use xlink:href="#DejaVuSans-52"/>
      </g>
     </g>
    </g>
    <g id="xtick_10">
     <g id="line2d_17">
      <g>
       <use style="stroke:#000000;stroke-width:0.8;" x="740.800227" xlink:href="#mb7572e30f4" y="289.637812"/>
      </g>
     </g>
     <g id="text_17">
      <!-- 5 -->
      <g transform="translate(731.892727 319.413437)scale(0.28 -0.28)">
       <use xlink:href="#DejaVuSans-53"/>
      </g>
     </g>
    </g>
    <g id="text_18">
     <!-- -log10 p-value -->
     <g transform="translate(492.6925 350.512187)scale(0.28 -0.28)">
      <use xlink:href="#DejaVuSans-45"/>
      <use x="36.083984" xlink:href="#DejaVuSans-108"/>
      <use x="63.867188" xlink:href="#DejaVuSans-111"/>
      <use x="125.048828" xlink:href="#DejaVuSans-103"/>
      <use x="188.525391" xlink:href="#DejaVuSans-49"/>
      <use x="252.148438" xlink:href="#DejaVuSans-48"/>
      <use x="315.771484" xlink:href="#DejaVuSans-32"/>
      <use x="347.558594" xlink:href="#DejaVuSans-112"/>
      <use x="411.035156" xlink:href="#DejaVuSans-45"/>
      <use x="447.087891" xlink:href="#DejaVuSans-118"/>
      <use x="506.267578" xlink:href="#DejaVuSans-97"/>
      <use x="567.546875" xlink:href="#DejaVuSans-108"/>
      <use x="595.330078" xlink:href="#DejaVuSans-117"/>
      <use x="658.708984" xlink:href="#DejaVuSans-101"/>
     </g>
    </g>
   </g>
   <g id="matplotlib.axis_4">
    <g id="ytick_6"/>
    <g id="ytick_7"/>
    <g id="ytick_8"/>
    <g id="ytick_9"/>
    <g id="ytick_10"/>
   </g>
   <g id="line2d_18">
    <path clip-path="url(#p951bf40da4)" d="M 446.254773 123.363246 
L 449.936591 132.934035 
L 453.618409 132.192691 
L 457.300227 133.04522 
L 460.982045 132.175391 
L 464.663864 136.388876 
L 468.345682 140.443247 
L 472.0275 145.319228 
L 475.709318 146.102981 
L 479.391136 149.104858 
L 483.072955 150.899993 
L 486.754773 151.515149 
L 490.436591 157.288644 
L 494.118409 160.907597 
L 497.800227 169.726048 
L 501.482045 174.697514 
L 505.163864 177.520312 
L 508.845682 178.664194 
L 512.5275 179.54161 
L 516.209318 183.357043 
L 519.891136 187.005 
L 523.572955 190.768765 
L 527.254773 193.857227 
L 530.936591 198.552022 
L 534.618409 200.13378 
L 538.300227 201.724066 
L 541.982045 204.700312 
L 545.663864 204.236173 
L 549.345682 203.530374 
L 553.0275 205.16958 
L 556.709318 206.817868 
L 560.391136 206.587812 
L 564.072955 208.249233 
L 567.754773 208.249233 
L 571.436591 211.599997 
L 575.118409 213.289498 
L 578.800227 212.858151 
L 582.482045 217.804955 
L 586.163864 218.938391 
L 589.845682 220.70303 
L 593.5275 224.263177 
L 597.209318 224.263177 
L 600.891136 224.263177 
L 604.572955 224.072023 
L 608.254773 223.879748 
L 611.936591 223.879748 
L 615.618409 223.686342 
L 619.300227 223.686342 
L 622.982045 223.491795 
L 626.663864 228.96817 
L 630.345682 230.815424 
L 634.0275 234.543218 
L 637.709318 234.37727 
L 641.391136 236.26319 
L 645.072955 236.26319 
L 648.754773 240.069423 
L 652.436591 240.069423 
L 656.118409 241.989947 
L 659.800227 243.922216 
L 663.482045 245.86634 
L 667.163864 245.86634 
L 670.845682 245.86634 
L 674.5275 245.86634 
L 678.209318 247.822428 
L 681.891136 247.822428 
L 685.572955 247.822428 
L 689.254773 247.563509 
L 692.936591 247.563509 
L 696.618409 247.563509 
L 700.300227 247.563509 
L 703.982045 249.543092 
L 707.663864 249.543092 
L 711.345682 249.543092 
L 715.0275 249.543092 
L 718.709318 249.543092 
L 722.391136 249.543092 
L 726.072955 249.543092 
L 729.754773 251.535009 
L 733.436591 251.535009 
L 737.118409 251.535009 
L 740.800227 251.535009 
" style="fill:none;stroke:#8b0000;stroke-linecap:square;stroke-width:2;"/>
   </g>
   <g id="line2d_19">
    <path clip-path="url(#p951bf40da4)" d="M 446.254773 182.12199 
L 449.936591 187.712813 
L 453.618409 183.833314 
L 457.300227 183.991169 
L 460.982045 181.311726 
L 464.663864 182.750172 
L 468.345682 183.879058 
L 472.0275 183.210102 
L 475.709318 185.747317 
L 479.391136 189.289711 
L 483.072955 185.328602 
L 486.754773 186.957813 
L 490.436591 186.777721 
L 494.118409 188.030336 
L 497.800227 186.884154 
L 501.482045 183.786054 
L 505.163864 182.711417 
L 508.845682 181.614736 
L 512.5275 183.465937 
L 516.209318 180.627117 
L 519.891136 180.767647 
L 523.572955 177.034955 
L 527.254773 179.660934 
L 530.936591 189.711342 
L 534.618409 189.120061 
L 538.300227 188.521741 
L 541.982045 190.801449 
L 545.663864 189.588733 
L 549.345682 187.712813 
L 553.0275 191.34536 
L 556.709318 195.023888 
L 560.391136 194.421252 
L 564.072955 193.810889 
L 567.754773 193.810889 
L 571.436591 192.566384 
L 575.118409 196.373107 
L 578.800227 195.137812 
L 582.482045 206.433731 
L 586.163864 204.106344 
L 589.845682 208.289221 
L 593.5275 216.834241 
L 597.209318 216.834241 
L 600.891136 216.834241 
L 604.572955 216.310474 
L 608.254773 215.779117 
L 611.936591 215.779117 
L 615.618409 215.240002 
L 619.300227 215.240002 
L 622.982045 214.69296 
L 626.663864 218.111497 
L 630.345682 217.569631 
L 634.0275 216.460889 
L 637.709318 215.893626 
L 641.391136 215.3175 
L 645.072955 215.3175 
L 648.754773 219.53067 
L 652.436591 219.53067 
L 656.118409 218.969813 
L 659.800227 223.879748 
L 663.482045 228.86952 
L 667.163864 228.86952 
L 670.845682 228.86952 
L 674.5275 228.86952 
L 678.209318 228.371419 
L 681.891136 228.371419 
L 685.572955 228.371419 
L 689.254773 227.350313 
L 692.936591 227.350313 
L 696.618409 227.350313 
L 700.300227 227.350313 
L 703.982045 232.536972 
L 707.663864 232.536972 
L 711.345682 232.536972 
L 715.0275 232.536972 
L 718.709318 232.536972 
L 722.391136 232.536972 
L 726.072955 232.536972 
L 729.754773 237.811541 
L 733.436591 237.811541 
L 737.118409 237.811541 
L 740.800227 237.811541 
" style="fill:none;stroke:#000080;stroke-linecap:square;stroke-width:2;"/>
   </g>
   <g id="patch_6">
    <path d="M 431.5275 289.637812 
L 431.5275 17.837813 
" style="fill:none;stroke:#000000;stroke-linecap:square;stroke-linejoin:miter;stroke-width:0.8;"/>
   </g>
   <g id="patch_7">
    <path d="M 431.5275 289.637812 
L 755.5275 289.637812 
" style="fill:none;stroke:#000000;stroke-linecap:square;stroke-linejoin:miter;stroke-width:0.8;"/>
   </g>
  </g>
  <g id="axes_3">
   <g id="patch_8">
    <path d="M 771.7275 289.637812 
L 1095.7275 289.637812 
L 1095.7275 17.837813 
L 771.7275 17.837813 
z
" style="fill:none;"/>
   </g>
   <g id="matplotlib.axis_5">
    <g id="xtick_11">
     <g id="line2d_20">
      <g>
       <use style="stroke:#000000;stroke-width:0.8;" x="786.454773" xlink:href="#mb7572e30f4" y="289.637812"/>
      </g>
     </g>
     <g id="text_19">
      <!-- 1 -->
      <g transform="translate(777.547273 319.413437)scale(0.28 -0.28)">
       <use xlink:href="#DejaVuSans-49"/>
      </g>
     </g>
    </g>
    <g id="xtick_12">
     <g id="line2d_21">
      <g>
       <use style="stroke:#000000;stroke-width:0.8;" x="860.091136" xlink:href="#mb7572e30f4" y="289.637812"/>
      </g>
     </g>
     <g id="text_20">
      <!-- 2 -->
      <g transform="translate(851.183636 319.413437)scale(0.28 -0.28)">
       <use xlink:href="#DejaVuSans-50"/>
      </g>
     </g>
    </g>
    <g id="xtick_13">
     <g id="line2d_22">
      <g>
       <use style="stroke:#000000;stroke-width:0.8;" x="933.7275" xlink:href="#mb7572e30f4" y="289.637812"/>
      </g>
     </g>
     <g id="text_21">
      <!-- 3 -->
      <g transform="translate(924.82 319.413437)scale(0.28 -0.28)">
       <use xlink:href="#DejaVuSans-51"/>
      </g>
     </g>
    </g>
    <g id="xtick_14">
     <g id="line2d_23">
      <g>
       <use style="stroke:#000000;stroke-width:0.8;" x="1007.363864" xlink:href="#mb7572e30f4" y="289.637812"/>
      </g>
     </g>
     <g id="text_22">
      <!-- 4 -->
      <g transform="translate(998.456364 319.413437)scale(0.28 -0.28)">
       <use xlink:href="#DejaVuSans-52"/>
      </g>
     </g>
    </g>
    <g id="xtick_15">
     <g id="line2d_24">
      <g>
       <use style="stroke:#000000;stroke-width:0.8;" x="1081.000227" xlink:href="#mb7572e30f4" y="289.637812"/>
      </g>
     </g>
     <g id="text_23">
      <!-- 5 -->
      <g transform="translate(1072.092727 319.413437)scale(0.28 -0.28)">
       <use xlink:href="#DejaVuSans-53"/>
      </g>
     </g>
    </g>
    <g id="text_24">
     <!-- -log10 p-value -->
     <g transform="translate(832.8925 350.512187)scale(0.28 -0.28)">
      <use xlink:href="#DejaVuSans-45"/>
      <use x="36.083984" xlink:href="#DejaVuSans-108"/>
      <use x="63.867188" xlink:href="#DejaVuSans-111"/>
      <use x="125.048828" xlink:href="#DejaVuSans-103"/>
      <use x="188.525391" xlink:href="#DejaVuSans-49"/>
      <use x="252.148438" xlink:href="#DejaVuSans-48"/>
      <use x="315.771484" xlink:href="#DejaVuSans-32"/>
      <use x="347.558594" xlink:href="#DejaVuSans-112"/>
      <use x="411.035156" xlink:href="#DejaVuSans-45"/>
      <use x="447.087891" xlink:href="#DejaVuSans-118"/>
      <use x="506.267578" xlink:href="#DejaVuSans-97"/>
      <use x="567.546875" xlink:href="#DejaVuSans-108"/>
      <use x="595.330078" xlink:href="#DejaVuSans-117"/>
      <use x="658.708984" xlink:href="#DejaVuSans-101"/>
     </g>
    </g>
   </g>
   <g id="matplotlib.axis_6">
    <g id="ytick_11"/>
    <g id="ytick_12"/>
    <g id="ytick_13"/>
    <g id="ytick_14"/>
    <g id="ytick_15"/>
   </g>
   <g id="line2d_25">
    <path clip-path="url(#pdda1efc7a0)" d="M 786.454773 12.11107 
L 790.136591 12.11107 
L 793.818409 14.075109 
L 797.500227 17.613925 
L 801.182045 20.316917 
L 804.863864 21.681906 
L 808.545682 25.83193 
L 812.2275 29.625057 
L 815.909318 31.056754 
L 819.591136 33.949668 
L 823.272955 35.411088 
L 826.954773 37.622215 
L 830.636591 41.358966 
L 834.318409 44.729685 
L 838.000227 46.270791 
L 841.682045 47.822866 
L 845.363864 48.603053 
L 849.045682 50.960393 
L 852.7275 55.751943 
L 856.409318 58.186993 
L 860.091136 59.404296 
L 863.772955 62.719916 
L 867.454773 66.084839 
L 871.136591 68.641551 
L 874.818409 70.362015 
L 878.500227 72.967058 
L 882.182045 77.374955 
L 885.863864 79.161713 
L 889.545682 82.377195 
L 893.2275 85.128104 
L 896.909318 86.052209 
L 900.591136 86.052209 
L 904.272955 87.91125 
L 907.954773 89.784871 
L 911.636591 92.233662 
L 915.318409 94.146741 
L 919.000227 95.108985 
L 922.682045 99.978174 
L 926.363864 103.567833 
L 930.045682 104.570739 
L 933.7275 105.577731 
L 937.409318 106.588833 
L 941.091136 107.60407 
L 944.772955 110.67485 
L 948.454773 110.67485 
L 952.136591 110.67485 
L 955.818409 114.828684 
L 959.500227 117.989587 
L 963.182045 121.190334 
L 966.863864 123.346673 
L 970.545682 126.61552 
L 974.2275 127.714408 
L 977.909318 128.817983 
L 981.591136 132.157126 
L 985.272955 134.407209 
L 988.954773 135.53954 
L 992.636591 140.118205 
L 996.318409 142.437594 
L 1000.000227 142.437594 
L 1003.682045 144.777373 
L 1007.363864 147.137813 
L 1011.045682 148.325866 
L 1014.7275 148.325866 
L 1018.409318 148.325866 
L 1022.091136 149.519187 
L 1025.772955 149.519187 
L 1029.454773 154.345866 
L 1033.136591 155.566064 
L 1036.818409 158.022948 
L 1040.500227 160.502066 
L 1044.182045 160.502066 
L 1047.863864 161.750057 
L 1051.545682 163.003722 
L 1055.2275 163.003722 
L 1058.909318 163.003722 
L 1062.591136 163.003722 
L 1066.272955 168.075886 
L 1069.954773 169.358502 
L 1073.636591 169.358502 
L 1077.318409 170.647029 
L 1081.000227 171.941508 
" style="fill:none;stroke:#8b0000;stroke-linecap:square;stroke-width:2;"/>
   </g>
   <g id="line2d_26">
    <path clip-path="url(#pdda1efc7a0)" d="M 786.454773 138.430395 
L 790.136591 138.430395 
L 793.818409 139.056095 
L 797.500227 136.07849 
L 801.182045 134.323527 
L 804.863864 135.383502 
L 808.545682 134.664128 
L 812.2275 133.45423 
L 815.909318 132.516191 
L 819.591136 134.736597 
L 823.272955 133.789189 
L 826.954773 136.54059 
L 830.636591 136.271041 
L 834.318409 135.50203 
L 838.000227 134.510803 
L 841.682045 133.506745 
L 845.363864 132.999825 
L 849.045682 133.686993 
L 852.7275 132.83012 
L 856.409318 131.240853 
L 860.091136 131.938154 
L 863.772955 134.457882 
L 867.454773 132.279918 
L 871.136591 130.605898 
L 874.818409 134.323527 
L 878.500227 132.641423 
L 882.182045 129.75546 
L 885.863864 128.571146 
L 889.545682 128.096303 
L 893.2275 128.840103 
L 896.909318 130.827468 
L 900.591136 130.827468 
L 904.272955 132.224685 
L 907.954773 130.99968 
L 911.636591 128.491567 
L 915.318409 127.207534 
L 919.000227 126.557813 
L 922.682045 126.003119 
L 926.363864 122.594063 
L 930.045682 121.895135 
L 933.7275 121.190334 
L 937.409318 123.346673 
L 941.091136 125.521287 
L 944.772955 129.240817 
L 948.454773 129.240817 
L 952.136591 129.240817 
L 955.818409 126.439123 
L 959.500227 124.272768 
L 963.182045 122.048126 
L 966.863864 123.606138 
L 970.545682 121.321299 
L 974.2275 120.545647 
L 977.909318 122.908646 
L 981.591136 126.940629 
L 985.272955 128.618855 
L 988.954773 127.852098 
L 992.636591 131.307715 
L 996.318409 133.086342 
L 1000.000227 133.086342 
L 1003.682045 134.900189 
L 1007.363864 140.147813 
L 1011.045682 139.396606 
L 1014.7275 139.396606 
L 1018.409318 139.396606 
L 1022.091136 138.637813 
L 1025.772955 138.637813 
L 1029.454773 142.529565 
L 1033.136591 141.767346 
L 1036.818409 140.218964 
L 1040.500227 138.637813 
L 1044.182045 138.637813 
L 1047.863864 137.834621 
L 1051.545682 137.022839 
L 1055.2275 137.022839 
L 1058.909318 137.022839 
L 1062.591136 137.022839 
L 1066.272955 144.826337 
L 1069.954773 144.03067 
L 1073.636591 144.03067 
L 1077.318409 143.22621 
L 1081.000227 146.187813 
" style="fill:none;stroke:#000080;stroke-linecap:square;stroke-width:2;"/>
   </g>
   <g id="patch_9">
    <path d="M 771.7275 289.637812 
L 771.7275 17.837813 
" style="fill:none;stroke:#000000;stroke-linecap:square;stroke-linejoin:miter;stroke-width:0.8;"/>
   </g>
   <g id="patch_10">
    <path d="M 771.7275 289.637812 
L 1095.7275 289.637812 
" style="fill:none;stroke:#000000;stroke-linecap:square;stroke-linejoin:miter;stroke-width:0.8;"/>
   </g>
  </g>
 </g>
 <defs>
  <clipPath id="p133faf21f0">
   <rect height="271.8" width="324" x="91.3275" y="17.837812"/>
  </clipPath>
  <clipPath id="p951bf40da4">
   <rect height="271.8" width="324" x="431.5275" y="17.837812"/>
  </clipPath>
  <clipPath id="pdda1efc7a0">
   <rect height="271.8" width="324" x="771.7275" y="17.837812"/>
  </clipPath>
 </defs>
</svg>
