<?xml version="1.0" encoding="utf-8" standalone="no"?>
<!DOCTYPE svg PUBLIC "-//W3C//DTD SVG 1.1//EN"
  "http://www.w3.org/Graphics/SVG/1.1/DTD/svg11.dtd">
<!-- Created with matplotlib (https://matplotlib.org/) -->
<svg height="325.813125pt" version="1.1" viewBox="0 0 446.131563 325.813125" width="446.131563pt" xmlns="http://www.w3.org/2000/svg" xmlns:xlink="http://www.w3.org/1999/xlink">
 <defs>
  <style type="text/css">
*{stroke-linecap:butt;stroke-linejoin:round;}
  </style>
 </defs>
 <g id="figure_1">
  <g id="patch_1">
   <path d="M 0 325.813125 
L 446.131563 325.813125 
L 446.131563 0 
L 0 0 
z
" style="fill:#ffffff;"/>
  </g>
  <g id="axes_1">
   <g id="patch_2">
    <path d="M 64.61375 251.915625 
L 399.41375 251.915625 
L 399.41375 34.475625 
L 64.61375 34.475625 
z
" style="fill:#ffffff;"/>
   </g>
   <g id="matplotlib.axis_1">
    <g id="xtick_1">
     <g id="line2d_1">
      <defs>
       <path d="M 0 0 
L 0 5 
" id="m22905273f2" style="stroke:#000000;stroke-width:0.8;"/>
      </defs>
      <g>
       <use style="stroke:#000000;stroke-width:0.8;" x="79.831932" xlink:href="#m22905273f2" y="251.915625"/>
      </g>
     </g>
     <g id="text_1">
      <!-- 1 -->
      <defs>
       <path d="M 12.40625 8.296875 
L 28.515625 8.296875 
L 28.515625 63.921875 
L 10.984375 60.40625 
L 10.984375 69.390625 
L 28.421875 72.90625 
L 38.28125 72.90625 
L 38.28125 8.296875 
L 54.390625 8.296875 
L 54.390625 0 
L 12.40625 0 
z
" id="DejaVuSans-49"/>
      </defs>
      <g transform="translate(70.924432 281.69125)scale(0.28 -0.28)">
       <use xlink:href="#DejaVuSans-49"/>
      </g>
     </g>
    </g>
    <g id="xtick_2">
     <g id="line2d_2">
      <g>
       <use style="stroke:#000000;stroke-width:0.8;" x="155.922841" xlink:href="#m22905273f2" y="251.915625"/>
      </g>
     </g>
     <g id="text_2">
      <!-- 2 -->
      <defs>
       <path d="M 19.1875 8.296875 
L 53.609375 8.296875 
L 53.609375 0 
L 7.328125 0 
L 7.328125 8.296875 
Q 12.9375 14.109375 22.625 23.890625 
Q 32.328125 33.6875 34.8125 36.53125 
Q 39.546875 41.84375 41.421875 45.53125 
Q 43.3125 49.21875 43.3125 52.78125 
Q 43.3125 58.59375 39.234375 62.25 
Q 35.15625 65.921875 28.609375 65.921875 
Q 23.96875 65.921875 18.8125 64.3125 
Q 13.671875 62.703125 7.8125 59.421875 
L 7.8125 69.390625 
Q 13.765625 71.78125 18.9375 73 
Q 24.125 74.21875 28.421875 74.21875 
Q 39.75 74.21875 46.484375 68.546875 
Q 53.21875 62.890625 53.21875 53.421875 
Q 53.21875 48.921875 51.53125 44.890625 
Q 49.859375 40.875 45.40625 35.40625 
Q 44.1875 33.984375 37.640625 27.21875 
Q 31.109375 20.453125 19.1875 8.296875 
z
" id="DejaVuSans-50"/>
      </defs>
      <g transform="translate(147.015341 281.69125)scale(0.28 -0.28)">
       <use xlink:href="#DejaVuSans-50"/>
      </g>
     </g>
    </g>
    <g id="xtick_3">
     <g id="line2d_3">
      <g>
       <use style="stroke:#000000;stroke-width:0.8;" x="232.01375" xlink:href="#m22905273f2" y="251.915625"/>
      </g>
     </g>
     <g id="text_3">
      <!-- 3 -->
      <defs>
       <path d="M 40.578125 39.3125 
Q 47.65625 37.796875 51.625 33 
Q 55.609375 28.21875 55.609375 21.1875 
Q 55.609375 10.40625 48.1875 4.484375 
Q 40.765625 -1.421875 27.09375 -1.421875 
Q 22.515625 -1.421875 17.65625 -0.515625 
Q 12.796875 0.390625 7.625 2.203125 
L 7.625 11.71875 
Q 11.71875 9.328125 16.59375 8.109375 
Q 21.484375 6.890625 26.8125 6.890625 
Q 36.078125 6.890625 40.9375 10.546875 
Q 45.796875 14.203125 45.796875 21.1875 
Q 45.796875 27.640625 41.28125 31.265625 
Q 36.765625 34.90625 28.71875 34.90625 
L 20.21875 34.90625 
L 20.21875 43.015625 
L 29.109375 43.015625 
Q 36.375 43.015625 40.234375 45.921875 
Q 44.09375 48.828125 44.09375 54.296875 
Q 44.09375 59.90625 40.109375 62.90625 
Q 36.140625 65.921875 28.71875 65.921875 
Q 24.65625 65.921875 20.015625 65.03125 
Q 15.375 64.15625 9.8125 62.3125 
L 9.8125 71.09375 
Q 15.4375 72.65625 20.34375 73.4375 
Q 25.25 74.21875 29.59375 74.21875 
Q 40.828125 74.21875 47.359375 69.109375 
Q 53.90625 64.015625 53.90625 55.328125 
Q 53.90625 49.265625 50.4375 45.09375 
Q 46.96875 40.921875 40.578125 39.3125 
z
" id="DejaVuSans-51"/>
      </defs>
      <g transform="translate(223.10625 281.69125)scale(0.28 -0.28)">
       <use xlink:href="#DejaVuSans-51"/>
      </g>
     </g>
    </g>
    <g id="xtick_4">
     <g id="line2d_4">
      <g>
       <use style="stroke:#000000;stroke-width:0.8;" x="308.104659" xlink:href="#m22905273f2" y="251.915625"/>
      </g>
     </g>
     <g id="text_4">
      <!-- 4 -->
      <defs>
       <path d="M 37.796875 64.3125 
L 12.890625 25.390625 
L 37.796875 25.390625 
z
M 35.203125 72.90625 
L 47.609375 72.90625 
L 47.609375 25.390625 
L 58.015625 25.390625 
L 58.015625 17.1875 
L 47.609375 17.1875 
L 47.609375 0 
L 37.796875 0 
L 37.796875 17.1875 
L 4.890625 17.1875 
L 4.890625 26.703125 
z
" id="DejaVuSans-52"/>
      </defs>
      <g transform="translate(299.197159 281.69125)scale(0.28 -0.28)">
       <use xlink:href="#DejaVuSans-52"/>
      </g>
     </g>
    </g>
    <g id="xtick_5">
     <g id="line2d_5">
      <g>
       <use style="stroke:#000000;stroke-width:0.8;" x="384.195568" xlink:href="#m22905273f2" y="251.915625"/>
      </g>
     </g>
     <g id="text_5">
      <!-- 5 -->
      <defs>
       <path d="M 10.796875 72.90625 
L 49.515625 72.90625 
L 49.515625 64.59375 
L 19.828125 64.59375 
L 19.828125 46.734375 
Q 21.96875 47.46875 24.109375 47.828125 
Q 26.265625 48.1875 28.421875 48.1875 
Q 40.625 48.1875 47.75 41.5 
Q 54.890625 34.8125 54.890625 23.390625 
Q 54.890625 11.625 47.5625 5.09375 
Q 40.234375 -1.421875 26.90625 -1.421875 
Q 22.3125 -1.421875 17.546875 -0.640625 
Q 12.796875 0.140625 7.71875 1.703125 
L 7.71875 11.625 
Q 12.109375 9.234375 16.796875 8.0625 
Q 21.484375 6.890625 26.703125 6.890625 
Q 35.15625 6.890625 40.078125 11.328125 
Q 45.015625 15.765625 45.015625 23.390625 
Q 45.015625 31 40.078125 35.4375 
Q 35.15625 39.890625 26.703125 39.890625 
Q 22.75 39.890625 18.8125 39.015625 
Q 14.890625 38.140625 10.796875 36.28125 
z
" id="DejaVuSans-53"/>
      </defs>
      <g transform="translate(375.288068 281.69125)scale(0.28 -0.28)">
       <use xlink:href="#DejaVuSans-53"/>
      </g>
     </g>
    </g>
    <g id="text_6">
     <!-- -log10 p-value -->
     <defs>
      <path d="M 4.890625 31.390625 
L 31.203125 31.390625 
L 31.203125 23.390625 
L 4.890625 23.390625 
z
" id="DejaVuSans-45"/>
      <path d="M 9.421875 75.984375 
L 18.40625 75.984375 
L 18.40625 0 
L 9.421875 0 
z
" id="DejaVuSans-108"/>
      <path d="M 30.609375 48.390625 
Q 23.390625 48.390625 19.1875 42.75 
Q 14.984375 37.109375 14.984375 27.296875 
Q 14.984375 17.484375 19.15625 11.84375 
Q 23.34375 6.203125 30.609375 6.203125 
Q 37.796875 6.203125 41.984375 11.859375 
Q 46.1875 17.53125 46.1875 27.296875 
Q 46.1875 37.015625 41.984375 42.703125 
Q 37.796875 48.390625 30.609375 48.390625 
z
M 30.609375 56 
Q 42.328125 56 49.015625 48.375 
Q 55.71875 40.765625 55.71875 27.296875 
Q 55.71875 13.875 49.015625 6.21875 
Q 42.328125 -1.421875 30.609375 -1.421875 
Q 18.84375 -1.421875 12.171875 6.21875 
Q 5.515625 13.875 5.515625 27.296875 
Q 5.515625 40.765625 12.171875 48.375 
Q 18.84375 56 30.609375 56 
z
" id="DejaVuSans-111"/>
      <path d="M 45.40625 27.984375 
Q 45.40625 37.75 41.375 43.109375 
Q 37.359375 48.484375 30.078125 48.484375 
Q 22.859375 48.484375 18.828125 43.109375 
Q 14.796875 37.75 14.796875 27.984375 
Q 14.796875 18.265625 18.828125 12.890625 
Q 22.859375 7.515625 30.078125 7.515625 
Q 37.359375 7.515625 41.375 12.890625 
Q 45.40625 18.265625 45.40625 27.984375 
z
M 54.390625 6.78125 
Q 54.390625 -7.171875 48.1875 -13.984375 
Q 42 -20.796875 29.203125 -20.796875 
Q 24.46875 -20.796875 20.265625 -20.09375 
Q 16.0625 -19.390625 12.109375 -17.921875 
L 12.109375 -9.1875 
Q 16.0625 -11.328125 19.921875 -12.34375 
Q 23.78125 -13.375 27.78125 -13.375 
Q 36.625 -13.375 41.015625 -8.765625 
Q 45.40625 -4.15625 45.40625 5.171875 
L 45.40625 9.625 
Q 42.625 4.78125 38.28125 2.390625 
Q 33.9375 0 27.875 0 
Q 17.828125 0 11.671875 7.65625 
Q 5.515625 15.328125 5.515625 27.984375 
Q 5.515625 40.671875 11.671875 48.328125 
Q 17.828125 56 27.875 56 
Q 33.9375 56 38.28125 53.609375 
Q 42.625 51.21875 45.40625 46.390625 
L 45.40625 54.6875 
L 54.390625 54.6875 
z
" id="DejaVuSans-103"/>
      <path d="M 31.78125 66.40625 
Q 24.171875 66.40625 20.328125 58.90625 
Q 16.5 51.421875 16.5 36.375 
Q 16.5 21.390625 20.328125 13.890625 
Q 24.171875 6.390625 31.78125 6.390625 
Q 39.453125 6.390625 43.28125 13.890625 
Q 47.125 21.390625 47.125 36.375 
Q 47.125 51.421875 43.28125 58.90625 
Q 39.453125 66.40625 31.78125 66.40625 
z
M 31.78125 74.21875 
Q 44.046875 74.21875 50.515625 64.515625 
Q 56.984375 54.828125 56.984375 36.375 
Q 56.984375 17.96875 50.515625 8.265625 
Q 44.046875 -1.421875 31.78125 -1.421875 
Q 19.53125 -1.421875 13.0625 8.265625 
Q 6.59375 17.96875 6.59375 36.375 
Q 6.59375 54.828125 13.0625 64.515625 
Q 19.53125 74.21875 31.78125 74.21875 
z
" id="DejaVuSans-48"/>
      <path id="DejaVuSans-32"/>
      <path d="M 18.109375 8.203125 
L 18.109375 -20.796875 
L 9.078125 -20.796875 
L 9.078125 54.6875 
L 18.109375 54.6875 
L 18.109375 46.390625 
Q 20.953125 51.265625 25.265625 53.625 
Q 29.59375 56 35.59375 56 
Q 45.5625 56 51.78125 48.09375 
Q 58.015625 40.1875 58.015625 27.296875 
Q 58.015625 14.40625 51.78125 6.484375 
Q 45.5625 -1.421875 35.59375 -1.421875 
Q 29.59375 -1.421875 25.265625 0.953125 
Q 20.953125 3.328125 18.109375 8.203125 
z
M 48.6875 27.296875 
Q 48.6875 37.203125 44.609375 42.84375 
Q 40.53125 48.484375 33.40625 48.484375 
Q 26.265625 48.484375 22.1875 42.84375 
Q 18.109375 37.203125 18.109375 27.296875 
Q 18.109375 17.390625 22.1875 11.75 
Q 26.265625 6.109375 33.40625 6.109375 
Q 40.53125 6.109375 44.609375 11.75 
Q 48.6875 17.390625 48.6875 27.296875 
z
" id="DejaVuSans-112"/>
      <path d="M 2.984375 54.6875 
L 12.5 54.6875 
L 29.59375 8.796875 
L 46.6875 54.6875 
L 56.203125 54.6875 
L 35.6875 0 
L 23.484375 0 
z
" id="DejaVuSans-118"/>
      <path d="M 34.28125 27.484375 
Q 23.390625 27.484375 19.1875 25 
Q 14.984375 22.515625 14.984375 16.5 
Q 14.984375 11.71875 18.140625 8.90625 
Q 21.296875 6.109375 26.703125 6.109375 
Q 34.1875 6.109375 38.703125 11.40625 
Q 43.21875 16.703125 43.21875 25.484375 
L 43.21875 27.484375 
z
M 52.203125 31.203125 
L 52.203125 0 
L 43.21875 0 
L 43.21875 8.296875 
Q 40.140625 3.328125 35.546875 0.953125 
Q 30.953125 -1.421875 24.3125 -1.421875 
Q 15.921875 -1.421875 10.953125 3.296875 
Q 6 8.015625 6 15.921875 
Q 6 25.140625 12.171875 29.828125 
Q 18.359375 34.515625 30.609375 34.515625 
L 43.21875 34.515625 
L 43.21875 35.40625 
Q 43.21875 41.609375 39.140625 45 
Q 35.0625 48.390625 27.6875 48.390625 
Q 23 48.390625 18.546875 47.265625 
Q 14.109375 46.140625 10.015625 43.890625 
L 10.015625 52.203125 
Q 14.9375 54.109375 19.578125 55.046875 
Q 24.21875 56 28.609375 56 
Q 40.484375 56 46.34375 49.84375 
Q 52.203125 43.703125 52.203125 31.203125 
z
" id="DejaVuSans-97"/>
      <path d="M 8.5 21.578125 
L 8.5 54.6875 
L 17.484375 54.6875 
L 17.484375 21.921875 
Q 17.484375 14.15625 20.5 10.265625 
Q 23.53125 6.390625 29.59375 6.390625 
Q 36.859375 6.390625 41.078125 11.03125 
Q 45.3125 15.671875 45.3125 23.6875 
L 45.3125 54.6875 
L 54.296875 54.6875 
L 54.296875 0 
L 45.3125 0 
L 45.3125 8.40625 
Q 42.046875 3.421875 37.71875 1 
Q 33.40625 -1.421875 27.6875 -1.421875 
Q 18.265625 -1.421875 13.375 4.4375 
Q 8.5 10.296875 8.5 21.578125 
z
M 31.109375 56 
z
" id="DejaVuSans-117"/>
      <path d="M 56.203125 29.59375 
L 56.203125 25.203125 
L 14.890625 25.203125 
Q 15.484375 15.921875 20.484375 11.0625 
Q 25.484375 6.203125 34.421875 6.203125 
Q 39.59375 6.203125 44.453125 7.46875 
Q 49.3125 8.734375 54.109375 11.28125 
L 54.109375 2.78125 
Q 49.265625 0.734375 44.1875 -0.34375 
Q 39.109375 -1.421875 33.890625 -1.421875 
Q 20.796875 -1.421875 13.15625 6.1875 
Q 5.515625 13.8125 5.515625 26.8125 
Q 5.515625 40.234375 12.765625 48.109375 
Q 20.015625 56 32.328125 56 
Q 43.359375 56 49.78125 48.890625 
Q 56.203125 41.796875 56.203125 29.59375 
z
M 47.21875 32.234375 
Q 47.125 39.59375 43.09375 43.984375 
Q 39.0625 48.390625 32.421875 48.390625 
Q 24.90625 48.390625 20.390625 44.140625 
Q 15.875 39.890625 15.1875 32.171875 
z
" id="DejaVuSans-101"/>
     </defs>
     <g transform="translate(131.17875 312.79)scale(0.28 -0.28)">
      <use xlink:href="#DejaVuSans-45"/>
      <use x="36.083984" xlink:href="#DejaVuSans-108"/>
      <use x="63.867188" xlink:href="#DejaVuSans-111"/>
      <use x="125.048828" xlink:href="#DejaVuSans-103"/>
      <use x="188.525391" xlink:href="#DejaVuSans-49"/>
      <use x="252.148438" xlink:href="#DejaVuSans-48"/>
      <use x="315.771484" xlink:href="#DejaVuSans-32"/>
      <use x="347.558594" xlink:href="#DejaVuSans-112"/>
      <use x="411.035156" xlink:href="#DejaVuSans-45"/>
      <use x="447.087891" xlink:href="#DejaVuSans-118"/>
      <use x="506.267578" xlink:href="#DejaVuSans-97"/>
      <use x="567.546875" xlink:href="#DejaVuSans-108"/>
      <use x="595.330078" xlink:href="#DejaVuSans-117"/>
      <use x="658.708984" xlink:href="#DejaVuSans-101"/>
     </g>
    </g>
   </g>
   <g id="matplotlib.axis_2">
    <g id="ytick_1">
     <g id="line2d_6">
      <defs>
       <path d="M 0 0 
L -5 0 
" id="m664b2c0db7" style="stroke:#000000;stroke-width:0.8;"/>
      </defs>
      <g>
       <use style="stroke:#000000;stroke-width:0.8;" x="64.61375" xlink:href="#m664b2c0db7" y="157.642827"/>
      </g>
     </g>
     <g id="text_7">
      <!-- 2 -->
      <g transform="translate(38.29875 168.28064)scale(0.28 -0.28)">
       <use xlink:href="#DejaVuSans-50"/>
      </g>
     </g>
    </g>
    <g id="ytick_2">
     <g id="line2d_7">
      <g>
       <use style="stroke:#000000;stroke-width:0.8;" x="64.61375" xlink:href="#m664b2c0db7" y="61.899317"/>
      </g>
     </g>
     <g id="text_8">
      <!-- 3 -->
      <g transform="translate(38.29875 72.53713)scale(0.28 -0.28)">
       <use xlink:href="#DejaVuSans-51"/>
      </g>
     </g>
    </g>
    <g id="text_9">
     <!-- LR+ -->
     <defs>
      <path d="M 9.8125 72.90625 
L 19.671875 72.90625 
L 19.671875 8.296875 
L 55.171875 8.296875 
L 55.171875 0 
L 9.8125 0 
z
" id="DejaVuSans-76"/>
      <path d="M 44.390625 34.1875 
Q 47.5625 33.109375 50.5625 29.59375 
Q 53.5625 26.078125 56.59375 19.921875 
L 66.609375 0 
L 56 0 
L 46.6875 18.703125 
Q 43.0625 26.03125 39.671875 28.421875 
Q 36.28125 30.8125 30.421875 30.8125 
L 19.671875 30.8125 
L 19.671875 0 
L 9.8125 0 
L 9.8125 72.90625 
L 32.078125 72.90625 
Q 44.578125 72.90625 50.734375 67.671875 
Q 56.890625 62.453125 56.890625 51.90625 
Q 56.890625 45.015625 53.6875 40.46875 
Q 50.484375 35.9375 44.390625 34.1875 
z
M 19.671875 64.796875 
L 19.671875 38.921875 
L 32.078125 38.921875 
Q 39.203125 38.921875 42.84375 42.21875 
Q 46.484375 45.515625 46.484375 51.90625 
Q 46.484375 58.296875 42.84375 61.546875 
Q 39.203125 64.796875 32.078125 64.796875 
z
" id="DejaVuSans-82"/>
      <path d="M 46 62.703125 
L 46 35.5 
L 73.1875 35.5 
L 73.1875 27.203125 
L 46 27.203125 
L 46 0 
L 37.796875 0 
L 37.796875 27.203125 
L 10.59375 27.203125 
L 10.59375 35.5 
L 37.796875 35.5 
L 37.796875 62.703125 
z
" id="DejaVuSans-43"/>
     </defs>
     <g transform="translate(28.475625 172.455625)rotate(-90)scale(0.28 -0.28)">
      <use xlink:href="#DejaVuSans-76"/>
      <use x="55.712891" xlink:href="#DejaVuSans-82"/>
      <use x="125.195312" xlink:href="#DejaVuSans-43"/>
     </g>
    </g>
   </g>
   <g id="line2d_8">
    <path clip-path="url(#p2a493ac928)" d="M 79.831932 241.237802 
L 83.636477 242.031989 
L 87.441023 240.473217 
L 91.245568 238.673284 
L 95.050114 238.534755 
L 98.854659 237.742553 
L 102.659205 237.900767 
L 106.46375 238.540673 
L 110.268295 237.988938 
L 114.072841 238.288131 
L 117.877386 238.448109 
L 121.681932 238.434732 
L 125.486477 239.232289 
L 129.291023 238.963667 
L 133.095568 238.930202 
L 136.900114 237.950156 
L 140.704659 238.383265 
L 144.509205 238.064045 
L 148.31375 236.884055 
L 152.118295 236.395245 
L 155.922841 236.521342 
L 159.727386 237.150113 
L 163.531932 237.004708 
L 167.336477 237.125705 
L 171.141023 236.161249 
L 174.945568 235.834874 
L 178.750114 234.961884 
L 182.554659 234.758058 
L 186.359205 235.380702 
L 190.16375 233.736483 
L 193.968295 233.03029 
L 197.772841 232.629148 
L 201.577386 232.080216 
L 205.381932 232.66558 
L 209.186477 232.989094 
L 212.991023 233.814397 
L 216.795568 234.233216 
L 220.600114 232.623848 
L 224.404659 231.998418 
L 228.209205 231.213532 
L 232.01375 231.088315 
L 235.818295 231.236152 
L 239.622841 230.112571 
L 243.427386 229.239007 
L 247.231932 228.92943 
L 251.036477 229.16545 
L 254.841023 229.11954 
L 258.645568 229.687217 
L 262.450114 230.265827 
L 266.254659 230.223574 
L 270.059205 230.970851 
L 273.86375 231.27548 
L 277.668295 231.27548 
L 281.472841 230.777201 
L 285.277386 231.393343 
L 289.081932 232.184289 
L 292.886477 232.152217 
L 296.691023 233.148351 
L 300.495568 232.613856 
L 304.300114 232.953048 
L 308.104659 232.953048 
L 311.909205 232.92036 
L 315.71375 233.269892 
L 319.518295 233.624747 
L 323.322841 233.804233 
L 327.127386 234.16745 
L 330.931932 233.597245 
L 334.736477 233.195816 
L 338.541023 233.378734 
L 342.345568 234.316804 
L 346.150114 234.703575 
L 349.954659 235.296939 
L 353.759205 236.32355 
L 357.56375 236.534879 
L 361.368295 236.127753 
L 365.172841 234.628574 
L 368.977386 234.837908 
L 372.781932 232.365364 
L 376.586477 232.566977 
L 380.391023 232.976689 
L 384.195568 232.246973 
" style="fill:none;stroke:#8b0000;stroke-linecap:square;stroke-width:3;"/>
   </g>
   <g id="line2d_9">
    <path clip-path="url(#p2a493ac928)" d="M 79.831932 187.237373 
L 83.636477 190.002254 
L 87.441023 192.128185 
L 91.245568 188.958969 
L 95.050114 190.59018 
L 98.854659 189.98355 
L 102.659205 194.185152 
L 106.46375 194.266336 
L 110.268295 197.305375 
L 114.072841 198.518068 
L 117.877386 193.44334 
L 121.681932 193.69436 
L 125.486477 190.697464 
L 129.291023 188.167924 
L 133.095568 188.28075 
L 136.900114 188.349639 
L 140.704659 186.319507 
L 144.509205 183.496933 
L 148.31375 187.542001 
L 152.118295 187.090593 
L 155.922841 184.107557 
L 159.727386 188.32985 
L 163.531932 189.987269 
L 167.336477 194.962117 
L 171.141023 195.778809 
L 174.945568 199.89207 
L 178.750114 200.432523 
L 182.554659 196.470165 
L 186.359205 203.15449 
L 190.16375 200.297 
L 193.968295 197.588236 
L 197.772841 198.057565 
L 201.577386 201.190773 
L 205.381932 197.724428 
L 209.186477 195.371268 
L 212.991023 197.938734 
L 216.795568 198.145992 
L 220.600114 193.44305 
L 224.404659 192.217173 
L 228.209205 193.95162 
L 232.01375 191.091043 
L 235.818295 189.011265 
L 239.622841 186.060722 
L 243.427386 182.891346 
L 247.231932 182.949854 
L 251.036477 179.664351 
L 254.841023 180.546986 
L 258.645568 179.683566 
L 262.450114 184.064692 
L 266.254659 182.317355 
L 270.059205 188.571544 
L 273.86375 189.490183 
L 277.668295 189.490183 
L 281.472841 187.720525 
L 285.277386 189.569503 
L 289.081932 187.765562 
L 292.886477 185.871157 
L 296.691023 191.577682 
L 300.495568 189.659423 
L 304.300114 187.699911 
L 308.104659 187.699911 
L 311.909205 188.631634 
L 315.71375 189.60977 
L 319.518295 190.598142 
L 323.322841 192.610071 
L 327.127386 193.623905 
L 330.931932 191.579311 
L 334.736477 191.553397 
L 338.541023 190.496793 
L 342.345568 197.845964 
L 346.150114 202.110585 
L 349.954659 202.205977 
L 353.759205 203.452841 
L 357.56375 205.682969 
L 361.368295 202.470309 
L 365.172841 202.550641 
L 368.977386 204.859694 
L 372.781932 200.330563 
L 376.586477 199.157841 
L 380.391023 196.76141 
L 384.195568 197.950072 
" style="fill:none;stroke:#228b22;stroke-linecap:square;stroke-width:3;"/>
   </g>
   <g id="line2d_10">
    <path clip-path="url(#p2a493ac928)" d="M 79.831932 120.574862 
L 83.636477 121.836704 
L 87.441023 122.171314 
L 91.245568 118.834406 
L 95.050114 119.426751 
L 98.854659 107.817793 
L 102.659205 101.711527 
L 106.46375 104.132292 
L 110.268295 118.193349 
L 114.072841 119.153777 
L 117.877386 113.043704 
L 121.681932 111.499398 
L 125.486477 107.670874 
L 129.291023 107.333185 
L 133.095568 111.619172 
L 136.900114 115.689762 
L 140.704659 116.629366 
L 144.509205 109.833527 
L 148.31375 111.208826 
L 152.118295 111.025404 
L 155.922841 103.748876 
L 159.727386 89.088019 
L 163.531932 85.748649 
L 167.336477 81.04233 
L 171.141023 72.246028 
L 174.945568 76.342891 
L 178.750114 70.205439 
L 182.554659 62.772902 
L 186.359205 67.659826 
L 190.16375 62.150009 
L 193.968295 52.976163 
L 197.772841 61.110742 
L 201.577386 77.371138 
L 205.381932 74.437158 
L 209.186477 73.620403 
L 212.991023 73.876672 
L 216.795568 77.629428 
L 220.600114 69.172559 
L 224.404659 62.86544 
L 228.209205 65.370302 
L 232.01375 60.139439 
L 235.818295 59.904661 
L 239.622841 50.169784 
L 243.427386 44.359261 
L 247.231932 48.165617 
L 251.036477 45.962677 
L 254.841023 54.933152 
L 258.645568 57.113805 
L 262.450114 67.389464 
L 266.254659 59.832239 
L 270.059205 60.333419 
L 273.86375 65.499377 
L 277.668295 65.499377 
L 281.472841 62.355239 
L 285.277386 72.649938 
L 289.081932 73.066747 
L 292.886477 64.938794 
L 296.691023 72.023392 
L 300.495568 68.649513 
L 304.300114 65.203077 
L 308.104659 65.203077 
L 311.909205 65.201804 
L 315.71375 61.595737 
L 319.518295 66.922181 
L 323.322841 65.105015 
L 327.127386 70.435497 
L 330.931932 66.771222 
L 334.736477 70.277993 
L 338.541023 68.408196 
L 342.345568 95.28062 
L 346.150114 109.354796 
L 349.954659 104.256731 
L 353.759205 113.346194 
L 357.56375 120.479228 
L 361.368295 115.358331 
L 365.172841 119.142344 
L 368.977386 117.385823 
L 372.781932 110.110588 
L 376.586477 108.226822 
L 380.391023 104.377387 
L 384.195568 110.114623 
" style="fill:none;stroke:#000080;stroke-linecap:square;stroke-width:3;"/>
   </g>
   <g id="patch_3">
    <path d="M 64.61375 251.915625 
L 64.61375 34.475625 
" style="fill:none;stroke:#000000;stroke-linecap:square;stroke-linejoin:miter;"/>
   </g>
   <g id="patch_4">
    <path d="M 64.61375 251.915625 
L 399.41375 251.915625 
" style="fill:none;stroke:#000000;stroke-linecap:square;stroke-linejoin:miter;"/>
   </g>
   <g id="text_10">
    <!-- Positive likelihood ratio, Song -->
    <defs>
     <path d="M 19.671875 64.796875 
L 19.671875 37.40625 
L 32.078125 37.40625 
Q 38.96875 37.40625 42.71875 40.96875 
Q 46.484375 44.53125 46.484375 51.125 
Q 46.484375 57.671875 42.71875 61.234375 
Q 38.96875 64.796875 32.078125 64.796875 
z
M 9.8125 72.90625 
L 32.078125 72.90625 
Q 44.34375 72.90625 50.609375 67.359375 
Q 56.890625 61.8125 56.890625 51.125 
Q 56.890625 40.328125 50.609375 34.8125 
Q 44.34375 29.296875 32.078125 29.296875 
L 19.671875 29.296875 
L 19.671875 0 
L 9.8125 0 
z
" id="DejaVuSans-80"/>
     <path d="M 44.28125 53.078125 
L 44.28125 44.578125 
Q 40.484375 46.53125 36.375 47.5 
Q 32.28125 48.484375 27.875 48.484375 
Q 21.1875 48.484375 17.84375 46.4375 
Q 14.5 44.390625 14.5 40.28125 
Q 14.5 37.15625 16.890625 35.375 
Q 19.28125 33.59375 26.515625 31.984375 
L 29.59375 31.296875 
Q 39.15625 29.25 43.1875 25.515625 
Q 47.21875 21.78125 47.21875 15.09375 
Q 47.21875 7.46875 41.1875 3.015625 
Q 35.15625 -1.421875 24.609375 -1.421875 
Q 20.21875 -1.421875 15.453125 -0.5625 
Q 10.6875 0.296875 5.421875 2 
L 5.421875 11.28125 
Q 10.40625 8.6875 15.234375 7.390625 
Q 20.0625 6.109375 24.8125 6.109375 
Q 31.15625 6.109375 34.5625 8.28125 
Q 37.984375 10.453125 37.984375 14.40625 
Q 37.984375 18.0625 35.515625 20.015625 
Q 33.0625 21.96875 24.703125 23.78125 
L 21.578125 24.515625 
Q 13.234375 26.265625 9.515625 29.90625 
Q 5.8125 33.546875 5.8125 39.890625 
Q 5.8125 47.609375 11.28125 51.796875 
Q 16.75 56 26.8125 56 
Q 31.78125 56 36.171875 55.265625 
Q 40.578125 54.546875 44.28125 53.078125 
z
" id="DejaVuSans-115"/>
     <path d="M 9.421875 54.6875 
L 18.40625 54.6875 
L 18.40625 0 
L 9.421875 0 
z
M 9.421875 75.984375 
L 18.40625 75.984375 
L 18.40625 64.59375 
L 9.421875 64.59375 
z
" id="DejaVuSans-105"/>
     <path d="M 18.3125 70.21875 
L 18.3125 54.6875 
L 36.8125 54.6875 
L 36.8125 47.703125 
L 18.3125 47.703125 
L 18.3125 18.015625 
Q 18.3125 11.328125 20.140625 9.421875 
Q 21.96875 7.515625 27.59375 7.515625 
L 36.8125 7.515625 
L 36.8125 0 
L 27.59375 0 
Q 17.1875 0 13.234375 3.875 
Q 9.28125 7.765625 9.28125 18.015625 
L 9.28125 47.703125 
L 2.6875 47.703125 
L 2.6875 54.6875 
L 9.28125 54.6875 
L 9.28125 70.21875 
z
" id="DejaVuSans-116"/>
     <path d="M 9.078125 75.984375 
L 18.109375 75.984375 
L 18.109375 31.109375 
L 44.921875 54.6875 
L 56.390625 54.6875 
L 27.390625 29.109375 
L 57.625 0 
L 45.90625 0 
L 18.109375 26.703125 
L 18.109375 0 
L 9.078125 0 
z
" id="DejaVuSans-107"/>
     <path d="M 54.890625 33.015625 
L 54.890625 0 
L 45.90625 0 
L 45.90625 32.71875 
Q 45.90625 40.484375 42.875 44.328125 
Q 39.84375 48.1875 33.796875 48.1875 
Q 26.515625 48.1875 22.3125 43.546875 
Q 18.109375 38.921875 18.109375 30.90625 
L 18.109375 0 
L 9.078125 0 
L 9.078125 75.984375 
L 18.109375 75.984375 
L 18.109375 46.1875 
Q 21.34375 51.125 25.703125 53.5625 
Q 30.078125 56 35.796875 56 
Q 45.21875 56 50.046875 50.171875 
Q 54.890625 44.34375 54.890625 33.015625 
z
" id="DejaVuSans-104"/>
     <path d="M 45.40625 46.390625 
L 45.40625 75.984375 
L 54.390625 75.984375 
L 54.390625 0 
L 45.40625 0 
L 45.40625 8.203125 
Q 42.578125 3.328125 38.25 0.953125 
Q 33.9375 -1.421875 27.875 -1.421875 
Q 17.96875 -1.421875 11.734375 6.484375 
Q 5.515625 14.40625 5.515625 27.296875 
Q 5.515625 40.1875 11.734375 48.09375 
Q 17.96875 56 27.875 56 
Q 33.9375 56 38.25 53.625 
Q 42.578125 51.265625 45.40625 46.390625 
z
M 14.796875 27.296875 
Q 14.796875 17.390625 18.875 11.75 
Q 22.953125 6.109375 30.078125 6.109375 
Q 37.203125 6.109375 41.296875 11.75 
Q 45.40625 17.390625 45.40625 27.296875 
Q 45.40625 37.203125 41.296875 42.84375 
Q 37.203125 48.484375 30.078125 48.484375 
Q 22.953125 48.484375 18.875 42.84375 
Q 14.796875 37.203125 14.796875 27.296875 
z
" id="DejaVuSans-100"/>
     <path d="M 41.109375 46.296875 
Q 39.59375 47.171875 37.8125 47.578125 
Q 36.03125 48 33.890625 48 
Q 26.265625 48 22.1875 43.046875 
Q 18.109375 38.09375 18.109375 28.8125 
L 18.109375 0 
L 9.078125 0 
L 9.078125 54.6875 
L 18.109375 54.6875 
L 18.109375 46.1875 
Q 20.953125 51.171875 25.484375 53.578125 
Q 30.03125 56 36.53125 56 
Q 37.453125 56 38.578125 55.875 
Q 39.703125 55.765625 41.0625 55.515625 
z
" id="DejaVuSans-114"/>
     <path d="M 11.71875 12.40625 
L 22.015625 12.40625 
L 22.015625 4 
L 14.015625 -11.625 
L 7.71875 -11.625 
L 11.71875 4 
z
" id="DejaVuSans-44"/>
     <path d="M 53.515625 70.515625 
L 53.515625 60.890625 
Q 47.90625 63.578125 42.921875 64.890625 
Q 37.9375 66.21875 33.296875 66.21875 
Q 25.25 66.21875 20.875 63.09375 
Q 16.5 59.96875 16.5 54.203125 
Q 16.5 49.359375 19.40625 46.890625 
Q 22.3125 44.4375 30.421875 42.921875 
L 36.375 41.703125 
Q 47.40625 39.59375 52.65625 34.296875 
Q 57.90625 29 57.90625 20.125 
Q 57.90625 9.515625 50.796875 4.046875 
Q 43.703125 -1.421875 29.984375 -1.421875 
Q 24.8125 -1.421875 18.96875 -0.25 
Q 13.140625 0.921875 6.890625 3.21875 
L 6.890625 13.375 
Q 12.890625 10.015625 18.65625 8.296875 
Q 24.421875 6.59375 29.984375 6.59375 
Q 38.421875 6.59375 43.015625 9.90625 
Q 47.609375 13.234375 47.609375 19.390625 
Q 47.609375 24.75 44.3125 27.78125 
Q 41.015625 30.8125 33.5 32.328125 
L 27.484375 33.5 
Q 16.453125 35.6875 11.515625 40.375 
Q 6.59375 45.0625 6.59375 53.421875 
Q 6.59375 63.09375 13.40625 68.65625 
Q 20.21875 74.21875 32.171875 74.21875 
Q 37.3125 74.21875 42.625 73.28125 
Q 47.953125 72.359375 53.515625 70.515625 
z
" id="DejaVuSans-83"/>
     <path d="M 54.890625 33.015625 
L 54.890625 0 
L 45.90625 0 
L 45.90625 32.71875 
Q 45.90625 40.484375 42.875 44.328125 
Q 39.84375 48.1875 33.796875 48.1875 
Q 26.515625 48.1875 22.3125 43.546875 
Q 18.109375 38.921875 18.109375 30.90625 
L 18.109375 0 
L 9.078125 0 
L 9.078125 54.6875 
L 18.109375 54.6875 
L 18.109375 46.1875 
Q 21.34375 51.125 25.703125 53.5625 
Q 30.078125 56 35.796875 56 
Q 45.21875 56 50.046875 50.171875 
Q 54.890625 44.34375 54.890625 33.015625 
z
" id="DejaVuSans-110"/>
    </defs>
    <g transform="translate(25.095937 28.475625)scale(0.28 -0.28)">
     <use xlink:href="#DejaVuSans-80"/>
     <use x="60.255859" xlink:href="#DejaVuSans-111"/>
     <use x="121.4375" xlink:href="#DejaVuSans-115"/>
     <use x="173.537109" xlink:href="#DejaVuSans-105"/>
     <use x="201.320312" xlink:href="#DejaVuSans-116"/>
     <use x="240.529297" xlink:href="#DejaVuSans-105"/>
     <use x="268.3125" xlink:href="#DejaVuSans-118"/>
     <use x="327.492188" xlink:href="#DejaVuSans-101"/>
     <use x="389.015625" xlink:href="#DejaVuSans-32"/>
     <use x="420.802734" xlink:href="#DejaVuSans-108"/>
     <use x="448.585938" xlink:href="#DejaVuSans-105"/>
     <use x="476.369141" xlink:href="#DejaVuSans-107"/>
     <use x="534.232422" xlink:href="#DejaVuSans-101"/>
     <use x="595.755859" xlink:href="#DejaVuSans-108"/>
     <use x="623.539062" xlink:href="#DejaVuSans-105"/>
     <use x="651.322266" xlink:href="#DejaVuSans-104"/>
     <use x="714.701172" xlink:href="#DejaVuSans-111"/>
     <use x="775.882812" xlink:href="#DejaVuSans-111"/>
     <use x="837.064453" xlink:href="#DejaVuSans-100"/>
     <use x="900.541016" xlink:href="#DejaVuSans-32"/>
     <use x="932.328125" xlink:href="#DejaVuSans-114"/>
     <use x="973.441406" xlink:href="#DejaVuSans-97"/>
     <use x="1034.720703" xlink:href="#DejaVuSans-116"/>
     <use x="1073.929688" xlink:href="#DejaVuSans-105"/>
     <use x="1101.712891" xlink:href="#DejaVuSans-111"/>
     <use x="1162.894531" xlink:href="#DejaVuSans-44"/>
     <use x="1194.681641" xlink:href="#DejaVuSans-32"/>
     <use x="1226.46875" xlink:href="#DejaVuSans-83"/>
     <use x="1289.945312" xlink:href="#DejaVuSans-111"/>
     <use x="1351.126953" xlink:href="#DejaVuSans-110"/>
     <use x="1414.505859" xlink:href="#DejaVuSans-103"/>
    </g>
   </g>
  </g>
 </g>
 <defs>
  <clipPath id="p2a493ac928">
   <rect height="217.44" width="334.8" x="64.61375" y="34.475625"/>
  </clipPath>
 </defs>
</svg>
