<?xml version="1.0" encoding="utf-8" standalone="no"?>
<!DOCTYPE svg PUBLIC "-//W3C//DTD SVG 1.1//EN"
  "http://www.w3.org/Graphics/SVG/1.1/DTD/svg11.dtd">
<!-- Created with matplotlib (https://matplotlib.org/) -->
<svg height="325.813125pt" version="1.1" viewBox="0 0 451.1425 325.813125" width="451.1425pt" xmlns="http://www.w3.org/2000/svg" xmlns:xlink="http://www.w3.org/1999/xlink">
 <defs>
  <style type="text/css">
*{stroke-linecap:butt;stroke-linejoin:round;}
  </style>
 </defs>
 <g id="figure_1">
  <g id="patch_1">
   <path d="M 0 325.813125 
L 451.1425 325.813125 
L 451.1425 0 
L 0 0 
z
" style="fill:#ffffff;"/>
  </g>
  <g id="axes_1">
   <g id="patch_2">
    <path d="M 109.1425 251.915625 
L 443.9425 251.915625 
L 443.9425 34.475625 
L 109.1425 34.475625 
z
" style="fill:#ffffff;"/>
   </g>
   <g id="matplotlib.axis_1">
    <g id="xtick_1">
     <g id="line2d_1">
      <defs>
       <path d="M 0 0 
L 0 5 
" id="mfee43723f8" style="stroke:#000000;stroke-width:0.8;"/>
      </defs>
      <g>
       <use style="stroke:#000000;stroke-width:0.8;" x="124.360682" xlink:href="#mfee43723f8" y="251.915625"/>
      </g>
     </g>
     <g id="text_1">
      <!-- 1 -->
      <defs>
       <path d="M 12.40625 8.296875 
L 28.515625 8.296875 
L 28.515625 63.921875 
L 10.984375 60.40625 
L 10.984375 69.390625 
L 28.421875 72.90625 
L 38.28125 72.90625 
L 38.28125 8.296875 
L 54.390625 8.296875 
L 54.390625 0 
L 12.40625 0 
z
" id="DejaVuSans-49"/>
      </defs>
      <g transform="translate(115.453182 281.69125)scale(0.28 -0.28)">
       <use xlink:href="#DejaVuSans-49"/>
      </g>
     </g>
    </g>
    <g id="xtick_2">
     <g id="line2d_2">
      <g>
       <use style="stroke:#000000;stroke-width:0.8;" x="200.451591" xlink:href="#mfee43723f8" y="251.915625"/>
      </g>
     </g>
     <g id="text_2">
      <!-- 2 -->
      <defs>
       <path d="M 19.1875 8.296875 
L 53.609375 8.296875 
L 53.609375 0 
L 7.328125 0 
L 7.328125 8.296875 
Q 12.9375 14.109375 22.625 23.890625 
Q 32.328125 33.6875 34.8125 36.53125 
Q 39.546875 41.84375 41.421875 45.53125 
Q 43.3125 49.21875 43.3125 52.78125 
Q 43.3125 58.59375 39.234375 62.25 
Q 35.15625 65.921875 28.609375 65.921875 
Q 23.96875 65.921875 18.8125 64.3125 
Q 13.671875 62.703125 7.8125 59.421875 
L 7.8125 69.390625 
Q 13.765625 71.78125 18.9375 73 
Q 24.125 74.21875 28.421875 74.21875 
Q 39.75 74.21875 46.484375 68.546875 
Q 53.21875 62.890625 53.21875 53.421875 
Q 53.21875 48.921875 51.53125 44.890625 
Q 49.859375 40.875 45.40625 35.40625 
Q 44.1875 33.984375 37.640625 27.21875 
Q 31.109375 20.453125 19.1875 8.296875 
z
" id="DejaVuSans-50"/>
      </defs>
      <g transform="translate(191.544091 281.69125)scale(0.28 -0.28)">
       <use xlink:href="#DejaVuSans-50"/>
      </g>
     </g>
    </g>
    <g id="xtick_3">
     <g id="line2d_3">
      <g>
       <use style="stroke:#000000;stroke-width:0.8;" x="276.5425" xlink:href="#mfee43723f8" y="251.915625"/>
      </g>
     </g>
     <g id="text_3">
      <!-- 3 -->
      <defs>
       <path d="M 40.578125 39.3125 
Q 47.65625 37.796875 51.625 33 
Q 55.609375 28.21875 55.609375 21.1875 
Q 55.609375 10.40625 48.1875 4.484375 
Q 40.765625 -1.421875 27.09375 -1.421875 
Q 22.515625 -1.421875 17.65625 -0.515625 
Q 12.796875 0.390625 7.625 2.203125 
L 7.625 11.71875 
Q 11.71875 9.328125 16.59375 8.109375 
Q 21.484375 6.890625 26.8125 6.890625 
Q 36.078125 6.890625 40.9375 10.546875 
Q 45.796875 14.203125 45.796875 21.1875 
Q 45.796875 27.640625 41.28125 31.265625 
Q 36.765625 34.90625 28.71875 34.90625 
L 20.21875 34.90625 
L 20.21875 43.015625 
L 29.109375 43.015625 
Q 36.375 43.015625 40.234375 45.921875 
Q 44.09375 48.828125 44.09375 54.296875 
Q 44.09375 59.90625 40.109375 62.90625 
Q 36.140625 65.921875 28.71875 65.921875 
Q 24.65625 65.921875 20.015625 65.03125 
Q 15.375 64.15625 9.8125 62.3125 
L 9.8125 71.09375 
Q 15.4375 72.65625 20.34375 73.4375 
Q 25.25 74.21875 29.59375 74.21875 
Q 40.828125 74.21875 47.359375 69.109375 
Q 53.90625 64.015625 53.90625 55.328125 
Q 53.90625 49.265625 50.4375 45.09375 
Q 46.96875 40.921875 40.578125 39.3125 
z
" id="DejaVuSans-51"/>
      </defs>
      <g transform="translate(267.635 281.69125)scale(0.28 -0.28)">
       <use xlink:href="#DejaVuSans-51"/>
      </g>
     </g>
    </g>
    <g id="xtick_4">
     <g id="line2d_4">
      <g>
       <use style="stroke:#000000;stroke-width:0.8;" x="352.633409" xlink:href="#mfee43723f8" y="251.915625"/>
      </g>
     </g>
     <g id="text_4">
      <!-- 4 -->
      <defs>
       <path d="M 37.796875 64.3125 
L 12.890625 25.390625 
L 37.796875 25.390625 
z
M 35.203125 72.90625 
L 47.609375 72.90625 
L 47.609375 25.390625 
L 58.015625 25.390625 
L 58.015625 17.1875 
L 47.609375 17.1875 
L 47.609375 0 
L 37.796875 0 
L 37.796875 17.1875 
L 4.890625 17.1875 
L 4.890625 26.703125 
z
" id="DejaVuSans-52"/>
      </defs>
      <g transform="translate(343.725909 281.69125)scale(0.28 -0.28)">
       <use xlink:href="#DejaVuSans-52"/>
      </g>
     </g>
    </g>
    <g id="xtick_5">
     <g id="line2d_5">
      <g>
       <use style="stroke:#000000;stroke-width:0.8;" x="428.724318" xlink:href="#mfee43723f8" y="251.915625"/>
      </g>
     </g>
     <g id="text_5">
      <!-- 5 -->
      <defs>
       <path d="M 10.796875 72.90625 
L 49.515625 72.90625 
L 49.515625 64.59375 
L 19.828125 64.59375 
L 19.828125 46.734375 
Q 21.96875 47.46875 24.109375 47.828125 
Q 26.265625 48.1875 28.421875 48.1875 
Q 40.625 48.1875 47.75 41.5 
Q 54.890625 34.8125 54.890625 23.390625 
Q 54.890625 11.625 47.5625 5.09375 
Q 40.234375 -1.421875 26.90625 -1.421875 
Q 22.3125 -1.421875 17.546875 -0.640625 
Q 12.796875 0.140625 7.71875 1.703125 
L 7.71875 11.625 
Q 12.109375 9.234375 16.796875 8.0625 
Q 21.484375 6.890625 26.703125 6.890625 
Q 35.15625 6.890625 40.078125 11.328125 
Q 45.015625 15.765625 45.015625 23.390625 
Q 45.015625 31 40.078125 35.4375 
Q 35.15625 39.890625 26.703125 39.890625 
Q 22.75 39.890625 18.8125 39.015625 
Q 14.890625 38.140625 10.796875 36.28125 
z
" id="DejaVuSans-53"/>
      </defs>
      <g transform="translate(419.816818 281.69125)scale(0.28 -0.28)">
       <use xlink:href="#DejaVuSans-53"/>
      </g>
     </g>
    </g>
    <g id="text_6">
     <!-- -log10 p-value -->
     <defs>
      <path d="M 4.890625 31.390625 
L 31.203125 31.390625 
L 31.203125 23.390625 
L 4.890625 23.390625 
z
" id="DejaVuSans-45"/>
      <path d="M 9.421875 75.984375 
L 18.40625 75.984375 
L 18.40625 0 
L 9.421875 0 
z
" id="DejaVuSans-108"/>
      <path d="M 30.609375 48.390625 
Q 23.390625 48.390625 19.1875 42.75 
Q 14.984375 37.109375 14.984375 27.296875 
Q 14.984375 17.484375 19.15625 11.84375 
Q 23.34375 6.203125 30.609375 6.203125 
Q 37.796875 6.203125 41.984375 11.859375 
Q 46.1875 17.53125 46.1875 27.296875 
Q 46.1875 37.015625 41.984375 42.703125 
Q 37.796875 48.390625 30.609375 48.390625 
z
M 30.609375 56 
Q 42.328125 56 49.015625 48.375 
Q 55.71875 40.765625 55.71875 27.296875 
Q 55.71875 13.875 49.015625 6.21875 
Q 42.328125 -1.421875 30.609375 -1.421875 
Q 18.84375 -1.421875 12.171875 6.21875 
Q 5.515625 13.875 5.515625 27.296875 
Q 5.515625 40.765625 12.171875 48.375 
Q 18.84375 56 30.609375 56 
z
" id="DejaVuSans-111"/>
      <path d="M 45.40625 27.984375 
Q 45.40625 37.75 41.375 43.109375 
Q 37.359375 48.484375 30.078125 48.484375 
Q 22.859375 48.484375 18.828125 43.109375 
Q 14.796875 37.75 14.796875 27.984375 
Q 14.796875 18.265625 18.828125 12.890625 
Q 22.859375 7.515625 30.078125 7.515625 
Q 37.359375 7.515625 41.375 12.890625 
Q 45.40625 18.265625 45.40625 27.984375 
z
M 54.390625 6.78125 
Q 54.390625 -7.171875 48.1875 -13.984375 
Q 42 -20.796875 29.203125 -20.796875 
Q 24.46875 -20.796875 20.265625 -20.09375 
Q 16.0625 -19.390625 12.109375 -17.921875 
L 12.109375 -9.1875 
Q 16.0625 -11.328125 19.921875 -12.34375 
Q 23.78125 -13.375 27.78125 -13.375 
Q 36.625 -13.375 41.015625 -8.765625 
Q 45.40625 -4.15625 45.40625 5.171875 
L 45.40625 9.625 
Q 42.625 4.78125 38.28125 2.390625 
Q 33.9375 0 27.875 0 
Q 17.828125 0 11.671875 7.65625 
Q 5.515625 15.328125 5.515625 27.984375 
Q 5.515625 40.671875 11.671875 48.328125 
Q 17.828125 56 27.875 56 
Q 33.9375 56 38.28125 53.609375 
Q 42.625 51.21875 45.40625 46.390625 
L 45.40625 54.6875 
L 54.390625 54.6875 
z
" id="DejaVuSans-103"/>
      <path d="M 31.78125 66.40625 
Q 24.171875 66.40625 20.328125 58.90625 
Q 16.5 51.421875 16.5 36.375 
Q 16.5 21.390625 20.328125 13.890625 
Q 24.171875 6.390625 31.78125 6.390625 
Q 39.453125 6.390625 43.28125 13.890625 
Q 47.125 21.390625 47.125 36.375 
Q 47.125 51.421875 43.28125 58.90625 
Q 39.453125 66.40625 31.78125 66.40625 
z
M 31.78125 74.21875 
Q 44.046875 74.21875 50.515625 64.515625 
Q 56.984375 54.828125 56.984375 36.375 
Q 56.984375 17.96875 50.515625 8.265625 
Q 44.046875 -1.421875 31.78125 -1.421875 
Q 19.53125 -1.421875 13.0625 8.265625 
Q 6.59375 17.96875 6.59375 36.375 
Q 6.59375 54.828125 13.0625 64.515625 
Q 19.53125 74.21875 31.78125 74.21875 
z
" id="DejaVuSans-48"/>
      <path id="DejaVuSans-32"/>
      <path d="M 18.109375 8.203125 
L 18.109375 -20.796875 
L 9.078125 -20.796875 
L 9.078125 54.6875 
L 18.109375 54.6875 
L 18.109375 46.390625 
Q 20.953125 51.265625 25.265625 53.625 
Q 29.59375 56 35.59375 56 
Q 45.5625 56 51.78125 48.09375 
Q 58.015625 40.1875 58.015625 27.296875 
Q 58.015625 14.40625 51.78125 6.484375 
Q 45.5625 -1.421875 35.59375 -1.421875 
Q 29.59375 -1.421875 25.265625 0.953125 
Q 20.953125 3.328125 18.109375 8.203125 
z
M 48.6875 27.296875 
Q 48.6875 37.203125 44.609375 42.84375 
Q 40.53125 48.484375 33.40625 48.484375 
Q 26.265625 48.484375 22.1875 42.84375 
Q 18.109375 37.203125 18.109375 27.296875 
Q 18.109375 17.390625 22.1875 11.75 
Q 26.265625 6.109375 33.40625 6.109375 
Q 40.53125 6.109375 44.609375 11.75 
Q 48.6875 17.390625 48.6875 27.296875 
z
" id="DejaVuSans-112"/>
      <path d="M 2.984375 54.6875 
L 12.5 54.6875 
L 29.59375 8.796875 
L 46.6875 54.6875 
L 56.203125 54.6875 
L 35.6875 0 
L 23.484375 0 
z
" id="DejaVuSans-118"/>
      <path d="M 34.28125 27.484375 
Q 23.390625 27.484375 19.1875 25 
Q 14.984375 22.515625 14.984375 16.5 
Q 14.984375 11.71875 18.140625 8.90625 
Q 21.296875 6.109375 26.703125 6.109375 
Q 34.1875 6.109375 38.703125 11.40625 
Q 43.21875 16.703125 43.21875 25.484375 
L 43.21875 27.484375 
z
M 52.203125 31.203125 
L 52.203125 0 
L 43.21875 0 
L 43.21875 8.296875 
Q 40.140625 3.328125 35.546875 0.953125 
Q 30.953125 -1.421875 24.3125 -1.421875 
Q 15.921875 -1.421875 10.953125 3.296875 
Q 6 8.015625 6 15.921875 
Q 6 25.140625 12.171875 29.828125 
Q 18.359375 34.515625 30.609375 34.515625 
L 43.21875 34.515625 
L 43.21875 35.40625 
Q 43.21875 41.609375 39.140625 45 
Q 35.0625 48.390625 27.6875 48.390625 
Q 23 48.390625 18.546875 47.265625 
Q 14.109375 46.140625 10.015625 43.890625 
L 10.015625 52.203125 
Q 14.9375 54.109375 19.578125 55.046875 
Q 24.21875 56 28.609375 56 
Q 40.484375 56 46.34375 49.84375 
Q 52.203125 43.703125 52.203125 31.203125 
z
" id="DejaVuSans-97"/>
      <path d="M 8.5 21.578125 
L 8.5 54.6875 
L 17.484375 54.6875 
L 17.484375 21.921875 
Q 17.484375 14.15625 20.5 10.265625 
Q 23.53125 6.390625 29.59375 6.390625 
Q 36.859375 6.390625 41.078125 11.03125 
Q 45.3125 15.671875 45.3125 23.6875 
L 45.3125 54.6875 
L 54.296875 54.6875 
L 54.296875 0 
L 45.3125 0 
L 45.3125 8.40625 
Q 42.046875 3.421875 37.71875 1 
Q 33.40625 -1.421875 27.6875 -1.421875 
Q 18.265625 -1.421875 13.375 4.4375 
Q 8.5 10.296875 8.5 21.578125 
z
M 31.109375 56 
z
" id="DejaVuSans-117"/>
      <path d="M 56.203125 29.59375 
L 56.203125 25.203125 
L 14.890625 25.203125 
Q 15.484375 15.921875 20.484375 11.0625 
Q 25.484375 6.203125 34.421875 6.203125 
Q 39.59375 6.203125 44.453125 7.46875 
Q 49.3125 8.734375 54.109375 11.28125 
L 54.109375 2.78125 
Q 49.265625 0.734375 44.1875 -0.34375 
Q 39.109375 -1.421875 33.890625 -1.421875 
Q 20.796875 -1.421875 13.15625 6.1875 
Q 5.515625 13.8125 5.515625 26.8125 
Q 5.515625 40.234375 12.765625 48.109375 
Q 20.015625 56 32.328125 56 
Q 43.359375 56 49.78125 48.890625 
Q 56.203125 41.796875 56.203125 29.59375 
z
M 47.21875 32.234375 
Q 47.125 39.59375 43.09375 43.984375 
Q 39.0625 48.390625 32.421875 48.390625 
Q 24.90625 48.390625 20.390625 44.140625 
Q 15.875 39.890625 15.1875 32.171875 
z
" id="DejaVuSans-101"/>
     </defs>
     <g transform="translate(175.7075 312.79)scale(0.28 -0.28)">
      <use xlink:href="#DejaVuSans-45"/>
      <use x="36.083984" xlink:href="#DejaVuSans-108"/>
      <use x="63.867188" xlink:href="#DejaVuSans-111"/>
      <use x="125.048828" xlink:href="#DejaVuSans-103"/>
      <use x="188.525391" xlink:href="#DejaVuSans-49"/>
      <use x="252.148438" xlink:href="#DejaVuSans-48"/>
      <use x="315.771484" xlink:href="#DejaVuSans-32"/>
      <use x="347.558594" xlink:href="#DejaVuSans-112"/>
      <use x="411.035156" xlink:href="#DejaVuSans-45"/>
      <use x="447.087891" xlink:href="#DejaVuSans-118"/>
      <use x="506.267578" xlink:href="#DejaVuSans-97"/>
      <use x="567.546875" xlink:href="#DejaVuSans-108"/>
      <use x="595.330078" xlink:href="#DejaVuSans-117"/>
      <use x="658.708984" xlink:href="#DejaVuSans-101"/>
     </g>
    </g>
   </g>
   <g id="matplotlib.axis_2">
    <g id="ytick_1">
     <g id="line2d_6">
      <defs>
       <path d="M 0 0 
L -5 0 
" id="m43ec8d3875" style="stroke:#000000;stroke-width:0.8;"/>
      </defs>
      <g>
       <use style="stroke:#000000;stroke-width:0.8;" x="109.1425" xlink:href="#m43ec8d3875" y="237.618457"/>
      </g>
     </g>
     <g id="text_7">
      <!-- 0.25 -->
      <defs>
       <path d="M 10.6875 12.40625 
L 21 12.40625 
L 21 0 
L 10.6875 0 
z
" id="DejaVuSans-46"/>
      </defs>
      <g transform="translate(38.29875 248.256269)scale(0.28 -0.28)">
       <use xlink:href="#DejaVuSans-48"/>
       <use x="63.623047" xlink:href="#DejaVuSans-46"/>
       <use x="95.410156" xlink:href="#DejaVuSans-50"/>
       <use x="159.033203" xlink:href="#DejaVuSans-53"/>
      </g>
     </g>
    </g>
    <g id="ytick_2">
     <g id="line2d_7">
      <g>
       <use style="stroke:#000000;stroke-width:0.8;" x="109.1425" xlink:href="#m43ec8d3875" y="162.588416"/>
      </g>
     </g>
     <g id="text_8">
      <!-- 0.50 -->
      <g transform="translate(38.29875 173.226229)scale(0.28 -0.28)">
       <use xlink:href="#DejaVuSans-48"/>
       <use x="63.623047" xlink:href="#DejaVuSans-46"/>
       <use x="95.410156" xlink:href="#DejaVuSans-53"/>
       <use x="159.033203" xlink:href="#DejaVuSans-48"/>
      </g>
     </g>
    </g>
    <g id="ytick_3">
     <g id="line2d_8">
      <g>
       <use style="stroke:#000000;stroke-width:0.8;" x="109.1425" xlink:href="#m43ec8d3875" y="87.558376"/>
      </g>
     </g>
     <g id="text_9">
      <!-- 0.75 -->
      <defs>
       <path d="M 8.203125 72.90625 
L 55.078125 72.90625 
L 55.078125 68.703125 
L 28.609375 0 
L 18.3125 0 
L 43.21875 64.59375 
L 8.203125 64.59375 
z
" id="DejaVuSans-55"/>
      </defs>
      <g transform="translate(38.29875 98.196188)scale(0.28 -0.28)">
       <use xlink:href="#DejaVuSans-48"/>
       <use x="63.623047" xlink:href="#DejaVuSans-46"/>
       <use x="95.410156" xlink:href="#DejaVuSans-55"/>
       <use x="159.033203" xlink:href="#DejaVuSans-53"/>
      </g>
     </g>
    </g>
    <g id="text_10">
     <!-- Precision -->
     <defs>
      <path d="M 19.671875 64.796875 
L 19.671875 37.40625 
L 32.078125 37.40625 
Q 38.96875 37.40625 42.71875 40.96875 
Q 46.484375 44.53125 46.484375 51.125 
Q 46.484375 57.671875 42.71875 61.234375 
Q 38.96875 64.796875 32.078125 64.796875 
z
M 9.8125 72.90625 
L 32.078125 72.90625 
Q 44.34375 72.90625 50.609375 67.359375 
Q 56.890625 61.8125 56.890625 51.125 
Q 56.890625 40.328125 50.609375 34.8125 
Q 44.34375 29.296875 32.078125 29.296875 
L 19.671875 29.296875 
L 19.671875 0 
L 9.8125 0 
z
" id="DejaVuSans-80"/>
      <path d="M 41.109375 46.296875 
Q 39.59375 47.171875 37.8125 47.578125 
Q 36.03125 48 33.890625 48 
Q 26.265625 48 22.1875 43.046875 
Q 18.109375 38.09375 18.109375 28.8125 
L 18.109375 0 
L 9.078125 0 
L 9.078125 54.6875 
L 18.109375 54.6875 
L 18.109375 46.1875 
Q 20.953125 51.171875 25.484375 53.578125 
Q 30.03125 56 36.53125 56 
Q 37.453125 56 38.578125 55.875 
Q 39.703125 55.765625 41.0625 55.515625 
z
" id="DejaVuSans-114"/>
      <path d="M 48.78125 52.59375 
L 48.78125 44.1875 
Q 44.96875 46.296875 41.140625 47.34375 
Q 37.3125 48.390625 33.40625 48.390625 
Q 24.65625 48.390625 19.8125 42.84375 
Q 14.984375 37.3125 14.984375 27.296875 
Q 14.984375 17.28125 19.8125 11.734375 
Q 24.65625 6.203125 33.40625 6.203125 
Q 37.3125 6.203125 41.140625 7.25 
Q 44.96875 8.296875 48.78125 10.40625 
L 48.78125 2.09375 
Q 45.015625 0.34375 40.984375 -0.53125 
Q 36.96875 -1.421875 32.421875 -1.421875 
Q 20.0625 -1.421875 12.78125 6.34375 
Q 5.515625 14.109375 5.515625 27.296875 
Q 5.515625 40.671875 12.859375 48.328125 
Q 20.21875 56 33.015625 56 
Q 37.15625 56 41.109375 55.140625 
Q 45.0625 54.296875 48.78125 52.59375 
z
" id="DejaVuSans-99"/>
      <path d="M 9.421875 54.6875 
L 18.40625 54.6875 
L 18.40625 0 
L 9.421875 0 
z
M 9.421875 75.984375 
L 18.40625 75.984375 
L 18.40625 64.59375 
L 9.421875 64.59375 
z
" id="DejaVuSans-105"/>
      <path d="M 44.28125 53.078125 
L 44.28125 44.578125 
Q 40.484375 46.53125 36.375 47.5 
Q 32.28125 48.484375 27.875 48.484375 
Q 21.1875 48.484375 17.84375 46.4375 
Q 14.5 44.390625 14.5 40.28125 
Q 14.5 37.15625 16.890625 35.375 
Q 19.28125 33.59375 26.515625 31.984375 
L 29.59375 31.296875 
Q 39.15625 29.25 43.1875 25.515625 
Q 47.21875 21.78125 47.21875 15.09375 
Q 47.21875 7.46875 41.1875 3.015625 
Q 35.15625 -1.421875 24.609375 -1.421875 
Q 20.21875 -1.421875 15.453125 -0.5625 
Q 10.6875 0.296875 5.421875 2 
L 5.421875 11.28125 
Q 10.40625 8.6875 15.234375 7.390625 
Q 20.0625 6.109375 24.8125 6.109375 
Q 31.15625 6.109375 34.5625 8.28125 
Q 37.984375 10.453125 37.984375 14.40625 
Q 37.984375 18.0625 35.515625 20.015625 
Q 33.0625 21.96875 24.703125 23.78125 
L 21.578125 24.515625 
Q 13.234375 26.265625 9.515625 29.90625 
Q 5.8125 33.546875 5.8125 39.890625 
Q 5.8125 47.609375 11.28125 51.796875 
Q 16.75 56 26.8125 56 
Q 31.78125 56 36.171875 55.265625 
Q 40.578125 54.546875 44.28125 53.078125 
z
" id="DejaVuSans-115"/>
      <path d="M 54.890625 33.015625 
L 54.890625 0 
L 45.90625 0 
L 45.90625 32.71875 
Q 45.90625 40.484375 42.875 44.328125 
Q 39.84375 48.1875 33.796875 48.1875 
Q 26.515625 48.1875 22.3125 43.546875 
Q 18.109375 38.921875 18.109375 30.90625 
L 18.109375 0 
L 9.078125 0 
L 9.078125 54.6875 
L 18.109375 54.6875 
L 18.109375 46.1875 
Q 21.34375 51.125 25.703125 53.5625 
Q 30.078125 56 35.796875 56 
Q 45.21875 56 50.046875 50.171875 
Q 54.890625 44.34375 54.890625 33.015625 
z
" id="DejaVuSans-110"/>
     </defs>
     <g transform="translate(28.475625 206.20875)rotate(-90)scale(0.28 -0.28)">
      <use xlink:href="#DejaVuSans-80"/>
      <use x="60.287109" xlink:href="#DejaVuSans-114"/>
      <use x="101.369141" xlink:href="#DejaVuSans-101"/>
      <use x="162.892578" xlink:href="#DejaVuSans-99"/>
      <use x="217.873047" xlink:href="#DejaVuSans-105"/>
      <use x="245.65625" xlink:href="#DejaVuSans-115"/>
      <use x="297.755859" xlink:href="#DejaVuSans-105"/>
      <use x="325.539062" xlink:href="#DejaVuSans-111"/>
      <use x="386.720703" xlink:href="#DejaVuSans-110"/>
     </g>
    </g>
   </g>
   <g id="line2d_9">
    <path clip-path="url(#p5dbbe55ef8)" d="M 124.360682 44.359261 
L 128.165227 48.906537 
L 131.969773 48.906537 
L 135.774318 53.453812 
L 139.578864 58.001087 
L 143.383409 58.001087 
L 147.187955 62.548362 
L 150.9925 62.548362 
L 154.797045 67.095637 
L 158.601591 71.642912 
L 162.406136 71.642912 
L 166.210682 71.642912 
L 170.015227 71.642912 
L 173.819773 76.190188 
L 177.624318 76.190188 
L 181.428864 80.737463 
L 185.233409 80.737463 
L 189.037955 80.737463 
L 192.8425 80.737463 
L 196.647045 80.737463 
L 200.451591 85.284738 
L 204.256136 85.284738 
L 208.060682 85.284738 
L 211.865227 85.284738 
L 215.669773 85.284738 
L 219.474318 85.284738 
L 223.278864 89.832013 
L 227.083409 89.832013 
L 230.887955 89.832013 
L 234.6925 89.832013 
L 238.497045 89.832013 
L 242.301591 89.832013 
L 246.106136 94.379288 
L 249.910682 94.379288 
L 253.715227 98.926564 
L 257.519773 98.926564 
L 261.324318 98.926564 
L 265.128864 103.473839 
L 268.933409 103.473839 
L 272.737955 103.473839 
L 276.5425 108.021114 
L 280.347045 117.115664 
L 284.151591 117.115664 
L 287.956136 117.115664 
L 291.760682 121.66294 
L 295.565227 121.66294 
L 299.369773 126.210215 
L 303.174318 126.210215 
L 306.978864 126.210215 
L 310.783409 135.304765 
L 314.587955 135.304765 
L 318.3925 135.304765 
L 322.197045 135.304765 
L 326.001591 135.304765 
L 329.806136 135.304765 
L 333.610682 139.85204 
L 337.415227 144.399315 
L 341.219773 144.399315 
L 345.024318 144.399315 
L 348.828864 144.399315 
L 352.633409 144.399315 
L 356.437955 144.399315 
L 360.2425 144.399315 
L 364.047045 144.399315 
L 367.851591 144.399315 
L 371.656136 144.399315 
L 375.460682 148.946591 
L 379.265227 148.946591 
L 383.069773 148.946591 
L 386.874318 148.946591 
L 390.678864 148.946591 
L 394.483409 148.946591 
L 398.287955 148.946591 
L 402.0925 148.946591 
L 405.897045 148.946591 
L 409.701591 153.493866 
L 413.506136 153.493866 
L 417.310682 158.041141 
L 421.115227 162.588416 
L 424.919773 162.588416 
L 428.724318 167.135691 
" style="fill:none;stroke:#8b0000;stroke-linecap:square;stroke-width:3;"/>
   </g>
   <g id="line2d_10">
    <path clip-path="url(#p5dbbe55ef8)" d="M 124.360682 103.005737 
L 128.165227 108.154857 
L 131.969773 112.568389 
L 135.774318 116.246332 
L 139.578864 122.86663 
L 143.383409 125.808985 
L 147.187955 131.693694 
L 150.9925 133.90046 
L 154.797045 138.313991 
L 158.601591 143.463112 
L 162.406136 144.934289 
L 166.210682 145.669878 
L 170.015227 150.083409 
L 173.819773 153.761353 
L 177.624318 155.968119 
L 181.428864 158.174884 
L 185.233409 158.910473 
L 189.037955 160.38165 
L 192.8425 162.588416 
L 196.647045 164.795182 
L 200.451591 166.266359 
L 204.256136 166.266359 
L 208.060682 167.737537 
L 211.865227 169.944303 
L 215.669773 169.944303 
L 219.474318 170.679891 
L 223.278864 173.622246 
L 227.083409 175.093423 
L 230.887955 175.829012 
L 234.6925 179.506955 
L 238.497045 180.242543 
L 242.301591 181.713721 
L 246.106136 185.391664 
L 249.910682 187.59843 
L 253.715227 189.069607 
L 257.519773 192.011962 
L 261.324318 194.218727 
L 265.128864 197.896671 
L 268.933409 199.367848 
L 272.737955 201.574614 
L 276.5425 204.516968 
L 280.347045 208.9305 
L 284.151591 208.9305 
L 287.956136 209.666089 
L 291.760682 211.137266 
L 295.565227 211.137266 
L 299.369773 213.344032 
L 303.174318 213.344032 
L 306.978864 214.079621 
L 310.783409 215.550798 
L 314.587955 217.021975 
L 318.3925 218.493152 
L 322.197045 218.493152 
L 326.001591 218.493152 
L 329.806136 218.493152 
L 333.610682 219.228741 
L 337.415227 224.377861 
L 341.219773 224.377861 
L 345.024318 225.849039 
L 348.828864 227.320216 
L 352.633409 227.320216 
L 356.437955 227.320216 
L 360.2425 228.791393 
L 364.047045 228.791393 
L 367.851591 228.791393 
L 371.656136 229.526982 
L 375.460682 230.262571 
L 379.265227 230.262571 
L 383.069773 230.998159 
L 386.874318 230.998159 
L 390.678864 231.733748 
L 394.483409 232.469336 
L 398.287955 234.676102 
L 402.0925 235.411691 
L 405.897045 236.882868 
L 409.701591 237.618457 
L 413.506136 237.618457 
L 417.310682 238.354045 
L 421.115227 239.825223 
L 424.919773 239.825223 
L 428.724318 242.031989 
" style="fill:none;stroke:#228b22;stroke-linecap:square;stroke-width:3;"/>
   </g>
   <g id="line2d_11">
    <path clip-path="url(#p5dbbe55ef8)" d="M 124.360682 78.609839 
L 128.165227 82.739933 
L 131.969773 85.493329 
L 135.774318 88.246725 
L 139.578864 95.130215 
L 143.383409 95.130215 
L 147.187955 97.883611 
L 150.9925 97.883611 
L 154.797045 100.637007 
L 158.601591 103.390403 
L 162.406136 104.767101 
L 166.210682 104.767101 
L 170.015227 108.897195 
L 173.819773 113.027289 
L 177.624318 115.780684 
L 181.428864 117.157382 
L 185.233409 118.53408 
L 189.037955 119.910778 
L 192.8425 121.287476 
L 196.647045 122.664174 
L 200.451591 124.040872 
L 204.256136 124.040872 
L 208.060682 126.794268 
L 211.865227 126.794268 
L 215.669773 126.794268 
L 219.474318 128.170966 
L 223.278864 130.924362 
L 227.083409 132.30106 
L 230.887955 133.677758 
L 234.6925 137.807852 
L 238.497045 137.807852 
L 242.301591 139.18455 
L 246.106136 143.314644 
L 249.910682 144.691342 
L 253.715227 146.06804 
L 257.519773 148.821436 
L 261.324318 150.198134 
L 265.128864 155.704926 
L 268.933409 158.458322 
L 272.737955 161.211718 
L 276.5425 165.341812 
L 280.347045 172.225302 
L 284.151591 172.225302 
L 287.956136 173.602 
L 291.760682 174.978698 
L 295.565227 174.978698 
L 299.369773 177.732094 
L 303.174318 177.732094 
L 306.978864 179.108792 
L 310.783409 181.862188 
L 314.587955 184.615584 
L 318.3925 185.992282 
L 322.197045 185.992282 
L 326.001591 185.992282 
L 329.806136 185.992282 
L 333.610682 187.36898 
L 337.415227 195.629168 
L 341.219773 195.629168 
L 345.024318 195.629168 
L 348.828864 197.005866 
L 352.633409 197.005866 
L 356.437955 197.005866 
L 360.2425 198.382564 
L 364.047045 198.382564 
L 367.851591 198.382564 
L 371.656136 198.382564 
L 375.460682 199.759262 
L 379.265227 199.759262 
L 383.069773 201.13596 
L 386.874318 201.13596 
L 390.678864 201.13596 
L 394.483409 202.512658 
L 398.287955 203.889356 
L 402.0925 205.266054 
L 405.897045 208.01945 
L 409.701591 209.396148 
L 413.506136 209.396148 
L 417.310682 210.772846 
L 421.115227 213.526242 
L 424.919773 213.526242 
L 428.724318 216.279638 
" style="fill:none;stroke:#000080;stroke-linecap:square;stroke-width:3;"/>
   </g>
   <g id="patch_3">
    <path d="M 109.1425 251.915625 
L 109.1425 34.475625 
" style="fill:none;stroke:#000000;stroke-linecap:square;stroke-linejoin:miter;"/>
   </g>
   <g id="patch_4">
    <path d="M 109.1425 251.915625 
L 443.9425 251.915625 
" style="fill:none;stroke:#000000;stroke-linecap:square;stroke-linejoin:miter;"/>
   </g>
   <g id="text_11">
    <!-- Precision curves, Chen -->
    <defs>
     <path d="M 11.71875 12.40625 
L 22.015625 12.40625 
L 22.015625 4 
L 14.015625 -11.625 
L 7.71875 -11.625 
L 11.71875 4 
z
" id="DejaVuSans-44"/>
     <path d="M 64.40625 67.28125 
L 64.40625 56.890625 
Q 59.421875 61.53125 53.78125 63.8125 
Q 48.140625 66.109375 41.796875 66.109375 
Q 29.296875 66.109375 22.65625 58.46875 
Q 16.015625 50.828125 16.015625 36.375 
Q 16.015625 21.96875 22.65625 14.328125 
Q 29.296875 6.6875 41.796875 6.6875 
Q 48.140625 6.6875 53.78125 8.984375 
Q 59.421875 11.28125 64.40625 15.921875 
L 64.40625 5.609375 
Q 59.234375 2.09375 53.4375 0.328125 
Q 47.65625 -1.421875 41.21875 -1.421875 
Q 24.65625 -1.421875 15.125 8.703125 
Q 5.609375 18.84375 5.609375 36.375 
Q 5.609375 53.953125 15.125 64.078125 
Q 24.65625 74.21875 41.21875 74.21875 
Q 47.75 74.21875 53.53125 72.484375 
Q 59.328125 70.75 64.40625 67.28125 
z
" id="DejaVuSans-67"/>
     <path d="M 54.890625 33.015625 
L 54.890625 0 
L 45.90625 0 
L 45.90625 32.71875 
Q 45.90625 40.484375 42.875 44.328125 
Q 39.84375 48.1875 33.796875 48.1875 
Q 26.515625 48.1875 22.3125 43.546875 
Q 18.109375 38.921875 18.109375 30.90625 
L 18.109375 0 
L 9.078125 0 
L 9.078125 75.984375 
L 18.109375 75.984375 
L 18.109375 46.1875 
Q 21.34375 51.125 25.703125 53.5625 
Q 30.078125 56 35.796875 56 
Q 45.21875 56 50.046875 50.171875 
Q 54.890625 44.34375 54.890625 33.015625 
z
" id="DejaVuSans-104"/>
    </defs>
    <g transform="translate(117.526563 28.475625)scale(0.28 -0.28)">
     <use xlink:href="#DejaVuSans-80"/>
     <use x="60.287109" xlink:href="#DejaVuSans-114"/>
     <use x="101.369141" xlink:href="#DejaVuSans-101"/>
     <use x="162.892578" xlink:href="#DejaVuSans-99"/>
     <use x="217.873047" xlink:href="#DejaVuSans-105"/>
     <use x="245.65625" xlink:href="#DejaVuSans-115"/>
     <use x="297.755859" xlink:href="#DejaVuSans-105"/>
     <use x="325.539062" xlink:href="#DejaVuSans-111"/>
     <use x="386.720703" xlink:href="#DejaVuSans-110"/>
     <use x="450.099609" xlink:href="#DejaVuSans-32"/>
     <use x="481.886719" xlink:href="#DejaVuSans-99"/>
     <use x="536.867188" xlink:href="#DejaVuSans-117"/>
     <use x="600.246094" xlink:href="#DejaVuSans-114"/>
     <use x="641.359375" xlink:href="#DejaVuSans-118"/>
     <use x="700.539062" xlink:href="#DejaVuSans-101"/>
     <use x="762.0625" xlink:href="#DejaVuSans-115"/>
     <use x="814.162109" xlink:href="#DejaVuSans-44"/>
     <use x="845.949219" xlink:href="#DejaVuSans-32"/>
     <use x="877.736328" xlink:href="#DejaVuSans-67"/>
     <use x="947.560547" xlink:href="#DejaVuSans-104"/>
     <use x="1010.939453" xlink:href="#DejaVuSans-101"/>
     <use x="1072.462891" xlink:href="#DejaVuSans-110"/>
    </g>
   </g>
  </g>
 </g>
 <defs>
  <clipPath id="p5dbbe55ef8">
   <rect height="217.44" width="334.8" x="109.1425" y="34.475625"/>
  </clipPath>
 </defs>
</svg>
