<?xml version="1.0" encoding="utf-8" standalone="no"?>
<!DOCTYPE svg PUBLIC "-//W3C//DTD SVG 1.1//EN"
  "http://www.w3.org/Graphics/SVG/1.1/DTD/svg11.dtd">
<!-- Created with matplotlib (https://matplotlib.org/) -->
<svg height="331.6575pt" version="1.1" viewBox="0 0 935.5275 331.6575" width="935.5275pt" xmlns="http://www.w3.org/2000/svg" xmlns:xlink="http://www.w3.org/1999/xlink">
 <defs>
  <style type="text/css">
*{stroke-linecap:butt;stroke-linejoin:round;}
  </style>
 </defs>
 <g id="figure_1">
  <g id="patch_1">
   <path d="M 0 331.6575 
L 935.5275 331.6575 
L 935.5275 0 
L 0 0 
z
" style="fill:none;"/>
  </g>
  <g id="axes_1">
   <g id="patch_2">
    <path d="M 91.3275 257.76 
L 361.3275 257.76 
L 361.3275 36 
L 91.3275 36 
z
" style="fill:none;"/>
   </g>
   <g id="matplotlib.axis_1">
    <g id="xtick_1">
     <g id="line2d_1">
      <defs>
       <path d="M 0 0 
L 0 5 
" id="m70f20f559e" style="stroke:#000000;stroke-width:0.8;"/>
      </defs>
      <g>
       <use style="stroke:#000000;stroke-width:0.8;" x="103.600227" xlink:href="#m70f20f559e" y="257.76"/>
      </g>
     </g>
     <g id="text_1">
      <!-- 0 -->
      <defs>
       <path d="M 31.78125 66.40625 
Q 24.171875 66.40625 20.328125 58.90625 
Q 16.5 51.421875 16.5 36.375 
Q 16.5 21.390625 20.328125 13.890625 
Q 24.171875 6.390625 31.78125 6.390625 
Q 39.453125 6.390625 43.28125 13.890625 
Q 47.125 21.390625 47.125 36.375 
Q 47.125 51.421875 43.28125 58.90625 
Q 39.453125 66.40625 31.78125 66.40625 
z
M 31.78125 74.21875 
Q 44.046875 74.21875 50.515625 64.515625 
Q 56.984375 54.828125 56.984375 36.375 
Q 56.984375 17.96875 50.515625 8.265625 
Q 44.046875 -1.421875 31.78125 -1.421875 
Q 19.53125 -1.421875 13.0625 8.265625 
Q 6.59375 17.96875 6.59375 36.375 
Q 6.59375 54.828125 13.0625 64.515625 
Q 19.53125 74.21875 31.78125 74.21875 
z
" id="DejaVuSans-48"/>
      </defs>
      <g transform="translate(94.692727 287.535625)scale(0.28 -0.28)">
       <use xlink:href="#DejaVuSans-48"/>
      </g>
     </g>
    </g>
    <g id="xtick_2">
     <g id="line2d_2">
      <g>
       <use style="stroke:#000000;stroke-width:0.8;" x="226.3275" xlink:href="#m70f20f559e" y="257.76"/>
      </g>
     </g>
     <g id="text_2">
      <!-- 0.5 -->
      <defs>
       <path d="M 10.6875 12.40625 
L 21 12.40625 
L 21 0 
L 10.6875 0 
z
" id="DejaVuSans-46"/>
       <path d="M 10.796875 72.90625 
L 49.515625 72.90625 
L 49.515625 64.59375 
L 19.828125 64.59375 
L 19.828125 46.734375 
Q 21.96875 47.46875 24.109375 47.828125 
Q 26.265625 48.1875 28.421875 48.1875 
Q 40.625 48.1875 47.75 41.5 
Q 54.890625 34.8125 54.890625 23.390625 
Q 54.890625 11.625 47.5625 5.09375 
Q 40.234375 -1.421875 26.90625 -1.421875 
Q 22.3125 -1.421875 17.546875 -0.640625 
Q 12.796875 0.140625 7.71875 1.703125 
L 7.71875 11.625 
Q 12.109375 9.234375 16.796875 8.0625 
Q 21.484375 6.890625 26.703125 6.890625 
Q 35.15625 6.890625 40.078125 11.328125 
Q 45.015625 15.765625 45.015625 23.390625 
Q 45.015625 31 40.078125 35.4375 
Q 35.15625 39.890625 26.703125 39.890625 
Q 22.75 39.890625 18.8125 39.015625 
Q 14.890625 38.140625 10.796875 36.28125 
z
" id="DejaVuSans-53"/>
      </defs>
      <g transform="translate(204.063125 287.535625)scale(0.28 -0.28)">
       <use xlink:href="#DejaVuSans-48"/>
       <use x="63.623047" xlink:href="#DejaVuSans-46"/>
       <use x="95.410156" xlink:href="#DejaVuSans-53"/>
      </g>
     </g>
    </g>
    <g id="xtick_3">
     <g id="line2d_3">
      <g>
       <use style="stroke:#000000;stroke-width:0.8;" x="349.054773" xlink:href="#m70f20f559e" y="257.76"/>
      </g>
     </g>
     <g id="text_3">
      <!-- 1 -->
      <defs>
       <path d="M 12.40625 8.296875 
L 28.515625 8.296875 
L 28.515625 63.921875 
L 10.984375 60.40625 
L 10.984375 69.390625 
L 28.421875 72.90625 
L 38.28125 72.90625 
L 38.28125 8.296875 
L 54.390625 8.296875 
L 54.390625 0 
L 12.40625 0 
z
" id="DejaVuSans-49"/>
      </defs>
      <g transform="translate(340.147273 287.535625)scale(0.28 -0.28)">
       <use xlink:href="#DejaVuSans-49"/>
      </g>
     </g>
    </g>
    <g id="text_4">
     <!-- Quantiles -->
     <defs>
      <path d="M 39.40625 66.21875 
Q 28.65625 66.21875 22.328125 58.203125 
Q 16.015625 50.203125 16.015625 36.375 
Q 16.015625 22.609375 22.328125 14.59375 
Q 28.65625 6.59375 39.40625 6.59375 
Q 50.140625 6.59375 56.421875 14.59375 
Q 62.703125 22.609375 62.703125 36.375 
Q 62.703125 50.203125 56.421875 58.203125 
Q 50.140625 66.21875 39.40625 66.21875 
z
M 53.21875 1.3125 
L 66.21875 -12.890625 
L 54.296875 -12.890625 
L 43.5 -1.21875 
Q 41.890625 -1.3125 41.03125 -1.359375 
Q 40.1875 -1.421875 39.40625 -1.421875 
Q 24.03125 -1.421875 14.8125 8.859375 
Q 5.609375 19.140625 5.609375 36.375 
Q 5.609375 53.65625 14.8125 63.9375 
Q 24.03125 74.21875 39.40625 74.21875 
Q 54.734375 74.21875 63.90625 63.9375 
Q 73.09375 53.65625 73.09375 36.375 
Q 73.09375 23.6875 67.984375 14.640625 
Q 62.890625 5.609375 53.21875 1.3125 
z
" id="DejaVuSans-81"/>
      <path d="M 8.5 21.578125 
L 8.5 54.6875 
L 17.484375 54.6875 
L 17.484375 21.921875 
Q 17.484375 14.15625 20.5 10.265625 
Q 23.53125 6.390625 29.59375 6.390625 
Q 36.859375 6.390625 41.078125 11.03125 
Q 45.3125 15.671875 45.3125 23.6875 
L 45.3125 54.6875 
L 54.296875 54.6875 
L 54.296875 0 
L 45.3125 0 
L 45.3125 8.40625 
Q 42.046875 3.421875 37.71875 1 
Q 33.40625 -1.421875 27.6875 -1.421875 
Q 18.265625 -1.421875 13.375 4.4375 
Q 8.5 10.296875 8.5 21.578125 
z
M 31.109375 56 
z
" id="DejaVuSans-117"/>
      <path d="M 34.28125 27.484375 
Q 23.390625 27.484375 19.1875 25 
Q 14.984375 22.515625 14.984375 16.5 
Q 14.984375 11.71875 18.140625 8.90625 
Q 21.296875 6.109375 26.703125 6.109375 
Q 34.1875 6.109375 38.703125 11.40625 
Q 43.21875 16.703125 43.21875 25.484375 
L 43.21875 27.484375 
z
M 52.203125 31.203125 
L 52.203125 0 
L 43.21875 0 
L 43.21875 8.296875 
Q 40.140625 3.328125 35.546875 0.953125 
Q 30.953125 -1.421875 24.3125 -1.421875 
Q 15.921875 -1.421875 10.953125 3.296875 
Q 6 8.015625 6 15.921875 
Q 6 25.140625 12.171875 29.828125 
Q 18.359375 34.515625 30.609375 34.515625 
L 43.21875 34.515625 
L 43.21875 35.40625 
Q 43.21875 41.609375 39.140625 45 
Q 35.0625 48.390625 27.6875 48.390625 
Q 23 48.390625 18.546875 47.265625 
Q 14.109375 46.140625 10.015625 43.890625 
L 10.015625 52.203125 
Q 14.9375 54.109375 19.578125 55.046875 
Q 24.21875 56 28.609375 56 
Q 40.484375 56 46.34375 49.84375 
Q 52.203125 43.703125 52.203125 31.203125 
z
" id="DejaVuSans-97"/>
      <path d="M 54.890625 33.015625 
L 54.890625 0 
L 45.90625 0 
L 45.90625 32.71875 
Q 45.90625 40.484375 42.875 44.328125 
Q 39.84375 48.1875 33.796875 48.1875 
Q 26.515625 48.1875 22.3125 43.546875 
Q 18.109375 38.921875 18.109375 30.90625 
L 18.109375 0 
L 9.078125 0 
L 9.078125 54.6875 
L 18.109375 54.6875 
L 18.109375 46.1875 
Q 21.34375 51.125 25.703125 53.5625 
Q 30.078125 56 35.796875 56 
Q 45.21875 56 50.046875 50.171875 
Q 54.890625 44.34375 54.890625 33.015625 
z
" id="DejaVuSans-110"/>
      <path d="M 18.3125 70.21875 
L 18.3125 54.6875 
L 36.8125 54.6875 
L 36.8125 47.703125 
L 18.3125 47.703125 
L 18.3125 18.015625 
Q 18.3125 11.328125 20.140625 9.421875 
Q 21.96875 7.515625 27.59375 7.515625 
L 36.8125 7.515625 
L 36.8125 0 
L 27.59375 0 
Q 17.1875 0 13.234375 3.875 
Q 9.28125 7.765625 9.28125 18.015625 
L 9.28125 47.703125 
L 2.6875 47.703125 
L 2.6875 54.6875 
L 9.28125 54.6875 
L 9.28125 70.21875 
z
" id="DejaVuSans-116"/>
      <path d="M 9.421875 54.6875 
L 18.40625 54.6875 
L 18.40625 0 
L 9.421875 0 
z
M 9.421875 75.984375 
L 18.40625 75.984375 
L 18.40625 64.59375 
L 9.421875 64.59375 
z
" id="DejaVuSans-105"/>
      <path d="M 9.421875 75.984375 
L 18.40625 75.984375 
L 18.40625 0 
L 9.421875 0 
z
" id="DejaVuSans-108"/>
      <path d="M 56.203125 29.59375 
L 56.203125 25.203125 
L 14.890625 25.203125 
Q 15.484375 15.921875 20.484375 11.0625 
Q 25.484375 6.203125 34.421875 6.203125 
Q 39.59375 6.203125 44.453125 7.46875 
Q 49.3125 8.734375 54.109375 11.28125 
L 54.109375 2.78125 
Q 49.265625 0.734375 44.1875 -0.34375 
Q 39.109375 -1.421875 33.890625 -1.421875 
Q 20.796875 -1.421875 13.15625 6.1875 
Q 5.515625 13.8125 5.515625 26.8125 
Q 5.515625 40.234375 12.765625 48.109375 
Q 20.015625 56 32.328125 56 
Q 43.359375 56 49.78125 48.890625 
Q 56.203125 41.796875 56.203125 29.59375 
z
M 47.21875 32.234375 
Q 47.125 39.59375 43.09375 43.984375 
Q 39.0625 48.390625 32.421875 48.390625 
Q 24.90625 48.390625 20.390625 44.140625 
Q 15.875 39.890625 15.1875 32.171875 
z
" id="DejaVuSans-101"/>
      <path d="M 44.28125 53.078125 
L 44.28125 44.578125 
Q 40.484375 46.53125 36.375 47.5 
Q 32.28125 48.484375 27.875 48.484375 
Q 21.1875 48.484375 17.84375 46.4375 
Q 14.5 44.390625 14.5 40.28125 
Q 14.5 37.15625 16.890625 35.375 
Q 19.28125 33.59375 26.515625 31.984375 
L 29.59375 31.296875 
Q 39.15625 29.25 43.1875 25.515625 
Q 47.21875 21.78125 47.21875 15.09375 
Q 47.21875 7.46875 41.1875 3.015625 
Q 35.15625 -1.421875 24.609375 -1.421875 
Q 20.21875 -1.421875 15.453125 -0.5625 
Q 10.6875 0.296875 5.421875 2 
L 5.421875 11.28125 
Q 10.40625 8.6875 15.234375 7.390625 
Q 20.0625 6.109375 24.8125 6.109375 
Q 31.15625 6.109375 34.5625 8.28125 
Q 37.984375 10.453125 37.984375 14.40625 
Q 37.984375 18.0625 35.515625 20.015625 
Q 33.0625 21.96875 24.703125 23.78125 
L 21.578125 24.515625 
Q 13.234375 26.265625 9.515625 29.90625 
Q 5.8125 33.546875 5.8125 39.890625 
Q 5.8125 47.609375 11.28125 51.796875 
Q 16.75 56 26.8125 56 
Q 31.78125 56 36.171875 55.265625 
Q 40.578125 54.546875 44.28125 53.078125 
z
" id="DejaVuSans-115"/>
     </defs>
     <g transform="translate(159.807813 318.634375)scale(0.28 -0.28)">
      <use xlink:href="#DejaVuSans-81"/>
      <use x="78.710938" xlink:href="#DejaVuSans-117"/>
      <use x="142.089844" xlink:href="#DejaVuSans-97"/>
      <use x="203.369141" xlink:href="#DejaVuSans-110"/>
      <use x="266.748047" xlink:href="#DejaVuSans-116"/>
      <use x="305.957031" xlink:href="#DejaVuSans-105"/>
      <use x="333.740234" xlink:href="#DejaVuSans-108"/>
      <use x="361.523438" xlink:href="#DejaVuSans-101"/>
      <use x="423.046875" xlink:href="#DejaVuSans-115"/>
     </g>
    </g>
   </g>
   <g id="matplotlib.axis_2">
    <g id="ytick_1">
     <g id="line2d_4">
      <defs>
       <path d="M 0 0 
L -5 0 
" id="m0b535f3541" style="stroke:#000000;stroke-width:0.8;"/>
      </defs>
      <g>
       <use style="stroke:#000000;stroke-width:0.8;" x="91.3275" xlink:href="#m0b535f3541" y="247.68"/>
      </g>
     </g>
     <g id="text_5">
      <!-- 0.0 -->
      <g transform="translate(38.29875 258.317813)scale(0.28 -0.28)">
       <use xlink:href="#DejaVuSans-48"/>
       <use x="63.623047" xlink:href="#DejaVuSans-46"/>
       <use x="95.410156" xlink:href="#DejaVuSans-48"/>
      </g>
     </g>
    </g>
    <g id="ytick_2">
     <g id="line2d_5">
      <g>
       <use style="stroke:#000000;stroke-width:0.8;" x="91.3275" xlink:href="#m0b535f3541" y="146.88"/>
      </g>
     </g>
     <g id="text_6">
      <!-- 0.5 -->
      <g transform="translate(38.29875 157.517812)scale(0.28 -0.28)">
       <use xlink:href="#DejaVuSans-48"/>
       <use x="63.623047" xlink:href="#DejaVuSans-46"/>
       <use x="95.410156" xlink:href="#DejaVuSans-53"/>
      </g>
     </g>
    </g>
    <g id="ytick_3">
     <g id="line2d_6">
      <g>
       <use style="stroke:#000000;stroke-width:0.8;" x="91.3275" xlink:href="#m0b535f3541" y="46.08"/>
      </g>
     </g>
     <g id="text_7">
      <!-- 1.0 -->
      <g transform="translate(38.29875 56.717812)scale(0.28 -0.28)">
       <use xlink:href="#DejaVuSans-49"/>
       <use x="63.623047" xlink:href="#DejaVuSans-46"/>
       <use x="95.410156" xlink:href="#DejaVuSans-48"/>
      </g>
     </g>
    </g>
    <g id="text_8">
     <!-- p-values -->
     <defs>
      <path d="M 18.109375 8.203125 
L 18.109375 -20.796875 
L 9.078125 -20.796875 
L 9.078125 54.6875 
L 18.109375 54.6875 
L 18.109375 46.390625 
Q 20.953125 51.265625 25.265625 53.625 
Q 29.59375 56 35.59375 56 
Q 45.5625 56 51.78125 48.09375 
Q 58.015625 40.1875 58.015625 27.296875 
Q 58.015625 14.40625 51.78125 6.484375 
Q 45.5625 -1.421875 35.59375 -1.421875 
Q 29.59375 -1.421875 25.265625 0.953125 
Q 20.953125 3.328125 18.109375 8.203125 
z
M 48.6875 27.296875 
Q 48.6875 37.203125 44.609375 42.84375 
Q 40.53125 48.484375 33.40625 48.484375 
Q 26.265625 48.484375 22.1875 42.84375 
Q 18.109375 37.203125 18.109375 27.296875 
Q 18.109375 17.390625 22.1875 11.75 
Q 26.265625 6.109375 33.40625 6.109375 
Q 40.53125 6.109375 44.609375 11.75 
Q 48.6875 17.390625 48.6875 27.296875 
z
" id="DejaVuSans-112"/>
      <path d="M 4.890625 31.390625 
L 31.203125 31.390625 
L 31.203125 23.390625 
L 4.890625 23.390625 
z
" id="DejaVuSans-45"/>
      <path d="M 2.984375 54.6875 
L 12.5 54.6875 
L 29.59375 8.796875 
L 46.6875 54.6875 
L 56.203125 54.6875 
L 35.6875 0 
L 23.484375 0 
z
" id="DejaVuSans-118"/>
     </defs>
     <g transform="translate(28.475625 206.349375)rotate(-90)scale(0.28 -0.28)">
      <use xlink:href="#DejaVuSans-112"/>
      <use x="63.476562" xlink:href="#DejaVuSans-45"/>
      <use x="99.529297" xlink:href="#DejaVuSans-118"/>
      <use x="158.708984" xlink:href="#DejaVuSans-97"/>
      <use x="219.988281" xlink:href="#DejaVuSans-108"/>
      <use x="247.771484" xlink:href="#DejaVuSans-117"/>
      <use x="311.150391" xlink:href="#DejaVuSans-101"/>
      <use x="372.673828" xlink:href="#DejaVuSans-115"/>
     </g>
    </g>
   </g>
   <g id="line2d_7">
    <path clip-path="url(#pb8b518225b)" d="M 103.764873 247.68 
L 159.819274 247.573533 
L 161.24445 247.528493 
L 166.945156 247.413273 
L 168.607861 247.352451 
L 173.358449 247.206735 
L 180.009271 246.811045 
L 183.334683 246.584738 
L 184.759859 246.434254 
L 185.234918 246.304396 
L 187.372682 246.146131 
L 189.510446 245.856195 
L 190.223035 245.692338 
L 191.648211 245.496233 
L 192.12327 245.398968 
L 193.310916 245.344687 
L 193.785975 245.187492 
L 194.498563 245.05747 
L 194.736093 245.03974 
L 195.211152 244.848042 
L 196.636328 244.671675 
L 197.348916 244.149524 
L 198.061504 244.058292 
L 198.536563 243.892869 
L 199.249151 243.710009 
L 199.961739 243.601155 
L 200.436798 243.329898 
L 201.861974 243.167794 
L 203.049621 242.960147 
L 203.52468 242.91389 
L 203.999738 242.830072 
L 204.712327 242.702989 
L 205.424915 242.603265 
L 207.32515 242.270878 
L 207.562679 241.868222 
L 210.650561 241.048954 
L 210.88809 240.869011 
L 211.12562 240.853762 
L 211.363149 240.464909 
L 213.500914 240.187929 
L 214.68856 240.090967 
L 215.401149 239.883296 
L 215.876207 239.794867 
L 216.351266 239.517411 
L 216.826325 239.456177 
L 217.063854 239.286749 
L 217.776442 239.135194 
L 219.439148 238.444876 
L 219.676677 238.18929 
L 220.151736 238.100067 
L 220.626795 237.940613 
L 220.864324 237.771234 
L 222.051971 237.639318 
L 222.764559 237.332748 
L 224.189736 237.179901 
L 224.427265 236.99691 
L 225.139853 236.849841 
L 226.565029 236.295214 
L 227.040088 236.239273 
L 227.515147 236.095167 
L 227.990206 236.062961 
L 228.940323 235.565746 
L 229.415382 235.421856 
L 229.652911 235.231693 
L 230.840558 235.04917 
L 231.078088 234.783217 
L 231.315617 234.735909 
L 231.790676 234.255014 
L 232.503264 234.176404 
L 232.978323 233.867147 
L 234.165969 233.726246 
L 234.403499 233.410338 
L 235.353616 233.10081 
L 235.591146 232.940879 
L 236.066204 232.483697 
L 236.778793 232.137669 
L 237.96644 231.409456 
L 238.203969 231.346516 
L 238.441498 230.96082 
L 239.391616 230.822605 
L 239.866675 230.347839 
L 240.341733 230.220582 
L 240.816792 229.894145 
L 242.241968 229.448725 
L 242.717027 229.205216 
L 242.954556 228.981167 
L 243.429615 228.892317 
L 243.667145 228.650599 
L 244.142203 228.470233 
L 244.617262 228.238303 
L 245.56738 227.895289 
L 246.042438 227.478284 
L 246.279968 227.339714 
L 247.467615 225.645016 
L 247.942673 225.432111 
L 248.180203 224.849489 
L 248.417732 224.801899 
L 248.892791 224.419027 
L 249.13032 224.351056 
L 249.605379 223.116982 
L 251.030555 222.235348 
L 251.268085 222.175476 
L 251.743143 221.59485 
L 251.980673 221.387223 
L 252.455732 221.196513 
L 253.16832 220.589721 
L 253.643378 219.238795 
L 254.355967 218.873191 
L 254.593496 218.726721 
L 255.068555 218.297256 
L 255.306084 218.283206 
L 255.781143 217.953745 
L 256.018672 217.936472 
L 256.256202 217.757597 
L 256.493731 217.123519 
L 257.206319 216.855462 
L 257.681378 216.428715 
L 257.918907 216.338913 
L 258.393966 215.239247 
L 258.869025 215.026835 
L 259.819142 214.81227 
L 260.294201 214.350376 
L 261.006789 214.032933 
L 261.481848 213.748681 
L 261.956907 213.712921 
L 262.194436 213.281415 
L 262.431965 213.223898 
L 262.669495 212.646007 
L 262.907024 212.636642 
L 263.857142 211.549486 
L 265.757377 210.848864 
L 265.994906 210.181583 
L 267.420082 209.308069 
L 268.3702 207.970678 
L 269.557847 207.892677 
L 269.795376 207.648017 
L 270.032906 207.211435 
L 270.745494 206.984032 
L 270.983023 206.523977 
L 271.220552 206.422504 
L 271.695611 205.829322 
L 272.17067 205.737846 
L 272.883258 205.47286 
L 273.833376 204.258989 
L 274.070905 203.774489 
L 274.545964 203.530032 
L 274.783493 203.438308 
L 275.021022 202.499541 
L 275.496081 202.478962 
L 275.97114 202.027331 
L 276.683728 201.906913 
L 276.921257 201.859675 
L 277.396316 201.5842 
L 277.633846 201.487278 
L 277.871375 201.00946 
L 278.346434 200.787968 
L 278.821492 199.397667 
L 279.059022 199.360754 
L 279.296551 199.185983 
L 279.77161 198.492072 
L 280.009139 198.418892 
L 280.484198 197.716713 
L 280.721728 197.646946 
L 280.959257 197.161224 
L 281.196786 197.125608 
L 281.434316 196.944806 
L 281.671845 196.936559 
L 282.146904 196.711143 
L 282.384433 196.653318 
L 282.859492 195.491597 
L 283.097021 195.418891 
L 283.334551 194.994907 
L 283.57208 194.89552 
L 283.809609 194.335735 
L 284.047139 194.268275 
L 284.522198 193.62015 
L 284.759727 193.219357 
L 285.472315 193.035477 
L 285.709844 192.711546 
L 285.947374 191.667262 
L 286.897491 191.472882 
L 287.135021 190.684688 
L 288.322668 189.652675 
L 288.797726 189.549365 
L 289.510314 188.848229 
L 289.747844 188.735154 
L 291.41055 186.804866 
L 291.648079 186.696984 
L 291.885608 185.944128 
L 292.123138 185.882706 
L 292.598196 185.066421 
L 292.835726 185.025146 
L 293.310785 184.605769 
L 293.548314 184.437757 
L 294.260902 182.423561 
L 294.498431 182.217028 
L 294.97349 181.180606 
L 295.21102 180.997243 
L 295.448549 179.855628 
L 295.923608 179.103215 
L 296.398666 178.778341 
L 296.636196 178.684488 
L 296.873725 178.458508 
L 297.823843 178.258444 
L 298.061372 177.828069 
L 298.536431 177.605051 
L 298.77396 176.401634 
L 299.01149 176.186334 
L 299.486548 176.090458 
L 300.674195 173.561158 
L 301.624313 172.683277 
L 301.861842 172.676497 
L 302.099372 172.461813 
L 302.336901 171.839495 
L 302.81196 171.75459 
L 303.049489 170.948611 
L 303.287018 170.880128 
L 303.524548 168.059299 
L 303.762077 167.875281 
L 304.237136 167.04961 
L 304.474665 166.920965 
L 304.949724 166.062475 
L 305.187253 164.819764 
L 305.424783 164.777774 
L 305.662312 164.30612 
L 305.899842 163.141701 
L 306.3749 162.666868 
L 306.61243 162.620205 
L 306.849959 162.009783 
L 307.087488 161.866802 
L 307.325018 160.393391 
L 307.562547 160.330894 
L 308.275135 159.614228 
L 308.987723 158.96314 
L 309.700312 158.787439 
L 309.937841 158.352056 
L 310.4129 157.021421 
L 311.125488 155.303567 
L 311.363017 155.250195 
L 311.600547 154.56555 
L 311.838076 154.559949 
L 312.550664 153.377648 
L 313.263252 153.204146 
L 313.500782 151.907722 
L 313.738311 151.751806 
L 313.97584 150.741594 
L 314.21337 150.727838 
L 314.688429 150.040112 
L 314.925958 149.723553 
L 315.401017 148.325536 
L 315.638546 148.152676 
L 315.876075 147.752965 
L 316.113605 145.67242 
L 316.351134 145.19402 
L 316.588664 143.968078 
L 316.826193 143.7643 
L 317.301252 141.468271 
L 318.01384 140.017593 
L 318.963957 137.966459 
L 319.201487 137.575036 
L 319.439016 135.989361 
L 319.676545 135.928404 
L 319.914075 135.446285 
L 320.389134 135.35619 
L 320.626663 133.606505 
L 320.864192 133.174146 
L 321.101722 131.753537 
L 321.339251 131.333682 
L 321.57678 131.278775 
L 321.81431 131.05761 
L 322.051839 130.550756 
L 322.289369 130.469145 
L 322.764427 129.606509 
L 323.001957 128.032125 
L 323.239486 127.382622 
L 323.714545 127.172171 
L 324.427133 124.089329 
L 324.664662 123.816524 
L 324.902192 123.022423 
L 325.139721 122.797246 
L 325.377251 121.925216 
L 325.61478 121.525492 
L 325.852309 120.278942 
L 326.089839 117.8027 
L 326.327368 117.638445 
L 326.564897 115.424978 
L 327.277486 114.909263 
L 327.515015 114.859274 
L 327.752544 114.160962 
L 327.990074 113.995019 
L 328.227603 113.600078 
L 328.465132 112.868716 
L 328.702662 112.541464 
L 329.177721 110.893928 
L 329.41525 110.708423 
L 329.652779 110.259679 
L 329.890309 108.712069 
L 330.127838 108.664385 
L 330.365367 107.792337 
L 331.077956 106.683639 
L 331.315485 105.984501 
L 331.553014 105.952836 
L 331.790544 105.589787 
L 332.028073 104.565655 
L 332.503132 104.37959 
L 332.740661 102.710799 
L 332.978191 102.347533 
L 333.21572 101.603865 
L 333.453249 101.432377 
L 334.640896 95.754258 
L 334.878426 95.512039 
L 335.591014 92.69442 
L 335.828543 92.63379 
L 336.066073 92.429435 
L 336.303602 91.736553 
L 336.541131 90.476217 
L 336.778661 90.0698 
L 337.253719 88.622117 
L 337.728778 84.468098 
L 337.966308 84.210993 
L 338.203837 81.594721 
L 338.916425 80.516375 
L 339.153954 80.387635 
L 339.391484 79.859087 
L 339.866543 78.078568 
L 340.341601 77.022712 
L 340.81666 75.038574 
L 341.766778 71.694882 
L 342.004307 69.273834 
L 342.241836 68.739341 
L 342.479366 68.738756 
L 342.716895 67.566423 
L 342.954424 64.943506 
L 343.191954 64.850823 
L 343.429483 64.419092 
L 343.667013 63.218784 
L 344.142071 59.995321 
L 344.61713 58.666399 
L 344.85466 58.387503 
L 345.092189 58.358896 
L 345.329718 57.676328 
L 345.567248 56.252517 
L 345.804777 56.045273 
L 346.042306 55.342094 
L 346.279836 53.620393 
L 346.517365 53.415015 
L 346.754895 51.134652 
L 346.992424 50.531002 
L 347.229953 50.39682 
L 347.705012 49.545675 
L 347.942541 48.000558 
L 348.4176 47.589971 
L 348.65513 46.720924 
L 348.890127 46.521677 
L 348.890127 46.521677 
" style="fill:none;stroke:#b8860b;stroke-linecap:square;stroke-opacity:0.75;stroke-width:2;"/>
   </g>
   <g id="line2d_8">
    <path clip-path="url(#pb8b518225b)" d="M 106.164558 247.68 
L 109.823045 247.68 
L 113.521599 247.68 
L 117.220153 247.68 
L 120.918707 247.68 
L 124.617261 247.68 
L 128.315815 247.68 
L 132.014369 247.68 
L 135.712924 247.68 
L 139.411478 247.68 
L 143.110032 247.68 
L 146.808586 247.68 
L 150.50714 247.68 
L 154.205694 247.68 
L 157.904248 247.68 
L 161.602803 247.68 
L 165.301357 247.68 
L 168.999911 247.68 
L 172.698465 247.679999 
L 176.397019 247.679999 
L 180.095573 247.679997 
L 183.794127 247.679997 
L 187.492682 247.679994 
L 191.191236 247.679994 
L 194.88979 247.679982 
L 198.588344 247.679851 
L 202.286898 247.679786 
L 205.985452 247.679784 
L 209.684006 247.679766 
L 213.382561 247.679638 
L 217.081115 247.679242 
L 220.779669 247.67892 
L 224.478223 247.677917 
L 228.176777 247.677332 
L 231.875331 247.67695 
L 235.573885 247.67612 
L 239.272439 247.669815 
L 242.970994 247.646956 
L 246.669548 247.641868 
L 250.368102 247.607615 
L 254.066656 247.600378 
L 257.76521 247.574686 
L 261.463764 247.550412 
L 265.162318 247.497142 
L 268.860873 247.489018 
L 272.559427 247.475793 
L 276.257981 247.363151 
L 279.956535 247.259929 
L 283.655089 247.146084 
L 287.353643 246.609889 
L 291.052197 245.496233 
L 294.750752 243.796497 
L 298.449306 243.032228 
L 302.14786 240.221311 
L 305.846414 239.286749 
L 309.544968 237.179901 
L 313.243522 234.783217 
L 316.942076 233.10081 
L 320.640631 227.641367 
L 324.339185 227.339714 
L 328.037739 217.936472 
L 331.736293 210.018609 
L 335.434847 166.427409 
L 339.133401 105.589787 
L 342.831955 77.464228 
L 346.490442 46.720924 
" style="fill:none;stroke:#8b0000;stroke-linecap:square;stroke-opacity:0.75;stroke-width:2;"/>
   </g>
   <g id="line2d_9">
    <path clip-path="url(#pb8b518225b)" d="M 104.379429 247.68 
L 215.648966 247.574686 
L 224.641416 247.475793 
L 237.006034 247.332761 
L 245.998485 247.094977 
L 247.122541 246.917407 
L 253.866878 246.609889 
L 254.990935 246.434254 
L 256.114991 246.071081 
L 257.239047 246.067747 
L 258.363103 245.496233 
L 259.48716 245.221477 
L 260.611216 245.116872 
L 262.859328 244.468972 
L 263.983385 243.796497 
L 265.107441 243.313934 
L 266.231497 243.239712 
L 267.355554 243.032228 
L 268.47961 242.702989 
L 272.975835 242.340003 
L 274.099891 240.853762 
L 275.223947 240.221311 
L 276.348004 239.877686 
L 277.47206 239.286749 
L 278.596116 239.135194 
L 279.720172 237.262608 
L 280.844229 237.253688 
L 281.968285 234.783217 
L 283.092341 234.255014 
L 285.340454 234.247876 
L 286.46451 233.867147 
L 287.588566 233.10081 
L 289.836679 230.96082 
L 290.960735 230.877119 
L 292.084791 228.892317 
L 293.208848 228.604123 
L 294.332904 227.641367 
L 295.45696 227.339714 
L 297.705073 218.297256 
L 298.829129 217.936472 
L 299.953185 217.757597 
L 301.077241 214.19642 
L 302.201298 212.636642 
L 303.325354 210.035901 
L 304.44941 210.018609 
L 305.573466 208.247005 
L 306.697523 207.211435 
L 307.821579 207.141321 
L 308.945635 205.170632 
L 310.069691 204.258989 
L 312.317804 200.787968 
L 313.44186 197.646946 
L 314.565916 191.667262 
L 315.689973 189.687128 
L 316.814029 188.735154 
L 317.938085 185.882706 
L 319.062142 177.605051 
L 320.186198 171.758016 
L 321.310254 168.059299 
L 322.43431 166.427409 
L 323.558367 162.895727 
L 324.682423 153.377648 
L 325.806479 151.907722 
L 326.930535 151.751806 
L 328.054592 150.741594 
L 329.178648 150.040112 
L 330.302704 140.017593 
L 331.42676 127.269169 
L 332.550817 127.172171 
L 333.674873 108.712069 
L 334.798929 105.589787 
L 335.922985 77.464228 
L 337.047042 71.694882 
L 338.171098 69.273834 
L 339.295154 68.739341 
L 340.419211 64.850823 
L 341.543267 59.995321 
L 342.667323 53.620393 
L 343.791379 53.415015 
L 344.915436 51.134652 
L 347.163548 47.839499 
L 348.275571 46.720924 
L 348.275571 46.720924 
" style="fill:none;stroke:#000080;stroke-linecap:square;stroke-opacity:0.75;stroke-width:2;"/>
   </g>
   <g id="line2d_10">
    <path clip-path="url(#pb8b518225b)" d="M 103.600227 237.6 
L 349.054773 237.6 
" style="fill:none;stroke:#ff0000;stroke-dasharray:3.7,1.6;stroke-dashoffset:0;"/>
   </g>
   <g id="patch_3">
    <path d="M 91.3275 257.76 
L 91.3275 36 
" style="fill:none;stroke:#000000;stroke-linecap:square;stroke-linejoin:miter;stroke-width:0.8;"/>
   </g>
   <g id="patch_4">
    <path d="M 91.3275 257.76 
L 361.3275 257.76 
" style="fill:none;stroke:#000000;stroke-linecap:square;stroke-linejoin:miter;stroke-width:0.8;"/>
   </g>
   <g id="text_9">
    <!-- Chen -->
    <defs>
     <path d="M 64.40625 67.28125 
L 64.40625 56.890625 
Q 59.421875 61.53125 53.78125 63.8125 
Q 48.140625 66.109375 41.796875 66.109375 
Q 29.296875 66.109375 22.65625 58.46875 
Q 16.015625 50.828125 16.015625 36.375 
Q 16.015625 21.96875 22.65625 14.328125 
Q 29.296875 6.6875 41.796875 6.6875 
Q 48.140625 6.6875 53.78125 8.984375 
Q 59.421875 11.28125 64.40625 15.921875 
L 64.40625 5.609375 
Q 59.234375 2.09375 53.4375 0.328125 
Q 47.65625 -1.421875 41.21875 -1.421875 
Q 24.65625 -1.421875 15.125 8.703125 
Q 5.609375 18.84375 5.609375 36.375 
Q 5.609375 53.953125 15.125 64.078125 
Q 24.65625 74.21875 41.21875 74.21875 
Q 47.75 74.21875 53.53125 72.484375 
Q 59.328125 70.75 64.40625 67.28125 
z
" id="DejaVuSans-67"/>
     <path d="M 54.890625 33.015625 
L 54.890625 0 
L 45.90625 0 
L 45.90625 32.71875 
Q 45.90625 40.484375 42.875 44.328125 
Q 39.84375 48.1875 33.796875 48.1875 
Q 26.515625 48.1875 22.3125 43.546875 
Q 18.109375 38.921875 18.109375 30.90625 
L 18.109375 0 
L 9.078125 0 
L 9.078125 75.984375 
L 18.109375 75.984375 
L 18.109375 46.1875 
Q 21.34375 51.125 25.703125 53.5625 
Q 30.078125 56 35.796875 56 
Q 45.21875 56 50.046875 50.171875 
Q 54.890625 44.34375 54.890625 33.015625 
z
" id="DejaVuSans-104"/>
    </defs>
    <g transform="translate(115.872955 67.355625)scale(0.28 -0.28)">
     <use xlink:href="#DejaVuSans-67"/>
     <use x="69.824219" xlink:href="#DejaVuSans-104"/>
     <use x="133.203125" xlink:href="#DejaVuSans-101"/>
     <use x="194.726562" xlink:href="#DejaVuSans-110"/>
    </g>
   </g>
  </g>
  <g id="axes_2">
   <g id="patch_5">
    <path d="M 374.8275 257.76 
L 644.8275 257.76 
L 644.8275 36 
L 374.8275 36 
z
" style="fill:none;"/>
   </g>
   <g id="matplotlib.axis_3">
    <g id="xtick_4">
     <g id="line2d_11">
      <g>
       <use style="stroke:#000000;stroke-width:0.8;" x="387.100227" xlink:href="#m70f20f559e" y="257.76"/>
      </g>
     </g>
     <g id="text_10">
      <!-- 0 -->
      <g transform="translate(378.192727 287.535625)scale(0.28 -0.28)">
       <use xlink:href="#DejaVuSans-48"/>
      </g>
     </g>
    </g>
    <g id="xtick_5">
     <g id="line2d_12">
      <g>
       <use style="stroke:#000000;stroke-width:0.8;" x="509.8275" xlink:href="#m70f20f559e" y="257.76"/>
      </g>
     </g>
     <g id="text_11">
      <!-- 0.5 -->
      <g transform="translate(487.563125 287.535625)scale(0.28 -0.28)">
       <use xlink:href="#DejaVuSans-48"/>
       <use x="63.623047" xlink:href="#DejaVuSans-46"/>
       <use x="95.410156" xlink:href="#DejaVuSans-53"/>
      </g>
     </g>
    </g>
    <g id="xtick_6">
     <g id="line2d_13">
      <g>
       <use style="stroke:#000000;stroke-width:0.8;" x="632.554773" xlink:href="#m70f20f559e" y="257.76"/>
      </g>
     </g>
     <g id="text_12">
      <!-- 1 -->
      <g transform="translate(623.647273 287.535625)scale(0.28 -0.28)">
       <use xlink:href="#DejaVuSans-49"/>
      </g>
     </g>
    </g>
    <g id="text_13">
     <!-- Quantiles -->
     <g transform="translate(443.307812 318.634375)scale(0.28 -0.28)">
      <use xlink:href="#DejaVuSans-81"/>
      <use x="78.710938" xlink:href="#DejaVuSans-117"/>
      <use x="142.089844" xlink:href="#DejaVuSans-97"/>
      <use x="203.369141" xlink:href="#DejaVuSans-110"/>
      <use x="266.748047" xlink:href="#DejaVuSans-116"/>
      <use x="305.957031" xlink:href="#DejaVuSans-105"/>
      <use x="333.740234" xlink:href="#DejaVuSans-108"/>
      <use x="361.523438" xlink:href="#DejaVuSans-101"/>
      <use x="423.046875" xlink:href="#DejaVuSans-115"/>
     </g>
    </g>
   </g>
   <g id="matplotlib.axis_4">
    <g id="ytick_4"/>
    <g id="ytick_5"/>
    <g id="ytick_6"/>
   </g>
   <g id="line2d_14">
    <path clip-path="url(#p0ee6ab39b5)" d="M 387.338731 247.68 
L 402.474577 247.577042 
L 405.227216 247.402802 
L 408.668015 247.241145 
L 410.732494 246.851159 
L 411.076574 246.850131 
L 412.108813 246.578433 
L 413.141053 246.446034 
L 413.829213 246.211 
L 416.237772 245.707139 
L 418.990411 245.601367 
L 420.022651 245.305988 
L 420.71081 245.221367 
L 421.39897 245.045367 
L 423.463449 244.356334 
L 423.807529 244.056676 
L 426.216089 243.598099 
L 426.904248 243.475697 
L 427.248328 243.444013 
L 427.592408 243.294778 
L 428.624648 243.179247 
L 429.656887 242.86216 
L 430.000967 242.813542 
L 430.689127 242.508076 
L 432.409526 242.046306 
L 432.753606 241.615252 
L 433.785846 241.20878 
L 434.129926 240.940431 
L 436.538485 240.605202 
L 437.226645 240.385704 
L 437.914805 240.224482 
L 438.258884 240.043188 
L 438.602964 239.615897 
L 440.323364 239.231287 
L 441.011523 238.452314 
L 442.387843 238.065316 
L 442.731923 237.862925 
L 443.420083 237.790669 
L 443.764163 237.395537 
L 444.796402 237.002415 
L 445.828642 236.825256 
L 446.516802 236.436616 
L 446.860881 236.398862 
L 447.204961 236.16419 
L 447.893121 236.109793 
L 449.269441 235.38854 
L 449.613521 235.355212 
L 449.9576 235.204001 
L 450.30168 234.915471 
L 450.98984 234.741621 
L 451.33392 234.392698 
L 451.678 233.736672 
L 452.02208 233.519018 
L 453.054319 233.298842 
L 453.398399 232.930757 
L 454.430639 232.348937 
L 454.774719 231.375559 
L 455.462879 231.228401 
L 455.806958 230.947663 
L 456.495118 230.86161 
L 456.839198 230.497963 
L 457.527358 230.476568 
L 457.871438 230.263894 
L 458.215518 229.766086 
L 458.903677 229.347047 
L 459.591837 229.066716 
L 462.344476 228.650353 
L 463.032636 227.636815 
L 465.441195 227.309067 
L 465.785275 226.666394 
L 466.817515 225.945869 
L 467.161595 225.689562 
L 467.849754 225.386388 
L 468.193834 224.894927 
L 469.226074 224.770533 
L 469.570154 224.437524 
L 470.946473 223.910859 
L 472.322793 223.775106 
L 473.010953 223.095609 
L 473.699112 222.876025 
L 474.043192 222.205866 
L 474.387272 222.006604 
L 474.731352 221.038677 
L 475.075432 220.776592 
L 476.451751 220.593344 
L 476.795831 220.456738 
L 477.139911 219.244045 
L 478.172151 218.597225 
L 478.860311 218.508099 
L 479.89255 217.98473 
L 480.23663 217.972191 
L 480.92479 217.016893 
L 482.301109 216.317841 
L 482.989269 215.750231 
L 483.333349 215.604949 
L 483.677429 214.390201 
L 484.021509 214.192953 
L 484.365589 214.176373 
L 485.053748 213.811147 
L 486.085988 213.301772 
L 486.430068 213.181354 
L 486.774148 212.916182 
L 487.118228 212.847216 
L 487.462308 212.586857 
L 487.806388 212.568564 
L 488.150467 212.22445 
L 488.494547 212.177026 
L 488.838627 211.916769 
L 489.182707 211.363875 
L 489.526787 211.162111 
L 489.870867 210.789314 
L 490.214947 209.931385 
L 490.903106 209.550376 
L 491.247186 209.483857 
L 491.591266 209.028213 
L 491.935346 208.951856 
L 492.279426 208.181396 
L 493.311666 207.89003 
L 493.655746 207.743081 
L 493.999825 207.39524 
L 494.343905 206.54296 
L 494.687985 206.493788 
L 495.032065 206.309001 
L 495.376145 205.334465 
L 495.720225 205.126859 
L 496.064305 205.063893 
L 496.408385 204.499461 
L 496.752464 204.178969 
L 497.440624 204.024389 
L 498.472864 203.834051 
L 499.161024 203.459717 
L 499.505104 203.408778 
L 500.193263 202.748689 
L 501.225503 202.191996 
L 501.569583 202.118569 
L 501.913663 201.608544 
L 502.601822 201.331856 
L 502.945902 201.044578 
L 503.289982 200.916914 
L 503.634062 200.449827 
L 505.010382 199.762252 
L 505.354462 198.599348 
L 505.698541 197.92932 
L 506.042621 197.865029 
L 506.386701 197.181317 
L 506.730781 197.170746 
L 507.074861 196.938369 
L 508.107101 196.65891 
L 508.45118 196.355552 
L 508.79526 196.330578 
L 509.48342 196.055291 
L 509.8275 195.447319 
L 510.51566 195.022428 
L 510.85974 194.465314 
L 511.547899 194.163656 
L 512.236059 194.026956 
L 513.268299 192.944606 
L 514.300538 192.396028 
L 514.644618 192.059491 
L 514.988698 192.054168 
L 515.676858 191.817052 
L 516.020938 191.488141 
L 516.709098 191.374545 
L 517.397257 191.305339 
L 518.429497 191.186504 
L 518.773577 190.767194 
L 519.461737 190.660866 
L 520.149896 188.743974 
L 521.526216 188.385027 
L 521.870296 187.798169 
L 522.214376 187.593456 
L 522.558456 187.216463 
L 522.902536 187.047735 
L 523.246615 185.956632 
L 523.934775 184.698797 
L 524.967015 183.784599 
L 525.311095 183.164272 
L 525.655175 182.99822 
L 525.999254 182.312781 
L 526.687414 182.028197 
L 527.031494 181.950457 
L 527.375574 181.137397 
L 527.719654 180.684017 
L 528.063734 180.495073 
L 528.407814 179.296906 
L 529.095973 178.976853 
L 529.440053 178.619836 
L 529.784133 178.604051 
L 530.128213 178.329611 
L 530.472293 177.81163 
L 530.816373 176.762613 
L 531.160453 176.679418 
L 531.848612 176.015355 
L 532.192692 175.39965 
L 532.536772 175.366272 
L 533.224932 174.637444 
L 533.569012 174.46246 
L 534.257172 173.663087 
L 534.601252 172.390145 
L 535.977571 170.711755 
L 536.321651 169.306861 
L 537.009811 168.844662 
L 537.353891 168.402251 
L 538.04205 166.995644 
L 538.38613 166.987211 
L 538.73021 166.708256 
L 539.41837 166.627079 
L 539.76245 166.547526 
L 540.10653 166.28749 
L 540.794689 166.047368 
L 541.482849 165.636101 
L 541.826929 165.582146 
L 542.171009 165.350255 
L 542.515089 164.559429 
L 542.859169 164.213788 
L 543.203249 164.191963 
L 543.547328 164.028627 
L 544.235488 163.266067 
L 544.579568 163.204474 
L 545.267728 162.735477 
L 545.611808 162.661469 
L 546.644047 162.061415 
L 546.988127 162.001385 
L 548.364447 160.685162 
L 548.708527 160.68154 
L 549.396686 160.133698 
L 549.740766 159.503925 
L 550.428926 159.137837 
L 550.773006 158.269365 
L 551.117086 158.159567 
L 551.461166 157.415724 
L 552.149326 157.107183 
L 552.493405 156.562454 
L 553.181565 156.352033 
L 553.525645 155.768827 
L 553.869725 155.694858 
L 554.213805 155.384922 
L 554.557885 154.875514 
L 554.901965 154.783654 
L 555.246045 154.135888 
L 556.622364 152.788113 
L 556.966444 152.743606 
L 557.310524 151.980597 
L 557.654604 151.544682 
L 557.998684 151.493112 
L 559.030923 150.148538 
L 559.719083 150.021527 
L 560.751323 149.587038 
L 561.095403 148.290133 
L 562.815802 147.03978 
L 563.159882 146.988258 
L 563.503962 146.777232 
L 564.536201 145.654934 
L 564.880281 145.627123 
L 565.912521 144.911113 
L 566.256601 144.377377 
L 566.944761 143.979681 
L 567.28884 143.071187 
L 567.63292 142.775496 
L 568.32108 141.802302 
L 568.66516 140.693895 
L 569.35332 139.742273 
L 569.6974 139.727142 
L 570.041479 139.372434 
L 570.385559 138.72646 
L 570.729639 138.642197 
L 571.073719 137.816759 
L 571.417799 137.523207 
L 571.761879 136.235969 
L 572.105959 136.015013 
L 572.450039 135.475064 
L 573.138198 135.365621 
L 573.826358 134.389012 
L 574.514518 134.016722 
L 574.858598 133.725105 
L 575.202678 132.803865 
L 575.546758 131.035733 
L 576.578997 130.501814 
L 576.923077 129.868552 
L 577.611237 129.325996 
L 577.955317 129.325039 
L 578.299397 129.1631 
L 578.643477 127.490067 
L 579.331636 127.231496 
L 580.363876 127.097237 
L 580.707956 126.324554 
L 581.396116 125.933771 
L 581.740195 125.383362 
L 582.084275 125.383204 
L 582.428355 125.159253 
L 582.772435 125.155477 
L 583.116515 124.694514 
L 583.460595 124.516815 
L 583.804675 123.283393 
L 584.492835 122.966283 
L 585.180994 121.80424 
L 585.525074 121.797986 
L 585.869154 121.320694 
L 587.933633 119.885683 
L 588.277713 119.602886 
L 588.621793 118.102482 
L 588.965873 118.096084 
L 589.309953 117.976695 
L 589.998113 116.523296 
L 590.686272 116.415745 
L 591.030352 116.101129 
L 591.718512 115.943699 
L 592.750752 111.944217 
L 593.094832 111.667584 
L 593.438911 110.306464 
L 593.782991 110.068568 
L 594.815231 108.550882 
L 595.159311 107.833398 
L 595.503391 107.692449 
L 596.53563 106.471265 
L 596.87971 103.922597 
L 597.22379 103.807406 
L 597.56787 103.536741 
L 597.91195 103.525603 
L 598.25603 101.617367 
L 598.60011 100.780869 
L 598.94419 100.519204 
L 599.976429 98.843995 
L 601.008669 97.763387 
L 601.352749 96.868739 
L 601.696829 96.597326 
L 602.040909 95.648168 
L 602.384988 94.076866 
L 602.729068 93.99059 
L 603.073148 93.639084 
L 603.417228 93.025454 
L 603.761308 92.979104 
L 604.105388 92.435087 
L 604.449468 92.148431 
L 604.793548 90.84179 
L 605.481707 90.391048 
L 605.825787 90.245221 
L 606.169867 89.589159 
L 606.513947 89.456562 
L 607.202107 88.736235 
L 607.890267 87.237927 
L 608.234346 86.84325 
L 608.578426 86.786638 
L 608.922506 86.557619 
L 610.642906 83.748488 
L 610.986985 83.611319 
L 611.675145 83.056229 
L 612.019225 81.907954 
L 612.363305 81.82512 
L 613.395545 80.203225 
L 613.739625 79.098097 
L 614.083704 78.901002 
L 615.115944 77.298544 
L 615.460024 76.961652 
L 615.804104 76.042291 
L 616.148184 75.873137 
L 616.492264 74.973413 
L 616.836343 72.802072 
L 617.180423 72.217743 
L 617.524503 70.072976 
L 618.212663 68.920363 
L 618.900823 68.62185 
L 619.588983 66.623267 
L 619.933062 66.576902 
L 620.277142 65.256567 
L 620.965302 64.093994 
L 621.309382 64.023601 
L 621.653462 63.171383 
L 621.997542 62.934038 
L 622.685701 61.642817 
L 623.373861 61.180449 
L 623.717941 60.219864 
L 624.062021 59.648929 
L 624.406101 59.4557 
L 624.750181 58.783151 
L 625.094261 58.744695 
L 625.438341 57.397955 
L 626.47058 56.129502 
L 626.81466 54.772303 
L 627.15874 54.742527 
L 627.50282 54.015114 
L 627.8469 52.202741 
L 628.19098 52.097096 
L 628.535059 51.788993 
L 628.879139 51.201801 
L 629.223219 50.998648 
L 629.567299 50.929712 
L 629.911379 50.567089 
L 630.255459 49.882287 
L 630.599539 48.661347 
L 630.943619 48.324003 
L 631.287699 47.75086 
L 631.975858 47.32548 
L 632.316269 46.334773 
L 632.316269 46.334773 
" style="fill:none;stroke:#b8860b;stroke-linecap:square;stroke-opacity:0.75;stroke-width:2;"/>
   </g>
   <g id="line2d_15">
    <path clip-path="url(#p0ee6ab39b5)" d="M 387.674339 247.68 
L 414.168431 247.601048 
L 414.996648 247.467074 
L 419.96595 247.362124 
L 424.935253 246.900076 
L 425.76347 246.578433 
L 427.419904 246.446034 
L 429.076338 246.211 
L 435.702074 245.650584 
L 437.358508 245.601367 
L 439.014942 245.221367 
L 439.843159 245.181065 
L 442.327811 244.411177 
L 443.156028 244.356334 
L 443.984245 243.983424 
L 445.640679 243.741242 
L 453.094632 243.043899 
L 453.922849 242.892846 
L 454.751066 242.86216 
L 455.579283 242.615215 
L 458.892152 242.09064 
L 460.548586 241.20878 
L 461.376803 240.833576 
L 464.689671 240.043188 
L 465.517888 239.327521 
L 467.174322 238.366923 
L 470.48719 237.80081 
L 471.315407 237.395537 
L 473.800058 236.96347 
L 474.628275 236.947058 
L 475.456493 236.16419 
L 476.28471 235.899648 
L 477.112927 235.79469 
L 478.769361 235.204001 
L 479.597578 234.392698 
L 480.425795 232.737561 
L 481.254012 232.348937 
L 482.082229 231.375559 
L 482.910446 230.947663 
L 483.738663 229.610471 
L 485.395097 229.066716 
L 489.536182 228.8078 
L 490.364399 228.076256 
L 491.192616 227.636815 
L 492.020833 227.58877 
L 492.849051 227.381167 
L 493.677268 227.334943 
L 494.505485 226.666394 
L 495.333702 225.689562 
L 496.990136 225.386388 
L 497.818353 224.894927 
L 499.474787 224.770533 
L 500.303004 223.926184 
L 501.959438 223.808004 
L 502.787655 223.355239 
L 503.615872 223.095609 
L 504.444089 222.205866 
L 505.272306 222.006604 
L 506.100523 220.722695 
L 507.756957 220.593344 
L 508.585174 218.59064 
L 510.241609 218.318141 
L 511.069826 217.016893 
L 512.72626 216.720002 
L 513.554477 216.317841 
L 514.382694 215.750231 
L 515.210911 214.192953 
L 516.039128 214.176373 
L 516.867345 213.532658 
L 518.523779 212.916182 
L 519.351996 212.847216 
L 520.180213 212.568564 
L 521.00843 210.789314 
L 521.836647 209.693423 
L 522.664864 207.89003 
L 523.493081 207.743081 
L 524.321298 206.54296 
L 525.149515 206.309001 
L 526.805949 203.965944 
L 527.634167 203.613129 
L 528.462384 201.608544 
L 529.290601 201.331856 
L 530.118818 199.907931 
L 530.947035 197.181317 
L 531.775252 196.355552 
L 532.603469 195.022428 
L 534.259903 193.289688 
L 535.08812 192.944606 
L 535.916337 192.396028 
L 536.744554 191.385247 
L 539.229205 191.199109 
L 540.057422 190.72921 
L 541.713856 188.472692 
L 542.542073 188.385027 
L 543.37029 187.798169 
L 544.198507 185.266945 
L 545.854942 182.312781 
L 547.511376 182.028197 
L 548.339593 181.950457 
L 549.16781 181.137397 
L 549.996027 180.495073 
L 550.824244 179.296906 
L 551.652461 178.619836 
L 552.480678 178.604051 
L 553.308895 177.81163 
L 554.137112 176.762613 
L 554.965329 176.320944 
L 555.793546 175.39965 
L 556.621763 173.663087 
L 557.44998 172.390145 
L 558.278197 167.665996 
L 559.106414 166.987211 
L 559.934631 166.627079 
L 560.762848 166.547526 
L 561.591066 166.28749 
L 562.419283 165.821416 
L 563.2475 165.582146 
L 564.075717 163.586265 
L 564.903934 162.735477 
L 565.732151 162.661469 
L 566.560368 159.503925 
L 567.388585 159.137837 
L 568.216802 157.312157 
L 569.873236 155.768827 
L 570.701453 155.694858 
L 571.52967 154.783654 
L 572.357887 154.135888 
L 574.014321 153.402809 
L 574.842538 152.788113 
L 575.670755 151.980597 
L 576.498972 147.608924 
L 578.155406 146.988258 
L 578.983624 146.777232 
L 579.811841 146.048842 
L 580.640058 145.627123 
L 581.468275 145.382784 
L 583.952926 143.979681 
L 584.781143 143.071187 
L 585.60936 142.775496 
L 586.437577 142.275106 
L 587.265794 139.372434 
L 588.094011 138.642197 
L 588.922228 136.235969 
L 589.750445 136.015013 
L 590.578662 134.813418 
L 591.406879 131.035733 
L 592.235096 129.547147 
L 593.063313 129.325039 
L 593.89153 127.143033 
L 594.719747 127.097237 
L 595.547964 124.694514 
L 596.376182 121.80424 
L 597.204399 121.797986 
L 598.032616 120.546911 
L 598.860833 120.120057 
L 599.68905 118.102482 
L 600.517267 116.415745 
L 601.345484 115.943699 
L 602.173701 111.944217 
L 603.001918 103.525603 
L 603.830135 101.617367 
L 604.658352 100.519204 
L 606.314786 99.138812 
L 607.143003 93.99059 
L 607.97122 93.639084 
L 609.627654 92.435087 
L 610.455871 92.148431 
L 611.284088 90.84179 
L 612.112305 90.391048 
L 612.940522 90.245221 
L 613.76874 89.02884 
L 614.596957 84.877378 
L 615.425174 83.748488 
L 616.253391 81.82512 
L 617.081608 80.644084 
L 617.909825 80.203225 
L 618.738042 77.298544 
L 619.566259 66.576902 
L 621.222693 63.171383 
L 622.05091 62.934038 
L 622.879127 62.196445 
L 624.535561 60.219864 
L 626.191995 58.744695 
L 627.020212 56.982481 
L 627.848429 54.772303 
L 628.676646 54.742527 
L 629.504863 51.788993 
L 630.33308 50.929712 
L 631.161298 48.324003 
L 631.980661 46.334773 
L 631.980661 46.334773 
" style="fill:none;stroke:#8b0000;stroke-linecap:square;stroke-opacity:0.75;stroke-width:2;"/>
   </g>
   <g id="line2d_16">
    <path clip-path="url(#p0ee6ab39b5)" d="M 388.922847 247.68 
L 391.523483 247.68 
L 394.152461 247.68 
L 396.781439 247.68 
L 399.410417 247.679999 
L 402.039396 247.679999 
L 404.668374 247.679994 
L 407.297352 247.679923 
L 409.92633 247.679262 
L 412.555308 247.676888 
L 415.184286 247.673592 
L 417.813265 247.656183 
L 420.442243 247.654587 
L 423.071221 247.641036 
L 425.700199 247.603694 
L 428.329177 247.467074 
L 430.958155 247.460515 
L 433.587134 247.427245 
L 436.216112 247.385485 
L 438.84509 247.362124 
L 441.474068 247.362124 
L 444.103046 247.286623 
L 446.732024 247.000759 
L 449.361002 246.900076 
L 451.989981 246.554214 
L 454.618959 246.211 
L 457.247937 246.129542 
L 459.876915 246.123653 
L 462.505893 246.033102 
L 465.134871 245.650584 
L 467.76385 244.897797 
L 470.392828 243.268448 
L 473.021806 242.892846 
L 475.650784 242.09064 
L 478.279762 241.615252 
L 480.90874 240.385704 
L 483.537718 240.224482 
L 486.166697 239.327521 
L 488.795675 238.819776 
L 491.424653 237.80081 
L 494.053631 237.395537 
L 496.682609 236.96347 
L 499.311587 235.79469 
L 501.940566 235.455025 
L 504.569544 232.737561 
L 507.198522 229.023851 
L 509.8275 229.019434 
L 512.456478 228.810028 
L 515.085456 228.076256 
L 517.714434 227.636815 
L 520.343413 227.381167 
L 522.972391 227.334943 
L 525.601369 225.575827 
L 528.230347 223.355239 
L 530.859325 218.59064 
L 533.488303 217.016893 
L 536.117282 215.750231 
L 538.74626 214.192953 
L 541.375238 213.181354 
L 544.004216 209.693423 
L 546.633194 206.54296 
L 549.262172 206.309001 
L 551.89115 205.126859 
L 554.520129 203.965944 
L 557.149107 201.331856 
L 559.778085 194.163656 
L 562.407063 191.385247 
L 565.036041 189.545641 
L 567.665019 188.385027 
L 570.293998 185.266945 
L 572.922976 178.619836 
L 575.551954 176.320944 
L 578.180932 175.39965 
L 580.80991 172.390145 
L 583.438888 166.627079 
L 586.067866 153.402809 
L 588.696845 147.608924 
L 591.325823 145.627123 
L 593.954801 145.382784 
L 596.583779 143.979681 
L 599.212757 142.275106 
L 601.841735 136.235969 
L 604.470714 129.547147 
L 607.099692 93.99059 
L 609.72867 92.148431 
L 612.357648 90.245221 
L 614.986626 66.576902 
L 617.615604 62.196445 
L 620.244583 59.4557 
L 622.873561 58.744695 
L 625.502539 56.982481 
L 628.131517 50.929712 
L 630.732153 48.324003 
" style="fill:none;stroke:#000080;stroke-linecap:square;stroke-opacity:0.75;stroke-width:2;"/>
   </g>
   <g id="line2d_17">
    <path clip-path="url(#p0ee6ab39b5)" d="M 387.100227 237.6 
L 632.554773 237.6 
" style="fill:none;stroke:#ff0000;stroke-dasharray:3.7,1.6;stroke-dashoffset:0;"/>
   </g>
   <g id="patch_6">
    <path d="M 374.8275 257.76 
L 374.8275 36 
" style="fill:none;stroke:#000000;stroke-linecap:square;stroke-linejoin:miter;stroke-width:0.8;"/>
   </g>
   <g id="patch_7">
    <path d="M 374.8275 257.76 
L 644.8275 257.76 
" style="fill:none;stroke:#000000;stroke-linecap:square;stroke-linejoin:miter;stroke-width:0.8;"/>
   </g>
   <g id="text_14">
    <!-- Trapnell -->
    <defs>
     <path d="M -0.296875 72.90625 
L 61.375 72.90625 
L 61.375 64.59375 
L 35.5 64.59375 
L 35.5 0 
L 25.59375 0 
L 25.59375 64.59375 
L -0.296875 64.59375 
z
" id="DejaVuSans-84"/>
     <path d="M 41.109375 46.296875 
Q 39.59375 47.171875 37.8125 47.578125 
Q 36.03125 48 33.890625 48 
Q 26.265625 48 22.1875 43.046875 
Q 18.109375 38.09375 18.109375 28.8125 
L 18.109375 0 
L 9.078125 0 
L 9.078125 54.6875 
L 18.109375 54.6875 
L 18.109375 46.1875 
Q 20.953125 51.171875 25.484375 53.578125 
Q 30.03125 56 36.53125 56 
Q 37.453125 56 38.578125 55.875 
Q 39.703125 55.765625 41.0625 55.515625 
z
" id="DejaVuSans-114"/>
    </defs>
    <g transform="translate(399.372955 67.355625)scale(0.28 -0.28)">
     <use xlink:href="#DejaVuSans-84"/>
     <use x="60.865234" xlink:href="#DejaVuSans-114"/>
     <use x="101.978516" xlink:href="#DejaVuSans-97"/>
     <use x="163.257812" xlink:href="#DejaVuSans-112"/>
     <use x="226.734375" xlink:href="#DejaVuSans-110"/>
     <use x="290.113281" xlink:href="#DejaVuSans-101"/>
     <use x="351.636719" xlink:href="#DejaVuSans-108"/>
     <use x="379.419922" xlink:href="#DejaVuSans-108"/>
    </g>
   </g>
  </g>
  <g id="axes_3">
   <g id="patch_8">
    <path d="M 658.3275 257.76 
L 928.3275 257.76 
L 928.3275 36 
L 658.3275 36 
z
" style="fill:none;"/>
   </g>
   <g id="matplotlib.axis_5">
    <g id="xtick_7">
     <g id="line2d_18">
      <g>
       <use style="stroke:#000000;stroke-width:0.8;" x="670.600227" xlink:href="#m70f20f559e" y="257.76"/>
      </g>
     </g>
     <g id="text_15">
      <!-- 0 -->
      <g transform="translate(661.692727 287.535625)scale(0.28 -0.28)">
       <use xlink:href="#DejaVuSans-48"/>
      </g>
     </g>
    </g>
    <g id="xtick_8">
     <g id="line2d_19">
      <g>
       <use style="stroke:#000000;stroke-width:0.8;" x="793.3275" xlink:href="#m70f20f559e" y="257.76"/>
      </g>
     </g>
     <g id="text_16">
      <!-- 0.5 -->
      <g transform="translate(771.063125 287.535625)scale(0.28 -0.28)">
       <use xlink:href="#DejaVuSans-48"/>
       <use x="63.623047" xlink:href="#DejaVuSans-46"/>
       <use x="95.410156" xlink:href="#DejaVuSans-53"/>
      </g>
     </g>
    </g>
    <g id="xtick_9">
     <g id="line2d_20">
      <g>
       <use style="stroke:#000000;stroke-width:0.8;" x="916.054773" xlink:href="#m70f20f559e" y="257.76"/>
      </g>
     </g>
     <g id="text_17">
      <!-- 1 -->
      <g transform="translate(907.147273 287.535625)scale(0.28 -0.28)">
       <use xlink:href="#DejaVuSans-49"/>
      </g>
     </g>
    </g>
    <g id="text_18">
     <!-- Quantiles -->
     <g transform="translate(726.807812 318.634375)scale(0.28 -0.28)">
      <use xlink:href="#DejaVuSans-81"/>
      <use x="78.710938" xlink:href="#DejaVuSans-117"/>
      <use x="142.089844" xlink:href="#DejaVuSans-97"/>
      <use x="203.369141" xlink:href="#DejaVuSans-110"/>
      <use x="266.748047" xlink:href="#DejaVuSans-116"/>
      <use x="305.957031" xlink:href="#DejaVuSans-105"/>
      <use x="333.740234" xlink:href="#DejaVuSans-108"/>
      <use x="361.523438" xlink:href="#DejaVuSans-101"/>
      <use x="423.046875" xlink:href="#DejaVuSans-115"/>
     </g>
    </g>
   </g>
   <g id="matplotlib.axis_6">
    <g id="ytick_7"/>
    <g id="ytick_8"/>
    <g id="ytick_9"/>
   </g>
   <g id="line2d_21">
    <path clip-path="url(#p15d0c72f9b)" d="M 671.048725 247.68 
L 753.859633 247.572214 
L 757.741718 247.467569 
L 762.917832 247.382053 
L 771.976031 247.153142 
L 772.623045 246.973425 
L 778.446173 246.771496 
L 779.740202 246.654576 
L 785.563329 246.403322 
L 786.210344 246.244343 
L 787.504372 246.100686 
L 788.798401 245.991197 
L 792.680486 245.6734 
L 793.3275 245.517429 
L 795.915557 245.381162 
L 796.562571 245.167461 
L 801.091671 244.713016 
L 801.738685 244.526541 
L 802.385699 244.509883 
L 803.032713 244.133344 
L 804.326742 243.886791 
L 804.973756 243.280994 
L 805.62077 243.223661 
L 806.267784 242.988969 
L 809.502855 242.664957 
L 810.149869 242.320253 
L 812.090912 242.162323 
L 813.38494 241.910253 
L 814.031955 241.590283 
L 814.678969 241.581881 
L 815.325983 241.004934 
L 815.972997 240.979723 
L 816.620012 240.315559 
L 817.267026 240.191768 
L 818.561054 239.704057 
L 819.208068 239.636197 
L 819.855083 238.869642 
L 821.149111 238.341321 
L 823.737168 237.793728 
L 824.384182 237.729005 
L 825.031196 237.421576 
L 826.972239 237.283968 
L 827.619253 237.037269 
L 829.560296 235.595976 
L 830.20731 234.757168 
L 830.854324 234.754625 
L 832.795367 233.13348 
L 833.442381 233.060666 
L 834.736409 232.304196 
L 836.030438 232.146232 
L 837.324466 231.14018 
L 837.97148 230.450509 
L 838.618495 229.930184 
L 839.265509 227.36628 
L 839.912523 227.117667 
L 841.206551 226.863483 
L 841.853566 225.984487 
L 842.50058 225.711189 
L 843.147594 225.590406 
L 843.794608 225.167536 
L 844.441623 225.072175 
L 845.088637 224.284193 
L 845.735651 223.814472 
L 846.382665 222.845937 
L 847.029679 219.4003 
L 847.676694 218.343671 
L 848.323708 218.281923 
L 849.617736 217.713132 
L 850.26475 217.130487 
L 850.911765 215.743661 
L 851.558779 215.393976 
L 852.205793 214.064682 
L 852.852807 213.990265 
L 854.79385 212.629455 
L 856.734892 211.665753 
L 857.381907 210.217035 
L 858.028921 208.450926 
L 858.675935 208.077163 
L 859.322949 204.968076 
L 859.969964 204.575963 
L 860.616978 203.898013 
L 861.263992 203.613188 
L 861.911006 203.140174 
L 862.55802 201.208344 
L 863.205035 198.871308 
L 863.852049 197.209885 
L 864.499063 196.894044 
L 865.146077 195.190562 
L 865.793091 194.745728 
L 866.440106 194.452072 
L 867.08712 193.880785 
L 867.734134 193.871762 
L 868.381148 191.536529 
L 869.028162 191.094423 
L 869.675177 189.290215 
L 870.322191 189.135452 
L 870.969205 189.095463 
L 871.616219 186.904843 
L 873.557262 186.495098 
L 874.204276 185.457949 
L 874.85129 183.243134 
L 876.145319 182.376421 
L 876.792333 181.079274 
L 877.439347 180.855118 
L 878.086361 178.143663 
L 878.733376 169.399986 
L 879.38039 168.901667 
L 880.027404 167.761719 
L 880.674418 167.092802 
L 881.321432 165.90974 
L 881.968447 162.58319 
L 882.615461 160.621586 
L 883.262475 159.203239 
L 883.909489 159.176842 
L 884.556503 158.835561 
L 885.203518 157.730401 
L 885.850532 157.669292 
L 886.497546 157.30812 
L 887.14456 154.288203 
L 887.791575 152.776949 
L 888.438589 152.50185 
L 889.085603 152.362074 
L 889.732617 151.614412 
L 890.379631 151.598063 
L 891.026646 145.949787 
L 891.67366 145.768714 
L 892.320674 138.345588 
L 892.967688 136.197477 
L 893.614702 135.85587 
L 894.261717 132.903027 
L 894.908731 131.5706 
L 895.555745 130.82002 
L 896.202759 120.808507 
L 896.849773 113.377245 
L 898.143802 113.021712 
L 898.790816 111.540206 
L 899.43783 108.417578 
L 900.084845 104.476094 
L 900.731859 103.836955 
L 901.378873 103.486981 
L 902.672901 100.579325 
L 903.319916 98.300567 
L 903.96693 96.759976 
L 904.613944 96.465697 
L 905.907972 94.247207 
L 906.554987 90.441221 
L 907.202001 88.635646 
L 907.849015 87.403397 
L 908.496029 86.964212 
L 909.790058 84.936472 
L 910.437072 78.371527 
L 911.7311 75.451208 
L 912.378114 75.314701 
L 913.025129 74.312046 
L 914.319157 73.077658 
L 914.966171 62.30955 
L 915.606275 61.439972 
L 915.606275 61.439972 
" style="fill:none;stroke:#b8860b;stroke-linecap:square;stroke-opacity:0.75;stroke-width:2;"/>
   </g>
   <g id="line2d_22">
    <path clip-path="url(#p15d0c72f9b)" d="M 671.076337 247.68 
L 758.298379 247.572214 
L 762.419452 247.467569 
L 768.601062 247.366504 
L 774.095826 247.218609 
L 776.156362 247.153142 
L 776.843208 246.973425 
L 782.337972 246.771496 
L 783.711663 246.654576 
L 789.893272 246.403322 
L 790.580118 246.244343 
L 791.953809 246.100686 
L 793.3275 245.991197 
L 797.448573 245.6734 
L 798.822264 245.424008 
L 800.195955 245.381162 
L 800.882801 245.167461 
L 805.690719 244.713016 
L 806.377565 244.526541 
L 807.06441 244.509883 
L 807.751256 244.133344 
L 809.124947 243.886791 
L 809.811792 243.280994 
L 810.498638 243.223661 
L 811.185483 242.988969 
L 813.932865 242.664957 
L 814.619711 242.320253 
L 816.680247 242.162323 
L 818.053938 241.910253 
L 818.740784 241.590283 
L 819.427629 241.581881 
L 820.114475 241.004934 
L 820.80132 240.979723 
L 821.488166 240.315559 
L 822.175011 240.191768 
L 823.548702 239.704057 
L 824.235548 239.636197 
L 824.922393 238.869642 
L 826.296084 238.341321 
L 829.043466 237.729005 
L 829.730312 237.421576 
L 831.790849 237.283968 
L 832.477694 237.037269 
L 834.538231 235.595976 
L 835.225076 234.757168 
L 835.911922 234.754625 
L 837.972458 233.13348 
L 838.659304 233.060666 
L 840.032995 232.304196 
L 841.406686 232.146232 
L 842.093531 231.14018 
L 842.780377 230.450509 
L 843.467222 229.930184 
L 844.154068 227.36628 
L 844.840913 227.020154 
L 845.527759 226.863483 
L 846.214604 225.984487 
L 847.588295 225.167536 
L 848.275141 225.072175 
L 848.961986 224.284193 
L 849.648832 222.845937 
L 850.335677 219.4003 
L 851.022523 218.343671 
L 851.709368 217.964104 
L 852.396214 217.713132 
L 853.083059 217.130487 
L 853.769905 215.743661 
L 854.45675 215.393976 
L 855.143596 214.064682 
L 855.830441 213.990265 
L 857.890978 212.629455 
L 859.951514 211.665753 
L 860.63836 210.217035 
L 861.325205 208.450926 
L 862.012051 208.077163 
L 862.698896 204.968076 
L 863.385742 204.575963 
L 864.072587 203.898013 
L 864.759433 203.613188 
L 865.446278 203.140174 
L 866.133124 201.208344 
L 866.81997 198.871308 
L 867.506815 197.209885 
L 868.193661 196.894044 
L 868.880506 195.190562 
L 869.567352 194.745728 
L 870.254197 194.452072 
L 870.941043 193.880785 
L 871.627888 193.871762 
L 872.314734 191.536529 
L 873.001579 191.094423 
L 873.688425 189.135452 
L 874.37527 189.095463 
L 875.062116 186.904843 
L 877.122652 186.495098 
L 877.809498 183.243134 
L 879.183189 182.376421 
L 879.870034 181.079274 
L 880.55688 180.855118 
L 881.243725 178.143663 
L 881.930571 169.399986 
L 882.617416 167.092802 
L 883.304262 162.58319 
L 883.991107 160.621586 
L 884.677953 159.203239 
L 885.364798 159.176842 
L 886.051644 158.835561 
L 886.738489 157.730401 
L 887.425335 157.669292 
L 888.11218 157.30812 
L 888.799026 154.288203 
L 889.485871 152.776949 
L 890.172717 152.50185 
L 890.859562 152.362074 
L 891.546408 151.614412 
L 892.233253 151.598063 
L 892.920099 145.949787 
L 893.606944 145.768714 
L 894.29379 132.903027 
L 894.980635 131.5706 
L 895.667481 130.82002 
L 896.354326 120.808507 
L 897.041172 113.377245 
L 897.728017 113.191763 
L 898.414863 111.540206 
L 899.101708 108.417578 
L 899.788554 104.476094 
L 900.475399 103.836955 
L 901.162245 103.486981 
L 902.535936 100.579325 
L 903.222781 98.300567 
L 903.909627 96.759976 
L 904.596473 96.465697 
L 905.970164 94.247207 
L 906.657009 90.441221 
L 907.343855 88.635646 
L 909.404391 84.936472 
L 910.091237 78.371527 
L 911.464928 75.451208 
L 912.151773 75.314701 
L 912.838619 74.312046 
L 914.21231 73.077658 
L 914.899155 62.30955 
L 915.578663 61.439972 
L 915.578663 61.439972 
" style="fill:none;stroke:#8b0000;stroke-linecap:square;stroke-opacity:0.75;stroke-width:2;"/>
   </g>
   <g id="line2d_23">
    <path clip-path="url(#p15d0c72f9b)" d="M 672.230712 247.68 
L 674.557275 247.68 
L 676.909161 247.68 
L 679.261046 247.68 
L 681.612932 247.68 
L 683.964817 247.68 
L 686.316703 247.68 
L 688.668589 247.68 
L 691.020474 247.68 
L 693.37236 247.68 
L 695.724246 247.68 
L 698.076131 247.68 
L 700.428017 247.68 
L 702.779903 247.68 
L 705.131788 247.68 
L 707.483674 247.68 
L 709.83556 247.68 
L 712.187445 247.68 
L 714.539331 247.679999 
L 716.891217 247.679999 
L 719.243102 247.679998 
L 721.594988 247.679997 
L 723.946873 247.679997 
L 726.298759 247.679996 
L 728.650645 247.679994 
L 731.00253 247.679984 
L 733.354416 247.679982 
L 735.706302 247.679977 
L 738.058187 247.679972 
L 740.410073 247.679969 
L 742.761959 247.679943 
L 745.113844 247.679917 
L 747.46573 247.679902 
L 749.817616 247.679892 
L 752.169501 247.679605 
L 754.521387 247.67934 
L 756.873272 247.679278 
L 759.225158 247.678098 
L 761.577044 247.677922 
L 763.928929 247.676698 
L 766.280815 247.676604 
L 768.632701 247.676541 
L 770.984586 247.668812 
L 773.336472 247.668671 
L 775.688358 247.659037 
L 778.040243 247.657497 
L 780.392129 247.656964 
L 782.744015 247.64955 
L 785.0959 247.645975 
L 787.447786 247.644965 
L 789.799672 247.638852 
L 792.151557 247.632718 
L 794.503443 247.632276 
L 796.855328 247.62385 
L 799.207214 247.606141 
L 801.5591 247.5284 
L 803.910985 247.525723 
L 806.262871 247.518929 
L 808.614757 247.496278 
L 810.966642 247.388901 
L 813.318528 247.153142 
L 815.670414 246.973425 
L 818.022299 246.93602 
L 820.374185 246.857843 
L 822.726071 246.40367 
L 825.077956 246.403322 
L 827.429842 245.81613 
L 829.781728 245.687801 
L 832.133613 245.424008 
L 834.485499 245.101345 
L 836.837384 244.509883 
L 839.18927 242.988969 
L 841.541156 242.282677 
L 843.893041 241.910253 
L 846.244927 241.590283 
L 848.596813 240.315559 
L 850.948698 239.704057 
L 853.300584 237.729005 
L 855.65247 237.397058 
L 858.004355 236.205663 
L 860.356241 230.450509 
L 862.708127 227.020154 
L 865.060012 225.984487 
L 867.411898 217.713132 
L 869.763783 214.064682 
L 872.115669 213.990265 
L 874.467555 213.495382 
L 876.81944 213.021715 
L 879.171326 212.318223 
L 881.523212 211.91702 
L 883.875097 210.217035 
L 886.226983 204.575963 
L 888.578869 194.452072 
L 890.930754 193.871762 
L 893.28264 191.536529 
L 895.634526 167.092802 
L 897.986411 159.176842 
L 900.338297 157.669292 
L 902.690183 113.377245 
L 905.042068 88.635646 
L 907.393954 76.928371 
L 909.745839 73.706375 
L 912.097725 73.077658 
L 914.424288 61.439972 
" style="fill:none;stroke:#000080;stroke-linecap:square;stroke-opacity:0.75;stroke-width:2;"/>
   </g>
   <g id="line2d_24">
    <path clip-path="url(#p15d0c72f9b)" d="M 670.600227 237.6 
L 916.054773 237.6 
" style="fill:none;stroke:#ff0000;stroke-dasharray:3.7,1.6;stroke-dashoffset:0;"/>
   </g>
   <g id="patch_9">
    <path d="M 658.3275 257.76 
L 658.3275 36 
" style="fill:none;stroke:#000000;stroke-linecap:square;stroke-linejoin:miter;stroke-width:0.8;"/>
   </g>
   <g id="patch_10">
    <path d="M 658.3275 257.76 
L 928.3275 257.76 
" style="fill:none;stroke:#000000;stroke-linecap:square;stroke-linejoin:miter;stroke-width:0.8;"/>
   </g>
   <g id="text_19">
    <!-- Song -->
    <defs>
     <path d="M 53.515625 70.515625 
L 53.515625 60.890625 
Q 47.90625 63.578125 42.921875 64.890625 
Q 37.9375 66.21875 33.296875 66.21875 
Q 25.25 66.21875 20.875 63.09375 
Q 16.5 59.96875 16.5 54.203125 
Q 16.5 49.359375 19.40625 46.890625 
Q 22.3125 44.4375 30.421875 42.921875 
L 36.375 41.703125 
Q 47.40625 39.59375 52.65625 34.296875 
Q 57.90625 29 57.90625 20.125 
Q 57.90625 9.515625 50.796875 4.046875 
Q 43.703125 -1.421875 29.984375 -1.421875 
Q 24.8125 -1.421875 18.96875 -0.25 
Q 13.140625 0.921875 6.890625 3.21875 
L 6.890625 13.375 
Q 12.890625 10.015625 18.65625 8.296875 
Q 24.421875 6.59375 29.984375 6.59375 
Q 38.421875 6.59375 43.015625 9.90625 
Q 47.609375 13.234375 47.609375 19.390625 
Q 47.609375 24.75 44.3125 27.78125 
Q 41.015625 30.8125 33.5 32.328125 
L 27.484375 33.5 
Q 16.453125 35.6875 11.515625 40.375 
Q 6.59375 45.0625 6.59375 53.421875 
Q 6.59375 63.09375 13.40625 68.65625 
Q 20.21875 74.21875 32.171875 74.21875 
Q 37.3125 74.21875 42.625 73.28125 
Q 47.953125 72.359375 53.515625 70.515625 
z
" id="DejaVuSans-83"/>
     <path d="M 30.609375 48.390625 
Q 23.390625 48.390625 19.1875 42.75 
Q 14.984375 37.109375 14.984375 27.296875 
Q 14.984375 17.484375 19.15625 11.84375 
Q 23.34375 6.203125 30.609375 6.203125 
Q 37.796875 6.203125 41.984375 11.859375 
Q 46.1875 17.53125 46.1875 27.296875 
Q 46.1875 37.015625 41.984375 42.703125 
Q 37.796875 48.390625 30.609375 48.390625 
z
M 30.609375 56 
Q 42.328125 56 49.015625 48.375 
Q 55.71875 40.765625 55.71875 27.296875 
Q 55.71875 13.875 49.015625 6.21875 
Q 42.328125 -1.421875 30.609375 -1.421875 
Q 18.84375 -1.421875 12.171875 6.21875 
Q 5.515625 13.875 5.515625 27.296875 
Q 5.515625 40.765625 12.171875 48.375 
Q 18.84375 56 30.609375 56 
z
" id="DejaVuSans-111"/>
     <path d="M 45.40625 27.984375 
Q 45.40625 37.75 41.375 43.109375 
Q 37.359375 48.484375 30.078125 48.484375 
Q 22.859375 48.484375 18.828125 43.109375 
Q 14.796875 37.75 14.796875 27.984375 
Q 14.796875 18.265625 18.828125 12.890625 
Q 22.859375 7.515625 30.078125 7.515625 
Q 37.359375 7.515625 41.375 12.890625 
Q 45.40625 18.265625 45.40625 27.984375 
z
M 54.390625 6.78125 
Q 54.390625 -7.171875 48.1875 -13.984375 
Q 42 -20.796875 29.203125 -20.796875 
Q 24.46875 -20.796875 20.265625 -20.09375 
Q 16.0625 -19.390625 12.109375 -17.921875 
L 12.109375 -9.1875 
Q 16.0625 -11.328125 19.921875 -12.34375 
Q 23.78125 -13.375 27.78125 -13.375 
Q 36.625 -13.375 41.015625 -8.765625 
Q 45.40625 -4.15625 45.40625 5.171875 
L 45.40625 9.625 
Q 42.625 4.78125 38.28125 2.390625 
Q 33.9375 0 27.875 0 
Q 17.828125 0 11.671875 7.65625 
Q 5.515625 15.328125 5.515625 27.984375 
Q 5.515625 40.671875 11.671875 48.328125 
Q 17.828125 56 27.875 56 
Q 33.9375 56 38.28125 53.609375 
Q 42.625 51.21875 45.40625 46.390625 
L 45.40625 54.6875 
L 54.390625 54.6875 
z
" id="DejaVuSans-103"/>
    </defs>
    <g transform="translate(682.872955 67.355625)scale(0.28 -0.28)">
     <use xlink:href="#DejaVuSans-83"/>
     <use x="63.476562" xlink:href="#DejaVuSans-111"/>
     <use x="124.658203" xlink:href="#DejaVuSans-110"/>
     <use x="188.037109" xlink:href="#DejaVuSans-103"/>
    </g>
   </g>
  </g>
  <g id="text_20">
   <!-- p-values of Kruskal-Wallis test -->
   <defs>
    <path id="DejaVuSans-32"/>
    <path d="M 37.109375 75.984375 
L 37.109375 68.5 
L 28.515625 68.5 
Q 23.6875 68.5 21.796875 66.546875 
Q 19.921875 64.59375 19.921875 59.515625 
L 19.921875 54.6875 
L 34.71875 54.6875 
L 34.71875 47.703125 
L 19.921875 47.703125 
L 19.921875 0 
L 10.890625 0 
L 10.890625 47.703125 
L 2.296875 47.703125 
L 2.296875 54.6875 
L 10.890625 54.6875 
L 10.890625 58.5 
Q 10.890625 67.625 15.140625 71.796875 
Q 19.390625 75.984375 28.609375 75.984375 
z
" id="DejaVuSans-102"/>
    <path d="M 9.8125 72.90625 
L 19.671875 72.90625 
L 19.671875 42.09375 
L 52.390625 72.90625 
L 65.09375 72.90625 
L 28.90625 38.921875 
L 67.671875 0 
L 54.6875 0 
L 19.671875 35.109375 
L 19.671875 0 
L 9.8125 0 
z
" id="DejaVuSans-75"/>
    <path d="M 9.078125 75.984375 
L 18.109375 75.984375 
L 18.109375 31.109375 
L 44.921875 54.6875 
L 56.390625 54.6875 
L 27.390625 29.109375 
L 57.625 0 
L 45.90625 0 
L 18.109375 26.703125 
L 18.109375 0 
L 9.078125 0 
z
" id="DejaVuSans-107"/>
    <path d="M 3.328125 72.90625 
L 13.28125 72.90625 
L 28.609375 11.28125 
L 43.890625 72.90625 
L 54.984375 72.90625 
L 70.3125 11.28125 
L 85.59375 72.90625 
L 95.609375 72.90625 
L 77.296875 0 
L 64.890625 0 
L 49.515625 63.28125 
L 33.984375 0 
L 21.578125 0 
z
" id="DejaVuSans-87"/>
   </defs>
   <g transform="translate(285.043437 28.475625)scale(0.28 -0.28)">
    <use xlink:href="#DejaVuSans-112"/>
    <use x="63.476562" xlink:href="#DejaVuSans-45"/>
    <use x="99.529297" xlink:href="#DejaVuSans-118"/>
    <use x="158.708984" xlink:href="#DejaVuSans-97"/>
    <use x="219.988281" xlink:href="#DejaVuSans-108"/>
    <use x="247.771484" xlink:href="#DejaVuSans-117"/>
    <use x="311.150391" xlink:href="#DejaVuSans-101"/>
    <use x="372.673828" xlink:href="#DejaVuSans-115"/>
    <use x="424.773438" xlink:href="#DejaVuSans-32"/>
    <use x="456.560547" xlink:href="#DejaVuSans-111"/>
    <use x="517.742188" xlink:href="#DejaVuSans-102"/>
    <use x="552.947266" xlink:href="#DejaVuSans-32"/>
    <use x="584.734375" xlink:href="#DejaVuSans-75"/>
    <use x="650.310547" xlink:href="#DejaVuSans-114"/>
    <use x="691.423828" xlink:href="#DejaVuSans-117"/>
    <use x="754.802734" xlink:href="#DejaVuSans-115"/>
    <use x="806.902344" xlink:href="#DejaVuSans-107"/>
    <use x="864.796875" xlink:href="#DejaVuSans-97"/>
    <use x="926.076172" xlink:href="#DejaVuSans-108"/>
    <use x="953.859375" xlink:href="#DejaVuSans-45"/>
    <use x="989.880859" xlink:href="#DejaVuSans-87"/>
    <use x="1088.664062" xlink:href="#DejaVuSans-97"/>
    <use x="1149.943359" xlink:href="#DejaVuSans-108"/>
    <use x="1177.726562" xlink:href="#DejaVuSans-108"/>
    <use x="1205.509766" xlink:href="#DejaVuSans-105"/>
    <use x="1233.292969" xlink:href="#DejaVuSans-115"/>
    <use x="1285.392578" xlink:href="#DejaVuSans-32"/>
    <use x="1317.179688" xlink:href="#DejaVuSans-116"/>
    <use x="1356.388672" xlink:href="#DejaVuSans-101"/>
    <use x="1417.912109" xlink:href="#DejaVuSans-115"/>
    <use x="1470.011719" xlink:href="#DejaVuSans-116"/>
   </g>
  </g>
 </g>
 <defs>
  <clipPath id="pb8b518225b">
   <rect height="221.76" width="270" x="91.3275" y="36"/>
  </clipPath>
  <clipPath id="p0ee6ab39b5">
   <rect height="221.76" width="270" x="374.8275" y="36"/>
  </clipPath>
  <clipPath id="p15d0c72f9b">
   <rect height="221.76" width="270" x="658.3275" y="36"/>
  </clipPath>
 </defs>
</svg>
