<?xml version="1.0" encoding="utf-8" standalone="no"?>
<!DOCTYPE svg PUBLIC "-//W3C//DTD SVG 1.1//EN"
  "http://www.w3.org/Graphics/SVG/1.1/DTD/svg11.dtd">
<!-- Created with matplotlib (https://matplotlib.org/) -->
<svg height="388.8975pt" version="1.1" viewBox="0 0 1214.5275 388.8975" width="1214.5275pt" xmlns="http://www.w3.org/2000/svg" xmlns:xlink="http://www.w3.org/1999/xlink">
 <defs>
  <style type="text/css">
*{stroke-linecap:butt;stroke-linejoin:round;}
  </style>
 </defs>
 <g id="figure_1">
  <g id="patch_1">
   <path d="M 0 388.8975 
L 1214.5275 388.8975 
L 1214.5275 0 
L 0 0 
z
" style="fill:none;"/>
  </g>
  <g id="axes_1">
   <g id="patch_2">
    <path d="M 91.3275 315 
L 360.243163 315 
L 360.243163 43.2 
L 91.3275 43.2 
z
" style="fill:none;"/>
   </g>
   <g id="matplotlib.axis_1">
    <g id="xtick_1">
     <g id="line2d_1">
      <defs>
       <path d="M 0 0 
L 0 5 
" id="m448a6c1922" style="stroke:#000000;stroke-width:0.8;"/>
      </defs>
      <g>
       <use style="stroke:#000000;stroke-width:0.8;" x="103.550939" xlink:href="#m448a6c1922" y="315"/>
      </g>
     </g>
     <g id="text_1">
      <!-- 0 -->
      <defs>
       <path d="M 31.78125 66.40625 
Q 24.171875 66.40625 20.328125 58.90625 
Q 16.5 51.421875 16.5 36.375 
Q 16.5 21.390625 20.328125 13.890625 
Q 24.171875 6.390625 31.78125 6.390625 
Q 39.453125 6.390625 43.28125 13.890625 
Q 47.125 21.390625 47.125 36.375 
Q 47.125 51.421875 43.28125 58.90625 
Q 39.453125 66.40625 31.78125 66.40625 
z
M 31.78125 74.21875 
Q 44.046875 74.21875 50.515625 64.515625 
Q 56.984375 54.828125 56.984375 36.375 
Q 56.984375 17.96875 50.515625 8.265625 
Q 44.046875 -1.421875 31.78125 -1.421875 
Q 19.53125 -1.421875 13.0625 8.265625 
Q 6.59375 17.96875 6.59375 36.375 
Q 6.59375 54.828125 13.0625 64.515625 
Q 19.53125 74.21875 31.78125 74.21875 
z
" id="DejaVuSans-48"/>
      </defs>
      <g transform="translate(94.643439 344.775625)scale(0.28 -0.28)">
       <use xlink:href="#DejaVuSans-48"/>
      </g>
     </g>
    </g>
    <g id="xtick_2">
     <g id="line2d_2">
      <g>
       <use style="stroke:#000000;stroke-width:0.8;" x="225.785331" xlink:href="#m448a6c1922" y="315"/>
      </g>
     </g>
     <g id="text_2">
      <!-- 0.5 -->
      <defs>
       <path d="M 10.6875 12.40625 
L 21 12.40625 
L 21 0 
L 10.6875 0 
z
" id="DejaVuSans-46"/>
       <path d="M 10.796875 72.90625 
L 49.515625 72.90625 
L 49.515625 64.59375 
L 19.828125 64.59375 
L 19.828125 46.734375 
Q 21.96875 47.46875 24.109375 47.828125 
Q 26.265625 48.1875 28.421875 48.1875 
Q 40.625 48.1875 47.75 41.5 
Q 54.890625 34.8125 54.890625 23.390625 
Q 54.890625 11.625 47.5625 5.09375 
Q 40.234375 -1.421875 26.90625 -1.421875 
Q 22.3125 -1.421875 17.546875 -0.640625 
Q 12.796875 0.140625 7.71875 1.703125 
L 7.71875 11.625 
Q 12.109375 9.234375 16.796875 8.0625 
Q 21.484375 6.890625 26.703125 6.890625 
Q 35.15625 6.890625 40.078125 11.328125 
Q 45.015625 15.765625 45.015625 23.390625 
Q 45.015625 31 40.078125 35.4375 
Q 35.15625 39.890625 26.703125 39.890625 
Q 22.75 39.890625 18.8125 39.015625 
Q 14.890625 38.140625 10.796875 36.28125 
z
" id="DejaVuSans-53"/>
      </defs>
      <g transform="translate(203.520956 344.775625)scale(0.28 -0.28)">
       <use xlink:href="#DejaVuSans-48"/>
       <use x="63.623047" xlink:href="#DejaVuSans-46"/>
       <use x="95.410156" xlink:href="#DejaVuSans-53"/>
      </g>
     </g>
    </g>
    <g id="xtick_3">
     <g id="line2d_3">
      <g>
       <use style="stroke:#000000;stroke-width:0.8;" x="348.019723" xlink:href="#m448a6c1922" y="315"/>
      </g>
     </g>
     <g id="text_3">
      <!-- 1 -->
      <defs>
       <path d="M 12.40625 8.296875 
L 28.515625 8.296875 
L 28.515625 63.921875 
L 10.984375 60.40625 
L 10.984375 69.390625 
L 28.421875 72.90625 
L 38.28125 72.90625 
L 38.28125 8.296875 
L 54.390625 8.296875 
L 54.390625 0 
L 12.40625 0 
z
" id="DejaVuSans-49"/>
      </defs>
      <g transform="translate(339.112223 344.775625)scale(0.28 -0.28)">
       <use xlink:href="#DejaVuSans-49"/>
      </g>
     </g>
    </g>
    <g id="text_4">
     <!-- Quantiles -->
     <defs>
      <path d="M 39.40625 66.21875 
Q 28.65625 66.21875 22.328125 58.203125 
Q 16.015625 50.203125 16.015625 36.375 
Q 16.015625 22.609375 22.328125 14.59375 
Q 28.65625 6.59375 39.40625 6.59375 
Q 50.140625 6.59375 56.421875 14.59375 
Q 62.703125 22.609375 62.703125 36.375 
Q 62.703125 50.203125 56.421875 58.203125 
Q 50.140625 66.21875 39.40625 66.21875 
z
M 53.21875 1.3125 
L 66.21875 -12.890625 
L 54.296875 -12.890625 
L 43.5 -1.21875 
Q 41.890625 -1.3125 41.03125 -1.359375 
Q 40.1875 -1.421875 39.40625 -1.421875 
Q 24.03125 -1.421875 14.8125 8.859375 
Q 5.609375 19.140625 5.609375 36.375 
Q 5.609375 53.65625 14.8125 63.9375 
Q 24.03125 74.21875 39.40625 74.21875 
Q 54.734375 74.21875 63.90625 63.9375 
Q 73.09375 53.65625 73.09375 36.375 
Q 73.09375 23.6875 67.984375 14.640625 
Q 62.890625 5.609375 53.21875 1.3125 
z
" id="DejaVuSans-81"/>
      <path d="M 8.5 21.578125 
L 8.5 54.6875 
L 17.484375 54.6875 
L 17.484375 21.921875 
Q 17.484375 14.15625 20.5 10.265625 
Q 23.53125 6.390625 29.59375 6.390625 
Q 36.859375 6.390625 41.078125 11.03125 
Q 45.3125 15.671875 45.3125 23.6875 
L 45.3125 54.6875 
L 54.296875 54.6875 
L 54.296875 0 
L 45.3125 0 
L 45.3125 8.40625 
Q 42.046875 3.421875 37.71875 1 
Q 33.40625 -1.421875 27.6875 -1.421875 
Q 18.265625 -1.421875 13.375 4.4375 
Q 8.5 10.296875 8.5 21.578125 
z
M 31.109375 56 
z
" id="DejaVuSans-117"/>
      <path d="M 34.28125 27.484375 
Q 23.390625 27.484375 19.1875 25 
Q 14.984375 22.515625 14.984375 16.5 
Q 14.984375 11.71875 18.140625 8.90625 
Q 21.296875 6.109375 26.703125 6.109375 
Q 34.1875 6.109375 38.703125 11.40625 
Q 43.21875 16.703125 43.21875 25.484375 
L 43.21875 27.484375 
z
M 52.203125 31.203125 
L 52.203125 0 
L 43.21875 0 
L 43.21875 8.296875 
Q 40.140625 3.328125 35.546875 0.953125 
Q 30.953125 -1.421875 24.3125 -1.421875 
Q 15.921875 -1.421875 10.953125 3.296875 
Q 6 8.015625 6 15.921875 
Q 6 25.140625 12.171875 29.828125 
Q 18.359375 34.515625 30.609375 34.515625 
L 43.21875 34.515625 
L 43.21875 35.40625 
Q 43.21875 41.609375 39.140625 45 
Q 35.0625 48.390625 27.6875 48.390625 
Q 23 48.390625 18.546875 47.265625 
Q 14.109375 46.140625 10.015625 43.890625 
L 10.015625 52.203125 
Q 14.9375 54.109375 19.578125 55.046875 
Q 24.21875 56 28.609375 56 
Q 40.484375 56 46.34375 49.84375 
Q 52.203125 43.703125 52.203125 31.203125 
z
" id="DejaVuSans-97"/>
      <path d="M 54.890625 33.015625 
L 54.890625 0 
L 45.90625 0 
L 45.90625 32.71875 
Q 45.90625 40.484375 42.875 44.328125 
Q 39.84375 48.1875 33.796875 48.1875 
Q 26.515625 48.1875 22.3125 43.546875 
Q 18.109375 38.921875 18.109375 30.90625 
L 18.109375 0 
L 9.078125 0 
L 9.078125 54.6875 
L 18.109375 54.6875 
L 18.109375 46.1875 
Q 21.34375 51.125 25.703125 53.5625 
Q 30.078125 56 35.796875 56 
Q 45.21875 56 50.046875 50.171875 
Q 54.890625 44.34375 54.890625 33.015625 
z
" id="DejaVuSans-110"/>
      <path d="M 18.3125 70.21875 
L 18.3125 54.6875 
L 36.8125 54.6875 
L 36.8125 47.703125 
L 18.3125 47.703125 
L 18.3125 18.015625 
Q 18.3125 11.328125 20.140625 9.421875 
Q 21.96875 7.515625 27.59375 7.515625 
L 36.8125 7.515625 
L 36.8125 0 
L 27.59375 0 
Q 17.1875 0 13.234375 3.875 
Q 9.28125 7.765625 9.28125 18.015625 
L 9.28125 47.703125 
L 2.6875 47.703125 
L 2.6875 54.6875 
L 9.28125 54.6875 
L 9.28125 70.21875 
z
" id="DejaVuSans-116"/>
      <path d="M 9.421875 54.6875 
L 18.40625 54.6875 
L 18.40625 0 
L 9.421875 0 
z
M 9.421875 75.984375 
L 18.40625 75.984375 
L 18.40625 64.59375 
L 9.421875 64.59375 
z
" id="DejaVuSans-105"/>
      <path d="M 9.421875 75.984375 
L 18.40625 75.984375 
L 18.40625 0 
L 9.421875 0 
z
" id="DejaVuSans-108"/>
      <path d="M 56.203125 29.59375 
L 56.203125 25.203125 
L 14.890625 25.203125 
Q 15.484375 15.921875 20.484375 11.0625 
Q 25.484375 6.203125 34.421875 6.203125 
Q 39.59375 6.203125 44.453125 7.46875 
Q 49.3125 8.734375 54.109375 11.28125 
L 54.109375 2.78125 
Q 49.265625 0.734375 44.1875 -0.34375 
Q 39.109375 -1.421875 33.890625 -1.421875 
Q 20.796875 -1.421875 13.15625 6.1875 
Q 5.515625 13.8125 5.515625 26.8125 
Q 5.515625 40.234375 12.765625 48.109375 
Q 20.015625 56 32.328125 56 
Q 43.359375 56 49.78125 48.890625 
Q 56.203125 41.796875 56.203125 29.59375 
z
M 47.21875 32.234375 
Q 47.125 39.59375 43.09375 43.984375 
Q 39.0625 48.390625 32.421875 48.390625 
Q 24.90625 48.390625 20.390625 44.140625 
Q 15.875 39.890625 15.1875 32.171875 
z
" id="DejaVuSans-101"/>
      <path d="M 44.28125 53.078125 
L 44.28125 44.578125 
Q 40.484375 46.53125 36.375 47.5 
Q 32.28125 48.484375 27.875 48.484375 
Q 21.1875 48.484375 17.84375 46.4375 
Q 14.5 44.390625 14.5 40.28125 
Q 14.5 37.15625 16.890625 35.375 
Q 19.28125 33.59375 26.515625 31.984375 
L 29.59375 31.296875 
Q 39.15625 29.25 43.1875 25.515625 
Q 47.21875 21.78125 47.21875 15.09375 
Q 47.21875 7.46875 41.1875 3.015625 
Q 35.15625 -1.421875 24.609375 -1.421875 
Q 20.21875 -1.421875 15.453125 -0.5625 
Q 10.6875 0.296875 5.421875 2 
L 5.421875 11.28125 
Q 10.40625 8.6875 15.234375 7.390625 
Q 20.0625 6.109375 24.8125 6.109375 
Q 31.15625 6.109375 34.5625 8.28125 
Q 37.984375 10.453125 37.984375 14.40625 
Q 37.984375 18.0625 35.515625 20.015625 
Q 33.0625 21.96875 24.703125 23.78125 
L 21.578125 24.515625 
Q 13.234375 26.265625 9.515625 29.90625 
Q 5.8125 33.546875 5.8125 39.890625 
Q 5.8125 47.609375 11.28125 51.796875 
Q 16.75 56 26.8125 56 
Q 31.78125 56 36.171875 55.265625 
Q 40.578125 54.546875 44.28125 53.078125 
z
" id="DejaVuSans-115"/>
     </defs>
     <g transform="translate(159.265644 375.874375)scale(0.28 -0.28)">
      <use xlink:href="#DejaVuSans-81"/>
      <use x="78.710938" xlink:href="#DejaVuSans-117"/>
      <use x="142.089844" xlink:href="#DejaVuSans-97"/>
      <use x="203.369141" xlink:href="#DejaVuSans-110"/>
      <use x="266.748047" xlink:href="#DejaVuSans-116"/>
      <use x="305.957031" xlink:href="#DejaVuSans-105"/>
      <use x="333.740234" xlink:href="#DejaVuSans-108"/>
      <use x="361.523438" xlink:href="#DejaVuSans-101"/>
      <use x="423.046875" xlink:href="#DejaVuSans-115"/>
     </g>
    </g>
   </g>
   <g id="matplotlib.axis_2">
    <g id="ytick_1">
     <g id="line2d_4">
      <defs>
       <path d="M 0 0 
L -5 0 
" id="m744236e401" style="stroke:#000000;stroke-width:0.8;"/>
      </defs>
      <g>
       <use style="stroke:#000000;stroke-width:0.8;" x="91.3275" xlink:href="#m744236e401" y="302.645455"/>
      </g>
     </g>
     <g id="text_5">
      <!-- 0.0 -->
      <g transform="translate(38.29875 313.283267)scale(0.28 -0.28)">
       <use xlink:href="#DejaVuSans-48"/>
       <use x="63.623047" xlink:href="#DejaVuSans-46"/>
       <use x="95.410156" xlink:href="#DejaVuSans-48"/>
      </g>
     </g>
    </g>
    <g id="ytick_2">
     <g id="line2d_5">
      <g>
       <use style="stroke:#000000;stroke-width:0.8;" x="91.3275" xlink:href="#m744236e401" y="179.1"/>
      </g>
     </g>
     <g id="text_6">
      <!-- 0.5 -->
      <g transform="translate(38.29875 189.737812)scale(0.28 -0.28)">
       <use xlink:href="#DejaVuSans-48"/>
       <use x="63.623047" xlink:href="#DejaVuSans-46"/>
       <use x="95.410156" xlink:href="#DejaVuSans-53"/>
      </g>
     </g>
    </g>
    <g id="ytick_3">
     <g id="line2d_6">
      <g>
       <use style="stroke:#000000;stroke-width:0.8;" x="91.3275" xlink:href="#m744236e401" y="55.554545"/>
      </g>
     </g>
     <g id="text_7">
      <!-- 1.0 -->
      <g transform="translate(38.29875 66.192358)scale(0.28 -0.28)">
       <use xlink:href="#DejaVuSans-49"/>
       <use x="63.623047" xlink:href="#DejaVuSans-46"/>
       <use x="95.410156" xlink:href="#DejaVuSans-48"/>
      </g>
     </g>
    </g>
    <g id="text_8">
     <!-- p-values -->
     <defs>
      <path d="M 18.109375 8.203125 
L 18.109375 -20.796875 
L 9.078125 -20.796875 
L 9.078125 54.6875 
L 18.109375 54.6875 
L 18.109375 46.390625 
Q 20.953125 51.265625 25.265625 53.625 
Q 29.59375 56 35.59375 56 
Q 45.5625 56 51.78125 48.09375 
Q 58.015625 40.1875 58.015625 27.296875 
Q 58.015625 14.40625 51.78125 6.484375 
Q 45.5625 -1.421875 35.59375 -1.421875 
Q 29.59375 -1.421875 25.265625 0.953125 
Q 20.953125 3.328125 18.109375 8.203125 
z
M 48.6875 27.296875 
Q 48.6875 37.203125 44.609375 42.84375 
Q 40.53125 48.484375 33.40625 48.484375 
Q 26.265625 48.484375 22.1875 42.84375 
Q 18.109375 37.203125 18.109375 27.296875 
Q 18.109375 17.390625 22.1875 11.75 
Q 26.265625 6.109375 33.40625 6.109375 
Q 40.53125 6.109375 44.609375 11.75 
Q 48.6875 17.390625 48.6875 27.296875 
z
" id="DejaVuSans-112"/>
      <path d="M 4.890625 31.390625 
L 31.203125 31.390625 
L 31.203125 23.390625 
L 4.890625 23.390625 
z
" id="DejaVuSans-45"/>
      <path d="M 2.984375 54.6875 
L 12.5 54.6875 
L 29.59375 8.796875 
L 46.6875 54.6875 
L 56.203125 54.6875 
L 35.6875 0 
L 23.484375 0 
z
" id="DejaVuSans-118"/>
     </defs>
     <g transform="translate(28.475625 238.569375)rotate(-90)scale(0.28 -0.28)">
      <use xlink:href="#DejaVuSans-112"/>
      <use x="63.476562" xlink:href="#DejaVuSans-45"/>
      <use x="99.529297" xlink:href="#DejaVuSans-118"/>
      <use x="158.708984" xlink:href="#DejaVuSans-97"/>
      <use x="219.988281" xlink:href="#DejaVuSans-108"/>
      <use x="247.771484" xlink:href="#DejaVuSans-117"/>
      <use x="311.150391" xlink:href="#DejaVuSans-101"/>
      <use x="372.673828" xlink:href="#DejaVuSans-115"/>
     </g>
    </g>
   </g>
   <g id="line2d_7">
    <path clip-path="url(#pea49a31510)" d="M 103.714924 302.645455 
L 158.597905 302.544066 
L 160.727084 302.469589 
L 170.426677 302.177397 
L 173.975309 302.016132 
L 176.341063 301.867328 
L 177.997092 301.763915 
L 178.706818 301.685169 
L 184.148053 301.159452 
L 187.223534 300.738019 
L 188.642987 300.472901 
L 189.352713 300.316005 
L 189.825864 300.209278 
L 191.245316 299.968922 
L 191.718467 299.84971 
L 192.901345 299.783179 
L 193.374495 299.590513 
L 194.084222 299.431153 
L 194.320797 299.409421 
L 194.793948 299.174468 
L 196.213401 298.958303 
L 196.923127 298.318329 
L 197.632853 298.206511 
L 197.869429 298.025164 
L 198.34258 297.885641 
L 199.762032 297.395256 
L 200.471759 297.203326 
L 201.418061 297.115072 
L 202.127787 296.948916 
L 203.074089 296.803875 
L 203.54724 296.701144 
L 204.02039 296.617399 
L 204.966692 296.423158 
L 206.859296 296.015767 
L 207.095871 295.522252 
L 208.278748 295.259243 
L 208.515324 295.220009 
L 208.751899 294.978298 
L 209.461626 294.880369 
L 209.698201 294.824378 
L 209.934777 294.569464 
L 210.171352 294.518117 
L 210.407927 294.297571 
L 210.644503 294.27888 
L 210.881078 293.802283 
L 213.010257 293.462803 
L 214.193135 293.343962 
L 214.902861 293.089429 
L 215.376012 292.981046 
L 215.849163 292.640982 
L 216.322314 292.565931 
L 216.558889 292.358271 
L 217.268615 292.172519 
L 218.688068 291.566382 
L 219.397794 290.909185 
L 219.870945 290.859013 
L 220.580672 290.487519 
L 221.526973 290.339099 
L 222.2367 289.963351 
L 223.656152 289.776015 
L 223.892728 289.551732 
L 224.602454 289.371477 
L 225.785331 288.734775 
L 227.441359 288.407038 
L 228.387661 287.797627 
L 228.860812 287.621269 
L 229.097388 287.388195 
L 230.280265 287.164486 
L 230.51684 286.838521 
L 230.753416 286.780538 
L 231.226567 286.19113 
L 231.936293 286.094781 
L 232.409444 285.71574 
L 233.592321 285.543044 
L 233.828896 285.155852 
L 234.538623 284.858386 
L 235.011774 284.580461 
L 235.484925 284.020116 
L 236.194651 283.596007 
L 237.140953 282.825956 
L 237.614104 282.626331 
L 237.850679 282.153603 
L 238.796981 281.9842 
L 239.270132 281.402303 
L 239.506707 281.389444 
L 240.689584 280.670892 
L 240.92616 280.670014 
L 241.399311 280.362607 
L 241.872462 280.170412 
L 243.765065 278.886143 
L 244.711367 278.534935 
L 244.947942 278.396337 
L 245.421093 277.885234 
L 245.657669 277.715397 
L 246.367395 276.457245 
L 246.60397 276.267271 
L 246.840546 275.638291 
L 247.077121 275.568122 
L 247.313697 275.377343 
L 247.550272 274.663253 
L 247.786848 274.604924 
L 248.259999 274.135658 
L 248.496574 274.052349 
L 248.969725 272.539808 
L 249.679451 271.905839 
L 249.916027 271.863775 
L 250.152602 271.509141 
L 250.625753 271.385851 
L 251.098904 270.674207 
L 251.335479 270.41973 
L 251.80863 270.185986 
L 252.281781 269.917815 
L 252.518357 269.442271 
L 252.991507 267.78651 
L 253.701234 267.338408 
L 253.937809 267.158887 
L 254.41096 266.632514 
L 254.647536 266.615293 
L 255.120686 266.211489 
L 255.357262 266.190318 
L 255.593837 265.971081 
L 255.830413 265.193924 
L 256.303564 265.112055 
L 257.249865 264.232271 
L 257.723016 262.884467 
L 258.196167 262.624124 
L 259.142469 262.361143 
L 259.61562 261.795023 
L 260.325346 261.405949 
L 260.798497 261.057555 
L 261.271648 261.013726 
L 261.508223 260.484852 
L 261.744799 260.414355 
L 261.981374 259.706064 
L 262.21795 259.694585 
L 263.164252 258.362113 
L 264.347129 257.913706 
L 264.583704 257.554727 
L 265.056855 257.503397 
L 265.293431 256.685544 
L 265.530006 256.506989 
L 265.766581 256.485795 
L 266.003157 256.294111 
L 266.476308 255.727333 
L 266.712883 255.614923 
L 267.659185 253.97575 
L 268.842062 253.880148 
L 269.078638 253.58028 
L 269.315213 253.045184 
L 270.024939 252.766467 
L 270.261515 252.202602 
L 270.49809 252.078232 
L 270.971241 251.351199 
L 271.444392 251.23908 
L 272.154118 250.914301 
L 273.10042 249.42652 
L 273.336996 248.832693 
L 273.810147 248.533075 
L 274.046722 248.420653 
L 274.283297 247.270054 
L 274.756448 247.244831 
L 275.229599 246.69129 
L 275.70275 246.640497 
L 276.649052 246.148167 
L 276.885627 246.029375 
L 277.122203 245.443738 
L 277.595354 245.172266 
L 278.068505 243.468245 
L 278.30508 243.423002 
L 278.541655 243.208794 
L 279.014806 242.358303 
L 279.251382 242.268609 
L 279.724533 241.407985 
L 279.961108 241.322474 
L 280.197684 240.727149 
L 280.434259 240.683497 
L 280.670834 240.461897 
L 280.90741 240.451788 
L 281.380561 240.175508 
L 281.617136 240.104635 
L 282.090287 238.680772 
L 282.326863 238.59166 
L 282.563438 238.072005 
L 282.800013 237.950191 
L 283.036589 237.264091 
L 283.273164 237.181408 
L 283.746315 236.387034 
L 283.982891 235.895802 
L 284.692617 235.67043 
L 284.929192 235.273405 
L 285.165768 233.993479 
L 286.11207 233.755237 
L 286.348645 232.789188 
L 287.531522 231.524302 
L 288.004673 231.397679 
L 288.7144 230.538333 
L 288.950975 230.399743 
L 290.607003 228.033887 
L 290.843579 227.90166 
L 291.080154 226.978923 
L 291.316729 226.903642 
L 291.78988 225.903162 
L 292.026456 225.852574 
L 292.499607 225.338564 
L 292.736182 225.132641 
L 293.445908 222.663943 
L 293.682484 222.410805 
L 294.155635 221.140515 
L 294.39221 220.915777 
L 294.628786 219.516557 
L 295.101937 218.594363 
L 295.338512 218.303098 
L 295.811663 218.08115 
L 296.048238 217.804178 
L 296.99454 217.55897 
L 297.231116 217.03148 
L 297.704266 216.758138 
L 297.940842 215.283172 
L 298.177417 215.019289 
L 298.650568 214.901779 
L 299.833445 211.801744 
L 300.779747 210.72577 
L 301.016323 210.71746 
L 301.252898 210.454332 
L 301.489474 209.691589 
L 301.962624 209.587526 
L 302.1992 208.599677 
L 302.435775 208.515741 
L 302.672351 205.058394 
L 302.908926 204.832853 
L 303.382077 203.820869 
L 303.618653 203.663195 
L 304.091803 202.610988 
L 304.328379 201.08786 
L 304.564954 201.036395 
L 304.80153 200.458313 
L 305.038105 199.031144 
L 305.511256 198.449164 
L 305.747832 198.391972 
L 305.984407 197.643808 
L 306.220982 197.468564 
L 306.457558 195.662679 
L 306.694133 195.586079 
L 307.167284 195.002793 
L 308.113586 193.909693 
L 308.823312 193.694345 
L 309.059888 193.160718 
L 309.533039 191.529826 
L 310.242765 189.424339 
L 310.47934 189.358924 
L 310.715916 188.519789 
L 310.952491 188.512925 
L 311.662218 187.063837 
L 312.135369 186.856489 
L 312.371944 186.851185 
L 312.608519 185.262224 
L 312.845095 185.071126 
L 313.08167 183.83296 
L 313.318246 183.816101 
L 313.791397 182.973189 
L 314.027972 182.585199 
L 314.501123 180.87172 
L 314.737698 180.659854 
L 314.974274 180.169949 
L 315.210849 177.619931 
L 315.447425 177.03358 
L 315.684 175.531005 
L 315.920576 175.281245 
L 316.393727 172.467118 
L 317.103453 170.689095 
L 318.049755 168.175124 
L 318.28633 167.695376 
L 318.522906 165.751895 
L 318.759481 165.677184 
L 318.996056 165.086275 
L 319.469207 164.97585 
L 319.705783 162.83135 
L 319.942358 162.301428 
L 320.178934 160.560261 
L 320.415509 160.045665 
L 320.652085 159.978369 
L 320.88866 159.707298 
L 321.125235 159.086073 
L 321.361811 158.986046 
L 321.834962 157.928757 
L 322.071537 155.999114 
L 322.308113 155.203051 
L 322.781264 154.945112 
L 323.49099 151.166629 
L 323.727565 150.832266 
L 323.964141 149.858977 
L 324.200716 149.582988 
L 324.437292 148.514185 
L 324.673867 148.024263 
L 324.910443 146.49643 
L 325.147018 143.461426 
L 325.383593 143.260107 
L 325.620169 140.547173 
L 326.329895 139.915087 
L 326.566471 139.853818 
L 326.803046 138.997932 
L 327.039622 138.794544 
L 327.276197 138.310486 
L 327.512772 137.414092 
L 327.749348 137.012995 
L 327.985923 135.686704 
L 328.222499 134.993694 
L 328.459074 134.76633 
L 328.69565 134.216327 
L 328.932225 132.3195 
L 329.168801 132.261056 
L 329.405376 131.192231 
L 330.115102 129.833356 
L 330.351678 128.976458 
L 330.588253 128.937648 
L 330.824829 128.492677 
L 331.061404 127.23745 
L 331.534555 127.0094 
L 331.77113 124.964047 
L 332.007706 124.518811 
L 332.244281 123.607335 
L 332.480857 123.39715 
L 333.663734 116.437768 
L 333.900309 116.140892 
L 334.610036 112.687479 
L 334.846611 112.613167 
L 335.083187 112.362701 
L 335.319762 111.51347 
L 335.556338 109.96874 
L 335.792913 109.470615 
L 336.266064 107.696263 
L 336.739215 102.604893 
L 336.97579 102.289772 
L 337.212366 99.083141 
L 337.922092 97.761467 
L 338.158667 97.603676 
L 338.395243 96.955861 
L 338.868394 94.773569 
L 339.341545 93.479461 
L 339.814696 91.047602 
L 340.760997 86.949408 
L 340.997573 83.982053 
L 341.234148 83.326953 
L 341.470724 83.326235 
L 341.707299 81.889366 
L 341.943875 78.674589 
L 342.18045 78.560992 
L 342.417025 78.031841 
L 342.653601 76.560685 
L 343.126752 72.609849 
L 343.599903 70.981057 
L 343.836478 70.639228 
L 344.073054 70.604166 
L 344.309629 69.767578 
L 344.546204 68.022485 
L 344.78278 67.768476 
L 345.019355 66.906625 
L 345.255931 64.796423 
L 345.492506 64.544702 
L 345.729082 61.749776 
L 345.965657 61.009913 
L 346.202233 60.845453 
L 346.675383 59.802248 
L 346.911959 57.908477 
L 347.38511 57.405241 
L 347.621685 56.340093 
L 347.855739 56.095886 
L 347.855739 56.095886 
" style="fill:none;stroke:#b8860b;stroke-linecap:square;stroke-opacity:0.75;stroke-width:2;"/>
   </g>
   <g id="line2d_8">
    <path clip-path="url(#pea49a31510)" d="M 106.104972 302.645455 
L 109.748765 302.645455 
L 113.432466 302.645455 
L 117.116166 302.645455 
L 120.799867 302.645455 
L 124.483567 302.645455 
L 128.167268 302.645455 
L 131.850968 302.645455 
L 135.534669 302.645455 
L 139.218369 302.645455 
L 142.90207 302.645455 
L 146.58577 302.645455 
L 150.269471 302.645455 
L 153.953171 302.645455 
L 157.636872 302.645455 
L 161.320572 302.645455 
L 165.004273 302.645454 
L 168.687973 302.645454 
L 172.371674 302.645454 
L 176.055374 302.645453 
L 179.739075 302.645451 
L 183.422775 302.64545 
L 187.106476 302.645447 
L 190.790176 302.645447 
L 194.473877 302.645433 
L 198.157578 302.645272 
L 201.841278 302.645192 
L 205.524979 302.64519 
L 209.208679 302.645168 
L 212.89238 302.645011 
L 216.57608 302.644525 
L 220.259781 302.644131 
L 223.943481 302.642901 
L 227.627182 302.642184 
L 231.310882 302.641716 
L 234.994583 302.640699 
L 238.678283 302.632972 
L 242.361984 302.604954 
L 246.045684 302.598718 
L 249.729385 302.556736 
L 253.413085 302.547865 
L 257.096786 302.516376 
L 260.780486 302.486625 
L 264.464187 302.421335 
L 268.147887 302.411378 
L 271.831588 302.395168 
L 275.515288 302.257109 
L 279.198989 302.130595 
L 282.882689 301.991061 
L 286.56639 301.333874 
L 290.25009 299.968922 
L 293.933791 297.885641 
L 297.617491 296.948916 
L 301.301192 293.503717 
L 304.984892 292.358271 
L 308.668593 289.776015 
L 312.352293 286.838521 
L 316.035994 284.77648 
L 319.719694 278.085117 
L 323.403395 277.715397 
L 327.087095 266.190318 
L 330.770796 256.485795 
L 334.454496 203.05827 
L 338.138197 128.492677 
L 341.821897 94.020605 
L 345.465691 56.340093 
" style="fill:none;stroke:#8b0000;stroke-linecap:square;stroke-opacity:0.75;stroke-width:2;"/>
   </g>
   <g id="line2d_9">
    <path clip-path="url(#pea49a31510)" d="M 103.965912 302.645455 
L 184.178973 302.544066 
L 189.566847 302.41608 
L 201.5399 302.219861 
L 204.533163 302.133174 
L 207.526426 302.016132 
L 214.710258 301.664267 
L 216.506215 301.422235 
L 218.900826 301.333874 
L 220.098131 300.891816 
L 220.696784 300.874887 
L 221.295437 300.712416 
L 222.492742 300.669398 
L 223.091394 300.157655 
L 224.887352 299.632167 
L 226.68331 299.454867 
L 227.281963 299.227213 
L 228.479268 299.116313 
L 230.275226 297.885641 
L 230.873879 297.77338 
L 231.472531 297.294188 
L 233.867142 296.85626 
L 235.6631 296.462213 
L 239.255016 296.015767 
L 239.853668 294.921089 
L 240.452321 294.518117 
L 241.050974 294.27888 
L 241.649626 293.753311 
L 242.248279 293.503717 
L 243.445584 293.343962 
L 244.044237 293.123831 
L 245.241542 293.082554 
L 246.438847 292.358271 
L 247.636153 292.172519 
L 248.833458 291.733095 
L 249.43211 291.013171 
L 250.030763 290.909185 
L 251.228068 290.198536 
L 253.622679 289.866453 
L 254.221332 289.095232 
L 254.819984 289.023034 
L 256.01729 288.446511 
L 256.615942 287.86437 
L 257.214595 287.759147 
L 257.813247 287.388195 
L 259.010553 286.19113 
L 260.806511 286.094781 
L 262.003816 285.71574 
L 263.201121 285.661976 
L 263.799774 285.093373 
L 264.398426 284.77648 
L 264.997079 283.596007 
L 266.194384 283.071577 
L 266.793037 282.825956 
L 267.990342 282.626331 
L 268.588995 282.153603 
L 269.187648 282.051014 
L 269.7863 281.023196 
L 270.983605 280.001847 
L 273.976869 278.085117 
L 275.174174 277.715397 
L 275.772827 277.293471 
L 276.371479 277.046541 
L 277.568784 274.052349 
L 278.167437 272.084269 
L 278.76609 271.459233 
L 280.562048 266.632514 
L 281.1607 266.615293 
L 281.759353 266.190318 
L 282.358006 265.971081 
L 282.956658 264.232271 
L 283.555311 263.46896 
L 284.153963 261.795023 
L 284.752616 261.606326 
L 285.949921 260.484852 
L 286.548574 259.694585 
L 287.147227 256.506989 
L 287.745879 256.485795 
L 288.344532 255.951772 
L 289.541837 254.53666 
L 290.14049 254.31443 
L 290.739142 253.967275 
L 291.936448 253.880148 
L 292.5351 253.045184 
L 293.133753 252.959249 
L 294.331058 251.351199 
L 294.929711 250.543875 
L 295.528364 249.42652 
L 296.127016 248.832693 
L 296.725669 247.270054 
L 297.324321 247.264957 
L 297.922974 245.443738 
L 299.120279 245.172266 
L 299.718932 241.407985 
L 300.317585 241.322474 
L 300.916237 239.280606 
L 301.51489 233.993479 
L 302.113543 231.931334 
L 302.712195 231.566529 
L 303.310848 231.489444 
L 303.9095 230.667579 
L 304.508153 230.399743 
L 305.106806 228.272524 
L 305.705458 227.90166 
L 306.304111 226.903642 
L 308.100069 225.528186 
L 309.297374 225.132641 
L 309.896027 224.27073 
L 310.49468 222.663943 
L 311.093332 217.03148 
L 312.290637 216.758138 
L 312.88929 215.283172 
L 313.487943 210.800665 
L 314.086595 209.591725 
L 314.685248 205.058394 
L 315.283901 203.05827 
L 315.882553 202.610988 
L 316.481206 201.08786 
L 317.079859 199.031144 
L 317.678511 198.729666 
L 318.277164 193.973984 
L 319.474469 193.694345 
L 320.073122 189.857888 
L 320.671774 189.424339 
L 321.270427 187.063837 
L 322.467732 186.851185 
L 323.066385 185.262224 
L 323.665038 185.071126 
L 324.26369 183.83296 
L 324.862343 182.973189 
L 325.460995 181.660457 
L 326.059648 173.727018 
L 326.658301 170.689095 
L 327.256953 165.086275 
L 327.855606 165.052811 
L 328.454259 162.83135 
L 329.052911 160.045665 
L 329.651564 155.999114 
L 330.250217 155.063998 
L 330.848869 154.945112 
L 331.447522 151.84385 
L 332.046174 140.547173 
L 332.644827 140.198128 
L 333.24348 138.794544 
L 333.842132 132.3195 
L 335.039438 124.964047 
L 335.63809 119.959535 
L 336.236743 116.437768 
L 336.835396 99.083141 
L 337.434048 97.603676 
L 338.032701 94.020605 
L 338.631353 91.927838 
L 339.230006 86.949408 
L 339.828659 83.982053 
L 340.427311 83.326953 
L 341.025964 78.560992 
L 341.624617 72.609849 
L 342.223269 71.760569 
L 342.821922 70.604166 
L 343.420575 68.022485 
L 344.019227 67.768476 
L 344.61788 64.796423 
L 345.216532 64.544702 
L 345.815185 61.749776 
L 347.01249 57.711074 
L 347.60475 56.340093 
L 347.60475 56.340093 
" style="fill:none;stroke:#228b22;stroke-linecap:square;stroke-opacity:0.75;stroke-width:2;"/>
   </g>
   <g id="line2d_10">
    <path clip-path="url(#pea49a31510)" d="M 104.327011 302.645455 
L 212.910599 302.544066 
L 224.106018 302.395168 
L 235.301438 302.257109 
L 245.377316 301.928422 
L 246.496858 301.710782 
L 249.855484 301.551295 
L 252.094568 301.385838 
L 253.21411 301.333874 
L 254.333652 301.118607 
L 255.453194 300.673483 
L 256.572736 300.669398 
L 257.692278 299.968922 
L 258.81182 299.632167 
L 259.931362 299.503958 
L 262.170446 298.709861 
L 263.289988 297.885641 
L 264.40953 297.294188 
L 265.529072 297.203219 
L 266.648614 296.948916 
L 267.768156 296.545385 
L 270.007239 296.384424 
L 271.126781 296.160395 
L 272.246323 296.100491 
L 273.365865 294.27888 
L 274.485407 293.503717 
L 275.604949 293.082554 
L 276.724491 292.358271 
L 277.844033 292.172519 
L 278.963575 289.877385 
L 280.083117 289.866453 
L 281.202659 286.838521 
L 282.322201 286.19113 
L 284.561285 286.18238 
L 285.680827 285.71574 
L 286.800369 284.77648 
L 289.039453 282.153603 
L 290.158995 282.051014 
L 291.278537 279.618343 
L 292.398079 279.265118 
L 293.517621 278.085117 
L 294.637163 277.715397 
L 296.876247 266.632514 
L 297.995789 266.190318 
L 299.115331 265.971081 
L 300.234873 261.606326 
L 301.354415 259.694585 
L 302.473957 256.506989 
L 303.593499 256.485795 
L 304.713041 254.31443 
L 305.832583 253.045184 
L 306.952125 252.959249 
L 308.071667 250.543875 
L 309.191209 249.42652 
L 311.430293 245.172266 
L 312.549835 241.322474 
L 313.669377 233.993479 
L 314.788919 231.566529 
L 315.908461 230.399743 
L 317.028003 226.903642 
L 318.147545 216.758138 
L 319.267087 209.591725 
L 320.386629 205.058394 
L 321.506171 203.05827 
L 322.625713 198.729666 
L 323.745254 187.063837 
L 324.864796 185.262224 
L 325.984338 185.071126 
L 327.10388 183.83296 
L 328.223422 182.973189 
L 329.342964 170.689095 
L 330.462506 155.063998 
L 331.582048 154.945112 
L 332.70159 132.3195 
L 333.821132 128.492677 
L 334.940674 94.020605 
L 336.060216 86.949408 
L 337.179758 83.982053 
L 338.2993 83.326953 
L 339.418842 78.560992 
L 340.538384 72.609849 
L 341.657926 64.796423 
L 342.777468 64.544702 
L 343.89701 61.749776 
L 346.136094 57.711074 
L 347.243651 56.340093 
L 347.243651 56.340093 
" style="fill:none;stroke:#000080;stroke-linecap:square;stroke-opacity:0.75;stroke-width:2;"/>
   </g>
   <g id="line2d_11">
    <path clip-path="url(#pea49a31510)" d="M 103.550939 290.290909 
L 348.019723 290.290909 
" style="fill:none;stroke:#ff0000;stroke-dasharray:3.7,1.6;stroke-dashoffset:0;"/>
   </g>
   <g id="patch_3">
    <path d="M 91.3275 315 
L 91.3275 43.2 
" style="fill:none;stroke:#000000;stroke-linecap:square;stroke-linejoin:miter;"/>
   </g>
   <g id="patch_4">
    <path d="M 91.3275 315 
L 360.243163 315 
" style="fill:none;stroke:#000000;stroke-linecap:square;stroke-linejoin:miter;"/>
   </g>
   <g id="text_9">
    <!-- Chen -->
    <defs>
     <path d="M 64.40625 67.28125 
L 64.40625 56.890625 
Q 59.421875 61.53125 53.78125 63.8125 
Q 48.140625 66.109375 41.796875 66.109375 
Q 29.296875 66.109375 22.65625 58.46875 
Q 16.015625 50.828125 16.015625 36.375 
Q 16.015625 21.96875 22.65625 14.328125 
Q 29.296875 6.6875 41.796875 6.6875 
Q 48.140625 6.6875 53.78125 8.984375 
Q 59.421875 11.28125 64.40625 15.921875 
L 64.40625 5.609375 
Q 59.234375 2.09375 53.4375 0.328125 
Q 47.65625 -1.421875 41.21875 -1.421875 
Q 24.65625 -1.421875 15.125 8.703125 
Q 5.609375 18.84375 5.609375 36.375 
Q 5.609375 53.953125 15.125 64.078125 
Q 24.65625 74.21875 41.21875 74.21875 
Q 47.75 74.21875 53.53125 72.484375 
Q 59.328125 70.75 64.40625 67.28125 
z
" id="DejaVuSans-67"/>
     <path d="M 54.890625 33.015625 
L 54.890625 0 
L 45.90625 0 
L 45.90625 32.71875 
Q 45.90625 40.484375 42.875 44.328125 
Q 39.84375 48.1875 33.796875 48.1875 
Q 26.515625 48.1875 22.3125 43.546875 
Q 18.109375 38.921875 18.109375 30.90625 
L 18.109375 0 
L 9.078125 0 
L 9.078125 75.984375 
L 18.109375 75.984375 
L 18.109375 46.1875 
Q 21.34375 51.125 25.703125 53.5625 
Q 30.078125 56 35.796875 56 
Q 45.21875 56 50.046875 50.171875 
Q 54.890625 44.34375 54.890625 33.015625 
z
" id="DejaVuSans-104"/>
    </defs>
    <g transform="translate(115.774378 76.83017)scale(0.28 -0.28)">
     <use xlink:href="#DejaVuSans-67"/>
     <use x="69.824219" xlink:href="#DejaVuSans-104"/>
     <use x="133.203125" xlink:href="#DejaVuSans-101"/>
     <use x="194.726562" xlink:href="#DejaVuSans-110"/>
    </g>
   </g>
  </g>
  <g id="axes_2">
   <g id="patch_5">
    <path d="M 373.688946 315 
L 642.604608 315 
L 642.604608 43.2 
L 373.688946 43.2 
z
" style="fill:none;"/>
   </g>
   <g id="matplotlib.axis_3">
    <g id="xtick_4">
     <g id="line2d_12">
      <g>
       <use style="stroke:#000000;stroke-width:0.8;" x="385.912385" xlink:href="#m448a6c1922" y="315"/>
      </g>
     </g>
     <g id="text_10">
      <!-- 0 -->
      <g transform="translate(377.004885 344.775625)scale(0.28 -0.28)">
       <use xlink:href="#DejaVuSans-48"/>
      </g>
     </g>
    </g>
    <g id="xtick_5">
     <g id="line2d_13">
      <g>
       <use style="stroke:#000000;stroke-width:0.8;" x="508.146777" xlink:href="#m448a6c1922" y="315"/>
      </g>
     </g>
     <g id="text_11">
      <!-- 0.5 -->
      <g transform="translate(485.882402 344.775625)scale(0.28 -0.28)">
       <use xlink:href="#DejaVuSans-48"/>
       <use x="63.623047" xlink:href="#DejaVuSans-46"/>
       <use x="95.410156" xlink:href="#DejaVuSans-53"/>
      </g>
     </g>
    </g>
    <g id="xtick_6">
     <g id="line2d_14">
      <g>
       <use style="stroke:#000000;stroke-width:0.8;" x="630.381169" xlink:href="#m448a6c1922" y="315"/>
      </g>
     </g>
     <g id="text_12">
      <!-- 1 -->
      <g transform="translate(621.473669 344.775625)scale(0.28 -0.28)">
       <use xlink:href="#DejaVuSans-49"/>
      </g>
     </g>
    </g>
    <g id="text_13">
     <!-- Quantiles -->
     <g transform="translate(441.62709 375.874375)scale(0.28 -0.28)">
      <use xlink:href="#DejaVuSans-81"/>
      <use x="78.710938" xlink:href="#DejaVuSans-117"/>
      <use x="142.089844" xlink:href="#DejaVuSans-97"/>
      <use x="203.369141" xlink:href="#DejaVuSans-110"/>
      <use x="266.748047" xlink:href="#DejaVuSans-116"/>
      <use x="305.957031" xlink:href="#DejaVuSans-105"/>
      <use x="333.740234" xlink:href="#DejaVuSans-108"/>
      <use x="361.523438" xlink:href="#DejaVuSans-101"/>
      <use x="423.046875" xlink:href="#DejaVuSans-115"/>
     </g>
    </g>
   </g>
   <g id="matplotlib.axis_4">
    <g id="ytick_4"/>
    <g id="ytick_5"/>
    <g id="ytick_6"/>
   </g>
   <g id="line2d_15">
    <path clip-path="url(#paf6fa565ce)" d="M 386.737588 302.645454 
L 405.771419 302.544426 
L 411.723475 302.386299 
L 424.817997 301.793379 
L 426.008408 301.202912 
L 429.579642 301.093383 
L 430.770053 300.899063 
L 431.960464 300.1868 
L 433.150875 300.075061 
L 434.341286 299.769176 
L 437.91252 299.410728 
L 439.102931 298.778832 
L 440.293342 298.77085 
L 441.483753 298.575474 
L 442.674164 297.843671 
L 446.245398 297.75606 
L 447.435809 297.352718 
L 448.62622 297.078045 
L 449.816631 297.018275 
L 451.007042 296.593913 
L 452.197453 296.395881 
L 454.578276 295.504889 
L 458.149509 295.36208 
L 459.33992 294.952081 
L 460.530331 294.90862 
L 461.720743 294.304596 
L 467.672798 293.853647 
L 468.863209 293.640287 
L 470.053621 292.716955 
L 471.244032 292.108631 
L 473.624854 291.917151 
L 474.815265 291.251634 
L 476.005676 291.200676 
L 477.196087 290.422723 
L 478.386499 289.206852 
L 479.57691 287.14834 
L 481.957732 286.768732 
L 483.148143 286.016752 
L 484.338554 285.907232 
L 485.528965 285.474788 
L 486.719377 285.193098 
L 487.909788 282.121291 
L 489.100199 281.97926 
L 490.29061 281.136894 
L 492.671432 278.45902 
L 493.861843 278.193291 
L 495.052255 277.246129 
L 496.242666 276.732295 
L 497.433077 272.922168 
L 498.623488 271.861687 
L 501.00431 270.558626 
L 502.194721 269.406699 
L 504.575544 269.298582 
L 505.765955 268.539068 
L 506.956366 266.580351 
L 509.337188 264.41185 
L 510.527599 263.032204 
L 511.718011 260.72282 
L 512.908422 259.438071 
L 514.098833 259.434463 
L 515.289244 259.205956 
L 517.670066 257.902408 
L 520.050889 255.683889 
L 522.431711 254.518582 
L 523.622122 253.64107 
L 524.812533 252.592466 
L 526.002944 251.770059 
L 528.383767 251.656148 
L 529.574178 251.14111 
L 530.764589 249.162515 
L 531.955 248.032061 
L 533.145411 247.858606 
L 534.335822 247.384756 
L 535.526233 246.070953 
L 537.907056 245.650525 
L 540.287878 244.576307 
L 541.478289 243.359872 
L 542.6687 242.772168 
L 543.859111 240.142689 
L 545.049523 238.691102 
L 546.239934 238.535891 
L 547.430345 234.064619 
L 548.620756 233.97861 
L 549.811167 233.021571 
L 551.001578 231.197116 
L 552.191989 231.13143 
L 553.382401 230.215114 
L 554.572812 228.858498 
L 555.763223 228.436686 
L 556.953634 228.296137 
L 558.144045 227.324533 
L 560.524867 220.029551 
L 561.715279 219.790127 
L 562.90569 216.629136 
L 564.096101 212.731914 
L 566.476923 209.070058 
L 567.667334 208.816508 
L 568.857745 208.194555 
L 570.048157 205.552684 
L 571.238568 204.110971 
L 572.428979 203.385281 
L 573.61939 200.513535 
L 574.809801 197.112749 
L 576.000212 196.592553 
L 577.190623 194.781195 
L 578.381035 194.495494 
L 579.571446 183.279035 
L 580.761857 179.223887 
L 581.952268 178.825449 
L 583.142679 173.428487 
L 584.33309 161.260331 
L 585.523501 161.13801 
L 586.713912 157.528423 
L 587.904324 157.321417 
L 589.094735 153.897388 
L 590.285146 152.780102 
L 591.475557 149.182068 
L 592.665968 147.916486 
L 593.856379 147.250428 
L 595.04679 147.080904 
L 596.237202 146.517507 
L 597.427613 144.041241 
L 598.618024 141.167437 
L 600.998846 140.241263 
L 602.189257 133.524301 
L 603.379668 129.571181 
L 604.57008 129.125849 
L 605.760491 127.943117 
L 606.950902 120.864226 
L 608.141313 120.771465 
L 609.331724 114.710246 
L 610.522135 113.595546 
L 611.712546 113.580507 
L 612.902958 112.34747 
L 614.093369 109.500253 
L 615.28378 107.720576 
L 616.474191 103.183779 
L 617.664602 99.421937 
L 618.855013 94.032405 
L 620.045424 93.284355 
L 621.235836 92.35334 
L 622.426247 91.997471 
L 623.616658 87.086614 
L 624.807069 83.922331 
L 625.99748 76.970319 
L 627.187891 72.698528 
L 628.378302 70.024282 
L 629.555966 65.663556 
L 629.555966 65.663556 
" style="fill:none;stroke:#b8860b;stroke-linecap:square;stroke-opacity:0.75;stroke-width:2;"/>
   </g>
   <g id="line2d_16">
    <path clip-path="url(#paf6fa565ce)" d="M 388.767662 302.645445 
L 392.841025 302.64543 
L 396.959088 302.64449 
L 401.07715 302.642332 
L 405.195213 302.641531 
L 409.313276 302.640617 
L 413.431338 302.6365 
L 417.549401 302.623395 
L 421.667463 302.603985 
L 425.785526 302.600946 
L 429.903588 302.544426 
L 434.021651 302.507722 
L 438.139713 302.438317 
L 442.257776 302.436344 
L 446.375839 302.341141 
L 450.493901 302.207351 
L 454.611964 302.111466 
L 458.730026 302.059003 
L 462.848089 301.957575 
L 466.966151 301.937519 
L 471.084214 301.793379 
L 475.202277 301.175534 
L 479.320339 299.769176 
L 483.438402 298.778832 
L 487.556464 298.77085 
L 491.674527 297.787948 
L 495.792589 296.395881 
L 499.910652 295.962425 
L 504.028715 294.186394 
L 508.146777 293.640287 
L 512.26484 292.716955 
L 516.382902 292.004619 
L 520.500965 289.206852 
L 524.619027 279.735438 
L 528.73709 271.861687 
L 532.855153 269.406699 
L 536.973215 260.72282 
L 541.091278 258.491498 
L 545.20934 255.045543 
L 549.327403 252.592466 
L 553.445465 251.14111 
L 557.563528 242.772168 
L 561.68159 233.021571 
L 565.799653 231.197116 
L 569.917716 228.858498 
L 574.035778 228.436686 
L 578.153841 223.668345 
L 582.271903 210.94275 
L 586.389966 204.110971 
L 590.508028 200.513535 
L 594.626091 178.825449 
L 598.744154 152.780102 
L 602.862216 147.080904 
L 606.980279 120.771465 
L 611.098341 114.710246 
L 615.216404 112.34747 
L 619.334466 109.500253 
L 623.452529 92.35334 
L 627.525892 65.663556 
" style="fill:none;stroke:#8b0000;stroke-linecap:square;stroke-opacity:0.75;stroke-width:2;"/>
   </g>
   <g id="line2d_17">
    <path clip-path="url(#paf6fa565ce)" d="M 387.003188 302.645454 
L 412.162509 302.544426 
L 420.030072 302.386299 
L 437.33871 301.793379 
L 438.912223 301.202912 
L 443.632761 301.093383 
L 445.206273 300.899063 
L 446.779786 300.1868 
L 448.353299 300.075061 
L 449.926811 299.769176 
L 453.073836 299.521795 
L 454.647349 298.778832 
L 456.220861 298.77085 
L 457.794374 298.575474 
L 459.367887 297.843671 
L 464.088424 297.75606 
L 465.661937 297.352718 
L 467.23545 297.078045 
L 468.808962 296.593913 
L 470.382475 296.395881 
L 473.5295 295.504889 
L 478.250038 295.36208 
L 479.82355 294.952081 
L 481.397063 294.90862 
L 482.970576 294.304596 
L 487.691113 294.008993 
L 490.838139 293.640287 
L 492.411651 292.716955 
L 493.985164 292.004619 
L 495.558676 291.917151 
L 497.132189 290.422723 
L 498.705702 289.206852 
L 500.279214 287.14834 
L 503.426239 286.768732 
L 504.999752 286.016752 
L 506.573265 282.121291 
L 508.146777 279.735438 
L 509.72029 278.45902 
L 511.293802 278.193291 
L 512.867315 276.732295 
L 514.440827 272.922168 
L 516.01434 271.861687 
L 517.587853 271.269779 
L 519.161365 270.558626 
L 520.734878 269.406699 
L 522.30839 269.400947 
L 523.881903 265.48106 
L 527.028928 260.72282 
L 528.602441 259.438071 
L 530.175953 259.205956 
L 531.749466 258.491498 
L 533.322979 256.835355 
L 534.896491 255.683889 
L 536.470004 255.045543 
L 538.043516 252.592466 
L 539.617029 251.770059 
L 542.764054 251.656148 
L 544.337567 251.14111 
L 545.911079 248.032061 
L 547.484592 247.384756 
L 549.058105 245.885437 
L 550.631617 245.650525 
L 552.20513 244.576307 
L 553.778642 242.772168 
L 555.352155 238.691102 
L 556.925668 234.064619 
L 558.49918 233.021571 
L 560.072693 231.197116 
L 561.646205 231.13143 
L 563.219718 230.215114 
L 564.793231 228.858498 
L 566.366743 228.436686 
L 567.940256 228.296137 
L 569.513768 223.668345 
L 571.087281 219.790127 
L 572.660793 216.629136 
L 574.234306 212.731914 
L 575.807819 210.94275 
L 577.381331 208.816508 
L 578.954844 208.194555 
L 580.528356 204.110971 
L 582.101869 203.385281 
L 583.675382 200.513535 
L 585.248894 197.112749 
L 586.822407 196.592553 
L 588.395919 194.495494 
L 589.969432 183.279035 
L 591.542945 179.223887 
L 593.116457 178.825449 
L 594.68997 173.428487 
L 596.263482 153.897388 
L 597.836995 152.780102 
L 599.410508 147.916486 
L 600.98402 147.080904 
L 602.557533 146.517507 
L 604.131045 144.041241 
L 605.704558 141.167437 
L 608.851583 140.241263 
L 610.425096 133.524301 
L 611.998608 127.943117 
L 613.572121 120.771465 
L 615.145634 114.710246 
L 616.719146 113.595546 
L 618.292659 113.580507 
L 619.866171 112.34747 
L 621.439684 109.500253 
L 623.013196 99.421937 
L 626.160222 87.086614 
L 627.733734 76.970319 
L 629.290366 65.663556 
L 629.290366 65.663556 
" style="fill:none;stroke:#228b22;stroke-linecap:square;stroke-opacity:0.75;stroke-width:2;"/>
   </g>
   <g id="line2d_18">
    <path clip-path="url(#paf6fa565ce)" d="M 387.476369 302.645454 
L 389.708064 302.645453 
L 391.964039 302.645445 
L 394.220015 302.64543 
L 396.47599 302.64449 
L 398.731966 302.642332 
L 400.987941 302.641531 
L 403.243917 302.640617 
L 405.499892 302.6365 
L 407.755868 302.628776 
L 410.011843 302.623395 
L 412.267819 302.603985 
L 414.523794 302.600946 
L 416.77977 302.593965 
L 419.035745 302.567471 
L 421.291721 302.544426 
L 423.547696 302.532655 
L 425.803672 302.507722 
L 428.059647 302.438317 
L 430.315623 302.436344 
L 432.571598 302.386299 
L 434.827574 302.341141 
L 437.083549 302.337757 
L 439.339525 302.25428 
L 441.5955 302.207351 
L 443.851476 302.111466 
L 446.107451 302.059003 
L 448.363427 301.957575 
L 450.619402 301.937519 
L 452.875378 301.793379 
L 455.131353 301.202912 
L 457.387329 301.175534 
L 459.643304 301.093383 
L 461.89928 299.769176 
L 464.155255 298.778832 
L 466.411231 298.77085 
L 468.667206 297.843671 
L 470.923181 297.803837 
L 473.179157 297.787948 
L 475.435132 297.75606 
L 477.691108 297.352718 
L 479.947083 297.078045 
L 482.203059 296.593913 
L 484.459034 296.395881 
L 486.71501 295.962425 
L 488.970985 295.492078 
L 491.226961 295.405269 
L 493.482936 295.36208 
L 495.738912 294.952081 
L 497.994887 294.90862 
L 500.250863 294.221861 
L 502.506838 294.186394 
L 504.762814 293.640287 
L 507.018789 292.716955 
L 509.274765 292.004619 
L 511.53074 290.422723 
L 513.786716 289.206852 
L 516.042691 286.952595 
L 518.298667 286.768732 
L 520.554642 286.016752 
L 522.810618 282.121291 
L 525.066593 279.735438 
L 527.322569 278.193291 
L 529.578544 276.732295 
L 531.83452 271.861687 
L 534.090495 271.269779 
L 536.346471 269.406699 
L 538.602446 265.48106 
L 540.858422 263.032204 
L 543.114397 260.72282 
L 545.370373 258.491498 
L 547.626348 255.045543 
L 549.882324 252.592466 
L 552.138299 251.724395 
L 554.394275 251.14111 
L 556.65025 247.384756 
L 558.906226 242.772168 
L 561.162201 238.691102 
L 563.418177 233.021571 
L 565.674152 231.197116 
L 567.930128 231.13143 
L 570.186103 230.215114 
L 572.442079 228.858498 
L 574.698054 228.436686 
L 576.95403 223.668345 
L 579.210005 210.94275 
L 581.465981 208.816508 
L 583.721956 204.110971 
L 585.977932 200.513535 
L 588.233907 194.495494 
L 590.489883 178.825449 
L 592.745858 173.428487 
L 595.001834 153.897388 
L 597.257809 152.780102 
L 599.513785 147.916486 
L 601.76976 147.080904 
L 604.025736 146.517507 
L 606.281711 144.041241 
L 608.537687 141.167437 
L 610.793662 127.943117 
L 613.049638 120.771465 
L 615.305613 114.710246 
L 617.561588 113.595546 
L 619.817564 112.34747 
L 622.073539 109.500253 
L 624.329515 99.421937 
L 626.58549 76.970319 
L 628.817186 65.663556 
" style="fill:none;stroke:#000080;stroke-linecap:square;stroke-opacity:0.75;stroke-width:2;"/>
   </g>
   <g id="line2d_19">
    <path clip-path="url(#paf6fa565ce)" d="M 385.912385 290.290909 
L 630.381169 290.290909 
" style="fill:none;stroke:#ff0000;stroke-dasharray:3.7,1.6;stroke-dashoffset:0;"/>
   </g>
   <g id="patch_6">
    <path d="M 373.688946 315 
L 373.688946 43.2 
" style="fill:none;stroke:#000000;stroke-linecap:square;stroke-linejoin:miter;"/>
   </g>
   <g id="patch_7">
    <path d="M 373.688946 315 
L 642.604608 315 
" style="fill:none;stroke:#000000;stroke-linecap:square;stroke-linejoin:miter;"/>
   </g>
   <g id="text_14">
    <!-- Lescroart -->
    <defs>
     <path d="M 9.8125 72.90625 
L 19.671875 72.90625 
L 19.671875 8.296875 
L 55.171875 8.296875 
L 55.171875 0 
L 9.8125 0 
z
" id="DejaVuSans-76"/>
     <path d="M 48.78125 52.59375 
L 48.78125 44.1875 
Q 44.96875 46.296875 41.140625 47.34375 
Q 37.3125 48.390625 33.40625 48.390625 
Q 24.65625 48.390625 19.8125 42.84375 
Q 14.984375 37.3125 14.984375 27.296875 
Q 14.984375 17.28125 19.8125 11.734375 
Q 24.65625 6.203125 33.40625 6.203125 
Q 37.3125 6.203125 41.140625 7.25 
Q 44.96875 8.296875 48.78125 10.40625 
L 48.78125 2.09375 
Q 45.015625 0.34375 40.984375 -0.53125 
Q 36.96875 -1.421875 32.421875 -1.421875 
Q 20.0625 -1.421875 12.78125 6.34375 
Q 5.515625 14.109375 5.515625 27.296875 
Q 5.515625 40.671875 12.859375 48.328125 
Q 20.21875 56 33.015625 56 
Q 37.15625 56 41.109375 55.140625 
Q 45.0625 54.296875 48.78125 52.59375 
z
" id="DejaVuSans-99"/>
     <path d="M 41.109375 46.296875 
Q 39.59375 47.171875 37.8125 47.578125 
Q 36.03125 48 33.890625 48 
Q 26.265625 48 22.1875 43.046875 
Q 18.109375 38.09375 18.109375 28.8125 
L 18.109375 0 
L 9.078125 0 
L 9.078125 54.6875 
L 18.109375 54.6875 
L 18.109375 46.1875 
Q 20.953125 51.171875 25.484375 53.578125 
Q 30.03125 56 36.53125 56 
Q 37.453125 56 38.578125 55.875 
Q 39.703125 55.765625 41.0625 55.515625 
z
" id="DejaVuSans-114"/>
     <path d="M 30.609375 48.390625 
Q 23.390625 48.390625 19.1875 42.75 
Q 14.984375 37.109375 14.984375 27.296875 
Q 14.984375 17.484375 19.15625 11.84375 
Q 23.34375 6.203125 30.609375 6.203125 
Q 37.796875 6.203125 41.984375 11.859375 
Q 46.1875 17.53125 46.1875 27.296875 
Q 46.1875 37.015625 41.984375 42.703125 
Q 37.796875 48.390625 30.609375 48.390625 
z
M 30.609375 56 
Q 42.328125 56 49.015625 48.375 
Q 55.71875 40.765625 55.71875 27.296875 
Q 55.71875 13.875 49.015625 6.21875 
Q 42.328125 -1.421875 30.609375 -1.421875 
Q 18.84375 -1.421875 12.171875 6.21875 
Q 5.515625 13.875 5.515625 27.296875 
Q 5.515625 40.765625 12.171875 48.375 
Q 18.84375 56 30.609375 56 
z
" id="DejaVuSans-111"/>
    </defs>
    <g transform="translate(398.135824 76.83017)scale(0.28 -0.28)">
     <use xlink:href="#DejaVuSans-76"/>
     <use x="55.697266" xlink:href="#DejaVuSans-101"/>
     <use x="117.220703" xlink:href="#DejaVuSans-115"/>
     <use x="169.320312" xlink:href="#DejaVuSans-99"/>
     <use x="224.300781" xlink:href="#DejaVuSans-114"/>
     <use x="265.382812" xlink:href="#DejaVuSans-111"/>
     <use x="326.564453" xlink:href="#DejaVuSans-97"/>
     <use x="387.84375" xlink:href="#DejaVuSans-114"/>
     <use x="428.957031" xlink:href="#DejaVuSans-116"/>
    </g>
   </g>
  </g>
  <g id="axes_3">
   <g id="patch_8">
    <path d="M 656.050392 315 
L 924.966054 315 
L 924.966054 43.2 
L 656.050392 43.2 
z
" style="fill:none;"/>
   </g>
   <g id="matplotlib.axis_5">
    <g id="xtick_7">
     <g id="line2d_20">
      <g>
       <use style="stroke:#000000;stroke-width:0.8;" x="668.273831" xlink:href="#m448a6c1922" y="315"/>
      </g>
     </g>
     <g id="text_15">
      <!-- 0 -->
      <g transform="translate(659.366331 344.775625)scale(0.28 -0.28)">
       <use xlink:href="#DejaVuSans-48"/>
      </g>
     </g>
    </g>
    <g id="xtick_8">
     <g id="line2d_21">
      <g>
       <use style="stroke:#000000;stroke-width:0.8;" x="790.508223" xlink:href="#m448a6c1922" y="315"/>
      </g>
     </g>
     <g id="text_16">
      <!-- 0.5 -->
      <g transform="translate(768.243848 344.775625)scale(0.28 -0.28)">
       <use xlink:href="#DejaVuSans-48"/>
       <use x="63.623047" xlink:href="#DejaVuSans-46"/>
       <use x="95.410156" xlink:href="#DejaVuSans-53"/>
      </g>
     </g>
    </g>
    <g id="xtick_9">
     <g id="line2d_22">
      <g>
       <use style="stroke:#000000;stroke-width:0.8;" x="912.742615" xlink:href="#m448a6c1922" y="315"/>
      </g>
     </g>
     <g id="text_17">
      <!-- 1 -->
      <g transform="translate(903.835115 344.775625)scale(0.28 -0.28)">
       <use xlink:href="#DejaVuSans-49"/>
      </g>
     </g>
    </g>
    <g id="text_18">
     <!-- Quantiles -->
     <g transform="translate(723.988535 375.874375)scale(0.28 -0.28)">
      <use xlink:href="#DejaVuSans-81"/>
      <use x="78.710938" xlink:href="#DejaVuSans-117"/>
      <use x="142.089844" xlink:href="#DejaVuSans-97"/>
      <use x="203.369141" xlink:href="#DejaVuSans-110"/>
      <use x="266.748047" xlink:href="#DejaVuSans-116"/>
      <use x="305.957031" xlink:href="#DejaVuSans-105"/>
      <use x="333.740234" xlink:href="#DejaVuSans-108"/>
      <use x="361.523438" xlink:href="#DejaVuSans-101"/>
      <use x="423.046875" xlink:href="#DejaVuSans-115"/>
     </g>
    </g>
   </g>
   <g id="matplotlib.axis_6">
    <g id="ytick_7"/>
    <g id="ytick_8"/>
    <g id="ytick_9"/>
   </g>
   <g id="line2d_23">
    <path clip-path="url(#pea64fc714d)" d="M 668.511377 302.645455 
L 683.243738 302.540067 
L 690.097698 302.01577 
L 691.125793 301.689541 
L 692.839283 301.4198 
L 693.524679 301.28585 
L 693.867377 301.265635 
L 695.238169 300.745136 
L 695.923565 300.626935 
L 696.951659 300.251175 
L 700.37864 299.934936 
L 701.406734 299.635835 
L 702.09213 299.582637 
L 702.777526 299.276222 
L 703.120224 299.235449 
L 703.462922 298.878486 
L 704.491016 298.571805 
L 704.833714 298.20453 
L 707.2326 297.642476 
L 707.575298 297.631829 
L 708.603392 297.27071 
L 709.631486 297.129109 
L 710.659581 296.740472 
L 711.002279 296.680883 
L 711.687675 296.30649 
L 713.401165 295.740521 
L 713.743863 295.2122 
L 714.771957 294.714008 
L 715.114655 294.385107 
L 717.513541 293.974232 
L 717.856239 293.774112 
L 718.884333 293.507604 
L 719.227031 293.285401 
L 719.56973 292.761692 
L 721.28322 292.290295 
L 721.968616 291.335547 
L 723.339408 290.861224 
L 723.682106 290.613162 
L 724.367502 290.524603 
L 724.7102 290.040309 
L 725.738294 289.558479 
L 726.766388 289.341345 
L 727.451784 288.865008 
L 727.794482 288.818735 
L 728.13718 288.531109 
L 728.822576 288.464438 
L 729.850671 287.661922 
L 730.878765 287.354254 
L 731.221463 287.000618 
L 731.906859 286.787538 
L 732.249557 286.359881 
L 732.592255 285.555824 
L 732.934953 285.289056 
L 733.963047 285.019197 
L 734.305745 284.568054 
L 735.333839 283.854947 
L 735.676537 282.661927 
L 736.361933 282.481563 
L 736.704631 282.137476 
L 737.390027 282.032006 
L 737.732725 281.586302 
L 738.418121 281.56008 
L 738.76082 281.299416 
L 739.103518 280.689277 
L 739.446216 280.498548 
L 740.131612 279.963998 
L 740.817008 279.779557 
L 741.502404 279.774144 
L 742.1878 279.517485 
L 742.530498 279.514754 
L 742.873196 279.352473 
L 743.215894 279.32178 
L 743.90129 278.079538 
L 746.300176 277.677834 
L 746.642874 276.890142 
L 747.670968 276.00703 
L 748.013666 275.692888 
L 748.699063 275.321303 
L 749.041761 274.718945 
L 750.069855 274.566481 
L 750.412553 274.158329 
L 751.783345 273.512823 
L 753.154137 273.346437 
L 753.839533 272.513612 
L 754.524929 272.244479 
L 754.867627 271.423099 
L 755.210325 271.178873 
L 755.553023 269.992535 
L 755.895721 269.67131 
L 757.266513 269.446713 
L 757.609211 269.279281 
L 757.95191 267.792945 
L 758.980004 267.000171 
L 759.6654 266.890933 
L 760.693494 266.249466 
L 761.036192 266.234098 
L 761.721588 265.063238 
L 763.09238 264.206444 
L 763.777776 263.510753 
L 764.120474 263.332689 
L 764.463172 261.843834 
L 764.80587 261.602077 
L 765.148568 261.581756 
L 765.833964 261.134117 
L 766.862058 260.509801 
L 767.204756 260.362211 
L 767.547455 260.037203 
L 767.890153 259.952675 
L 768.232851 259.633566 
L 768.575549 259.611146 
L 768.918247 259.189382 
L 769.260945 259.131257 
L 769.603643 258.812274 
L 769.946341 258.13462 
L 770.289039 257.887327 
L 770.631737 257.430409 
L 770.974435 256.378889 
L 771.659831 255.911906 
L 772.002529 255.830377 
L 772.345227 255.271917 
L 772.687925 255.17833 
L 773.030623 254.234016 
L 774.058717 253.876903 
L 774.401415 253.696796 
L 774.744113 253.270464 
L 775.086811 252.225868 
L 775.429509 252.1656 
L 775.772207 251.939116 
L 776.114905 250.744677 
L 776.457603 250.490225 
L 776.800301 250.41305 
L 777.142999 249.721254 
L 777.485698 249.328445 
L 778.171094 249.138984 
L 779.199188 248.905696 
L 779.884584 248.446893 
L 780.227282 248.384461 
L 780.912678 247.575423 
L 781.255376 247.332055 
L 781.598074 246.935597 
L 782.28347 246.803117 
L 782.626168 246.178004 
L 783.311564 245.838882 
L 783.654262 245.48678 
L 783.99696 245.330308 
L 784.339658 244.757823 
L 785.71045 243.915098 
L 786.053148 242.489785 
L 786.395846 241.668566 
L 786.738544 241.589767 
L 787.081243 240.751777 
L 787.423941 240.73882 
L 787.766639 240.454007 
L 788.794733 240.111488 
L 789.137431 239.739679 
L 789.480129 239.709069 
L 790.165525 239.371664 
L 790.508223 238.626503 
L 791.193619 238.105736 
L 791.536317 237.422909 
L 792.221713 237.053183 
L 792.907109 236.885636 
L 793.935203 235.559054 
L 794.963297 234.88669 
L 795.305995 234.474214 
L 795.648693 234.46769 
L 796.334089 234.177069 
L 796.676788 233.773939 
L 797.362184 233.63471 
L 798.04758 233.549887 
L 798.732976 233.419687 
L 799.075674 233.404238 
L 799.418372 232.890311 
L 800.103768 232.75999 
L 800.789164 230.410553 
L 802.159956 229.97061 
L 802.502654 229.251328 
L 802.845352 229.000421 
L 803.18805 228.53836 
L 803.530748 228.331558 
L 803.873446 226.994249 
L 804.558842 225.452584 
L 805.586936 224.332098 
L 805.929634 223.571795 
L 806.272333 223.368273 
L 806.615031 222.528165 
L 807.300427 222.179364 
L 807.643125 222.084083 
L 807.985823 221.087557 
L 808.328521 220.531872 
L 808.671219 220.300292 
L 809.013917 218.83176 
L 809.699313 218.439486 
L 810.042011 218.001909 
L 810.384709 217.982562 
L 810.727407 217.646196 
L 811.070105 217.011332 
L 811.412803 215.725605 
L 811.755501 215.623638 
L 812.440897 214.809729 
L 812.783595 214.055091 
L 813.126293 214.014181 
L 813.811689 213.120893 
L 814.154387 212.906424 
L 814.839783 211.926673 
L 815.182481 210.366493 
L 816.553274 208.309375 
L 816.895972 206.587468 
L 817.581368 206.020974 
L 817.924066 205.478732 
L 818.609462 203.754726 
L 818.95216 203.74439 
L 819.294858 203.402489 
L 819.980254 203.302994 
L 820.322952 203.20549 
L 820.66565 202.886778 
L 821.351046 202.592472 
L 822.036442 202.088403 
L 822.37914 202.022274 
L 822.721838 201.738056 
L 823.064536 200.76878 
L 823.407234 200.345145 
L 823.749932 200.318396 
L 824.09263 200.118204 
L 824.778026 199.183572 
L 825.120724 199.108082 
L 825.806121 198.533255 
L 826.148819 198.442548 
L 826.834215 197.898703 
L 827.862309 197.196886 
L 828.205007 196.953005 
L 828.547705 196.142723 
L 828.890403 196.020288 
L 829.233101 196.015848 
L 829.918497 195.344386 
L 830.261195 194.572506 
L 830.946591 194.12381 
L 831.289289 193.059368 
L 831.631987 192.924795 
L 831.974685 192.013104 
L 832.317383 191.886167 
L 832.660081 191.63494 
L 833.002779 190.967293 
L 833.688175 190.709391 
L 834.030873 189.994585 
L 834.373571 189.903925 
L 834.716269 189.524052 
L 835.058968 188.899697 
L 835.401666 188.787108 
L 835.744364 187.993175 
L 837.115156 186.341275 
L 837.457854 186.286725 
L 837.800552 185.351544 
L 838.14325 184.817265 
L 838.485948 184.754057 
L 839.514042 183.106081 
L 840.199438 182.950411 
L 841.227532 182.41788 
L 841.57023 180.828329 
L 843.28372 179.295834 
L 843.626418 179.232686 
L 843.969116 178.974043 
L 844.997211 177.598498 
L 845.339909 177.564413 
L 845.682607 177.264939 
L 846.025305 177.113688 
L 846.368003 176.686835 
L 846.710701 176.032662 
L 847.396097 175.545225 
L 847.738795 174.431731 
L 848.081493 174.069317 
L 848.766889 172.876522 
L 849.109587 171.518005 
L 849.794983 170.35165 
L 850.137681 170.333104 
L 850.480379 169.898357 
L 850.823077 169.106619 
L 851.165775 169.003343 
L 851.508473 167.991644 
L 851.851171 167.631853 
L 852.193869 166.05415 
L 852.536567 165.783336 
L 852.879265 165.121547 
L 853.221963 164.990014 
L 853.564661 164.987409 
L 854.250058 163.790429 
L 854.935454 163.334131 
L 855.278152 162.976711 
L 855.62085 161.847594 
L 855.963548 159.680484 
L 856.991642 159.026087 
L 857.33434 158.24993 
L 858.019736 157.584946 
L 858.362434 157.583773 
L 858.705132 157.385293 
L 859.04783 155.334741 
L 859.733226 155.017823 
L 860.76132 154.85327 
L 861.104018 153.906231 
L 861.789414 153.427268 
L 862.132112 152.75266 
L 862.47481 152.752466 
L 862.817508 152.47798 
L 863.160206 152.473352 
L 863.502904 151.908374 
L 863.845603 151.690577 
L 864.188301 150.178834 
L 864.873697 149.790168 
L 865.559093 148.365911 
L 865.901791 148.358245 
L 866.244489 147.773253 
L 867.957979 146.301693 
L 868.643375 145.667823 
L 868.986073 143.828854 
L 869.328771 143.821012 
L 869.671469 143.674683 
L 870.356865 141.893326 
L 871.042261 141.761506 
L 871.384959 141.375897 
L 872.070355 141.182943 
L 873.098449 136.28098 
L 873.441148 135.941925 
L 873.783846 134.27367 
L 874.126544 133.982092 
L 874.81194 132.681947 
L 875.154638 132.121941 
L 875.497336 131.242557 
L 875.840034 131.069804 
L 876.868128 129.57306 
L 877.210826 126.449287 
L 877.553524 126.308103 
L 877.896222 125.976363 
L 878.23892 125.962711 
L 878.581618 123.623883 
L 878.924316 122.598629 
L 879.267014 122.27792 
L 880.295108 120.224702 
L 880.980504 119.089389 
L 881.323202 118.900256 
L 881.6659 117.80373 
L 882.008598 117.471073 
L 882.351296 116.307738 
L 882.693994 114.381874 
L 883.036693 114.276129 
L 883.379391 113.845306 
L 883.722089 113.093211 
L 884.064787 113.036402 
L 884.407485 112.369628 
L 884.750183 112.018288 
L 885.092881 110.416804 
L 885.778277 109.864352 
L 886.120975 109.68562 
L 886.463673 108.881517 
L 886.806371 108.719001 
L 887.491767 107.836132 
L 888.177163 105.999732 
L 888.519861 105.515996 
L 888.862559 105.446609 
L 889.205257 105.165913 
L 890.918747 101.722904 
L 891.261445 101.554783 
L 891.946841 100.874436 
L 892.289539 99.467054 
L 892.632238 99.365529 
L 893.317634 97.917993 
L 893.660332 97.377654 
L 894.00303 96.023155 
L 894.345728 95.781585 
L 895.373822 93.817533 
L 895.71652 93.404623 
L 896.059218 92.277808 
L 896.401916 92.070485 
L 896.744614 90.967738 
L 897.087312 88.306436 
L 897.43001 87.590254 
L 897.772708 84.961521 
L 898.458104 83.548822 
L 899.1435 83.18295 
L 899.828896 80.733387 
L 900.171594 80.67656 
L 900.514292 79.058292 
L 900.85699 78.460886 
L 901.199688 77.633385 
L 901.542386 77.547108 
L 901.885084 76.502588 
L 902.227783 76.211686 
L 902.913179 74.629102 
L 903.598575 74.062401 
L 903.941273 72.885061 
L 904.283971 72.185294 
L 904.626669 71.948463 
L 904.969367 71.124154 
L 905.312065 71.07702 
L 905.654763 69.426389 
L 906.682857 67.871711 
L 907.025555 66.208262 
L 907.368253 66.171766 
L 907.710951 65.280213 
L 908.053649 63.058879 
L 908.396347 62.929395 
L 908.739045 62.551769 
L 909.081743 61.832077 
L 909.424441 61.583084 
L 909.767139 61.498592 
L 910.109837 61.054143 
L 910.452535 60.214816 
L 910.795233 58.718371 
L 911.137931 58.304906 
L 911.480629 57.602433 
L 912.166026 57.081067 
L 912.505069 55.866807 
L 912.505069 55.866807 
" style="fill:none;stroke:#b8860b;stroke-linecap:square;stroke-opacity:0.75;stroke-width:2;"/>
   </g>
   <g id="line2d_24">
    <path clip-path="url(#pea64fc714d)" d="M 668.845637 302.645455 
L 695.233327 302.548687 
L 696.058218 302.384482 
L 701.007563 302.25585 
L 702.657345 302.151998 
L 704.307126 302.01577 
L 707.60669 301.265635 
L 710.906253 300.745136 
L 712.556035 300.626935 
L 715.030708 300.202853 
L 718.330271 300.09778 
L 719.980053 299.632033 
L 720.804944 299.582637 
L 721.629835 299.235449 
L 722.454726 298.761581 
L 724.104507 298.571805 
L 724.929398 298.114748 
L 725.754289 298.0342 
L 726.57918 297.817918 
L 734.003198 296.963221 
L 734.828089 296.778083 
L 735.65298 296.740472 
L 736.477871 296.437804 
L 738.952543 296.099913 
L 739.777434 295.794859 
L 741.427216 294.714008 
L 742.252107 294.25414 
L 743.076998 294.038785 
L 743.901888 293.705205 
L 745.55167 293.285401 
L 746.376561 292.408245 
L 748.026343 291.230888 
L 751.325906 290.537032 
L 752.150797 290.040309 
L 754.62547 289.510747 
L 755.450361 289.490631 
L 756.275252 288.531109 
L 757.100142 288.206874 
L 757.925033 288.078232 
L 759.574815 287.354254 
L 760.399706 286.359881 
L 761.224597 284.331264 
L 762.049488 283.854947 
L 762.874379 282.661927 
L 763.699269 282.137476 
L 764.52416 280.498548 
L 766.173942 279.832095 
L 770.298396 279.514754 
L 771.123287 278.618139 
L 771.948178 278.079538 
L 772.773069 278.020652 
L 773.59796 277.766203 
L 774.422851 277.709548 
L 775.247742 276.890142 
L 776.072633 275.692888 
L 777.722414 275.321303 
L 778.547305 274.718945 
L 780.197087 274.566481 
L 781.021978 273.531605 
L 782.67176 273.386758 
L 783.49665 272.831827 
L 784.321541 272.513612 
L 785.146432 271.423099 
L 785.971323 271.178873 
L 786.796214 269.605251 
L 788.445996 269.446713 
L 789.270887 266.992099 
L 790.095777 266.890933 
L 790.920668 266.658111 
L 791.745559 265.063238 
L 793.395341 264.699353 
L 794.220232 264.206444 
L 795.045123 263.510753 
L 795.870014 261.602077 
L 796.694904 261.581756 
L 797.519795 260.792787 
L 799.169577 260.037203 
L 799.994468 259.952675 
L 800.819359 259.611146 
L 801.64425 257.430409 
L 802.469141 256.087231 
L 803.294031 253.876903 
L 804.118922 253.696796 
L 804.943813 252.225868 
L 805.768704 251.939116 
L 807.418486 249.067351 
L 808.243377 248.634923 
L 809.068268 246.178004 
L 809.893158 245.838882 
L 810.718049 244.093649 
L 811.54294 240.751777 
L 812.367831 239.739679 
L 813.192722 238.105736 
L 814.842504 235.982005 
L 815.667395 235.559054 
L 816.492285 234.88669 
L 817.317176 233.647827 
L 819.791849 233.419687 
L 820.61674 232.843756 
L 822.266522 230.078056 
L 823.091412 229.97061 
L 823.916303 229.251328 
L 824.741194 226.148934 
L 826.390976 222.528165 
L 827.215867 222.291432 
L 828.865649 222.084083 
L 829.690539 221.087557 
L 830.51543 220.300292 
L 831.340321 218.83176 
L 832.165212 218.001909 
L 832.990103 217.982562 
L 833.814994 217.011332 
L 834.639885 215.725605 
L 835.464776 215.184274 
L 836.289666 214.055091 
L 837.114557 211.926673 
L 837.939448 210.366493 
L 838.764339 204.576342 
L 839.58923 203.74439 
L 840.414121 203.302994 
L 841.239012 203.20549 
L 842.063903 202.886778 
L 842.888793 202.315534 
L 843.713684 202.022274 
L 844.538575 199.576023 
L 845.363466 198.533255 
L 846.188357 198.442548 
L 847.013248 194.572506 
L 847.838139 194.12381 
L 848.66303 191.886167 
L 850.312811 189.994585 
L 851.137702 189.903925 
L 851.962593 188.787108 
L 852.787484 187.993175 
L 854.437266 187.094676 
L 855.262157 186.341275 
L 856.087047 185.351544 
L 856.911938 179.993405 
L 858.56172 179.232686 
L 859.386611 178.974043 
L 860.211502 178.081292 
L 861.036393 177.564413 
L 861.861284 177.264939 
L 864.335956 175.545225 
L 865.160847 174.431731 
L 865.985738 174.069317 
L 866.810629 173.456014 
L 867.63552 169.898357 
L 868.460411 169.003343 
L 869.285301 166.05415 
L 870.110192 165.783336 
L 870.935083 164.310602 
L 871.759974 159.680484 
L 872.584865 157.856 
L 873.409756 157.583773 
L 874.234647 154.909399 
L 875.059538 154.85327 
L 875.884428 151.908374 
L 876.709319 148.365911 
L 877.53421 148.358245 
L 878.359101 146.824867 
L 879.183992 146.301693 
L 880.008883 143.828854 
L 880.833774 141.761506 
L 881.658665 141.182943 
L 882.483555 136.28098 
L 883.308446 125.962711 
L 884.133337 123.623883 
L 884.958228 122.27792 
L 885.783119 121.515151 
L 886.60801 120.586044 
L 887.432901 114.276129 
L 888.257792 113.845306 
L 889.907573 112.369628 
L 890.732464 112.018288 
L 891.557355 110.416804 
L 892.382246 109.864352 
L 893.207137 109.68562 
L 894.032028 108.194763 
L 894.856919 103.106527 
L 895.681809 101.722904 
L 896.5067 99.365529 
L 897.331591 97.917993 
L 898.156482 97.377654 
L 898.981373 93.817533 
L 899.806264 80.67656 
L 901.456046 76.502588 
L 902.280936 76.211686 
L 903.105827 75.307656 
L 904.755609 72.885061 
L 906.405391 71.07702 
L 907.230282 68.917164 
L 908.055173 66.208262 
L 908.880063 66.171766 
L 909.704954 62.551769 
L 910.529845 61.498592 
L 911.354736 58.304906 
L 912.170809 55.866807 
L 912.170809 55.866807 
" style="fill:none;stroke:#8b0000;stroke-linecap:square;stroke-opacity:0.75;stroke-width:2;"/>
   </g>
   <g id="line2d_25">
    <path clip-path="url(#pea64fc714d)" d="M 669.386114 302.645455 
L 704.667774 302.55193 
L 706.272269 302.384482 
L 714.29474 302.25585 
L 719.108224 302.107572 
L 720.712718 301.812943 
L 723.921707 301.628327 
L 725.526201 301.29532 
L 727.130695 301.265635 
L 728.73519 300.922948 
L 735.153167 300.626935 
L 736.757662 300.158102 
L 738.362156 300.09778 
L 739.96665 299.235449 
L 741.571145 297.238439 
L 743.175639 297.170842 
L 746.384628 296.437804 
L 749.593617 295.2122 
L 751.198111 295.079676 
L 752.802605 294.714008 
L 754.4071 293.705205 
L 756.011594 293.507604 
L 757.616088 292.761692 
L 759.220583 292.408245 
L 760.825077 291.785927 
L 762.429571 290.537032 
L 765.63856 289.510747 
L 767.243055 288.078232 
L 768.847549 287.661922 
L 770.452043 286.787538 
L 772.056538 286.359881 
L 773.661032 284.331264 
L 775.265526 283.854947 
L 776.870021 279.779557 
L 778.474515 279.774144 
L 780.07901 279.517485 
L 781.683504 278.618139 
L 783.287998 278.079538 
L 784.892493 277.766203 
L 786.496987 277.709548 
L 789.705976 273.512823 
L 792.914964 273.346437 
L 794.519459 272.831827 
L 796.123953 269.605251 
L 797.728448 269.562808 
L 799.332942 267.536266 
L 800.937436 266.992099 
L 802.541931 265.063238 
L 804.146425 263.510753 
L 805.750919 261.602077 
L 807.355414 260.362211 
L 808.959908 259.611146 
L 810.564402 259.189382 
L 812.168897 256.087231 
L 813.773391 253.696796 
L 815.377886 252.225868 
L 816.98238 251.939116 
L 820.191369 249.138984 
L 823.400357 249.067351 
L 825.004852 245.838882 
L 826.609346 244.093649 
L 828.213841 238.105736 
L 829.818335 237.053183 
L 831.422829 234.88669 
L 833.027324 233.647827 
L 834.631818 231.393115 
L 836.236312 229.97061 
L 837.840807 226.148934 
L 839.445301 223.368273 
L 841.049795 218.001909 
L 842.65429 215.725605 
L 844.258784 215.184274 
L 845.863279 214.055091 
L 847.467773 210.366493 
L 849.072267 203.754726 
L 850.676762 203.302994 
L 852.281256 198.442548 
L 853.88575 194.12381 
L 855.490245 193.059368 
L 857.094739 190.967293 
L 858.699233 187.579008 
L 860.303728 187.094676 
L 861.908222 186.341275 
L 863.512717 179.993405 
L 865.117211 178.081292 
L 866.721705 177.598498 
L 868.3262 177.564413 
L 869.930694 177.264939 
L 871.535188 175.545225 
L 873.139683 173.456014 
L 874.744177 166.05415 
L 876.348672 165.121547 
L 877.953166 157.856 
L 879.55766 148.365911 
L 881.162155 141.769771 
L 882.766649 141.182943 
L 884.371143 136.28098 
L 885.975638 122.27792 
L 887.580132 114.276129 
L 890.789121 109.68562 
L 892.393615 99.365529 
L 893.99811 93.817533 
L 895.602604 80.67656 
L 897.207098 75.307656 
L 900.416087 74.062401 
L 902.020581 71.948463 
L 903.625076 71.124154 
L 905.22957 71.07702 
L 906.834064 68.917164 
L 908.438559 61.583084 
L 910.043053 61.498592 
L 911.630332 58.304906 
L 911.630332 58.304906 
" style="fill:none;stroke:#228b22;stroke-linecap:square;stroke-opacity:0.75;stroke-width:2;"/>
   </g>
   <g id="line2d_26">
    <path clip-path="url(#pea64fc714d)" d="M 670.089131 302.645455 
L 672.679322 302.645455 
L 675.297742 302.645455 
L 677.916162 302.645454 
L 680.534582 302.645453 
L 683.153002 302.645453 
L 685.771422 302.645448 
L 688.389843 302.64536 
L 691.008263 302.64455 
L 693.626683 302.64164 
L 696.245103 302.6376 
L 698.863523 302.616263 
L 701.481943 302.614307 
L 704.100363 302.597698 
L 706.718783 302.55193 
L 709.337203 302.384482 
L 711.955623 302.376443 
L 714.574043 302.335665 
L 717.192463 302.284482 
L 719.810883 302.25585 
L 722.429303 302.25585 
L 725.047723 302.163312 
L 727.666143 301.812943 
L 730.284563 301.689541 
L 732.902983 301.265635 
L 735.521403 300.844976 
L 738.139823 300.745136 
L 740.758243 300.737919 
L 743.376663 300.626935 
L 745.995083 300.158102 
L 748.613503 299.235449 
L 751.231923 297.238439 
L 753.850343 296.778083 
L 756.468763 295.794859 
L 759.087183 295.2122 
L 761.705603 293.705205 
L 764.324023 293.507604 
L 766.942443 292.408245 
L 769.560863 291.785927 
L 772.179283 290.537032 
L 774.797703 290.040309 
L 777.416123 289.510747 
L 780.034543 288.078232 
L 782.652963 287.661922 
L 785.271383 284.331264 
L 787.889803 279.779557 
L 790.508223 279.774144 
L 793.126643 279.517485 
L 795.745063 278.618139 
L 798.363483 278.079538 
L 800.981903 277.766203 
L 803.600323 277.709548 
L 806.218743 275.55349 
L 808.837163 272.831827 
L 811.455583 266.992099 
L 814.074003 265.063238 
L 816.692423 263.510753 
L 819.310843 261.602077 
L 821.929263 260.362211 
L 824.547683 256.087231 
L 827.166103 252.225868 
L 829.784523 251.939116 
L 832.402943 250.490225 
L 835.021363 249.067351 
L 837.639783 245.838882 
L 840.258203 237.053183 
L 842.876623 233.647827 
L 845.495043 231.393115 
L 848.113463 229.97061 
L 850.731883 226.148934 
L 853.350303 218.001909 
L 855.968723 215.184274 
L 858.587143 214.055091 
L 861.205563 210.366493 
L 863.823983 203.302994 
L 866.442403 187.094676 
L 869.060823 179.993405 
L 871.679243 177.564413 
L 874.297663 177.264939 
L 876.916083 175.545225 
L 879.534503 173.456014 
L 882.152923 166.05415 
L 884.771343 157.856 
L 887.389763 114.276129 
L 890.008183 112.018288 
L 892.626603 109.68562 
L 895.245023 80.67656 
L 897.863443 75.307656 
L 900.481863 71.948463 
L 903.100283 71.07702 
L 905.718703 68.917164 
L 908.337123 61.498592 
L 910.927315 58.304906 
" style="fill:none;stroke:#000080;stroke-linecap:square;stroke-opacity:0.75;stroke-width:2;"/>
   </g>
   <g id="line2d_27">
    <path clip-path="url(#pea64fc714d)" d="M 668.273831 290.290909 
L 912.742615 290.290909 
" style="fill:none;stroke:#ff0000;stroke-dasharray:3.7,1.6;stroke-dashoffset:0;"/>
   </g>
   <g id="patch_9">
    <path d="M 656.050392 315 
L 656.050392 43.2 
" style="fill:none;stroke:#000000;stroke-linecap:square;stroke-linejoin:miter;"/>
   </g>
   <g id="patch_10">
    <path d="M 656.050392 315 
L 924.966054 315 
" style="fill:none;stroke:#000000;stroke-linecap:square;stroke-linejoin:miter;"/>
   </g>
   <g id="text_19">
    <!-- Trapnell -->
    <defs>
     <path d="M -0.296875 72.90625 
L 61.375 72.90625 
L 61.375 64.59375 
L 35.5 64.59375 
L 35.5 0 
L 25.59375 0 
L 25.59375 64.59375 
L -0.296875 64.59375 
z
" id="DejaVuSans-84"/>
    </defs>
    <g transform="translate(680.49727 76.83017)scale(0.28 -0.28)">
     <use xlink:href="#DejaVuSans-84"/>
     <use x="60.865234" xlink:href="#DejaVuSans-114"/>
     <use x="101.978516" xlink:href="#DejaVuSans-97"/>
     <use x="163.257812" xlink:href="#DejaVuSans-112"/>
     <use x="226.734375" xlink:href="#DejaVuSans-110"/>
     <use x="290.113281" xlink:href="#DejaVuSans-101"/>
     <use x="351.636719" xlink:href="#DejaVuSans-108"/>
     <use x="379.419922" xlink:href="#DejaVuSans-108"/>
    </g>
   </g>
  </g>
  <g id="axes_4">
   <g id="patch_11">
    <path d="M 938.411837 315 
L 1207.3275 315 
L 1207.3275 43.2 
L 938.411837 43.2 
z
" style="fill:none;"/>
   </g>
   <g id="matplotlib.axis_7">
    <g id="xtick_10">
     <g id="line2d_28">
      <g>
       <use style="stroke:#000000;stroke-width:0.8;" x="950.635277" xlink:href="#m448a6c1922" y="315"/>
      </g>
     </g>
     <g id="text_20">
      <!-- 0 -->
      <g transform="translate(941.727777 344.775625)scale(0.28 -0.28)">
       <use xlink:href="#DejaVuSans-48"/>
      </g>
     </g>
    </g>
    <g id="xtick_11">
     <g id="line2d_29">
      <g>
       <use style="stroke:#000000;stroke-width:0.8;" x="1072.869669" xlink:href="#m448a6c1922" y="315"/>
      </g>
     </g>
     <g id="text_21">
      <!-- 0.5 -->
      <g transform="translate(1050.605294 344.775625)scale(0.28 -0.28)">
       <use xlink:href="#DejaVuSans-48"/>
       <use x="63.623047" xlink:href="#DejaVuSans-46"/>
       <use x="95.410156" xlink:href="#DejaVuSans-53"/>
      </g>
     </g>
    </g>
    <g id="xtick_12">
     <g id="line2d_30">
      <g>
       <use style="stroke:#000000;stroke-width:0.8;" x="1195.104061" xlink:href="#m448a6c1922" y="315"/>
      </g>
     </g>
     <g id="text_22">
      <!-- 1 -->
      <g transform="translate(1186.196561 344.775625)scale(0.28 -0.28)">
       <use xlink:href="#DejaVuSans-49"/>
      </g>
     </g>
    </g>
    <g id="text_23">
     <!-- Quantiles -->
     <g transform="translate(1006.349981 375.874375)scale(0.28 -0.28)">
      <use xlink:href="#DejaVuSans-81"/>
      <use x="78.710938" xlink:href="#DejaVuSans-117"/>
      <use x="142.089844" xlink:href="#DejaVuSans-97"/>
      <use x="203.369141" xlink:href="#DejaVuSans-110"/>
      <use x="266.748047" xlink:href="#DejaVuSans-116"/>
      <use x="305.957031" xlink:href="#DejaVuSans-105"/>
      <use x="333.740234" xlink:href="#DejaVuSans-108"/>
      <use x="361.523438" xlink:href="#DejaVuSans-101"/>
      <use x="423.046875" xlink:href="#DejaVuSans-115"/>
     </g>
    </g>
   </g>
   <g id="matplotlib.axis_8">
    <g id="ytick_10"/>
    <g id="ytick_11"/>
    <g id="ytick_12"/>
   </g>
   <g id="line2d_31">
    <path clip-path="url(#p0ade82b956)" d="M 951.081973 302.645455 
L 1029.049397 302.537695 
L 1038.071218 302.356239 
L 1041.293297 302.296543 
L 1049.026286 302.112126 
L 1051.603949 301.999711 
L 1052.248364 301.779442 
L 1058.048106 301.531947 
L 1059.336938 301.388645 
L 1063.203432 301.17452 
L 1067.069927 300.709769 
L 1067.714343 300.576513 
L 1069.64759 300.498255 
L 1070.936421 300.288436 
L 1074.802916 299.8722 
L 1075.447332 299.827886 
L 1076.091747 299.565963 
L 1079.958242 299.235971 
L 1081.247074 298.78042 
L 1081.891489 298.760003 
L 1082.535905 298.298498 
L 1083.824737 297.996311 
L 1084.469152 297.253816 
L 1085.113568 297.183546 
L 1085.757984 296.895896 
L 1088.980063 296.49877 
L 1089.624478 296.076284 
L 1091.557726 295.882717 
L 1092.846557 295.573768 
L 1093.490973 295.181597 
L 1094.135389 295.171299 
L 1094.779804 294.464164 
L 1095.42422 294.433265 
L 1096.068636 293.619232 
L 1096.713052 293.467508 
L 1098.001883 292.869745 
L 1098.646299 292.786572 
L 1099.290715 291.847045 
L 1100.579546 291.199509 
L 1103.157209 290.528352 
L 1103.801625 290.449024 
L 1104.446041 290.072223 
L 1106.379288 289.903564 
L 1107.023704 289.601198 
L 1108.956951 287.834678 
L 1109.601367 286.806594 
L 1110.245783 286.803477 
L 1112.17903 284.816522 
L 1112.823446 284.727278 
L 1114.112277 283.80011 
L 1115.401109 283.606502 
L 1116.68994 282.373435 
L 1117.334356 281.52814 
L 1117.978772 280.890404 
L 1118.623188 277.747957 
L 1119.267603 277.443245 
L 1120.556435 277.131704 
L 1121.200851 276.054363 
L 1121.845266 275.719396 
L 1122.489682 275.571358 
L 1123.134098 275.053068 
L 1123.778514 274.936189 
L 1124.422929 273.970398 
L 1125.067345 273.394685 
L 1125.711761 272.207601 
L 1126.356177 267.984458 
L 1127.000592 266.689402 
L 1127.645008 266.613721 
L 1128.93384 265.916582 
L 1129.578255 265.202464 
L 1130.222671 263.502701 
L 1130.867087 263.074111 
L 1131.511503 261.444862 
L 1132.155918 261.353653 
L 1134.089166 259.685777 
L 1136.022413 258.504616 
L 1136.666829 256.728996 
L 1137.311245 254.564365 
L 1137.95566 254.106263 
L 1138.600076 250.295613 
L 1139.244492 249.815019 
L 1139.888908 248.98409 
L 1140.533323 248.634995 
L 1141.177739 248.055245 
L 1141.822155 245.687499 
L 1142.466571 242.823113 
L 1143.110986 240.786791 
L 1143.755402 240.39968 
L 1144.399818 238.311809 
L 1145.044234 237.766598 
L 1145.688649 237.406679 
L 1146.333065 236.706482 
L 1146.977481 236.695422 
L 1147.621897 233.833246 
L 1148.266312 233.291378 
L 1148.910728 231.080053 
L 1149.555144 230.890368 
L 1150.19956 230.841355 
L 1150.843975 228.156423 
L 1151.488391 228.00057 
L 1152.132807 227.726 
L 1152.777223 227.654219 
L 1153.421638 226.383038 
L 1154.066054 223.668452 
L 1155.354886 222.606165 
L 1155.999302 221.016317 
L 1156.643717 220.741582 
L 1157.288133 217.418289 
L 1157.932549 206.701606 
L 1158.576965 206.090842 
L 1159.22138 204.693666 
L 1159.865796 203.873808 
L 1160.510212 202.423789 
L 1161.154628 198.346604 
L 1161.799043 195.942366 
L 1162.443459 194.20397 
L 1163.087875 194.171616 
L 1163.732291 193.753326 
L 1164.376706 192.398787 
L 1165.021122 192.323889 
L 1165.665538 191.881218 
L 1166.309954 188.17986 
L 1166.954369 186.327591 
L 1167.598785 185.990417 
L 1168.243201 185.819101 
L 1168.887617 184.90273 
L 1169.532032 184.882691 
L 1170.176448 177.959885 
L 1170.820864 177.737953 
L 1171.46528 168.639804 
L 1172.109695 166.006972 
L 1172.754111 165.588282 
L 1173.398527 161.969132 
L 1174.042943 160.336044 
L 1174.687359 159.416096 
L 1175.331774 147.145492 
L 1175.97619 138.037371 
L 1177.265022 137.601611 
L 1177.909437 135.785805 
L 1178.553853 131.958557 
L 1179.198269 127.127681 
L 1179.842685 126.34432 
L 1180.4871 125.915375 
L 1181.775932 122.351608 
L 1182.420348 119.558649 
L 1183.064763 117.670426 
L 1183.709179 117.309743 
L 1184.998011 114.590651 
L 1185.642426 109.925847 
L 1186.286842 107.712845 
L 1186.931258 106.20254 
L 1187.575674 105.664253 
L 1188.864505 103.178955 
L 1189.508921 95.132635 
L 1190.797752 91.553348 
L 1191.442168 91.386038 
L 1192.086584 90.157135 
L 1193.375416 88.644207 
L 1194.019831 75.446283 
L 1194.657364 74.380486 
L 1194.657364 74.380486 
" style="fill:none;stroke:#b8860b;stroke-linecap:square;stroke-opacity:0.75;stroke-width:2;"/>
   </g>
   <g id="line2d_32">
    <path clip-path="url(#p0ade82b956)" d="M 951.109474 302.645455 
L 1033.192617 302.537695 
L 1042.769837 302.356239 
L 1046.190272 302.288669 
L 1053.031143 302.112126 
L 1055.767491 301.999711 
L 1056.451578 301.779442 
L 1061.924275 301.531947 
L 1063.292449 301.388645 
L 1067.396972 301.17452 
L 1071.501494 300.709769 
L 1072.185582 300.576513 
L 1074.237843 300.498255 
L 1075.606017 300.288436 
L 1079.71054 299.827886 
L 1080.394627 299.565963 
L 1084.499149 299.235971 
L 1085.867323 298.78042 
L 1086.551411 298.760003 
L 1087.235498 298.298498 
L 1088.603672 297.996311 
L 1089.287759 297.253816 
L 1089.971846 297.183546 
L 1090.655933 296.895896 
L 1093.392281 296.49877 
L 1094.076369 296.076284 
L 1096.12863 295.882717 
L 1097.496804 295.573768 
L 1098.180891 295.181597 
L 1098.864978 295.171299 
L 1099.549065 294.464164 
L 1100.233152 294.433265 
L 1100.91724 293.619232 
L 1101.601327 293.467508 
L 1102.969501 292.869745 
L 1103.653588 292.786572 
L 1104.337675 291.847045 
L 1105.705849 291.199509 
L 1108.442198 290.449024 
L 1109.126285 290.072223 
L 1111.178546 289.903564 
L 1111.862633 289.601198 
L 1112.54672 289.018344 
L 1113.230807 288.581941 
L 1113.914894 287.834678 
L 1114.598981 286.806594 
L 1115.283068 286.803477 
L 1117.33533 284.816522 
L 1118.019417 284.727278 
L 1119.387591 283.80011 
L 1120.755765 283.606502 
L 1121.439852 282.373435 
L 1122.123939 281.52814 
L 1122.808027 280.890404 
L 1123.492114 277.747957 
L 1124.176201 277.323728 
L 1124.860288 277.131704 
L 1125.544375 276.054363 
L 1126.912549 275.053068 
L 1127.596636 274.936189 
L 1128.280723 273.970398 
L 1128.96481 272.207601 
L 1129.648897 267.984458 
L 1130.332985 266.689402 
L 1131.017072 266.224185 
L 1131.701159 265.916582 
L 1132.385246 265.202464 
L 1133.069333 263.502701 
L 1133.75342 263.074111 
L 1134.437507 261.444862 
L 1135.121594 261.353653 
L 1136.489768 260.16655 
L 1138.54203 258.812582 
L 1139.226117 258.504616 
L 1139.910204 256.728996 
L 1140.594291 254.564365 
L 1141.278378 254.106263 
L 1141.962465 250.295613 
L 1142.646552 249.815019 
L 1143.330639 248.98409 
L 1144.014726 248.634995 
L 1144.698814 248.055245 
L 1145.382901 245.687499 
L 1146.066988 242.823113 
L 1146.751075 240.786791 
L 1147.435162 240.39968 
L 1148.119249 238.311809 
L 1148.803336 237.766598 
L 1149.487423 237.406679 
L 1150.17151 236.706482 
L 1150.855597 236.695422 
L 1151.539684 233.833246 
L 1152.223772 233.291378 
L 1152.907859 230.890368 
L 1153.591946 230.841355 
L 1154.276033 228.156423 
L 1154.96012 228.00057 
L 1155.644207 227.726 
L 1156.328294 227.654219 
L 1157.012381 223.668452 
L 1158.380555 222.606165 
L 1159.064642 221.016317 
L 1159.74873 220.741582 
L 1160.432817 217.418289 
L 1161.116904 206.701606 
L 1161.800991 203.873808 
L 1162.485078 198.346604 
L 1163.169165 195.942366 
L 1163.853252 194.20397 
L 1164.537339 194.171616 
L 1165.221426 193.753326 
L 1165.905513 192.398787 
L 1166.589601 192.323889 
L 1167.273688 191.881218 
L 1167.957775 188.17986 
L 1168.641862 186.327591 
L 1169.325949 185.990417 
L 1170.010036 185.819101 
L 1170.694123 184.90273 
L 1171.37821 184.882691 
L 1172.062297 177.959885 
L 1172.746384 177.737953 
L 1173.430471 161.969132 
L 1174.114559 160.336044 
L 1174.798646 159.416096 
L 1175.482733 147.145492 
L 1176.16682 138.037371 
L 1176.850907 137.810034 
L 1177.534994 135.785805 
L 1178.219081 131.958557 
L 1178.903168 127.127681 
L 1179.587255 126.34432 
L 1180.271342 125.915375 
L 1181.639517 122.351608 
L 1182.323604 119.558649 
L 1183.007691 117.670426 
L 1183.691778 117.309743 
L 1185.059952 114.590651 
L 1185.744039 109.925847 
L 1186.428126 107.712845 
L 1188.480388 103.178955 
L 1189.164475 95.132635 
L 1190.532649 91.553348 
L 1191.216736 91.386038 
L 1191.900823 90.157135 
L 1193.268997 88.644207 
L 1193.953084 75.446283 
L 1194.629863 74.380486 
L 1194.629863 74.380486 
" style="fill:none;stroke:#8b0000;stroke-linecap:square;stroke-opacity:0.75;stroke-width:2;"/>
   </g>
   <g id="line2d_33">
    <path clip-path="url(#p0ade82b956)" d="M 951.719103 302.645455 
L 1067.397595 302.537695 
L 1079.905192 302.288669 
L 1083.032091 301.779442 
L 1090.849338 301.627399 
L 1092.412788 301.365947 
L 1093.976237 301.357897 
L 1095.539687 301.081122 
L 1097.103136 301.080695 
L 1098.666586 300.361004 
L 1100.230035 300.203717 
L 1101.793485 300.186067 
L 1103.356934 299.962896 
L 1104.920384 299.8804 
L 1106.483833 299.565963 
L 1109.610732 299.484928 
L 1112.737631 298.152761 
L 1114.301081 296.895896 
L 1117.42798 296.030229 
L 1120.554879 295.181597 
L 1125.245228 292.869745 
L 1126.808677 290.89122 
L 1129.935576 290.042173 
L 1131.499026 288.581941 
L 1133.062475 287.834678 
L 1134.625925 281.52814 
L 1136.189374 277.323728 
L 1137.752824 276.054363 
L 1139.316273 265.916582 
L 1140.879723 261.444862 
L 1142.443172 261.353653 
L 1145.570071 260.16655 
L 1147.133521 259.304316 
L 1148.69697 258.812582 
L 1150.26042 256.728996 
L 1151.823869 254.106263 
L 1153.387319 249.815019 
L 1154.950768 242.823113 
L 1156.514218 237.406679 
L 1158.077668 236.695422 
L 1159.641117 233.833246 
L 1161.204567 228.156423 
L 1162.768016 228.00057 
L 1164.331466 227.654219 
L 1165.894915 220.741582 
L 1167.458365 203.873808 
L 1169.021814 198.346604 
L 1170.585264 194.171616 
L 1172.148713 192.323889 
L 1173.712163 188.17986 
L 1175.275612 185.819101 
L 1176.839062 184.90273 
L 1178.402511 184.882691 
L 1179.965961 138.037371 
L 1181.52941 124.095563 
L 1183.09286 119.558649 
L 1184.656309 109.925847 
L 1186.219759 107.712845 
L 1187.783208 106.20254 
L 1189.346658 93.363831 
L 1190.910107 89.414794 
L 1192.473557 88.644207 
L 1194.020234 74.380486 
L 1194.020234 74.380486 
" style="fill:none;stroke:#228b22;stroke-linecap:square;stroke-opacity:0.75;stroke-width:2;"/>
   </g>
   <g id="line2d_34">
    <path clip-path="url(#p0ade82b956)" d="M 952.259213 302.645455 
L 954.576432 302.645455 
L 956.918873 302.645455 
L 959.261313 302.645455 
L 961.603753 302.645455 
L 963.946194 302.645455 
L 966.288634 302.645455 
L 968.631074 302.645455 
L 970.973515 302.645455 
L 973.315955 302.645455 
L 975.658395 302.645455 
L 978.000836 302.645455 
L 980.343276 302.645455 
L 982.685716 302.645455 
L 985.028157 302.645455 
L 987.370597 302.645455 
L 989.713037 302.645455 
L 992.055478 302.645454 
L 994.397918 302.645454 
L 996.740358 302.645453 
L 999.082799 302.645452 
L 1001.425239 302.645451 
L 1003.767679 302.645451 
L 1006.110119 302.64545 
L 1008.45256 302.645447 
L 1010.795 302.645435 
L 1013.13744 302.645433 
L 1015.479881 302.645427 
L 1017.822321 302.64542 
L 1020.164761 302.645416 
L 1022.507202 302.645385 
L 1024.849642 302.645353 
L 1027.192082 302.645334 
L 1029.534523 302.645322 
L 1031.876963 302.644971 
L 1034.219403 302.644646 
L 1036.561844 302.64457 
L 1038.904284 302.643124 
L 1041.246724 302.642908 
L 1043.589165 302.641408 
L 1045.931605 302.641293 
L 1048.274045 302.641215 
L 1050.616486 302.631742 
L 1052.958926 302.631569 
L 1055.301366 302.619761 
L 1057.643807 302.617874 
L 1059.986247 302.61722 
L 1062.328687 302.608134 
L 1064.671128 302.603752 
L 1067.013568 302.602514 
L 1069.356008 302.595022 
L 1071.698449 302.587503 
L 1074.040889 302.586961 
L 1076.383329 302.576634 
L 1078.725769 302.554929 
L 1081.06821 302.459646 
L 1083.41065 302.456366 
L 1085.75309 302.448039 
L 1088.095531 302.420276 
L 1090.437971 302.288669 
L 1092.780411 301.999711 
L 1095.122852 301.779442 
L 1097.465292 301.733595 
L 1099.807732 301.637779 
L 1102.150173 301.081122 
L 1104.492613 301.080695 
L 1106.835053 300.361004 
L 1109.177494 300.203717 
L 1111.519934 299.8804 
L 1113.862374 299.484928 
L 1116.204815 298.760003 
L 1118.547255 296.895896 
L 1120.889695 296.030229 
L 1123.232136 295.573768 
L 1125.574576 295.181597 
L 1127.917016 293.619232 
L 1130.259457 292.869745 
L 1132.601897 290.449024 
L 1134.944337 290.042173 
L 1137.286778 288.581941 
L 1139.629218 281.52814 
L 1141.971658 277.323728 
L 1144.314099 276.054363 
L 1146.656539 265.916582 
L 1148.998979 261.444862 
L 1151.341419 261.353653 
L 1153.68386 260.7471 
L 1156.0263 260.16655 
L 1158.36874 259.304316 
L 1160.711181 258.812582 
L 1163.053621 256.728996 
L 1165.396061 249.815019 
L 1167.738502 237.406679 
L 1170.080942 236.695422 
L 1172.423382 233.833246 
L 1174.765823 203.873808 
L 1177.108263 194.171616 
L 1179.450703 192.323889 
L 1181.793144 138.037371 
L 1184.135584 107.712845 
L 1186.478024 93.363831 
L 1188.820465 89.414794 
L 1191.162905 88.644207 
L 1193.480124 74.380486 
" style="fill:none;stroke:#000080;stroke-linecap:square;stroke-opacity:0.75;stroke-width:2;"/>
   </g>
   <g id="line2d_35">
    <path clip-path="url(#p0ade82b956)" d="M 950.635277 290.290909 
L 1195.104061 290.290909 
" style="fill:none;stroke:#ff0000;stroke-dasharray:3.7,1.6;stroke-dashoffset:0;"/>
   </g>
   <g id="patch_12">
    <path d="M 938.411837 315 
L 938.411837 43.2 
" style="fill:none;stroke:#000000;stroke-linecap:square;stroke-linejoin:miter;"/>
   </g>
   <g id="patch_13">
    <path d="M 938.411837 315 
L 1207.3275 315 
" style="fill:none;stroke:#000000;stroke-linecap:square;stroke-linejoin:miter;"/>
   </g>
   <g id="text_24">
    <!-- Song -->
    <defs>
     <path d="M 53.515625 70.515625 
L 53.515625 60.890625 
Q 47.90625 63.578125 42.921875 64.890625 
Q 37.9375 66.21875 33.296875 66.21875 
Q 25.25 66.21875 20.875 63.09375 
Q 16.5 59.96875 16.5 54.203125 
Q 16.5 49.359375 19.40625 46.890625 
Q 22.3125 44.4375 30.421875 42.921875 
L 36.375 41.703125 
Q 47.40625 39.59375 52.65625 34.296875 
Q 57.90625 29 57.90625 20.125 
Q 57.90625 9.515625 50.796875 4.046875 
Q 43.703125 -1.421875 29.984375 -1.421875 
Q 24.8125 -1.421875 18.96875 -0.25 
Q 13.140625 0.921875 6.890625 3.21875 
L 6.890625 13.375 
Q 12.890625 10.015625 18.65625 8.296875 
Q 24.421875 6.59375 29.984375 6.59375 
Q 38.421875 6.59375 43.015625 9.90625 
Q 47.609375 13.234375 47.609375 19.390625 
Q 47.609375 24.75 44.3125 27.78125 
Q 41.015625 30.8125 33.5 32.328125 
L 27.484375 33.5 
Q 16.453125 35.6875 11.515625 40.375 
Q 6.59375 45.0625 6.59375 53.421875 
Q 6.59375 63.09375 13.40625 68.65625 
Q 20.21875 74.21875 32.171875 74.21875 
Q 37.3125 74.21875 42.625 73.28125 
Q 47.953125 72.359375 53.515625 70.515625 
z
" id="DejaVuSans-83"/>
     <path d="M 45.40625 27.984375 
Q 45.40625 37.75 41.375 43.109375 
Q 37.359375 48.484375 30.078125 48.484375 
Q 22.859375 48.484375 18.828125 43.109375 
Q 14.796875 37.75 14.796875 27.984375 
Q 14.796875 18.265625 18.828125 12.890625 
Q 22.859375 7.515625 30.078125 7.515625 
Q 37.359375 7.515625 41.375 12.890625 
Q 45.40625 18.265625 45.40625 27.984375 
z
M 54.390625 6.78125 
Q 54.390625 -7.171875 48.1875 -13.984375 
Q 42 -20.796875 29.203125 -20.796875 
Q 24.46875 -20.796875 20.265625 -20.09375 
Q 16.0625 -19.390625 12.109375 -17.921875 
L 12.109375 -9.1875 
Q 16.0625 -11.328125 19.921875 -12.34375 
Q 23.78125 -13.375 27.78125 -13.375 
Q 36.625 -13.375 41.015625 -8.765625 
Q 45.40625 -4.15625 45.40625 5.171875 
L 45.40625 9.625 
Q 42.625 4.78125 38.28125 2.390625 
Q 33.9375 0 27.875 0 
Q 17.828125 0 11.671875 7.65625 
Q 5.515625 15.328125 5.515625 27.984375 
Q 5.515625 40.671875 11.671875 48.328125 
Q 17.828125 56 27.875 56 
Q 33.9375 56 38.28125 53.609375 
Q 42.625 51.21875 45.40625 46.390625 
L 45.40625 54.6875 
L 54.390625 54.6875 
z
" id="DejaVuSans-103"/>
    </defs>
    <g transform="translate(962.858716 76.83017)scale(0.28 -0.28)">
     <use xlink:href="#DejaVuSans-83"/>
     <use x="63.476562" xlink:href="#DejaVuSans-111"/>
     <use x="124.658203" xlink:href="#DejaVuSans-110"/>
     <use x="188.037109" xlink:href="#DejaVuSans-103"/>
    </g>
   </g>
  </g>
  <g id="text_25">
   <!-- p-values of anova test -->
   <defs>
    <path id="DejaVuSans-32"/>
    <path d="M 37.109375 75.984375 
L 37.109375 68.5 
L 28.515625 68.5 
Q 23.6875 68.5 21.796875 66.546875 
Q 19.921875 64.59375 19.921875 59.515625 
L 19.921875 54.6875 
L 34.71875 54.6875 
L 34.71875 47.703125 
L 19.921875 47.703125 
L 19.921875 0 
L 10.890625 0 
L 10.890625 47.703125 
L 2.296875 47.703125 
L 2.296875 54.6875 
L 10.890625 54.6875 
L 10.890625 58.5 
Q 10.890625 67.625 15.140625 71.796875 
Q 19.390625 75.984375 28.609375 75.984375 
z
" id="DejaVuSans-102"/>
   </defs>
   <g transform="translate(475.247187 28.475625)scale(0.28 -0.28)">
    <use xlink:href="#DejaVuSans-112"/>
    <use x="63.476562" xlink:href="#DejaVuSans-45"/>
    <use x="99.529297" xlink:href="#DejaVuSans-118"/>
    <use x="158.708984" xlink:href="#DejaVuSans-97"/>
    <use x="219.988281" xlink:href="#DejaVuSans-108"/>
    <use x="247.771484" xlink:href="#DejaVuSans-117"/>
    <use x="311.150391" xlink:href="#DejaVuSans-101"/>
    <use x="372.673828" xlink:href="#DejaVuSans-115"/>
    <use x="424.773438" xlink:href="#DejaVuSans-32"/>
    <use x="456.560547" xlink:href="#DejaVuSans-111"/>
    <use x="517.742188" xlink:href="#DejaVuSans-102"/>
    <use x="552.947266" xlink:href="#DejaVuSans-32"/>
    <use x="584.734375" xlink:href="#DejaVuSans-97"/>
    <use x="646.013672" xlink:href="#DejaVuSans-110"/>
    <use x="709.392578" xlink:href="#DejaVuSans-111"/>
    <use x="770.574219" xlink:href="#DejaVuSans-118"/>
    <use x="829.753906" xlink:href="#DejaVuSans-97"/>
    <use x="891.033203" xlink:href="#DejaVuSans-32"/>
    <use x="922.820312" xlink:href="#DejaVuSans-116"/>
    <use x="962.029297" xlink:href="#DejaVuSans-101"/>
    <use x="1023.552734" xlink:href="#DejaVuSans-115"/>
    <use x="1075.652344" xlink:href="#DejaVuSans-116"/>
   </g>
  </g>
 </g>
 <defs>
  <clipPath id="pea49a31510">
   <rect height="271.8" width="268.915663" x="91.3275" y="43.2"/>
  </clipPath>
  <clipPath id="paf6fa565ce">
   <rect height="271.8" width="268.915663" x="373.688946" y="43.2"/>
  </clipPath>
  <clipPath id="pea64fc714d">
   <rect height="271.8" width="268.915663" x="656.050392" y="43.2"/>
  </clipPath>
  <clipPath id="p0ade82b956">
   <rect height="271.8" width="268.915663" x="938.411837" y="43.2"/>
  </clipPath>
 </defs>
</svg>
