<?xml version="1.0" encoding="utf-8" standalone="no"?>
<!DOCTYPE svg PUBLIC "-//W3C//DTD SVG 1.1//EN"
  "http://www.w3.org/Graphics/SVG/1.1/DTD/svg11.dtd">
<!-- Created with matplotlib (https://matplotlib.org/) -->
<svg height="388.8975pt" version="1.1" viewBox="0 0 1102.9275 388.8975" width="1102.9275pt" xmlns="http://www.w3.org/2000/svg" xmlns:xlink="http://www.w3.org/1999/xlink">
 <defs>
  <style type="text/css">
*{stroke-linecap:butt;stroke-linejoin:round;}
  </style>
 </defs>
 <g id="figure_1">
  <g id="patch_1">
   <path d="M 0 388.8975 
L 1102.9275 388.8975 
L 1102.9275 0 
L 0 0 
z
" style="fill:none;"/>
  </g>
  <g id="axes_1">
   <g id="patch_2">
    <path d="M 91.3275 315 
L 415.3275 315 
L 415.3275 43.2 
L 91.3275 43.2 
z
" style="fill:none;"/>
   </g>
   <g id="matplotlib.axis_1">
    <g id="xtick_1">
     <g id="line2d_1">
      <defs>
       <path d="M 0 0 
L 0 5 
" id="m431da3d4a8" style="stroke:#000000;stroke-width:0.8;"/>
      </defs>
      <g>
       <use style="stroke:#000000;stroke-width:0.8;" x="106.054773" xlink:href="#m431da3d4a8" y="315"/>
      </g>
     </g>
     <g id="text_1">
      <!-- 0 -->
      <defs>
       <path d="M 31.78125 66.40625 
Q 24.171875 66.40625 20.328125 58.90625 
Q 16.5 51.421875 16.5 36.375 
Q 16.5 21.390625 20.328125 13.890625 
Q 24.171875 6.390625 31.78125 6.390625 
Q 39.453125 6.390625 43.28125 13.890625 
Q 47.125 21.390625 47.125 36.375 
Q 47.125 51.421875 43.28125 58.90625 
Q 39.453125 66.40625 31.78125 66.40625 
z
M 31.78125 74.21875 
Q 44.046875 74.21875 50.515625 64.515625 
Q 56.984375 54.828125 56.984375 36.375 
Q 56.984375 17.96875 50.515625 8.265625 
Q 44.046875 -1.421875 31.78125 -1.421875 
Q 19.53125 -1.421875 13.0625 8.265625 
Q 6.59375 17.96875 6.59375 36.375 
Q 6.59375 54.828125 13.0625 64.515625 
Q 19.53125 74.21875 31.78125 74.21875 
z
" id="DejaVuSans-48"/>
      </defs>
      <g transform="translate(97.147273 344.775625)scale(0.28 -0.28)">
       <use xlink:href="#DejaVuSans-48"/>
      </g>
     </g>
    </g>
    <g id="xtick_2">
     <g id="line2d_2">
      <g>
       <use style="stroke:#000000;stroke-width:0.8;" x="253.3275" xlink:href="#m431da3d4a8" y="315"/>
      </g>
     </g>
     <g id="text_2">
      <!-- 0.5 -->
      <defs>
       <path d="M 10.6875 12.40625 
L 21 12.40625 
L 21 0 
L 10.6875 0 
z
" id="DejaVuSans-46"/>
       <path d="M 10.796875 72.90625 
L 49.515625 72.90625 
L 49.515625 64.59375 
L 19.828125 64.59375 
L 19.828125 46.734375 
Q 21.96875 47.46875 24.109375 47.828125 
Q 26.265625 48.1875 28.421875 48.1875 
Q 40.625 48.1875 47.75 41.5 
Q 54.890625 34.8125 54.890625 23.390625 
Q 54.890625 11.625 47.5625 5.09375 
Q 40.234375 -1.421875 26.90625 -1.421875 
Q 22.3125 -1.421875 17.546875 -0.640625 
Q 12.796875 0.140625 7.71875 1.703125 
L 7.71875 11.625 
Q 12.109375 9.234375 16.796875 8.0625 
Q 21.484375 6.890625 26.703125 6.890625 
Q 35.15625 6.890625 40.078125 11.328125 
Q 45.015625 15.765625 45.015625 23.390625 
Q 45.015625 31 40.078125 35.4375 
Q 35.15625 39.890625 26.703125 39.890625 
Q 22.75 39.890625 18.8125 39.015625 
Q 14.890625 38.140625 10.796875 36.28125 
z
" id="DejaVuSans-53"/>
      </defs>
      <g transform="translate(231.063125 344.775625)scale(0.28 -0.28)">
       <use xlink:href="#DejaVuSans-48"/>
       <use x="63.623047" xlink:href="#DejaVuSans-46"/>
       <use x="95.410156" xlink:href="#DejaVuSans-53"/>
      </g>
     </g>
    </g>
    <g id="xtick_3">
     <g id="line2d_3">
      <g>
       <use style="stroke:#000000;stroke-width:0.8;" x="400.600227" xlink:href="#m431da3d4a8" y="315"/>
      </g>
     </g>
     <g id="text_3">
      <!-- 1 -->
      <defs>
       <path d="M 12.40625 8.296875 
L 28.515625 8.296875 
L 28.515625 63.921875 
L 10.984375 60.40625 
L 10.984375 69.390625 
L 28.421875 72.90625 
L 38.28125 72.90625 
L 38.28125 8.296875 
L 54.390625 8.296875 
L 54.390625 0 
L 12.40625 0 
z
" id="DejaVuSans-49"/>
      </defs>
      <g transform="translate(391.692727 344.775625)scale(0.28 -0.28)">
       <use xlink:href="#DejaVuSans-49"/>
      </g>
     </g>
    </g>
    <g id="text_4">
     <!-- Quantiles -->
     <defs>
      <path d="M 39.40625 66.21875 
Q 28.65625 66.21875 22.328125 58.203125 
Q 16.015625 50.203125 16.015625 36.375 
Q 16.015625 22.609375 22.328125 14.59375 
Q 28.65625 6.59375 39.40625 6.59375 
Q 50.140625 6.59375 56.421875 14.59375 
Q 62.703125 22.609375 62.703125 36.375 
Q 62.703125 50.203125 56.421875 58.203125 
Q 50.140625 66.21875 39.40625 66.21875 
z
M 53.21875 1.3125 
L 66.21875 -12.890625 
L 54.296875 -12.890625 
L 43.5 -1.21875 
Q 41.890625 -1.3125 41.03125 -1.359375 
Q 40.1875 -1.421875 39.40625 -1.421875 
Q 24.03125 -1.421875 14.8125 8.859375 
Q 5.609375 19.140625 5.609375 36.375 
Q 5.609375 53.65625 14.8125 63.9375 
Q 24.03125 74.21875 39.40625 74.21875 
Q 54.734375 74.21875 63.90625 63.9375 
Q 73.09375 53.65625 73.09375 36.375 
Q 73.09375 23.6875 67.984375 14.640625 
Q 62.890625 5.609375 53.21875 1.3125 
z
" id="DejaVuSans-81"/>
      <path d="M 8.5 21.578125 
L 8.5 54.6875 
L 17.484375 54.6875 
L 17.484375 21.921875 
Q 17.484375 14.15625 20.5 10.265625 
Q 23.53125 6.390625 29.59375 6.390625 
Q 36.859375 6.390625 41.078125 11.03125 
Q 45.3125 15.671875 45.3125 23.6875 
L 45.3125 54.6875 
L 54.296875 54.6875 
L 54.296875 0 
L 45.3125 0 
L 45.3125 8.40625 
Q 42.046875 3.421875 37.71875 1 
Q 33.40625 -1.421875 27.6875 -1.421875 
Q 18.265625 -1.421875 13.375 4.4375 
Q 8.5 10.296875 8.5 21.578125 
z
M 31.109375 56 
z
" id="DejaVuSans-117"/>
      <path d="M 34.28125 27.484375 
Q 23.390625 27.484375 19.1875 25 
Q 14.984375 22.515625 14.984375 16.5 
Q 14.984375 11.71875 18.140625 8.90625 
Q 21.296875 6.109375 26.703125 6.109375 
Q 34.1875 6.109375 38.703125 11.40625 
Q 43.21875 16.703125 43.21875 25.484375 
L 43.21875 27.484375 
z
M 52.203125 31.203125 
L 52.203125 0 
L 43.21875 0 
L 43.21875 8.296875 
Q 40.140625 3.328125 35.546875 0.953125 
Q 30.953125 -1.421875 24.3125 -1.421875 
Q 15.921875 -1.421875 10.953125 3.296875 
Q 6 8.015625 6 15.921875 
Q 6 25.140625 12.171875 29.828125 
Q 18.359375 34.515625 30.609375 34.515625 
L 43.21875 34.515625 
L 43.21875 35.40625 
Q 43.21875 41.609375 39.140625 45 
Q 35.0625 48.390625 27.6875 48.390625 
Q 23 48.390625 18.546875 47.265625 
Q 14.109375 46.140625 10.015625 43.890625 
L 10.015625 52.203125 
Q 14.9375 54.109375 19.578125 55.046875 
Q 24.21875 56 28.609375 56 
Q 40.484375 56 46.34375 49.84375 
Q 52.203125 43.703125 52.203125 31.203125 
z
" id="DejaVuSans-97"/>
      <path d="M 54.890625 33.015625 
L 54.890625 0 
L 45.90625 0 
L 45.90625 32.71875 
Q 45.90625 40.484375 42.875 44.328125 
Q 39.84375 48.1875 33.796875 48.1875 
Q 26.515625 48.1875 22.3125 43.546875 
Q 18.109375 38.921875 18.109375 30.90625 
L 18.109375 0 
L 9.078125 0 
L 9.078125 54.6875 
L 18.109375 54.6875 
L 18.109375 46.1875 
Q 21.34375 51.125 25.703125 53.5625 
Q 30.078125 56 35.796875 56 
Q 45.21875 56 50.046875 50.171875 
Q 54.890625 44.34375 54.890625 33.015625 
z
" id="DejaVuSans-110"/>
      <path d="M 18.3125 70.21875 
L 18.3125 54.6875 
L 36.8125 54.6875 
L 36.8125 47.703125 
L 18.3125 47.703125 
L 18.3125 18.015625 
Q 18.3125 11.328125 20.140625 9.421875 
Q 21.96875 7.515625 27.59375 7.515625 
L 36.8125 7.515625 
L 36.8125 0 
L 27.59375 0 
Q 17.1875 0 13.234375 3.875 
Q 9.28125 7.765625 9.28125 18.015625 
L 9.28125 47.703125 
L 2.6875 47.703125 
L 2.6875 54.6875 
L 9.28125 54.6875 
L 9.28125 70.21875 
z
" id="DejaVuSans-116"/>
      <path d="M 9.421875 54.6875 
L 18.40625 54.6875 
L 18.40625 0 
L 9.421875 0 
z
M 9.421875 75.984375 
L 18.40625 75.984375 
L 18.40625 64.59375 
L 9.421875 64.59375 
z
" id="DejaVuSans-105"/>
      <path d="M 9.421875 75.984375 
L 18.40625 75.984375 
L 18.40625 0 
L 9.421875 0 
z
" id="DejaVuSans-108"/>
      <path d="M 56.203125 29.59375 
L 56.203125 25.203125 
L 14.890625 25.203125 
Q 15.484375 15.921875 20.484375 11.0625 
Q 25.484375 6.203125 34.421875 6.203125 
Q 39.59375 6.203125 44.453125 7.46875 
Q 49.3125 8.734375 54.109375 11.28125 
L 54.109375 2.78125 
Q 49.265625 0.734375 44.1875 -0.34375 
Q 39.109375 -1.421875 33.890625 -1.421875 
Q 20.796875 -1.421875 13.15625 6.1875 
Q 5.515625 13.8125 5.515625 26.8125 
Q 5.515625 40.234375 12.765625 48.109375 
Q 20.015625 56 32.328125 56 
Q 43.359375 56 49.78125 48.890625 
Q 56.203125 41.796875 56.203125 29.59375 
z
M 47.21875 32.234375 
Q 47.125 39.59375 43.09375 43.984375 
Q 39.0625 48.390625 32.421875 48.390625 
Q 24.90625 48.390625 20.390625 44.140625 
Q 15.875 39.890625 15.1875 32.171875 
z
" id="DejaVuSans-101"/>
      <path d="M 44.28125 53.078125 
L 44.28125 44.578125 
Q 40.484375 46.53125 36.375 47.5 
Q 32.28125 48.484375 27.875 48.484375 
Q 21.1875 48.484375 17.84375 46.4375 
Q 14.5 44.390625 14.5 40.28125 
Q 14.5 37.15625 16.890625 35.375 
Q 19.28125 33.59375 26.515625 31.984375 
L 29.59375 31.296875 
Q 39.15625 29.25 43.1875 25.515625 
Q 47.21875 21.78125 47.21875 15.09375 
Q 47.21875 7.46875 41.1875 3.015625 
Q 35.15625 -1.421875 24.609375 -1.421875 
Q 20.21875 -1.421875 15.453125 -0.5625 
Q 10.6875 0.296875 5.421875 2 
L 5.421875 11.28125 
Q 10.40625 8.6875 15.234375 7.390625 
Q 20.0625 6.109375 24.8125 6.109375 
Q 31.15625 6.109375 34.5625 8.28125 
Q 37.984375 10.453125 37.984375 14.40625 
Q 37.984375 18.0625 35.515625 20.015625 
Q 33.0625 21.96875 24.703125 23.78125 
L 21.578125 24.515625 
Q 13.234375 26.265625 9.515625 29.90625 
Q 5.8125 33.546875 5.8125 39.890625 
Q 5.8125 47.609375 11.28125 51.796875 
Q 16.75 56 26.8125 56 
Q 31.78125 56 36.171875 55.265625 
Q 40.578125 54.546875 44.28125 53.078125 
z
" id="DejaVuSans-115"/>
     </defs>
     <g transform="translate(186.807813 375.874375)scale(0.28 -0.28)">
      <use xlink:href="#DejaVuSans-81"/>
      <use x="78.710938" xlink:href="#DejaVuSans-117"/>
      <use x="142.089844" xlink:href="#DejaVuSans-97"/>
      <use x="203.369141" xlink:href="#DejaVuSans-110"/>
      <use x="266.748047" xlink:href="#DejaVuSans-116"/>
      <use x="305.957031" xlink:href="#DejaVuSans-105"/>
      <use x="333.740234" xlink:href="#DejaVuSans-108"/>
      <use x="361.523438" xlink:href="#DejaVuSans-101"/>
      <use x="423.046875" xlink:href="#DejaVuSans-115"/>
     </g>
    </g>
   </g>
   <g id="matplotlib.axis_2">
    <g id="ytick_1">
     <g id="line2d_4">
      <defs>
       <path d="M 0 0 
L -5 0 
" id="md700422c01" style="stroke:#000000;stroke-width:0.8;"/>
      </defs>
      <g>
       <use style="stroke:#000000;stroke-width:0.8;" x="91.3275" xlink:href="#md700422c01" y="302.645455"/>
      </g>
     </g>
     <g id="text_5">
      <!-- 0.0 -->
      <g transform="translate(38.29875 313.283267)scale(0.28 -0.28)">
       <use xlink:href="#DejaVuSans-48"/>
       <use x="63.623047" xlink:href="#DejaVuSans-46"/>
       <use x="95.410156" xlink:href="#DejaVuSans-48"/>
      </g>
     </g>
    </g>
    <g id="ytick_2">
     <g id="line2d_5">
      <g>
       <use style="stroke:#000000;stroke-width:0.8;" x="91.3275" xlink:href="#md700422c01" y="179.1"/>
      </g>
     </g>
     <g id="text_6">
      <!-- 0.5 -->
      <g transform="translate(38.29875 189.737812)scale(0.28 -0.28)">
       <use xlink:href="#DejaVuSans-48"/>
       <use x="63.623047" xlink:href="#DejaVuSans-46"/>
       <use x="95.410156" xlink:href="#DejaVuSans-53"/>
      </g>
     </g>
    </g>
    <g id="ytick_3">
     <g id="line2d_6">
      <g>
       <use style="stroke:#000000;stroke-width:0.8;" x="91.3275" xlink:href="#md700422c01" y="55.554545"/>
      </g>
     </g>
     <g id="text_7">
      <!-- 1.0 -->
      <g transform="translate(38.29875 66.192358)scale(0.28 -0.28)">
       <use xlink:href="#DejaVuSans-49"/>
       <use x="63.623047" xlink:href="#DejaVuSans-46"/>
       <use x="95.410156" xlink:href="#DejaVuSans-48"/>
      </g>
     </g>
    </g>
    <g id="text_8">
     <!-- p-values -->
     <defs>
      <path d="M 18.109375 8.203125 
L 18.109375 -20.796875 
L 9.078125 -20.796875 
L 9.078125 54.6875 
L 18.109375 54.6875 
L 18.109375 46.390625 
Q 20.953125 51.265625 25.265625 53.625 
Q 29.59375 56 35.59375 56 
Q 45.5625 56 51.78125 48.09375 
Q 58.015625 40.1875 58.015625 27.296875 
Q 58.015625 14.40625 51.78125 6.484375 
Q 45.5625 -1.421875 35.59375 -1.421875 
Q 29.59375 -1.421875 25.265625 0.953125 
Q 20.953125 3.328125 18.109375 8.203125 
z
M 48.6875 27.296875 
Q 48.6875 37.203125 44.609375 42.84375 
Q 40.53125 48.484375 33.40625 48.484375 
Q 26.265625 48.484375 22.1875 42.84375 
Q 18.109375 37.203125 18.109375 27.296875 
Q 18.109375 17.390625 22.1875 11.75 
Q 26.265625 6.109375 33.40625 6.109375 
Q 40.53125 6.109375 44.609375 11.75 
Q 48.6875 17.390625 48.6875 27.296875 
z
" id="DejaVuSans-112"/>
      <path d="M 4.890625 31.390625 
L 31.203125 31.390625 
L 31.203125 23.390625 
L 4.890625 23.390625 
z
" id="DejaVuSans-45"/>
      <path d="M 2.984375 54.6875 
L 12.5 54.6875 
L 29.59375 8.796875 
L 46.6875 54.6875 
L 56.203125 54.6875 
L 35.6875 0 
L 23.484375 0 
z
" id="DejaVuSans-118"/>
     </defs>
     <g transform="translate(28.475625 238.569375)rotate(-90)scale(0.28 -0.28)">
      <use xlink:href="#DejaVuSans-112"/>
      <use x="63.476562" xlink:href="#DejaVuSans-45"/>
      <use x="99.529297" xlink:href="#DejaVuSans-118"/>
      <use x="158.708984" xlink:href="#DejaVuSans-97"/>
      <use x="219.988281" xlink:href="#DejaVuSans-108"/>
      <use x="247.771484" xlink:href="#DejaVuSans-117"/>
      <use x="311.150391" xlink:href="#DejaVuSans-101"/>
      <use x="372.673828" xlink:href="#DejaVuSans-115"/>
     </g>
    </g>
   </g>
   <g id="line2d_7">
    <path clip-path="url(#p61aeaf886b)" d="M 106.252348 302.645455 
L 172.377488 302.544066 
L 174.942805 302.469589 
L 186.629251 302.177397 
L 190.90478 302.016132 
L 193.755132 301.867328 
L 195.750379 301.763915 
L 196.605485 301.685169 
L 203.161295 301.159452 
L 206.866754 300.738019 
L 208.576965 300.472901 
L 209.432071 300.316005 
L 210.002141 300.209278 
L 211.712353 299.968922 
L 212.282424 299.84971 
L 213.7076 299.783179 
L 214.27767 299.590513 
L 215.132776 299.431153 
L 215.417811 299.409421 
L 215.987882 299.174468 
L 217.698093 298.958303 
L 218.553199 298.318329 
L 219.408305 298.206511 
L 219.69334 298.025164 
L 220.263411 297.885641 
L 221.973622 297.395256 
L 222.828728 297.203326 
L 223.968869 297.115072 
L 224.823975 296.948916 
L 225.964116 296.803875 
L 226.534186 296.701144 
L 227.104257 296.617399 
L 228.244398 296.423158 
L 230.52468 296.015767 
L 230.809715 295.522252 
L 232.234891 295.259243 
L 232.519927 295.220009 
L 232.804962 294.978298 
L 233.660068 294.880369 
L 233.945103 294.824378 
L 234.230138 294.569464 
L 234.515173 294.518117 
L 234.800209 294.297571 
L 235.085244 294.27888 
L 235.370279 293.802283 
L 237.935596 293.462803 
L 239.360773 293.343962 
L 240.215878 293.089429 
L 240.785949 292.981046 
L 241.070984 292.730425 
L 244.776442 291.566382 
L 245.631548 290.909185 
L 246.201619 290.859013 
L 247.056724 290.487519 
L 248.196865 290.339099 
L 249.051971 289.963351 
L 250.762183 289.776015 
L 251.047218 289.551732 
L 251.902324 289.371477 
L 253.3275 288.734775 
L 255.322747 288.407038 
L 256.462888 287.797627 
L 257.032958 287.621269 
L 257.317994 287.388195 
L 258.74317 287.164486 
L 259.028205 286.838521 
L 259.31324 286.780538 
L 259.598276 286.38294 
L 259.883311 286.19113 
L 260.738417 286.094781 
L 261.308487 285.71574 
L 262.733663 285.543044 
L 263.018699 285.155852 
L 263.873804 284.858386 
L 264.443875 284.580461 
L 265.013945 284.020116 
L 265.869051 283.596007 
L 267.009192 282.825956 
L 267.579263 282.626331 
L 267.864298 282.153603 
L 269.004439 281.9842 
L 269.574509 281.402303 
L 269.859545 281.389444 
L 271.284721 280.670892 
L 271.569756 280.670014 
L 272.139827 280.362607 
L 272.709897 280.170412 
L 274.990179 278.886143 
L 276.13032 278.534935 
L 276.415356 278.396337 
L 276.985426 277.885234 
L 277.270461 277.715397 
L 278.125567 276.457245 
L 278.410602 276.267271 
L 278.695638 275.638291 
L 278.980673 275.568122 
L 279.265708 275.377343 
L 279.550743 274.663253 
L 279.835779 274.604924 
L 280.405849 274.135658 
L 280.690884 274.052349 
L 281.260955 272.539808 
L 282.116061 271.905839 
L 282.401096 271.863775 
L 282.686131 271.509141 
L 283.256202 271.385851 
L 283.541237 270.91967 
L 284.111307 270.41973 
L 284.681378 270.185986 
L 285.251448 269.917815 
L 285.536484 269.442271 
L 286.106554 267.78651 
L 286.96166 267.338408 
L 287.246695 267.158887 
L 287.53173 266.79696 
L 287.816766 266.632514 
L 288.101801 266.615293 
L 288.671871 266.211489 
L 288.956907 266.190318 
L 289.241942 265.971081 
L 289.526977 265.193924 
L 290.097048 265.112055 
L 291.237189 264.232271 
L 291.807259 262.884467 
L 292.37733 262.624124 
L 293.517471 262.361143 
L 294.087541 261.795023 
L 294.942647 261.405949 
L 295.512717 261.057555 
L 296.082788 261.013726 
L 296.367823 260.484852 
L 296.652859 260.414355 
L 296.937894 259.706064 
L 297.222929 259.694585 
L 297.507964 259.326205 
L 297.793 258.755179 
L 299.503211 257.972092 
L 299.788246 257.913706 
L 300.073282 257.554727 
L 300.643352 257.503397 
L 300.928387 256.685544 
L 301.213423 256.506989 
L 301.498458 256.485795 
L 301.783493 256.294111 
L 302.353564 255.727333 
L 302.638599 255.614923 
L 302.923634 255.187443 
L 303.208669 254.53666 
L 304.063775 253.967275 
L 305.203916 253.880148 
L 305.488951 253.58028 
L 305.773987 253.045184 
L 306.629092 252.766467 
L 306.914128 252.202602 
L 307.199163 252.078232 
L 307.769233 251.351199 
L 308.339304 251.23908 
L 309.19441 250.914301 
L 309.479445 250.543875 
L 309.76448 250.377907 
L 310.049515 249.622637 
L 310.334551 249.42652 
L 310.619586 248.832693 
L 311.189656 248.533075 
L 311.474692 248.420653 
L 311.759727 247.270054 
L 312.329797 247.244831 
L 312.899868 246.69129 
L 313.469938 246.640497 
L 314.610079 246.148167 
L 314.895115 246.029375 
L 315.18015 245.443738 
L 315.75022 245.172266 
L 316.320291 243.468245 
L 316.605326 243.423002 
L 316.890361 243.208794 
L 317.460432 242.358303 
L 317.745467 242.268609 
L 318.315538 241.407985 
L 318.600573 241.322474 
L 318.885608 240.727149 
L 319.170644 240.683497 
L 319.455679 240.461897 
L 319.740714 240.451788 
L 320.310785 240.175508 
L 320.59582 240.104635 
L 321.16589 238.680772 
L 321.450926 238.59166 
L 321.735961 238.072005 
L 322.020996 237.950191 
L 322.306031 237.264091 
L 322.591067 237.181408 
L 322.876102 236.648812 
L 323.161137 236.387034 
L 323.446172 235.895802 
L 324.301278 235.67043 
L 324.586313 235.273405 
L 324.871349 233.993479 
L 326.01149 233.755237 
L 326.296525 232.789188 
L 326.58156 232.515031 
L 326.866595 232.410257 
L 327.436666 231.566529 
L 328.291772 231.397679 
L 329.146877 230.538333 
L 329.431913 230.399743 
L 330.572054 228.804172 
L 330.857089 228.411783 
L 331.712195 227.90166 
L 331.99723 226.978923 
L 332.282265 226.903642 
L 332.852336 225.903162 
L 333.137371 225.852574 
L 333.707441 225.338564 
L 333.992477 225.132641 
L 334.847582 222.663943 
L 335.132618 222.410805 
L 335.702688 221.140515 
L 335.987723 220.915777 
L 336.272759 219.516557 
L 336.557794 218.917954 
L 337.127864 218.303098 
L 337.697935 218.08115 
L 337.98297 217.804178 
L 339.123111 217.55897 
L 339.408147 217.03148 
L 339.978217 216.758138 
L 340.263252 215.283172 
L 340.548288 215.019289 
L 341.118358 214.901779 
L 341.688429 213.674143 
L 341.973464 213.278856 
L 342.543534 211.801744 
L 343.683675 210.72577 
L 343.968711 210.71746 
L 344.253746 210.454332 
L 344.538781 209.691589 
L 345.108852 209.587526 
L 345.393887 208.599677 
L 345.678922 208.515741 
L 345.963957 205.058394 
L 346.248993 204.832853 
L 346.534028 204.165047 
L 346.819063 203.820869 
L 347.104098 203.663195 
L 347.674169 202.610988 
L 347.959204 201.08786 
L 348.244239 201.036395 
L 348.529275 200.458313 
L 348.81431 199.031144 
L 349.38438 198.449164 
L 349.669416 198.391972 
L 349.954451 197.643808 
L 350.239486 197.468564 
L 350.524521 195.662679 
L 350.809557 195.586079 
L 351.379627 195.002793 
L 352.519768 193.909693 
L 353.374874 193.694345 
L 353.659909 193.160718 
L 353.944944 192.124377 
L 354.515015 190.715234 
L 354.80005 189.857888 
L 355.085085 189.424339 
L 355.370121 189.358924 
L 355.655156 188.519789 
L 355.940191 188.512925 
L 356.795297 187.063837 
L 357.365367 186.856489 
L 357.650403 186.851185 
L 357.935438 185.262224 
L 358.220473 185.071126 
L 358.505508 183.83296 
L 358.790544 183.816101 
L 359.360614 182.973189 
L 359.645649 182.585199 
L 360.21572 180.87172 
L 360.500755 180.659854 
L 360.785791 180.169949 
L 361.070826 177.619931 
L 361.355861 177.03358 
L 361.640896 175.531005 
L 361.925932 175.281245 
L 362.496002 172.467118 
L 363.351108 170.689095 
L 364.206214 168.447127 
L 364.491249 168.175124 
L 364.776284 167.695376 
L 365.061319 165.751895 
L 365.346355 165.677184 
L 365.63139 165.086275 
L 366.20146 164.97585 
L 366.486496 162.83135 
L 366.771531 162.301428 
L 367.056566 160.560261 
L 367.341601 160.045665 
L 367.626637 159.978369 
L 367.911672 159.707298 
L 368.196707 159.086073 
L 368.481742 158.986046 
L 369.051813 157.928757 
L 369.336848 155.999114 
L 369.621883 155.203051 
L 370.191954 154.945112 
L 370.762024 151.84385 
L 371.04706 151.166629 
L 371.332095 150.832266 
L 371.61713 149.858977 
L 371.902165 149.582988 
L 372.187201 148.514185 
L 372.472236 148.024263 
L 372.757271 146.49643 
L 373.042306 143.461426 
L 373.327342 143.260107 
L 373.612377 140.547173 
L 374.467483 139.915087 
L 374.752518 139.853818 
L 375.037553 138.997932 
L 375.322588 138.794544 
L 375.607624 138.310486 
L 375.892659 137.414092 
L 376.177694 137.012995 
L 376.462729 135.686704 
L 376.747765 134.993694 
L 377.0328 134.76633 
L 377.317835 134.216327 
L 377.60287 132.3195 
L 377.887906 132.261056 
L 378.172941 131.192231 
L 379.028047 129.833356 
L 379.313082 128.976458 
L 379.598117 128.937648 
L 379.883152 128.492677 
L 380.168188 127.23745 
L 380.738258 127.0094 
L 381.023293 124.964047 
L 381.308329 124.518811 
L 381.593364 123.607335 
L 381.878399 123.39715 
L 383.303576 116.437768 
L 383.588611 116.140892 
L 384.443717 112.687479 
L 384.728752 112.613167 
L 385.013787 112.362701 
L 385.298822 111.51347 
L 385.583858 109.96874 
L 385.868893 109.470615 
L 386.438963 107.696263 
L 387.009034 102.604893 
L 387.294069 102.289772 
L 387.579104 99.083141 
L 388.43421 97.761467 
L 388.719245 97.603676 
L 389.004281 96.955861 
L 389.574351 94.773569 
L 390.144422 93.479461 
L 390.429457 91.927838 
L 391.284563 89.288388 
L 391.569598 87.525189 
L 391.854633 86.949408 
L 392.139668 83.982053 
L 392.424704 83.326953 
L 392.709739 83.326235 
L 392.994774 81.889366 
L 393.279809 78.674589 
L 393.564845 78.560992 
L 393.84988 78.031841 
L 394.134915 76.560685 
L 394.704986 72.609849 
L 395.275056 70.981057 
L 395.560091 70.639228 
L 395.845127 70.604166 
L 396.130162 69.767578 
L 396.415197 68.022485 
L 396.700232 67.768476 
L 396.985268 66.906625 
L 397.270303 64.796423 
L 397.555338 64.544702 
L 397.840373 61.749776 
L 398.125409 61.009913 
L 398.410444 60.845453 
L 398.980514 59.802248 
L 399.26555 57.908477 
L 399.83562 57.405241 
L 400.120655 56.340093 
L 400.402652 56.095886 
L 400.402652 56.095886 
" style="fill:none;stroke:#b8860b;stroke-linecap:square;stroke-opacity:0.75;stroke-width:2;"/>
   </g>
   <g id="line2d_8">
    <path clip-path="url(#p61aeaf886b)" d="M 109.13197 302.645455 
L 113.522154 302.645455 
L 117.960419 302.645455 
L 122.398683 302.645455 
L 126.836948 302.645455 
L 131.275213 302.645455 
L 135.713478 302.645455 
L 140.151743 302.645455 
L 144.590008 302.645455 
L 149.028273 302.645455 
L 153.466538 302.645455 
L 157.904803 302.645455 
L 162.343068 302.645455 
L 166.781333 302.645455 
L 171.219598 302.645455 
L 175.657863 302.645455 
L 180.096128 302.645454 
L 184.534393 302.645454 
L 188.972658 302.645454 
L 193.410923 302.645453 
L 197.849188 302.645451 
L 202.287453 302.64545 
L 206.725718 302.645447 
L 211.163983 302.645447 
L 215.602248 302.645433 
L 220.040513 302.645272 
L 224.478778 302.645192 
L 228.917043 302.64519 
L 233.355308 302.645168 
L 237.793573 302.645011 
L 242.231838 302.644525 
L 246.670103 302.644131 
L 251.108368 302.642901 
L 255.546632 302.642184 
L 259.984897 302.641716 
L 264.423162 302.640699 
L 268.861427 302.632972 
L 273.299692 302.604954 
L 277.737957 302.598718 
L 282.176222 302.556736 
L 286.614487 302.547865 
L 291.052752 302.516376 
L 295.491017 302.486625 
L 299.929282 302.421335 
L 304.367547 302.411378 
L 308.805812 302.395168 
L 313.244077 302.257109 
L 317.682342 302.130595 
L 322.120607 301.991061 
L 326.558872 301.333874 
L 330.997137 299.968922 
L 335.435402 297.885641 
L 339.873667 296.948916 
L 344.311932 293.503717 
L 348.750197 292.358271 
L 353.188462 289.776015 
L 357.626727 286.838521 
L 362.064992 284.77648 
L 366.503257 278.085117 
L 370.941522 277.715397 
L 375.379787 266.190318 
L 379.818052 256.485795 
L 384.256317 203.05827 
L 388.694581 128.492677 
L 393.132846 94.020605 
L 397.52303 56.340093 
" style="fill:none;stroke:#8b0000;stroke-linecap:square;stroke-opacity:0.75;stroke-width:2;"/>
   </g>
   <g id="line2d_9">
    <path clip-path="url(#p61aeaf886b)" d="M 106.989815 302.645455 
L 237.815524 302.544066 
L 251.304199 302.395168 
L 264.792874 302.257109 
L 276.932681 301.928422 
L 278.281549 301.710782 
L 282.328152 301.551295 
L 285.025887 301.385838 
L 286.374754 301.333874 
L 287.723622 301.118607 
L 289.072489 300.673483 
L 290.421357 300.669398 
L 291.770224 299.968922 
L 293.119092 299.632167 
L 294.467959 299.503958 
L 297.165694 298.709861 
L 298.514562 297.885641 
L 299.863429 297.294188 
L 301.212297 297.203219 
L 302.561164 296.948916 
L 303.910032 296.545385 
L 306.607767 296.384424 
L 307.956634 296.160395 
L 309.305502 296.100491 
L 310.654369 294.27888 
L 312.003237 293.503717 
L 313.352104 293.082554 
L 314.700972 292.358271 
L 316.049839 292.172519 
L 317.398707 289.877385 
L 318.747574 289.866453 
L 320.096442 286.838521 
L 321.445309 286.19113 
L 324.143044 286.18238 
L 325.491912 285.71574 
L 326.840779 284.77648 
L 328.189647 283.384322 
L 329.538515 282.153603 
L 330.887382 282.051014 
L 332.23625 279.618343 
L 333.585117 279.265118 
L 334.933985 278.085117 
L 336.282852 277.715397 
L 338.980587 266.632514 
L 340.329455 266.190318 
L 341.678322 265.971081 
L 343.02719 261.606326 
L 344.376057 259.694585 
L 345.724925 256.506989 
L 347.073792 256.485795 
L 348.42266 254.31443 
L 349.771527 253.045184 
L 351.120395 252.959249 
L 352.469262 250.543875 
L 353.81813 249.42652 
L 356.515865 245.172266 
L 357.864732 241.322474 
L 359.2136 233.993479 
L 360.562467 231.566529 
L 361.911335 230.399743 
L 363.260202 226.903642 
L 364.60907 216.758138 
L 365.957937 209.591725 
L 367.306805 205.058394 
L 368.655672 203.05827 
L 370.00454 198.729666 
L 371.353407 187.063837 
L 372.702275 185.262224 
L 374.051142 185.071126 
L 375.40001 183.83296 
L 376.748877 182.973189 
L 378.097745 170.689095 
L 379.446612 155.063998 
L 380.79548 154.945112 
L 382.144348 132.3195 
L 383.493215 128.492677 
L 384.842083 94.020605 
L 386.19095 86.949408 
L 387.539818 83.982053 
L 388.888685 83.326953 
L 390.237553 78.560992 
L 391.58642 72.609849 
L 392.935288 64.796423 
L 394.284155 64.544702 
L 395.633023 61.749776 
L 398.330758 57.711074 
L 399.665185 56.340093 
L 399.665185 56.340093 
" style="fill:none;stroke:#000080;stroke-linecap:square;stroke-opacity:0.75;stroke-width:2;"/>
   </g>
   <g id="line2d_10">
    <path clip-path="url(#p61aeaf886b)" d="M 106.054773 290.290909 
L 400.600227 290.290909 
" style="fill:none;stroke:#ff0000;stroke-dasharray:3.7,1.6;stroke-dashoffset:0;"/>
   </g>
   <g id="patch_3">
    <path d="M 91.3275 315 
L 91.3275 43.2 
" style="fill:none;stroke:#000000;stroke-linecap:square;stroke-linejoin:miter;stroke-width:0.8;"/>
   </g>
   <g id="patch_4">
    <path d="M 91.3275 315 
L 415.3275 315 
" style="fill:none;stroke:#000000;stroke-linecap:square;stroke-linejoin:miter;stroke-width:0.8;"/>
   </g>
   <g id="text_9">
    <!-- Chen -->
    <defs>
     <path d="M 64.40625 67.28125 
L 64.40625 56.890625 
Q 59.421875 61.53125 53.78125 63.8125 
Q 48.140625 66.109375 41.796875 66.109375 
Q 29.296875 66.109375 22.65625 58.46875 
Q 16.015625 50.828125 16.015625 36.375 
Q 16.015625 21.96875 22.65625 14.328125 
Q 29.296875 6.6875 41.796875 6.6875 
Q 48.140625 6.6875 53.78125 8.984375 
Q 59.421875 11.28125 64.40625 15.921875 
L 64.40625 5.609375 
Q 59.234375 2.09375 53.4375 0.328125 
Q 47.65625 -1.421875 41.21875 -1.421875 
Q 24.65625 -1.421875 15.125 8.703125 
Q 5.609375 18.84375 5.609375 36.375 
Q 5.609375 53.953125 15.125 64.078125 
Q 24.65625 74.21875 41.21875 74.21875 
Q 47.75 74.21875 53.53125 72.484375 
Q 59.328125 70.75 64.40625 67.28125 
z
" id="DejaVuSans-67"/>
     <path d="M 54.890625 33.015625 
L 54.890625 0 
L 45.90625 0 
L 45.90625 32.71875 
Q 45.90625 40.484375 42.875 44.328125 
Q 39.84375 48.1875 33.796875 48.1875 
Q 26.515625 48.1875 22.3125 43.546875 
Q 18.109375 38.921875 18.109375 30.90625 
L 18.109375 0 
L 9.078125 0 
L 9.078125 75.984375 
L 18.109375 75.984375 
L 18.109375 46.1875 
Q 21.34375 51.125 25.703125 53.5625 
Q 30.078125 56 35.796875 56 
Q 45.21875 56 50.046875 50.171875 
Q 54.890625 44.34375 54.890625 33.015625 
z
" id="DejaVuSans-104"/>
    </defs>
    <g transform="translate(120.782045 76.83017)scale(0.28 -0.28)">
     <use xlink:href="#DejaVuSans-67"/>
     <use x="69.824219" xlink:href="#DejaVuSans-104"/>
     <use x="133.203125" xlink:href="#DejaVuSans-101"/>
     <use x="194.726562" xlink:href="#DejaVuSans-110"/>
    </g>
   </g>
  </g>
  <g id="axes_2">
   <g id="patch_5">
    <path d="M 431.5275 315 
L 755.5275 315 
L 755.5275 43.2 
L 431.5275 43.2 
z
" style="fill:none;"/>
   </g>
   <g id="matplotlib.axis_3">
    <g id="xtick_4">
     <g id="line2d_11">
      <g>
       <use style="stroke:#000000;stroke-width:0.8;" x="446.254773" xlink:href="#m431da3d4a8" y="315"/>
      </g>
     </g>
     <g id="text_10">
      <!-- 0 -->
      <g transform="translate(437.347273 344.775625)scale(0.28 -0.28)">
       <use xlink:href="#DejaVuSans-48"/>
      </g>
     </g>
    </g>
    <g id="xtick_5">
     <g id="line2d_12">
      <g>
       <use style="stroke:#000000;stroke-width:0.8;" x="593.5275" xlink:href="#m431da3d4a8" y="315"/>
      </g>
     </g>
     <g id="text_11">
      <!-- 0.5 -->
      <g transform="translate(571.263125 344.775625)scale(0.28 -0.28)">
       <use xlink:href="#DejaVuSans-48"/>
       <use x="63.623047" xlink:href="#DejaVuSans-46"/>
       <use x="95.410156" xlink:href="#DejaVuSans-53"/>
      </g>
     </g>
    </g>
    <g id="xtick_6">
     <g id="line2d_13">
      <g>
       <use style="stroke:#000000;stroke-width:0.8;" x="740.800227" xlink:href="#m431da3d4a8" y="315"/>
      </g>
     </g>
     <g id="text_12">
      <!-- 1 -->
      <g transform="translate(731.892727 344.775625)scale(0.28 -0.28)">
       <use xlink:href="#DejaVuSans-49"/>
      </g>
     </g>
    </g>
    <g id="text_13">
     <!-- Quantiles -->
     <g transform="translate(527.007812 375.874375)scale(0.28 -0.28)">
      <use xlink:href="#DejaVuSans-81"/>
      <use x="78.710938" xlink:href="#DejaVuSans-117"/>
      <use x="142.089844" xlink:href="#DejaVuSans-97"/>
      <use x="203.369141" xlink:href="#DejaVuSans-110"/>
      <use x="266.748047" xlink:href="#DejaVuSans-116"/>
      <use x="305.957031" xlink:href="#DejaVuSans-105"/>
      <use x="333.740234" xlink:href="#DejaVuSans-108"/>
      <use x="361.523438" xlink:href="#DejaVuSans-101"/>
      <use x="423.046875" xlink:href="#DejaVuSans-115"/>
     </g>
    </g>
   </g>
   <g id="matplotlib.axis_4">
    <g id="ytick_4"/>
    <g id="ytick_5"/>
    <g id="ytick_6"/>
   </g>
   <g id="line2d_14">
    <path clip-path="url(#pf5bded36db)" d="M 446.540978 302.645455 
L 464.291096 302.540067 
L 472.549013 302.01577 
L 473.787701 301.689541 
L 475.85218 301.4198 
L 476.677972 301.28585 
L 477.090868 301.265635 
L 478.742451 300.745136 
L 479.568243 300.626935 
L 480.80693 300.251175 
L 484.935889 299.934936 
L 486.174577 299.635835 
L 487.000368 299.582637 
L 487.82616 299.276222 
L 488.239056 299.235449 
L 488.651952 298.878486 
L 489.890639 298.571805 
L 490.303535 298.20453 
L 493.193806 297.642476 
L 493.606702 297.631829 
L 494.84539 297.27071 
L 496.084077 297.129109 
L 497.322765 296.740472 
L 497.735661 296.680883 
L 498.561452 296.30649 
L 500.625932 295.740521 
L 501.038828 295.2122 
L 502.277515 294.714008 
L 502.690411 294.385107 
L 505.580682 293.974232 
L 505.993578 293.774112 
L 507.232265 293.507604 
L 507.645161 293.285401 
L 508.058057 292.761692 
L 510.122536 292.290295 
L 510.948328 291.335547 
L 512.599912 290.861224 
L 513.012807 290.613162 
L 513.838599 290.524603 
L 514.251495 290.040309 
L 515.490183 289.558479 
L 516.72887 289.341345 
L 517.554662 288.865008 
L 517.967558 288.818735 
L 518.380454 288.531109 
L 519.206245 288.464438 
L 520.444933 287.661922 
L 521.683621 287.354254 
L 522.096516 287.000618 
L 522.922308 286.787538 
L 523.335204 286.359881 
L 523.7481 285.555824 
L 524.160996 285.289056 
L 525.399683 285.019197 
L 525.812579 284.568054 
L 527.051267 283.854947 
L 527.464163 282.661927 
L 528.289954 282.481563 
L 528.70285 282.137476 
L 529.528642 282.032006 
L 529.941538 281.586302 
L 530.767329 281.56008 
L 531.180225 281.299416 
L 531.593121 280.689277 
L 532.006017 280.498548 
L 532.831809 279.963998 
L 533.6576 279.779557 
L 534.483392 279.774144 
L 535.309184 279.517485 
L 535.72208 279.514754 
L 536.134976 279.352473 
L 536.547871 279.32178 
L 537.373663 278.079538 
L 540.263934 277.677834 
L 540.67683 276.890142 
L 541.915518 276.00703 
L 542.328413 275.692888 
L 543.154205 275.321303 
L 543.567101 274.718945 
L 544.805789 274.566481 
L 545.218684 274.158329 
L 546.870268 273.512823 
L 548.521851 273.346437 
L 548.934747 272.831827 
L 549.347643 272.513612 
L 550.173435 272.244479 
L 550.586331 271.423099 
L 550.999227 271.178873 
L 551.412122 269.992535 
L 551.825018 269.67131 
L 553.476602 269.446713 
L 553.889498 269.279281 
L 554.302393 267.792945 
L 555.541081 267.000171 
L 556.366873 266.890933 
L 557.60556 266.249466 
L 558.018456 266.234098 
L 558.844248 265.063238 
L 559.67004 264.699353 
L 560.082935 264.285613 
L 560.495831 264.206444 
L 560.908727 263.771076 
L 561.734519 263.332689 
L 562.147415 261.843834 
L 562.560311 261.602077 
L 562.973206 261.581756 
L 563.386102 261.285933 
L 564.62479 260.792787 
L 565.037686 260.509801 
L 565.450582 260.362211 
L 565.863477 260.037203 
L 566.276373 259.952675 
L 566.689269 259.633566 
L 567.102165 259.611146 
L 567.515061 259.189382 
L 567.927957 259.131257 
L 568.340853 258.812274 
L 568.753748 258.13462 
L 569.166644 257.887327 
L 569.57954 257.430409 
L 569.992436 256.378889 
L 570.818228 255.911906 
L 571.231124 255.830377 
L 571.644019 255.271917 
L 572.056915 255.17833 
L 572.469811 254.234016 
L 573.708499 253.876903 
L 574.121395 253.696796 
L 574.53429 253.270464 
L 574.947186 252.225868 
L 575.360082 252.1656 
L 575.772978 251.939116 
L 576.185874 250.744677 
L 576.59877 250.490225 
L 577.011666 250.41305 
L 577.424561 249.721254 
L 577.837457 249.328445 
L 578.250353 249.174149 
L 579.489041 249.067351 
L 580.314833 248.634923 
L 580.727728 248.446893 
L 581.140624 248.384461 
L 581.966416 247.575423 
L 582.379312 247.332055 
L 582.792208 246.935597 
L 583.617999 246.803117 
L 584.030895 246.178004 
L 584.856687 245.838882 
L 585.269583 245.48678 
L 585.682479 245.330308 
L 586.095375 244.757823 
L 587.746958 243.915098 
L 588.159854 242.489785 
L 588.57275 241.668566 
L 588.985646 241.589767 
L 589.398541 240.751777 
L 589.811437 240.73882 
L 590.224333 240.454007 
L 591.463021 240.111488 
L 591.875917 239.739679 
L 592.288812 239.709069 
L 593.114604 239.371664 
L 593.5275 238.626503 
L 593.940396 238.290512 
L 594.353292 238.105736 
L 594.766188 237.422909 
L 595.591979 237.053183 
L 596.417771 236.885636 
L 597.656459 235.559054 
L 598.895146 234.88669 
L 599.308042 234.474214 
L 599.720938 234.46769 
L 600.54673 234.177069 
L 600.959625 233.773939 
L 601.785417 233.63471 
L 602.611209 233.549887 
L 603.437001 233.419687 
L 603.849896 233.404238 
L 604.262792 232.890311 
L 605.088584 232.75999 
L 605.50148 231.393115 
L 605.914376 230.410553 
L 607.565959 229.97061 
L 607.978855 229.251328 
L 608.391751 229.000421 
L 608.804647 228.53836 
L 609.217543 228.331558 
L 609.630439 226.994249 
L 610.45623 225.452584 
L 611.694918 224.332098 
L 612.107814 223.571795 
L 612.52071 223.368273 
L 612.933605 222.528165 
L 613.759397 222.179364 
L 614.172293 222.084083 
L 614.585189 221.087557 
L 614.998085 220.531872 
L 615.410981 220.300292 
L 615.823876 218.83176 
L 616.649668 218.439486 
L 617.062564 218.001909 
L 617.47546 217.982562 
L 617.888356 217.646196 
L 618.301252 217.011332 
L 618.714147 215.725605 
L 619.127043 215.623638 
L 619.952835 214.809729 
L 620.365731 214.055091 
L 620.778627 214.014181 
L 621.604418 213.120893 
L 622.017314 212.906424 
L 622.843106 211.926673 
L 623.256002 210.366493 
L 624.907585 208.309375 
L 625.320481 206.587468 
L 626.146273 206.020974 
L 626.559169 205.478732 
L 627.38496 203.754726 
L 627.797856 203.74439 
L 628.210752 203.402489 
L 629.036544 203.302994 
L 629.44944 203.20549 
L 629.862336 202.886778 
L 630.688127 202.592472 
L 631.513919 202.088403 
L 631.926815 202.022274 
L 632.339711 201.738056 
L 632.752607 200.76878 
L 633.165502 200.345145 
L 633.578398 200.318396 
L 633.991294 200.118204 
L 634.817086 199.183572 
L 635.229982 199.108082 
L 636.055773 198.533255 
L 636.468669 198.442548 
L 637.294461 197.898703 
L 638.120253 197.633516 
L 638.533149 197.196886 
L 638.946045 196.953005 
L 639.35894 196.142723 
L 639.771836 196.020288 
L 640.184732 196.015848 
L 641.010524 195.344386 
L 641.42342 194.572506 
L 642.249211 194.12381 
L 642.662107 193.059368 
L 643.075003 192.924795 
L 643.487899 192.013104 
L 643.900795 191.886167 
L 644.313691 191.63494 
L 644.726587 190.967293 
L 645.552378 190.709391 
L 645.965274 189.994585 
L 646.37817 189.903925 
L 646.791066 189.524052 
L 647.203962 188.899697 
L 647.616858 188.787108 
L 648.029753 187.993175 
L 648.855545 187.094676 
L 649.268441 186.923705 
L 649.681337 186.341275 
L 650.094233 186.286725 
L 650.507129 185.351544 
L 650.920024 184.817265 
L 651.33292 184.754057 
L 652.571608 183.106081 
L 653.3974 182.950411 
L 654.636087 182.41788 
L 655.048983 180.828329 
L 657.113462 179.295834 
L 657.526358 179.232686 
L 657.939254 178.974043 
L 659.177942 177.598498 
L 659.590837 177.564413 
L 660.003733 177.264939 
L 660.416629 177.113688 
L 660.829525 176.686835 
L 661.242421 176.032662 
L 662.068213 175.545225 
L 662.481108 174.431731 
L 662.894004 174.069317 
L 663.719796 172.876522 
L 664.132692 171.518005 
L 664.958484 170.35165 
L 665.371379 170.333104 
L 665.784275 169.898357 
L 666.197171 169.106619 
L 666.610067 169.003343 
L 667.022963 167.991644 
L 667.435859 167.631853 
L 667.848755 166.05415 
L 668.261651 165.783336 
L 668.674546 165.121547 
L 669.087442 164.990014 
L 669.500338 164.987409 
L 670.32613 163.790429 
L 671.151922 163.334131 
L 671.564817 162.976711 
L 671.977713 161.847594 
L 672.390609 159.680484 
L 673.629297 159.026087 
L 674.042193 158.24993 
L 674.867984 157.584946 
L 675.28088 157.583773 
L 675.693776 157.385293 
L 676.106672 155.334741 
L 676.519568 155.111907 
L 677.758255 154.909399 
L 678.171151 154.85327 
L 678.584047 153.906231 
L 679.409839 153.427268 
L 679.822735 152.75266 
L 680.23563 152.752466 
L 680.648526 152.47798 
L 681.061422 152.473352 
L 681.474318 151.908374 
L 681.887214 151.690577 
L 682.30011 150.178834 
L 683.125901 149.790168 
L 683.951693 148.365911 
L 684.364589 148.358245 
L 684.777485 147.773253 
L 685.603277 147.234327 
L 686.016172 146.824867 
L 686.841964 146.301693 
L 687.667756 145.667823 
L 688.080652 143.828854 
L 688.493548 143.821012 
L 688.906443 143.674683 
L 689.732235 141.893326 
L 690.558027 141.761506 
L 690.970923 141.375897 
L 691.796714 141.182943 
L 692.622506 137.202212 
L 693.035402 136.28098 
L 693.448298 135.941925 
L 693.861194 134.27367 
L 694.27409 133.982092 
L 694.686985 133.436008 
L 695.925673 131.242557 
L 696.338569 131.069804 
L 697.577256 129.57306 
L 697.990152 126.449287 
L 698.403048 126.308103 
L 698.815944 125.976363 
L 699.22884 125.962711 
L 699.641736 123.623883 
L 700.054632 122.598629 
L 700.467528 122.27792 
L 701.293319 120.586044 
L 701.706215 120.224702 
L 702.532007 119.089389 
L 702.944903 118.900256 
L 703.357799 117.80373 
L 703.770694 117.471073 
L 704.18359 116.307738 
L 704.596486 114.381874 
L 705.009382 114.276129 
L 705.422278 113.845306 
L 705.835174 113.093211 
L 706.24807 113.036402 
L 706.660965 112.369628 
L 707.073861 112.018288 
L 707.486757 110.416804 
L 708.312549 109.864352 
L 708.725445 109.68562 
L 709.138341 108.881517 
L 709.551236 108.719001 
L 710.377028 107.836132 
L 711.20282 105.999732 
L 711.615716 105.515996 
L 712.028612 105.446609 
L 712.441507 105.165913 
L 714.093091 102.235263 
L 714.505987 101.722904 
L 714.918883 101.554783 
L 715.744674 100.874436 
L 716.15757 99.467054 
L 716.570466 99.365529 
L 717.396258 97.917993 
L 717.809154 97.377654 
L 718.222049 96.023155 
L 718.634945 95.781585 
L 719.873633 93.817533 
L 720.286529 93.404623 
L 720.699425 92.277808 
L 721.11232 92.070485 
L 721.525216 90.967738 
L 721.938112 88.306436 
L 722.351008 87.590254 
L 722.763904 84.961521 
L 723.1768 84.124878 
L 723.589696 83.548822 
L 724.415487 83.18295 
L 724.828383 81.729248 
L 725.241279 80.733387 
L 725.654175 80.67656 
L 726.067071 79.058292 
L 726.479967 78.460886 
L 726.892862 77.633385 
L 727.305758 77.547108 
L 727.718654 76.502588 
L 728.13155 76.211686 
L 728.957342 74.629102 
L 729.783134 74.062401 
L 730.196029 72.885061 
L 730.608925 72.185294 
L 731.021821 71.948463 
L 731.434717 71.124154 
L 731.847613 71.07702 
L 732.260509 69.426389 
L 733.499196 67.871711 
L 733.912092 66.208262 
L 734.324988 66.171766 
L 734.737884 65.280213 
L 735.15078 63.058879 
L 735.563676 62.929395 
L 735.976571 62.551769 
L 736.389467 61.832077 
L 736.802363 61.583084 
L 737.215259 61.498592 
L 737.628155 61.054143 
L 738.041051 60.214816 
L 738.453947 58.718371 
L 738.866842 58.304906 
L 739.279738 57.602433 
L 740.10553 57.081067 
L 740.514022 55.866807 
L 740.514022 55.866807 
" style="fill:none;stroke:#b8860b;stroke-linecap:square;stroke-opacity:0.75;stroke-width:2;"/>
   </g>
   <g id="line2d_15">
    <path clip-path="url(#pf5bded36db)" d="M 446.943707 302.645455 
L 478.736617 302.548687 
L 479.730478 302.384482 
L 485.69364 302.25585 
L 487.681361 302.151998 
L 489.669082 302.01577 
L 493.644524 301.265635 
L 497.619966 300.745136 
L 499.607687 300.626935 
L 502.589268 300.202853 
L 506.56471 300.09778 
L 508.552431 299.632033 
L 509.546291 299.582637 
L 510.540152 299.235449 
L 511.534012 298.761581 
L 513.521733 298.571805 
L 514.515594 298.114748 
L 515.509454 298.0342 
L 516.503315 297.817918 
L 525.448059 296.963221 
L 526.441919 296.778083 
L 527.43578 296.740472 
L 528.42964 296.437804 
L 531.411221 296.099913 
L 532.405082 295.794859 
L 534.392803 294.714008 
L 535.386663 294.25414 
L 536.380524 294.038785 
L 537.374384 293.705205 
L 539.362105 293.285401 
L 540.355966 292.408245 
L 542.343686 291.230888 
L 546.319128 290.537032 
L 547.312989 290.040309 
L 550.29457 289.510747 
L 551.288431 289.490631 
L 552.282291 288.531109 
L 553.276151 288.206874 
L 554.270012 288.078232 
L 556.257733 287.354254 
L 557.251593 286.359881 
L 558.245454 284.331264 
L 559.239314 283.854947 
L 560.233175 282.661927 
L 561.227035 282.137476 
L 562.220896 280.498548 
L 564.208616 279.832095 
L 569.177919 279.514754 
L 570.171779 278.618139 
L 571.16564 278.079538 
L 572.1595 278.020652 
L 573.153361 277.766203 
L 574.147221 277.709548 
L 575.141082 276.890142 
L 576.134942 275.692888 
L 578.122663 275.321303 
L 579.116523 274.718945 
L 581.104244 274.566481 
L 582.098105 273.531605 
L 584.085826 273.386758 
L 585.079686 272.831827 
L 586.073547 272.513612 
L 587.067407 271.423099 
L 588.061267 271.178873 
L 589.055128 269.605251 
L 591.042849 269.446713 
L 592.036709 266.992099 
L 593.03057 266.890933 
L 594.02443 266.658111 
L 595.018291 265.063238 
L 597.006012 264.699353 
L 597.999872 264.206444 
L 598.993733 263.510753 
L 599.987593 261.602077 
L 600.981453 261.581756 
L 601.975314 260.792787 
L 603.963035 260.037203 
L 604.956895 259.952675 
L 605.950756 259.611146 
L 606.944616 257.430409 
L 607.938477 256.087231 
L 608.932337 253.876903 
L 609.926198 253.696796 
L 610.920058 252.225868 
L 611.913918 251.939116 
L 613.901639 249.067351 
L 614.8955 248.634923 
L 615.88936 246.178004 
L 616.883221 245.838882 
L 617.877081 244.093649 
L 618.870942 240.751777 
L 619.864802 239.739679 
L 620.858663 238.105736 
L 622.846384 235.982005 
L 623.840244 235.559054 
L 624.834104 234.88669 
L 625.827965 233.647827 
L 628.809546 233.419687 
L 629.803407 232.843756 
L 631.791128 230.078056 
L 632.784988 229.97061 
L 633.778849 229.251328 
L 634.772709 226.148934 
L 636.76043 222.528165 
L 637.75429 222.291432 
L 639.742011 222.084083 
L 640.735872 221.087557 
L 641.729732 220.300292 
L 642.723593 218.83176 
L 643.717453 218.001909 
L 644.711314 217.982562 
L 645.705174 217.011332 
L 646.699034 215.725605 
L 647.692895 215.184274 
L 648.686755 214.055091 
L 649.680616 211.926673 
L 650.674476 210.366493 
L 651.668337 204.576342 
L 652.662197 203.74439 
L 653.656058 203.302994 
L 654.649918 203.20549 
L 655.643779 202.886778 
L 656.637639 202.315534 
L 657.6315 202.022274 
L 658.62536 199.576023 
L 659.61922 198.533255 
L 660.613081 198.442548 
L 661.606941 194.572506 
L 662.600802 194.12381 
L 663.594662 191.886167 
L 665.582383 189.994585 
L 666.576244 189.903925 
L 667.570104 188.787108 
L 668.563965 187.993175 
L 670.551685 187.094676 
L 671.545546 186.341275 
L 672.539406 185.351544 
L 673.533267 179.993405 
L 675.520988 179.232686 
L 676.514848 178.974043 
L 677.508709 178.081292 
L 678.502569 177.564413 
L 679.49643 177.264939 
L 682.478011 175.545225 
L 683.471871 174.431731 
L 684.465732 174.069317 
L 685.459592 173.456014 
L 686.453453 169.898357 
L 687.447313 169.003343 
L 688.441174 166.05415 
L 689.435034 165.783336 
L 690.428895 164.310602 
L 691.422755 159.680484 
L 692.416616 157.856 
L 693.410476 157.583773 
L 694.404336 154.909399 
L 695.398197 154.85327 
L 696.392057 151.908374 
L 697.385918 148.365911 
L 698.379778 148.358245 
L 699.373639 146.824867 
L 700.367499 146.301693 
L 701.36136 143.828854 
L 702.35522 141.761506 
L 703.349081 141.182943 
L 704.342941 136.28098 
L 705.336801 125.962711 
L 706.330662 123.623883 
L 707.324522 122.27792 
L 708.318383 121.515151 
L 709.312243 120.586044 
L 710.306104 114.276129 
L 711.299964 113.845306 
L 713.287685 112.369628 
L 714.281546 112.018288 
L 715.275406 110.416804 
L 716.269267 109.864352 
L 717.263127 109.68562 
L 718.256987 108.194763 
L 719.250848 103.106527 
L 720.244708 101.722904 
L 721.238569 99.365529 
L 722.232429 97.917993 
L 723.22629 97.377654 
L 724.22015 93.817533 
L 725.214011 80.67656 
L 727.201732 76.502588 
L 728.195592 76.211686 
L 729.189452 75.307656 
L 731.177173 72.885061 
L 733.164894 71.07702 
L 734.158755 68.917164 
L 735.152615 66.208262 
L 736.146476 66.171766 
L 737.140336 62.551769 
L 738.134197 61.498592 
L 739.128057 58.304906 
L 740.111293 55.866807 
L 740.111293 55.866807 
" style="fill:none;stroke:#8b0000;stroke-linecap:square;stroke-opacity:0.75;stroke-width:2;"/>
   </g>
   <g id="line2d_16">
    <path clip-path="url(#pf5bded36db)" d="M 448.441917 302.645455 
L 451.56268 302.645455 
L 454.717453 302.645455 
L 457.872227 302.645454 
L 461.027001 302.645453 
L 464.181775 302.645453 
L 467.336549 302.645448 
L 470.491322 302.64536 
L 473.646096 302.64455 
L 476.80087 302.64164 
L 479.955644 302.6376 
L 483.110417 302.616263 
L 486.265191 302.614307 
L 489.419965 302.597698 
L 492.574739 302.55193 
L 495.729513 302.384482 
L 498.884286 302.376443 
L 502.03906 302.335665 
L 505.193834 302.284482 
L 508.348608 302.25585 
L 511.503382 302.25585 
L 514.658155 302.163312 
L 517.812929 301.812943 
L 520.967703 301.689541 
L 524.122477 301.265635 
L 527.27725 300.844976 
L 530.432024 300.745136 
L 533.586798 300.737919 
L 536.741572 300.626935 
L 539.896346 300.158102 
L 543.051119 299.235449 
L 546.205893 297.238439 
L 549.360667 296.778083 
L 552.515441 295.794859 
L 555.670215 295.2122 
L 558.824988 293.705205 
L 561.979762 293.507604 
L 565.134536 292.408245 
L 568.28931 291.785927 
L 571.444083 290.537032 
L 574.598857 290.040309 
L 577.753631 289.510747 
L 580.908405 288.078232 
L 584.063179 287.661922 
L 587.217952 284.331264 
L 590.372726 279.779557 
L 593.5275 279.774144 
L 596.682274 279.517485 
L 599.837048 278.618139 
L 602.991821 278.079538 
L 606.146595 277.766203 
L 609.301369 277.709548 
L 612.456143 275.55349 
L 615.610917 272.831827 
L 618.76569 266.992099 
L 621.920464 265.063238 
L 625.075238 263.510753 
L 628.230012 261.602077 
L 631.384785 260.362211 
L 634.539559 256.087231 
L 637.694333 252.225868 
L 640.849107 251.939116 
L 644.003881 250.490225 
L 647.158654 249.067351 
L 650.313428 245.838882 
L 653.468202 237.053183 
L 656.622976 233.647827 
L 659.77775 231.393115 
L 662.932523 229.97061 
L 666.087297 226.148934 
L 669.242071 218.001909 
L 672.396845 215.184274 
L 675.551618 214.055091 
L 678.706392 210.366493 
L 681.861166 203.302994 
L 685.01594 187.094676 
L 688.170714 179.993405 
L 691.325487 177.564413 
L 694.480261 177.264939 
L 697.635035 175.545225 
L 700.789809 173.456014 
L 703.944583 166.05415 
L 707.099356 157.856 
L 710.25413 114.276129 
L 713.408904 112.018288 
L 716.563678 109.68562 
L 719.718451 80.67656 
L 722.873225 75.307656 
L 726.027999 71.948463 
L 729.182773 71.07702 
L 732.337547 68.917164 
L 735.49232 61.498592 
L 738.613083 58.304906 
" style="fill:none;stroke:#000080;stroke-linecap:square;stroke-opacity:0.75;stroke-width:2;"/>
   </g>
   <g id="line2d_17">
    <path clip-path="url(#pf5bded36db)" d="M 446.254773 290.290909 
L 740.800227 290.290909 
" style="fill:none;stroke:#ff0000;stroke-dasharray:3.7,1.6;stroke-dashoffset:0;"/>
   </g>
   <g id="patch_6">
    <path d="M 431.5275 315 
L 431.5275 43.2 
" style="fill:none;stroke:#000000;stroke-linecap:square;stroke-linejoin:miter;stroke-width:0.8;"/>
   </g>
   <g id="patch_7">
    <path d="M 431.5275 315 
L 755.5275 315 
" style="fill:none;stroke:#000000;stroke-linecap:square;stroke-linejoin:miter;stroke-width:0.8;"/>
   </g>
   <g id="text_14">
    <!-- Trapnell -->
    <defs>
     <path d="M -0.296875 72.90625 
L 61.375 72.90625 
L 61.375 64.59375 
L 35.5 64.59375 
L 35.5 0 
L 25.59375 0 
L 25.59375 64.59375 
L -0.296875 64.59375 
z
" id="DejaVuSans-84"/>
     <path d="M 41.109375 46.296875 
Q 39.59375 47.171875 37.8125 47.578125 
Q 36.03125 48 33.890625 48 
Q 26.265625 48 22.1875 43.046875 
Q 18.109375 38.09375 18.109375 28.8125 
L 18.109375 0 
L 9.078125 0 
L 9.078125 54.6875 
L 18.109375 54.6875 
L 18.109375 46.1875 
Q 20.953125 51.171875 25.484375 53.578125 
Q 30.03125 56 36.53125 56 
Q 37.453125 56 38.578125 55.875 
Q 39.703125 55.765625 41.0625 55.515625 
z
" id="DejaVuSans-114"/>
    </defs>
    <g transform="translate(460.982045 76.83017)scale(0.28 -0.28)">
     <use xlink:href="#DejaVuSans-84"/>
     <use x="60.865234" xlink:href="#DejaVuSans-114"/>
     <use x="101.978516" xlink:href="#DejaVuSans-97"/>
     <use x="163.257812" xlink:href="#DejaVuSans-112"/>
     <use x="226.734375" xlink:href="#DejaVuSans-110"/>
     <use x="290.113281" xlink:href="#DejaVuSans-101"/>
     <use x="351.636719" xlink:href="#DejaVuSans-108"/>
     <use x="379.419922" xlink:href="#DejaVuSans-108"/>
    </g>
   </g>
  </g>
  <g id="axes_3">
   <g id="patch_8">
    <path d="M 771.7275 315 
L 1095.7275 315 
L 1095.7275 43.2 
L 771.7275 43.2 
z
" style="fill:none;"/>
   </g>
   <g id="matplotlib.axis_5">
    <g id="xtick_7">
     <g id="line2d_18">
      <g>
       <use style="stroke:#000000;stroke-width:0.8;" x="786.454773" xlink:href="#m431da3d4a8" y="315"/>
      </g>
     </g>
     <g id="text_15">
      <!-- 0 -->
      <g transform="translate(777.547273 344.775625)scale(0.28 -0.28)">
       <use xlink:href="#DejaVuSans-48"/>
      </g>
     </g>
    </g>
    <g id="xtick_8">
     <g id="line2d_19">
      <g>
       <use style="stroke:#000000;stroke-width:0.8;" x="933.7275" xlink:href="#m431da3d4a8" y="315"/>
      </g>
     </g>
     <g id="text_16">
      <!-- 0.5 -->
      <g transform="translate(911.463125 344.775625)scale(0.28 -0.28)">
       <use xlink:href="#DejaVuSans-48"/>
       <use x="63.623047" xlink:href="#DejaVuSans-46"/>
       <use x="95.410156" xlink:href="#DejaVuSans-53"/>
      </g>
     </g>
    </g>
    <g id="xtick_9">
     <g id="line2d_20">
      <g>
       <use style="stroke:#000000;stroke-width:0.8;" x="1081.000227" xlink:href="#m431da3d4a8" y="315"/>
      </g>
     </g>
     <g id="text_17">
      <!-- 1 -->
      <g transform="translate(1072.092727 344.775625)scale(0.28 -0.28)">
       <use xlink:href="#DejaVuSans-49"/>
      </g>
     </g>
    </g>
    <g id="text_18">
     <!-- Quantiles -->
     <g transform="translate(867.207812 375.874375)scale(0.28 -0.28)">
      <use xlink:href="#DejaVuSans-81"/>
      <use x="78.710938" xlink:href="#DejaVuSans-117"/>
      <use x="142.089844" xlink:href="#DejaVuSans-97"/>
      <use x="203.369141" xlink:href="#DejaVuSans-110"/>
      <use x="266.748047" xlink:href="#DejaVuSans-116"/>
      <use x="305.957031" xlink:href="#DejaVuSans-105"/>
      <use x="333.740234" xlink:href="#DejaVuSans-108"/>
      <use x="361.523438" xlink:href="#DejaVuSans-101"/>
      <use x="423.046875" xlink:href="#DejaVuSans-115"/>
     </g>
    </g>
   </g>
   <g id="matplotlib.axis_6">
    <g id="ytick_7"/>
    <g id="ytick_8"/>
    <g id="ytick_9"/>
   </g>
   <g id="line2d_21">
    <path clip-path="url(#pd80d2d70d0)" d="M 786.99297 302.645455 
L 880.931141 302.537695 
L 891.800979 302.356239 
L 895.683065 302.296543 
L 905.000069 302.112126 
L 908.105737 301.999711 
L 908.882154 301.779442 
L 915.869908 301.531947 
L 917.422742 301.388645 
L 922.081244 301.17452 
L 926.739747 300.709769 
L 927.516164 300.576513 
L 929.845415 300.498255 
L 931.398249 300.288436 
L 936.056751 299.8722 
L 936.833168 299.827886 
L 937.609585 299.565963 
L 942.268088 299.235971 
L 943.820922 298.78042 
L 944.597339 298.760003 
L 945.373756 298.298498 
L 946.92659 297.996311 
L 947.703007 297.253816 
L 948.479424 297.183546 
L 949.255841 296.895896 
L 953.137926 296.49877 
L 953.914343 296.076284 
L 956.243594 295.882717 
L 957.796429 295.573768 
L 958.572846 295.181597 
L 959.349263 295.171299 
L 960.12568 294.464164 
L 960.902097 294.433265 
L 961.678514 293.619232 
L 962.454931 293.467508 
L 964.007765 292.869745 
L 964.784182 292.786572 
L 965.560599 291.847045 
L 967.113433 291.199509 
L 970.219101 290.528352 
L 970.995518 290.449024 
L 971.771935 290.072223 
L 974.101187 289.903564 
L 974.877604 289.601198 
L 975.654021 289.018344 
L 976.430438 288.581941 
L 977.206855 287.834678 
L 977.983272 286.806594 
L 978.759689 286.803477 
L 979.536106 286.093324 
L 980.312523 285.543076 
L 981.08894 284.816522 
L 981.865357 284.727278 
L 983.418191 283.80011 
L 984.971025 283.606502 
L 986.523859 282.373435 
L 987.300277 281.52814 
L 988.076694 280.890404 
L 988.853111 277.747957 
L 989.629528 277.443245 
L 991.182362 277.131704 
L 991.958779 276.054363 
L 992.735196 275.719396 
L 993.511613 275.571358 
L 994.28803 275.053068 
L 995.064447 274.936189 
L 995.840864 273.970398 
L 996.617281 273.394685 
L 997.393698 272.207601 
L 998.170115 267.984458 
L 998.946532 266.689402 
L 999.722949 266.613721 
L 1001.275783 265.916582 
L 1002.0522 265.202464 
L 1002.828618 263.502701 
L 1003.605035 263.074111 
L 1004.381452 261.444862 
L 1005.157869 261.353653 
L 1006.710703 260.16655 
L 1009.039954 258.812582 
L 1009.816371 258.504616 
L 1010.592788 256.728996 
L 1011.369205 254.564365 
L 1012.145622 254.106263 
L 1012.922039 250.295613 
L 1013.698456 249.815019 
L 1014.474873 248.98409 
L 1015.25129 248.634995 
L 1016.027707 248.055245 
L 1016.804124 245.687499 
L 1017.580542 242.823113 
L 1018.356959 240.786791 
L 1019.133376 240.39968 
L 1019.909793 238.311809 
L 1020.68621 237.766598 
L 1021.462627 237.406679 
L 1022.239044 236.706482 
L 1023.015461 236.695422 
L 1023.791878 233.833246 
L 1024.568295 233.291378 
L 1025.344712 231.080053 
L 1026.121129 230.890368 
L 1026.897546 230.841355 
L 1027.673963 228.156423 
L 1028.45038 228.00057 
L 1029.226797 227.726 
L 1030.003214 227.654219 
L 1030.779631 226.383038 
L 1031.556048 223.668452 
L 1033.108883 222.606165 
L 1033.8853 221.016317 
L 1034.661717 220.741582 
L 1035.438134 217.418289 
L 1036.214551 206.701606 
L 1036.990968 206.090842 
L 1037.767385 204.693666 
L 1038.543802 203.873808 
L 1039.320219 202.423789 
L 1040.096636 198.346604 
L 1040.873053 195.942366 
L 1041.64947 194.20397 
L 1042.425887 194.171616 
L 1043.202304 193.753326 
L 1043.978721 192.398787 
L 1044.755138 192.323889 
L 1045.531555 191.881218 
L 1046.307972 188.17986 
L 1047.084389 186.327591 
L 1047.860806 185.990417 
L 1048.637224 185.819101 
L 1049.413641 184.90273 
L 1050.190058 184.882691 
L 1050.966475 177.959885 
L 1051.742892 177.737953 
L 1052.519309 168.639804 
L 1053.295726 166.006972 
L 1054.072143 165.588282 
L 1054.84856 161.969132 
L 1055.624977 160.336044 
L 1056.401394 159.416096 
L 1057.177811 147.145492 
L 1057.954228 138.037371 
L 1059.507062 137.601611 
L 1060.283479 135.785805 
L 1061.059896 131.958557 
L 1061.836313 127.127681 
L 1062.61273 126.34432 
L 1063.389148 125.915375 
L 1064.941982 122.351608 
L 1065.718399 119.558649 
L 1066.494816 117.670426 
L 1067.271233 117.309743 
L 1068.824067 114.590651 
L 1069.600484 109.925847 
L 1070.376901 107.712845 
L 1071.153318 106.20254 
L 1071.929735 105.664253 
L 1073.482569 103.178955 
L 1074.258986 95.132635 
L 1075.81182 91.553348 
L 1076.588237 91.386038 
L 1077.364654 90.157135 
L 1078.917489 88.644207 
L 1079.693906 75.446283 
L 1080.46203 74.380486 
L 1080.46203 74.380486 
" style="fill:none;stroke:#b8860b;stroke-linecap:square;stroke-opacity:0.75;stroke-width:2;"/>
   </g>
   <g id="line2d_22">
    <path clip-path="url(#pd80d2d70d0)" d="M 787.026104 302.645455 
L 885.923053 302.537695 
L 897.462057 302.356239 
L 901.58313 302.288669 
L 909.825276 302.112126 
L 913.122135 301.999711 
L 913.946349 301.779442 
L 920.540066 301.531947 
L 922.188495 301.388645 
L 927.133783 301.17452 
L 932.079071 300.709769 
L 932.903285 300.576513 
L 935.375929 300.498255 
L 937.024358 300.288436 
L 941.969646 299.827886 
L 942.793861 299.565963 
L 947.739148 299.235971 
L 949.387578 298.78042 
L 950.211792 298.760003 
L 951.036007 298.298498 
L 952.684436 297.996311 
L 953.508651 297.253816 
L 954.332865 297.183546 
L 955.15708 296.895896 
L 958.453938 296.49877 
L 959.278153 296.076284 
L 961.750797 295.882717 
L 963.399226 295.573768 
L 964.223441 295.181597 
L 965.047655 295.171299 
L 965.87187 294.464164 
L 966.696084 294.433265 
L 967.520299 293.619232 
L 968.344514 293.467508 
L 969.992943 292.869745 
L 970.817158 292.786572 
L 971.641372 291.847045 
L 973.289801 291.199509 
L 976.58666 290.449024 
L 977.410874 290.072223 
L 979.883518 289.903564 
L 980.707733 289.601198 
L 981.531947 289.018344 
L 982.356162 288.581941 
L 983.180377 287.834678 
L 984.004591 286.806594 
L 984.828806 286.803477 
L 985.653021 286.093324 
L 986.477235 285.543076 
L 987.30145 284.816522 
L 988.125664 284.727278 
L 989.774094 283.80011 
L 991.422523 283.606502 
L 992.246737 282.373435 
L 993.070952 281.52814 
L 993.895167 280.890404 
L 994.719381 277.747957 
L 995.543596 277.323728 
L 996.36781 277.131704 
L 997.192025 276.054363 
L 998.840454 275.053068 
L 999.664669 274.936189 
L 1000.488884 273.970398 
L 1001.313098 272.207601 
L 1002.137313 267.984458 
L 1002.961527 266.689402 
L 1003.785742 266.224185 
L 1004.609957 265.916582 
L 1005.434171 265.202464 
L 1006.258386 263.502701 
L 1007.0826 263.074111 
L 1007.906815 261.444862 
L 1008.73103 261.353653 
L 1010.379459 260.16655 
L 1012.852103 258.812582 
L 1013.676317 258.504616 
L 1014.500532 256.728996 
L 1015.324747 254.564365 
L 1016.148961 254.106263 
L 1016.973176 250.295613 
L 1017.79739 249.815019 
L 1018.621605 248.98409 
L 1019.44582 248.634995 
L 1020.270034 248.055245 
L 1021.094249 245.687499 
L 1021.918463 242.823113 
L 1022.742678 240.786791 
L 1023.566893 240.39968 
L 1024.391107 238.311809 
L 1025.215322 237.766598 
L 1026.039536 237.406679 
L 1026.863751 236.706482 
L 1027.687966 236.695422 
L 1028.51218 233.833246 
L 1029.336395 233.291378 
L 1030.16061 230.890368 
L 1030.984824 230.841355 
L 1031.809039 228.156423 
L 1032.633253 228.00057 
L 1033.457468 227.726 
L 1034.281683 227.654219 
L 1035.105897 223.668452 
L 1036.754326 222.606165 
L 1037.578541 221.016317 
L 1038.402756 220.741582 
L 1039.22697 217.418289 
L 1040.051185 206.701606 
L 1040.875399 203.873808 
L 1041.699614 198.346604 
L 1042.523829 195.942366 
L 1043.348043 194.20397 
L 1044.172258 194.171616 
L 1044.996473 193.753326 
L 1045.820687 192.398787 
L 1046.644902 192.323889 
L 1047.469116 191.881218 
L 1048.293331 188.17986 
L 1049.117546 186.327591 
L 1049.94176 185.990417 
L 1050.765975 185.819101 
L 1051.590189 184.90273 
L 1052.414404 184.882691 
L 1053.238619 177.959885 
L 1054.062833 177.737953 
L 1054.887048 161.969132 
L 1055.711262 160.336044 
L 1056.535477 159.416096 
L 1057.359692 147.145492 
L 1058.183906 138.037371 
L 1059.008121 137.810034 
L 1059.832336 135.785805 
L 1060.65655 131.958557 
L 1061.480765 127.127681 
L 1062.304979 126.34432 
L 1063.129194 125.915375 
L 1064.777623 122.351608 
L 1065.601838 119.558649 
L 1066.426052 117.670426 
L 1067.250267 117.309743 
L 1068.898696 114.590651 
L 1069.722911 109.925847 
L 1070.547125 107.712845 
L 1071.37134 106.20254 
L 1072.195555 104.426021 
L 1073.019769 103.178955 
L 1073.843984 95.132635 
L 1075.492413 91.553348 
L 1076.316628 91.386038 
L 1077.140842 90.157135 
L 1078.789272 88.644207 
L 1079.613486 75.446283 
L 1080.428896 74.380486 
L 1080.428896 74.380486 
" style="fill:none;stroke:#8b0000;stroke-linecap:square;stroke-opacity:0.75;stroke-width:2;"/>
   </g>
   <g id="line2d_23">
    <path clip-path="url(#pd80d2d70d0)" d="M 788.411354 302.645455 
L 791.20323 302.645455 
L 794.025493 302.645455 
L 796.847755 302.645455 
L 799.670018 302.645455 
L 802.492281 302.645455 
L 805.314544 302.645455 
L 808.136806 302.645455 
L 810.959069 302.645455 
L 813.781332 302.645455 
L 816.603595 302.645455 
L 819.425858 302.645455 
L 822.24812 302.645455 
L 825.070383 302.645455 
L 827.892646 302.645455 
L 830.714909 302.645455 
L 833.537171 302.645455 
L 836.359434 302.645454 
L 839.181697 302.645454 
L 842.00396 302.645453 
L 844.826223 302.645452 
L 847.648485 302.645451 
L 850.470748 302.645451 
L 853.293011 302.64545 
L 856.115274 302.645447 
L 858.937536 302.645435 
L 861.759799 302.645433 
L 864.582062 302.645427 
L 867.404325 302.64542 
L 870.226588 302.645416 
L 873.04885 302.645385 
L 875.871113 302.645353 
L 878.693376 302.645334 
L 881.515639 302.645322 
L 884.337901 302.644971 
L 887.160164 302.644646 
L 889.982427 302.64457 
L 892.80469 302.643124 
L 895.626953 302.642908 
L 898.449215 302.641408 
L 901.271478 302.641293 
L 904.093741 302.641215 
L 906.916004 302.631742 
L 909.738266 302.631569 
L 912.560529 302.619761 
L 915.382792 302.617874 
L 918.205055 302.61722 
L 921.027318 302.608134 
L 923.84958 302.603752 
L 926.671843 302.602514 
L 929.494106 302.595022 
L 932.316369 302.587503 
L 935.138631 302.586961 
L 937.960894 302.576634 
L 940.783157 302.554929 
L 943.60542 302.459646 
L 946.427682 302.456366 
L 949.249945 302.448039 
L 952.072208 302.420276 
L 954.894471 302.288669 
L 957.716734 301.999711 
L 960.538996 301.779442 
L 963.361259 301.733595 
L 966.183522 301.637779 
L 969.005785 301.081122 
L 971.828047 301.080695 
L 974.65031 300.361004 
L 977.472573 300.203717 
L 980.294836 299.8804 
L 983.117099 299.484928 
L 985.939361 298.760003 
L 988.761624 296.895896 
L 991.583887 296.030229 
L 994.40615 295.573768 
L 997.228412 295.181597 
L 1000.050675 293.619232 
L 1002.872938 292.869745 
L 1005.695201 290.449024 
L 1008.517464 290.042173 
L 1011.339726 288.581941 
L 1014.161989 281.52814 
L 1016.984252 277.323728 
L 1019.806515 276.054363 
L 1022.628777 265.916582 
L 1025.45104 261.444862 
L 1028.273303 261.353653 
L 1031.095566 260.7471 
L 1033.917829 260.16655 
L 1036.740091 259.304316 
L 1039.562354 258.812582 
L 1042.384617 256.728996 
L 1045.20688 249.815019 
L 1048.029142 237.406679 
L 1050.851405 236.695422 
L 1053.673668 233.833246 
L 1056.495931 203.873808 
L 1059.318194 194.171616 
L 1062.140456 192.323889 
L 1064.962719 138.037371 
L 1067.784982 107.712845 
L 1070.607245 93.363831 
L 1073.429507 89.414794 
L 1076.25177 88.644207 
L 1079.043646 74.380486 
" style="fill:none;stroke:#000080;stroke-linecap:square;stroke-opacity:0.75;stroke-width:2;"/>
   </g>
   <g id="line2d_24">
    <path clip-path="url(#pd80d2d70d0)" d="M 786.454773 290.290909 
L 1081.000227 290.290909 
" style="fill:none;stroke:#ff0000;stroke-dasharray:3.7,1.6;stroke-dashoffset:0;"/>
   </g>
   <g id="patch_9">
    <path d="M 771.7275 315 
L 771.7275 43.2 
" style="fill:none;stroke:#000000;stroke-linecap:square;stroke-linejoin:miter;stroke-width:0.8;"/>
   </g>
   <g id="patch_10">
    <path d="M 771.7275 315 
L 1095.7275 315 
" style="fill:none;stroke:#000000;stroke-linecap:square;stroke-linejoin:miter;stroke-width:0.8;"/>
   </g>
   <g id="text_19">
    <!-- Song -->
    <defs>
     <path d="M 53.515625 70.515625 
L 53.515625 60.890625 
Q 47.90625 63.578125 42.921875 64.890625 
Q 37.9375 66.21875 33.296875 66.21875 
Q 25.25 66.21875 20.875 63.09375 
Q 16.5 59.96875 16.5 54.203125 
Q 16.5 49.359375 19.40625 46.890625 
Q 22.3125 44.4375 30.421875 42.921875 
L 36.375 41.703125 
Q 47.40625 39.59375 52.65625 34.296875 
Q 57.90625 29 57.90625 20.125 
Q 57.90625 9.515625 50.796875 4.046875 
Q 43.703125 -1.421875 29.984375 -1.421875 
Q 24.8125 -1.421875 18.96875 -0.25 
Q 13.140625 0.921875 6.890625 3.21875 
L 6.890625 13.375 
Q 12.890625 10.015625 18.65625 8.296875 
Q 24.421875 6.59375 29.984375 6.59375 
Q 38.421875 6.59375 43.015625 9.90625 
Q 47.609375 13.234375 47.609375 19.390625 
Q 47.609375 24.75 44.3125 27.78125 
Q 41.015625 30.8125 33.5 32.328125 
L 27.484375 33.5 
Q 16.453125 35.6875 11.515625 40.375 
Q 6.59375 45.0625 6.59375 53.421875 
Q 6.59375 63.09375 13.40625 68.65625 
Q 20.21875 74.21875 32.171875 74.21875 
Q 37.3125 74.21875 42.625 73.28125 
Q 47.953125 72.359375 53.515625 70.515625 
z
" id="DejaVuSans-83"/>
     <path d="M 30.609375 48.390625 
Q 23.390625 48.390625 19.1875 42.75 
Q 14.984375 37.109375 14.984375 27.296875 
Q 14.984375 17.484375 19.15625 11.84375 
Q 23.34375 6.203125 30.609375 6.203125 
Q 37.796875 6.203125 41.984375 11.859375 
Q 46.1875 17.53125 46.1875 27.296875 
Q 46.1875 37.015625 41.984375 42.703125 
Q 37.796875 48.390625 30.609375 48.390625 
z
M 30.609375 56 
Q 42.328125 56 49.015625 48.375 
Q 55.71875 40.765625 55.71875 27.296875 
Q 55.71875 13.875 49.015625 6.21875 
Q 42.328125 -1.421875 30.609375 -1.421875 
Q 18.84375 -1.421875 12.171875 6.21875 
Q 5.515625 13.875 5.515625 27.296875 
Q 5.515625 40.765625 12.171875 48.375 
Q 18.84375 56 30.609375 56 
z
" id="DejaVuSans-111"/>
     <path d="M 45.40625 27.984375 
Q 45.40625 37.75 41.375 43.109375 
Q 37.359375 48.484375 30.078125 48.484375 
Q 22.859375 48.484375 18.828125 43.109375 
Q 14.796875 37.75 14.796875 27.984375 
Q 14.796875 18.265625 18.828125 12.890625 
Q 22.859375 7.515625 30.078125 7.515625 
Q 37.359375 7.515625 41.375 12.890625 
Q 45.40625 18.265625 45.40625 27.984375 
z
M 54.390625 6.78125 
Q 54.390625 -7.171875 48.1875 -13.984375 
Q 42 -20.796875 29.203125 -20.796875 
Q 24.46875 -20.796875 20.265625 -20.09375 
Q 16.0625 -19.390625 12.109375 -17.921875 
L 12.109375 -9.1875 
Q 16.0625 -11.328125 19.921875 -12.34375 
Q 23.78125 -13.375 27.78125 -13.375 
Q 36.625 -13.375 41.015625 -8.765625 
Q 45.40625 -4.15625 45.40625 5.171875 
L 45.40625 9.625 
Q 42.625 4.78125 38.28125 2.390625 
Q 33.9375 0 27.875 0 
Q 17.828125 0 11.671875 7.65625 
Q 5.515625 15.328125 5.515625 27.984375 
Q 5.515625 40.671875 11.671875 48.328125 
Q 17.828125 56 27.875 56 
Q 33.9375 56 38.28125 53.609375 
Q 42.625 51.21875 45.40625 46.390625 
L 45.40625 54.6875 
L 54.390625 54.6875 
z
" id="DejaVuSans-103"/>
    </defs>
    <g transform="translate(801.182045 76.83017)scale(0.28 -0.28)">
     <use xlink:href="#DejaVuSans-83"/>
     <use x="63.476562" xlink:href="#DejaVuSans-111"/>
     <use x="124.658203" xlink:href="#DejaVuSans-110"/>
     <use x="188.037109" xlink:href="#DejaVuSans-103"/>
    </g>
   </g>
  </g>
  <g id="text_20">
   <!-- p-values of Kruskal-Wallis test -->
   <defs>
    <path id="DejaVuSans-32"/>
    <path d="M 37.109375 75.984375 
L 37.109375 68.5 
L 28.515625 68.5 
Q 23.6875 68.5 21.796875 66.546875 
Q 19.921875 64.59375 19.921875 59.515625 
L 19.921875 54.6875 
L 34.71875 54.6875 
L 34.71875 47.703125 
L 19.921875 47.703125 
L 19.921875 0 
L 10.890625 0 
L 10.890625 47.703125 
L 2.296875 47.703125 
L 2.296875 54.6875 
L 10.890625 54.6875 
L 10.890625 58.5 
Q 10.890625 67.625 15.140625 71.796875 
Q 19.390625 75.984375 28.609375 75.984375 
z
" id="DejaVuSans-102"/>
    <path d="M 9.8125 72.90625 
L 19.671875 72.90625 
L 19.671875 42.09375 
L 52.390625 72.90625 
L 65.09375 72.90625 
L 28.90625 38.921875 
L 67.671875 0 
L 54.6875 0 
L 19.671875 35.109375 
L 19.671875 0 
L 9.8125 0 
z
" id="DejaVuSans-75"/>
    <path d="M 9.078125 75.984375 
L 18.109375 75.984375 
L 18.109375 31.109375 
L 44.921875 54.6875 
L 56.390625 54.6875 
L 27.390625 29.109375 
L 57.625 0 
L 45.90625 0 
L 18.109375 26.703125 
L 18.109375 0 
L 9.078125 0 
z
" id="DejaVuSans-107"/>
    <path d="M 3.328125 72.90625 
L 13.28125 72.90625 
L 28.609375 11.28125 
L 43.890625 72.90625 
L 54.984375 72.90625 
L 70.3125 11.28125 
L 85.59375 72.90625 
L 95.609375 72.90625 
L 77.296875 0 
L 64.890625 0 
L 49.515625 63.28125 
L 33.984375 0 
L 21.578125 0 
z
" id="DejaVuSans-87"/>
   </defs>
   <g transform="translate(366.043437 28.475625)scale(0.28 -0.28)">
    <use xlink:href="#DejaVuSans-112"/>
    <use x="63.476562" xlink:href="#DejaVuSans-45"/>
    <use x="99.529297" xlink:href="#DejaVuSans-118"/>
    <use x="158.708984" xlink:href="#DejaVuSans-97"/>
    <use x="219.988281" xlink:href="#DejaVuSans-108"/>
    <use x="247.771484" xlink:href="#DejaVuSans-117"/>
    <use x="311.150391" xlink:href="#DejaVuSans-101"/>
    <use x="372.673828" xlink:href="#DejaVuSans-115"/>
    <use x="424.773438" xlink:href="#DejaVuSans-32"/>
    <use x="456.560547" xlink:href="#DejaVuSans-111"/>
    <use x="517.742188" xlink:href="#DejaVuSans-102"/>
    <use x="552.947266" xlink:href="#DejaVuSans-32"/>
    <use x="584.734375" xlink:href="#DejaVuSans-75"/>
    <use x="650.310547" xlink:href="#DejaVuSans-114"/>
    <use x="691.423828" xlink:href="#DejaVuSans-117"/>
    <use x="754.802734" xlink:href="#DejaVuSans-115"/>
    <use x="806.902344" xlink:href="#DejaVuSans-107"/>
    <use x="864.796875" xlink:href="#DejaVuSans-97"/>
    <use x="926.076172" xlink:href="#DejaVuSans-108"/>
    <use x="953.859375" xlink:href="#DejaVuSans-45"/>
    <use x="989.880859" xlink:href="#DejaVuSans-87"/>
    <use x="1088.664062" xlink:href="#DejaVuSans-97"/>
    <use x="1149.943359" xlink:href="#DejaVuSans-108"/>
    <use x="1177.726562" xlink:href="#DejaVuSans-108"/>
    <use x="1205.509766" xlink:href="#DejaVuSans-105"/>
    <use x="1233.292969" xlink:href="#DejaVuSans-115"/>
    <use x="1285.392578" xlink:href="#DejaVuSans-32"/>
    <use x="1317.179688" xlink:href="#DejaVuSans-116"/>
    <use x="1356.388672" xlink:href="#DejaVuSans-101"/>
    <use x="1417.912109" xlink:href="#DejaVuSans-115"/>
    <use x="1470.011719" xlink:href="#DejaVuSans-116"/>
   </g>
  </g>
 </g>
 <defs>
  <clipPath id="p61aeaf886b">
   <rect height="271.8" width="324" x="91.3275" y="43.2"/>
  </clipPath>
  <clipPath id="pf5bded36db">
   <rect height="271.8" width="324" x="431.5275" y="43.2"/>
  </clipPath>
  <clipPath id="pd80d2d70d0">
   <rect height="271.8" width="324" x="771.7275" y="43.2"/>
  </clipPath>
 </defs>
</svg>
