<?xml version="1.0" encoding="utf-8" standalone="no"?>
<!DOCTYPE svg PUBLIC "-//W3C//DTD SVG 1.1//EN"
  "http://www.w3.org/Graphics/SVG/1.1/DTD/svg11.dtd">
<!-- Created with matplotlib (https://matplotlib.org/) -->
<svg height="394.2975pt" version="1.1" viewBox="0 0 1102.9275 394.2975" width="1102.9275pt" xmlns="http://www.w3.org/2000/svg" xmlns:xlink="http://www.w3.org/1999/xlink">
 <defs>
  <style type="text/css">
*{stroke-linecap:butt;stroke-linejoin:round;}
  </style>
 </defs>
 <g id="figure_1">
  <g id="patch_1">
   <path d="M 0 394.2975 
L 1102.9275 394.2975 
L 1102.9275 0 
L 0 0 
z
" style="fill:none;"/>
  </g>
  <g id="axes_1">
   <g id="patch_2">
    <path d="M 91.3275 320.4 
L 415.3275 320.4 
L 415.3275 43.2 
L 91.3275 43.2 
z
" style="fill:none;"/>
   </g>
   <g id="matplotlib.axis_1">
    <g id="xtick_1">
     <g id="line2d_1">
      <defs>
       <path d="M 0 0 
L 0 5 
" id="m11871a06a1" style="stroke:#000000;stroke-width:0.8;"/>
      </defs>
      <g>
       <use style="stroke:#000000;stroke-width:0.8;" x="106.054773" xlink:href="#m11871a06a1" y="320.4"/>
      </g>
     </g>
     <g id="text_1">
      <!-- 0 -->
      <defs>
       <path d="M 31.78125 66.40625 
Q 24.171875 66.40625 20.328125 58.90625 
Q 16.5 51.421875 16.5 36.375 
Q 16.5 21.390625 20.328125 13.890625 
Q 24.171875 6.390625 31.78125 6.390625 
Q 39.453125 6.390625 43.28125 13.890625 
Q 47.125 21.390625 47.125 36.375 
Q 47.125 51.421875 43.28125 58.90625 
Q 39.453125 66.40625 31.78125 66.40625 
z
M 31.78125 74.21875 
Q 44.046875 74.21875 50.515625 64.515625 
Q 56.984375 54.828125 56.984375 36.375 
Q 56.984375 17.96875 50.515625 8.265625 
Q 44.046875 -1.421875 31.78125 -1.421875 
Q 19.53125 -1.421875 13.0625 8.265625 
Q 6.59375 17.96875 6.59375 36.375 
Q 6.59375 54.828125 13.0625 64.515625 
Q 19.53125 74.21875 31.78125 74.21875 
z
" id="DejaVuSans-48"/>
      </defs>
      <g transform="translate(97.147273 350.175625)scale(0.28 -0.28)">
       <use xlink:href="#DejaVuSans-48"/>
      </g>
     </g>
    </g>
    <g id="xtick_2">
     <g id="line2d_2">
      <g>
       <use style="stroke:#000000;stroke-width:0.8;" x="253.3275" xlink:href="#m11871a06a1" y="320.4"/>
      </g>
     </g>
     <g id="text_2">
      <!-- 0.5 -->
      <defs>
       <path d="M 10.6875 12.40625 
L 21 12.40625 
L 21 0 
L 10.6875 0 
z
" id="DejaVuSans-46"/>
       <path d="M 10.796875 72.90625 
L 49.515625 72.90625 
L 49.515625 64.59375 
L 19.828125 64.59375 
L 19.828125 46.734375 
Q 21.96875 47.46875 24.109375 47.828125 
Q 26.265625 48.1875 28.421875 48.1875 
Q 40.625 48.1875 47.75 41.5 
Q 54.890625 34.8125 54.890625 23.390625 
Q 54.890625 11.625 47.5625 5.09375 
Q 40.234375 -1.421875 26.90625 -1.421875 
Q 22.3125 -1.421875 17.546875 -0.640625 
Q 12.796875 0.140625 7.71875 1.703125 
L 7.71875 11.625 
Q 12.109375 9.234375 16.796875 8.0625 
Q 21.484375 6.890625 26.703125 6.890625 
Q 35.15625 6.890625 40.078125 11.328125 
Q 45.015625 15.765625 45.015625 23.390625 
Q 45.015625 31 40.078125 35.4375 
Q 35.15625 39.890625 26.703125 39.890625 
Q 22.75 39.890625 18.8125 39.015625 
Q 14.890625 38.140625 10.796875 36.28125 
z
" id="DejaVuSans-53"/>
      </defs>
      <g transform="translate(231.063125 350.175625)scale(0.28 -0.28)">
       <use xlink:href="#DejaVuSans-48"/>
       <use x="63.623047" xlink:href="#DejaVuSans-46"/>
       <use x="95.410156" xlink:href="#DejaVuSans-53"/>
      </g>
     </g>
    </g>
    <g id="xtick_3">
     <g id="line2d_3">
      <g>
       <use style="stroke:#000000;stroke-width:0.8;" x="400.600227" xlink:href="#m11871a06a1" y="320.4"/>
      </g>
     </g>
     <g id="text_3">
      <!-- 1 -->
      <defs>
       <path d="M 12.40625 8.296875 
L 28.515625 8.296875 
L 28.515625 63.921875 
L 10.984375 60.40625 
L 10.984375 69.390625 
L 28.421875 72.90625 
L 38.28125 72.90625 
L 38.28125 8.296875 
L 54.390625 8.296875 
L 54.390625 0 
L 12.40625 0 
z
" id="DejaVuSans-49"/>
      </defs>
      <g transform="translate(391.692727 350.175625)scale(0.28 -0.28)">
       <use xlink:href="#DejaVuSans-49"/>
      </g>
     </g>
    </g>
    <g id="text_4">
     <!-- Quantiles -->
     <defs>
      <path d="M 39.40625 66.21875 
Q 28.65625 66.21875 22.328125 58.203125 
Q 16.015625 50.203125 16.015625 36.375 
Q 16.015625 22.609375 22.328125 14.59375 
Q 28.65625 6.59375 39.40625 6.59375 
Q 50.140625 6.59375 56.421875 14.59375 
Q 62.703125 22.609375 62.703125 36.375 
Q 62.703125 50.203125 56.421875 58.203125 
Q 50.140625 66.21875 39.40625 66.21875 
z
M 53.21875 1.3125 
L 66.21875 -12.890625 
L 54.296875 -12.890625 
L 43.5 -1.21875 
Q 41.890625 -1.3125 41.03125 -1.359375 
Q 40.1875 -1.421875 39.40625 -1.421875 
Q 24.03125 -1.421875 14.8125 8.859375 
Q 5.609375 19.140625 5.609375 36.375 
Q 5.609375 53.65625 14.8125 63.9375 
Q 24.03125 74.21875 39.40625 74.21875 
Q 54.734375 74.21875 63.90625 63.9375 
Q 73.09375 53.65625 73.09375 36.375 
Q 73.09375 23.6875 67.984375 14.640625 
Q 62.890625 5.609375 53.21875 1.3125 
z
" id="DejaVuSans-81"/>
      <path d="M 8.5 21.578125 
L 8.5 54.6875 
L 17.484375 54.6875 
L 17.484375 21.921875 
Q 17.484375 14.15625 20.5 10.265625 
Q 23.53125 6.390625 29.59375 6.390625 
Q 36.859375 6.390625 41.078125 11.03125 
Q 45.3125 15.671875 45.3125 23.6875 
L 45.3125 54.6875 
L 54.296875 54.6875 
L 54.296875 0 
L 45.3125 0 
L 45.3125 8.40625 
Q 42.046875 3.421875 37.71875 1 
Q 33.40625 -1.421875 27.6875 -1.421875 
Q 18.265625 -1.421875 13.375 4.4375 
Q 8.5 10.296875 8.5 21.578125 
z
M 31.109375 56 
z
" id="DejaVuSans-117"/>
      <path d="M 34.28125 27.484375 
Q 23.390625 27.484375 19.1875 25 
Q 14.984375 22.515625 14.984375 16.5 
Q 14.984375 11.71875 18.140625 8.90625 
Q 21.296875 6.109375 26.703125 6.109375 
Q 34.1875 6.109375 38.703125 11.40625 
Q 43.21875 16.703125 43.21875 25.484375 
L 43.21875 27.484375 
z
M 52.203125 31.203125 
L 52.203125 0 
L 43.21875 0 
L 43.21875 8.296875 
Q 40.140625 3.328125 35.546875 0.953125 
Q 30.953125 -1.421875 24.3125 -1.421875 
Q 15.921875 -1.421875 10.953125 3.296875 
Q 6 8.015625 6 15.921875 
Q 6 25.140625 12.171875 29.828125 
Q 18.359375 34.515625 30.609375 34.515625 
L 43.21875 34.515625 
L 43.21875 35.40625 
Q 43.21875 41.609375 39.140625 45 
Q 35.0625 48.390625 27.6875 48.390625 
Q 23 48.390625 18.546875 47.265625 
Q 14.109375 46.140625 10.015625 43.890625 
L 10.015625 52.203125 
Q 14.9375 54.109375 19.578125 55.046875 
Q 24.21875 56 28.609375 56 
Q 40.484375 56 46.34375 49.84375 
Q 52.203125 43.703125 52.203125 31.203125 
z
" id="DejaVuSans-97"/>
      <path d="M 54.890625 33.015625 
L 54.890625 0 
L 45.90625 0 
L 45.90625 32.71875 
Q 45.90625 40.484375 42.875 44.328125 
Q 39.84375 48.1875 33.796875 48.1875 
Q 26.515625 48.1875 22.3125 43.546875 
Q 18.109375 38.921875 18.109375 30.90625 
L 18.109375 0 
L 9.078125 0 
L 9.078125 54.6875 
L 18.109375 54.6875 
L 18.109375 46.1875 
Q 21.34375 51.125 25.703125 53.5625 
Q 30.078125 56 35.796875 56 
Q 45.21875 56 50.046875 50.171875 
Q 54.890625 44.34375 54.890625 33.015625 
z
" id="DejaVuSans-110"/>
      <path d="M 18.3125 70.21875 
L 18.3125 54.6875 
L 36.8125 54.6875 
L 36.8125 47.703125 
L 18.3125 47.703125 
L 18.3125 18.015625 
Q 18.3125 11.328125 20.140625 9.421875 
Q 21.96875 7.515625 27.59375 7.515625 
L 36.8125 7.515625 
L 36.8125 0 
L 27.59375 0 
Q 17.1875 0 13.234375 3.875 
Q 9.28125 7.765625 9.28125 18.015625 
L 9.28125 47.703125 
L 2.6875 47.703125 
L 2.6875 54.6875 
L 9.28125 54.6875 
L 9.28125 70.21875 
z
" id="DejaVuSans-116"/>
      <path d="M 9.421875 54.6875 
L 18.40625 54.6875 
L 18.40625 0 
L 9.421875 0 
z
M 9.421875 75.984375 
L 18.40625 75.984375 
L 18.40625 64.59375 
L 9.421875 64.59375 
z
" id="DejaVuSans-105"/>
      <path d="M 9.421875 75.984375 
L 18.40625 75.984375 
L 18.40625 0 
L 9.421875 0 
z
" id="DejaVuSans-108"/>
      <path d="M 56.203125 29.59375 
L 56.203125 25.203125 
L 14.890625 25.203125 
Q 15.484375 15.921875 20.484375 11.0625 
Q 25.484375 6.203125 34.421875 6.203125 
Q 39.59375 6.203125 44.453125 7.46875 
Q 49.3125 8.734375 54.109375 11.28125 
L 54.109375 2.78125 
Q 49.265625 0.734375 44.1875 -0.34375 
Q 39.109375 -1.421875 33.890625 -1.421875 
Q 20.796875 -1.421875 13.15625 6.1875 
Q 5.515625 13.8125 5.515625 26.8125 
Q 5.515625 40.234375 12.765625 48.109375 
Q 20.015625 56 32.328125 56 
Q 43.359375 56 49.78125 48.890625 
Q 56.203125 41.796875 56.203125 29.59375 
z
M 47.21875 32.234375 
Q 47.125 39.59375 43.09375 43.984375 
Q 39.0625 48.390625 32.421875 48.390625 
Q 24.90625 48.390625 20.390625 44.140625 
Q 15.875 39.890625 15.1875 32.171875 
z
" id="DejaVuSans-101"/>
      <path d="M 44.28125 53.078125 
L 44.28125 44.578125 
Q 40.484375 46.53125 36.375 47.5 
Q 32.28125 48.484375 27.875 48.484375 
Q 21.1875 48.484375 17.84375 46.4375 
Q 14.5 44.390625 14.5 40.28125 
Q 14.5 37.15625 16.890625 35.375 
Q 19.28125 33.59375 26.515625 31.984375 
L 29.59375 31.296875 
Q 39.15625 29.25 43.1875 25.515625 
Q 47.21875 21.78125 47.21875 15.09375 
Q 47.21875 7.46875 41.1875 3.015625 
Q 35.15625 -1.421875 24.609375 -1.421875 
Q 20.21875 -1.421875 15.453125 -0.5625 
Q 10.6875 0.296875 5.421875 2 
L 5.421875 11.28125 
Q 10.40625 8.6875 15.234375 7.390625 
Q 20.0625 6.109375 24.8125 6.109375 
Q 31.15625 6.109375 34.5625 8.28125 
Q 37.984375 10.453125 37.984375 14.40625 
Q 37.984375 18.0625 35.515625 20.015625 
Q 33.0625 21.96875 24.703125 23.78125 
L 21.578125 24.515625 
Q 13.234375 26.265625 9.515625 29.90625 
Q 5.8125 33.546875 5.8125 39.890625 
Q 5.8125 47.609375 11.28125 51.796875 
Q 16.75 56 26.8125 56 
Q 31.78125 56 36.171875 55.265625 
Q 40.578125 54.546875 44.28125 53.078125 
z
" id="DejaVuSans-115"/>
     </defs>
     <g transform="translate(186.807813 381.274375)scale(0.28 -0.28)">
      <use xlink:href="#DejaVuSans-81"/>
      <use x="78.710938" xlink:href="#DejaVuSans-117"/>
      <use x="142.089844" xlink:href="#DejaVuSans-97"/>
      <use x="203.369141" xlink:href="#DejaVuSans-110"/>
      <use x="266.748047" xlink:href="#DejaVuSans-116"/>
      <use x="305.957031" xlink:href="#DejaVuSans-105"/>
      <use x="333.740234" xlink:href="#DejaVuSans-108"/>
      <use x="361.523438" xlink:href="#DejaVuSans-101"/>
      <use x="423.046875" xlink:href="#DejaVuSans-115"/>
     </g>
    </g>
   </g>
   <g id="matplotlib.axis_2">
    <g id="ytick_1">
     <g id="line2d_4">
      <defs>
       <path d="M 0 0 
L -5 0 
" id="mcb012cd8ba" style="stroke:#000000;stroke-width:0.8;"/>
      </defs>
      <g>
       <use style="stroke:#000000;stroke-width:0.8;" x="91.3275" xlink:href="#mcb012cd8ba" y="307.8"/>
      </g>
     </g>
     <g id="text_5">
      <!-- 0.0 -->
      <g transform="translate(38.29875 318.437812)scale(0.28 -0.28)">
       <use xlink:href="#DejaVuSans-48"/>
       <use x="63.623047" xlink:href="#DejaVuSans-46"/>
       <use x="95.410156" xlink:href="#DejaVuSans-48"/>
      </g>
     </g>
    </g>
    <g id="ytick_2">
     <g id="line2d_5">
      <g>
       <use style="stroke:#000000;stroke-width:0.8;" x="91.3275" xlink:href="#mcb012cd8ba" y="181.8"/>
      </g>
     </g>
     <g id="text_6">
      <!-- 0.5 -->
      <g transform="translate(38.29875 192.437812)scale(0.28 -0.28)">
       <use xlink:href="#DejaVuSans-48"/>
       <use x="63.623047" xlink:href="#DejaVuSans-46"/>
       <use x="95.410156" xlink:href="#DejaVuSans-53"/>
      </g>
     </g>
    </g>
    <g id="ytick_3">
     <g id="line2d_6">
      <g>
       <use style="stroke:#000000;stroke-width:0.8;" x="91.3275" xlink:href="#mcb012cd8ba" y="55.8"/>
      </g>
     </g>
     <g id="text_7">
      <!-- 1.0 -->
      <g transform="translate(38.29875 66.437812)scale(0.28 -0.28)">
       <use xlink:href="#DejaVuSans-49"/>
       <use x="63.623047" xlink:href="#DejaVuSans-46"/>
       <use x="95.410156" xlink:href="#DejaVuSans-48"/>
      </g>
     </g>
    </g>
    <g id="text_8">
     <!-- p-values -->
     <defs>
      <path d="M 18.109375 8.203125 
L 18.109375 -20.796875 
L 9.078125 -20.796875 
L 9.078125 54.6875 
L 18.109375 54.6875 
L 18.109375 46.390625 
Q 20.953125 51.265625 25.265625 53.625 
Q 29.59375 56 35.59375 56 
Q 45.5625 56 51.78125 48.09375 
Q 58.015625 40.1875 58.015625 27.296875 
Q 58.015625 14.40625 51.78125 6.484375 
Q 45.5625 -1.421875 35.59375 -1.421875 
Q 29.59375 -1.421875 25.265625 0.953125 
Q 20.953125 3.328125 18.109375 8.203125 
z
M 48.6875 27.296875 
Q 48.6875 37.203125 44.609375 42.84375 
Q 40.53125 48.484375 33.40625 48.484375 
Q 26.265625 48.484375 22.1875 42.84375 
Q 18.109375 37.203125 18.109375 27.296875 
Q 18.109375 17.390625 22.1875 11.75 
Q 26.265625 6.109375 33.40625 6.109375 
Q 40.53125 6.109375 44.609375 11.75 
Q 48.6875 17.390625 48.6875 27.296875 
z
" id="DejaVuSans-112"/>
      <path d="M 4.890625 31.390625 
L 31.203125 31.390625 
L 31.203125 23.390625 
L 4.890625 23.390625 
z
" id="DejaVuSans-45"/>
      <path d="M 2.984375 54.6875 
L 12.5 54.6875 
L 29.59375 8.796875 
L 46.6875 54.6875 
L 56.203125 54.6875 
L 35.6875 0 
L 23.484375 0 
z
" id="DejaVuSans-118"/>
     </defs>
     <g transform="translate(28.475625 241.269375)rotate(-90)scale(0.28 -0.28)">
      <use xlink:href="#DejaVuSans-112"/>
      <use x="63.476562" xlink:href="#DejaVuSans-45"/>
      <use x="99.529297" xlink:href="#DejaVuSans-118"/>
      <use x="158.708984" xlink:href="#DejaVuSans-97"/>
      <use x="219.988281" xlink:href="#DejaVuSans-108"/>
      <use x="247.771484" xlink:href="#DejaVuSans-117"/>
      <use x="311.150391" xlink:href="#DejaVuSans-101"/>
      <use x="372.673828" xlink:href="#DejaVuSans-115"/>
     </g>
    </g>
   </g>
   <g id="line2d_7">
    <path clip-path="url(#p4128a89b04)" d="M 106.252348 307.8 
L 172.377488 307.696597 
L 174.942805 307.620641 
L 186.344215 307.325432 
L 190.049674 307.195506 
L 192.614991 307.068722 
L 194.895273 306.955851 
L 197.745626 306.713806 
L 201.166049 306.441093 
L 202.87626 306.331232 
L 206.011648 305.916455 
L 209.147036 305.520244 
L 210.002141 305.315422 
L 211.712353 305.070291 
L 212.282424 304.948711 
L 213.7076 304.880858 
L 214.27767 304.684365 
L 215.132776 304.521838 
L 215.417811 304.499675 
L 215.987882 304.260053 
L 217.698093 304.039594 
L 218.553199 303.386905 
L 219.408305 303.272865 
L 219.69334 303.087915 
L 220.263411 302.945621 
L 221.973622 302.445493 
L 222.828728 302.24975 
L 223.968869 302.159743 
L 224.823975 301.990285 
L 225.964116 301.842363 
L 226.534186 301.73759 
L 227.104257 301.652182 
L 228.244398 301.454081 
L 230.52468 301.038597 
L 230.809715 300.535277 
L 232.234891 300.267043 
L 232.519927 300.227029 
L 232.804962 299.980516 
L 233.660068 299.880642 
L 233.945103 299.823538 
L 234.230138 299.56356 
L 234.515173 299.511192 
L 234.800209 299.286264 
L 235.085244 299.267202 
L 235.370279 298.781136 
L 237.935596 298.434911 
L 239.360773 298.313709 
L 240.215878 298.05412 
L 240.785949 297.943584 
L 241.070984 297.687984 
L 244.776442 296.500813 
L 245.631548 295.830559 
L 246.201619 295.77939 
L 247.056724 295.400516 
L 248.196865 295.249147 
L 249.051971 294.865934 
L 250.762183 294.674876 
L 251.047218 294.446138 
L 251.902324 294.262301 
L 253.3275 293.612949 
L 255.322747 293.278701 
L 256.462888 292.657183 
L 257.032958 292.47732 
L 257.317994 292.239616 
L 258.74317 292.011463 
L 259.028205 291.679021 
L 259.31324 291.619886 
L 259.598276 291.214389 
L 259.883311 291.018768 
L 260.738417 290.920505 
L 261.308487 290.533933 
L 262.733663 290.357807 
L 263.018699 289.962922 
L 263.873804 289.659546 
L 264.15884 289.576012 
L 264.443875 289.376099 
L 265.013945 288.804621 
L 265.869051 288.372086 
L 267.009192 287.586736 
L 267.579263 287.383145 
L 267.864298 286.901025 
L 269.004439 286.728257 
L 269.574509 286.134799 
L 269.859545 286.121684 
L 271.284721 285.388857 
L 271.569756 285.387961 
L 272.139827 285.074447 
L 272.709897 284.878433 
L 274.990179 283.568649 
L 276.13032 283.210464 
L 276.415356 283.069112 
L 276.985426 282.547854 
L 277.270461 282.374643 
L 278.125567 281.091495 
L 278.410602 280.897747 
L 278.695638 280.25627 
L 278.980673 280.184707 
L 279.265708 279.990138 
L 279.550743 279.261861 
L 279.835779 279.202373 
L 280.405849 278.723784 
L 280.690884 278.63882 
L 281.260955 277.096228 
L 282.116061 276.449663 
L 282.401096 276.406764 
L 282.686131 276.045084 
L 283.256202 275.919345 
L 283.541237 275.443902 
L 284.111307 274.934029 
L 284.681378 274.695642 
L 285.251448 274.422143 
L 285.536484 273.937151 
L 286.106554 272.248494 
L 286.676625 271.961869 
L 287.246695 271.608401 
L 287.53173 271.239283 
L 287.816766 271.07157 
L 288.101801 271.054007 
L 288.671871 270.642181 
L 288.956907 270.620589 
L 289.241942 270.396996 
L 289.526977 269.604399 
L 290.097048 269.520903 
L 291.237189 268.623641 
L 291.807259 267.249059 
L 292.37733 266.983544 
L 293.517471 266.715338 
L 294.087541 266.13797 
L 294.942647 265.741166 
L 295.512717 265.385851 
L 296.082788 265.341151 
L 296.367823 264.801769 
L 296.652859 264.729872 
L 296.937894 264.007509 
L 297.222929 263.995802 
L 297.507964 263.620103 
L 297.793 263.037732 
L 299.503211 262.239087 
L 299.788246 262.179541 
L 300.073282 261.81343 
L 300.643352 261.76108 
L 300.928387 260.926979 
L 301.213423 260.744876 
L 301.498458 260.723261 
L 301.783493 260.527769 
L 302.353564 259.94973 
L 302.638599 259.835087 
L 302.923634 259.399114 
L 303.208669 258.735402 
L 304.063775 258.154704 
L 305.203916 258.065846 
L 305.488951 257.760021 
L 305.773987 257.214293 
L 306.629092 256.930039 
L 306.914128 256.354971 
L 307.199163 256.228131 
L 307.769233 255.486653 
L 308.339304 255.372307 
L 309.19441 255.041075 
L 309.479445 254.66329 
L 309.76448 254.494025 
L 310.049515 253.723749 
L 310.334551 253.523736 
L 310.619586 252.918111 
L 311.189656 252.61254 
L 311.474692 252.497885 
L 311.759727 251.324426 
L 312.329797 251.298702 
L 312.899868 250.734164 
L 313.469938 250.682361 
L 314.610079 250.180249 
L 314.895115 250.059098 
L 315.18015 249.461825 
L 315.75022 249.18496 
L 316.320291 247.447084 
L 316.605326 247.400943 
L 316.890361 247.182479 
L 317.460432 246.31509 
L 317.745467 246.223615 
L 318.315538 245.345892 
L 318.600573 245.258683 
L 318.885608 244.65153 
L 319.170644 244.60701 
L 319.455679 244.381007 
L 319.740714 244.370698 
L 320.310785 244.088929 
L 320.59582 244.016648 
L 321.16589 242.564496 
L 321.450926 242.473613 
L 321.735961 241.943634 
L 322.020996 241.8194 
L 322.306031 241.119669 
L 322.591067 241.035343 
L 322.876102 240.492166 
L 323.161137 240.225187 
L 323.446172 239.724196 
L 324.301278 239.494346 
L 324.586313 239.089433 
L 324.871349 237.784077 
L 326.01149 237.541103 
L 326.296525 236.55586 
L 326.58156 236.276257 
L 326.866595 236.169401 
L 327.436666 235.30891 
L 328.291772 235.136706 
L 329.146877 234.260287 
L 329.431913 234.118943 
L 330.572054 232.491672 
L 330.857089 232.091487 
L 331.712195 231.57123 
L 331.99723 230.63016 
L 332.282265 230.553383 
L 332.852336 229.533026 
L 333.137371 229.481433 
L 333.707441 228.957211 
L 333.992477 228.747197 
L 334.847582 226.229452 
L 335.132618 225.971285 
L 335.702688 224.675757 
L 335.987723 224.446554 
L 336.272759 223.019535 
L 336.557794 222.409039 
L 337.127864 221.781968 
L 337.697935 221.55561 
L 337.98297 221.273135 
L 339.123111 221.023055 
L 339.408147 220.485086 
L 339.978217 220.206313 
L 340.263252 218.702042 
L 340.548288 218.432917 
L 341.118358 218.313073 
L 341.688429 217.061047 
L 341.973464 216.657906 
L 342.543534 215.151447 
L 343.683675 214.054096 
L 343.968711 214.045621 
L 344.253746 213.777266 
L 344.538781 212.999369 
L 345.108852 212.893238 
L 345.393887 211.885764 
L 345.678922 211.80016 
L 345.963957 208.274124 
L 346.248993 208.044101 
L 346.534028 207.363028 
L 346.819063 207.012012 
L 347.104098 206.851206 
L 347.674169 205.778094 
L 347.959204 204.224705 
L 348.244239 204.172218 
L 348.529275 203.58265 
L 348.81431 202.127127 
L 349.38438 201.533584 
L 349.669416 201.475256 
L 349.954451 200.712228 
L 350.239486 200.533503 
L 350.524521 198.691739 
L 350.809557 198.613617 
L 351.379627 198.018743 
L 352.519768 196.903925 
L 353.374874 196.684299 
L 353.659909 196.14007 
L 353.944944 195.08314 
L 354.515015 193.646001 
L 354.80005 192.77162 
L 355.085085 192.329458 
L 355.370121 192.262744 
L 355.655156 191.406937 
L 355.940191 191.399937 
L 356.795297 189.922059 
L 357.365367 189.710591 
L 357.650403 189.705182 
L 357.935438 188.084653 
L 358.220473 187.889758 
L 358.505508 186.626992 
L 358.790544 186.609798 
L 359.360614 185.75014 
L 359.645649 185.354442 
L 360.21572 183.606919 
L 360.500755 183.390845 
L 360.785791 182.891206 
L 361.070826 180.290525 
L 361.355861 179.692525 
L 361.640896 178.160098 
L 361.925932 177.905376 
L 362.496002 175.035339 
L 363.351108 173.221991 
L 364.206214 170.935481 
L 364.491249 170.658073 
L 364.776284 170.168795 
L 365.061319 168.186701 
L 365.346355 168.110505 
L 365.63139 167.507857 
L 366.20146 167.395238 
L 366.486496 165.208132 
L 366.771531 164.667682 
L 367.056566 162.891921 
L 367.341601 162.367102 
L 367.626637 162.298469 
L 367.911672 162.022012 
L 368.196707 161.388445 
L 368.481742 161.286431 
L 369.051813 160.208137 
L 369.336848 158.240156 
L 369.621883 157.428277 
L 370.191954 157.165214 
L 370.762024 154.002337 
L 371.04706 153.311662 
L 371.332095 152.970655 
L 371.61713 151.978029 
L 371.902165 151.696557 
L 372.187201 150.60652 
L 372.472236 150.106865 
L 372.757271 148.548677 
L 373.042306 145.453375 
L 373.327342 145.248056 
L 373.612377 142.481223 
L 374.467483 141.836579 
L 374.752518 141.774092 
L 375.037553 140.901202 
L 375.322588 140.693773 
L 375.607624 140.200098 
L 375.892659 139.285895 
L 376.177694 138.87683 
L 376.462729 137.524189 
L 376.747765 136.81741 
L 377.0328 136.585529 
L 377.317835 136.024599 
L 377.60287 134.090086 
L 377.887906 134.030481 
L 378.172941 132.940421 
L 379.028047 131.554548 
L 379.313082 130.680626 
L 379.598117 130.641045 
L 379.883152 130.187233 
L 380.168188 128.907068 
L 380.738258 128.674487 
L 381.023293 126.588499 
L 381.308329 126.134416 
L 381.593364 125.204831 
L 381.878399 124.990471 
L 383.303576 117.892823 
L 383.588611 117.590049 
L 384.443717 114.068025 
L 384.728752 113.992237 
L 385.013787 113.736794 
L 385.298822 112.870691 
L 385.583858 111.295271 
L 385.868893 110.78725 
L 386.438963 108.977646 
L 387.009034 103.785123 
L 387.294069 103.463741 
L 387.579104 100.193402 
L 388.43421 98.845469 
L 388.719245 98.684543 
L 389.004281 98.023858 
L 389.574351 95.79821 
L 390.144422 94.478391 
L 390.429457 92.895941 
L 391.284563 90.204052 
L 391.569598 88.405822 
L 391.854633 87.818602 
L 392.139668 84.792293 
L 392.424704 84.124177 
L 392.709739 84.123445 
L 392.994774 82.658029 
L 393.279809 79.379382 
L 393.564845 79.263528 
L 393.84988 78.723865 
L 394.134915 77.22348 
L 394.704986 73.194151 
L 395.275056 71.532999 
L 395.560091 71.184379 
L 395.845127 71.14862 
L 396.130162 70.29541 
L 396.415197 68.515647 
L 396.700232 68.256592 
L 396.985268 67.377617 
L 397.270303 65.225491 
L 397.555338 64.968769 
L 397.840373 62.118315 
L 398.125409 61.363752 
L 398.410444 61.196025 
L 398.980514 60.132094 
L 399.26555 58.200698 
L 399.83562 57.687464 
L 400.120655 56.601155 
L 400.402652 56.352096 
L 400.402652 56.352096 
" style="fill:none;stroke:#b8860b;stroke-linecap:square;stroke-opacity:0.75;stroke-width:2;"/>
   </g>
   <g id="line2d_8">
    <path clip-path="url(#p4128a89b04)" d="M 109.13197 307.8 
L 113.522154 307.8 
L 117.960419 307.8 
L 122.398683 307.8 
L 126.836948 307.8 
L 131.275213 307.8 
L 135.713478 307.8 
L 140.151743 307.8 
L 144.590008 307.8 
L 149.028273 307.8 
L 153.466538 307.8 
L 157.904803 307.8 
L 162.343068 307.8 
L 166.781333 307.8 
L 171.219598 307.8 
L 175.657863 307.8 
L 180.096128 307.8 
L 184.534393 307.8 
L 188.972658 307.799999 
L 193.410923 307.799998 
L 197.849188 307.799996 
L 202.287453 307.799996 
L 206.725718 307.799993 
L 211.163983 307.799992 
L 215.602248 307.799978 
L 220.040513 307.799814 
L 224.478778 307.799733 
L 228.917043 307.79973 
L 233.355308 307.799708 
L 237.793573 307.799547 
L 242.231838 307.799052 
L 246.670103 307.79865 
L 251.108368 307.797396 
L 255.546632 307.796665 
L 259.984897 307.796187 
L 264.423162 307.79515 
L 268.861427 307.787269 
L 273.299692 307.758695 
L 277.737957 307.752335 
L 282.176222 307.709519 
L 286.614487 307.700472 
L 291.052752 307.668357 
L 295.491017 307.638015 
L 299.929282 307.571428 
L 304.367547 307.561273 
L 308.805812 307.544741 
L 313.244077 307.403939 
L 317.682342 307.274912 
L 322.120607 307.132605 
L 326.558872 306.462362 
L 330.997137 305.070291 
L 335.435402 302.945621 
L 339.873667 301.990285 
L 344.311932 298.476638 
L 348.750197 297.308436 
L 353.188462 294.674876 
L 357.626727 291.679021 
L 362.064992 289.576012 
L 366.503257 282.751709 
L 370.941522 282.374643 
L 375.379787 270.620589 
L 379.818052 260.723261 
L 384.256317 206.234262 
L 388.694581 130.187233 
L 393.132846 95.030286 
L 397.52303 56.601155 
" style="fill:none;stroke:#8b0000;stroke-linecap:square;stroke-opacity:0.75;stroke-width:2;"/>
   </g>
   <g id="line2d_9">
    <path clip-path="url(#p4128a89b04)" d="M 106.989815 307.8 
L 237.815524 307.696597 
L 251.304199 307.544741 
L 264.792874 307.403939 
L 276.932681 307.068722 
L 278.281549 306.846758 
L 282.328152 306.684103 
L 285.025887 306.515358 
L 286.374754 306.462362 
L 287.723622 306.242818 
L 289.072489 305.788851 
L 290.421357 305.784684 
L 291.770224 305.070291 
L 293.119092 304.726846 
L 294.467959 304.59609 
L 297.165694 303.786216 
L 298.514562 302.945621 
L 299.863429 302.342417 
L 301.212297 302.24964 
L 302.561164 301.990285 
L 303.910032 301.578737 
L 306.607767 301.414578 
L 307.956634 301.186099 
L 309.305502 301.125004 
L 310.654369 299.267202 
L 312.003237 298.476638 
L 313.352104 298.047108 
L 314.700972 297.308436 
L 316.049839 297.118993 
L 317.398707 294.77826 
L 318.747574 294.767111 
L 320.096442 291.679021 
L 321.445309 291.018768 
L 324.143044 291.009844 
L 325.491912 290.533933 
L 326.840779 289.576012 
L 328.189647 288.156196 
L 329.538515 286.901025 
L 330.887382 286.796399 
L 332.23625 284.315396 
L 333.585117 283.955153 
L 334.933985 282.751709 
L 336.282852 282.374643 
L 338.980587 271.07157 
L 340.329455 270.620589 
L 341.678322 270.396996 
L 343.02719 265.945525 
L 344.376057 263.995802 
L 345.724925 260.744876 
L 347.073792 260.723261 
L 348.42266 258.508757 
L 349.771527 257.214293 
L 351.120395 257.126651 
L 352.469262 254.66329 
L 353.81813 253.523736 
L 356.515865 249.18496 
L 357.864732 245.258683 
L 359.2136 237.784077 
L 360.562467 235.30891 
L 361.911335 234.118943 
L 363.260202 230.553383 
L 364.60907 220.206313 
L 365.957937 212.897521 
L 367.306805 208.274124 
L 368.655672 206.234262 
L 370.00454 201.819659 
L 371.353407 189.922059 
L 372.702275 188.084653 
L 374.051142 187.889758 
L 375.40001 186.626992 
L 376.748877 185.75014 
L 378.097745 173.221991 
L 379.446612 157.286461 
L 380.79548 157.165214 
L 382.144348 134.090086 
L 383.493215 130.187233 
L 384.842083 95.030286 
L 386.19095 87.818602 
L 387.539818 84.792293 
L 388.888685 84.124177 
L 390.237553 79.263528 
L 391.58642 73.194151 
L 392.935288 65.225491 
L 394.284155 64.968769 
L 395.633023 62.118315 
L 398.330758 57.999374 
L 399.665185 56.601155 
L 399.665185 56.601155 
" style="fill:none;stroke:#000080;stroke-linecap:square;stroke-opacity:0.75;stroke-width:2;"/>
   </g>
   <g id="line2d_10">
    <path clip-path="url(#p4128a89b04)" d="M 106.054773 295.2 
L 400.600227 295.2 
" style="fill:none;stroke:#ff0000;stroke-dasharray:3.7,1.6;stroke-dashoffset:0;"/>
   </g>
   <g id="patch_3">
    <path d="M 91.3275 320.4 
L 91.3275 43.2 
" style="fill:none;stroke:#000000;stroke-linecap:square;stroke-linejoin:miter;stroke-width:0.8;"/>
   </g>
   <g id="patch_4">
    <path d="M 91.3275 320.4 
L 415.3275 320.4 
" style="fill:none;stroke:#000000;stroke-linecap:square;stroke-linejoin:miter;stroke-width:0.8;"/>
   </g>
   <g id="text_9">
    <!-- Chen -->
    <defs>
     <path d="M 64.40625 67.28125 
L 64.40625 56.890625 
Q 59.421875 61.53125 53.78125 63.8125 
Q 48.140625 66.109375 41.796875 66.109375 
Q 29.296875 66.109375 22.65625 58.46875 
Q 16.015625 50.828125 16.015625 36.375 
Q 16.015625 21.96875 22.65625 14.328125 
Q 29.296875 6.6875 41.796875 6.6875 
Q 48.140625 6.6875 53.78125 8.984375 
Q 59.421875 11.28125 64.40625 15.921875 
L 64.40625 5.609375 
Q 59.234375 2.09375 53.4375 0.328125 
Q 47.65625 -1.421875 41.21875 -1.421875 
Q 24.65625 -1.421875 15.125 8.703125 
Q 5.609375 18.84375 5.609375 36.375 
Q 5.609375 53.953125 15.125 64.078125 
Q 24.65625 74.21875 41.21875 74.21875 
Q 47.75 74.21875 53.53125 72.484375 
Q 59.328125 70.75 64.40625 67.28125 
z
" id="DejaVuSans-67"/>
     <path d="M 54.890625 33.015625 
L 54.890625 0 
L 45.90625 0 
L 45.90625 32.71875 
Q 45.90625 40.484375 42.875 44.328125 
Q 39.84375 48.1875 33.796875 48.1875 
Q 26.515625 48.1875 22.3125 43.546875 
Q 18.109375 38.921875 18.109375 30.90625 
L 18.109375 0 
L 9.078125 0 
L 9.078125 75.984375 
L 18.109375 75.984375 
L 18.109375 46.1875 
Q 21.34375 51.125 25.703125 53.5625 
Q 30.078125 56 35.796875 56 
Q 45.21875 56 50.046875 50.171875 
Q 54.890625 44.34375 54.890625 33.015625 
z
" id="DejaVuSans-104"/>
    </defs>
    <g transform="translate(120.782045 77.075625)scale(0.28 -0.28)">
     <use xlink:href="#DejaVuSans-67"/>
     <use x="69.824219" xlink:href="#DejaVuSans-104"/>
     <use x="133.203125" xlink:href="#DejaVuSans-101"/>
     <use x="194.726562" xlink:href="#DejaVuSans-110"/>
    </g>
   </g>
  </g>
  <g id="axes_2">
   <g id="patch_5">
    <path d="M 431.5275 320.4 
L 755.5275 320.4 
L 755.5275 43.2 
L 431.5275 43.2 
z
" style="fill:none;"/>
   </g>
   <g id="matplotlib.axis_3">
    <g id="xtick_4">
     <g id="line2d_11">
      <g>
       <use style="stroke:#000000;stroke-width:0.8;" x="446.254773" xlink:href="#m11871a06a1" y="320.4"/>
      </g>
     </g>
     <g id="text_10">
      <!-- 0 -->
      <g transform="translate(437.347273 350.175625)scale(0.28 -0.28)">
       <use xlink:href="#DejaVuSans-48"/>
      </g>
     </g>
    </g>
    <g id="xtick_5">
     <g id="line2d_12">
      <g>
       <use style="stroke:#000000;stroke-width:0.8;" x="593.5275" xlink:href="#m11871a06a1" y="320.4"/>
      </g>
     </g>
     <g id="text_11">
      <!-- 0.5 -->
      <g transform="translate(571.263125 350.175625)scale(0.28 -0.28)">
       <use xlink:href="#DejaVuSans-48"/>
       <use x="63.623047" xlink:href="#DejaVuSans-46"/>
       <use x="95.410156" xlink:href="#DejaVuSans-53"/>
      </g>
     </g>
    </g>
    <g id="xtick_6">
     <g id="line2d_13">
      <g>
       <use style="stroke:#000000;stroke-width:0.8;" x="740.800227" xlink:href="#m11871a06a1" y="320.4"/>
      </g>
     </g>
     <g id="text_12">
      <!-- 1 -->
      <g transform="translate(731.892727 350.175625)scale(0.28 -0.28)">
       <use xlink:href="#DejaVuSans-49"/>
      </g>
     </g>
    </g>
    <g id="text_13">
     <!-- Quantiles -->
     <g transform="translate(527.007812 381.274375)scale(0.28 -0.28)">
      <use xlink:href="#DejaVuSans-81"/>
      <use x="78.710938" xlink:href="#DejaVuSans-117"/>
      <use x="142.089844" xlink:href="#DejaVuSans-97"/>
      <use x="203.369141" xlink:href="#DejaVuSans-110"/>
      <use x="266.748047" xlink:href="#DejaVuSans-116"/>
      <use x="305.957031" xlink:href="#DejaVuSans-105"/>
      <use x="333.740234" xlink:href="#DejaVuSans-108"/>
      <use x="361.523438" xlink:href="#DejaVuSans-101"/>
      <use x="423.046875" xlink:href="#DejaVuSans-115"/>
     </g>
    </g>
   </g>
   <g id="matplotlib.axis_4">
    <g id="ytick_4"/>
    <g id="ytick_5"/>
    <g id="ytick_6"/>
   </g>
   <g id="line2d_14">
    <path clip-path="url(#p3cbf4f5cdb)" d="M 446.540978 307.8 
L 464.291096 307.692519 
L 472.549013 307.157805 
L 473.787701 306.825095 
L 475.85218 306.549995 
L 476.265076 306.423041 
L 477.090868 306.392767 
L 478.742451 305.861927 
L 479.568243 305.741378 
L 480.80693 305.358152 
L 484.935889 305.03563 
L 486.174577 304.730587 
L 487.000368 304.676331 
L 487.82616 304.36383 
L 488.239056 304.322246 
L 488.651952 303.958191 
L 489.890639 303.645417 
L 490.303535 303.270845 
L 493.193806 302.697624 
L 493.606702 302.686766 
L 494.84539 302.318473 
L 496.084077 302.174058 
L 497.322765 301.7777 
L 497.735661 301.716927 
L 498.561452 301.335095 
L 500.625932 300.757882 
L 501.038828 300.219065 
L 502.277515 299.710975 
L 502.690411 299.375539 
L 505.580682 298.956502 
L 505.993578 298.752406 
L 507.232265 298.480602 
L 507.645161 298.253985 
L 508.058057 297.719872 
L 510.122536 297.239109 
L 510.948328 296.265392 
L 512.599912 295.781645 
L 513.012807 295.528656 
L 513.838599 295.438337 
L 514.251495 294.944421 
L 515.490183 294.453018 
L 516.72887 294.23157 
L 517.554662 293.74577 
L 517.967558 293.698578 
L 518.380454 293.405237 
L 519.206245 293.337242 
L 520.444933 292.518781 
L 521.683621 292.205001 
L 522.096516 291.844339 
L 522.922308 291.627026 
L 523.335204 291.190872 
L 523.7481 290.37084 
L 524.160996 290.098772 
L 525.399683 289.823552 
L 525.812579 289.363446 
L 527.051267 288.636171 
L 527.464163 287.419449 
L 528.289954 287.235501 
L 528.70285 286.884579 
L 529.528642 286.777012 
L 529.941538 286.322453 
L 530.767329 286.29571 
L 531.180225 286.029868 
L 531.593121 285.407607 
L 532.006017 285.213089 
L 532.831809 284.667918 
L 533.6576 284.479814 
L 534.483392 284.474292 
L 535.309184 284.212535 
L 535.72208 284.20975 
L 536.134976 284.044244 
L 536.547871 284.012941 
L 537.373663 282.746019 
L 540.263934 282.336334 
L 540.67683 281.532992 
L 541.915518 280.632336 
L 542.328413 280.311952 
L 543.154205 279.932985 
L 543.567101 279.318659 
L 544.805789 279.163166 
L 545.218684 278.746905 
L 546.870268 278.088574 
L 548.521851 277.918883 
L 548.934747 277.394048 
L 549.347643 277.069512 
L 550.173435 276.795032 
L 550.586331 275.957333 
L 550.999227 275.708255 
L 551.412122 274.498346 
L 551.825018 274.17074 
L 553.476602 273.941681 
L 553.889498 273.770922 
L 554.302393 272.255056 
L 555.541081 271.446532 
L 556.366873 271.335123 
L 557.60556 270.680912 
L 558.018456 270.665239 
L 558.844248 269.471117 
L 559.67004 269.100002 
L 560.082935 268.678042 
L 560.495831 268.597301 
L 560.908727 268.153282 
L 561.734519 267.706186 
L 562.147415 266.187751 
L 562.560311 265.941191 
L 562.973206 265.920466 
L 563.386102 265.618766 
L 564.62479 265.115823 
L 565.037686 264.827215 
L 565.450582 264.676692 
L 565.863477 264.345227 
L 566.276373 264.25902 
L 566.689269 263.933571 
L 567.102165 263.910706 
L 567.515061 263.480562 
L 567.927957 263.421282 
L 568.340853 263.095961 
L 568.753748 262.404844 
L 569.166644 262.152638 
L 569.57954 261.686643 
L 569.992436 260.614231 
L 570.818228 260.137971 
L 571.231124 260.054821 
L 571.644019 259.485266 
L 572.056915 259.38982 
L 572.469811 258.426745 
L 573.708499 258.062537 
L 574.121395 257.878851 
L 574.53429 257.44405 
L 574.947186 256.3787 
L 575.360082 256.317235 
L 575.772978 256.086251 
L 576.185874 254.868081 
L 576.59877 254.608574 
L 577.011666 254.529866 
L 577.424561 253.824326 
L 577.837457 253.423712 
L 578.250353 253.26635 
L 579.489041 253.157431 
L 580.314833 252.716412 
L 580.727728 252.524646 
L 581.140624 252.460973 
L 581.966416 251.635861 
L 582.379312 251.387659 
L 582.792208 250.983324 
L 583.617999 250.848212 
L 584.030895 250.210679 
L 584.856687 249.86482 
L 585.269583 249.505723 
L 585.682479 249.346142 
L 586.095375 248.762284 
L 587.746958 247.902816 
L 588.159854 246.449185 
L 588.57275 245.61165 
L 588.985646 245.531286 
L 589.398541 244.676646 
L 589.811437 244.663432 
L 590.224333 244.372961 
L 591.463021 244.023637 
L 591.875917 243.64444 
L 592.288812 243.613223 
L 593.114604 243.269114 
L 593.5275 242.509149 
L 593.940396 242.166483 
L 594.353292 241.978035 
L 594.766188 241.281643 
L 595.591979 240.90457 
L 596.417771 240.733695 
L 597.656459 239.380757 
L 598.895146 238.695035 
L 599.308042 238.274364 
L 599.720938 238.26771 
L 600.54673 237.971315 
L 600.959625 237.560176 
L 601.785417 237.418182 
L 602.611209 237.331673 
L 603.024105 237.32093 
L 603.849896 237.183131 
L 604.262792 236.658992 
L 605.088584 236.526083 
L 605.50148 235.132051 
L 605.914376 234.129968 
L 607.565959 233.681284 
L 607.978855 232.947712 
L 608.391751 232.69182 
L 608.804647 232.220579 
L 609.217543 232.009669 
L 609.630439 230.64579 
L 610.45623 229.073496 
L 611.694918 227.930749 
L 612.107814 227.155341 
L 612.52071 226.947775 
L 612.933605 226.090976 
L 613.759397 225.735246 
L 614.172293 225.638072 
L 614.585189 224.621746 
L 614.998085 224.055022 
L 615.410981 223.818841 
L 615.823876 222.321133 
L 616.649668 221.921066 
L 617.062564 221.474795 
L 617.47546 221.455063 
L 617.888356 221.112014 
L 618.301252 220.464538 
L 618.714147 219.153266 
L 619.127043 219.049273 
L 619.952835 218.219194 
L 620.365731 217.449563 
L 620.778627 217.40784 
L 621.604418 216.496805 
L 622.017314 216.278075 
L 622.843106 215.278859 
L 623.256002 213.687681 
L 624.907585 211.589694 
L 625.320481 209.833576 
L 626.146273 209.255828 
L 626.559169 208.702813 
L 627.38496 206.944555 
L 627.797856 206.934014 
L 628.210752 206.58532 
L 629.036544 206.483848 
L 629.44944 206.384407 
L 629.862336 206.059363 
L 630.688127 205.75921 
L 631.513919 205.245126 
L 631.926815 205.177683 
L 632.339711 204.887819 
L 632.752607 203.899286 
L 633.165502 203.467234 
L 633.578398 203.439953 
L 633.991294 203.235784 
L 634.817086 202.282584 
L 635.229982 202.205593 
L 636.055773 201.619346 
L 636.468669 201.526837 
L 637.294461 200.972188 
L 638.120253 200.701731 
L 638.533149 200.256427 
L 638.946045 200.0077 
L 639.35894 199.18132 
L 639.771836 199.056453 
L 640.184732 199.051925 
L 641.010524 198.367122 
L 641.42342 197.579907 
L 642.249211 197.122297 
L 642.662107 196.036706 
L 643.075003 195.899459 
L 643.487899 194.969656 
L 643.900795 194.840197 
L 644.313691 194.583978 
L 644.726587 193.903067 
L 645.552378 193.640041 
L 645.965274 192.911034 
L 646.37817 192.818572 
L 646.791066 192.431153 
L 647.203962 191.794393 
L 647.616858 191.679568 
L 648.029753 190.869861 
L 648.855545 189.953511 
L 649.268441 189.779143 
L 649.681337 189.185142 
L 650.094233 189.129508 
L 650.507129 188.175746 
L 650.920024 187.630853 
L 651.33292 187.56639 
L 652.571608 185.885672 
L 653.3974 185.726909 
L 653.810295 185.523353 
L 654.223191 185.194092 
L 654.636087 185.183798 
L 655.048983 183.562666 
L 657.113462 181.999724 
L 657.526358 181.935322 
L 657.939254 181.671541 
L 659.177942 180.268667 
L 659.590837 180.233904 
L 660.003733 179.92848 
L 660.416629 179.774225 
L 660.829525 179.338891 
L 661.242421 178.671722 
L 662.068213 178.174601 
L 662.481108 177.038984 
L 662.894004 176.66937 
L 663.719796 175.452877 
L 664.132692 174.067369 
L 664.958484 172.877842 
L 665.371379 172.858927 
L 665.784275 172.415543 
L 666.197171 171.608075 
L 666.610067 171.502747 
L 667.022963 170.470948 
L 667.435859 170.104009 
L 667.848755 168.494961 
L 668.261651 168.218766 
L 668.674546 167.54383 
L 669.087442 167.409683 
L 669.500338 167.407027 
L 670.32613 166.186265 
L 671.151922 165.720902 
L 671.564817 165.356381 
L 671.977713 164.204831 
L 672.390609 161.994666 
L 673.629297 161.327267 
L 674.042193 160.535691 
L 674.867984 159.857494 
L 675.28088 159.856298 
L 675.693776 159.653875 
L 676.106672 157.562584 
L 676.519568 157.335322 
L 677.758255 157.128791 
L 678.171151 157.071547 
L 678.584047 156.105693 
L 679.409839 155.617214 
L 679.822735 154.929203 
L 680.23563 154.929005 
L 680.648526 154.649066 
L 681.061422 154.644346 
L 681.474318 154.068143 
L 681.887214 153.846019 
L 682.30011 152.304242 
L 683.125901 151.907854 
L 683.951693 150.4553 
L 684.364589 150.447482 
L 684.777485 149.850868 
L 685.603277 149.301235 
L 686.016172 148.883639 
L 686.841964 148.350071 
L 687.667756 147.703608 
L 688.080652 145.828103 
L 688.493548 145.820105 
L 688.906443 145.670869 
L 689.732235 143.85412 
L 690.145131 143.72811 
L 690.558027 143.719682 
L 690.970923 143.326412 
L 691.796714 143.129624 
L 692.622506 139.069805 
L 693.035402 138.130271 
L 693.448298 137.78448 
L 693.861194 136.083081 
L 694.27409 135.78571 
L 694.686985 135.228776 
L 695.925673 132.991747 
L 696.338569 132.815562 
L 697.577256 131.289081 
L 697.990152 128.103246 
L 698.403048 127.959258 
L 698.815944 127.620926 
L 699.22884 127.607004 
L 699.641736 125.221708 
L 700.054632 124.176086 
L 700.467528 123.849005 
L 701.293319 122.123515 
L 701.706215 121.754994 
L 702.532007 120.597125 
L 702.944903 120.404234 
L 703.357799 119.285923 
L 703.770694 118.946657 
L 704.18359 117.76021 
L 704.596486 115.796083 
L 705.009382 115.688237 
L 705.422278 115.248855 
L 705.835174 114.481818 
L 706.24807 114.42388 
L 706.660965 113.743859 
L 707.073861 113.385538 
L 707.486757 111.752238 
L 708.312549 111.18881 
L 708.725445 111.006526 
L 709.138341 110.186448 
L 709.551236 110.020703 
L 710.377028 109.120294 
L 711.20282 107.247409 
L 711.615716 106.754062 
L 712.028612 106.683297 
L 712.441507 106.397024 
L 714.093091 103.408149 
L 714.505987 102.88561 
L 714.918883 102.714149 
L 715.744674 102.020286 
L 716.15757 100.584943 
L 716.570466 100.4814 
L 717.396258 99.005105 
L 717.809154 98.454031 
L 718.222049 97.072621 
L 718.634945 96.826252 
L 719.873633 94.82318 
L 720.286529 94.402065 
L 720.699425 93.252863 
L 721.11232 93.041422 
L 721.525216 91.916766 
L 721.938112 89.20259 
L 722.351008 88.472179 
L 722.763904 85.79122 
L 723.1768 84.937955 
L 723.589696 84.350454 
L 724.415487 83.977313 
L 724.828383 82.494729 
L 725.241279 81.479083 
L 725.654175 81.421127 
L 726.067071 79.770709 
L 726.479967 79.161433 
L 726.892862 78.317492 
L 727.305758 78.229501 
L 727.718654 77.164229 
L 728.13155 76.867547 
L 728.957342 75.253522 
L 729.783134 74.675561 
L 730.196029 73.47483 
L 730.608925 72.761161 
L 731.021821 72.519624 
L 731.434717 71.678939 
L 731.847613 71.630868 
L 732.260509 69.947443 
L 733.499196 68.361878 
L 733.912092 66.665379 
L 734.324988 66.628159 
L 734.737884 65.718893 
L 735.15078 63.453426 
L 735.563676 63.32137 
L 735.976571 62.936242 
L 736.389467 62.202251 
L 736.802363 61.94831 
L 737.215259 61.86214 
L 737.628155 61.408861 
L 738.041051 60.552858 
L 738.453947 59.026683 
L 738.866842 58.605004 
L 739.279738 57.888574 
L 740.10553 57.35685 
L 740.514022 56.118466 
L 740.514022 56.118466 
" style="fill:none;stroke:#b8860b;stroke-linecap:square;stroke-opacity:0.75;stroke-width:2;"/>
   </g>
   <g id="line2d_15">
    <path clip-path="url(#p3cbf4f5cdb)" d="M 446.943707 307.8 
L 478.736617 307.70131 
L 479.730478 307.533842 
L 485.69364 307.402655 
L 487.681361 307.29674 
L 489.669082 307.157805 
L 491.656803 306.825095 
L 492.650664 306.423041 
L 494.638384 306.257543 
L 495.632245 306.043271 
L 500.601547 305.602198 
L 501.595408 305.358152 
L 506.56471 305.201709 
L 508.552431 304.726709 
L 509.546291 304.676331 
L 510.540152 304.322246 
L 511.534012 303.838963 
L 513.521733 303.645417 
L 514.515594 303.17928 
L 515.509454 303.097131 
L 516.503315 302.876552 
L 525.448059 302.004874 
L 526.441919 301.816058 
L 527.43578 301.7777 
L 528.42964 301.469019 
L 531.411221 301.124415 
L 532.405082 300.8133 
L 534.392803 299.710975 
L 535.386663 299.24197 
L 536.380524 299.022337 
L 537.374384 298.68213 
L 539.362105 298.253985 
L 540.355966 297.359402 
L 542.343686 296.158654 
L 546.319128 295.451012 
L 547.312989 294.944421 
L 550.29457 294.404338 
L 551.288431 294.383822 
L 552.282291 293.405237 
L 553.276151 293.07456 
L 554.270012 292.943362 
L 556.257733 292.205001 
L 557.251593 291.190872 
L 558.245454 289.121951 
L 559.239314 288.636171 
L 560.233175 287.419449 
L 561.227035 286.884579 
L 562.220896 285.213089 
L 564.208616 284.533395 
L 569.177919 284.20975 
L 570.171779 283.29532 
L 571.16564 282.746019 
L 572.1595 282.685963 
L 573.153361 282.426458 
L 574.147221 282.368678 
L 575.141082 281.532992 
L 576.134942 280.311952 
L 578.122663 279.932985 
L 579.116523 279.318659 
L 581.104244 279.163166 
L 582.098105 278.10773 
L 584.085826 277.960004 
L 585.079686 277.394048 
L 586.073547 277.069512 
L 587.067407 275.957333 
L 588.061267 275.708255 
L 589.055128 274.103369 
L 591.042849 273.941681 
L 592.036709 271.438299 
L 593.03057 271.335123 
L 594.02443 271.097677 
L 595.018291 269.471117 
L 597.006012 269.100002 
L 597.999872 268.597301 
L 598.993733 267.887788 
L 599.987593 265.941191 
L 600.981453 265.920466 
L 601.975314 265.115823 
L 603.963035 264.345227 
L 604.956895 264.25902 
L 605.950756 263.910706 
L 606.944616 261.686643 
L 607.938477 260.316778 
L 608.932337 258.062537 
L 609.926198 257.878851 
L 610.920058 256.3787 
L 611.913918 256.086251 
L 613.901639 253.157431 
L 614.8955 252.716412 
L 615.88936 250.210679 
L 616.883221 249.86482 
L 617.877081 248.084914 
L 618.870942 244.676646 
L 619.864802 243.64444 
L 620.858663 241.978035 
L 622.846384 239.812111 
L 623.840244 239.380757 
L 624.834104 238.695035 
L 625.827965 237.431558 
L 628.809546 237.198886 
L 629.803407 236.611512 
L 631.791128 233.790865 
L 632.784988 233.681284 
L 633.778849 232.947712 
L 634.772709 229.783681 
L 636.76043 226.090976 
L 637.75429 225.84954 
L 639.742011 225.638072 
L 640.735872 224.621746 
L 641.729732 223.818841 
L 642.723593 222.321133 
L 643.717453 221.474795 
L 644.711314 221.455063 
L 645.705174 220.464538 
L 646.699034 219.153266 
L 647.692895 218.60118 
L 648.686755 217.449563 
L 649.680616 215.278859 
L 650.674476 213.687681 
L 651.668337 207.782495 
L 652.662197 206.934014 
L 653.656058 206.483848 
L 654.649918 206.384407 
L 655.643779 206.059363 
L 656.637639 205.476769 
L 657.6315 205.177683 
L 658.62536 202.682831 
L 659.61922 201.619346 
L 660.613081 201.526837 
L 661.606941 197.579907 
L 662.600802 197.122297 
L 663.594662 194.840197 
L 665.582383 192.911034 
L 666.576244 192.818572 
L 667.570104 191.679568 
L 668.563965 190.869861 
L 670.551685 189.953511 
L 671.545546 189.185142 
L 672.539406 188.175746 
L 673.533267 182.711155 
L 675.520988 181.935322 
L 676.514848 181.671541 
L 677.508709 180.761053 
L 678.502569 180.233904 
L 679.49643 179.92848 
L 682.478011 178.174601 
L 683.471871 177.038984 
L 684.465732 176.66937 
L 685.459592 176.043882 
L 686.453453 172.415543 
L 687.447313 171.502747 
L 688.441174 168.494961 
L 689.435034 168.218766 
L 690.428895 166.716773 
L 691.422755 161.994666 
L 692.416616 160.133934 
L 693.410476 159.856298 
L 694.404336 157.128791 
L 695.398197 157.071547 
L 696.392057 154.068143 
L 697.385918 150.4553 
L 698.379778 150.447482 
L 699.373639 148.883639 
L 700.367499 148.350071 
L 701.36136 145.828103 
L 702.35522 143.719682 
L 703.349081 143.129624 
L 704.342941 138.130271 
L 705.336801 127.607004 
L 706.330662 125.221708 
L 707.324522 123.849005 
L 708.318383 123.071081 
L 709.312243 122.123515 
L 710.306104 115.688237 
L 711.299964 115.248855 
L 713.287685 113.743859 
L 714.281546 113.385538 
L 715.275406 111.752238 
L 716.269267 111.18881 
L 717.263127 111.006526 
L 718.256987 109.48605 
L 719.250848 104.296722 
L 720.244708 102.88561 
L 721.238569 100.4814 
L 722.232429 99.005105 
L 723.22629 98.454031 
L 724.22015 94.82318 
L 725.214011 81.421127 
L 727.201732 77.164229 
L 728.195592 76.867547 
L 729.189452 75.945556 
L 731.177173 73.47483 
L 733.164894 71.630868 
L 734.158755 69.428101 
L 735.152615 66.665379 
L 736.146476 66.628159 
L 737.140336 62.936242 
L 738.134197 61.86214 
L 739.128057 58.605004 
L 740.111293 56.118466 
L 740.111293 56.118466 
" style="fill:none;stroke:#8b0000;stroke-linecap:square;stroke-opacity:0.75;stroke-width:2;"/>
   </g>
   <g id="line2d_16">
    <path clip-path="url(#p3cbf4f5cdb)" d="M 448.441917 307.8 
L 451.56268 307.8 
L 454.717453 307.8 
L 457.872227 307.8 
L 461.027001 307.799999 
L 464.181775 307.799998 
L 467.336549 307.799993 
L 470.491322 307.799904 
L 473.646096 307.799077 
L 476.80087 307.79611 
L 479.955644 307.79199 
L 483.110417 307.770229 
L 486.265191 307.768234 
L 489.419965 307.751295 
L 492.574739 307.704618 
L 495.729513 307.533842 
L 498.884286 307.525644 
L 502.03906 307.484056 
L 505.193834 307.431856 
L 508.348608 307.402655 
L 511.503382 307.402655 
L 514.658155 307.308279 
L 517.812929 306.950948 
L 520.967703 306.825095 
L 524.122477 306.392767 
L 527.27725 305.96375 
L 530.432024 305.861927 
L 533.586798 305.854567 
L 536.741572 305.741378 
L 539.896346 305.26323 
L 543.051119 304.322246 
L 546.205893 302.28556 
L 549.360667 301.816058 
L 552.515441 300.8133 
L 555.670215 300.219065 
L 558.824988 298.68213 
L 561.979762 298.480602 
L 565.134536 297.359402 
L 568.28931 296.72472 
L 571.444083 295.451012 
L 574.598857 294.944421 
L 577.753631 294.404338 
L 580.908405 292.943362 
L 584.063179 292.518781 
L 587.217952 289.121951 
L 590.372726 284.479814 
L 593.5275 284.474292 
L 596.682274 284.212535 
L 599.837048 283.29532 
L 602.991821 282.746019 
L 606.146595 282.426458 
L 609.301369 282.368678 
L 612.456143 280.169784 
L 615.610917 277.394048 
L 618.76569 271.438299 
L 621.920464 269.471117 
L 625.075238 267.887788 
L 628.230012 265.941191 
L 631.384785 264.676692 
L 634.539559 260.316778 
L 637.694333 256.3787 
L 640.849107 256.086251 
L 644.003881 254.608574 
L 647.158654 253.157431 
L 650.313428 249.86482 
L 653.468202 240.90457 
L 656.622976 237.431558 
L 659.77775 235.132051 
L 662.932523 233.681284 
L 666.087297 229.783681 
L 669.242071 221.474795 
L 672.396845 218.60118 
L 675.551618 217.449563 
L 678.706392 213.687681 
L 681.861166 206.483848 
L 685.01594 189.953511 
L 688.170714 182.711155 
L 691.325487 180.233904 
L 694.480261 179.92848 
L 697.635035 178.174601 
L 700.789809 176.043882 
L 703.944583 168.494961 
L 707.099356 160.133934 
L 710.25413 115.688237 
L 713.408904 113.385538 
L 716.563678 111.006526 
L 719.718451 81.421127 
L 722.873225 75.945556 
L 726.027999 72.519624 
L 729.182773 71.630868 
L 732.337547 69.428101 
L 735.49232 61.86214 
L 738.613083 58.605004 
" style="fill:none;stroke:#000080;stroke-linecap:square;stroke-opacity:0.75;stroke-width:2;"/>
   </g>
   <g id="line2d_17">
    <path clip-path="url(#p3cbf4f5cdb)" d="M 446.254773 295.2 
L 740.800227 295.2 
" style="fill:none;stroke:#ff0000;stroke-dasharray:3.7,1.6;stroke-dashoffset:0;"/>
   </g>
   <g id="patch_6">
    <path d="M 431.5275 320.4 
L 431.5275 43.2 
" style="fill:none;stroke:#000000;stroke-linecap:square;stroke-linejoin:miter;stroke-width:0.8;"/>
   </g>
   <g id="patch_7">
    <path d="M 431.5275 320.4 
L 755.5275 320.4 
" style="fill:none;stroke:#000000;stroke-linecap:square;stroke-linejoin:miter;stroke-width:0.8;"/>
   </g>
   <g id="text_14">
    <!-- Trapnell -->
    <defs>
     <path d="M -0.296875 72.90625 
L 61.375 72.90625 
L 61.375 64.59375 
L 35.5 64.59375 
L 35.5 0 
L 25.59375 0 
L 25.59375 64.59375 
L -0.296875 64.59375 
z
" id="DejaVuSans-84"/>
     <path d="M 41.109375 46.296875 
Q 39.59375 47.171875 37.8125 47.578125 
Q 36.03125 48 33.890625 48 
Q 26.265625 48 22.1875 43.046875 
Q 18.109375 38.09375 18.109375 28.8125 
L 18.109375 0 
L 9.078125 0 
L 9.078125 54.6875 
L 18.109375 54.6875 
L 18.109375 46.1875 
Q 20.953125 51.171875 25.484375 53.578125 
Q 30.03125 56 36.53125 56 
Q 37.453125 56 38.578125 55.875 
Q 39.703125 55.765625 41.0625 55.515625 
z
" id="DejaVuSans-114"/>
    </defs>
    <g transform="translate(460.982045 77.075625)scale(0.28 -0.28)">
     <use xlink:href="#DejaVuSans-84"/>
     <use x="60.865234" xlink:href="#DejaVuSans-114"/>
     <use x="101.978516" xlink:href="#DejaVuSans-97"/>
     <use x="163.257812" xlink:href="#DejaVuSans-112"/>
     <use x="226.734375" xlink:href="#DejaVuSans-110"/>
     <use x="290.113281" xlink:href="#DejaVuSans-101"/>
     <use x="351.636719" xlink:href="#DejaVuSans-108"/>
     <use x="379.419922" xlink:href="#DejaVuSans-108"/>
    </g>
   </g>
  </g>
  <g id="axes_3">
   <g id="patch_8">
    <path d="M 771.7275 320.4 
L 1095.7275 320.4 
L 1095.7275 43.2 
L 771.7275 43.2 
z
" style="fill:none;"/>
   </g>
   <g id="matplotlib.axis_5">
    <g id="xtick_7">
     <g id="line2d_18">
      <g>
       <use style="stroke:#000000;stroke-width:0.8;" x="786.454773" xlink:href="#m11871a06a1" y="320.4"/>
      </g>
     </g>
     <g id="text_15">
      <!-- 0 -->
      <g transform="translate(777.547273 350.175625)scale(0.28 -0.28)">
       <use xlink:href="#DejaVuSans-48"/>
      </g>
     </g>
    </g>
    <g id="xtick_8">
     <g id="line2d_19">
      <g>
       <use style="stroke:#000000;stroke-width:0.8;" x="933.7275" xlink:href="#m11871a06a1" y="320.4"/>
      </g>
     </g>
     <g id="text_16">
      <!-- 0.5 -->
      <g transform="translate(911.463125 350.175625)scale(0.28 -0.28)">
       <use xlink:href="#DejaVuSans-48"/>
       <use x="63.623047" xlink:href="#DejaVuSans-46"/>
       <use x="95.410156" xlink:href="#DejaVuSans-53"/>
      </g>
     </g>
    </g>
    <g id="xtick_9">
     <g id="line2d_20">
      <g>
       <use style="stroke:#000000;stroke-width:0.8;" x="1081.000227" xlink:href="#m11871a06a1" y="320.4"/>
      </g>
     </g>
     <g id="text_17">
      <!-- 1 -->
      <g transform="translate(1072.092727 350.175625)scale(0.28 -0.28)">
       <use xlink:href="#DejaVuSans-49"/>
      </g>
     </g>
    </g>
    <g id="text_18">
     <!-- Quantiles -->
     <g transform="translate(867.207812 381.274375)scale(0.28 -0.28)">
      <use xlink:href="#DejaVuSans-81"/>
      <use x="78.710938" xlink:href="#DejaVuSans-117"/>
      <use x="142.089844" xlink:href="#DejaVuSans-97"/>
      <use x="203.369141" xlink:href="#DejaVuSans-110"/>
      <use x="266.748047" xlink:href="#DejaVuSans-116"/>
      <use x="305.957031" xlink:href="#DejaVuSans-105"/>
      <use x="333.740234" xlink:href="#DejaVuSans-108"/>
      <use x="361.523438" xlink:href="#DejaVuSans-101"/>
      <use x="423.046875" xlink:href="#DejaVuSans-115"/>
     </g>
    </g>
   </g>
   <g id="matplotlib.axis_6">
    <g id="ytick_7"/>
    <g id="ytick_8"/>
    <g id="ytick_9"/>
   </g>
   <g id="line2d_21">
    <path clip-path="url(#p0c84bb784f)" d="M 786.99297 307.8 
L 880.931141 307.690099 
L 891.800979 307.505039 
L 895.683065 307.444157 
L 905.000069 307.256076 
L 908.105737 307.141427 
L 908.882154 306.916782 
L 915.869908 306.66437 
L 917.422742 306.518221 
L 922.081244 306.299842 
L 923.634078 306.204588 
L 924.410495 306.204152 
L 925.186912 306.005429 
L 926.739747 305.825857 
L 927.516164 305.689954 
L 929.845415 305.610141 
L 931.398249 305.396154 
L 936.056751 304.971648 
L 936.833168 304.926453 
L 937.609585 304.659326 
L 942.268088 304.322778 
L 943.820922 303.858177 
L 944.597339 303.837354 
L 945.373756 303.36668 
L 946.92659 303.058489 
L 947.703007 302.301243 
L 948.479424 302.229576 
L 949.255841 301.936212 
L 953.137926 301.531196 
L 953.914343 301.100317 
L 956.243594 300.902904 
L 957.796429 300.587817 
L 958.572846 300.187854 
L 959.349263 300.177351 
L 960.12568 299.456168 
L 960.902097 299.424654 
L 961.678514 298.594449 
L 962.454931 298.43971 
L 964.007765 297.830072 
L 964.784182 297.745246 
L 965.560599 296.787053 
L 967.113433 296.126651 
L 970.219101 295.44216 
L 970.995518 295.361256 
L 971.771935 294.976969 
L 974.101187 294.80496 
L 974.877604 294.496586 
L 975.654021 293.902152 
L 976.430438 293.457079 
L 977.206855 292.69497 
L 977.983272 291.64646 
L 978.759689 291.643282 
L 979.536106 290.919019 
L 980.312523 290.357839 
L 981.08894 289.616851 
L 981.865357 289.525833 
L 983.418191 288.580245 
L 984.971025 288.382791 
L 986.523859 287.125225 
L 987.300277 286.263136 
L 988.076694 285.612729 
L 988.853111 282.40785 
L 989.629528 282.097084 
L 991.182362 281.779353 
L 991.958779 280.680608 
L 992.735196 280.338986 
L 993.511613 280.188008 
L 994.28803 279.65942 
L 995.064447 279.540219 
L 995.840864 278.555241 
L 996.617281 277.96809 
L 997.393698 276.757421 
L 998.170115 272.450374 
L 998.946532 271.129589 
L 999.722949 271.052404 
L 1001.275783 270.341415 
L 1002.0522 269.613109 
L 1002.828618 267.879576 
L 1003.605035 267.44247 
L 1004.381452 265.780852 
L 1005.157869 265.687831 
L 1006.710703 264.477144 
L 1009.039954 263.096275 
L 1009.816371 262.782191 
L 1010.592788 260.971294 
L 1011.369205 258.763658 
L 1012.145622 258.296453 
L 1012.922039 254.410095 
L 1013.698456 253.919953 
L 1014.474873 253.072516 
L 1015.25129 252.716485 
L 1016.027707 252.125217 
L 1016.804124 249.71043 
L 1017.580542 246.789135 
L 1018.356959 244.712356 
L 1019.133376 244.317555 
L 1019.909793 242.188203 
L 1020.68621 241.63216 
L 1021.462627 241.26509 
L 1022.239044 240.550981 
L 1023.015461 240.539702 
L 1023.791878 237.620661 
L 1024.568295 237.068028 
L 1025.344712 234.812769 
L 1026.121129 234.619315 
L 1026.897546 234.569328 
L 1027.673963 231.831054 
L 1028.45038 231.672105 
L 1029.226797 231.39208 
L 1030.003214 231.318872 
L 1030.779631 230.022436 
L 1031.556048 227.253918 
L 1033.108883 226.170526 
L 1033.8853 224.549092 
L 1034.661717 224.268898 
L 1035.438134 220.879579 
L 1036.214551 209.949983 
L 1036.990968 209.327084 
L 1037.767385 207.902149 
L 1038.543802 207.066003 
L 1039.320219 205.587176 
L 1040.096636 201.428987 
L 1040.873053 198.976982 
L 1041.64947 197.204049 
L 1042.425887 197.171052 
L 1043.202304 196.744451 
L 1043.978721 195.363002 
L 1044.755138 195.286615 
L 1045.531555 194.835149 
L 1046.307972 191.060254 
L 1047.084389 189.171186 
L 1047.860806 188.827313 
L 1048.637224 188.652593 
L 1049.413641 187.718016 
L 1050.190058 187.697579 
L 1050.966475 180.637234 
L 1051.742892 180.410893 
L 1052.519309 171.131985 
L 1053.295726 168.446846 
L 1054.072143 168.019838 
L 1054.84856 164.328784 
L 1055.624977 162.66325 
L 1056.401394 161.725025 
L 1057.177811 149.210634 
L 1057.954228 139.921557 
L 1059.507062 139.47714 
L 1060.283479 137.625258 
L 1061.059896 133.721972 
L 1061.836313 128.795118 
L 1062.61273 127.996194 
L 1063.389148 127.558727 
L 1064.941982 123.924157 
L 1065.718399 121.075709 
L 1066.494816 119.14997 
L 1067.271233 118.782122 
L 1068.824067 116.009009 
L 1069.600484 111.251526 
L 1070.376901 108.994557 
L 1071.153318 107.454246 
L 1071.929735 106.905265 
L 1073.482569 104.37059 
L 1074.258986 96.164409 
L 1075.81182 92.51401 
L 1076.588237 92.343377 
L 1077.364654 91.090058 
L 1078.917489 89.547072 
L 1079.693906 76.086938 
L 1080.46203 74.999966 
L 1080.46203 74.999966 
" style="fill:none;stroke:#b8860b;stroke-linecap:square;stroke-opacity:0.75;stroke-width:2;"/>
   </g>
   <g id="line2d_22">
    <path clip-path="url(#p0c84bb784f)" d="M 787.026104 307.8 
L 885.923053 307.690099 
L 897.462057 307.505039 
L 901.58313 307.436126 
L 909.825276 307.256076 
L 913.122135 307.141427 
L 913.946349 306.916782 
L 920.540066 306.66437 
L 922.188495 306.518221 
L 927.133783 306.299842 
L 928.782212 306.204588 
L 929.606427 306.204152 
L 930.430642 306.005429 
L 932.079071 305.825857 
L 932.903285 305.689954 
L 935.375929 305.610141 
L 937.024358 305.396154 
L 941.969646 304.926453 
L 942.793861 304.659326 
L 947.739148 304.322778 
L 949.387578 303.858177 
L 950.211792 303.837354 
L 951.036007 303.36668 
L 952.684436 303.058489 
L 953.508651 302.301243 
L 954.332865 302.229576 
L 955.15708 301.936212 
L 958.453938 301.531196 
L 959.278153 301.100317 
L 961.750797 300.902904 
L 963.399226 300.587817 
L 964.223441 300.187854 
L 965.047655 300.177351 
L 965.87187 299.456168 
L 966.696084 299.424654 
L 967.520299 298.594449 
L 968.344514 298.43971 
L 969.992943 297.830072 
L 970.817158 297.745246 
L 971.641372 296.787053 
L 973.289801 296.126651 
L 976.58666 295.361256 
L 977.410874 294.976969 
L 979.883518 294.80496 
L 980.707733 294.496586 
L 981.531947 293.902152 
L 982.356162 293.457079 
L 983.180377 292.69497 
L 984.004591 291.64646 
L 984.828806 291.643282 
L 985.653021 290.919019 
L 986.477235 290.357839 
L 987.30145 289.616851 
L 988.125664 289.525833 
L 989.774094 288.580245 
L 991.422523 288.382791 
L 992.246737 287.125225 
L 993.070952 286.263136 
L 993.895167 285.612729 
L 994.719381 282.40785 
L 995.543596 281.975193 
L 996.36781 281.779353 
L 997.192025 280.680608 
L 998.840454 279.65942 
L 999.664669 279.540219 
L 1000.488884 278.555241 
L 1001.313098 276.757421 
L 1002.137313 272.450374 
L 1002.961527 271.129589 
L 1003.785742 270.655129 
L 1004.609957 270.341415 
L 1005.434171 269.613109 
L 1006.258386 267.879576 
L 1007.0826 267.44247 
L 1007.906815 265.780852 
L 1008.73103 265.687831 
L 1010.379459 264.477144 
L 1012.852103 263.096275 
L 1013.676317 262.782191 
L 1014.500532 260.971294 
L 1015.324747 258.763658 
L 1016.148961 258.296453 
L 1016.973176 254.410095 
L 1017.79739 253.919953 
L 1018.621605 253.072516 
L 1019.44582 252.716485 
L 1020.270034 252.125217 
L 1021.094249 249.71043 
L 1021.918463 246.789135 
L 1022.742678 244.712356 
L 1023.566893 244.317555 
L 1024.391107 242.188203 
L 1025.215322 241.63216 
L 1026.039536 241.26509 
L 1026.863751 240.550981 
L 1027.687966 240.539702 
L 1028.51218 237.620661 
L 1029.336395 237.068028 
L 1030.16061 234.619315 
L 1030.984824 234.569328 
L 1031.809039 231.831054 
L 1032.633253 231.672105 
L 1033.457468 231.39208 
L 1034.281683 231.318872 
L 1035.105897 227.253918 
L 1036.754326 226.170526 
L 1037.578541 224.549092 
L 1038.402756 224.268898 
L 1039.22697 220.879579 
L 1040.051185 209.949983 
L 1040.875399 207.066003 
L 1041.699614 201.428987 
L 1042.523829 198.976982 
L 1043.348043 197.204049 
L 1044.172258 197.171052 
L 1044.996473 196.744451 
L 1045.820687 195.363002 
L 1046.644902 195.286615 
L 1047.469116 194.835149 
L 1048.293331 191.060254 
L 1049.117546 189.171186 
L 1049.94176 188.827313 
L 1050.765975 188.652593 
L 1051.590189 187.718016 
L 1052.414404 187.697579 
L 1053.238619 180.637234 
L 1054.062833 180.410893 
L 1054.887048 164.328784 
L 1055.711262 162.66325 
L 1056.535477 161.725025 
L 1057.359692 149.210634 
L 1058.183906 139.921557 
L 1059.008121 139.689703 
L 1059.832336 137.625258 
L 1060.65655 133.721972 
L 1061.480765 128.795118 
L 1062.304979 127.996194 
L 1063.129194 127.558727 
L 1064.777623 123.924157 
L 1065.601838 121.075709 
L 1066.426052 119.14997 
L 1067.250267 118.782122 
L 1068.898696 116.009009 
L 1069.722911 111.251526 
L 1070.547125 108.994557 
L 1071.37134 107.454246 
L 1072.195555 105.642432 
L 1073.019769 104.37059 
L 1073.843984 96.164409 
L 1075.492413 92.51401 
L 1076.316628 92.343377 
L 1077.140842 91.090058 
L 1078.789272 89.547072 
L 1079.613486 76.086938 
L 1080.428896 74.999966 
L 1080.428896 74.999966 
" style="fill:none;stroke:#8b0000;stroke-linecap:square;stroke-opacity:0.75;stroke-width:2;"/>
   </g>
   <g id="line2d_23">
    <path clip-path="url(#p0c84bb784f)" d="M 788.411354 307.8 
L 791.20323 307.8 
L 794.025493 307.8 
L 796.847755 307.8 
L 799.670018 307.8 
L 802.492281 307.8 
L 805.314544 307.8 
L 808.136806 307.8 
L 810.959069 307.8 
L 813.781332 307.8 
L 816.603595 307.8 
L 819.425858 307.8 
L 822.24812 307.8 
L 825.070383 307.8 
L 827.892646 307.8 
L 830.714909 307.8 
L 833.537171 307.8 
L 836.359434 307.8 
L 839.181697 307.799999 
L 842.00396 307.799999 
L 844.826223 307.799997 
L 847.648485 307.799997 
L 850.470748 307.799997 
L 853.293011 307.799995 
L 856.115274 307.799992 
L 858.937536 307.79998 
L 861.759799 307.799978 
L 864.582062 307.799972 
L 867.404325 307.799964 
L 870.226588 307.799961 
L 873.04885 307.799929 
L 875.871113 307.799897 
L 878.693376 307.799877 
L 881.515639 307.799864 
L 884.337901 307.799507 
L 887.160164 307.799175 
L 889.982427 307.799097 
L 892.80469 307.797623 
L 895.626953 307.797403 
L 898.449215 307.795873 
L 901.271478 307.795755 
L 904.093741 307.795676 
L 906.916004 307.786016 
L 909.738266 307.785839 
L 912.560529 307.773796 
L 915.382792 307.771872 
L 918.205055 307.771205 
L 921.027318 307.761938 
L 923.84958 307.757469 
L 926.671843 307.756206 
L 929.494106 307.748565 
L 932.316369 307.740897 
L 935.138631 307.740345 
L 937.960894 307.729812 
L 940.783157 307.707676 
L 943.60542 307.6105 
L 946.427682 307.607154 
L 949.249945 307.598662 
L 952.072208 307.570348 
L 954.894471 307.436126 
L 957.716734 307.141427 
L 960.538996 306.916782 
L 963.361259 306.870024 
L 966.183522 306.772304 
L 969.005785 306.204588 
L 971.828047 306.204152 
L 974.65031 305.470163 
L 977.472573 305.309751 
L 980.294836 304.98001 
L 983.117099 304.576681 
L 985.939361 303.837354 
L 988.761624 301.936212 
L 991.583887 301.053346 
L 994.40615 300.587817 
L 997.228412 300.187854 
L 1000.050675 298.594449 
L 1002.872938 297.830072 
L 1005.695201 295.361256 
L 1008.517464 294.946322 
L 1011.339726 293.457079 
L 1014.161989 286.263136 
L 1016.984252 281.975193 
L 1019.806515 280.680608 
L 1022.628777 270.341415 
L 1025.45104 265.780852 
L 1028.273303 265.687831 
L 1031.095566 265.069228 
L 1033.917829 264.477144 
L 1036.740091 263.597779 
L 1039.562354 263.096275 
L 1042.384617 260.971294 
L 1045.20688 253.919953 
L 1048.029142 241.26509 
L 1050.851405 240.539702 
L 1053.673668 237.620661 
L 1056.495931 207.066003 
L 1059.318194 197.171052 
L 1062.140456 195.286615 
L 1064.962719 139.921557 
L 1067.784982 108.994557 
L 1070.607245 94.360463 
L 1073.429507 90.332968 
L 1076.25177 89.547072 
L 1079.043646 74.999966 
" style="fill:none;stroke:#000080;stroke-linecap:square;stroke-opacity:0.75;stroke-width:2;"/>
   </g>
   <g id="line2d_24">
    <path clip-path="url(#p0c84bb784f)" d="M 786.454773 295.2 
L 1081.000227 295.2 
" style="fill:none;stroke:#ff0000;stroke-dasharray:3.7,1.6;stroke-dashoffset:0;"/>
   </g>
   <g id="patch_9">
    <path d="M 771.7275 320.4 
L 771.7275 43.2 
" style="fill:none;stroke:#000000;stroke-linecap:square;stroke-linejoin:miter;stroke-width:0.8;"/>
   </g>
   <g id="patch_10">
    <path d="M 771.7275 320.4 
L 1095.7275 320.4 
" style="fill:none;stroke:#000000;stroke-linecap:square;stroke-linejoin:miter;stroke-width:0.8;"/>
   </g>
   <g id="text_19">
    <!-- Song -->
    <defs>
     <path d="M 53.515625 70.515625 
L 53.515625 60.890625 
Q 47.90625 63.578125 42.921875 64.890625 
Q 37.9375 66.21875 33.296875 66.21875 
Q 25.25 66.21875 20.875 63.09375 
Q 16.5 59.96875 16.5 54.203125 
Q 16.5 49.359375 19.40625 46.890625 
Q 22.3125 44.4375 30.421875 42.921875 
L 36.375 41.703125 
Q 47.40625 39.59375 52.65625 34.296875 
Q 57.90625 29 57.90625 20.125 
Q 57.90625 9.515625 50.796875 4.046875 
Q 43.703125 -1.421875 29.984375 -1.421875 
Q 24.8125 -1.421875 18.96875 -0.25 
Q 13.140625 0.921875 6.890625 3.21875 
L 6.890625 13.375 
Q 12.890625 10.015625 18.65625 8.296875 
Q 24.421875 6.59375 29.984375 6.59375 
Q 38.421875 6.59375 43.015625 9.90625 
Q 47.609375 13.234375 47.609375 19.390625 
Q 47.609375 24.75 44.3125 27.78125 
Q 41.015625 30.8125 33.5 32.328125 
L 27.484375 33.5 
Q 16.453125 35.6875 11.515625 40.375 
Q 6.59375 45.0625 6.59375 53.421875 
Q 6.59375 63.09375 13.40625 68.65625 
Q 20.21875 74.21875 32.171875 74.21875 
Q 37.3125 74.21875 42.625 73.28125 
Q 47.953125 72.359375 53.515625 70.515625 
z
" id="DejaVuSans-83"/>
     <path d="M 30.609375 48.390625 
Q 23.390625 48.390625 19.1875 42.75 
Q 14.984375 37.109375 14.984375 27.296875 
Q 14.984375 17.484375 19.15625 11.84375 
Q 23.34375 6.203125 30.609375 6.203125 
Q 37.796875 6.203125 41.984375 11.859375 
Q 46.1875 17.53125 46.1875 27.296875 
Q 46.1875 37.015625 41.984375 42.703125 
Q 37.796875 48.390625 30.609375 48.390625 
z
M 30.609375 56 
Q 42.328125 56 49.015625 48.375 
Q 55.71875 40.765625 55.71875 27.296875 
Q 55.71875 13.875 49.015625 6.21875 
Q 42.328125 -1.421875 30.609375 -1.421875 
Q 18.84375 -1.421875 12.171875 6.21875 
Q 5.515625 13.875 5.515625 27.296875 
Q 5.515625 40.765625 12.171875 48.375 
Q 18.84375 56 30.609375 56 
z
" id="DejaVuSans-111"/>
     <path d="M 45.40625 27.984375 
Q 45.40625 37.75 41.375 43.109375 
Q 37.359375 48.484375 30.078125 48.484375 
Q 22.859375 48.484375 18.828125 43.109375 
Q 14.796875 37.75 14.796875 27.984375 
Q 14.796875 18.265625 18.828125 12.890625 
Q 22.859375 7.515625 30.078125 7.515625 
Q 37.359375 7.515625 41.375 12.890625 
Q 45.40625 18.265625 45.40625 27.984375 
z
M 54.390625 6.78125 
Q 54.390625 -7.171875 48.1875 -13.984375 
Q 42 -20.796875 29.203125 -20.796875 
Q 24.46875 -20.796875 20.265625 -20.09375 
Q 16.0625 -19.390625 12.109375 -17.921875 
L 12.109375 -9.1875 
Q 16.0625 -11.328125 19.921875 -12.34375 
Q 23.78125 -13.375 27.78125 -13.375 
Q 36.625 -13.375 41.015625 -8.765625 
Q 45.40625 -4.15625 45.40625 5.171875 
L 45.40625 9.625 
Q 42.625 4.78125 38.28125 2.390625 
Q 33.9375 0 27.875 0 
Q 17.828125 0 11.671875 7.65625 
Q 5.515625 15.328125 5.515625 27.984375 
Q 5.515625 40.671875 11.671875 48.328125 
Q 17.828125 56 27.875 56 
Q 33.9375 56 38.28125 53.609375 
Q 42.625 51.21875 45.40625 46.390625 
L 45.40625 54.6875 
L 54.390625 54.6875 
z
" id="DejaVuSans-103"/>
    </defs>
    <g transform="translate(801.182045 77.075625)scale(0.28 -0.28)">
     <use xlink:href="#DejaVuSans-83"/>
     <use x="63.476562" xlink:href="#DejaVuSans-111"/>
     <use x="124.658203" xlink:href="#DejaVuSans-110"/>
     <use x="188.037109" xlink:href="#DejaVuSans-103"/>
    </g>
   </g>
  </g>
  <g id="text_20">
   <!-- p-values of Kruskal-Wallis test -->
   <defs>
    <path id="DejaVuSans-32"/>
    <path d="M 37.109375 75.984375 
L 37.109375 68.5 
L 28.515625 68.5 
Q 23.6875 68.5 21.796875 66.546875 
Q 19.921875 64.59375 19.921875 59.515625 
L 19.921875 54.6875 
L 34.71875 54.6875 
L 34.71875 47.703125 
L 19.921875 47.703125 
L 19.921875 0 
L 10.890625 0 
L 10.890625 47.703125 
L 2.296875 47.703125 
L 2.296875 54.6875 
L 10.890625 54.6875 
L 10.890625 58.5 
Q 10.890625 67.625 15.140625 71.796875 
Q 19.390625 75.984375 28.609375 75.984375 
z
" id="DejaVuSans-102"/>
    <path d="M 9.8125 72.90625 
L 19.671875 72.90625 
L 19.671875 42.09375 
L 52.390625 72.90625 
L 65.09375 72.90625 
L 28.90625 38.921875 
L 67.671875 0 
L 54.6875 0 
L 19.671875 35.109375 
L 19.671875 0 
L 9.8125 0 
z
" id="DejaVuSans-75"/>
    <path d="M 9.078125 75.984375 
L 18.109375 75.984375 
L 18.109375 31.109375 
L 44.921875 54.6875 
L 56.390625 54.6875 
L 27.390625 29.109375 
L 57.625 0 
L 45.90625 0 
L 18.109375 26.703125 
L 18.109375 0 
L 9.078125 0 
z
" id="DejaVuSans-107"/>
    <path d="M 3.328125 72.90625 
L 13.28125 72.90625 
L 28.609375 11.28125 
L 43.890625 72.90625 
L 54.984375 72.90625 
L 70.3125 11.28125 
L 85.59375 72.90625 
L 95.609375 72.90625 
L 77.296875 0 
L 64.890625 0 
L 49.515625 63.28125 
L 33.984375 0 
L 21.578125 0 
z
" id="DejaVuSans-87"/>
   </defs>
   <g transform="translate(366.043437 28.475625)scale(0.28 -0.28)">
    <use xlink:href="#DejaVuSans-112"/>
    <use x="63.476562" xlink:href="#DejaVuSans-45"/>
    <use x="99.529297" xlink:href="#DejaVuSans-118"/>
    <use x="158.708984" xlink:href="#DejaVuSans-97"/>
    <use x="219.988281" xlink:href="#DejaVuSans-108"/>
    <use x="247.771484" xlink:href="#DejaVuSans-117"/>
    <use x="311.150391" xlink:href="#DejaVuSans-101"/>
    <use x="372.673828" xlink:href="#DejaVuSans-115"/>
    <use x="424.773438" xlink:href="#DejaVuSans-32"/>
    <use x="456.560547" xlink:href="#DejaVuSans-111"/>
    <use x="517.742188" xlink:href="#DejaVuSans-102"/>
    <use x="552.947266" xlink:href="#DejaVuSans-32"/>
    <use x="584.734375" xlink:href="#DejaVuSans-75"/>
    <use x="650.310547" xlink:href="#DejaVuSans-114"/>
    <use x="691.423828" xlink:href="#DejaVuSans-117"/>
    <use x="754.802734" xlink:href="#DejaVuSans-115"/>
    <use x="806.902344" xlink:href="#DejaVuSans-107"/>
    <use x="864.796875" xlink:href="#DejaVuSans-97"/>
    <use x="926.076172" xlink:href="#DejaVuSans-108"/>
    <use x="953.859375" xlink:href="#DejaVuSans-45"/>
    <use x="989.880859" xlink:href="#DejaVuSans-87"/>
    <use x="1088.664062" xlink:href="#DejaVuSans-97"/>
    <use x="1149.943359" xlink:href="#DejaVuSans-108"/>
    <use x="1177.726562" xlink:href="#DejaVuSans-108"/>
    <use x="1205.509766" xlink:href="#DejaVuSans-105"/>
    <use x="1233.292969" xlink:href="#DejaVuSans-115"/>
    <use x="1285.392578" xlink:href="#DejaVuSans-32"/>
    <use x="1317.179688" xlink:href="#DejaVuSans-116"/>
    <use x="1356.388672" xlink:href="#DejaVuSans-101"/>
    <use x="1417.912109" xlink:href="#DejaVuSans-115"/>
    <use x="1470.011719" xlink:href="#DejaVuSans-116"/>
   </g>
  </g>
 </g>
 <defs>
  <clipPath id="p4128a89b04">
   <rect height="277.2" width="324" x="91.3275" y="43.2"/>
  </clipPath>
  <clipPath id="p3cbf4f5cdb">
   <rect height="277.2" width="324" x="431.5275" y="43.2"/>
  </clipPath>
  <clipPath id="p0c84bb784f">
   <rect height="277.2" width="324" x="771.7275" y="43.2"/>
  </clipPath>
 </defs>
</svg>
