<?xml version="1.0" encoding="utf-8" standalone="no"?>
<!DOCTYPE svg PUBLIC "-//W3C//DTD SVG 1.1//EN"
  "http://www.w3.org/Graphics/SVG/1.1/DTD/svg11.dtd">
<!-- Created with matplotlib (https://matplotlib.org/) -->
<svg height="355.22125pt" version="1.1" viewBox="0 0 1102.9275 355.22125" width="1102.9275pt" xmlns="http://www.w3.org/2000/svg" xmlns:xlink="http://www.w3.org/1999/xlink">
 <defs>
  <style type="text/css">
*{stroke-linecap:butt;stroke-linejoin:round;}
  </style>
 </defs>
 <g id="figure_1">
  <g id="patch_1">
   <path d="M 0 355.22125 
L 1102.9275 355.22125 
L 1102.9275 0 
L 0 0 
z
" style="fill:none;"/>
  </g>
  <g id="axes_1">
   <g id="patch_2">
    <path d="M 91.3275 281.32375 
L 415.3275 281.32375 
L 415.3275 9.52375 
L 91.3275 9.52375 
z
" style="fill:none;"/>
   </g>
   <g id="matplotlib.axis_1">
    <g id="xtick_1">
     <g id="line2d_1">
      <defs>
       <path d="M 0 0 
L 0 5 
" id="mb63050b241" style="stroke:#000000;stroke-width:0.8;"/>
      </defs>
      <g>
       <use style="stroke:#000000;stroke-width:0.8;" x="106.054773" xlink:href="#mb63050b241" y="281.32375"/>
      </g>
     </g>
     <g id="text_1">
      <!-- 0 -->
      <defs>
       <path d="M 31.78125 66.40625 
Q 24.171875 66.40625 20.328125 58.90625 
Q 16.5 51.421875 16.5 36.375 
Q 16.5 21.390625 20.328125 13.890625 
Q 24.171875 6.390625 31.78125 6.390625 
Q 39.453125 6.390625 43.28125 13.890625 
Q 47.125 21.390625 47.125 36.375 
Q 47.125 51.421875 43.28125 58.90625 
Q 39.453125 66.40625 31.78125 66.40625 
z
M 31.78125 74.21875 
Q 44.046875 74.21875 50.515625 64.515625 
Q 56.984375 54.828125 56.984375 36.375 
Q 56.984375 17.96875 50.515625 8.265625 
Q 44.046875 -1.421875 31.78125 -1.421875 
Q 19.53125 -1.421875 13.0625 8.265625 
Q 6.59375 17.96875 6.59375 36.375 
Q 6.59375 54.828125 13.0625 64.515625 
Q 19.53125 74.21875 31.78125 74.21875 
z
" id="DejaVuSans-48"/>
      </defs>
      <g transform="translate(97.147273 311.099375)scale(0.28 -0.28)">
       <use xlink:href="#DejaVuSans-48"/>
      </g>
     </g>
    </g>
    <g id="xtick_2">
     <g id="line2d_2">
      <g>
       <use style="stroke:#000000;stroke-width:0.8;" x="253.3275" xlink:href="#mb63050b241" y="281.32375"/>
      </g>
     </g>
     <g id="text_2">
      <!-- 0.5 -->
      <defs>
       <path d="M 10.6875 12.40625 
L 21 12.40625 
L 21 0 
L 10.6875 0 
z
" id="DejaVuSans-46"/>
       <path d="M 10.796875 72.90625 
L 49.515625 72.90625 
L 49.515625 64.59375 
L 19.828125 64.59375 
L 19.828125 46.734375 
Q 21.96875 47.46875 24.109375 47.828125 
Q 26.265625 48.1875 28.421875 48.1875 
Q 40.625 48.1875 47.75 41.5 
Q 54.890625 34.8125 54.890625 23.390625 
Q 54.890625 11.625 47.5625 5.09375 
Q 40.234375 -1.421875 26.90625 -1.421875 
Q 22.3125 -1.421875 17.546875 -0.640625 
Q 12.796875 0.140625 7.71875 1.703125 
L 7.71875 11.625 
Q 12.109375 9.234375 16.796875 8.0625 
Q 21.484375 6.890625 26.703125 6.890625 
Q 35.15625 6.890625 40.078125 11.328125 
Q 45.015625 15.765625 45.015625 23.390625 
Q 45.015625 31 40.078125 35.4375 
Q 35.15625 39.890625 26.703125 39.890625 
Q 22.75 39.890625 18.8125 39.015625 
Q 14.890625 38.140625 10.796875 36.28125 
z
" id="DejaVuSans-53"/>
      </defs>
      <g transform="translate(231.063125 311.099375)scale(0.28 -0.28)">
       <use xlink:href="#DejaVuSans-48"/>
       <use x="63.623047" xlink:href="#DejaVuSans-46"/>
       <use x="95.410156" xlink:href="#DejaVuSans-53"/>
      </g>
     </g>
    </g>
    <g id="xtick_3">
     <g id="line2d_3">
      <g>
       <use style="stroke:#000000;stroke-width:0.8;" x="400.600227" xlink:href="#mb63050b241" y="281.32375"/>
      </g>
     </g>
     <g id="text_3">
      <!-- 1 -->
      <defs>
       <path d="M 12.40625 8.296875 
L 28.515625 8.296875 
L 28.515625 63.921875 
L 10.984375 60.40625 
L 10.984375 69.390625 
L 28.421875 72.90625 
L 38.28125 72.90625 
L 38.28125 8.296875 
L 54.390625 8.296875 
L 54.390625 0 
L 12.40625 0 
z
" id="DejaVuSans-49"/>
      </defs>
      <g transform="translate(391.692727 311.099375)scale(0.28 -0.28)">
       <use xlink:href="#DejaVuSans-49"/>
      </g>
     </g>
    </g>
    <g id="text_4">
     <!-- Quantiles -->
     <defs>
      <path d="M 39.40625 66.21875 
Q 28.65625 66.21875 22.328125 58.203125 
Q 16.015625 50.203125 16.015625 36.375 
Q 16.015625 22.609375 22.328125 14.59375 
Q 28.65625 6.59375 39.40625 6.59375 
Q 50.140625 6.59375 56.421875 14.59375 
Q 62.703125 22.609375 62.703125 36.375 
Q 62.703125 50.203125 56.421875 58.203125 
Q 50.140625 66.21875 39.40625 66.21875 
z
M 53.21875 1.3125 
L 66.21875 -12.890625 
L 54.296875 -12.890625 
L 43.5 -1.21875 
Q 41.890625 -1.3125 41.03125 -1.359375 
Q 40.1875 -1.421875 39.40625 -1.421875 
Q 24.03125 -1.421875 14.8125 8.859375 
Q 5.609375 19.140625 5.609375 36.375 
Q 5.609375 53.65625 14.8125 63.9375 
Q 24.03125 74.21875 39.40625 74.21875 
Q 54.734375 74.21875 63.90625 63.9375 
Q 73.09375 53.65625 73.09375 36.375 
Q 73.09375 23.6875 67.984375 14.640625 
Q 62.890625 5.609375 53.21875 1.3125 
z
" id="DejaVuSans-81"/>
      <path d="M 8.5 21.578125 
L 8.5 54.6875 
L 17.484375 54.6875 
L 17.484375 21.921875 
Q 17.484375 14.15625 20.5 10.265625 
Q 23.53125 6.390625 29.59375 6.390625 
Q 36.859375 6.390625 41.078125 11.03125 
Q 45.3125 15.671875 45.3125 23.6875 
L 45.3125 54.6875 
L 54.296875 54.6875 
L 54.296875 0 
L 45.3125 0 
L 45.3125 8.40625 
Q 42.046875 3.421875 37.71875 1 
Q 33.40625 -1.421875 27.6875 -1.421875 
Q 18.265625 -1.421875 13.375 4.4375 
Q 8.5 10.296875 8.5 21.578125 
z
M 31.109375 56 
z
" id="DejaVuSans-117"/>
      <path d="M 34.28125 27.484375 
Q 23.390625 27.484375 19.1875 25 
Q 14.984375 22.515625 14.984375 16.5 
Q 14.984375 11.71875 18.140625 8.90625 
Q 21.296875 6.109375 26.703125 6.109375 
Q 34.1875 6.109375 38.703125 11.40625 
Q 43.21875 16.703125 43.21875 25.484375 
L 43.21875 27.484375 
z
M 52.203125 31.203125 
L 52.203125 0 
L 43.21875 0 
L 43.21875 8.296875 
Q 40.140625 3.328125 35.546875 0.953125 
Q 30.953125 -1.421875 24.3125 -1.421875 
Q 15.921875 -1.421875 10.953125 3.296875 
Q 6 8.015625 6 15.921875 
Q 6 25.140625 12.171875 29.828125 
Q 18.359375 34.515625 30.609375 34.515625 
L 43.21875 34.515625 
L 43.21875 35.40625 
Q 43.21875 41.609375 39.140625 45 
Q 35.0625 48.390625 27.6875 48.390625 
Q 23 48.390625 18.546875 47.265625 
Q 14.109375 46.140625 10.015625 43.890625 
L 10.015625 52.203125 
Q 14.9375 54.109375 19.578125 55.046875 
Q 24.21875 56 28.609375 56 
Q 40.484375 56 46.34375 49.84375 
Q 52.203125 43.703125 52.203125 31.203125 
z
" id="DejaVuSans-97"/>
      <path d="M 54.890625 33.015625 
L 54.890625 0 
L 45.90625 0 
L 45.90625 32.71875 
Q 45.90625 40.484375 42.875 44.328125 
Q 39.84375 48.1875 33.796875 48.1875 
Q 26.515625 48.1875 22.3125 43.546875 
Q 18.109375 38.921875 18.109375 30.90625 
L 18.109375 0 
L 9.078125 0 
L 9.078125 54.6875 
L 18.109375 54.6875 
L 18.109375 46.1875 
Q 21.34375 51.125 25.703125 53.5625 
Q 30.078125 56 35.796875 56 
Q 45.21875 56 50.046875 50.171875 
Q 54.890625 44.34375 54.890625 33.015625 
z
" id="DejaVuSans-110"/>
      <path d="M 18.3125 70.21875 
L 18.3125 54.6875 
L 36.8125 54.6875 
L 36.8125 47.703125 
L 18.3125 47.703125 
L 18.3125 18.015625 
Q 18.3125 11.328125 20.140625 9.421875 
Q 21.96875 7.515625 27.59375 7.515625 
L 36.8125 7.515625 
L 36.8125 0 
L 27.59375 0 
Q 17.1875 0 13.234375 3.875 
Q 9.28125 7.765625 9.28125 18.015625 
L 9.28125 47.703125 
L 2.6875 47.703125 
L 2.6875 54.6875 
L 9.28125 54.6875 
L 9.28125 70.21875 
z
" id="DejaVuSans-116"/>
      <path d="M 9.421875 54.6875 
L 18.40625 54.6875 
L 18.40625 0 
L 9.421875 0 
z
M 9.421875 75.984375 
L 18.40625 75.984375 
L 18.40625 64.59375 
L 9.421875 64.59375 
z
" id="DejaVuSans-105"/>
      <path d="M 9.421875 75.984375 
L 18.40625 75.984375 
L 18.40625 0 
L 9.421875 0 
z
" id="DejaVuSans-108"/>
      <path d="M 56.203125 29.59375 
L 56.203125 25.203125 
L 14.890625 25.203125 
Q 15.484375 15.921875 20.484375 11.0625 
Q 25.484375 6.203125 34.421875 6.203125 
Q 39.59375 6.203125 44.453125 7.46875 
Q 49.3125 8.734375 54.109375 11.28125 
L 54.109375 2.78125 
Q 49.265625 0.734375 44.1875 -0.34375 
Q 39.109375 -1.421875 33.890625 -1.421875 
Q 20.796875 -1.421875 13.15625 6.1875 
Q 5.515625 13.8125 5.515625 26.8125 
Q 5.515625 40.234375 12.765625 48.109375 
Q 20.015625 56 32.328125 56 
Q 43.359375 56 49.78125 48.890625 
Q 56.203125 41.796875 56.203125 29.59375 
z
M 47.21875 32.234375 
Q 47.125 39.59375 43.09375 43.984375 
Q 39.0625 48.390625 32.421875 48.390625 
Q 24.90625 48.390625 20.390625 44.140625 
Q 15.875 39.890625 15.1875 32.171875 
z
" id="DejaVuSans-101"/>
      <path d="M 44.28125 53.078125 
L 44.28125 44.578125 
Q 40.484375 46.53125 36.375 47.5 
Q 32.28125 48.484375 27.875 48.484375 
Q 21.1875 48.484375 17.84375 46.4375 
Q 14.5 44.390625 14.5 40.28125 
Q 14.5 37.15625 16.890625 35.375 
Q 19.28125 33.59375 26.515625 31.984375 
L 29.59375 31.296875 
Q 39.15625 29.25 43.1875 25.515625 
Q 47.21875 21.78125 47.21875 15.09375 
Q 47.21875 7.46875 41.1875 3.015625 
Q 35.15625 -1.421875 24.609375 -1.421875 
Q 20.21875 -1.421875 15.453125 -0.5625 
Q 10.6875 0.296875 5.421875 2 
L 5.421875 11.28125 
Q 10.40625 8.6875 15.234375 7.390625 
Q 20.0625 6.109375 24.8125 6.109375 
Q 31.15625 6.109375 34.5625 8.28125 
Q 37.984375 10.453125 37.984375 14.40625 
Q 37.984375 18.0625 35.515625 20.015625 
Q 33.0625 21.96875 24.703125 23.78125 
L 21.578125 24.515625 
Q 13.234375 26.265625 9.515625 29.90625 
Q 5.8125 33.546875 5.8125 39.890625 
Q 5.8125 47.609375 11.28125 51.796875 
Q 16.75 56 26.8125 56 
Q 31.78125 56 36.171875 55.265625 
Q 40.578125 54.546875 44.28125 53.078125 
z
" id="DejaVuSans-115"/>
     </defs>
     <g transform="translate(186.807813 342.198125)scale(0.28 -0.28)">
      <use xlink:href="#DejaVuSans-81"/>
      <use x="78.710938" xlink:href="#DejaVuSans-117"/>
      <use x="142.089844" xlink:href="#DejaVuSans-97"/>
      <use x="203.369141" xlink:href="#DejaVuSans-110"/>
      <use x="266.748047" xlink:href="#DejaVuSans-116"/>
      <use x="305.957031" xlink:href="#DejaVuSans-105"/>
      <use x="333.740234" xlink:href="#DejaVuSans-108"/>
      <use x="361.523438" xlink:href="#DejaVuSans-101"/>
      <use x="423.046875" xlink:href="#DejaVuSans-115"/>
     </g>
    </g>
   </g>
   <g id="matplotlib.axis_2">
    <g id="ytick_1">
     <g id="line2d_4">
      <defs>
       <path d="M 0 0 
L -5 0 
" id="mf74ee61675" style="stroke:#000000;stroke-width:0.8;"/>
      </defs>
      <g>
       <use style="stroke:#000000;stroke-width:0.8;" x="91.3275" xlink:href="#mf74ee61675" y="268.969205"/>
      </g>
     </g>
     <g id="text_5">
      <!-- 0.0 -->
      <g transform="translate(38.29875 279.607017)scale(0.28 -0.28)">
       <use xlink:href="#DejaVuSans-48"/>
       <use x="63.623047" xlink:href="#DejaVuSans-46"/>
       <use x="95.410156" xlink:href="#DejaVuSans-48"/>
      </g>
     </g>
    </g>
    <g id="ytick_2">
     <g id="line2d_5">
      <g>
       <use style="stroke:#000000;stroke-width:0.8;" x="91.3275" xlink:href="#mf74ee61675" y="145.42375"/>
      </g>
     </g>
     <g id="text_6">
      <!-- 0.5 -->
      <g transform="translate(38.29875 156.061563)scale(0.28 -0.28)">
       <use xlink:href="#DejaVuSans-48"/>
       <use x="63.623047" xlink:href="#DejaVuSans-46"/>
       <use x="95.410156" xlink:href="#DejaVuSans-53"/>
      </g>
     </g>
    </g>
    <g id="ytick_3">
     <g id="line2d_6">
      <g>
       <use style="stroke:#000000;stroke-width:0.8;" x="91.3275" xlink:href="#mf74ee61675" y="21.878295"/>
      </g>
     </g>
     <g id="text_7">
      <!-- 1.0 -->
      <g transform="translate(38.29875 32.516108)scale(0.28 -0.28)">
       <use xlink:href="#DejaVuSans-49"/>
       <use x="63.623047" xlink:href="#DejaVuSans-46"/>
       <use x="95.410156" xlink:href="#DejaVuSans-48"/>
      </g>
     </g>
    </g>
    <g id="text_8">
     <!-- p-values in quantile -->
     <defs>
      <path d="M 18.109375 8.203125 
L 18.109375 -20.796875 
L 9.078125 -20.796875 
L 9.078125 54.6875 
L 18.109375 54.6875 
L 18.109375 46.390625 
Q 20.953125 51.265625 25.265625 53.625 
Q 29.59375 56 35.59375 56 
Q 45.5625 56 51.78125 48.09375 
Q 58.015625 40.1875 58.015625 27.296875 
Q 58.015625 14.40625 51.78125 6.484375 
Q 45.5625 -1.421875 35.59375 -1.421875 
Q 29.59375 -1.421875 25.265625 0.953125 
Q 20.953125 3.328125 18.109375 8.203125 
z
M 48.6875 27.296875 
Q 48.6875 37.203125 44.609375 42.84375 
Q 40.53125 48.484375 33.40625 48.484375 
Q 26.265625 48.484375 22.1875 42.84375 
Q 18.109375 37.203125 18.109375 27.296875 
Q 18.109375 17.390625 22.1875 11.75 
Q 26.265625 6.109375 33.40625 6.109375 
Q 40.53125 6.109375 44.609375 11.75 
Q 48.6875 17.390625 48.6875 27.296875 
z
" id="DejaVuSans-112"/>
      <path d="M 4.890625 31.390625 
L 31.203125 31.390625 
L 31.203125 23.390625 
L 4.890625 23.390625 
z
" id="DejaVuSans-45"/>
      <path d="M 2.984375 54.6875 
L 12.5 54.6875 
L 29.59375 8.796875 
L 46.6875 54.6875 
L 56.203125 54.6875 
L 35.6875 0 
L 23.484375 0 
z
" id="DejaVuSans-118"/>
      <path id="DejaVuSans-32"/>
      <path d="M 14.796875 27.296875 
Q 14.796875 17.390625 18.875 11.75 
Q 22.953125 6.109375 30.078125 6.109375 
Q 37.203125 6.109375 41.296875 11.75 
Q 45.40625 17.390625 45.40625 27.296875 
Q 45.40625 37.203125 41.296875 42.84375 
Q 37.203125 48.484375 30.078125 48.484375 
Q 22.953125 48.484375 18.875 42.84375 
Q 14.796875 37.203125 14.796875 27.296875 
z
M 45.40625 8.203125 
Q 42.578125 3.328125 38.25 0.953125 
Q 33.9375 -1.421875 27.875 -1.421875 
Q 17.96875 -1.421875 11.734375 6.484375 
Q 5.515625 14.40625 5.515625 27.296875 
Q 5.515625 40.1875 11.734375 48.09375 
Q 17.96875 56 27.875 56 
Q 33.9375 56 38.25 53.625 
Q 42.578125 51.265625 45.40625 46.390625 
L 45.40625 54.6875 
L 54.390625 54.6875 
L 54.390625 -20.796875 
L 45.40625 -20.796875 
z
" id="DejaVuSans-113"/>
     </defs>
     <g transform="translate(28.475625 283.6475)rotate(-90)scale(0.28 -0.28)">
      <use xlink:href="#DejaVuSans-112"/>
      <use x="63.476562" xlink:href="#DejaVuSans-45"/>
      <use x="99.529297" xlink:href="#DejaVuSans-118"/>
      <use x="158.708984" xlink:href="#DejaVuSans-97"/>
      <use x="219.988281" xlink:href="#DejaVuSans-108"/>
      <use x="247.771484" xlink:href="#DejaVuSans-117"/>
      <use x="311.150391" xlink:href="#DejaVuSans-101"/>
      <use x="372.673828" xlink:href="#DejaVuSans-115"/>
      <use x="424.773438" xlink:href="#DejaVuSans-32"/>
      <use x="456.560547" xlink:href="#DejaVuSans-105"/>
      <use x="484.34375" xlink:href="#DejaVuSans-110"/>
      <use x="547.722656" xlink:href="#DejaVuSans-32"/>
      <use x="579.509766" xlink:href="#DejaVuSans-113"/>
      <use x="642.986328" xlink:href="#DejaVuSans-117"/>
      <use x="706.365234" xlink:href="#DejaVuSans-97"/>
      <use x="767.644531" xlink:href="#DejaVuSans-110"/>
      <use x="831.023438" xlink:href="#DejaVuSans-116"/>
      <use x="870.232422" xlink:href="#DejaVuSans-105"/>
      <use x="898.015625" xlink:href="#DejaVuSans-108"/>
      <use x="925.798828" xlink:href="#DejaVuSans-101"/>
     </g>
    </g>
   </g>
   <g id="line2d_7">
    <path clip-path="url(#p28c6d1bc99)" d="M 106.252348 268.969205 
L 172.377488 268.867816 
L 174.942805 268.793339 
L 186.629251 268.501147 
L 190.90478 268.339882 
L 193.755132 268.191078 
L 195.750379 268.087665 
L 196.605485 268.008919 
L 203.161295 267.483202 
L 206.866754 267.061769 
L 208.576965 266.796651 
L 209.432071 266.639755 
L 210.002141 266.533028 
L 211.712353 266.292672 
L 212.282424 266.17346 
L 213.7076 266.106929 
L 214.27767 265.914263 
L 215.132776 265.754903 
L 215.417811 265.733171 
L 215.987882 265.498218 
L 217.698093 265.282053 
L 218.553199 264.642079 
L 219.408305 264.530261 
L 219.69334 264.348914 
L 220.263411 264.209391 
L 221.973622 263.719006 
L 222.828728 263.527076 
L 223.968869 263.438822 
L 224.823975 263.272666 
L 225.964116 263.127625 
L 226.534186 263.024894 
L 227.104257 262.941149 
L 228.244398 262.746908 
L 230.52468 262.339517 
L 230.809715 261.846002 
L 232.234891 261.582993 
L 232.519927 261.543759 
L 232.804962 261.302048 
L 233.660068 261.204119 
L 233.945103 261.148128 
L 234.230138 260.893214 
L 234.515173 260.841867 
L 234.800209 260.621321 
L 235.085244 260.60263 
L 235.370279 260.126033 
L 237.935596 259.786553 
L 239.360773 259.667712 
L 240.215878 259.413179 
L 240.785949 259.304796 
L 241.070984 259.054175 
L 244.776442 257.890132 
L 245.631548 257.232935 
L 246.201619 257.182763 
L 247.056724 256.811269 
L 248.196865 256.662849 
L 249.051971 256.287101 
L 250.762183 256.099765 
L 251.047218 255.875482 
L 251.902324 255.695227 
L 253.3275 255.058525 
L 255.322747 254.730788 
L 256.462888 254.121377 
L 257.032958 253.945019 
L 257.317994 253.711945 
L 258.74317 253.488236 
L 259.028205 253.162271 
L 259.31324 253.104288 
L 259.598276 252.70669 
L 259.883311 252.51488 
L 260.738417 252.418531 
L 261.308487 252.03949 
L 262.733663 251.866794 
L 263.018699 251.479602 
L 263.873804 251.182136 
L 264.443875 250.904211 
L 265.013945 250.343866 
L 265.869051 249.919757 
L 267.009192 249.149706 
L 267.579263 248.950081 
L 267.864298 248.477353 
L 269.004439 248.30795 
L 269.574509 247.726053 
L 269.859545 247.713194 
L 271.284721 246.994642 
L 271.569756 246.993764 
L 272.139827 246.686357 
L 272.709897 246.494162 
L 274.990179 245.209893 
L 276.13032 244.858685 
L 276.415356 244.720087 
L 276.985426 244.208984 
L 277.270461 244.039147 
L 278.125567 242.780995 
L 278.410602 242.591021 
L 278.695638 241.962041 
L 278.980673 241.891872 
L 279.265708 241.701093 
L 279.550743 240.987003 
L 279.835779 240.928674 
L 280.405849 240.459408 
L 280.690884 240.376099 
L 281.260955 238.863558 
L 282.116061 238.229589 
L 282.401096 238.187525 
L 282.686131 237.832891 
L 283.256202 237.709601 
L 283.541237 237.24342 
L 284.111307 236.74348 
L 284.681378 236.509736 
L 285.251448 236.241565 
L 285.536484 235.766021 
L 286.106554 234.11026 
L 286.96166 233.662158 
L 287.246695 233.482637 
L 287.53173 233.12071 
L 287.816766 232.956264 
L 288.101801 232.939043 
L 288.671871 232.535239 
L 288.956907 232.514068 
L 289.241942 232.294831 
L 289.526977 231.517674 
L 290.097048 231.435805 
L 291.237189 230.556021 
L 291.807259 229.208217 
L 292.37733 228.947874 
L 293.517471 228.684893 
L 294.087541 228.118773 
L 294.942647 227.729699 
L 295.512717 227.381305 
L 296.082788 227.337476 
L 296.367823 226.808602 
L 296.652859 226.738105 
L 296.937894 226.029814 
L 297.222929 226.018335 
L 297.507964 225.649955 
L 297.793 225.078929 
L 299.503211 224.295842 
L 299.788246 224.237456 
L 300.073282 223.878477 
L 300.643352 223.827147 
L 300.928387 223.009294 
L 301.213423 222.830739 
L 301.498458 222.809545 
L 301.783493 222.617861 
L 302.353564 222.051083 
L 302.638599 221.938673 
L 302.923634 221.511193 
L 303.208669 220.86041 
L 304.063775 220.291025 
L 305.203916 220.203898 
L 305.488951 219.90403 
L 305.773987 219.368934 
L 306.629092 219.090217 
L 306.914128 218.526352 
L 307.199163 218.401982 
L 307.769233 217.674949 
L 308.339304 217.56283 
L 309.19441 217.238051 
L 309.479445 216.867625 
L 309.76448 216.701657 
L 310.049515 215.946387 
L 310.334551 215.75027 
L 310.619586 215.156443 
L 311.189656 214.856825 
L 311.474692 214.744403 
L 311.759727 213.593804 
L 312.329797 213.568581 
L 312.899868 213.01504 
L 313.469938 212.964247 
L 314.610079 212.471917 
L 314.895115 212.353125 
L 315.18015 211.767488 
L 315.75022 211.496016 
L 316.320291 209.791995 
L 316.605326 209.746752 
L 316.890361 209.532544 
L 317.460432 208.682053 
L 317.745467 208.592359 
L 318.315538 207.731735 
L 318.600573 207.646224 
L 318.885608 207.050899 
L 319.170644 207.007247 
L 319.455679 206.785647 
L 319.740714 206.775538 
L 320.310785 206.499258 
L 320.59582 206.428385 
L 321.16589 205.004522 
L 321.450926 204.91541 
L 321.735961 204.395755 
L 322.020996 204.273941 
L 322.306031 203.587841 
L 322.591067 203.505158 
L 322.876102 202.972562 
L 323.161137 202.710784 
L 323.446172 202.219552 
L 324.301278 201.99418 
L 324.586313 201.597155 
L 324.871349 200.317229 
L 326.01149 200.078987 
L 326.296525 199.112938 
L 326.58156 198.838781 
L 326.866595 198.734007 
L 327.436666 197.890279 
L 328.291772 197.721429 
L 329.146877 196.862083 
L 329.431913 196.723493 
L 330.572054 195.127922 
L 330.857089 194.735533 
L 331.712195 194.22541 
L 331.99723 193.302673 
L 332.282265 193.227392 
L 332.852336 192.226912 
L 333.137371 192.176324 
L 333.707441 191.662314 
L 333.992477 191.456391 
L 334.847582 188.987693 
L 335.132618 188.734555 
L 335.702688 187.464265 
L 335.987723 187.239527 
L 336.272759 185.840307 
L 336.557794 185.241704 
L 337.127864 184.626848 
L 337.697935 184.4049 
L 337.98297 184.127928 
L 339.123111 183.88272 
L 339.408147 183.35523 
L 339.978217 183.081888 
L 340.263252 181.606922 
L 340.548288 181.343039 
L 341.118358 181.225529 
L 341.688429 179.997893 
L 341.973464 179.602606 
L 342.543534 178.125494 
L 343.683675 177.04952 
L 343.968711 177.04121 
L 344.253746 176.778082 
L 344.538781 176.015339 
L 345.108852 175.911276 
L 345.393887 174.923427 
L 345.678922 174.839491 
L 345.963957 171.382144 
L 346.248993 171.156603 
L 346.534028 170.488797 
L 346.819063 170.144619 
L 347.104098 169.986945 
L 347.674169 168.934738 
L 347.959204 167.41161 
L 348.244239 167.360145 
L 348.529275 166.782063 
L 348.81431 165.354894 
L 349.38438 164.772914 
L 349.669416 164.715722 
L 349.954451 163.967558 
L 350.239486 163.792314 
L 350.524521 161.986429 
L 350.809557 161.909829 
L 351.379627 161.326543 
L 352.519768 160.233443 
L 353.374874 160.018095 
L 353.659909 159.484468 
L 353.944944 158.448127 
L 354.515015 157.038984 
L 354.80005 156.181638 
L 355.085085 155.748089 
L 355.370121 155.682674 
L 355.655156 154.843539 
L 355.940191 154.836675 
L 356.795297 153.387587 
L 357.365367 153.180239 
L 357.650403 153.174935 
L 357.935438 151.585974 
L 358.220473 151.394876 
L 358.505508 150.15671 
L 358.790544 150.139851 
L 359.360614 149.296939 
L 359.645649 148.908949 
L 360.21572 147.19547 
L 360.500755 146.983604 
L 360.785791 146.493699 
L 361.070826 143.943681 
L 361.355861 143.35733 
L 361.640896 141.854755 
L 361.925932 141.604995 
L 362.496002 138.790868 
L 363.351108 137.012845 
L 364.206214 134.770877 
L 364.491249 134.498874 
L 364.776284 134.019126 
L 365.061319 132.075645 
L 365.346355 132.000934 
L 365.63139 131.410025 
L 366.20146 131.2996 
L 366.486496 129.1551 
L 366.771531 128.625178 
L 367.056566 126.884011 
L 367.341601 126.369415 
L 367.626637 126.302119 
L 367.911672 126.031048 
L 368.196707 125.409823 
L 368.481742 125.309796 
L 369.051813 124.252507 
L 369.336848 122.322864 
L 369.621883 121.526801 
L 370.191954 121.268862 
L 370.762024 118.1676 
L 371.04706 117.490379 
L 371.332095 117.156016 
L 371.61713 116.182727 
L 371.902165 115.906738 
L 372.187201 114.837935 
L 372.472236 114.348013 
L 372.757271 112.82018 
L 373.042306 109.785176 
L 373.327342 109.583857 
L 373.612377 106.870923 
L 374.467483 106.238837 
L 374.752518 106.177568 
L 375.037553 105.321682 
L 375.322588 105.118294 
L 375.607624 104.634236 
L 375.892659 103.737842 
L 376.177694 103.336745 
L 376.462729 102.010454 
L 376.747765 101.317444 
L 377.0328 101.09008 
L 377.317835 100.540077 
L 377.60287 98.64325 
L 377.887906 98.584806 
L 378.172941 97.515981 
L 379.028047 96.157106 
L 379.313082 95.300208 
L 379.598117 95.261398 
L 379.883152 94.816427 
L 380.168188 93.5612 
L 380.738258 93.33315 
L 381.023293 91.287797 
L 381.308329 90.842561 
L 381.593364 89.931085 
L 381.878399 89.7209 
L 383.303576 82.761518 
L 383.588611 82.464642 
L 384.443717 79.011229 
L 384.728752 78.936917 
L 385.013787 78.686451 
L 385.298822 77.83722 
L 385.583858 76.29249 
L 385.868893 75.794365 
L 386.438963 74.020013 
L 387.009034 68.928643 
L 387.294069 68.613522 
L 387.579104 65.406891 
L 388.43421 64.085217 
L 388.719245 63.927426 
L 389.004281 63.279611 
L 389.574351 61.097319 
L 390.144422 59.803211 
L 390.429457 58.251588 
L 391.284563 55.612138 
L 391.569598 53.848939 
L 391.854633 53.273158 
L 392.139668 50.305803 
L 392.424704 49.650703 
L 392.709739 49.649985 
L 392.994774 48.213116 
L 393.279809 44.998339 
L 393.564845 44.884742 
L 393.84988 44.355591 
L 394.134915 42.884435 
L 394.704986 38.933599 
L 395.275056 37.304807 
L 395.560091 36.962978 
L 395.845127 36.927916 
L 396.130162 36.091328 
L 396.415197 34.346235 
L 396.700232 34.092226 
L 396.985268 33.230375 
L 397.270303 31.120173 
L 397.555338 30.868452 
L 397.840373 28.073526 
L 398.125409 27.333663 
L 398.410444 27.169203 
L 398.980514 26.125998 
L 399.26555 24.232227 
L 399.83562 23.728991 
L 400.120655 22.663843 
L 400.402652 22.419636 
L 400.402652 22.419636 
" style="fill:none;stroke:#b8860b;stroke-linecap:square;stroke-opacity:0.75;stroke-width:2;"/>
   </g>
   <g id="line2d_8">
    <path clip-path="url(#p28c6d1bc99)" d="M 109.13197 268.969205 
L 113.522154 268.969205 
L 117.960419 268.969205 
L 122.398683 268.969205 
L 126.836948 268.969205 
L 131.275213 268.969205 
L 135.713478 268.969205 
L 140.151743 268.969205 
L 144.590008 268.969205 
L 149.028273 268.969205 
L 153.466538 268.969205 
L 157.904803 268.969205 
L 162.343068 268.969205 
L 166.781333 268.969205 
L 171.219598 268.969205 
L 175.657863 268.969205 
L 180.096128 268.969204 
L 184.534393 268.969204 
L 188.972658 268.969204 
L 193.410923 268.969203 
L 197.849188 268.969201 
L 202.287453 268.9692 
L 206.725718 268.969197 
L 211.163983 268.969197 
L 215.602248 268.969183 
L 220.040513 268.969022 
L 224.478778 268.968942 
L 228.917043 268.96894 
L 233.355308 268.968918 
L 237.793573 268.968761 
L 242.231838 268.968275 
L 246.670103 268.967881 
L 251.108368 268.966651 
L 255.546632 268.965934 
L 259.984897 268.965466 
L 264.423162 268.964449 
L 268.861427 268.956722 
L 273.299692 268.928704 
L 277.737957 268.922468 
L 282.176222 268.880486 
L 286.614487 268.871615 
L 291.052752 268.840126 
L 295.491017 268.810375 
L 299.929282 268.745085 
L 304.367547 268.735128 
L 308.805812 268.718918 
L 313.244077 268.580859 
L 317.682342 268.454345 
L 322.120607 268.314811 
L 326.558872 267.657624 
L 330.997137 266.292672 
L 335.435402 264.209391 
L 339.873667 263.272666 
L 344.311932 259.827467 
L 348.750197 258.682021 
L 353.188462 256.099765 
L 357.626727 253.162271 
L 362.064992 251.10023 
L 366.503257 244.408867 
L 370.941522 244.039147 
L 375.379787 232.514068 
L 379.818052 222.809545 
L 384.256317 169.38202 
L 388.694581 94.816427 
L 393.132846 60.344355 
L 397.52303 22.663843 
" style="fill:none;stroke:#8b0000;stroke-linecap:square;stroke-opacity:0.75;stroke-width:2;"/>
   </g>
   <g id="line2d_9">
    <path clip-path="url(#p28c6d1bc99)" d="M 106.989815 268.969205 
L 237.815524 268.867816 
L 251.304199 268.718918 
L 264.792874 268.580859 
L 276.932681 268.252172 
L 278.281549 268.034532 
L 282.328152 267.875045 
L 285.025887 267.709588 
L 286.374754 267.657624 
L 287.723622 267.442357 
L 289.072489 266.997233 
L 290.421357 266.993148 
L 291.770224 266.292672 
L 293.119092 265.955917 
L 294.467959 265.827708 
L 297.165694 265.033611 
L 298.514562 264.209391 
L 299.863429 263.617938 
L 301.212297 263.526969 
L 302.561164 263.272666 
L 303.910032 262.869135 
L 306.607767 262.708174 
L 307.956634 262.484145 
L 309.305502 262.424241 
L 310.654369 260.60263 
L 312.003237 259.827467 
L 313.352104 259.406304 
L 314.700972 258.682021 
L 316.049839 258.496269 
L 317.398707 256.201135 
L 318.747574 256.190203 
L 320.096442 253.162271 
L 321.445309 252.51488 
L 324.143044 252.50613 
L 325.491912 252.03949 
L 326.840779 251.10023 
L 328.189647 249.708072 
L 329.538515 248.477353 
L 330.887382 248.374764 
L 332.23625 245.942093 
L 333.585117 245.588868 
L 334.933985 244.408867 
L 336.282852 244.039147 
L 338.980587 232.956264 
L 340.329455 232.514068 
L 341.678322 232.294831 
L 343.02719 227.930076 
L 344.376057 226.018335 
L 345.724925 222.830739 
L 347.073792 222.809545 
L 348.42266 220.63818 
L 349.771527 219.368934 
L 351.120395 219.282999 
L 352.469262 216.867625 
L 353.81813 215.75027 
L 356.515865 211.496016 
L 357.864732 207.646224 
L 359.2136 200.317229 
L 360.562467 197.890279 
L 361.911335 196.723493 
L 363.260202 193.227392 
L 364.60907 183.081888 
L 365.957937 175.915475 
L 367.306805 171.382144 
L 368.655672 169.38202 
L 370.00454 165.053416 
L 371.353407 153.387587 
L 372.702275 151.585974 
L 374.051142 151.394876 
L 375.40001 150.15671 
L 376.748877 149.296939 
L 378.097745 137.012845 
L 379.446612 121.387748 
L 380.79548 121.268862 
L 382.144348 98.64325 
L 383.493215 94.816427 
L 384.842083 60.344355 
L 386.19095 53.273158 
L 387.539818 50.305803 
L 388.888685 49.650703 
L 390.237553 44.884742 
L 391.58642 38.933599 
L 392.935288 31.120173 
L 394.284155 30.868452 
L 395.633023 28.073526 
L 398.330758 24.034824 
L 399.665185 22.663843 
L 399.665185 22.663843 
" style="fill:none;stroke:#000080;stroke-linecap:square;stroke-opacity:0.75;stroke-width:2;"/>
   </g>
   <g id="line2d_10">
    <path clip-path="url(#p28c6d1bc99)" d="M 106.054773 256.614659 
L 400.600227 256.614659 
" style="fill:none;stroke:#ff0000;stroke-dasharray:3.7,1.6;stroke-dashoffset:0;"/>
   </g>
   <g id="line2d_11">
    <path clip-path="url(#p28c6d1bc99)" d="M 106.054773 268.969205 
L 400.600227 21.878295 
" style="fill:none;stroke:#808080;stroke-dasharray:1.5,2.475;stroke-dashoffset:0;stroke-width:1.5;"/>
   </g>
   <g id="patch_3">
    <path d="M 91.3275 281.32375 
L 91.3275 9.52375 
" style="fill:none;stroke:#000000;stroke-linecap:square;stroke-linejoin:miter;stroke-width:0.8;"/>
   </g>
   <g id="patch_4">
    <path d="M 91.3275 281.32375 
L 415.3275 281.32375 
" style="fill:none;stroke:#000000;stroke-linecap:square;stroke-linejoin:miter;stroke-width:0.8;"/>
   </g>
   <g id="text_9">
    <!-- Chen -->
    <defs>
     <path d="M 64.40625 67.28125 
L 64.40625 56.890625 
Q 59.421875 61.53125 53.78125 63.8125 
Q 48.140625 66.109375 41.796875 66.109375 
Q 29.296875 66.109375 22.65625 58.46875 
Q 16.015625 50.828125 16.015625 36.375 
Q 16.015625 21.96875 22.65625 14.328125 
Q 29.296875 6.6875 41.796875 6.6875 
Q 48.140625 6.6875 53.78125 8.984375 
Q 59.421875 11.28125 64.40625 15.921875 
L 64.40625 5.609375 
Q 59.234375 2.09375 53.4375 0.328125 
Q 47.65625 -1.421875 41.21875 -1.421875 
Q 24.65625 -1.421875 15.125 8.703125 
Q 5.609375 18.84375 5.609375 36.375 
Q 5.609375 53.953125 15.125 64.078125 
Q 24.65625 74.21875 41.21875 74.21875 
Q 47.75 74.21875 53.53125 72.484375 
Q 59.328125 70.75 64.40625 67.28125 
z
" id="DejaVuSans-67"/>
     <path d="M 54.890625 33.015625 
L 54.890625 0 
L 45.90625 0 
L 45.90625 32.71875 
Q 45.90625 40.484375 42.875 44.328125 
Q 39.84375 48.1875 33.796875 48.1875 
Q 26.515625 48.1875 22.3125 43.546875 
Q 18.109375 38.921875 18.109375 30.90625 
L 18.109375 0 
L 9.078125 0 
L 9.078125 75.984375 
L 18.109375 75.984375 
L 18.109375 46.1875 
Q 21.34375 51.125 25.703125 53.5625 
Q 30.078125 56 35.796875 56 
Q 45.21875 56 50.046875 50.171875 
Q 54.890625 44.34375 54.890625 33.015625 
z
" id="DejaVuSans-104"/>
    </defs>
    <g transform="translate(120.782045 43.15392)scale(0.28 -0.28)">
     <use xlink:href="#DejaVuSans-67"/>
     <use x="69.824219" xlink:href="#DejaVuSans-104"/>
     <use x="133.203125" xlink:href="#DejaVuSans-101"/>
     <use x="194.726562" xlink:href="#DejaVuSans-110"/>
    </g>
   </g>
  </g>
  <g id="axes_2">
   <g id="patch_5">
    <path d="M 431.5275 281.32375 
L 755.5275 281.32375 
L 755.5275 9.52375 
L 431.5275 9.52375 
z
" style="fill:none;"/>
   </g>
   <g id="matplotlib.axis_3">
    <g id="xtick_4">
     <g id="line2d_12">
      <g>
       <use style="stroke:#000000;stroke-width:0.8;" x="446.254773" xlink:href="#mb63050b241" y="281.32375"/>
      </g>
     </g>
     <g id="text_10">
      <!-- 0 -->
      <g transform="translate(437.347273 311.099375)scale(0.28 -0.28)">
       <use xlink:href="#DejaVuSans-48"/>
      </g>
     </g>
    </g>
    <g id="xtick_5">
     <g id="line2d_13">
      <g>
       <use style="stroke:#000000;stroke-width:0.8;" x="593.5275" xlink:href="#mb63050b241" y="281.32375"/>
      </g>
     </g>
     <g id="text_11">
      <!-- 0.5 -->
      <g transform="translate(571.263125 311.099375)scale(0.28 -0.28)">
       <use xlink:href="#DejaVuSans-48"/>
       <use x="63.623047" xlink:href="#DejaVuSans-46"/>
       <use x="95.410156" xlink:href="#DejaVuSans-53"/>
      </g>
     </g>
    </g>
    <g id="xtick_6">
     <g id="line2d_14">
      <g>
       <use style="stroke:#000000;stroke-width:0.8;" x="740.800227" xlink:href="#mb63050b241" y="281.32375"/>
      </g>
     </g>
     <g id="text_12">
      <!-- 1 -->
      <g transform="translate(731.892727 311.099375)scale(0.28 -0.28)">
       <use xlink:href="#DejaVuSans-49"/>
      </g>
     </g>
    </g>
    <g id="text_13">
     <!-- Quantiles -->
     <g transform="translate(527.007812 342.198125)scale(0.28 -0.28)">
      <use xlink:href="#DejaVuSans-81"/>
      <use x="78.710938" xlink:href="#DejaVuSans-117"/>
      <use x="142.089844" xlink:href="#DejaVuSans-97"/>
      <use x="203.369141" xlink:href="#DejaVuSans-110"/>
      <use x="266.748047" xlink:href="#DejaVuSans-116"/>
      <use x="305.957031" xlink:href="#DejaVuSans-105"/>
      <use x="333.740234" xlink:href="#DejaVuSans-108"/>
      <use x="361.523438" xlink:href="#DejaVuSans-101"/>
      <use x="423.046875" xlink:href="#DejaVuSans-115"/>
     </g>
    </g>
   </g>
   <g id="matplotlib.axis_4">
    <g id="ytick_4"/>
    <g id="ytick_5"/>
    <g id="ytick_6"/>
   </g>
   <g id="line2d_15">
    <path clip-path="url(#p6dbd818e96)" d="M 446.540978 268.969205 
L 464.291096 268.863817 
L 472.549013 268.33952 
L 473.787701 268.013291 
L 475.85218 267.74355 
L 476.677972 267.6096 
L 477.090868 267.589385 
L 478.742451 267.068886 
L 479.568243 266.950685 
L 480.80693 266.574925 
L 484.935889 266.258686 
L 486.174577 265.959585 
L 487.000368 265.906387 
L 487.82616 265.599972 
L 488.239056 265.559199 
L 488.651952 265.202236 
L 489.890639 264.895555 
L 490.303535 264.52828 
L 493.193806 263.966226 
L 493.606702 263.955579 
L 494.84539 263.59446 
L 496.084077 263.452859 
L 497.322765 263.064222 
L 497.735661 263.004633 
L 498.561452 262.63024 
L 500.625932 262.064271 
L 501.038828 261.53595 
L 502.277515 261.037758 
L 502.690411 260.708857 
L 505.580682 260.297982 
L 505.993578 260.097862 
L 507.232265 259.831354 
L 507.645161 259.609151 
L 508.058057 259.085442 
L 510.122536 258.614045 
L 510.948328 257.659297 
L 512.599912 257.184974 
L 513.012807 256.936912 
L 513.838599 256.848353 
L 514.251495 256.364059 
L 515.490183 255.882229 
L 516.72887 255.665095 
L 517.554662 255.188758 
L 517.967558 255.142485 
L 518.380454 254.854859 
L 519.206245 254.788188 
L 520.444933 253.985672 
L 521.683621 253.678004 
L 522.096516 253.324368 
L 522.922308 253.111288 
L 523.335204 252.683631 
L 523.7481 251.879574 
L 524.160996 251.612806 
L 525.399683 251.342947 
L 525.812579 250.891804 
L 527.051267 250.178697 
L 527.464163 248.985677 
L 528.289954 248.805313 
L 528.70285 248.461226 
L 529.528642 248.355756 
L 529.941538 247.910052 
L 530.767329 247.88383 
L 531.180225 247.623166 
L 531.593121 247.013027 
L 532.006017 246.822298 
L 532.831809 246.287748 
L 533.6576 246.103307 
L 534.483392 246.097894 
L 535.309184 245.841235 
L 535.72208 245.838504 
L 536.134976 245.676223 
L 536.547871 245.64553 
L 537.373663 244.403288 
L 540.263934 244.001584 
L 540.67683 243.213892 
L 541.915518 242.33078 
L 542.328413 242.016638 
L 543.154205 241.645053 
L 543.567101 241.042695 
L 544.805789 240.890231 
L 545.218684 240.482079 
L 546.870268 239.836573 
L 548.521851 239.670187 
L 548.934747 239.155577 
L 549.347643 238.837362 
L 550.173435 238.568229 
L 550.586331 237.746849 
L 550.999227 237.502623 
L 551.412122 236.316285 
L 551.825018 235.99506 
L 553.476602 235.770463 
L 553.889498 235.603031 
L 554.302393 234.116695 
L 555.541081 233.323921 
L 556.366873 233.214683 
L 557.60556 232.573216 
L 558.018456 232.557848 
L 558.844248 231.386988 
L 559.67004 231.023103 
L 560.082935 230.609363 
L 560.495831 230.530194 
L 560.908727 230.094826 
L 561.734519 229.656439 
L 562.147415 228.167584 
L 562.560311 227.925827 
L 562.973206 227.905506 
L 563.386102 227.609683 
L 564.62479 227.116537 
L 565.037686 226.833551 
L 565.450582 226.685961 
L 565.863477 226.360953 
L 566.276373 226.276425 
L 566.689269 225.957316 
L 567.102165 225.934896 
L 567.515061 225.513132 
L 567.927957 225.455007 
L 568.340853 225.136024 
L 568.753748 224.45837 
L 569.166644 224.211077 
L 569.57954 223.754159 
L 569.992436 222.702639 
L 570.818228 222.235656 
L 571.231124 222.154127 
L 571.644019 221.595667 
L 572.056915 221.50208 
L 572.469811 220.557766 
L 573.708499 220.200653 
L 574.121395 220.020546 
L 574.53429 219.594214 
L 574.947186 218.549618 
L 575.360082 218.48935 
L 575.772978 218.262866 
L 576.185874 217.068427 
L 576.59877 216.813975 
L 577.011666 216.7368 
L 577.424561 216.045004 
L 577.837457 215.652195 
L 578.250353 215.497899 
L 579.489041 215.391101 
L 580.314833 214.958673 
L 580.727728 214.770643 
L 581.140624 214.708211 
L 581.966416 213.899173 
L 582.379312 213.655805 
L 582.792208 213.259347 
L 583.617999 213.126867 
L 584.030895 212.501754 
L 584.856687 212.162632 
L 585.269583 211.81053 
L 585.682479 211.654058 
L 586.095375 211.081573 
L 587.746958 210.238848 
L 588.159854 208.813535 
L 588.57275 207.992316 
L 588.985646 207.913517 
L 589.398541 207.075527 
L 589.811437 207.06257 
L 590.224333 206.777757 
L 591.463021 206.435238 
L 591.875917 206.063429 
L 592.288812 206.032819 
L 593.114604 205.695414 
L 593.5275 204.950253 
L 593.940396 204.614262 
L 594.353292 204.429486 
L 594.766188 203.746659 
L 595.591979 203.376933 
L 596.417771 203.209386 
L 597.656459 201.882804 
L 598.895146 201.21044 
L 599.308042 200.797964 
L 599.720938 200.79144 
L 600.54673 200.500819 
L 600.959625 200.097689 
L 601.785417 199.95846 
L 602.611209 199.873637 
L 603.437001 199.743437 
L 603.849896 199.727988 
L 604.262792 199.214061 
L 605.088584 199.08374 
L 605.50148 197.716865 
L 605.914376 196.734303 
L 607.565959 196.29436 
L 607.978855 195.575078 
L 608.391751 195.324171 
L 608.804647 194.86211 
L 609.217543 194.655308 
L 609.630439 193.317999 
L 610.45623 191.776334 
L 611.694918 190.655848 
L 612.107814 189.895545 
L 612.52071 189.692023 
L 612.933605 188.851915 
L 613.759397 188.503114 
L 614.172293 188.407833 
L 614.585189 187.411307 
L 614.998085 186.855622 
L 615.410981 186.624042 
L 615.823876 185.15551 
L 616.649668 184.763236 
L 617.062564 184.325659 
L 617.47546 184.306312 
L 617.888356 183.969946 
L 618.301252 183.335082 
L 618.714147 182.049355 
L 619.127043 181.947388 
L 619.952835 181.133479 
L 620.365731 180.378841 
L 620.778627 180.337931 
L 621.604418 179.444643 
L 622.017314 179.230174 
L 622.843106 178.250423 
L 623.256002 176.690243 
L 624.907585 174.633125 
L 625.320481 172.911218 
L 626.146273 172.344724 
L 626.559169 171.802482 
L 627.38496 170.078476 
L 627.797856 170.06814 
L 628.210752 169.726239 
L 629.036544 169.626744 
L 629.44944 169.52924 
L 629.862336 169.210528 
L 630.688127 168.916222 
L 631.513919 168.412153 
L 631.926815 168.346024 
L 632.339711 168.061806 
L 632.752607 167.09253 
L 633.165502 166.668895 
L 633.578398 166.642146 
L 633.991294 166.441954 
L 634.817086 165.507322 
L 635.229982 165.431832 
L 636.055773 164.857005 
L 636.468669 164.766298 
L 637.294461 164.222453 
L 638.120253 163.957266 
L 638.533149 163.520636 
L 638.946045 163.276755 
L 639.35894 162.466473 
L 639.771836 162.344038 
L 640.184732 162.339598 
L 641.010524 161.668136 
L 641.42342 160.896256 
L 642.249211 160.44756 
L 642.662107 159.383118 
L 643.075003 159.248545 
L 643.487899 158.336854 
L 643.900795 158.209917 
L 644.313691 157.95869 
L 644.726587 157.291043 
L 645.552378 157.033141 
L 645.965274 156.318335 
L 646.37817 156.227675 
L 646.791066 155.847802 
L 647.203962 155.223447 
L 647.616858 155.110858 
L 648.029753 154.316925 
L 648.855545 153.418426 
L 649.268441 153.247455 
L 649.681337 152.665025 
L 650.094233 152.610475 
L 650.507129 151.675294 
L 650.920024 151.141015 
L 651.33292 151.077807 
L 652.571608 149.429831 
L 653.3974 149.274161 
L 654.636087 148.74163 
L 655.048983 147.152079 
L 657.113462 145.619584 
L 657.526358 145.556436 
L 657.939254 145.297793 
L 659.177942 143.922248 
L 659.590837 143.888163 
L 660.003733 143.588689 
L 660.416629 143.437438 
L 660.829525 143.010585 
L 661.242421 142.356412 
L 662.068213 141.868975 
L 662.481108 140.755481 
L 662.894004 140.393067 
L 663.719796 139.200272 
L 664.132692 137.841755 
L 664.958484 136.6754 
L 665.371379 136.656854 
L 665.784275 136.222107 
L 666.197171 135.430369 
L 666.610067 135.327093 
L 667.022963 134.315394 
L 667.435859 133.955603 
L 667.848755 132.3779 
L 668.261651 132.107086 
L 668.674546 131.445297 
L 669.087442 131.313764 
L 669.500338 131.311159 
L 670.32613 130.114179 
L 671.151922 129.657881 
L 671.564817 129.300461 
L 671.977713 128.171344 
L 672.390609 126.004234 
L 673.629297 125.349837 
L 674.042193 124.57368 
L 674.867984 123.908696 
L 675.28088 123.907523 
L 675.693776 123.709043 
L 676.106672 121.658491 
L 676.519568 121.435657 
L 677.758255 121.233149 
L 678.171151 121.17702 
L 678.584047 120.229981 
L 679.409839 119.751018 
L 679.822735 119.07641 
L 680.23563 119.076216 
L 680.648526 118.80173 
L 681.061422 118.797102 
L 681.474318 118.232124 
L 681.887214 118.014327 
L 682.30011 116.502584 
L 683.125901 116.113918 
L 683.951693 114.689661 
L 684.364589 114.681995 
L 684.777485 114.097003 
L 685.603277 113.558077 
L 686.016172 113.148617 
L 686.841964 112.625443 
L 687.667756 111.991573 
L 688.080652 110.152604 
L 688.493548 110.144762 
L 688.906443 109.998433 
L 689.732235 108.217076 
L 690.558027 108.085256 
L 690.970923 107.699647 
L 691.796714 107.506693 
L 692.622506 103.525962 
L 693.035402 102.60473 
L 693.448298 102.265675 
L 693.861194 100.59742 
L 694.27409 100.305842 
L 694.686985 99.759758 
L 695.925673 97.566307 
L 696.338569 97.393554 
L 697.577256 95.89681 
L 697.990152 92.773037 
L 698.403048 92.631853 
L 698.815944 92.300113 
L 699.22884 92.286461 
L 699.641736 89.947633 
L 700.054632 88.922379 
L 700.467528 88.60167 
L 701.293319 86.909794 
L 701.706215 86.548452 
L 702.532007 85.413139 
L 702.944903 85.224006 
L 703.357799 84.12748 
L 703.770694 83.794823 
L 704.18359 82.631488 
L 704.596486 80.705624 
L 705.009382 80.599879 
L 705.422278 80.169056 
L 705.835174 79.416961 
L 706.24807 79.360152 
L 706.660965 78.693378 
L 707.073861 78.342038 
L 707.486757 76.740554 
L 708.312549 76.188102 
L 708.725445 76.00937 
L 709.138341 75.205267 
L 709.551236 75.042751 
L 710.377028 74.159882 
L 711.20282 72.323482 
L 711.615716 71.839746 
L 712.028612 71.770359 
L 712.441507 71.489663 
L 714.093091 68.559013 
L 714.505987 68.046654 
L 714.918883 67.878533 
L 715.744674 67.198186 
L 716.15757 65.790804 
L 716.570466 65.689279 
L 717.396258 64.241743 
L 717.809154 63.701404 
L 718.222049 62.346905 
L 718.634945 62.105335 
L 719.873633 60.141283 
L 720.286529 59.728373 
L 720.699425 58.601558 
L 721.11232 58.394235 
L 721.525216 57.291488 
L 721.938112 54.630186 
L 722.351008 53.914004 
L 722.763904 51.285271 
L 723.1768 50.448628 
L 723.589696 49.872572 
L 724.415487 49.5067 
L 724.828383 48.052998 
L 725.241279 47.057137 
L 725.654175 47.00031 
L 726.067071 45.382042 
L 726.479967 44.784636 
L 726.892862 43.957135 
L 727.305758 43.870858 
L 727.718654 42.826338 
L 728.13155 42.535436 
L 728.957342 40.952852 
L 729.783134 40.386151 
L 730.196029 39.208811 
L 730.608925 38.509044 
L 731.021821 38.272213 
L 731.434717 37.447904 
L 731.847613 37.40077 
L 732.260509 35.750139 
L 733.499196 34.195461 
L 733.912092 32.532012 
L 734.324988 32.495516 
L 734.737884 31.603963 
L 735.15078 29.382629 
L 735.563676 29.253145 
L 735.976571 28.875519 
L 736.389467 28.155827 
L 736.802363 27.906834 
L 737.215259 27.822342 
L 737.628155 27.377893 
L 738.041051 26.538566 
L 738.453947 25.042121 
L 738.866842 24.628656 
L 739.279738 23.926183 
L 740.10553 23.404817 
L 740.514022 22.190557 
L 740.514022 22.190557 
" style="fill:none;stroke:#b8860b;stroke-linecap:square;stroke-opacity:0.75;stroke-width:2;"/>
   </g>
   <g id="line2d_16">
    <path clip-path="url(#p6dbd818e96)" d="M 446.943707 268.969205 
L 478.736617 268.872437 
L 479.730478 268.708232 
L 485.69364 268.5796 
L 487.681361 268.475748 
L 489.669082 268.33952 
L 493.644524 267.589385 
L 497.619966 267.068886 
L 499.607687 266.950685 
L 502.589268 266.526603 
L 506.56471 266.42153 
L 508.552431 265.955783 
L 509.546291 265.906387 
L 510.540152 265.559199 
L 511.534012 265.085331 
L 513.521733 264.895555 
L 514.515594 264.438498 
L 515.509454 264.35795 
L 516.503315 264.141668 
L 525.448059 263.286971 
L 526.441919 263.101833 
L 527.43578 263.064222 
L 528.42964 262.761554 
L 531.411221 262.423663 
L 532.405082 262.118609 
L 534.392803 261.037758 
L 535.386663 260.57789 
L 536.380524 260.362535 
L 537.374384 260.028955 
L 539.362105 259.609151 
L 540.355966 258.731995 
L 542.343686 257.554638 
L 546.319128 256.860782 
L 547.312989 256.364059 
L 550.29457 255.834497 
L 551.288431 255.814381 
L 552.282291 254.854859 
L 553.276151 254.530624 
L 554.270012 254.401982 
L 556.257733 253.678004 
L 557.251593 252.683631 
L 558.245454 250.655014 
L 559.239314 250.178697 
L 560.233175 248.985677 
L 561.227035 248.461226 
L 562.220896 246.822298 
L 564.208616 246.155845 
L 569.177919 245.838504 
L 570.171779 244.941889 
L 571.16564 244.403288 
L 572.1595 244.344402 
L 573.153361 244.089953 
L 574.147221 244.033298 
L 575.141082 243.213892 
L 576.134942 242.016638 
L 578.122663 241.645053 
L 579.116523 241.042695 
L 581.104244 240.890231 
L 582.098105 239.855355 
L 584.085826 239.710508 
L 585.079686 239.155577 
L 586.073547 238.837362 
L 587.067407 237.746849 
L 588.061267 237.502623 
L 589.055128 235.929001 
L 591.042849 235.770463 
L 592.036709 233.315849 
L 593.03057 233.214683 
L 594.02443 232.981861 
L 595.018291 231.386988 
L 597.006012 231.023103 
L 597.999872 230.530194 
L 598.993733 229.834503 
L 599.987593 227.925827 
L 600.981453 227.905506 
L 601.975314 227.116537 
L 603.963035 226.360953 
L 604.956895 226.276425 
L 605.950756 225.934896 
L 606.944616 223.754159 
L 607.938477 222.410981 
L 608.932337 220.200653 
L 609.926198 220.020546 
L 610.920058 218.549618 
L 611.913918 218.262866 
L 613.901639 215.391101 
L 614.8955 214.958673 
L 615.88936 212.501754 
L 616.883221 212.162632 
L 617.877081 210.417399 
L 618.870942 207.075527 
L 619.864802 206.063429 
L 620.858663 204.429486 
L 622.846384 202.305755 
L 623.840244 201.882804 
L 624.834104 201.21044 
L 625.827965 199.971577 
L 628.809546 199.743437 
L 629.803407 199.167506 
L 631.791128 196.401806 
L 632.784988 196.29436 
L 633.778849 195.575078 
L 634.772709 192.472684 
L 636.76043 188.851915 
L 637.75429 188.615182 
L 639.742011 188.407833 
L 640.735872 187.411307 
L 641.729732 186.624042 
L 642.723593 185.15551 
L 643.717453 184.325659 
L 644.711314 184.306312 
L 645.705174 183.335082 
L 646.699034 182.049355 
L 647.692895 181.508024 
L 648.686755 180.378841 
L 649.680616 178.250423 
L 650.674476 176.690243 
L 651.668337 170.900092 
L 652.662197 170.06814 
L 653.656058 169.626744 
L 654.649918 169.52924 
L 655.643779 169.210528 
L 656.637639 168.639284 
L 657.6315 168.346024 
L 658.62536 165.899773 
L 659.61922 164.857005 
L 660.613081 164.766298 
L 661.606941 160.896256 
L 662.600802 160.44756 
L 663.594662 158.209917 
L 665.582383 156.318335 
L 666.576244 156.227675 
L 667.570104 155.110858 
L 668.563965 154.316925 
L 670.551685 153.418426 
L 671.545546 152.665025 
L 672.539406 151.675294 
L 673.533267 146.317155 
L 675.520988 145.556436 
L 676.514848 145.297793 
L 677.508709 144.405042 
L 678.502569 143.888163 
L 679.49643 143.588689 
L 682.478011 141.868975 
L 683.471871 140.755481 
L 684.465732 140.393067 
L 685.459592 139.779764 
L 686.453453 136.222107 
L 687.447313 135.327093 
L 688.441174 132.3779 
L 689.435034 132.107086 
L 690.428895 130.634352 
L 691.422755 126.004234 
L 692.416616 124.17975 
L 693.410476 123.907523 
L 694.404336 121.233149 
L 695.398197 121.17702 
L 696.392057 118.232124 
L 697.385918 114.689661 
L 698.379778 114.681995 
L 699.373639 113.148617 
L 700.367499 112.625443 
L 701.36136 110.152604 
L 702.35522 108.085256 
L 703.349081 107.506693 
L 704.342941 102.60473 
L 705.336801 92.286461 
L 706.330662 89.947633 
L 707.324522 88.60167 
L 708.318383 87.838901 
L 709.312243 86.909794 
L 710.306104 80.599879 
L 711.299964 80.169056 
L 713.287685 78.693378 
L 714.281546 78.342038 
L 715.275406 76.740554 
L 716.269267 76.188102 
L 717.263127 76.00937 
L 718.256987 74.518513 
L 719.250848 69.430277 
L 720.244708 68.046654 
L 721.238569 65.689279 
L 722.232429 64.241743 
L 723.22629 63.701404 
L 724.22015 60.141283 
L 725.214011 47.00031 
L 727.201732 42.826338 
L 728.195592 42.535436 
L 729.189452 41.631406 
L 731.177173 39.208811 
L 733.164894 37.40077 
L 734.158755 35.240914 
L 735.152615 32.532012 
L 736.146476 32.495516 
L 737.140336 28.875519 
L 738.134197 27.822342 
L 739.128057 24.628656 
L 740.111293 22.190557 
L 740.111293 22.190557 
" style="fill:none;stroke:#8b0000;stroke-linecap:square;stroke-opacity:0.75;stroke-width:2;"/>
   </g>
   <g id="line2d_17">
    <path clip-path="url(#p6dbd818e96)" d="M 448.441917 268.969205 
L 451.56268 268.969205 
L 454.717453 268.969205 
L 457.872227 268.969204 
L 461.027001 268.969203 
L 464.181775 268.969203 
L 467.336549 268.969198 
L 470.491322 268.96911 
L 473.646096 268.9683 
L 476.80087 268.96539 
L 479.955644 268.96135 
L 483.110417 268.940013 
L 486.265191 268.938057 
L 489.419965 268.921448 
L 492.574739 268.87568 
L 495.729513 268.708232 
L 498.884286 268.700193 
L 502.03906 268.659415 
L 505.193834 268.608232 
L 508.348608 268.5796 
L 511.503382 268.5796 
L 514.658155 268.487062 
L 517.812929 268.136693 
L 520.967703 268.013291 
L 524.122477 267.589385 
L 527.27725 267.168726 
L 530.432024 267.068886 
L 533.586798 267.061669 
L 536.741572 266.950685 
L 539.896346 266.481852 
L 543.051119 265.559199 
L 546.205893 263.562189 
L 549.360667 263.101833 
L 552.515441 262.118609 
L 555.670215 261.53595 
L 558.824988 260.028955 
L 561.979762 259.831354 
L 565.134536 258.731995 
L 568.28931 258.109677 
L 571.444083 256.860782 
L 574.598857 256.364059 
L 577.753631 255.834497 
L 580.908405 254.401982 
L 584.063179 253.985672 
L 587.217952 250.655014 
L 590.372726 246.103307 
L 593.5275 246.097894 
L 596.682274 245.841235 
L 599.837048 244.941889 
L 602.991821 244.403288 
L 606.146595 244.089953 
L 609.301369 244.033298 
L 612.456143 241.87724 
L 615.610917 239.155577 
L 618.76569 233.315849 
L 621.920464 231.386988 
L 625.075238 229.834503 
L 628.230012 227.925827 
L 631.384785 226.685961 
L 634.539559 222.410981 
L 637.694333 218.549618 
L 640.849107 218.262866 
L 644.003881 216.813975 
L 647.158654 215.391101 
L 650.313428 212.162632 
L 653.468202 203.376933 
L 656.622976 199.971577 
L 659.77775 197.716865 
L 662.932523 196.29436 
L 666.087297 192.472684 
L 669.242071 184.325659 
L 672.396845 181.508024 
L 675.551618 180.378841 
L 678.706392 176.690243 
L 681.861166 169.626744 
L 685.01594 153.418426 
L 688.170714 146.317155 
L 691.325487 143.888163 
L 694.480261 143.588689 
L 697.635035 141.868975 
L 700.789809 139.779764 
L 703.944583 132.3779 
L 707.099356 124.17975 
L 710.25413 80.599879 
L 713.408904 78.342038 
L 716.563678 76.00937 
L 719.718451 47.00031 
L 722.873225 41.631406 
L 726.027999 38.272213 
L 729.182773 37.40077 
L 732.337547 35.240914 
L 735.49232 27.822342 
L 738.613083 24.628656 
" style="fill:none;stroke:#000080;stroke-linecap:square;stroke-opacity:0.75;stroke-width:2;"/>
   </g>
   <g id="line2d_18">
    <path clip-path="url(#p6dbd818e96)" d="M 446.254773 256.614659 
L 740.800227 256.614659 
" style="fill:none;stroke:#ff0000;stroke-dasharray:3.7,1.6;stroke-dashoffset:0;"/>
   </g>
   <g id="line2d_19">
    <path clip-path="url(#p6dbd818e96)" d="M 446.254773 268.969205 
L 740.800227 21.878295 
" style="fill:none;stroke:#808080;stroke-dasharray:1.5,2.475;stroke-dashoffset:0;stroke-width:1.5;"/>
   </g>
   <g id="patch_6">
    <path d="M 431.5275 281.32375 
L 431.5275 9.52375 
" style="fill:none;stroke:#000000;stroke-linecap:square;stroke-linejoin:miter;stroke-width:0.8;"/>
   </g>
   <g id="patch_7">
    <path d="M 431.5275 281.32375 
L 755.5275 281.32375 
" style="fill:none;stroke:#000000;stroke-linecap:square;stroke-linejoin:miter;stroke-width:0.8;"/>
   </g>
   <g id="text_14">
    <!-- Trapnell -->
    <defs>
     <path d="M -0.296875 72.90625 
L 61.375 72.90625 
L 61.375 64.59375 
L 35.5 64.59375 
L 35.5 0 
L 25.59375 0 
L 25.59375 64.59375 
L -0.296875 64.59375 
z
" id="DejaVuSans-84"/>
     <path d="M 41.109375 46.296875 
Q 39.59375 47.171875 37.8125 47.578125 
Q 36.03125 48 33.890625 48 
Q 26.265625 48 22.1875 43.046875 
Q 18.109375 38.09375 18.109375 28.8125 
L 18.109375 0 
L 9.078125 0 
L 9.078125 54.6875 
L 18.109375 54.6875 
L 18.109375 46.1875 
Q 20.953125 51.171875 25.484375 53.578125 
Q 30.03125 56 36.53125 56 
Q 37.453125 56 38.578125 55.875 
Q 39.703125 55.765625 41.0625 55.515625 
z
" id="DejaVuSans-114"/>
    </defs>
    <g transform="translate(460.982045 43.15392)scale(0.28 -0.28)">
     <use xlink:href="#DejaVuSans-84"/>
     <use x="60.865234" xlink:href="#DejaVuSans-114"/>
     <use x="101.978516" xlink:href="#DejaVuSans-97"/>
     <use x="163.257812" xlink:href="#DejaVuSans-112"/>
     <use x="226.734375" xlink:href="#DejaVuSans-110"/>
     <use x="290.113281" xlink:href="#DejaVuSans-101"/>
     <use x="351.636719" xlink:href="#DejaVuSans-108"/>
     <use x="379.419922" xlink:href="#DejaVuSans-108"/>
    </g>
   </g>
  </g>
  <g id="axes_3">
   <g id="patch_8">
    <path d="M 771.7275 281.32375 
L 1095.7275 281.32375 
L 1095.7275 9.52375 
L 771.7275 9.52375 
z
" style="fill:none;"/>
   </g>
   <g id="matplotlib.axis_5">
    <g id="xtick_7">
     <g id="line2d_20">
      <g>
       <use style="stroke:#000000;stroke-width:0.8;" x="786.454773" xlink:href="#mb63050b241" y="281.32375"/>
      </g>
     </g>
     <g id="text_15">
      <!-- 0 -->
      <g transform="translate(777.547273 311.099375)scale(0.28 -0.28)">
       <use xlink:href="#DejaVuSans-48"/>
      </g>
     </g>
    </g>
    <g id="xtick_8">
     <g id="line2d_21">
      <g>
       <use style="stroke:#000000;stroke-width:0.8;" x="933.7275" xlink:href="#mb63050b241" y="281.32375"/>
      </g>
     </g>
     <g id="text_16">
      <!-- 0.5 -->
      <g transform="translate(911.463125 311.099375)scale(0.28 -0.28)">
       <use xlink:href="#DejaVuSans-48"/>
       <use x="63.623047" xlink:href="#DejaVuSans-46"/>
       <use x="95.410156" xlink:href="#DejaVuSans-53"/>
      </g>
     </g>
    </g>
    <g id="xtick_9">
     <g id="line2d_22">
      <g>
       <use style="stroke:#000000;stroke-width:0.8;" x="1081.000227" xlink:href="#mb63050b241" y="281.32375"/>
      </g>
     </g>
     <g id="text_17">
      <!-- 1 -->
      <g transform="translate(1072.092727 311.099375)scale(0.28 -0.28)">
       <use xlink:href="#DejaVuSans-49"/>
      </g>
     </g>
    </g>
    <g id="text_18">
     <!-- Quantiles -->
     <g transform="translate(867.207812 342.198125)scale(0.28 -0.28)">
      <use xlink:href="#DejaVuSans-81"/>
      <use x="78.710938" xlink:href="#DejaVuSans-117"/>
      <use x="142.089844" xlink:href="#DejaVuSans-97"/>
      <use x="203.369141" xlink:href="#DejaVuSans-110"/>
      <use x="266.748047" xlink:href="#DejaVuSans-116"/>
      <use x="305.957031" xlink:href="#DejaVuSans-105"/>
      <use x="333.740234" xlink:href="#DejaVuSans-108"/>
      <use x="361.523438" xlink:href="#DejaVuSans-101"/>
      <use x="423.046875" xlink:href="#DejaVuSans-115"/>
     </g>
    </g>
   </g>
   <g id="matplotlib.axis_6">
    <g id="ytick_7"/>
    <g id="ytick_8"/>
    <g id="ytick_9"/>
   </g>
   <g id="line2d_23">
    <path clip-path="url(#p66f6cf53db)" d="M 786.99297 268.969205 
L 880.931141 268.861445 
L 891.800979 268.679989 
L 895.683065 268.620293 
L 905.000069 268.435876 
L 908.105737 268.323461 
L 908.882154 268.103192 
L 915.869908 267.855697 
L 917.422742 267.712395 
L 922.081244 267.49827 
L 926.739747 267.033519 
L 927.516164 266.900263 
L 929.845415 266.822005 
L 931.398249 266.612186 
L 936.056751 266.19595 
L 936.833168 266.151636 
L 937.609585 265.889713 
L 942.268088 265.559721 
L 943.820922 265.10417 
L 944.597339 265.083753 
L 945.373756 264.622248 
L 946.92659 264.320061 
L 947.703007 263.577566 
L 948.479424 263.507296 
L 949.255841 263.219646 
L 953.137926 262.82252 
L 953.914343 262.400034 
L 956.243594 262.206467 
L 957.796429 261.897518 
L 958.572846 261.505347 
L 959.349263 261.495049 
L 960.12568 260.787914 
L 960.902097 260.757015 
L 961.678514 259.942982 
L 962.454931 259.791258 
L 964.007765 259.193495 
L 964.784182 259.110322 
L 965.560599 258.170795 
L 967.113433 257.523259 
L 970.219101 256.852102 
L 970.995518 256.772774 
L 971.771935 256.395973 
L 974.101187 256.227314 
L 974.877604 255.924948 
L 975.654021 255.342094 
L 976.430438 254.905691 
L 977.206855 254.158428 
L 977.983272 253.130344 
L 978.759689 253.127227 
L 979.536106 252.417074 
L 980.312523 251.866826 
L 981.08894 251.140272 
L 981.865357 251.051028 
L 983.418191 250.12386 
L 984.971025 249.930252 
L 986.523859 248.697185 
L 987.300277 247.85189 
L 988.076694 247.214154 
L 988.853111 244.071707 
L 989.629528 243.766995 
L 991.182362 243.455454 
L 991.958779 242.378113 
L 992.735196 242.043146 
L 993.511613 241.895108 
L 994.28803 241.376818 
L 995.064447 241.259939 
L 995.840864 240.294148 
L 996.617281 239.718435 
L 997.393698 238.531351 
L 998.170115 234.308208 
L 998.946532 233.013152 
L 999.722949 232.937471 
L 1001.275783 232.240332 
L 1002.0522 231.526214 
L 1002.828618 229.826451 
L 1003.605035 229.397861 
L 1004.381452 227.768612 
L 1005.157869 227.677403 
L 1006.710703 226.4903 
L 1009.039954 225.136332 
L 1009.816371 224.828366 
L 1010.592788 223.052746 
L 1011.369205 220.888115 
L 1012.145622 220.430013 
L 1012.922039 216.619363 
L 1013.698456 216.138769 
L 1014.474873 215.30784 
L 1015.25129 214.958745 
L 1016.027707 214.378995 
L 1016.804124 212.011249 
L 1017.580542 209.146863 
L 1018.356959 207.110541 
L 1019.133376 206.72343 
L 1019.909793 204.635559 
L 1020.68621 204.090348 
L 1021.462627 203.730429 
L 1022.239044 203.030232 
L 1023.015461 203.019172 
L 1023.791878 200.156996 
L 1024.568295 199.615128 
L 1025.344712 197.403803 
L 1026.121129 197.214118 
L 1026.897546 197.165105 
L 1027.673963 194.480173 
L 1028.45038 194.32432 
L 1029.226797 194.04975 
L 1030.003214 193.977969 
L 1030.779631 192.706788 
L 1031.556048 189.992202 
L 1033.108883 188.929915 
L 1033.8853 187.340067 
L 1034.661717 187.065332 
L 1035.438134 183.742039 
L 1036.214551 173.025356 
L 1036.990968 172.414592 
L 1037.767385 171.017416 
L 1038.543802 170.197558 
L 1039.320219 168.747539 
L 1040.096636 164.670354 
L 1040.873053 162.266116 
L 1041.64947 160.52772 
L 1042.425887 160.495366 
L 1043.202304 160.077076 
L 1043.978721 158.722537 
L 1044.755138 158.647639 
L 1045.531555 158.204968 
L 1046.307972 154.50361 
L 1047.084389 152.651341 
L 1047.860806 152.314167 
L 1048.637224 152.142851 
L 1049.413641 151.22648 
L 1050.190058 151.206441 
L 1050.966475 144.283635 
L 1051.742892 144.061703 
L 1052.519309 134.963554 
L 1053.295726 132.330722 
L 1054.072143 131.912032 
L 1054.84856 128.292882 
L 1055.624977 126.659794 
L 1056.401394 125.739846 
L 1057.177811 113.469242 
L 1057.954228 104.361121 
L 1059.507062 103.925361 
L 1060.283479 102.109555 
L 1061.059896 98.282307 
L 1061.836313 93.451431 
L 1062.61273 92.66807 
L 1063.389148 92.239125 
L 1064.941982 88.675358 
L 1065.718399 85.882399 
L 1066.494816 83.994176 
L 1067.271233 83.633493 
L 1068.824067 80.914401 
L 1069.600484 76.249597 
L 1070.376901 74.036595 
L 1071.153318 72.52629 
L 1071.929735 71.988003 
L 1073.482569 69.502705 
L 1074.258986 61.456385 
L 1075.81182 57.877098 
L 1076.588237 57.709788 
L 1077.364654 56.480885 
L 1078.917489 54.967957 
L 1079.693906 41.770033 
L 1080.46203 40.704236 
L 1080.46203 40.704236 
" style="fill:none;stroke:#b8860b;stroke-linecap:square;stroke-opacity:0.75;stroke-width:2;"/>
   </g>
   <g id="line2d_24">
    <path clip-path="url(#p66f6cf53db)" d="M 787.026104 268.969205 
L 885.923053 268.861445 
L 897.462057 268.679989 
L 901.58313 268.612419 
L 909.825276 268.435876 
L 913.122135 268.323461 
L 913.946349 268.103192 
L 920.540066 267.855697 
L 922.188495 267.712395 
L 927.133783 267.49827 
L 932.079071 267.033519 
L 932.903285 266.900263 
L 935.375929 266.822005 
L 937.024358 266.612186 
L 941.969646 266.151636 
L 942.793861 265.889713 
L 947.739148 265.559721 
L 949.387578 265.10417 
L 950.211792 265.083753 
L 951.036007 264.622248 
L 952.684436 264.320061 
L 953.508651 263.577566 
L 954.332865 263.507296 
L 955.15708 263.219646 
L 958.453938 262.82252 
L 959.278153 262.400034 
L 961.750797 262.206467 
L 963.399226 261.897518 
L 964.223441 261.505347 
L 965.047655 261.495049 
L 965.87187 260.787914 
L 966.696084 260.757015 
L 967.520299 259.942982 
L 968.344514 259.791258 
L 969.992943 259.193495 
L 970.817158 259.110322 
L 971.641372 258.170795 
L 973.289801 257.523259 
L 976.58666 256.772774 
L 977.410874 256.395973 
L 979.883518 256.227314 
L 980.707733 255.924948 
L 981.531947 255.342094 
L 982.356162 254.905691 
L 983.180377 254.158428 
L 984.004591 253.130344 
L 984.828806 253.127227 
L 985.653021 252.417074 
L 986.477235 251.866826 
L 987.30145 251.140272 
L 988.125664 251.051028 
L 989.774094 250.12386 
L 991.422523 249.930252 
L 992.246737 248.697185 
L 993.070952 247.85189 
L 993.895167 247.214154 
L 994.719381 244.071707 
L 995.543596 243.647478 
L 996.36781 243.455454 
L 997.192025 242.378113 
L 998.840454 241.376818 
L 999.664669 241.259939 
L 1000.488884 240.294148 
L 1001.313098 238.531351 
L 1002.137313 234.308208 
L 1002.961527 233.013152 
L 1003.785742 232.547935 
L 1004.609957 232.240332 
L 1005.434171 231.526214 
L 1006.258386 229.826451 
L 1007.0826 229.397861 
L 1007.906815 227.768612 
L 1008.73103 227.677403 
L 1010.379459 226.4903 
L 1012.852103 225.136332 
L 1013.676317 224.828366 
L 1014.500532 223.052746 
L 1015.324747 220.888115 
L 1016.148961 220.430013 
L 1016.973176 216.619363 
L 1017.79739 216.138769 
L 1018.621605 215.30784 
L 1019.44582 214.958745 
L 1020.270034 214.378995 
L 1021.094249 212.011249 
L 1021.918463 209.146863 
L 1022.742678 207.110541 
L 1023.566893 206.72343 
L 1024.391107 204.635559 
L 1025.215322 204.090348 
L 1026.039536 203.730429 
L 1026.863751 203.030232 
L 1027.687966 203.019172 
L 1028.51218 200.156996 
L 1029.336395 199.615128 
L 1030.16061 197.214118 
L 1030.984824 197.165105 
L 1031.809039 194.480173 
L 1032.633253 194.32432 
L 1033.457468 194.04975 
L 1034.281683 193.977969 
L 1035.105897 189.992202 
L 1036.754326 188.929915 
L 1037.578541 187.340067 
L 1038.402756 187.065332 
L 1039.22697 183.742039 
L 1040.051185 173.025356 
L 1040.875399 170.197558 
L 1041.699614 164.670354 
L 1042.523829 162.266116 
L 1043.348043 160.52772 
L 1044.172258 160.495366 
L 1044.996473 160.077076 
L 1045.820687 158.722537 
L 1046.644902 158.647639 
L 1047.469116 158.204968 
L 1048.293331 154.50361 
L 1049.117546 152.651341 
L 1049.94176 152.314167 
L 1050.765975 152.142851 
L 1051.590189 151.22648 
L 1052.414404 151.206441 
L 1053.238619 144.283635 
L 1054.062833 144.061703 
L 1054.887048 128.292882 
L 1055.711262 126.659794 
L 1056.535477 125.739846 
L 1057.359692 113.469242 
L 1058.183906 104.361121 
L 1059.008121 104.133784 
L 1059.832336 102.109555 
L 1060.65655 98.282307 
L 1061.480765 93.451431 
L 1062.304979 92.66807 
L 1063.129194 92.239125 
L 1064.777623 88.675358 
L 1065.601838 85.882399 
L 1066.426052 83.994176 
L 1067.250267 83.633493 
L 1068.898696 80.914401 
L 1069.722911 76.249597 
L 1070.547125 74.036595 
L 1071.37134 72.52629 
L 1072.195555 70.749771 
L 1073.019769 69.502705 
L 1073.843984 61.456385 
L 1075.492413 57.877098 
L 1076.316628 57.709788 
L 1077.140842 56.480885 
L 1078.789272 54.967957 
L 1079.613486 41.770033 
L 1080.428896 40.704236 
L 1080.428896 40.704236 
" style="fill:none;stroke:#8b0000;stroke-linecap:square;stroke-opacity:0.75;stroke-width:2;"/>
   </g>
   <g id="line2d_25">
    <path clip-path="url(#p66f6cf53db)" d="M 788.411354 268.969205 
L 791.20323 268.969205 
L 794.025493 268.969205 
L 796.847755 268.969205 
L 799.670018 268.969205 
L 802.492281 268.969205 
L 805.314544 268.969205 
L 808.136806 268.969205 
L 810.959069 268.969205 
L 813.781332 268.969205 
L 816.603595 268.969205 
L 819.425858 268.969205 
L 822.24812 268.969205 
L 825.070383 268.969205 
L 827.892646 268.969205 
L 830.714909 268.969205 
L 833.537171 268.969205 
L 836.359434 268.969204 
L 839.181697 268.969204 
L 842.00396 268.969203 
L 844.826223 268.969202 
L 847.648485 268.969201 
L 850.470748 268.969201 
L 853.293011 268.9692 
L 856.115274 268.969197 
L 858.937536 268.969185 
L 861.759799 268.969183 
L 864.582062 268.969177 
L 867.404325 268.96917 
L 870.226588 268.969166 
L 873.04885 268.969135 
L 875.871113 268.969103 
L 878.693376 268.969084 
L 881.515639 268.969072 
L 884.337901 268.968721 
L 887.160164 268.968396 
L 889.982427 268.96832 
L 892.80469 268.966874 
L 895.626953 268.966658 
L 898.449215 268.965158 
L 901.271478 268.965043 
L 904.093741 268.964965 
L 906.916004 268.955492 
L 909.738266 268.955319 
L 912.560529 268.943511 
L 915.382792 268.941624 
L 918.205055 268.94097 
L 921.027318 268.931884 
L 923.84958 268.927502 
L 926.671843 268.926264 
L 929.494106 268.918772 
L 932.316369 268.911253 
L 935.138631 268.910711 
L 937.960894 268.900384 
L 940.783157 268.878679 
L 943.60542 268.783396 
L 946.427682 268.780116 
L 949.249945 268.771789 
L 952.072208 268.744026 
L 954.894471 268.612419 
L 957.716734 268.323461 
L 960.538996 268.103192 
L 963.361259 268.057345 
L 966.183522 267.961529 
L 969.005785 267.404872 
L 971.828047 267.404445 
L 974.65031 266.684754 
L 977.472573 266.527467 
L 980.294836 266.20415 
L 983.117099 265.808678 
L 985.939361 265.083753 
L 988.761624 263.219646 
L 991.583887 262.353979 
L 994.40615 261.897518 
L 997.228412 261.505347 
L 1000.050675 259.942982 
L 1002.872938 259.193495 
L 1005.695201 256.772774 
L 1008.517464 256.365923 
L 1011.339726 254.905691 
L 1014.161989 247.85189 
L 1016.984252 243.647478 
L 1019.806515 242.378113 
L 1022.628777 232.240332 
L 1025.45104 227.768612 
L 1028.273303 227.677403 
L 1031.095566 227.07085 
L 1033.917829 226.4903 
L 1036.740091 225.628066 
L 1039.562354 225.136332 
L 1042.384617 223.052746 
L 1045.20688 216.138769 
L 1048.029142 203.730429 
L 1050.851405 203.019172 
L 1053.673668 200.156996 
L 1056.495931 170.197558 
L 1059.318194 160.495366 
L 1062.140456 158.647639 
L 1064.962719 104.361121 
L 1067.784982 74.036595 
L 1070.607245 59.687581 
L 1073.429507 55.738544 
L 1076.25177 54.967957 
L 1079.043646 40.704236 
" style="fill:none;stroke:#000080;stroke-linecap:square;stroke-opacity:0.75;stroke-width:2;"/>
   </g>
   <g id="line2d_26">
    <path clip-path="url(#p66f6cf53db)" d="M 786.454773 256.614659 
L 1081.000227 256.614659 
" style="fill:none;stroke:#ff0000;stroke-dasharray:3.7,1.6;stroke-dashoffset:0;"/>
   </g>
   <g id="line2d_27">
    <path clip-path="url(#p66f6cf53db)" d="M 786.454773 268.969205 
L 1081.000227 21.878295 
" style="fill:none;stroke:#808080;stroke-dasharray:1.5,2.475;stroke-dashoffset:0;stroke-width:1.5;"/>
   </g>
   <g id="patch_9">
    <path d="M 771.7275 281.32375 
L 771.7275 9.52375 
" style="fill:none;stroke:#000000;stroke-linecap:square;stroke-linejoin:miter;stroke-width:0.8;"/>
   </g>
   <g id="patch_10">
    <path d="M 771.7275 281.32375 
L 1095.7275 281.32375 
" style="fill:none;stroke:#000000;stroke-linecap:square;stroke-linejoin:miter;stroke-width:0.8;"/>
   </g>
   <g id="text_19">
    <!-- Song -->
    <defs>
     <path d="M 53.515625 70.515625 
L 53.515625 60.890625 
Q 47.90625 63.578125 42.921875 64.890625 
Q 37.9375 66.21875 33.296875 66.21875 
Q 25.25 66.21875 20.875 63.09375 
Q 16.5 59.96875 16.5 54.203125 
Q 16.5 49.359375 19.40625 46.890625 
Q 22.3125 44.4375 30.421875 42.921875 
L 36.375 41.703125 
Q 47.40625 39.59375 52.65625 34.296875 
Q 57.90625 29 57.90625 20.125 
Q 57.90625 9.515625 50.796875 4.046875 
Q 43.703125 -1.421875 29.984375 -1.421875 
Q 24.8125 -1.421875 18.96875 -0.25 
Q 13.140625 0.921875 6.890625 3.21875 
L 6.890625 13.375 
Q 12.890625 10.015625 18.65625 8.296875 
Q 24.421875 6.59375 29.984375 6.59375 
Q 38.421875 6.59375 43.015625 9.90625 
Q 47.609375 13.234375 47.609375 19.390625 
Q 47.609375 24.75 44.3125 27.78125 
Q 41.015625 30.8125 33.5 32.328125 
L 27.484375 33.5 
Q 16.453125 35.6875 11.515625 40.375 
Q 6.59375 45.0625 6.59375 53.421875 
Q 6.59375 63.09375 13.40625 68.65625 
Q 20.21875 74.21875 32.171875 74.21875 
Q 37.3125 74.21875 42.625 73.28125 
Q 47.953125 72.359375 53.515625 70.515625 
z
" id="DejaVuSans-83"/>
     <path d="M 30.609375 48.390625 
Q 23.390625 48.390625 19.1875 42.75 
Q 14.984375 37.109375 14.984375 27.296875 
Q 14.984375 17.484375 19.15625 11.84375 
Q 23.34375 6.203125 30.609375 6.203125 
Q 37.796875 6.203125 41.984375 11.859375 
Q 46.1875 17.53125 46.1875 27.296875 
Q 46.1875 37.015625 41.984375 42.703125 
Q 37.796875 48.390625 30.609375 48.390625 
z
M 30.609375 56 
Q 42.328125 56 49.015625 48.375 
Q 55.71875 40.765625 55.71875 27.296875 
Q 55.71875 13.875 49.015625 6.21875 
Q 42.328125 -1.421875 30.609375 -1.421875 
Q 18.84375 -1.421875 12.171875 6.21875 
Q 5.515625 13.875 5.515625 27.296875 
Q 5.515625 40.765625 12.171875 48.375 
Q 18.84375 56 30.609375 56 
z
" id="DejaVuSans-111"/>
     <path d="M 45.40625 27.984375 
Q 45.40625 37.75 41.375 43.109375 
Q 37.359375 48.484375 30.078125 48.484375 
Q 22.859375 48.484375 18.828125 43.109375 
Q 14.796875 37.75 14.796875 27.984375 
Q 14.796875 18.265625 18.828125 12.890625 
Q 22.859375 7.515625 30.078125 7.515625 
Q 37.359375 7.515625 41.375 12.890625 
Q 45.40625 18.265625 45.40625 27.984375 
z
M 54.390625 6.78125 
Q 54.390625 -7.171875 48.1875 -13.984375 
Q 42 -20.796875 29.203125 -20.796875 
Q 24.46875 -20.796875 20.265625 -20.09375 
Q 16.0625 -19.390625 12.109375 -17.921875 
L 12.109375 -9.1875 
Q 16.0625 -11.328125 19.921875 -12.34375 
Q 23.78125 -13.375 27.78125 -13.375 
Q 36.625 -13.375 41.015625 -8.765625 
Q 45.40625 -4.15625 45.40625 5.171875 
L 45.40625 9.625 
Q 42.625 4.78125 38.28125 2.390625 
Q 33.9375 0 27.875 0 
Q 17.828125 0 11.671875 7.65625 
Q 5.515625 15.328125 5.515625 27.984375 
Q 5.515625 40.671875 11.671875 48.328125 
Q 17.828125 56 27.875 56 
Q 33.9375 56 38.28125 53.609375 
Q 42.625 51.21875 45.40625 46.390625 
L 45.40625 54.6875 
L 54.390625 54.6875 
z
" id="DejaVuSans-103"/>
    </defs>
    <g transform="translate(801.182045 43.15392)scale(0.28 -0.28)">
     <use xlink:href="#DejaVuSans-83"/>
     <use x="63.476562" xlink:href="#DejaVuSans-111"/>
     <use x="124.658203" xlink:href="#DejaVuSans-110"/>
     <use x="188.037109" xlink:href="#DejaVuSans-103"/>
    </g>
   </g>
  </g>
 </g>
 <defs>
  <clipPath id="p28c6d1bc99">
   <rect height="271.8" width="324" x="91.3275" y="9.52375"/>
  </clipPath>
  <clipPath id="p6dbd818e96">
   <rect height="271.8" width="324" x="431.5275" y="9.52375"/>
  </clipPath>
  <clipPath id="p66f6cf53db">
   <rect height="271.8" width="324" x="771.7275" y="9.52375"/>
  </clipPath>
 </defs>
</svg>
