<?xml version="1.0" encoding="utf-8" standalone="no"?>
<!DOCTYPE svg PUBLIC "-//W3C//DTD SVG 1.1//EN"
  "http://www.w3.org/Graphics/SVG/1.1/DTD/svg11.dtd">
<!-- Created with matplotlib (https://matplotlib.org/) -->
<svg height="368.935313pt" version="1.1" viewBox="0 0 1120.7425 368.935313" width="1120.7425pt" xmlns="http://www.w3.org/2000/svg" xmlns:xlink="http://www.w3.org/1999/xlink">
 <defs>
  <style type="text/css">
*{stroke-linecap:butt;stroke-linejoin:round;}
  </style>
 </defs>
 <g id="figure_1">
  <g id="patch_1">
   <path d="M 0 368.935313 
L 1120.7425 368.935313 
L 1120.7425 0 
L 0 0 
z
" style="fill:none;"/>
  </g>
  <g id="axes_1">
   <g id="patch_2">
    <path d="M 109.1425 295.037813 
L 433.1425 295.037813 
L 433.1425 17.837813 
L 109.1425 17.837813 
z
" style="fill:none;"/>
   </g>
   <g id="matplotlib.axis_1">
    <g id="xtick_1">
     <g id="line2d_1">
      <defs>
       <path d="M 0 0 
L 0 5 
" id="mde9fd80653" style="stroke:#000000;stroke-width:0.8;"/>
      </defs>
      <g>
       <use style="stroke:#000000;stroke-width:0.8;" x="123.869773" xlink:href="#mde9fd80653" y="295.037813"/>
      </g>
     </g>
     <g id="text_1">
      <!-- 1 -->
      <defs>
       <path d="M 12.40625 8.296875 
L 28.515625 8.296875 
L 28.515625 63.921875 
L 10.984375 60.40625 
L 10.984375 69.390625 
L 28.421875 72.90625 
L 38.28125 72.90625 
L 38.28125 8.296875 
L 54.390625 8.296875 
L 54.390625 0 
L 12.40625 0 
z
" id="DejaVuSans-49"/>
      </defs>
      <g transform="translate(114.962273 324.813438)scale(0.28 -0.28)">
       <use xlink:href="#DejaVuSans-49"/>
      </g>
     </g>
    </g>
    <g id="xtick_2">
     <g id="line2d_2">
      <g>
       <use style="stroke:#000000;stroke-width:0.8;" x="197.506136" xlink:href="#mde9fd80653" y="295.037813"/>
      </g>
     </g>
     <g id="text_2">
      <!-- 2 -->
      <defs>
       <path d="M 19.1875 8.296875 
L 53.609375 8.296875 
L 53.609375 0 
L 7.328125 0 
L 7.328125 8.296875 
Q 12.9375 14.109375 22.625 23.890625 
Q 32.328125 33.6875 34.8125 36.53125 
Q 39.546875 41.84375 41.421875 45.53125 
Q 43.3125 49.21875 43.3125 52.78125 
Q 43.3125 58.59375 39.234375 62.25 
Q 35.15625 65.921875 28.609375 65.921875 
Q 23.96875 65.921875 18.8125 64.3125 
Q 13.671875 62.703125 7.8125 59.421875 
L 7.8125 69.390625 
Q 13.765625 71.78125 18.9375 73 
Q 24.125 74.21875 28.421875 74.21875 
Q 39.75 74.21875 46.484375 68.546875 
Q 53.21875 62.890625 53.21875 53.421875 
Q 53.21875 48.921875 51.53125 44.890625 
Q 49.859375 40.875 45.40625 35.40625 
Q 44.1875 33.984375 37.640625 27.21875 
Q 31.109375 20.453125 19.1875 8.296875 
z
" id="DejaVuSans-50"/>
      </defs>
      <g transform="translate(188.598636 324.813438)scale(0.28 -0.28)">
       <use xlink:href="#DejaVuSans-50"/>
      </g>
     </g>
    </g>
    <g id="xtick_3">
     <g id="line2d_3">
      <g>
       <use style="stroke:#000000;stroke-width:0.8;" x="271.1425" xlink:href="#mde9fd80653" y="295.037813"/>
      </g>
     </g>
     <g id="text_3">
      <!-- 3 -->
      <defs>
       <path d="M 40.578125 39.3125 
Q 47.65625 37.796875 51.625 33 
Q 55.609375 28.21875 55.609375 21.1875 
Q 55.609375 10.40625 48.1875 4.484375 
Q 40.765625 -1.421875 27.09375 -1.421875 
Q 22.515625 -1.421875 17.65625 -0.515625 
Q 12.796875 0.390625 7.625 2.203125 
L 7.625 11.71875 
Q 11.71875 9.328125 16.59375 8.109375 
Q 21.484375 6.890625 26.8125 6.890625 
Q 36.078125 6.890625 40.9375 10.546875 
Q 45.796875 14.203125 45.796875 21.1875 
Q 45.796875 27.640625 41.28125 31.265625 
Q 36.765625 34.90625 28.71875 34.90625 
L 20.21875 34.90625 
L 20.21875 43.015625 
L 29.109375 43.015625 
Q 36.375 43.015625 40.234375 45.921875 
Q 44.09375 48.828125 44.09375 54.296875 
Q 44.09375 59.90625 40.109375 62.90625 
Q 36.140625 65.921875 28.71875 65.921875 
Q 24.65625 65.921875 20.015625 65.03125 
Q 15.375 64.15625 9.8125 62.3125 
L 9.8125 71.09375 
Q 15.4375 72.65625 20.34375 73.4375 
Q 25.25 74.21875 29.59375 74.21875 
Q 40.828125 74.21875 47.359375 69.109375 
Q 53.90625 64.015625 53.90625 55.328125 
Q 53.90625 49.265625 50.4375 45.09375 
Q 46.96875 40.921875 40.578125 39.3125 
z
" id="DejaVuSans-51"/>
      </defs>
      <g transform="translate(262.235 324.813438)scale(0.28 -0.28)">
       <use xlink:href="#DejaVuSans-51"/>
      </g>
     </g>
    </g>
    <g id="xtick_4">
     <g id="line2d_4">
      <g>
       <use style="stroke:#000000;stroke-width:0.8;" x="344.778864" xlink:href="#mde9fd80653" y="295.037813"/>
      </g>
     </g>
     <g id="text_4">
      <!-- 4 -->
      <defs>
       <path d="M 37.796875 64.3125 
L 12.890625 25.390625 
L 37.796875 25.390625 
z
M 35.203125 72.90625 
L 47.609375 72.90625 
L 47.609375 25.390625 
L 58.015625 25.390625 
L 58.015625 17.1875 
L 47.609375 17.1875 
L 47.609375 0 
L 37.796875 0 
L 37.796875 17.1875 
L 4.890625 17.1875 
L 4.890625 26.703125 
z
" id="DejaVuSans-52"/>
      </defs>
      <g transform="translate(335.871364 324.813438)scale(0.28 -0.28)">
       <use xlink:href="#DejaVuSans-52"/>
      </g>
     </g>
    </g>
    <g id="xtick_5">
     <g id="line2d_5">
      <g>
       <use style="stroke:#000000;stroke-width:0.8;" x="418.415227" xlink:href="#mde9fd80653" y="295.037813"/>
      </g>
     </g>
     <g id="text_5">
      <!-- 5 -->
      <defs>
       <path d="M 10.796875 72.90625 
L 49.515625 72.90625 
L 49.515625 64.59375 
L 19.828125 64.59375 
L 19.828125 46.734375 
Q 21.96875 47.46875 24.109375 47.828125 
Q 26.265625 48.1875 28.421875 48.1875 
Q 40.625 48.1875 47.75 41.5 
Q 54.890625 34.8125 54.890625 23.390625 
Q 54.890625 11.625 47.5625 5.09375 
Q 40.234375 -1.421875 26.90625 -1.421875 
Q 22.3125 -1.421875 17.546875 -0.640625 
Q 12.796875 0.140625 7.71875 1.703125 
L 7.71875 11.625 
Q 12.109375 9.234375 16.796875 8.0625 
Q 21.484375 6.890625 26.703125 6.890625 
Q 35.15625 6.890625 40.078125 11.328125 
Q 45.015625 15.765625 45.015625 23.390625 
Q 45.015625 31 40.078125 35.4375 
Q 35.15625 39.890625 26.703125 39.890625 
Q 22.75 39.890625 18.8125 39.015625 
Q 14.890625 38.140625 10.796875 36.28125 
z
" id="DejaVuSans-53"/>
      </defs>
      <g transform="translate(409.507727 324.813438)scale(0.28 -0.28)">
       <use xlink:href="#DejaVuSans-53"/>
      </g>
     </g>
    </g>
    <g id="text_6">
     <!-- -log10 p-value -->
     <defs>
      <path d="M 4.890625 31.390625 
L 31.203125 31.390625 
L 31.203125 23.390625 
L 4.890625 23.390625 
z
" id="DejaVuSans-45"/>
      <path d="M 9.421875 75.984375 
L 18.40625 75.984375 
L 18.40625 0 
L 9.421875 0 
z
" id="DejaVuSans-108"/>
      <path d="M 30.609375 48.390625 
Q 23.390625 48.390625 19.1875 42.75 
Q 14.984375 37.109375 14.984375 27.296875 
Q 14.984375 17.484375 19.15625 11.84375 
Q 23.34375 6.203125 30.609375 6.203125 
Q 37.796875 6.203125 41.984375 11.859375 
Q 46.1875 17.53125 46.1875 27.296875 
Q 46.1875 37.015625 41.984375 42.703125 
Q 37.796875 48.390625 30.609375 48.390625 
z
M 30.609375 56 
Q 42.328125 56 49.015625 48.375 
Q 55.71875 40.765625 55.71875 27.296875 
Q 55.71875 13.875 49.015625 6.21875 
Q 42.328125 -1.421875 30.609375 -1.421875 
Q 18.84375 -1.421875 12.171875 6.21875 
Q 5.515625 13.875 5.515625 27.296875 
Q 5.515625 40.765625 12.171875 48.375 
Q 18.84375 56 30.609375 56 
z
" id="DejaVuSans-111"/>
      <path d="M 45.40625 27.984375 
Q 45.40625 37.75 41.375 43.109375 
Q 37.359375 48.484375 30.078125 48.484375 
Q 22.859375 48.484375 18.828125 43.109375 
Q 14.796875 37.75 14.796875 27.984375 
Q 14.796875 18.265625 18.828125 12.890625 
Q 22.859375 7.515625 30.078125 7.515625 
Q 37.359375 7.515625 41.375 12.890625 
Q 45.40625 18.265625 45.40625 27.984375 
z
M 54.390625 6.78125 
Q 54.390625 -7.171875 48.1875 -13.984375 
Q 42 -20.796875 29.203125 -20.796875 
Q 24.46875 -20.796875 20.265625 -20.09375 
Q 16.0625 -19.390625 12.109375 -17.921875 
L 12.109375 -9.1875 
Q 16.0625 -11.328125 19.921875 -12.34375 
Q 23.78125 -13.375 27.78125 -13.375 
Q 36.625 -13.375 41.015625 -8.765625 
Q 45.40625 -4.15625 45.40625 5.171875 
L 45.40625 9.625 
Q 42.625 4.78125 38.28125 2.390625 
Q 33.9375 0 27.875 0 
Q 17.828125 0 11.671875 7.65625 
Q 5.515625 15.328125 5.515625 27.984375 
Q 5.515625 40.671875 11.671875 48.328125 
Q 17.828125 56 27.875 56 
Q 33.9375 56 38.28125 53.609375 
Q 42.625 51.21875 45.40625 46.390625 
L 45.40625 54.6875 
L 54.390625 54.6875 
z
" id="DejaVuSans-103"/>
      <path d="M 31.78125 66.40625 
Q 24.171875 66.40625 20.328125 58.90625 
Q 16.5 51.421875 16.5 36.375 
Q 16.5 21.390625 20.328125 13.890625 
Q 24.171875 6.390625 31.78125 6.390625 
Q 39.453125 6.390625 43.28125 13.890625 
Q 47.125 21.390625 47.125 36.375 
Q 47.125 51.421875 43.28125 58.90625 
Q 39.453125 66.40625 31.78125 66.40625 
z
M 31.78125 74.21875 
Q 44.046875 74.21875 50.515625 64.515625 
Q 56.984375 54.828125 56.984375 36.375 
Q 56.984375 17.96875 50.515625 8.265625 
Q 44.046875 -1.421875 31.78125 -1.421875 
Q 19.53125 -1.421875 13.0625 8.265625 
Q 6.59375 17.96875 6.59375 36.375 
Q 6.59375 54.828125 13.0625 64.515625 
Q 19.53125 74.21875 31.78125 74.21875 
z
" id="DejaVuSans-48"/>
      <path id="DejaVuSans-32"/>
      <path d="M 18.109375 8.203125 
L 18.109375 -20.796875 
L 9.078125 -20.796875 
L 9.078125 54.6875 
L 18.109375 54.6875 
L 18.109375 46.390625 
Q 20.953125 51.265625 25.265625 53.625 
Q 29.59375 56 35.59375 56 
Q 45.5625 56 51.78125 48.09375 
Q 58.015625 40.1875 58.015625 27.296875 
Q 58.015625 14.40625 51.78125 6.484375 
Q 45.5625 -1.421875 35.59375 -1.421875 
Q 29.59375 -1.421875 25.265625 0.953125 
Q 20.953125 3.328125 18.109375 8.203125 
z
M 48.6875 27.296875 
Q 48.6875 37.203125 44.609375 42.84375 
Q 40.53125 48.484375 33.40625 48.484375 
Q 26.265625 48.484375 22.1875 42.84375 
Q 18.109375 37.203125 18.109375 27.296875 
Q 18.109375 17.390625 22.1875 11.75 
Q 26.265625 6.109375 33.40625 6.109375 
Q 40.53125 6.109375 44.609375 11.75 
Q 48.6875 17.390625 48.6875 27.296875 
z
" id="DejaVuSans-112"/>
      <path d="M 2.984375 54.6875 
L 12.5 54.6875 
L 29.59375 8.796875 
L 46.6875 54.6875 
L 56.203125 54.6875 
L 35.6875 0 
L 23.484375 0 
z
" id="DejaVuSans-118"/>
      <path d="M 34.28125 27.484375 
Q 23.390625 27.484375 19.1875 25 
Q 14.984375 22.515625 14.984375 16.5 
Q 14.984375 11.71875 18.140625 8.90625 
Q 21.296875 6.109375 26.703125 6.109375 
Q 34.1875 6.109375 38.703125 11.40625 
Q 43.21875 16.703125 43.21875 25.484375 
L 43.21875 27.484375 
z
M 52.203125 31.203125 
L 52.203125 0 
L 43.21875 0 
L 43.21875 8.296875 
Q 40.140625 3.328125 35.546875 0.953125 
Q 30.953125 -1.421875 24.3125 -1.421875 
Q 15.921875 -1.421875 10.953125 3.296875 
Q 6 8.015625 6 15.921875 
Q 6 25.140625 12.171875 29.828125 
Q 18.359375 34.515625 30.609375 34.515625 
L 43.21875 34.515625 
L 43.21875 35.40625 
Q 43.21875 41.609375 39.140625 45 
Q 35.0625 48.390625 27.6875 48.390625 
Q 23 48.390625 18.546875 47.265625 
Q 14.109375 46.140625 10.015625 43.890625 
L 10.015625 52.203125 
Q 14.9375 54.109375 19.578125 55.046875 
Q 24.21875 56 28.609375 56 
Q 40.484375 56 46.34375 49.84375 
Q 52.203125 43.703125 52.203125 31.203125 
z
" id="DejaVuSans-97"/>
      <path d="M 8.5 21.578125 
L 8.5 54.6875 
L 17.484375 54.6875 
L 17.484375 21.921875 
Q 17.484375 14.15625 20.5 10.265625 
Q 23.53125 6.390625 29.59375 6.390625 
Q 36.859375 6.390625 41.078125 11.03125 
Q 45.3125 15.671875 45.3125 23.6875 
L 45.3125 54.6875 
L 54.296875 54.6875 
L 54.296875 0 
L 45.3125 0 
L 45.3125 8.40625 
Q 42.046875 3.421875 37.71875 1 
Q 33.40625 -1.421875 27.6875 -1.421875 
Q 18.265625 -1.421875 13.375 4.4375 
Q 8.5 10.296875 8.5 21.578125 
z
M 31.109375 56 
z
" id="DejaVuSans-117"/>
      <path d="M 56.203125 29.59375 
L 56.203125 25.203125 
L 14.890625 25.203125 
Q 15.484375 15.921875 20.484375 11.0625 
Q 25.484375 6.203125 34.421875 6.203125 
Q 39.59375 6.203125 44.453125 7.46875 
Q 49.3125 8.734375 54.109375 11.28125 
L 54.109375 2.78125 
Q 49.265625 0.734375 44.1875 -0.34375 
Q 39.109375 -1.421875 33.890625 -1.421875 
Q 20.796875 -1.421875 13.15625 6.1875 
Q 5.515625 13.8125 5.515625 26.8125 
Q 5.515625 40.234375 12.765625 48.109375 
Q 20.015625 56 32.328125 56 
Q 43.359375 56 49.78125 48.890625 
Q 56.203125 41.796875 56.203125 29.59375 
z
M 47.21875 32.234375 
Q 47.125 39.59375 43.09375 43.984375 
Q 39.0625 48.390625 32.421875 48.390625 
Q 24.90625 48.390625 20.390625 44.140625 
Q 15.875 39.890625 15.1875 32.171875 
z
" id="DejaVuSans-101"/>
     </defs>
     <g transform="translate(170.3075 355.912188)scale(0.28 -0.28)">
      <use xlink:href="#DejaVuSans-45"/>
      <use x="36.083984" xlink:href="#DejaVuSans-108"/>
      <use x="63.867188" xlink:href="#DejaVuSans-111"/>
      <use x="125.048828" xlink:href="#DejaVuSans-103"/>
      <use x="188.525391" xlink:href="#DejaVuSans-49"/>
      <use x="252.148438" xlink:href="#DejaVuSans-48"/>
      <use x="315.771484" xlink:href="#DejaVuSans-32"/>
      <use x="347.558594" xlink:href="#DejaVuSans-112"/>
      <use x="411.035156" xlink:href="#DejaVuSans-45"/>
      <use x="447.087891" xlink:href="#DejaVuSans-118"/>
      <use x="506.267578" xlink:href="#DejaVuSans-97"/>
      <use x="567.546875" xlink:href="#DejaVuSans-108"/>
      <use x="595.330078" xlink:href="#DejaVuSans-117"/>
      <use x="658.708984" xlink:href="#DejaVuSans-101"/>
     </g>
    </g>
   </g>
   <g id="matplotlib.axis_2">
    <g id="ytick_1">
     <g id="line2d_6">
      <defs>
       <path d="M 0 0 
L -5 0 
" id="m753774eb73" style="stroke:#000000;stroke-width:0.8;"/>
      </defs>
      <g>
       <use style="stroke:#000000;stroke-width:0.8;" x="109.1425" xlink:href="#m753774eb73" y="295.037813"/>
      </g>
     </g>
     <g id="text_7">
      <!-- 0.00 -->
      <defs>
       <path d="M 10.6875 12.40625 
L 21 12.40625 
L 21 0 
L 10.6875 0 
z
" id="DejaVuSans-46"/>
      </defs>
      <g transform="translate(38.29875 305.675625)scale(0.28 -0.28)">
       <use xlink:href="#DejaVuSans-48"/>
       <use x="63.623047" xlink:href="#DejaVuSans-46"/>
       <use x="95.410156" xlink:href="#DejaVuSans-48"/>
       <use x="159.033203" xlink:href="#DejaVuSans-48"/>
      </g>
     </g>
    </g>
    <g id="ytick_2">
     <g id="line2d_7">
      <g>
       <use style="stroke:#000000;stroke-width:0.8;" x="109.1425" xlink:href="#m753774eb73" y="225.737813"/>
      </g>
     </g>
     <g id="text_8">
      <!-- 0.25 -->
      <g transform="translate(38.29875 236.375625)scale(0.28 -0.28)">
       <use xlink:href="#DejaVuSans-48"/>
       <use x="63.623047" xlink:href="#DejaVuSans-46"/>
       <use x="95.410156" xlink:href="#DejaVuSans-50"/>
       <use x="159.033203" xlink:href="#DejaVuSans-53"/>
      </g>
     </g>
    </g>
    <g id="ytick_3">
     <g id="line2d_8">
      <g>
       <use style="stroke:#000000;stroke-width:0.8;" x="109.1425" xlink:href="#m753774eb73" y="156.437813"/>
      </g>
     </g>
     <g id="text_9">
      <!-- 0.50 -->
      <g transform="translate(38.29875 167.075625)scale(0.28 -0.28)">
       <use xlink:href="#DejaVuSans-48"/>
       <use x="63.623047" xlink:href="#DejaVuSans-46"/>
       <use x="95.410156" xlink:href="#DejaVuSans-53"/>
       <use x="159.033203" xlink:href="#DejaVuSans-48"/>
      </g>
     </g>
    </g>
    <g id="ytick_4">
     <g id="line2d_9">
      <g>
       <use style="stroke:#000000;stroke-width:0.8;" x="109.1425" xlink:href="#m753774eb73" y="87.137813"/>
      </g>
     </g>
     <g id="text_10">
      <!-- 0.75 -->
      <defs>
       <path d="M 8.203125 72.90625 
L 55.078125 72.90625 
L 55.078125 68.703125 
L 28.609375 0 
L 18.3125 0 
L 43.21875 64.59375 
L 8.203125 64.59375 
z
" id="DejaVuSans-55"/>
      </defs>
      <g transform="translate(38.29875 97.775625)scale(0.28 -0.28)">
       <use xlink:href="#DejaVuSans-48"/>
       <use x="63.623047" xlink:href="#DejaVuSans-46"/>
       <use x="95.410156" xlink:href="#DejaVuSans-55"/>
       <use x="159.033203" xlink:href="#DejaVuSans-53"/>
      </g>
     </g>
    </g>
    <g id="ytick_5">
     <g id="line2d_10">
      <g>
       <use style="stroke:#000000;stroke-width:0.8;" x="109.1425" xlink:href="#m753774eb73" y="17.837813"/>
      </g>
     </g>
     <g id="text_11">
      <!-- 1.00 -->
      <g transform="translate(38.29875 28.475625)scale(0.28 -0.28)">
       <use xlink:href="#DejaVuSans-49"/>
       <use x="63.623047" xlink:href="#DejaVuSans-46"/>
       <use x="95.410156" xlink:href="#DejaVuSans-48"/>
       <use x="159.033203" xlink:href="#DejaVuSans-48"/>
      </g>
     </g>
    </g>
    <g id="text_12">
     <!-- Recall -->
     <defs>
      <path d="M 44.390625 34.1875 
Q 47.5625 33.109375 50.5625 29.59375 
Q 53.5625 26.078125 56.59375 19.921875 
L 66.609375 0 
L 56 0 
L 46.6875 18.703125 
Q 43.0625 26.03125 39.671875 28.421875 
Q 36.28125 30.8125 30.421875 30.8125 
L 19.671875 30.8125 
L 19.671875 0 
L 9.8125 0 
L 9.8125 72.90625 
L 32.078125 72.90625 
Q 44.578125 72.90625 50.734375 67.671875 
Q 56.890625 62.453125 56.890625 51.90625 
Q 56.890625 45.015625 53.6875 40.46875 
Q 50.484375 35.9375 44.390625 34.1875 
z
M 19.671875 64.796875 
L 19.671875 38.921875 
L 32.078125 38.921875 
Q 39.203125 38.921875 42.84375 42.21875 
Q 46.484375 45.515625 46.484375 51.90625 
Q 46.484375 58.296875 42.84375 61.546875 
Q 39.203125 64.796875 32.078125 64.796875 
z
" id="DejaVuSans-82"/>
      <path d="M 48.78125 52.59375 
L 48.78125 44.1875 
Q 44.96875 46.296875 41.140625 47.34375 
Q 37.3125 48.390625 33.40625 48.390625 
Q 24.65625 48.390625 19.8125 42.84375 
Q 14.984375 37.3125 14.984375 27.296875 
Q 14.984375 17.28125 19.8125 11.734375 
Q 24.65625 6.203125 33.40625 6.203125 
Q 37.3125 6.203125 41.140625 7.25 
Q 44.96875 8.296875 48.78125 10.40625 
L 48.78125 2.09375 
Q 45.015625 0.34375 40.984375 -0.53125 
Q 36.96875 -1.421875 32.421875 -1.421875 
Q 20.0625 -1.421875 12.78125 6.34375 
Q 5.515625 14.109375 5.515625 27.296875 
Q 5.515625 40.671875 12.859375 48.328125 
Q 20.21875 56 33.015625 56 
Q 37.15625 56 41.109375 55.140625 
Q 45.0625 54.296875 48.78125 52.59375 
z
" id="DejaVuSans-99"/>
     </defs>
     <g transform="translate(28.475625 198.827188)rotate(-90)scale(0.28 -0.28)">
      <use xlink:href="#DejaVuSans-82"/>
      <use x="69.419922" xlink:href="#DejaVuSans-101"/>
      <use x="130.943359" xlink:href="#DejaVuSans-99"/>
      <use x="185.923828" xlink:href="#DejaVuSans-97"/>
      <use x="247.203125" xlink:href="#DejaVuSans-108"/>
      <use x="274.986328" xlink:href="#DejaVuSans-108"/>
     </g>
    </g>
   </g>
   <g id="line2d_11">
    <path clip-path="url(#pf2cf6f14cd)" d="M 123.869773 254.150813 
L 127.551591 254.127889 
L 131.233409 253.277813 
L 134.915227 253.457813 
L 138.597045 252.855204 
L 142.278864 251.797701 
L 145.960682 251.601915 
L 149.6425 250.718045 
L 153.324318 250.751422 
L 157.006136 250.246349 
L 160.687955 249.832889 
L 164.369773 249.126563 
L 168.051591 248.397813 
L 171.733409 247.777485 
L 175.415227 246.829117 
L 179.097045 246.952098 
L 182.778864 246.456369 
L 186.460682 245.433602 
L 190.1425 244.727492 
L 193.824318 244.000989 
L 197.506136 244.453871 
L 201.187955 243.704479 
L 204.869773 242.932549 
L 208.551591 242.137049 
L 212.233409 241.73012 
L 215.915227 241.107851 
L 219.597045 240.706613 
L 223.278864 239.823178 
L 226.960682 239.141516 
L 230.6425 237.967224 
L 234.324318 237.72642 
L 238.006136 236.991659 
L 241.687955 237.437813 
L 245.369773 236.679918 
L 249.051591 237.133813 
L 252.733409 235.27451 
L 256.415227 234.157439 
L 260.097045 234.027286 
L 263.778864 233.437813 
L 267.460682 232.53193 
L 271.1425 232.354395 
L 274.824318 232.956563 
L 278.506136 232.63153 
L 282.187955 231.971146 
L 285.869773 232.444264 
L 289.551591 232.444264 
L 293.233409 232.932894 
L 296.915227 232.932894 
L 300.597045 232.591659 
L 304.278864 234.977813 
L 307.960682 234.302981 
L 311.6425 233.612813 
L 315.324318 233.261813 
L 319.006136 232.906778 
L 322.687955 231.444871 
L 326.369773 232.337813 
L 330.051591 231.726701 
L 333.733409 231.726701 
L 337.415227 231.333465 
L 341.097045 230.935313 
L 344.778864 230.532152 
L 348.460682 230.532152 
L 352.1425 229.710424 
L 355.824318 228.86749 
L 359.506136 228.86749 
L 363.187955 227.114634 
L 366.869773 227.610785 
L 370.551591 227.610785 
L 374.233409 226.215744 
L 377.915227 226.215744 
L 381.597045 225.737813 
L 385.278864 225.253197 
L 388.960682 223.757813 
L 392.6425 223.757813 
L 396.324318 222.196937 
L 400.006136 223.699577 
L 403.687955 223.699577 
L 407.369773 225.224479 
L 411.051591 226.258865 
L 414.733409 226.258865 
L 418.415227 226.803966 
" style="fill:none;stroke:#8b0000;stroke-linecap:square;stroke-width:2;"/>
   </g>
   <g id="line2d_12">
    <path clip-path="url(#pf2cf6f14cd)" d="M 123.869773 184.850813 
L 127.551591 184.298881 
L 131.233409 183.437813 
L 134.915227 183.428339 
L 138.597045 182.801943 
L 142.278864 179.98823 
L 145.960682 178.155761 
L 149.6425 175.777347 
L 153.324318 175.300534 
L 157.006136 173.340252 
L 160.687955 173.069813 
L 164.369773 171.164063 
L 168.051591 170.077813 
L 171.733409 168.707321 
L 175.415227 168.026441 
L 179.097045 166.809241 
L 182.778864 166.439874 
L 186.460682 164.705181 
L 190.1425 163.836389 
L 193.824318 162.942506 
L 197.506136 162.507885 
L 201.187955 160.544479 
L 204.869773 160.606234 
L 208.551591 158.553843 
L 212.233409 157.503966 
L 215.915227 156.977112 
L 219.597045 155.329013 
L 223.278864 154.184154 
L 226.960682 153.585961 
L 230.6425 154.108401 
L 234.324318 153.513762 
L 238.006136 152.883966 
L 241.687955 153.437813 
L 245.369773 152.790444 
L 249.051591 152.125813 
L 252.733409 150.080014 
L 256.415227 148.66585 
L 260.097045 150.469391 
L 263.778864 151.750856 
L 267.460682 152.361342 
L 271.1425 152.9554 
L 274.824318 154.994063 
L 278.506136 154.260849 
L 282.187955 154.237813 
L 285.869773 153.457167 
L 289.551591 153.457167 
L 293.233409 154.165681 
L 296.915227 154.165681 
L 300.597045 154.914736 
L 304.278864 156.437813 
L 307.960682 157.995116 
L 311.6425 158.012813 
L 315.324318 157.229813 
L 319.006136 156.437813 
L 322.687955 153.176636 
L 326.369773 153.137813 
L 330.051591 158.148924 
L 333.733409 158.148924 
L 337.415227 157.298682 
L 341.097045 156.437813 
L 344.778864 155.566114 
L 348.460682 155.566114 
L 352.1425 155.55501 
L 355.824318 153.755232 
L 359.506136 153.755232 
L 363.187955 150.012647 
L 366.869773 148.945921 
L 370.551591 148.945921 
L 374.233409 147.835054 
L 377.915227 147.835054 
L 381.597045 146.812813 
L 385.278864 147.714736 
L 388.960682 146.537813 
L 392.6425 146.537813 
L 396.324318 147.332703 
L 400.006136 148.284871 
L 403.687955 148.284871 
L 407.369773 149.251146 
L 411.051591 151.227286 
L 414.733409 151.227286 
L 418.415227 152.173197 
" style="fill:none;stroke:#000080;stroke-linecap:square;stroke-width:2;"/>
   </g>
   <g id="patch_3">
    <path d="M 109.1425 295.037813 
L 109.1425 17.837813 
" style="fill:none;stroke:#000000;stroke-linecap:square;stroke-linejoin:miter;stroke-width:0.8;"/>
   </g>
   <g id="patch_4">
    <path d="M 109.1425 295.037813 
L 433.1425 295.037813 
" style="fill:none;stroke:#000000;stroke-linecap:square;stroke-linejoin:miter;stroke-width:0.8;"/>
   </g>
  </g>
  <g id="axes_2">
   <g id="patch_5">
    <path d="M 449.3425 295.037813 
L 773.3425 295.037813 
L 773.3425 17.837813 
L 449.3425 17.837813 
z
" style="fill:none;"/>
   </g>
   <g id="matplotlib.axis_3">
    <g id="xtick_6">
     <g id="line2d_13">
      <g>
       <use style="stroke:#000000;stroke-width:0.8;" x="464.069773" xlink:href="#mde9fd80653" y="295.037813"/>
      </g>
     </g>
     <g id="text_13">
      <!-- 1 -->
      <g transform="translate(455.162273 324.813438)scale(0.28 -0.28)">
       <use xlink:href="#DejaVuSans-49"/>
      </g>
     </g>
    </g>
    <g id="xtick_7">
     <g id="line2d_14">
      <g>
       <use style="stroke:#000000;stroke-width:0.8;" x="537.706136" xlink:href="#mde9fd80653" y="295.037813"/>
      </g>
     </g>
     <g id="text_14">
      <!-- 2 -->
      <g transform="translate(528.798636 324.813438)scale(0.28 -0.28)">
       <use xlink:href="#DejaVuSans-50"/>
      </g>
     </g>
    </g>
    <g id="xtick_8">
     <g id="line2d_15">
      <g>
       <use style="stroke:#000000;stroke-width:0.8;" x="611.3425" xlink:href="#mde9fd80653" y="295.037813"/>
      </g>
     </g>
     <g id="text_15">
      <!-- 3 -->
      <g transform="translate(602.435 324.813438)scale(0.28 -0.28)">
       <use xlink:href="#DejaVuSans-51"/>
      </g>
     </g>
    </g>
    <g id="xtick_9">
     <g id="line2d_16">
      <g>
       <use style="stroke:#000000;stroke-width:0.8;" x="684.978864" xlink:href="#mde9fd80653" y="295.037813"/>
      </g>
     </g>
     <g id="text_16">
      <!-- 4 -->
      <g transform="translate(676.071364 324.813438)scale(0.28 -0.28)">
       <use xlink:href="#DejaVuSans-52"/>
      </g>
     </g>
    </g>
    <g id="xtick_10">
     <g id="line2d_17">
      <g>
       <use style="stroke:#000000;stroke-width:0.8;" x="758.615227" xlink:href="#mde9fd80653" y="295.037813"/>
      </g>
     </g>
     <g id="text_17">
      <!-- 5 -->
      <g transform="translate(749.707727 324.813438)scale(0.28 -0.28)">
       <use xlink:href="#DejaVuSans-53"/>
      </g>
     </g>
    </g>
    <g id="text_18">
     <!-- -log10 p-value -->
     <g transform="translate(510.5075 355.912188)scale(0.28 -0.28)">
      <use xlink:href="#DejaVuSans-45"/>
      <use x="36.083984" xlink:href="#DejaVuSans-108"/>
      <use x="63.867188" xlink:href="#DejaVuSans-111"/>
      <use x="125.048828" xlink:href="#DejaVuSans-103"/>
      <use x="188.525391" xlink:href="#DejaVuSans-49"/>
      <use x="252.148438" xlink:href="#DejaVuSans-48"/>
      <use x="315.771484" xlink:href="#DejaVuSans-32"/>
      <use x="347.558594" xlink:href="#DejaVuSans-112"/>
      <use x="411.035156" xlink:href="#DejaVuSans-45"/>
      <use x="447.087891" xlink:href="#DejaVuSans-118"/>
      <use x="506.267578" xlink:href="#DejaVuSans-97"/>
      <use x="567.546875" xlink:href="#DejaVuSans-108"/>
      <use x="595.330078" xlink:href="#DejaVuSans-117"/>
      <use x="658.708984" xlink:href="#DejaVuSans-101"/>
     </g>
    </g>
   </g>
   <g id="matplotlib.axis_4">
    <g id="ytick_6"/>
    <g id="ytick_7"/>
    <g id="ytick_8"/>
    <g id="ytick_9"/>
    <g id="ytick_10"/>
   </g>
   <g id="line2d_18">
    <path clip-path="url(#p3c9da504da)" d="M 464.069773 106.108204 
L 467.751591 108.557813 
L 471.433409 102.586857 
L 475.115227 99.903602 
L 478.797045 96.502677 
L 482.478864 94.510153 
L 486.160682 95.864479 
L 489.8425 94.231513 
L 493.524318 87.137813 
L 497.206136 87.137813 
L 500.887955 85.26484 
L 504.569773 83.958913 
L 508.251591 85.119366 
L 511.933409 85.037813 
L 515.615227 85.597813 
L 519.297045 86.322518 
L 522.978864 87.972752 
L 526.660682 86.282257 
L 530.3425 87.137813 
L 534.024318 87.137813 
L 537.706136 84.209643 
L 541.387955 77.542428 
L 545.069773 79.437813 
L 548.751591 82.517813 
L 552.433409 83.614084 
L 556.115227 84.748157 
L 559.797045 87.137813 
L 563.478864 83.357813 
L 567.160682 75.369888 
L 570.8425 76.476274 
L 574.524318 77.626048 
L 578.206136 73.277813 
L 581.887955 74.409241 
L 585.569773 74.409241 
L 589.251591 76.816536 
L 592.933409 78.098682 
L 596.615227 78.098682 
L 600.297045 82.302929 
L 603.978864 67.591659 
L 607.660682 68.90097 
L 611.3425 71.737813 
L 615.024318 71.737813 
L 618.706136 71.737813 
L 622.387955 71.737813 
L 626.069773 71.737813 
L 629.751591 71.737813 
L 633.433409 65.357813 
L 637.115227 65.357813 
L 640.797045 58.602518 
L 644.478864 62.54749 
L 648.160682 64.037813 
L 651.8425 65.630916 
L 655.524318 65.630916 
L 659.206136 65.630916 
L 662.887955 65.630916 
L 666.569773 67.337813 
L 670.251591 67.337813 
L 673.933409 69.171146 
L 677.615227 71.145505 
L 681.297045 73.277813 
L 684.978864 73.277813 
L 688.660682 73.277813 
L 692.3425 73.277813 
L 696.024318 75.587813 
L 699.706136 75.587813 
L 703.387955 75.587813 
L 707.069773 75.587813 
L 710.751591 75.587813 
L 714.433409 75.587813 
L 718.115227 75.587813 
L 721.797045 78.098682 
L 725.478864 78.098682 
L 729.160682 78.098682 
L 732.8425 78.098682 
L 736.524318 78.098682 
L 740.206136 78.098682 
L 743.887955 78.098682 
L 747.569773 80.837813 
L 751.251591 80.837813 
L 754.933409 80.837813 
L 758.615227 80.837813 
" style="fill:none;stroke:#8b0000;stroke-linecap:square;stroke-width:2;"/>
   </g>
   <g id="line2d_19">
    <path clip-path="url(#p3c9da504da)" d="M 464.069773 219.156248 
L 467.751591 221.117813 
L 471.433409 217.351188 
L 475.115227 216.619391 
L 478.797045 214.499975 
L 482.478864 214.433557 
L 486.160682 214.957813 
L 489.8425 212.09608 
L 493.524318 211.877813 
L 497.206136 213.789537 
L 500.887955 210.129704 
L 504.569773 211.114877 
L 508.251591 208.917424 
L 511.933409 208.237813 
L 515.615227 202.637813 
L 519.297045 197.202518 
L 522.978864 194.845041 
L 526.660682 192.371146 
L 530.3425 194.552813 
L 534.024318 189.264128 
L 537.706136 185.719503 
L 541.387955 175.628582 
L 545.069773 176.237813 
L 548.751591 184.157813 
L 552.433409 182.27849 
L 556.115227 180.334364 
L 559.797045 181.187813 
L 563.478864 179.117813 
L 567.160682 174.743473 
L 570.8425 177.760889 
L 574.524318 180.896636 
L 578.206136 178.613813 
L 581.887955 176.237813 
L 585.569773 176.237813 
L 589.251591 171.182493 
L 592.933409 174.516073 
L 596.615227 174.516073 
L 600.297045 185.447115 
L 603.978864 174.207043 
L 607.660682 178.322023 
L 611.3425 187.237813 
L 615.024318 187.237813 
L 618.706136 187.237813 
L 622.387955 187.237813 
L 626.069773 187.237813 
L 629.751591 187.237813 
L 633.433409 184.157813 
L 637.115227 184.157813 
L 640.797045 180.896636 
L 644.478864 178.792651 
L 648.160682 174.917813 
L 651.8425 170.775744 
L 655.524318 170.775744 
L 659.206136 170.775744 
L 662.887955 170.775744 
L 666.569773 176.237813 
L 670.251591 176.237813 
L 673.933409 171.837813 
L 677.615227 177.760889 
L 681.297045 184.157813 
L 684.978864 184.157813 
L 688.660682 184.157813 
L 692.3425 184.157813 
L 696.024318 179.537813 
L 699.706136 179.537813 
L 703.387955 179.537813 
L 707.069773 179.537813 
L 710.751591 179.537813 
L 714.433409 179.537813 
L 718.115227 179.537813 
L 721.797045 186.568247 
L 725.478864 186.568247 
L 729.160682 186.568247 
L 732.8425 186.568247 
L 736.524318 186.568247 
L 740.206136 186.568247 
L 743.887955 186.568247 
L 747.569773 194.237813 
L 751.251591 194.237813 
L 754.933409 194.237813 
L 758.615227 194.237813 
" style="fill:none;stroke:#000080;stroke-linecap:square;stroke-width:2;"/>
   </g>
   <g id="patch_6">
    <path d="M 449.3425 295.037813 
L 449.3425 17.837813 
" style="fill:none;stroke:#000000;stroke-linecap:square;stroke-linejoin:miter;stroke-width:0.8;"/>
   </g>
   <g id="patch_7">
    <path d="M 449.3425 295.037813 
L 773.3425 295.037813 
" style="fill:none;stroke:#000000;stroke-linecap:square;stroke-linejoin:miter;stroke-width:0.8;"/>
   </g>
  </g>
  <g id="axes_3">
   <g id="patch_8">
    <path d="M 789.5425 295.037813 
L 1113.5425 295.037813 
L 1113.5425 17.837813 
L 789.5425 17.837813 
z
" style="fill:none;"/>
   </g>
   <g id="matplotlib.axis_5">
    <g id="xtick_11">
     <g id="line2d_20">
      <g>
       <use style="stroke:#000000;stroke-width:0.8;" x="804.269773" xlink:href="#mde9fd80653" y="295.037813"/>
      </g>
     </g>
     <g id="text_19">
      <!-- 1 -->
      <g transform="translate(795.362273 324.813438)scale(0.28 -0.28)">
       <use xlink:href="#DejaVuSans-49"/>
      </g>
     </g>
    </g>
    <g id="xtick_12">
     <g id="line2d_21">
      <g>
       <use style="stroke:#000000;stroke-width:0.8;" x="877.906136" xlink:href="#mde9fd80653" y="295.037813"/>
      </g>
     </g>
     <g id="text_20">
      <!-- 2 -->
      <g transform="translate(868.998636 324.813438)scale(0.28 -0.28)">
       <use xlink:href="#DejaVuSans-50"/>
      </g>
     </g>
    </g>
    <g id="xtick_13">
     <g id="line2d_22">
      <g>
       <use style="stroke:#000000;stroke-width:0.8;" x="951.5425" xlink:href="#mde9fd80653" y="295.037813"/>
      </g>
     </g>
     <g id="text_21">
      <!-- 3 -->
      <g transform="translate(942.635 324.813438)scale(0.28 -0.28)">
       <use xlink:href="#DejaVuSans-51"/>
      </g>
     </g>
    </g>
    <g id="xtick_14">
     <g id="line2d_23">
      <g>
       <use style="stroke:#000000;stroke-width:0.8;" x="1025.178864" xlink:href="#mde9fd80653" y="295.037813"/>
      </g>
     </g>
     <g id="text_22">
      <!-- 4 -->
      <g transform="translate(1016.271364 324.813438)scale(0.28 -0.28)">
       <use xlink:href="#DejaVuSans-52"/>
      </g>
     </g>
    </g>
    <g id="xtick_15">
     <g id="line2d_24">
      <g>
       <use style="stroke:#000000;stroke-width:0.8;" x="1098.815227" xlink:href="#mde9fd80653" y="295.037813"/>
      </g>
     </g>
     <g id="text_23">
      <!-- 5 -->
      <g transform="translate(1089.907727 324.813438)scale(0.28 -0.28)">
       <use xlink:href="#DejaVuSans-53"/>
      </g>
     </g>
    </g>
    <g id="text_24">
     <!-- -log10 p-value -->
     <g transform="translate(850.7075 355.912188)scale(0.28 -0.28)">
      <use xlink:href="#DejaVuSans-45"/>
      <use x="36.083984" xlink:href="#DejaVuSans-108"/>
      <use x="63.867188" xlink:href="#DejaVuSans-111"/>
      <use x="125.048828" xlink:href="#DejaVuSans-103"/>
      <use x="188.525391" xlink:href="#DejaVuSans-49"/>
      <use x="252.148438" xlink:href="#DejaVuSans-48"/>
      <use x="315.771484" xlink:href="#DejaVuSans-32"/>
      <use x="347.558594" xlink:href="#DejaVuSans-112"/>
      <use x="411.035156" xlink:href="#DejaVuSans-45"/>
      <use x="447.087891" xlink:href="#DejaVuSans-118"/>
      <use x="506.267578" xlink:href="#DejaVuSans-97"/>
      <use x="567.546875" xlink:href="#DejaVuSans-108"/>
      <use x="595.330078" xlink:href="#DejaVuSans-117"/>
      <use x="658.708984" xlink:href="#DejaVuSans-101"/>
     </g>
    </g>
   </g>
   <g id="matplotlib.axis_6">
    <g id="ytick_11"/>
    <g id="ytick_12"/>
    <g id="ytick_13"/>
    <g id="ytick_14"/>
    <g id="ytick_15"/>
   </g>
   <g id="line2d_25">
    <path clip-path="url(#p283d14bd55)" d="M 804.269773 26.367043 
L 807.951591 26.367043 
L 811.633409 26.466606 
L 815.315227 25.599413 
L 818.997045 25.725617 
L 822.678864 25.790272 
L 826.360682 25.990754 
L 830.0425 25.037813 
L 833.724318 25.100695 
L 837.406136 25.229813 
L 841.087955 25.296108 
L 844.769773 25.397813 
L 848.451591 25.573626 
L 852.133409 24.469391 
L 855.815227 24.533465 
L 859.497045 24.598788 
L 863.178864 24.63193 
L 866.860682 24.733335 
L 870.5425 24.945505 
L 874.224318 25.056563 
L 877.906136 23.704479 
L 881.587955 23.831326 
L 885.269773 23.963779 
L 888.951591 24.067026 
L 892.633409 24.137813 
L 896.315227 24.247061 
L 899.997045 24.437813 
L 903.678864 24.517331 
L 907.360682 23.00303 
L 911.0425 23.101104 
L 914.724318 23.134628 
L 918.406136 23.134628 
L 922.087955 23.202974 
L 925.769773 23.273107 
L 929.451591 21.558618 
L 933.133409 21.609241 
L 936.815227 21.635073 
L 940.497045 21.769727 
L 944.178864 19.876048 
L 947.860682 19.891146 
L 951.5425 19.906469 
L 955.224318 19.922023 
L 958.906136 19.937813 
L 962.587955 19.98665 
L 966.269773 19.98665 
L 969.951591 19.98665 
L 973.633409 20.055413 
L 977.315227 20.109944 
L 980.997045 20.167224 
L 984.678864 20.207043 
L 988.360682 20.269391 
L 992.0425 20.29091 
L 995.724318 20.312813 
L 999.406136 20.380932 
L 1003.087955 20.428467 
L 1006.769773 20.452907 
L 1010.451591 20.55546 
L 1014.133409 20.609813 
L 1017.815227 20.609813 
L 1021.497045 20.666384 
L 1025.178864 20.725313 
L 1028.860682 20.755707 
L 1032.5425 20.755707 
L 1036.224318 20.755707 
L 1039.906136 20.786749 
L 1043.587955 20.786749 
L 1047.269773 20.917813 
L 1050.951591 20.952419 
L 1054.633409 21.024019 
L 1058.315227 21.098989 
L 1061.997045 21.098989 
L 1065.678864 21.137813 
L 1069.360682 21.177572 
L 1073.0425 21.177572 
L 1076.724318 21.177572 
L 1080.406136 21.177572 
L 1084.087955 21.346673 
L 1087.769773 21.391659 
L 1091.451591 21.391659 
L 1095.133409 21.437813 
L 1098.815227 21.485181 
" style="fill:none;stroke:#8b0000;stroke-linecap:square;stroke-width:2;"/>
   </g>
   <g id="line2d_26">
    <path clip-path="url(#p283d14bd55)" d="M 804.269773 208.679351 
L 807.951591 208.679351 
L 811.633409 208.749875 
L 815.315227 206.333813 
L 818.997045 204.891471 
L 822.678864 205.288632 
L 826.360682 204.190754 
L 830.0425 202.637813 
L 833.724318 201.830826 
L 837.406136 202.637813 
L 841.087955 201.809113 
L 844.769773 203.057813 
L 848.451591 202.208045 
L 852.133409 200.869391 
L 855.815227 199.959552 
L 859.497045 199.031959 
L 863.178864 198.561342 
L 866.860682 198.500499 
L 870.5425 196.951659 
L 874.224318 195.419063 
L 877.906136 195.304479 
L 881.587955 196.14484 
L 885.269773 193.959359 
L 888.951591 192.25579 
L 892.633409 194.237813 
L 896.315227 192.489836 
L 899.997045 189.437813 
L 903.678864 188.165523 
L 907.360682 186.568247 
L 911.0425 186.263129 
L 914.724318 187.335902 
L 918.406136 187.335902 
L 922.087955 187.734587 
L 925.769773 186.33193 
L 929.451591 183.413651 
L 933.133409 181.894955 
L 936.815227 181.120004 
L 940.497045 179.046323 
L 944.178864 174.78193 
L 947.860682 173.891146 
L 951.5425 172.987066 
L 955.224318 174.153602 
L 958.906136 175.337813 
L 962.587955 176.851766 
L 966.269773 176.851766 
L 969.951591 176.851766 
L 973.633409 173.069813 
L 977.315227 170.070599 
L 980.997045 166.920165 
L 984.678864 167.099351 
L 988.360682 163.732549 
L 992.0425 162.570556 
L 995.724318 163.862813 
L 999.406136 165.33873 
L 1003.087955 165.505102 
L 1006.769773 164.283096 
L 1010.451591 164.590754 
L 1014.133409 164.753813 
L 1017.815227 164.753813 
L 1021.497045 164.923527 
L 1025.178864 167.987813 
L 1028.860682 166.650444 
L 1032.5425 166.650444 
L 1036.224318 166.650444 
L 1039.906136 165.284621 
L 1043.587955 165.284621 
L 1047.269773 165.677813 
L 1050.951591 164.224329 
L 1054.633409 161.217123 
L 1058.315227 158.068401 
L 1061.997045 158.068401 
L 1065.678864 156.437813 
L 1069.360682 154.767933 
L 1073.0425 154.767933 
L 1076.724318 154.767933 
L 1080.406136 154.767933 
L 1084.087955 158.192243 
L 1087.769773 156.437813 
L 1091.451591 156.437813 
L 1095.133409 154.637813 
L 1098.815227 156.437813 
" style="fill:none;stroke:#000080;stroke-linecap:square;stroke-width:2;"/>
   </g>
   <g id="patch_9">
    <path d="M 789.5425 295.037813 
L 789.5425 17.837813 
" style="fill:none;stroke:#000000;stroke-linecap:square;stroke-linejoin:miter;stroke-width:0.8;"/>
   </g>
   <g id="patch_10">
    <path d="M 789.5425 295.037813 
L 1113.5425 295.037813 
" style="fill:none;stroke:#000000;stroke-linecap:square;stroke-linejoin:miter;stroke-width:0.8;"/>
   </g>
  </g>
 </g>
 <defs>
  <clipPath id="pf2cf6f14cd">
   <rect height="277.2" width="324" x="109.1425" y="17.837812"/>
  </clipPath>
  <clipPath id="p3c9da504da">
   <rect height="277.2" width="324" x="449.3425" y="17.837812"/>
  </clipPath>
  <clipPath id="p283d14bd55">
   <rect height="277.2" width="324" x="789.5425" y="17.837812"/>
  </clipPath>
 </defs>
</svg>
