<?xml version="1.0" encoding="utf-8" standalone="no"?>
<!DOCTYPE svg PUBLIC "-//W3C//DTD SVG 1.1//EN"
  "http://www.w3.org/Graphics/SVG/1.1/DTD/svg11.dtd">
<!-- Created with matplotlib (https://matplotlib.org/) -->
<svg height="352.8975pt" version="1.1" viewBox="0 0 1102.9275 352.8975" width="1102.9275pt" xmlns="http://www.w3.org/2000/svg" xmlns:xlink="http://www.w3.org/1999/xlink">
 <defs>
  <style type="text/css">
*{stroke-linecap:butt;stroke-linejoin:round;}
  </style>
 </defs>
 <g id="figure_1">
  <g id="patch_1">
   <path d="M 0 352.8975 
L 1102.9275 352.8975 
L 1102.9275 0 
L 0 0 
z
" style="fill:none;"/>
  </g>
  <g id="axes_1">
   <g id="patch_2">
    <path d="M 91.3275 279 
L 415.3275 279 
L 415.3275 7.2 
L 91.3275 7.2 
z
" style="fill:none;"/>
   </g>
   <g id="matplotlib.axis_1">
    <g id="xtick_1">
     <g id="line2d_1">
      <defs>
       <path d="M 0 0 
L 0 5 
" id="mce02a18336" style="stroke:#000000;stroke-width:0.8;"/>
      </defs>
      <g>
       <use style="stroke:#000000;stroke-width:0.8;" x="106.054773" xlink:href="#mce02a18336" y="279"/>
      </g>
     </g>
     <g id="text_1">
      <!-- 1 -->
      <defs>
       <path d="M 12.40625 8.296875 
L 28.515625 8.296875 
L 28.515625 63.921875 
L 10.984375 60.40625 
L 10.984375 69.390625 
L 28.421875 72.90625 
L 38.28125 72.90625 
L 38.28125 8.296875 
L 54.390625 8.296875 
L 54.390625 0 
L 12.40625 0 
z
" id="DejaVuSans-49"/>
      </defs>
      <g transform="translate(97.147273 308.775625)scale(0.28 -0.28)">
       <use xlink:href="#DejaVuSans-49"/>
      </g>
     </g>
    </g>
    <g id="xtick_2">
     <g id="line2d_2">
      <g>
       <use style="stroke:#000000;stroke-width:0.8;" x="179.691136" xlink:href="#mce02a18336" y="279"/>
      </g>
     </g>
     <g id="text_2">
      <!-- 2 -->
      <defs>
       <path d="M 19.1875 8.296875 
L 53.609375 8.296875 
L 53.609375 0 
L 7.328125 0 
L 7.328125 8.296875 
Q 12.9375 14.109375 22.625 23.890625 
Q 32.328125 33.6875 34.8125 36.53125 
Q 39.546875 41.84375 41.421875 45.53125 
Q 43.3125 49.21875 43.3125 52.78125 
Q 43.3125 58.59375 39.234375 62.25 
Q 35.15625 65.921875 28.609375 65.921875 
Q 23.96875 65.921875 18.8125 64.3125 
Q 13.671875 62.703125 7.8125 59.421875 
L 7.8125 69.390625 
Q 13.765625 71.78125 18.9375 73 
Q 24.125 74.21875 28.421875 74.21875 
Q 39.75 74.21875 46.484375 68.546875 
Q 53.21875 62.890625 53.21875 53.421875 
Q 53.21875 48.921875 51.53125 44.890625 
Q 49.859375 40.875 45.40625 35.40625 
Q 44.1875 33.984375 37.640625 27.21875 
Q 31.109375 20.453125 19.1875 8.296875 
z
" id="DejaVuSans-50"/>
      </defs>
      <g transform="translate(170.783636 308.775625)scale(0.28 -0.28)">
       <use xlink:href="#DejaVuSans-50"/>
      </g>
     </g>
    </g>
    <g id="xtick_3">
     <g id="line2d_3">
      <g>
       <use style="stroke:#000000;stroke-width:0.8;" x="253.3275" xlink:href="#mce02a18336" y="279"/>
      </g>
     </g>
     <g id="text_3">
      <!-- 3 -->
      <defs>
       <path d="M 40.578125 39.3125 
Q 47.65625 37.796875 51.625 33 
Q 55.609375 28.21875 55.609375 21.1875 
Q 55.609375 10.40625 48.1875 4.484375 
Q 40.765625 -1.421875 27.09375 -1.421875 
Q 22.515625 -1.421875 17.65625 -0.515625 
Q 12.796875 0.390625 7.625 2.203125 
L 7.625 11.71875 
Q 11.71875 9.328125 16.59375 8.109375 
Q 21.484375 6.890625 26.8125 6.890625 
Q 36.078125 6.890625 40.9375 10.546875 
Q 45.796875 14.203125 45.796875 21.1875 
Q 45.796875 27.640625 41.28125 31.265625 
Q 36.765625 34.90625 28.71875 34.90625 
L 20.21875 34.90625 
L 20.21875 43.015625 
L 29.109375 43.015625 
Q 36.375 43.015625 40.234375 45.921875 
Q 44.09375 48.828125 44.09375 54.296875 
Q 44.09375 59.90625 40.109375 62.90625 
Q 36.140625 65.921875 28.71875 65.921875 
Q 24.65625 65.921875 20.015625 65.03125 
Q 15.375 64.15625 9.8125 62.3125 
L 9.8125 71.09375 
Q 15.4375 72.65625 20.34375 73.4375 
Q 25.25 74.21875 29.59375 74.21875 
Q 40.828125 74.21875 47.359375 69.109375 
Q 53.90625 64.015625 53.90625 55.328125 
Q 53.90625 49.265625 50.4375 45.09375 
Q 46.96875 40.921875 40.578125 39.3125 
z
" id="DejaVuSans-51"/>
      </defs>
      <g transform="translate(244.42 308.775625)scale(0.28 -0.28)">
       <use xlink:href="#DejaVuSans-51"/>
      </g>
     </g>
    </g>
    <g id="xtick_4">
     <g id="line2d_4">
      <g>
       <use style="stroke:#000000;stroke-width:0.8;" x="326.963864" xlink:href="#mce02a18336" y="279"/>
      </g>
     </g>
     <g id="text_4">
      <!-- 4 -->
      <defs>
       <path d="M 37.796875 64.3125 
L 12.890625 25.390625 
L 37.796875 25.390625 
z
M 35.203125 72.90625 
L 47.609375 72.90625 
L 47.609375 25.390625 
L 58.015625 25.390625 
L 58.015625 17.1875 
L 47.609375 17.1875 
L 47.609375 0 
L 37.796875 0 
L 37.796875 17.1875 
L 4.890625 17.1875 
L 4.890625 26.703125 
z
" id="DejaVuSans-52"/>
      </defs>
      <g transform="translate(318.056364 308.775625)scale(0.28 -0.28)">
       <use xlink:href="#DejaVuSans-52"/>
      </g>
     </g>
    </g>
    <g id="xtick_5">
     <g id="line2d_5">
      <g>
       <use style="stroke:#000000;stroke-width:0.8;" x="400.600227" xlink:href="#mce02a18336" y="279"/>
      </g>
     </g>
     <g id="text_5">
      <!-- 5 -->
      <defs>
       <path d="M 10.796875 72.90625 
L 49.515625 72.90625 
L 49.515625 64.59375 
L 19.828125 64.59375 
L 19.828125 46.734375 
Q 21.96875 47.46875 24.109375 47.828125 
Q 26.265625 48.1875 28.421875 48.1875 
Q 40.625 48.1875 47.75 41.5 
Q 54.890625 34.8125 54.890625 23.390625 
Q 54.890625 11.625 47.5625 5.09375 
Q 40.234375 -1.421875 26.90625 -1.421875 
Q 22.3125 -1.421875 17.546875 -0.640625 
Q 12.796875 0.140625 7.71875 1.703125 
L 7.71875 11.625 
Q 12.109375 9.234375 16.796875 8.0625 
Q 21.484375 6.890625 26.703125 6.890625 
Q 35.15625 6.890625 40.078125 11.328125 
Q 45.015625 15.765625 45.015625 23.390625 
Q 45.015625 31 40.078125 35.4375 
Q 35.15625 39.890625 26.703125 39.890625 
Q 22.75 39.890625 18.8125 39.015625 
Q 14.890625 38.140625 10.796875 36.28125 
z
" id="DejaVuSans-53"/>
      </defs>
      <g transform="translate(391.692727 308.775625)scale(0.28 -0.28)">
       <use xlink:href="#DejaVuSans-53"/>
      </g>
     </g>
    </g>
    <g id="text_6">
     <!-- -log10 p-value -->
     <defs>
      <path d="M 4.890625 31.390625 
L 31.203125 31.390625 
L 31.203125 23.390625 
L 4.890625 23.390625 
z
" id="DejaVuSans-45"/>
      <path d="M 9.421875 75.984375 
L 18.40625 75.984375 
L 18.40625 0 
L 9.421875 0 
z
" id="DejaVuSans-108"/>
      <path d="M 30.609375 48.390625 
Q 23.390625 48.390625 19.1875 42.75 
Q 14.984375 37.109375 14.984375 27.296875 
Q 14.984375 17.484375 19.15625 11.84375 
Q 23.34375 6.203125 30.609375 6.203125 
Q 37.796875 6.203125 41.984375 11.859375 
Q 46.1875 17.53125 46.1875 27.296875 
Q 46.1875 37.015625 41.984375 42.703125 
Q 37.796875 48.390625 30.609375 48.390625 
z
M 30.609375 56 
Q 42.328125 56 49.015625 48.375 
Q 55.71875 40.765625 55.71875 27.296875 
Q 55.71875 13.875 49.015625 6.21875 
Q 42.328125 -1.421875 30.609375 -1.421875 
Q 18.84375 -1.421875 12.171875 6.21875 
Q 5.515625 13.875 5.515625 27.296875 
Q 5.515625 40.765625 12.171875 48.375 
Q 18.84375 56 30.609375 56 
z
" id="DejaVuSans-111"/>
      <path d="M 45.40625 27.984375 
Q 45.40625 37.75 41.375 43.109375 
Q 37.359375 48.484375 30.078125 48.484375 
Q 22.859375 48.484375 18.828125 43.109375 
Q 14.796875 37.75 14.796875 27.984375 
Q 14.796875 18.265625 18.828125 12.890625 
Q 22.859375 7.515625 30.078125 7.515625 
Q 37.359375 7.515625 41.375 12.890625 
Q 45.40625 18.265625 45.40625 27.984375 
z
M 54.390625 6.78125 
Q 54.390625 -7.171875 48.1875 -13.984375 
Q 42 -20.796875 29.203125 -20.796875 
Q 24.46875 -20.796875 20.265625 -20.09375 
Q 16.0625 -19.390625 12.109375 -17.921875 
L 12.109375 -9.1875 
Q 16.0625 -11.328125 19.921875 -12.34375 
Q 23.78125 -13.375 27.78125 -13.375 
Q 36.625 -13.375 41.015625 -8.765625 
Q 45.40625 -4.15625 45.40625 5.171875 
L 45.40625 9.625 
Q 42.625 4.78125 38.28125 2.390625 
Q 33.9375 0 27.875 0 
Q 17.828125 0 11.671875 7.65625 
Q 5.515625 15.328125 5.515625 27.984375 
Q 5.515625 40.671875 11.671875 48.328125 
Q 17.828125 56 27.875 56 
Q 33.9375 56 38.28125 53.609375 
Q 42.625 51.21875 45.40625 46.390625 
L 45.40625 54.6875 
L 54.390625 54.6875 
z
" id="DejaVuSans-103"/>
      <path d="M 31.78125 66.40625 
Q 24.171875 66.40625 20.328125 58.90625 
Q 16.5 51.421875 16.5 36.375 
Q 16.5 21.390625 20.328125 13.890625 
Q 24.171875 6.390625 31.78125 6.390625 
Q 39.453125 6.390625 43.28125 13.890625 
Q 47.125 21.390625 47.125 36.375 
Q 47.125 51.421875 43.28125 58.90625 
Q 39.453125 66.40625 31.78125 66.40625 
z
M 31.78125 74.21875 
Q 44.046875 74.21875 50.515625 64.515625 
Q 56.984375 54.828125 56.984375 36.375 
Q 56.984375 17.96875 50.515625 8.265625 
Q 44.046875 -1.421875 31.78125 -1.421875 
Q 19.53125 -1.421875 13.0625 8.265625 
Q 6.59375 17.96875 6.59375 36.375 
Q 6.59375 54.828125 13.0625 64.515625 
Q 19.53125 74.21875 31.78125 74.21875 
z
" id="DejaVuSans-48"/>
      <path id="DejaVuSans-32"/>
      <path d="M 18.109375 8.203125 
L 18.109375 -20.796875 
L 9.078125 -20.796875 
L 9.078125 54.6875 
L 18.109375 54.6875 
L 18.109375 46.390625 
Q 20.953125 51.265625 25.265625 53.625 
Q 29.59375 56 35.59375 56 
Q 45.5625 56 51.78125 48.09375 
Q 58.015625 40.1875 58.015625 27.296875 
Q 58.015625 14.40625 51.78125 6.484375 
Q 45.5625 -1.421875 35.59375 -1.421875 
Q 29.59375 -1.421875 25.265625 0.953125 
Q 20.953125 3.328125 18.109375 8.203125 
z
M 48.6875 27.296875 
Q 48.6875 37.203125 44.609375 42.84375 
Q 40.53125 48.484375 33.40625 48.484375 
Q 26.265625 48.484375 22.1875 42.84375 
Q 18.109375 37.203125 18.109375 27.296875 
Q 18.109375 17.390625 22.1875 11.75 
Q 26.265625 6.109375 33.40625 6.109375 
Q 40.53125 6.109375 44.609375 11.75 
Q 48.6875 17.390625 48.6875 27.296875 
z
" id="DejaVuSans-112"/>
      <path d="M 2.984375 54.6875 
L 12.5 54.6875 
L 29.59375 8.796875 
L 46.6875 54.6875 
L 56.203125 54.6875 
L 35.6875 0 
L 23.484375 0 
z
" id="DejaVuSans-118"/>
      <path d="M 34.28125 27.484375 
Q 23.390625 27.484375 19.1875 25 
Q 14.984375 22.515625 14.984375 16.5 
Q 14.984375 11.71875 18.140625 8.90625 
Q 21.296875 6.109375 26.703125 6.109375 
Q 34.1875 6.109375 38.703125 11.40625 
Q 43.21875 16.703125 43.21875 25.484375 
L 43.21875 27.484375 
z
M 52.203125 31.203125 
L 52.203125 0 
L 43.21875 0 
L 43.21875 8.296875 
Q 40.140625 3.328125 35.546875 0.953125 
Q 30.953125 -1.421875 24.3125 -1.421875 
Q 15.921875 -1.421875 10.953125 3.296875 
Q 6 8.015625 6 15.921875 
Q 6 25.140625 12.171875 29.828125 
Q 18.359375 34.515625 30.609375 34.515625 
L 43.21875 34.515625 
L 43.21875 35.40625 
Q 43.21875 41.609375 39.140625 45 
Q 35.0625 48.390625 27.6875 48.390625 
Q 23 48.390625 18.546875 47.265625 
Q 14.109375 46.140625 10.015625 43.890625 
L 10.015625 52.203125 
Q 14.9375 54.109375 19.578125 55.046875 
Q 24.21875 56 28.609375 56 
Q 40.484375 56 46.34375 49.84375 
Q 52.203125 43.703125 52.203125 31.203125 
z
" id="DejaVuSans-97"/>
      <path d="M 8.5 21.578125 
L 8.5 54.6875 
L 17.484375 54.6875 
L 17.484375 21.921875 
Q 17.484375 14.15625 20.5 10.265625 
Q 23.53125 6.390625 29.59375 6.390625 
Q 36.859375 6.390625 41.078125 11.03125 
Q 45.3125 15.671875 45.3125 23.6875 
L 45.3125 54.6875 
L 54.296875 54.6875 
L 54.296875 0 
L 45.3125 0 
L 45.3125 8.40625 
Q 42.046875 3.421875 37.71875 1 
Q 33.40625 -1.421875 27.6875 -1.421875 
Q 18.265625 -1.421875 13.375 4.4375 
Q 8.5 10.296875 8.5 21.578125 
z
M 31.109375 56 
z
" id="DejaVuSans-117"/>
      <path d="M 56.203125 29.59375 
L 56.203125 25.203125 
L 14.890625 25.203125 
Q 15.484375 15.921875 20.484375 11.0625 
Q 25.484375 6.203125 34.421875 6.203125 
Q 39.59375 6.203125 44.453125 7.46875 
Q 49.3125 8.734375 54.109375 11.28125 
L 54.109375 2.78125 
Q 49.265625 0.734375 44.1875 -0.34375 
Q 39.109375 -1.421875 33.890625 -1.421875 
Q 20.796875 -1.421875 13.15625 6.1875 
Q 5.515625 13.8125 5.515625 26.8125 
Q 5.515625 40.234375 12.765625 48.109375 
Q 20.015625 56 32.328125 56 
Q 43.359375 56 49.78125 48.890625 
Q 56.203125 41.796875 56.203125 29.59375 
z
M 47.21875 32.234375 
Q 47.125 39.59375 43.09375 43.984375 
Q 39.0625 48.390625 32.421875 48.390625 
Q 24.90625 48.390625 20.390625 44.140625 
Q 15.875 39.890625 15.1875 32.171875 
z
" id="DejaVuSans-101"/>
     </defs>
     <g transform="translate(152.4925 339.874375)scale(0.28 -0.28)">
      <use xlink:href="#DejaVuSans-45"/>
      <use x="36.083984" xlink:href="#DejaVuSans-108"/>
      <use x="63.867188" xlink:href="#DejaVuSans-111"/>
      <use x="125.048828" xlink:href="#DejaVuSans-103"/>
      <use x="188.525391" xlink:href="#DejaVuSans-49"/>
      <use x="252.148438" xlink:href="#DejaVuSans-48"/>
      <use x="315.771484" xlink:href="#DejaVuSans-32"/>
      <use x="347.558594" xlink:href="#DejaVuSans-112"/>
      <use x="411.035156" xlink:href="#DejaVuSans-45"/>
      <use x="447.087891" xlink:href="#DejaVuSans-118"/>
      <use x="506.267578" xlink:href="#DejaVuSans-97"/>
      <use x="567.546875" xlink:href="#DejaVuSans-108"/>
      <use x="595.330078" xlink:href="#DejaVuSans-117"/>
      <use x="658.708984" xlink:href="#DejaVuSans-101"/>
     </g>
    </g>
   </g>
   <g id="matplotlib.axis_2">
    <g id="ytick_1">
     <g id="line2d_6">
      <defs>
       <path d="M 0 0 
L -5 0 
" id="m90c0a18fcd" style="stroke:#000000;stroke-width:0.8;"/>
      </defs>
      <g>
       <use style="stroke:#000000;stroke-width:0.8;" x="91.3275" xlink:href="#m90c0a18fcd" y="279"/>
      </g>
     </g>
     <g id="text_7">
      <!-- 0.0 -->
      <defs>
       <path d="M 10.6875 12.40625 
L 21 12.40625 
L 21 0 
L 10.6875 0 
z
" id="DejaVuSans-46"/>
      </defs>
      <g transform="translate(38.29875 289.637812)scale(0.28 -0.28)">
       <use xlink:href="#DejaVuSans-48"/>
       <use x="63.623047" xlink:href="#DejaVuSans-46"/>
       <use x="95.410156" xlink:href="#DejaVuSans-48"/>
      </g>
     </g>
    </g>
    <g id="ytick_2">
     <g id="line2d_7">
      <g>
       <use style="stroke:#000000;stroke-width:0.8;" x="91.3275" xlink:href="#m90c0a18fcd" y="149.571429"/>
      </g>
     </g>
     <g id="text_8">
      <!-- 0.5 -->
      <g transform="translate(38.29875 160.209241)scale(0.28 -0.28)">
       <use xlink:href="#DejaVuSans-48"/>
       <use x="63.623047" xlink:href="#DejaVuSans-46"/>
       <use x="95.410156" xlink:href="#DejaVuSans-53"/>
      </g>
     </g>
    </g>
    <g id="ytick_3">
     <g id="line2d_8">
      <g>
       <use style="stroke:#000000;stroke-width:0.8;" x="91.3275" xlink:href="#m90c0a18fcd" y="20.142857"/>
      </g>
     </g>
     <g id="text_9">
      <!-- 1.0 -->
      <g transform="translate(38.29875 30.78067)scale(0.28 -0.28)">
       <use xlink:href="#DejaVuSans-49"/>
       <use x="63.623047" xlink:href="#DejaVuSans-46"/>
       <use x="95.410156" xlink:href="#DejaVuSans-48"/>
      </g>
     </g>
    </g>
    <g id="text_10">
     <!-- Recall -->
     <defs>
      <path d="M 44.390625 34.1875 
Q 47.5625 33.109375 50.5625 29.59375 
Q 53.5625 26.078125 56.59375 19.921875 
L 66.609375 0 
L 56 0 
L 46.6875 18.703125 
Q 43.0625 26.03125 39.671875 28.421875 
Q 36.28125 30.8125 30.421875 30.8125 
L 19.671875 30.8125 
L 19.671875 0 
L 9.8125 0 
L 9.8125 72.90625 
L 32.078125 72.90625 
Q 44.578125 72.90625 50.734375 67.671875 
Q 56.890625 62.453125 56.890625 51.90625 
Q 56.890625 45.015625 53.6875 40.46875 
Q 50.484375 35.9375 44.390625 34.1875 
z
M 19.671875 64.796875 
L 19.671875 38.921875 
L 32.078125 38.921875 
Q 39.203125 38.921875 42.84375 42.21875 
Q 46.484375 45.515625 46.484375 51.90625 
Q 46.484375 58.296875 42.84375 61.546875 
Q 39.203125 64.796875 32.078125 64.796875 
z
" id="DejaVuSans-82"/>
      <path d="M 48.78125 52.59375 
L 48.78125 44.1875 
Q 44.96875 46.296875 41.140625 47.34375 
Q 37.3125 48.390625 33.40625 48.390625 
Q 24.65625 48.390625 19.8125 42.84375 
Q 14.984375 37.3125 14.984375 27.296875 
Q 14.984375 17.28125 19.8125 11.734375 
Q 24.65625 6.203125 33.40625 6.203125 
Q 37.3125 6.203125 41.140625 7.25 
Q 44.96875 8.296875 48.78125 10.40625 
L 48.78125 2.09375 
Q 45.015625 0.34375 40.984375 -0.53125 
Q 36.96875 -1.421875 32.421875 -1.421875 
Q 20.0625 -1.421875 12.78125 6.34375 
Q 5.515625 14.109375 5.515625 27.296875 
Q 5.515625 40.671875 12.859375 48.328125 
Q 20.21875 56 33.015625 56 
Q 37.15625 56 41.109375 55.140625 
Q 45.0625 54.296875 48.78125 52.59375 
z
" id="DejaVuSans-99"/>
     </defs>
     <g transform="translate(28.475625 185.489375)rotate(-90)scale(0.28 -0.28)">
      <use xlink:href="#DejaVuSans-82"/>
      <use x="69.419922" xlink:href="#DejaVuSans-101"/>
      <use x="130.943359" xlink:href="#DejaVuSans-99"/>
      <use x="185.923828" xlink:href="#DejaVuSans-97"/>
      <use x="247.203125" xlink:href="#DejaVuSans-108"/>
      <use x="274.986328" xlink:href="#DejaVuSans-108"/>
     </g>
    </g>
   </g>
   <g id="line2d_9">
    <path clip-path="url(#pf2e82449cc)" d="M 106.054773 253.50322 
L 109.736591 253.158839 
L 113.418409 252.379939 
L 117.100227 252.221675 
L 120.782045 251.955224 
L 124.463864 250.906977 
L 128.145682 250.468652 
L 131.8275 249.705467 
L 135.509318 249.447599 
L 139.191136 248.714286 
L 142.872955 248.376276 
L 146.554773 247.605427 
L 150.236591 246.94526 
L 153.918409 246.486542 
L 157.600227 245.764021 
L 161.282045 245.662338 
L 164.963864 245.322157 
L 168.645682 244.798668 
L 172.3275 244.258647 
L 176.009318 243.415864 
L 179.691136 243.637002 
L 183.372955 243.14721 
L 187.054773 242.64366 
L 190.736591 241.592898 
L 194.418409 241.155388 
L 198.100227 240.707523 
L 201.782045 240.329268 
L 205.463864 239.851852 
L 209.145682 239.3625 
L 212.8275 238.605096 
L 216.509318 237.951456 
L 220.191136 237.138614 
L 223.872955 237.164502 
L 227.554773 236.448141 
L 231.236591 236.755952 
L 234.918409 235.236382 
L 238.600227 234.434851 
L 242.282045 234.402889 
L 245.963864 233.724606 
L 249.645682 233.202198 
L 253.3275 233.139483 
L 257.009318 233.935801 
L 260.691136 233.381733 
L 264.372955 232.813871 
L 268.054773 233.126582 
L 271.736591 233.126582 
L 275.418409 233.644689 
L 279.100227 233.450031 
L 282.782045 233.055659 
L 286.463864 234.721805 
L 290.145682 233.72902 
L 293.8275 233.111688 
L 297.509318 232.690695 
L 301.191136 232.477288 
L 304.872955 231.154367 
L 308.554773 231.935065 
L 312.236591 231.34968 
L 315.918409 231.34968 
L 319.600227 230.870782 
L 323.282045 230.382161 
L 326.963864 230.134111 
L 330.645682 230.134111 
L 334.3275 229.630339 
L 338.009318 229.116071 
L 341.691136 229.116071 
L 345.372955 228.054711 
L 349.054773 228.627799 
L 352.736591 228.627799 
L 356.418409 227.797488 
L 360.100227 227.797488 
L 363.782045 227.514601 
L 367.463864 227.228571 
L 371.145682 226.35109 
L 374.8275 226.051948 
L 378.509318 225.133774 
L 382.191136 226.325581 
L 385.872955 226.017544 
L 389.554773 227.228571 
L 393.236591 228.153061 
L 396.918409 227.848589 
L 400.600227 228.491289 
" style="fill:none;stroke:#8b0000;stroke-linecap:square;stroke-width:2;"/>
   </g>
   <g id="line2d_10">
    <path clip-path="url(#pf2e82449cc)" d="M 106.054773 205.534701 
L 109.736591 204.595279 
L 113.418409 203.270517 
L 117.100227 202.423386 
L 120.782045 202.695096 
L 124.463864 199.737542 
L 128.145682 198.074721 
L 131.8275 195.910053 
L 135.509318 194.72093 
L 139.191136 192.142857 
L 142.872955 191.751276 
L 146.554773 189.555083 
L 150.236591 189.488652 
L 153.918409 188.337474 
L 157.600227 187.601058 
L 161.282045 186.177489 
L 164.963864 185.890671 
L 168.645682 185.11399 
L 172.3275 184.312782 
L 176.009318 182.713516 
L 179.691136 182.105386 
L 183.372955 180.763356 
L 187.054773 180.837881 
L 190.736591 178.000826 
L 194.418409 176.819549 
L 198.100227 176.376162 
L 201.782045 174.825784 
L 205.463864 174.338624 
L 209.145682 173.839286 
L 212.8275 174.303003 
L 216.509318 172.608877 
L 220.191136 171.356436 
L 223.872955 171.796537 
L 227.554773 170.847358 
L 231.236591 170.244048 
L 234.918409 168.194245 
L 238.600227 167.11303 
L 242.282045 168.476726 
L 245.963864 168.764259 
L 249.645682 169.483516 
L 253.3275 169.953881 
L 257.009318 172.103528 
L 260.691136 170.789227 
L 264.372955 170.516301 
L 268.054773 169.777577 
L 271.736591 169.777577 
L 275.418409 170.589744 
L 279.100227 170.124464 
L 282.782045 170.302412 
L 286.463864 171.142857 
L 290.145682 171.046124 
L 293.8275 170.750649 
L 297.509318 169.757536 
L 301.191136 169.254115 
L 304.872955 166.133378 
L 308.554773 166.291866 
L 312.236591 169.533049 
L 315.918409 169.533049 
L 319.600227 168.432879 
L 323.282045 168.624365 
L 326.963864 168.061224 
L 330.645682 168.061224 
L 334.3275 168.251841 
L 338.009318 167.098214 
L 341.691136 167.098214 
L 345.372955 164.717325 
L 349.054773 164.26332 
L 352.736591 164.26332 
L 356.418409 163.794349 
L 360.100227 163.794349 
L 363.782045 163.157853 
L 367.463864 163.952381 
L 371.145682 163.464891 
L 374.8275 164.279221 
L 378.509318 165.282411 
L 382.191136 166.126246 
L 385.872955 165.466165 
L 389.554773 166.321008 
L 393.236591 168.061224 
L 396.918409 167.39692 
L 400.600227 168.512195 
" style="fill:none;stroke:#000080;stroke-linecap:square;stroke-width:2;"/>
   </g>
   <g id="patch_3">
    <path d="M 91.3275 279 
L 91.3275 7.2 
" style="fill:none;stroke:#000000;stroke-linecap:square;stroke-linejoin:miter;stroke-width:0.8;"/>
   </g>
   <g id="patch_4">
    <path d="M 91.3275 279 
L 415.3275 279 
" style="fill:none;stroke:#000000;stroke-linecap:square;stroke-linejoin:miter;stroke-width:0.8;"/>
   </g>
  </g>
  <g id="axes_2">
   <g id="patch_5">
    <path d="M 431.5275 279 
L 755.5275 279 
L 755.5275 7.2 
L 431.5275 7.2 
z
" style="fill:none;"/>
   </g>
   <g id="matplotlib.axis_3">
    <g id="xtick_6">
     <g id="line2d_11">
      <g>
       <use style="stroke:#000000;stroke-width:0.8;" x="446.254773" xlink:href="#mce02a18336" y="279"/>
      </g>
     </g>
     <g id="text_11">
      <!-- 1 -->
      <g transform="translate(437.347273 308.775625)scale(0.28 -0.28)">
       <use xlink:href="#DejaVuSans-49"/>
      </g>
     </g>
    </g>
    <g id="xtick_7">
     <g id="line2d_12">
      <g>
       <use style="stroke:#000000;stroke-width:0.8;" x="519.891136" xlink:href="#mce02a18336" y="279"/>
      </g>
     </g>
     <g id="text_12">
      <!-- 2 -->
      <g transform="translate(510.983636 308.775625)scale(0.28 -0.28)">
       <use xlink:href="#DejaVuSans-50"/>
      </g>
     </g>
    </g>
    <g id="xtick_8">
     <g id="line2d_13">
      <g>
       <use style="stroke:#000000;stroke-width:0.8;" x="593.5275" xlink:href="#mce02a18336" y="279"/>
      </g>
     </g>
     <g id="text_13">
      <!-- 3 -->
      <g transform="translate(584.62 308.775625)scale(0.28 -0.28)">
       <use xlink:href="#DejaVuSans-51"/>
      </g>
     </g>
    </g>
    <g id="xtick_9">
     <g id="line2d_14">
      <g>
       <use style="stroke:#000000;stroke-width:0.8;" x="667.163864" xlink:href="#mce02a18336" y="279"/>
      </g>
     </g>
     <g id="text_14">
      <!-- 4 -->
      <g transform="translate(658.256364 308.775625)scale(0.28 -0.28)">
       <use xlink:href="#DejaVuSans-52"/>
      </g>
     </g>
    </g>
    <g id="xtick_10">
     <g id="line2d_15">
      <g>
       <use style="stroke:#000000;stroke-width:0.8;" x="740.800227" xlink:href="#mce02a18336" y="279"/>
      </g>
     </g>
     <g id="text_15">
      <!-- 5 -->
      <g transform="translate(731.892727 308.775625)scale(0.28 -0.28)">
       <use xlink:href="#DejaVuSans-53"/>
      </g>
     </g>
    </g>
    <g id="text_16">
     <!-- -log10 p-value -->
     <g transform="translate(492.6925 339.874375)scale(0.28 -0.28)">
      <use xlink:href="#DejaVuSans-45"/>
      <use x="36.083984" xlink:href="#DejaVuSans-108"/>
      <use x="63.867188" xlink:href="#DejaVuSans-111"/>
      <use x="125.048828" xlink:href="#DejaVuSans-103"/>
      <use x="188.525391" xlink:href="#DejaVuSans-49"/>
      <use x="252.148438" xlink:href="#DejaVuSans-48"/>
      <use x="315.771484" xlink:href="#DejaVuSans-32"/>
      <use x="347.558594" xlink:href="#DejaVuSans-112"/>
      <use x="411.035156" xlink:href="#DejaVuSans-45"/>
      <use x="447.087891" xlink:href="#DejaVuSans-118"/>
      <use x="506.267578" xlink:href="#DejaVuSans-97"/>
      <use x="567.546875" xlink:href="#DejaVuSans-108"/>
      <use x="595.330078" xlink:href="#DejaVuSans-117"/>
      <use x="658.708984" xlink:href="#DejaVuSans-101"/>
     </g>
    </g>
   </g>
   <g id="matplotlib.axis_4">
    <g id="ytick_4"/>
    <g id="ytick_5"/>
    <g id="ytick_6"/>
   </g>
   <g id="line2d_16">
    <path clip-path="url(#p86fa59f1a4)" d="M 446.254773 131.579116 
L 449.936591 133.939959 
L 453.618409 128.440233 
L 457.300227 126.410526 
L 460.982045 121.98829 
L 464.663864 121.305419 
L 468.345682 119.581882 
L 472.0275 119.703297 
L 475.709318 115.694151 
L 479.391136 115.416667 
L 483.072955 110.263492 
L 486.754773 108.38961 
L 490.436591 109.189714 
L 494.118409 109.994097 
L 497.800227 112.591837 
L 501.482045 112.940701 
L 505.163864 114.725275 
L 508.845682 114.042017 
L 512.5275 111.658009 
L 516.209318 111.018237 
L 519.891136 108.38961 
L 523.572955 105.376307 
L 527.254773 107.507143 
L 530.936591 110.910946 
L 534.618409 112.105263 
L 538.300227 113.331429 
L 541.982045 113.619048 
L 545.663864 108.893878 
L 549.345682 101.277186 
L 553.0275 102.506494 
L 556.709318 103.773626 
L 560.391136 101.035714 
L 564.072955 102.319728 
L 567.754773 102.319728 
L 571.436591 105.014052 
L 575.118409 106.428571 
L 578.800227 100.477833 
L 582.482045 101.634921 
L 586.163864 92.622857 
L 589.845682 94.102041 
L 593.5275 97.24924 
L 597.209318 97.24924 
L 600.891136 97.24924 
L 604.572955 93.298137 
L 608.254773 89.171429 
L 611.936591 89.171429 
L 615.618409 84.857143 
L 619.300227 84.857143 
L 622.982045 80.342193 
L 626.663864 84.857143 
L 630.345682 86.516484 
L 634.0275 90.104247 
L 637.709318 84.857143 
L 641.391136 86.706122 
L 645.072955 86.706122 
L 648.754773 90.74026 
L 652.436591 90.74026 
L 656.118409 92.946429 
L 659.800227 95.294931 
L 663.482045 97.8 
L 667.163864 97.8 
L 670.845682 97.8 
L 674.5275 97.8 
L 678.209318 100.477833 
L 681.891136 100.477833 
L 685.572955 100.477833 
L 689.254773 87.253968 
L 692.936591 87.253968 
L 696.618409 87.253968 
L 700.300227 87.253968 
L 703.982045 89.835165 
L 707.663864 89.835165 
L 711.345682 89.835165 
L 715.0275 89.835165 
L 718.709318 89.835165 
L 722.391136 89.835165 
L 726.072955 89.835165 
L 729.754773 92.622857 
L 733.436591 92.622857 
L 737.118409 92.622857 
L 740.800227 92.622857 
" style="fill:none;stroke:#8b0000;stroke-linecap:square;stroke-width:2;"/>
   </g>
   <g id="line2d_17">
    <path clip-path="url(#p86fa59f1a4)" d="M 446.254773 220.960282 
L 449.936591 222.726708 
L 453.618409 219.568513 
L 457.300227 219.054135 
L 460.982045 216.761124 
L 464.663864 216.517241 
L 468.345682 215.864111 
L 472.0275 214.285714 
L 475.709318 214.720038 
L 479.391136 216.083333 
L 483.072955 211.888889 
L 486.754773 212.324675 
L 490.436591 210.661714 
L 494.118409 210.541913 
L 497.800227 207.352041 
L 501.482045 203.296496 
L 505.163864 201.840659 
L 508.845682 200.327731 
L 512.5275 200.558442 
L 516.209318 196.386018 
L 519.891136 193.694805 
L 523.572955 187.452962 
L 527.254773 188.4 
L 530.936591 194.955473 
L 534.618409 193.849624 
L 538.300227 192.714286 
L 541.982045 192.714286 
L 545.663864 190.24898 
L 549.345682 186.275053 
L 553.0275 188.792208 
L 556.709318 191.386813 
L 560.391136 190.017857 
L 564.072955 188.605442 
L 567.754773 188.605442 
L 571.436591 185.641686 
L 575.118409 188.4 
L 578.800227 185.275862 
L 582.482045 192.714286 
L 586.163864 185.811429 
L 589.845682 189.19242 
L 593.5275 196.386018 
L 597.209318 196.386018 
L 600.891136 196.386018 
L 604.572955 194.590062 
L 608.254773 192.714286 
L 611.936591 192.714286 
L 615.618409 190.753247 
L 619.300227 190.753247 
L 622.982045 188.700997 
L 626.663864 188.4 
L 630.345682 186.076923 
L 634.0275 181.054054 
L 637.709318 178.333333 
L 641.391136 175.457143 
L 645.072955 175.457143 
L 648.754773 177.025974 
L 652.436591 177.025974 
L 656.118409 173.839286 
L 659.800227 178.797235 
L 663.482045 184.085714 
L 667.163864 184.085714 
L 670.845682 184.085714 
L 674.5275 184.085714 
L 678.209318 180.812808 
L 681.891136 180.812808 
L 685.572955 180.812808 
L 689.254773 173.539683 
L 692.936591 173.539683 
L 696.618409 173.539683 
L 700.300227 173.539683 
L 703.982045 179.43956 
L 707.663864 179.43956 
L 711.345682 179.43956 
L 715.0275 179.43956 
L 718.709318 179.43956 
L 722.391136 179.43956 
L 726.072955 179.43956 
L 729.754773 185.811429 
L 733.436591 185.811429 
L 737.118409 185.811429 
L 740.800227 185.811429 
" style="fill:none;stroke:#000080;stroke-linecap:square;stroke-width:2;"/>
   </g>
   <g id="patch_6">
    <path d="M 431.5275 279 
L 431.5275 7.2 
" style="fill:none;stroke:#000000;stroke-linecap:square;stroke-linejoin:miter;stroke-width:0.8;"/>
   </g>
   <g id="patch_7">
    <path d="M 431.5275 279 
L 755.5275 279 
" style="fill:none;stroke:#000000;stroke-linecap:square;stroke-linejoin:miter;stroke-width:0.8;"/>
   </g>
  </g>
  <g id="axes_3">
   <g id="patch_8">
    <path d="M 771.7275 279 
L 1095.7275 279 
L 1095.7275 7.2 
L 771.7275 7.2 
z
" style="fill:none;"/>
   </g>
   <g id="matplotlib.axis_5">
    <g id="xtick_11">
     <g id="line2d_18">
      <g>
       <use style="stroke:#000000;stroke-width:0.8;" x="786.454773" xlink:href="#mce02a18336" y="279"/>
      </g>
     </g>
     <g id="text_17">
      <!-- 1 -->
      <g transform="translate(777.547273 308.775625)scale(0.28 -0.28)">
       <use xlink:href="#DejaVuSans-49"/>
      </g>
     </g>
    </g>
    <g id="xtick_12">
     <g id="line2d_19">
      <g>
       <use style="stroke:#000000;stroke-width:0.8;" x="860.091136" xlink:href="#mce02a18336" y="279"/>
      </g>
     </g>
     <g id="text_18">
      <!-- 2 -->
      <g transform="translate(851.183636 308.775625)scale(0.28 -0.28)">
       <use xlink:href="#DejaVuSans-50"/>
      </g>
     </g>
    </g>
    <g id="xtick_13">
     <g id="line2d_20">
      <g>
       <use style="stroke:#000000;stroke-width:0.8;" x="933.7275" xlink:href="#mce02a18336" y="279"/>
      </g>
     </g>
     <g id="text_19">
      <!-- 3 -->
      <g transform="translate(924.82 308.775625)scale(0.28 -0.28)">
       <use xlink:href="#DejaVuSans-51"/>
      </g>
     </g>
    </g>
    <g id="xtick_14">
     <g id="line2d_21">
      <g>
       <use style="stroke:#000000;stroke-width:0.8;" x="1007.363864" xlink:href="#mce02a18336" y="279"/>
      </g>
     </g>
     <g id="text_20">
      <!-- 4 -->
      <g transform="translate(998.456364 308.775625)scale(0.28 -0.28)">
       <use xlink:href="#DejaVuSans-52"/>
      </g>
     </g>
    </g>
    <g id="xtick_15">
     <g id="line2d_22">
      <g>
       <use style="stroke:#000000;stroke-width:0.8;" x="1081.000227" xlink:href="#mce02a18336" y="279"/>
      </g>
     </g>
     <g id="text_21">
      <!-- 5 -->
      <g transform="translate(1072.092727 308.775625)scale(0.28 -0.28)">
       <use xlink:href="#DejaVuSans-53"/>
      </g>
     </g>
    </g>
    <g id="text_22">
     <!-- -log10 p-value -->
     <g transform="translate(832.8925 339.874375)scale(0.28 -0.28)">
      <use xlink:href="#DejaVuSans-45"/>
      <use x="36.083984" xlink:href="#DejaVuSans-108"/>
      <use x="63.867188" xlink:href="#DejaVuSans-111"/>
      <use x="125.048828" xlink:href="#DejaVuSans-103"/>
      <use x="188.525391" xlink:href="#DejaVuSans-49"/>
      <use x="252.148438" xlink:href="#DejaVuSans-48"/>
      <use x="315.771484" xlink:href="#DejaVuSans-32"/>
      <use x="347.558594" xlink:href="#DejaVuSans-112"/>
      <use x="411.035156" xlink:href="#DejaVuSans-45"/>
      <use x="447.087891" xlink:href="#DejaVuSans-118"/>
      <use x="506.267578" xlink:href="#DejaVuSans-97"/>
      <use x="567.546875" xlink:href="#DejaVuSans-108"/>
      <use x="595.330078" xlink:href="#DejaVuSans-117"/>
      <use x="658.708984" xlink:href="#DejaVuSans-101"/>
     </g>
    </g>
   </g>
   <g id="matplotlib.axis_6">
    <g id="ytick_7"/>
    <g id="ytick_8"/>
    <g id="ytick_9"/>
   </g>
   <g id="line2d_23">
    <path clip-path="url(#p18addfd898)" d="M 786.454773 28.107692 
L 790.136591 28.107692 
L 793.818409 28.200667 
L 797.500227 27.390857 
L 801.182045 27.508711 
L 804.863864 27.569087 
L 808.545682 27.756303 
L 812.2275 26.866419 
L 815.909318 26.92514 
L 819.591136 27.045714 
L 823.272955 27.107623 
L 826.954773 27.202597 
L 830.636591 27.366777 
L 834.318409 26.335612 
L 838.000227 26.395445 
L 841.682045 26.456446 
L 845.363864 26.487395 
L 849.045682 26.58209 
L 852.7275 26.78022 
L 856.409318 26.883929 
L 860.091136 25.621315 
L 863.772955 25.739768 
L 867.454773 25.863457 
L 871.136591 25.959872 
L 874.818409 26.025974 
L 878.500227 26.127993 
L 882.182045 26.306122 
L 885.863864 26.380379 
L 889.545682 24.966282 
L 893.2275 25.057866 
L 896.909318 25.089172 
L 900.591136 25.089172 
L 904.272955 25.152995 
L 907.954773 25.218487 
L 911.636591 23.61745 
L 915.318409 23.664723 
L 919.000227 23.688845 
L 922.682045 23.81459 
L 926.363864 22.046218 
L 930.045682 22.060317 
L 933.7275 22.074627 
L 937.409318 22.089151 
L 941.091136 22.103896 
L 944.772955 22.149502 
L 948.454773 22.149502 
L 952.136591 22.149502 
L 955.818409 22.213714 
L 959.500227 22.264637 
L 963.182045 22.318127 
L 966.863864 22.355311 
L 970.545682 22.413534 
L 974.2275 22.433628 
L 977.909318 22.454082 
L 981.591136 22.517693 
L 985.272955 22.562083 
L 988.954773 22.584906 
L 992.636591 22.680672 
L 996.318409 22.731429 
L 1000.000227 22.731429 
L 1003.682045 22.784257 
L 1007.363864 22.839286 
L 1011.045682 22.867669 
L 1014.7275 22.867669 
L 1018.409318 22.867669 
L 1022.091136 22.896657 
L 1025.772955 22.896657 
L 1029.454773 23.019048 
L 1033.136591 23.051364 
L 1036.818409 23.118227 
L 1040.500227 23.188235 
L 1044.182045 23.188235 
L 1047.863864 23.22449 
L 1051.545682 23.261618 
L 1055.2275 23.261618 
L 1058.909318 23.261618 
L 1062.591136 23.261618 
L 1066.272955 23.41953 
L 1069.954773 23.461538 
L 1073.636591 23.461538 
L 1077.318409 23.504638 
L 1081.000227 23.548872 
" style="fill:none;stroke:#8b0000;stroke-linecap:square;stroke-width:2;"/>
   </g>
   <g id="line2d_24">
    <path clip-path="url(#p18addfd898)" d="M 786.454773 198.356044 
L 790.136591 198.356044 
L 793.818409 198.421901 
L 797.500227 196.165714 
L 801.182045 194.818815 
L 804.863864 195.189696 
L 808.545682 194.164466 
L 812.2275 192.714286 
L 815.909318 191.960699 
L 819.591136 192.714286 
L 823.272955 191.940423 
L 826.954773 193.106494 
L 830.636591 192.312957 
L 834.318409 191.062884 
L 838.000227 190.213251 
L 841.682045 189.347038 
L 845.363864 188.907563 
L 849.045682 188.850746 
L 852.7275 187.404396 
L 856.409318 185.973214 
L 860.091136 185.866213 
L 863.772955 186.650965 
L 867.454773 184.610103 
L 871.136591 183.019262 
L 874.818409 184.87013 
L 878.500227 183.23782 
L 882.182045 180.387755 
L 885.863864 179.199656 
L 889.545682 177.708075 
L 893.2275 177.423146 
L 896.909318 178.424932 
L 900.591136 178.424932 
L 904.272955 178.797235 
L 907.954773 177.487395 
L 911.636591 174.762224 
L 915.318409 173.344023 
L 919.000227 172.620352 
L 922.682045 170.683891 
L 926.363864 166.701681 
L 930.045682 165.869841 
L 933.7275 165.025586 
L 937.409318 166.11493 
L 941.091136 167.220779 
L 944.772955 168.634551 
L 948.454773 168.634551 
L 952.136591 168.634551 
L 955.818409 165.102857 
L 959.500227 162.302108 
L 963.182045 159.360144 
L 966.863864 159.527473 
L 970.545682 156.383459 
L 974.2275 155.298357 
L 977.909318 156.505102 
L 981.591136 157.883355 
L 985.272955 158.038718 
L 988.954773 156.897574 
L 992.636591 157.184874 
L 996.318409 157.337143 
L 1000.000227 157.337143 
L 1003.682045 157.495627 
L 1007.363864 160.357143 
L 1011.045682 159.108271 
L 1014.7275 159.108271 
L 1018.409318 159.108271 
L 1022.091136 157.832827 
L 1025.772955 157.832827 
L 1029.454773 158.2 
L 1033.136591 156.842697 
L 1036.818409 154.034483 
L 1040.500227 151.094118 
L 1044.182045 151.094118 
L 1047.863864 149.571429 
L 1051.545682 148.012048 
L 1055.2275 148.012048 
L 1058.909318 148.012048 
L 1062.591136 148.012048 
L 1066.272955 151.209765 
L 1069.954773 149.571429 
L 1073.636591 149.571429 
L 1077.318409 147.890538 
L 1081.000227 149.571429 
" style="fill:none;stroke:#000080;stroke-linecap:square;stroke-width:2;"/>
   </g>
   <g id="patch_9">
    <path d="M 771.7275 279 
L 771.7275 7.2 
" style="fill:none;stroke:#000000;stroke-linecap:square;stroke-linejoin:miter;stroke-width:0.8;"/>
   </g>
   <g id="patch_10">
    <path d="M 771.7275 279 
L 1095.7275 279 
" style="fill:none;stroke:#000000;stroke-linecap:square;stroke-linejoin:miter;stroke-width:0.8;"/>
   </g>
  </g>
 </g>
 <defs>
  <clipPath id="pf2e82449cc">
   <rect height="271.8" width="324" x="91.3275" y="7.2"/>
  </clipPath>
  <clipPath id="p86fa59f1a4">
   <rect height="271.8" width="324" x="431.5275" y="7.2"/>
  </clipPath>
  <clipPath id="p18addfd898">
   <rect height="271.8" width="324" x="771.7275" y="7.2"/>
  </clipPath>
 </defs>
</svg>
