<?xml version="1.0" encoding="utf-8" standalone="no"?>
<!DOCTYPE svg PUBLIC "-//W3C//DTD SVG 1.1//EN"
  "http://www.w3.org/Graphics/SVG/1.1/DTD/svg11.dtd">
<!-- Created with matplotlib (https://matplotlib.org/) -->
<svg height="363.535312pt" version="1.1" viewBox="0 0 1120.7425 363.535312" width="1120.7425pt" xmlns="http://www.w3.org/2000/svg" xmlns:xlink="http://www.w3.org/1999/xlink">
 <defs>
  <style type="text/css">
*{stroke-linecap:butt;stroke-linejoin:round;}
  </style>
 </defs>
 <g id="figure_1">
  <g id="patch_1">
   <path d="M 0 363.535312 
L 1120.7425 363.535312 
L 1120.7425 -0 
L 0 -0 
z
" style="fill:none;"/>
  </g>
  <g id="axes_1">
   <g id="patch_2">
    <path d="M 109.1425 289.637812 
L 433.1425 289.637812 
L 433.1425 17.837813 
L 109.1425 17.837813 
z
" style="fill:none;"/>
   </g>
   <g id="matplotlib.axis_1">
    <g id="xtick_1">
     <g id="line2d_1">
      <defs>
       <path d="M 0 0 
L 0 5 
" id="m7963a7559b" style="stroke:#000000;stroke-width:0.8;"/>
      </defs>
      <g>
       <use style="stroke:#000000;stroke-width:0.8;" x="123.869773" xlink:href="#m7963a7559b" y="289.637812"/>
      </g>
     </g>
     <g id="text_1">
      <!-- 1 -->
      <defs>
       <path d="M 12.40625 8.296875 
L 28.515625 8.296875 
L 28.515625 63.921875 
L 10.984375 60.40625 
L 10.984375 69.390625 
L 28.421875 72.90625 
L 38.28125 72.90625 
L 38.28125 8.296875 
L 54.390625 8.296875 
L 54.390625 0 
L 12.40625 0 
z
" id="DejaVuSans-49"/>
      </defs>
      <g transform="translate(114.962273 319.413437)scale(0.28 -0.28)">
       <use xlink:href="#DejaVuSans-49"/>
      </g>
     </g>
    </g>
    <g id="xtick_2">
     <g id="line2d_2">
      <g>
       <use style="stroke:#000000;stroke-width:0.8;" x="197.506136" xlink:href="#m7963a7559b" y="289.637812"/>
      </g>
     </g>
     <g id="text_2">
      <!-- 2 -->
      <defs>
       <path d="M 19.1875 8.296875 
L 53.609375 8.296875 
L 53.609375 0 
L 7.328125 0 
L 7.328125 8.296875 
Q 12.9375 14.109375 22.625 23.890625 
Q 32.328125 33.6875 34.8125 36.53125 
Q 39.546875 41.84375 41.421875 45.53125 
Q 43.3125 49.21875 43.3125 52.78125 
Q 43.3125 58.59375 39.234375 62.25 
Q 35.15625 65.921875 28.609375 65.921875 
Q 23.96875 65.921875 18.8125 64.3125 
Q 13.671875 62.703125 7.8125 59.421875 
L 7.8125 69.390625 
Q 13.765625 71.78125 18.9375 73 
Q 24.125 74.21875 28.421875 74.21875 
Q 39.75 74.21875 46.484375 68.546875 
Q 53.21875 62.890625 53.21875 53.421875 
Q 53.21875 48.921875 51.53125 44.890625 
Q 49.859375 40.875 45.40625 35.40625 
Q 44.1875 33.984375 37.640625 27.21875 
Q 31.109375 20.453125 19.1875 8.296875 
z
" id="DejaVuSans-50"/>
      </defs>
      <g transform="translate(188.598636 319.413437)scale(0.28 -0.28)">
       <use xlink:href="#DejaVuSans-50"/>
      </g>
     </g>
    </g>
    <g id="xtick_3">
     <g id="line2d_3">
      <g>
       <use style="stroke:#000000;stroke-width:0.8;" x="271.1425" xlink:href="#m7963a7559b" y="289.637812"/>
      </g>
     </g>
     <g id="text_3">
      <!-- 3 -->
      <defs>
       <path d="M 40.578125 39.3125 
Q 47.65625 37.796875 51.625 33 
Q 55.609375 28.21875 55.609375 21.1875 
Q 55.609375 10.40625 48.1875 4.484375 
Q 40.765625 -1.421875 27.09375 -1.421875 
Q 22.515625 -1.421875 17.65625 -0.515625 
Q 12.796875 0.390625 7.625 2.203125 
L 7.625 11.71875 
Q 11.71875 9.328125 16.59375 8.109375 
Q 21.484375 6.890625 26.8125 6.890625 
Q 36.078125 6.890625 40.9375 10.546875 
Q 45.796875 14.203125 45.796875 21.1875 
Q 45.796875 27.640625 41.28125 31.265625 
Q 36.765625 34.90625 28.71875 34.90625 
L 20.21875 34.90625 
L 20.21875 43.015625 
L 29.109375 43.015625 
Q 36.375 43.015625 40.234375 45.921875 
Q 44.09375 48.828125 44.09375 54.296875 
Q 44.09375 59.90625 40.109375 62.90625 
Q 36.140625 65.921875 28.71875 65.921875 
Q 24.65625 65.921875 20.015625 65.03125 
Q 15.375 64.15625 9.8125 62.3125 
L 9.8125 71.09375 
Q 15.4375 72.65625 20.34375 73.4375 
Q 25.25 74.21875 29.59375 74.21875 
Q 40.828125 74.21875 47.359375 69.109375 
Q 53.90625 64.015625 53.90625 55.328125 
Q 53.90625 49.265625 50.4375 45.09375 
Q 46.96875 40.921875 40.578125 39.3125 
z
" id="DejaVuSans-51"/>
      </defs>
      <g transform="translate(262.235 319.413437)scale(0.28 -0.28)">
       <use xlink:href="#DejaVuSans-51"/>
      </g>
     </g>
    </g>
    <g id="xtick_4">
     <g id="line2d_4">
      <g>
       <use style="stroke:#000000;stroke-width:0.8;" x="344.778864" xlink:href="#m7963a7559b" y="289.637812"/>
      </g>
     </g>
     <g id="text_4">
      <!-- 4 -->
      <defs>
       <path d="M 37.796875 64.3125 
L 12.890625 25.390625 
L 37.796875 25.390625 
z
M 35.203125 72.90625 
L 47.609375 72.90625 
L 47.609375 25.390625 
L 58.015625 25.390625 
L 58.015625 17.1875 
L 47.609375 17.1875 
L 47.609375 0 
L 37.796875 0 
L 37.796875 17.1875 
L 4.890625 17.1875 
L 4.890625 26.703125 
z
" id="DejaVuSans-52"/>
      </defs>
      <g transform="translate(335.871364 319.413437)scale(0.28 -0.28)">
       <use xlink:href="#DejaVuSans-52"/>
      </g>
     </g>
    </g>
    <g id="xtick_5">
     <g id="line2d_5">
      <g>
       <use style="stroke:#000000;stroke-width:0.8;" x="418.415227" xlink:href="#m7963a7559b" y="289.637812"/>
      </g>
     </g>
     <g id="text_5">
      <!-- 5 -->
      <defs>
       <path d="M 10.796875 72.90625 
L 49.515625 72.90625 
L 49.515625 64.59375 
L 19.828125 64.59375 
L 19.828125 46.734375 
Q 21.96875 47.46875 24.109375 47.828125 
Q 26.265625 48.1875 28.421875 48.1875 
Q 40.625 48.1875 47.75 41.5 
Q 54.890625 34.8125 54.890625 23.390625 
Q 54.890625 11.625 47.5625 5.09375 
Q 40.234375 -1.421875 26.90625 -1.421875 
Q 22.3125 -1.421875 17.546875 -0.640625 
Q 12.796875 0.140625 7.71875 1.703125 
L 7.71875 11.625 
Q 12.109375 9.234375 16.796875 8.0625 
Q 21.484375 6.890625 26.703125 6.890625 
Q 35.15625 6.890625 40.078125 11.328125 
Q 45.015625 15.765625 45.015625 23.390625 
Q 45.015625 31 40.078125 35.4375 
Q 35.15625 39.890625 26.703125 39.890625 
Q 22.75 39.890625 18.8125 39.015625 
Q 14.890625 38.140625 10.796875 36.28125 
z
" id="DejaVuSans-53"/>
      </defs>
      <g transform="translate(409.507727 319.413437)scale(0.28 -0.28)">
       <use xlink:href="#DejaVuSans-53"/>
      </g>
     </g>
    </g>
    <g id="text_6">
     <!-- -log10 p-value -->
     <defs>
      <path d="M 4.890625 31.390625 
L 31.203125 31.390625 
L 31.203125 23.390625 
L 4.890625 23.390625 
z
" id="DejaVuSans-45"/>
      <path d="M 9.421875 75.984375 
L 18.40625 75.984375 
L 18.40625 0 
L 9.421875 0 
z
" id="DejaVuSans-108"/>
      <path d="M 30.609375 48.390625 
Q 23.390625 48.390625 19.1875 42.75 
Q 14.984375 37.109375 14.984375 27.296875 
Q 14.984375 17.484375 19.15625 11.84375 
Q 23.34375 6.203125 30.609375 6.203125 
Q 37.796875 6.203125 41.984375 11.859375 
Q 46.1875 17.53125 46.1875 27.296875 
Q 46.1875 37.015625 41.984375 42.703125 
Q 37.796875 48.390625 30.609375 48.390625 
z
M 30.609375 56 
Q 42.328125 56 49.015625 48.375 
Q 55.71875 40.765625 55.71875 27.296875 
Q 55.71875 13.875 49.015625 6.21875 
Q 42.328125 -1.421875 30.609375 -1.421875 
Q 18.84375 -1.421875 12.171875 6.21875 
Q 5.515625 13.875 5.515625 27.296875 
Q 5.515625 40.765625 12.171875 48.375 
Q 18.84375 56 30.609375 56 
z
" id="DejaVuSans-111"/>
      <path d="M 45.40625 27.984375 
Q 45.40625 37.75 41.375 43.109375 
Q 37.359375 48.484375 30.078125 48.484375 
Q 22.859375 48.484375 18.828125 43.109375 
Q 14.796875 37.75 14.796875 27.984375 
Q 14.796875 18.265625 18.828125 12.890625 
Q 22.859375 7.515625 30.078125 7.515625 
Q 37.359375 7.515625 41.375 12.890625 
Q 45.40625 18.265625 45.40625 27.984375 
z
M 54.390625 6.78125 
Q 54.390625 -7.171875 48.1875 -13.984375 
Q 42 -20.796875 29.203125 -20.796875 
Q 24.46875 -20.796875 20.265625 -20.09375 
Q 16.0625 -19.390625 12.109375 -17.921875 
L 12.109375 -9.1875 
Q 16.0625 -11.328125 19.921875 -12.34375 
Q 23.78125 -13.375 27.78125 -13.375 
Q 36.625 -13.375 41.015625 -8.765625 
Q 45.40625 -4.15625 45.40625 5.171875 
L 45.40625 9.625 
Q 42.625 4.78125 38.28125 2.390625 
Q 33.9375 0 27.875 0 
Q 17.828125 0 11.671875 7.65625 
Q 5.515625 15.328125 5.515625 27.984375 
Q 5.515625 40.671875 11.671875 48.328125 
Q 17.828125 56 27.875 56 
Q 33.9375 56 38.28125 53.609375 
Q 42.625 51.21875 45.40625 46.390625 
L 45.40625 54.6875 
L 54.390625 54.6875 
z
" id="DejaVuSans-103"/>
      <path d="M 31.78125 66.40625 
Q 24.171875 66.40625 20.328125 58.90625 
Q 16.5 51.421875 16.5 36.375 
Q 16.5 21.390625 20.328125 13.890625 
Q 24.171875 6.390625 31.78125 6.390625 
Q 39.453125 6.390625 43.28125 13.890625 
Q 47.125 21.390625 47.125 36.375 
Q 47.125 51.421875 43.28125 58.90625 
Q 39.453125 66.40625 31.78125 66.40625 
z
M 31.78125 74.21875 
Q 44.046875 74.21875 50.515625 64.515625 
Q 56.984375 54.828125 56.984375 36.375 
Q 56.984375 17.96875 50.515625 8.265625 
Q 44.046875 -1.421875 31.78125 -1.421875 
Q 19.53125 -1.421875 13.0625 8.265625 
Q 6.59375 17.96875 6.59375 36.375 
Q 6.59375 54.828125 13.0625 64.515625 
Q 19.53125 74.21875 31.78125 74.21875 
z
" id="DejaVuSans-48"/>
      <path id="DejaVuSans-32"/>
      <path d="M 18.109375 8.203125 
L 18.109375 -20.796875 
L 9.078125 -20.796875 
L 9.078125 54.6875 
L 18.109375 54.6875 
L 18.109375 46.390625 
Q 20.953125 51.265625 25.265625 53.625 
Q 29.59375 56 35.59375 56 
Q 45.5625 56 51.78125 48.09375 
Q 58.015625 40.1875 58.015625 27.296875 
Q 58.015625 14.40625 51.78125 6.484375 
Q 45.5625 -1.421875 35.59375 -1.421875 
Q 29.59375 -1.421875 25.265625 0.953125 
Q 20.953125 3.328125 18.109375 8.203125 
z
M 48.6875 27.296875 
Q 48.6875 37.203125 44.609375 42.84375 
Q 40.53125 48.484375 33.40625 48.484375 
Q 26.265625 48.484375 22.1875 42.84375 
Q 18.109375 37.203125 18.109375 27.296875 
Q 18.109375 17.390625 22.1875 11.75 
Q 26.265625 6.109375 33.40625 6.109375 
Q 40.53125 6.109375 44.609375 11.75 
Q 48.6875 17.390625 48.6875 27.296875 
z
" id="DejaVuSans-112"/>
      <path d="M 2.984375 54.6875 
L 12.5 54.6875 
L 29.59375 8.796875 
L 46.6875 54.6875 
L 56.203125 54.6875 
L 35.6875 0 
L 23.484375 0 
z
" id="DejaVuSans-118"/>
      <path d="M 34.28125 27.484375 
Q 23.390625 27.484375 19.1875 25 
Q 14.984375 22.515625 14.984375 16.5 
Q 14.984375 11.71875 18.140625 8.90625 
Q 21.296875 6.109375 26.703125 6.109375 
Q 34.1875 6.109375 38.703125 11.40625 
Q 43.21875 16.703125 43.21875 25.484375 
L 43.21875 27.484375 
z
M 52.203125 31.203125 
L 52.203125 0 
L 43.21875 0 
L 43.21875 8.296875 
Q 40.140625 3.328125 35.546875 0.953125 
Q 30.953125 -1.421875 24.3125 -1.421875 
Q 15.921875 -1.421875 10.953125 3.296875 
Q 6 8.015625 6 15.921875 
Q 6 25.140625 12.171875 29.828125 
Q 18.359375 34.515625 30.609375 34.515625 
L 43.21875 34.515625 
L 43.21875 35.40625 
Q 43.21875 41.609375 39.140625 45 
Q 35.0625 48.390625 27.6875 48.390625 
Q 23 48.390625 18.546875 47.265625 
Q 14.109375 46.140625 10.015625 43.890625 
L 10.015625 52.203125 
Q 14.9375 54.109375 19.578125 55.046875 
Q 24.21875 56 28.609375 56 
Q 40.484375 56 46.34375 49.84375 
Q 52.203125 43.703125 52.203125 31.203125 
z
" id="DejaVuSans-97"/>
      <path d="M 8.5 21.578125 
L 8.5 54.6875 
L 17.484375 54.6875 
L 17.484375 21.921875 
Q 17.484375 14.15625 20.5 10.265625 
Q 23.53125 6.390625 29.59375 6.390625 
Q 36.859375 6.390625 41.078125 11.03125 
Q 45.3125 15.671875 45.3125 23.6875 
L 45.3125 54.6875 
L 54.296875 54.6875 
L 54.296875 0 
L 45.3125 0 
L 45.3125 8.40625 
Q 42.046875 3.421875 37.71875 1 
Q 33.40625 -1.421875 27.6875 -1.421875 
Q 18.265625 -1.421875 13.375 4.4375 
Q 8.5 10.296875 8.5 21.578125 
z
M 31.109375 56 
z
" id="DejaVuSans-117"/>
      <path d="M 56.203125 29.59375 
L 56.203125 25.203125 
L 14.890625 25.203125 
Q 15.484375 15.921875 20.484375 11.0625 
Q 25.484375 6.203125 34.421875 6.203125 
Q 39.59375 6.203125 44.453125 7.46875 
Q 49.3125 8.734375 54.109375 11.28125 
L 54.109375 2.78125 
Q 49.265625 0.734375 44.1875 -0.34375 
Q 39.109375 -1.421875 33.890625 -1.421875 
Q 20.796875 -1.421875 13.15625 6.1875 
Q 5.515625 13.8125 5.515625 26.8125 
Q 5.515625 40.234375 12.765625 48.109375 
Q 20.015625 56 32.328125 56 
Q 43.359375 56 49.78125 48.890625 
Q 56.203125 41.796875 56.203125 29.59375 
z
M 47.21875 32.234375 
Q 47.125 39.59375 43.09375 43.984375 
Q 39.0625 48.390625 32.421875 48.390625 
Q 24.90625 48.390625 20.390625 44.140625 
Q 15.875 39.890625 15.1875 32.171875 
z
" id="DejaVuSans-101"/>
     </defs>
     <g transform="translate(170.3075 350.512187)scale(0.28 -0.28)">
      <use xlink:href="#DejaVuSans-45"/>
      <use x="36.083984" xlink:href="#DejaVuSans-108"/>
      <use x="63.867188" xlink:href="#DejaVuSans-111"/>
      <use x="125.048828" xlink:href="#DejaVuSans-103"/>
      <use x="188.525391" xlink:href="#DejaVuSans-49"/>
      <use x="252.148438" xlink:href="#DejaVuSans-48"/>
      <use x="315.771484" xlink:href="#DejaVuSans-32"/>
      <use x="347.558594" xlink:href="#DejaVuSans-112"/>
      <use x="411.035156" xlink:href="#DejaVuSans-45"/>
      <use x="447.087891" xlink:href="#DejaVuSans-118"/>
      <use x="506.267578" xlink:href="#DejaVuSans-97"/>
      <use x="567.546875" xlink:href="#DejaVuSans-108"/>
      <use x="595.330078" xlink:href="#DejaVuSans-117"/>
      <use x="658.708984" xlink:href="#DejaVuSans-101"/>
     </g>
    </g>
   </g>
   <g id="matplotlib.axis_2">
    <g id="ytick_1">
     <g id="line2d_6">
      <defs>
       <path d="M 0 0 
L -5 0 
" id="m7400602599" style="stroke:#000000;stroke-width:0.8;"/>
      </defs>
      <g>
       <use style="stroke:#000000;stroke-width:0.8;" x="109.1425" xlink:href="#m7400602599" y="289.637812"/>
      </g>
     </g>
     <g id="text_7">
      <!-- 0.00 -->
      <defs>
       <path d="M 10.6875 12.40625 
L 21 12.40625 
L 21 0 
L 10.6875 0 
z
" id="DejaVuSans-46"/>
      </defs>
      <g transform="translate(38.29875 300.275625)scale(0.28 -0.28)">
       <use xlink:href="#DejaVuSans-48"/>
       <use x="63.623047" xlink:href="#DejaVuSans-46"/>
       <use x="95.410156" xlink:href="#DejaVuSans-48"/>
       <use x="159.033203" xlink:href="#DejaVuSans-48"/>
      </g>
     </g>
    </g>
    <g id="ytick_2">
     <g id="line2d_7">
      <g>
       <use style="stroke:#000000;stroke-width:0.8;" x="109.1425" xlink:href="#m7400602599" y="221.687813"/>
      </g>
     </g>
     <g id="text_8">
      <!-- 0.25 -->
      <g transform="translate(38.29875 232.325625)scale(0.28 -0.28)">
       <use xlink:href="#DejaVuSans-48"/>
       <use x="63.623047" xlink:href="#DejaVuSans-46"/>
       <use x="95.410156" xlink:href="#DejaVuSans-50"/>
       <use x="159.033203" xlink:href="#DejaVuSans-53"/>
      </g>
     </g>
    </g>
    <g id="ytick_3">
     <g id="line2d_8">
      <g>
       <use style="stroke:#000000;stroke-width:0.8;" x="109.1425" xlink:href="#m7400602599" y="153.737813"/>
      </g>
     </g>
     <g id="text_9">
      <!-- 0.50 -->
      <g transform="translate(38.29875 164.375625)scale(0.28 -0.28)">
       <use xlink:href="#DejaVuSans-48"/>
       <use x="63.623047" xlink:href="#DejaVuSans-46"/>
       <use x="95.410156" xlink:href="#DejaVuSans-53"/>
       <use x="159.033203" xlink:href="#DejaVuSans-48"/>
      </g>
     </g>
    </g>
    <g id="ytick_4">
     <g id="line2d_9">
      <g>
       <use style="stroke:#000000;stroke-width:0.8;" x="109.1425" xlink:href="#m7400602599" y="85.787813"/>
      </g>
     </g>
     <g id="text_10">
      <!-- 0.75 -->
      <defs>
       <path d="M 8.203125 72.90625 
L 55.078125 72.90625 
L 55.078125 68.703125 
L 28.609375 0 
L 18.3125 0 
L 43.21875 64.59375 
L 8.203125 64.59375 
z
" id="DejaVuSans-55"/>
      </defs>
      <g transform="translate(38.29875 96.425625)scale(0.28 -0.28)">
       <use xlink:href="#DejaVuSans-48"/>
       <use x="63.623047" xlink:href="#DejaVuSans-46"/>
       <use x="95.410156" xlink:href="#DejaVuSans-55"/>
       <use x="159.033203" xlink:href="#DejaVuSans-53"/>
      </g>
     </g>
    </g>
    <g id="ytick_5">
     <g id="line2d_10">
      <g>
       <use style="stroke:#000000;stroke-width:0.8;" x="109.1425" xlink:href="#m7400602599" y="17.837813"/>
      </g>
     </g>
     <g id="text_11">
      <!-- 1.00 -->
      <g transform="translate(38.29875 28.475625)scale(0.28 -0.28)">
       <use xlink:href="#DejaVuSans-49"/>
       <use x="63.623047" xlink:href="#DejaVuSans-46"/>
       <use x="95.410156" xlink:href="#DejaVuSans-48"/>
       <use x="159.033203" xlink:href="#DejaVuSans-48"/>
      </g>
     </g>
    </g>
    <g id="text_12">
     <!-- Recall -->
     <defs>
      <path d="M 44.390625 34.1875 
Q 47.5625 33.109375 50.5625 29.59375 
Q 53.5625 26.078125 56.59375 19.921875 
L 66.609375 0 
L 56 0 
L 46.6875 18.703125 
Q 43.0625 26.03125 39.671875 28.421875 
Q 36.28125 30.8125 30.421875 30.8125 
L 19.671875 30.8125 
L 19.671875 0 
L 9.8125 0 
L 9.8125 72.90625 
L 32.078125 72.90625 
Q 44.578125 72.90625 50.734375 67.671875 
Q 56.890625 62.453125 56.890625 51.90625 
Q 56.890625 45.015625 53.6875 40.46875 
Q 50.484375 35.9375 44.390625 34.1875 
z
M 19.671875 64.796875 
L 19.671875 38.921875 
L 32.078125 38.921875 
Q 39.203125 38.921875 42.84375 42.21875 
Q 46.484375 45.515625 46.484375 51.90625 
Q 46.484375 58.296875 42.84375 61.546875 
Q 39.203125 64.796875 32.078125 64.796875 
z
" id="DejaVuSans-82"/>
      <path d="M 48.78125 52.59375 
L 48.78125 44.1875 
Q 44.96875 46.296875 41.140625 47.34375 
Q 37.3125 48.390625 33.40625 48.390625 
Q 24.65625 48.390625 19.8125 42.84375 
Q 14.984375 37.3125 14.984375 27.296875 
Q 14.984375 17.28125 19.8125 11.734375 
Q 24.65625 6.203125 33.40625 6.203125 
Q 37.3125 6.203125 41.140625 7.25 
Q 44.96875 8.296875 48.78125 10.40625 
L 48.78125 2.09375 
Q 45.015625 0.34375 40.984375 -0.53125 
Q 36.96875 -1.421875 32.421875 -1.421875 
Q 20.0625 -1.421875 12.78125 6.34375 
Q 5.515625 14.109375 5.515625 27.296875 
Q 5.515625 40.671875 12.859375 48.328125 
Q 20.21875 56 33.015625 56 
Q 37.15625 56 41.109375 55.140625 
Q 45.0625 54.296875 48.78125 52.59375 
z
" id="DejaVuSans-99"/>
     </defs>
     <g transform="translate(28.475625 196.127187)rotate(-90)scale(0.28 -0.28)">
      <use xlink:href="#DejaVuSans-82"/>
      <use x="69.419922" xlink:href="#DejaVuSans-101"/>
      <use x="130.943359" xlink:href="#DejaVuSans-99"/>
      <use x="185.923828" xlink:href="#DejaVuSans-97"/>
      <use x="247.203125" xlink:href="#DejaVuSans-108"/>
      <use x="274.986328" xlink:href="#DejaVuSans-108"/>
     </g>
    </g>
   </g>
   <g id="line2d_11">
    <path clip-path="url(#pcc76cdaa99)" d="M 123.869773 262.866193 
L 127.551591 262.504594 
L 131.233409 261.686749 
L 134.915227 261.520571 
L 138.597045 261.240798 
L 142.278864 260.140138 
L 145.960682 259.679897 
L 149.6425 258.878553 
L 153.324318 258.607791 
L 157.006136 257.837812 
L 160.687955 257.482902 
L 164.369773 256.67351 
L 168.051591 255.980336 
L 171.733409 255.498682 
L 175.415227 254.740035 
L 179.097045 254.633267 
L 182.778864 254.276078 
L 186.460682 253.726414 
L 190.1425 253.159391 
L 193.824318 252.27447 
L 197.506136 252.506665 
L 201.187955 251.992383 
L 204.869773 251.463655 
L 208.551591 250.360356 
L 212.233409 249.90097 
L 215.915227 249.430712 
L 219.597045 249.033544 
L 223.278864 248.532257 
L 226.960682 248.018438 
L 230.6425 247.223163 
L 234.324318 246.536842 
L 238.006136 245.683357 
L 241.687955 245.71054 
L 245.369773 244.95836 
L 249.051591 245.281563 
L 252.733409 243.686014 
L 256.415227 242.844406 
L 260.097045 242.810846 
L 263.778864 242.098649 
L 267.460682 241.55012 
L 271.1425 241.484269 
L 274.824318 242.320404 
L 278.506136 241.738632 
L 282.187955 241.142377 
L 285.869773 241.470724 
L 289.551591 241.470724 
L 293.233409 242.014736 
L 296.915227 241.810345 
L 300.597045 241.396254 
L 304.278864 243.145707 
L 307.960682 242.103283 
L 311.6425 241.455085 
L 315.324318 241.013042 
L 319.006136 240.788965 
L 322.687955 239.399898 
L 326.369773 240.219631 
L 330.051591 239.604977 
L 333.733409 239.604977 
L 337.415227 239.102134 
L 341.097045 238.589082 
L 344.778864 238.328629 
L 348.460682 238.328629 
L 352.1425 237.799668 
L 355.824318 237.259687 
L 359.506136 237.259687 
L 363.187955 236.145259 
L 366.869773 236.747002 
L 370.551591 236.747002 
L 374.233409 235.875175 
L 377.915227 235.875175 
L 381.597045 235.578144 
L 385.278864 235.277813 
L 388.960682 234.356457 
L 392.6425 234.042358 
L 396.324318 233.078275 
L 400.006136 234.329673 
L 403.687955 234.006234 
L 407.369773 235.277813 
L 411.051591 236.248527 
L 414.733409 235.92883 
L 418.415227 236.603666 
" style="fill:none;stroke:#8b0000;stroke-linecap:square;stroke-width:2;"/>
   </g>
   <g id="line2d_12">
    <path clip-path="url(#pcc76cdaa99)" d="M 123.869773 212.499248 
L 127.551591 211.512856 
L 131.233409 210.121855 
L 134.915227 209.232368 
L 138.597045 209.517663 
L 142.278864 206.412231 
L 145.960682 204.666269 
L 149.6425 202.393368 
L 153.324318 201.144789 
L 157.006136 198.437813 
L 160.687955 198.026652 
L 164.369773 195.72065 
L 168.051591 195.650897 
L 171.733409 194.44216 
L 175.415227 193.668924 
L 179.097045 192.174176 
L 182.778864 191.873017 
L 186.460682 191.057502 
L 190.1425 190.216234 
L 193.824318 188.537004 
L 197.506136 187.898468 
L 201.187955 186.489336 
L 204.869773 186.567588 
L 208.551591 183.58868 
L 212.233409 182.348339 
L 215.915227 181.882783 
L 219.597045 180.254886 
L 223.278864 179.743368 
L 226.960682 179.219063 
L 230.6425 179.705965 
L 234.324318 177.927133 
L 238.006136 176.61207 
L 241.687955 177.074176 
L 245.369773 176.077539 
L 249.051591 175.444063 
L 252.733409 173.291769 
L 256.415227 172.156494 
L 260.097045 173.588374 
L 263.778864 173.890284 
L 267.460682 174.645505 
L 271.1425 175.139387 
L 274.824318 177.396517 
L 278.506136 176.016501 
L 282.187955 175.729929 
L 285.869773 174.954268 
L 289.551591 174.954268 
L 293.233409 175.807043 
L 296.915227 175.318499 
L 300.597045 175.505345 
L 304.278864 176.387812 
L 307.960682 176.286243 
L 311.6425 175.975994 
L 315.324318 174.933225 
L 319.006136 174.404633 
L 322.687955 171.12786 
L 326.369773 171.294272 
L 330.051591 174.697514 
L 333.733409 174.697514 
L 337.415227 173.542335 
L 341.097045 173.743396 
L 344.778864 173.152098 
L 348.460682 173.152098 
L 352.1425 173.352245 
L 355.824318 172.140938 
L 359.506136 172.140938 
L 363.187955 169.641004 
L 366.869773 169.164299 
L 370.551591 169.164299 
L 374.233409 168.671878 
L 377.915227 168.671878 
L 381.597045 168.003558 
L 385.278864 168.837813 
L 388.960682 168.325948 
L 392.6425 169.180994 
L 396.324318 170.234344 
L 400.006136 171.120371 
L 403.687955 170.427286 
L 407.369773 171.324871 
L 411.051591 173.152098 
L 414.733409 172.454579 
L 418.415227 173.625617 
" style="fill:none;stroke:#000080;stroke-linecap:square;stroke-width:2;"/>
   </g>
   <g id="patch_3">
    <path d="M 109.1425 289.637812 
L 109.1425 17.837813 
" style="fill:none;stroke:#000000;stroke-linecap:square;stroke-linejoin:miter;"/>
   </g>
   <g id="patch_4">
    <path d="M 109.1425 289.637812 
L 433.1425 289.637812 
" style="fill:none;stroke:#000000;stroke-linecap:square;stroke-linejoin:miter;"/>
   </g>
  </g>
  <g id="axes_2">
   <g id="patch_5">
    <path d="M 449.3425 289.637812 
L 773.3425 289.637812 
L 773.3425 17.837813 
L 449.3425 17.837813 
z
" style="fill:none;"/>
   </g>
   <g id="matplotlib.axis_3">
    <g id="xtick_6">
     <g id="line2d_13">
      <g>
       <use style="stroke:#000000;stroke-width:0.8;" x="464.069773" xlink:href="#m7963a7559b" y="289.637812"/>
      </g>
     </g>
     <g id="text_13">
      <!-- 1 -->
      <g transform="translate(455.162273 319.413437)scale(0.28 -0.28)">
       <use xlink:href="#DejaVuSans-49"/>
      </g>
     </g>
    </g>
    <g id="xtick_7">
     <g id="line2d_14">
      <g>
       <use style="stroke:#000000;stroke-width:0.8;" x="537.706136" xlink:href="#m7963a7559b" y="289.637812"/>
      </g>
     </g>
     <g id="text_14">
      <!-- 2 -->
      <g transform="translate(528.798636 319.413437)scale(0.28 -0.28)">
       <use xlink:href="#DejaVuSans-50"/>
      </g>
     </g>
    </g>
    <g id="xtick_8">
     <g id="line2d_15">
      <g>
       <use style="stroke:#000000;stroke-width:0.8;" x="611.3425" xlink:href="#m7963a7559b" y="289.637812"/>
      </g>
     </g>
     <g id="text_15">
      <!-- 3 -->
      <g transform="translate(602.435 319.413437)scale(0.28 -0.28)">
       <use xlink:href="#DejaVuSans-51"/>
      </g>
     </g>
    </g>
    <g id="xtick_9">
     <g id="line2d_16">
      <g>
       <use style="stroke:#000000;stroke-width:0.8;" x="684.978864" xlink:href="#m7963a7559b" y="289.637812"/>
      </g>
     </g>
     <g id="text_16">
      <!-- 4 -->
      <g transform="translate(676.071364 319.413437)scale(0.28 -0.28)">
       <use xlink:href="#DejaVuSans-52"/>
      </g>
     </g>
    </g>
    <g id="xtick_10">
     <g id="line2d_17">
      <g>
       <use style="stroke:#000000;stroke-width:0.8;" x="758.615227" xlink:href="#m7963a7559b" y="289.637812"/>
      </g>
     </g>
     <g id="text_17">
      <!-- 5 -->
      <g transform="translate(749.707727 319.413437)scale(0.28 -0.28)">
       <use xlink:href="#DejaVuSans-53"/>
      </g>
     </g>
    </g>
    <g id="text_18">
     <!-- -log10 p-value -->
     <g transform="translate(510.5075 350.512187)scale(0.28 -0.28)">
      <use xlink:href="#DejaVuSans-45"/>
      <use x="36.083984" xlink:href="#DejaVuSans-108"/>
      <use x="63.867188" xlink:href="#DejaVuSans-111"/>
      <use x="125.048828" xlink:href="#DejaVuSans-103"/>
      <use x="188.525391" xlink:href="#DejaVuSans-49"/>
      <use x="252.148438" xlink:href="#DejaVuSans-48"/>
      <use x="315.771484" xlink:href="#DejaVuSans-32"/>
      <use x="347.558594" xlink:href="#DejaVuSans-112"/>
      <use x="411.035156" xlink:href="#DejaVuSans-45"/>
      <use x="447.087891" xlink:href="#DejaVuSans-118"/>
      <use x="506.267578" xlink:href="#DejaVuSans-97"/>
      <use x="567.546875" xlink:href="#DejaVuSans-108"/>
      <use x="595.330078" xlink:href="#DejaVuSans-117"/>
      <use x="658.708984" xlink:href="#DejaVuSans-101"/>
     </g>
    </g>
   </g>
   <g id="matplotlib.axis_4">
    <g id="ytick_6"/>
    <g id="ytick_7"/>
    <g id="ytick_8"/>
    <g id="ytick_9"/>
    <g id="ytick_10"/>
   </g>
   <g id="line2d_18">
    <path clip-path="url(#pfd6e901366)" d="M 464.069773 134.845884 
L 467.751591 137.324769 
L 471.433409 131.550057 
L 475.115227 129.418865 
L 478.797045 124.775517 
L 482.478864 124.058502 
L 486.160682 122.248788 
L 489.8425 122.376274 
L 493.524318 118.166672 
L 497.206136 117.875313 
L 500.887955 112.464479 
L 504.569773 110.496903 
L 508.251591 111.337013 
L 511.933409 112.181614 
L 515.615227 114.909241 
L 519.297045 115.275548 
L 522.978864 117.149351 
L 526.660682 116.43193 
L 530.3425 113.928722 
L 534.024318 113.256961 
L 537.706136 110.496903 
L 541.387955 107.332934 
L 545.069773 109.570313 
L 548.751591 113.144306 
L 552.433409 114.398339 
L 556.115227 115.685813 
L 559.797045 115.987813 
L 563.478864 111.026384 
L 567.160682 103.028857 
L 570.8425 104.319631 
L 574.524318 105.65012 
L 578.206136 102.775313 
L 581.887955 104.123527 
L 585.569773 104.123527 
L 589.251591 106.952567 
L 592.933409 108.437813 
L 596.615227 102.189537 
L 600.297045 103.404479 
L 603.978864 93.941813 
L 607.660682 95.494955 
L 611.3425 98.799515 
L 615.024318 98.799515 
L 618.706136 98.799515 
L 622.387955 94.650856 
L 626.069773 90.317813 
L 629.751591 90.317813 
L 633.433409 85.787813 
L 637.115227 85.787813 
L 640.797045 81.047115 
L 644.478864 85.787813 
L 648.160682 87.53012 
L 651.8425 91.297272 
L 655.524318 85.787813 
L 659.206136 87.729241 
L 662.887955 87.729241 
L 666.569773 91.965085 
L 670.251591 91.965085 
L 673.933409 94.281563 
L 677.615227 96.74749 
L 681.297045 99.377813 
L 684.978864 99.377813 
L 688.660682 99.377813 
L 692.3425 99.377813 
L 696.024318 102.189537 
L 699.706136 102.189537 
L 703.387955 102.189537 
L 707.069773 88.304479 
L 710.751591 88.304479 
L 714.433409 88.304479 
L 718.115227 88.304479 
L 721.797045 91.014736 
L 725.478864 91.014736 
L 729.160682 91.014736 
L 732.8425 91.014736 
L 736.524318 91.014736 
L 740.206136 91.014736 
L 743.887955 91.014736 
L 747.569773 93.941813 
L 751.251591 93.941813 
L 754.933409 93.941813 
L 758.615227 93.941813 
" style="fill:none;stroke:#8b0000;stroke-linecap:square;stroke-width:2;"/>
   </g>
   <g id="line2d_19">
    <path clip-path="url(#pfd6e901366)" d="M 464.069773 228.696108 
L 467.751591 230.550856 
L 471.433409 227.234751 
L 475.115227 226.694655 
L 478.797045 224.286993 
L 482.478864 224.030916 
L 486.160682 223.34513 
L 489.8425 221.687813 
L 493.524318 222.143853 
L 497.206136 223.575312 
L 500.887955 219.171146 
L 504.569773 219.628722 
L 508.251591 217.882612 
L 511.933409 217.756821 
L 515.615227 214.407455 
L 519.297045 210.149133 
L 522.978864 208.620505 
L 526.660682 207.03193 
L 530.3425 207.274176 
L 534.024318 202.893132 
L 537.706136 200.067358 
L 541.387955 193.513422 
L 545.069773 194.507812 
L 548.751591 201.391059 
L 552.433409 200.229918 
L 556.115227 199.037813 
L 559.797045 199.037813 
L 563.478864 196.449241 
L 567.160682 192.276618 
L 570.8425 194.919631 
L 574.524318 197.643966 
L 578.206136 196.206563 
L 581.887955 194.723527 
L 585.569773 194.723527 
L 589.251591 191.611583 
L 592.933409 194.507812 
L 596.615227 191.227468 
L 600.297045 199.037813 
L 603.978864 191.789813 
L 607.660682 195.339853 
L 611.3425 202.893132 
L 615.024318 202.893132 
L 618.706136 202.893132 
L 622.387955 201.007378 
L 626.069773 199.037813 
L 629.751591 199.037813 
L 633.433409 196.978722 
L 637.115227 196.978722 
L 640.797045 194.823859 
L 644.478864 194.507812 
L 648.160682 192.068582 
L 651.8425 186.794569 
L 655.524318 183.937813 
L 659.206136 180.917813 
L 662.887955 180.917813 
L 666.569773 182.565085 
L 670.251591 182.565085 
L 673.933409 179.219063 
L 677.615227 184.424909 
L 681.297045 189.977813 
L 684.978864 189.977813 
L 688.660682 189.977813 
L 692.3425 189.977813 
L 696.024318 186.541261 
L 699.706136 186.541261 
L 703.387955 186.541261 
L 707.069773 178.904479 
L 710.751591 178.904479 
L 714.433409 178.904479 
L 718.115227 178.904479 
L 721.797045 185.099351 
L 725.478864 185.099351 
L 729.160682 185.099351 
L 732.8425 185.099351 
L 736.524318 185.099351 
L 740.206136 185.099351 
L 743.887955 185.099351 
L 747.569773 191.789813 
L 751.251591 191.789813 
L 754.933409 191.789813 
L 758.615227 191.789813 
" style="fill:none;stroke:#000080;stroke-linecap:square;stroke-width:2;"/>
   </g>
   <g id="patch_6">
    <path d="M 449.3425 289.637812 
L 449.3425 17.837813 
" style="fill:none;stroke:#000000;stroke-linecap:square;stroke-linejoin:miter;"/>
   </g>
   <g id="patch_7">
    <path d="M 449.3425 289.637812 
L 773.3425 289.637812 
" style="fill:none;stroke:#000000;stroke-linecap:square;stroke-linejoin:miter;"/>
   </g>
  </g>
  <g id="axes_3">
   <g id="patch_8">
    <path d="M 789.5425 289.637812 
L 1113.5425 289.637812 
L 1113.5425 17.837813 
L 789.5425 17.837813 
z
" style="fill:none;"/>
   </g>
   <g id="matplotlib.axis_5">
    <g id="xtick_11">
     <g id="line2d_20">
      <g>
       <use style="stroke:#000000;stroke-width:0.8;" x="804.269773" xlink:href="#m7963a7559b" y="289.637812"/>
      </g>
     </g>
     <g id="text_19">
      <!-- 1 -->
      <g transform="translate(795.362273 319.413437)scale(0.28 -0.28)">
       <use xlink:href="#DejaVuSans-49"/>
      </g>
     </g>
    </g>
    <g id="xtick_12">
     <g id="line2d_21">
      <g>
       <use style="stroke:#000000;stroke-width:0.8;" x="877.906136" xlink:href="#m7963a7559b" y="289.637812"/>
      </g>
     </g>
     <g id="text_20">
      <!-- 2 -->
      <g transform="translate(868.998636 319.413437)scale(0.28 -0.28)">
       <use xlink:href="#DejaVuSans-50"/>
      </g>
     </g>
    </g>
    <g id="xtick_13">
     <g id="line2d_22">
      <g>
       <use style="stroke:#000000;stroke-width:0.8;" x="951.5425" xlink:href="#m7963a7559b" y="289.637812"/>
      </g>
     </g>
     <g id="text_21">
      <!-- 3 -->
      <g transform="translate(942.635 319.413437)scale(0.28 -0.28)">
       <use xlink:href="#DejaVuSans-51"/>
      </g>
     </g>
    </g>
    <g id="xtick_14">
     <g id="line2d_23">
      <g>
       <use style="stroke:#000000;stroke-width:0.8;" x="1025.178864" xlink:href="#m7963a7559b" y="289.637812"/>
      </g>
     </g>
     <g id="text_22">
      <!-- 4 -->
      <g transform="translate(1016.271364 319.413437)scale(0.28 -0.28)">
       <use xlink:href="#DejaVuSans-52"/>
      </g>
     </g>
    </g>
    <g id="xtick_15">
     <g id="line2d_24">
      <g>
       <use style="stroke:#000000;stroke-width:0.8;" x="1098.815227" xlink:href="#m7963a7559b" y="289.637812"/>
      </g>
     </g>
     <g id="text_23">
      <!-- 5 -->
      <g transform="translate(1089.907727 319.413437)scale(0.28 -0.28)">
       <use xlink:href="#DejaVuSans-53"/>
      </g>
     </g>
    </g>
    <g id="text_24">
     <!-- -log10 p-value -->
     <g transform="translate(850.7075 350.512187)scale(0.28 -0.28)">
      <use xlink:href="#DejaVuSans-45"/>
      <use x="36.083984" xlink:href="#DejaVuSans-108"/>
      <use x="63.867188" xlink:href="#DejaVuSans-111"/>
      <use x="125.048828" xlink:href="#DejaVuSans-103"/>
      <use x="188.525391" xlink:href="#DejaVuSans-49"/>
      <use x="252.148438" xlink:href="#DejaVuSans-48"/>
      <use x="315.771484" xlink:href="#DejaVuSans-32"/>
      <use x="347.558594" xlink:href="#DejaVuSans-112"/>
      <use x="411.035156" xlink:href="#DejaVuSans-45"/>
      <use x="447.087891" xlink:href="#DejaVuSans-118"/>
      <use x="506.267578" xlink:href="#DejaVuSans-97"/>
      <use x="567.546875" xlink:href="#DejaVuSans-108"/>
      <use x="595.330078" xlink:href="#DejaVuSans-117"/>
      <use x="658.708984" xlink:href="#DejaVuSans-101"/>
     </g>
    </g>
   </g>
   <g id="matplotlib.axis_6">
    <g id="ytick_11"/>
    <g id="ytick_12"/>
    <g id="ytick_13"/>
    <g id="ytick_14"/>
    <g id="ytick_15"/>
   </g>
   <g id="line2d_25">
    <path clip-path="url(#p4997539b7a)" d="M 804.269773 26.200889 
L 807.951591 26.200889 
L 811.633409 26.298513 
L 815.315227 25.448213 
L 818.997045 25.571959 
L 822.678864 25.635353 
L 826.360682 25.83193 
L 830.0425 24.897553 
L 833.724318 24.95921 
L 837.406136 25.085813 
L 841.087955 25.150817 
L 844.769773 25.25054 
L 848.451591 25.422929 
L 852.133409 24.340205 
L 855.815227 24.40303 
L 859.497045 24.467081 
L 863.178864 24.499577 
L 866.860682 24.599007 
L 870.5425 24.807043 
L 874.224318 24.915938 
L 877.906136 23.590193 
L 881.587955 23.714569 
L 885.269773 23.844442 
L 888.951591 23.945678 
L 892.633409 24.015085 
L 896.315227 24.122206 
L 899.997045 24.309241 
L 903.678864 24.38721 
L 907.360682 22.902409 
L 911.0425 22.998572 
L 914.724318 23.031443 
L 918.406136 23.031443 
L 922.087955 23.098458 
L 925.769773 23.167224 
L 929.451591 21.486135 
L 933.133409 21.535772 
L 936.815227 21.5611 
L 940.497045 21.693132 
L 944.178864 19.836342 
L 947.860682 19.851146 
L 951.5425 19.866171 
L 955.224318 19.881422 
L 958.906136 19.896903 
L 962.587955 19.944789 
L 966.269773 19.944789 
L 969.951591 19.944789 
L 973.633409 20.012213 
L 977.315227 20.065681 
L 980.997045 20.121846 
L 984.678864 20.160889 
L 988.360682 20.222023 
L 992.0425 20.243122 
L 995.724318 20.264598 
L 999.406136 20.33139 
L 1003.087955 20.377999 
L 1006.769773 20.401963 
L 1010.451591 20.502518 
L 1014.133409 20.555813 
L 1017.815227 20.555813 
L 1021.497045 20.611282 
L 1025.178864 20.669063 
L 1028.860682 20.698865 
L 1032.5425 20.698865 
L 1036.224318 20.698865 
L 1039.906136 20.729302 
L 1043.587955 20.729302 
L 1047.269773 20.857813 
L 1050.951591 20.891745 
L 1054.633409 20.96195 
L 1058.315227 21.03546 
L 1061.997045 21.03546 
L 1065.678864 21.073527 
L 1069.360682 21.112511 
L 1073.0425 21.112511 
L 1076.724318 21.112511 
L 1080.406136 21.112511 
L 1084.087955 21.278319 
L 1087.769773 21.322428 
L 1091.451591 21.322428 
L 1095.133409 21.367683 
L 1098.815227 21.414128 
" style="fill:none;stroke:#8b0000;stroke-linecap:square;stroke-width:2;"/>
   </g>
   <g id="line2d_26">
    <path clip-path="url(#p4997539b7a)" d="M 804.269773 204.961659 
L 807.951591 204.961659 
L 811.633409 205.030809 
L 815.315227 202.661812 
L 818.997045 201.247569 
L 822.678864 201.636993 
L 826.360682 200.560502 
L 830.0425 199.037813 
L 833.724318 198.246546 
L 837.406136 199.037813 
L 841.087955 198.225256 
L 844.769773 199.449631 
L 848.451591 198.616417 
L 852.133409 197.303841 
L 855.815227 196.411726 
L 859.497045 195.502203 
L 863.178864 195.040754 
L 866.860682 194.981096 
L 870.5425 193.462428 
L 874.224318 191.959688 
L 877.906136 191.847336 
L 881.587955 192.671326 
L 885.269773 190.52842 
L 888.951591 188.858037 
L 892.633409 190.801449 
L 896.315227 189.087523 
L 899.997045 186.094955 
L 903.678864 184.847451 
L 907.360682 183.281291 
L 911.0425 182.982116 
L 914.724318 184.033991 
L 918.406136 184.033991 
L 922.087955 184.424909 
L 925.769773 183.049577 
L 929.451591 180.188148 
L 933.133409 178.699037 
L 936.815227 177.939182 
L 940.497045 175.905898 
L 944.178864 171.724577 
L 947.860682 170.851146 
L 951.5425 169.964678 
L 955.224318 171.108489 
L 958.906136 172.269631 
L 962.587955 173.754092 
L 966.269773 173.754092 
L 969.951591 173.754092 
L 973.633409 170.045813 
L 977.315227 167.105026 
L 980.997045 164.015964 
L 984.678864 164.191659 
L 988.360682 160.890444 
L 992.0425 159.751087 
L 995.724318 161.01817 
L 999.406136 162.465335 
L 1003.087955 162.628467 
L 1006.769773 161.430265 
L 1010.451591 161.73193 
L 1014.133409 161.891813 
L 1017.815227 161.891813 
L 1021.497045 162.058221 
L 1025.178864 165.062813 
L 1028.860682 163.751497 
L 1032.5425 163.751497 
L 1036.224318 163.751497 
L 1039.906136 162.412281 
L 1043.587955 162.412281 
L 1047.269773 162.797813 
L 1050.951591 161.372644 
L 1054.633409 158.424019 
L 1058.315227 155.336636 
L 1061.997045 155.336636 
L 1065.678864 153.737813 
L 1069.360682 152.100463 
L 1073.0425 152.100463 
L 1076.724318 152.100463 
L 1080.406136 152.100463 
L 1084.087955 155.458066 
L 1087.769773 153.737813 
L 1091.451591 153.737813 
L 1095.133409 151.972877 
L 1098.815227 153.737813 
" style="fill:none;stroke:#000080;stroke-linecap:square;stroke-width:2;"/>
   </g>
   <g id="patch_9">
    <path d="M 789.5425 289.637812 
L 789.5425 17.837813 
" style="fill:none;stroke:#000000;stroke-linecap:square;stroke-linejoin:miter;"/>
   </g>
   <g id="patch_10">
    <path d="M 789.5425 289.637812 
L 1113.5425 289.637812 
" style="fill:none;stroke:#000000;stroke-linecap:square;stroke-linejoin:miter;"/>
   </g>
  </g>
 </g>
 <defs>
  <clipPath id="pcc76cdaa99">
   <rect height="271.8" width="324" x="109.1425" y="17.837812"/>
  </clipPath>
  <clipPath id="pfd6e901366">
   <rect height="271.8" width="324" x="449.3425" y="17.837812"/>
  </clipPath>
  <clipPath id="p4997539b7a">
   <rect height="271.8" width="324" x="789.5425" y="17.837812"/>
  </clipPath>
 </defs>
</svg>
