<?xml version="1.0" encoding="utf-8" standalone="no"?>
<!DOCTYPE svg PUBLIC "-//W3C//DTD SVG 1.1//EN"
  "http://www.w3.org/Graphics/SVG/1.1/DTD/svg11.dtd">
<!-- Created with matplotlib (https://matplotlib.org/) -->
<svg height="363.535312pt" version="1.1" viewBox="0 0 1120.7425 363.535312" width="1120.7425pt" xmlns="http://www.w3.org/2000/svg" xmlns:xlink="http://www.w3.org/1999/xlink">
 <defs>
  <style type="text/css">
*{stroke-linecap:butt;stroke-linejoin:round;}
  </style>
 </defs>
 <g id="figure_1">
  <g id="patch_1">
   <path d="M 0 363.535312 
L 1120.7425 363.535312 
L 1120.7425 -0 
L 0 -0 
z
" style="fill:none;"/>
  </g>
  <g id="axes_1">
   <g id="patch_2">
    <path d="M 109.1425 289.637812 
L 433.1425 289.637812 
L 433.1425 17.837813 
L 109.1425 17.837813 
z
" style="fill:none;"/>
   </g>
   <g id="matplotlib.axis_1">
    <g id="xtick_1">
     <g id="line2d_1">
      <defs>
       <path d="M 0 0 
L 0 5 
" id="m165fc135a5" style="stroke:#000000;stroke-width:0.8;"/>
      </defs>
      <g>
       <use style="stroke:#000000;stroke-width:0.8;" x="123.869773" xlink:href="#m165fc135a5" y="289.637812"/>
      </g>
     </g>
     <g id="text_1">
      <!-- 1 -->
      <defs>
       <path d="M 12.40625 8.296875 
L 28.515625 8.296875 
L 28.515625 63.921875 
L 10.984375 60.40625 
L 10.984375 69.390625 
L 28.421875 72.90625 
L 38.28125 72.90625 
L 38.28125 8.296875 
L 54.390625 8.296875 
L 54.390625 0 
L 12.40625 0 
z
" id="DejaVuSans-49"/>
      </defs>
      <g transform="translate(114.962273 319.413437)scale(0.28 -0.28)">
       <use xlink:href="#DejaVuSans-49"/>
      </g>
     </g>
    </g>
    <g id="xtick_2">
     <g id="line2d_2">
      <g>
       <use style="stroke:#000000;stroke-width:0.8;" x="222.051591" xlink:href="#m165fc135a5" y="289.637812"/>
      </g>
     </g>
     <g id="text_2">
      <!-- 2 -->
      <defs>
       <path d="M 19.1875 8.296875 
L 53.609375 8.296875 
L 53.609375 0 
L 7.328125 0 
L 7.328125 8.296875 
Q 12.9375 14.109375 22.625 23.890625 
Q 32.328125 33.6875 34.8125 36.53125 
Q 39.546875 41.84375 41.421875 45.53125 
Q 43.3125 49.21875 43.3125 52.78125 
Q 43.3125 58.59375 39.234375 62.25 
Q 35.15625 65.921875 28.609375 65.921875 
Q 23.96875 65.921875 18.8125 64.3125 
Q 13.671875 62.703125 7.8125 59.421875 
L 7.8125 69.390625 
Q 13.765625 71.78125 18.9375 73 
Q 24.125 74.21875 28.421875 74.21875 
Q 39.75 74.21875 46.484375 68.546875 
Q 53.21875 62.890625 53.21875 53.421875 
Q 53.21875 48.921875 51.53125 44.890625 
Q 49.859375 40.875 45.40625 35.40625 
Q 44.1875 33.984375 37.640625 27.21875 
Q 31.109375 20.453125 19.1875 8.296875 
z
" id="DejaVuSans-50"/>
      </defs>
      <g transform="translate(213.144091 319.413437)scale(0.28 -0.28)">
       <use xlink:href="#DejaVuSans-50"/>
      </g>
     </g>
    </g>
    <g id="xtick_3">
     <g id="line2d_3">
      <g>
       <use style="stroke:#000000;stroke-width:0.8;" x="320.233409" xlink:href="#m165fc135a5" y="289.637812"/>
      </g>
     </g>
     <g id="text_3">
      <!-- 3 -->
      <defs>
       <path d="M 40.578125 39.3125 
Q 47.65625 37.796875 51.625 33 
Q 55.609375 28.21875 55.609375 21.1875 
Q 55.609375 10.40625 48.1875 4.484375 
Q 40.765625 -1.421875 27.09375 -1.421875 
Q 22.515625 -1.421875 17.65625 -0.515625 
Q 12.796875 0.390625 7.625 2.203125 
L 7.625 11.71875 
Q 11.71875 9.328125 16.59375 8.109375 
Q 21.484375 6.890625 26.8125 6.890625 
Q 36.078125 6.890625 40.9375 10.546875 
Q 45.796875 14.203125 45.796875 21.1875 
Q 45.796875 27.640625 41.28125 31.265625 
Q 36.765625 34.90625 28.71875 34.90625 
L 20.21875 34.90625 
L 20.21875 43.015625 
L 29.109375 43.015625 
Q 36.375 43.015625 40.234375 45.921875 
Q 44.09375 48.828125 44.09375 54.296875 
Q 44.09375 59.90625 40.109375 62.90625 
Q 36.140625 65.921875 28.71875 65.921875 
Q 24.65625 65.921875 20.015625 65.03125 
Q 15.375 64.15625 9.8125 62.3125 
L 9.8125 71.09375 
Q 15.4375 72.65625 20.34375 73.4375 
Q 25.25 74.21875 29.59375 74.21875 
Q 40.828125 74.21875 47.359375 69.109375 
Q 53.90625 64.015625 53.90625 55.328125 
Q 53.90625 49.265625 50.4375 45.09375 
Q 46.96875 40.921875 40.578125 39.3125 
z
" id="DejaVuSans-51"/>
      </defs>
      <g transform="translate(311.325909 319.413437)scale(0.28 -0.28)">
       <use xlink:href="#DejaVuSans-51"/>
      </g>
     </g>
    </g>
    <g id="xtick_4">
     <g id="line2d_4">
      <g>
       <use style="stroke:#000000;stroke-width:0.8;" x="418.415227" xlink:href="#m165fc135a5" y="289.637812"/>
      </g>
     </g>
     <g id="text_4">
      <!-- 4 -->
      <defs>
       <path d="M 37.796875 64.3125 
L 12.890625 25.390625 
L 37.796875 25.390625 
z
M 35.203125 72.90625 
L 47.609375 72.90625 
L 47.609375 25.390625 
L 58.015625 25.390625 
L 58.015625 17.1875 
L 47.609375 17.1875 
L 47.609375 0 
L 37.796875 0 
L 37.796875 17.1875 
L 4.890625 17.1875 
L 4.890625 26.703125 
z
" id="DejaVuSans-52"/>
      </defs>
      <g transform="translate(409.507727 319.413437)scale(0.28 -0.28)">
       <use xlink:href="#DejaVuSans-52"/>
      </g>
     </g>
    </g>
    <g id="text_5">
     <!-- -log10 p-value -->
     <defs>
      <path d="M 4.890625 31.390625 
L 31.203125 31.390625 
L 31.203125 23.390625 
L 4.890625 23.390625 
z
" id="DejaVuSans-45"/>
      <path d="M 9.421875 75.984375 
L 18.40625 75.984375 
L 18.40625 0 
L 9.421875 0 
z
" id="DejaVuSans-108"/>
      <path d="M 30.609375 48.390625 
Q 23.390625 48.390625 19.1875 42.75 
Q 14.984375 37.109375 14.984375 27.296875 
Q 14.984375 17.484375 19.15625 11.84375 
Q 23.34375 6.203125 30.609375 6.203125 
Q 37.796875 6.203125 41.984375 11.859375 
Q 46.1875 17.53125 46.1875 27.296875 
Q 46.1875 37.015625 41.984375 42.703125 
Q 37.796875 48.390625 30.609375 48.390625 
z
M 30.609375 56 
Q 42.328125 56 49.015625 48.375 
Q 55.71875 40.765625 55.71875 27.296875 
Q 55.71875 13.875 49.015625 6.21875 
Q 42.328125 -1.421875 30.609375 -1.421875 
Q 18.84375 -1.421875 12.171875 6.21875 
Q 5.515625 13.875 5.515625 27.296875 
Q 5.515625 40.765625 12.171875 48.375 
Q 18.84375 56 30.609375 56 
z
" id="DejaVuSans-111"/>
      <path d="M 45.40625 27.984375 
Q 45.40625 37.75 41.375 43.109375 
Q 37.359375 48.484375 30.078125 48.484375 
Q 22.859375 48.484375 18.828125 43.109375 
Q 14.796875 37.75 14.796875 27.984375 
Q 14.796875 18.265625 18.828125 12.890625 
Q 22.859375 7.515625 30.078125 7.515625 
Q 37.359375 7.515625 41.375 12.890625 
Q 45.40625 18.265625 45.40625 27.984375 
z
M 54.390625 6.78125 
Q 54.390625 -7.171875 48.1875 -13.984375 
Q 42 -20.796875 29.203125 -20.796875 
Q 24.46875 -20.796875 20.265625 -20.09375 
Q 16.0625 -19.390625 12.109375 -17.921875 
L 12.109375 -9.1875 
Q 16.0625 -11.328125 19.921875 -12.34375 
Q 23.78125 -13.375 27.78125 -13.375 
Q 36.625 -13.375 41.015625 -8.765625 
Q 45.40625 -4.15625 45.40625 5.171875 
L 45.40625 9.625 
Q 42.625 4.78125 38.28125 2.390625 
Q 33.9375 0 27.875 0 
Q 17.828125 0 11.671875 7.65625 
Q 5.515625 15.328125 5.515625 27.984375 
Q 5.515625 40.671875 11.671875 48.328125 
Q 17.828125 56 27.875 56 
Q 33.9375 56 38.28125 53.609375 
Q 42.625 51.21875 45.40625 46.390625 
L 45.40625 54.6875 
L 54.390625 54.6875 
z
" id="DejaVuSans-103"/>
      <path d="M 31.78125 66.40625 
Q 24.171875 66.40625 20.328125 58.90625 
Q 16.5 51.421875 16.5 36.375 
Q 16.5 21.390625 20.328125 13.890625 
Q 24.171875 6.390625 31.78125 6.390625 
Q 39.453125 6.390625 43.28125 13.890625 
Q 47.125 21.390625 47.125 36.375 
Q 47.125 51.421875 43.28125 58.90625 
Q 39.453125 66.40625 31.78125 66.40625 
z
M 31.78125 74.21875 
Q 44.046875 74.21875 50.515625 64.515625 
Q 56.984375 54.828125 56.984375 36.375 
Q 56.984375 17.96875 50.515625 8.265625 
Q 44.046875 -1.421875 31.78125 -1.421875 
Q 19.53125 -1.421875 13.0625 8.265625 
Q 6.59375 17.96875 6.59375 36.375 
Q 6.59375 54.828125 13.0625 64.515625 
Q 19.53125 74.21875 31.78125 74.21875 
z
" id="DejaVuSans-48"/>
      <path id="DejaVuSans-32"/>
      <path d="M 18.109375 8.203125 
L 18.109375 -20.796875 
L 9.078125 -20.796875 
L 9.078125 54.6875 
L 18.109375 54.6875 
L 18.109375 46.390625 
Q 20.953125 51.265625 25.265625 53.625 
Q 29.59375 56 35.59375 56 
Q 45.5625 56 51.78125 48.09375 
Q 58.015625 40.1875 58.015625 27.296875 
Q 58.015625 14.40625 51.78125 6.484375 
Q 45.5625 -1.421875 35.59375 -1.421875 
Q 29.59375 -1.421875 25.265625 0.953125 
Q 20.953125 3.328125 18.109375 8.203125 
z
M 48.6875 27.296875 
Q 48.6875 37.203125 44.609375 42.84375 
Q 40.53125 48.484375 33.40625 48.484375 
Q 26.265625 48.484375 22.1875 42.84375 
Q 18.109375 37.203125 18.109375 27.296875 
Q 18.109375 17.390625 22.1875 11.75 
Q 26.265625 6.109375 33.40625 6.109375 
Q 40.53125 6.109375 44.609375 11.75 
Q 48.6875 17.390625 48.6875 27.296875 
z
" id="DejaVuSans-112"/>
      <path d="M 2.984375 54.6875 
L 12.5 54.6875 
L 29.59375 8.796875 
L 46.6875 54.6875 
L 56.203125 54.6875 
L 35.6875 0 
L 23.484375 0 
z
" id="DejaVuSans-118"/>
      <path d="M 34.28125 27.484375 
Q 23.390625 27.484375 19.1875 25 
Q 14.984375 22.515625 14.984375 16.5 
Q 14.984375 11.71875 18.140625 8.90625 
Q 21.296875 6.109375 26.703125 6.109375 
Q 34.1875 6.109375 38.703125 11.40625 
Q 43.21875 16.703125 43.21875 25.484375 
L 43.21875 27.484375 
z
M 52.203125 31.203125 
L 52.203125 0 
L 43.21875 0 
L 43.21875 8.296875 
Q 40.140625 3.328125 35.546875 0.953125 
Q 30.953125 -1.421875 24.3125 -1.421875 
Q 15.921875 -1.421875 10.953125 3.296875 
Q 6 8.015625 6 15.921875 
Q 6 25.140625 12.171875 29.828125 
Q 18.359375 34.515625 30.609375 34.515625 
L 43.21875 34.515625 
L 43.21875 35.40625 
Q 43.21875 41.609375 39.140625 45 
Q 35.0625 48.390625 27.6875 48.390625 
Q 23 48.390625 18.546875 47.265625 
Q 14.109375 46.140625 10.015625 43.890625 
L 10.015625 52.203125 
Q 14.9375 54.109375 19.578125 55.046875 
Q 24.21875 56 28.609375 56 
Q 40.484375 56 46.34375 49.84375 
Q 52.203125 43.703125 52.203125 31.203125 
z
" id="DejaVuSans-97"/>
      <path d="M 8.5 21.578125 
L 8.5 54.6875 
L 17.484375 54.6875 
L 17.484375 21.921875 
Q 17.484375 14.15625 20.5 10.265625 
Q 23.53125 6.390625 29.59375 6.390625 
Q 36.859375 6.390625 41.078125 11.03125 
Q 45.3125 15.671875 45.3125 23.6875 
L 45.3125 54.6875 
L 54.296875 54.6875 
L 54.296875 0 
L 45.3125 0 
L 45.3125 8.40625 
Q 42.046875 3.421875 37.71875 1 
Q 33.40625 -1.421875 27.6875 -1.421875 
Q 18.265625 -1.421875 13.375 4.4375 
Q 8.5 10.296875 8.5 21.578125 
z
M 31.109375 56 
z
" id="DejaVuSans-117"/>
      <path d="M 56.203125 29.59375 
L 56.203125 25.203125 
L 14.890625 25.203125 
Q 15.484375 15.921875 20.484375 11.0625 
Q 25.484375 6.203125 34.421875 6.203125 
Q 39.59375 6.203125 44.453125 7.46875 
Q 49.3125 8.734375 54.109375 11.28125 
L 54.109375 2.78125 
Q 49.265625 0.734375 44.1875 -0.34375 
Q 39.109375 -1.421875 33.890625 -1.421875 
Q 20.796875 -1.421875 13.15625 6.1875 
Q 5.515625 13.8125 5.515625 26.8125 
Q 5.515625 40.234375 12.765625 48.109375 
Q 20.015625 56 32.328125 56 
Q 43.359375 56 49.78125 48.890625 
Q 56.203125 41.796875 56.203125 29.59375 
z
M 47.21875 32.234375 
Q 47.125 39.59375 43.09375 43.984375 
Q 39.0625 48.390625 32.421875 48.390625 
Q 24.90625 48.390625 20.390625 44.140625 
Q 15.875 39.890625 15.1875 32.171875 
z
" id="DejaVuSans-101"/>
     </defs>
     <g transform="translate(170.3075 350.512187)scale(0.28 -0.28)">
      <use xlink:href="#DejaVuSans-45"/>
      <use x="36.083984" xlink:href="#DejaVuSans-108"/>
      <use x="63.867188" xlink:href="#DejaVuSans-111"/>
      <use x="125.048828" xlink:href="#DejaVuSans-103"/>
      <use x="188.525391" xlink:href="#DejaVuSans-49"/>
      <use x="252.148438" xlink:href="#DejaVuSans-48"/>
      <use x="315.771484" xlink:href="#DejaVuSans-32"/>
      <use x="347.558594" xlink:href="#DejaVuSans-112"/>
      <use x="411.035156" xlink:href="#DejaVuSans-45"/>
      <use x="447.087891" xlink:href="#DejaVuSans-118"/>
      <use x="506.267578" xlink:href="#DejaVuSans-97"/>
      <use x="567.546875" xlink:href="#DejaVuSans-108"/>
      <use x="595.330078" xlink:href="#DejaVuSans-117"/>
      <use x="658.708984" xlink:href="#DejaVuSans-101"/>
     </g>
    </g>
   </g>
   <g id="matplotlib.axis_2">
    <g id="ytick_1">
     <g id="line2d_5">
      <defs>
       <path d="M 0 0 
L -5 0 
" id="m4ead3be799" style="stroke:#000000;stroke-width:0.8;"/>
      </defs>
      <g>
       <use style="stroke:#000000;stroke-width:0.8;" x="109.1425" xlink:href="#m4ead3be799" y="289.637812"/>
      </g>
     </g>
     <g id="text_6">
      <!-- 0.00 -->
      <defs>
       <path d="M 10.6875 12.40625 
L 21 12.40625 
L 21 0 
L 10.6875 0 
z
" id="DejaVuSans-46"/>
      </defs>
      <g transform="translate(38.29875 300.275625)scale(0.28 -0.28)">
       <use xlink:href="#DejaVuSans-48"/>
       <use x="63.623047" xlink:href="#DejaVuSans-46"/>
       <use x="95.410156" xlink:href="#DejaVuSans-48"/>
       <use x="159.033203" xlink:href="#DejaVuSans-48"/>
      </g>
     </g>
    </g>
    <g id="ytick_2">
     <g id="line2d_6">
      <g>
       <use style="stroke:#000000;stroke-width:0.8;" x="109.1425" xlink:href="#m4ead3be799" y="221.687813"/>
      </g>
     </g>
     <g id="text_7">
      <!-- 0.25 -->
      <defs>
       <path d="M 10.796875 72.90625 
L 49.515625 72.90625 
L 49.515625 64.59375 
L 19.828125 64.59375 
L 19.828125 46.734375 
Q 21.96875 47.46875 24.109375 47.828125 
Q 26.265625 48.1875 28.421875 48.1875 
Q 40.625 48.1875 47.75 41.5 
Q 54.890625 34.8125 54.890625 23.390625 
Q 54.890625 11.625 47.5625 5.09375 
Q 40.234375 -1.421875 26.90625 -1.421875 
Q 22.3125 -1.421875 17.546875 -0.640625 
Q 12.796875 0.140625 7.71875 1.703125 
L 7.71875 11.625 
Q 12.109375 9.234375 16.796875 8.0625 
Q 21.484375 6.890625 26.703125 6.890625 
Q 35.15625 6.890625 40.078125 11.328125 
Q 45.015625 15.765625 45.015625 23.390625 
Q 45.015625 31 40.078125 35.4375 
Q 35.15625 39.890625 26.703125 39.890625 
Q 22.75 39.890625 18.8125 39.015625 
Q 14.890625 38.140625 10.796875 36.28125 
z
" id="DejaVuSans-53"/>
      </defs>
      <g transform="translate(38.29875 232.325625)scale(0.28 -0.28)">
       <use xlink:href="#DejaVuSans-48"/>
       <use x="63.623047" xlink:href="#DejaVuSans-46"/>
       <use x="95.410156" xlink:href="#DejaVuSans-50"/>
       <use x="159.033203" xlink:href="#DejaVuSans-53"/>
      </g>
     </g>
    </g>
    <g id="ytick_3">
     <g id="line2d_7">
      <g>
       <use style="stroke:#000000;stroke-width:0.8;" x="109.1425" xlink:href="#m4ead3be799" y="153.737813"/>
      </g>
     </g>
     <g id="text_8">
      <!-- 0.50 -->
      <g transform="translate(38.29875 164.375625)scale(0.28 -0.28)">
       <use xlink:href="#DejaVuSans-48"/>
       <use x="63.623047" xlink:href="#DejaVuSans-46"/>
       <use x="95.410156" xlink:href="#DejaVuSans-53"/>
       <use x="159.033203" xlink:href="#DejaVuSans-48"/>
      </g>
     </g>
    </g>
    <g id="ytick_4">
     <g id="line2d_8">
      <g>
       <use style="stroke:#000000;stroke-width:0.8;" x="109.1425" xlink:href="#m4ead3be799" y="85.787813"/>
      </g>
     </g>
     <g id="text_9">
      <!-- 0.75 -->
      <defs>
       <path d="M 8.203125 72.90625 
L 55.078125 72.90625 
L 55.078125 68.703125 
L 28.609375 0 
L 18.3125 0 
L 43.21875 64.59375 
L 8.203125 64.59375 
z
" id="DejaVuSans-55"/>
      </defs>
      <g transform="translate(38.29875 96.425625)scale(0.28 -0.28)">
       <use xlink:href="#DejaVuSans-48"/>
       <use x="63.623047" xlink:href="#DejaVuSans-46"/>
       <use x="95.410156" xlink:href="#DejaVuSans-55"/>
       <use x="159.033203" xlink:href="#DejaVuSans-53"/>
      </g>
     </g>
    </g>
    <g id="ytick_5">
     <g id="line2d_9">
      <g>
       <use style="stroke:#000000;stroke-width:0.8;" x="109.1425" xlink:href="#m4ead3be799" y="17.837813"/>
      </g>
     </g>
     <g id="text_10">
      <!-- 1.00 -->
      <g transform="translate(38.29875 28.475625)scale(0.28 -0.28)">
       <use xlink:href="#DejaVuSans-49"/>
       <use x="63.623047" xlink:href="#DejaVuSans-46"/>
       <use x="95.410156" xlink:href="#DejaVuSans-48"/>
       <use x="159.033203" xlink:href="#DejaVuSans-48"/>
      </g>
     </g>
    </g>
    <g id="text_11">
     <!-- Recall -->
     <defs>
      <path d="M 44.390625 34.1875 
Q 47.5625 33.109375 50.5625 29.59375 
Q 53.5625 26.078125 56.59375 19.921875 
L 66.609375 0 
L 56 0 
L 46.6875 18.703125 
Q 43.0625 26.03125 39.671875 28.421875 
Q 36.28125 30.8125 30.421875 30.8125 
L 19.671875 30.8125 
L 19.671875 0 
L 9.8125 0 
L 9.8125 72.90625 
L 32.078125 72.90625 
Q 44.578125 72.90625 50.734375 67.671875 
Q 56.890625 62.453125 56.890625 51.90625 
Q 56.890625 45.015625 53.6875 40.46875 
Q 50.484375 35.9375 44.390625 34.1875 
z
M 19.671875 64.796875 
L 19.671875 38.921875 
L 32.078125 38.921875 
Q 39.203125 38.921875 42.84375 42.21875 
Q 46.484375 45.515625 46.484375 51.90625 
Q 46.484375 58.296875 42.84375 61.546875 
Q 39.203125 64.796875 32.078125 64.796875 
z
" id="DejaVuSans-82"/>
      <path d="M 48.78125 52.59375 
L 48.78125 44.1875 
Q 44.96875 46.296875 41.140625 47.34375 
Q 37.3125 48.390625 33.40625 48.390625 
Q 24.65625 48.390625 19.8125 42.84375 
Q 14.984375 37.3125 14.984375 27.296875 
Q 14.984375 17.28125 19.8125 11.734375 
Q 24.65625 6.203125 33.40625 6.203125 
Q 37.3125 6.203125 41.140625 7.25 
Q 44.96875 8.296875 48.78125 10.40625 
L 48.78125 2.09375 
Q 45.015625 0.34375 40.984375 -0.53125 
Q 36.96875 -1.421875 32.421875 -1.421875 
Q 20.0625 -1.421875 12.78125 6.34375 
Q 5.515625 14.109375 5.515625 27.296875 
Q 5.515625 40.671875 12.859375 48.328125 
Q 20.21875 56 33.015625 56 
Q 37.15625 56 41.109375 55.140625 
Q 45.0625 54.296875 48.78125 52.59375 
z
" id="DejaVuSans-99"/>
     </defs>
     <g transform="translate(28.475625 196.127187)rotate(-90)scale(0.28 -0.28)">
      <use xlink:href="#DejaVuSans-82"/>
      <use x="69.419922" xlink:href="#DejaVuSans-101"/>
      <use x="130.943359" xlink:href="#DejaVuSans-99"/>
      <use x="185.923828" xlink:href="#DejaVuSans-97"/>
      <use x="247.203125" xlink:href="#DejaVuSans-108"/>
      <use x="274.986328" xlink:href="#DejaVuSans-108"/>
     </g>
    </g>
   </g>
   <g id="line2d_10">
    <path clip-path="url(#pc7ecb410c2)" d="M 123.869773 262.865221 
L 126.815227 262.279388 
L 127.306136 262.279388 
L 128.287955 262.098605 
L 128.778864 262.098605 
L 130.251591 261.791933 
L 130.7425 261.791933 
L 131.724318 261.478353 
L 134.669773 261.15763 
L 135.651591 261.092607 
L 136.1425 260.961666 
L 136.633409 260.628996 
L 137.124318 260.628996 
L 138.597045 260.288517 
L 140.560682 260.080366 
L 141.051591 260.080366 
L 142.033409 259.869241 
L 143.506136 259.583005 
L 143.997045 260.094334 
L 147.924318 260.0228 
L 148.415227 260.540002 
L 148.906136 260.469032 
L 149.397045 260.921842 
L 149.887955 260.921842 
L 150.378864 260.780035 
L 152.833409 260.708605 
L 153.324318 260.63682 
L 153.815227 261.169982 
L 154.797045 261.098813 
L 155.287955 260.9554 
L 157.7425 260.883153 
L 158.233409 260.737559 
L 159.215227 260.664208 
L 161.669773 260.291797 
L 162.160682 260.842464 
L 164.124318 260.767864 
L 164.615227 260.6175 
L 166.578864 260.541729 
L 167.069773 261.027286 
L 171.487955 260.412006 
L 172.469773 260.33323 
L 173.9425 259.932894 
L 175.415227 259.851511 
L 175.906136 259.604663 
L 176.887955 259.521469 
L 177.869773 259.437813 
L 180.324318 259.35369 
L 181.306136 259.184031 
L 181.797045 259.778094 
L 182.287955 259.778094 
L 182.778864 259.608917 
L 183.760682 259.523608 
L 184.251591 259.351527 
L 184.7425 259.351527 
L 185.233409 259.958502 
L 189.651591 259.260165 
L 190.633409 259.170556 
L 191.615227 258.989741 
L 192.106136 259.618111 
L 193.087955 259.528232 
L 195.051591 259.437813 
L 195.5425 260.076483 
L 196.033409 260.076483 
L 197.015227 261.463422 
L 197.506136 261.463422 
L 198.487955 261.203351 
L 199.469773 261.11559 
L 202.906136 261.027286 
L 205.360682 260.668534 
L 206.833409 260.577435 
L 207.324318 261.343175 
L 208.306136 261.253635 
L 212.724318 260.516384 
L 213.215227 260.516384 
L 213.706136 260.326048 
L 214.197045 261.121091 
L 215.178864 261.027286 
L 217.633409 260.645812 
L 219.106136 260.548849 
L 220.087955 260.451235 
L 222.051591 260.352964 
L 223.033409 260.254029 
L 224.015227 260.154423 
L 224.997045 259.851511 
L 225.978864 259.646088 
L 226.469773 260.482795 
L 228.924318 260.381562 
L 229.906136 260.279624 
L 231.378864 260.176973 
L 232.360682 260.073602 
L 232.851591 260.825092 
L 242.669773 260.722919 
L 243.160682 260.516384 
L 245.615227 260.412006 
L 246.597045 259.986903 
L 249.5425 259.878688 
L 250.033409 259.659871 
L 252.487955 259.549252 
L 252.978864 259.325545 
L 253.469773 259.325545 
L 254.451591 259.212439 
L 254.9425 259.212439 
L 256.415227 258.983677 
L 258.378864 258.983677 
L 259.360682 258.751449 
L 259.851591 258.515675 
L 260.833409 258.515675 
L 262.306136 258.155187 
L 263.287955 258.155187 
L 264.269773 257.910186 
L 265.7425 257.910186 
L 266.233409 257.78625 
L 267.215227 257.78625 
L 267.706136 257.53545 
L 270.160682 257.53545 
L 270.651591 257.28067 
L 271.1425 257.28067 
L 272.124318 256.75878 
L 273.106136 256.75878 
L 273.597045 256.625667 
L 275.560682 256.625667 
L 276.051591 257.465568 
L 276.5425 257.200775 
L 278.506136 257.200775 
L 278.997045 257.066738 
L 279.487955 257.066738 
L 280.469773 256.795313 
L 280.960682 256.795313 
L 281.451591 256.657896 
L 282.433409 256.657896 
L 282.924318 256.519325 
L 283.415227 256.519325 
L 283.906136 256.23866 
L 284.397045 256.23866 
L 284.887955 256.096536 
L 286.360682 256.096536 
L 286.851591 255.808628 
L 288.324318 255.808628 
L 288.815227 255.662813 
L 292.7425 255.662813 
L 293.233409 255.515735 
L 293.724318 255.515735 
L 294.215227 256.404625 
L 294.706136 256.404625 
L 295.197045 256.258865 
L 298.633409 256.258865 
L 299.124318 256.111821 
L 300.106136 256.111821 
L 300.597045 255.963476 
L 301.087955 255.963476 
L 301.578864 256.876205 
L 302.560682 256.876205 
L 303.051591 256.581056 
L 304.033409 256.581056 
L 304.524318 257.369319 
L 305.506136 257.369319 
L 305.997045 258.324448 
L 306.978864 258.324448 
L 307.469773 258.033161 
L 308.9425 258.033161 
L 309.433409 257.434021 
L 317.778864 257.434021 
L 318.269773 257.125851 
L 322.197045 257.125851 
L 322.687955 256.969543 
L 324.651591 256.969543 
L 325.1425 256.811726 
L 327.106136 256.811726 
L 327.597045 256.328989 
L 329.560682 256.328989 
L 330.051591 256.164906 
L 332.015227 256.164906 
L 332.506136 255.831842 
L 334.960682 255.831842 
L 335.451591 255.319631 
L 338.397045 255.319631 
L 338.887955 254.791659 
L 341.833409 254.791659 
L 342.324318 255.662813 
L 345.269773 255.662813 
L 345.760682 254.93994 
L 349.687955 254.93994 
L 350.178864 254.377272 
L 354.106136 254.377272 
L 354.597045 254.185639 
L 359.015227 254.185639 
L 359.506136 252.783575 
L 364.906136 252.783575 
L 365.397045 251.712231 
L 371.287955 251.712231 
L 371.778864 251.285665 
L 379.1425 251.285665 
L 379.633409 250.07199 
L 388.469773 250.07199 
L 388.960682 249.044306 
L 400.7425 249.044306 
L 401.233409 249.723127 
L 418.415227 249.723127 
L 418.415227 249.723127 
" style="fill:none;stroke:#8b0000;stroke-linecap:square;stroke-width:2;"/>
   </g>
   <g id="line2d_11">
    <path clip-path="url(#pc7ecb410c2)" d="M 123.869773 216.886207 
L 124.360682 216.573296 
L 124.851591 216.098851 
L 125.3425 216.098851 
L 125.833409 215.779117 
L 126.815227 215.889016 
L 127.306136 215.889016 
L 127.797045 215.564845 
L 128.287955 215.401689 
L 128.778864 215.401689 
L 129.269773 215.674538 
L 129.760682 215.51054 
L 130.251591 215.785697 
L 130.7425 215.785697 
L 131.233409 216.507768 
L 131.724318 216.178353 
L 132.215227 216.01253 
L 132.706136 216.294955 
L 133.197045 216.294955 
L 133.687955 216.128267 
L 134.178864 216.128267 
L 134.669773 215.960819 
L 135.160682 215.960819 
L 135.651591 215.792607 
L 136.1425 215.453868 
L 136.633409 214.593265 
L 137.124318 214.593265 
L 138.106136 213.890272 
L 139.578864 213.354322 
L 140.069773 213.354322 
L 140.560682 213.173983 
L 141.051591 213.173983 
L 141.5425 213.45634 
L 142.524318 213.092705 
L 143.015227 213.092705 
L 143.506136 214.500793 
L 143.997045 215.450856 
L 145.960682 215.450856 
L 146.451591 215.271227 
L 147.924318 215.271227 
L 148.415227 215.570659 
L 148.906136 215.390008 
L 149.397045 216.178353 
L 149.887955 216.178353 
L 150.378864 215.81559 
L 151.851591 215.81559 
L 152.3425 216.305634 
L 152.833409 216.305634 
L 153.324318 216.123669 
L 153.815227 217.112625 
L 154.306136 217.112625 
L 154.797045 216.931312 
L 155.287955 216.565953 
L 155.778864 216.565953 
L 156.269773 216.381893 
L 157.7425 216.381893 
L 158.233409 216.699078 
L 158.724318 216.699078 
L 160.197045 216.140874 
L 160.687955 215.763966 
L 161.178864 215.574059 
L 161.669773 215.574059 
L 162.160682 215.893626 
L 163.1425 215.893626 
L 163.633409 215.702579 
L 164.124318 215.702579 
L 164.615227 215.3175 
L 165.597045 215.3175 
L 166.087955 215.123452 
L 166.578864 215.123452 
L 167.069773 215.250444 
L 168.5425 214.658502 
L 169.033409 215.181961 
L 169.524318 214.983412 
L 170.015227 214.983412 
L 170.506136 214.583121 
L 170.997045 214.381361 
L 171.978864 214.381361 
L 172.469773 214.178513 
L 173.451591 214.837268 
L 173.9425 215.375517 
L 174.433409 215.375517 
L 174.924318 215.172059 
L 175.415227 215.172059 
L 175.906136 214.55494 
L 176.397045 214.55494 
L 177.378864 214.137812 
L 179.3425 214.137812 
L 179.833409 214.684609 
L 180.324318 214.684609 
L 181.306136 214.264703 
L 181.797045 214.6057 
L 182.287955 214.6057 
L 182.778864 214.180589 
L 183.269773 214.180589 
L 183.760682 213.966222 
L 184.251591 213.533813 
L 184.7425 213.533813 
L 185.233409 213.877468 
L 185.724318 213.659138 
L 186.215227 213.659138 
L 186.706136 214.006508 
L 187.197045 213.565509 
L 187.687955 213.343076 
L 188.669773 213.343076 
L 189.651591 212.894283 
L 190.1425 212.894283 
L 191.124318 212.440179 
L 191.615227 213.017634 
L 192.106136 213.371544 
L 192.597045 213.143202 
L 194.560682 213.143202 
L 195.051591 212.913488 
L 195.5425 213.271045 
L 196.033409 213.271045 
L 196.524318 213.863267 
L 197.015227 213.401227 
L 197.506136 213.401227 
L 197.997045 212.933518 
L 198.978864 212.460035 
L 201.433409 212.460035 
L 201.924318 212.221094 
L 202.906136 212.221094 
L 204.378864 211.495313 
L 204.869773 211.495313 
L 205.360682 211.250352 
L 205.851591 211.250352 
L 206.3425 211.00385 
L 206.833409 211.00385 
L 207.324318 211.613207 
L 207.815227 211.613207 
L 209.778864 210.616087 
L 210.269773 210.107909 
L 210.760682 210.107909 
L 211.7425 209.593152 
L 212.233409 209.593152 
L 212.724318 209.333267 
L 213.215227 209.333267 
L 213.706136 208.808401 
L 214.197045 209.434534 
L 214.687955 209.434534 
L 215.669773 208.905139 
L 216.160682 208.36871 
L 216.651591 208.097813 
L 218.615227 208.097813 
L 219.597045 207.550564 
L 221.560682 207.550564 
L 222.5425 208.832407 
L 223.524318 208.832407 
L 224.015227 208.55849 
L 224.506136 208.932693 
L 224.997045 209.587128 
L 225.978864 209.035054 
L 226.469773 209.696636 
L 227.9425 209.696636 
L 228.433409 209.419062 
L 228.924318 209.419062 
L 229.415227 209.139555 
L 230.397045 209.139555 
L 230.887955 208.858092 
L 231.378864 208.858092 
L 231.869773 209.528339 
L 232.360682 209.528339 
L 232.851591 209.922618 
L 238.251591 209.922618 
L 238.7425 209.63994 
L 242.669773 209.63994 
L 243.160682 209.068527 
L 245.124318 209.068527 
L 245.615227 208.779748 
L 246.106136 208.195935 
L 246.597045 208.591994 
L 249.051591 208.591994 
L 249.5425 209.288177 
L 250.033409 209.696636 
L 251.506136 209.696636 
L 251.997045 210.404602 
L 252.487955 210.404602 
L 252.978864 209.815508 
L 253.469773 209.815508 
L 253.960682 209.517663 
L 254.9425 209.517663 
L 255.433409 209.217588 
L 255.924318 209.217588 
L 256.415227 209.937061 
L 258.378864 209.937061 
L 259.360682 209.333267 
L 259.851591 209.75766 
L 260.833409 209.75766 
L 262.306136 208.832407 
L 263.287955 208.832407 
L 264.269773 208.203571 
L 265.7425 208.203571 
L 266.233409 207.885469 
L 267.215227 207.885469 
L 267.706136 207.24175 
L 270.160682 207.24175 
L 270.651591 206.587812 
L 271.1425 206.587812 
L 271.633409 208.097813 
L 272.124318 207.440232 
L 273.106136 207.440232 
L 273.597045 207.107448 
L 275.560682 207.107448 
L 276.5425 207.985961 
L 278.506136 207.985961 
L 278.997045 207.648556 
L 279.487955 207.648556 
L 280.469773 206.965313 
L 280.960682 206.965313 
L 281.451591 206.619402 
L 282.433409 206.619402 
L 282.924318 206.270586 
L 283.415227 206.270586 
L 283.906136 205.564084 
L 284.397045 205.564084 
L 284.887955 206.362919 
L 286.360682 206.362919 
L 286.851591 205.648113 
L 288.324318 205.648113 
L 288.815227 205.286088 
L 292.7425 205.286088 
L 293.233409 204.920929 
L 293.724318 204.920929 
L 294.215227 205.367944 
L 294.706136 205.367944 
L 295.197045 206.190444 
L 298.633409 206.190444 
L 299.124318 205.822835 
L 300.106136 205.822835 
L 300.597045 205.451972 
L 301.087955 205.451972 
L 301.578864 205.913705 
L 302.560682 205.913705 
L 303.051591 205.159434 
L 305.506136 205.243292 
L 305.997045 206.970531 
L 306.978864 206.970531 
L 307.469773 206.201533 
L 308.9425 206.201533 
L 309.433409 205.907955 
L 317.778864 205.907955 
L 318.269773 205.106712 
L 322.197045 205.106712 
L 322.687955 204.700312 
L 324.651591 204.700312 
L 325.1425 204.289986 
L 327.106136 204.289986 
L 327.597045 203.034871 
L 329.560682 203.034871 
L 330.051591 202.608256 
L 332.015227 202.608256 
L 332.506136 201.74229 
L 334.960682 201.74229 
L 335.451591 200.41054 
L 338.397045 200.41054 
L 338.887955 199.037813 
L 345.269773 199.037813 
L 345.760682 198.555898 
L 354.106136 198.548083 
L 354.597045 198.05303 
L 359.015227 198.05303 
L 359.506136 195.966626 
L 364.906136 195.966626 
L 365.397045 196.404092 
L 371.287955 196.404092 
L 371.778864 196.258671 
L 379.1425 196.258671 
L 379.633409 193.303635 
L 388.469773 193.303635 
L 388.960682 192.566384 
L 400.7425 192.566384 
L 401.233409 192.702148 
L 418.415227 192.702148 
L 418.415227 192.702148 
" style="fill:none;stroke:#000080;stroke-linecap:square;stroke-width:2;"/>
   </g>
   <g id="patch_3">
    <path d="M 109.1425 289.637812 
L 109.1425 17.837813 
" style="fill:none;stroke:#000000;stroke-linecap:square;stroke-linejoin:miter;"/>
   </g>
   <g id="patch_4">
    <path d="M 109.1425 289.637812 
L 433.1425 289.637812 
" style="fill:none;stroke:#000000;stroke-linecap:square;stroke-linejoin:miter;"/>
   </g>
  </g>
  <g id="axes_2">
   <g id="patch_5">
    <path d="M 449.3425 289.637812 
L 773.3425 289.637812 
L 773.3425 17.837813 
L 449.3425 17.837813 
z
" style="fill:none;"/>
   </g>
   <g id="matplotlib.axis_3">
    <g id="xtick_5">
     <g id="line2d_12">
      <g>
       <use style="stroke:#000000;stroke-width:0.8;" x="464.069773" xlink:href="#m165fc135a5" y="289.637812"/>
      </g>
     </g>
     <g id="text_12">
      <!-- 1 -->
      <g transform="translate(455.162273 319.413437)scale(0.28 -0.28)">
       <use xlink:href="#DejaVuSans-49"/>
      </g>
     </g>
    </g>
    <g id="xtick_6">
     <g id="line2d_13">
      <g>
       <use style="stroke:#000000;stroke-width:0.8;" x="562.251591" xlink:href="#m165fc135a5" y="289.637812"/>
      </g>
     </g>
     <g id="text_13">
      <!-- 2 -->
      <g transform="translate(553.344091 319.413437)scale(0.28 -0.28)">
       <use xlink:href="#DejaVuSans-50"/>
      </g>
     </g>
    </g>
    <g id="xtick_7">
     <g id="line2d_14">
      <g>
       <use style="stroke:#000000;stroke-width:0.8;" x="660.433409" xlink:href="#m165fc135a5" y="289.637812"/>
      </g>
     </g>
     <g id="text_14">
      <!-- 3 -->
      <g transform="translate(651.525909 319.413437)scale(0.28 -0.28)">
       <use xlink:href="#DejaVuSans-51"/>
      </g>
     </g>
    </g>
    <g id="xtick_8">
     <g id="line2d_15">
      <g>
       <use style="stroke:#000000;stroke-width:0.8;" x="758.615227" xlink:href="#m165fc135a5" y="289.637812"/>
      </g>
     </g>
     <g id="text_15">
      <!-- 4 -->
      <g transform="translate(749.707727 319.413437)scale(0.28 -0.28)">
       <use xlink:href="#DejaVuSans-52"/>
      </g>
     </g>
    </g>
    <g id="text_16">
     <!-- -log10 p-value -->
     <g transform="translate(510.5075 350.512187)scale(0.28 -0.28)">
      <use xlink:href="#DejaVuSans-45"/>
      <use x="36.083984" xlink:href="#DejaVuSans-108"/>
      <use x="63.867188" xlink:href="#DejaVuSans-111"/>
      <use x="125.048828" xlink:href="#DejaVuSans-103"/>
      <use x="188.525391" xlink:href="#DejaVuSans-49"/>
      <use x="252.148438" xlink:href="#DejaVuSans-48"/>
      <use x="315.771484" xlink:href="#DejaVuSans-32"/>
      <use x="347.558594" xlink:href="#DejaVuSans-112"/>
      <use x="411.035156" xlink:href="#DejaVuSans-45"/>
      <use x="447.087891" xlink:href="#DejaVuSans-118"/>
      <use x="506.267578" xlink:href="#DejaVuSans-97"/>
      <use x="567.546875" xlink:href="#DejaVuSans-108"/>
      <use x="595.330078" xlink:href="#DejaVuSans-117"/>
      <use x="658.708984" xlink:href="#DejaVuSans-101"/>
     </g>
    </g>
   </g>
   <g id="matplotlib.axis_4">
    <g id="ytick_6"/>
    <g id="ytick_7"/>
    <g id="ytick_8"/>
    <g id="ytick_9"/>
    <g id="ytick_10"/>
   </g>
   <g id="line2d_16">
    <path clip-path="url(#pb179dfd295)" d="M 464.069773 138.637813 
L 465.051591 135.788756 
L 465.5425 136.912098 
L 466.033409 133.94655 
L 470.9425 133.94655 
L 471.433409 136.245733 
L 474.869773 136.245733 
L 475.360682 137.429812 
L 475.851591 137.429812 
L 476.3425 138.637813 
L 476.833409 137.096996 
L 477.815227 137.096996 
L 478.797045 133.919063 
L 479.778864 133.919063 
L 480.760682 130.605898 
L 481.251591 130.605898 
L 482.233409 133.057378 
L 483.215227 129.577813 
L 487.633409 129.577813 
L 488.124318 127.779386 
L 490.087955 127.779386 
L 491.069773 124.058502 
L 491.560682 123.360165 
L 494.506136 123.360165 
L 494.997045 120.591471 
L 495.978864 120.591471 
L 496.469773 121.860035 
L 498.433409 121.860035 
L 498.924318 123.160313 
L 499.415227 123.160313 
L 499.906136 122.376274 
L 500.397045 122.376274 
L 500.887955 123.733916 
L 502.851591 123.733916 
L 503.3425 125.127286 
L 503.833409 125.127286 
L 504.324318 126.557813 
L 506.287955 126.557813 
L 506.778864 124.354029 
L 507.760682 124.354029 
L 508.251591 125.813155 
L 508.7425 125.813155 
L 509.233409 123.537813 
L 511.197045 123.537813 
L 511.687955 125.026545 
L 513.160682 125.026545 
L 513.651591 126.557813 
L 515.615227 126.557813 
L 516.597045 121.761342 
L 517.087955 121.761342 
L 517.578864 123.312439 
L 524.451591 123.312439 
L 524.9425 120.792358 
L 527.397045 120.792358 
L 527.887955 122.376274 
L 530.833409 122.376274 
L 531.324318 119.762813 
L 535.7425 119.762813 
L 536.233409 121.38067 
L 536.724318 121.38067 
L 537.215227 118.666845 
L 537.706136 118.666845 
L 538.197045 122.027813 
L 541.633409 122.027813 
L 542.124318 120.934364 
L 543.106136 120.934364 
L 543.597045 117.974655 
L 546.051591 117.974655 
L 546.5425 119.762813 
L 549.978864 119.762813 
L 550.469773 121.615994 
L 550.960682 121.615994 
L 551.451591 118.504479 
L 565.687955 118.504479 
L 566.178864 120.40385 
L 567.160682 120.40385 
L 567.651591 122.376274 
L 568.1425 122.376274 
L 568.633409 124.426048 
L 572.560682 124.426048 
L 573.051591 121.121813 
L 580.906136 121.121813 
L 581.397045 123.229649 
L 581.887955 123.229649 
L 582.378864 119.762813 
L 584.3425 119.762813 
L 584.833409 124.194334 
L 588.269773 124.194334 
L 588.760682 126.557813 
L 591.215227 126.557813 
L 591.706136 129.028722 
L 592.197045 129.028722 
L 592.687955 131.614557 
L 593.178864 131.614557 
L 593.669773 133.352813 
L 598.087955 133.352813 
L 598.578864 129.345505 
L 599.069773 129.345505 
L 599.560682 125.127286 
L 600.5425 125.127286 
L 601.033409 123.537813 
L 602.015227 123.537813 
L 602.506136 126.557813 
L 607.906136 126.557813 
L 608.397045 129.75546 
L 609.378864 129.75546 
L 609.869773 133.146903 
L 612.815227 133.146903 
L 613.306136 128.256563 
L 616.251591 128.256563 
L 616.7425 123.050716 
L 650.615227 123.050716 
L 651.106136 126.557813 
L 654.051591 126.557813 
L 654.5425 120.934364 
L 662.397045 120.934364 
L 662.887955 114.909241 
L 685.469773 114.909241 
L 685.960682 118.504479 
L 719.3425 118.504479 
L 719.833409 111.922428 
L 740.9425 111.922428 
L 741.433409 100.559552 
L 758.615227 100.559552 
L 758.615227 100.559552 
" style="fill:none;stroke:#8b0000;stroke-linecap:square;stroke-width:2;"/>
   </g>
   <g id="line2d_17">
    <path clip-path="url(#pb179dfd295)" d="M 464.069773 236.787813 
L 465.5425 235.277813 
L 466.033409 234.222279 
L 470.9425 234.222279 
L 471.433409 233.124941 
L 474.869773 233.124941 
L 475.360682 232.559813 
L 475.851591 232.559813 
L 476.833409 231.394955 
L 477.815227 231.394955 
L 478.797045 230.181563 
L 479.778864 230.181563 
L 480.760682 228.916536 
L 481.251591 228.916536 
L 482.233409 233.505204 
L 483.215227 232.257812 
L 487.633409 232.257812 
L 488.124318 231.613093 
L 490.087955 231.613093 
L 491.069773 230.279192 
L 491.560682 228.882518 
L 494.506136 228.882518 
L 494.997045 226.659764 
L 495.978864 226.659764 
L 496.469773 225.882257 
L 498.433409 225.882257 
L 498.924318 225.085313 
L 499.415227 225.085313 
L 499.906136 226.914736 
L 500.397045 226.914736 
L 500.887955 226.10015 
L 502.851591 226.10015 
L 503.3425 228.840444 
L 503.833409 228.840444 
L 504.324318 228.029812 
L 506.287955 228.029812 
L 506.778864 227.197272 
L 507.760682 227.197272 
L 508.251591 226.341922 
L 508.7425 226.341922 
L 509.233409 225.462813 
L 511.197045 225.462813 
L 511.687955 224.558939 
L 513.160682 224.558939 
L 513.651591 223.629241 
L 515.615227 223.629241 
L 516.597045 221.687813 
L 517.087955 221.687813 
L 517.578864 220.673633 
L 524.451591 220.673633 
L 524.9425 219.628722 
L 527.397045 219.628722 
L 527.887955 218.551659 
L 530.833409 218.551659 
L 531.324318 217.440938 
L 535.7425 217.440938 
L 536.233409 216.294955 
L 536.724318 216.294955 
L 537.215227 215.112006 
L 537.706136 215.112006 
L 538.197045 217.157813 
L 541.633409 217.157813 
L 542.124318 214.658502 
L 543.106136 214.658502 
L 543.597045 213.343076 
L 546.051591 213.343076 
L 546.5425 211.98067 
L 549.978864 211.98067 
L 550.469773 210.568722 
L 550.960682 210.568722 
L 551.451591 209.104479 
L 565.687955 209.104479 
L 566.178864 207.584982 
L 567.160682 207.584982 
L 567.651591 206.007043 
L 568.1425 206.007043 
L 568.633409 204.367224 
L 572.560682 204.367224 
L 573.051591 202.661812 
L 580.906136 202.661812 
L 581.397045 206.433731 
L 581.887955 206.433731 
L 582.378864 204.700312 
L 584.3425 204.700312 
L 584.833409 206.916073 
L 588.269773 206.916073 
L 588.760682 205.077812 
L 591.215227 205.077812 
L 591.706136 203.155994 
L 592.197045 203.155994 
L 592.687955 201.144789 
L 593.178864 201.144789 
L 593.669773 201.302813 
L 598.087955 201.302813 
L 598.578864 199.037813 
L 599.069773 199.037813 
L 599.560682 196.653602 
L 600.5425 196.653602 
L 601.033409 191.487813 
L 602.015227 191.487813 
L 602.506136 188.683527 
L 607.906136 188.683527 
L 608.397045 185.714283 
L 609.378864 185.714283 
L 609.869773 190.801449 
L 612.815227 190.801449 
L 613.306136 187.712813 
L 616.251591 187.712813 
L 616.7425 184.424909 
L 650.615227 184.424909 
L 651.106136 180.917813 
L 654.051591 180.917813 
L 654.5425 177.168847 
L 662.397045 177.168847 
L 662.887955 173.152098 
L 685.469773 173.152098 
L 685.960682 178.904479 
L 719.3425 178.904479 
L 719.833409 174.645505 
L 740.9425 174.645505 
L 741.433409 171.463899 
L 758.615227 171.463899 
L 758.615227 171.463899 
" style="fill:none;stroke:#000080;stroke-linecap:square;stroke-width:2;"/>
   </g>
   <g id="patch_6">
    <path d="M 449.3425 289.637812 
L 449.3425 17.837813 
" style="fill:none;stroke:#000000;stroke-linecap:square;stroke-linejoin:miter;"/>
   </g>
   <g id="patch_7">
    <path d="M 449.3425 289.637812 
L 773.3425 289.637812 
" style="fill:none;stroke:#000000;stroke-linecap:square;stroke-linejoin:miter;"/>
   </g>
  </g>
  <g id="axes_3">
   <g id="patch_8">
    <path d="M 789.5425 289.637812 
L 1113.5425 289.637812 
L 1113.5425 17.837813 
L 789.5425 17.837813 
z
" style="fill:none;"/>
   </g>
   <g id="matplotlib.axis_5">
    <g id="xtick_9">
     <g id="line2d_18">
      <g>
       <use style="stroke:#000000;stroke-width:0.8;" x="804.269773" xlink:href="#m165fc135a5" y="289.637812"/>
      </g>
     </g>
     <g id="text_17">
      <!-- 1 -->
      <g transform="translate(795.362273 319.413437)scale(0.28 -0.28)">
       <use xlink:href="#DejaVuSans-49"/>
      </g>
     </g>
    </g>
    <g id="xtick_10">
     <g id="line2d_19">
      <g>
       <use style="stroke:#000000;stroke-width:0.8;" x="902.451591" xlink:href="#m165fc135a5" y="289.637812"/>
      </g>
     </g>
     <g id="text_18">
      <!-- 2 -->
      <g transform="translate(893.544091 319.413437)scale(0.28 -0.28)">
       <use xlink:href="#DejaVuSans-50"/>
      </g>
     </g>
    </g>
    <g id="xtick_11">
     <g id="line2d_20">
      <g>
       <use style="stroke:#000000;stroke-width:0.8;" x="1000.633409" xlink:href="#m165fc135a5" y="289.637812"/>
      </g>
     </g>
     <g id="text_19">
      <!-- 3 -->
      <g transform="translate(991.725909 319.413437)scale(0.28 -0.28)">
       <use xlink:href="#DejaVuSans-51"/>
      </g>
     </g>
    </g>
    <g id="xtick_12">
     <g id="line2d_21">
      <g>
       <use style="stroke:#000000;stroke-width:0.8;" x="1098.815227" xlink:href="#m165fc135a5" y="289.637812"/>
      </g>
     </g>
     <g id="text_20">
      <!-- 4 -->
      <g transform="translate(1089.907727 319.413437)scale(0.28 -0.28)">
       <use xlink:href="#DejaVuSans-52"/>
      </g>
     </g>
    </g>
    <g id="text_21">
     <!-- -log10 p-value -->
     <g transform="translate(850.7075 350.512187)scale(0.28 -0.28)">
      <use xlink:href="#DejaVuSans-45"/>
      <use x="36.083984" xlink:href="#DejaVuSans-108"/>
      <use x="63.867188" xlink:href="#DejaVuSans-111"/>
      <use x="125.048828" xlink:href="#DejaVuSans-103"/>
      <use x="188.525391" xlink:href="#DejaVuSans-49"/>
      <use x="252.148438" xlink:href="#DejaVuSans-48"/>
      <use x="315.771484" xlink:href="#DejaVuSans-32"/>
      <use x="347.558594" xlink:href="#DejaVuSans-112"/>
      <use x="411.035156" xlink:href="#DejaVuSans-45"/>
      <use x="447.087891" xlink:href="#DejaVuSans-118"/>
      <use x="506.267578" xlink:href="#DejaVuSans-97"/>
      <use x="567.546875" xlink:href="#DejaVuSans-108"/>
      <use x="595.330078" xlink:href="#DejaVuSans-117"/>
      <use x="658.708984" xlink:href="#DejaVuSans-101"/>
     </g>
    </g>
   </g>
   <g id="matplotlib.axis_6">
    <g id="ytick_11"/>
    <g id="ytick_12"/>
    <g id="ytick_13"/>
    <g id="ytick_14"/>
    <g id="ytick_15"/>
   </g>
   <g id="line2d_22">
    <path clip-path="url(#p8aba502314)" d="M 804.269773 27.319208 
L 805.7425 27.374655 
L 806.724318 27.430754 
L 812.124318 27.487517 
L 814.087955 27.661909 
L 818.506136 27.721449 
L 819.978864 27.84272 
L 821.9425 27.904479 
L 822.924318 27.967005 
L 827.833409 28.030313 
L 830.287955 28.291659 
L 832.251591 28.359103 
L 833.724318 28.496636 
L 838.1425 28.56676 
L 838.633409 26.837813 
L 842.560682 26.897813 
L 844.033409 27.020245 
L 844.524318 27.020245 
L 845.015227 25.284388 
L 846.487955 25.335744 
L 846.978864 25.335744 
L 847.469773 23.500313 
L 856.797045 23.580066 
L 858.760682 23.662098 
L 863.669773 23.746508 
L 864.160682 21.805696 
L 868.578864 21.894529 
L 870.5425 21.925031 
L 881.3425 22.019351 
L 883.306136 22.051766 
L 889.687955 22.152098 
L 893.124318 22.29355 
L 899.997045 22.367813 
L 901.469773 22.40588 
L 907.360682 22.483966 
L 908.3425 22.564769 
L 922.087955 22.648432 
L 923.560682 22.691384 
L 933.378864 22.779631 
L 934.360682 22.871146 
L 935.833409 22.918186 
L 941.724318 23.014955 
L 943.197045 23.064736 
L 945.651591 23.064736 
L 946.1425 20.476647 
L 953.506136 20.555813 
L 954.487955 20.639874 
L 957.924318 20.729302 
L 959.887955 20.760393 
L 967.7425 20.824626 
L 969.215227 20.926449 
L 1009.960682 20.998278 
L 1010.9425 21.073527 
L 1018.797045 21.112511 
L 1019.287955 17.837813 
L 1098.815227 17.837813 
L 1098.815227 17.837813 
" style="fill:none;stroke:#8b0000;stroke-linecap:square;stroke-width:2;"/>
   </g>
   <g id="line2d_23">
    <path clip-path="url(#p8aba502314)" d="M 804.269773 197.984324 
L 805.251591 197.984324 
L 806.233409 196.906048 
L 811.633409 196.906048 
L 812.124318 196.357339 
L 812.615227 197.419955 
L 813.106136 197.946246 
L 817.524318 197.946246 
L 818.015227 197.39054 
L 818.506136 197.39054 
L 818.997045 196.828056 
L 819.487955 196.828056 
L 819.978864 196.258671 
L 820.469773 196.258671 
L 820.960682 195.682257 
L 821.9425 195.682257 
L 822.433409 195.098682 
L 825.378864 195.098682 
L 825.869773 194.507812 
L 827.833409 194.507812 
L 828.324318 195.618945 
L 828.815227 195.023888 
L 829.797045 197.295505 
L 831.269773 197.295505 
L 831.760682 196.699748 
L 832.251591 196.699748 
L 833.233409 195.484871 
L 836.669773 195.484871 
L 837.160682 194.865444 
L 838.1425 194.865444 
L 838.633409 194.237813 
L 839.124318 194.237813 
L 839.615227 195.413813 
L 842.560682 195.413813 
L 843.051591 194.781437 
L 843.5425 194.781437 
L 844.033409 194.140515 
L 844.524318 194.140515 
L 845.015227 194.693977 
L 845.506136 194.039192 
L 846.978864 194.039192 
L 847.469773 193.375313 
L 848.9425 193.375313 
L 849.433409 192.702148 
L 855.815227 192.702148 
L 856.306136 193.933587 
L 856.797045 193.933587 
L 857.287955 193.254834 
L 857.778864 194.507812 
L 859.7425 194.507812 
L 860.233409 195.77882 
L 861.215227 195.77882 
L 861.706136 195.098682 
L 863.669773 195.098682 
L 864.160682 194.408615 
L 865.633409 194.408615 
L 866.124318 195.011146 
L 866.615227 195.011146 
L 867.106136 194.304977 
L 868.578864 194.304977 
L 869.069773 193.588188 
L 873.978864 193.588188 
L 874.469773 194.919631 
L 875.9425 194.919631 
L 876.433409 194.196591 
L 876.924318 194.196591 
L 877.415227 193.462428 
L 881.3425 193.462428 
L 881.833409 192.716882 
L 884.287955 192.716882 
L 884.778864 191.959688 
L 886.7425 191.959688 
L 887.233409 191.190568 
L 888.706136 191.190568 
L 889.197045 190.409241 
L 889.687955 190.409241 
L 890.178864 189.615413 
L 890.669773 189.615413 
L 891.160682 188.80878 
L 891.651591 188.80878 
L 892.1425 189.383714 
L 894.597045 189.383714 
L 895.087955 187.712813 
L 899.997045 187.712813 
L 900.487955 186.8563 
L 903.433409 186.8563 
L 903.924318 185.98527 
L 906.378864 185.98527 
L 906.869773 187.422428 
L 907.360682 187.422428 
L 907.851591 188.008247 
L 913.251591 188.008247 
L 913.7425 187.11676 
L 919.1425 187.11676 
L 919.633409 186.209494 
L 922.087955 186.209494 
L 922.578864 185.286027 
L 932.887955 185.286027 
L 933.869773 186.454479 
L 934.360682 186.454479 
L 934.851591 188.030336 
L 936.324318 188.030336 
L 936.815227 187.071775 
L 940.251591 187.071775 
L 940.7425 186.094955 
L 941.724318 186.094955 
L 942.215227 185.099351 
L 945.651591 185.099351 
L 946.1425 184.084414 
L 948.597045 184.084414 
L 949.087955 183.049577 
L 950.560682 183.049577 
L 951.051591 180.917813 
L 953.506136 180.917813 
L 953.997045 177.555338 
L 954.978864 177.555338 
L 955.469773 179.219063 
L 956.451591 179.219063 
L 956.9425 178.05676 
L 957.433409 178.05676 
L 957.924318 176.869727 
L 958.415227 178.579748 
L 962.3425 178.579748 
L 962.833409 180.326943 
L 964.797045 180.326943 
L 965.287955 179.125725 
L 967.7425 179.125725 
L 968.233409 179.696239 
L 968.724318 179.696239 
L 969.215227 181.53554 
L 970.687955 181.53554 
L 971.178864 180.292985 
L 990.815227 180.292985 
L 991.306136 179.021533 
L 1009.960682 179.021533 
L 1010.451591 176.387812 
L 1012.415227 176.387812 
L 1012.906136 175.023355 
L 1018.797045 175.023355 
L 1019.287955 175.548924 
L 1022.233409 175.548924 
L 1022.724318 177.520313 
L 1030.087955 177.520313 
L 1030.578864 176.101104 
L 1034.506136 176.101104 
L 1034.997045 178.13012 
L 1039.415227 178.13012 
L 1039.906136 180.211838 
L 1045.306136 180.211838 
L 1045.797045 180.917813 
L 1051.687955 180.917813 
L 1052.178864 179.448623 
L 1059.5425 179.448623 
L 1060.033409 176.387812 
L 1068.869773 176.387812 
L 1069.360682 173.723107 
L 1081.1425 173.723107 
L 1081.633409 179.219063 
L 1098.815227 179.219063 
L 1098.815227 179.219063 
" style="fill:none;stroke:#000080;stroke-linecap:square;stroke-width:2;"/>
   </g>
   <g id="patch_9">
    <path d="M 789.5425 289.637812 
L 789.5425 17.837813 
" style="fill:none;stroke:#000000;stroke-linecap:square;stroke-linejoin:miter;"/>
   </g>
   <g id="patch_10">
    <path d="M 789.5425 289.637812 
L 1113.5425 289.637812 
" style="fill:none;stroke:#000000;stroke-linecap:square;stroke-linejoin:miter;"/>
   </g>
  </g>
 </g>
 <defs>
  <clipPath id="pc7ecb410c2">
   <rect height="271.8" width="324" x="109.1425" y="17.837812"/>
  </clipPath>
  <clipPath id="pb179dfd295">
   <rect height="271.8" width="324" x="449.3425" y="17.837812"/>
  </clipPath>
  <clipPath id="p8aba502314">
   <rect height="271.8" width="324" x="789.5425" y="17.837812"/>
  </clipPath>
 </defs>
</svg>
