<?xml version="1.0" encoding="utf-8" standalone="no"?>
<!DOCTYPE svg PUBLIC "-//W3C//DTD SVG 1.1//EN"
  "http://www.w3.org/Graphics/SVG/1.1/DTD/svg11.dtd">
<!-- Created with matplotlib (https://matplotlib.org/) -->
<svg height="358.2975pt" version="1.1" viewBox="0 0 1102.9275 358.2975" width="1102.9275pt" xmlns="http://www.w3.org/2000/svg" xmlns:xlink="http://www.w3.org/1999/xlink">
 <defs>
  <style type="text/css">
*{stroke-linecap:butt;stroke-linejoin:round;}
  </style>
 </defs>
 <g id="figure_1">
  <g id="patch_1">
   <path d="M 0 358.2975 
L 1102.9275 358.2975 
L 1102.9275 0 
L 0 0 
z
" style="fill:none;"/>
  </g>
  <g id="axes_1">
   <g id="patch_2">
    <path d="M 91.3275 284.4 
L 415.3275 284.4 
L 415.3275 7.2 
L 91.3275 7.2 
z
" style="fill:none;"/>
   </g>
   <g id="matplotlib.axis_1">
    <g id="xtick_1">
     <g id="line2d_1">
      <defs>
       <path d="M 0 0 
L 0 5 
" id="mef71136b07" style="stroke:#000000;stroke-width:0.8;"/>
      </defs>
      <g>
       <use style="stroke:#000000;stroke-width:0.8;" x="106.054773" xlink:href="#mef71136b07" y="284.4"/>
      </g>
     </g>
     <g id="text_1">
      <!-- 1 -->
      <defs>
       <path d="M 12.40625 8.296875 
L 28.515625 8.296875 
L 28.515625 63.921875 
L 10.984375 60.40625 
L 10.984375 69.390625 
L 28.421875 72.90625 
L 38.28125 72.90625 
L 38.28125 8.296875 
L 54.390625 8.296875 
L 54.390625 0 
L 12.40625 0 
z
" id="DejaVuSans-49"/>
      </defs>
      <g transform="translate(97.147273 314.175625)scale(0.28 -0.28)">
       <use xlink:href="#DejaVuSans-49"/>
      </g>
     </g>
    </g>
    <g id="xtick_2">
     <g id="line2d_2">
      <g>
       <use style="stroke:#000000;stroke-width:0.8;" x="179.691136" xlink:href="#mef71136b07" y="284.4"/>
      </g>
     </g>
     <g id="text_2">
      <!-- 2 -->
      <defs>
       <path d="M 19.1875 8.296875 
L 53.609375 8.296875 
L 53.609375 0 
L 7.328125 0 
L 7.328125 8.296875 
Q 12.9375 14.109375 22.625 23.890625 
Q 32.328125 33.6875 34.8125 36.53125 
Q 39.546875 41.84375 41.421875 45.53125 
Q 43.3125 49.21875 43.3125 52.78125 
Q 43.3125 58.59375 39.234375 62.25 
Q 35.15625 65.921875 28.609375 65.921875 
Q 23.96875 65.921875 18.8125 64.3125 
Q 13.671875 62.703125 7.8125 59.421875 
L 7.8125 69.390625 
Q 13.765625 71.78125 18.9375 73 
Q 24.125 74.21875 28.421875 74.21875 
Q 39.75 74.21875 46.484375 68.546875 
Q 53.21875 62.890625 53.21875 53.421875 
Q 53.21875 48.921875 51.53125 44.890625 
Q 49.859375 40.875 45.40625 35.40625 
Q 44.1875 33.984375 37.640625 27.21875 
Q 31.109375 20.453125 19.1875 8.296875 
z
" id="DejaVuSans-50"/>
      </defs>
      <g transform="translate(170.783636 314.175625)scale(0.28 -0.28)">
       <use xlink:href="#DejaVuSans-50"/>
      </g>
     </g>
    </g>
    <g id="xtick_3">
     <g id="line2d_3">
      <g>
       <use style="stroke:#000000;stroke-width:0.8;" x="253.3275" xlink:href="#mef71136b07" y="284.4"/>
      </g>
     </g>
     <g id="text_3">
      <!-- 3 -->
      <defs>
       <path d="M 40.578125 39.3125 
Q 47.65625 37.796875 51.625 33 
Q 55.609375 28.21875 55.609375 21.1875 
Q 55.609375 10.40625 48.1875 4.484375 
Q 40.765625 -1.421875 27.09375 -1.421875 
Q 22.515625 -1.421875 17.65625 -0.515625 
Q 12.796875 0.390625 7.625 2.203125 
L 7.625 11.71875 
Q 11.71875 9.328125 16.59375 8.109375 
Q 21.484375 6.890625 26.8125 6.890625 
Q 36.078125 6.890625 40.9375 10.546875 
Q 45.796875 14.203125 45.796875 21.1875 
Q 45.796875 27.640625 41.28125 31.265625 
Q 36.765625 34.90625 28.71875 34.90625 
L 20.21875 34.90625 
L 20.21875 43.015625 
L 29.109375 43.015625 
Q 36.375 43.015625 40.234375 45.921875 
Q 44.09375 48.828125 44.09375 54.296875 
Q 44.09375 59.90625 40.109375 62.90625 
Q 36.140625 65.921875 28.71875 65.921875 
Q 24.65625 65.921875 20.015625 65.03125 
Q 15.375 64.15625 9.8125 62.3125 
L 9.8125 71.09375 
Q 15.4375 72.65625 20.34375 73.4375 
Q 25.25 74.21875 29.59375 74.21875 
Q 40.828125 74.21875 47.359375 69.109375 
Q 53.90625 64.015625 53.90625 55.328125 
Q 53.90625 49.265625 50.4375 45.09375 
Q 46.96875 40.921875 40.578125 39.3125 
z
" id="DejaVuSans-51"/>
      </defs>
      <g transform="translate(244.42 314.175625)scale(0.28 -0.28)">
       <use xlink:href="#DejaVuSans-51"/>
      </g>
     </g>
    </g>
    <g id="xtick_4">
     <g id="line2d_4">
      <g>
       <use style="stroke:#000000;stroke-width:0.8;" x="326.963864" xlink:href="#mef71136b07" y="284.4"/>
      </g>
     </g>
     <g id="text_4">
      <!-- 4 -->
      <defs>
       <path d="M 37.796875 64.3125 
L 12.890625 25.390625 
L 37.796875 25.390625 
z
M 35.203125 72.90625 
L 47.609375 72.90625 
L 47.609375 25.390625 
L 58.015625 25.390625 
L 58.015625 17.1875 
L 47.609375 17.1875 
L 47.609375 0 
L 37.796875 0 
L 37.796875 17.1875 
L 4.890625 17.1875 
L 4.890625 26.703125 
z
" id="DejaVuSans-52"/>
      </defs>
      <g transform="translate(318.056364 314.175625)scale(0.28 -0.28)">
       <use xlink:href="#DejaVuSans-52"/>
      </g>
     </g>
    </g>
    <g id="xtick_5">
     <g id="line2d_5">
      <g>
       <use style="stroke:#000000;stroke-width:0.8;" x="400.600227" xlink:href="#mef71136b07" y="284.4"/>
      </g>
     </g>
     <g id="text_5">
      <!-- 5 -->
      <defs>
       <path d="M 10.796875 72.90625 
L 49.515625 72.90625 
L 49.515625 64.59375 
L 19.828125 64.59375 
L 19.828125 46.734375 
Q 21.96875 47.46875 24.109375 47.828125 
Q 26.265625 48.1875 28.421875 48.1875 
Q 40.625 48.1875 47.75 41.5 
Q 54.890625 34.8125 54.890625 23.390625 
Q 54.890625 11.625 47.5625 5.09375 
Q 40.234375 -1.421875 26.90625 -1.421875 
Q 22.3125 -1.421875 17.546875 -0.640625 
Q 12.796875 0.140625 7.71875 1.703125 
L 7.71875 11.625 
Q 12.109375 9.234375 16.796875 8.0625 
Q 21.484375 6.890625 26.703125 6.890625 
Q 35.15625 6.890625 40.078125 11.328125 
Q 45.015625 15.765625 45.015625 23.390625 
Q 45.015625 31 40.078125 35.4375 
Q 35.15625 39.890625 26.703125 39.890625 
Q 22.75 39.890625 18.8125 39.015625 
Q 14.890625 38.140625 10.796875 36.28125 
z
" id="DejaVuSans-53"/>
      </defs>
      <g transform="translate(391.692727 314.175625)scale(0.28 -0.28)">
       <use xlink:href="#DejaVuSans-53"/>
      </g>
     </g>
    </g>
    <g id="text_6">
     <!-- -log10 p-value -->
     <defs>
      <path d="M 4.890625 31.390625 
L 31.203125 31.390625 
L 31.203125 23.390625 
L 4.890625 23.390625 
z
" id="DejaVuSans-45"/>
      <path d="M 9.421875 75.984375 
L 18.40625 75.984375 
L 18.40625 0 
L 9.421875 0 
z
" id="DejaVuSans-108"/>
      <path d="M 30.609375 48.390625 
Q 23.390625 48.390625 19.1875 42.75 
Q 14.984375 37.109375 14.984375 27.296875 
Q 14.984375 17.484375 19.15625 11.84375 
Q 23.34375 6.203125 30.609375 6.203125 
Q 37.796875 6.203125 41.984375 11.859375 
Q 46.1875 17.53125 46.1875 27.296875 
Q 46.1875 37.015625 41.984375 42.703125 
Q 37.796875 48.390625 30.609375 48.390625 
z
M 30.609375 56 
Q 42.328125 56 49.015625 48.375 
Q 55.71875 40.765625 55.71875 27.296875 
Q 55.71875 13.875 49.015625 6.21875 
Q 42.328125 -1.421875 30.609375 -1.421875 
Q 18.84375 -1.421875 12.171875 6.21875 
Q 5.515625 13.875 5.515625 27.296875 
Q 5.515625 40.765625 12.171875 48.375 
Q 18.84375 56 30.609375 56 
z
" id="DejaVuSans-111"/>
      <path d="M 45.40625 27.984375 
Q 45.40625 37.75 41.375 43.109375 
Q 37.359375 48.484375 30.078125 48.484375 
Q 22.859375 48.484375 18.828125 43.109375 
Q 14.796875 37.75 14.796875 27.984375 
Q 14.796875 18.265625 18.828125 12.890625 
Q 22.859375 7.515625 30.078125 7.515625 
Q 37.359375 7.515625 41.375 12.890625 
Q 45.40625 18.265625 45.40625 27.984375 
z
M 54.390625 6.78125 
Q 54.390625 -7.171875 48.1875 -13.984375 
Q 42 -20.796875 29.203125 -20.796875 
Q 24.46875 -20.796875 20.265625 -20.09375 
Q 16.0625 -19.390625 12.109375 -17.921875 
L 12.109375 -9.1875 
Q 16.0625 -11.328125 19.921875 -12.34375 
Q 23.78125 -13.375 27.78125 -13.375 
Q 36.625 -13.375 41.015625 -8.765625 
Q 45.40625 -4.15625 45.40625 5.171875 
L 45.40625 9.625 
Q 42.625 4.78125 38.28125 2.390625 
Q 33.9375 0 27.875 0 
Q 17.828125 0 11.671875 7.65625 
Q 5.515625 15.328125 5.515625 27.984375 
Q 5.515625 40.671875 11.671875 48.328125 
Q 17.828125 56 27.875 56 
Q 33.9375 56 38.28125 53.609375 
Q 42.625 51.21875 45.40625 46.390625 
L 45.40625 54.6875 
L 54.390625 54.6875 
z
" id="DejaVuSans-103"/>
      <path d="M 31.78125 66.40625 
Q 24.171875 66.40625 20.328125 58.90625 
Q 16.5 51.421875 16.5 36.375 
Q 16.5 21.390625 20.328125 13.890625 
Q 24.171875 6.390625 31.78125 6.390625 
Q 39.453125 6.390625 43.28125 13.890625 
Q 47.125 21.390625 47.125 36.375 
Q 47.125 51.421875 43.28125 58.90625 
Q 39.453125 66.40625 31.78125 66.40625 
z
M 31.78125 74.21875 
Q 44.046875 74.21875 50.515625 64.515625 
Q 56.984375 54.828125 56.984375 36.375 
Q 56.984375 17.96875 50.515625 8.265625 
Q 44.046875 -1.421875 31.78125 -1.421875 
Q 19.53125 -1.421875 13.0625 8.265625 
Q 6.59375 17.96875 6.59375 36.375 
Q 6.59375 54.828125 13.0625 64.515625 
Q 19.53125 74.21875 31.78125 74.21875 
z
" id="DejaVuSans-48"/>
      <path id="DejaVuSans-32"/>
      <path d="M 18.109375 8.203125 
L 18.109375 -20.796875 
L 9.078125 -20.796875 
L 9.078125 54.6875 
L 18.109375 54.6875 
L 18.109375 46.390625 
Q 20.953125 51.265625 25.265625 53.625 
Q 29.59375 56 35.59375 56 
Q 45.5625 56 51.78125 48.09375 
Q 58.015625 40.1875 58.015625 27.296875 
Q 58.015625 14.40625 51.78125 6.484375 
Q 45.5625 -1.421875 35.59375 -1.421875 
Q 29.59375 -1.421875 25.265625 0.953125 
Q 20.953125 3.328125 18.109375 8.203125 
z
M 48.6875 27.296875 
Q 48.6875 37.203125 44.609375 42.84375 
Q 40.53125 48.484375 33.40625 48.484375 
Q 26.265625 48.484375 22.1875 42.84375 
Q 18.109375 37.203125 18.109375 27.296875 
Q 18.109375 17.390625 22.1875 11.75 
Q 26.265625 6.109375 33.40625 6.109375 
Q 40.53125 6.109375 44.609375 11.75 
Q 48.6875 17.390625 48.6875 27.296875 
z
" id="DejaVuSans-112"/>
      <path d="M 2.984375 54.6875 
L 12.5 54.6875 
L 29.59375 8.796875 
L 46.6875 54.6875 
L 56.203125 54.6875 
L 35.6875 0 
L 23.484375 0 
z
" id="DejaVuSans-118"/>
      <path d="M 34.28125 27.484375 
Q 23.390625 27.484375 19.1875 25 
Q 14.984375 22.515625 14.984375 16.5 
Q 14.984375 11.71875 18.140625 8.90625 
Q 21.296875 6.109375 26.703125 6.109375 
Q 34.1875 6.109375 38.703125 11.40625 
Q 43.21875 16.703125 43.21875 25.484375 
L 43.21875 27.484375 
z
M 52.203125 31.203125 
L 52.203125 0 
L 43.21875 0 
L 43.21875 8.296875 
Q 40.140625 3.328125 35.546875 0.953125 
Q 30.953125 -1.421875 24.3125 -1.421875 
Q 15.921875 -1.421875 10.953125 3.296875 
Q 6 8.015625 6 15.921875 
Q 6 25.140625 12.171875 29.828125 
Q 18.359375 34.515625 30.609375 34.515625 
L 43.21875 34.515625 
L 43.21875 35.40625 
Q 43.21875 41.609375 39.140625 45 
Q 35.0625 48.390625 27.6875 48.390625 
Q 23 48.390625 18.546875 47.265625 
Q 14.109375 46.140625 10.015625 43.890625 
L 10.015625 52.203125 
Q 14.9375 54.109375 19.578125 55.046875 
Q 24.21875 56 28.609375 56 
Q 40.484375 56 46.34375 49.84375 
Q 52.203125 43.703125 52.203125 31.203125 
z
" id="DejaVuSans-97"/>
      <path d="M 8.5 21.578125 
L 8.5 54.6875 
L 17.484375 54.6875 
L 17.484375 21.921875 
Q 17.484375 14.15625 20.5 10.265625 
Q 23.53125 6.390625 29.59375 6.390625 
Q 36.859375 6.390625 41.078125 11.03125 
Q 45.3125 15.671875 45.3125 23.6875 
L 45.3125 54.6875 
L 54.296875 54.6875 
L 54.296875 0 
L 45.3125 0 
L 45.3125 8.40625 
Q 42.046875 3.421875 37.71875 1 
Q 33.40625 -1.421875 27.6875 -1.421875 
Q 18.265625 -1.421875 13.375 4.4375 
Q 8.5 10.296875 8.5 21.578125 
z
M 31.109375 56 
z
" id="DejaVuSans-117"/>
      <path d="M 56.203125 29.59375 
L 56.203125 25.203125 
L 14.890625 25.203125 
Q 15.484375 15.921875 20.484375 11.0625 
Q 25.484375 6.203125 34.421875 6.203125 
Q 39.59375 6.203125 44.453125 7.46875 
Q 49.3125 8.734375 54.109375 11.28125 
L 54.109375 2.78125 
Q 49.265625 0.734375 44.1875 -0.34375 
Q 39.109375 -1.421875 33.890625 -1.421875 
Q 20.796875 -1.421875 13.15625 6.1875 
Q 5.515625 13.8125 5.515625 26.8125 
Q 5.515625 40.234375 12.765625 48.109375 
Q 20.015625 56 32.328125 56 
Q 43.359375 56 49.78125 48.890625 
Q 56.203125 41.796875 56.203125 29.59375 
z
M 47.21875 32.234375 
Q 47.125 39.59375 43.09375 43.984375 
Q 39.0625 48.390625 32.421875 48.390625 
Q 24.90625 48.390625 20.390625 44.140625 
Q 15.875 39.890625 15.1875 32.171875 
z
" id="DejaVuSans-101"/>
     </defs>
     <g transform="translate(152.4925 345.274375)scale(0.28 -0.28)">
      <use xlink:href="#DejaVuSans-45"/>
      <use x="36.083984" xlink:href="#DejaVuSans-108"/>
      <use x="63.867188" xlink:href="#DejaVuSans-111"/>
      <use x="125.048828" xlink:href="#DejaVuSans-103"/>
      <use x="188.525391" xlink:href="#DejaVuSans-49"/>
      <use x="252.148438" xlink:href="#DejaVuSans-48"/>
      <use x="315.771484" xlink:href="#DejaVuSans-32"/>
      <use x="347.558594" xlink:href="#DejaVuSans-112"/>
      <use x="411.035156" xlink:href="#DejaVuSans-45"/>
      <use x="447.087891" xlink:href="#DejaVuSans-118"/>
      <use x="506.267578" xlink:href="#DejaVuSans-97"/>
      <use x="567.546875" xlink:href="#DejaVuSans-108"/>
      <use x="595.330078" xlink:href="#DejaVuSans-117"/>
      <use x="658.708984" xlink:href="#DejaVuSans-101"/>
     </g>
    </g>
   </g>
   <g id="matplotlib.axis_2">
    <g id="ytick_1">
     <g id="line2d_6">
      <defs>
       <path d="M 0 0 
L -5 0 
" id="mc420acfcab" style="stroke:#000000;stroke-width:0.8;"/>
      </defs>
      <g>
       <use style="stroke:#000000;stroke-width:0.8;" x="91.3275" xlink:href="#mc420acfcab" y="284.4"/>
      </g>
     </g>
     <g id="text_7">
      <!-- 0.0 -->
      <defs>
       <path d="M 10.6875 12.40625 
L 21 12.40625 
L 21 0 
L 10.6875 0 
z
" id="DejaVuSans-46"/>
      </defs>
      <g transform="translate(38.29875 295.037813)scale(0.28 -0.28)">
       <use xlink:href="#DejaVuSans-48"/>
       <use x="63.623047" xlink:href="#DejaVuSans-46"/>
       <use x="95.410156" xlink:href="#DejaVuSans-48"/>
      </g>
     </g>
    </g>
    <g id="ytick_2">
     <g id="line2d_7">
      <g>
       <use style="stroke:#000000;stroke-width:0.8;" x="91.3275" xlink:href="#mc420acfcab" y="152.4"/>
      </g>
     </g>
     <g id="text_8">
      <!-- 0.5 -->
      <g transform="translate(38.29875 163.037812)scale(0.28 -0.28)">
       <use xlink:href="#DejaVuSans-48"/>
       <use x="63.623047" xlink:href="#DejaVuSans-46"/>
       <use x="95.410156" xlink:href="#DejaVuSans-53"/>
      </g>
     </g>
    </g>
    <g id="ytick_3">
     <g id="line2d_8">
      <g>
       <use style="stroke:#000000;stroke-width:0.8;" x="91.3275" xlink:href="#mc420acfcab" y="20.4"/>
      </g>
     </g>
     <g id="text_9">
      <!-- 1.0 -->
      <g transform="translate(38.29875 31.037812)scale(0.28 -0.28)">
       <use xlink:href="#DejaVuSans-49"/>
       <use x="63.623047" xlink:href="#DejaVuSans-46"/>
       <use x="95.410156" xlink:href="#DejaVuSans-48"/>
      </g>
     </g>
    </g>
    <g id="text_10">
     <!-- Recall -->
     <defs>
      <path d="M 44.390625 34.1875 
Q 47.5625 33.109375 50.5625 29.59375 
Q 53.5625 26.078125 56.59375 19.921875 
L 66.609375 0 
L 56 0 
L 46.6875 18.703125 
Q 43.0625 26.03125 39.671875 28.421875 
Q 36.28125 30.8125 30.421875 30.8125 
L 19.671875 30.8125 
L 19.671875 0 
L 9.8125 0 
L 9.8125 72.90625 
L 32.078125 72.90625 
Q 44.578125 72.90625 50.734375 67.671875 
Q 56.890625 62.453125 56.890625 51.90625 
Q 56.890625 45.015625 53.6875 40.46875 
Q 50.484375 35.9375 44.390625 34.1875 
z
M 19.671875 64.796875 
L 19.671875 38.921875 
L 32.078125 38.921875 
Q 39.203125 38.921875 42.84375 42.21875 
Q 46.484375 45.515625 46.484375 51.90625 
Q 46.484375 58.296875 42.84375 61.546875 
Q 39.203125 64.796875 32.078125 64.796875 
z
" id="DejaVuSans-82"/>
      <path d="M 48.78125 52.59375 
L 48.78125 44.1875 
Q 44.96875 46.296875 41.140625 47.34375 
Q 37.3125 48.390625 33.40625 48.390625 
Q 24.65625 48.390625 19.8125 42.84375 
Q 14.984375 37.3125 14.984375 27.296875 
Q 14.984375 17.28125 19.8125 11.734375 
Q 24.65625 6.203125 33.40625 6.203125 
Q 37.3125 6.203125 41.140625 7.25 
Q 44.96875 8.296875 48.78125 10.40625 
L 48.78125 2.09375 
Q 45.015625 0.34375 40.984375 -0.53125 
Q 36.96875 -1.421875 32.421875 -1.421875 
Q 20.0625 -1.421875 12.78125 6.34375 
Q 5.515625 14.109375 5.515625 27.296875 
Q 5.515625 40.671875 12.859375 48.328125 
Q 20.21875 56 33.015625 56 
Q 37.15625 56 41.109375 55.140625 
Q 45.0625 54.296875 48.78125 52.59375 
z
" id="DejaVuSans-99"/>
     </defs>
     <g transform="translate(28.475625 188.189375)rotate(-90)scale(0.28 -0.28)">
      <use xlink:href="#DejaVuSans-82"/>
      <use x="69.419922" xlink:href="#DejaVuSans-101"/>
      <use x="130.943359" xlink:href="#DejaVuSans-99"/>
      <use x="185.923828" xlink:href="#DejaVuSans-97"/>
      <use x="247.203125" xlink:href="#DejaVuSans-108"/>
      <use x="274.986328" xlink:href="#DejaVuSans-108"/>
     </g>
    </g>
   </g>
   <g id="line2d_9">
    <path clip-path="url(#pf574d2f4e0)" d="M 106.054773 259.986207 
L 109.736591 259.236834 
L 113.418409 258.990538 
L 117.100227 258.708725 
L 120.782045 258.866321 
L 124.463864 257.810072 
L 128.145682 257.471038 
L 131.8275 256.766355 
L 135.509318 256.690076 
L 139.191136 256.040625 
L 142.872955 255.066667 
L 146.554773 254.4 
L 150.236591 254.45042 
L 153.918409 254.309677 
L 157.600227 253.715789 
L 161.282045 253.097987 
L 164.963864 252.527563 
L 168.645682 251.935963 
L 172.3275 251.557895 
L 176.009318 250.67027 
L 179.691136 249.907538 
L 183.372955 250.140458 
L 187.054773 249.609302 
L 190.736591 248.780952 
L 194.418409 248.496 
L 198.100227 248.010811 
L 201.782045 247.309091 
L 205.463864 246.258357 
L 209.145682 245.821203 
L 212.8275 244.916129 
L 216.509318 244.447478 
L 220.191136 243.6 
L 223.872955 243.406211 
L 227.554773 243.333333 
L 231.236591 242.805145 
L 234.918409 242.263192 
L 238.600227 241.986885 
L 242.282045 241.565563 
L 245.963864 241.28 
L 249.645682 240.549153 
L 253.3275 239.326829 
L 257.009318 238.52766 
L 260.691136 237.867626 
L 264.372955 237.530435 
L 268.054773 237.015385 
L 271.736591 236.488889 
L 275.418409 235.950562 
L 279.100227 235.584906 
L 282.782045 235.283721 
L 286.463864 235.092607 
L 290.145682 235.356522 
L 293.8275 234.165182 
L 297.509318 233.338272 
L 301.191136 233.8 
L 304.872955 233.159494 
L 308.554773 232.502564 
L 312.236591 232.747826 
L 315.918409 231.833628 
L 319.600227 231.126457 
L 323.282045 230.886486 
L 326.963864 231.6 
L 330.645682 231.358904 
L 334.3275 231.844444 
L 338.009318 231.850237 
L 341.691136 230.834783 
L 345.372955 230.312195 
L 349.054773 231.862687 
L 352.736591 231.6 
L 356.418409 231.334673 
L 360.100227 230.522449 
L 363.782045 230.494241 
L 367.463864 230.494241 
L 371.145682 229.634043 
L 374.8275 229.634043 
L 378.509318 229.341176 
L 382.191136 229.045161 
L 385.872955 228.443478 
L 389.554773 228.137705 
L 393.236591 227.516022 
L 396.918409 228.355307 
L 400.600227 228.9 
" style="fill:none;stroke:#8b0000;stroke-linecap:square;stroke-width:2;"/>
   </g>
   <g id="line2d_10">
    <path clip-path="url(#pf574d2f4e0)" d="M 106.054773 211.158621 
L 109.736591 208.910501 
L 113.418409 208.602284 
L 117.100227 207.326174 
L 120.782045 206.887047 
L 124.463864 205.579856 
L 128.145682 205.055738 
L 131.8275 203.966355 
L 135.509318 203.285496 
L 139.191136 201.384375 
L 142.872955 199.6 
L 146.554773 197.672727 
L 150.236591 197.32437 
L 153.918409 197.535484 
L 157.600227 196.4 
L 161.282045 195.218792 
L 164.963864 194.796355 
L 168.645682 193.133179 
L 172.3275 192.189474 
L 176.009318 191.643243 
L 179.691136 189.545729 
L 183.372955 190.354198 
L 187.054773 188.896124 
L 190.736591 186.622222 
L 194.418409 186.544 
L 198.100227 185.221622 
L 201.782045 184.036364 
L 205.463864 183.436827 
L 209.145682 182.279656 
L 212.8275 182.980645 
L 216.509318 181.776855 
L 220.191136 179.6 
L 223.872955 178.636025 
L 227.554773 178.8 
L 231.236591 178.290675 
L 234.918409 177.768078 
L 238.600227 177.068852 
L 242.282045 176.876821 
L 245.963864 177.04 
L 249.645682 177.905085 
L 253.3275 175.856446 
L 257.009318 174.868085 
L 260.691136 174.241727 
L 264.372955 174.4 
L 268.054773 175.125275 
L 271.736591 173.911111 
L 275.418409 173.658427 
L 279.100227 173.818868 
L 282.782045 172.865116 
L 286.463864 172.431128 
L 290.145682 171.704348 
L 293.8275 172.173279 
L 297.509318 172.498765 
L 301.191136 172.2 
L 304.872955 170.779747 
L 308.554773 172.707692 
L 312.236591 171.913043 
L 315.918409 169.922124 
L 319.600227 170.749776 
L 323.282045 170.237838 
L 326.963864 171.6 
L 330.645682 171.084932 
L 334.3275 170.733333 
L 338.009318 170.54218 
L 341.691136 170.892754 
L 345.372955 169.785366 
L 349.054773 171.444776 
L 352.736591 170.88 
L 356.418409 171.636181 
L 360.100227 172.604082 
L 363.782045 172.441885 
L 367.463864 172.441885 
L 371.145682 170.655319 
L 374.8275 170.655319 
L 378.509318 171.458824 
L 382.191136 170.851613 
L 385.872955 172.486957 
L 389.554773 171.87541 
L 393.236591 170.632044 
L 396.918409 170.835754 
L 400.600227 171.9 
" style="fill:none;stroke:#000080;stroke-linecap:square;stroke-width:2;"/>
   </g>
   <g id="patch_3">
    <path d="M 91.3275 284.4 
L 91.3275 7.2 
" style="fill:none;stroke:#000000;stroke-linecap:square;stroke-linejoin:miter;stroke-width:0.8;"/>
   </g>
   <g id="patch_4">
    <path d="M 91.3275 284.4 
L 415.3275 284.4 
" style="fill:none;stroke:#000000;stroke-linecap:square;stroke-linejoin:miter;stroke-width:0.8;"/>
   </g>
  </g>
  <g id="axes_2">
   <g id="patch_5">
    <path d="M 431.5275 284.4 
L 755.5275 284.4 
L 755.5275 7.2 
L 431.5275 7.2 
z
" style="fill:none;"/>
   </g>
   <g id="matplotlib.axis_3">
    <g id="xtick_6">
     <g id="line2d_11">
      <g>
       <use style="stroke:#000000;stroke-width:0.8;" x="446.254773" xlink:href="#mef71136b07" y="284.4"/>
      </g>
     </g>
     <g id="text_11">
      <!-- 1 -->
      <g transform="translate(437.347273 314.175625)scale(0.28 -0.28)">
       <use xlink:href="#DejaVuSans-49"/>
      </g>
     </g>
    </g>
    <g id="xtick_7">
     <g id="line2d_12">
      <g>
       <use style="stroke:#000000;stroke-width:0.8;" x="519.891136" xlink:href="#mef71136b07" y="284.4"/>
      </g>
     </g>
     <g id="text_12">
      <!-- 2 -->
      <g transform="translate(510.983636 314.175625)scale(0.28 -0.28)">
       <use xlink:href="#DejaVuSans-50"/>
      </g>
     </g>
    </g>
    <g id="xtick_8">
     <g id="line2d_13">
      <g>
       <use style="stroke:#000000;stroke-width:0.8;" x="593.5275" xlink:href="#mef71136b07" y="284.4"/>
      </g>
     </g>
     <g id="text_13">
      <!-- 3 -->
      <g transform="translate(584.62 314.175625)scale(0.28 -0.28)">
       <use xlink:href="#DejaVuSans-51"/>
      </g>
     </g>
    </g>
    <g id="xtick_9">
     <g id="line2d_14">
      <g>
       <use style="stroke:#000000;stroke-width:0.8;" x="667.163864" xlink:href="#mef71136b07" y="284.4"/>
      </g>
     </g>
     <g id="text_14">
      <!-- 4 -->
      <g transform="translate(658.256364 314.175625)scale(0.28 -0.28)">
       <use xlink:href="#DejaVuSans-52"/>
      </g>
     </g>
    </g>
    <g id="xtick_10">
     <g id="line2d_15">
      <g>
       <use style="stroke:#000000;stroke-width:0.8;" x="740.800227" xlink:href="#mef71136b07" y="284.4"/>
      </g>
     </g>
     <g id="text_15">
      <!-- 5 -->
      <g transform="translate(731.892727 314.175625)scale(0.28 -0.28)">
       <use xlink:href="#DejaVuSans-53"/>
      </g>
     </g>
    </g>
    <g id="text_16">
     <!-- -log10 p-value -->
     <g transform="translate(492.6925 345.274375)scale(0.28 -0.28)">
      <use xlink:href="#DejaVuSans-45"/>
      <use x="36.083984" xlink:href="#DejaVuSans-108"/>
      <use x="63.867188" xlink:href="#DejaVuSans-111"/>
      <use x="125.048828" xlink:href="#DejaVuSans-103"/>
      <use x="188.525391" xlink:href="#DejaVuSans-49"/>
      <use x="252.148438" xlink:href="#DejaVuSans-48"/>
      <use x="315.771484" xlink:href="#DejaVuSans-32"/>
      <use x="347.558594" xlink:href="#DejaVuSans-112"/>
      <use x="411.035156" xlink:href="#DejaVuSans-45"/>
      <use x="447.087891" xlink:href="#DejaVuSans-118"/>
      <use x="506.267578" xlink:href="#DejaVuSans-97"/>
      <use x="567.546875" xlink:href="#DejaVuSans-108"/>
      <use x="595.330078" xlink:href="#DejaVuSans-117"/>
      <use x="658.708984" xlink:href="#DejaVuSans-101"/>
     </g>
    </g>
   </g>
   <g id="matplotlib.axis_4">
    <g id="ytick_4"/>
    <g id="ytick_5"/>
    <g id="ytick_6"/>
   </g>
   <g id="line2d_16">
    <path clip-path="url(#p91c6393c48)" d="M 446.254773 120.743891 
L 449.936591 118.130769 
L 453.618409 118.08 
L 457.300227 116.523077 
L 460.982045 116.530435 
L 464.663864 111.841341 
L 468.345682 109.971429 
L 472.0275 105.717073 
L 475.709318 107.286076 
L 479.391136 104.237838 
L 483.072955 104.061972 
L 486.754773 103.968345 
L 490.436591 103.768421 
L 494.118409 102.114286 
L 497.800227 98.301639 
L 501.482045 96.763636 
L 505.163864 99.136842 
L 508.845682 100.542857 
L 512.5275 100.326606 
L 516.209318 101.820561 
L 519.891136 99.092308 
L 523.572955 102.9 
L 527.254773 105.56129 
L 530.936591 101.4 
L 534.618409 102.331034 
L 538.300227 96.737349 
L 541.982045 99.6 
L 545.663864 100.602532 
L 549.345682 102.685714 
L 553.0275 95.318919 
L 556.709318 92.728767 
L 560.391136 93.733333 
L 564.072955 96.921739 
L 567.754773 96.4 
L 571.436591 98.775 
L 575.118409 100.019048 
L 578.800227 105.416949 
L 582.482045 106.882759 
L 586.163864 105.257143 
L 589.845682 106.8 
L 593.5275 103.511111 
L 597.209318 101.630769 
L 600.891136 103.223529 
L 604.572955 99.6 
L 608.254773 99.6 
L 611.936591 102.9 
L 615.618409 104.655319 
L 619.300227 106.486957 
L 622.982045 98.4 
L 626.663864 100.213953 
L 630.345682 97.668293 
L 634.0275 96.821053 
L 637.709318 96.821053 
L 641.391136 96.821053 
L 645.072955 96.821053 
L 648.754773 96.821053 
L 652.436591 96.821053 
L 656.118409 98.886486 
L 659.800227 98.886486 
L 663.482045 93.733333 
L 667.163864 93.733333 
L 670.845682 88.285714 
L 674.5275 88.285714 
L 678.209318 88.285714 
L 681.891136 90.282353 
L 685.572955 92.4 
L 689.254773 94.65 
L 692.936591 93.227586 
L 696.618409 95.828571 
L 700.300227 98.622222 
L 703.982045 98.622222 
L 707.663864 98.622222 
L 711.345682 98.622222 
L 715.0275 91.476923 
L 718.709318 86.4 
L 722.391136 86.4 
L 726.072955 86.4 
L 729.754773 77.791304 
L 733.436591 77.791304 
L 737.118409 77.791304 
L 740.800227 77.791304 
" style="fill:none;stroke:#8b0000;stroke-linecap:square;stroke-width:2;"/>
   </g>
   <g id="line2d_17">
    <path clip-path="url(#p91c6393c48)" d="M 446.254773 216.309502 
L 449.936591 217.130769 
L 453.618409 218.4 
L 457.300227 218.061538 
L 460.982045 215.530435 
L 464.663864 213.606704 
L 468.345682 208.971429 
L 472.0275 207.131707 
L 475.709318 204.197468 
L 479.391136 200.562162 
L 483.072955 198.878873 
L 486.754773 197.033094 
L 490.436591 195.076692 
L 494.118409 194.304762 
L 497.800227 193.514754 
L 501.482045 192.763636 
L 505.163864 191.768421 
L 508.845682 194.828571 
L 512.5275 192.363303 
L 516.209318 190.642991 
L 519.891136 190.476923 
L 523.572955 193.65 
L 527.254773 193.56129 
L 530.936591 191.4 
L 534.618409 190.331034 
L 538.300227 188.978313 
L 541.982045 192 
L 545.663864 190.83038 
L 549.345682 188.4 
L 553.0275 184.508108 
L 556.709318 183.139726 
L 560.391136 185.4 
L 564.072955 188.747826 
L 567.754773 192.4 
L 571.436591 189.525 
L 575.118409 188.019048 
L 578.800227 194.908475 
L 582.482045 193.365517 
L 586.163864 190.114286 
L 589.845682 188.4 
L 593.5275 186.622222 
L 597.209318 187.938462 
L 600.891136 191.223529 
L 604.572955 189.36 
L 608.254773 189.36 
L 611.936591 190.9 
L 615.618409 188.910638 
L 619.300227 192.573913 
L 622.982045 188.4 
L 626.663864 186.167442 
L 630.345682 181.37561 
L 634.0275 180.189474 
L 637.709318 180.189474 
L 641.391136 180.189474 
L 645.072955 180.189474 
L 648.754773 180.189474 
L 652.436591 180.189474 
L 656.118409 184.508108 
L 659.800227 184.508108 
L 663.482045 181.733333 
L 667.163864 181.733333 
L 670.845682 178.8 
L 674.5275 178.8 
L 678.209318 178.8 
L 681.891136 175.694118 
L 685.572955 180.4 
L 689.254773 185.4 
L 692.936591 175.158621 
L 696.618409 171.257143 
L 700.300227 176.844444 
L 703.982045 176.844444 
L 707.663864 176.844444 
L 711.345682 176.844444 
L 715.0275 172.707692 
L 718.709318 174.4 
L 722.391136 174.4 
L 726.072955 174.4 
L 729.754773 169.617391 
L 733.436591 169.617391 
L 737.118409 169.617391 
L 740.800227 169.617391 
" style="fill:none;stroke:#000080;stroke-linecap:square;stroke-width:2;"/>
   </g>
   <g id="patch_6">
    <path d="M 431.5275 284.4 
L 431.5275 7.2 
" style="fill:none;stroke:#000000;stroke-linecap:square;stroke-linejoin:miter;stroke-width:0.8;"/>
   </g>
   <g id="patch_7">
    <path d="M 431.5275 284.4 
L 755.5275 284.4 
" style="fill:none;stroke:#000000;stroke-linecap:square;stroke-linejoin:miter;stroke-width:0.8;"/>
   </g>
  </g>
  <g id="axes_3">
   <g id="patch_8">
    <path d="M 771.7275 284.4 
L 1095.7275 284.4 
L 1095.7275 7.2 
L 771.7275 7.2 
z
" style="fill:none;"/>
   </g>
   <g id="matplotlib.axis_5">
    <g id="xtick_11">
     <g id="line2d_18">
      <g>
       <use style="stroke:#000000;stroke-width:0.8;" x="786.454773" xlink:href="#mef71136b07" y="284.4"/>
      </g>
     </g>
     <g id="text_17">
      <!-- 1 -->
      <g transform="translate(777.547273 314.175625)scale(0.28 -0.28)">
       <use xlink:href="#DejaVuSans-49"/>
      </g>
     </g>
    </g>
    <g id="xtick_12">
     <g id="line2d_19">
      <g>
       <use style="stroke:#000000;stroke-width:0.8;" x="860.091136" xlink:href="#mef71136b07" y="284.4"/>
      </g>
     </g>
     <g id="text_18">
      <!-- 2 -->
      <g transform="translate(851.183636 314.175625)scale(0.28 -0.28)">
       <use xlink:href="#DejaVuSans-50"/>
      </g>
     </g>
    </g>
    <g id="xtick_13">
     <g id="line2d_20">
      <g>
       <use style="stroke:#000000;stroke-width:0.8;" x="933.7275" xlink:href="#mef71136b07" y="284.4"/>
      </g>
     </g>
     <g id="text_19">
      <!-- 3 -->
      <g transform="translate(924.82 314.175625)scale(0.28 -0.28)">
       <use xlink:href="#DejaVuSans-51"/>
      </g>
     </g>
    </g>
    <g id="xtick_14">
     <g id="line2d_21">
      <g>
       <use style="stroke:#000000;stroke-width:0.8;" x="1007.363864" xlink:href="#mef71136b07" y="284.4"/>
      </g>
     </g>
     <g id="text_20">
      <!-- 4 -->
      <g transform="translate(998.456364 314.175625)scale(0.28 -0.28)">
       <use xlink:href="#DejaVuSans-52"/>
      </g>
     </g>
    </g>
    <g id="xtick_15">
     <g id="line2d_22">
      <g>
       <use style="stroke:#000000;stroke-width:0.8;" x="1081.000227" xlink:href="#mef71136b07" y="284.4"/>
      </g>
     </g>
     <g id="text_21">
      <!-- 5 -->
      <g transform="translate(1072.092727 314.175625)scale(0.28 -0.28)">
       <use xlink:href="#DejaVuSans-53"/>
      </g>
     </g>
    </g>
    <g id="text_22">
     <!-- -log10 p-value -->
     <g transform="translate(832.8925 345.274375)scale(0.28 -0.28)">
      <use xlink:href="#DejaVuSans-45"/>
      <use x="36.083984" xlink:href="#DejaVuSans-108"/>
      <use x="63.867188" xlink:href="#DejaVuSans-111"/>
      <use x="125.048828" xlink:href="#DejaVuSans-103"/>
      <use x="188.525391" xlink:href="#DejaVuSans-49"/>
      <use x="252.148438" xlink:href="#DejaVuSans-48"/>
      <use x="315.771484" xlink:href="#DejaVuSans-32"/>
      <use x="347.558594" xlink:href="#DejaVuSans-112"/>
      <use x="411.035156" xlink:href="#DejaVuSans-45"/>
      <use x="447.087891" xlink:href="#DejaVuSans-118"/>
      <use x="506.267578" xlink:href="#DejaVuSans-97"/>
      <use x="567.546875" xlink:href="#DejaVuSans-108"/>
      <use x="595.330078" xlink:href="#DejaVuSans-117"/>
      <use x="658.708984" xlink:href="#DejaVuSans-101"/>
     </g>
    </g>
   </g>
   <g id="matplotlib.axis_6">
    <g id="ytick_7"/>
    <g id="ytick_8"/>
    <g id="ytick_9"/>
   </g>
   <g id="line2d_23">
    <path clip-path="url(#p19b4046668)" d="M 786.454773 36.303614 
L 790.136591 36.497561 
L 793.818409 35.672727 
L 797.500227 33.710924 
L 801.182045 33.710924 
L 804.863864 31.682051 
L 808.545682 30.821053 
L 812.2275 29.828571 
L 815.909318 30.132719 
L 819.591136 29.076056 
L 823.272955 29.158294 
L 826.954773 29.284615 
L 830.636591 29.458824 
L 834.318409 29.64 
L 838.000227 28.359799 
L 841.682045 28.4 
L 845.363864 28.440609 
L 849.045682 28.523077 
L 852.7275 28.736842 
L 856.409318 28.870588 
L 860.091136 29.103297 
L 863.772955 29.2 
L 867.454773 29.451429 
L 871.136591 29.451429 
L 874.818409 29.609302 
L 878.500227 29.663158 
L 882.182045 29.88503 
L 885.863864 30.058537 
L 889.545682 30.177778 
L 893.2275 30.238509 
L 896.909318 30.362264 
L 900.591136 28.861538 
L 904.272955 29.027451 
L 907.954773 27.44 
L 911.636591 27.583673 
L 915.318409 27.682759 
L 919.000227 27.733333 
L 922.682045 27.733333 
L 926.363864 26.017021 
L 930.045682 26.097842 
L 933.7275 26.181022 
L 937.409318 26.266667 
L 941.091136 26.266667 
L 944.772955 26.354887 
L 948.454773 26.5875 
L 952.136591 26.63622 
L 955.818409 26.787097 
L 959.500227 26.891803 
L 963.182045 27.055462 
L 966.863864 27.111864 
L 970.545682 27.227586 
L 974.2275 27.347368 
L 977.909318 27.733333 
L 981.591136 28.015385 
L 985.272955 28.08932 
L 988.954773 28.164706 
L 992.636591 28.164706 
L 996.318409 25.733333 
L 1000.000227 25.733333 
L 1003.682045 25.787755 
L 1007.363864 25.9 
L 1011.045682 26.077419 
L 1014.7275 26.266667 
L 1018.409318 26.468966 
L 1022.091136 26.468966 
L 1025.772955 26.611765 
L 1029.454773 26.611765 
L 1033.136591 26.611765 
L 1036.818409 23.542857 
L 1040.500227 23.542857 
L 1044.182045 23.580723 
L 1047.863864 23.619512 
L 1051.545682 23.659259 
L 1055.2275 23.7 
L 1058.909318 23.828571 
L 1062.591136 23.873684 
L 1066.272955 23.873684 
L 1069.954773 23.92 
L 1073.636591 23.92 
L 1077.318409 24.066667 
L 1081.000227 24.066667 
" style="fill:none;stroke:#8b0000;stroke-linecap:square;stroke-width:2;"/>
   </g>
   <g id="line2d_24">
    <path clip-path="url(#p19b4046668)" d="M 786.454773 198.520482 
L 790.136591 198.546341 
L 793.818409 199.309091 
L 797.500227 197.878992 
L 801.182045 197.878992 
L 804.863864 196.4 
L 808.545682 196.4 
L 812.2275 194.828571 
L 815.909318 193.15576 
L 819.591136 191.442254 
L 823.272955 190.561137 
L 826.954773 190.476923 
L 830.636591 188.635294 
L 834.318409 186.72 
L 838.000227 186.229146 
L 841.682045 187.066667 
L 845.363864 186.572589 
L 849.045682 185.569231 
L 852.7275 185.747368 
L 856.409318 184.164706 
L 860.091136 184.312088 
L 863.772955 183.2 
L 867.454773 180.308571 
L 871.136591 180.308571 
L 874.818409 183.097674 
L 878.500227 184.049123 
L 882.182045 183.226347 
L 885.863864 182.985366 
L 889.545682 181.733333 
L 893.2275 181.095652 
L 896.909318 179.796226 
L 900.591136 177.784615 
L 904.272955 177.419608 
L 907.954773 175.28 
L 911.636591 173.053061 
L 915.318409 173.337931 
L 919.000227 172.566667 
L 922.682045 172.566667 
L 926.363864 172.059574 
L 930.045682 174.241727 
L 933.7275 172.633577 
L 937.409318 170.977778 
L 941.091136 170.977778 
L 944.772955 171.257143 
L 948.454773 166.8375 
L 952.136591 167.990551 
L 955.818409 167.303226 
L 959.500227 165.383607 
L 963.182045 162.383193 
L 966.863864 161.349153 
L 970.545682 161.503448 
L 974.2275 159.347368 
L 977.909318 154.844444 
L 981.591136 154.938462 
L 985.272955 153.681553 
L 988.954773 152.4 
L 992.636591 152.4 
L 996.318409 151.066667 
L 1000.000227 151.066667 
L 1003.682045 149.706122 
L 1007.363864 152.4 
L 1011.045682 153.819355 
L 1014.7275 155.333333 
L 1018.409318 153.917241 
L 1022.091136 153.917241 
L 1025.772955 150.847059 
L 1029.454773 150.847059 
L 1033.136591 150.847059 
L 1036.818409 149.257143 
L 1040.500227 149.257143 
L 1044.182045 150.809639 
L 1047.863864 149.180488 
L 1051.545682 147.511111 
L 1055.2275 145.8 
L 1058.909318 143.828571 
L 1062.591136 145.452632 
L 1066.272955 145.452632 
L 1069.954773 147.12 
L 1073.636591 147.12 
L 1077.318409 145.066667 
L 1081.000227 145.066667 
" style="fill:none;stroke:#000080;stroke-linecap:square;stroke-width:2;"/>
   </g>
   <g id="patch_9">
    <path d="M 771.7275 284.4 
L 771.7275 7.2 
" style="fill:none;stroke:#000000;stroke-linecap:square;stroke-linejoin:miter;stroke-width:0.8;"/>
   </g>
   <g id="patch_10">
    <path d="M 771.7275 284.4 
L 1095.7275 284.4 
" style="fill:none;stroke:#000000;stroke-linecap:square;stroke-linejoin:miter;stroke-width:0.8;"/>
   </g>
  </g>
 </g>
 <defs>
  <clipPath id="pf574d2f4e0">
   <rect height="277.2" width="324" x="91.3275" y="7.2"/>
  </clipPath>
  <clipPath id="p91c6393c48">
   <rect height="277.2" width="324" x="431.5275" y="7.2"/>
  </clipPath>
  <clipPath id="p19b4046668">
   <rect height="277.2" width="324" x="771.7275" y="7.2"/>
  </clipPath>
 </defs>
</svg>
