<?xml version="1.0" encoding="utf-8" standalone="no"?>
<!DOCTYPE svg PUBLIC "-//W3C//DTD SVG 1.1//EN"
  "http://www.w3.org/Graphics/SVG/1.1/DTD/svg11.dtd">
<!-- Created with matplotlib (https://matplotlib.org/) -->
<svg height="358.2975pt" version="1.1" viewBox="0 0 1102.9275 358.2975" width="1102.9275pt" xmlns="http://www.w3.org/2000/svg" xmlns:xlink="http://www.w3.org/1999/xlink">
 <defs>
  <style type="text/css">
*{stroke-linecap:butt;stroke-linejoin:round;}
  </style>
 </defs>
 <g id="figure_1">
  <g id="patch_1">
   <path d="M 0 358.2975 
L 1102.9275 358.2975 
L 1102.9275 0 
L 0 0 
z
" style="fill:none;"/>
  </g>
  <g id="axes_1">
   <g id="patch_2">
    <path d="M 91.3275 284.4 
L 415.3275 284.4 
L 415.3275 7.2 
L 91.3275 7.2 
z
" style="fill:none;"/>
   </g>
   <g id="matplotlib.axis_1">
    <g id="xtick_1">
     <g id="line2d_1">
      <defs>
       <path d="M 0 0 
L 0 5 
" id="mc4460b8628" style="stroke:#000000;stroke-width:0.8;"/>
      </defs>
      <g>
       <use style="stroke:#000000;stroke-width:0.8;" x="106.054773" xlink:href="#mc4460b8628" y="284.4"/>
      </g>
     </g>
     <g id="text_1">
      <!-- 1 -->
      <defs>
       <path d="M 12.40625 8.296875 
L 28.515625 8.296875 
L 28.515625 63.921875 
L 10.984375 60.40625 
L 10.984375 69.390625 
L 28.421875 72.90625 
L 38.28125 72.90625 
L 38.28125 8.296875 
L 54.390625 8.296875 
L 54.390625 0 
L 12.40625 0 
z
" id="DejaVuSans-49"/>
      </defs>
      <g transform="translate(97.147273 314.175625)scale(0.28 -0.28)">
       <use xlink:href="#DejaVuSans-49"/>
      </g>
     </g>
    </g>
    <g id="xtick_2">
     <g id="line2d_2">
      <g>
       <use style="stroke:#000000;stroke-width:0.8;" x="179.691136" xlink:href="#mc4460b8628" y="284.4"/>
      </g>
     </g>
     <g id="text_2">
      <!-- 2 -->
      <defs>
       <path d="M 19.1875 8.296875 
L 53.609375 8.296875 
L 53.609375 0 
L 7.328125 0 
L 7.328125 8.296875 
Q 12.9375 14.109375 22.625 23.890625 
Q 32.328125 33.6875 34.8125 36.53125 
Q 39.546875 41.84375 41.421875 45.53125 
Q 43.3125 49.21875 43.3125 52.78125 
Q 43.3125 58.59375 39.234375 62.25 
Q 35.15625 65.921875 28.609375 65.921875 
Q 23.96875 65.921875 18.8125 64.3125 
Q 13.671875 62.703125 7.8125 59.421875 
L 7.8125 69.390625 
Q 13.765625 71.78125 18.9375 73 
Q 24.125 74.21875 28.421875 74.21875 
Q 39.75 74.21875 46.484375 68.546875 
Q 53.21875 62.890625 53.21875 53.421875 
Q 53.21875 48.921875 51.53125 44.890625 
Q 49.859375 40.875 45.40625 35.40625 
Q 44.1875 33.984375 37.640625 27.21875 
Q 31.109375 20.453125 19.1875 8.296875 
z
" id="DejaVuSans-50"/>
      </defs>
      <g transform="translate(170.783636 314.175625)scale(0.28 -0.28)">
       <use xlink:href="#DejaVuSans-50"/>
      </g>
     </g>
    </g>
    <g id="xtick_3">
     <g id="line2d_3">
      <g>
       <use style="stroke:#000000;stroke-width:0.8;" x="253.3275" xlink:href="#mc4460b8628" y="284.4"/>
      </g>
     </g>
     <g id="text_3">
      <!-- 3 -->
      <defs>
       <path d="M 40.578125 39.3125 
Q 47.65625 37.796875 51.625 33 
Q 55.609375 28.21875 55.609375 21.1875 
Q 55.609375 10.40625 48.1875 4.484375 
Q 40.765625 -1.421875 27.09375 -1.421875 
Q 22.515625 -1.421875 17.65625 -0.515625 
Q 12.796875 0.390625 7.625 2.203125 
L 7.625 11.71875 
Q 11.71875 9.328125 16.59375 8.109375 
Q 21.484375 6.890625 26.8125 6.890625 
Q 36.078125 6.890625 40.9375 10.546875 
Q 45.796875 14.203125 45.796875 21.1875 
Q 45.796875 27.640625 41.28125 31.265625 
Q 36.765625 34.90625 28.71875 34.90625 
L 20.21875 34.90625 
L 20.21875 43.015625 
L 29.109375 43.015625 
Q 36.375 43.015625 40.234375 45.921875 
Q 44.09375 48.828125 44.09375 54.296875 
Q 44.09375 59.90625 40.109375 62.90625 
Q 36.140625 65.921875 28.71875 65.921875 
Q 24.65625 65.921875 20.015625 65.03125 
Q 15.375 64.15625 9.8125 62.3125 
L 9.8125 71.09375 
Q 15.4375 72.65625 20.34375 73.4375 
Q 25.25 74.21875 29.59375 74.21875 
Q 40.828125 74.21875 47.359375 69.109375 
Q 53.90625 64.015625 53.90625 55.328125 
Q 53.90625 49.265625 50.4375 45.09375 
Q 46.96875 40.921875 40.578125 39.3125 
z
" id="DejaVuSans-51"/>
      </defs>
      <g transform="translate(244.42 314.175625)scale(0.28 -0.28)">
       <use xlink:href="#DejaVuSans-51"/>
      </g>
     </g>
    </g>
    <g id="xtick_4">
     <g id="line2d_4">
      <g>
       <use style="stroke:#000000;stroke-width:0.8;" x="326.963864" xlink:href="#mc4460b8628" y="284.4"/>
      </g>
     </g>
     <g id="text_4">
      <!-- 4 -->
      <defs>
       <path d="M 37.796875 64.3125 
L 12.890625 25.390625 
L 37.796875 25.390625 
z
M 35.203125 72.90625 
L 47.609375 72.90625 
L 47.609375 25.390625 
L 58.015625 25.390625 
L 58.015625 17.1875 
L 47.609375 17.1875 
L 47.609375 0 
L 37.796875 0 
L 37.796875 17.1875 
L 4.890625 17.1875 
L 4.890625 26.703125 
z
" id="DejaVuSans-52"/>
      </defs>
      <g transform="translate(318.056364 314.175625)scale(0.28 -0.28)">
       <use xlink:href="#DejaVuSans-52"/>
      </g>
     </g>
    </g>
    <g id="xtick_5">
     <g id="line2d_5">
      <g>
       <use style="stroke:#000000;stroke-width:0.8;" x="400.600227" xlink:href="#mc4460b8628" y="284.4"/>
      </g>
     </g>
     <g id="text_5">
      <!-- 5 -->
      <defs>
       <path d="M 10.796875 72.90625 
L 49.515625 72.90625 
L 49.515625 64.59375 
L 19.828125 64.59375 
L 19.828125 46.734375 
Q 21.96875 47.46875 24.109375 47.828125 
Q 26.265625 48.1875 28.421875 48.1875 
Q 40.625 48.1875 47.75 41.5 
Q 54.890625 34.8125 54.890625 23.390625 
Q 54.890625 11.625 47.5625 5.09375 
Q 40.234375 -1.421875 26.90625 -1.421875 
Q 22.3125 -1.421875 17.546875 -0.640625 
Q 12.796875 0.140625 7.71875 1.703125 
L 7.71875 11.625 
Q 12.109375 9.234375 16.796875 8.0625 
Q 21.484375 6.890625 26.703125 6.890625 
Q 35.15625 6.890625 40.078125 11.328125 
Q 45.015625 15.765625 45.015625 23.390625 
Q 45.015625 31 40.078125 35.4375 
Q 35.15625 39.890625 26.703125 39.890625 
Q 22.75 39.890625 18.8125 39.015625 
Q 14.890625 38.140625 10.796875 36.28125 
z
" id="DejaVuSans-53"/>
      </defs>
      <g transform="translate(391.692727 314.175625)scale(0.28 -0.28)">
       <use xlink:href="#DejaVuSans-53"/>
      </g>
     </g>
    </g>
    <g id="text_6">
     <!-- -log10 p-value -->
     <defs>
      <path d="M 4.890625 31.390625 
L 31.203125 31.390625 
L 31.203125 23.390625 
L 4.890625 23.390625 
z
" id="DejaVuSans-45"/>
      <path d="M 9.421875 75.984375 
L 18.40625 75.984375 
L 18.40625 0 
L 9.421875 0 
z
" id="DejaVuSans-108"/>
      <path d="M 30.609375 48.390625 
Q 23.390625 48.390625 19.1875 42.75 
Q 14.984375 37.109375 14.984375 27.296875 
Q 14.984375 17.484375 19.15625 11.84375 
Q 23.34375 6.203125 30.609375 6.203125 
Q 37.796875 6.203125 41.984375 11.859375 
Q 46.1875 17.53125 46.1875 27.296875 
Q 46.1875 37.015625 41.984375 42.703125 
Q 37.796875 48.390625 30.609375 48.390625 
z
M 30.609375 56 
Q 42.328125 56 49.015625 48.375 
Q 55.71875 40.765625 55.71875 27.296875 
Q 55.71875 13.875 49.015625 6.21875 
Q 42.328125 -1.421875 30.609375 -1.421875 
Q 18.84375 -1.421875 12.171875 6.21875 
Q 5.515625 13.875 5.515625 27.296875 
Q 5.515625 40.765625 12.171875 48.375 
Q 18.84375 56 30.609375 56 
z
" id="DejaVuSans-111"/>
      <path d="M 45.40625 27.984375 
Q 45.40625 37.75 41.375 43.109375 
Q 37.359375 48.484375 30.078125 48.484375 
Q 22.859375 48.484375 18.828125 43.109375 
Q 14.796875 37.75 14.796875 27.984375 
Q 14.796875 18.265625 18.828125 12.890625 
Q 22.859375 7.515625 30.078125 7.515625 
Q 37.359375 7.515625 41.375 12.890625 
Q 45.40625 18.265625 45.40625 27.984375 
z
M 54.390625 6.78125 
Q 54.390625 -7.171875 48.1875 -13.984375 
Q 42 -20.796875 29.203125 -20.796875 
Q 24.46875 -20.796875 20.265625 -20.09375 
Q 16.0625 -19.390625 12.109375 -17.921875 
L 12.109375 -9.1875 
Q 16.0625 -11.328125 19.921875 -12.34375 
Q 23.78125 -13.375 27.78125 -13.375 
Q 36.625 -13.375 41.015625 -8.765625 
Q 45.40625 -4.15625 45.40625 5.171875 
L 45.40625 9.625 
Q 42.625 4.78125 38.28125 2.390625 
Q 33.9375 0 27.875 0 
Q 17.828125 0 11.671875 7.65625 
Q 5.515625 15.328125 5.515625 27.984375 
Q 5.515625 40.671875 11.671875 48.328125 
Q 17.828125 56 27.875 56 
Q 33.9375 56 38.28125 53.609375 
Q 42.625 51.21875 45.40625 46.390625 
L 45.40625 54.6875 
L 54.390625 54.6875 
z
" id="DejaVuSans-103"/>
      <path d="M 31.78125 66.40625 
Q 24.171875 66.40625 20.328125 58.90625 
Q 16.5 51.421875 16.5 36.375 
Q 16.5 21.390625 20.328125 13.890625 
Q 24.171875 6.390625 31.78125 6.390625 
Q 39.453125 6.390625 43.28125 13.890625 
Q 47.125 21.390625 47.125 36.375 
Q 47.125 51.421875 43.28125 58.90625 
Q 39.453125 66.40625 31.78125 66.40625 
z
M 31.78125 74.21875 
Q 44.046875 74.21875 50.515625 64.515625 
Q 56.984375 54.828125 56.984375 36.375 
Q 56.984375 17.96875 50.515625 8.265625 
Q 44.046875 -1.421875 31.78125 -1.421875 
Q 19.53125 -1.421875 13.0625 8.265625 
Q 6.59375 17.96875 6.59375 36.375 
Q 6.59375 54.828125 13.0625 64.515625 
Q 19.53125 74.21875 31.78125 74.21875 
z
" id="DejaVuSans-48"/>
      <path id="DejaVuSans-32"/>
      <path d="M 18.109375 8.203125 
L 18.109375 -20.796875 
L 9.078125 -20.796875 
L 9.078125 54.6875 
L 18.109375 54.6875 
L 18.109375 46.390625 
Q 20.953125 51.265625 25.265625 53.625 
Q 29.59375 56 35.59375 56 
Q 45.5625 56 51.78125 48.09375 
Q 58.015625 40.1875 58.015625 27.296875 
Q 58.015625 14.40625 51.78125 6.484375 
Q 45.5625 -1.421875 35.59375 -1.421875 
Q 29.59375 -1.421875 25.265625 0.953125 
Q 20.953125 3.328125 18.109375 8.203125 
z
M 48.6875 27.296875 
Q 48.6875 37.203125 44.609375 42.84375 
Q 40.53125 48.484375 33.40625 48.484375 
Q 26.265625 48.484375 22.1875 42.84375 
Q 18.109375 37.203125 18.109375 27.296875 
Q 18.109375 17.390625 22.1875 11.75 
Q 26.265625 6.109375 33.40625 6.109375 
Q 40.53125 6.109375 44.609375 11.75 
Q 48.6875 17.390625 48.6875 27.296875 
z
" id="DejaVuSans-112"/>
      <path d="M 2.984375 54.6875 
L 12.5 54.6875 
L 29.59375 8.796875 
L 46.6875 54.6875 
L 56.203125 54.6875 
L 35.6875 0 
L 23.484375 0 
z
" id="DejaVuSans-118"/>
      <path d="M 34.28125 27.484375 
Q 23.390625 27.484375 19.1875 25 
Q 14.984375 22.515625 14.984375 16.5 
Q 14.984375 11.71875 18.140625 8.90625 
Q 21.296875 6.109375 26.703125 6.109375 
Q 34.1875 6.109375 38.703125 11.40625 
Q 43.21875 16.703125 43.21875 25.484375 
L 43.21875 27.484375 
z
M 52.203125 31.203125 
L 52.203125 0 
L 43.21875 0 
L 43.21875 8.296875 
Q 40.140625 3.328125 35.546875 0.953125 
Q 30.953125 -1.421875 24.3125 -1.421875 
Q 15.921875 -1.421875 10.953125 3.296875 
Q 6 8.015625 6 15.921875 
Q 6 25.140625 12.171875 29.828125 
Q 18.359375 34.515625 30.609375 34.515625 
L 43.21875 34.515625 
L 43.21875 35.40625 
Q 43.21875 41.609375 39.140625 45 
Q 35.0625 48.390625 27.6875 48.390625 
Q 23 48.390625 18.546875 47.265625 
Q 14.109375 46.140625 10.015625 43.890625 
L 10.015625 52.203125 
Q 14.9375 54.109375 19.578125 55.046875 
Q 24.21875 56 28.609375 56 
Q 40.484375 56 46.34375 49.84375 
Q 52.203125 43.703125 52.203125 31.203125 
z
" id="DejaVuSans-97"/>
      <path d="M 8.5 21.578125 
L 8.5 54.6875 
L 17.484375 54.6875 
L 17.484375 21.921875 
Q 17.484375 14.15625 20.5 10.265625 
Q 23.53125 6.390625 29.59375 6.390625 
Q 36.859375 6.390625 41.078125 11.03125 
Q 45.3125 15.671875 45.3125 23.6875 
L 45.3125 54.6875 
L 54.296875 54.6875 
L 54.296875 0 
L 45.3125 0 
L 45.3125 8.40625 
Q 42.046875 3.421875 37.71875 1 
Q 33.40625 -1.421875 27.6875 -1.421875 
Q 18.265625 -1.421875 13.375 4.4375 
Q 8.5 10.296875 8.5 21.578125 
z
M 31.109375 56 
z
" id="DejaVuSans-117"/>
      <path d="M 56.203125 29.59375 
L 56.203125 25.203125 
L 14.890625 25.203125 
Q 15.484375 15.921875 20.484375 11.0625 
Q 25.484375 6.203125 34.421875 6.203125 
Q 39.59375 6.203125 44.453125 7.46875 
Q 49.3125 8.734375 54.109375 11.28125 
L 54.109375 2.78125 
Q 49.265625 0.734375 44.1875 -0.34375 
Q 39.109375 -1.421875 33.890625 -1.421875 
Q 20.796875 -1.421875 13.15625 6.1875 
Q 5.515625 13.8125 5.515625 26.8125 
Q 5.515625 40.234375 12.765625 48.109375 
Q 20.015625 56 32.328125 56 
Q 43.359375 56 49.78125 48.890625 
Q 56.203125 41.796875 56.203125 29.59375 
z
M 47.21875 32.234375 
Q 47.125 39.59375 43.09375 43.984375 
Q 39.0625 48.390625 32.421875 48.390625 
Q 24.90625 48.390625 20.390625 44.140625 
Q 15.875 39.890625 15.1875 32.171875 
z
" id="DejaVuSans-101"/>
     </defs>
     <g transform="translate(152.4925 345.274375)scale(0.28 -0.28)">
      <use xlink:href="#DejaVuSans-45"/>
      <use x="36.083984" xlink:href="#DejaVuSans-108"/>
      <use x="63.867188" xlink:href="#DejaVuSans-111"/>
      <use x="125.048828" xlink:href="#DejaVuSans-103"/>
      <use x="188.525391" xlink:href="#DejaVuSans-49"/>
      <use x="252.148438" xlink:href="#DejaVuSans-48"/>
      <use x="315.771484" xlink:href="#DejaVuSans-32"/>
      <use x="347.558594" xlink:href="#DejaVuSans-112"/>
      <use x="411.035156" xlink:href="#DejaVuSans-45"/>
      <use x="447.087891" xlink:href="#DejaVuSans-118"/>
      <use x="506.267578" xlink:href="#DejaVuSans-97"/>
      <use x="567.546875" xlink:href="#DejaVuSans-108"/>
      <use x="595.330078" xlink:href="#DejaVuSans-117"/>
      <use x="658.708984" xlink:href="#DejaVuSans-101"/>
     </g>
    </g>
   </g>
   <g id="matplotlib.axis_2">
    <g id="ytick_1">
     <g id="line2d_6">
      <defs>
       <path d="M 0 0 
L -5 0 
" id="m35c922a657" style="stroke:#000000;stroke-width:0.8;"/>
      </defs>
      <g>
       <use style="stroke:#000000;stroke-width:0.8;" x="91.3275" xlink:href="#m35c922a657" y="284.4"/>
      </g>
     </g>
     <g id="text_7">
      <!-- 0.0 -->
      <defs>
       <path d="M 10.6875 12.40625 
L 21 12.40625 
L 21 0 
L 10.6875 0 
z
" id="DejaVuSans-46"/>
      </defs>
      <g transform="translate(38.29875 295.037813)scale(0.28 -0.28)">
       <use xlink:href="#DejaVuSans-48"/>
       <use x="63.623047" xlink:href="#DejaVuSans-46"/>
       <use x="95.410156" xlink:href="#DejaVuSans-48"/>
      </g>
     </g>
    </g>
    <g id="ytick_2">
     <g id="line2d_7">
      <g>
       <use style="stroke:#000000;stroke-width:0.8;" x="91.3275" xlink:href="#m35c922a657" y="152.4"/>
      </g>
     </g>
     <g id="text_8">
      <!-- 0.5 -->
      <g transform="translate(38.29875 163.037812)scale(0.28 -0.28)">
       <use xlink:href="#DejaVuSans-48"/>
       <use x="63.623047" xlink:href="#DejaVuSans-46"/>
       <use x="95.410156" xlink:href="#DejaVuSans-53"/>
      </g>
     </g>
    </g>
    <g id="ytick_3">
     <g id="line2d_8">
      <g>
       <use style="stroke:#000000;stroke-width:0.8;" x="91.3275" xlink:href="#m35c922a657" y="20.4"/>
      </g>
     </g>
     <g id="text_9">
      <!-- 1.0 -->
      <g transform="translate(38.29875 31.037812)scale(0.28 -0.28)">
       <use xlink:href="#DejaVuSans-49"/>
       <use x="63.623047" xlink:href="#DejaVuSans-46"/>
       <use x="95.410156" xlink:href="#DejaVuSans-48"/>
      </g>
     </g>
    </g>
    <g id="text_10">
     <!-- Recall -->
     <defs>
      <path d="M 44.390625 34.1875 
Q 47.5625 33.109375 50.5625 29.59375 
Q 53.5625 26.078125 56.59375 19.921875 
L 66.609375 0 
L 56 0 
L 46.6875 18.703125 
Q 43.0625 26.03125 39.671875 28.421875 
Q 36.28125 30.8125 30.421875 30.8125 
L 19.671875 30.8125 
L 19.671875 0 
L 9.8125 0 
L 9.8125 72.90625 
L 32.078125 72.90625 
Q 44.578125 72.90625 50.734375 67.671875 
Q 56.890625 62.453125 56.890625 51.90625 
Q 56.890625 45.015625 53.6875 40.46875 
Q 50.484375 35.9375 44.390625 34.1875 
z
M 19.671875 64.796875 
L 19.671875 38.921875 
L 32.078125 38.921875 
Q 39.203125 38.921875 42.84375 42.21875 
Q 46.484375 45.515625 46.484375 51.90625 
Q 46.484375 58.296875 42.84375 61.546875 
Q 39.203125 64.796875 32.078125 64.796875 
z
" id="DejaVuSans-82"/>
      <path d="M 48.78125 52.59375 
L 48.78125 44.1875 
Q 44.96875 46.296875 41.140625 47.34375 
Q 37.3125 48.390625 33.40625 48.390625 
Q 24.65625 48.390625 19.8125 42.84375 
Q 14.984375 37.3125 14.984375 27.296875 
Q 14.984375 17.28125 19.8125 11.734375 
Q 24.65625 6.203125 33.40625 6.203125 
Q 37.3125 6.203125 41.140625 7.25 
Q 44.96875 8.296875 48.78125 10.40625 
L 48.78125 2.09375 
Q 45.015625 0.34375 40.984375 -0.53125 
Q 36.96875 -1.421875 32.421875 -1.421875 
Q 20.0625 -1.421875 12.78125 6.34375 
Q 5.515625 14.109375 5.515625 27.296875 
Q 5.515625 40.671875 12.859375 48.328125 
Q 20.21875 56 33.015625 56 
Q 37.15625 56 41.109375 55.140625 
Q 45.0625 54.296875 48.78125 52.59375 
z
" id="DejaVuSans-99"/>
     </defs>
     <g transform="translate(28.475625 188.189375)rotate(-90)scale(0.28 -0.28)">
      <use xlink:href="#DejaVuSans-82"/>
      <use x="69.419922" xlink:href="#DejaVuSans-101"/>
      <use x="130.943359" xlink:href="#DejaVuSans-99"/>
      <use x="185.923828" xlink:href="#DejaVuSans-97"/>
      <use x="247.203125" xlink:href="#DejaVuSans-108"/>
      <use x="274.986328" xlink:href="#DejaVuSans-108"/>
     </g>
    </g>
   </g>
   <g id="line2d_9">
    <path clip-path="url(#p7fea31897a)" d="M 106.054773 258.396661 
L 109.736591 258.045439 
L 113.418409 257.251064 
L 117.100227 257.089655 
L 120.782045 256.81791 
L 124.463864 255.748837 
L 128.145682 255.301804 
L 131.8275 254.523457 
L 135.509318 254.260465 
L 139.191136 253.512583 
L 142.872955 253.167857 
L 146.554773 252.381693 
L 150.236591 251.708411 
L 153.918409 251.24058 
L 157.600227 250.503704 
L 161.282045 250.4 
L 164.963864 250.053061 
L 168.645682 249.519171 
L 172.3275 248.968421 
L 176.009318 248.108895 
L 179.691136 248.334426 
L 183.372955 247.834903 
L 187.054773 247.321348 
L 190.736591 246.249711 
L 194.418409 245.803509 
L 198.100227 245.346746 
L 201.782045 244.960976 
L 205.463864 244.474074 
L 209.145682 243.975 
L 212.8275 243.202548 
L 216.509318 242.535922 
L 220.191136 241.706931 
L 223.872955 241.733333 
L 227.554773 241.00274 
L 231.236591 241.316667 
L 234.918409 239.766906 
L 238.600227 238.949451 
L 242.282045 238.916854 
L 245.963864 238.225095 
L 249.645682 237.692308 
L 253.3275 237.628346 
L 257.009318 238.440486 
L 260.691136 237.87541 
L 264.372955 237.296266 
L 268.054773 237.61519 
L 271.736591 237.61519 
L 275.418409 238.14359 
L 279.100227 237.945064 
L 282.782045 237.542857 
L 286.463864 239.242105 
L 290.145682 238.229596 
L 293.8275 237.6 
L 297.509318 237.170642 
L 301.191136 236.952995 
L 304.872955 235.603791 
L 308.554773 236.4 
L 312.236591 235.802985 
L 315.918409 235.802985 
L 319.600227 235.314573 
L 323.282045 234.816244 
L 326.963864 234.563265 
L 330.645682 234.563265 
L 334.3275 234.049485 
L 338.009318 233.525 
L 341.691136 233.525 
L 345.372955 232.442553 
L 349.054773 233.027027 
L 352.736591 233.027027 
L 356.418409 232.18022 
L 360.100227 232.18022 
L 363.782045 231.891713 
L 367.463864 231.6 
L 371.145682 230.705085 
L 374.8275 230.4 
L 378.509318 229.463584 
L 382.191136 230.67907 
L 385.872955 230.364912 
L 389.554773 231.6 
L 393.236591 232.542857 
L 396.918409 232.232335 
L 400.600227 232.887805 
" style="fill:none;stroke:#8b0000;stroke-linecap:square;stroke-width:2;"/>
   </g>
   <g id="line2d_10">
    <path clip-path="url(#p7fea31897a)" d="M 106.054773 209.475125 
L 109.736591 208.51704 
L 113.418409 207.165957 
L 117.100227 206.301996 
L 120.782045 206.579104 
L 124.463864 203.562791 
L 128.145682 201.866934 
L 131.8275 199.659259 
L 135.509318 198.446512 
L 139.191136 195.817219 
L 142.872955 195.417857 
L 146.554773 193.178032 
L 150.236591 193.11028 
L 153.918409 191.936232 
L 157.600227 191.185185 
L 161.282045 189.733333 
L 164.963864 189.440816 
L 168.645682 188.648705 
L 172.3275 187.831579 
L 176.009318 186.200539 
L 179.691136 185.580328 
L 183.372955 184.211634 
L 187.054773 184.28764 
L 190.736591 181.39422 
L 194.418409 180.189474 
L 198.100227 179.737278 
L 201.782045 178.156098 
L 205.463864 177.659259 
L 209.145682 177.15 
L 212.8275 177.62293 
L 216.509318 175.895146 
L 220.191136 174.617822 
L 223.872955 175.066667 
L 227.554773 174.09863 
L 231.236591 173.483333 
L 234.918409 171.392806 
L 238.600227 170.29011 
L 242.282045 171.680899 
L 245.963864 171.974144 
L 249.645682 172.707692 
L 253.3275 173.187402 
L 257.009318 175.379757 
L 260.691136 174.039344 
L 264.372955 173.760996 
L 268.054773 173.007595 
L 271.736591 173.007595 
L 275.418409 173.835897 
L 279.100227 173.361373 
L 282.782045 173.542857 
L 286.463864 174.4 
L 290.145682 174.301345 
L 293.8275 174 
L 297.509318 172.987156 
L 301.191136 172.473733 
L 304.872955 169.290995 
L 308.554773 169.452632 
L 312.236591 172.758209 
L 315.918409 172.758209 
L 319.600227 171.636181 
L 323.282045 171.831472 
L 326.963864 171.257143 
L 330.645682 171.257143 
L 334.3275 171.451546 
L 338.009318 170.275 
L 341.691136 170.275 
L 345.372955 167.846809 
L 349.054773 167.383784 
L 352.736591 167.383784 
L 356.418409 166.905495 
L 360.100227 166.905495 
L 363.782045 166.256354 
L 367.463864 167.066667 
L 371.145682 166.569492 
L 374.8275 167.4 
L 378.509318 168.423121 
L 382.191136 169.283721 
L 385.872955 168.610526 
L 389.554773 169.482353 
L 393.236591 171.257143 
L 396.918409 170.579641 
L 400.600227 171.717073 
" style="fill:none;stroke:#000080;stroke-linecap:square;stroke-width:2;"/>
   </g>
   <g id="patch_3">
    <path d="M 91.3275 284.4 
L 91.3275 7.2 
" style="fill:none;stroke:#000000;stroke-linecap:square;stroke-linejoin:miter;stroke-width:0.8;"/>
   </g>
   <g id="patch_4">
    <path d="M 91.3275 284.4 
L 415.3275 284.4 
" style="fill:none;stroke:#000000;stroke-linecap:square;stroke-linejoin:miter;stroke-width:0.8;"/>
   </g>
  </g>
  <g id="axes_2">
   <g id="patch_5">
    <path d="M 431.5275 284.4 
L 755.5275 284.4 
L 755.5275 7.2 
L 431.5275 7.2 
z
" style="fill:none;"/>
   </g>
   <g id="matplotlib.axis_3">
    <g id="xtick_6">
     <g id="line2d_11">
      <g>
       <use style="stroke:#000000;stroke-width:0.8;" x="446.254773" xlink:href="#mc4460b8628" y="284.4"/>
      </g>
     </g>
     <g id="text_11">
      <!-- 1 -->
      <g transform="translate(437.347273 314.175625)scale(0.28 -0.28)">
       <use xlink:href="#DejaVuSans-49"/>
      </g>
     </g>
    </g>
    <g id="xtick_7">
     <g id="line2d_12">
      <g>
       <use style="stroke:#000000;stroke-width:0.8;" x="519.891136" xlink:href="#mc4460b8628" y="284.4"/>
      </g>
     </g>
     <g id="text_12">
      <!-- 2 -->
      <g transform="translate(510.983636 314.175625)scale(0.28 -0.28)">
       <use xlink:href="#DejaVuSans-50"/>
      </g>
     </g>
    </g>
    <g id="xtick_8">
     <g id="line2d_13">
      <g>
       <use style="stroke:#000000;stroke-width:0.8;" x="593.5275" xlink:href="#mc4460b8628" y="284.4"/>
      </g>
     </g>
     <g id="text_13">
      <!-- 3 -->
      <g transform="translate(584.62 314.175625)scale(0.28 -0.28)">
       <use xlink:href="#DejaVuSans-51"/>
      </g>
     </g>
    </g>
    <g id="xtick_9">
     <g id="line2d_14">
      <g>
       <use style="stroke:#000000;stroke-width:0.8;" x="667.163864" xlink:href="#mc4460b8628" y="284.4"/>
      </g>
     </g>
     <g id="text_14">
      <!-- 4 -->
      <g transform="translate(658.256364 314.175625)scale(0.28 -0.28)">
       <use xlink:href="#DejaVuSans-52"/>
      </g>
     </g>
    </g>
    <g id="xtick_10">
     <g id="line2d_15">
      <g>
       <use style="stroke:#000000;stroke-width:0.8;" x="740.800227" xlink:href="#mc4460b8628" y="284.4"/>
      </g>
     </g>
     <g id="text_15">
      <!-- 5 -->
      <g transform="translate(731.892727 314.175625)scale(0.28 -0.28)">
       <use xlink:href="#DejaVuSans-53"/>
      </g>
     </g>
    </g>
    <g id="text_16">
     <!-- -log10 p-value -->
     <g transform="translate(492.6925 345.274375)scale(0.28 -0.28)">
      <use xlink:href="#DejaVuSans-45"/>
      <use x="36.083984" xlink:href="#DejaVuSans-108"/>
      <use x="63.867188" xlink:href="#DejaVuSans-111"/>
      <use x="125.048828" xlink:href="#DejaVuSans-103"/>
      <use x="188.525391" xlink:href="#DejaVuSans-49"/>
      <use x="252.148438" xlink:href="#DejaVuSans-48"/>
      <use x="315.771484" xlink:href="#DejaVuSans-32"/>
      <use x="347.558594" xlink:href="#DejaVuSans-112"/>
      <use x="411.035156" xlink:href="#DejaVuSans-45"/>
      <use x="447.087891" xlink:href="#DejaVuSans-118"/>
      <use x="506.267578" xlink:href="#DejaVuSans-97"/>
      <use x="567.546875" xlink:href="#DejaVuSans-108"/>
      <use x="595.330078" xlink:href="#DejaVuSans-117"/>
      <use x="658.708984" xlink:href="#DejaVuSans-101"/>
     </g>
    </g>
   </g>
   <g id="matplotlib.axis_4">
    <g id="ytick_4"/>
    <g id="ytick_5"/>
    <g id="ytick_6"/>
   </g>
   <g id="line2d_16">
    <path clip-path="url(#p9cd22c2542)" d="M 446.254773 134.050224 
L 449.936591 136.457971 
L 453.618409 130.84898 
L 457.300227 128.778947 
L 460.982045 124.268852 
L 464.663864 123.572414 
L 468.345682 121.814634 
L 472.0275 121.938462 
L 475.709318 117.849664 
L 479.391136 117.566667 
L 483.072955 112.311111 
L 486.754773 110.4 
L 490.436591 111.216 
L 494.118409 112.036364 
L 497.800227 114.685714 
L 501.482045 115.041509 
L 505.163864 116.861538 
L 508.845682 116.164706 
L 512.5275 113.733333 
L 516.209318 113.080851 
L 519.891136 110.4 
L 523.572955 107.326829 
L 527.254773 109.5 
L 530.936591 112.971429 
L 534.618409 114.189474 
L 538.300227 115.44 
L 541.982045 115.733333 
L 545.663864 110.914286 
L 549.345682 103.146269 
L 553.0275 104.4 
L 556.709318 105.692308 
L 560.391136 102.9 
L 564.072955 104.209524 
L 567.754773 104.209524 
L 571.436591 106.957377 
L 575.118409 108.4 
L 578.800227 102.331034 
L 582.482045 103.511111 
L 586.163864 94.32 
L 589.845682 95.828571 
L 593.5275 99.038298 
L 597.209318 99.038298 
L 600.891136 99.038298 
L 604.572955 95.008696 
L 608.254773 90.8 
L 611.936591 90.8 
L 615.618409 86.4 
L 619.300227 86.4 
L 622.982045 81.795349 
L 626.663864 86.4 
L 630.345682 88.092308 
L 634.0275 91.751351 
L 637.709318 86.4 
L 641.391136 88.285714 
L 645.072955 88.285714 
L 648.754773 92.4 
L 652.436591 92.4 
L 656.118409 94.65 
L 659.800227 97.045161 
L 663.482045 99.6 
L 667.163864 99.6 
L 670.845682 99.6 
L 674.5275 99.6 
L 678.209318 102.331034 
L 681.891136 102.331034 
L 685.572955 102.331034 
L 689.254773 88.844444 
L 692.936591 88.844444 
L 696.618409 88.844444 
L 700.300227 88.844444 
L 703.982045 91.476923 
L 707.663864 91.476923 
L 711.345682 91.476923 
L 715.0275 91.476923 
L 718.709318 91.476923 
L 722.391136 91.476923 
L 726.072955 91.476923 
L 729.754773 94.32 
L 733.436591 94.32 
L 737.118409 94.32 
L 740.800227 94.32 
" style="fill:none;stroke:#8b0000;stroke-linecap:square;stroke-width:2;"/>
   </g>
   <g id="line2d_17">
    <path clip-path="url(#p9cd22c2542)" d="M 446.254773 225.207175 
L 449.936591 227.008696 
L 453.618409 223.787755 
L 457.300227 223.263158 
L 460.982045 220.92459 
L 464.663864 220.675862 
L 468.345682 220.009756 
L 472.0275 218.4 
L 475.709318 218.842953 
L 479.391136 220.233333 
L 483.072955 215.955556 
L 486.754773 216.4 
L 490.436591 214.704 
L 494.118409 214.581818 
L 497.800227 211.328571 
L 501.482045 207.192453 
L 505.163864 205.707692 
L 508.845682 204.164706 
L 512.5275 204.4 
L 516.209318 200.144681 
L 519.891136 197.4 
L 523.572955 191.034146 
L 527.254773 192 
L 530.936591 198.685714 
L 534.618409 197.557895 
L 538.300227 196.4 
L 541.982045 196.4 
L 545.663864 193.885714 
L 549.345682 189.832836 
L 553.0275 192.4 
L 556.709318 195.046154 
L 560.391136 193.65 
L 564.072955 192.209524 
L 567.754773 192.209524 
L 571.436591 189.186885 
L 575.118409 192 
L 578.800227 188.813793 
L 582.482045 196.4 
L 586.163864 189.36 
L 589.845682 192.808163 
L 593.5275 200.144681 
L 597.209318 200.144681 
L 600.891136 200.144681 
L 604.572955 198.313043 
L 608.254773 196.4 
L 611.936591 196.4 
L 615.618409 194.4 
L 619.300227 194.4 
L 622.982045 192.306977 
L 626.663864 192 
L 630.345682 189.630769 
L 634.0275 184.508108 
L 637.709318 181.733333 
L 641.391136 178.8 
L 645.072955 178.8 
L 648.754773 180.4 
L 652.436591 180.4 
L 656.118409 177.15 
L 659.800227 182.206452 
L 663.482045 187.6 
L 667.163864 187.6 
L 670.845682 187.6 
L 674.5275 187.6 
L 678.209318 184.262069 
L 681.891136 184.262069 
L 685.572955 184.262069 
L 689.254773 176.844444 
L 692.936591 176.844444 
L 696.618409 176.844444 
L 700.300227 176.844444 
L 703.982045 182.861538 
L 707.663864 182.861538 
L 711.345682 182.861538 
L 715.0275 182.861538 
L 718.709318 182.861538 
L 722.391136 182.861538 
L 726.072955 182.861538 
L 729.754773 189.36 
L 733.436591 189.36 
L 737.118409 189.36 
L 740.800227 189.36 
" style="fill:none;stroke:#000080;stroke-linecap:square;stroke-width:2;"/>
   </g>
   <g id="patch_6">
    <path d="M 431.5275 284.4 
L 431.5275 7.2 
" style="fill:none;stroke:#000000;stroke-linecap:square;stroke-linejoin:miter;stroke-width:0.8;"/>
   </g>
   <g id="patch_7">
    <path d="M 431.5275 284.4 
L 755.5275 284.4 
" style="fill:none;stroke:#000000;stroke-linecap:square;stroke-linejoin:miter;stroke-width:0.8;"/>
   </g>
  </g>
  <g id="axes_3">
   <g id="patch_8">
    <path d="M 771.7275 284.4 
L 1095.7275 284.4 
L 1095.7275 7.2 
L 771.7275 7.2 
z
" style="fill:none;"/>
   </g>
   <g id="matplotlib.axis_5">
    <g id="xtick_11">
     <g id="line2d_18">
      <g>
       <use style="stroke:#000000;stroke-width:0.8;" x="786.454773" xlink:href="#mc4460b8628" y="284.4"/>
      </g>
     </g>
     <g id="text_17">
      <!-- 1 -->
      <g transform="translate(777.547273 314.175625)scale(0.28 -0.28)">
       <use xlink:href="#DejaVuSans-49"/>
      </g>
     </g>
    </g>
    <g id="xtick_12">
     <g id="line2d_19">
      <g>
       <use style="stroke:#000000;stroke-width:0.8;" x="860.091136" xlink:href="#mc4460b8628" y="284.4"/>
      </g>
     </g>
     <g id="text_18">
      <!-- 2 -->
      <g transform="translate(851.183636 314.175625)scale(0.28 -0.28)">
       <use xlink:href="#DejaVuSans-50"/>
      </g>
     </g>
    </g>
    <g id="xtick_13">
     <g id="line2d_20">
      <g>
       <use style="stroke:#000000;stroke-width:0.8;" x="933.7275" xlink:href="#mc4460b8628" y="284.4"/>
      </g>
     </g>
     <g id="text_19">
      <!-- 3 -->
      <g transform="translate(924.82 314.175625)scale(0.28 -0.28)">
       <use xlink:href="#DejaVuSans-51"/>
      </g>
     </g>
    </g>
    <g id="xtick_14">
     <g id="line2d_21">
      <g>
       <use style="stroke:#000000;stroke-width:0.8;" x="1007.363864" xlink:href="#mc4460b8628" y="284.4"/>
      </g>
     </g>
     <g id="text_20">
      <!-- 4 -->
      <g transform="translate(998.456364 314.175625)scale(0.28 -0.28)">
       <use xlink:href="#DejaVuSans-52"/>
      </g>
     </g>
    </g>
    <g id="xtick_15">
     <g id="line2d_22">
      <g>
       <use style="stroke:#000000;stroke-width:0.8;" x="1081.000227" xlink:href="#mc4460b8628" y="284.4"/>
      </g>
     </g>
     <g id="text_21">
      <!-- 5 -->
      <g transform="translate(1072.092727 314.175625)scale(0.28 -0.28)">
       <use xlink:href="#DejaVuSans-53"/>
      </g>
     </g>
    </g>
    <g id="text_22">
     <!-- -log10 p-value -->
     <g transform="translate(832.8925 345.274375)scale(0.28 -0.28)">
      <use xlink:href="#DejaVuSans-45"/>
      <use x="36.083984" xlink:href="#DejaVuSans-108"/>
      <use x="63.867188" xlink:href="#DejaVuSans-111"/>
      <use x="125.048828" xlink:href="#DejaVuSans-103"/>
      <use x="188.525391" xlink:href="#DejaVuSans-49"/>
      <use x="252.148438" xlink:href="#DejaVuSans-48"/>
      <use x="315.771484" xlink:href="#DejaVuSans-32"/>
      <use x="347.558594" xlink:href="#DejaVuSans-112"/>
      <use x="411.035156" xlink:href="#DejaVuSans-45"/>
      <use x="447.087891" xlink:href="#DejaVuSans-118"/>
      <use x="506.267578" xlink:href="#DejaVuSans-97"/>
      <use x="567.546875" xlink:href="#DejaVuSans-108"/>
      <use x="595.330078" xlink:href="#DejaVuSans-117"/>
      <use x="658.708984" xlink:href="#DejaVuSans-101"/>
     </g>
    </g>
   </g>
   <g id="matplotlib.axis_6">
    <g id="ytick_7"/>
    <g id="ytick_8"/>
    <g id="ytick_9"/>
   </g>
   <g id="line2d_23">
    <path clip-path="url(#p7cc8ab084e)" d="M 786.454773 28.523077 
L 790.136591 28.523077 
L 793.818409 28.617899 
L 797.500227 27.792 
L 801.182045 27.912195 
L 804.863864 27.97377 
L 808.545682 28.164706 
L 812.2275 27.257143 
L 815.909318 27.317031 
L 819.591136 27.44 
L 823.272955 27.503139 
L 826.954773 27.6 
L 830.636591 27.767442 
L 834.318409 26.715789 
L 838.000227 26.776812 
L 841.682045 26.839024 
L 845.363864 26.870588 
L 849.045682 26.967164 
L 852.7275 27.169231 
L 856.409318 27.275 
L 860.091136 25.987302 
L 863.772955 26.108108 
L 867.454773 26.234254 
L 871.136591 26.332584 
L 874.818409 26.4 
L 878.500227 26.504046 
L 882.182045 26.685714 
L 885.863864 26.761446 
L 889.545682 25.319255 
L 893.2275 25.412658 
L 896.909318 25.444586 
L 900.591136 25.444586 
L 904.272955 25.509677 
L 907.954773 25.576471 
L 911.636591 23.943624 
L 915.318409 23.991837 
L 919.000227 24.016438 
L 922.682045 24.144681 
L 926.363864 22.341176 
L 930.045682 22.355556 
L 933.7275 22.370149 
L 937.409318 22.384962 
L 941.091136 22.4 
L 944.772955 22.446512 
L 948.454773 22.446512 
L 952.136591 22.446512 
L 955.818409 22.512 
L 959.500227 22.563934 
L 963.182045 22.618487 
L 966.863864 22.65641 
L 970.545682 22.715789 
L 974.2275 22.736283 
L 977.909318 22.757143 
L 981.591136 22.822018 
L 985.272955 22.86729 
L 988.954773 22.890566 
L 992.636591 22.988235 
L 996.318409 23.04 
L 1000.000227 23.04 
L 1003.682045 23.093878 
L 1007.363864 23.15 
L 1011.045682 23.178947 
L 1014.7275 23.178947 
L 1018.409318 23.178947 
L 1022.091136 23.208511 
L 1025.772955 23.208511 
L 1029.454773 23.333333 
L 1033.136591 23.366292 
L 1036.818409 23.434483 
L 1040.500227 23.505882 
L 1044.182045 23.505882 
L 1047.863864 23.542857 
L 1051.545682 23.580723 
L 1055.2275 23.580723 
L 1058.909318 23.580723 
L 1062.591136 23.580723 
L 1066.272955 23.741772 
L 1069.954773 23.784615 
L 1073.636591 23.784615 
L 1077.318409 23.828571 
L 1081.000227 23.873684 
" style="fill:none;stroke:#8b0000;stroke-linecap:square;stroke-width:2;"/>
   </g>
   <g id="line2d_24">
    <path clip-path="url(#p7cc8ab084e)" d="M 786.454773 202.153846 
L 790.136591 202.153846 
L 793.818409 202.221012 
L 797.500227 199.92 
L 801.182045 198.546341 
L 804.863864 198.92459 
L 808.545682 197.878992 
L 812.2275 196.4 
L 815.909318 195.631441 
L 819.591136 196.4 
L 823.272955 195.610762 
L 826.954773 196.8 
L 830.636591 195.990698 
L 834.318409 194.715789 
L 838.000227 193.849275 
L 841.682045 192.965854 
L 845.363864 192.517647 
L 849.045682 192.459701 
L 852.7275 190.984615 
L 856.409318 189.525 
L 860.091136 189.415873 
L 863.772955 190.216216 
L 867.454773 188.134807 
L 871.136591 186.51236 
L 874.818409 188.4 
L 878.500227 186.73526 
L 882.182045 183.828571 
L 885.863864 182.616867 
L 889.545682 181.095652 
L 893.2275 180.805063 
L 896.909318 181.826752 
L 900.591136 181.826752 
L 904.272955 182.206452 
L 907.954773 180.870588 
L 911.636591 178.091275 
L 915.318409 176.644898 
L 919.000227 175.906849 
L 922.682045 173.931915 
L 926.363864 169.870588 
L 930.045682 169.022222 
L 933.7275 168.161194 
L 937.409318 169.27218 
L 941.091136 170.4 
L 944.772955 171.84186 
L 948.454773 171.84186 
L 952.136591 171.84186 
L 955.818409 168.24 
L 959.500227 165.383607 
L 963.182045 162.383193 
L 966.863864 162.553846 
L 970.545682 159.347368 
L 974.2275 158.240708 
L 977.909318 159.471429 
L 981.591136 160.877064 
L 985.272955 161.035514 
L 988.954773 159.871698 
L 992.636591 160.164706 
L 996.318409 160.32 
L 1000.000227 160.32 
L 1003.682045 160.481633 
L 1007.363864 163.4 
L 1011.045682 162.126316 
L 1014.7275 162.126316 
L 1018.409318 162.126316 
L 1022.091136 160.825532 
L 1025.772955 160.825532 
L 1029.454773 161.2 
L 1033.136591 159.81573 
L 1036.818409 156.951724 
L 1040.500227 153.952941 
L 1044.182045 153.952941 
L 1047.863864 152.4 
L 1051.545682 150.809639 
L 1055.2275 150.809639 
L 1058.909318 150.809639 
L 1062.591136 150.809639 
L 1066.272955 154.070886 
L 1069.954773 152.4 
L 1073.636591 152.4 
L 1077.318409 150.685714 
L 1081.000227 152.4 
" style="fill:none;stroke:#000080;stroke-linecap:square;stroke-width:2;"/>
   </g>
   <g id="patch_9">
    <path d="M 771.7275 284.4 
L 771.7275 7.2 
" style="fill:none;stroke:#000000;stroke-linecap:square;stroke-linejoin:miter;stroke-width:0.8;"/>
   </g>
   <g id="patch_10">
    <path d="M 771.7275 284.4 
L 1095.7275 284.4 
" style="fill:none;stroke:#000000;stroke-linecap:square;stroke-linejoin:miter;stroke-width:0.8;"/>
   </g>
  </g>
 </g>
 <defs>
  <clipPath id="p7fea31897a">
   <rect height="277.2" width="324" x="91.3275" y="7.2"/>
  </clipPath>
  <clipPath id="p9cd22c2542">
   <rect height="277.2" width="324" x="431.5275" y="7.2"/>
  </clipPath>
  <clipPath id="p7cc8ab084e">
   <rect height="277.2" width="324" x="771.7275" y="7.2"/>
  </clipPath>
 </defs>
</svg>
