<?xml version="1.0" encoding="utf-8" standalone="no"?>
<!DOCTYPE svg PUBLIC "-//W3C//DTD SVG 1.1//EN"
  "http://www.w3.org/Graphics/SVG/1.1/DTD/svg11.dtd">
<!-- Created with matplotlib (https://matplotlib.org/) -->
<svg height="368.935313pt" version="1.1" viewBox="0 0 1120.7425 368.935313" width="1120.7425pt" xmlns="http://www.w3.org/2000/svg" xmlns:xlink="http://www.w3.org/1999/xlink">
 <defs>
  <style type="text/css">
*{stroke-linecap:butt;stroke-linejoin:round;}
  </style>
 </defs>
 <g id="figure_1">
  <g id="patch_1">
   <path d="M 0 368.935313 
L 1120.7425 368.935313 
L 1120.7425 0 
L 0 0 
z
" style="fill:none;"/>
  </g>
  <g id="axes_1">
   <g id="patch_2">
    <path d="M 109.1425 295.037813 
L 433.1425 295.037813 
L 433.1425 17.837813 
L 109.1425 17.837813 
z
" style="fill:none;"/>
   </g>
   <g id="matplotlib.axis_1">
    <g id="xtick_1">
     <g id="line2d_1">
      <defs>
       <path d="M 0 0 
L 0 5 
" id="m8c18572f53" style="stroke:#000000;stroke-width:0.8;"/>
      </defs>
      <g>
       <use style="stroke:#000000;stroke-width:0.8;" x="123.869773" xlink:href="#m8c18572f53" y="295.037813"/>
      </g>
     </g>
     <g id="text_1">
      <!-- 1 -->
      <defs>
       <path d="M 12.40625 8.296875 
L 28.515625 8.296875 
L 28.515625 63.921875 
L 10.984375 60.40625 
L 10.984375 69.390625 
L 28.421875 72.90625 
L 38.28125 72.90625 
L 38.28125 8.296875 
L 54.390625 8.296875 
L 54.390625 0 
L 12.40625 0 
z
" id="DejaVuSans-49"/>
      </defs>
      <g transform="translate(114.962273 324.813438)scale(0.28 -0.28)">
       <use xlink:href="#DejaVuSans-49"/>
      </g>
     </g>
    </g>
    <g id="xtick_2">
     <g id="line2d_2">
      <g>
       <use style="stroke:#000000;stroke-width:0.8;" x="197.506136" xlink:href="#m8c18572f53" y="295.037813"/>
      </g>
     </g>
     <g id="text_2">
      <!-- 2 -->
      <defs>
       <path d="M 19.1875 8.296875 
L 53.609375 8.296875 
L 53.609375 0 
L 7.328125 0 
L 7.328125 8.296875 
Q 12.9375 14.109375 22.625 23.890625 
Q 32.328125 33.6875 34.8125 36.53125 
Q 39.546875 41.84375 41.421875 45.53125 
Q 43.3125 49.21875 43.3125 52.78125 
Q 43.3125 58.59375 39.234375 62.25 
Q 35.15625 65.921875 28.609375 65.921875 
Q 23.96875 65.921875 18.8125 64.3125 
Q 13.671875 62.703125 7.8125 59.421875 
L 7.8125 69.390625 
Q 13.765625 71.78125 18.9375 73 
Q 24.125 74.21875 28.421875 74.21875 
Q 39.75 74.21875 46.484375 68.546875 
Q 53.21875 62.890625 53.21875 53.421875 
Q 53.21875 48.921875 51.53125 44.890625 
Q 49.859375 40.875 45.40625 35.40625 
Q 44.1875 33.984375 37.640625 27.21875 
Q 31.109375 20.453125 19.1875 8.296875 
z
" id="DejaVuSans-50"/>
      </defs>
      <g transform="translate(188.598636 324.813438)scale(0.28 -0.28)">
       <use xlink:href="#DejaVuSans-50"/>
      </g>
     </g>
    </g>
    <g id="xtick_3">
     <g id="line2d_3">
      <g>
       <use style="stroke:#000000;stroke-width:0.8;" x="271.1425" xlink:href="#m8c18572f53" y="295.037813"/>
      </g>
     </g>
     <g id="text_3">
      <!-- 3 -->
      <defs>
       <path d="M 40.578125 39.3125 
Q 47.65625 37.796875 51.625 33 
Q 55.609375 28.21875 55.609375 21.1875 
Q 55.609375 10.40625 48.1875 4.484375 
Q 40.765625 -1.421875 27.09375 -1.421875 
Q 22.515625 -1.421875 17.65625 -0.515625 
Q 12.796875 0.390625 7.625 2.203125 
L 7.625 11.71875 
Q 11.71875 9.328125 16.59375 8.109375 
Q 21.484375 6.890625 26.8125 6.890625 
Q 36.078125 6.890625 40.9375 10.546875 
Q 45.796875 14.203125 45.796875 21.1875 
Q 45.796875 27.640625 41.28125 31.265625 
Q 36.765625 34.90625 28.71875 34.90625 
L 20.21875 34.90625 
L 20.21875 43.015625 
L 29.109375 43.015625 
Q 36.375 43.015625 40.234375 45.921875 
Q 44.09375 48.828125 44.09375 54.296875 
Q 44.09375 59.90625 40.109375 62.90625 
Q 36.140625 65.921875 28.71875 65.921875 
Q 24.65625 65.921875 20.015625 65.03125 
Q 15.375 64.15625 9.8125 62.3125 
L 9.8125 71.09375 
Q 15.4375 72.65625 20.34375 73.4375 
Q 25.25 74.21875 29.59375 74.21875 
Q 40.828125 74.21875 47.359375 69.109375 
Q 53.90625 64.015625 53.90625 55.328125 
Q 53.90625 49.265625 50.4375 45.09375 
Q 46.96875 40.921875 40.578125 39.3125 
z
" id="DejaVuSans-51"/>
      </defs>
      <g transform="translate(262.235 324.813438)scale(0.28 -0.28)">
       <use xlink:href="#DejaVuSans-51"/>
      </g>
     </g>
    </g>
    <g id="xtick_4">
     <g id="line2d_4">
      <g>
       <use style="stroke:#000000;stroke-width:0.8;" x="344.778864" xlink:href="#m8c18572f53" y="295.037813"/>
      </g>
     </g>
     <g id="text_4">
      <!-- 4 -->
      <defs>
       <path d="M 37.796875 64.3125 
L 12.890625 25.390625 
L 37.796875 25.390625 
z
M 35.203125 72.90625 
L 47.609375 72.90625 
L 47.609375 25.390625 
L 58.015625 25.390625 
L 58.015625 17.1875 
L 47.609375 17.1875 
L 47.609375 0 
L 37.796875 0 
L 37.796875 17.1875 
L 4.890625 17.1875 
L 4.890625 26.703125 
z
" id="DejaVuSans-52"/>
      </defs>
      <g transform="translate(335.871364 324.813438)scale(0.28 -0.28)">
       <use xlink:href="#DejaVuSans-52"/>
      </g>
     </g>
    </g>
    <g id="xtick_5">
     <g id="line2d_5">
      <g>
       <use style="stroke:#000000;stroke-width:0.8;" x="418.415227" xlink:href="#m8c18572f53" y="295.037813"/>
      </g>
     </g>
     <g id="text_5">
      <!-- 5 -->
      <defs>
       <path d="M 10.796875 72.90625 
L 49.515625 72.90625 
L 49.515625 64.59375 
L 19.828125 64.59375 
L 19.828125 46.734375 
Q 21.96875 47.46875 24.109375 47.828125 
Q 26.265625 48.1875 28.421875 48.1875 
Q 40.625 48.1875 47.75 41.5 
Q 54.890625 34.8125 54.890625 23.390625 
Q 54.890625 11.625 47.5625 5.09375 
Q 40.234375 -1.421875 26.90625 -1.421875 
Q 22.3125 -1.421875 17.546875 -0.640625 
Q 12.796875 0.140625 7.71875 1.703125 
L 7.71875 11.625 
Q 12.109375 9.234375 16.796875 8.0625 
Q 21.484375 6.890625 26.703125 6.890625 
Q 35.15625 6.890625 40.078125 11.328125 
Q 45.015625 15.765625 45.015625 23.390625 
Q 45.015625 31 40.078125 35.4375 
Q 35.15625 39.890625 26.703125 39.890625 
Q 22.75 39.890625 18.8125 39.015625 
Q 14.890625 38.140625 10.796875 36.28125 
z
" id="DejaVuSans-53"/>
      </defs>
      <g transform="translate(409.507727 324.813438)scale(0.28 -0.28)">
       <use xlink:href="#DejaVuSans-53"/>
      </g>
     </g>
    </g>
    <g id="text_6">
     <!-- -log10 p-value -->
     <defs>
      <path d="M 4.890625 31.390625 
L 31.203125 31.390625 
L 31.203125 23.390625 
L 4.890625 23.390625 
z
" id="DejaVuSans-45"/>
      <path d="M 9.421875 75.984375 
L 18.40625 75.984375 
L 18.40625 0 
L 9.421875 0 
z
" id="DejaVuSans-108"/>
      <path d="M 30.609375 48.390625 
Q 23.390625 48.390625 19.1875 42.75 
Q 14.984375 37.109375 14.984375 27.296875 
Q 14.984375 17.484375 19.15625 11.84375 
Q 23.34375 6.203125 30.609375 6.203125 
Q 37.796875 6.203125 41.984375 11.859375 
Q 46.1875 17.53125 46.1875 27.296875 
Q 46.1875 37.015625 41.984375 42.703125 
Q 37.796875 48.390625 30.609375 48.390625 
z
M 30.609375 56 
Q 42.328125 56 49.015625 48.375 
Q 55.71875 40.765625 55.71875 27.296875 
Q 55.71875 13.875 49.015625 6.21875 
Q 42.328125 -1.421875 30.609375 -1.421875 
Q 18.84375 -1.421875 12.171875 6.21875 
Q 5.515625 13.875 5.515625 27.296875 
Q 5.515625 40.765625 12.171875 48.375 
Q 18.84375 56 30.609375 56 
z
" id="DejaVuSans-111"/>
      <path d="M 45.40625 27.984375 
Q 45.40625 37.75 41.375 43.109375 
Q 37.359375 48.484375 30.078125 48.484375 
Q 22.859375 48.484375 18.828125 43.109375 
Q 14.796875 37.75 14.796875 27.984375 
Q 14.796875 18.265625 18.828125 12.890625 
Q 22.859375 7.515625 30.078125 7.515625 
Q 37.359375 7.515625 41.375 12.890625 
Q 45.40625 18.265625 45.40625 27.984375 
z
M 54.390625 6.78125 
Q 54.390625 -7.171875 48.1875 -13.984375 
Q 42 -20.796875 29.203125 -20.796875 
Q 24.46875 -20.796875 20.265625 -20.09375 
Q 16.0625 -19.390625 12.109375 -17.921875 
L 12.109375 -9.1875 
Q 16.0625 -11.328125 19.921875 -12.34375 
Q 23.78125 -13.375 27.78125 -13.375 
Q 36.625 -13.375 41.015625 -8.765625 
Q 45.40625 -4.15625 45.40625 5.171875 
L 45.40625 9.625 
Q 42.625 4.78125 38.28125 2.390625 
Q 33.9375 0 27.875 0 
Q 17.828125 0 11.671875 7.65625 
Q 5.515625 15.328125 5.515625 27.984375 
Q 5.515625 40.671875 11.671875 48.328125 
Q 17.828125 56 27.875 56 
Q 33.9375 56 38.28125 53.609375 
Q 42.625 51.21875 45.40625 46.390625 
L 45.40625 54.6875 
L 54.390625 54.6875 
z
" id="DejaVuSans-103"/>
      <path d="M 31.78125 66.40625 
Q 24.171875 66.40625 20.328125 58.90625 
Q 16.5 51.421875 16.5 36.375 
Q 16.5 21.390625 20.328125 13.890625 
Q 24.171875 6.390625 31.78125 6.390625 
Q 39.453125 6.390625 43.28125 13.890625 
Q 47.125 21.390625 47.125 36.375 
Q 47.125 51.421875 43.28125 58.90625 
Q 39.453125 66.40625 31.78125 66.40625 
z
M 31.78125 74.21875 
Q 44.046875 74.21875 50.515625 64.515625 
Q 56.984375 54.828125 56.984375 36.375 
Q 56.984375 17.96875 50.515625 8.265625 
Q 44.046875 -1.421875 31.78125 -1.421875 
Q 19.53125 -1.421875 13.0625 8.265625 
Q 6.59375 17.96875 6.59375 36.375 
Q 6.59375 54.828125 13.0625 64.515625 
Q 19.53125 74.21875 31.78125 74.21875 
z
" id="DejaVuSans-48"/>
      <path id="DejaVuSans-32"/>
      <path d="M 18.109375 8.203125 
L 18.109375 -20.796875 
L 9.078125 -20.796875 
L 9.078125 54.6875 
L 18.109375 54.6875 
L 18.109375 46.390625 
Q 20.953125 51.265625 25.265625 53.625 
Q 29.59375 56 35.59375 56 
Q 45.5625 56 51.78125 48.09375 
Q 58.015625 40.1875 58.015625 27.296875 
Q 58.015625 14.40625 51.78125 6.484375 
Q 45.5625 -1.421875 35.59375 -1.421875 
Q 29.59375 -1.421875 25.265625 0.953125 
Q 20.953125 3.328125 18.109375 8.203125 
z
M 48.6875 27.296875 
Q 48.6875 37.203125 44.609375 42.84375 
Q 40.53125 48.484375 33.40625 48.484375 
Q 26.265625 48.484375 22.1875 42.84375 
Q 18.109375 37.203125 18.109375 27.296875 
Q 18.109375 17.390625 22.1875 11.75 
Q 26.265625 6.109375 33.40625 6.109375 
Q 40.53125 6.109375 44.609375 11.75 
Q 48.6875 17.390625 48.6875 27.296875 
z
" id="DejaVuSans-112"/>
      <path d="M 2.984375 54.6875 
L 12.5 54.6875 
L 29.59375 8.796875 
L 46.6875 54.6875 
L 56.203125 54.6875 
L 35.6875 0 
L 23.484375 0 
z
" id="DejaVuSans-118"/>
      <path d="M 34.28125 27.484375 
Q 23.390625 27.484375 19.1875 25 
Q 14.984375 22.515625 14.984375 16.5 
Q 14.984375 11.71875 18.140625 8.90625 
Q 21.296875 6.109375 26.703125 6.109375 
Q 34.1875 6.109375 38.703125 11.40625 
Q 43.21875 16.703125 43.21875 25.484375 
L 43.21875 27.484375 
z
M 52.203125 31.203125 
L 52.203125 0 
L 43.21875 0 
L 43.21875 8.296875 
Q 40.140625 3.328125 35.546875 0.953125 
Q 30.953125 -1.421875 24.3125 -1.421875 
Q 15.921875 -1.421875 10.953125 3.296875 
Q 6 8.015625 6 15.921875 
Q 6 25.140625 12.171875 29.828125 
Q 18.359375 34.515625 30.609375 34.515625 
L 43.21875 34.515625 
L 43.21875 35.40625 
Q 43.21875 41.609375 39.140625 45 
Q 35.0625 48.390625 27.6875 48.390625 
Q 23 48.390625 18.546875 47.265625 
Q 14.109375 46.140625 10.015625 43.890625 
L 10.015625 52.203125 
Q 14.9375 54.109375 19.578125 55.046875 
Q 24.21875 56 28.609375 56 
Q 40.484375 56 46.34375 49.84375 
Q 52.203125 43.703125 52.203125 31.203125 
z
" id="DejaVuSans-97"/>
      <path d="M 8.5 21.578125 
L 8.5 54.6875 
L 17.484375 54.6875 
L 17.484375 21.921875 
Q 17.484375 14.15625 20.5 10.265625 
Q 23.53125 6.390625 29.59375 6.390625 
Q 36.859375 6.390625 41.078125 11.03125 
Q 45.3125 15.671875 45.3125 23.6875 
L 45.3125 54.6875 
L 54.296875 54.6875 
L 54.296875 0 
L 45.3125 0 
L 45.3125 8.40625 
Q 42.046875 3.421875 37.71875 1 
Q 33.40625 -1.421875 27.6875 -1.421875 
Q 18.265625 -1.421875 13.375 4.4375 
Q 8.5 10.296875 8.5 21.578125 
z
M 31.109375 56 
z
" id="DejaVuSans-117"/>
      <path d="M 56.203125 29.59375 
L 56.203125 25.203125 
L 14.890625 25.203125 
Q 15.484375 15.921875 20.484375 11.0625 
Q 25.484375 6.203125 34.421875 6.203125 
Q 39.59375 6.203125 44.453125 7.46875 
Q 49.3125 8.734375 54.109375 11.28125 
L 54.109375 2.78125 
Q 49.265625 0.734375 44.1875 -0.34375 
Q 39.109375 -1.421875 33.890625 -1.421875 
Q 20.796875 -1.421875 13.15625 6.1875 
Q 5.515625 13.8125 5.515625 26.8125 
Q 5.515625 40.234375 12.765625 48.109375 
Q 20.015625 56 32.328125 56 
Q 43.359375 56 49.78125 48.890625 
Q 56.203125 41.796875 56.203125 29.59375 
z
M 47.21875 32.234375 
Q 47.125 39.59375 43.09375 43.984375 
Q 39.0625 48.390625 32.421875 48.390625 
Q 24.90625 48.390625 20.390625 44.140625 
Q 15.875 39.890625 15.1875 32.171875 
z
" id="DejaVuSans-101"/>
     </defs>
     <g transform="translate(170.3075 355.912188)scale(0.28 -0.28)">
      <use xlink:href="#DejaVuSans-45"/>
      <use x="36.083984" xlink:href="#DejaVuSans-108"/>
      <use x="63.867188" xlink:href="#DejaVuSans-111"/>
      <use x="125.048828" xlink:href="#DejaVuSans-103"/>
      <use x="188.525391" xlink:href="#DejaVuSans-49"/>
      <use x="252.148438" xlink:href="#DejaVuSans-48"/>
      <use x="315.771484" xlink:href="#DejaVuSans-32"/>
      <use x="347.558594" xlink:href="#DejaVuSans-112"/>
      <use x="411.035156" xlink:href="#DejaVuSans-45"/>
      <use x="447.087891" xlink:href="#DejaVuSans-118"/>
      <use x="506.267578" xlink:href="#DejaVuSans-97"/>
      <use x="567.546875" xlink:href="#DejaVuSans-108"/>
      <use x="595.330078" xlink:href="#DejaVuSans-117"/>
      <use x="658.708984" xlink:href="#DejaVuSans-101"/>
     </g>
    </g>
   </g>
   <g id="matplotlib.axis_2">
    <g id="ytick_1">
     <g id="line2d_6">
      <defs>
       <path d="M 0 0 
L -5 0 
" id="m8d22a6b75e" style="stroke:#000000;stroke-width:0.8;"/>
      </defs>
      <g>
       <use style="stroke:#000000;stroke-width:0.8;" x="109.1425" xlink:href="#m8d22a6b75e" y="295.037813"/>
      </g>
     </g>
     <g id="text_7">
      <!-- 0.00 -->
      <defs>
       <path d="M 10.6875 12.40625 
L 21 12.40625 
L 21 0 
L 10.6875 0 
z
" id="DejaVuSans-46"/>
      </defs>
      <g transform="translate(38.29875 305.675625)scale(0.28 -0.28)">
       <use xlink:href="#DejaVuSans-48"/>
       <use x="63.623047" xlink:href="#DejaVuSans-46"/>
       <use x="95.410156" xlink:href="#DejaVuSans-48"/>
       <use x="159.033203" xlink:href="#DejaVuSans-48"/>
      </g>
     </g>
    </g>
    <g id="ytick_2">
     <g id="line2d_7">
      <g>
       <use style="stroke:#000000;stroke-width:0.8;" x="109.1425" xlink:href="#m8d22a6b75e" y="225.737813"/>
      </g>
     </g>
     <g id="text_8">
      <!-- 0.25 -->
      <g transform="translate(38.29875 236.375625)scale(0.28 -0.28)">
       <use xlink:href="#DejaVuSans-48"/>
       <use x="63.623047" xlink:href="#DejaVuSans-46"/>
       <use x="95.410156" xlink:href="#DejaVuSans-50"/>
       <use x="159.033203" xlink:href="#DejaVuSans-53"/>
      </g>
     </g>
    </g>
    <g id="ytick_3">
     <g id="line2d_8">
      <g>
       <use style="stroke:#000000;stroke-width:0.8;" x="109.1425" xlink:href="#m8d22a6b75e" y="156.437813"/>
      </g>
     </g>
     <g id="text_9">
      <!-- 0.50 -->
      <g transform="translate(38.29875 167.075625)scale(0.28 -0.28)">
       <use xlink:href="#DejaVuSans-48"/>
       <use x="63.623047" xlink:href="#DejaVuSans-46"/>
       <use x="95.410156" xlink:href="#DejaVuSans-53"/>
       <use x="159.033203" xlink:href="#DejaVuSans-48"/>
      </g>
     </g>
    </g>
    <g id="ytick_4">
     <g id="line2d_9">
      <g>
       <use style="stroke:#000000;stroke-width:0.8;" x="109.1425" xlink:href="#m8d22a6b75e" y="87.137813"/>
      </g>
     </g>
     <g id="text_10">
      <!-- 0.75 -->
      <defs>
       <path d="M 8.203125 72.90625 
L 55.078125 72.90625 
L 55.078125 68.703125 
L 28.609375 0 
L 18.3125 0 
L 43.21875 64.59375 
L 8.203125 64.59375 
z
" id="DejaVuSans-55"/>
      </defs>
      <g transform="translate(38.29875 97.775625)scale(0.28 -0.28)">
       <use xlink:href="#DejaVuSans-48"/>
       <use x="63.623047" xlink:href="#DejaVuSans-46"/>
       <use x="95.410156" xlink:href="#DejaVuSans-55"/>
       <use x="159.033203" xlink:href="#DejaVuSans-53"/>
      </g>
     </g>
    </g>
    <g id="ytick_5">
     <g id="line2d_10">
      <g>
       <use style="stroke:#000000;stroke-width:0.8;" x="109.1425" xlink:href="#m8d22a6b75e" y="17.837813"/>
      </g>
     </g>
     <g id="text_11">
      <!-- 1.00 -->
      <g transform="translate(38.29875 28.475625)scale(0.28 -0.28)">
       <use xlink:href="#DejaVuSans-49"/>
       <use x="63.623047" xlink:href="#DejaVuSans-46"/>
       <use x="95.410156" xlink:href="#DejaVuSans-48"/>
       <use x="159.033203" xlink:href="#DejaVuSans-48"/>
      </g>
     </g>
    </g>
    <g id="text_12">
     <!-- Specificity -->
     <defs>
      <path d="M 53.515625 70.515625 
L 53.515625 60.890625 
Q 47.90625 63.578125 42.921875 64.890625 
Q 37.9375 66.21875 33.296875 66.21875 
Q 25.25 66.21875 20.875 63.09375 
Q 16.5 59.96875 16.5 54.203125 
Q 16.5 49.359375 19.40625 46.890625 
Q 22.3125 44.4375 30.421875 42.921875 
L 36.375 41.703125 
Q 47.40625 39.59375 52.65625 34.296875 
Q 57.90625 29 57.90625 20.125 
Q 57.90625 9.515625 50.796875 4.046875 
Q 43.703125 -1.421875 29.984375 -1.421875 
Q 24.8125 -1.421875 18.96875 -0.25 
Q 13.140625 0.921875 6.890625 3.21875 
L 6.890625 13.375 
Q 12.890625 10.015625 18.65625 8.296875 
Q 24.421875 6.59375 29.984375 6.59375 
Q 38.421875 6.59375 43.015625 9.90625 
Q 47.609375 13.234375 47.609375 19.390625 
Q 47.609375 24.75 44.3125 27.78125 
Q 41.015625 30.8125 33.5 32.328125 
L 27.484375 33.5 
Q 16.453125 35.6875 11.515625 40.375 
Q 6.59375 45.0625 6.59375 53.421875 
Q 6.59375 63.09375 13.40625 68.65625 
Q 20.21875 74.21875 32.171875 74.21875 
Q 37.3125 74.21875 42.625 73.28125 
Q 47.953125 72.359375 53.515625 70.515625 
z
" id="DejaVuSans-83"/>
      <path d="M 48.78125 52.59375 
L 48.78125 44.1875 
Q 44.96875 46.296875 41.140625 47.34375 
Q 37.3125 48.390625 33.40625 48.390625 
Q 24.65625 48.390625 19.8125 42.84375 
Q 14.984375 37.3125 14.984375 27.296875 
Q 14.984375 17.28125 19.8125 11.734375 
Q 24.65625 6.203125 33.40625 6.203125 
Q 37.3125 6.203125 41.140625 7.25 
Q 44.96875 8.296875 48.78125 10.40625 
L 48.78125 2.09375 
Q 45.015625 0.34375 40.984375 -0.53125 
Q 36.96875 -1.421875 32.421875 -1.421875 
Q 20.0625 -1.421875 12.78125 6.34375 
Q 5.515625 14.109375 5.515625 27.296875 
Q 5.515625 40.671875 12.859375 48.328125 
Q 20.21875 56 33.015625 56 
Q 37.15625 56 41.109375 55.140625 
Q 45.0625 54.296875 48.78125 52.59375 
z
" id="DejaVuSans-99"/>
      <path d="M 9.421875 54.6875 
L 18.40625 54.6875 
L 18.40625 0 
L 9.421875 0 
z
M 9.421875 75.984375 
L 18.40625 75.984375 
L 18.40625 64.59375 
L 9.421875 64.59375 
z
" id="DejaVuSans-105"/>
      <path d="M 37.109375 75.984375 
L 37.109375 68.5 
L 28.515625 68.5 
Q 23.6875 68.5 21.796875 66.546875 
Q 19.921875 64.59375 19.921875 59.515625 
L 19.921875 54.6875 
L 34.71875 54.6875 
L 34.71875 47.703125 
L 19.921875 47.703125 
L 19.921875 0 
L 10.890625 0 
L 10.890625 47.703125 
L 2.296875 47.703125 
L 2.296875 54.6875 
L 10.890625 54.6875 
L 10.890625 58.5 
Q 10.890625 67.625 15.140625 71.796875 
Q 19.390625 75.984375 28.609375 75.984375 
z
" id="DejaVuSans-102"/>
      <path d="M 18.3125 70.21875 
L 18.3125 54.6875 
L 36.8125 54.6875 
L 36.8125 47.703125 
L 18.3125 47.703125 
L 18.3125 18.015625 
Q 18.3125 11.328125 20.140625 9.421875 
Q 21.96875 7.515625 27.59375 7.515625 
L 36.8125 7.515625 
L 36.8125 0 
L 27.59375 0 
Q 17.1875 0 13.234375 3.875 
Q 9.28125 7.765625 9.28125 18.015625 
L 9.28125 47.703125 
L 2.6875 47.703125 
L 2.6875 54.6875 
L 9.28125 54.6875 
L 9.28125 70.21875 
z
" id="DejaVuSans-116"/>
      <path d="M 32.171875 -5.078125 
Q 28.375 -14.84375 24.75 -17.8125 
Q 21.140625 -20.796875 15.09375 -20.796875 
L 7.90625 -20.796875 
L 7.90625 -13.28125 
L 13.1875 -13.28125 
Q 16.890625 -13.28125 18.9375 -11.515625 
Q 21 -9.765625 23.484375 -3.21875 
L 25.09375 0.875 
L 2.984375 54.6875 
L 12.5 54.6875 
L 29.59375 11.921875 
L 46.6875 54.6875 
L 56.203125 54.6875 
z
" id="DejaVuSans-121"/>
     </defs>
     <g transform="translate(28.475625 228.594688)rotate(-90)scale(0.28 -0.28)">
      <use xlink:href="#DejaVuSans-83"/>
      <use x="63.476562" xlink:href="#DejaVuSans-112"/>
      <use x="126.953125" xlink:href="#DejaVuSans-101"/>
      <use x="188.476562" xlink:href="#DejaVuSans-99"/>
      <use x="243.457031" xlink:href="#DejaVuSans-105"/>
      <use x="271.240234" xlink:href="#DejaVuSans-102"/>
      <use x="306.445312" xlink:href="#DejaVuSans-105"/>
      <use x="334.228516" xlink:href="#DejaVuSans-99"/>
      <use x="389.208984" xlink:href="#DejaVuSans-105"/>
      <use x="416.992188" xlink:href="#DejaVuSans-116"/>
      <use x="456.201172" xlink:href="#DejaVuSans-121"/>
     </g>
    </g>
   </g>
   <g id="line2d_11">
    <path clip-path="url(#p281d2792de)" d="M 123.869773 22.30878 
L 127.551591 22.744007 
L 131.233409 22.566171 
L 134.915227 23.013746 
L 138.597045 23.415277 
L 142.278864 23.199515 
L 145.960682 23.547925 
L 149.6425 23.412218 
L 153.324318 23.777813 
L 157.006136 24.050916 
L 160.687955 23.997813 
L 164.369773 23.884121 
L 168.051591 23.794176 
L 171.733409 24.107279 
L 175.415227 24.01743 
L 179.097045 24.365285 
L 182.778864 24.324552 
L 186.460682 24.264397 
L 190.1425 24.205347 
L 193.824318 24.118779 
L 197.506136 24.487288 
L 201.187955 24.437813 
L 204.869773 24.389068 
L 208.551591 24.293708 
L 212.233409 24.256336 
L 215.915227 24.219395 
L 219.597045 24.522068 
L 223.278864 24.484357 
L 226.960682 24.447069 
L 230.6425 24.391915 
L 234.324318 24.346652 
L 238.006136 24.293155 
L 241.687955 24.61716 
L 245.369773 24.571416 
L 249.051591 24.907343 
L 252.733409 24.813707 
L 256.415227 24.767813 
L 260.097045 25.07541 
L 263.778864 25.037813 
L 267.460682 25.009869 
L 271.1425 25.31047 
L 274.824318 25.949263 
L 278.506136 25.918421 
L 282.187955 25.887813 
L 285.869773 26.195601 
L 289.551591 26.195601 
L 293.233409 26.511154 
L 296.915227 26.500313 
L 300.597045 26.47871 
L 304.278864 27.135204 
L 307.960682 27.077813 
L 311.6425 27.043717 
L 315.324318 27.021125 
L 319.006136 27.009871 
L 322.687955 26.942922 
L 326.369773 27.25723 
L 330.051591 27.499832 
L 333.733409 27.499832 
L 337.415227 27.476661 
L 341.097045 27.453602 
L 344.778864 27.442114 
L 348.460682 27.442114 
L 352.1425 27.419219 
L 355.824318 27.396433 
L 359.506136 27.396433 
L 363.187955 27.351185 
L 366.869773 27.644416 
L 370.551591 27.644416 
L 374.233409 27.609845 
L 377.915227 27.609845 
L 381.597045 27.598376 
L 385.278864 27.586933 
L 388.960682 27.552766 
L 392.6425 27.54143 
L 396.324318 27.50758 
L 400.006136 27.8183 
L 403.687955 27.806722 
L 407.369773 28.116376 
L 411.051591 28.413073 
L 414.733409 28.400861 
L 418.415227 28.683382 
" style="fill:none;stroke:#8b0000;stroke-linecap:square;stroke-width:2;"/>
   </g>
   <g id="line2d_12">
    <path clip-path="url(#p281d2792de)" d="M 123.869773 48.495877 
L 127.551591 49.114804 
L 131.233409 49.163186 
L 134.915227 49.468518 
L 138.597045 51.302601 
L 142.278864 50.008025 
L 145.960682 50.022082 
L 149.6425 49.257191 
L 153.324318 49.517813 
L 157.006136 49.381261 
L 160.687955 49.585505 
L 164.369773 48.999557 
L 168.051591 49.91054 
L 171.733409 50.528604 
L 175.415227 50.942908 
L 179.097045 50.91034 
L 182.778864 51.136408 
L 186.460682 51.256051 
L 190.1425 51.373494 
L 193.824318 51.336302 
L 197.506136 51.500781 
L 201.187955 51.250313 
L 204.869773 51.822451 
L 208.551591 51.327769 
L 212.233409 51.133905 
L 215.915227 51.341122 
L 219.597045 51.652281 
L 223.278864 51.852481 
L 226.960682 52.050435 
L 230.6425 52.92154 
L 234.324318 52.679249 
L 238.006136 52.772607 
L 241.687955 53.617704 
L 245.369773 53.750363 
L 249.051591 53.929625 
L 252.733409 54.185892 
L 256.415227 54.311497 
L 260.097045 55.473322 
L 263.778864 55.997813 
L 267.460682 56.56692 
L 271.1425 57.336144 
L 274.824318 58.747736 
L 278.506136 58.592185 
L 282.187955 58.787813 
L 285.869773 58.930275 
L 289.551591 58.930275 
L 293.233409 59.469853 
L 296.915227 59.417813 
L 300.597045 59.659758 
L 304.278864 60.192595 
L 307.960682 60.61559 
L 311.6425 60.798698 
L 315.324318 60.693273 
L 319.006136 60.640754 
L 322.687955 60.328323 
L 326.369773 60.561599 
L 330.051591 62.149832 
L 333.733409 62.149832 
L 337.415227 62.043568 
L 341.097045 62.269391 
L 344.778864 62.216307 
L 348.460682 62.216307 
L 352.1425 62.440911 
L 355.824318 62.33484 
L 359.506136 62.33484 
L 363.187955 62.124203 
L 366.869773 62.294416 
L 370.551591 62.294416 
L 374.233409 62.463429 
L 377.915227 62.463429 
L 381.597045 62.411052 
L 385.278864 62.683768 
L 388.960682 62.850429 
L 392.6425 63.12136 
L 396.324318 63.608045 
L 400.006136 63.876837 
L 403.687955 63.823427 
L 407.369773 64.091347 
L 411.051591 64.625327 
L 414.733409 64.5713 
L 418.415227 65.047939 
" style="fill:none;stroke:#000080;stroke-linecap:square;stroke-width:2;"/>
   </g>
   <g id="patch_3">
    <path d="M 109.1425 295.037813 
L 109.1425 17.837813 
" style="fill:none;stroke:#000000;stroke-linecap:square;stroke-linejoin:miter;stroke-width:0.8;"/>
   </g>
   <g id="patch_4">
    <path d="M 109.1425 295.037813 
L 433.1425 295.037813 
" style="fill:none;stroke:#000000;stroke-linecap:square;stroke-linejoin:miter;stroke-width:0.8;"/>
   </g>
  </g>
  <g id="axes_2">
   <g id="patch_5">
    <path d="M 449.3425 295.037813 
L 773.3425 295.037813 
L 773.3425 17.837813 
L 449.3425 17.837813 
z
" style="fill:none;"/>
   </g>
   <g id="matplotlib.axis_3">
    <g id="xtick_6">
     <g id="line2d_13">
      <g>
       <use style="stroke:#000000;stroke-width:0.8;" x="464.069773" xlink:href="#m8c18572f53" y="295.037813"/>
      </g>
     </g>
     <g id="text_13">
      <!-- 1 -->
      <g transform="translate(455.162273 324.813438)scale(0.28 -0.28)">
       <use xlink:href="#DejaVuSans-49"/>
      </g>
     </g>
    </g>
    <g id="xtick_7">
     <g id="line2d_14">
      <g>
       <use style="stroke:#000000;stroke-width:0.8;" x="537.706136" xlink:href="#m8c18572f53" y="295.037813"/>
      </g>
     </g>
     <g id="text_14">
      <!-- 2 -->
      <g transform="translate(528.798636 324.813438)scale(0.28 -0.28)">
       <use xlink:href="#DejaVuSans-50"/>
      </g>
     </g>
    </g>
    <g id="xtick_8">
     <g id="line2d_15">
      <g>
       <use style="stroke:#000000;stroke-width:0.8;" x="611.3425" xlink:href="#m8c18572f53" y="295.037813"/>
      </g>
     </g>
     <g id="text_15">
      <!-- 3 -->
      <g transform="translate(602.435 324.813438)scale(0.28 -0.28)">
       <use xlink:href="#DejaVuSans-51"/>
      </g>
     </g>
    </g>
    <g id="xtick_9">
     <g id="line2d_16">
      <g>
       <use style="stroke:#000000;stroke-width:0.8;" x="684.978864" xlink:href="#m8c18572f53" y="295.037813"/>
      </g>
     </g>
     <g id="text_16">
      <!-- 4 -->
      <g transform="translate(676.071364 324.813438)scale(0.28 -0.28)">
       <use xlink:href="#DejaVuSans-52"/>
      </g>
     </g>
    </g>
    <g id="xtick_10">
     <g id="line2d_17">
      <g>
       <use style="stroke:#000000;stroke-width:0.8;" x="758.615227" xlink:href="#m8c18572f53" y="295.037813"/>
      </g>
     </g>
     <g id="text_17">
      <!-- 5 -->
      <g transform="translate(749.707727 324.813438)scale(0.28 -0.28)">
       <use xlink:href="#DejaVuSans-53"/>
      </g>
     </g>
    </g>
    <g id="text_18">
     <!-- -log10 p-value -->
     <g transform="translate(510.5075 355.912188)scale(0.28 -0.28)">
      <use xlink:href="#DejaVuSans-45"/>
      <use x="36.083984" xlink:href="#DejaVuSans-108"/>
      <use x="63.867188" xlink:href="#DejaVuSans-111"/>
      <use x="125.048828" xlink:href="#DejaVuSans-103"/>
      <use x="188.525391" xlink:href="#DejaVuSans-49"/>
      <use x="252.148438" xlink:href="#DejaVuSans-48"/>
      <use x="315.771484" xlink:href="#DejaVuSans-32"/>
      <use x="347.558594" xlink:href="#DejaVuSans-112"/>
      <use x="411.035156" xlink:href="#DejaVuSans-45"/>
      <use x="447.087891" xlink:href="#DejaVuSans-118"/>
      <use x="506.267578" xlink:href="#DejaVuSans-97"/>
      <use x="567.546875" xlink:href="#DejaVuSans-108"/>
      <use x="595.330078" xlink:href="#DejaVuSans-117"/>
      <use x="658.708984" xlink:href="#DejaVuSans-101"/>
     </g>
    </g>
   </g>
   <g id="matplotlib.axis_4">
    <g id="ytick_6"/>
    <g id="ytick_7"/>
    <g id="ytick_8"/>
    <g id="ytick_9"/>
    <g id="ytick_10"/>
   </g>
   <g id="line2d_18">
    <path clip-path="url(#p0f96748ce1)" d="M 464.069773 113.443527 
L 467.751591 116.446508 
L 471.433409 115.420791 
L 475.115227 115.361331 
L 478.797045 114.596303 
L 482.478864 115.552098 
L 486.160682 116.296829 
L 489.8425 117.371026 
L 493.524318 117.118664 
L 497.206136 117.70776 
L 500.887955 117.591446 
L 504.569773 117.553475 
L 508.251591 118.723527 
L 511.933409 119.446596 
L 515.615227 121.153619 
L 519.297045 121.959065 
L 522.978864 122.527468 
L 526.660682 122.638467 
L 530.3425 122.577878 
L 534.024318 123.075292 
L 537.706136 123.395573 
L 541.387955 123.709762 
L 545.069773 124.251083 
L 548.751591 125.05668 
L 552.433409 125.323527 
L 556.115227 125.589537 
L 559.797045 125.950137 
L 563.478864 125.613862 
L 567.160682 125.113354 
L 570.8425 125.375989 
L 574.524318 125.637813 
L 578.206136 125.471711 
L 581.887955 125.732582 
L 585.569773 125.732582 
L 589.251591 126.251923 
L 592.933409 126.510401 
L 596.615227 126.178576 
L 600.297045 126.782881 
L 603.978864 126.543695 
L 607.660682 126.797451 
L 611.3425 127.302677 
L 615.024318 127.302677 
L 618.706136 127.302677 
L 622.387955 127.138562 
L 626.069773 126.974938 
L 629.751591 126.974938 
L 633.433409 126.811804 
L 637.115227 126.811804 
L 640.797045 126.649156 
L 644.478864 127.399774 
L 648.160682 127.648495 
L 651.8425 128.14373 
L 655.524318 127.980796 
L 659.206136 128.227193 
L 662.887955 128.227193 
L 666.569773 128.717813 
L 670.251591 128.717813 
L 673.933409 128.962042 
L 677.615227 129.205554 
L 681.297045 129.448354 
L 684.978864 129.448354 
L 688.660682 129.448354 
L 692.3425 129.448354 
L 696.024318 129.690444 
L 699.706136 129.690444 
L 703.387955 129.690444 
L 707.069773 129.364343 
L 710.751591 129.364343 
L 714.433409 129.364343 
L 718.115227 129.364343 
L 721.797045 129.605498 
L 725.478864 129.605498 
L 729.160682 129.605498 
L 732.8425 129.605498 
L 736.524318 129.605498 
L 740.206136 129.605498 
L 743.887955 129.605498 
L 747.569773 129.845952 
L 751.251591 129.845952 
L 754.933409 129.845952 
L 758.615227 129.845952 
" style="fill:none;stroke:#8b0000;stroke-linecap:square;stroke-width:2;"/>
   </g>
   <g id="line2d_19">
    <path clip-path="url(#p0f96748ce1)" d="M 464.069773 42.163527 
L 467.751591 44.133465 
L 471.433409 43.573983 
L 475.115227 43.808749 
L 478.797045 43.465737 
L 482.478864 44.066384 
L 486.160682 44.598468 
L 489.8425 44.71178 
L 493.524318 45.361217 
L 497.206136 46.0937 
L 500.887955 45.653729 
L 504.569773 45.98721 
L 508.251591 46.123527 
L 511.933409 46.40065 
L 515.615227 46.434152 
L 519.297045 46.151486 
L 522.978864 46.058502 
L 526.660682 45.966127 
L 530.3425 46.280158 
L 534.024318 46.050413 
L 537.706136 46.223093 
L 541.387955 45.953185 
L 545.069773 46.302267 
L 548.751591 47.475548 
L 552.433409 47.429021 
L 556.115227 47.38264 
L 559.797045 47.676814 
L 563.478864 47.584002 
L 567.160682 47.445862 
L 570.8425 47.828539 
L 574.524318 48.210035 
L 578.206136 48.163236 
L 581.887955 48.116582 
L 585.569773 48.116582 
L 589.251591 48.023702 
L 592.933409 48.401978 
L 596.615227 48.308652 
L 600.297045 49.385612 
L 603.978864 49.195279 
L 607.660682 49.565523 
L 611.3425 50.302677 
L 615.024318 50.302677 
L 618.706136 50.302677 
L 622.387955 50.254004 
L 626.069773 50.205477 
L 629.751591 50.205477 
L 633.433409 50.157095 
L 637.115227 50.157095 
L 640.797045 50.108857 
L 644.478864 50.376891 
L 648.160682 50.328614 
L 651.8425 50.232487 
L 655.524318 50.184637 
L 659.206136 50.136928 
L 662.887955 50.136928 
L 666.569773 50.449577 
L 670.251591 50.449577 
L 673.933409 50.401689 
L 677.615227 50.760393 
L 681.297045 51.118047 
L 684.978864 51.118047 
L 688.660682 51.118047 
L 692.3425 51.118047 
L 696.024318 51.069391 
L 699.706136 51.069391 
L 703.387955 51.069391 
L 707.069773 50.972506 
L 710.751591 50.972506 
L 714.433409 50.972506 
L 718.115227 50.972506 
L 721.797045 51.327769 
L 725.478864 51.327769 
L 729.160682 51.327769 
L 732.8425 51.327769 
L 736.524318 51.327769 
L 740.206136 51.327769 
L 743.887955 51.327769 
L 747.569773 51.681999 
L 751.251591 51.681999 
L 754.933409 51.681999 
L 758.615227 51.681999 
" style="fill:none;stroke:#000080;stroke-linecap:square;stroke-width:2;"/>
   </g>
   <g id="patch_6">
    <path d="M 449.3425 295.037813 
L 449.3425 17.837813 
" style="fill:none;stroke:#000000;stroke-linecap:square;stroke-linejoin:miter;stroke-width:0.8;"/>
   </g>
   <g id="patch_7">
    <path d="M 449.3425 295.037813 
L 773.3425 295.037813 
" style="fill:none;stroke:#000000;stroke-linecap:square;stroke-linejoin:miter;stroke-width:0.8;"/>
   </g>
  </g>
  <g id="axes_3">
   <g id="patch_8">
    <path d="M 789.5425 295.037813 
L 1113.5425 295.037813 
L 1113.5425 17.837813 
L 789.5425 17.837813 
z
" style="fill:none;"/>
   </g>
   <g id="matplotlib.axis_5">
    <g id="xtick_11">
     <g id="line2d_20">
      <g>
       <use style="stroke:#000000;stroke-width:0.8;" x="804.269773" xlink:href="#m8c18572f53" y="295.037813"/>
      </g>
     </g>
     <g id="text_19">
      <!-- 1 -->
      <g transform="translate(795.362273 324.813438)scale(0.28 -0.28)">
       <use xlink:href="#DejaVuSans-49"/>
      </g>
     </g>
    </g>
    <g id="xtick_12">
     <g id="line2d_21">
      <g>
       <use style="stroke:#000000;stroke-width:0.8;" x="877.906136" xlink:href="#m8c18572f53" y="295.037813"/>
      </g>
     </g>
     <g id="text_20">
      <!-- 2 -->
      <g transform="translate(868.998636 324.813438)scale(0.28 -0.28)">
       <use xlink:href="#DejaVuSans-50"/>
      </g>
     </g>
    </g>
    <g id="xtick_13">
     <g id="line2d_22">
      <g>
       <use style="stroke:#000000;stroke-width:0.8;" x="951.5425" xlink:href="#m8c18572f53" y="295.037813"/>
      </g>
     </g>
     <g id="text_21">
      <!-- 3 -->
      <g transform="translate(942.635 324.813438)scale(0.28 -0.28)">
       <use xlink:href="#DejaVuSans-51"/>
      </g>
     </g>
    </g>
    <g id="xtick_14">
     <g id="line2d_23">
      <g>
       <use style="stroke:#000000;stroke-width:0.8;" x="1025.178864" xlink:href="#m8c18572f53" y="295.037813"/>
      </g>
     </g>
     <g id="text_22">
      <!-- 4 -->
      <g transform="translate(1016.271364 324.813438)scale(0.28 -0.28)">
       <use xlink:href="#DejaVuSans-52"/>
      </g>
     </g>
    </g>
    <g id="xtick_15">
     <g id="line2d_24">
      <g>
       <use style="stroke:#000000;stroke-width:0.8;" x="1098.815227" xlink:href="#m8c18572f53" y="295.037813"/>
      </g>
     </g>
     <g id="text_23">
      <!-- 5 -->
      <g transform="translate(1089.907727 324.813438)scale(0.28 -0.28)">
       <use xlink:href="#DejaVuSans-53"/>
      </g>
     </g>
    </g>
    <g id="text_24">
     <!-- -log10 p-value -->
     <g transform="translate(850.7075 355.912188)scale(0.28 -0.28)">
      <use xlink:href="#DejaVuSans-45"/>
      <use x="36.083984" xlink:href="#DejaVuSans-108"/>
      <use x="63.867188" xlink:href="#DejaVuSans-111"/>
      <use x="125.048828" xlink:href="#DejaVuSans-103"/>
      <use x="188.525391" xlink:href="#DejaVuSans-49"/>
      <use x="252.148438" xlink:href="#DejaVuSans-48"/>
      <use x="315.771484" xlink:href="#DejaVuSans-32"/>
      <use x="347.558594" xlink:href="#DejaVuSans-112"/>
      <use x="411.035156" xlink:href="#DejaVuSans-45"/>
      <use x="447.087891" xlink:href="#DejaVuSans-118"/>
      <use x="506.267578" xlink:href="#DejaVuSans-97"/>
      <use x="567.546875" xlink:href="#DejaVuSans-108"/>
      <use x="595.330078" xlink:href="#DejaVuSans-117"/>
      <use x="658.708984" xlink:href="#DejaVuSans-101"/>
     </g>
    </g>
   </g>
   <g id="matplotlib.axis_6">
    <g id="ytick_11"/>
    <g id="ytick_12"/>
    <g id="ytick_13"/>
    <g id="ytick_14"/>
    <g id="ytick_15"/>
   </g>
   <g id="line2d_25">
    <path clip-path="url(#p10f5282cee)" d="M 804.269773 262.426048 
L 807.951591 262.426048 
L 811.633409 263.227976 
L 815.315227 262.805254 
L 818.997045 263.774655 
L 822.678864 264.237813 
L 826.360682 265.548451 
L 830.0425 265.070245 
L 833.724318 265.469813 
L 837.406136 266.237813 
L 841.087955 266.607043 
L 844.769773 267.143473 
L 848.451591 267.99391 
L 852.133409 267.317813 
L 855.815227 267.640138 
L 859.497045 267.955054 
L 863.178864 268.109813 
L 866.860682 268.563655 
L 870.5425 269.426943 
L 874.224318 269.837813 
L 877.906136 268.77676 
L 881.587955 269.318225 
L 885.269773 269.837813 
L 888.951591 270.213932 
L 892.633409 270.458502 
L 896.315227 270.816453 
L 899.997045 271.390419 
L 903.678864 271.61246 
L 907.360682 270.878179 
L 911.0425 271.206138 
L 914.724318 271.313488 
L 918.406136 271.313488 
L 922.087955 271.525313 
L 925.769773 271.733388 
L 929.451591 270.933465 
L 933.133409 271.141261 
L 936.815227 271.243821 
L 940.497045 271.743695 
L 944.178864 271.082257 
L 947.860682 271.180435 
L 951.5425 271.277813 
L 955.224318 271.374398 
L 958.906136 271.470201 
L 962.587955 271.753013 
L 966.269773 271.753013 
L 969.951591 271.753013 
L 973.633409 272.119702 
L 977.315227 272.387229 
L 980.997045 272.648582 
L 984.678864 272.819492 
L 988.360682 273.07102 
L 992.0425 273.153602 
L 995.724318 273.235565 
L 999.406136 273.477813 
L 1003.087955 273.636342 
L 1006.769773 273.714736 
L 1010.451591 274.02265 
L 1014.133409 274.173296 
L 1017.815227 274.173296 
L 1021.497045 274.321798 
L 1025.178864 274.468201 
L 1028.860682 274.540629 
L 1032.5425 274.540629 
L 1036.224318 274.540629 
L 1039.906136 274.612549 
L 1043.587955 274.612549 
L 1047.269773 274.895252 
L 1050.951591 274.964709 
L 1054.633409 275.102196 
L 1058.315227 275.237813 
L 1061.997045 275.237813 
L 1065.678864 275.304931 
L 1069.360682 275.371596 
L 1073.0425 275.371596 
L 1076.724318 275.371596 
L 1080.406136 275.371596 
L 1084.087955 275.633813 
L 1087.769773 275.698278 
L 1091.451591 275.698278 
L 1095.133409 275.762316 
L 1098.815227 275.825931 
" style="fill:none;stroke:#8b0000;stroke-linecap:square;stroke-width:2;"/>
   </g>
   <g id="line2d_26">
    <path clip-path="url(#p10f5282cee)" d="M 804.269773 71.414283 
L 807.951591 71.414283 
L 811.633409 72.36896 
L 815.315227 69.409906 
L 818.997045 67.858865 
L 822.678864 69.171146 
L 826.360682 68.952706 
L 830.0425 68.408083 
L 833.724318 67.733813 
L 837.406136 70.037813 
L 841.087955 69.368582 
L 844.769773 71.883096 
L 848.451591 71.925617 
L 852.133409 71.647224 
L 855.815227 71.021533 
L 859.497045 70.410226 
L 863.178864 70.109813 
L 866.860682 70.786127 
L 870.5425 70.566073 
L 874.224318 69.720165 
L 877.906136 70.359918 
L 881.587955 72.13472 
L 885.269773 71.037813 
L 888.951591 70.243783 
L 892.633409 72.458502 
L 896.315227 71.663055 
L 899.997045 70.387576 
L 903.678864 69.894151 
L 907.360682 69.971757 
L 911.0425 70.518355 
L 914.724318 71.529704 
L 918.406136 71.529704 
L 922.087955 72.287813 
L 925.769773 71.805954 
L 929.451591 70.867378 
L 933.133409 70.410226 
L 936.815227 70.184594 
L 940.497045 70.249577 
L 944.178864 69.171146 
L 947.860682 68.960763 
L 951.5425 68.752098 
L 955.224318 69.671959 
L 958.906136 70.584371 
L 962.587955 72.169013 
L 966.269773 72.169013 
L 969.951591 72.169013 
L 973.633409 71.313403 
L 977.315227 70.689174 
L 980.997045 70.079351 
L 984.678864 70.738576 
L 988.360682 70.139699 
L 992.0425 69.943076 
L 995.724318 70.786127 
L 999.406136 72.251146 
L 1003.087955 72.870165 
L 1006.769773 72.668582 
L 1010.451591 73.878246 
L 1014.133409 74.470071 
L 1017.815227 74.470071 
L 1021.497045 75.053471 
L 1025.178864 76.608131 
L 1028.860682 76.401193 
L 1032.5425 76.401193 
L 1036.224318 76.401193 
L 1039.906136 76.195707 
L 1043.587955 76.195707 
L 1047.269773 77.306325 
L 1050.951591 77.101261 
L 1054.633409 76.695347 
L 1058.315227 76.294955 
L 1061.997045 76.294955 
L 1065.678864 76.096796 
L 1069.360682 75.899975 
L 1073.0425 75.899975 
L 1076.724318 75.899975 
L 1080.406136 75.899975 
L 1084.087955 77.897813 
L 1087.769773 77.698278 
L 1091.451591 77.698278 
L 1095.133409 77.500064 
L 1098.815227 78.218011 
" style="fill:none;stroke:#000080;stroke-linecap:square;stroke-width:2;"/>
   </g>
   <g id="patch_9">
    <path d="M 789.5425 295.037813 
L 789.5425 17.837813 
" style="fill:none;stroke:#000000;stroke-linecap:square;stroke-linejoin:miter;stroke-width:0.8;"/>
   </g>
   <g id="patch_10">
    <path d="M 789.5425 295.037813 
L 1113.5425 295.037813 
" style="fill:none;stroke:#000000;stroke-linecap:square;stroke-linejoin:miter;stroke-width:0.8;"/>
   </g>
  </g>
 </g>
 <defs>
  <clipPath id="p281d2792de">
   <rect height="277.2" width="324" x="109.1425" y="17.837812"/>
  </clipPath>
  <clipPath id="p0f96748ce1">
   <rect height="277.2" width="324" x="449.3425" y="17.837812"/>
  </clipPath>
  <clipPath id="p10f5282cee">
   <rect height="277.2" width="324" x="789.5425" y="17.837812"/>
  </clipPath>
 </defs>
</svg>
