<?xml version="1.0" encoding="utf-8" standalone="no"?>
<!DOCTYPE svg PUBLIC "-//W3C//DTD SVG 1.1//EN"
  "http://www.w3.org/Graphics/SVG/1.1/DTD/svg11.dtd">
<!-- Created with matplotlib (https://matplotlib.org/) -->
<svg height="368.935313pt" version="1.1" viewBox="0 0 1120.7425 368.935313" width="1120.7425pt" xmlns="http://www.w3.org/2000/svg" xmlns:xlink="http://www.w3.org/1999/xlink">
 <defs>
  <style type="text/css">
*{stroke-linecap:butt;stroke-linejoin:round;}
  </style>
 </defs>
 <g id="figure_1">
  <g id="patch_1">
   <path d="M 0 368.935313 
L 1120.7425 368.935313 
L 1120.7425 0 
L 0 0 
z
" style="fill:none;"/>
  </g>
  <g id="axes_1">
   <g id="patch_2">
    <path d="M 109.1425 295.037813 
L 433.1425 295.037813 
L 433.1425 17.837813 
L 109.1425 17.837813 
z
" style="fill:none;"/>
   </g>
   <g id="matplotlib.axis_1">
    <g id="xtick_1">
     <g id="line2d_1">
      <defs>
       <path d="M 0 0 
L 0 5 
" id="mf6819d2af1" style="stroke:#000000;stroke-width:0.8;"/>
      </defs>
      <g>
       <use style="stroke:#000000;stroke-width:0.8;" x="123.869773" xlink:href="#mf6819d2af1" y="295.037813"/>
      </g>
     </g>
     <g id="text_1">
      <!-- 1 -->
      <defs>
       <path d="M 12.40625 8.296875 
L 28.515625 8.296875 
L 28.515625 63.921875 
L 10.984375 60.40625 
L 10.984375 69.390625 
L 28.421875 72.90625 
L 38.28125 72.90625 
L 38.28125 8.296875 
L 54.390625 8.296875 
L 54.390625 0 
L 12.40625 0 
z
" id="DejaVuSans-49"/>
      </defs>
      <g transform="translate(114.962273 324.813438)scale(0.28 -0.28)">
       <use xlink:href="#DejaVuSans-49"/>
      </g>
     </g>
    </g>
    <g id="xtick_2">
     <g id="line2d_2">
      <g>
       <use style="stroke:#000000;stroke-width:0.8;" x="197.506136" xlink:href="#mf6819d2af1" y="295.037813"/>
      </g>
     </g>
     <g id="text_2">
      <!-- 2 -->
      <defs>
       <path d="M 19.1875 8.296875 
L 53.609375 8.296875 
L 53.609375 0 
L 7.328125 0 
L 7.328125 8.296875 
Q 12.9375 14.109375 22.625 23.890625 
Q 32.328125 33.6875 34.8125 36.53125 
Q 39.546875 41.84375 41.421875 45.53125 
Q 43.3125 49.21875 43.3125 52.78125 
Q 43.3125 58.59375 39.234375 62.25 
Q 35.15625 65.921875 28.609375 65.921875 
Q 23.96875 65.921875 18.8125 64.3125 
Q 13.671875 62.703125 7.8125 59.421875 
L 7.8125 69.390625 
Q 13.765625 71.78125 18.9375 73 
Q 24.125 74.21875 28.421875 74.21875 
Q 39.75 74.21875 46.484375 68.546875 
Q 53.21875 62.890625 53.21875 53.421875 
Q 53.21875 48.921875 51.53125 44.890625 
Q 49.859375 40.875 45.40625 35.40625 
Q 44.1875 33.984375 37.640625 27.21875 
Q 31.109375 20.453125 19.1875 8.296875 
z
" id="DejaVuSans-50"/>
      </defs>
      <g transform="translate(188.598636 324.813438)scale(0.28 -0.28)">
       <use xlink:href="#DejaVuSans-50"/>
      </g>
     </g>
    </g>
    <g id="xtick_3">
     <g id="line2d_3">
      <g>
       <use style="stroke:#000000;stroke-width:0.8;" x="271.1425" xlink:href="#mf6819d2af1" y="295.037813"/>
      </g>
     </g>
     <g id="text_3">
      <!-- 3 -->
      <defs>
       <path d="M 40.578125 39.3125 
Q 47.65625 37.796875 51.625 33 
Q 55.609375 28.21875 55.609375 21.1875 
Q 55.609375 10.40625 48.1875 4.484375 
Q 40.765625 -1.421875 27.09375 -1.421875 
Q 22.515625 -1.421875 17.65625 -0.515625 
Q 12.796875 0.390625 7.625 2.203125 
L 7.625 11.71875 
Q 11.71875 9.328125 16.59375 8.109375 
Q 21.484375 6.890625 26.8125 6.890625 
Q 36.078125 6.890625 40.9375 10.546875 
Q 45.796875 14.203125 45.796875 21.1875 
Q 45.796875 27.640625 41.28125 31.265625 
Q 36.765625 34.90625 28.71875 34.90625 
L 20.21875 34.90625 
L 20.21875 43.015625 
L 29.109375 43.015625 
Q 36.375 43.015625 40.234375 45.921875 
Q 44.09375 48.828125 44.09375 54.296875 
Q 44.09375 59.90625 40.109375 62.90625 
Q 36.140625 65.921875 28.71875 65.921875 
Q 24.65625 65.921875 20.015625 65.03125 
Q 15.375 64.15625 9.8125 62.3125 
L 9.8125 71.09375 
Q 15.4375 72.65625 20.34375 73.4375 
Q 25.25 74.21875 29.59375 74.21875 
Q 40.828125 74.21875 47.359375 69.109375 
Q 53.90625 64.015625 53.90625 55.328125 
Q 53.90625 49.265625 50.4375 45.09375 
Q 46.96875 40.921875 40.578125 39.3125 
z
" id="DejaVuSans-51"/>
      </defs>
      <g transform="translate(262.235 324.813438)scale(0.28 -0.28)">
       <use xlink:href="#DejaVuSans-51"/>
      </g>
     </g>
    </g>
    <g id="xtick_4">
     <g id="line2d_4">
      <g>
       <use style="stroke:#000000;stroke-width:0.8;" x="344.778864" xlink:href="#mf6819d2af1" y="295.037813"/>
      </g>
     </g>
     <g id="text_4">
      <!-- 4 -->
      <defs>
       <path d="M 37.796875 64.3125 
L 12.890625 25.390625 
L 37.796875 25.390625 
z
M 35.203125 72.90625 
L 47.609375 72.90625 
L 47.609375 25.390625 
L 58.015625 25.390625 
L 58.015625 17.1875 
L 47.609375 17.1875 
L 47.609375 0 
L 37.796875 0 
L 37.796875 17.1875 
L 4.890625 17.1875 
L 4.890625 26.703125 
z
" id="DejaVuSans-52"/>
      </defs>
      <g transform="translate(335.871364 324.813438)scale(0.28 -0.28)">
       <use xlink:href="#DejaVuSans-52"/>
      </g>
     </g>
    </g>
    <g id="xtick_5">
     <g id="line2d_5">
      <g>
       <use style="stroke:#000000;stroke-width:0.8;" x="418.415227" xlink:href="#mf6819d2af1" y="295.037813"/>
      </g>
     </g>
     <g id="text_5">
      <!-- 5 -->
      <defs>
       <path d="M 10.796875 72.90625 
L 49.515625 72.90625 
L 49.515625 64.59375 
L 19.828125 64.59375 
L 19.828125 46.734375 
Q 21.96875 47.46875 24.109375 47.828125 
Q 26.265625 48.1875 28.421875 48.1875 
Q 40.625 48.1875 47.75 41.5 
Q 54.890625 34.8125 54.890625 23.390625 
Q 54.890625 11.625 47.5625 5.09375 
Q 40.234375 -1.421875 26.90625 -1.421875 
Q 22.3125 -1.421875 17.546875 -0.640625 
Q 12.796875 0.140625 7.71875 1.703125 
L 7.71875 11.625 
Q 12.109375 9.234375 16.796875 8.0625 
Q 21.484375 6.890625 26.703125 6.890625 
Q 35.15625 6.890625 40.078125 11.328125 
Q 45.015625 15.765625 45.015625 23.390625 
Q 45.015625 31 40.078125 35.4375 
Q 35.15625 39.890625 26.703125 39.890625 
Q 22.75 39.890625 18.8125 39.015625 
Q 14.890625 38.140625 10.796875 36.28125 
z
" id="DejaVuSans-53"/>
      </defs>
      <g transform="translate(409.507727 324.813438)scale(0.28 -0.28)">
       <use xlink:href="#DejaVuSans-53"/>
      </g>
     </g>
    </g>
    <g id="text_6">
     <!-- -log10 p-value -->
     <defs>
      <path d="M 4.890625 31.390625 
L 31.203125 31.390625 
L 31.203125 23.390625 
L 4.890625 23.390625 
z
" id="DejaVuSans-45"/>
      <path d="M 9.421875 75.984375 
L 18.40625 75.984375 
L 18.40625 0 
L 9.421875 0 
z
" id="DejaVuSans-108"/>
      <path d="M 30.609375 48.390625 
Q 23.390625 48.390625 19.1875 42.75 
Q 14.984375 37.109375 14.984375 27.296875 
Q 14.984375 17.484375 19.15625 11.84375 
Q 23.34375 6.203125 30.609375 6.203125 
Q 37.796875 6.203125 41.984375 11.859375 
Q 46.1875 17.53125 46.1875 27.296875 
Q 46.1875 37.015625 41.984375 42.703125 
Q 37.796875 48.390625 30.609375 48.390625 
z
M 30.609375 56 
Q 42.328125 56 49.015625 48.375 
Q 55.71875 40.765625 55.71875 27.296875 
Q 55.71875 13.875 49.015625 6.21875 
Q 42.328125 -1.421875 30.609375 -1.421875 
Q 18.84375 -1.421875 12.171875 6.21875 
Q 5.515625 13.875 5.515625 27.296875 
Q 5.515625 40.765625 12.171875 48.375 
Q 18.84375 56 30.609375 56 
z
" id="DejaVuSans-111"/>
      <path d="M 45.40625 27.984375 
Q 45.40625 37.75 41.375 43.109375 
Q 37.359375 48.484375 30.078125 48.484375 
Q 22.859375 48.484375 18.828125 43.109375 
Q 14.796875 37.75 14.796875 27.984375 
Q 14.796875 18.265625 18.828125 12.890625 
Q 22.859375 7.515625 30.078125 7.515625 
Q 37.359375 7.515625 41.375 12.890625 
Q 45.40625 18.265625 45.40625 27.984375 
z
M 54.390625 6.78125 
Q 54.390625 -7.171875 48.1875 -13.984375 
Q 42 -20.796875 29.203125 -20.796875 
Q 24.46875 -20.796875 20.265625 -20.09375 
Q 16.0625 -19.390625 12.109375 -17.921875 
L 12.109375 -9.1875 
Q 16.0625 -11.328125 19.921875 -12.34375 
Q 23.78125 -13.375 27.78125 -13.375 
Q 36.625 -13.375 41.015625 -8.765625 
Q 45.40625 -4.15625 45.40625 5.171875 
L 45.40625 9.625 
Q 42.625 4.78125 38.28125 2.390625 
Q 33.9375 0 27.875 0 
Q 17.828125 0 11.671875 7.65625 
Q 5.515625 15.328125 5.515625 27.984375 
Q 5.515625 40.671875 11.671875 48.328125 
Q 17.828125 56 27.875 56 
Q 33.9375 56 38.28125 53.609375 
Q 42.625 51.21875 45.40625 46.390625 
L 45.40625 54.6875 
L 54.390625 54.6875 
z
" id="DejaVuSans-103"/>
      <path d="M 31.78125 66.40625 
Q 24.171875 66.40625 20.328125 58.90625 
Q 16.5 51.421875 16.5 36.375 
Q 16.5 21.390625 20.328125 13.890625 
Q 24.171875 6.390625 31.78125 6.390625 
Q 39.453125 6.390625 43.28125 13.890625 
Q 47.125 21.390625 47.125 36.375 
Q 47.125 51.421875 43.28125 58.90625 
Q 39.453125 66.40625 31.78125 66.40625 
z
M 31.78125 74.21875 
Q 44.046875 74.21875 50.515625 64.515625 
Q 56.984375 54.828125 56.984375 36.375 
Q 56.984375 17.96875 50.515625 8.265625 
Q 44.046875 -1.421875 31.78125 -1.421875 
Q 19.53125 -1.421875 13.0625 8.265625 
Q 6.59375 17.96875 6.59375 36.375 
Q 6.59375 54.828125 13.0625 64.515625 
Q 19.53125 74.21875 31.78125 74.21875 
z
" id="DejaVuSans-48"/>
      <path id="DejaVuSans-32"/>
      <path d="M 18.109375 8.203125 
L 18.109375 -20.796875 
L 9.078125 -20.796875 
L 9.078125 54.6875 
L 18.109375 54.6875 
L 18.109375 46.390625 
Q 20.953125 51.265625 25.265625 53.625 
Q 29.59375 56 35.59375 56 
Q 45.5625 56 51.78125 48.09375 
Q 58.015625 40.1875 58.015625 27.296875 
Q 58.015625 14.40625 51.78125 6.484375 
Q 45.5625 -1.421875 35.59375 -1.421875 
Q 29.59375 -1.421875 25.265625 0.953125 
Q 20.953125 3.328125 18.109375 8.203125 
z
M 48.6875 27.296875 
Q 48.6875 37.203125 44.609375 42.84375 
Q 40.53125 48.484375 33.40625 48.484375 
Q 26.265625 48.484375 22.1875 42.84375 
Q 18.109375 37.203125 18.109375 27.296875 
Q 18.109375 17.390625 22.1875 11.75 
Q 26.265625 6.109375 33.40625 6.109375 
Q 40.53125 6.109375 44.609375 11.75 
Q 48.6875 17.390625 48.6875 27.296875 
z
" id="DejaVuSans-112"/>
      <path d="M 2.984375 54.6875 
L 12.5 54.6875 
L 29.59375 8.796875 
L 46.6875 54.6875 
L 56.203125 54.6875 
L 35.6875 0 
L 23.484375 0 
z
" id="DejaVuSans-118"/>
      <path d="M 34.28125 27.484375 
Q 23.390625 27.484375 19.1875 25 
Q 14.984375 22.515625 14.984375 16.5 
Q 14.984375 11.71875 18.140625 8.90625 
Q 21.296875 6.109375 26.703125 6.109375 
Q 34.1875 6.109375 38.703125 11.40625 
Q 43.21875 16.703125 43.21875 25.484375 
L 43.21875 27.484375 
z
M 52.203125 31.203125 
L 52.203125 0 
L 43.21875 0 
L 43.21875 8.296875 
Q 40.140625 3.328125 35.546875 0.953125 
Q 30.953125 -1.421875 24.3125 -1.421875 
Q 15.921875 -1.421875 10.953125 3.296875 
Q 6 8.015625 6 15.921875 
Q 6 25.140625 12.171875 29.828125 
Q 18.359375 34.515625 30.609375 34.515625 
L 43.21875 34.515625 
L 43.21875 35.40625 
Q 43.21875 41.609375 39.140625 45 
Q 35.0625 48.390625 27.6875 48.390625 
Q 23 48.390625 18.546875 47.265625 
Q 14.109375 46.140625 10.015625 43.890625 
L 10.015625 52.203125 
Q 14.9375 54.109375 19.578125 55.046875 
Q 24.21875 56 28.609375 56 
Q 40.484375 56 46.34375 49.84375 
Q 52.203125 43.703125 52.203125 31.203125 
z
" id="DejaVuSans-97"/>
      <path d="M 8.5 21.578125 
L 8.5 54.6875 
L 17.484375 54.6875 
L 17.484375 21.921875 
Q 17.484375 14.15625 20.5 10.265625 
Q 23.53125 6.390625 29.59375 6.390625 
Q 36.859375 6.390625 41.078125 11.03125 
Q 45.3125 15.671875 45.3125 23.6875 
L 45.3125 54.6875 
L 54.296875 54.6875 
L 54.296875 0 
L 45.3125 0 
L 45.3125 8.40625 
Q 42.046875 3.421875 37.71875 1 
Q 33.40625 -1.421875 27.6875 -1.421875 
Q 18.265625 -1.421875 13.375 4.4375 
Q 8.5 10.296875 8.5 21.578125 
z
M 31.109375 56 
z
" id="DejaVuSans-117"/>
      <path d="M 56.203125 29.59375 
L 56.203125 25.203125 
L 14.890625 25.203125 
Q 15.484375 15.921875 20.484375 11.0625 
Q 25.484375 6.203125 34.421875 6.203125 
Q 39.59375 6.203125 44.453125 7.46875 
Q 49.3125 8.734375 54.109375 11.28125 
L 54.109375 2.78125 
Q 49.265625 0.734375 44.1875 -0.34375 
Q 39.109375 -1.421875 33.890625 -1.421875 
Q 20.796875 -1.421875 13.15625 6.1875 
Q 5.515625 13.8125 5.515625 26.8125 
Q 5.515625 40.234375 12.765625 48.109375 
Q 20.015625 56 32.328125 56 
Q 43.359375 56 49.78125 48.890625 
Q 56.203125 41.796875 56.203125 29.59375 
z
M 47.21875 32.234375 
Q 47.125 39.59375 43.09375 43.984375 
Q 39.0625 48.390625 32.421875 48.390625 
Q 24.90625 48.390625 20.390625 44.140625 
Q 15.875 39.890625 15.1875 32.171875 
z
" id="DejaVuSans-101"/>
     </defs>
     <g transform="translate(170.3075 355.912188)scale(0.28 -0.28)">
      <use xlink:href="#DejaVuSans-45"/>
      <use x="36.083984" xlink:href="#DejaVuSans-108"/>
      <use x="63.867188" xlink:href="#DejaVuSans-111"/>
      <use x="125.048828" xlink:href="#DejaVuSans-103"/>
      <use x="188.525391" xlink:href="#DejaVuSans-49"/>
      <use x="252.148438" xlink:href="#DejaVuSans-48"/>
      <use x="315.771484" xlink:href="#DejaVuSans-32"/>
      <use x="347.558594" xlink:href="#DejaVuSans-112"/>
      <use x="411.035156" xlink:href="#DejaVuSans-45"/>
      <use x="447.087891" xlink:href="#DejaVuSans-118"/>
      <use x="506.267578" xlink:href="#DejaVuSans-97"/>
      <use x="567.546875" xlink:href="#DejaVuSans-108"/>
      <use x="595.330078" xlink:href="#DejaVuSans-117"/>
      <use x="658.708984" xlink:href="#DejaVuSans-101"/>
     </g>
    </g>
   </g>
   <g id="matplotlib.axis_2">
    <g id="ytick_1">
     <g id="line2d_6">
      <defs>
       <path d="M 0 0 
L -5 0 
" id="mc6386e7131" style="stroke:#000000;stroke-width:0.8;"/>
      </defs>
      <g>
       <use style="stroke:#000000;stroke-width:0.8;" x="109.1425" xlink:href="#mc6386e7131" y="295.037813"/>
      </g>
     </g>
     <g id="text_7">
      <!-- 0.00 -->
      <defs>
       <path d="M 10.6875 12.40625 
L 21 12.40625 
L 21 0 
L 10.6875 0 
z
" id="DejaVuSans-46"/>
      </defs>
      <g transform="translate(38.29875 305.675625)scale(0.28 -0.28)">
       <use xlink:href="#DejaVuSans-48"/>
       <use x="63.623047" xlink:href="#DejaVuSans-46"/>
       <use x="95.410156" xlink:href="#DejaVuSans-48"/>
       <use x="159.033203" xlink:href="#DejaVuSans-48"/>
      </g>
     </g>
    </g>
    <g id="ytick_2">
     <g id="line2d_7">
      <g>
       <use style="stroke:#000000;stroke-width:0.8;" x="109.1425" xlink:href="#mc6386e7131" y="225.737813"/>
      </g>
     </g>
     <g id="text_8">
      <!-- 0.25 -->
      <g transform="translate(38.29875 236.375625)scale(0.28 -0.28)">
       <use xlink:href="#DejaVuSans-48"/>
       <use x="63.623047" xlink:href="#DejaVuSans-46"/>
       <use x="95.410156" xlink:href="#DejaVuSans-50"/>
       <use x="159.033203" xlink:href="#DejaVuSans-53"/>
      </g>
     </g>
    </g>
    <g id="ytick_3">
     <g id="line2d_8">
      <g>
       <use style="stroke:#000000;stroke-width:0.8;" x="109.1425" xlink:href="#mc6386e7131" y="156.437813"/>
      </g>
     </g>
     <g id="text_9">
      <!-- 0.50 -->
      <g transform="translate(38.29875 167.075625)scale(0.28 -0.28)">
       <use xlink:href="#DejaVuSans-48"/>
       <use x="63.623047" xlink:href="#DejaVuSans-46"/>
       <use x="95.410156" xlink:href="#DejaVuSans-53"/>
       <use x="159.033203" xlink:href="#DejaVuSans-48"/>
      </g>
     </g>
    </g>
    <g id="ytick_4">
     <g id="line2d_9">
      <g>
       <use style="stroke:#000000;stroke-width:0.8;" x="109.1425" xlink:href="#mc6386e7131" y="87.137813"/>
      </g>
     </g>
     <g id="text_10">
      <!-- 0.75 -->
      <defs>
       <path d="M 8.203125 72.90625 
L 55.078125 72.90625 
L 55.078125 68.703125 
L 28.609375 0 
L 18.3125 0 
L 43.21875 64.59375 
L 8.203125 64.59375 
z
" id="DejaVuSans-55"/>
      </defs>
      <g transform="translate(38.29875 97.775625)scale(0.28 -0.28)">
       <use xlink:href="#DejaVuSans-48"/>
       <use x="63.623047" xlink:href="#DejaVuSans-46"/>
       <use x="95.410156" xlink:href="#DejaVuSans-55"/>
       <use x="159.033203" xlink:href="#DejaVuSans-53"/>
      </g>
     </g>
    </g>
    <g id="ytick_5">
     <g id="line2d_10">
      <g>
       <use style="stroke:#000000;stroke-width:0.8;" x="109.1425" xlink:href="#mc6386e7131" y="17.837813"/>
      </g>
     </g>
     <g id="text_11">
      <!-- 1.00 -->
      <g transform="translate(38.29875 28.475625)scale(0.28 -0.28)">
       <use xlink:href="#DejaVuSans-49"/>
       <use x="63.623047" xlink:href="#DejaVuSans-46"/>
       <use x="95.410156" xlink:href="#DejaVuSans-48"/>
       <use x="159.033203" xlink:href="#DejaVuSans-48"/>
      </g>
     </g>
    </g>
    <g id="text_12">
     <!-- Specificity -->
     <defs>
      <path d="M 53.515625 70.515625 
L 53.515625 60.890625 
Q 47.90625 63.578125 42.921875 64.890625 
Q 37.9375 66.21875 33.296875 66.21875 
Q 25.25 66.21875 20.875 63.09375 
Q 16.5 59.96875 16.5 54.203125 
Q 16.5 49.359375 19.40625 46.890625 
Q 22.3125 44.4375 30.421875 42.921875 
L 36.375 41.703125 
Q 47.40625 39.59375 52.65625 34.296875 
Q 57.90625 29 57.90625 20.125 
Q 57.90625 9.515625 50.796875 4.046875 
Q 43.703125 -1.421875 29.984375 -1.421875 
Q 24.8125 -1.421875 18.96875 -0.25 
Q 13.140625 0.921875 6.890625 3.21875 
L 6.890625 13.375 
Q 12.890625 10.015625 18.65625 8.296875 
Q 24.421875 6.59375 29.984375 6.59375 
Q 38.421875 6.59375 43.015625 9.90625 
Q 47.609375 13.234375 47.609375 19.390625 
Q 47.609375 24.75 44.3125 27.78125 
Q 41.015625 30.8125 33.5 32.328125 
L 27.484375 33.5 
Q 16.453125 35.6875 11.515625 40.375 
Q 6.59375 45.0625 6.59375 53.421875 
Q 6.59375 63.09375 13.40625 68.65625 
Q 20.21875 74.21875 32.171875 74.21875 
Q 37.3125 74.21875 42.625 73.28125 
Q 47.953125 72.359375 53.515625 70.515625 
z
" id="DejaVuSans-83"/>
      <path d="M 48.78125 52.59375 
L 48.78125 44.1875 
Q 44.96875 46.296875 41.140625 47.34375 
Q 37.3125 48.390625 33.40625 48.390625 
Q 24.65625 48.390625 19.8125 42.84375 
Q 14.984375 37.3125 14.984375 27.296875 
Q 14.984375 17.28125 19.8125 11.734375 
Q 24.65625 6.203125 33.40625 6.203125 
Q 37.3125 6.203125 41.140625 7.25 
Q 44.96875 8.296875 48.78125 10.40625 
L 48.78125 2.09375 
Q 45.015625 0.34375 40.984375 -0.53125 
Q 36.96875 -1.421875 32.421875 -1.421875 
Q 20.0625 -1.421875 12.78125 6.34375 
Q 5.515625 14.109375 5.515625 27.296875 
Q 5.515625 40.671875 12.859375 48.328125 
Q 20.21875 56 33.015625 56 
Q 37.15625 56 41.109375 55.140625 
Q 45.0625 54.296875 48.78125 52.59375 
z
" id="DejaVuSans-99"/>
      <path d="M 9.421875 54.6875 
L 18.40625 54.6875 
L 18.40625 0 
L 9.421875 0 
z
M 9.421875 75.984375 
L 18.40625 75.984375 
L 18.40625 64.59375 
L 9.421875 64.59375 
z
" id="DejaVuSans-105"/>
      <path d="M 37.109375 75.984375 
L 37.109375 68.5 
L 28.515625 68.5 
Q 23.6875 68.5 21.796875 66.546875 
Q 19.921875 64.59375 19.921875 59.515625 
L 19.921875 54.6875 
L 34.71875 54.6875 
L 34.71875 47.703125 
L 19.921875 47.703125 
L 19.921875 0 
L 10.890625 0 
L 10.890625 47.703125 
L 2.296875 47.703125 
L 2.296875 54.6875 
L 10.890625 54.6875 
L 10.890625 58.5 
Q 10.890625 67.625 15.140625 71.796875 
Q 19.390625 75.984375 28.609375 75.984375 
z
" id="DejaVuSans-102"/>
      <path d="M 18.3125 70.21875 
L 18.3125 54.6875 
L 36.8125 54.6875 
L 36.8125 47.703125 
L 18.3125 47.703125 
L 18.3125 18.015625 
Q 18.3125 11.328125 20.140625 9.421875 
Q 21.96875 7.515625 27.59375 7.515625 
L 36.8125 7.515625 
L 36.8125 0 
L 27.59375 0 
Q 17.1875 0 13.234375 3.875 
Q 9.28125 7.765625 9.28125 18.015625 
L 9.28125 47.703125 
L 2.6875 47.703125 
L 2.6875 54.6875 
L 9.28125 54.6875 
L 9.28125 70.21875 
z
" id="DejaVuSans-116"/>
      <path d="M 32.171875 -5.078125 
Q 28.375 -14.84375 24.75 -17.8125 
Q 21.140625 -20.796875 15.09375 -20.796875 
L 7.90625 -20.796875 
L 7.90625 -13.28125 
L 13.1875 -13.28125 
Q 16.890625 -13.28125 18.9375 -11.515625 
Q 21 -9.765625 23.484375 -3.21875 
L 25.09375 0.875 
L 2.984375 54.6875 
L 12.5 54.6875 
L 29.59375 11.921875 
L 46.6875 54.6875 
L 56.203125 54.6875 
z
" id="DejaVuSans-121"/>
     </defs>
     <g transform="translate(28.475625 228.594688)rotate(-90)scale(0.28 -0.28)">
      <use xlink:href="#DejaVuSans-83"/>
      <use x="63.476562" xlink:href="#DejaVuSans-112"/>
      <use x="126.953125" xlink:href="#DejaVuSans-101"/>
      <use x="188.476562" xlink:href="#DejaVuSans-99"/>
      <use x="243.457031" xlink:href="#DejaVuSans-105"/>
      <use x="271.240234" xlink:href="#DejaVuSans-102"/>
      <use x="306.445312" xlink:href="#DejaVuSans-105"/>
      <use x="334.228516" xlink:href="#DejaVuSans-99"/>
      <use x="389.208984" xlink:href="#DejaVuSans-105"/>
      <use x="416.992188" xlink:href="#DejaVuSans-116"/>
      <use x="456.201172" xlink:href="#DejaVuSans-121"/>
     </g>
    </g>
   </g>
   <g id="line2d_11">
    <path clip-path="url(#pd90d24e9f1)" d="M 123.869773 22.664678 
L 127.551591 22.446839 
L 131.233409 22.382075 
L 134.915227 22.832407 
L 138.597045 23.850828 
L 142.278864 23.565085 
L 145.960682 23.483434 
L 149.6425 23.326921 
L 153.324318 23.747115 
L 157.006136 23.612813 
L 160.687955 23.432675 
L 164.369773 23.321985 
L 168.051591 23.735685 
L 171.733409 24.104943 
L 175.415227 24.00836 
L 179.097045 23.91471 
L 182.778864 23.833819 
L 186.460682 23.755054 
L 190.1425 24.077041 
L 193.824318 23.968618 
L 197.506136 23.882672 
L 201.187955 24.264397 
L 204.869773 24.205347 
L 208.551591 24.118779 
L 212.233409 24.090444 
L 215.915227 24.043783 
L 219.597045 23.979615 
L 223.278864 23.890214 
L 226.960682 23.855179 
L 230.6425 23.78631 
L 234.324318 23.752464 
L 238.006136 23.694151 
L 241.687955 24.014971 
L 245.369773 24.337675 
L 249.051591 24.30201 
L 252.733409 24.266735 
L 256.415227 24.249241 
L 260.097045 24.223178 
L 263.778864 24.205921 
L 267.460682 24.163182 
L 271.1425 24.09598 
L 274.824318 24.054699 
L 278.506136 24.022064 
L 282.187955 24.005875 
L 285.869773 23.98175 
L 289.551591 23.957813 
L 293.233409 23.934061 
L 296.915227 23.918329 
L 300.597045 24.218375 
L 304.278864 24.210226 
L 307.960682 24.530062 
L 311.6425 24.479427 
L 315.324318 24.446094 
L 319.006136 24.767813 
L 322.687955 24.741922 
L 326.369773 24.716224 
L 330.051591 25.024479 
L 333.733409 24.989164 
L 337.415227 24.962904 
L 341.097045 24.954194 
L 344.778864 25.274886 
L 348.460682 25.265827 
L 352.1425 25.575191 
L 355.824318 25.862903 
L 359.506136 25.824367 
L 363.187955 25.805238 
L 366.869773 26.428039 
L 370.551591 26.417813 
L 374.233409 26.40761 
L 377.915227 26.377149 
L 381.597045 26.65336 
L 385.278864 26.65336 
L 388.960682 26.62232 
L 392.6425 26.62232 
L 396.324318 26.612021 
L 400.006136 26.601747 
L 403.687955 26.58127 
L 407.369773 26.571068 
L 411.051591 26.550735 
L 414.733409 26.852447 
L 418.415227 27.141979 
" style="fill:none;stroke:#8b0000;stroke-linecap:square;stroke-width:2;"/>
   </g>
   <g id="line2d_12">
    <path clip-path="url(#pd90d24e9f1)" d="M 123.869773 46.109454 
L 127.551591 44.833537 
L 131.233409 45.103386 
L 134.915227 45.308083 
L 138.597045 46.700285 
L 142.278864 47.619631 
L 145.960682 47.759605 
L 149.6425 48.027912 
L 153.324318 48.458743 
L 157.006136 47.762813 
L 160.687955 47.84662 
L 164.369773 47.25292 
L 168.051591 47.818664 
L 171.733409 49.173465 
L 175.415227 49.16521 
L 179.097045 49.157205 
L 182.778864 49.662771 
L 186.460682 49.244709 
L 190.1425 49.925272 
L 193.824318 50.681414 
L 197.506136 50.22099 
L 201.187955 51.256051 
L 204.869773 50.948992 
L 208.551591 50.49884 
L 212.233409 50.768339 
L 215.915227 50.522589 
L 219.597045 50.59409 
L 223.278864 51.327769 
L 226.960682 51.133905 
L 230.6425 52.3391 
L 234.324318 52.142791 
L 238.006136 51.804573 
L 241.687955 52.198258 
L 245.369773 53.013537 
L 249.051591 53.200775 
L 252.733409 53.385971 
L 256.415227 53.289241 
L 260.097045 53.520739 
L 263.778864 53.798894 
L 267.460682 54.673786 
L 271.1425 54.650562 
L 274.824318 54.773433 
L 278.506136 54.943324 
L 282.187955 55.209017 
L 285.869773 55.785661 
L 289.551591 55.637813 
L 293.233409 55.849714 
L 296.915227 56.109296 
L 300.597045 56.475664 
L 304.278864 56.426318 
L 307.960682 56.582412 
L 311.6425 57.337939 
L 315.324318 57.835303 
L 319.006136 58.031813 
L 322.687955 57.881648 
L 326.369773 58.764363 
L 330.051591 58.904479 
L 333.733409 58.702677 
L 337.415227 59.231203 
L 341.097045 59.1806 
L 344.778864 59.755861 
L 348.460682 59.704804 
L 352.1425 59.888783 
L 355.824318 60.303916 
L 359.506136 60.765544 
L 363.187955 60.662723 
L 366.869773 61.449731 
L 370.551591 61.397813 
L 374.233409 61.675625 
L 377.915227 62.176675 
L 381.597045 62.568555 
L 385.278864 62.568555 
L 388.960682 62.411052 
L 392.6425 62.411052 
L 396.324318 62.683768 
L 400.006136 62.631255 
L 403.687955 63.174261 
L 407.369773 63.12136 
L 411.051591 63.015927 
L 414.733409 63.232934 
L 418.415227 63.716979 
" style="fill:none;stroke:#000080;stroke-linecap:square;stroke-width:2;"/>
   </g>
   <g id="patch_3">
    <path d="M 109.1425 295.037813 
L 109.1425 17.837813 
" style="fill:none;stroke:#000000;stroke-linecap:square;stroke-linejoin:miter;stroke-width:0.8;"/>
   </g>
   <g id="patch_4">
    <path d="M 109.1425 295.037813 
L 433.1425 295.037813 
" style="fill:none;stroke:#000000;stroke-linecap:square;stroke-linejoin:miter;stroke-width:0.8;"/>
   </g>
  </g>
  <g id="axes_2">
   <g id="patch_5">
    <path d="M 449.3425 295.037813 
L 773.3425 295.037813 
L 773.3425 17.837813 
L 449.3425 17.837813 
z
" style="fill:none;"/>
   </g>
   <g id="matplotlib.axis_3">
    <g id="xtick_6">
     <g id="line2d_13">
      <g>
       <use style="stroke:#000000;stroke-width:0.8;" x="464.069773" xlink:href="#mf6819d2af1" y="295.037813"/>
      </g>
     </g>
     <g id="text_13">
      <!-- 1 -->
      <g transform="translate(455.162273 324.813438)scale(0.28 -0.28)">
       <use xlink:href="#DejaVuSans-49"/>
      </g>
     </g>
    </g>
    <g id="xtick_7">
     <g id="line2d_14">
      <g>
       <use style="stroke:#000000;stroke-width:0.8;" x="537.706136" xlink:href="#mf6819d2af1" y="295.037813"/>
      </g>
     </g>
     <g id="text_14">
      <!-- 2 -->
      <g transform="translate(528.798636 324.813438)scale(0.28 -0.28)">
       <use xlink:href="#DejaVuSans-50"/>
      </g>
     </g>
    </g>
    <g id="xtick_8">
     <g id="line2d_15">
      <g>
       <use style="stroke:#000000;stroke-width:0.8;" x="611.3425" xlink:href="#mf6819d2af1" y="295.037813"/>
      </g>
     </g>
     <g id="text_15">
      <!-- 3 -->
      <g transform="translate(602.435 324.813438)scale(0.28 -0.28)">
       <use xlink:href="#DejaVuSans-51"/>
      </g>
     </g>
    </g>
    <g id="xtick_9">
     <g id="line2d_16">
      <g>
       <use style="stroke:#000000;stroke-width:0.8;" x="684.978864" xlink:href="#mf6819d2af1" y="295.037813"/>
      </g>
     </g>
     <g id="text_16">
      <!-- 4 -->
      <g transform="translate(676.071364 324.813438)scale(0.28 -0.28)">
       <use xlink:href="#DejaVuSans-52"/>
      </g>
     </g>
    </g>
    <g id="xtick_10">
     <g id="line2d_17">
      <g>
       <use style="stroke:#000000;stroke-width:0.8;" x="758.615227" xlink:href="#mf6819d2af1" y="295.037813"/>
      </g>
     </g>
     <g id="text_17">
      <!-- 5 -->
      <g transform="translate(749.707727 324.813438)scale(0.28 -0.28)">
       <use xlink:href="#DejaVuSans-53"/>
      </g>
     </g>
    </g>
    <g id="text_18">
     <!-- -log10 p-value -->
     <g transform="translate(510.5075 355.912188)scale(0.28 -0.28)">
      <use xlink:href="#DejaVuSans-45"/>
      <use x="36.083984" xlink:href="#DejaVuSans-108"/>
      <use x="63.867188" xlink:href="#DejaVuSans-111"/>
      <use x="125.048828" xlink:href="#DejaVuSans-103"/>
      <use x="188.525391" xlink:href="#DejaVuSans-49"/>
      <use x="252.148438" xlink:href="#DejaVuSans-48"/>
      <use x="315.771484" xlink:href="#DejaVuSans-32"/>
      <use x="347.558594" xlink:href="#DejaVuSans-112"/>
      <use x="411.035156" xlink:href="#DejaVuSans-45"/>
      <use x="447.087891" xlink:href="#DejaVuSans-118"/>
      <use x="506.267578" xlink:href="#DejaVuSans-97"/>
      <use x="567.546875" xlink:href="#DejaVuSans-108"/>
      <use x="595.330078" xlink:href="#DejaVuSans-117"/>
      <use x="658.708984" xlink:href="#DejaVuSans-101"/>
     </g>
    </g>
   </g>
   <g id="matplotlib.axis_4">
    <g id="ytick_6"/>
    <g id="ytick_7"/>
    <g id="ytick_8"/>
    <g id="ytick_9"/>
    <g id="ytick_10"/>
   </g>
   <g id="line2d_18">
    <path clip-path="url(#pc6385ed5fb)" d="M 464.069773 109.660313 
L 467.751591 110.61266 
L 471.433409 111.897693 
L 475.115227 112.063899 
L 478.797045 113.812281 
L 482.478864 112.892985 
L 486.160682 114.051696 
L 489.8425 113.335019 
L 493.524318 114.832288 
L 497.206136 115.584648 
L 500.887955 116.519029 
L 504.569773 116.978738 
L 508.251591 117.883587 
L 511.933409 118.593986 
L 515.615227 118.376673 
L 519.297045 118.20333 
L 522.978864 119.839857 
L 526.660682 120.434756 
L 530.3425 120.851326 
L 534.024318 121.437813 
L 537.706136 121.381531 
L 541.387955 123.219631 
L 545.069773 124.067418 
L 548.751591 124.105349 
L 552.433409 124.383741 
L 556.115227 124.142667 
L 559.797045 124.968247 
L 563.478864 125.241671 
L 567.160682 125.785889 
L 570.8425 125.269391 
L 574.524318 125.098322 
L 578.206136 125.368496 
L 581.887955 126.173888 
L 585.569773 126.535135 
L 589.251591 127.064186 
L 592.933409 127.327468 
L 596.615227 128.372392 
L 600.297045 128.631592 
L 603.978864 128.717813 
L 607.660682 128.975274 
L 611.3425 128.8035 
L 615.024318 128.88866 
L 618.706136 129.144274 
L 622.387955 128.973296 
L 626.069773 128.973296 
L 629.751591 129.481917 
L 633.433409 129.73506 
L 637.115227 129.987431 
L 640.797045 129.646032 
L 644.478864 129.897387 
L 648.160682 129.977813 
L 651.8425 130.306591 
L 655.524318 130.306591 
L 659.206136 130.306591 
L 662.887955 130.306591 
L 666.569773 130.306591 
L 670.251591 130.306591 
L 673.933409 130.55468 
L 677.615227 130.55468 
L 681.297045 130.385181 
L 684.978864 130.385181 
L 688.660682 130.216191 
L 692.3425 130.216191 
L 696.024318 130.216191 
L 699.706136 130.4633 
L 703.387955 130.709669 
L 707.069773 130.955301 
L 710.751591 131.275313 
L 714.433409 131.518645 
L 718.115227 131.761255 
L 721.797045 131.761255 
L 725.478864 131.761255 
L 729.160682 131.761255 
L 732.8425 131.592479 
L 736.524318 131.665877 
L 740.206136 131.665877 
L 743.887955 131.665877 
L 747.569773 131.497989 
L 751.251591 131.497989 
L 754.933409 131.497989 
L 758.615227 131.497989 
" style="fill:none;stroke:#8b0000;stroke-linecap:square;stroke-width:2;"/>
   </g>
   <g id="line2d_19">
    <path clip-path="url(#pc6385ed5fb)" d="M 464.069773 38.627813 
L 467.751591 40.328685 
L 471.433409 41.629429 
L 475.115227 41.94216 
L 478.797045 41.965472 
L 482.478864 41.734364 
L 486.160682 41.24119 
L 489.8425 41.066863 
L 493.524318 40.810188 
L 497.206136 40.89604 
L 500.887955 41.144431 
L 504.569773 41.020019 
L 508.251591 41.263165 
L 511.933409 41.94216 
L 515.615227 42.254393 
L 519.297045 42.212295 
L 522.978864 42.866092 
L 526.660682 43.722363 
L 530.3425 43.591191 
L 534.024318 43.504479 
L 537.706136 43.839823 
L 541.387955 45.328722 
L 545.069773 45.648997 
L 548.751591 45.874354 
L 552.433409 45.828692 
L 556.115227 46.096065 
L 559.797045 46.852305 
L 563.478864 46.805658 
L 567.160682 46.712813 
L 570.8425 46.574655 
L 574.524318 46.528895 
L 578.206136 46.923981 
L 581.887955 47.663129 
L 585.569773 48.395293 
L 589.251591 48.299351 
L 592.933409 48.251606 
L 596.615227 49.357439 
L 600.297045 49.308419 
L 603.978864 49.210836 
L 607.660682 49.162271 
L 611.3425 49.113856 
L 615.024318 49.444592 
L 618.706136 49.822428 
L 622.387955 49.773296 
L 626.069773 49.773296 
L 629.751591 50.099987 
L 633.433409 50.050657 
L 637.115227 50.424683 
L 640.797045 50.325484 
L 644.478864 50.27611 
L 648.160682 50.177813 
L 651.8425 50.449577 
L 655.524318 50.449577 
L 659.206136 50.449577 
L 662.887955 50.449577 
L 666.569773 50.449577 
L 670.251591 50.449577 
L 673.933409 50.817933 
L 677.615227 50.817933 
L 681.297045 50.768339 
L 684.978864 50.768339 
L 688.660682 50.718894 
L 692.3425 50.718894 
L 696.024318 50.718894 
L 699.706136 50.669597 
L 703.387955 51.035417 
L 707.069773 51.400144 
L 710.751591 51.250313 
L 714.433409 51.200665 
L 718.115227 51.562442 
L 721.797045 51.562442 
L 725.478864 51.562442 
L 729.160682 51.562442 
L 732.8425 51.512479 
L 736.524318 51.822451 
L 740.206136 51.822451 
L 743.887955 51.822451 
L 747.569773 51.772326 
L 751.251591 51.772326 
L 754.933409 51.772326 
L 758.615227 51.772326 
" style="fill:none;stroke:#000080;stroke-linecap:square;stroke-width:2;"/>
   </g>
   <g id="patch_6">
    <path d="M 449.3425 295.037813 
L 449.3425 17.837813 
" style="fill:none;stroke:#000000;stroke-linecap:square;stroke-linejoin:miter;stroke-width:0.8;"/>
   </g>
   <g id="patch_7">
    <path d="M 449.3425 295.037813 
L 773.3425 295.037813 
" style="fill:none;stroke:#000000;stroke-linecap:square;stroke-linejoin:miter;stroke-width:0.8;"/>
   </g>
  </g>
  <g id="axes_3">
   <g id="patch_8">
    <path d="M 789.5425 295.037813 
L 1113.5425 295.037813 
L 1113.5425 17.837813 
L 789.5425 17.837813 
z
" style="fill:none;"/>
   </g>
   <g id="matplotlib.axis_5">
    <g id="xtick_11">
     <g id="line2d_20">
      <g>
       <use style="stroke:#000000;stroke-width:0.8;" x="804.269773" xlink:href="#mf6819d2af1" y="295.037813"/>
      </g>
     </g>
     <g id="text_19">
      <!-- 1 -->
      <g transform="translate(795.362273 324.813438)scale(0.28 -0.28)">
       <use xlink:href="#DejaVuSans-49"/>
      </g>
     </g>
    </g>
    <g id="xtick_12">
     <g id="line2d_21">
      <g>
       <use style="stroke:#000000;stroke-width:0.8;" x="877.906136" xlink:href="#mf6819d2af1" y="295.037813"/>
      </g>
     </g>
     <g id="text_20">
      <!-- 2 -->
      <g transform="translate(868.998636 324.813438)scale(0.28 -0.28)">
       <use xlink:href="#DejaVuSans-50"/>
      </g>
     </g>
    </g>
    <g id="xtick_13">
     <g id="line2d_22">
      <g>
       <use style="stroke:#000000;stroke-width:0.8;" x="951.5425" xlink:href="#mf6819d2af1" y="295.037813"/>
      </g>
     </g>
     <g id="text_21">
      <!-- 3 -->
      <g transform="translate(942.635 324.813438)scale(0.28 -0.28)">
       <use xlink:href="#DejaVuSans-51"/>
      </g>
     </g>
    </g>
    <g id="xtick_14">
     <g id="line2d_23">
      <g>
       <use style="stroke:#000000;stroke-width:0.8;" x="1025.178864" xlink:href="#mf6819d2af1" y="295.037813"/>
      </g>
     </g>
     <g id="text_22">
      <!-- 4 -->
      <g transform="translate(1016.271364 324.813438)scale(0.28 -0.28)">
       <use xlink:href="#DejaVuSans-52"/>
      </g>
     </g>
    </g>
    <g id="xtick_15">
     <g id="line2d_24">
      <g>
       <use style="stroke:#000000;stroke-width:0.8;" x="1098.815227" xlink:href="#mf6819d2af1" y="295.037813"/>
      </g>
     </g>
     <g id="text_23">
      <!-- 5 -->
      <g transform="translate(1089.907727 324.813438)scale(0.28 -0.28)">
       <use xlink:href="#DejaVuSans-53"/>
      </g>
     </g>
    </g>
    <g id="text_24">
     <!-- -log10 p-value -->
     <g transform="translate(850.7075 355.912188)scale(0.28 -0.28)">
      <use xlink:href="#DejaVuSans-45"/>
      <use x="36.083984" xlink:href="#DejaVuSans-108"/>
      <use x="63.867188" xlink:href="#DejaVuSans-111"/>
      <use x="125.048828" xlink:href="#DejaVuSans-103"/>
      <use x="188.525391" xlink:href="#DejaVuSans-49"/>
      <use x="252.148438" xlink:href="#DejaVuSans-48"/>
      <use x="315.771484" xlink:href="#DejaVuSans-32"/>
      <use x="347.558594" xlink:href="#DejaVuSans-112"/>
      <use x="411.035156" xlink:href="#DejaVuSans-45"/>
      <use x="447.087891" xlink:href="#DejaVuSans-118"/>
      <use x="506.267578" xlink:href="#DejaVuSans-97"/>
      <use x="567.546875" xlink:href="#DejaVuSans-108"/>
      <use x="595.330078" xlink:href="#DejaVuSans-117"/>
      <use x="658.708984" xlink:href="#DejaVuSans-101"/>
     </g>
    </g>
   </g>
   <g id="matplotlib.axis_6">
    <g id="ytick_11"/>
    <g id="ytick_12"/>
    <g id="ytick_13"/>
    <g id="ytick_14"/>
    <g id="ytick_15"/>
   </g>
   <g id="line2d_25">
    <path clip-path="url(#p38b91db500)" d="M 804.269773 270.06484 
L 807.951591 270.722023 
L 811.633409 269.197135 
L 815.315227 265.500108 
L 818.997045 265.500108 
L 822.678864 262.037813 
L 826.360682 261.437813 
L 830.0425 260.387813 
L 833.724318 262.083966 
L 837.406136 261.094955 
L 841.087955 261.550564 
L 844.769773 262.211497 
L 848.451591 263.053197 
L 852.133409 263.852813 
L 855.815227 262.324769 
L 859.497045 262.526701 
L 863.178864 262.726156 
L 866.860682 263.117813 
L 870.5425 264.056636 
L 874.224318 264.593882 
L 877.906136 265.449048 
L 881.587955 265.777813 
L 885.269773 266.568623 
L 888.951591 266.568623 
L 892.633409 267.022919 
L 896.315227 267.171146 
L 899.997045 267.748693 
L 903.678864 268.166384 
L 907.360682 268.437813 
L 911.0425 268.571481 
L 914.724318 268.834827 
L 918.406136 267.861342 
L 922.087955 268.255204 
L 925.769773 267.317813 
L 929.451591 267.708235 
L 933.133409 267.962464 
L 936.815227 268.087813 
L 940.497045 268.087813 
L 944.178864 267.191237 
L 947.860682 267.443242 
L 951.5425 267.690727 
L 955.224318 267.933813 
L 958.906136 267.933813 
L 962.587955 268.172614 
L 966.269773 268.751606 
L 969.951591 268.864422 
L 973.633409 269.197135 
L 977.315227 269.414283 
L 980.997045 269.733248 
L 984.678864 269.837813 
L 988.360682 270.04437 
L 992.0425 270.247569 
L 995.724318 270.837813 
L 999.406136 271.215938 
L 1003.087955 271.30863 
L 1006.769773 271.400603 
L 1010.451591 271.400603 
L 1014.133409 270.610226 
L 1017.815227 270.610226 
L 1021.497045 270.703461 
L 1025.178864 270.887813 
L 1028.860682 271.159161 
L 1032.5425 271.424479 
L 1036.224318 271.683966 
L 1039.906136 271.683966 
L 1043.587955 271.853813 
L 1047.269773 271.853813 
L 1050.951591 271.853813 
L 1054.633409 270.933465 
L 1058.315227 270.933465 
L 1061.997045 271.020484 
L 1065.678864 271.106877 
L 1069.360682 271.192651 
L 1073.0425 271.277813 
L 1076.724318 271.529685 
L 1080.406136 271.61246 
L 1084.087955 271.61246 
L 1087.769773 271.694655 
L 1091.451591 271.694655 
L 1095.133409 271.937813 
L 1098.815227 271.937813 
" style="fill:none;stroke:#8b0000;stroke-linecap:square;stroke-width:2;"/>
   </g>
   <g id="line2d_26">
    <path clip-path="url(#p38b91db500)" d="M 804.269773 72.778353 
L 807.951591 73.764128 
L 811.633409 76.566626 
L 815.315227 74.641091 
L 818.997045 74.641091 
L 822.678864 72.837813 
L 826.360682 74.537813 
L 830.0425 72.870165 
L 833.724318 72.114736 
L 837.406136 70.637813 
L 841.087955 69.929088 
L 844.769773 70.724655 
L 848.451591 69.368582 
L 852.133409 68.080313 
L 855.815227 67.768247 
L 859.497045 69.171146 
L 863.178864 68.856217 
L 866.860682 68.237813 
L 870.5425 70.016636 
L 874.224318 69.111801 
L 877.906136 70.786127 
L 881.587955 70.197813 
L 885.269773 68.782677 
L 888.951591 68.782677 
L 892.633409 72.393132 
L 896.315227 73.571146 
L 899.997045 73.85232 
L 903.678864 74.409241 
L 907.360682 73.837813 
L 911.0425 73.556405 
L 914.724318 73.001992 
L 918.406136 72.190754 
L 922.087955 72.74216 
L 925.769773 71.957813 
L 929.451591 71.195559 
L 933.133409 71.98851 
L 936.815227 71.737813 
L 940.497045 71.737813 
L 944.178864 72.26521 
L 947.860682 74.281251 
L 951.5425 73.775032 
L 955.224318 73.277813 
L 958.906136 73.277813 
L 962.587955 74.0105 
L 966.269773 72.799881 
L 969.951591 73.753692 
L 973.633409 74.217474 
L 977.315227 73.743695 
L 980.997045 73.047771 
L 984.678864 72.819631 
L 988.360682 73.505026 
L 992.0425 73.052447 
L 995.724318 72.837813 
L 999.406136 74.144063 
L 1003.087955 73.924972 
L 1006.769773 73.70758 
L 1010.451591 73.70758 
L 1014.133409 74.127468 
L 1017.815227 74.127468 
L 1021.497045 73.912622 
L 1025.178864 75.587813 
L 1028.860682 77.015341 
L 1032.5425 78.411146 
L 1036.224318 78.760889 
L 1039.906136 78.760889 
L 1043.587955 78.317813 
L 1047.269773 78.317813 
L 1050.951591 78.317813 
L 1054.633409 78.098682 
L 1058.315227 78.098682 
L 1061.997045 78.881856 
L 1065.678864 78.662273 
L 1069.360682 78.444264 
L 1073.0425 78.227813 
L 1076.724318 78.567141 
L 1080.406136 79.329362 
L 1084.087955 79.329362 
L 1087.769773 80.086234 
L 1091.451591 80.086234 
L 1095.133409 80.400313 
L 1098.815227 80.400313 
" style="fill:none;stroke:#000080;stroke-linecap:square;stroke-width:2;"/>
   </g>
   <g id="patch_9">
    <path d="M 789.5425 295.037813 
L 789.5425 17.837813 
" style="fill:none;stroke:#000000;stroke-linecap:square;stroke-linejoin:miter;stroke-width:0.8;"/>
   </g>
   <g id="patch_10">
    <path d="M 789.5425 295.037813 
L 1113.5425 295.037813 
" style="fill:none;stroke:#000000;stroke-linecap:square;stroke-linejoin:miter;stroke-width:0.8;"/>
   </g>
  </g>
 </g>
 <defs>
  <clipPath id="pd90d24e9f1">
   <rect height="277.2" width="324" x="109.1425" y="17.837812"/>
  </clipPath>
  <clipPath id="pc6385ed5fb">
   <rect height="277.2" width="324" x="449.3425" y="17.837812"/>
  </clipPath>
  <clipPath id="p38b91db500">
   <rect height="277.2" width="324" x="789.5425" y="17.837812"/>
  </clipPath>
 </defs>
</svg>
