<?xml version="1.0" encoding="utf-8" standalone="no"?>
<!DOCTYPE svg PUBLIC "-//W3C//DTD SVG 1.1//EN"
  "http://www.w3.org/Graphics/SVG/1.1/DTD/svg11.dtd">
<!-- Created with matplotlib (https://matplotlib.org/) -->
<svg height="423.953125pt" version="1.1" viewBox="0 0 640.395625 423.953125" width="640.395625pt" xmlns="http://www.w3.org/2000/svg" xmlns:xlink="http://www.w3.org/1999/xlink">
 <defs>
  <style type="text/css">
*{stroke-linecap:butt;stroke-linejoin:round;}
  </style>
 </defs>
 <g id="figure_1">
  <g id="patch_1">
   <path d="M 0 423.953125 
L 640.395625 423.953125 
L 640.395625 0 
L 0 0 
z
" style="fill:#ffffff;"/>
  </g>
  <g id="axes_1">
   <g id="patch_2">
    <path d="M 132.605625 350.055625 
L 633.195625 350.055625 
L 633.195625 34.475625 
L 132.605625 34.475625 
z
" style="fill:#ffffff;"/>
   </g>
   <g id="matplotlib.axis_1">
    <g id="xtick_1">
     <g id="line2d_1">
      <defs>
       <path d="M 0 0 
L 0 5 
" id="mf8a2d380ca" style="stroke:#000000;stroke-width:0.8;"/>
      </defs>
      <g>
       <use style="stroke:#000000;stroke-width:0.8;" x="154.059482" xlink:href="#mf8a2d380ca" y="350.055625"/>
      </g>
     </g>
     <g id="text_1">
      <!-- 0.0 -->
      <defs>
       <path d="M 31.78125 66.40625 
Q 24.171875 66.40625 20.328125 58.90625 
Q 16.5 51.421875 16.5 36.375 
Q 16.5 21.390625 20.328125 13.890625 
Q 24.171875 6.390625 31.78125 6.390625 
Q 39.453125 6.390625 43.28125 13.890625 
Q 47.125 21.390625 47.125 36.375 
Q 47.125 51.421875 43.28125 58.90625 
Q 39.453125 66.40625 31.78125 66.40625 
z
M 31.78125 74.21875 
Q 44.046875 74.21875 50.515625 64.515625 
Q 56.984375 54.828125 56.984375 36.375 
Q 56.984375 17.96875 50.515625 8.265625 
Q 44.046875 -1.421875 31.78125 -1.421875 
Q 19.53125 -1.421875 13.0625 8.265625 
Q 6.59375 17.96875 6.59375 36.375 
Q 6.59375 54.828125 13.0625 64.515625 
Q 19.53125 74.21875 31.78125 74.21875 
z
" id="DejaVuSans-48"/>
       <path d="M 10.6875 12.40625 
L 21 12.40625 
L 21 0 
L 10.6875 0 
z
" id="DejaVuSans-46"/>
      </defs>
      <g transform="translate(131.795107 379.83125)scale(0.28 -0.28)">
       <use xlink:href="#DejaVuSans-48"/>
       <use x="63.623047" xlink:href="#DejaVuSans-46"/>
       <use x="95.410156" xlink:href="#DejaVuSans-48"/>
      </g>
     </g>
    </g>
    <g id="xtick_2">
     <g id="line2d_2">
      <g>
       <use style="stroke:#000000;stroke-width:0.8;" x="254.177482" xlink:href="#mf8a2d380ca" y="350.055625"/>
      </g>
     </g>
     <g id="text_2">
      <!-- 0.1 -->
      <defs>
       <path d="M 12.40625 8.296875 
L 28.515625 8.296875 
L 28.515625 63.921875 
L 10.984375 60.40625 
L 10.984375 69.390625 
L 28.421875 72.90625 
L 38.28125 72.90625 
L 38.28125 8.296875 
L 54.390625 8.296875 
L 54.390625 0 
L 12.40625 0 
z
" id="DejaVuSans-49"/>
      </defs>
      <g transform="translate(231.913107 379.83125)scale(0.28 -0.28)">
       <use xlink:href="#DejaVuSans-48"/>
       <use x="63.623047" xlink:href="#DejaVuSans-46"/>
       <use x="95.410156" xlink:href="#DejaVuSans-49"/>
      </g>
     </g>
    </g>
    <g id="xtick_3">
     <g id="line2d_3">
      <g>
       <use style="stroke:#000000;stroke-width:0.8;" x="354.295482" xlink:href="#mf8a2d380ca" y="350.055625"/>
      </g>
     </g>
     <g id="text_3">
      <!-- 0.2 -->
      <defs>
       <path d="M 19.1875 8.296875 
L 53.609375 8.296875 
L 53.609375 0 
L 7.328125 0 
L 7.328125 8.296875 
Q 12.9375 14.109375 22.625 23.890625 
Q 32.328125 33.6875 34.8125 36.53125 
Q 39.546875 41.84375 41.421875 45.53125 
Q 43.3125 49.21875 43.3125 52.78125 
Q 43.3125 58.59375 39.234375 62.25 
Q 35.15625 65.921875 28.609375 65.921875 
Q 23.96875 65.921875 18.8125 64.3125 
Q 13.671875 62.703125 7.8125 59.421875 
L 7.8125 69.390625 
Q 13.765625 71.78125 18.9375 73 
Q 24.125 74.21875 28.421875 74.21875 
Q 39.75 74.21875 46.484375 68.546875 
Q 53.21875 62.890625 53.21875 53.421875 
Q 53.21875 48.921875 51.53125 44.890625 
Q 49.859375 40.875 45.40625 35.40625 
Q 44.1875 33.984375 37.640625 27.21875 
Q 31.109375 20.453125 19.1875 8.296875 
z
" id="DejaVuSans-50"/>
      </defs>
      <g transform="translate(332.031107 379.83125)scale(0.28 -0.28)">
       <use xlink:href="#DejaVuSans-48"/>
       <use x="63.623047" xlink:href="#DejaVuSans-46"/>
       <use x="95.410156" xlink:href="#DejaVuSans-50"/>
      </g>
     </g>
    </g>
    <g id="xtick_4">
     <g id="line2d_4">
      <g>
       <use style="stroke:#000000;stroke-width:0.8;" x="454.413482" xlink:href="#mf8a2d380ca" y="350.055625"/>
      </g>
     </g>
     <g id="text_4">
      <!-- 0.3 -->
      <defs>
       <path d="M 40.578125 39.3125 
Q 47.65625 37.796875 51.625 33 
Q 55.609375 28.21875 55.609375 21.1875 
Q 55.609375 10.40625 48.1875 4.484375 
Q 40.765625 -1.421875 27.09375 -1.421875 
Q 22.515625 -1.421875 17.65625 -0.515625 
Q 12.796875 0.390625 7.625 2.203125 
L 7.625 11.71875 
Q 11.71875 9.328125 16.59375 8.109375 
Q 21.484375 6.890625 26.8125 6.890625 
Q 36.078125 6.890625 40.9375 10.546875 
Q 45.796875 14.203125 45.796875 21.1875 
Q 45.796875 27.640625 41.28125 31.265625 
Q 36.765625 34.90625 28.71875 34.90625 
L 20.21875 34.90625 
L 20.21875 43.015625 
L 29.109375 43.015625 
Q 36.375 43.015625 40.234375 45.921875 
Q 44.09375 48.828125 44.09375 54.296875 
Q 44.09375 59.90625 40.109375 62.90625 
Q 36.140625 65.921875 28.71875 65.921875 
Q 24.65625 65.921875 20.015625 65.03125 
Q 15.375 64.15625 9.8125 62.3125 
L 9.8125 71.09375 
Q 15.4375 72.65625 20.34375 73.4375 
Q 25.25 74.21875 29.59375 74.21875 
Q 40.828125 74.21875 47.359375 69.109375 
Q 53.90625 64.015625 53.90625 55.328125 
Q 53.90625 49.265625 50.4375 45.09375 
Q 46.96875 40.921875 40.578125 39.3125 
z
" id="DejaVuSans-51"/>
      </defs>
      <g transform="translate(432.149107 379.83125)scale(0.28 -0.28)">
       <use xlink:href="#DejaVuSans-48"/>
       <use x="63.623047" xlink:href="#DejaVuSans-46"/>
       <use x="95.410156" xlink:href="#DejaVuSans-51"/>
      </g>
     </g>
    </g>
    <g id="xtick_5">
     <g id="line2d_5">
      <g>
       <use style="stroke:#000000;stroke-width:0.8;" x="554.531482" xlink:href="#mf8a2d380ca" y="350.055625"/>
      </g>
     </g>
     <g id="text_5">
      <!-- 0.4 -->
      <defs>
       <path d="M 37.796875 64.3125 
L 12.890625 25.390625 
L 37.796875 25.390625 
z
M 35.203125 72.90625 
L 47.609375 72.90625 
L 47.609375 25.390625 
L 58.015625 25.390625 
L 58.015625 17.1875 
L 47.609375 17.1875 
L 47.609375 0 
L 37.796875 0 
L 37.796875 17.1875 
L 4.890625 17.1875 
L 4.890625 26.703125 
z
" id="DejaVuSans-52"/>
      </defs>
      <g transform="translate(532.267107 379.83125)scale(0.28 -0.28)">
       <use xlink:href="#DejaVuSans-48"/>
       <use x="63.623047" xlink:href="#DejaVuSans-46"/>
       <use x="95.410156" xlink:href="#DejaVuSans-52"/>
      </g>
     </g>
    </g>
    <g id="text_6">
     <!-- Bimodality limit -->
     <defs>
      <path d="M 19.671875 34.8125 
L 19.671875 8.109375 
L 35.5 8.109375 
Q 43.453125 8.109375 47.28125 11.40625 
Q 51.125 14.703125 51.125 21.484375 
Q 51.125 28.328125 47.28125 31.5625 
Q 43.453125 34.8125 35.5 34.8125 
z
M 19.671875 64.796875 
L 19.671875 42.828125 
L 34.28125 42.828125 
Q 41.5 42.828125 45.03125 45.53125 
Q 48.578125 48.25 48.578125 53.8125 
Q 48.578125 59.328125 45.03125 62.0625 
Q 41.5 64.796875 34.28125 64.796875 
z
M 9.8125 72.90625 
L 35.015625 72.90625 
Q 46.296875 72.90625 52.390625 68.21875 
Q 58.5 63.53125 58.5 54.890625 
Q 58.5 48.1875 55.375 44.234375 
Q 52.25 40.28125 46.1875 39.3125 
Q 53.46875 37.75 57.5 32.78125 
Q 61.53125 27.828125 61.53125 20.40625 
Q 61.53125 10.640625 54.890625 5.3125 
Q 48.25 0 35.984375 0 
L 9.8125 0 
z
" id="DejaVuSans-66"/>
      <path d="M 9.421875 54.6875 
L 18.40625 54.6875 
L 18.40625 0 
L 9.421875 0 
z
M 9.421875 75.984375 
L 18.40625 75.984375 
L 18.40625 64.59375 
L 9.421875 64.59375 
z
" id="DejaVuSans-105"/>
      <path d="M 52 44.1875 
Q 55.375 50.25 60.0625 53.125 
Q 64.75 56 71.09375 56 
Q 79.640625 56 84.28125 50.015625 
Q 88.921875 44.046875 88.921875 33.015625 
L 88.921875 0 
L 79.890625 0 
L 79.890625 32.71875 
Q 79.890625 40.578125 77.09375 44.375 
Q 74.3125 48.1875 68.609375 48.1875 
Q 61.625 48.1875 57.5625 43.546875 
Q 53.515625 38.921875 53.515625 30.90625 
L 53.515625 0 
L 44.484375 0 
L 44.484375 32.71875 
Q 44.484375 40.625 41.703125 44.40625 
Q 38.921875 48.1875 33.109375 48.1875 
Q 26.21875 48.1875 22.15625 43.53125 
Q 18.109375 38.875 18.109375 30.90625 
L 18.109375 0 
L 9.078125 0 
L 9.078125 54.6875 
L 18.109375 54.6875 
L 18.109375 46.1875 
Q 21.1875 51.21875 25.484375 53.609375 
Q 29.78125 56 35.6875 56 
Q 41.65625 56 45.828125 52.96875 
Q 50 49.953125 52 44.1875 
z
" id="DejaVuSans-109"/>
      <path d="M 30.609375 48.390625 
Q 23.390625 48.390625 19.1875 42.75 
Q 14.984375 37.109375 14.984375 27.296875 
Q 14.984375 17.484375 19.15625 11.84375 
Q 23.34375 6.203125 30.609375 6.203125 
Q 37.796875 6.203125 41.984375 11.859375 
Q 46.1875 17.53125 46.1875 27.296875 
Q 46.1875 37.015625 41.984375 42.703125 
Q 37.796875 48.390625 30.609375 48.390625 
z
M 30.609375 56 
Q 42.328125 56 49.015625 48.375 
Q 55.71875 40.765625 55.71875 27.296875 
Q 55.71875 13.875 49.015625 6.21875 
Q 42.328125 -1.421875 30.609375 -1.421875 
Q 18.84375 -1.421875 12.171875 6.21875 
Q 5.515625 13.875 5.515625 27.296875 
Q 5.515625 40.765625 12.171875 48.375 
Q 18.84375 56 30.609375 56 
z
" id="DejaVuSans-111"/>
      <path d="M 45.40625 46.390625 
L 45.40625 75.984375 
L 54.390625 75.984375 
L 54.390625 0 
L 45.40625 0 
L 45.40625 8.203125 
Q 42.578125 3.328125 38.25 0.953125 
Q 33.9375 -1.421875 27.875 -1.421875 
Q 17.96875 -1.421875 11.734375 6.484375 
Q 5.515625 14.40625 5.515625 27.296875 
Q 5.515625 40.1875 11.734375 48.09375 
Q 17.96875 56 27.875 56 
Q 33.9375 56 38.25 53.625 
Q 42.578125 51.265625 45.40625 46.390625 
z
M 14.796875 27.296875 
Q 14.796875 17.390625 18.875 11.75 
Q 22.953125 6.109375 30.078125 6.109375 
Q 37.203125 6.109375 41.296875 11.75 
Q 45.40625 17.390625 45.40625 27.296875 
Q 45.40625 37.203125 41.296875 42.84375 
Q 37.203125 48.484375 30.078125 48.484375 
Q 22.953125 48.484375 18.875 42.84375 
Q 14.796875 37.203125 14.796875 27.296875 
z
" id="DejaVuSans-100"/>
      <path d="M 34.28125 27.484375 
Q 23.390625 27.484375 19.1875 25 
Q 14.984375 22.515625 14.984375 16.5 
Q 14.984375 11.71875 18.140625 8.90625 
Q 21.296875 6.109375 26.703125 6.109375 
Q 34.1875 6.109375 38.703125 11.40625 
Q 43.21875 16.703125 43.21875 25.484375 
L 43.21875 27.484375 
z
M 52.203125 31.203125 
L 52.203125 0 
L 43.21875 0 
L 43.21875 8.296875 
Q 40.140625 3.328125 35.546875 0.953125 
Q 30.953125 -1.421875 24.3125 -1.421875 
Q 15.921875 -1.421875 10.953125 3.296875 
Q 6 8.015625 6 15.921875 
Q 6 25.140625 12.171875 29.828125 
Q 18.359375 34.515625 30.609375 34.515625 
L 43.21875 34.515625 
L 43.21875 35.40625 
Q 43.21875 41.609375 39.140625 45 
Q 35.0625 48.390625 27.6875 48.390625 
Q 23 48.390625 18.546875 47.265625 
Q 14.109375 46.140625 10.015625 43.890625 
L 10.015625 52.203125 
Q 14.9375 54.109375 19.578125 55.046875 
Q 24.21875 56 28.609375 56 
Q 40.484375 56 46.34375 49.84375 
Q 52.203125 43.703125 52.203125 31.203125 
z
" id="DejaVuSans-97"/>
      <path d="M 9.421875 75.984375 
L 18.40625 75.984375 
L 18.40625 0 
L 9.421875 0 
z
" id="DejaVuSans-108"/>
      <path d="M 18.3125 70.21875 
L 18.3125 54.6875 
L 36.8125 54.6875 
L 36.8125 47.703125 
L 18.3125 47.703125 
L 18.3125 18.015625 
Q 18.3125 11.328125 20.140625 9.421875 
Q 21.96875 7.515625 27.59375 7.515625 
L 36.8125 7.515625 
L 36.8125 0 
L 27.59375 0 
Q 17.1875 0 13.234375 3.875 
Q 9.28125 7.765625 9.28125 18.015625 
L 9.28125 47.703125 
L 2.6875 47.703125 
L 2.6875 54.6875 
L 9.28125 54.6875 
L 9.28125 70.21875 
z
" id="DejaVuSans-116"/>
      <path d="M 32.171875 -5.078125 
Q 28.375 -14.84375 24.75 -17.8125 
Q 21.140625 -20.796875 15.09375 -20.796875 
L 7.90625 -20.796875 
L 7.90625 -13.28125 
L 13.1875 -13.28125 
Q 16.890625 -13.28125 18.9375 -11.515625 
Q 21 -9.765625 23.484375 -3.21875 
L 25.09375 0.875 
L 2.984375 54.6875 
L 12.5 54.6875 
L 29.59375 11.921875 
L 46.6875 54.6875 
L 56.203125 54.6875 
z
" id="DejaVuSans-121"/>
      <path id="DejaVuSans-32"/>
     </defs>
     <g transform="translate(272.939375 410.93)scale(0.28 -0.28)">
      <use xlink:href="#DejaVuSans-66"/>
      <use x="68.603516" xlink:href="#DejaVuSans-105"/>
      <use x="96.386719" xlink:href="#DejaVuSans-109"/>
      <use x="193.798828" xlink:href="#DejaVuSans-111"/>
      <use x="254.980469" xlink:href="#DejaVuSans-100"/>
      <use x="318.457031" xlink:href="#DejaVuSans-97"/>
      <use x="379.736328" xlink:href="#DejaVuSans-108"/>
      <use x="407.519531" xlink:href="#DejaVuSans-105"/>
      <use x="435.302734" xlink:href="#DejaVuSans-116"/>
      <use x="474.511719" xlink:href="#DejaVuSans-121"/>
      <use x="533.691406" xlink:href="#DejaVuSans-32"/>
      <use x="565.478516" xlink:href="#DejaVuSans-108"/>
      <use x="593.261719" xlink:href="#DejaVuSans-105"/>
      <use x="621.044922" xlink:href="#DejaVuSans-109"/>
      <use x="718.457031" xlink:href="#DejaVuSans-105"/>
      <use x="746.240234" xlink:href="#DejaVuSans-116"/>
     </g>
    </g>
   </g>
   <g id="matplotlib.axis_2">
    <g id="ytick_1">
     <g id="line2d_6">
      <defs>
       <path d="M 0 0 
L -5 0 
" id="meb9d1b8f6a" style="stroke:#000000;stroke-width:0.8;"/>
      </defs>
      <g>
       <use style="stroke:#000000;stroke-width:0.8;" x="132.605625" xlink:href="#meb9d1b8f6a" y="336.111554"/>
      </g>
     </g>
     <g id="text_7">
      <!-- −0.20 -->
      <defs>
       <path d="M 10.59375 35.5 
L 73.1875 35.5 
L 73.1875 27.203125 
L 10.59375 27.203125 
z
" id="DejaVuSans-8722"/>
      </defs>
      <g transform="translate(38.29875 346.749367)scale(0.28 -0.28)">
       <use xlink:href="#DejaVuSans-8722"/>
       <use x="83.789062" xlink:href="#DejaVuSans-48"/>
       <use x="147.412109" xlink:href="#DejaVuSans-46"/>
       <use x="179.199219" xlink:href="#DejaVuSans-50"/>
       <use x="242.822266" xlink:href="#DejaVuSans-48"/>
      </g>
     </g>
    </g>
    <g id="ytick_2">
     <g id="line2d_7">
      <g>
       <use style="stroke:#000000;stroke-width:0.8;" x="132.605625" xlink:href="#meb9d1b8f6a" y="270.433716"/>
      </g>
     </g>
     <g id="text_8">
      <!-- −0.15 -->
      <defs>
       <path d="M 10.796875 72.90625 
L 49.515625 72.90625 
L 49.515625 64.59375 
L 19.828125 64.59375 
L 19.828125 46.734375 
Q 21.96875 47.46875 24.109375 47.828125 
Q 26.265625 48.1875 28.421875 48.1875 
Q 40.625 48.1875 47.75 41.5 
Q 54.890625 34.8125 54.890625 23.390625 
Q 54.890625 11.625 47.5625 5.09375 
Q 40.234375 -1.421875 26.90625 -1.421875 
Q 22.3125 -1.421875 17.546875 -0.640625 
Q 12.796875 0.140625 7.71875 1.703125 
L 7.71875 11.625 
Q 12.109375 9.234375 16.796875 8.0625 
Q 21.484375 6.890625 26.703125 6.890625 
Q 35.15625 6.890625 40.078125 11.328125 
Q 45.015625 15.765625 45.015625 23.390625 
Q 45.015625 31 40.078125 35.4375 
Q 35.15625 39.890625 26.703125 39.890625 
Q 22.75 39.890625 18.8125 39.015625 
Q 14.890625 38.140625 10.796875 36.28125 
z
" id="DejaVuSans-53"/>
      </defs>
      <g transform="translate(38.29875 281.071528)scale(0.28 -0.28)">
       <use xlink:href="#DejaVuSans-8722"/>
       <use x="83.789062" xlink:href="#DejaVuSans-48"/>
       <use x="147.412109" xlink:href="#DejaVuSans-46"/>
       <use x="179.199219" xlink:href="#DejaVuSans-49"/>
       <use x="242.822266" xlink:href="#DejaVuSans-53"/>
      </g>
     </g>
    </g>
    <g id="ytick_3">
     <g id="line2d_8">
      <g>
       <use style="stroke:#000000;stroke-width:0.8;" x="132.605625" xlink:href="#meb9d1b8f6a" y="204.755877"/>
      </g>
     </g>
     <g id="text_9">
      <!-- −0.10 -->
      <g transform="translate(38.29875 215.39369)scale(0.28 -0.28)">
       <use xlink:href="#DejaVuSans-8722"/>
       <use x="83.789062" xlink:href="#DejaVuSans-48"/>
       <use x="147.412109" xlink:href="#DejaVuSans-46"/>
       <use x="179.199219" xlink:href="#DejaVuSans-49"/>
       <use x="242.822266" xlink:href="#DejaVuSans-48"/>
      </g>
     </g>
    </g>
    <g id="ytick_4">
     <g id="line2d_9">
      <g>
       <use style="stroke:#000000;stroke-width:0.8;" x="132.605625" xlink:href="#meb9d1b8f6a" y="139.078038"/>
      </g>
     </g>
     <g id="text_10">
      <!-- −0.05 -->
      <g transform="translate(38.29875 149.715851)scale(0.28 -0.28)">
       <use xlink:href="#DejaVuSans-8722"/>
       <use x="83.789062" xlink:href="#DejaVuSans-48"/>
       <use x="147.412109" xlink:href="#DejaVuSans-46"/>
       <use x="179.199219" xlink:href="#DejaVuSans-48"/>
       <use x="242.822266" xlink:href="#DejaVuSans-53"/>
      </g>
     </g>
    </g>
    <g id="ytick_5">
     <g id="line2d_10">
      <g>
       <use style="stroke:#000000;stroke-width:0.8;" x="132.605625" xlink:href="#meb9d1b8f6a" y="73.4002"/>
      </g>
     </g>
     <g id="text_11">
      <!-- 0.00 -->
      <g transform="translate(61.761875 84.038012)scale(0.28 -0.28)">
       <use xlink:href="#DejaVuSans-48"/>
       <use x="63.623047" xlink:href="#DejaVuSans-46"/>
       <use x="95.410156" xlink:href="#DejaVuSans-48"/>
       <use x="159.033203" xlink:href="#DejaVuSans-48"/>
      </g>
     </g>
    </g>
    <g id="text_12">
     <!-- Bimodality change -->
     <defs>
      <path d="M 48.78125 52.59375 
L 48.78125 44.1875 
Q 44.96875 46.296875 41.140625 47.34375 
Q 37.3125 48.390625 33.40625 48.390625 
Q 24.65625 48.390625 19.8125 42.84375 
Q 14.984375 37.3125 14.984375 27.296875 
Q 14.984375 17.28125 19.8125 11.734375 
Q 24.65625 6.203125 33.40625 6.203125 
Q 37.3125 6.203125 41.140625 7.25 
Q 44.96875 8.296875 48.78125 10.40625 
L 48.78125 2.09375 
Q 45.015625 0.34375 40.984375 -0.53125 
Q 36.96875 -1.421875 32.421875 -1.421875 
Q 20.0625 -1.421875 12.78125 6.34375 
Q 5.515625 14.109375 5.515625 27.296875 
Q 5.515625 40.671875 12.859375 48.328125 
Q 20.21875 56 33.015625 56 
Q 37.15625 56 41.109375 55.140625 
Q 45.0625 54.296875 48.78125 52.59375 
z
" id="DejaVuSans-99"/>
      <path d="M 54.890625 33.015625 
L 54.890625 0 
L 45.90625 0 
L 45.90625 32.71875 
Q 45.90625 40.484375 42.875 44.328125 
Q 39.84375 48.1875 33.796875 48.1875 
Q 26.515625 48.1875 22.3125 43.546875 
Q 18.109375 38.921875 18.109375 30.90625 
L 18.109375 0 
L 9.078125 0 
L 9.078125 75.984375 
L 18.109375 75.984375 
L 18.109375 46.1875 
Q 21.34375 51.125 25.703125 53.5625 
Q 30.078125 56 35.796875 56 
Q 45.21875 56 50.046875 50.171875 
Q 54.890625 44.34375 54.890625 33.015625 
z
" id="DejaVuSans-104"/>
      <path d="M 54.890625 33.015625 
L 54.890625 0 
L 45.90625 0 
L 45.90625 32.71875 
Q 45.90625 40.484375 42.875 44.328125 
Q 39.84375 48.1875 33.796875 48.1875 
Q 26.515625 48.1875 22.3125 43.546875 
Q 18.109375 38.921875 18.109375 30.90625 
L 18.109375 0 
L 9.078125 0 
L 9.078125 54.6875 
L 18.109375 54.6875 
L 18.109375 46.1875 
Q 21.34375 51.125 25.703125 53.5625 
Q 30.078125 56 35.796875 56 
Q 45.21875 56 50.046875 50.171875 
Q 54.890625 44.34375 54.890625 33.015625 
z
" id="DejaVuSans-110"/>
      <path d="M 45.40625 27.984375 
Q 45.40625 37.75 41.375 43.109375 
Q 37.359375 48.484375 30.078125 48.484375 
Q 22.859375 48.484375 18.828125 43.109375 
Q 14.796875 37.75 14.796875 27.984375 
Q 14.796875 18.265625 18.828125 12.890625 
Q 22.859375 7.515625 30.078125 7.515625 
Q 37.359375 7.515625 41.375 12.890625 
Q 45.40625 18.265625 45.40625 27.984375 
z
M 54.390625 6.78125 
Q 54.390625 -7.171875 48.1875 -13.984375 
Q 42 -20.796875 29.203125 -20.796875 
Q 24.46875 -20.796875 20.265625 -20.09375 
Q 16.0625 -19.390625 12.109375 -17.921875 
L 12.109375 -9.1875 
Q 16.0625 -11.328125 19.921875 -12.34375 
Q 23.78125 -13.375 27.78125 -13.375 
Q 36.625 -13.375 41.015625 -8.765625 
Q 45.40625 -4.15625 45.40625 5.171875 
L 45.40625 9.625 
Q 42.625 4.78125 38.28125 2.390625 
Q 33.9375 0 27.875 0 
Q 17.828125 0 11.671875 7.65625 
Q 5.515625 15.328125 5.515625 27.984375 
Q 5.515625 40.671875 11.671875 48.328125 
Q 17.828125 56 27.875 56 
Q 33.9375 56 38.28125 53.609375 
Q 42.625 51.21875 45.40625 46.390625 
L 45.40625 54.6875 
L 54.390625 54.6875 
z
" id="DejaVuSans-103"/>
      <path d="M 56.203125 29.59375 
L 56.203125 25.203125 
L 14.890625 25.203125 
Q 15.484375 15.921875 20.484375 11.0625 
Q 25.484375 6.203125 34.421875 6.203125 
Q 39.59375 6.203125 44.453125 7.46875 
Q 49.3125 8.734375 54.109375 11.28125 
L 54.109375 2.78125 
Q 49.265625 0.734375 44.1875 -0.34375 
Q 39.109375 -1.421875 33.890625 -1.421875 
Q 20.796875 -1.421875 13.15625 6.1875 
Q 5.515625 13.8125 5.515625 26.8125 
Q 5.515625 40.234375 12.765625 48.109375 
Q 20.015625 56 32.328125 56 
Q 43.359375 56 49.78125 48.890625 
Q 56.203125 41.796875 56.203125 29.59375 
z
M 47.21875 32.234375 
Q 47.125 39.59375 43.09375 43.984375 
Q 39.0625 48.390625 32.421875 48.390625 
Q 24.90625 48.390625 20.390625 44.140625 
Q 15.875 39.890625 15.1875 32.171875 
z
" id="DejaVuSans-101"/>
     </defs>
     <g transform="translate(28.475625 322.957812)rotate(-90)scale(0.28 -0.28)">
      <use xlink:href="#DejaVuSans-66"/>
      <use x="68.603516" xlink:href="#DejaVuSans-105"/>
      <use x="96.386719" xlink:href="#DejaVuSans-109"/>
      <use x="193.798828" xlink:href="#DejaVuSans-111"/>
      <use x="254.980469" xlink:href="#DejaVuSans-100"/>
      <use x="318.457031" xlink:href="#DejaVuSans-97"/>
      <use x="379.736328" xlink:href="#DejaVuSans-108"/>
      <use x="407.519531" xlink:href="#DejaVuSans-105"/>
      <use x="435.302734" xlink:href="#DejaVuSans-116"/>
      <use x="474.511719" xlink:href="#DejaVuSans-121"/>
      <use x="533.691406" xlink:href="#DejaVuSans-32"/>
      <use x="565.478516" xlink:href="#DejaVuSans-99"/>
      <use x="620.458984" xlink:href="#DejaVuSans-104"/>
      <use x="683.837891" xlink:href="#DejaVuSans-97"/>
      <use x="745.117188" xlink:href="#DejaVuSans-110"/>
      <use x="808.496094" xlink:href="#DejaVuSans-103"/>
      <use x="871.972656" xlink:href="#DejaVuSans-101"/>
     </g>
    </g>
   </g>
   <g id="line2d_11">
    <path clip-path="url(#pb4079b3e58)" d="M 143.332554 261.033669 
L 143.332554 307.728568 
" style="fill:none;stroke:#000000;stroke-linecap:square;"/>
   </g>
   <g id="line2d_12">
    <path clip-path="url(#pb4079b3e58)" d="M 143.332554 129.09762 
L 143.332554 83.882282 
" style="fill:none;stroke:#000000;stroke-linecap:square;"/>
   </g>
   <g id="line2d_13">
    <path clip-path="url(#pb4079b3e58)" d="M 141.723514 307.728568 
L 144.941593 307.728568 
" style="fill:none;stroke:#000000;stroke-linecap:square;"/>
   </g>
   <g id="line2d_14">
    <path clip-path="url(#pb4079b3e58)" d="M 141.723514 83.882282 
L 144.941593 83.882282 
" style="fill:none;stroke:#000000;stroke-linecap:square;"/>
   </g>
   <g id="line2d_15">
    <path clip-path="url(#pb4079b3e58)" d="M 193.391554 247.488112 
L 193.391554 291.648602 
" style="fill:none;stroke:#000000;stroke-linecap:square;"/>
   </g>
   <g id="line2d_16">
    <path clip-path="url(#pb4079b3e58)" d="M 193.391554 127.220902 
L 193.391554 81.375966 
" style="fill:none;stroke:#000000;stroke-linecap:square;"/>
   </g>
   <g id="line2d_17">
    <path clip-path="url(#pb4079b3e58)" d="M 191.782514 291.648602 
L 195.000593 291.648602 
" style="fill:none;stroke:#000000;stroke-linecap:square;"/>
   </g>
   <g id="line2d_18">
    <path clip-path="url(#pb4079b3e58)" d="M 191.782514 81.375966 
L 195.000593 81.375966 
" style="fill:none;stroke:#000000;stroke-linecap:square;"/>
   </g>
   <g id="line2d_19">
    <path clip-path="url(#pb4079b3e58)" d="M 243.450554 217.427977 
L 243.450554 268.179956 
" style="fill:none;stroke:#000000;stroke-linecap:square;"/>
   </g>
   <g id="line2d_20">
    <path clip-path="url(#pb4079b3e58)" d="M 243.450554 122.245202 
L 243.450554 80.845071 
" style="fill:none;stroke:#000000;stroke-linecap:square;"/>
   </g>
   <g id="line2d_21">
    <path clip-path="url(#pb4079b3e58)" d="M 241.841514 268.179956 
L 245.059593 268.179956 
" style="fill:none;stroke:#000000;stroke-linecap:square;"/>
   </g>
   <g id="line2d_22">
    <path clip-path="url(#pb4079b3e58)" d="M 241.841514 80.845071 
L 245.059593 80.845071 
" style="fill:none;stroke:#000000;stroke-linecap:square;"/>
   </g>
   <g id="line2d_23">
    <path clip-path="url(#pb4079b3e58)" d="M 293.509554 220.446232 
L 293.509554 267.784422 
" style="fill:none;stroke:#000000;stroke-linecap:square;"/>
   </g>
   <g id="line2d_24">
    <path clip-path="url(#pb4079b3e58)" d="M 293.509554 115.638607 
L 293.509554 83.9934 
" style="fill:none;stroke:#000000;stroke-linecap:square;"/>
   </g>
   <g id="line2d_25">
    <path clip-path="url(#pb4079b3e58)" d="M 291.900514 267.784422 
L 295.118593 267.784422 
" style="fill:none;stroke:#000000;stroke-linecap:square;"/>
   </g>
   <g id="line2d_26">
    <path clip-path="url(#pb4079b3e58)" d="M 291.900514 83.9934 
L 295.118593 83.9934 
" style="fill:none;stroke:#000000;stroke-linecap:square;"/>
   </g>
   <g id="line2d_27">
    <path clip-path="url(#pb4079b3e58)" d="M 343.568554 233.034505 
L 343.568554 263.17652 
" style="fill:none;stroke:#000000;stroke-linecap:square;"/>
   </g>
   <g id="line2d_28">
    <path clip-path="url(#pb4079b3e58)" d="M 343.568554 118.49994 
L 343.568554 75.857131 
" style="fill:none;stroke:#000000;stroke-linecap:square;"/>
   </g>
   <g id="line2d_29">
    <path clip-path="url(#pb4079b3e58)" d="M 341.959514 263.17652 
L 345.177593 263.17652 
" style="fill:none;stroke:#000000;stroke-linecap:square;"/>
   </g>
   <g id="line2d_30">
    <path clip-path="url(#pb4079b3e58)" d="M 341.959514 75.857131 
L 345.177593 75.857131 
" style="fill:none;stroke:#000000;stroke-linecap:square;"/>
   </g>
   <g id="line2d_31">
    <path clip-path="url(#pb4079b3e58)" d="M 393.627554 223.234958 
L 393.627554 254.807942 
" style="fill:none;stroke:#000000;stroke-linecap:square;"/>
   </g>
   <g id="line2d_32">
    <path clip-path="url(#pb4079b3e58)" d="M 393.627554 105.420076 
L 393.627554 61.720518 
" style="fill:none;stroke:#000000;stroke-linecap:square;"/>
   </g>
   <g id="line2d_33">
    <path clip-path="url(#pb4079b3e58)" d="M 392.018514 254.807942 
L 395.236593 254.807942 
" style="fill:none;stroke:#000000;stroke-linecap:square;"/>
   </g>
   <g id="line2d_34">
    <path clip-path="url(#pb4079b3e58)" d="M 392.018514 61.720518 
L 395.236593 61.720518 
" style="fill:none;stroke:#000000;stroke-linecap:square;"/>
   </g>
   <g id="line2d_35">
    <path clip-path="url(#pb4079b3e58)" d="M 443.686554 187.639832 
L 443.686554 228.462227 
" style="fill:none;stroke:#000000;stroke-linecap:square;"/>
   </g>
   <g id="line2d_36">
    <path clip-path="url(#pb4079b3e58)" d="M 443.686554 85.483661 
L 443.686554 50.176647 
" style="fill:none;stroke:#000000;stroke-linecap:square;"/>
   </g>
   <g id="line2d_37">
    <path clip-path="url(#pb4079b3e58)" d="M 442.077514 228.462227 
L 445.295593 228.462227 
" style="fill:none;stroke:#000000;stroke-linecap:square;"/>
   </g>
   <g id="line2d_38">
    <path clip-path="url(#pb4079b3e58)" d="M 442.077514 50.176647 
L 445.295593 50.176647 
" style="fill:none;stroke:#000000;stroke-linecap:square;"/>
   </g>
   <g id="line2d_39">
    <path clip-path="url(#pb4079b3e58)" d="M 493.745554 177.303638 
L 493.745554 259.235761 
" style="fill:none;stroke:#000000;stroke-linecap:square;"/>
   </g>
   <g id="line2d_40">
    <path clip-path="url(#pb4079b3e58)" d="M 493.745554 88.027642 
L 493.745554 49.201282 
" style="fill:none;stroke:#000000;stroke-linecap:square;"/>
   </g>
   <g id="line2d_41">
    <path clip-path="url(#pb4079b3e58)" d="M 492.136514 259.235761 
L 495.354593 259.235761 
" style="fill:none;stroke:#000000;stroke-linecap:square;"/>
   </g>
   <g id="line2d_42">
    <path clip-path="url(#pb4079b3e58)" d="M 492.136514 49.201282 
L 495.354593 49.201282 
" style="fill:none;stroke:#000000;stroke-linecap:square;"/>
   </g>
   <g id="line2d_43">
    <path clip-path="url(#pb4079b3e58)" d="M 543.804554 141.06948 
L 543.804554 210.395672 
" style="fill:none;stroke:#000000;stroke-linecap:square;"/>
   </g>
   <g id="line2d_44">
    <path clip-path="url(#pb4079b3e58)" d="M 543.804554 74.595156 
L 543.804554 56.732578 
" style="fill:none;stroke:#000000;stroke-linecap:square;"/>
   </g>
   <g id="line2d_45">
    <path clip-path="url(#pb4079b3e58)" d="M 542.195514 210.395672 
L 545.413593 210.395672 
" style="fill:none;stroke:#000000;stroke-linecap:square;"/>
   </g>
   <g id="line2d_46">
    <path clip-path="url(#pb4079b3e58)" d="M 542.195514 56.732578 
L 545.413593 56.732578 
" style="fill:none;stroke:#000000;stroke-linecap:square;"/>
   </g>
   <g id="line2d_47">
    <path clip-path="url(#pb4079b3e58)" d="M 593.863554 108.450466 
L 593.863554 137.647853 
" style="fill:none;stroke:#000000;stroke-linecap:square;"/>
   </g>
   <g id="line2d_48">
    <path clip-path="url(#pb4079b3e58)" d="M 593.863554 70.773578 
L 593.863554 48.82017 
" style="fill:none;stroke:#000000;stroke-linecap:square;"/>
   </g>
   <g id="line2d_49">
    <path clip-path="url(#pb4079b3e58)" d="M 592.254514 137.647853 
L 595.472593 137.647853 
" style="fill:none;stroke:#000000;stroke-linecap:square;"/>
   </g>
   <g id="line2d_50">
    <path clip-path="url(#pb4079b3e58)" d="M 592.254514 48.82017 
L 595.472593 48.82017 
" style="fill:none;stroke:#000000;stroke-linecap:square;"/>
   </g>
   <g id="line2d_51">
    <path clip-path="url(#pb4079b3e58)" d="M 154.059482 200.577204 
L 154.059482 326.282272 
" style="fill:none;stroke:#000000;stroke-linecap:square;"/>
   </g>
   <g id="line2d_52">
    <path clip-path="url(#pb4079b3e58)" d="M 154.059482 91.146981 
L 154.059482 73.150213 
" style="fill:none;stroke:#000000;stroke-linecap:square;"/>
   </g>
   <g id="line2d_53">
    <path clip-path="url(#pb4079b3e58)" d="M 152.450443 326.282272 
L 155.668521 326.282272 
" style="fill:none;stroke:#000000;stroke-linecap:square;"/>
   </g>
   <g id="line2d_54">
    <path clip-path="url(#pb4079b3e58)" d="M 152.450443 73.150213 
L 155.668521 73.150213 
" style="fill:none;stroke:#000000;stroke-linecap:square;"/>
   </g>
   <g id="line2d_55">
    <path clip-path="url(#pb4079b3e58)" d="M 204.118482 199.374295 
L 204.118482 326.282272 
" style="fill:none;stroke:#000000;stroke-linecap:square;"/>
   </g>
   <g id="line2d_56">
    <path clip-path="url(#pb4079b3e58)" d="M 204.118482 92.186534 
L 204.118482 73.104761 
" style="fill:none;stroke:#000000;stroke-linecap:square;"/>
   </g>
   <g id="line2d_57">
    <path clip-path="url(#pb4079b3e58)" d="M 202.509443 326.282272 
L 205.727521 326.282272 
" style="fill:none;stroke:#000000;stroke-linecap:square;"/>
   </g>
   <g id="line2d_58">
    <path clip-path="url(#pb4079b3e58)" d="M 202.509443 73.104761 
L 205.727521 73.104761 
" style="fill:none;stroke:#000000;stroke-linecap:square;"/>
   </g>
   <g id="line2d_59">
    <path clip-path="url(#pb4079b3e58)" d="M 254.177482 191.181013 
L 254.177482 313.736514 
" style="fill:none;stroke:#000000;stroke-linecap:square;"/>
   </g>
   <g id="line2d_60">
    <path clip-path="url(#pb4079b3e58)" d="M 254.177482 89.739574 
L 254.177482 72.786595 
" style="fill:none;stroke:#000000;stroke-linecap:square;"/>
   </g>
   <g id="line2d_61">
    <path clip-path="url(#pb4079b3e58)" d="M 252.568443 313.736514 
L 255.786521 313.736514 
" style="fill:none;stroke:#000000;stroke-linecap:square;"/>
   </g>
   <g id="line2d_62">
    <path clip-path="url(#pb4079b3e58)" d="M 252.568443 72.786595 
L 255.786521 72.786595 
" style="fill:none;stroke:#000000;stroke-linecap:square;"/>
   </g>
   <g id="line2d_63">
    <path clip-path="url(#pb4079b3e58)" d="M 304.236482 179.114847 
L 304.236482 293.775072 
" style="fill:none;stroke:#000000;stroke-linecap:square;"/>
   </g>
   <g id="line2d_64">
    <path clip-path="url(#pb4079b3e58)" d="M 304.236482 87.853257 
L 304.236482 72.036634 
" style="fill:none;stroke:#000000;stroke-linecap:square;"/>
   </g>
   <g id="line2d_65">
    <path clip-path="url(#pb4079b3e58)" d="M 302.627443 293.775072 
L 305.845521 293.775072 
" style="fill:none;stroke:#000000;stroke-linecap:square;"/>
   </g>
   <g id="line2d_66">
    <path clip-path="url(#pb4079b3e58)" d="M 302.627443 72.036634 
L 305.845521 72.036634 
" style="fill:none;stroke:#000000;stroke-linecap:square;"/>
   </g>
   <g id="line2d_67">
    <path clip-path="url(#pb4079b3e58)" d="M 354.295482 164.256421 
L 354.295482 253.187286 
" style="fill:none;stroke:#000000;stroke-linecap:square;"/>
   </g>
   <g id="line2d_68">
    <path clip-path="url(#pb4079b3e58)" d="M 354.295482 86.280135 
L 354.295482 73.286904 
" style="fill:none;stroke:#000000;stroke-linecap:square;"/>
   </g>
   <g id="line2d_69">
    <path clip-path="url(#pb4079b3e58)" d="M 352.686443 253.187286 
L 355.904521 253.187286 
" style="fill:none;stroke:#000000;stroke-linecap:square;"/>
   </g>
   <g id="line2d_70">
    <path clip-path="url(#pb4079b3e58)" d="M 352.686443 73.286904 
L 355.904521 73.286904 
" style="fill:none;stroke:#000000;stroke-linecap:square;"/>
   </g>
   <g id="line2d_71">
    <path clip-path="url(#pb4079b3e58)" d="M 404.354482 149.207456 
L 404.354482 224.36291 
" style="fill:none;stroke:#000000;stroke-linecap:square;"/>
   </g>
   <g id="line2d_72">
    <path clip-path="url(#pb4079b3e58)" d="M 404.354482 81.919052 
L 404.354482 73.150948 
" style="fill:none;stroke:#000000;stroke-linecap:square;"/>
   </g>
   <g id="line2d_73">
    <path clip-path="url(#pb4079b3e58)" d="M 402.745443 224.36291 
L 405.963521 224.36291 
" style="fill:none;stroke:#000000;stroke-linecap:square;"/>
   </g>
   <g id="line2d_74">
    <path clip-path="url(#pb4079b3e58)" d="M 402.745443 73.150948 
L 405.963521 73.150948 
" style="fill:none;stroke:#000000;stroke-linecap:square;"/>
   </g>
   <g id="line2d_75">
    <path clip-path="url(#pb4079b3e58)" d="M 454.413482 138.780643 
L 454.413482 209.247868 
" style="fill:none;stroke:#000000;stroke-linecap:square;"/>
   </g>
   <g id="line2d_76">
    <path clip-path="url(#pb4079b3e58)" d="M 454.413482 79.506262 
L 454.413482 67.23582 
" style="fill:none;stroke:#000000;stroke-linecap:square;"/>
   </g>
   <g id="line2d_77">
    <path clip-path="url(#pb4079b3e58)" d="M 452.804443 209.247868 
L 456.022521 209.247868 
" style="fill:none;stroke:#000000;stroke-linecap:square;"/>
   </g>
   <g id="line2d_78">
    <path clip-path="url(#pb4079b3e58)" d="M 452.804443 67.23582 
L 456.022521 67.23582 
" style="fill:none;stroke:#000000;stroke-linecap:square;"/>
   </g>
   <g id="line2d_79">
    <path clip-path="url(#pb4079b3e58)" d="M 504.472482 122.99847 
L 504.472482 186.32856 
" style="fill:none;stroke:#000000;stroke-linecap:square;"/>
   </g>
   <g id="line2d_80">
    <path clip-path="url(#pb4079b3e58)" d="M 504.472482 77.770703 
L 504.472482 70.227357 
" style="fill:none;stroke:#000000;stroke-linecap:square;"/>
   </g>
   <g id="line2d_81">
    <path clip-path="url(#pb4079b3e58)" d="M 502.863443 186.32856 
L 506.081521 186.32856 
" style="fill:none;stroke:#000000;stroke-linecap:square;"/>
   </g>
   <g id="line2d_82">
    <path clip-path="url(#pb4079b3e58)" d="M 502.863443 70.227357 
L 506.081521 70.227357 
" style="fill:none;stroke:#000000;stroke-linecap:square;"/>
   </g>
   <g id="line2d_83">
    <path clip-path="url(#pb4079b3e58)" d="M 554.531482 104.714218 
L 554.531482 140.784428 
" style="fill:none;stroke:#000000;stroke-linecap:square;"/>
   </g>
   <g id="line2d_84">
    <path clip-path="url(#pb4079b3e58)" d="M 554.531482 75.386425 
L 554.531482 64.697546 
" style="fill:none;stroke:#000000;stroke-linecap:square;"/>
   </g>
   <g id="line2d_85">
    <path clip-path="url(#pb4079b3e58)" d="M 552.922443 140.784428 
L 556.140521 140.784428 
" style="fill:none;stroke:#000000;stroke-linecap:square;"/>
   </g>
   <g id="line2d_86">
    <path clip-path="url(#pb4079b3e58)" d="M 552.922443 64.697546 
L 556.140521 64.697546 
" style="fill:none;stroke:#000000;stroke-linecap:square;"/>
   </g>
   <g id="line2d_87">
    <path clip-path="url(#pb4079b3e58)" d="M 604.590482 89.92422 
L 604.590482 108.494378 
" style="fill:none;stroke:#000000;stroke-linecap:square;"/>
   </g>
   <g id="line2d_88">
    <path clip-path="url(#pb4079b3e58)" d="M 604.590482 73.428115 
L 604.590482 62.249925 
" style="fill:none;stroke:#000000;stroke-linecap:square;"/>
   </g>
   <g id="line2d_89">
    <path clip-path="url(#pb4079b3e58)" d="M 602.981443 108.494378 
L 606.199521 108.494378 
" style="fill:none;stroke:#000000;stroke-linecap:square;"/>
   </g>
   <g id="line2d_90">
    <path clip-path="url(#pb4079b3e58)" d="M 602.981443 62.249925 
L 606.199521 62.249925 
" style="fill:none;stroke:#000000;stroke-linecap:square;"/>
   </g>
   <g id="line2d_91">
    <path clip-path="url(#pb4079b3e58)" d="M 164.786411 267.497306 
L 164.786411 335.71108 
" style="fill:none;stroke:#000000;stroke-linecap:square;"/>
   </g>
   <g id="line2d_92">
    <path clip-path="url(#pb4079b3e58)" d="M 164.786411 149.215043 
L 164.786411 73.125868 
" style="fill:none;stroke:#000000;stroke-linecap:square;"/>
   </g>
   <g id="line2d_93">
    <path clip-path="url(#pb4079b3e58)" d="M 163.177371 335.71108 
L 166.39545 335.71108 
" style="fill:none;stroke:#000000;stroke-linecap:square;"/>
   </g>
   <g id="line2d_94">
    <path clip-path="url(#pb4079b3e58)" d="M 163.177371 73.125868 
L 166.39545 73.125868 
" style="fill:none;stroke:#000000;stroke-linecap:square;"/>
   </g>
   <g id="line2d_95">
    <path clip-path="url(#pb4079b3e58)" d="M 214.845411 255.143999 
L 214.845411 335.71108 
" style="fill:none;stroke:#000000;stroke-linecap:square;"/>
   </g>
   <g id="line2d_96">
    <path clip-path="url(#pb4079b3e58)" d="M 214.845411 149.440449 
L 214.845411 72.805815 
" style="fill:none;stroke:#000000;stroke-linecap:square;"/>
   </g>
   <g id="line2d_97">
    <path clip-path="url(#pb4079b3e58)" d="M 213.236371 335.71108 
L 216.45445 335.71108 
" style="fill:none;stroke:#000000;stroke-linecap:square;"/>
   </g>
   <g id="line2d_98">
    <path clip-path="url(#pb4079b3e58)" d="M 213.236371 72.805815 
L 216.45445 72.805815 
" style="fill:none;stroke:#000000;stroke-linecap:square;"/>
   </g>
   <g id="line2d_99">
    <path clip-path="url(#pb4079b3e58)" d="M 264.904411 234.351102 
L 264.904411 308.512178 
" style="fill:none;stroke:#000000;stroke-linecap:square;"/>
   </g>
   <g id="line2d_100">
    <path clip-path="url(#pb4079b3e58)" d="M 264.904411 147.418464 
L 264.904411 71.662767 
" style="fill:none;stroke:#000000;stroke-linecap:square;"/>
   </g>
   <g id="line2d_101">
    <path clip-path="url(#pb4079b3e58)" d="M 263.295371 308.512178 
L 266.51345 308.512178 
" style="fill:none;stroke:#000000;stroke-linecap:square;"/>
   </g>
   <g id="line2d_102">
    <path clip-path="url(#pb4079b3e58)" d="M 263.295371 71.662767 
L 266.51345 71.662767 
" style="fill:none;stroke:#000000;stroke-linecap:square;"/>
   </g>
   <g id="line2d_103">
    <path clip-path="url(#pb4079b3e58)" d="M 314.963411 218.821617 
L 314.963411 297.005918 
" style="fill:none;stroke:#000000;stroke-linecap:square;"/>
   </g>
   <g id="line2d_104">
    <path clip-path="url(#pb4079b3e58)" d="M 314.963411 141.217057 
L 314.963411 69.37667 
" style="fill:none;stroke:#000000;stroke-linecap:square;"/>
   </g>
   <g id="line2d_105">
    <path clip-path="url(#pb4079b3e58)" d="M 313.354371 297.005918 
L 316.57245 297.005918 
" style="fill:none;stroke:#000000;stroke-linecap:square;"/>
   </g>
   <g id="line2d_106">
    <path clip-path="url(#pb4079b3e58)" d="M 313.354371 69.37667 
L 316.57245 69.37667 
" style="fill:none;stroke:#000000;stroke-linecap:square;"/>
   </g>
   <g id="line2d_107">
    <path clip-path="url(#pb4079b3e58)" d="M 365.022411 209.736242 
L 365.022411 274.519039 
" style="fill:none;stroke:#000000;stroke-linecap:square;"/>
   </g>
   <g id="line2d_108">
    <path clip-path="url(#pb4079b3e58)" d="M 365.022411 126.932147 
L 365.022411 70.622593 
" style="fill:none;stroke:#000000;stroke-linecap:square;"/>
   </g>
   <g id="line2d_109">
    <path clip-path="url(#pb4079b3e58)" d="M 363.413371 274.519039 
L 366.63145 274.519039 
" style="fill:none;stroke:#000000;stroke-linecap:square;"/>
   </g>
   <g id="line2d_110">
    <path clip-path="url(#pb4079b3e58)" d="M 363.413371 70.622593 
L 366.63145 70.622593 
" style="fill:none;stroke:#000000;stroke-linecap:square;"/>
   </g>
   <g id="line2d_111">
    <path clip-path="url(#pb4079b3e58)" d="M 415.081411 181.573989 
L 415.081411 260.066146 
" style="fill:none;stroke:#000000;stroke-linecap:square;"/>
   </g>
   <g id="line2d_112">
    <path clip-path="url(#pb4079b3e58)" d="M 415.081411 108.721631 
L 415.081411 67.742111 
" style="fill:none;stroke:#000000;stroke-linecap:square;"/>
   </g>
   <g id="line2d_113">
    <path clip-path="url(#pb4079b3e58)" d="M 413.472371 260.066146 
L 416.69045 260.066146 
" style="fill:none;stroke:#000000;stroke-linecap:square;"/>
   </g>
   <g id="line2d_114">
    <path clip-path="url(#pb4079b3e58)" d="M 413.472371 67.742111 
L 416.69045 67.742111 
" style="fill:none;stroke:#000000;stroke-linecap:square;"/>
   </g>
   <g id="line2d_115">
    <path clip-path="url(#pb4079b3e58)" d="M 465.140411 150.150075 
L 465.140411 225.528287 
" style="fill:none;stroke:#000000;stroke-linecap:square;"/>
   </g>
   <g id="line2d_116">
    <path clip-path="url(#pb4079b3e58)" d="M 465.140411 94.483833 
L 465.140411 54.64735 
" style="fill:none;stroke:#000000;stroke-linecap:square;"/>
   </g>
   <g id="line2d_117">
    <path clip-path="url(#pb4079b3e58)" d="M 463.531371 225.528287 
L 466.74945 225.528287 
" style="fill:none;stroke:#000000;stroke-linecap:square;"/>
   </g>
   <g id="line2d_118">
    <path clip-path="url(#pb4079b3e58)" d="M 463.531371 54.64735 
L 466.74945 54.64735 
" style="fill:none;stroke:#000000;stroke-linecap:square;"/>
   </g>
   <g id="line2d_119">
    <path clip-path="url(#pb4079b3e58)" d="M 515.199411 151.54402 
L 515.199411 216.431937 
" style="fill:none;stroke:#000000;stroke-linecap:square;"/>
   </g>
   <g id="line2d_120">
    <path clip-path="url(#pb4079b3e58)" d="M 515.199411 86.774707 
L 515.199411 60.13195 
" style="fill:none;stroke:#000000;stroke-linecap:square;"/>
   </g>
   <g id="line2d_121">
    <path clip-path="url(#pb4079b3e58)" d="M 513.590371 216.431937 
L 516.80845 216.431937 
" style="fill:none;stroke:#000000;stroke-linecap:square;"/>
   </g>
   <g id="line2d_122">
    <path clip-path="url(#pb4079b3e58)" d="M 513.590371 60.13195 
L 516.80845 60.13195 
" style="fill:none;stroke:#000000;stroke-linecap:square;"/>
   </g>
   <g id="line2d_123">
    <path clip-path="url(#pb4079b3e58)" d="M 565.258411 123.454177 
L 565.258411 161.179152 
" style="fill:none;stroke:#000000;stroke-linecap:square;"/>
   </g>
   <g id="line2d_124">
    <path clip-path="url(#pb4079b3e58)" d="M 565.258411 82.971568 
L 565.258411 66.197435 
" style="fill:none;stroke:#000000;stroke-linecap:square;"/>
   </g>
   <g id="line2d_125">
    <path clip-path="url(#pb4079b3e58)" d="M 563.649371 161.179152 
L 566.86745 161.179152 
" style="fill:none;stroke:#000000;stroke-linecap:square;"/>
   </g>
   <g id="line2d_126">
    <path clip-path="url(#pb4079b3e58)" d="M 563.649371 66.197435 
L 566.86745 66.197435 
" style="fill:none;stroke:#000000;stroke-linecap:square;"/>
   </g>
   <g id="line2d_127">
    <path clip-path="url(#pb4079b3e58)" d="M 615.317411 95.94861 
L 615.317411 118.540683 
" style="fill:none;stroke:#000000;stroke-linecap:square;"/>
   </g>
   <g id="line2d_128">
    <path clip-path="url(#pb4079b3e58)" d="M 615.317411 73.811697 
L 615.317411 55.066485 
" style="fill:none;stroke:#000000;stroke-linecap:square;"/>
   </g>
   <g id="line2d_129">
    <path clip-path="url(#pb4079b3e58)" d="M 613.708371 118.540683 
L 616.92645 118.540683 
" style="fill:none;stroke:#000000;stroke-linecap:square;"/>
   </g>
   <g id="line2d_130">
    <path clip-path="url(#pb4079b3e58)" d="M 613.708371 55.066485 
L 616.92645 55.066485 
" style="fill:none;stroke:#000000;stroke-linecap:square;"/>
   </g>
   <g id="patch_3">
    <path clip-path="url(#pb4079b3e58)" d="M 140.114475 261.033669 
L 146.550632 261.033669 
L 146.550632 129.09762 
L 140.114475 129.09762 
L 140.114475 261.033669 
z
" style="fill:#d65f5f;stroke:#000000;stroke-linejoin:miter;"/>
   </g>
   <g id="patch_4">
    <path clip-path="url(#pb4079b3e58)" d="M 190.173475 247.488112 
L 196.609632 247.488112 
L 196.609632 127.220902 
L 190.173475 127.220902 
L 190.173475 247.488112 
z
" style="fill:#d65f5f;stroke:#000000;stroke-linejoin:miter;"/>
   </g>
   <g id="patch_5">
    <path clip-path="url(#pb4079b3e58)" d="M 240.232475 217.427977 
L 246.668632 217.427977 
L 246.668632 122.245202 
L 240.232475 122.245202 
L 240.232475 217.427977 
z
" style="fill:#d65f5f;stroke:#000000;stroke-linejoin:miter;"/>
   </g>
   <g id="patch_6">
    <path clip-path="url(#pb4079b3e58)" d="M 290.291475 220.446232 
L 296.727632 220.446232 
L 296.727632 115.638607 
L 290.291475 115.638607 
L 290.291475 220.446232 
z
" style="fill:#d65f5f;stroke:#000000;stroke-linejoin:miter;"/>
   </g>
   <g id="patch_7">
    <path clip-path="url(#pb4079b3e58)" d="M 340.350475 233.034505 
L 346.786632 233.034505 
L 346.786632 118.49994 
L 340.350475 118.49994 
L 340.350475 233.034505 
z
" style="fill:#d65f5f;stroke:#000000;stroke-linejoin:miter;"/>
   </g>
   <g id="patch_8">
    <path clip-path="url(#pb4079b3e58)" d="M 390.409475 223.234958 
L 396.845632 223.234958 
L 396.845632 105.420076 
L 390.409475 105.420076 
L 390.409475 223.234958 
z
" style="fill:#d65f5f;stroke:#000000;stroke-linejoin:miter;"/>
   </g>
   <g id="patch_9">
    <path clip-path="url(#pb4079b3e58)" d="M 440.468475 187.639832 
L 446.904632 187.639832 
L 446.904632 85.483661 
L 440.468475 85.483661 
L 440.468475 187.639832 
z
" style="fill:#d65f5f;stroke:#000000;stroke-linejoin:miter;"/>
   </g>
   <g id="patch_10">
    <path clip-path="url(#pb4079b3e58)" d="M 490.527475 177.303638 
L 496.963632 177.303638 
L 496.963632 88.027642 
L 490.527475 88.027642 
L 490.527475 177.303638 
z
" style="fill:#d65f5f;stroke:#000000;stroke-linejoin:miter;"/>
   </g>
   <g id="patch_11">
    <path clip-path="url(#pb4079b3e58)" d="M 540.586475 141.06948 
L 547.022632 141.06948 
L 547.022632 74.595156 
L 540.586475 74.595156 
L 540.586475 141.06948 
z
" style="fill:#d65f5f;stroke:#000000;stroke-linejoin:miter;"/>
   </g>
   <g id="patch_12">
    <path clip-path="url(#pb4079b3e58)" d="M 590.645475 108.450466 
L 597.081632 108.450466 
L 597.081632 70.773578 
L 590.645475 70.773578 
L 590.645475 108.450466 
z
" style="fill:#d65f5f;stroke:#000000;stroke-linejoin:miter;"/>
   </g>
   <g id="patch_13">
    <path clip-path="url(#pb4079b3e58)" d="M 150.841404 200.577204 
L 157.277561 200.577204 
L 157.277561 91.146981 
L 150.841404 91.146981 
L 150.841404 200.577204 
z
" style="fill:#6acc65;stroke:#000000;stroke-linejoin:miter;"/>
   </g>
   <g id="patch_14">
    <path clip-path="url(#pb4079b3e58)" d="M 200.900404 199.374295 
L 207.336561 199.374295 
L 207.336561 92.186534 
L 200.900404 92.186534 
L 200.900404 199.374295 
z
" style="fill:#6acc65;stroke:#000000;stroke-linejoin:miter;"/>
   </g>
   <g id="patch_15">
    <path clip-path="url(#pb4079b3e58)" d="M 250.959404 191.181013 
L 257.395561 191.181013 
L 257.395561 89.739574 
L 250.959404 89.739574 
L 250.959404 191.181013 
z
" style="fill:#6acc65;stroke:#000000;stroke-linejoin:miter;"/>
   </g>
   <g id="patch_16">
    <path clip-path="url(#pb4079b3e58)" d="M 301.018404 179.114847 
L 307.454561 179.114847 
L 307.454561 87.853257 
L 301.018404 87.853257 
L 301.018404 179.114847 
z
" style="fill:#6acc65;stroke:#000000;stroke-linejoin:miter;"/>
   </g>
   <g id="patch_17">
    <path clip-path="url(#pb4079b3e58)" d="M 351.077404 164.256421 
L 357.513561 164.256421 
L 357.513561 86.280135 
L 351.077404 86.280135 
L 351.077404 164.256421 
z
" style="fill:#6acc65;stroke:#000000;stroke-linejoin:miter;"/>
   </g>
   <g id="patch_18">
    <path clip-path="url(#pb4079b3e58)" d="M 401.136404 149.207456 
L 407.572561 149.207456 
L 407.572561 81.919052 
L 401.136404 81.919052 
L 401.136404 149.207456 
z
" style="fill:#6acc65;stroke:#000000;stroke-linejoin:miter;"/>
   </g>
   <g id="patch_19">
    <path clip-path="url(#pb4079b3e58)" d="M 451.195404 138.780643 
L 457.631561 138.780643 
L 457.631561 79.506262 
L 451.195404 79.506262 
L 451.195404 138.780643 
z
" style="fill:#6acc65;stroke:#000000;stroke-linejoin:miter;"/>
   </g>
   <g id="patch_20">
    <path clip-path="url(#pb4079b3e58)" d="M 501.254404 122.99847 
L 507.690561 122.99847 
L 507.690561 77.770703 
L 501.254404 77.770703 
L 501.254404 122.99847 
z
" style="fill:#6acc65;stroke:#000000;stroke-linejoin:miter;"/>
   </g>
   <g id="patch_21">
    <path clip-path="url(#pb4079b3e58)" d="M 551.313404 104.714218 
L 557.749561 104.714218 
L 557.749561 75.386425 
L 551.313404 75.386425 
L 551.313404 104.714218 
z
" style="fill:#6acc65;stroke:#000000;stroke-linejoin:miter;"/>
   </g>
   <g id="patch_22">
    <path clip-path="url(#pb4079b3e58)" d="M 601.372404 89.92422 
L 607.808561 89.92422 
L 607.808561 73.428115 
L 601.372404 73.428115 
L 601.372404 89.92422 
z
" style="fill:#6acc65;stroke:#000000;stroke-linejoin:miter;"/>
   </g>
   <g id="patch_23">
    <path clip-path="url(#pb4079b3e58)" d="M 161.568332 267.497306 
L 168.004489 267.497306 
L 168.004489 149.215043 
L 161.568332 149.215043 
L 161.568332 267.497306 
z
" style="fill:#4878cf;stroke:#000000;stroke-linejoin:miter;"/>
   </g>
   <g id="patch_24">
    <path clip-path="url(#pb4079b3e58)" d="M 211.627332 255.143999 
L 218.063489 255.143999 
L 218.063489 149.440449 
L 211.627332 149.440449 
L 211.627332 255.143999 
z
" style="fill:#4878cf;stroke:#000000;stroke-linejoin:miter;"/>
   </g>
   <g id="patch_25">
    <path clip-path="url(#pb4079b3e58)" d="M 261.686332 234.351102 
L 268.122489 234.351102 
L 268.122489 147.418464 
L 261.686332 147.418464 
L 261.686332 234.351102 
z
" style="fill:#4878cf;stroke:#000000;stroke-linejoin:miter;"/>
   </g>
   <g id="patch_26">
    <path clip-path="url(#pb4079b3e58)" d="M 311.745332 218.821617 
L 318.181489 218.821617 
L 318.181489 141.217057 
L 311.745332 141.217057 
L 311.745332 218.821617 
z
" style="fill:#4878cf;stroke:#000000;stroke-linejoin:miter;"/>
   </g>
   <g id="patch_27">
    <path clip-path="url(#pb4079b3e58)" d="M 361.804332 209.736242 
L 368.240489 209.736242 
L 368.240489 126.932147 
L 361.804332 126.932147 
L 361.804332 209.736242 
z
" style="fill:#4878cf;stroke:#000000;stroke-linejoin:miter;"/>
   </g>
   <g id="patch_28">
    <path clip-path="url(#pb4079b3e58)" d="M 411.863332 181.573989 
L 418.299489 181.573989 
L 418.299489 108.721631 
L 411.863332 108.721631 
L 411.863332 181.573989 
z
" style="fill:#4878cf;stroke:#000000;stroke-linejoin:miter;"/>
   </g>
   <g id="patch_29">
    <path clip-path="url(#pb4079b3e58)" d="M 461.922332 150.150075 
L 468.358489 150.150075 
L 468.358489 94.483833 
L 461.922332 94.483833 
L 461.922332 150.150075 
z
" style="fill:#4878cf;stroke:#000000;stroke-linejoin:miter;"/>
   </g>
   <g id="patch_30">
    <path clip-path="url(#pb4079b3e58)" d="M 511.981332 151.54402 
L 518.417489 151.54402 
L 518.417489 86.774707 
L 511.981332 86.774707 
L 511.981332 151.54402 
z
" style="fill:#4878cf;stroke:#000000;stroke-linejoin:miter;"/>
   </g>
   <g id="patch_31">
    <path clip-path="url(#pb4079b3e58)" d="M 562.040332 123.454177 
L 568.476489 123.454177 
L 568.476489 82.971568 
L 562.040332 82.971568 
L 562.040332 123.454177 
z
" style="fill:#4878cf;stroke:#000000;stroke-linejoin:miter;"/>
   </g>
   <g id="patch_32">
    <path clip-path="url(#pb4079b3e58)" d="M 612.099332 95.94861 
L 618.535489 95.94861 
L 618.535489 73.811697 
L 612.099332 73.811697 
L 612.099332 95.94861 
z
" style="fill:#4878cf;stroke:#000000;stroke-linejoin:miter;"/>
   </g>
   <g id="line2d_131">
    <path clip-path="url(#pb4079b3e58)" d="M 140.114475 215.017779 
L 146.550632 215.017779 
" style="fill:none;stroke:#ff7f0e;stroke-linecap:square;"/>
   </g>
   <g id="line2d_132">
    <path clip-path="url(#pb4079b3e58)" d="M 190.173475 211.361888 
L 196.609632 211.361888 
" style="fill:none;stroke:#ff7f0e;stroke-linecap:square;"/>
   </g>
   <g id="line2d_133">
    <path clip-path="url(#pb4079b3e58)" d="M 240.232475 201.409242 
L 246.668632 201.409242 
" style="fill:none;stroke:#ff7f0e;stroke-linecap:square;"/>
   </g>
   <g id="line2d_134">
    <path clip-path="url(#pb4079b3e58)" d="M 290.291475 191.474485 
L 296.727632 191.474485 
" style="fill:none;stroke:#ff7f0e;stroke-linecap:square;"/>
   </g>
   <g id="line2d_135">
    <path clip-path="url(#pb4079b3e58)" d="M 340.350475 173.175782 
L 346.786632 173.175782 
" style="fill:none;stroke:#ff7f0e;stroke-linecap:square;"/>
   </g>
   <g id="line2d_136">
    <path clip-path="url(#pb4079b3e58)" d="M 390.409475 147.647876 
L 396.845632 147.647876 
" style="fill:none;stroke:#ff7f0e;stroke-linecap:square;"/>
   </g>
   <g id="line2d_137">
    <path clip-path="url(#pb4079b3e58)" d="M 440.468475 118.65904 
L 446.904632 118.65904 
" style="fill:none;stroke:#ff7f0e;stroke-linecap:square;"/>
   </g>
   <g id="line2d_138">
    <path clip-path="url(#pb4079b3e58)" d="M 490.527475 121.321105 
L 496.963632 121.321105 
" style="fill:none;stroke:#ff7f0e;stroke-linecap:square;"/>
   </g>
   <g id="line2d_139">
    <path clip-path="url(#pb4079b3e58)" d="M 540.586475 98.472924 
L 547.022632 98.472924 
" style="fill:none;stroke:#ff7f0e;stroke-linecap:square;"/>
   </g>
   <g id="line2d_140">
    <path clip-path="url(#pb4079b3e58)" d="M 590.645475 85.612928 
L 597.081632 85.612928 
" style="fill:none;stroke:#ff7f0e;stroke-linecap:square;"/>
   </g>
   <g id="line2d_141">
    <path clip-path="url(#pb4079b3e58)" d="M 150.841404 156.080645 
L 157.277561 156.080645 
" style="fill:none;stroke:#ff7f0e;stroke-linecap:square;"/>
   </g>
   <g id="line2d_142">
    <path clip-path="url(#pb4079b3e58)" d="M 200.900404 150.965812 
L 207.336561 150.965812 
" style="fill:none;stroke:#ff7f0e;stroke-linecap:square;"/>
   </g>
   <g id="line2d_143">
    <path clip-path="url(#pb4079b3e58)" d="M 250.959404 140.005453 
L 257.395561 140.005453 
" style="fill:none;stroke:#ff7f0e;stroke-linecap:square;"/>
   </g>
   <g id="line2d_144">
    <path clip-path="url(#pb4079b3e58)" d="M 301.018404 132.918011 
L 307.454561 132.918011 
" style="fill:none;stroke:#ff7f0e;stroke-linecap:square;"/>
   </g>
   <g id="line2d_145">
    <path clip-path="url(#pb4079b3e58)" d="M 351.077404 121.722959 
L 357.513561 121.722959 
" style="fill:none;stroke:#ff7f0e;stroke-linecap:square;"/>
   </g>
   <g id="line2d_146">
    <path clip-path="url(#pb4079b3e58)" d="M 401.136404 112.224394 
L 407.572561 112.224394 
" style="fill:none;stroke:#ff7f0e;stroke-linecap:square;"/>
   </g>
   <g id="line2d_147">
    <path clip-path="url(#pb4079b3e58)" d="M 451.195404 103.690847 
L 457.631561 103.690847 
" style="fill:none;stroke:#ff7f0e;stroke-linecap:square;"/>
   </g>
   <g id="line2d_148">
    <path clip-path="url(#pb4079b3e58)" d="M 501.254404 97.786425 
L 507.690561 97.786425 
" style="fill:none;stroke:#ff7f0e;stroke-linecap:square;"/>
   </g>
   <g id="line2d_149">
    <path clip-path="url(#pb4079b3e58)" d="M 551.313404 88.836898 
L 557.749561 88.836898 
" style="fill:none;stroke:#ff7f0e;stroke-linecap:square;"/>
   </g>
   <g id="line2d_150">
    <path clip-path="url(#pb4079b3e58)" d="M 601.372404 80.070811 
L 607.808561 80.070811 
" style="fill:none;stroke:#ff7f0e;stroke-linecap:square;"/>
   </g>
   <g id="line2d_151">
    <path clip-path="url(#pb4079b3e58)" d="M 161.568332 211.874749 
L 168.004489 211.874749 
" style="fill:none;stroke:#ff7f0e;stroke-linecap:square;"/>
   </g>
   <g id="line2d_152">
    <path clip-path="url(#pb4079b3e58)" d="M 211.627332 200.062346 
L 218.063489 200.062346 
" style="fill:none;stroke:#ff7f0e;stroke-linecap:square;"/>
   </g>
   <g id="line2d_153">
    <path clip-path="url(#pb4079b3e58)" d="M 261.686332 178.493371 
L 268.122489 178.493371 
" style="fill:none;stroke:#ff7f0e;stroke-linecap:square;"/>
   </g>
   <g id="line2d_154">
    <path clip-path="url(#pb4079b3e58)" d="M 311.745332 166.328401 
L 318.181489 166.328401 
" style="fill:none;stroke:#ff7f0e;stroke-linecap:square;"/>
   </g>
   <g id="line2d_155">
    <path clip-path="url(#pb4079b3e58)" d="M 361.804332 154.053423 
L 368.240489 154.053423 
" style="fill:none;stroke:#ff7f0e;stroke-linecap:square;"/>
   </g>
   <g id="line2d_156">
    <path clip-path="url(#pb4079b3e58)" d="M 411.863332 136.758525 
L 418.299489 136.758525 
" style="fill:none;stroke:#ff7f0e;stroke-linecap:square;"/>
   </g>
   <g id="line2d_157">
    <path clip-path="url(#pb4079b3e58)" d="M 461.922332 120.087796 
L 468.358489 120.087796 
" style="fill:none;stroke:#ff7f0e;stroke-linecap:square;"/>
   </g>
   <g id="line2d_158">
    <path clip-path="url(#pb4079b3e58)" d="M 511.981332 122.129088 
L 518.417489 122.129088 
" style="fill:none;stroke:#ff7f0e;stroke-linecap:square;"/>
   </g>
   <g id="line2d_159">
    <path clip-path="url(#pb4079b3e58)" d="M 562.040332 103.672248 
L 568.476489 103.672248 
" style="fill:none;stroke:#ff7f0e;stroke-linecap:square;"/>
   </g>
   <g id="line2d_160">
    <path clip-path="url(#pb4079b3e58)" d="M 612.099332 84.617735 
L 618.535489 84.617735 
" style="fill:none;stroke:#ff7f0e;stroke-linecap:square;"/>
   </g>
   <g id="patch_33">
    <path d="M 132.605625 350.055625 
L 132.605625 34.475625 
" style="fill:none;stroke:#000000;stroke-linecap:square;stroke-linejoin:miter;stroke-width:0.8;"/>
   </g>
   <g id="patch_34">
    <path d="M 132.605625 350.055625 
L 633.195625 350.055625 
" style="fill:none;stroke:#000000;stroke-linecap:square;stroke-linejoin:miter;stroke-width:0.8;"/>
   </g>
   <g id="text_13">
    <!-- Lescroart E7.25 -->
    <defs>
     <path d="M 9.8125 72.90625 
L 19.671875 72.90625 
L 19.671875 8.296875 
L 55.171875 8.296875 
L 55.171875 0 
L 9.8125 0 
z
" id="DejaVuSans-76"/>
     <path d="M 44.28125 53.078125 
L 44.28125 44.578125 
Q 40.484375 46.53125 36.375 47.5 
Q 32.28125 48.484375 27.875 48.484375 
Q 21.1875 48.484375 17.84375 46.4375 
Q 14.5 44.390625 14.5 40.28125 
Q 14.5 37.15625 16.890625 35.375 
Q 19.28125 33.59375 26.515625 31.984375 
L 29.59375 31.296875 
Q 39.15625 29.25 43.1875 25.515625 
Q 47.21875 21.78125 47.21875 15.09375 
Q 47.21875 7.46875 41.1875 3.015625 
Q 35.15625 -1.421875 24.609375 -1.421875 
Q 20.21875 -1.421875 15.453125 -0.5625 
Q 10.6875 0.296875 5.421875 2 
L 5.421875 11.28125 
Q 10.40625 8.6875 15.234375 7.390625 
Q 20.0625 6.109375 24.8125 6.109375 
Q 31.15625 6.109375 34.5625 8.28125 
Q 37.984375 10.453125 37.984375 14.40625 
Q 37.984375 18.0625 35.515625 20.015625 
Q 33.0625 21.96875 24.703125 23.78125 
L 21.578125 24.515625 
Q 13.234375 26.265625 9.515625 29.90625 
Q 5.8125 33.546875 5.8125 39.890625 
Q 5.8125 47.609375 11.28125 51.796875 
Q 16.75 56 26.8125 56 
Q 31.78125 56 36.171875 55.265625 
Q 40.578125 54.546875 44.28125 53.078125 
z
" id="DejaVuSans-115"/>
     <path d="M 41.109375 46.296875 
Q 39.59375 47.171875 37.8125 47.578125 
Q 36.03125 48 33.890625 48 
Q 26.265625 48 22.1875 43.046875 
Q 18.109375 38.09375 18.109375 28.8125 
L 18.109375 0 
L 9.078125 0 
L 9.078125 54.6875 
L 18.109375 54.6875 
L 18.109375 46.1875 
Q 20.953125 51.171875 25.484375 53.578125 
Q 30.03125 56 36.53125 56 
Q 37.453125 56 38.578125 55.875 
Q 39.703125 55.765625 41.0625 55.515625 
z
" id="DejaVuSans-114"/>
     <path d="M 9.8125 72.90625 
L 55.90625 72.90625 
L 55.90625 64.59375 
L 19.671875 64.59375 
L 19.671875 43.015625 
L 54.390625 43.015625 
L 54.390625 34.71875 
L 19.671875 34.71875 
L 19.671875 8.296875 
L 56.78125 8.296875 
L 56.78125 0 
L 9.8125 0 
z
" id="DejaVuSans-69"/>
     <path d="M 8.203125 72.90625 
L 55.078125 72.90625 
L 55.078125 68.703125 
L 28.609375 0 
L 18.3125 0 
L 43.21875 64.59375 
L 8.203125 64.59375 
z
" id="DejaVuSans-55"/>
    </defs>
    <g transform="translate(272.889062 28.475625)scale(0.28 -0.28)">
     <use xlink:href="#DejaVuSans-76"/>
     <use x="55.697266" xlink:href="#DejaVuSans-101"/>
     <use x="117.220703" xlink:href="#DejaVuSans-115"/>
     <use x="169.320312" xlink:href="#DejaVuSans-99"/>
     <use x="224.300781" xlink:href="#DejaVuSans-114"/>
     <use x="265.382812" xlink:href="#DejaVuSans-111"/>
     <use x="326.564453" xlink:href="#DejaVuSans-97"/>
     <use x="387.84375" xlink:href="#DejaVuSans-114"/>
     <use x="428.957031" xlink:href="#DejaVuSans-116"/>
     <use x="468.166016" xlink:href="#DejaVuSans-32"/>
     <use x="499.953125" xlink:href="#DejaVuSans-69"/>
     <use x="563.136719" xlink:href="#DejaVuSans-55"/>
     <use x="626.759766" xlink:href="#DejaVuSans-46"/>
     <use x="658.546875" xlink:href="#DejaVuSans-50"/>
     <use x="722.169922" xlink:href="#DejaVuSans-53"/>
    </g>
   </g>
  </g>
 </g>
 <defs>
  <clipPath id="pb4079b3e58">
   <rect height="315.58" width="500.59" x="132.605625" y="34.475625"/>
  </clipPath>
 </defs>
</svg>
