<?xml version="1.0" encoding="utf-8" standalone="no"?>
<!DOCTYPE svg PUBLIC "-//W3C//DTD SVG 1.1//EN"
  "http://www.w3.org/Graphics/SVG/1.1/DTD/svg11.dtd">
<!-- Created with matplotlib (https://matplotlib.org/) -->
<svg height="423.953125pt" version="1.1" viewBox="0 0 622.6075 423.953125" width="622.6075pt" xmlns="http://www.w3.org/2000/svg" xmlns:xlink="http://www.w3.org/1999/xlink">
 <defs>
  <style type="text/css">
*{stroke-linecap:butt;stroke-linejoin:round;}
  </style>
 </defs>
 <g id="figure_1">
  <g id="patch_1">
   <path d="M 0 423.953125 
L 622.6075 423.953125 
L 622.6075 0 
L 0 0 
z
" style="fill:#ffffff;"/>
  </g>
  <g id="axes_1">
   <g id="patch_2">
    <path d="M 91.3275 350.055625 
L 615.4075 350.055625 
L 615.4075 34.475625 
L 91.3275 34.475625 
z
" style="fill:#ffffff;"/>
   </g>
   <g id="matplotlib.axis_1">
    <g id="xtick_1">
     <g id="line2d_1">
      <defs>
       <path d="M 0 0 
L 0 5 
" id="mc9f3a97a17" style="stroke:#000000;stroke-width:0.8;"/>
      </defs>
      <g>
       <use style="stroke:#000000;stroke-width:0.8;" x="113.788071" xlink:href="#mc9f3a97a17" y="350.055625"/>
      </g>
     </g>
     <g id="text_1">
      <!-- 0.0 -->
      <defs>
       <path d="M 31.78125 66.40625 
Q 24.171875 66.40625 20.328125 58.90625 
Q 16.5 51.421875 16.5 36.375 
Q 16.5 21.390625 20.328125 13.890625 
Q 24.171875 6.390625 31.78125 6.390625 
Q 39.453125 6.390625 43.28125 13.890625 
Q 47.125 21.390625 47.125 36.375 
Q 47.125 51.421875 43.28125 58.90625 
Q 39.453125 66.40625 31.78125 66.40625 
z
M 31.78125 74.21875 
Q 44.046875 74.21875 50.515625 64.515625 
Q 56.984375 54.828125 56.984375 36.375 
Q 56.984375 17.96875 50.515625 8.265625 
Q 44.046875 -1.421875 31.78125 -1.421875 
Q 19.53125 -1.421875 13.0625 8.265625 
Q 6.59375 17.96875 6.59375 36.375 
Q 6.59375 54.828125 13.0625 64.515625 
Q 19.53125 74.21875 31.78125 74.21875 
z
" id="DejaVuSans-48"/>
       <path d="M 10.6875 12.40625 
L 21 12.40625 
L 21 0 
L 10.6875 0 
z
" id="DejaVuSans-46"/>
      </defs>
      <g transform="translate(91.523696 379.83125)scale(0.28 -0.28)">
       <use xlink:href="#DejaVuSans-48"/>
       <use x="63.623047" xlink:href="#DejaVuSans-46"/>
       <use x="95.410156" xlink:href="#DejaVuSans-48"/>
      </g>
     </g>
    </g>
    <g id="xtick_2">
     <g id="line2d_2">
      <g>
       <use style="stroke:#000000;stroke-width:0.8;" x="218.604071" xlink:href="#mc9f3a97a17" y="350.055625"/>
      </g>
     </g>
     <g id="text_2">
      <!-- 0.1 -->
      <defs>
       <path d="M 12.40625 8.296875 
L 28.515625 8.296875 
L 28.515625 63.921875 
L 10.984375 60.40625 
L 10.984375 69.390625 
L 28.421875 72.90625 
L 38.28125 72.90625 
L 38.28125 8.296875 
L 54.390625 8.296875 
L 54.390625 0 
L 12.40625 0 
z
" id="DejaVuSans-49"/>
      </defs>
      <g transform="translate(196.339696 379.83125)scale(0.28 -0.28)">
       <use xlink:href="#DejaVuSans-48"/>
       <use x="63.623047" xlink:href="#DejaVuSans-46"/>
       <use x="95.410156" xlink:href="#DejaVuSans-49"/>
      </g>
     </g>
    </g>
    <g id="xtick_3">
     <g id="line2d_3">
      <g>
       <use style="stroke:#000000;stroke-width:0.8;" x="323.420071" xlink:href="#mc9f3a97a17" y="350.055625"/>
      </g>
     </g>
     <g id="text_3">
      <!-- 0.2 -->
      <defs>
       <path d="M 19.1875 8.296875 
L 53.609375 8.296875 
L 53.609375 0 
L 7.328125 0 
L 7.328125 8.296875 
Q 12.9375 14.109375 22.625 23.890625 
Q 32.328125 33.6875 34.8125 36.53125 
Q 39.546875 41.84375 41.421875 45.53125 
Q 43.3125 49.21875 43.3125 52.78125 
Q 43.3125 58.59375 39.234375 62.25 
Q 35.15625 65.921875 28.609375 65.921875 
Q 23.96875 65.921875 18.8125 64.3125 
Q 13.671875 62.703125 7.8125 59.421875 
L 7.8125 69.390625 
Q 13.765625 71.78125 18.9375 73 
Q 24.125 74.21875 28.421875 74.21875 
Q 39.75 74.21875 46.484375 68.546875 
Q 53.21875 62.890625 53.21875 53.421875 
Q 53.21875 48.921875 51.53125 44.890625 
Q 49.859375 40.875 45.40625 35.40625 
Q 44.1875 33.984375 37.640625 27.21875 
Q 31.109375 20.453125 19.1875 8.296875 
z
" id="DejaVuSans-50"/>
      </defs>
      <g transform="translate(301.155696 379.83125)scale(0.28 -0.28)">
       <use xlink:href="#DejaVuSans-48"/>
       <use x="63.623047" xlink:href="#DejaVuSans-46"/>
       <use x="95.410156" xlink:href="#DejaVuSans-50"/>
      </g>
     </g>
    </g>
    <g id="xtick_4">
     <g id="line2d_4">
      <g>
       <use style="stroke:#000000;stroke-width:0.8;" x="428.236071" xlink:href="#mc9f3a97a17" y="350.055625"/>
      </g>
     </g>
     <g id="text_4">
      <!-- 0.3 -->
      <defs>
       <path d="M 40.578125 39.3125 
Q 47.65625 37.796875 51.625 33 
Q 55.609375 28.21875 55.609375 21.1875 
Q 55.609375 10.40625 48.1875 4.484375 
Q 40.765625 -1.421875 27.09375 -1.421875 
Q 22.515625 -1.421875 17.65625 -0.515625 
Q 12.796875 0.390625 7.625 2.203125 
L 7.625 11.71875 
Q 11.71875 9.328125 16.59375 8.109375 
Q 21.484375 6.890625 26.8125 6.890625 
Q 36.078125 6.890625 40.9375 10.546875 
Q 45.796875 14.203125 45.796875 21.1875 
Q 45.796875 27.640625 41.28125 31.265625 
Q 36.765625 34.90625 28.71875 34.90625 
L 20.21875 34.90625 
L 20.21875 43.015625 
L 29.109375 43.015625 
Q 36.375 43.015625 40.234375 45.921875 
Q 44.09375 48.828125 44.09375 54.296875 
Q 44.09375 59.90625 40.109375 62.90625 
Q 36.140625 65.921875 28.71875 65.921875 
Q 24.65625 65.921875 20.015625 65.03125 
Q 15.375 64.15625 9.8125 62.3125 
L 9.8125 71.09375 
Q 15.4375 72.65625 20.34375 73.4375 
Q 25.25 74.21875 29.59375 74.21875 
Q 40.828125 74.21875 47.359375 69.109375 
Q 53.90625 64.015625 53.90625 55.328125 
Q 53.90625 49.265625 50.4375 45.09375 
Q 46.96875 40.921875 40.578125 39.3125 
z
" id="DejaVuSans-51"/>
      </defs>
      <g transform="translate(405.971696 379.83125)scale(0.28 -0.28)">
       <use xlink:href="#DejaVuSans-48"/>
       <use x="63.623047" xlink:href="#DejaVuSans-46"/>
       <use x="95.410156" xlink:href="#DejaVuSans-51"/>
      </g>
     </g>
    </g>
    <g id="xtick_5">
     <g id="line2d_5">
      <g>
       <use style="stroke:#000000;stroke-width:0.8;" x="533.052071" xlink:href="#mc9f3a97a17" y="350.055625"/>
      </g>
     </g>
     <g id="text_5">
      <!-- 0.4 -->
      <defs>
       <path d="M 37.796875 64.3125 
L 12.890625 25.390625 
L 37.796875 25.390625 
z
M 35.203125 72.90625 
L 47.609375 72.90625 
L 47.609375 25.390625 
L 58.015625 25.390625 
L 58.015625 17.1875 
L 47.609375 17.1875 
L 47.609375 0 
L 37.796875 0 
L 37.796875 17.1875 
L 4.890625 17.1875 
L 4.890625 26.703125 
z
" id="DejaVuSans-52"/>
      </defs>
      <g transform="translate(510.787696 379.83125)scale(0.28 -0.28)">
       <use xlink:href="#DejaVuSans-48"/>
       <use x="63.623047" xlink:href="#DejaVuSans-46"/>
       <use x="95.410156" xlink:href="#DejaVuSans-52"/>
      </g>
     </g>
    </g>
    <g id="text_6">
     <!-- Bimodality limit -->
     <defs>
      <path d="M 19.671875 34.8125 
L 19.671875 8.109375 
L 35.5 8.109375 
Q 43.453125 8.109375 47.28125 11.40625 
Q 51.125 14.703125 51.125 21.484375 
Q 51.125 28.328125 47.28125 31.5625 
Q 43.453125 34.8125 35.5 34.8125 
z
M 19.671875 64.796875 
L 19.671875 42.828125 
L 34.28125 42.828125 
Q 41.5 42.828125 45.03125 45.53125 
Q 48.578125 48.25 48.578125 53.8125 
Q 48.578125 59.328125 45.03125 62.0625 
Q 41.5 64.796875 34.28125 64.796875 
z
M 9.8125 72.90625 
L 35.015625 72.90625 
Q 46.296875 72.90625 52.390625 68.21875 
Q 58.5 63.53125 58.5 54.890625 
Q 58.5 48.1875 55.375 44.234375 
Q 52.25 40.28125 46.1875 39.3125 
Q 53.46875 37.75 57.5 32.78125 
Q 61.53125 27.828125 61.53125 20.40625 
Q 61.53125 10.640625 54.890625 5.3125 
Q 48.25 0 35.984375 0 
L 9.8125 0 
z
" id="DejaVuSans-66"/>
      <path d="M 9.421875 54.6875 
L 18.40625 54.6875 
L 18.40625 0 
L 9.421875 0 
z
M 9.421875 75.984375 
L 18.40625 75.984375 
L 18.40625 64.59375 
L 9.421875 64.59375 
z
" id="DejaVuSans-105"/>
      <path d="M 52 44.1875 
Q 55.375 50.25 60.0625 53.125 
Q 64.75 56 71.09375 56 
Q 79.640625 56 84.28125 50.015625 
Q 88.921875 44.046875 88.921875 33.015625 
L 88.921875 0 
L 79.890625 0 
L 79.890625 32.71875 
Q 79.890625 40.578125 77.09375 44.375 
Q 74.3125 48.1875 68.609375 48.1875 
Q 61.625 48.1875 57.5625 43.546875 
Q 53.515625 38.921875 53.515625 30.90625 
L 53.515625 0 
L 44.484375 0 
L 44.484375 32.71875 
Q 44.484375 40.625 41.703125 44.40625 
Q 38.921875 48.1875 33.109375 48.1875 
Q 26.21875 48.1875 22.15625 43.53125 
Q 18.109375 38.875 18.109375 30.90625 
L 18.109375 0 
L 9.078125 0 
L 9.078125 54.6875 
L 18.109375 54.6875 
L 18.109375 46.1875 
Q 21.1875 51.21875 25.484375 53.609375 
Q 29.78125 56 35.6875 56 
Q 41.65625 56 45.828125 52.96875 
Q 50 49.953125 52 44.1875 
z
" id="DejaVuSans-109"/>
      <path d="M 30.609375 48.390625 
Q 23.390625 48.390625 19.1875 42.75 
Q 14.984375 37.109375 14.984375 27.296875 
Q 14.984375 17.484375 19.15625 11.84375 
Q 23.34375 6.203125 30.609375 6.203125 
Q 37.796875 6.203125 41.984375 11.859375 
Q 46.1875 17.53125 46.1875 27.296875 
Q 46.1875 37.015625 41.984375 42.703125 
Q 37.796875 48.390625 30.609375 48.390625 
z
M 30.609375 56 
Q 42.328125 56 49.015625 48.375 
Q 55.71875 40.765625 55.71875 27.296875 
Q 55.71875 13.875 49.015625 6.21875 
Q 42.328125 -1.421875 30.609375 -1.421875 
Q 18.84375 -1.421875 12.171875 6.21875 
Q 5.515625 13.875 5.515625 27.296875 
Q 5.515625 40.765625 12.171875 48.375 
Q 18.84375 56 30.609375 56 
z
" id="DejaVuSans-111"/>
      <path d="M 45.40625 46.390625 
L 45.40625 75.984375 
L 54.390625 75.984375 
L 54.390625 0 
L 45.40625 0 
L 45.40625 8.203125 
Q 42.578125 3.328125 38.25 0.953125 
Q 33.9375 -1.421875 27.875 -1.421875 
Q 17.96875 -1.421875 11.734375 6.484375 
Q 5.515625 14.40625 5.515625 27.296875 
Q 5.515625 40.1875 11.734375 48.09375 
Q 17.96875 56 27.875 56 
Q 33.9375 56 38.25 53.625 
Q 42.578125 51.265625 45.40625 46.390625 
z
M 14.796875 27.296875 
Q 14.796875 17.390625 18.875 11.75 
Q 22.953125 6.109375 30.078125 6.109375 
Q 37.203125 6.109375 41.296875 11.75 
Q 45.40625 17.390625 45.40625 27.296875 
Q 45.40625 37.203125 41.296875 42.84375 
Q 37.203125 48.484375 30.078125 48.484375 
Q 22.953125 48.484375 18.875 42.84375 
Q 14.796875 37.203125 14.796875 27.296875 
z
" id="DejaVuSans-100"/>
      <path d="M 34.28125 27.484375 
Q 23.390625 27.484375 19.1875 25 
Q 14.984375 22.515625 14.984375 16.5 
Q 14.984375 11.71875 18.140625 8.90625 
Q 21.296875 6.109375 26.703125 6.109375 
Q 34.1875 6.109375 38.703125 11.40625 
Q 43.21875 16.703125 43.21875 25.484375 
L 43.21875 27.484375 
z
M 52.203125 31.203125 
L 52.203125 0 
L 43.21875 0 
L 43.21875 8.296875 
Q 40.140625 3.328125 35.546875 0.953125 
Q 30.953125 -1.421875 24.3125 -1.421875 
Q 15.921875 -1.421875 10.953125 3.296875 
Q 6 8.015625 6 15.921875 
Q 6 25.140625 12.171875 29.828125 
Q 18.359375 34.515625 30.609375 34.515625 
L 43.21875 34.515625 
L 43.21875 35.40625 
Q 43.21875 41.609375 39.140625 45 
Q 35.0625 48.390625 27.6875 48.390625 
Q 23 48.390625 18.546875 47.265625 
Q 14.109375 46.140625 10.015625 43.890625 
L 10.015625 52.203125 
Q 14.9375 54.109375 19.578125 55.046875 
Q 24.21875 56 28.609375 56 
Q 40.484375 56 46.34375 49.84375 
Q 52.203125 43.703125 52.203125 31.203125 
z
" id="DejaVuSans-97"/>
      <path d="M 9.421875 75.984375 
L 18.40625 75.984375 
L 18.40625 0 
L 9.421875 0 
z
" id="DejaVuSans-108"/>
      <path d="M 18.3125 70.21875 
L 18.3125 54.6875 
L 36.8125 54.6875 
L 36.8125 47.703125 
L 18.3125 47.703125 
L 18.3125 18.015625 
Q 18.3125 11.328125 20.140625 9.421875 
Q 21.96875 7.515625 27.59375 7.515625 
L 36.8125 7.515625 
L 36.8125 0 
L 27.59375 0 
Q 17.1875 0 13.234375 3.875 
Q 9.28125 7.765625 9.28125 18.015625 
L 9.28125 47.703125 
L 2.6875 47.703125 
L 2.6875 54.6875 
L 9.28125 54.6875 
L 9.28125 70.21875 
z
" id="DejaVuSans-116"/>
      <path d="M 32.171875 -5.078125 
Q 28.375 -14.84375 24.75 -17.8125 
Q 21.140625 -20.796875 15.09375 -20.796875 
L 7.90625 -20.796875 
L 7.90625 -13.28125 
L 13.1875 -13.28125 
Q 16.890625 -13.28125 18.9375 -11.515625 
Q 21 -9.765625 23.484375 -3.21875 
L 25.09375 0.875 
L 2.984375 54.6875 
L 12.5 54.6875 
L 29.59375 11.921875 
L 46.6875 54.6875 
L 56.203125 54.6875 
z
" id="DejaVuSans-121"/>
      <path id="DejaVuSans-32"/>
     </defs>
     <g transform="translate(243.40625 410.93)scale(0.28 -0.28)">
      <use xlink:href="#DejaVuSans-66"/>
      <use x="68.603516" xlink:href="#DejaVuSans-105"/>
      <use x="96.386719" xlink:href="#DejaVuSans-109"/>
      <use x="193.798828" xlink:href="#DejaVuSans-111"/>
      <use x="254.980469" xlink:href="#DejaVuSans-100"/>
      <use x="318.457031" xlink:href="#DejaVuSans-97"/>
      <use x="379.736328" xlink:href="#DejaVuSans-108"/>
      <use x="407.519531" xlink:href="#DejaVuSans-105"/>
      <use x="435.302734" xlink:href="#DejaVuSans-116"/>
      <use x="474.511719" xlink:href="#DejaVuSans-121"/>
      <use x="533.691406" xlink:href="#DejaVuSans-32"/>
      <use x="565.478516" xlink:href="#DejaVuSans-108"/>
      <use x="593.261719" xlink:href="#DejaVuSans-105"/>
      <use x="621.044922" xlink:href="#DejaVuSans-109"/>
      <use x="718.457031" xlink:href="#DejaVuSans-105"/>
      <use x="746.240234" xlink:href="#DejaVuSans-116"/>
     </g>
    </g>
   </g>
   <g id="matplotlib.axis_2">
    <g id="ytick_1">
     <g id="line2d_6">
      <defs>
       <path d="M 0 0 
L -5 0 
" id="m5a237341b9" style="stroke:#000000;stroke-width:0.8;"/>
      </defs>
      <g>
       <use style="stroke:#000000;stroke-width:0.8;" x="91.3275" xlink:href="#m5a237341b9" y="335.71108"/>
      </g>
     </g>
     <g id="text_7">
      <!-- 0.0 -->
      <g transform="translate(38.29875 346.348892)scale(0.28 -0.28)">
       <use xlink:href="#DejaVuSans-48"/>
       <use x="63.623047" xlink:href="#DejaVuSans-46"/>
       <use x="95.410156" xlink:href="#DejaVuSans-48"/>
      </g>
     </g>
    </g>
    <g id="ytick_2">
     <g id="line2d_7">
      <g>
       <use style="stroke:#000000;stroke-width:0.8;" x="91.3275" xlink:href="#m5a237341b9" y="192.265625"/>
      </g>
     </g>
     <g id="text_8">
      <!-- 0.5 -->
      <defs>
       <path d="M 10.796875 72.90625 
L 49.515625 72.90625 
L 49.515625 64.59375 
L 19.828125 64.59375 
L 19.828125 46.734375 
Q 21.96875 47.46875 24.109375 47.828125 
Q 26.265625 48.1875 28.421875 48.1875 
Q 40.625 48.1875 47.75 41.5 
Q 54.890625 34.8125 54.890625 23.390625 
Q 54.890625 11.625 47.5625 5.09375 
Q 40.234375 -1.421875 26.90625 -1.421875 
Q 22.3125 -1.421875 17.546875 -0.640625 
Q 12.796875 0.140625 7.71875 1.703125 
L 7.71875 11.625 
Q 12.109375 9.234375 16.796875 8.0625 
Q 21.484375 6.890625 26.703125 6.890625 
Q 35.15625 6.890625 40.078125 11.328125 
Q 45.015625 15.765625 45.015625 23.390625 
Q 45.015625 31 40.078125 35.4375 
Q 35.15625 39.890625 26.703125 39.890625 
Q 22.75 39.890625 18.8125 39.015625 
Q 14.890625 38.140625 10.796875 36.28125 
z
" id="DejaVuSans-53"/>
      </defs>
      <g transform="translate(38.29875 202.903437)scale(0.28 -0.28)">
       <use xlink:href="#DejaVuSans-48"/>
       <use x="63.623047" xlink:href="#DejaVuSans-46"/>
       <use x="95.410156" xlink:href="#DejaVuSans-53"/>
      </g>
     </g>
    </g>
    <g id="ytick_3">
     <g id="line2d_8">
      <g>
       <use style="stroke:#000000;stroke-width:0.8;" x="91.3275" xlink:href="#m5a237341b9" y="48.82017"/>
      </g>
     </g>
     <g id="text_9">
      <!-- 1.0 -->
      <g transform="translate(38.29875 59.457983)scale(0.28 -0.28)">
       <use xlink:href="#DejaVuSans-49"/>
       <use x="63.623047" xlink:href="#DejaVuSans-46"/>
       <use x="95.410156" xlink:href="#DejaVuSans-48"/>
      </g>
     </g>
    </g>
    <g id="text_10">
     <!-- Percent bimodal cells -->
     <defs>
      <path d="M 19.671875 64.796875 
L 19.671875 37.40625 
L 32.078125 37.40625 
Q 38.96875 37.40625 42.71875 40.96875 
Q 46.484375 44.53125 46.484375 51.125 
Q 46.484375 57.671875 42.71875 61.234375 
Q 38.96875 64.796875 32.078125 64.796875 
z
M 9.8125 72.90625 
L 32.078125 72.90625 
Q 44.34375 72.90625 50.609375 67.359375 
Q 56.890625 61.8125 56.890625 51.125 
Q 56.890625 40.328125 50.609375 34.8125 
Q 44.34375 29.296875 32.078125 29.296875 
L 19.671875 29.296875 
L 19.671875 0 
L 9.8125 0 
z
" id="DejaVuSans-80"/>
      <path d="M 56.203125 29.59375 
L 56.203125 25.203125 
L 14.890625 25.203125 
Q 15.484375 15.921875 20.484375 11.0625 
Q 25.484375 6.203125 34.421875 6.203125 
Q 39.59375 6.203125 44.453125 7.46875 
Q 49.3125 8.734375 54.109375 11.28125 
L 54.109375 2.78125 
Q 49.265625 0.734375 44.1875 -0.34375 
Q 39.109375 -1.421875 33.890625 -1.421875 
Q 20.796875 -1.421875 13.15625 6.1875 
Q 5.515625 13.8125 5.515625 26.8125 
Q 5.515625 40.234375 12.765625 48.109375 
Q 20.015625 56 32.328125 56 
Q 43.359375 56 49.78125 48.890625 
Q 56.203125 41.796875 56.203125 29.59375 
z
M 47.21875 32.234375 
Q 47.125 39.59375 43.09375 43.984375 
Q 39.0625 48.390625 32.421875 48.390625 
Q 24.90625 48.390625 20.390625 44.140625 
Q 15.875 39.890625 15.1875 32.171875 
z
" id="DejaVuSans-101"/>
      <path d="M 41.109375 46.296875 
Q 39.59375 47.171875 37.8125 47.578125 
Q 36.03125 48 33.890625 48 
Q 26.265625 48 22.1875 43.046875 
Q 18.109375 38.09375 18.109375 28.8125 
L 18.109375 0 
L 9.078125 0 
L 9.078125 54.6875 
L 18.109375 54.6875 
L 18.109375 46.1875 
Q 20.953125 51.171875 25.484375 53.578125 
Q 30.03125 56 36.53125 56 
Q 37.453125 56 38.578125 55.875 
Q 39.703125 55.765625 41.0625 55.515625 
z
" id="DejaVuSans-114"/>
      <path d="M 48.78125 52.59375 
L 48.78125 44.1875 
Q 44.96875 46.296875 41.140625 47.34375 
Q 37.3125 48.390625 33.40625 48.390625 
Q 24.65625 48.390625 19.8125 42.84375 
Q 14.984375 37.3125 14.984375 27.296875 
Q 14.984375 17.28125 19.8125 11.734375 
Q 24.65625 6.203125 33.40625 6.203125 
Q 37.3125 6.203125 41.140625 7.25 
Q 44.96875 8.296875 48.78125 10.40625 
L 48.78125 2.09375 
Q 45.015625 0.34375 40.984375 -0.53125 
Q 36.96875 -1.421875 32.421875 -1.421875 
Q 20.0625 -1.421875 12.78125 6.34375 
Q 5.515625 14.109375 5.515625 27.296875 
Q 5.515625 40.671875 12.859375 48.328125 
Q 20.21875 56 33.015625 56 
Q 37.15625 56 41.109375 55.140625 
Q 45.0625 54.296875 48.78125 52.59375 
z
" id="DejaVuSans-99"/>
      <path d="M 54.890625 33.015625 
L 54.890625 0 
L 45.90625 0 
L 45.90625 32.71875 
Q 45.90625 40.484375 42.875 44.328125 
Q 39.84375 48.1875 33.796875 48.1875 
Q 26.515625 48.1875 22.3125 43.546875 
Q 18.109375 38.921875 18.109375 30.90625 
L 18.109375 0 
L 9.078125 0 
L 9.078125 54.6875 
L 18.109375 54.6875 
L 18.109375 46.1875 
Q 21.34375 51.125 25.703125 53.5625 
Q 30.078125 56 35.796875 56 
Q 45.21875 56 50.046875 50.171875 
Q 54.890625 44.34375 54.890625 33.015625 
z
" id="DejaVuSans-110"/>
      <path d="M 48.6875 27.296875 
Q 48.6875 37.203125 44.609375 42.84375 
Q 40.53125 48.484375 33.40625 48.484375 
Q 26.265625 48.484375 22.1875 42.84375 
Q 18.109375 37.203125 18.109375 27.296875 
Q 18.109375 17.390625 22.1875 11.75 
Q 26.265625 6.109375 33.40625 6.109375 
Q 40.53125 6.109375 44.609375 11.75 
Q 48.6875 17.390625 48.6875 27.296875 
z
M 18.109375 46.390625 
Q 20.953125 51.265625 25.265625 53.625 
Q 29.59375 56 35.59375 56 
Q 45.5625 56 51.78125 48.09375 
Q 58.015625 40.1875 58.015625 27.296875 
Q 58.015625 14.40625 51.78125 6.484375 
Q 45.5625 -1.421875 35.59375 -1.421875 
Q 29.59375 -1.421875 25.265625 0.953125 
Q 20.953125 3.328125 18.109375 8.203125 
L 18.109375 0 
L 9.078125 0 
L 9.078125 75.984375 
L 18.109375 75.984375 
z
" id="DejaVuSans-98"/>
      <path d="M 44.28125 53.078125 
L 44.28125 44.578125 
Q 40.484375 46.53125 36.375 47.5 
Q 32.28125 48.484375 27.875 48.484375 
Q 21.1875 48.484375 17.84375 46.4375 
Q 14.5 44.390625 14.5 40.28125 
Q 14.5 37.15625 16.890625 35.375 
Q 19.28125 33.59375 26.515625 31.984375 
L 29.59375 31.296875 
Q 39.15625 29.25 43.1875 25.515625 
Q 47.21875 21.78125 47.21875 15.09375 
Q 47.21875 7.46875 41.1875 3.015625 
Q 35.15625 -1.421875 24.609375 -1.421875 
Q 20.21875 -1.421875 15.453125 -0.5625 
Q 10.6875 0.296875 5.421875 2 
L 5.421875 11.28125 
Q 10.40625 8.6875 15.234375 7.390625 
Q 20.0625 6.109375 24.8125 6.109375 
Q 31.15625 6.109375 34.5625 8.28125 
Q 37.984375 10.453125 37.984375 14.40625 
Q 37.984375 18.0625 35.515625 20.015625 
Q 33.0625 21.96875 24.703125 23.78125 
L 21.578125 24.515625 
Q 13.234375 26.265625 9.515625 29.90625 
Q 5.8125 33.546875 5.8125 39.890625 
Q 5.8125 47.609375 11.28125 51.796875 
Q 16.75 56 26.8125 56 
Q 31.78125 56 36.171875 55.265625 
Q 40.578125 54.546875 44.28125 53.078125 
z
" id="DejaVuSans-115"/>
     </defs>
     <g transform="translate(28.475625 342.35875)rotate(-90)scale(0.28 -0.28)">
      <use xlink:href="#DejaVuSans-80"/>
      <use x="60.255859" xlink:href="#DejaVuSans-101"/>
      <use x="121.779297" xlink:href="#DejaVuSans-114"/>
      <use x="162.861328" xlink:href="#DejaVuSans-99"/>
      <use x="217.841797" xlink:href="#DejaVuSans-101"/>
      <use x="279.365234" xlink:href="#DejaVuSans-110"/>
      <use x="342.744141" xlink:href="#DejaVuSans-116"/>
      <use x="381.953125" xlink:href="#DejaVuSans-32"/>
      <use x="413.740234" xlink:href="#DejaVuSans-98"/>
      <use x="477.216797" xlink:href="#DejaVuSans-105"/>
      <use x="505" xlink:href="#DejaVuSans-109"/>
      <use x="602.412109" xlink:href="#DejaVuSans-111"/>
      <use x="663.59375" xlink:href="#DejaVuSans-100"/>
      <use x="727.070312" xlink:href="#DejaVuSans-97"/>
      <use x="788.349609" xlink:href="#DejaVuSans-108"/>
      <use x="816.132812" xlink:href="#DejaVuSans-32"/>
      <use x="847.919922" xlink:href="#DejaVuSans-99"/>
      <use x="902.900391" xlink:href="#DejaVuSans-101"/>
      <use x="964.423828" xlink:href="#DejaVuSans-108"/>
      <use x="992.207031" xlink:href="#DejaVuSans-108"/>
      <use x="1019.990234" xlink:href="#DejaVuSans-115"/>
     </g>
    </g>
   </g>
   <g id="line2d_9">
    <path clip-path="url(#p952ff9da0f)" d="M 102.557786 209.629831 
L 102.557786 320.611558 
" style="fill:none;stroke:#000000;stroke-linecap:square;"/>
   </g>
   <g id="line2d_10">
    <path clip-path="url(#p952ff9da0f)" d="M 102.557786 130.883873 
L 102.557786 82.039118 
" style="fill:none;stroke:#000000;stroke-linecap:square;"/>
   </g>
   <g id="line2d_11">
    <path clip-path="url(#p952ff9da0f)" d="M 101.434757 320.611558 
L 103.680814 320.611558 
" style="fill:none;stroke:#000000;stroke-linecap:square;"/>
   </g>
   <g id="line2d_12">
    <path clip-path="url(#p952ff9da0f)" d="M 101.434757 82.039118 
L 103.680814 82.039118 
" style="fill:none;stroke:#000000;stroke-linecap:square;"/>
   </g>
   <g id="line2d_13">
    <path clip-path="url(#p952ff9da0f)" d="M 154.965786 209.629831 
L 154.965786 318.933833 
" style="fill:none;stroke:#000000;stroke-linecap:square;"/>
   </g>
   <g id="line2d_14">
    <path clip-path="url(#p952ff9da0f)" d="M 154.965786 130.883873 
L 154.965786 81.42141 
" style="fill:none;stroke:#000000;stroke-linecap:square;"/>
   </g>
   <g id="line2d_15">
    <path clip-path="url(#p952ff9da0f)" d="M 153.842757 318.933833 
L 156.088814 318.933833 
" style="fill:none;stroke:#000000;stroke-linecap:square;"/>
   </g>
   <g id="line2d_16">
    <path clip-path="url(#p952ff9da0f)" d="M 153.842757 81.42141 
L 156.088814 81.42141 
" style="fill:none;stroke:#000000;stroke-linecap:square;"/>
   </g>
   <g id="line2d_17">
    <path clip-path="url(#p952ff9da0f)" d="M 207.373786 200.778171 
L 207.373786 305.512036 
" style="fill:none;stroke:#000000;stroke-linecap:square;"/>
   </g>
   <g id="line2d_18">
    <path clip-path="url(#p952ff9da0f)" d="M 207.373786 127.352846 
L 207.373786 75.999309 
" style="fill:none;stroke:#000000;stroke-linecap:square;"/>
   </g>
   <g id="line2d_19">
    <path clip-path="url(#p952ff9da0f)" d="M 206.250757 305.512036 
L 208.496814 305.512036 
" style="fill:none;stroke:#000000;stroke-linecap:square;"/>
   </g>
   <g id="line2d_20">
    <path clip-path="url(#p952ff9da0f)" d="M 206.250757 75.999309 
L 208.496814 75.999309 
" style="fill:none;stroke:#000000;stroke-linecap:square;"/>
   </g>
   <g id="line2d_21">
    <path clip-path="url(#p952ff9da0f)" d="M 259.781786 187.367209 
L 259.781786 288.458459 
" style="fill:none;stroke:#000000;stroke-linecap:square;"/>
   </g>
   <g id="line2d_22">
    <path clip-path="url(#p952ff9da0f)" d="M 259.781786 118.981587 
L 259.781786 75.999309 
" style="fill:none;stroke:#000000;stroke-linecap:square;"/>
   </g>
   <g id="line2d_23">
    <path clip-path="url(#p952ff9da0f)" d="M 258.658757 288.458459 
L 260.904814 288.458459 
" style="fill:none;stroke:#000000;stroke-linecap:square;"/>
   </g>
   <g id="line2d_24">
    <path clip-path="url(#p952ff9da0f)" d="M 258.658757 75.999309 
L 260.904814 75.999309 
" style="fill:none;stroke:#000000;stroke-linecap:square;"/>
   </g>
   <g id="line2d_25">
    <path clip-path="url(#p952ff9da0f)" d="M 312.189786 165.920299 
L 312.189786 255.023011 
" style="fill:none;stroke:#000000;stroke-linecap:square;"/>
   </g>
   <g id="line2d_26">
    <path clip-path="url(#p952ff9da0f)" d="M 312.189786 106.198352 
L 312.189786 66.939596 
" style="fill:none;stroke:#000000;stroke-linecap:square;"/>
   </g>
   <g id="line2d_27">
    <path clip-path="url(#p952ff9da0f)" d="M 311.066757 255.023011 
L 313.312814 255.023011 
" style="fill:none;stroke:#000000;stroke-linecap:square;"/>
   </g>
   <g id="line2d_28">
    <path clip-path="url(#p952ff9da0f)" d="M 311.066757 66.939596 
L 313.312814 66.939596 
" style="fill:none;stroke:#000000;stroke-linecap:square;"/>
   </g>
   <g id="line2d_29">
    <path clip-path="url(#p952ff9da0f)" d="M 364.597786 146.959259 
L 364.597786 218.893224 
" style="fill:none;stroke:#000000;stroke-linecap:square;"/>
   </g>
   <g id="line2d_30">
    <path clip-path="url(#p952ff9da0f)" d="M 364.597786 98.773998 
L 364.597786 63.919692 
" style="fill:none;stroke:#000000;stroke-linecap:square;"/>
   </g>
   <g id="line2d_31">
    <path clip-path="url(#p952ff9da0f)" d="M 363.474757 218.893224 
L 365.720814 218.893224 
" style="fill:none;stroke:#000000;stroke-linecap:square;"/>
   </g>
   <g id="line2d_32">
    <path clip-path="url(#p952ff9da0f)" d="M 363.474757 63.919692 
L 365.720814 63.919692 
" style="fill:none;stroke:#000000;stroke-linecap:square;"/>
   </g>
   <g id="line2d_33">
    <path clip-path="url(#p952ff9da0f)" d="M 417.005786 134.579303 
L 417.005786 186.252941 
" style="fill:none;stroke:#000000;stroke-linecap:square;"/>
   </g>
   <g id="line2d_34">
    <path clip-path="url(#p952ff9da0f)" d="M 417.005786 92.492332 
L 417.005786 57.879883 
" style="fill:none;stroke:#000000;stroke-linecap:square;"/>
   </g>
   <g id="line2d_35">
    <path clip-path="url(#p952ff9da0f)" d="M 415.882757 186.252941 
L 418.128814 186.252941 
" style="fill:none;stroke:#000000;stroke-linecap:square;"/>
   </g>
   <g id="line2d_36">
    <path clip-path="url(#p952ff9da0f)" d="M 415.882757 57.879883 
L 418.128814 57.879883 
" style="fill:none;stroke:#000000;stroke-linecap:square;"/>
   </g>
   <g id="line2d_37">
    <path clip-path="url(#p952ff9da0f)" d="M 469.413786 105.988943 
L 469.413786 150.554535 
" style="fill:none;stroke:#000000;stroke-linecap:square;"/>
   </g>
   <g id="line2d_38">
    <path clip-path="url(#p952ff9da0f)" d="M 469.413786 73.475362 
L 469.413786 54.445482 
" style="fill:none;stroke:#000000;stroke-linecap:square;"/>
   </g>
   <g id="line2d_39">
    <path clip-path="url(#p952ff9da0f)" d="M 468.290757 150.554535 
L 470.536814 150.554535 
" style="fill:none;stroke:#000000;stroke-linecap:square;"/>
   </g>
   <g id="line2d_40">
    <path clip-path="url(#p952ff9da0f)" d="M 468.290757 54.445482 
L 470.536814 54.445482 
" style="fill:none;stroke:#000000;stroke-linecap:square;"/>
   </g>
   <g id="line2d_41">
    <path clip-path="url(#p952ff9da0f)" d="M 521.821786 85.435055 
L 521.821786 109.784489 
" style="fill:none;stroke:#000000;stroke-linecap:square;"/>
   </g>
   <g id="line2d_42">
    <path clip-path="url(#p952ff9da0f)" d="M 521.821786 64.454903 
L 521.821786 51.359028 
" style="fill:none;stroke:#000000;stroke-linecap:square;"/>
   </g>
   <g id="line2d_43">
    <path clip-path="url(#p952ff9da0f)" d="M 520.698757 109.784489 
L 522.944814 109.784489 
" style="fill:none;stroke:#000000;stroke-linecap:square;"/>
   </g>
   <g id="line2d_44">
    <path clip-path="url(#p952ff9da0f)" d="M 520.698757 51.359028 
L 522.944814 51.359028 
" style="fill:none;stroke:#000000;stroke-linecap:square;"/>
   </g>
   <g id="line2d_45">
    <path clip-path="url(#p952ff9da0f)" d="M 574.229786 69.793966 
L 574.229786 86.614182 
" style="fill:none;stroke:#000000;stroke-linecap:square;"/>
   </g>
   <g id="line2d_46">
    <path clip-path="url(#p952ff9da0f)" d="M 574.229786 58.399246 
L 574.229786 48.82017 
" style="fill:none;stroke:#000000;stroke-linecap:square;"/>
   </g>
   <g id="line2d_47">
    <path clip-path="url(#p952ff9da0f)" d="M 573.106757 86.614182 
L 575.352814 86.614182 
" style="fill:none;stroke:#000000;stroke-linecap:square;"/>
   </g>
   <g id="line2d_48">
    <path clip-path="url(#p952ff9da0f)" d="M 573.106757 48.82017 
L 575.352814 48.82017 
" style="fill:none;stroke:#000000;stroke-linecap:square;"/>
   </g>
   <g id="line2d_49">
    <path clip-path="url(#p952ff9da0f)" d="M 110.044643 335.71108 
L 110.044643 335.71108 
" style="fill:none;stroke:#000000;stroke-linecap:square;"/>
   </g>
   <g id="line2d_50">
    <path clip-path="url(#p952ff9da0f)" d="M 110.044643 325.258552 
L 110.044643 315.218872 
" style="fill:none;stroke:#000000;stroke-linecap:square;"/>
   </g>
   <g id="line2d_51">
    <path clip-path="url(#p952ff9da0f)" d="M 108.921614 335.71108 
L 111.167671 335.71108 
" style="fill:none;stroke:#000000;stroke-linecap:square;"/>
   </g>
   <g id="line2d_52">
    <path clip-path="url(#p952ff9da0f)" d="M 108.921614 315.218872 
L 111.167671 315.218872 
" style="fill:none;stroke:#000000;stroke-linecap:square;"/>
   </g>
   <g id="line2d_53">
    <path clip-path="url(#p952ff9da0f)" d="M 162.452643 335.71108 
L 162.452643 335.71108 
" style="fill:none;stroke:#000000;stroke-linecap:square;"/>
   </g>
   <g id="line2d_54">
    <path clip-path="url(#p952ff9da0f)" d="M 162.452643 320.116735 
L 162.452643 299.437516 
" style="fill:none;stroke:#000000;stroke-linecap:square;"/>
   </g>
   <g id="line2d_55">
    <path clip-path="url(#p952ff9da0f)" d="M 161.329614 335.71108 
L 163.575671 335.71108 
" style="fill:none;stroke:#000000;stroke-linecap:square;"/>
   </g>
   <g id="line2d_56">
    <path clip-path="url(#p952ff9da0f)" d="M 161.329614 299.437516 
L 163.575671 299.437516 
" style="fill:none;stroke:#000000;stroke-linecap:square;"/>
   </g>
   <g id="line2d_57">
    <path clip-path="url(#p952ff9da0f)" d="M 214.860643 326.081283 
L 214.860643 335.71108 
" style="fill:none;stroke:#000000;stroke-linecap:square;"/>
   </g>
   <g id="line2d_58">
    <path clip-path="url(#p952ff9da0f)" d="M 214.860643 288.871747 
L 214.860643 269.340795 
" style="fill:none;stroke:#000000;stroke-linecap:square;"/>
   </g>
   <g id="line2d_59">
    <path clip-path="url(#p952ff9da0f)" d="M 213.737614 335.71108 
L 215.983671 335.71108 
" style="fill:none;stroke:#000000;stroke-linecap:square;"/>
   </g>
   <g id="line2d_60">
    <path clip-path="url(#p952ff9da0f)" d="M 213.737614 269.340795 
L 215.983671 269.340795 
" style="fill:none;stroke:#000000;stroke-linecap:square;"/>
   </g>
   <g id="line2d_61">
    <path clip-path="url(#p952ff9da0f)" d="M 267.268643 320.116735 
L 267.268643 335.71108 
" style="fill:none;stroke:#000000;stroke-linecap:square;"/>
   </g>
   <g id="line2d_62">
    <path clip-path="url(#p952ff9da0f)" d="M 267.268643 255.155504 
L 267.268643 217.957348 
" style="fill:none;stroke:#000000;stroke-linecap:square;"/>
   </g>
   <g id="line2d_63">
    <path clip-path="url(#p952ff9da0f)" d="M 266.145614 335.71108 
L 268.391671 335.71108 
" style="fill:none;stroke:#000000;stroke-linecap:square;"/>
   </g>
   <g id="line2d_64">
    <path clip-path="url(#p952ff9da0f)" d="M 266.145614 217.957348 
L 268.391671 217.957348 
" style="fill:none;stroke:#000000;stroke-linecap:square;"/>
   </g>
   <g id="line2d_65">
    <path clip-path="url(#p952ff9da0f)" d="M 319.676643 299.477364 
L 319.676643 333.918011 
" style="fill:none;stroke:#000000;stroke-linecap:square;"/>
   </g>
   <g id="line2d_66">
    <path clip-path="url(#p952ff9da0f)" d="M 319.676643 226.049166 
L 319.676643 181.088057 
" style="fill:none;stroke:#000000;stroke-linecap:square;"/>
   </g>
   <g id="line2d_67">
    <path clip-path="url(#p952ff9da0f)" d="M 318.553614 333.918011 
L 320.799671 333.918011 
" style="fill:none;stroke:#000000;stroke-linecap:square;"/>
   </g>
   <g id="line2d_68">
    <path clip-path="url(#p952ff9da0f)" d="M 318.553614 181.088057 
L 320.799671 181.088057 
" style="fill:none;stroke:#000000;stroke-linecap:square;"/>
   </g>
   <g id="line2d_69">
    <path clip-path="url(#p952ff9da0f)" d="M 372.084643 277.65855 
L 372.084643 328.538807 
" style="fill:none;stroke:#000000;stroke-linecap:square;"/>
   </g>
   <g id="line2d_70">
    <path clip-path="url(#p952ff9da0f)" d="M 372.084643 187.874438 
L 372.084643 135.255252 
" style="fill:none;stroke:#000000;stroke-linecap:square;"/>
   </g>
   <g id="line2d_71">
    <path clip-path="url(#p952ff9da0f)" d="M 370.961614 328.538807 
L 373.207671 328.538807 
" style="fill:none;stroke:#000000;stroke-linecap:square;"/>
   </g>
   <g id="line2d_72">
    <path clip-path="url(#p952ff9da0f)" d="M 370.961614 135.255252 
L 373.207671 135.255252 
" style="fill:none;stroke:#000000;stroke-linecap:square;"/>
   </g>
   <g id="line2d_73">
    <path clip-path="url(#p952ff9da0f)" d="M 424.492643 241.961988 
L 424.492643 314.194261 
" style="fill:none;stroke:#000000;stroke-linecap:square;"/>
   </g>
   <g id="line2d_74">
    <path clip-path="url(#p952ff9da0f)" d="M 424.492643 152.200047 
L 424.492643 102.845082 
" style="fill:none;stroke:#000000;stroke-linecap:square;"/>
   </g>
   <g id="line2d_75">
    <path clip-path="url(#p952ff9da0f)" d="M 423.369614 314.194261 
L 425.615671 314.194261 
" style="fill:none;stroke:#000000;stroke-linecap:square;"/>
   </g>
   <g id="line2d_76">
    <path clip-path="url(#p952ff9da0f)" d="M 423.369614 102.845082 
L 425.615671 102.845082 
" style="fill:none;stroke:#000000;stroke-linecap:square;"/>
   </g>
   <g id="line2d_77">
    <path clip-path="url(#p952ff9da0f)" d="M 476.900643 203.297072 
L 476.900643 271.160625 
" style="fill:none;stroke:#000000;stroke-linecap:square;"/>
   </g>
   <g id="line2d_78">
    <path clip-path="url(#p952ff9da0f)" d="M 476.900643 112.016943 
L 476.900643 84.215802 
" style="fill:none;stroke:#000000;stroke-linecap:square;"/>
   </g>
   <g id="line2d_79">
    <path clip-path="url(#p952ff9da0f)" d="M 475.777614 271.160625 
L 478.023671 271.160625 
" style="fill:none;stroke:#000000;stroke-linecap:square;"/>
   </g>
   <g id="line2d_80">
    <path clip-path="url(#p952ff9da0f)" d="M 475.777614 84.215802 
L 478.023671 84.215802 
" style="fill:none;stroke:#000000;stroke-linecap:square;"/>
   </g>
   <g id="line2d_81">
    <path clip-path="url(#p952ff9da0f)" d="M 529.308643 155.738949 
L 529.308643 204.817102 
" style="fill:none;stroke:#000000;stroke-linecap:square;"/>
   </g>
   <g id="line2d_82">
    <path clip-path="url(#p952ff9da0f)" d="M 529.308643 82.442247 
L 529.308643 69.049658 
" style="fill:none;stroke:#000000;stroke-linecap:square;"/>
   </g>
   <g id="line2d_83">
    <path clip-path="url(#p952ff9da0f)" d="M 528.185614 204.817102 
L 530.431671 204.817102 
" style="fill:none;stroke:#000000;stroke-linecap:square;"/>
   </g>
   <g id="line2d_84">
    <path clip-path="url(#p952ff9da0f)" d="M 528.185614 69.049658 
L 530.431671 69.049658 
" style="fill:none;stroke:#000000;stroke-linecap:square;"/>
   </g>
   <g id="line2d_85">
    <path clip-path="url(#p952ff9da0f)" d="M 581.716643 105.937084 
L 581.716643 131.301307 
" style="fill:none;stroke:#000000;stroke-linecap:square;"/>
   </g>
   <g id="line2d_86">
    <path clip-path="url(#p952ff9da0f)" d="M 581.716643 64.0392 
L 581.716643 58.015392 
" style="fill:none;stroke:#000000;stroke-linecap:square;"/>
   </g>
   <g id="line2d_87">
    <path clip-path="url(#p952ff9da0f)" d="M 580.593614 131.301307 
L 582.839671 131.301307 
" style="fill:none;stroke:#000000;stroke-linecap:square;"/>
   </g>
   <g id="line2d_88">
    <path clip-path="url(#p952ff9da0f)" d="M 580.593614 58.015392 
L 582.839671 58.015392 
" style="fill:none;stroke:#000000;stroke-linecap:square;"/>
   </g>
   <g id="line2d_89">
    <path clip-path="url(#p952ff9da0f)" d="M 117.5315 281.4817 
L 117.5315 334.033355 
" style="fill:none;stroke:#000000;stroke-linecap:square;"/>
   </g>
   <g id="line2d_90">
    <path clip-path="url(#p952ff9da0f)" d="M 117.5315 195.550635 
L 117.5315 114.02265 
" style="fill:none;stroke:#000000;stroke-linecap:square;"/>
   </g>
   <g id="line2d_91">
    <path clip-path="url(#p952ff9da0f)" d="M 116.408471 334.033355 
L 118.654529 334.033355 
" style="fill:none;stroke:#000000;stroke-linecap:square;"/>
   </g>
   <g id="line2d_92">
    <path clip-path="url(#p952ff9da0f)" d="M 116.408471 114.02265 
L 118.654529 114.02265 
" style="fill:none;stroke:#000000;stroke-linecap:square;"/>
   </g>
   <g id="line2d_93">
    <path clip-path="url(#p952ff9da0f)" d="M 169.9395 275.210276 
L 169.9395 334.033355 
" style="fill:none;stroke:#000000;stroke-linecap:square;"/>
   </g>
   <g id="line2d_94">
    <path clip-path="url(#p952ff9da0f)" d="M 169.9395 193.606237 
L 169.9395 114.02265 
" style="fill:none;stroke:#000000;stroke-linecap:square;"/>
   </g>
   <g id="line2d_95">
    <path clip-path="url(#p952ff9da0f)" d="M 168.816471 334.033355 
L 171.062529 334.033355 
" style="fill:none;stroke:#000000;stroke-linecap:square;"/>
   </g>
   <g id="line2d_96">
    <path clip-path="url(#p952ff9da0f)" d="M 168.816471 114.02265 
L 171.062529 114.02265 
" style="fill:none;stroke:#000000;stroke-linecap:square;"/>
   </g>
   <g id="line2d_97">
    <path clip-path="url(#p952ff9da0f)" d="M 222.3475 263.233376 
L 222.3475 334.033355 
" style="fill:none;stroke:#000000;stroke-linecap:square;"/>
   </g>
   <g id="line2d_98">
    <path clip-path="url(#p952ff9da0f)" d="M 222.3475 183.827657 
L 222.3475 110.296794 
" style="fill:none;stroke:#000000;stroke-linecap:square;"/>
   </g>
   <g id="line2d_99">
    <path clip-path="url(#p952ff9da0f)" d="M 221.224471 334.033355 
L 223.470529 334.033355 
" style="fill:none;stroke:#000000;stroke-linecap:square;"/>
   </g>
   <g id="line2d_100">
    <path clip-path="url(#p952ff9da0f)" d="M 221.224471 110.296794 
L 223.470529 110.296794 
" style="fill:none;stroke:#000000;stroke-linecap:square;"/>
   </g>
   <g id="line2d_101">
    <path clip-path="url(#p952ff9da0f)" d="M 274.7555 244.745669 
L 274.7555 332.35563 
" style="fill:none;stroke:#000000;stroke-linecap:square;"/>
   </g>
   <g id="line2d_102">
    <path clip-path="url(#p952ff9da0f)" d="M 274.7555 171.460559 
L 274.7555 107.502402 
" style="fill:none;stroke:#000000;stroke-linecap:square;"/>
   </g>
   <g id="line2d_103">
    <path clip-path="url(#p952ff9da0f)" d="M 273.632471 332.35563 
L 275.878529 332.35563 
" style="fill:none;stroke:#000000;stroke-linecap:square;"/>
   </g>
   <g id="line2d_104">
    <path clip-path="url(#p952ff9da0f)" d="M 273.632471 107.502402 
L 275.878529 107.502402 
" style="fill:none;stroke:#000000;stroke-linecap:square;"/>
   </g>
   <g id="line2d_105">
    <path clip-path="url(#p952ff9da0f)" d="M 327.1635 220.954716 
L 327.1635 282.023892 
" style="fill:none;stroke:#000000;stroke-linecap:square;"/>
   </g>
   <g id="line2d_106">
    <path clip-path="url(#p952ff9da0f)" d="M 327.1635 156.13051 
L 327.1635 100.05069 
" style="fill:none;stroke:#000000;stroke-linecap:square;"/>
   </g>
   <g id="line2d_107">
    <path clip-path="url(#p952ff9da0f)" d="M 326.040471 282.023892 
L 328.286529 282.023892 
" style="fill:none;stroke:#000000;stroke-linecap:square;"/>
   </g>
   <g id="line2d_108">
    <path clip-path="url(#p952ff9da0f)" d="M 326.040471 100.05069 
L 328.286529 100.05069 
" style="fill:none;stroke:#000000;stroke-linecap:square;"/>
   </g>
   <g id="line2d_109">
    <path clip-path="url(#p952ff9da0f)" d="M 379.5715 197.388677 
L 379.5715 257.157616 
" style="fill:none;stroke:#000000;stroke-linecap:square;"/>
   </g>
   <g id="line2d_110">
    <path clip-path="url(#p952ff9da0f)" d="M 379.5715 139.4173 
L 379.5715 89.804586 
" style="fill:none;stroke:#000000;stroke-linecap:square;"/>
   </g>
   <g id="line2d_111">
    <path clip-path="url(#p952ff9da0f)" d="M 378.448471 257.157616 
L 380.694529 257.157616 
" style="fill:none;stroke:#000000;stroke-linecap:square;"/>
   </g>
   <g id="line2d_112">
    <path clip-path="url(#p952ff9da0f)" d="M 378.448471 89.804586 
L 380.694529 89.804586 
" style="fill:none;stroke:#000000;stroke-linecap:square;"/>
   </g>
   <g id="line2d_113">
    <path clip-path="url(#p952ff9da0f)" d="M 431.9795 175.945483 
L 431.9795 232.636501 
" style="fill:none;stroke:#000000;stroke-linecap:square;"/>
   </g>
   <g id="line2d_114">
    <path clip-path="url(#p952ff9da0f)" d="M 431.9795 123.661277 
L 431.9795 84.681534 
" style="fill:none;stroke:#000000;stroke-linecap:square;"/>
   </g>
   <g id="line2d_115">
    <path clip-path="url(#p952ff9da0f)" d="M 430.856471 232.636501 
L 433.102529 232.636501 
" style="fill:none;stroke:#000000;stroke-linecap:square;"/>
   </g>
   <g id="line2d_116">
    <path clip-path="url(#p952ff9da0f)" d="M 430.856471 84.681534 
L 433.102529 84.681534 
" style="fill:none;stroke:#000000;stroke-linecap:square;"/>
   </g>
   <g id="line2d_117">
    <path clip-path="url(#p952ff9da0f)" d="M 484.3875 138.918142 
L 484.3875 194.842489 
" style="fill:none;stroke:#000000;stroke-linecap:square;"/>
   </g>
   <g id="line2d_118">
    <path clip-path="url(#p952ff9da0f)" d="M 484.3875 98.28412 
L 484.3875 61.6278 
" style="fill:none;stroke:#000000;stroke-linecap:square;"/>
   </g>
   <g id="line2d_119">
    <path clip-path="url(#p952ff9da0f)" d="M 483.264471 194.842489 
L 485.510529 194.842489 
" style="fill:none;stroke:#000000;stroke-linecap:square;"/>
   </g>
   <g id="line2d_120">
    <path clip-path="url(#p952ff9da0f)" d="M 483.264471 61.6278 
L 485.510529 61.6278 
" style="fill:none;stroke:#000000;stroke-linecap:square;"/>
   </g>
   <g id="line2d_121">
    <path clip-path="url(#p952ff9da0f)" d="M 536.7955 108.247573 
L 536.7955 147.865841 
" style="fill:none;stroke:#000000;stroke-linecap:square;"/>
   </g>
   <g id="line2d_122">
    <path clip-path="url(#p952ff9da0f)" d="M 536.7955 77.509261 
L 536.7955 56.504748 
" style="fill:none;stroke:#000000;stroke-linecap:square;"/>
   </g>
   <g id="line2d_123">
    <path clip-path="url(#p952ff9da0f)" d="M 535.672471 147.865841 
L 537.918529 147.865841 
" style="fill:none;stroke:#000000;stroke-linecap:square;"/>
   </g>
   <g id="line2d_124">
    <path clip-path="url(#p952ff9da0f)" d="M 535.672471 56.504748 
L 537.918529 56.504748 
" style="fill:none;stroke:#000000;stroke-linecap:square;"/>
   </g>
   <g id="line2d_125">
    <path clip-path="url(#p952ff9da0f)" d="M 589.2035 80.46255 
L 589.2035 104.879314 
" style="fill:none;stroke:#000000;stroke-linecap:square;"/>
   </g>
   <g id="line2d_126">
    <path clip-path="url(#p952ff9da0f)" d="M 589.2035 64.150219 
L 589.2035 56.504748 
" style="fill:none;stroke:#000000;stroke-linecap:square;"/>
   </g>
   <g id="line2d_127">
    <path clip-path="url(#p952ff9da0f)" d="M 588.080471 104.879314 
L 590.326529 104.879314 
" style="fill:none;stroke:#000000;stroke-linecap:square;"/>
   </g>
   <g id="line2d_128">
    <path clip-path="url(#p952ff9da0f)" d="M 588.080471 56.504748 
L 590.326529 56.504748 
" style="fill:none;stroke:#000000;stroke-linecap:square;"/>
   </g>
   <g id="line2d_129">
    <path clip-path="url(#p952ff9da0f)" d="M 125.018357 316.926556 
L 125.018357 334.033355 
" style="fill:none;stroke:#000000;stroke-linecap:square;"/>
   </g>
   <g id="line2d_130">
    <path clip-path="url(#p952ff9da0f)" d="M 125.018357 290.966626 
L 125.018357 266.768303 
" style="fill:none;stroke:#000000;stroke-linecap:square;"/>
   </g>
   <g id="line2d_131">
    <path clip-path="url(#p952ff9da0f)" d="M 123.895329 334.033355 
L 126.141386 334.033355 
" style="fill:none;stroke:#000000;stroke-linecap:square;"/>
   </g>
   <g id="line2d_132">
    <path clip-path="url(#p952ff9da0f)" d="M 123.895329 266.768303 
L 126.141386 266.768303 
" style="fill:none;stroke:#000000;stroke-linecap:square;"/>
   </g>
   <g id="line2d_133">
    <path clip-path="url(#p952ff9da0f)" d="M 177.426357 313.783112 
L 177.426357 334.033355 
" style="fill:none;stroke:#000000;stroke-linecap:square;"/>
   </g>
   <g id="line2d_134">
    <path clip-path="url(#p952ff9da0f)" d="M 177.426357 282.772876 
L 177.426357 258.056397 
" style="fill:none;stroke:#000000;stroke-linecap:square;"/>
   </g>
   <g id="line2d_135">
    <path clip-path="url(#p952ff9da0f)" d="M 176.303329 334.033355 
L 178.549386 334.033355 
" style="fill:none;stroke:#000000;stroke-linecap:square;"/>
   </g>
   <g id="line2d_136">
    <path clip-path="url(#p952ff9da0f)" d="M 176.303329 258.056397 
L 178.549386 258.056397 
" style="fill:none;stroke:#000000;stroke-linecap:square;"/>
   </g>
   <g id="line2d_137">
    <path clip-path="url(#p952ff9da0f)" d="M 229.834357 305.512036 
L 229.834357 334.033355 
" style="fill:none;stroke:#000000;stroke-linecap:square;"/>
   </g>
   <g id="line2d_138">
    <path clip-path="url(#p952ff9da0f)" d="M 229.834357 256.234544 
L 229.834357 236.485652 
" style="fill:none;stroke:#000000;stroke-linecap:square;"/>
   </g>
   <g id="line2d_139">
    <path clip-path="url(#p952ff9da0f)" d="M 228.711329 334.033355 
L 230.957386 334.033355 
" style="fill:none;stroke:#000000;stroke-linecap:square;"/>
   </g>
   <g id="line2d_140">
    <path clip-path="url(#p952ff9da0f)" d="M 228.711329 236.485652 
L 230.957386 236.485652 
" style="fill:none;stroke:#000000;stroke-linecap:square;"/>
   </g>
   <g id="line2d_141">
    <path clip-path="url(#p952ff9da0f)" d="M 282.242357 285.817008 
L 282.242357 332.35563 
" style="fill:none;stroke:#000000;stroke-linecap:square;"/>
   </g>
   <g id="line2d_142">
    <path clip-path="url(#p952ff9da0f)" d="M 282.242357 232.111585 
L 282.242357 206.286609 
" style="fill:none;stroke:#000000;stroke-linecap:square;"/>
   </g>
   <g id="line2d_143">
    <path clip-path="url(#p952ff9da0f)" d="M 281.119329 332.35563 
L 283.365386 332.35563 
" style="fill:none;stroke:#000000;stroke-linecap:square;"/>
   </g>
   <g id="line2d_144">
    <path clip-path="url(#p952ff9da0f)" d="M 281.119329 206.286609 
L 283.365386 206.286609 
" style="fill:none;stroke:#000000;stroke-linecap:square;"/>
   </g>
   <g id="line2d_145">
    <path clip-path="url(#p952ff9da0f)" d="M 334.650357 262.582024 
L 334.650357 330.677906 
" style="fill:none;stroke:#000000;stroke-linecap:square;"/>
   </g>
   <g id="line2d_146">
    <path clip-path="url(#p952ff9da0f)" d="M 334.650357 191.426763 
L 334.650357 171.37551 
" style="fill:none;stroke:#000000;stroke-linecap:square;"/>
   </g>
   <g id="line2d_147">
    <path clip-path="url(#p952ff9da0f)" d="M 333.527329 330.677906 
L 335.773386 330.677906 
" style="fill:none;stroke:#000000;stroke-linecap:square;"/>
   </g>
   <g id="line2d_148">
    <path clip-path="url(#p952ff9da0f)" d="M 333.527329 171.37551 
L 335.773386 171.37551 
" style="fill:none;stroke:#000000;stroke-linecap:square;"/>
   </g>
   <g id="line2d_149">
    <path clip-path="url(#p952ff9da0f)" d="M 387.058357 237.628717 
L 387.058357 320.611558 
" style="fill:none;stroke:#000000;stroke-linecap:square;"/>
   </g>
   <g id="line2d_150">
    <path clip-path="url(#p952ff9da0f)" d="M 387.058357 157.794237 
L 387.058357 137.739575 
" style="fill:none;stroke:#000000;stroke-linecap:square;"/>
   </g>
   <g id="line2d_151">
    <path clip-path="url(#p952ff9da0f)" d="M 385.935329 320.611558 
L 388.181386 320.611558 
" style="fill:none;stroke:#000000;stroke-linecap:square;"/>
   </g>
   <g id="line2d_152">
    <path clip-path="url(#p952ff9da0f)" d="M 385.935329 137.739575 
L 388.181386 137.739575 
" style="fill:none;stroke:#000000;stroke-linecap:square;"/>
   </g>
   <g id="line2d_153">
    <path clip-path="url(#p952ff9da0f)" d="M 439.466357 198.502384 
L 439.466357 235.843991 
" style="fill:none;stroke:#000000;stroke-linecap:square;"/>
   </g>
   <g id="line2d_154">
    <path clip-path="url(#p952ff9da0f)" d="M 439.466357 137.988967 
L 439.466357 104.510759 
" style="fill:none;stroke:#000000;stroke-linecap:square;"/>
   </g>
   <g id="line2d_155">
    <path clip-path="url(#p952ff9da0f)" d="M 438.343329 235.843991 
L 440.589386 235.843991 
" style="fill:none;stroke:#000000;stroke-linecap:square;"/>
   </g>
   <g id="line2d_156">
    <path clip-path="url(#p952ff9da0f)" d="M 438.343329 104.510759 
L 440.589386 104.510759 
" style="fill:none;stroke:#000000;stroke-linecap:square;"/>
   </g>
   <g id="line2d_157">
    <path clip-path="url(#p952ff9da0f)" d="M 491.874357 158.111945 
L 491.874357 200.12565 
" style="fill:none;stroke:#000000;stroke-linecap:square;"/>
   </g>
   <g id="line2d_158">
    <path clip-path="url(#p952ff9da0f)" d="M 491.874357 109.218257 
L 491.874357 84.259636 
" style="fill:none;stroke:#000000;stroke-linecap:square;"/>
   </g>
   <g id="line2d_159">
    <path clip-path="url(#p952ff9da0f)" d="M 490.751329 200.12565 
L 492.997386 200.12565 
" style="fill:none;stroke:#000000;stroke-linecap:square;"/>
   </g>
   <g id="line2d_160">
    <path clip-path="url(#p952ff9da0f)" d="M 490.751329 84.259636 
L 492.997386 84.259636 
" style="fill:none;stroke:#000000;stroke-linecap:square;"/>
   </g>
   <g id="line2d_161">
    <path clip-path="url(#p952ff9da0f)" d="M 544.282357 120.542898 
L 544.282357 156.895513 
" style="fill:none;stroke:#000000;stroke-linecap:square;"/>
   </g>
   <g id="line2d_162">
    <path clip-path="url(#p952ff9da0f)" d="M 544.282357 86.6275 
L 544.282357 70.63059 
" style="fill:none;stroke:#000000;stroke-linecap:square;"/>
   </g>
   <g id="line2d_163">
    <path clip-path="url(#p952ff9da0f)" d="M 543.159329 156.895513 
L 545.405386 156.895513 
" style="fill:none;stroke:#000000;stroke-linecap:square;"/>
   </g>
   <g id="line2d_164">
    <path clip-path="url(#p952ff9da0f)" d="M 543.159329 70.63059 
L 545.405386 70.63059 
" style="fill:none;stroke:#000000;stroke-linecap:square;"/>
   </g>
   <g id="line2d_165">
    <path clip-path="url(#p952ff9da0f)" d="M 596.690357 91.961661 
L 596.690357 125.995503 
" style="fill:none;stroke:#000000;stroke-linecap:square;"/>
   </g>
   <g id="line2d_166">
    <path clip-path="url(#p952ff9da0f)" d="M 596.690357 67.244357 
L 596.690357 58.886518 
" style="fill:none;stroke:#000000;stroke-linecap:square;"/>
   </g>
   <g id="line2d_167">
    <path clip-path="url(#p952ff9da0f)" d="M 595.567329 125.995503 
L 597.813386 125.995503 
" style="fill:none;stroke:#000000;stroke-linecap:square;"/>
   </g>
   <g id="line2d_168">
    <path clip-path="url(#p952ff9da0f)" d="M 595.567329 58.886518 
L 597.813386 58.886518 
" style="fill:none;stroke:#000000;stroke-linecap:square;"/>
   </g>
   <g id="patch_3">
    <path clip-path="url(#p952ff9da0f)" d="M 100.311729 209.629831 
L 104.803843 209.629831 
L 104.803843 130.883873 
L 100.311729 130.883873 
L 100.311729 209.629831 
z
" style="fill:#b8860b;stroke:#000000;stroke-linejoin:miter;"/>
   </g>
   <g id="patch_4">
    <path clip-path="url(#p952ff9da0f)" d="M 152.719729 209.629831 
L 157.211843 209.629831 
L 157.211843 130.883873 
L 152.719729 130.883873 
L 152.719729 209.629831 
z
" style="fill:#b8860b;stroke:#000000;stroke-linejoin:miter;"/>
   </g>
   <g id="patch_5">
    <path clip-path="url(#p952ff9da0f)" d="M 205.127729 200.778171 
L 209.619843 200.778171 
L 209.619843 127.352846 
L 205.127729 127.352846 
L 205.127729 200.778171 
z
" style="fill:#b8860b;stroke:#000000;stroke-linejoin:miter;"/>
   </g>
   <g id="patch_6">
    <path clip-path="url(#p952ff9da0f)" d="M 257.535729 187.367209 
L 262.027843 187.367209 
L 262.027843 118.981587 
L 257.535729 118.981587 
L 257.535729 187.367209 
z
" style="fill:#b8860b;stroke:#000000;stroke-linejoin:miter;"/>
   </g>
   <g id="patch_7">
    <path clip-path="url(#p952ff9da0f)" d="M 309.943729 165.920299 
L 314.435843 165.920299 
L 314.435843 106.198352 
L 309.943729 106.198352 
L 309.943729 165.920299 
z
" style="fill:#b8860b;stroke:#000000;stroke-linejoin:miter;"/>
   </g>
   <g id="patch_8">
    <path clip-path="url(#p952ff9da0f)" d="M 362.351729 146.959259 
L 366.843843 146.959259 
L 366.843843 98.773998 
L 362.351729 98.773998 
L 362.351729 146.959259 
z
" style="fill:#b8860b;stroke:#000000;stroke-linejoin:miter;"/>
   </g>
   <g id="patch_9">
    <path clip-path="url(#p952ff9da0f)" d="M 414.759729 134.579303 
L 419.251843 134.579303 
L 419.251843 92.492332 
L 414.759729 92.492332 
L 414.759729 134.579303 
z
" style="fill:#b8860b;stroke:#000000;stroke-linejoin:miter;"/>
   </g>
   <g id="patch_10">
    <path clip-path="url(#p952ff9da0f)" d="M 467.167729 105.988943 
L 471.659843 105.988943 
L 471.659843 73.475362 
L 467.167729 73.475362 
L 467.167729 105.988943 
z
" style="fill:#b8860b;stroke:#000000;stroke-linejoin:miter;"/>
   </g>
   <g id="patch_11">
    <path clip-path="url(#p952ff9da0f)" d="M 519.575729 85.435055 
L 524.067843 85.435055 
L 524.067843 64.454903 
L 519.575729 64.454903 
L 519.575729 85.435055 
z
" style="fill:#b8860b;stroke:#000000;stroke-linejoin:miter;"/>
   </g>
   <g id="patch_12">
    <path clip-path="url(#p952ff9da0f)" d="M 571.983729 69.793966 
L 576.475843 69.793966 
L 576.475843 58.399246 
L 571.983729 58.399246 
L 571.983729 69.793966 
z
" style="fill:#b8860b;stroke:#000000;stroke-linejoin:miter;"/>
   </g>
   <g id="patch_13">
    <path clip-path="url(#p952ff9da0f)" d="M 107.798586 335.71108 
L 112.2907 335.71108 
L 112.2907 325.258552 
L 107.798586 325.258552 
L 107.798586 335.71108 
z
" style="fill:#8c0900;stroke:#000000;stroke-linejoin:miter;"/>
   </g>
   <g id="patch_14">
    <path clip-path="url(#p952ff9da0f)" d="M 160.206586 335.71108 
L 164.6987 335.71108 
L 164.6987 320.116735 
L 160.206586 320.116735 
L 160.206586 335.71108 
z
" style="fill:#8c0900;stroke:#000000;stroke-linejoin:miter;"/>
   </g>
   <g id="patch_15">
    <path clip-path="url(#p952ff9da0f)" d="M 212.614586 326.081283 
L 217.1067 326.081283 
L 217.1067 288.871747 
L 212.614586 288.871747 
L 212.614586 326.081283 
z
" style="fill:#8c0900;stroke:#000000;stroke-linejoin:miter;"/>
   </g>
   <g id="patch_16">
    <path clip-path="url(#p952ff9da0f)" d="M 265.022586 320.116735 
L 269.5147 320.116735 
L 269.5147 255.155504 
L 265.022586 255.155504 
L 265.022586 320.116735 
z
" style="fill:#8c0900;stroke:#000000;stroke-linejoin:miter;"/>
   </g>
   <g id="patch_17">
    <path clip-path="url(#p952ff9da0f)" d="M 317.430586 299.477364 
L 321.9227 299.477364 
L 321.9227 226.049166 
L 317.430586 226.049166 
L 317.430586 299.477364 
z
" style="fill:#8c0900;stroke:#000000;stroke-linejoin:miter;"/>
   </g>
   <g id="patch_18">
    <path clip-path="url(#p952ff9da0f)" d="M 369.838586 277.65855 
L 374.3307 277.65855 
L 374.3307 187.874438 
L 369.838586 187.874438 
L 369.838586 277.65855 
z
" style="fill:#8c0900;stroke:#000000;stroke-linejoin:miter;"/>
   </g>
   <g id="patch_19">
    <path clip-path="url(#p952ff9da0f)" d="M 422.246586 241.961988 
L 426.7387 241.961988 
L 426.7387 152.200047 
L 422.246586 152.200047 
L 422.246586 241.961988 
z
" style="fill:#8c0900;stroke:#000000;stroke-linejoin:miter;"/>
   </g>
   <g id="patch_20">
    <path clip-path="url(#p952ff9da0f)" d="M 474.654586 203.297072 
L 479.1467 203.297072 
L 479.1467 112.016943 
L 474.654586 112.016943 
L 474.654586 203.297072 
z
" style="fill:#8c0900;stroke:#000000;stroke-linejoin:miter;"/>
   </g>
   <g id="patch_21">
    <path clip-path="url(#p952ff9da0f)" d="M 527.062586 155.738949 
L 531.5547 155.738949 
L 531.5547 82.442247 
L 527.062586 82.442247 
L 527.062586 155.738949 
z
" style="fill:#8c0900;stroke:#000000;stroke-linejoin:miter;"/>
   </g>
   <g id="patch_22">
    <path clip-path="url(#p952ff9da0f)" d="M 579.470586 105.937084 
L 583.9627 105.937084 
L 583.9627 64.0392 
L 579.470586 64.0392 
L 579.470586 105.937084 
z
" style="fill:#8c0900;stroke:#000000;stroke-linejoin:miter;"/>
   </g>
   <g id="patch_23">
    <path clip-path="url(#p952ff9da0f)" d="M 115.285443 281.4817 
L 119.777557 281.4817 
L 119.777557 195.550635 
L 115.285443 195.550635 
L 115.285443 281.4817 
z
" style="fill:#017517;stroke:#000000;stroke-linejoin:miter;"/>
   </g>
   <g id="patch_24">
    <path clip-path="url(#p952ff9da0f)" d="M 167.693443 275.210276 
L 172.185557 275.210276 
L 172.185557 193.606237 
L 167.693443 193.606237 
L 167.693443 275.210276 
z
" style="fill:#017517;stroke:#000000;stroke-linejoin:miter;"/>
   </g>
   <g id="patch_25">
    <path clip-path="url(#p952ff9da0f)" d="M 220.101443 263.233376 
L 224.593557 263.233376 
L 224.593557 183.827657 
L 220.101443 183.827657 
L 220.101443 263.233376 
z
" style="fill:#017517;stroke:#000000;stroke-linejoin:miter;"/>
   </g>
   <g id="patch_26">
    <path clip-path="url(#p952ff9da0f)" d="M 272.509443 244.745669 
L 277.001557 244.745669 
L 277.001557 171.460559 
L 272.509443 171.460559 
L 272.509443 244.745669 
z
" style="fill:#017517;stroke:#000000;stroke-linejoin:miter;"/>
   </g>
   <g id="patch_27">
    <path clip-path="url(#p952ff9da0f)" d="M 324.917443 220.954716 
L 329.409557 220.954716 
L 329.409557 156.13051 
L 324.917443 156.13051 
L 324.917443 220.954716 
z
" style="fill:#017517;stroke:#000000;stroke-linejoin:miter;"/>
   </g>
   <g id="patch_28">
    <path clip-path="url(#p952ff9da0f)" d="M 377.325443 197.388677 
L 381.817557 197.388677 
L 381.817557 139.4173 
L 377.325443 139.4173 
L 377.325443 197.388677 
z
" style="fill:#017517;stroke:#000000;stroke-linejoin:miter;"/>
   </g>
   <g id="patch_29">
    <path clip-path="url(#p952ff9da0f)" d="M 429.733443 175.945483 
L 434.225557 175.945483 
L 434.225557 123.661277 
L 429.733443 123.661277 
L 429.733443 175.945483 
z
" style="fill:#017517;stroke:#000000;stroke-linejoin:miter;"/>
   </g>
   <g id="patch_30">
    <path clip-path="url(#p952ff9da0f)" d="M 482.141443 138.918142 
L 486.633557 138.918142 
L 486.633557 98.28412 
L 482.141443 98.28412 
L 482.141443 138.918142 
z
" style="fill:#017517;stroke:#000000;stroke-linejoin:miter;"/>
   </g>
   <g id="patch_31">
    <path clip-path="url(#p952ff9da0f)" d="M 534.549443 108.247573 
L 539.041557 108.247573 
L 539.041557 77.509261 
L 534.549443 77.509261 
L 534.549443 108.247573 
z
" style="fill:#017517;stroke:#000000;stroke-linejoin:miter;"/>
   </g>
   <g id="patch_32">
    <path clip-path="url(#p952ff9da0f)" d="M 586.957443 80.46255 
L 591.449557 80.46255 
L 591.449557 64.150219 
L 586.957443 64.150219 
L 586.957443 80.46255 
z
" style="fill:#017517;stroke:#000000;stroke-linejoin:miter;"/>
   </g>
   <g id="patch_33">
    <path clip-path="url(#p952ff9da0f)" d="M 122.7723 316.926556 
L 127.264414 316.926556 
L 127.264414 290.966626 
L 122.7723 290.966626 
L 122.7723 316.926556 
z
" style="fill:#001c7f;stroke:#000000;stroke-linejoin:miter;"/>
   </g>
   <g id="patch_34">
    <path clip-path="url(#p952ff9da0f)" d="M 175.1803 313.783112 
L 179.672414 313.783112 
L 179.672414 282.772876 
L 175.1803 282.772876 
L 175.1803 313.783112 
z
" style="fill:#001c7f;stroke:#000000;stroke-linejoin:miter;"/>
   </g>
   <g id="patch_35">
    <path clip-path="url(#p952ff9da0f)" d="M 227.5883 305.512036 
L 232.080414 305.512036 
L 232.080414 256.234544 
L 227.5883 256.234544 
L 227.5883 305.512036 
z
" style="fill:#001c7f;stroke:#000000;stroke-linejoin:miter;"/>
   </g>
   <g id="patch_36">
    <path clip-path="url(#p952ff9da0f)" d="M 279.9963 285.817008 
L 284.488414 285.817008 
L 284.488414 232.111585 
L 279.9963 232.111585 
L 279.9963 285.817008 
z
" style="fill:#001c7f;stroke:#000000;stroke-linejoin:miter;"/>
   </g>
   <g id="patch_37">
    <path clip-path="url(#p952ff9da0f)" d="M 332.4043 262.582024 
L 336.896414 262.582024 
L 336.896414 191.426763 
L 332.4043 191.426763 
L 332.4043 262.582024 
z
" style="fill:#001c7f;stroke:#000000;stroke-linejoin:miter;"/>
   </g>
   <g id="patch_38">
    <path clip-path="url(#p952ff9da0f)" d="M 384.8123 237.628717 
L 389.304414 237.628717 
L 389.304414 157.794237 
L 384.8123 157.794237 
L 384.8123 237.628717 
z
" style="fill:#001c7f;stroke:#000000;stroke-linejoin:miter;"/>
   </g>
   <g id="patch_39">
    <path clip-path="url(#p952ff9da0f)" d="M 437.2203 198.502384 
L 441.712414 198.502384 
L 441.712414 137.988967 
L 437.2203 137.988967 
L 437.2203 198.502384 
z
" style="fill:#001c7f;stroke:#000000;stroke-linejoin:miter;"/>
   </g>
   <g id="patch_40">
    <path clip-path="url(#p952ff9da0f)" d="M 489.6283 158.111945 
L 494.120414 158.111945 
L 494.120414 109.218257 
L 489.6283 109.218257 
L 489.6283 158.111945 
z
" style="fill:#001c7f;stroke:#000000;stroke-linejoin:miter;"/>
   </g>
   <g id="patch_41">
    <path clip-path="url(#p952ff9da0f)" d="M 542.0363 120.542898 
L 546.528414 120.542898 
L 546.528414 86.6275 
L 542.0363 86.6275 
L 542.0363 120.542898 
z
" style="fill:#001c7f;stroke:#000000;stroke-linejoin:miter;"/>
   </g>
   <g id="patch_42">
    <path clip-path="url(#p952ff9da0f)" d="M 594.4443 91.961661 
L 598.936414 91.961661 
L 598.936414 67.244357 
L 594.4443 67.244357 
L 594.4443 91.961661 
z
" style="fill:#001c7f;stroke:#000000;stroke-linejoin:miter;"/>
   </g>
   <g id="line2d_169">
    <path clip-path="url(#p952ff9da0f)" d="M 100.311729 155.40886 
L 104.803843 155.40886 
" style="fill:none;stroke:#ff7f0e;stroke-linecap:square;"/>
   </g>
   <g id="line2d_170">
    <path clip-path="url(#p952ff9da0f)" d="M 152.719729 155.40886 
L 157.211843 155.40886 
" style="fill:none;stroke:#ff7f0e;stroke-linecap:square;"/>
   </g>
   <g id="line2d_171">
    <path clip-path="url(#p952ff9da0f)" d="M 205.127729 152.744261 
L 209.619843 152.744261 
" style="fill:none;stroke:#ff7f0e;stroke-linecap:square;"/>
   </g>
   <g id="line2d_172">
    <path clip-path="url(#p952ff9da0f)" d="M 257.535729 142.700023 
L 262.027843 142.700023 
" style="fill:none;stroke:#ff7f0e;stroke-linecap:square;"/>
   </g>
   <g id="line2d_173">
    <path clip-path="url(#p952ff9da0f)" d="M 309.943729 126.187742 
L 314.435843 126.187742 
" style="fill:none;stroke:#ff7f0e;stroke-linecap:square;"/>
   </g>
   <g id="line2d_174">
    <path clip-path="url(#p952ff9da0f)" d="M 362.351729 117.059899 
L 366.843843 117.059899 
" style="fill:none;stroke:#ff7f0e;stroke-linecap:square;"/>
   </g>
   <g id="line2d_175">
    <path clip-path="url(#p952ff9da0f)" d="M 414.759729 109.865017 
L 419.251843 109.865017 
" style="fill:none;stroke:#ff7f0e;stroke-linecap:square;"/>
   </g>
   <g id="line2d_176">
    <path clip-path="url(#p952ff9da0f)" d="M 467.167729 86.773592 
L 471.659843 86.773592 
" style="fill:none;stroke:#ff7f0e;stroke-linecap:square;"/>
   </g>
   <g id="line2d_177">
    <path clip-path="url(#p952ff9da0f)" d="M 519.575729 72.828198 
L 524.067843 72.828198 
" style="fill:none;stroke:#ff7f0e;stroke-linecap:square;"/>
   </g>
   <g id="line2d_178">
    <path clip-path="url(#p952ff9da0f)" d="M 571.983729 63.164716 
L 576.475843 63.164716 
" style="fill:none;stroke:#ff7f0e;stroke-linecap:square;"/>
   </g>
   <g id="line2d_179">
    <path clip-path="url(#p952ff9da0f)" d="M 107.798586 331.522891 
L 112.2907 331.522891 
" style="fill:none;stroke:#ff7f0e;stroke-linecap:square;"/>
   </g>
   <g id="line2d_180">
    <path clip-path="url(#p952ff9da0f)" d="M 160.206586 327.334703 
L 164.6987 327.334703 
" style="fill:none;stroke:#ff7f0e;stroke-linecap:square;"/>
   </g>
   <g id="line2d_181">
    <path clip-path="url(#p952ff9da0f)" d="M 212.614586 318.668055 
L 217.1067 318.668055 
" style="fill:none;stroke:#ff7f0e;stroke-linecap:square;"/>
   </g>
   <g id="line2d_182">
    <path clip-path="url(#p952ff9da0f)" d="M 265.022586 300.58158 
L 269.5147 300.58158 
" style="fill:none;stroke:#ff7f0e;stroke-linecap:square;"/>
   </g>
   <g id="line2d_183">
    <path clip-path="url(#p952ff9da0f)" d="M 317.430586 288.871747 
L 321.9227 288.871747 
" style="fill:none;stroke:#ff7f0e;stroke-linecap:square;"/>
   </g>
   <g id="line2d_184">
    <path clip-path="url(#p952ff9da0f)" d="M 369.838586 241.919821 
L 374.3307 241.919821 
" style="fill:none;stroke:#ff7f0e;stroke-linecap:square;"/>
   </g>
   <g id="line2d_185">
    <path clip-path="url(#p952ff9da0f)" d="M 422.246586 180.724037 
L 426.7387 180.724037 
" style="fill:none;stroke:#ff7f0e;stroke-linecap:square;"/>
   </g>
   <g id="line2d_186">
    <path clip-path="url(#p952ff9da0f)" d="M 474.654586 151.281209 
L 479.1467 151.281209 
" style="fill:none;stroke:#ff7f0e;stroke-linecap:square;"/>
   </g>
   <g id="line2d_187">
    <path clip-path="url(#p952ff9da0f)" d="M 527.062586 116.15171 
L 531.5547 116.15171 
" style="fill:none;stroke:#ff7f0e;stroke-linecap:square;"/>
   </g>
   <g id="line2d_188">
    <path clip-path="url(#p952ff9da0f)" d="M 579.470586 86.877128 
L 583.9627 86.877128 
" style="fill:none;stroke:#ff7f0e;stroke-linecap:square;"/>
   </g>
   <g id="line2d_189">
    <path clip-path="url(#p952ff9da0f)" d="M 115.285443 256.767943 
L 119.777557 256.767943 
" style="fill:none;stroke:#ff7f0e;stroke-linecap:square;"/>
   </g>
   <g id="line2d_190">
    <path clip-path="url(#p952ff9da0f)" d="M 167.693443 252.251906 
L 172.185557 252.251906 
" style="fill:none;stroke:#ff7f0e;stroke-linecap:square;"/>
   </g>
   <g id="line2d_191">
    <path clip-path="url(#p952ff9da0f)" d="M 220.101443 243.023247 
L 224.593557 243.023247 
" style="fill:none;stroke:#ff7f0e;stroke-linecap:square;"/>
   </g>
   <g id="line2d_192">
    <path clip-path="url(#p952ff9da0f)" d="M 272.509443 224.297134 
L 277.001557 224.297134 
" style="fill:none;stroke:#ff7f0e;stroke-linecap:square;"/>
   </g>
   <g id="line2d_193">
    <path clip-path="url(#p952ff9da0f)" d="M 324.917443 190.597655 
L 329.409557 190.597655 
" style="fill:none;stroke:#ff7f0e;stroke-linecap:square;"/>
   </g>
   <g id="line2d_194">
    <path clip-path="url(#p952ff9da0f)" d="M 377.325443 162.991042 
L 381.817557 162.991042 
" style="fill:none;stroke:#ff7f0e;stroke-linecap:square;"/>
   </g>
   <g id="line2d_195">
    <path clip-path="url(#p952ff9da0f)" d="M 429.733443 147.555353 
L 434.225557 147.555353 
" style="fill:none;stroke:#ff7f0e;stroke-linecap:square;"/>
   </g>
   <g id="line2d_196">
    <path clip-path="url(#p952ff9da0f)" d="M 482.141443 113.532406 
L 486.633557 113.532406 
" style="fill:none;stroke:#ff7f0e;stroke-linecap:square;"/>
   </g>
   <g id="line2d_197">
    <path clip-path="url(#p952ff9da0f)" d="M 534.549443 89.085561 
L 539.041557 89.085561 
" style="fill:none;stroke:#ff7f0e;stroke-linecap:square;"/>
   </g>
   <g id="line2d_198">
    <path clip-path="url(#p952ff9da0f)" d="M 586.957443 72.024582 
L 591.449557 72.024582 
" style="fill:none;stroke:#ff7f0e;stroke-linecap:square;"/>
   </g>
   <g id="line2d_199">
    <path clip-path="url(#p952ff9da0f)" d="M 122.7723 305.512036 
L 127.264414 305.512036 
" style="fill:none;stroke:#ff7f0e;stroke-linecap:square;"/>
   </g>
   <g id="line2d_200">
    <path clip-path="url(#p952ff9da0f)" d="M 175.1803 303.05683 
L 179.672414 303.05683 
" style="fill:none;stroke:#ff7f0e;stroke-linecap:square;"/>
   </g>
   <g id="line2d_201">
    <path clip-path="url(#p952ff9da0f)" d="M 227.5883 288.458459 
L 232.080414 288.458459 
" style="fill:none;stroke:#ff7f0e;stroke-linecap:square;"/>
   </g>
   <g id="line2d_202">
    <path clip-path="url(#p952ff9da0f)" d="M 279.9963 273.832648 
L 284.488414 273.832648 
" style="fill:none;stroke:#ff7f0e;stroke-linecap:square;"/>
   </g>
   <g id="line2d_203">
    <path clip-path="url(#p952ff9da0f)" d="M 332.4043 240.080777 
L 336.896414 240.080777 
" style="fill:none;stroke:#ff7f0e;stroke-linecap:square;"/>
   </g>
   <g id="line2d_204">
    <path clip-path="url(#p952ff9da0f)" d="M 384.8123 204.129535 
L 389.304414 204.129535 
" style="fill:none;stroke:#ff7f0e;stroke-linecap:square;"/>
   </g>
   <g id="line2d_205">
    <path clip-path="url(#p952ff9da0f)" d="M 437.2203 172.971792 
L 441.712414 172.971792 
" style="fill:none;stroke:#ff7f0e;stroke-linecap:square;"/>
   </g>
   <g id="line2d_206">
    <path clip-path="url(#p952ff9da0f)" d="M 489.6283 137.094296 
L 494.120414 137.094296 
" style="fill:none;stroke:#ff7f0e;stroke-linecap:square;"/>
   </g>
   <g id="line2d_207">
    <path clip-path="url(#p952ff9da0f)" d="M 542.0363 110.066544 
L 546.528414 110.066544 
" style="fill:none;stroke:#ff7f0e;stroke-linecap:square;"/>
   </g>
   <g id="line2d_208">
    <path clip-path="url(#p952ff9da0f)" d="M 594.4443 80.346644 
L 598.936414 80.346644 
" style="fill:none;stroke:#ff7f0e;stroke-linecap:square;"/>
   </g>
   <g id="patch_43">
    <path d="M 91.3275 350.055625 
L 91.3275 34.475625 
" style="fill:none;stroke:#000000;stroke-linecap:square;stroke-linejoin:miter;"/>
   </g>
   <g id="patch_44">
    <path d="M 91.3275 350.055625 
L 615.4075 350.055625 
" style="fill:none;stroke:#000000;stroke-linecap:square;stroke-linejoin:miter;"/>
   </g>
   <g id="text_11">
    <!-- Lescroart E6.75 -->
    <defs>
     <path d="M 9.8125 72.90625 
L 19.671875 72.90625 
L 19.671875 8.296875 
L 55.171875 8.296875 
L 55.171875 0 
L 9.8125 0 
z
" id="DejaVuSans-76"/>
     <path d="M 9.8125 72.90625 
L 55.90625 72.90625 
L 55.90625 64.59375 
L 19.671875 64.59375 
L 19.671875 43.015625 
L 54.390625 43.015625 
L 54.390625 34.71875 
L 19.671875 34.71875 
L 19.671875 8.296875 
L 56.78125 8.296875 
L 56.78125 0 
L 9.8125 0 
z
" id="DejaVuSans-69"/>
     <path d="M 33.015625 40.375 
Q 26.375 40.375 22.484375 35.828125 
Q 18.609375 31.296875 18.609375 23.390625 
Q 18.609375 15.53125 22.484375 10.953125 
Q 26.375 6.390625 33.015625 6.390625 
Q 39.65625 6.390625 43.53125 10.953125 
Q 47.40625 15.53125 47.40625 23.390625 
Q 47.40625 31.296875 43.53125 35.828125 
Q 39.65625 40.375 33.015625 40.375 
z
M 52.59375 71.296875 
L 52.59375 62.3125 
Q 48.875 64.0625 45.09375 64.984375 
Q 41.3125 65.921875 37.59375 65.921875 
Q 27.828125 65.921875 22.671875 59.328125 
Q 17.53125 52.734375 16.796875 39.40625 
Q 19.671875 43.65625 24.015625 45.921875 
Q 28.375 48.1875 33.59375 48.1875 
Q 44.578125 48.1875 50.953125 41.515625 
Q 57.328125 34.859375 57.328125 23.390625 
Q 57.328125 12.15625 50.6875 5.359375 
Q 44.046875 -1.421875 33.015625 -1.421875 
Q 20.359375 -1.421875 13.671875 8.265625 
Q 6.984375 17.96875 6.984375 36.375 
Q 6.984375 53.65625 15.1875 63.9375 
Q 23.390625 74.21875 37.203125 74.21875 
Q 40.921875 74.21875 44.703125 73.484375 
Q 48.484375 72.75 52.59375 71.296875 
z
" id="DejaVuSans-54"/>
     <path d="M 8.203125 72.90625 
L 55.078125 72.90625 
L 55.078125 68.703125 
L 28.609375 0 
L 18.3125 0 
L 43.21875 64.59375 
L 8.203125 64.59375 
z
" id="DejaVuSans-55"/>
    </defs>
    <g transform="translate(243.355937 28.475625)scale(0.28 -0.28)">
     <use xlink:href="#DejaVuSans-76"/>
     <use x="55.697266" xlink:href="#DejaVuSans-101"/>
     <use x="117.220703" xlink:href="#DejaVuSans-115"/>
     <use x="169.320312" xlink:href="#DejaVuSans-99"/>
     <use x="224.300781" xlink:href="#DejaVuSans-114"/>
     <use x="265.382812" xlink:href="#DejaVuSans-111"/>
     <use x="326.564453" xlink:href="#DejaVuSans-97"/>
     <use x="387.84375" xlink:href="#DejaVuSans-114"/>
     <use x="428.957031" xlink:href="#DejaVuSans-116"/>
     <use x="468.166016" xlink:href="#DejaVuSans-32"/>
     <use x="499.953125" xlink:href="#DejaVuSans-69"/>
     <use x="563.136719" xlink:href="#DejaVuSans-54"/>
     <use x="626.759766" xlink:href="#DejaVuSans-46"/>
     <use x="658.546875" xlink:href="#DejaVuSans-55"/>
     <use x="722.169922" xlink:href="#DejaVuSans-53"/>
    </g>
   </g>
  </g>
 </g>
 <defs>
  <clipPath id="p952ff9da0f">
   <rect height="315.58" width="524.08" x="91.3275" y="34.475625"/>
  </clipPath>
 </defs>
</svg>
