<?xml version="1.0" encoding="utf-8" standalone="no"?>
<!DOCTYPE svg PUBLIC "-//W3C//DTD SVG 1.1//EN"
  "http://www.w3.org/Graphics/SVG/1.1/DTD/svg11.dtd">
<!-- Created with matplotlib (https://matplotlib.org/) -->
<svg height="423.953125pt" version="1.1" viewBox="0 0 622.6075 423.953125" width="622.6075pt" xmlns="http://www.w3.org/2000/svg" xmlns:xlink="http://www.w3.org/1999/xlink">
 <defs>
  <style type="text/css">
*{stroke-linecap:butt;stroke-linejoin:round;}
  </style>
 </defs>
 <g id="figure_1">
  <g id="patch_1">
   <path d="M 0 423.953125 
L 622.6075 423.953125 
L 622.6075 0 
L 0 0 
z
" style="fill:#ffffff;"/>
  </g>
  <g id="axes_1">
   <g id="patch_2">
    <path d="M 91.3275 350.055625 
L 615.4075 350.055625 
L 615.4075 34.475625 
L 91.3275 34.475625 
z
" style="fill:#ffffff;"/>
   </g>
   <g id="matplotlib.axis_1">
    <g id="xtick_1">
     <g id="line2d_1">
      <defs>
       <path d="M 0 0 
L 0 5 
" id="mea41c20cc5" style="stroke:#000000;stroke-width:0.8;"/>
      </defs>
      <g>
       <use style="stroke:#000000;stroke-width:0.8;" x="113.788071" xlink:href="#mea41c20cc5" y="350.055625"/>
      </g>
     </g>
     <g id="text_1">
      <!-- 0.0 -->
      <defs>
       <path d="M 31.78125 66.40625 
Q 24.171875 66.40625 20.328125 58.90625 
Q 16.5 51.421875 16.5 36.375 
Q 16.5 21.390625 20.328125 13.890625 
Q 24.171875 6.390625 31.78125 6.390625 
Q 39.453125 6.390625 43.28125 13.890625 
Q 47.125 21.390625 47.125 36.375 
Q 47.125 51.421875 43.28125 58.90625 
Q 39.453125 66.40625 31.78125 66.40625 
z
M 31.78125 74.21875 
Q 44.046875 74.21875 50.515625 64.515625 
Q 56.984375 54.828125 56.984375 36.375 
Q 56.984375 17.96875 50.515625 8.265625 
Q 44.046875 -1.421875 31.78125 -1.421875 
Q 19.53125 -1.421875 13.0625 8.265625 
Q 6.59375 17.96875 6.59375 36.375 
Q 6.59375 54.828125 13.0625 64.515625 
Q 19.53125 74.21875 31.78125 74.21875 
z
" id="DejaVuSans-48"/>
       <path d="M 10.6875 12.40625 
L 21 12.40625 
L 21 0 
L 10.6875 0 
z
" id="DejaVuSans-46"/>
      </defs>
      <g transform="translate(91.523696 379.83125)scale(0.28 -0.28)">
       <use xlink:href="#DejaVuSans-48"/>
       <use x="63.623047" xlink:href="#DejaVuSans-46"/>
       <use x="95.410156" xlink:href="#DejaVuSans-48"/>
      </g>
     </g>
    </g>
    <g id="xtick_2">
     <g id="line2d_2">
      <g>
       <use style="stroke:#000000;stroke-width:0.8;" x="218.604071" xlink:href="#mea41c20cc5" y="350.055625"/>
      </g>
     </g>
     <g id="text_2">
      <!-- 0.1 -->
      <defs>
       <path d="M 12.40625 8.296875 
L 28.515625 8.296875 
L 28.515625 63.921875 
L 10.984375 60.40625 
L 10.984375 69.390625 
L 28.421875 72.90625 
L 38.28125 72.90625 
L 38.28125 8.296875 
L 54.390625 8.296875 
L 54.390625 0 
L 12.40625 0 
z
" id="DejaVuSans-49"/>
      </defs>
      <g transform="translate(196.339696 379.83125)scale(0.28 -0.28)">
       <use xlink:href="#DejaVuSans-48"/>
       <use x="63.623047" xlink:href="#DejaVuSans-46"/>
       <use x="95.410156" xlink:href="#DejaVuSans-49"/>
      </g>
     </g>
    </g>
    <g id="xtick_3">
     <g id="line2d_3">
      <g>
       <use style="stroke:#000000;stroke-width:0.8;" x="323.420071" xlink:href="#mea41c20cc5" y="350.055625"/>
      </g>
     </g>
     <g id="text_3">
      <!-- 0.2 -->
      <defs>
       <path d="M 19.1875 8.296875 
L 53.609375 8.296875 
L 53.609375 0 
L 7.328125 0 
L 7.328125 8.296875 
Q 12.9375 14.109375 22.625 23.890625 
Q 32.328125 33.6875 34.8125 36.53125 
Q 39.546875 41.84375 41.421875 45.53125 
Q 43.3125 49.21875 43.3125 52.78125 
Q 43.3125 58.59375 39.234375 62.25 
Q 35.15625 65.921875 28.609375 65.921875 
Q 23.96875 65.921875 18.8125 64.3125 
Q 13.671875 62.703125 7.8125 59.421875 
L 7.8125 69.390625 
Q 13.765625 71.78125 18.9375 73 
Q 24.125 74.21875 28.421875 74.21875 
Q 39.75 74.21875 46.484375 68.546875 
Q 53.21875 62.890625 53.21875 53.421875 
Q 53.21875 48.921875 51.53125 44.890625 
Q 49.859375 40.875 45.40625 35.40625 
Q 44.1875 33.984375 37.640625 27.21875 
Q 31.109375 20.453125 19.1875 8.296875 
z
" id="DejaVuSans-50"/>
      </defs>
      <g transform="translate(301.155696 379.83125)scale(0.28 -0.28)">
       <use xlink:href="#DejaVuSans-48"/>
       <use x="63.623047" xlink:href="#DejaVuSans-46"/>
       <use x="95.410156" xlink:href="#DejaVuSans-50"/>
      </g>
     </g>
    </g>
    <g id="xtick_4">
     <g id="line2d_4">
      <g>
       <use style="stroke:#000000;stroke-width:0.8;" x="428.236071" xlink:href="#mea41c20cc5" y="350.055625"/>
      </g>
     </g>
     <g id="text_4">
      <!-- 0.3 -->
      <defs>
       <path d="M 40.578125 39.3125 
Q 47.65625 37.796875 51.625 33 
Q 55.609375 28.21875 55.609375 21.1875 
Q 55.609375 10.40625 48.1875 4.484375 
Q 40.765625 -1.421875 27.09375 -1.421875 
Q 22.515625 -1.421875 17.65625 -0.515625 
Q 12.796875 0.390625 7.625 2.203125 
L 7.625 11.71875 
Q 11.71875 9.328125 16.59375 8.109375 
Q 21.484375 6.890625 26.8125 6.890625 
Q 36.078125 6.890625 40.9375 10.546875 
Q 45.796875 14.203125 45.796875 21.1875 
Q 45.796875 27.640625 41.28125 31.265625 
Q 36.765625 34.90625 28.71875 34.90625 
L 20.21875 34.90625 
L 20.21875 43.015625 
L 29.109375 43.015625 
Q 36.375 43.015625 40.234375 45.921875 
Q 44.09375 48.828125 44.09375 54.296875 
Q 44.09375 59.90625 40.109375 62.90625 
Q 36.140625 65.921875 28.71875 65.921875 
Q 24.65625 65.921875 20.015625 65.03125 
Q 15.375 64.15625 9.8125 62.3125 
L 9.8125 71.09375 
Q 15.4375 72.65625 20.34375 73.4375 
Q 25.25 74.21875 29.59375 74.21875 
Q 40.828125 74.21875 47.359375 69.109375 
Q 53.90625 64.015625 53.90625 55.328125 
Q 53.90625 49.265625 50.4375 45.09375 
Q 46.96875 40.921875 40.578125 39.3125 
z
" id="DejaVuSans-51"/>
      </defs>
      <g transform="translate(405.971696 379.83125)scale(0.28 -0.28)">
       <use xlink:href="#DejaVuSans-48"/>
       <use x="63.623047" xlink:href="#DejaVuSans-46"/>
       <use x="95.410156" xlink:href="#DejaVuSans-51"/>
      </g>
     </g>
    </g>
    <g id="xtick_5">
     <g id="line2d_5">
      <g>
       <use style="stroke:#000000;stroke-width:0.8;" x="533.052071" xlink:href="#mea41c20cc5" y="350.055625"/>
      </g>
     </g>
     <g id="text_5">
      <!-- 0.4 -->
      <defs>
       <path d="M 37.796875 64.3125 
L 12.890625 25.390625 
L 37.796875 25.390625 
z
M 35.203125 72.90625 
L 47.609375 72.90625 
L 47.609375 25.390625 
L 58.015625 25.390625 
L 58.015625 17.1875 
L 47.609375 17.1875 
L 47.609375 0 
L 37.796875 0 
L 37.796875 17.1875 
L 4.890625 17.1875 
L 4.890625 26.703125 
z
" id="DejaVuSans-52"/>
      </defs>
      <g transform="translate(510.787696 379.83125)scale(0.28 -0.28)">
       <use xlink:href="#DejaVuSans-48"/>
       <use x="63.623047" xlink:href="#DejaVuSans-46"/>
       <use x="95.410156" xlink:href="#DejaVuSans-52"/>
      </g>
     </g>
    </g>
    <g id="text_6">
     <!-- Bimodality limit -->
     <defs>
      <path d="M 19.671875 34.8125 
L 19.671875 8.109375 
L 35.5 8.109375 
Q 43.453125 8.109375 47.28125 11.40625 
Q 51.125 14.703125 51.125 21.484375 
Q 51.125 28.328125 47.28125 31.5625 
Q 43.453125 34.8125 35.5 34.8125 
z
M 19.671875 64.796875 
L 19.671875 42.828125 
L 34.28125 42.828125 
Q 41.5 42.828125 45.03125 45.53125 
Q 48.578125 48.25 48.578125 53.8125 
Q 48.578125 59.328125 45.03125 62.0625 
Q 41.5 64.796875 34.28125 64.796875 
z
M 9.8125 72.90625 
L 35.015625 72.90625 
Q 46.296875 72.90625 52.390625 68.21875 
Q 58.5 63.53125 58.5 54.890625 
Q 58.5 48.1875 55.375 44.234375 
Q 52.25 40.28125 46.1875 39.3125 
Q 53.46875 37.75 57.5 32.78125 
Q 61.53125 27.828125 61.53125 20.40625 
Q 61.53125 10.640625 54.890625 5.3125 
Q 48.25 0 35.984375 0 
L 9.8125 0 
z
" id="DejaVuSans-66"/>
      <path d="M 9.421875 54.6875 
L 18.40625 54.6875 
L 18.40625 0 
L 9.421875 0 
z
M 9.421875 75.984375 
L 18.40625 75.984375 
L 18.40625 64.59375 
L 9.421875 64.59375 
z
" id="DejaVuSans-105"/>
      <path d="M 52 44.1875 
Q 55.375 50.25 60.0625 53.125 
Q 64.75 56 71.09375 56 
Q 79.640625 56 84.28125 50.015625 
Q 88.921875 44.046875 88.921875 33.015625 
L 88.921875 0 
L 79.890625 0 
L 79.890625 32.71875 
Q 79.890625 40.578125 77.09375 44.375 
Q 74.3125 48.1875 68.609375 48.1875 
Q 61.625 48.1875 57.5625 43.546875 
Q 53.515625 38.921875 53.515625 30.90625 
L 53.515625 0 
L 44.484375 0 
L 44.484375 32.71875 
Q 44.484375 40.625 41.703125 44.40625 
Q 38.921875 48.1875 33.109375 48.1875 
Q 26.21875 48.1875 22.15625 43.53125 
Q 18.109375 38.875 18.109375 30.90625 
L 18.109375 0 
L 9.078125 0 
L 9.078125 54.6875 
L 18.109375 54.6875 
L 18.109375 46.1875 
Q 21.1875 51.21875 25.484375 53.609375 
Q 29.78125 56 35.6875 56 
Q 41.65625 56 45.828125 52.96875 
Q 50 49.953125 52 44.1875 
z
" id="DejaVuSans-109"/>
      <path d="M 30.609375 48.390625 
Q 23.390625 48.390625 19.1875 42.75 
Q 14.984375 37.109375 14.984375 27.296875 
Q 14.984375 17.484375 19.15625 11.84375 
Q 23.34375 6.203125 30.609375 6.203125 
Q 37.796875 6.203125 41.984375 11.859375 
Q 46.1875 17.53125 46.1875 27.296875 
Q 46.1875 37.015625 41.984375 42.703125 
Q 37.796875 48.390625 30.609375 48.390625 
z
M 30.609375 56 
Q 42.328125 56 49.015625 48.375 
Q 55.71875 40.765625 55.71875 27.296875 
Q 55.71875 13.875 49.015625 6.21875 
Q 42.328125 -1.421875 30.609375 -1.421875 
Q 18.84375 -1.421875 12.171875 6.21875 
Q 5.515625 13.875 5.515625 27.296875 
Q 5.515625 40.765625 12.171875 48.375 
Q 18.84375 56 30.609375 56 
z
" id="DejaVuSans-111"/>
      <path d="M 45.40625 46.390625 
L 45.40625 75.984375 
L 54.390625 75.984375 
L 54.390625 0 
L 45.40625 0 
L 45.40625 8.203125 
Q 42.578125 3.328125 38.25 0.953125 
Q 33.9375 -1.421875 27.875 -1.421875 
Q 17.96875 -1.421875 11.734375 6.484375 
Q 5.515625 14.40625 5.515625 27.296875 
Q 5.515625 40.1875 11.734375 48.09375 
Q 17.96875 56 27.875 56 
Q 33.9375 56 38.25 53.625 
Q 42.578125 51.265625 45.40625 46.390625 
z
M 14.796875 27.296875 
Q 14.796875 17.390625 18.875 11.75 
Q 22.953125 6.109375 30.078125 6.109375 
Q 37.203125 6.109375 41.296875 11.75 
Q 45.40625 17.390625 45.40625 27.296875 
Q 45.40625 37.203125 41.296875 42.84375 
Q 37.203125 48.484375 30.078125 48.484375 
Q 22.953125 48.484375 18.875 42.84375 
Q 14.796875 37.203125 14.796875 27.296875 
z
" id="DejaVuSans-100"/>
      <path d="M 34.28125 27.484375 
Q 23.390625 27.484375 19.1875 25 
Q 14.984375 22.515625 14.984375 16.5 
Q 14.984375 11.71875 18.140625 8.90625 
Q 21.296875 6.109375 26.703125 6.109375 
Q 34.1875 6.109375 38.703125 11.40625 
Q 43.21875 16.703125 43.21875 25.484375 
L 43.21875 27.484375 
z
M 52.203125 31.203125 
L 52.203125 0 
L 43.21875 0 
L 43.21875 8.296875 
Q 40.140625 3.328125 35.546875 0.953125 
Q 30.953125 -1.421875 24.3125 -1.421875 
Q 15.921875 -1.421875 10.953125 3.296875 
Q 6 8.015625 6 15.921875 
Q 6 25.140625 12.171875 29.828125 
Q 18.359375 34.515625 30.609375 34.515625 
L 43.21875 34.515625 
L 43.21875 35.40625 
Q 43.21875 41.609375 39.140625 45 
Q 35.0625 48.390625 27.6875 48.390625 
Q 23 48.390625 18.546875 47.265625 
Q 14.109375 46.140625 10.015625 43.890625 
L 10.015625 52.203125 
Q 14.9375 54.109375 19.578125 55.046875 
Q 24.21875 56 28.609375 56 
Q 40.484375 56 46.34375 49.84375 
Q 52.203125 43.703125 52.203125 31.203125 
z
" id="DejaVuSans-97"/>
      <path d="M 9.421875 75.984375 
L 18.40625 75.984375 
L 18.40625 0 
L 9.421875 0 
z
" id="DejaVuSans-108"/>
      <path d="M 18.3125 70.21875 
L 18.3125 54.6875 
L 36.8125 54.6875 
L 36.8125 47.703125 
L 18.3125 47.703125 
L 18.3125 18.015625 
Q 18.3125 11.328125 20.140625 9.421875 
Q 21.96875 7.515625 27.59375 7.515625 
L 36.8125 7.515625 
L 36.8125 0 
L 27.59375 0 
Q 17.1875 0 13.234375 3.875 
Q 9.28125 7.765625 9.28125 18.015625 
L 9.28125 47.703125 
L 2.6875 47.703125 
L 2.6875 54.6875 
L 9.28125 54.6875 
L 9.28125 70.21875 
z
" id="DejaVuSans-116"/>
      <path d="M 32.171875 -5.078125 
Q 28.375 -14.84375 24.75 -17.8125 
Q 21.140625 -20.796875 15.09375 -20.796875 
L 7.90625 -20.796875 
L 7.90625 -13.28125 
L 13.1875 -13.28125 
Q 16.890625 -13.28125 18.9375 -11.515625 
Q 21 -9.765625 23.484375 -3.21875 
L 25.09375 0.875 
L 2.984375 54.6875 
L 12.5 54.6875 
L 29.59375 11.921875 
L 46.6875 54.6875 
L 56.203125 54.6875 
z
" id="DejaVuSans-121"/>
      <path id="DejaVuSans-32"/>
     </defs>
     <g transform="translate(243.40625 410.93)scale(0.28 -0.28)">
      <use xlink:href="#DejaVuSans-66"/>
      <use x="68.603516" xlink:href="#DejaVuSans-105"/>
      <use x="96.386719" xlink:href="#DejaVuSans-109"/>
      <use x="193.798828" xlink:href="#DejaVuSans-111"/>
      <use x="254.980469" xlink:href="#DejaVuSans-100"/>
      <use x="318.457031" xlink:href="#DejaVuSans-97"/>
      <use x="379.736328" xlink:href="#DejaVuSans-108"/>
      <use x="407.519531" xlink:href="#DejaVuSans-105"/>
      <use x="435.302734" xlink:href="#DejaVuSans-116"/>
      <use x="474.511719" xlink:href="#DejaVuSans-121"/>
      <use x="533.691406" xlink:href="#DejaVuSans-32"/>
      <use x="565.478516" xlink:href="#DejaVuSans-108"/>
      <use x="593.261719" xlink:href="#DejaVuSans-105"/>
      <use x="621.044922" xlink:href="#DejaVuSans-109"/>
      <use x="718.457031" xlink:href="#DejaVuSans-105"/>
      <use x="746.240234" xlink:href="#DejaVuSans-116"/>
     </g>
    </g>
   </g>
   <g id="matplotlib.axis_2">
    <g id="ytick_1">
     <g id="line2d_6">
      <defs>
       <path d="M 0 0 
L -5 0 
" id="ma7539beb27" style="stroke:#000000;stroke-width:0.8;"/>
      </defs>
      <g>
       <use style="stroke:#000000;stroke-width:0.8;" x="91.3275" xlink:href="#ma7539beb27" y="335.71108"/>
      </g>
     </g>
     <g id="text_7">
      <!-- 0.0 -->
      <g transform="translate(38.29875 346.348892)scale(0.28 -0.28)">
       <use xlink:href="#DejaVuSans-48"/>
       <use x="63.623047" xlink:href="#DejaVuSans-46"/>
       <use x="95.410156" xlink:href="#DejaVuSans-48"/>
      </g>
     </g>
    </g>
    <g id="ytick_2">
     <g id="line2d_7">
      <g>
       <use style="stroke:#000000;stroke-width:0.8;" x="91.3275" xlink:href="#ma7539beb27" y="192.265625"/>
      </g>
     </g>
     <g id="text_8">
      <!-- 0.5 -->
      <defs>
       <path d="M 10.796875 72.90625 
L 49.515625 72.90625 
L 49.515625 64.59375 
L 19.828125 64.59375 
L 19.828125 46.734375 
Q 21.96875 47.46875 24.109375 47.828125 
Q 26.265625 48.1875 28.421875 48.1875 
Q 40.625 48.1875 47.75 41.5 
Q 54.890625 34.8125 54.890625 23.390625 
Q 54.890625 11.625 47.5625 5.09375 
Q 40.234375 -1.421875 26.90625 -1.421875 
Q 22.3125 -1.421875 17.546875 -0.640625 
Q 12.796875 0.140625 7.71875 1.703125 
L 7.71875 11.625 
Q 12.109375 9.234375 16.796875 8.0625 
Q 21.484375 6.890625 26.703125 6.890625 
Q 35.15625 6.890625 40.078125 11.328125 
Q 45.015625 15.765625 45.015625 23.390625 
Q 45.015625 31 40.078125 35.4375 
Q 35.15625 39.890625 26.703125 39.890625 
Q 22.75 39.890625 18.8125 39.015625 
Q 14.890625 38.140625 10.796875 36.28125 
z
" id="DejaVuSans-53"/>
      </defs>
      <g transform="translate(38.29875 202.903437)scale(0.28 -0.28)">
       <use xlink:href="#DejaVuSans-48"/>
       <use x="63.623047" xlink:href="#DejaVuSans-46"/>
       <use x="95.410156" xlink:href="#DejaVuSans-53"/>
      </g>
     </g>
    </g>
    <g id="ytick_3">
     <g id="line2d_8">
      <g>
       <use style="stroke:#000000;stroke-width:0.8;" x="91.3275" xlink:href="#ma7539beb27" y="48.82017"/>
      </g>
     </g>
     <g id="text_9">
      <!-- 1.0 -->
      <g transform="translate(38.29875 59.457983)scale(0.28 -0.28)">
       <use xlink:href="#DejaVuSans-49"/>
       <use x="63.623047" xlink:href="#DejaVuSans-46"/>
       <use x="95.410156" xlink:href="#DejaVuSans-48"/>
      </g>
     </g>
    </g>
    <g id="text_10">
     <!-- Percent bimodal cells -->
     <defs>
      <path d="M 19.671875 64.796875 
L 19.671875 37.40625 
L 32.078125 37.40625 
Q 38.96875 37.40625 42.71875 40.96875 
Q 46.484375 44.53125 46.484375 51.125 
Q 46.484375 57.671875 42.71875 61.234375 
Q 38.96875 64.796875 32.078125 64.796875 
z
M 9.8125 72.90625 
L 32.078125 72.90625 
Q 44.34375 72.90625 50.609375 67.359375 
Q 56.890625 61.8125 56.890625 51.125 
Q 56.890625 40.328125 50.609375 34.8125 
Q 44.34375 29.296875 32.078125 29.296875 
L 19.671875 29.296875 
L 19.671875 0 
L 9.8125 0 
z
" id="DejaVuSans-80"/>
      <path d="M 56.203125 29.59375 
L 56.203125 25.203125 
L 14.890625 25.203125 
Q 15.484375 15.921875 20.484375 11.0625 
Q 25.484375 6.203125 34.421875 6.203125 
Q 39.59375 6.203125 44.453125 7.46875 
Q 49.3125 8.734375 54.109375 11.28125 
L 54.109375 2.78125 
Q 49.265625 0.734375 44.1875 -0.34375 
Q 39.109375 -1.421875 33.890625 -1.421875 
Q 20.796875 -1.421875 13.15625 6.1875 
Q 5.515625 13.8125 5.515625 26.8125 
Q 5.515625 40.234375 12.765625 48.109375 
Q 20.015625 56 32.328125 56 
Q 43.359375 56 49.78125 48.890625 
Q 56.203125 41.796875 56.203125 29.59375 
z
M 47.21875 32.234375 
Q 47.125 39.59375 43.09375 43.984375 
Q 39.0625 48.390625 32.421875 48.390625 
Q 24.90625 48.390625 20.390625 44.140625 
Q 15.875 39.890625 15.1875 32.171875 
z
" id="DejaVuSans-101"/>
      <path d="M 41.109375 46.296875 
Q 39.59375 47.171875 37.8125 47.578125 
Q 36.03125 48 33.890625 48 
Q 26.265625 48 22.1875 43.046875 
Q 18.109375 38.09375 18.109375 28.8125 
L 18.109375 0 
L 9.078125 0 
L 9.078125 54.6875 
L 18.109375 54.6875 
L 18.109375 46.1875 
Q 20.953125 51.171875 25.484375 53.578125 
Q 30.03125 56 36.53125 56 
Q 37.453125 56 38.578125 55.875 
Q 39.703125 55.765625 41.0625 55.515625 
z
" id="DejaVuSans-114"/>
      <path d="M 48.78125 52.59375 
L 48.78125 44.1875 
Q 44.96875 46.296875 41.140625 47.34375 
Q 37.3125 48.390625 33.40625 48.390625 
Q 24.65625 48.390625 19.8125 42.84375 
Q 14.984375 37.3125 14.984375 27.296875 
Q 14.984375 17.28125 19.8125 11.734375 
Q 24.65625 6.203125 33.40625 6.203125 
Q 37.3125 6.203125 41.140625 7.25 
Q 44.96875 8.296875 48.78125 10.40625 
L 48.78125 2.09375 
Q 45.015625 0.34375 40.984375 -0.53125 
Q 36.96875 -1.421875 32.421875 -1.421875 
Q 20.0625 -1.421875 12.78125 6.34375 
Q 5.515625 14.109375 5.515625 27.296875 
Q 5.515625 40.671875 12.859375 48.328125 
Q 20.21875 56 33.015625 56 
Q 37.15625 56 41.109375 55.140625 
Q 45.0625 54.296875 48.78125 52.59375 
z
" id="DejaVuSans-99"/>
      <path d="M 54.890625 33.015625 
L 54.890625 0 
L 45.90625 0 
L 45.90625 32.71875 
Q 45.90625 40.484375 42.875 44.328125 
Q 39.84375 48.1875 33.796875 48.1875 
Q 26.515625 48.1875 22.3125 43.546875 
Q 18.109375 38.921875 18.109375 30.90625 
L 18.109375 0 
L 9.078125 0 
L 9.078125 54.6875 
L 18.109375 54.6875 
L 18.109375 46.1875 
Q 21.34375 51.125 25.703125 53.5625 
Q 30.078125 56 35.796875 56 
Q 45.21875 56 50.046875 50.171875 
Q 54.890625 44.34375 54.890625 33.015625 
z
" id="DejaVuSans-110"/>
      <path d="M 48.6875 27.296875 
Q 48.6875 37.203125 44.609375 42.84375 
Q 40.53125 48.484375 33.40625 48.484375 
Q 26.265625 48.484375 22.1875 42.84375 
Q 18.109375 37.203125 18.109375 27.296875 
Q 18.109375 17.390625 22.1875 11.75 
Q 26.265625 6.109375 33.40625 6.109375 
Q 40.53125 6.109375 44.609375 11.75 
Q 48.6875 17.390625 48.6875 27.296875 
z
M 18.109375 46.390625 
Q 20.953125 51.265625 25.265625 53.625 
Q 29.59375 56 35.59375 56 
Q 45.5625 56 51.78125 48.09375 
Q 58.015625 40.1875 58.015625 27.296875 
Q 58.015625 14.40625 51.78125 6.484375 
Q 45.5625 -1.421875 35.59375 -1.421875 
Q 29.59375 -1.421875 25.265625 0.953125 
Q 20.953125 3.328125 18.109375 8.203125 
L 18.109375 0 
L 9.078125 0 
L 9.078125 75.984375 
L 18.109375 75.984375 
z
" id="DejaVuSans-98"/>
      <path d="M 44.28125 53.078125 
L 44.28125 44.578125 
Q 40.484375 46.53125 36.375 47.5 
Q 32.28125 48.484375 27.875 48.484375 
Q 21.1875 48.484375 17.84375 46.4375 
Q 14.5 44.390625 14.5 40.28125 
Q 14.5 37.15625 16.890625 35.375 
Q 19.28125 33.59375 26.515625 31.984375 
L 29.59375 31.296875 
Q 39.15625 29.25 43.1875 25.515625 
Q 47.21875 21.78125 47.21875 15.09375 
Q 47.21875 7.46875 41.1875 3.015625 
Q 35.15625 -1.421875 24.609375 -1.421875 
Q 20.21875 -1.421875 15.453125 -0.5625 
Q 10.6875 0.296875 5.421875 2 
L 5.421875 11.28125 
Q 10.40625 8.6875 15.234375 7.390625 
Q 20.0625 6.109375 24.8125 6.109375 
Q 31.15625 6.109375 34.5625 8.28125 
Q 37.984375 10.453125 37.984375 14.40625 
Q 37.984375 18.0625 35.515625 20.015625 
Q 33.0625 21.96875 24.703125 23.78125 
L 21.578125 24.515625 
Q 13.234375 26.265625 9.515625 29.90625 
Q 5.8125 33.546875 5.8125 39.890625 
Q 5.8125 47.609375 11.28125 51.796875 
Q 16.75 56 26.8125 56 
Q 31.78125 56 36.171875 55.265625 
Q 40.578125 54.546875 44.28125 53.078125 
z
" id="DejaVuSans-115"/>
     </defs>
     <g transform="translate(28.475625 342.35875)rotate(-90)scale(0.28 -0.28)">
      <use xlink:href="#DejaVuSans-80"/>
      <use x="60.255859" xlink:href="#DejaVuSans-101"/>
      <use x="121.779297" xlink:href="#DejaVuSans-114"/>
      <use x="162.861328" xlink:href="#DejaVuSans-99"/>
      <use x="217.841797" xlink:href="#DejaVuSans-101"/>
      <use x="279.365234" xlink:href="#DejaVuSans-110"/>
      <use x="342.744141" xlink:href="#DejaVuSans-116"/>
      <use x="381.953125" xlink:href="#DejaVuSans-32"/>
      <use x="413.740234" xlink:href="#DejaVuSans-98"/>
      <use x="477.216797" xlink:href="#DejaVuSans-105"/>
      <use x="505" xlink:href="#DejaVuSans-109"/>
      <use x="602.412109" xlink:href="#DejaVuSans-111"/>
      <use x="663.59375" xlink:href="#DejaVuSans-100"/>
      <use x="727.070312" xlink:href="#DejaVuSans-97"/>
      <use x="788.349609" xlink:href="#DejaVuSans-108"/>
      <use x="816.132812" xlink:href="#DejaVuSans-32"/>
      <use x="847.919922" xlink:href="#DejaVuSans-99"/>
      <use x="902.900391" xlink:href="#DejaVuSans-101"/>
      <use x="964.423828" xlink:href="#DejaVuSans-108"/>
      <use x="992.207031" xlink:href="#DejaVuSans-108"/>
      <use x="1019.990234" xlink:href="#DejaVuSans-115"/>
     </g>
    </g>
   </g>
   <g id="line2d_9">
    <path clip-path="url(#p4bfef115de)" d="M 102.557786 208.778845 
L 102.557786 324.615851 
" style="fill:none;stroke:#000000;stroke-linecap:square;"/>
   </g>
   <g id="line2d_10">
    <path clip-path="url(#p4bfef115de)" d="M 102.557786 130.445096 
L 102.557786 70.41411 
" style="fill:none;stroke:#000000;stroke-linecap:square;"/>
   </g>
   <g id="line2d_11">
    <path clip-path="url(#p4bfef115de)" d="M 101.434757 324.615851 
L 103.680814 324.615851 
" style="fill:none;stroke:#000000;stroke-linecap:square;"/>
   </g>
   <g id="line2d_12">
    <path clip-path="url(#p4bfef115de)" d="M 101.434757 70.41411 
L 103.680814 70.41411 
" style="fill:none;stroke:#000000;stroke-linecap:square;"/>
   </g>
   <g id="line2d_13">
    <path clip-path="url(#p4bfef115de)" d="M 154.965786 205.393058 
L 154.965786 316.898561 
" style="fill:none;stroke:#000000;stroke-linecap:square;"/>
   </g>
   <g id="line2d_14">
    <path clip-path="url(#p4bfef115de)" d="M 154.965786 130.345643 
L 154.965786 70.41411 
" style="fill:none;stroke:#000000;stroke-linecap:square;"/>
   </g>
   <g id="line2d_15">
    <path clip-path="url(#p4bfef115de)" d="M 153.842757 316.898561 
L 156.088814 316.898561 
" style="fill:none;stroke:#000000;stroke-linecap:square;"/>
   </g>
   <g id="line2d_16">
    <path clip-path="url(#p4bfef115de)" d="M 153.842757 70.41411 
L 156.088814 70.41411 
" style="fill:none;stroke:#000000;stroke-linecap:square;"/>
   </g>
   <g id="line2d_17">
    <path clip-path="url(#p4bfef115de)" d="M 207.373786 196.928469 
L 207.373786 297.245259 
" style="fill:none;stroke:#000000;stroke-linecap:square;"/>
   </g>
   <g id="line2d_18">
    <path clip-path="url(#p4bfef115de)" d="M 207.373786 127.784397 
L 207.373786 70.41411 
" style="fill:none;stroke:#000000;stroke-linecap:square;"/>
   </g>
   <g id="line2d_19">
    <path clip-path="url(#p4bfef115de)" d="M 206.250757 297.245259 
L 208.496814 297.245259 
" style="fill:none;stroke:#000000;stroke-linecap:square;"/>
   </g>
   <g id="line2d_20">
    <path clip-path="url(#p4bfef115de)" d="M 206.250757 70.41411 
L 208.496814 70.41411 
" style="fill:none;stroke:#000000;stroke-linecap:square;"/>
   </g>
   <g id="line2d_21">
    <path clip-path="url(#p4bfef115de)" d="M 259.781786 185.875044 
L 259.781786 279.926736 
" style="fill:none;stroke:#000000;stroke-linecap:square;"/>
   </g>
   <g id="line2d_22">
    <path clip-path="url(#p4bfef115de)" d="M 259.781786 119.878624 
L 259.781786 67.329261 
" style="fill:none;stroke:#000000;stroke-linecap:square;"/>
   </g>
   <g id="line2d_23">
    <path clip-path="url(#p4bfef115de)" d="M 258.658757 279.926736 
L 260.904814 279.926736 
" style="fill:none;stroke:#000000;stroke-linecap:square;"/>
   </g>
   <g id="line2d_24">
    <path clip-path="url(#p4bfef115de)" d="M 258.658757 67.329261 
L 260.904814 67.329261 
" style="fill:none;stroke:#000000;stroke-linecap:square;"/>
   </g>
   <g id="line2d_25">
    <path clip-path="url(#p4bfef115de)" d="M 312.189786 165.708144 
L 312.189786 247.184742 
" style="fill:none;stroke:#000000;stroke-linecap:square;"/>
   </g>
   <g id="line2d_26">
    <path clip-path="url(#p4bfef115de)" d="M 312.189786 107.529009 
L 312.189786 64.244413 
" style="fill:none;stroke:#000000;stroke-linecap:square;"/>
   </g>
   <g id="line2d_27">
    <path clip-path="url(#p4bfef115de)" d="M 311.066757 247.184742 
L 313.312814 247.184742 
" style="fill:none;stroke:#000000;stroke-linecap:square;"/>
   </g>
   <g id="line2d_28">
    <path clip-path="url(#p4bfef115de)" d="M 311.066757 64.244413 
L 313.312814 64.244413 
" style="fill:none;stroke:#000000;stroke-linecap:square;"/>
   </g>
   <g id="line2d_29">
    <path clip-path="url(#p4bfef115de)" d="M 364.597786 149.347087 
L 364.597786 215.182946 
" style="fill:none;stroke:#000000;stroke-linecap:square;"/>
   </g>
   <g id="line2d_30">
    <path clip-path="url(#p4bfef115de)" d="M 364.597786 103.035775 
L 364.597786 64.244413 
" style="fill:none;stroke:#000000;stroke-linecap:square;"/>
   </g>
   <g id="line2d_31">
    <path clip-path="url(#p4bfef115de)" d="M 363.474757 215.182946 
L 365.720814 215.182946 
" style="fill:none;stroke:#000000;stroke-linecap:square;"/>
   </g>
   <g id="line2d_32">
    <path clip-path="url(#p4bfef115de)" d="M 363.474757 64.244413 
L 365.720814 64.244413 
" style="fill:none;stroke:#000000;stroke-linecap:square;"/>
   </g>
   <g id="line2d_33">
    <path clip-path="url(#p4bfef115de)" d="M 417.005786 135.893372 
L 417.005786 187.017621 
" style="fill:none;stroke:#000000;stroke-linecap:square;"/>
   </g>
   <g id="line2d_34">
    <path clip-path="url(#p4bfef115de)" d="M 417.005786 97.697881 
L 417.005786 61.159564 
" style="fill:none;stroke:#000000;stroke-linecap:square;"/>
   </g>
   <g id="line2d_35">
    <path clip-path="url(#p4bfef115de)" d="M 415.882757 187.017621 
L 418.128814 187.017621 
" style="fill:none;stroke:#000000;stroke-linecap:square;"/>
   </g>
   <g id="line2d_36">
    <path clip-path="url(#p4bfef115de)" d="M 415.882757 61.159564 
L 418.128814 61.159564 
" style="fill:none;stroke:#000000;stroke-linecap:square;"/>
   </g>
   <g id="line2d_37">
    <path clip-path="url(#p4bfef115de)" d="M 469.413786 104.884741 
L 469.413786 149.792949 
" style="fill:none;stroke:#000000;stroke-linecap:square;"/>
   </g>
   <g id="line2d_38">
    <path clip-path="url(#p4bfef115de)" d="M 469.413786 74.682087 
L 469.413786 51.93855 
" style="fill:none;stroke:#000000;stroke-linecap:square;"/>
   </g>
   <g id="line2d_39">
    <path clip-path="url(#p4bfef115de)" d="M 468.290757 149.792949 
L 470.536814 149.792949 
" style="fill:none;stroke:#000000;stroke-linecap:square;"/>
   </g>
   <g id="line2d_40">
    <path clip-path="url(#p4bfef115de)" d="M 468.290757 51.93855 
L 470.536814 51.93855 
" style="fill:none;stroke:#000000;stroke-linecap:square;"/>
   </g>
   <g id="line2d_41">
    <path clip-path="url(#p4bfef115de)" d="M 521.821786 84.366784 
L 521.821786 112.573706 
" style="fill:none;stroke:#000000;stroke-linecap:square;"/>
   </g>
   <g id="line2d_42">
    <path clip-path="url(#p4bfef115de)" d="M 521.821786 65.087349 
L 521.821786 51.336757 
" style="fill:none;stroke:#000000;stroke-linecap:square;"/>
   </g>
   <g id="line2d_43">
    <path clip-path="url(#p4bfef115de)" d="M 520.698757 112.573706 
L 522.944814 112.573706 
" style="fill:none;stroke:#000000;stroke-linecap:square;"/>
   </g>
   <g id="line2d_44">
    <path clip-path="url(#p4bfef115de)" d="M 520.698757 51.336757 
L 522.944814 51.336757 
" style="fill:none;stroke:#000000;stroke-linecap:square;"/>
   </g>
   <g id="line2d_45">
    <path clip-path="url(#p4bfef115de)" d="M 574.229786 71.158573 
L 574.229786 87.634823 
" style="fill:none;stroke:#000000;stroke-linecap:square;"/>
   </g>
   <g id="line2d_46">
    <path clip-path="url(#p4bfef115de)" d="M 574.229786 60.059807 
L 574.229786 48.82017 
" style="fill:none;stroke:#000000;stroke-linecap:square;"/>
   </g>
   <g id="line2d_47">
    <path clip-path="url(#p4bfef115de)" d="M 573.106757 87.634823 
L 575.352814 87.634823 
" style="fill:none;stroke:#000000;stroke-linecap:square;"/>
   </g>
   <g id="line2d_48">
    <path clip-path="url(#p4bfef115de)" d="M 573.106757 48.82017 
L 575.352814 48.82017 
" style="fill:none;stroke:#000000;stroke-linecap:square;"/>
   </g>
   <g id="line2d_49">
    <path clip-path="url(#p4bfef115de)" d="M 110.044643 335.71108 
L 110.044643 335.71108 
" style="fill:none;stroke:#000000;stroke-linecap:square;"/>
   </g>
   <g id="line2d_50">
    <path clip-path="url(#p4bfef115de)" d="M 110.044643 317.958707 
L 110.044643 300.219421 
" style="fill:none;stroke:#000000;stroke-linecap:square;"/>
   </g>
   <g id="line2d_51">
    <path clip-path="url(#p4bfef115de)" d="M 108.921614 335.71108 
L 111.167671 335.71108 
" style="fill:none;stroke:#000000;stroke-linecap:square;"/>
   </g>
   <g id="line2d_52">
    <path clip-path="url(#p4bfef115de)" d="M 108.921614 300.219421 
L 111.167671 300.219421 
" style="fill:none;stroke:#000000;stroke-linecap:square;"/>
   </g>
   <g id="line2d_53">
    <path clip-path="url(#p4bfef115de)" d="M 162.452643 333.010885 
L 162.452643 335.71108 
" style="fill:none;stroke:#000000;stroke-linecap:square;"/>
   </g>
   <g id="line2d_54">
    <path clip-path="url(#p4bfef115de)" d="M 162.452643 310.480555 
L 162.452643 300.478863 
" style="fill:none;stroke:#000000;stroke-linecap:square;"/>
   </g>
   <g id="line2d_55">
    <path clip-path="url(#p4bfef115de)" d="M 161.329614 335.71108 
L 163.575671 335.71108 
" style="fill:none;stroke:#000000;stroke-linecap:square;"/>
   </g>
   <g id="line2d_56">
    <path clip-path="url(#p4bfef115de)" d="M 161.329614 300.478863 
L 163.575671 300.478863 
" style="fill:none;stroke:#000000;stroke-linecap:square;"/>
   </g>
   <g id="line2d_57">
    <path clip-path="url(#p4bfef115de)" d="M 214.860643 325.328625 
L 214.860643 335.71108 
" style="fill:none;stroke:#000000;stroke-linecap:square;"/>
   </g>
   <g id="line2d_58">
    <path clip-path="url(#p4bfef115de)" d="M 214.860643 279.76028 
L 214.860643 220.363188 
" style="fill:none;stroke:#000000;stroke-linecap:square;"/>
   </g>
   <g id="line2d_59">
    <path clip-path="url(#p4bfef115de)" d="M 213.737614 335.71108 
L 215.983671 335.71108 
" style="fill:none;stroke:#000000;stroke-linecap:square;"/>
   </g>
   <g id="line2d_60">
    <path clip-path="url(#p4bfef115de)" d="M 213.737614 220.363188 
L 215.983671 220.363188 
" style="fill:none;stroke:#000000;stroke-linecap:square;"/>
   </g>
   <g id="line2d_61">
    <path clip-path="url(#p4bfef115de)" d="M 267.268643 319.845694 
L 267.268643 333.504226 
" style="fill:none;stroke:#000000;stroke-linecap:square;"/>
   </g>
   <g id="line2d_62">
    <path clip-path="url(#p4bfef115de)" d="M 267.268643 243.322592 
L 267.268643 173.040976 
" style="fill:none;stroke:#000000;stroke-linecap:square;"/>
   </g>
   <g id="line2d_63">
    <path clip-path="url(#p4bfef115de)" d="M 266.145614 333.504226 
L 268.391671 333.504226 
" style="fill:none;stroke:#000000;stroke-linecap:square;"/>
   </g>
   <g id="line2d_64">
    <path clip-path="url(#p4bfef115de)" d="M 266.145614 173.040976 
L 268.391671 173.040976 
" style="fill:none;stroke:#000000;stroke-linecap:square;"/>
   </g>
   <g id="line2d_65">
    <path clip-path="url(#p4bfef115de)" d="M 319.676643 301.449597 
L 319.676643 322.90345 
" style="fill:none;stroke:#000000;stroke-linecap:square;"/>
   </g>
   <g id="line2d_66">
    <path clip-path="url(#p4bfef115de)" d="M 319.676643 195.229374 
L 319.676643 143.464594 
" style="fill:none;stroke:#000000;stroke-linecap:square;"/>
   </g>
   <g id="line2d_67">
    <path clip-path="url(#p4bfef115de)" d="M 318.553614 322.90345 
L 320.799671 322.90345 
" style="fill:none;stroke:#000000;stroke-linecap:square;"/>
   </g>
   <g id="line2d_68">
    <path clip-path="url(#p4bfef115de)" d="M 318.553614 143.464594 
L 320.799671 143.464594 
" style="fill:none;stroke:#000000;stroke-linecap:square;"/>
   </g>
   <g id="line2d_69">
    <path clip-path="url(#p4bfef115de)" d="M 372.084643 272.070582 
L 372.084643 303.32017 
" style="fill:none;stroke:#000000;stroke-linecap:square;"/>
   </g>
   <g id="line2d_70">
    <path clip-path="url(#p4bfef115de)" d="M 372.084643 153.295771 
L 372.084643 110.930573 
" style="fill:none;stroke:#000000;stroke-linecap:square;"/>
   </g>
   <g id="line2d_71">
    <path clip-path="url(#p4bfef115de)" d="M 370.961614 303.32017 
L 373.207671 303.32017 
" style="fill:none;stroke:#000000;stroke-linecap:square;"/>
   </g>
   <g id="line2d_72">
    <path clip-path="url(#p4bfef115de)" d="M 370.961614 110.930573 
L 373.207671 110.930573 
" style="fill:none;stroke:#000000;stroke-linecap:square;"/>
   </g>
   <g id="line2d_73">
    <path clip-path="url(#p4bfef115de)" d="M 424.492643 243.247542 
L 424.492643 277.87017 
" style="fill:none;stroke:#000000;stroke-linecap:square;"/>
   </g>
   <g id="line2d_74">
    <path clip-path="url(#p4bfef115de)" d="M 424.492643 130.434122 
L 424.492643 96.142382 
" style="fill:none;stroke:#000000;stroke-linecap:square;"/>
   </g>
   <g id="line2d_75">
    <path clip-path="url(#p4bfef115de)" d="M 423.369614 277.87017 
L 425.615671 277.87017 
" style="fill:none;stroke:#000000;stroke-linecap:square;"/>
   </g>
   <g id="line2d_76">
    <path clip-path="url(#p4bfef115de)" d="M 423.369614 96.142382 
L 425.615671 96.142382 
" style="fill:none;stroke:#000000;stroke-linecap:square;"/>
   </g>
   <g id="line2d_77">
    <path clip-path="url(#p4bfef115de)" d="M 476.900643 198.540907 
L 476.900643 236.224716 
" style="fill:none;stroke:#000000;stroke-linecap:square;"/>
   </g>
   <g id="line2d_78">
    <path clip-path="url(#p4bfef115de)" d="M 476.900643 105.936238 
L 476.900643 66.750852 
" style="fill:none;stroke:#000000;stroke-linecap:square;"/>
   </g>
   <g id="line2d_79">
    <path clip-path="url(#p4bfef115de)" d="M 475.777614 236.224716 
L 478.023671 236.224716 
" style="fill:none;stroke:#000000;stroke-linecap:square;"/>
   </g>
   <g id="line2d_80">
    <path clip-path="url(#p4bfef115de)" d="M 475.777614 66.750852 
L 478.023671 66.750852 
" style="fill:none;stroke:#000000;stroke-linecap:square;"/>
   </g>
   <g id="line2d_81">
    <path clip-path="url(#p4bfef115de)" d="M 529.308643 151.359211 
L 529.308643 178.383807 
" style="fill:none;stroke:#000000;stroke-linecap:square;"/>
   </g>
   <g id="line2d_82">
    <path clip-path="url(#p4bfef115de)" d="M 529.308643 75.350394 
L 529.308643 60.411722 
" style="fill:none;stroke:#000000;stroke-linecap:square;"/>
   </g>
   <g id="line2d_83">
    <path clip-path="url(#p4bfef115de)" d="M 528.185614 178.383807 
L 530.431671 178.383807 
" style="fill:none;stroke:#000000;stroke-linecap:square;"/>
   </g>
   <g id="line2d_84">
    <path clip-path="url(#p4bfef115de)" d="M 528.185614 60.411722 
L 530.431671 60.411722 
" style="fill:none;stroke:#000000;stroke-linecap:square;"/>
   </g>
   <g id="line2d_85">
    <path clip-path="url(#p4bfef115de)" d="M 581.716643 99.106926 
L 581.716643 130.015711 
" style="fill:none;stroke:#000000;stroke-linecap:square;"/>
   </g>
   <g id="line2d_86">
    <path clip-path="url(#p4bfef115de)" d="M 581.716643 64.190941 
L 581.716643 53.562169 
" style="fill:none;stroke:#000000;stroke-linecap:square;"/>
   </g>
   <g id="line2d_87">
    <path clip-path="url(#p4bfef115de)" d="M 580.593614 130.015711 
L 582.839671 130.015711 
" style="fill:none;stroke:#000000;stroke-linecap:square;"/>
   </g>
   <g id="line2d_88">
    <path clip-path="url(#p4bfef115de)" d="M 580.593614 53.562169 
L 582.839671 53.562169 
" style="fill:none;stroke:#000000;stroke-linecap:square;"/>
   </g>
   <g id="line2d_89">
    <path clip-path="url(#p4bfef115de)" d="M 117.5315 283.549096 
L 117.5315 335.71108 
" style="fill:none;stroke:#000000;stroke-linecap:square;"/>
   </g>
   <g id="line2d_90">
    <path clip-path="url(#p4bfef115de)" d="M 117.5315 197.4504 
L 117.5315 101.832621 
" style="fill:none;stroke:#000000;stroke-linecap:square;"/>
   </g>
   <g id="line2d_91">
    <path clip-path="url(#p4bfef115de)" d="M 116.408471 335.71108 
L 118.654529 335.71108 
" style="fill:none;stroke:#000000;stroke-linecap:square;"/>
   </g>
   <g id="line2d_92">
    <path clip-path="url(#p4bfef115de)" d="M 116.408471 101.832621 
L 118.654529 101.832621 
" style="fill:none;stroke:#000000;stroke-linecap:square;"/>
   </g>
   <g id="line2d_93">
    <path clip-path="url(#p4bfef115de)" d="M 169.9395 276.35434 
L 169.9395 331.00795 
" style="fill:none;stroke:#000000;stroke-linecap:square;"/>
   </g>
   <g id="line2d_94">
    <path clip-path="url(#p4bfef115de)" d="M 169.9395 196.195637 
L 169.9395 101.832621 
" style="fill:none;stroke:#000000;stroke-linecap:square;"/>
   </g>
   <g id="line2d_95">
    <path clip-path="url(#p4bfef115de)" d="M 168.816471 331.00795 
L 171.062529 331.00795 
" style="fill:none;stroke:#000000;stroke-linecap:square;"/>
   </g>
   <g id="line2d_96">
    <path clip-path="url(#p4bfef115de)" d="M 168.816471 101.832621 
L 171.062529 101.832621 
" style="fill:none;stroke:#000000;stroke-linecap:square;"/>
   </g>
   <g id="line2d_97">
    <path clip-path="url(#p4bfef115de)" d="M 222.3475 264.759564 
L 222.3475 325.87482 
" style="fill:none;stroke:#000000;stroke-linecap:square;"/>
   </g>
   <g id="line2d_98">
    <path clip-path="url(#p4bfef115de)" d="M 222.3475 192.265625 
L 222.3475 101.832621 
" style="fill:none;stroke:#000000;stroke-linecap:square;"/>
   </g>
   <g id="line2d_99">
    <path clip-path="url(#p4bfef115de)" d="M 221.224471 325.87482 
L 223.470529 325.87482 
" style="fill:none;stroke:#000000;stroke-linecap:square;"/>
   </g>
   <g id="line2d_100">
    <path clip-path="url(#p4bfef115de)" d="M 221.224471 101.832621 
L 223.470529 101.832621 
" style="fill:none;stroke:#000000;stroke-linecap:square;"/>
   </g>
   <g id="line2d_101">
    <path clip-path="url(#p4bfef115de)" d="M 274.7555 243.730788 
L 274.7555 317.677937 
" style="fill:none;stroke:#000000;stroke-linecap:square;"/>
   </g>
   <g id="line2d_102">
    <path clip-path="url(#p4bfef115de)" d="M 274.7555 180.109231 
L 274.7555 98.714242 
" style="fill:none;stroke:#000000;stroke-linecap:square;"/>
   </g>
   <g id="line2d_103">
    <path clip-path="url(#p4bfef115de)" d="M 273.632471 317.677937 
L 275.878529 317.677937 
" style="fill:none;stroke:#000000;stroke-linecap:square;"/>
   </g>
   <g id="line2d_104">
    <path clip-path="url(#p4bfef115de)" d="M 273.632471 98.714242 
L 275.878529 98.714242 
" style="fill:none;stroke:#000000;stroke-linecap:square;"/>
   </g>
   <g id="line2d_105">
    <path clip-path="url(#p4bfef115de)" d="M 327.1635 216.384772 
L 327.1635 302.923547 
" style="fill:none;stroke:#000000;stroke-linecap:square;"/>
   </g>
   <g id="line2d_106">
    <path clip-path="url(#p4bfef115de)" d="M 327.1635 153.144137 
L 327.1635 94.519607 
" style="fill:none;stroke:#000000;stroke-linecap:square;"/>
   </g>
   <g id="line2d_107">
    <path clip-path="url(#p4bfef115de)" d="M 326.040471 302.923547 
L 328.286529 302.923547 
" style="fill:none;stroke:#000000;stroke-linecap:square;"/>
   </g>
   <g id="line2d_108">
    <path clip-path="url(#p4bfef115de)" d="M 326.040471 94.519607 
L 328.286529 94.519607 
" style="fill:none;stroke:#000000;stroke-linecap:square;"/>
   </g>
   <g id="line2d_109">
    <path clip-path="url(#p4bfef115de)" d="M 379.5715 192.265625 
L 379.5715 274.464706 
" style="fill:none;stroke:#000000;stroke-linecap:square;"/>
   </g>
   <g id="line2d_110">
    <path clip-path="url(#p4bfef115de)" d="M 379.5715 135.75681 
L 379.5715 91.719746 
" style="fill:none;stroke:#000000;stroke-linecap:square;"/>
   </g>
   <g id="line2d_111">
    <path clip-path="url(#p4bfef115de)" d="M 378.448471 274.464706 
L 380.694529 274.464706 
" style="fill:none;stroke:#000000;stroke-linecap:square;"/>
   </g>
   <g id="line2d_112">
    <path clip-path="url(#p4bfef115de)" d="M 378.448471 91.719746 
L 380.694529 91.719746 
" style="fill:none;stroke:#000000;stroke-linecap:square;"/>
   </g>
   <g id="line2d_113">
    <path clip-path="url(#p4bfef115de)" d="M 431.9795 172.43983 
L 431.9795 246.351616 
" style="fill:none;stroke:#000000;stroke-linecap:square;"/>
   </g>
   <g id="line2d_114">
    <path clip-path="url(#p4bfef115de)" d="M 431.9795 122.17296 
L 431.9795 89.804586 
" style="fill:none;stroke:#000000;stroke-linecap:square;"/>
   </g>
   <g id="line2d_115">
    <path clip-path="url(#p4bfef115de)" d="M 430.856471 246.351616 
L 433.102529 246.351616 
" style="fill:none;stroke:#000000;stroke-linecap:square;"/>
   </g>
   <g id="line2d_116">
    <path clip-path="url(#p4bfef115de)" d="M 430.856471 89.804586 
L 433.102529 89.804586 
" style="fill:none;stroke:#000000;stroke-linecap:square;"/>
   </g>
   <g id="line2d_117">
    <path clip-path="url(#p4bfef115de)" d="M 484.3875 138.135265 
L 484.3875 204.286194 
" style="fill:none;stroke:#000000;stroke-linecap:square;"/>
   </g>
   <g id="line2d_118">
    <path clip-path="url(#p4bfef115de)" d="M 484.3875 93.136652 
L 484.3875 61.293688 
" style="fill:none;stroke:#000000;stroke-linecap:square;"/>
   </g>
   <g id="line2d_119">
    <path clip-path="url(#p4bfef115de)" d="M 483.264471 204.286194 
L 485.510529 204.286194 
" style="fill:none;stroke:#000000;stroke-linecap:square;"/>
   </g>
   <g id="line2d_120">
    <path clip-path="url(#p4bfef115de)" d="M 483.264471 61.293688 
L 485.510529 61.293688 
" style="fill:none;stroke:#000000;stroke-linecap:square;"/>
   </g>
   <g id="line2d_121">
    <path clip-path="url(#p4bfef115de)" d="M 536.7955 103.353153 
L 536.7955 142.118027 
" style="fill:none;stroke:#000000;stroke-linecap:square;"/>
   </g>
   <g id="line2d_122">
    <path clip-path="url(#p4bfef115de)" d="M 536.7955 74.901162 
L 536.7955 58.175309 
" style="fill:none;stroke:#000000;stroke-linecap:square;"/>
   </g>
   <g id="line2d_123">
    <path clip-path="url(#p4bfef115de)" d="M 535.672471 142.118027 
L 537.918529 142.118027 
" style="fill:none;stroke:#000000;stroke-linecap:square;"/>
   </g>
   <g id="line2d_124">
    <path clip-path="url(#p4bfef115de)" d="M 535.672471 58.175309 
L 537.918529 58.175309 
" style="fill:none;stroke:#000000;stroke-linecap:square;"/>
   </g>
   <g id="line2d_125">
    <path clip-path="url(#p4bfef115de)" d="M 589.2035 80.477098 
L 589.2035 104.219794 
" style="fill:none;stroke:#000000;stroke-linecap:square;"/>
   </g>
   <g id="line2d_126">
    <path clip-path="url(#p4bfef115de)" d="M 589.2035 63.164716 
L 589.2035 54.989867 
" style="fill:none;stroke:#000000;stroke-linecap:square;"/>
   </g>
   <g id="line2d_127">
    <path clip-path="url(#p4bfef115de)" d="M 588.080471 104.219794 
L 590.326529 104.219794 
" style="fill:none;stroke:#000000;stroke-linecap:square;"/>
   </g>
   <g id="line2d_128">
    <path clip-path="url(#p4bfef115de)" d="M 588.080471 54.989867 
L 590.326529 54.989867 
" style="fill:none;stroke:#000000;stroke-linecap:square;"/>
   </g>
   <g id="line2d_129">
    <path clip-path="url(#p4bfef115de)" d="M 125.018357 312.468835 
L 125.018357 335.71108 
" style="fill:none;stroke:#000000;stroke-linecap:square;"/>
   </g>
   <g id="line2d_130">
    <path clip-path="url(#p4bfef115de)" d="M 125.018357 264.652452 
L 125.018357 216.624287 
" style="fill:none;stroke:#000000;stroke-linecap:square;"/>
   </g>
   <g id="line2d_131">
    <path clip-path="url(#p4bfef115de)" d="M 123.895329 335.71108 
L 126.141386 335.71108 
" style="fill:none;stroke:#000000;stroke-linecap:square;"/>
   </g>
   <g id="line2d_132">
    <path clip-path="url(#p4bfef115de)" d="M 123.895329 216.624287 
L 126.141386 216.624287 
" style="fill:none;stroke:#000000;stroke-linecap:square;"/>
   </g>
   <g id="line2d_133">
    <path clip-path="url(#p4bfef115de)" d="M 177.426357 311.637596 
L 177.426357 331.00795 
" style="fill:none;stroke:#000000;stroke-linecap:square;"/>
   </g>
   <g id="line2d_134">
    <path clip-path="url(#p4bfef115de)" d="M 177.426357 262.750687 
L 177.426357 205.798215 
" style="fill:none;stroke:#000000;stroke-linecap:square;"/>
   </g>
   <g id="line2d_135">
    <path clip-path="url(#p4bfef115de)" d="M 176.303329 331.00795 
L 178.549386 331.00795 
" style="fill:none;stroke:#000000;stroke-linecap:square;"/>
   </g>
   <g id="line2d_136">
    <path clip-path="url(#p4bfef115de)" d="M 176.303329 205.798215 
L 178.549386 205.798215 
" style="fill:none;stroke:#000000;stroke-linecap:square;"/>
   </g>
   <g id="line2d_137">
    <path clip-path="url(#p4bfef115de)" d="M 229.834357 301.975004 
L 229.834357 327.467088 
" style="fill:none;stroke:#000000;stroke-linecap:square;"/>
   </g>
   <g id="line2d_138">
    <path clip-path="url(#p4bfef115de)" d="M 229.834357 247.304317 
L 229.834357 167.906963 
" style="fill:none;stroke:#000000;stroke-linecap:square;"/>
   </g>
   <g id="line2d_139">
    <path clip-path="url(#p4bfef115de)" d="M 228.711329 327.467088 
L 230.957386 327.467088 
" style="fill:none;stroke:#000000;stroke-linecap:square;"/>
   </g>
   <g id="line2d_140">
    <path clip-path="url(#p4bfef115de)" d="M 228.711329 167.906963 
L 230.957386 167.906963 
" style="fill:none;stroke:#000000;stroke-linecap:square;"/>
   </g>
   <g id="line2d_141">
    <path clip-path="url(#p4bfef115de)" d="M 282.242357 276.944716 
L 282.242357 324.035287 
" style="fill:none;stroke:#000000;stroke-linecap:square;"/>
   </g>
   <g id="line2d_142">
    <path clip-path="url(#p4bfef115de)" d="M 282.242357 226.98776 
L 282.242357 169.764377 
" style="fill:none;stroke:#000000;stroke-linecap:square;"/>
   </g>
   <g id="line2d_143">
    <path clip-path="url(#p4bfef115de)" d="M 281.119329 324.035287 
L 283.365386 324.035287 
" style="fill:none;stroke:#000000;stroke-linecap:square;"/>
   </g>
   <g id="line2d_144">
    <path clip-path="url(#p4bfef115de)" d="M 281.119329 169.764377 
L 283.365386 169.764377 
" style="fill:none;stroke:#000000;stroke-linecap:square;"/>
   </g>
   <g id="line2d_145">
    <path clip-path="url(#p4bfef115de)" d="M 334.650357 254.703555 
L 334.650357 310.691524 
" style="fill:none;stroke:#000000;stroke-linecap:square;"/>
   </g>
   <g id="line2d_146">
    <path clip-path="url(#p4bfef115de)" d="M 334.650357 191.657805 
L 334.650357 108.363567 
" style="fill:none;stroke:#000000;stroke-linecap:square;"/>
   </g>
   <g id="line2d_147">
    <path clip-path="url(#p4bfef115de)" d="M 333.527329 310.691524 
L 335.773386 310.691524 
" style="fill:none;stroke:#000000;stroke-linecap:square;"/>
   </g>
   <g id="line2d_148">
    <path clip-path="url(#p4bfef115de)" d="M 333.527329 108.363567 
L 335.773386 108.363567 
" style="fill:none;stroke:#000000;stroke-linecap:square;"/>
   </g>
   <g id="line2d_149">
    <path clip-path="url(#p4bfef115de)" d="M 387.058357 228.851199 
L 387.058357 292.842323 
" style="fill:none;stroke:#000000;stroke-linecap:square;"/>
   </g>
   <g id="line2d_150">
    <path clip-path="url(#p4bfef115de)" d="M 387.058357 166.135035 
L 387.058357 97.537495 
" style="fill:none;stroke:#000000;stroke-linecap:square;"/>
   </g>
   <g id="line2d_151">
    <path clip-path="url(#p4bfef115de)" d="M 385.935329 292.842323 
L 388.181386 292.842323 
" style="fill:none;stroke:#000000;stroke-linecap:square;"/>
   </g>
   <g id="line2d_152">
    <path clip-path="url(#p4bfef115de)" d="M 385.935329 97.537495 
L 388.181386 97.537495 
" style="fill:none;stroke:#000000;stroke-linecap:square;"/>
   </g>
   <g id="line2d_153">
    <path clip-path="url(#p4bfef115de)" d="M 439.466357 201.116311 
L 439.466357 257.316471 
" style="fill:none;stroke:#000000;stroke-linecap:square;"/>
   </g>
   <g id="line2d_154">
    <path clip-path="url(#p4bfef115de)" d="M 439.466357 138.114103 
L 439.466357 83.24708 
" style="fill:none;stroke:#000000;stroke-linecap:square;"/>
   </g>
   <g id="line2d_155">
    <path clip-path="url(#p4bfef115de)" d="M 438.343329 257.316471 
L 440.589386 257.316471 
" style="fill:none;stroke:#000000;stroke-linecap:square;"/>
   </g>
   <g id="line2d_156">
    <path clip-path="url(#p4bfef115de)" d="M 438.343329 83.24708 
L 440.589386 83.24708 
" style="fill:none;stroke:#000000;stroke-linecap:square;"/>
   </g>
   <g id="line2d_157">
    <path clip-path="url(#p4bfef115de)" d="M 491.874357 163.892787 
L 491.874357 216.9976 
" style="fill:none;stroke:#000000;stroke-linecap:square;"/>
   </g>
   <g id="line2d_158">
    <path clip-path="url(#p4bfef115de)" d="M 491.874357 110.720224 
L 491.874357 70.472315 
" style="fill:none;stroke:#000000;stroke-linecap:square;"/>
   </g>
   <g id="line2d_159">
    <path clip-path="url(#p4bfef115de)" d="M 490.751329 216.9976 
L 492.997386 216.9976 
" style="fill:none;stroke:#000000;stroke-linecap:square;"/>
   </g>
   <g id="line2d_160">
    <path clip-path="url(#p4bfef115de)" d="M 490.751329 70.472315 
L 492.997386 70.472315 
" style="fill:none;stroke:#000000;stroke-linecap:square;"/>
   </g>
   <g id="line2d_161">
    <path clip-path="url(#p4bfef115de)" d="M 544.282357 119.774323 
L 544.282357 160.938457 
" style="fill:none;stroke:#000000;stroke-linecap:square;"/>
   </g>
   <g id="line2d_162">
    <path clip-path="url(#p4bfef115de)" d="M 544.282357 83.453235 
L 544.282357 65.451528 
" style="fill:none;stroke:#000000;stroke-linecap:square;"/>
   </g>
   <g id="line2d_163">
    <path clip-path="url(#p4bfef115de)" d="M 543.159329 160.938457 
L 545.405386 160.938457 
" style="fill:none;stroke:#000000;stroke-linecap:square;"/>
   </g>
   <g id="line2d_164">
    <path clip-path="url(#p4bfef115de)" d="M 543.159329 65.451528 
L 545.405386 65.451528 
" style="fill:none;stroke:#000000;stroke-linecap:square;"/>
   </g>
   <g id="line2d_165">
    <path clip-path="url(#p4bfef115de)" d="M 596.690357 89.314342 
L 596.690357 113.545558 
" style="fill:none;stroke:#000000;stroke-linecap:square;"/>
   </g>
   <g id="line2d_166">
    <path clip-path="url(#p4bfef115de)" d="M 596.690357 69.497556 
L 596.690357 54.735447 
" style="fill:none;stroke:#000000;stroke-linecap:square;"/>
   </g>
   <g id="line2d_167">
    <path clip-path="url(#p4bfef115de)" d="M 595.567329 113.545558 
L 597.813386 113.545558 
" style="fill:none;stroke:#000000;stroke-linecap:square;"/>
   </g>
   <g id="line2d_168">
    <path clip-path="url(#p4bfef115de)" d="M 595.567329 54.735447 
L 597.813386 54.735447 
" style="fill:none;stroke:#000000;stroke-linecap:square;"/>
   </g>
   <g id="patch_3">
    <path clip-path="url(#p4bfef115de)" d="M 100.311729 208.778845 
L 104.803843 208.778845 
L 104.803843 130.445096 
L 100.311729 130.445096 
L 100.311729 208.778845 
z
" style="fill:#c4ad66;stroke:#000000;stroke-linejoin:miter;"/>
   </g>
   <g id="patch_4">
    <path clip-path="url(#p4bfef115de)" d="M 152.719729 205.393058 
L 157.211843 205.393058 
L 157.211843 130.345643 
L 152.719729 130.345643 
L 152.719729 205.393058 
z
" style="fill:#c4ad66;stroke:#000000;stroke-linejoin:miter;"/>
   </g>
   <g id="patch_5">
    <path clip-path="url(#p4bfef115de)" d="M 205.127729 196.928469 
L 209.619843 196.928469 
L 209.619843 127.784397 
L 205.127729 127.784397 
L 205.127729 196.928469 
z
" style="fill:#c4ad66;stroke:#000000;stroke-linejoin:miter;"/>
   </g>
   <g id="patch_6">
    <path clip-path="url(#p4bfef115de)" d="M 257.535729 185.875044 
L 262.027843 185.875044 
L 262.027843 119.878624 
L 257.535729 119.878624 
L 257.535729 185.875044 
z
" style="fill:#c4ad66;stroke:#000000;stroke-linejoin:miter;"/>
   </g>
   <g id="patch_7">
    <path clip-path="url(#p4bfef115de)" d="M 309.943729 165.708144 
L 314.435843 165.708144 
L 314.435843 107.529009 
L 309.943729 107.529009 
L 309.943729 165.708144 
z
" style="fill:#c4ad66;stroke:#000000;stroke-linejoin:miter;"/>
   </g>
   <g id="patch_8">
    <path clip-path="url(#p4bfef115de)" d="M 362.351729 149.347087 
L 366.843843 149.347087 
L 366.843843 103.035775 
L 362.351729 103.035775 
L 362.351729 149.347087 
z
" style="fill:#c4ad66;stroke:#000000;stroke-linejoin:miter;"/>
   </g>
   <g id="patch_9">
    <path clip-path="url(#p4bfef115de)" d="M 414.759729 135.893372 
L 419.251843 135.893372 
L 419.251843 97.697881 
L 414.759729 97.697881 
L 414.759729 135.893372 
z
" style="fill:#c4ad66;stroke:#000000;stroke-linejoin:miter;"/>
   </g>
   <g id="patch_10">
    <path clip-path="url(#p4bfef115de)" d="M 467.167729 104.884741 
L 471.659843 104.884741 
L 471.659843 74.682087 
L 467.167729 74.682087 
L 467.167729 104.884741 
z
" style="fill:#c4ad66;stroke:#000000;stroke-linejoin:miter;"/>
   </g>
   <g id="patch_11">
    <path clip-path="url(#p4bfef115de)" d="M 519.575729 84.366784 
L 524.067843 84.366784 
L 524.067843 65.087349 
L 519.575729 65.087349 
L 519.575729 84.366784 
z
" style="fill:#c4ad66;stroke:#000000;stroke-linejoin:miter;"/>
   </g>
   <g id="patch_12">
    <path clip-path="url(#p4bfef115de)" d="M 571.983729 71.158573 
L 576.475843 71.158573 
L 576.475843 60.059807 
L 571.983729 60.059807 
L 571.983729 71.158573 
z
" style="fill:#c4ad66;stroke:#000000;stroke-linejoin:miter;"/>
   </g>
   <g id="patch_13">
    <path clip-path="url(#p4bfef115de)" d="M 107.798586 335.71108 
L 112.2907 335.71108 
L 112.2907 317.958707 
L 107.798586 317.958707 
L 107.798586 335.71108 
z
" style="fill:#d65f5f;stroke:#000000;stroke-linejoin:miter;"/>
   </g>
   <g id="patch_14">
    <path clip-path="url(#p4bfef115de)" d="M 160.206586 333.010885 
L 164.6987 333.010885 
L 164.6987 310.480555 
L 160.206586 310.480555 
L 160.206586 333.010885 
z
" style="fill:#d65f5f;stroke:#000000;stroke-linejoin:miter;"/>
   </g>
   <g id="patch_15">
    <path clip-path="url(#p4bfef115de)" d="M 212.614586 325.328625 
L 217.1067 325.328625 
L 217.1067 279.76028 
L 212.614586 279.76028 
L 212.614586 325.328625 
z
" style="fill:#d65f5f;stroke:#000000;stroke-linejoin:miter;"/>
   </g>
   <g id="patch_16">
    <path clip-path="url(#p4bfef115de)" d="M 265.022586 319.845694 
L 269.5147 319.845694 
L 269.5147 243.322592 
L 265.022586 243.322592 
L 265.022586 319.845694 
z
" style="fill:#d65f5f;stroke:#000000;stroke-linejoin:miter;"/>
   </g>
   <g id="patch_17">
    <path clip-path="url(#p4bfef115de)" d="M 317.430586 301.449597 
L 321.9227 301.449597 
L 321.9227 195.229374 
L 317.430586 195.229374 
L 317.430586 301.449597 
z
" style="fill:#d65f5f;stroke:#000000;stroke-linejoin:miter;"/>
   </g>
   <g id="patch_18">
    <path clip-path="url(#p4bfef115de)" d="M 369.838586 272.070582 
L 374.3307 272.070582 
L 374.3307 153.295771 
L 369.838586 153.295771 
L 369.838586 272.070582 
z
" style="fill:#d65f5f;stroke:#000000;stroke-linejoin:miter;"/>
   </g>
   <g id="patch_19">
    <path clip-path="url(#p4bfef115de)" d="M 422.246586 243.247542 
L 426.7387 243.247542 
L 426.7387 130.434122 
L 422.246586 130.434122 
L 422.246586 243.247542 
z
" style="fill:#d65f5f;stroke:#000000;stroke-linejoin:miter;"/>
   </g>
   <g id="patch_20">
    <path clip-path="url(#p4bfef115de)" d="M 474.654586 198.540907 
L 479.1467 198.540907 
L 479.1467 105.936238 
L 474.654586 105.936238 
L 474.654586 198.540907 
z
" style="fill:#d65f5f;stroke:#000000;stroke-linejoin:miter;"/>
   </g>
   <g id="patch_21">
    <path clip-path="url(#p4bfef115de)" d="M 527.062586 151.359211 
L 531.5547 151.359211 
L 531.5547 75.350394 
L 527.062586 75.350394 
L 527.062586 151.359211 
z
" style="fill:#d65f5f;stroke:#000000;stroke-linejoin:miter;"/>
   </g>
   <g id="patch_22">
    <path clip-path="url(#p4bfef115de)" d="M 579.470586 99.106926 
L 583.9627 99.106926 
L 583.9627 64.190941 
L 579.470586 64.190941 
L 579.470586 99.106926 
z
" style="fill:#d65f5f;stroke:#000000;stroke-linejoin:miter;"/>
   </g>
   <g id="patch_23">
    <path clip-path="url(#p4bfef115de)" d="M 115.285443 283.549096 
L 119.777557 283.549096 
L 119.777557 197.4504 
L 115.285443 197.4504 
L 115.285443 283.549096 
z
" style="fill:#6acc65;stroke:#000000;stroke-linejoin:miter;"/>
   </g>
   <g id="patch_24">
    <path clip-path="url(#p4bfef115de)" d="M 167.693443 276.35434 
L 172.185557 276.35434 
L 172.185557 196.195637 
L 167.693443 196.195637 
L 167.693443 276.35434 
z
" style="fill:#6acc65;stroke:#000000;stroke-linejoin:miter;"/>
   </g>
   <g id="patch_25">
    <path clip-path="url(#p4bfef115de)" d="M 220.101443 264.759564 
L 224.593557 264.759564 
L 224.593557 192.265625 
L 220.101443 192.265625 
L 220.101443 264.759564 
z
" style="fill:#6acc65;stroke:#000000;stroke-linejoin:miter;"/>
   </g>
   <g id="patch_26">
    <path clip-path="url(#p4bfef115de)" d="M 272.509443 243.730788 
L 277.001557 243.730788 
L 277.001557 180.109231 
L 272.509443 180.109231 
L 272.509443 243.730788 
z
" style="fill:#6acc65;stroke:#000000;stroke-linejoin:miter;"/>
   </g>
   <g id="patch_27">
    <path clip-path="url(#p4bfef115de)" d="M 324.917443 216.384772 
L 329.409557 216.384772 
L 329.409557 153.144137 
L 324.917443 153.144137 
L 324.917443 216.384772 
z
" style="fill:#6acc65;stroke:#000000;stroke-linejoin:miter;"/>
   </g>
   <g id="patch_28">
    <path clip-path="url(#p4bfef115de)" d="M 377.325443 192.265625 
L 381.817557 192.265625 
L 381.817557 135.75681 
L 377.325443 135.75681 
L 377.325443 192.265625 
z
" style="fill:#6acc65;stroke:#000000;stroke-linejoin:miter;"/>
   </g>
   <g id="patch_29">
    <path clip-path="url(#p4bfef115de)" d="M 429.733443 172.43983 
L 434.225557 172.43983 
L 434.225557 122.17296 
L 429.733443 122.17296 
L 429.733443 172.43983 
z
" style="fill:#6acc65;stroke:#000000;stroke-linejoin:miter;"/>
   </g>
   <g id="patch_30">
    <path clip-path="url(#p4bfef115de)" d="M 482.141443 138.135265 
L 486.633557 138.135265 
L 486.633557 93.136652 
L 482.141443 93.136652 
L 482.141443 138.135265 
z
" style="fill:#6acc65;stroke:#000000;stroke-linejoin:miter;"/>
   </g>
   <g id="patch_31">
    <path clip-path="url(#p4bfef115de)" d="M 534.549443 103.353153 
L 539.041557 103.353153 
L 539.041557 74.901162 
L 534.549443 74.901162 
L 534.549443 103.353153 
z
" style="fill:#6acc65;stroke:#000000;stroke-linejoin:miter;"/>
   </g>
   <g id="patch_32">
    <path clip-path="url(#p4bfef115de)" d="M 586.957443 80.477098 
L 591.449557 80.477098 
L 591.449557 63.164716 
L 586.957443 63.164716 
L 586.957443 80.477098 
z
" style="fill:#6acc65;stroke:#000000;stroke-linejoin:miter;"/>
   </g>
   <g id="patch_33">
    <path clip-path="url(#p4bfef115de)" d="M 122.7723 312.468835 
L 127.264414 312.468835 
L 127.264414 264.652452 
L 122.7723 264.652452 
L 122.7723 312.468835 
z
" style="fill:#4878cf;stroke:#000000;stroke-linejoin:miter;"/>
   </g>
   <g id="patch_34">
    <path clip-path="url(#p4bfef115de)" d="M 175.1803 311.637596 
L 179.672414 311.637596 
L 179.672414 262.750687 
L 175.1803 262.750687 
L 175.1803 311.637596 
z
" style="fill:#4878cf;stroke:#000000;stroke-linejoin:miter;"/>
   </g>
   <g id="patch_35">
    <path clip-path="url(#p4bfef115de)" d="M 227.5883 301.975004 
L 232.080414 301.975004 
L 232.080414 247.304317 
L 227.5883 247.304317 
L 227.5883 301.975004 
z
" style="fill:#4878cf;stroke:#000000;stroke-linejoin:miter;"/>
   </g>
   <g id="patch_36">
    <path clip-path="url(#p4bfef115de)" d="M 279.9963 276.944716 
L 284.488414 276.944716 
L 284.488414 226.98776 
L 279.9963 226.98776 
L 279.9963 276.944716 
z
" style="fill:#4878cf;stroke:#000000;stroke-linejoin:miter;"/>
   </g>
   <g id="patch_37">
    <path clip-path="url(#p4bfef115de)" d="M 332.4043 254.703555 
L 336.896414 254.703555 
L 336.896414 191.657805 
L 332.4043 191.657805 
L 332.4043 254.703555 
z
" style="fill:#4878cf;stroke:#000000;stroke-linejoin:miter;"/>
   </g>
   <g id="patch_38">
    <path clip-path="url(#p4bfef115de)" d="M 384.8123 228.851199 
L 389.304414 228.851199 
L 389.304414 166.135035 
L 384.8123 166.135035 
L 384.8123 228.851199 
z
" style="fill:#4878cf;stroke:#000000;stroke-linejoin:miter;"/>
   </g>
   <g id="patch_39">
    <path clip-path="url(#p4bfef115de)" d="M 437.2203 201.116311 
L 441.712414 201.116311 
L 441.712414 138.114103 
L 437.2203 138.114103 
L 437.2203 201.116311 
z
" style="fill:#4878cf;stroke:#000000;stroke-linejoin:miter;"/>
   </g>
   <g id="patch_40">
    <path clip-path="url(#p4bfef115de)" d="M 489.6283 163.892787 
L 494.120414 163.892787 
L 494.120414 110.720224 
L 489.6283 110.720224 
L 489.6283 163.892787 
z
" style="fill:#4878cf;stroke:#000000;stroke-linejoin:miter;"/>
   </g>
   <g id="patch_41">
    <path clip-path="url(#p4bfef115de)" d="M 542.0363 119.774323 
L 546.528414 119.774323 
L 546.528414 83.453235 
L 542.0363 83.453235 
L 542.0363 119.774323 
z
" style="fill:#4878cf;stroke:#000000;stroke-linejoin:miter;"/>
   </g>
   <g id="patch_42">
    <path clip-path="url(#p4bfef115de)" d="M 594.4443 89.314342 
L 598.936414 89.314342 
L 598.936414 69.497556 
L 594.4443 69.497556 
L 594.4443 89.314342 
z
" style="fill:#4878cf;stroke:#000000;stroke-linejoin:miter;"/>
   </g>
   <g id="line2d_169">
    <path clip-path="url(#p4bfef115de)" d="M 100.311729 162.774648 
L 104.803843 162.774648 
" style="fill:none;stroke:#ff7f0e;stroke-linecap:square;"/>
   </g>
   <g id="line2d_170">
    <path clip-path="url(#p4bfef115de)" d="M 152.719729 161.96872 
L 157.211843 161.96872 
" style="fill:none;stroke:#ff7f0e;stroke-linecap:square;"/>
   </g>
   <g id="line2d_171">
    <path clip-path="url(#p4bfef115de)" d="M 205.127729 155.45185 
L 209.619843 155.45185 
" style="fill:none;stroke:#ff7f0e;stroke-linecap:square;"/>
   </g>
   <g id="line2d_172">
    <path clip-path="url(#p4bfef115de)" d="M 257.535729 146.325577 
L 262.027843 146.325577 
" style="fill:none;stroke:#ff7f0e;stroke-linecap:square;"/>
   </g>
   <g id="line2d_173">
    <path clip-path="url(#p4bfef115de)" d="M 309.943729 133.19985 
L 314.435843 133.19985 
" style="fill:none;stroke:#ff7f0e;stroke-linecap:square;"/>
   </g>
   <g id="line2d_174">
    <path clip-path="url(#p4bfef115de)" d="M 362.351729 122.9258 
L 366.843843 122.9258 
" style="fill:none;stroke:#ff7f0e;stroke-linecap:square;"/>
   </g>
   <g id="line2d_175">
    <path clip-path="url(#p4bfef115de)" d="M 414.759729 114.456755 
L 419.251843 114.456755 
" style="fill:none;stroke:#ff7f0e;stroke-linecap:square;"/>
   </g>
   <g id="line2d_176">
    <path clip-path="url(#p4bfef115de)" d="M 467.167729 87.385367 
L 471.659843 87.385367 
" style="fill:none;stroke:#ff7f0e;stroke-linecap:square;"/>
   </g>
   <g id="line2d_177">
    <path clip-path="url(#p4bfef115de)" d="M 519.575729 73.114257 
L 524.067843 73.114257 
" style="fill:none;stroke:#ff7f0e;stroke-linecap:square;"/>
   </g>
   <g id="line2d_178">
    <path clip-path="url(#p4bfef115de)" d="M 571.983729 64.440417 
L 576.475843 64.440417 
" style="fill:none;stroke:#ff7f0e;stroke-linecap:square;"/>
   </g>
   <g id="line2d_179">
    <path clip-path="url(#p4bfef115de)" d="M 107.798586 332.196498 
L 112.2907 332.196498 
" style="fill:none;stroke:#ff7f0e;stroke-linecap:square;"/>
   </g>
   <g id="line2d_180">
    <path clip-path="url(#p4bfef115de)" d="M 160.206586 323.862149 
L 164.6987 323.862149 
" style="fill:none;stroke:#ff7f0e;stroke-linecap:square;"/>
   </g>
   <g id="line2d_181">
    <path clip-path="url(#p4bfef115de)" d="M 212.614586 305.616156 
L 217.1067 305.616156 
" style="fill:none;stroke:#ff7f0e;stroke-linecap:square;"/>
   </g>
   <g id="line2d_182">
    <path clip-path="url(#p4bfef115de)" d="M 265.022586 279.572287 
L 269.5147 279.572287 
" style="fill:none;stroke:#ff7f0e;stroke-linecap:square;"/>
   </g>
   <g id="line2d_183">
    <path clip-path="url(#p4bfef115de)" d="M 317.430586 238.403052 
L 321.9227 238.403052 
" style="fill:none;stroke:#ff7f0e;stroke-linecap:square;"/>
   </g>
   <g id="line2d_184">
    <path clip-path="url(#p4bfef115de)" d="M 369.838586 195.602838 
L 374.3307 195.602838 
" style="fill:none;stroke:#ff7f0e;stroke-linecap:square;"/>
   </g>
   <g id="line2d_185">
    <path clip-path="url(#p4bfef115de)" d="M 422.246586 164.277207 
L 426.7387 164.277207 
" style="fill:none;stroke:#ff7f0e;stroke-linecap:square;"/>
   </g>
   <g id="line2d_186">
    <path clip-path="url(#p4bfef115de)" d="M 474.654586 127.434131 
L 479.1467 127.434131 
" style="fill:none;stroke:#ff7f0e;stroke-linecap:square;"/>
   </g>
   <g id="line2d_187">
    <path clip-path="url(#p4bfef115de)" d="M 527.062586 99.599707 
L 531.5547 99.599707 
" style="fill:none;stroke:#ff7f0e;stroke-linecap:square;"/>
   </g>
   <g id="line2d_188">
    <path clip-path="url(#p4bfef115de)" d="M 579.470586 75.826876 
L 583.9627 75.826876 
" style="fill:none;stroke:#ff7f0e;stroke-linecap:square;"/>
   </g>
   <g id="line2d_189">
    <path clip-path="url(#p4bfef115de)" d="M 115.285443 234.804622 
L 119.777557 234.804622 
" style="fill:none;stroke:#ff7f0e;stroke-linecap:square;"/>
   </g>
   <g id="line2d_190">
    <path clip-path="url(#p4bfef115de)" d="M 167.693443 231.387113 
L 172.185557 231.387113 
" style="fill:none;stroke:#ff7f0e;stroke-linecap:square;"/>
   </g>
   <g id="line2d_191">
    <path clip-path="url(#p4bfef115de)" d="M 220.101443 220.065132 
L 224.593557 220.065132 
" style="fill:none;stroke:#ff7f0e;stroke-linecap:square;"/>
   </g>
   <g id="line2d_192">
    <path clip-path="url(#p4bfef115de)" d="M 272.509443 204.799694 
L 277.001557 204.799694 
" style="fill:none;stroke:#ff7f0e;stroke-linecap:square;"/>
   </g>
   <g id="line2d_193">
    <path clip-path="url(#p4bfef115de)" d="M 324.917443 181.039459 
L 329.409557 181.039459 
" style="fill:none;stroke:#ff7f0e;stroke-linecap:square;"/>
   </g>
   <g id="line2d_194">
    <path clip-path="url(#p4bfef115de)" d="M 377.325443 161.464454 
L 381.817557 161.464454 
" style="fill:none;stroke:#ff7f0e;stroke-linecap:square;"/>
   </g>
   <g id="line2d_195">
    <path clip-path="url(#p4bfef115de)" d="M 429.733443 143.66014 
L 434.225557 143.66014 
" style="fill:none;stroke:#ff7f0e;stroke-linecap:square;"/>
   </g>
   <g id="line2d_196">
    <path clip-path="url(#p4bfef115de)" d="M 482.141443 112.267198 
L 486.633557 112.267198 
" style="fill:none;stroke:#ff7f0e;stroke-linecap:square;"/>
   </g>
   <g id="line2d_197">
    <path clip-path="url(#p4bfef115de)" d="M 534.549443 86.568974 
L 539.041557 86.568974 
" style="fill:none;stroke:#ff7f0e;stroke-linecap:square;"/>
   </g>
   <g id="line2d_198">
    <path clip-path="url(#p4bfef115de)" d="M 586.957443 70.888702 
L 591.449557 70.888702 
" style="fill:none;stroke:#ff7f0e;stroke-linecap:square;"/>
   </g>
   <g id="line2d_199">
    <path clip-path="url(#p4bfef115de)" d="M 122.7723 294.000362 
L 127.264414 294.000362 
" style="fill:none;stroke:#ff7f0e;stroke-linecap:square;"/>
   </g>
   <g id="line2d_200">
    <path clip-path="url(#p4bfef115de)" d="M 175.1803 290.128911 
L 179.672414 290.128911 
" style="fill:none;stroke:#ff7f0e;stroke-linecap:square;"/>
   </g>
   <g id="line2d_201">
    <path clip-path="url(#p4bfef115de)" d="M 227.5883 273.196939 
L 232.080414 273.196939 
" style="fill:none;stroke:#ff7f0e;stroke-linecap:square;"/>
   </g>
   <g id="line2d_202">
    <path clip-path="url(#p4bfef115de)" d="M 279.9963 250.114038 
L 284.488414 250.114038 
" style="fill:none;stroke:#ff7f0e;stroke-linecap:square;"/>
   </g>
   <g id="line2d_203">
    <path clip-path="url(#p4bfef115de)" d="M 332.4043 222.396856 
L 336.896414 222.396856 
" style="fill:none;stroke:#ff7f0e;stroke-linecap:square;"/>
   </g>
   <g id="line2d_204">
    <path clip-path="url(#p4bfef115de)" d="M 384.8123 191.873698 
L 389.304414 191.873698 
" style="fill:none;stroke:#ff7f0e;stroke-linecap:square;"/>
   </g>
   <g id="line2d_205">
    <path clip-path="url(#p4bfef115de)" d="M 437.2203 167.029851 
L 441.712414 167.029851 
" style="fill:none;stroke:#ff7f0e;stroke-linecap:square;"/>
   </g>
   <g id="line2d_206">
    <path clip-path="url(#p4bfef115de)" d="M 489.6283 135.258287 
L 494.120414 135.258287 
" style="fill:none;stroke:#ff7f0e;stroke-linecap:square;"/>
   </g>
   <g id="line2d_207">
    <path clip-path="url(#p4bfef115de)" d="M 542.0363 100.834144 
L 546.528414 100.834144 
" style="fill:none;stroke:#ff7f0e;stroke-linecap:square;"/>
   </g>
   <g id="line2d_208">
    <path clip-path="url(#p4bfef115de)" d="M 594.4443 76.012326 
L 598.936414 76.012326 
" style="fill:none;stroke:#ff7f0e;stroke-linecap:square;"/>
   </g>
   <g id="patch_43">
    <path d="M 91.3275 350.055625 
L 91.3275 34.475625 
" style="fill:none;stroke:#000000;stroke-linecap:square;stroke-linejoin:miter;stroke-width:0.8;"/>
   </g>
   <g id="patch_44">
    <path d="M 91.3275 350.055625 
L 615.4075 350.055625 
" style="fill:none;stroke:#000000;stroke-linecap:square;stroke-linejoin:miter;stroke-width:0.8;"/>
   </g>
   <g id="text_11">
    <!-- Chen Epi -->
    <defs>
     <path d="M 64.40625 67.28125 
L 64.40625 56.890625 
Q 59.421875 61.53125 53.78125 63.8125 
Q 48.140625 66.109375 41.796875 66.109375 
Q 29.296875 66.109375 22.65625 58.46875 
Q 16.015625 50.828125 16.015625 36.375 
Q 16.015625 21.96875 22.65625 14.328125 
Q 29.296875 6.6875 41.796875 6.6875 
Q 48.140625 6.6875 53.78125 8.984375 
Q 59.421875 11.28125 64.40625 15.921875 
L 64.40625 5.609375 
Q 59.234375 2.09375 53.4375 0.328125 
Q 47.65625 -1.421875 41.21875 -1.421875 
Q 24.65625 -1.421875 15.125 8.703125 
Q 5.609375 18.84375 5.609375 36.375 
Q 5.609375 53.953125 15.125 64.078125 
Q 24.65625 74.21875 41.21875 74.21875 
Q 47.75 74.21875 53.53125 72.484375 
Q 59.328125 70.75 64.40625 67.28125 
z
" id="DejaVuSans-67"/>
     <path d="M 54.890625 33.015625 
L 54.890625 0 
L 45.90625 0 
L 45.90625 32.71875 
Q 45.90625 40.484375 42.875 44.328125 
Q 39.84375 48.1875 33.796875 48.1875 
Q 26.515625 48.1875 22.3125 43.546875 
Q 18.109375 38.921875 18.109375 30.90625 
L 18.109375 0 
L 9.078125 0 
L 9.078125 75.984375 
L 18.109375 75.984375 
L 18.109375 46.1875 
Q 21.34375 51.125 25.703125 53.5625 
Q 30.078125 56 35.796875 56 
Q 45.21875 56 50.046875 50.171875 
Q 54.890625 44.34375 54.890625 33.015625 
z
" id="DejaVuSans-104"/>
     <path d="M 9.8125 72.90625 
L 55.90625 72.90625 
L 55.90625 64.59375 
L 19.671875 64.59375 
L 19.671875 43.015625 
L 54.390625 43.015625 
L 54.390625 34.71875 
L 19.671875 34.71875 
L 19.671875 8.296875 
L 56.78125 8.296875 
L 56.78125 0 
L 9.8125 0 
z
" id="DejaVuSans-69"/>
     <path d="M 18.109375 8.203125 
L 18.109375 -20.796875 
L 9.078125 -20.796875 
L 9.078125 54.6875 
L 18.109375 54.6875 
L 18.109375 46.390625 
Q 20.953125 51.265625 25.265625 53.625 
Q 29.59375 56 35.59375 56 
Q 45.5625 56 51.78125 48.09375 
Q 58.015625 40.1875 58.015625 27.296875 
Q 58.015625 14.40625 51.78125 6.484375 
Q 45.5625 -1.421875 35.59375 -1.421875 
Q 29.59375 -1.421875 25.265625 0.953125 
Q 20.953125 3.328125 18.109375 8.203125 
z
M 48.6875 27.296875 
Q 48.6875 37.203125 44.609375 42.84375 
Q 40.53125 48.484375 33.40625 48.484375 
Q 26.265625 48.484375 22.1875 42.84375 
Q 18.109375 37.203125 18.109375 27.296875 
Q 18.109375 17.390625 22.1875 11.75 
Q 26.265625 6.109375 33.40625 6.109375 
Q 40.53125 6.109375 44.609375 11.75 
Q 48.6875 17.390625 48.6875 27.296875 
z
" id="DejaVuSans-112"/>
    </defs>
    <g transform="translate(291.159375 28.475625)scale(0.28 -0.28)">
     <use xlink:href="#DejaVuSans-67"/>
     <use x="69.824219" xlink:href="#DejaVuSans-104"/>
     <use x="133.203125" xlink:href="#DejaVuSans-101"/>
     <use x="194.726562" xlink:href="#DejaVuSans-110"/>
     <use x="258.105469" xlink:href="#DejaVuSans-32"/>
     <use x="289.892578" xlink:href="#DejaVuSans-69"/>
     <use x="353.076172" xlink:href="#DejaVuSans-112"/>
     <use x="416.552734" xlink:href="#DejaVuSans-105"/>
    </g>
   </g>
  </g>
 </g>
 <defs>
  <clipPath id="p4bfef115de">
   <rect height="315.58" width="524.08" x="91.3275" y="34.475625"/>
  </clipPath>
 </defs>
</svg>
