<?xml version="1.0" encoding="utf-8" standalone="no"?>
<!DOCTYPE svg PUBLIC "-//W3C//DTD SVG 1.1//EN"
  "http://www.w3.org/Graphics/SVG/1.1/DTD/svg11.dtd">
<!-- Created with matplotlib (https://matplotlib.org/) -->
<svg height="423.953125pt" version="1.1" viewBox="0 0 622.6075 423.953125" width="622.6075pt" xmlns="http://www.w3.org/2000/svg" xmlns:xlink="http://www.w3.org/1999/xlink">
 <defs>
  <style type="text/css">
*{stroke-linecap:butt;stroke-linejoin:round;}
  </style>
 </defs>
 <g id="figure_1">
  <g id="patch_1">
   <path d="M 0 423.953125 
L 622.6075 423.953125 
L 622.6075 0 
L 0 0 
z
" style="fill:#ffffff;"/>
  </g>
  <g id="axes_1">
   <g id="patch_2">
    <path d="M 91.3275 350.055625 
L 615.4075 350.055625 
L 615.4075 34.475625 
L 91.3275 34.475625 
z
" style="fill:#ffffff;"/>
   </g>
   <g id="matplotlib.axis_1">
    <g id="xtick_1">
     <g id="line2d_1">
      <defs>
       <path d="M 0 0 
L 0 5 
" id="m45428d11a9" style="stroke:#000000;stroke-width:0.8;"/>
      </defs>
      <g>
       <use style="stroke:#000000;stroke-width:0.8;" x="113.788071" xlink:href="#m45428d11a9" y="350.055625"/>
      </g>
     </g>
     <g id="text_1">
      <!-- 0.0 -->
      <defs>
       <path d="M 31.78125 66.40625 
Q 24.171875 66.40625 20.328125 58.90625 
Q 16.5 51.421875 16.5 36.375 
Q 16.5 21.390625 20.328125 13.890625 
Q 24.171875 6.390625 31.78125 6.390625 
Q 39.453125 6.390625 43.28125 13.890625 
Q 47.125 21.390625 47.125 36.375 
Q 47.125 51.421875 43.28125 58.90625 
Q 39.453125 66.40625 31.78125 66.40625 
z
M 31.78125 74.21875 
Q 44.046875 74.21875 50.515625 64.515625 
Q 56.984375 54.828125 56.984375 36.375 
Q 56.984375 17.96875 50.515625 8.265625 
Q 44.046875 -1.421875 31.78125 -1.421875 
Q 19.53125 -1.421875 13.0625 8.265625 
Q 6.59375 17.96875 6.59375 36.375 
Q 6.59375 54.828125 13.0625 64.515625 
Q 19.53125 74.21875 31.78125 74.21875 
z
" id="DejaVuSans-48"/>
       <path d="M 10.6875 12.40625 
L 21 12.40625 
L 21 0 
L 10.6875 0 
z
" id="DejaVuSans-46"/>
      </defs>
      <g transform="translate(91.523696 379.83125)scale(0.28 -0.28)">
       <use xlink:href="#DejaVuSans-48"/>
       <use x="63.623047" xlink:href="#DejaVuSans-46"/>
       <use x="95.410156" xlink:href="#DejaVuSans-48"/>
      </g>
     </g>
    </g>
    <g id="xtick_2">
     <g id="line2d_2">
      <g>
       <use style="stroke:#000000;stroke-width:0.8;" x="218.604071" xlink:href="#m45428d11a9" y="350.055625"/>
      </g>
     </g>
     <g id="text_2">
      <!-- 0.1 -->
      <defs>
       <path d="M 12.40625 8.296875 
L 28.515625 8.296875 
L 28.515625 63.921875 
L 10.984375 60.40625 
L 10.984375 69.390625 
L 28.421875 72.90625 
L 38.28125 72.90625 
L 38.28125 8.296875 
L 54.390625 8.296875 
L 54.390625 0 
L 12.40625 0 
z
" id="DejaVuSans-49"/>
      </defs>
      <g transform="translate(196.339696 379.83125)scale(0.28 -0.28)">
       <use xlink:href="#DejaVuSans-48"/>
       <use x="63.623047" xlink:href="#DejaVuSans-46"/>
       <use x="95.410156" xlink:href="#DejaVuSans-49"/>
      </g>
     </g>
    </g>
    <g id="xtick_3">
     <g id="line2d_3">
      <g>
       <use style="stroke:#000000;stroke-width:0.8;" x="323.420071" xlink:href="#m45428d11a9" y="350.055625"/>
      </g>
     </g>
     <g id="text_3">
      <!-- 0.2 -->
      <defs>
       <path d="M 19.1875 8.296875 
L 53.609375 8.296875 
L 53.609375 0 
L 7.328125 0 
L 7.328125 8.296875 
Q 12.9375 14.109375 22.625 23.890625 
Q 32.328125 33.6875 34.8125 36.53125 
Q 39.546875 41.84375 41.421875 45.53125 
Q 43.3125 49.21875 43.3125 52.78125 
Q 43.3125 58.59375 39.234375 62.25 
Q 35.15625 65.921875 28.609375 65.921875 
Q 23.96875 65.921875 18.8125 64.3125 
Q 13.671875 62.703125 7.8125 59.421875 
L 7.8125 69.390625 
Q 13.765625 71.78125 18.9375 73 
Q 24.125 74.21875 28.421875 74.21875 
Q 39.75 74.21875 46.484375 68.546875 
Q 53.21875 62.890625 53.21875 53.421875 
Q 53.21875 48.921875 51.53125 44.890625 
Q 49.859375 40.875 45.40625 35.40625 
Q 44.1875 33.984375 37.640625 27.21875 
Q 31.109375 20.453125 19.1875 8.296875 
z
" id="DejaVuSans-50"/>
      </defs>
      <g transform="translate(301.155696 379.83125)scale(0.28 -0.28)">
       <use xlink:href="#DejaVuSans-48"/>
       <use x="63.623047" xlink:href="#DejaVuSans-46"/>
       <use x="95.410156" xlink:href="#DejaVuSans-50"/>
      </g>
     </g>
    </g>
    <g id="xtick_4">
     <g id="line2d_4">
      <g>
       <use style="stroke:#000000;stroke-width:0.8;" x="428.236071" xlink:href="#m45428d11a9" y="350.055625"/>
      </g>
     </g>
     <g id="text_4">
      <!-- 0.3 -->
      <defs>
       <path d="M 40.578125 39.3125 
Q 47.65625 37.796875 51.625 33 
Q 55.609375 28.21875 55.609375 21.1875 
Q 55.609375 10.40625 48.1875 4.484375 
Q 40.765625 -1.421875 27.09375 -1.421875 
Q 22.515625 -1.421875 17.65625 -0.515625 
Q 12.796875 0.390625 7.625 2.203125 
L 7.625 11.71875 
Q 11.71875 9.328125 16.59375 8.109375 
Q 21.484375 6.890625 26.8125 6.890625 
Q 36.078125 6.890625 40.9375 10.546875 
Q 45.796875 14.203125 45.796875 21.1875 
Q 45.796875 27.640625 41.28125 31.265625 
Q 36.765625 34.90625 28.71875 34.90625 
L 20.21875 34.90625 
L 20.21875 43.015625 
L 29.109375 43.015625 
Q 36.375 43.015625 40.234375 45.921875 
Q 44.09375 48.828125 44.09375 54.296875 
Q 44.09375 59.90625 40.109375 62.90625 
Q 36.140625 65.921875 28.71875 65.921875 
Q 24.65625 65.921875 20.015625 65.03125 
Q 15.375 64.15625 9.8125 62.3125 
L 9.8125 71.09375 
Q 15.4375 72.65625 20.34375 73.4375 
Q 25.25 74.21875 29.59375 74.21875 
Q 40.828125 74.21875 47.359375 69.109375 
Q 53.90625 64.015625 53.90625 55.328125 
Q 53.90625 49.265625 50.4375 45.09375 
Q 46.96875 40.921875 40.578125 39.3125 
z
" id="DejaVuSans-51"/>
      </defs>
      <g transform="translate(405.971696 379.83125)scale(0.28 -0.28)">
       <use xlink:href="#DejaVuSans-48"/>
       <use x="63.623047" xlink:href="#DejaVuSans-46"/>
       <use x="95.410156" xlink:href="#DejaVuSans-51"/>
      </g>
     </g>
    </g>
    <g id="xtick_5">
     <g id="line2d_5">
      <g>
       <use style="stroke:#000000;stroke-width:0.8;" x="533.052071" xlink:href="#m45428d11a9" y="350.055625"/>
      </g>
     </g>
     <g id="text_5">
      <!-- 0.4 -->
      <defs>
       <path d="M 37.796875 64.3125 
L 12.890625 25.390625 
L 37.796875 25.390625 
z
M 35.203125 72.90625 
L 47.609375 72.90625 
L 47.609375 25.390625 
L 58.015625 25.390625 
L 58.015625 17.1875 
L 47.609375 17.1875 
L 47.609375 0 
L 37.796875 0 
L 37.796875 17.1875 
L 4.890625 17.1875 
L 4.890625 26.703125 
z
" id="DejaVuSans-52"/>
      </defs>
      <g transform="translate(510.787696 379.83125)scale(0.28 -0.28)">
       <use xlink:href="#DejaVuSans-48"/>
       <use x="63.623047" xlink:href="#DejaVuSans-46"/>
       <use x="95.410156" xlink:href="#DejaVuSans-52"/>
      </g>
     </g>
    </g>
    <g id="text_6">
     <!-- Bimodality limit -->
     <defs>
      <path d="M 19.671875 34.8125 
L 19.671875 8.109375 
L 35.5 8.109375 
Q 43.453125 8.109375 47.28125 11.40625 
Q 51.125 14.703125 51.125 21.484375 
Q 51.125 28.328125 47.28125 31.5625 
Q 43.453125 34.8125 35.5 34.8125 
z
M 19.671875 64.796875 
L 19.671875 42.828125 
L 34.28125 42.828125 
Q 41.5 42.828125 45.03125 45.53125 
Q 48.578125 48.25 48.578125 53.8125 
Q 48.578125 59.328125 45.03125 62.0625 
Q 41.5 64.796875 34.28125 64.796875 
z
M 9.8125 72.90625 
L 35.015625 72.90625 
Q 46.296875 72.90625 52.390625 68.21875 
Q 58.5 63.53125 58.5 54.890625 
Q 58.5 48.1875 55.375 44.234375 
Q 52.25 40.28125 46.1875 39.3125 
Q 53.46875 37.75 57.5 32.78125 
Q 61.53125 27.828125 61.53125 20.40625 
Q 61.53125 10.640625 54.890625 5.3125 
Q 48.25 0 35.984375 0 
L 9.8125 0 
z
" id="DejaVuSans-66"/>
      <path d="M 9.421875 54.6875 
L 18.40625 54.6875 
L 18.40625 0 
L 9.421875 0 
z
M 9.421875 75.984375 
L 18.40625 75.984375 
L 18.40625 64.59375 
L 9.421875 64.59375 
z
" id="DejaVuSans-105"/>
      <path d="M 52 44.1875 
Q 55.375 50.25 60.0625 53.125 
Q 64.75 56 71.09375 56 
Q 79.640625 56 84.28125 50.015625 
Q 88.921875 44.046875 88.921875 33.015625 
L 88.921875 0 
L 79.890625 0 
L 79.890625 32.71875 
Q 79.890625 40.578125 77.09375 44.375 
Q 74.3125 48.1875 68.609375 48.1875 
Q 61.625 48.1875 57.5625 43.546875 
Q 53.515625 38.921875 53.515625 30.90625 
L 53.515625 0 
L 44.484375 0 
L 44.484375 32.71875 
Q 44.484375 40.625 41.703125 44.40625 
Q 38.921875 48.1875 33.109375 48.1875 
Q 26.21875 48.1875 22.15625 43.53125 
Q 18.109375 38.875 18.109375 30.90625 
L 18.109375 0 
L 9.078125 0 
L 9.078125 54.6875 
L 18.109375 54.6875 
L 18.109375 46.1875 
Q 21.1875 51.21875 25.484375 53.609375 
Q 29.78125 56 35.6875 56 
Q 41.65625 56 45.828125 52.96875 
Q 50 49.953125 52 44.1875 
z
" id="DejaVuSans-109"/>
      <path d="M 30.609375 48.390625 
Q 23.390625 48.390625 19.1875 42.75 
Q 14.984375 37.109375 14.984375 27.296875 
Q 14.984375 17.484375 19.15625 11.84375 
Q 23.34375 6.203125 30.609375 6.203125 
Q 37.796875 6.203125 41.984375 11.859375 
Q 46.1875 17.53125 46.1875 27.296875 
Q 46.1875 37.015625 41.984375 42.703125 
Q 37.796875 48.390625 30.609375 48.390625 
z
M 30.609375 56 
Q 42.328125 56 49.015625 48.375 
Q 55.71875 40.765625 55.71875 27.296875 
Q 55.71875 13.875 49.015625 6.21875 
Q 42.328125 -1.421875 30.609375 -1.421875 
Q 18.84375 -1.421875 12.171875 6.21875 
Q 5.515625 13.875 5.515625 27.296875 
Q 5.515625 40.765625 12.171875 48.375 
Q 18.84375 56 30.609375 56 
z
" id="DejaVuSans-111"/>
      <path d="M 45.40625 46.390625 
L 45.40625 75.984375 
L 54.390625 75.984375 
L 54.390625 0 
L 45.40625 0 
L 45.40625 8.203125 
Q 42.578125 3.328125 38.25 0.953125 
Q 33.9375 -1.421875 27.875 -1.421875 
Q 17.96875 -1.421875 11.734375 6.484375 
Q 5.515625 14.40625 5.515625 27.296875 
Q 5.515625 40.1875 11.734375 48.09375 
Q 17.96875 56 27.875 56 
Q 33.9375 56 38.25 53.625 
Q 42.578125 51.265625 45.40625 46.390625 
z
M 14.796875 27.296875 
Q 14.796875 17.390625 18.875 11.75 
Q 22.953125 6.109375 30.078125 6.109375 
Q 37.203125 6.109375 41.296875 11.75 
Q 45.40625 17.390625 45.40625 27.296875 
Q 45.40625 37.203125 41.296875 42.84375 
Q 37.203125 48.484375 30.078125 48.484375 
Q 22.953125 48.484375 18.875 42.84375 
Q 14.796875 37.203125 14.796875 27.296875 
z
" id="DejaVuSans-100"/>
      <path d="M 34.28125 27.484375 
Q 23.390625 27.484375 19.1875 25 
Q 14.984375 22.515625 14.984375 16.5 
Q 14.984375 11.71875 18.140625 8.90625 
Q 21.296875 6.109375 26.703125 6.109375 
Q 34.1875 6.109375 38.703125 11.40625 
Q 43.21875 16.703125 43.21875 25.484375 
L 43.21875 27.484375 
z
M 52.203125 31.203125 
L 52.203125 0 
L 43.21875 0 
L 43.21875 8.296875 
Q 40.140625 3.328125 35.546875 0.953125 
Q 30.953125 -1.421875 24.3125 -1.421875 
Q 15.921875 -1.421875 10.953125 3.296875 
Q 6 8.015625 6 15.921875 
Q 6 25.140625 12.171875 29.828125 
Q 18.359375 34.515625 30.609375 34.515625 
L 43.21875 34.515625 
L 43.21875 35.40625 
Q 43.21875 41.609375 39.140625 45 
Q 35.0625 48.390625 27.6875 48.390625 
Q 23 48.390625 18.546875 47.265625 
Q 14.109375 46.140625 10.015625 43.890625 
L 10.015625 52.203125 
Q 14.9375 54.109375 19.578125 55.046875 
Q 24.21875 56 28.609375 56 
Q 40.484375 56 46.34375 49.84375 
Q 52.203125 43.703125 52.203125 31.203125 
z
" id="DejaVuSans-97"/>
      <path d="M 9.421875 75.984375 
L 18.40625 75.984375 
L 18.40625 0 
L 9.421875 0 
z
" id="DejaVuSans-108"/>
      <path d="M 18.3125 70.21875 
L 18.3125 54.6875 
L 36.8125 54.6875 
L 36.8125 47.703125 
L 18.3125 47.703125 
L 18.3125 18.015625 
Q 18.3125 11.328125 20.140625 9.421875 
Q 21.96875 7.515625 27.59375 7.515625 
L 36.8125 7.515625 
L 36.8125 0 
L 27.59375 0 
Q 17.1875 0 13.234375 3.875 
Q 9.28125 7.765625 9.28125 18.015625 
L 9.28125 47.703125 
L 2.6875 47.703125 
L 2.6875 54.6875 
L 9.28125 54.6875 
L 9.28125 70.21875 
z
" id="DejaVuSans-116"/>
      <path d="M 32.171875 -5.078125 
Q 28.375 -14.84375 24.75 -17.8125 
Q 21.140625 -20.796875 15.09375 -20.796875 
L 7.90625 -20.796875 
L 7.90625 -13.28125 
L 13.1875 -13.28125 
Q 16.890625 -13.28125 18.9375 -11.515625 
Q 21 -9.765625 23.484375 -3.21875 
L 25.09375 0.875 
L 2.984375 54.6875 
L 12.5 54.6875 
L 29.59375 11.921875 
L 46.6875 54.6875 
L 56.203125 54.6875 
z
" id="DejaVuSans-121"/>
      <path id="DejaVuSans-32"/>
     </defs>
     <g transform="translate(243.40625 410.93)scale(0.28 -0.28)">
      <use xlink:href="#DejaVuSans-66"/>
      <use x="68.603516" xlink:href="#DejaVuSans-105"/>
      <use x="96.386719" xlink:href="#DejaVuSans-109"/>
      <use x="193.798828" xlink:href="#DejaVuSans-111"/>
      <use x="254.980469" xlink:href="#DejaVuSans-100"/>
      <use x="318.457031" xlink:href="#DejaVuSans-97"/>
      <use x="379.736328" xlink:href="#DejaVuSans-108"/>
      <use x="407.519531" xlink:href="#DejaVuSans-105"/>
      <use x="435.302734" xlink:href="#DejaVuSans-116"/>
      <use x="474.511719" xlink:href="#DejaVuSans-121"/>
      <use x="533.691406" xlink:href="#DejaVuSans-32"/>
      <use x="565.478516" xlink:href="#DejaVuSans-108"/>
      <use x="593.261719" xlink:href="#DejaVuSans-105"/>
      <use x="621.044922" xlink:href="#DejaVuSans-109"/>
      <use x="718.457031" xlink:href="#DejaVuSans-105"/>
      <use x="746.240234" xlink:href="#DejaVuSans-116"/>
     </g>
    </g>
   </g>
   <g id="matplotlib.axis_2">
    <g id="ytick_1">
     <g id="line2d_6">
      <defs>
       <path d="M 0 0 
L -5 0 
" id="mfef1195f43" style="stroke:#000000;stroke-width:0.8;"/>
      </defs>
      <g>
       <use style="stroke:#000000;stroke-width:0.8;" x="91.3275" xlink:href="#mfef1195f43" y="335.71108"/>
      </g>
     </g>
     <g id="text_7">
      <!-- 0.0 -->
      <g transform="translate(38.29875 346.348892)scale(0.28 -0.28)">
       <use xlink:href="#DejaVuSans-48"/>
       <use x="63.623047" xlink:href="#DejaVuSans-46"/>
       <use x="95.410156" xlink:href="#DejaVuSans-48"/>
      </g>
     </g>
    </g>
    <g id="ytick_2">
     <g id="line2d_7">
      <g>
       <use style="stroke:#000000;stroke-width:0.8;" x="91.3275" xlink:href="#mfef1195f43" y="192.265625"/>
      </g>
     </g>
     <g id="text_8">
      <!-- 0.5 -->
      <defs>
       <path d="M 10.796875 72.90625 
L 49.515625 72.90625 
L 49.515625 64.59375 
L 19.828125 64.59375 
L 19.828125 46.734375 
Q 21.96875 47.46875 24.109375 47.828125 
Q 26.265625 48.1875 28.421875 48.1875 
Q 40.625 48.1875 47.75 41.5 
Q 54.890625 34.8125 54.890625 23.390625 
Q 54.890625 11.625 47.5625 5.09375 
Q 40.234375 -1.421875 26.90625 -1.421875 
Q 22.3125 -1.421875 17.546875 -0.640625 
Q 12.796875 0.140625 7.71875 1.703125 
L 7.71875 11.625 
Q 12.109375 9.234375 16.796875 8.0625 
Q 21.484375 6.890625 26.703125 6.890625 
Q 35.15625 6.890625 40.078125 11.328125 
Q 45.015625 15.765625 45.015625 23.390625 
Q 45.015625 31 40.078125 35.4375 
Q 35.15625 39.890625 26.703125 39.890625 
Q 22.75 39.890625 18.8125 39.015625 
Q 14.890625 38.140625 10.796875 36.28125 
z
" id="DejaVuSans-53"/>
      </defs>
      <g transform="translate(38.29875 202.903437)scale(0.28 -0.28)">
       <use xlink:href="#DejaVuSans-48"/>
       <use x="63.623047" xlink:href="#DejaVuSans-46"/>
       <use x="95.410156" xlink:href="#DejaVuSans-53"/>
      </g>
     </g>
    </g>
    <g id="ytick_3">
     <g id="line2d_8">
      <g>
       <use style="stroke:#000000;stroke-width:0.8;" x="91.3275" xlink:href="#mfef1195f43" y="48.82017"/>
      </g>
     </g>
     <g id="text_9">
      <!-- 1.0 -->
      <g transform="translate(38.29875 59.457983)scale(0.28 -0.28)">
       <use xlink:href="#DejaVuSans-49"/>
       <use x="63.623047" xlink:href="#DejaVuSans-46"/>
       <use x="95.410156" xlink:href="#DejaVuSans-48"/>
      </g>
     </g>
    </g>
    <g id="text_10">
     <!-- Percent bimodal cells -->
     <defs>
      <path d="M 19.671875 64.796875 
L 19.671875 37.40625 
L 32.078125 37.40625 
Q 38.96875 37.40625 42.71875 40.96875 
Q 46.484375 44.53125 46.484375 51.125 
Q 46.484375 57.671875 42.71875 61.234375 
Q 38.96875 64.796875 32.078125 64.796875 
z
M 9.8125 72.90625 
L 32.078125 72.90625 
Q 44.34375 72.90625 50.609375 67.359375 
Q 56.890625 61.8125 56.890625 51.125 
Q 56.890625 40.328125 50.609375 34.8125 
Q 44.34375 29.296875 32.078125 29.296875 
L 19.671875 29.296875 
L 19.671875 0 
L 9.8125 0 
z
" id="DejaVuSans-80"/>
      <path d="M 56.203125 29.59375 
L 56.203125 25.203125 
L 14.890625 25.203125 
Q 15.484375 15.921875 20.484375 11.0625 
Q 25.484375 6.203125 34.421875 6.203125 
Q 39.59375 6.203125 44.453125 7.46875 
Q 49.3125 8.734375 54.109375 11.28125 
L 54.109375 2.78125 
Q 49.265625 0.734375 44.1875 -0.34375 
Q 39.109375 -1.421875 33.890625 -1.421875 
Q 20.796875 -1.421875 13.15625 6.1875 
Q 5.515625 13.8125 5.515625 26.8125 
Q 5.515625 40.234375 12.765625 48.109375 
Q 20.015625 56 32.328125 56 
Q 43.359375 56 49.78125 48.890625 
Q 56.203125 41.796875 56.203125 29.59375 
z
M 47.21875 32.234375 
Q 47.125 39.59375 43.09375 43.984375 
Q 39.0625 48.390625 32.421875 48.390625 
Q 24.90625 48.390625 20.390625 44.140625 
Q 15.875 39.890625 15.1875 32.171875 
z
" id="DejaVuSans-101"/>
      <path d="M 41.109375 46.296875 
Q 39.59375 47.171875 37.8125 47.578125 
Q 36.03125 48 33.890625 48 
Q 26.265625 48 22.1875 43.046875 
Q 18.109375 38.09375 18.109375 28.8125 
L 18.109375 0 
L 9.078125 0 
L 9.078125 54.6875 
L 18.109375 54.6875 
L 18.109375 46.1875 
Q 20.953125 51.171875 25.484375 53.578125 
Q 30.03125 56 36.53125 56 
Q 37.453125 56 38.578125 55.875 
Q 39.703125 55.765625 41.0625 55.515625 
z
" id="DejaVuSans-114"/>
      <path d="M 48.78125 52.59375 
L 48.78125 44.1875 
Q 44.96875 46.296875 41.140625 47.34375 
Q 37.3125 48.390625 33.40625 48.390625 
Q 24.65625 48.390625 19.8125 42.84375 
Q 14.984375 37.3125 14.984375 27.296875 
Q 14.984375 17.28125 19.8125 11.734375 
Q 24.65625 6.203125 33.40625 6.203125 
Q 37.3125 6.203125 41.140625 7.25 
Q 44.96875 8.296875 48.78125 10.40625 
L 48.78125 2.09375 
Q 45.015625 0.34375 40.984375 -0.53125 
Q 36.96875 -1.421875 32.421875 -1.421875 
Q 20.0625 -1.421875 12.78125 6.34375 
Q 5.515625 14.109375 5.515625 27.296875 
Q 5.515625 40.671875 12.859375 48.328125 
Q 20.21875 56 33.015625 56 
Q 37.15625 56 41.109375 55.140625 
Q 45.0625 54.296875 48.78125 52.59375 
z
" id="DejaVuSans-99"/>
      <path d="M 54.890625 33.015625 
L 54.890625 0 
L 45.90625 0 
L 45.90625 32.71875 
Q 45.90625 40.484375 42.875 44.328125 
Q 39.84375 48.1875 33.796875 48.1875 
Q 26.515625 48.1875 22.3125 43.546875 
Q 18.109375 38.921875 18.109375 30.90625 
L 18.109375 0 
L 9.078125 0 
L 9.078125 54.6875 
L 18.109375 54.6875 
L 18.109375 46.1875 
Q 21.34375 51.125 25.703125 53.5625 
Q 30.078125 56 35.796875 56 
Q 45.21875 56 50.046875 50.171875 
Q 54.890625 44.34375 54.890625 33.015625 
z
" id="DejaVuSans-110"/>
      <path d="M 48.6875 27.296875 
Q 48.6875 37.203125 44.609375 42.84375 
Q 40.53125 48.484375 33.40625 48.484375 
Q 26.265625 48.484375 22.1875 42.84375 
Q 18.109375 37.203125 18.109375 27.296875 
Q 18.109375 17.390625 22.1875 11.75 
Q 26.265625 6.109375 33.40625 6.109375 
Q 40.53125 6.109375 44.609375 11.75 
Q 48.6875 17.390625 48.6875 27.296875 
z
M 18.109375 46.390625 
Q 20.953125 51.265625 25.265625 53.625 
Q 29.59375 56 35.59375 56 
Q 45.5625 56 51.78125 48.09375 
Q 58.015625 40.1875 58.015625 27.296875 
Q 58.015625 14.40625 51.78125 6.484375 
Q 45.5625 -1.421875 35.59375 -1.421875 
Q 29.59375 -1.421875 25.265625 0.953125 
Q 20.953125 3.328125 18.109375 8.203125 
L 18.109375 0 
L 9.078125 0 
L 9.078125 75.984375 
L 18.109375 75.984375 
z
" id="DejaVuSans-98"/>
      <path d="M 44.28125 53.078125 
L 44.28125 44.578125 
Q 40.484375 46.53125 36.375 47.5 
Q 32.28125 48.484375 27.875 48.484375 
Q 21.1875 48.484375 17.84375 46.4375 
Q 14.5 44.390625 14.5 40.28125 
Q 14.5 37.15625 16.890625 35.375 
Q 19.28125 33.59375 26.515625 31.984375 
L 29.59375 31.296875 
Q 39.15625 29.25 43.1875 25.515625 
Q 47.21875 21.78125 47.21875 15.09375 
Q 47.21875 7.46875 41.1875 3.015625 
Q 35.15625 -1.421875 24.609375 -1.421875 
Q 20.21875 -1.421875 15.453125 -0.5625 
Q 10.6875 0.296875 5.421875 2 
L 5.421875 11.28125 
Q 10.40625 8.6875 15.234375 7.390625 
Q 20.0625 6.109375 24.8125 6.109375 
Q 31.15625 6.109375 34.5625 8.28125 
Q 37.984375 10.453125 37.984375 14.40625 
Q 37.984375 18.0625 35.515625 20.015625 
Q 33.0625 21.96875 24.703125 23.78125 
L 21.578125 24.515625 
Q 13.234375 26.265625 9.515625 29.90625 
Q 5.8125 33.546875 5.8125 39.890625 
Q 5.8125 47.609375 11.28125 51.796875 
Q 16.75 56 26.8125 56 
Q 31.78125 56 36.171875 55.265625 
Q 40.578125 54.546875 44.28125 53.078125 
z
" id="DejaVuSans-115"/>
     </defs>
     <g transform="translate(28.475625 342.35875)rotate(-90)scale(0.28 -0.28)">
      <use xlink:href="#DejaVuSans-80"/>
      <use x="60.255859" xlink:href="#DejaVuSans-101"/>
      <use x="121.779297" xlink:href="#DejaVuSans-114"/>
      <use x="162.861328" xlink:href="#DejaVuSans-99"/>
      <use x="217.841797" xlink:href="#DejaVuSans-101"/>
      <use x="279.365234" xlink:href="#DejaVuSans-110"/>
      <use x="342.744141" xlink:href="#DejaVuSans-116"/>
      <use x="381.953125" xlink:href="#DejaVuSans-32"/>
      <use x="413.740234" xlink:href="#DejaVuSans-98"/>
      <use x="477.216797" xlink:href="#DejaVuSans-105"/>
      <use x="505" xlink:href="#DejaVuSans-109"/>
      <use x="602.412109" xlink:href="#DejaVuSans-111"/>
      <use x="663.59375" xlink:href="#DejaVuSans-100"/>
      <use x="727.070312" xlink:href="#DejaVuSans-97"/>
      <use x="788.349609" xlink:href="#DejaVuSans-108"/>
      <use x="816.132812" xlink:href="#DejaVuSans-32"/>
      <use x="847.919922" xlink:href="#DejaVuSans-99"/>
      <use x="902.900391" xlink:href="#DejaVuSans-101"/>
      <use x="964.423828" xlink:href="#DejaVuSans-108"/>
      <use x="992.207031" xlink:href="#DejaVuSans-108"/>
      <use x="1019.990234" xlink:href="#DejaVuSans-115"/>
     </g>
    </g>
   </g>
   <g id="line2d_9">
    <path clip-path="url(#p2038dd0ad0)" d="M 102.557786 206.608522 
L 102.557786 312.969727 
" style="fill:none;stroke:#000000;stroke-linecap:square;"/>
   </g>
   <g id="line2d_10">
    <path clip-path="url(#p2038dd0ad0)" d="M 102.557786 130.793953 
L 102.557786 90.441649 
" style="fill:none;stroke:#000000;stroke-linecap:square;"/>
   </g>
   <g id="line2d_11">
    <path clip-path="url(#p2038dd0ad0)" d="M 101.434757 312.969727 
L 103.680814 312.969727 
" style="fill:none;stroke:#000000;stroke-linecap:square;"/>
   </g>
   <g id="line2d_12">
    <path clip-path="url(#p2038dd0ad0)" d="M 101.434757 90.441649 
L 103.680814 90.441649 
" style="fill:none;stroke:#000000;stroke-linecap:square;"/>
   </g>
   <g id="line2d_13">
    <path clip-path="url(#p2038dd0ad0)" d="M 154.965786 204.134797 
L 154.965786 311.220392 
" style="fill:none;stroke:#000000;stroke-linecap:square;"/>
   </g>
   <g id="line2d_14">
    <path clip-path="url(#p2038dd0ad0)" d="M 154.965786 129.723189 
L 154.965786 90.441649 
" style="fill:none;stroke:#000000;stroke-linecap:square;"/>
   </g>
   <g id="line2d_15">
    <path clip-path="url(#p2038dd0ad0)" d="M 153.842757 311.220392 
L 156.088814 311.220392 
" style="fill:none;stroke:#000000;stroke-linecap:square;"/>
   </g>
   <g id="line2d_16">
    <path clip-path="url(#p2038dd0ad0)" d="M 153.842757 90.441649 
L 156.088814 90.441649 
" style="fill:none;stroke:#000000;stroke-linecap:square;"/>
   </g>
   <g id="line2d_17">
    <path clip-path="url(#p2038dd0ad0)" d="M 207.373786 193.876016 
L 207.373786 292.5505 
" style="fill:none;stroke:#000000;stroke-linecap:square;"/>
   </g>
   <g id="line2d_18">
    <path clip-path="url(#p2038dd0ad0)" d="M 207.373786 125.888564 
L 207.373786 88.165209 
" style="fill:none;stroke:#000000;stroke-linecap:square;"/>
   </g>
   <g id="line2d_19">
    <path clip-path="url(#p2038dd0ad0)" d="M 206.250757 292.5505 
L 208.496814 292.5505 
" style="fill:none;stroke:#000000;stroke-linecap:square;"/>
   </g>
   <g id="line2d_20">
    <path clip-path="url(#p2038dd0ad0)" d="M 206.250757 88.165209 
L 208.496814 88.165209 
" style="fill:none;stroke:#000000;stroke-linecap:square;"/>
   </g>
   <g id="line2d_21">
    <path clip-path="url(#p2038dd0ad0)" d="M 259.781786 180.76067 
L 259.781786 264.623067 
" style="fill:none;stroke:#000000;stroke-linecap:square;"/>
   </g>
   <g id="line2d_22">
    <path clip-path="url(#p2038dd0ad0)" d="M 259.781786 118.983854 
L 259.781786 83.24708 
" style="fill:none;stroke:#000000;stroke-linecap:square;"/>
   </g>
   <g id="line2d_23">
    <path clip-path="url(#p2038dd0ad0)" d="M 258.658757 264.623067 
L 260.904814 264.623067 
" style="fill:none;stroke:#000000;stroke-linecap:square;"/>
   </g>
   <g id="line2d_24">
    <path clip-path="url(#p2038dd0ad0)" d="M 258.658757 83.24708 
L 260.904814 83.24708 
" style="fill:none;stroke:#000000;stroke-linecap:square;"/>
   </g>
   <g id="line2d_25">
    <path clip-path="url(#p2038dd0ad0)" d="M 312.189786 161.626951 
L 312.189786 240.667465 
" style="fill:none;stroke:#000000;stroke-linecap:square;"/>
   </g>
   <g id="line2d_26">
    <path clip-path="url(#p2038dd0ad0)" d="M 312.189786 106.785437 
L 312.189786 77.210417 
" style="fill:none;stroke:#000000;stroke-linecap:square;"/>
   </g>
   <g id="line2d_27">
    <path clip-path="url(#p2038dd0ad0)" d="M 311.066757 240.667465 
L 313.312814 240.667465 
" style="fill:none;stroke:#000000;stroke-linecap:square;"/>
   </g>
   <g id="line2d_28">
    <path clip-path="url(#p2038dd0ad0)" d="M 311.066757 77.210417 
L 313.312814 77.210417 
" style="fill:none;stroke:#000000;stroke-linecap:square;"/>
   </g>
   <g id="line2d_29">
    <path clip-path="url(#p2038dd0ad0)" d="M 364.597786 145.49343 
L 364.597786 212.021586 
" style="fill:none;stroke:#000000;stroke-linecap:square;"/>
   </g>
   <g id="line2d_30">
    <path clip-path="url(#p2038dd0ad0)" d="M 364.597786 99.447978 
L 364.597786 71.233523 
" style="fill:none;stroke:#000000;stroke-linecap:square;"/>
   </g>
   <g id="line2d_31">
    <path clip-path="url(#p2038dd0ad0)" d="M 363.474757 212.021586 
L 365.720814 212.021586 
" style="fill:none;stroke:#000000;stroke-linecap:square;"/>
   </g>
   <g id="line2d_32">
    <path clip-path="url(#p2038dd0ad0)" d="M 363.474757 71.233523 
L 365.720814 71.233523 
" style="fill:none;stroke:#000000;stroke-linecap:square;"/>
   </g>
   <g id="line2d_33">
    <path clip-path="url(#p2038dd0ad0)" d="M 417.005786 129.84571 
L 417.005786 179.225129 
" style="fill:none;stroke:#000000;stroke-linecap:square;"/>
   </g>
   <g id="line2d_34">
    <path clip-path="url(#p2038dd0ad0)" d="M 417.005786 93.540458 
L 417.005786 69.739299 
" style="fill:none;stroke:#000000;stroke-linecap:square;"/>
   </g>
   <g id="line2d_35">
    <path clip-path="url(#p2038dd0ad0)" d="M 415.882757 179.225129 
L 418.128814 179.225129 
" style="fill:none;stroke:#000000;stroke-linecap:square;"/>
   </g>
   <g id="line2d_36">
    <path clip-path="url(#p2038dd0ad0)" d="M 415.882757 69.739299 
L 418.128814 69.739299 
" style="fill:none;stroke:#000000;stroke-linecap:square;"/>
   </g>
   <g id="line2d_37">
    <path clip-path="url(#p2038dd0ad0)" d="M 469.413786 103.128037 
L 469.413786 140.381099 
" style="fill:none;stroke:#000000;stroke-linecap:square;"/>
   </g>
   <g id="line2d_38">
    <path clip-path="url(#p2038dd0ad0)" d="M 469.413786 76.842073 
L 469.413786 60.039368 
" style="fill:none;stroke:#000000;stroke-linecap:square;"/>
   </g>
   <g id="line2d_39">
    <path clip-path="url(#p2038dd0ad0)" d="M 468.290757 140.381099 
L 470.536814 140.381099 
" style="fill:none;stroke:#000000;stroke-linecap:square;"/>
   </g>
   <g id="line2d_40">
    <path clip-path="url(#p2038dd0ad0)" d="M 468.290757 60.039368 
L 470.536814 60.039368 
" style="fill:none;stroke:#000000;stroke-linecap:square;"/>
   </g>
   <g id="line2d_41">
    <path clip-path="url(#p2038dd0ad0)" d="M 521.821786 82.612457 
L 521.821786 108.32347 
" style="fill:none;stroke:#000000;stroke-linecap:square;"/>
   </g>
   <g id="line2d_42">
    <path clip-path="url(#p2038dd0ad0)" d="M 521.821786 65.435722 
L 521.821786 55.886449 
" style="fill:none;stroke:#000000;stroke-linecap:square;"/>
   </g>
   <g id="line2d_43">
    <path clip-path="url(#p2038dd0ad0)" d="M 520.698757 108.32347 
L 522.944814 108.32347 
" style="fill:none;stroke:#000000;stroke-linecap:square;"/>
   </g>
   <g id="line2d_44">
    <path clip-path="url(#p2038dd0ad0)" d="M 520.698757 55.886449 
L 522.944814 55.886449 
" style="fill:none;stroke:#000000;stroke-linecap:square;"/>
   </g>
   <g id="line2d_45">
    <path clip-path="url(#p2038dd0ad0)" d="M 574.229786 69.237786 
L 574.229786 84.08583 
" style="fill:none;stroke:#000000;stroke-linecap:square;"/>
   </g>
   <g id="line2d_46">
    <path clip-path="url(#p2038dd0ad0)" d="M 574.229786 59.316179 
L 574.229786 51.646682 
" style="fill:none;stroke:#000000;stroke-linecap:square;"/>
   </g>
   <g id="line2d_47">
    <path clip-path="url(#p2038dd0ad0)" d="M 573.106757 84.08583 
L 575.352814 84.08583 
" style="fill:none;stroke:#000000;stroke-linecap:square;"/>
   </g>
   <g id="line2d_48">
    <path clip-path="url(#p2038dd0ad0)" d="M 573.106757 51.646682 
L 575.352814 51.646682 
" style="fill:none;stroke:#000000;stroke-linecap:square;"/>
   </g>
   <g id="line2d_49">
    <path clip-path="url(#p2038dd0ad0)" d="M 110.044643 334.505893 
L 110.044643 335.71108 
" style="fill:none;stroke:#000000;stroke-linecap:square;"/>
   </g>
   <g id="line2d_50">
    <path clip-path="url(#p2038dd0ad0)" d="M 110.044643 321.143675 
L 110.044643 302.5445 
" style="fill:none;stroke:#000000;stroke-linecap:square;"/>
   </g>
   <g id="line2d_51">
    <path clip-path="url(#p2038dd0ad0)" d="M 108.921614 335.71108 
L 111.167671 335.71108 
" style="fill:none;stroke:#000000;stroke-linecap:square;"/>
   </g>
   <g id="line2d_52">
    <path clip-path="url(#p2038dd0ad0)" d="M 108.921614 302.5445 
L 111.167671 302.5445 
" style="fill:none;stroke:#000000;stroke-linecap:square;"/>
   </g>
   <g id="line2d_53">
    <path clip-path="url(#p2038dd0ad0)" d="M 162.452643 332.095519 
L 162.452643 334.833737 
" style="fill:none;stroke:#000000;stroke-linecap:square;"/>
   </g>
   <g id="line2d_54">
    <path clip-path="url(#p2038dd0ad0)" d="M 162.452643 311.8488 
L 162.452643 297.569514 
" style="fill:none;stroke:#000000;stroke-linecap:square;"/>
   </g>
   <g id="line2d_55">
    <path clip-path="url(#p2038dd0ad0)" d="M 161.329614 334.833737 
L 163.575671 334.833737 
" style="fill:none;stroke:#000000;stroke-linecap:square;"/>
   </g>
   <g id="line2d_56">
    <path clip-path="url(#p2038dd0ad0)" d="M 161.329614 297.569514 
L 163.575671 297.569514 
" style="fill:none;stroke:#000000;stroke-linecap:square;"/>
   </g>
   <g id="line2d_57">
    <path clip-path="url(#p2038dd0ad0)" d="M 214.860643 322.36715 
L 214.860643 334.833737 
" style="fill:none;stroke:#000000;stroke-linecap:square;"/>
   </g>
   <g id="line2d_58">
    <path clip-path="url(#p2038dd0ad0)" d="M 214.860643 296.805555 
L 214.860643 277.912545 
" style="fill:none;stroke:#000000;stroke-linecap:square;"/>
   </g>
   <g id="line2d_59">
    <path clip-path="url(#p2038dd0ad0)" d="M 213.737614 334.833737 
L 215.983671 334.833737 
" style="fill:none;stroke:#000000;stroke-linecap:square;"/>
   </g>
   <g id="line2d_60">
    <path clip-path="url(#p2038dd0ad0)" d="M 213.737614 277.912545 
L 215.983671 277.912545 
" style="fill:none;stroke:#000000;stroke-linecap:square;"/>
   </g>
   <g id="line2d_61">
    <path clip-path="url(#p2038dd0ad0)" d="M 267.268643 312.099205 
L 267.268643 333.956395 
" style="fill:none;stroke:#000000;stroke-linecap:square;"/>
   </g>
   <g id="line2d_62">
    <path clip-path="url(#p2038dd0ad0)" d="M 267.268643 266.107954 
L 267.268643 214.653066 
" style="fill:none;stroke:#000000;stroke-linecap:square;"/>
   </g>
   <g id="line2d_63">
    <path clip-path="url(#p2038dd0ad0)" d="M 266.145614 333.956395 
L 268.391671 333.956395 
" style="fill:none;stroke:#000000;stroke-linecap:square;"/>
   </g>
   <g id="line2d_64">
    <path clip-path="url(#p2038dd0ad0)" d="M 266.145614 214.653066 
L 268.391671 214.653066 
" style="fill:none;stroke:#000000;stroke-linecap:square;"/>
   </g>
   <g id="line2d_65">
    <path clip-path="url(#p2038dd0ad0)" d="M 319.676643 296.953503 
L 319.676643 330.447026 
" style="fill:none;stroke:#000000;stroke-linecap:square;"/>
   </g>
   <g id="line2d_66">
    <path clip-path="url(#p2038dd0ad0)" d="M 319.676643 226.533033 
L 319.676643 181.486487 
" style="fill:none;stroke:#000000;stroke-linecap:square;"/>
   </g>
   <g id="line2d_67">
    <path clip-path="url(#p2038dd0ad0)" d="M 318.553614 330.447026 
L 320.799671 330.447026 
" style="fill:none;stroke:#000000;stroke-linecap:square;"/>
   </g>
   <g id="line2d_68">
    <path clip-path="url(#p2038dd0ad0)" d="M 318.553614 181.486487 
L 320.799671 181.486487 
" style="fill:none;stroke:#000000;stroke-linecap:square;"/>
   </g>
   <g id="line2d_69">
    <path clip-path="url(#p2038dd0ad0)" d="M 372.084643 268.618102 
L 372.084643 320.796262 
" style="fill:none;stroke:#000000;stroke-linecap:square;"/>
   </g>
   <g id="line2d_70">
    <path clip-path="url(#p2038dd0ad0)" d="M 372.084643 181.963459 
L 372.084643 149.978237 
" style="fill:none;stroke:#000000;stroke-linecap:square;"/>
   </g>
   <g id="line2d_71">
    <path clip-path="url(#p2038dd0ad0)" d="M 370.961614 320.796262 
L 373.207671 320.796262 
" style="fill:none;stroke:#000000;stroke-linecap:square;"/>
   </g>
   <g id="line2d_72">
    <path clip-path="url(#p2038dd0ad0)" d="M 370.961614 149.978237 
L 373.207671 149.978237 
" style="fill:none;stroke:#000000;stroke-linecap:square;"/>
   </g>
   <g id="line2d_73">
    <path clip-path="url(#p2038dd0ad0)" d="M 424.492643 233.365947 
L 424.492643 305.004102 
" style="fill:none;stroke:#000000;stroke-linecap:square;"/>
   </g>
   <g id="line2d_74">
    <path clip-path="url(#p2038dd0ad0)" d="M 424.492643 146.439016 
L 424.492643 117.784331 
" style="fill:none;stroke:#000000;stroke-linecap:square;"/>
   </g>
   <g id="line2d_75">
    <path clip-path="url(#p2038dd0ad0)" d="M 423.369614 305.004102 
L 425.615671 305.004102 
" style="fill:none;stroke:#000000;stroke-linecap:square;"/>
   </g>
   <g id="line2d_76">
    <path clip-path="url(#p2038dd0ad0)" d="M 423.369614 117.784331 
L 425.615671 117.784331 
" style="fill:none;stroke:#000000;stroke-linecap:square;"/>
   </g>
   <g id="line2d_77">
    <path clip-path="url(#p2038dd0ad0)" d="M 476.900643 196.52381 
L 476.900643 266.401043 
" style="fill:none;stroke:#000000;stroke-linecap:square;"/>
   </g>
   <g id="line2d_78">
    <path clip-path="url(#p2038dd0ad0)" d="M 476.900643 119.121473 
L 476.900643 85.601056 
" style="fill:none;stroke:#000000;stroke-linecap:square;"/>
   </g>
   <g id="line2d_79">
    <path clip-path="url(#p2038dd0ad0)" d="M 475.777614 266.401043 
L 478.023671 266.401043 
" style="fill:none;stroke:#000000;stroke-linecap:square;"/>
   </g>
   <g id="line2d_80">
    <path clip-path="url(#p2038dd0ad0)" d="M 475.777614 85.601056 
L 478.023671 85.601056 
" style="fill:none;stroke:#000000;stroke-linecap:square;"/>
   </g>
   <g id="line2d_81">
    <path clip-path="url(#p2038dd0ad0)" d="M 529.308643 142.47238 
L 529.308643 208.496456 
" style="fill:none;stroke:#000000;stroke-linecap:square;"/>
   </g>
   <g id="line2d_82">
    <path clip-path="url(#p2038dd0ad0)" d="M 529.308643 90.948104 
L 529.308643 65.371569 
" style="fill:none;stroke:#000000;stroke-linecap:square;"/>
   </g>
   <g id="line2d_83">
    <path clip-path="url(#p2038dd0ad0)" d="M 528.185614 208.496456 
L 530.431671 208.496456 
" style="fill:none;stroke:#000000;stroke-linecap:square;"/>
   </g>
   <g id="line2d_84">
    <path clip-path="url(#p2038dd0ad0)" d="M 528.185614 65.371569 
L 530.431671 65.371569 
" style="fill:none;stroke:#000000;stroke-linecap:square;"/>
   </g>
   <g id="line2d_85">
    <path clip-path="url(#p2038dd0ad0)" d="M 581.716643 97.346479 
L 581.716643 133.045024 
" style="fill:none;stroke:#000000;stroke-linecap:square;"/>
   </g>
   <g id="line2d_86">
    <path clip-path="url(#p2038dd0ad0)" d="M 581.716643 67.827865 
L 581.716643 56.176348 
" style="fill:none;stroke:#000000;stroke-linecap:square;"/>
   </g>
   <g id="line2d_87">
    <path clip-path="url(#p2038dd0ad0)" d="M 580.593614 133.045024 
L 582.839671 133.045024 
" style="fill:none;stroke:#000000;stroke-linecap:square;"/>
   </g>
   <g id="line2d_88">
    <path clip-path="url(#p2038dd0ad0)" d="M 580.593614 56.176348 
L 582.839671 56.176348 
" style="fill:none;stroke:#000000;stroke-linecap:square;"/>
   </g>
   <g id="line2d_89">
    <path clip-path="url(#p2038dd0ad0)" d="M 117.5315 284.767834 
L 117.5315 332.335892 
" style="fill:none;stroke:#000000;stroke-linecap:square;"/>
   </g>
   <g id="line2d_90">
    <path clip-path="url(#p2038dd0ad0)" d="M 117.5315 212.757833 
L 117.5315 116.686837 
" style="fill:none;stroke:#000000;stroke-linecap:square;"/>
   </g>
   <g id="line2d_91">
    <path clip-path="url(#p2038dd0ad0)" d="M 116.408471 332.335892 
L 118.654529 332.335892 
" style="fill:none;stroke:#000000;stroke-linecap:square;"/>
   </g>
   <g id="line2d_92">
    <path clip-path="url(#p2038dd0ad0)" d="M 116.408471 116.686837 
L 118.654529 116.686837 
" style="fill:none;stroke:#000000;stroke-linecap:square;"/>
   </g>
   <g id="line2d_93">
    <path clip-path="url(#p2038dd0ad0)" d="M 169.9395 282.01492 
L 169.9395 332.335892 
" style="fill:none;stroke:#000000;stroke-linecap:square;"/>
   </g>
   <g id="line2d_94">
    <path clip-path="url(#p2038dd0ad0)" d="M 169.9395 211.294104 
L 169.9395 116.686837 
" style="fill:none;stroke:#000000;stroke-linecap:square;"/>
   </g>
   <g id="line2d_95">
    <path clip-path="url(#p2038dd0ad0)" d="M 168.816471 332.335892 
L 171.062529 332.335892 
" style="fill:none;stroke:#000000;stroke-linecap:square;"/>
   </g>
   <g id="line2d_96">
    <path clip-path="url(#p2038dd0ad0)" d="M 168.816471 116.686837 
L 171.062529 116.686837 
" style="fill:none;stroke:#000000;stroke-linecap:square;"/>
   </g>
   <g id="line2d_97">
    <path clip-path="url(#p2038dd0ad0)" d="M 222.3475 268.680493 
L 222.3475 332.335892 
" style="fill:none;stroke:#000000;stroke-linecap:square;"/>
   </g>
   <g id="line2d_98">
    <path clip-path="url(#p2038dd0ad0)" d="M 222.3475 195.384004 
L 222.3475 113.601989 
" style="fill:none;stroke:#000000;stroke-linecap:square;"/>
   </g>
   <g id="line2d_99">
    <path clip-path="url(#p2038dd0ad0)" d="M 221.224471 332.335892 
L 223.470529 332.335892 
" style="fill:none;stroke:#000000;stroke-linecap:square;"/>
   </g>
   <g id="line2d_100">
    <path clip-path="url(#p2038dd0ad0)" d="M 221.224471 113.601989 
L 223.470529 113.601989 
" style="fill:none;stroke:#000000;stroke-linecap:square;"/>
   </g>
   <g id="line2d_101">
    <path clip-path="url(#p2038dd0ad0)" d="M 274.7555 249.263819 
L 274.7555 330.648299 
" style="fill:none;stroke:#000000;stroke-linecap:square;"/>
   </g>
   <g id="line2d_102">
    <path clip-path="url(#p2038dd0ad0)" d="M 274.7555 182.935839 
L 274.7555 105.889867 
" style="fill:none;stroke:#000000;stroke-linecap:square;"/>
   </g>
   <g id="line2d_103">
    <path clip-path="url(#p2038dd0ad0)" d="M 273.632471 330.648299 
L 275.878529 330.648299 
" style="fill:none;stroke:#000000;stroke-linecap:square;"/>
   </g>
   <g id="line2d_104">
    <path clip-path="url(#p2038dd0ad0)" d="M 273.632471 105.889867 
L 275.878529 105.889867 
" style="fill:none;stroke:#000000;stroke-linecap:square;"/>
   </g>
   <g id="line2d_105">
    <path clip-path="url(#p2038dd0ad0)" d="M 327.1635 222.621302 
L 327.1635 294.486286 
" style="fill:none;stroke:#000000;stroke-linecap:square;"/>
   </g>
   <g id="line2d_106">
    <path clip-path="url(#p2038dd0ad0)" d="M 327.1635 158.83097 
L 327.1635 98.177746 
" style="fill:none;stroke:#000000;stroke-linecap:square;"/>
   </g>
   <g id="line2d_107">
    <path clip-path="url(#p2038dd0ad0)" d="M 326.040471 294.486286 
L 328.286529 294.486286 
" style="fill:none;stroke:#000000;stroke-linecap:square;"/>
   </g>
   <g id="line2d_108">
    <path clip-path="url(#p2038dd0ad0)" d="M 326.040471 98.177746 
L 328.286529 98.177746 
" style="fill:none;stroke:#000000;stroke-linecap:square;"/>
   </g>
   <g id="line2d_109">
    <path clip-path="url(#p2038dd0ad0)" d="M 379.5715 199.6777 
L 379.5715 257.061858 
" style="fill:none;stroke:#000000;stroke-linecap:square;"/>
   </g>
   <g id="line2d_110">
    <path clip-path="url(#p2038dd0ad0)" d="M 379.5715 138.926701 
L 379.5715 93.060357 
" style="fill:none;stroke:#000000;stroke-linecap:square;"/>
   </g>
   <g id="line2d_111">
    <path clip-path="url(#p2038dd0ad0)" d="M 378.448471 257.061858 
L 380.694529 257.061858 
" style="fill:none;stroke:#000000;stroke-linecap:square;"/>
   </g>
   <g id="line2d_112">
    <path clip-path="url(#p2038dd0ad0)" d="M 378.448471 93.060357 
L 380.694529 93.060357 
" style="fill:none;stroke:#000000;stroke-linecap:square;"/>
   </g>
   <g id="line2d_113">
    <path clip-path="url(#p2038dd0ad0)" d="M 431.9795 175.763051 
L 431.9795 233.380564 
" style="fill:none;stroke:#000000;stroke-linecap:square;"/>
   </g>
   <g id="line2d_114">
    <path clip-path="url(#p2038dd0ad0)" d="M 431.9795 124.961834 
L 431.9795 89.038522 
" style="fill:none;stroke:#000000;stroke-linecap:square;"/>
   </g>
   <g id="line2d_115">
    <path clip-path="url(#p2038dd0ad0)" d="M 430.856471 233.380564 
L 433.102529 233.380564 
" style="fill:none;stroke:#000000;stroke-linecap:square;"/>
   </g>
   <g id="line2d_116">
    <path clip-path="url(#p2038dd0ad0)" d="M 430.856471 89.038522 
L 433.102529 89.038522 
" style="fill:none;stroke:#000000;stroke-linecap:square;"/>
   </g>
   <g id="line2d_117">
    <path clip-path="url(#p2038dd0ad0)" d="M 484.3875 144.450473 
L 484.3875 198.661282 
" style="fill:none;stroke:#000000;stroke-linecap:square;"/>
   </g>
   <g id="line2d_118">
    <path clip-path="url(#p2038dd0ad0)" d="M 484.3875 99.053987 
L 484.3875 71.61057 
" style="fill:none;stroke:#000000;stroke-linecap:square;"/>
   </g>
   <g id="line2d_119">
    <path clip-path="url(#p2038dd0ad0)" d="M 483.264471 198.661282 
L 485.510529 198.661282 
" style="fill:none;stroke:#000000;stroke-linecap:square;"/>
   </g>
   <g id="line2d_120">
    <path clip-path="url(#p2038dd0ad0)" d="M 483.264471 71.61057 
L 485.510529 71.61057 
" style="fill:none;stroke:#000000;stroke-linecap:square;"/>
   </g>
   <g id="line2d_121">
    <path clip-path="url(#p2038dd0ad0)" d="M 536.7955 107.502402 
L 536.7955 141.508003 
" style="fill:none;stroke:#000000;stroke-linecap:square;"/>
   </g>
   <g id="line2d_122">
    <path clip-path="url(#p2038dd0ad0)" d="M 536.7955 79.791348 
L 536.7955 56.863841 
" style="fill:none;stroke:#000000;stroke-linecap:square;"/>
   </g>
   <g id="line2d_123">
    <path clip-path="url(#p2038dd0ad0)" d="M 535.672471 141.508003 
L 537.918529 141.508003 
" style="fill:none;stroke:#000000;stroke-linecap:square;"/>
   </g>
   <g id="line2d_124">
    <path clip-path="url(#p2038dd0ad0)" d="M 535.672471 56.863841 
L 537.918529 56.863841 
" style="fill:none;stroke:#000000;stroke-linecap:square;"/>
   </g>
   <g id="line2d_125">
    <path clip-path="url(#p2038dd0ad0)" d="M 589.2035 81.42141 
L 589.2035 104.553755 
" style="fill:none;stroke:#000000;stroke-linecap:square;"/>
   </g>
   <g id="line2d_126">
    <path clip-path="url(#p2038dd0ad0)" d="M 589.2035 65.779239 
L 589.2035 55.523229 
" style="fill:none;stroke:#000000;stroke-linecap:square;"/>
   </g>
   <g id="line2d_127">
    <path clip-path="url(#p2038dd0ad0)" d="M 588.080471 104.553755 
L 590.326529 104.553755 
" style="fill:none;stroke:#000000;stroke-linecap:square;"/>
   </g>
   <g id="line2d_128">
    <path clip-path="url(#p2038dd0ad0)" d="M 588.080471 55.523229 
L 590.326529 55.523229 
" style="fill:none;stroke:#000000;stroke-linecap:square;"/>
   </g>
   <g id="line2d_129">
    <path clip-path="url(#p2038dd0ad0)" d="M 125.018357 319.181565 
L 125.018357 333.172222 
" style="fill:none;stroke:#000000;stroke-linecap:square;"/>
   </g>
   <g id="line2d_130">
    <path clip-path="url(#p2038dd0ad0)" d="M 125.018357 277.563459 
L 125.018357 246.05767 
" style="fill:none;stroke:#000000;stroke-linecap:square;"/>
   </g>
   <g id="line2d_131">
    <path clip-path="url(#p2038dd0ad0)" d="M 123.895329 333.172222 
L 126.141386 333.172222 
" style="fill:none;stroke:#000000;stroke-linecap:square;"/>
   </g>
   <g id="line2d_132">
    <path clip-path="url(#p2038dd0ad0)" d="M 123.895329 246.05767 
L 126.141386 246.05767 
" style="fill:none;stroke:#000000;stroke-linecap:square;"/>
   </g>
   <g id="line2d_133">
    <path clip-path="url(#p2038dd0ad0)" d="M 177.426357 317.4321 
L 177.426357 333.172222 
" style="fill:none;stroke:#000000;stroke-linecap:square;"/>
   </g>
   <g id="line2d_134">
    <path clip-path="url(#p2038dd0ad0)" d="M 177.426357 273.341667 
L 177.426357 235.377647 
" style="fill:none;stroke:#000000;stroke-linecap:square;"/>
   </g>
   <g id="line2d_135">
    <path clip-path="url(#p2038dd0ad0)" d="M 176.303329 333.172222 
L 178.549386 333.172222 
" style="fill:none;stroke:#000000;stroke-linecap:square;"/>
   </g>
   <g id="line2d_136">
    <path clip-path="url(#p2038dd0ad0)" d="M 176.303329 235.377647 
L 178.549386 235.377647 
" style="fill:none;stroke:#000000;stroke-linecap:square;"/>
   </g>
   <g id="line2d_137">
    <path clip-path="url(#p2038dd0ad0)" d="M 229.834357 304.226712 
L 229.834357 333.172222 
" style="fill:none;stroke:#000000;stroke-linecap:square;"/>
   </g>
   <g id="line2d_138">
    <path clip-path="url(#p2038dd0ad0)" d="M 229.834357 251.782906 
L 229.834357 207.158869 
" style="fill:none;stroke:#000000;stroke-linecap:square;"/>
   </g>
   <g id="line2d_139">
    <path clip-path="url(#p2038dd0ad0)" d="M 228.711329 333.172222 
L 230.957386 333.172222 
" style="fill:none;stroke:#000000;stroke-linecap:square;"/>
   </g>
   <g id="line2d_140">
    <path clip-path="url(#p2038dd0ad0)" d="M 228.711329 207.158869 
L 230.957386 207.158869 
" style="fill:none;stroke:#000000;stroke-linecap:square;"/>
   </g>
   <g id="line2d_141">
    <path clip-path="url(#p2038dd0ad0)" d="M 282.242357 279.354909 
L 282.242357 331.47965 
" style="fill:none;stroke:#000000;stroke-linecap:square;"/>
   </g>
   <g id="line2d_142">
    <path clip-path="url(#p2038dd0ad0)" d="M 282.242357 224.662749 
L 282.242357 186.57836 
" style="fill:none;stroke:#000000;stroke-linecap:square;"/>
   </g>
   <g id="line2d_143">
    <path clip-path="url(#p2038dd0ad0)" d="M 281.119329 331.47965 
L 283.365386 331.47965 
" style="fill:none;stroke:#000000;stroke-linecap:square;"/>
   </g>
   <g id="line2d_144">
    <path clip-path="url(#p2038dd0ad0)" d="M 281.119329 186.57836 
L 283.365386 186.57836 
" style="fill:none;stroke:#000000;stroke-linecap:square;"/>
   </g>
   <g id="line2d_145">
    <path clip-path="url(#p2038dd0ad0)" d="M 334.650357 253.101614 
L 334.650357 328.094507 
" style="fill:none;stroke:#000000;stroke-linecap:square;"/>
   </g>
   <g id="line2d_146">
    <path clip-path="url(#p2038dd0ad0)" d="M 334.650357 194.655763 
L 334.650357 154.593081 
" style="fill:none;stroke:#000000;stroke-linecap:square;"/>
   </g>
   <g id="line2d_147">
    <path clip-path="url(#p2038dd0ad0)" d="M 333.527329 328.094507 
L 335.773386 328.094507 
" style="fill:none;stroke:#000000;stroke-linecap:square;"/>
   </g>
   <g id="line2d_148">
    <path clip-path="url(#p2038dd0ad0)" d="M 333.527329 154.593081 
L 335.773386 154.593081 
" style="fill:none;stroke:#000000;stroke-linecap:square;"/>
   </g>
   <g id="line2d_149">
    <path clip-path="url(#p2038dd0ad0)" d="M 387.058357 231.171633 
L 387.058357 317.939076 
" style="fill:none;stroke:#000000;stroke-linecap:square;"/>
   </g>
   <g id="line2d_150">
    <path clip-path="url(#p2038dd0ad0)" d="M 387.058357 165.287892 
L 387.058357 123.38653 
" style="fill:none;stroke:#000000;stroke-linecap:square;"/>
   </g>
   <g id="line2d_151">
    <path clip-path="url(#p2038dd0ad0)" d="M 385.935329 317.939076 
L 388.181386 317.939076 
" style="fill:none;stroke:#000000;stroke-linecap:square;"/>
   </g>
   <g id="line2d_152">
    <path clip-path="url(#p2038dd0ad0)" d="M 385.935329 123.38653 
L 388.181386 123.38653 
" style="fill:none;stroke:#000000;stroke-linecap:square;"/>
   </g>
   <g id="line2d_153">
    <path clip-path="url(#p2038dd0ad0)" d="M 439.466357 201.922476 
L 439.466357 300.167073 
" style="fill:none;stroke:#000000;stroke-linecap:square;"/>
   </g>
   <g id="line2d_154">
    <path clip-path="url(#p2038dd0ad0)" d="M 439.466357 129.317105 
L 439.466357 99.53321 
" style="fill:none;stroke:#000000;stroke-linecap:square;"/>
   </g>
   <g id="line2d_155">
    <path clip-path="url(#p2038dd0ad0)" d="M 438.343329 300.167073 
L 440.589386 300.167073 
" style="fill:none;stroke:#000000;stroke-linecap:square;"/>
   </g>
   <g id="line2d_156">
    <path clip-path="url(#p2038dd0ad0)" d="M 438.343329 99.53321 
L 440.589386 99.53321 
" style="fill:none;stroke:#000000;stroke-linecap:square;"/>
   </g>
   <g id="line2d_157">
    <path clip-path="url(#p2038dd0ad0)" d="M 491.874357 163.61568 
L 491.874357 207.069604 
" style="fill:none;stroke:#000000;stroke-linecap:square;"/>
   </g>
   <g id="line2d_158">
    <path clip-path="url(#p2038dd0ad0)" d="M 491.874357 109.169314 
L 491.874357 77.79905 
" style="fill:none;stroke:#000000;stroke-linecap:square;"/>
   </g>
   <g id="line2d_159">
    <path clip-path="url(#p2038dd0ad0)" d="M 490.751329 207.069604 
L 492.997386 207.069604 
" style="fill:none;stroke:#000000;stroke-linecap:square;"/>
   </g>
   <g id="line2d_160">
    <path clip-path="url(#p2038dd0ad0)" d="M 490.751329 77.79905 
L 492.997386 77.79905 
" style="fill:none;stroke:#000000;stroke-linecap:square;"/>
   </g>
   <g id="line2d_161">
    <path clip-path="url(#p2038dd0ad0)" d="M 544.282357 122.348433 
L 544.282357 159.084292 
" style="fill:none;stroke:#000000;stroke-linecap:square;"/>
   </g>
   <g id="line2d_162">
    <path clip-path="url(#p2038dd0ad0)" d="M 544.282357 86.61708 
L 544.282357 69.105386 
" style="fill:none;stroke:#000000;stroke-linecap:square;"/>
   </g>
   <g id="line2d_163">
    <path clip-path="url(#p2038dd0ad0)" d="M 543.159329 159.084292 
L 545.405386 159.084292 
" style="fill:none;stroke:#000000;stroke-linecap:square;"/>
   </g>
   <g id="line2d_164">
    <path clip-path="url(#p2038dd0ad0)" d="M 543.159329 69.105386 
L 545.405386 69.105386 
" style="fill:none;stroke:#000000;stroke-linecap:square;"/>
   </g>
   <g id="line2d_165">
    <path clip-path="url(#p2038dd0ad0)" d="M 596.690357 87.202568 
L 596.690357 105.994159 
" style="fill:none;stroke:#000000;stroke-linecap:square;"/>
   </g>
   <g id="line2d_166">
    <path clip-path="url(#p2038dd0ad0)" d="M 596.690357 67.304127 
L 596.690357 59.03587 
" style="fill:none;stroke:#000000;stroke-linecap:square;"/>
   </g>
   <g id="line2d_167">
    <path clip-path="url(#p2038dd0ad0)" d="M 595.567329 105.994159 
L 597.813386 105.994159 
" style="fill:none;stroke:#000000;stroke-linecap:square;"/>
   </g>
   <g id="line2d_168">
    <path clip-path="url(#p2038dd0ad0)" d="M 595.567329 59.03587 
L 597.813386 59.03587 
" style="fill:none;stroke:#000000;stroke-linecap:square;"/>
   </g>
   <g id="patch_3">
    <path clip-path="url(#p2038dd0ad0)" d="M 100.311729 206.608522 
L 104.803843 206.608522 
L 104.803843 130.793953 
L 100.311729 130.793953 
L 100.311729 206.608522 
z
" style="fill:#c4ad66;stroke:#000000;stroke-linejoin:miter;"/>
   </g>
   <g id="patch_4">
    <path clip-path="url(#p2038dd0ad0)" d="M 152.719729 204.134797 
L 157.211843 204.134797 
L 157.211843 129.723189 
L 152.719729 129.723189 
L 152.719729 204.134797 
z
" style="fill:#c4ad66;stroke:#000000;stroke-linejoin:miter;"/>
   </g>
   <g id="patch_5">
    <path clip-path="url(#p2038dd0ad0)" d="M 205.127729 193.876016 
L 209.619843 193.876016 
L 209.619843 125.888564 
L 205.127729 125.888564 
L 205.127729 193.876016 
z
" style="fill:#c4ad66;stroke:#000000;stroke-linejoin:miter;"/>
   </g>
   <g id="patch_6">
    <path clip-path="url(#p2038dd0ad0)" d="M 257.535729 180.76067 
L 262.027843 180.76067 
L 262.027843 118.983854 
L 257.535729 118.983854 
L 257.535729 180.76067 
z
" style="fill:#c4ad66;stroke:#000000;stroke-linejoin:miter;"/>
   </g>
   <g id="patch_7">
    <path clip-path="url(#p2038dd0ad0)" d="M 309.943729 161.626951 
L 314.435843 161.626951 
L 314.435843 106.785437 
L 309.943729 106.785437 
L 309.943729 161.626951 
z
" style="fill:#c4ad66;stroke:#000000;stroke-linejoin:miter;"/>
   </g>
   <g id="patch_8">
    <path clip-path="url(#p2038dd0ad0)" d="M 362.351729 145.49343 
L 366.843843 145.49343 
L 366.843843 99.447978 
L 362.351729 99.447978 
L 362.351729 145.49343 
z
" style="fill:#c4ad66;stroke:#000000;stroke-linejoin:miter;"/>
   </g>
   <g id="patch_9">
    <path clip-path="url(#p2038dd0ad0)" d="M 414.759729 129.84571 
L 419.251843 129.84571 
L 419.251843 93.540458 
L 414.759729 93.540458 
L 414.759729 129.84571 
z
" style="fill:#c4ad66;stroke:#000000;stroke-linejoin:miter;"/>
   </g>
   <g id="patch_10">
    <path clip-path="url(#p2038dd0ad0)" d="M 467.167729 103.128037 
L 471.659843 103.128037 
L 471.659843 76.842073 
L 467.167729 76.842073 
L 467.167729 103.128037 
z
" style="fill:#c4ad66;stroke:#000000;stroke-linejoin:miter;"/>
   </g>
   <g id="patch_11">
    <path clip-path="url(#p2038dd0ad0)" d="M 519.575729 82.612457 
L 524.067843 82.612457 
L 524.067843 65.435722 
L 519.575729 65.435722 
L 519.575729 82.612457 
z
" style="fill:#c4ad66;stroke:#000000;stroke-linejoin:miter;"/>
   </g>
   <g id="patch_12">
    <path clip-path="url(#p2038dd0ad0)" d="M 571.983729 69.237786 
L 576.475843 69.237786 
L 576.475843 59.316179 
L 571.983729 59.316179 
L 571.983729 69.237786 
z
" style="fill:#c4ad66;stroke:#000000;stroke-linejoin:miter;"/>
   </g>
   <g id="patch_13">
    <path clip-path="url(#p2038dd0ad0)" d="M 107.798586 334.505893 
L 112.2907 334.505893 
L 112.2907 321.143675 
L 107.798586 321.143675 
L 107.798586 334.505893 
z
" style="fill:#d65f5f;stroke:#000000;stroke-linejoin:miter;"/>
   </g>
   <g id="patch_14">
    <path clip-path="url(#p2038dd0ad0)" d="M 160.206586 332.095519 
L 164.6987 332.095519 
L 164.6987 311.8488 
L 160.206586 311.8488 
L 160.206586 332.095519 
z
" style="fill:#d65f5f;stroke:#000000;stroke-linejoin:miter;"/>
   </g>
   <g id="patch_15">
    <path clip-path="url(#p2038dd0ad0)" d="M 212.614586 322.36715 
L 217.1067 322.36715 
L 217.1067 296.805555 
L 212.614586 296.805555 
L 212.614586 322.36715 
z
" style="fill:#d65f5f;stroke:#000000;stroke-linejoin:miter;"/>
   </g>
   <g id="patch_16">
    <path clip-path="url(#p2038dd0ad0)" d="M 265.022586 312.099205 
L 269.5147 312.099205 
L 269.5147 266.107954 
L 265.022586 266.107954 
L 265.022586 312.099205 
z
" style="fill:#d65f5f;stroke:#000000;stroke-linejoin:miter;"/>
   </g>
   <g id="patch_17">
    <path clip-path="url(#p2038dd0ad0)" d="M 317.430586 296.953503 
L 321.9227 296.953503 
L 321.9227 226.533033 
L 317.430586 226.533033 
L 317.430586 296.953503 
z
" style="fill:#d65f5f;stroke:#000000;stroke-linejoin:miter;"/>
   </g>
   <g id="patch_18">
    <path clip-path="url(#p2038dd0ad0)" d="M 369.838586 268.618102 
L 374.3307 268.618102 
L 374.3307 181.963459 
L 369.838586 181.963459 
L 369.838586 268.618102 
z
" style="fill:#d65f5f;stroke:#000000;stroke-linejoin:miter;"/>
   </g>
   <g id="patch_19">
    <path clip-path="url(#p2038dd0ad0)" d="M 422.246586 233.365947 
L 426.7387 233.365947 
L 426.7387 146.439016 
L 422.246586 146.439016 
L 422.246586 233.365947 
z
" style="fill:#d65f5f;stroke:#000000;stroke-linejoin:miter;"/>
   </g>
   <g id="patch_20">
    <path clip-path="url(#p2038dd0ad0)" d="M 474.654586 196.52381 
L 479.1467 196.52381 
L 479.1467 119.121473 
L 474.654586 119.121473 
L 474.654586 196.52381 
z
" style="fill:#d65f5f;stroke:#000000;stroke-linejoin:miter;"/>
   </g>
   <g id="patch_21">
    <path clip-path="url(#p2038dd0ad0)" d="M 527.062586 142.47238 
L 531.5547 142.47238 
L 531.5547 90.948104 
L 527.062586 90.948104 
L 527.062586 142.47238 
z
" style="fill:#d65f5f;stroke:#000000;stroke-linejoin:miter;"/>
   </g>
   <g id="patch_22">
    <path clip-path="url(#p2038dd0ad0)" d="M 579.470586 97.346479 
L 583.9627 97.346479 
L 583.9627 67.827865 
L 579.470586 67.827865 
L 579.470586 97.346479 
z
" style="fill:#d65f5f;stroke:#000000;stroke-linejoin:miter;"/>
   </g>
   <g id="patch_23">
    <path clip-path="url(#p2038dd0ad0)" d="M 115.285443 284.767834 
L 119.777557 284.767834 
L 119.777557 212.757833 
L 115.285443 212.757833 
L 115.285443 284.767834 
z
" style="fill:#6acc65;stroke:#000000;stroke-linejoin:miter;"/>
   </g>
   <g id="patch_24">
    <path clip-path="url(#p2038dd0ad0)" d="M 167.693443 282.01492 
L 172.185557 282.01492 
L 172.185557 211.294104 
L 167.693443 211.294104 
L 167.693443 282.01492 
z
" style="fill:#6acc65;stroke:#000000;stroke-linejoin:miter;"/>
   </g>
   <g id="patch_25">
    <path clip-path="url(#p2038dd0ad0)" d="M 220.101443 268.680493 
L 224.593557 268.680493 
L 224.593557 195.384004 
L 220.101443 195.384004 
L 220.101443 268.680493 
z
" style="fill:#6acc65;stroke:#000000;stroke-linejoin:miter;"/>
   </g>
   <g id="patch_26">
    <path clip-path="url(#p2038dd0ad0)" d="M 272.509443 249.263819 
L 277.001557 249.263819 
L 277.001557 182.935839 
L 272.509443 182.935839 
L 272.509443 249.263819 
z
" style="fill:#6acc65;stroke:#000000;stroke-linejoin:miter;"/>
   </g>
   <g id="patch_27">
    <path clip-path="url(#p2038dd0ad0)" d="M 324.917443 222.621302 
L 329.409557 222.621302 
L 329.409557 158.83097 
L 324.917443 158.83097 
L 324.917443 222.621302 
z
" style="fill:#6acc65;stroke:#000000;stroke-linejoin:miter;"/>
   </g>
   <g id="patch_28">
    <path clip-path="url(#p2038dd0ad0)" d="M 377.325443 199.6777 
L 381.817557 199.6777 
L 381.817557 138.926701 
L 377.325443 138.926701 
L 377.325443 199.6777 
z
" style="fill:#6acc65;stroke:#000000;stroke-linejoin:miter;"/>
   </g>
   <g id="patch_29">
    <path clip-path="url(#p2038dd0ad0)" d="M 429.733443 175.763051 
L 434.225557 175.763051 
L 434.225557 124.961834 
L 429.733443 124.961834 
L 429.733443 175.763051 
z
" style="fill:#6acc65;stroke:#000000;stroke-linejoin:miter;"/>
   </g>
   <g id="patch_30">
    <path clip-path="url(#p2038dd0ad0)" d="M 482.141443 144.450473 
L 486.633557 144.450473 
L 486.633557 99.053987 
L 482.141443 99.053987 
L 482.141443 144.450473 
z
" style="fill:#6acc65;stroke:#000000;stroke-linejoin:miter;"/>
   </g>
   <g id="patch_31">
    <path clip-path="url(#p2038dd0ad0)" d="M 534.549443 107.502402 
L 539.041557 107.502402 
L 539.041557 79.791348 
L 534.549443 79.791348 
L 534.549443 107.502402 
z
" style="fill:#6acc65;stroke:#000000;stroke-linejoin:miter;"/>
   </g>
   <g id="patch_32">
    <path clip-path="url(#p2038dd0ad0)" d="M 586.957443 81.42141 
L 591.449557 81.42141 
L 591.449557 65.779239 
L 586.957443 65.779239 
L 586.957443 81.42141 
z
" style="fill:#6acc65;stroke:#000000;stroke-linejoin:miter;"/>
   </g>
   <g id="patch_33">
    <path clip-path="url(#p2038dd0ad0)" d="M 122.7723 319.181565 
L 127.264414 319.181565 
L 127.264414 277.563459 
L 122.7723 277.563459 
L 122.7723 319.181565 
z
" style="fill:#4878cf;stroke:#000000;stroke-linejoin:miter;"/>
   </g>
   <g id="patch_34">
    <path clip-path="url(#p2038dd0ad0)" d="M 175.1803 317.4321 
L 179.672414 317.4321 
L 179.672414 273.341667 
L 175.1803 273.341667 
L 175.1803 317.4321 
z
" style="fill:#4878cf;stroke:#000000;stroke-linejoin:miter;"/>
   </g>
   <g id="patch_35">
    <path clip-path="url(#p2038dd0ad0)" d="M 227.5883 304.226712 
L 232.080414 304.226712 
L 232.080414 251.782906 
L 227.5883 251.782906 
L 227.5883 304.226712 
z
" style="fill:#4878cf;stroke:#000000;stroke-linejoin:miter;"/>
   </g>
   <g id="patch_36">
    <path clip-path="url(#p2038dd0ad0)" d="M 279.9963 279.354909 
L 284.488414 279.354909 
L 284.488414 224.662749 
L 279.9963 224.662749 
L 279.9963 279.354909 
z
" style="fill:#4878cf;stroke:#000000;stroke-linejoin:miter;"/>
   </g>
   <g id="patch_37">
    <path clip-path="url(#p2038dd0ad0)" d="M 332.4043 253.101614 
L 336.896414 253.101614 
L 336.896414 194.655763 
L 332.4043 194.655763 
L 332.4043 253.101614 
z
" style="fill:#4878cf;stroke:#000000;stroke-linejoin:miter;"/>
   </g>
   <g id="patch_38">
    <path clip-path="url(#p2038dd0ad0)" d="M 384.8123 231.171633 
L 389.304414 231.171633 
L 389.304414 165.287892 
L 384.8123 165.287892 
L 384.8123 231.171633 
z
" style="fill:#4878cf;stroke:#000000;stroke-linejoin:miter;"/>
   </g>
   <g id="patch_39">
    <path clip-path="url(#p2038dd0ad0)" d="M 437.2203 201.922476 
L 441.712414 201.922476 
L 441.712414 129.317105 
L 437.2203 129.317105 
L 437.2203 201.922476 
z
" style="fill:#4878cf;stroke:#000000;stroke-linejoin:miter;"/>
   </g>
   <g id="patch_40">
    <path clip-path="url(#p2038dd0ad0)" d="M 489.6283 163.61568 
L 494.120414 163.61568 
L 494.120414 109.169314 
L 489.6283 109.169314 
L 489.6283 163.61568 
z
" style="fill:#4878cf;stroke:#000000;stroke-linejoin:miter;"/>
   </g>
   <g id="patch_41">
    <path clip-path="url(#p2038dd0ad0)" d="M 542.0363 122.348433 
L 546.528414 122.348433 
L 546.528414 86.61708 
L 542.0363 86.61708 
L 542.0363 122.348433 
z
" style="fill:#4878cf;stroke:#000000;stroke-linejoin:miter;"/>
   </g>
   <g id="patch_42">
    <path clip-path="url(#p2038dd0ad0)" d="M 594.4443 87.202568 
L 598.936414 87.202568 
L 598.936414 67.304127 
L 594.4443 67.304127 
L 594.4443 87.202568 
z
" style="fill:#4878cf;stroke:#000000;stroke-linejoin:miter;"/>
   </g>
   <g id="line2d_169">
    <path clip-path="url(#p2038dd0ad0)" d="M 100.311729 158.187423 
L 104.803843 158.187423 
" style="fill:none;stroke:#ff7f0e;stroke-linecap:square;"/>
   </g>
   <g id="line2d_170">
    <path clip-path="url(#p2038dd0ad0)" d="M 152.719729 157.278929 
L 157.211843 157.278929 
" style="fill:none;stroke:#ff7f0e;stroke-linecap:square;"/>
   </g>
   <g id="line2d_171">
    <path clip-path="url(#p2038dd0ad0)" d="M 205.127729 152.310498 
L 209.619843 152.310498 
" style="fill:none;stroke:#ff7f0e;stroke-linecap:square;"/>
   </g>
   <g id="line2d_172">
    <path clip-path="url(#p2038dd0ad0)" d="M 257.535729 142.757902 
L 262.027843 142.757902 
" style="fill:none;stroke:#ff7f0e;stroke-linecap:square;"/>
   </g>
   <g id="line2d_173">
    <path clip-path="url(#p2038dd0ad0)" d="M 309.943729 127.387805 
L 314.435843 127.387805 
" style="fill:none;stroke:#ff7f0e;stroke-linecap:square;"/>
   </g>
   <g id="line2d_174">
    <path clip-path="url(#p2038dd0ad0)" d="M 362.351729 115.572016 
L 366.843843 115.572016 
" style="fill:none;stroke:#ff7f0e;stroke-linecap:square;"/>
   </g>
   <g id="line2d_175">
    <path clip-path="url(#p2038dd0ad0)" d="M 414.759729 107.260911 
L 419.251843 107.260911 
" style="fill:none;stroke:#ff7f0e;stroke-linecap:square;"/>
   </g>
   <g id="line2d_176">
    <path clip-path="url(#p2038dd0ad0)" d="M 467.167729 85.444542 
L 471.659843 85.444542 
" style="fill:none;stroke:#ff7f0e;stroke-linecap:square;"/>
   </g>
   <g id="line2d_177">
    <path clip-path="url(#p2038dd0ad0)" d="M 519.575729 72.120955 
L 524.067843 72.120955 
" style="fill:none;stroke:#ff7f0e;stroke-linecap:square;"/>
   </g>
   <g id="line2d_178">
    <path clip-path="url(#p2038dd0ad0)" d="M 571.983729 63.561601 
L 576.475843 63.561601 
" style="fill:none;stroke:#ff7f0e;stroke-linecap:square;"/>
   </g>
   <g id="line2d_179">
    <path clip-path="url(#p2038dd0ad0)" d="M 107.798586 330.680082 
L 112.2907 330.680082 
" style="fill:none;stroke:#ff7f0e;stroke-linecap:square;"/>
   </g>
   <g id="line2d_180">
    <path clip-path="url(#p2038dd0ad0)" d="M 160.206586 326.530547 
L 164.6987 326.530547 
" style="fill:none;stroke:#ff7f0e;stroke-linecap:square;"/>
   </g>
   <g id="line2d_181">
    <path clip-path="url(#p2038dd0ad0)" d="M 212.614586 307.928375 
L 217.1067 307.928375 
" style="fill:none;stroke:#ff7f0e;stroke-linecap:square;"/>
   </g>
   <g id="line2d_182">
    <path clip-path="url(#p2038dd0ad0)" d="M 265.022586 292.263658 
L 269.5147 292.263658 
" style="fill:none;stroke:#ff7f0e;stroke-linecap:square;"/>
   </g>
   <g id="line2d_183">
    <path clip-path="url(#p2038dd0ad0)" d="M 317.430586 262.921163 
L 321.9227 262.921163 
" style="fill:none;stroke:#ff7f0e;stroke-linecap:square;"/>
   </g>
   <g id="line2d_184">
    <path clip-path="url(#p2038dd0ad0)" d="M 369.838586 234.026941 
L 374.3307 234.026941 
" style="fill:none;stroke:#ff7f0e;stroke-linecap:square;"/>
   </g>
   <g id="line2d_185">
    <path clip-path="url(#p2038dd0ad0)" d="M 422.246586 203.509206 
L 426.7387 203.509206 
" style="fill:none;stroke:#ff7f0e;stroke-linecap:square;"/>
   </g>
   <g id="line2d_186">
    <path clip-path="url(#p2038dd0ad0)" d="M 474.654586 158.995083 
L 479.1467 158.995083 
" style="fill:none;stroke:#ff7f0e;stroke-linecap:square;"/>
   </g>
   <g id="line2d_187">
    <path clip-path="url(#p2038dd0ad0)" d="M 527.062586 117.483327 
L 531.5547 117.483327 
" style="fill:none;stroke:#ff7f0e;stroke-linecap:square;"/>
   </g>
   <g id="line2d_188">
    <path clip-path="url(#p2038dd0ad0)" d="M 579.470586 85.771244 
L 583.9627 85.771244 
" style="fill:none;stroke:#ff7f0e;stroke-linecap:square;"/>
   </g>
   <g id="line2d_189">
    <path clip-path="url(#p2038dd0ad0)" d="M 115.285443 258.375269 
L 119.777557 258.375269 
" style="fill:none;stroke:#ff7f0e;stroke-linecap:square;"/>
   </g>
   <g id="line2d_190">
    <path clip-path="url(#p2038dd0ad0)" d="M 167.693443 256.927566 
L 172.185557 256.927566 
" style="fill:none;stroke:#ff7f0e;stroke-linecap:square;"/>
   </g>
   <g id="line2d_191">
    <path clip-path="url(#p2038dd0ad0)" d="M 220.101443 239.68065 
L 224.593557 239.68065 
" style="fill:none;stroke:#ff7f0e;stroke-linecap:square;"/>
   </g>
   <g id="line2d_192">
    <path clip-path="url(#p2038dd0ad0)" d="M 272.509443 219.274183 
L 277.001557 219.274183 
" style="fill:none;stroke:#ff7f0e;stroke-linecap:square;"/>
   </g>
   <g id="line2d_193">
    <path clip-path="url(#p2038dd0ad0)" d="M 324.917443 194.128553 
L 329.409557 194.128553 
" style="fill:none;stroke:#ff7f0e;stroke-linecap:square;"/>
   </g>
   <g id="line2d_194">
    <path clip-path="url(#p2038dd0ad0)" d="M 377.325443 171.258968 
L 381.817557 171.258968 
" style="fill:none;stroke:#ff7f0e;stroke-linecap:square;"/>
   </g>
   <g id="line2d_195">
    <path clip-path="url(#p2038dd0ad0)" d="M 429.733443 146.453202 
L 434.225557 146.453202 
" style="fill:none;stroke:#ff7f0e;stroke-linecap:square;"/>
   </g>
   <g id="line2d_196">
    <path clip-path="url(#p2038dd0ad0)" d="M 482.141443 118.111619 
L 486.633557 118.111619 
" style="fill:none;stroke:#ff7f0e;stroke-linecap:square;"/>
   </g>
   <g id="line2d_197">
    <path clip-path="url(#p2038dd0ad0)" d="M 534.549443 91.592997 
L 539.041557 91.592997 
" style="fill:none;stroke:#ff7f0e;stroke-linecap:square;"/>
   </g>
   <g id="line2d_198">
    <path clip-path="url(#p2038dd0ad0)" d="M 586.957443 73.818963 
L 591.449557 73.818963 
" style="fill:none;stroke:#ff7f0e;stroke-linecap:square;"/>
   </g>
   <g id="line2d_199">
    <path clip-path="url(#p2038dd0ad0)" d="M 122.7723 304.693232 
L 127.264414 304.693232 
" style="fill:none;stroke:#ff7f0e;stroke-linecap:square;"/>
   </g>
   <g id="line2d_200">
    <path clip-path="url(#p2038dd0ad0)" d="M 175.1803 300.464482 
L 179.672414 300.464482 
" style="fill:none;stroke:#ff7f0e;stroke-linecap:square;"/>
   </g>
   <g id="line2d_201">
    <path clip-path="url(#p2038dd0ad0)" d="M 227.5883 287.786296 
L 232.080414 287.786296 
" style="fill:none;stroke:#ff7f0e;stroke-linecap:square;"/>
   </g>
   <g id="line2d_202">
    <path clip-path="url(#p2038dd0ad0)" d="M 279.9963 266.573165 
L 284.488414 266.573165 
" style="fill:none;stroke:#ff7f0e;stroke-linecap:square;"/>
   </g>
   <g id="line2d_203">
    <path clip-path="url(#p2038dd0ad0)" d="M 332.4043 234.008656 
L 336.896414 234.008656 
" style="fill:none;stroke:#ff7f0e;stroke-linecap:square;"/>
   </g>
   <g id="line2d_204">
    <path clip-path="url(#p2038dd0ad0)" d="M 384.8123 205.998728 
L 389.304414 205.998728 
" style="fill:none;stroke:#ff7f0e;stroke-linecap:square;"/>
   </g>
   <g id="line2d_205">
    <path clip-path="url(#p2038dd0ad0)" d="M 437.2203 172.12922 
L 441.712414 172.12922 
" style="fill:none;stroke:#ff7f0e;stroke-linecap:square;"/>
   </g>
   <g id="line2d_206">
    <path clip-path="url(#p2038dd0ad0)" d="M 489.6283 137.107852 
L 494.120414 137.107852 
" style="fill:none;stroke:#ff7f0e;stroke-linecap:square;"/>
   </g>
   <g id="line2d_207">
    <path clip-path="url(#p2038dd0ad0)" d="M 542.0363 107.376204 
L 546.528414 107.376204 
" style="fill:none;stroke:#ff7f0e;stroke-linecap:square;"/>
   </g>
   <g id="line2d_208">
    <path clip-path="url(#p2038dd0ad0)" d="M 594.4443 79.491573 
L 598.936414 79.491573 
" style="fill:none;stroke:#ff7f0e;stroke-linecap:square;"/>
   </g>
   <g id="patch_43">
    <path d="M 91.3275 350.055625 
L 91.3275 34.475625 
" style="fill:none;stroke:#000000;stroke-linecap:square;stroke-linejoin:miter;stroke-width:0.8;"/>
   </g>
   <g id="patch_44">
    <path d="M 91.3275 350.055625 
L 615.4075 350.055625 
" style="fill:none;stroke:#000000;stroke-linecap:square;stroke-linejoin:miter;stroke-width:0.8;"/>
   </g>
   <g id="text_11">
    <!-- Lescroart E7.25 -->
    <defs>
     <path d="M 9.8125 72.90625 
L 19.671875 72.90625 
L 19.671875 8.296875 
L 55.171875 8.296875 
L 55.171875 0 
L 9.8125 0 
z
" id="DejaVuSans-76"/>
     <path d="M 9.8125 72.90625 
L 55.90625 72.90625 
L 55.90625 64.59375 
L 19.671875 64.59375 
L 19.671875 43.015625 
L 54.390625 43.015625 
L 54.390625 34.71875 
L 19.671875 34.71875 
L 19.671875 8.296875 
L 56.78125 8.296875 
L 56.78125 0 
L 9.8125 0 
z
" id="DejaVuSans-69"/>
     <path d="M 8.203125 72.90625 
L 55.078125 72.90625 
L 55.078125 68.703125 
L 28.609375 0 
L 18.3125 0 
L 43.21875 64.59375 
L 8.203125 64.59375 
z
" id="DejaVuSans-55"/>
    </defs>
    <g transform="translate(243.355937 28.475625)scale(0.28 -0.28)">
     <use xlink:href="#DejaVuSans-76"/>
     <use x="55.697266" xlink:href="#DejaVuSans-101"/>
     <use x="117.220703" xlink:href="#DejaVuSans-115"/>
     <use x="169.320312" xlink:href="#DejaVuSans-99"/>
     <use x="224.300781" xlink:href="#DejaVuSans-114"/>
     <use x="265.382812" xlink:href="#DejaVuSans-111"/>
     <use x="326.564453" xlink:href="#DejaVuSans-97"/>
     <use x="387.84375" xlink:href="#DejaVuSans-114"/>
     <use x="428.957031" xlink:href="#DejaVuSans-116"/>
     <use x="468.166016" xlink:href="#DejaVuSans-32"/>
     <use x="499.953125" xlink:href="#DejaVuSans-69"/>
     <use x="563.136719" xlink:href="#DejaVuSans-55"/>
     <use x="626.759766" xlink:href="#DejaVuSans-46"/>
     <use x="658.546875" xlink:href="#DejaVuSans-50"/>
     <use x="722.169922" xlink:href="#DejaVuSans-53"/>
    </g>
   </g>
  </g>
 </g>
 <defs>
  <clipPath id="p2038dd0ad0">
   <rect height="315.58" width="524.08" x="91.3275" y="34.475625"/>
  </clipPath>
 </defs>
</svg>
