<?xml version="1.0" encoding="utf-8" standalone="no"?>
<!DOCTYPE svg PUBLIC "-//W3C//DTD SVG 1.1//EN"
  "http://www.w3.org/Graphics/SVG/1.1/DTD/svg11.dtd">
<!-- Created with matplotlib (https://matplotlib.org/) -->
<svg height="283.3925pt" version="1.1" viewBox="0 0 262.353125 283.3925" width="262.353125pt" xmlns="http://www.w3.org/2000/svg" xmlns:xlink="http://www.w3.org/1999/xlink">
 <defs>
  <style type="text/css">
*{stroke-linecap:butt;stroke-linejoin:round;}
  </style>
 </defs>
 <g id="figure_1">
  <g id="patch_1">
   <path d="M 0 283.3925 
L 262.353125 283.3925 
L 262.353125 0 
L 0 0 
z
" style="fill:none;"/>
  </g>
  <g id="axes_1">
   <g id="patch_2">
    <path d="M 31.953125 173.52 
L 255.153125 173.52 
L 255.153125 7.2 
L 31.953125 7.2 
z
" style="fill:none;"/>
   </g>
   <g id="PathCollection_1">
    <path clip-path="url(#p5d8f21dbfa)" d="M 0 288.3925 
C 1.326016 288.3925 2.597899 287.865668 3.535534 286.928034 
C 4.473168 285.990399 5 284.718515 5 283.3925 
C 5 282.066485 4.473168 280.794601 3.535534 279.856966 
C 2.597899 278.919332 1.326016 278.3925 0 278.3925 
C -1.326016 278.3925 -2.597899 278.919332 -3.535534 279.856966 
C -4.473168 280.794601 -5 282.066485 -5 283.3925 
C -5 284.718515 -4.473168 285.990399 -3.535534 286.928034 
C -2.597899 287.865668 -1.326016 288.3925 0 288.3925 
z
" style="fill:#8b0000;"/>
   </g>
   <g id="PathCollection_2">
    <path clip-path="url(#p5d8f21dbfa)" d="M 0 288.3925 
C 1.326016 288.3925 2.597899 287.865668 3.535534 286.928034 
C 4.473168 285.990399 5 284.718515 5 283.3925 
C 5 282.066485 4.473168 280.794601 3.535534 279.856966 
C 2.597899 278.919332 1.326016 278.3925 0 278.3925 
C -1.326016 278.3925 -2.597899 278.919332 -3.535534 279.856966 
C -4.473168 280.794601 -5 282.066485 -5 283.3925 
C -5 284.718515 -4.473168 285.990399 -3.535534 286.928034 
C -2.597899 287.865668 -1.326016 288.3925 0 288.3925 
z
" style="fill:#ff8c00;"/>
   </g>
   <g id="PathCollection_3">
    <path clip-path="url(#p5d8f21dbfa)" d="M 0 288.3925 
C 1.326016 288.3925 2.597899 287.865668 3.535534 286.928034 
C 4.473168 285.990399 5 284.718515 5 283.3925 
C 5 282.066485 4.473168 280.794601 3.535534 279.856966 
C 2.597899 278.919332 1.326016 278.3925 0 278.3925 
C -1.326016 278.3925 -2.597899 278.919332 -3.535534 279.856966 
C -4.473168 280.794601 -5 282.066485 -5 283.3925 
C -5 284.718515 -4.473168 285.990399 -3.535534 286.928034 
C -2.597899 287.865668 -1.326016 288.3925 0 288.3925 
z
" style="fill:#228b22;"/>
   </g>
   <g id="PathCollection_4">
    <path clip-path="url(#p5d8f21dbfa)" d="M 0 288.3925 
C 1.326016 288.3925 2.597899 287.865668 3.535534 286.928034 
C 4.473168 285.990399 5 284.718515 5 283.3925 
C 5 282.066485 4.473168 280.794601 3.535534 279.856966 
C 2.597899 278.919332 1.326016 278.3925 0 278.3925 
C -1.326016 278.3925 -2.597899 278.919332 -3.535534 279.856966 
C -4.473168 280.794601 -5 282.066485 -5 283.3925 
C -5 284.718515 -4.473168 285.990399 -3.535534 286.928034 
C -2.597899 287.865668 -1.326016 288.3925 0 288.3925 
z
" style="fill:#87ceeb;"/>
   </g>
   <g id="PathCollection_5">
    <path clip-path="url(#p5d8f21dbfa)" d="M 0 288.3925 
C 1.326016 288.3925 2.597899 287.865668 3.535534 286.928034 
C 4.473168 285.990399 5 284.718515 5 283.3925 
C 5 282.066485 4.473168 280.794601 3.535534 279.856966 
C 2.597899 278.919332 1.326016 278.3925 0 278.3925 
C -1.326016 278.3925 -2.597899 278.919332 -3.535534 279.856966 
C -4.473168 280.794601 -5 282.066485 -5 283.3925 
C -5 284.718515 -4.473168 285.990399 -3.535534 286.928034 
C -2.597899 287.865668 -1.326016 288.3925 0 288.3925 
z
" style="fill:#000080;"/>
   </g>
   <g id="matplotlib.axis_1">
    <g id="xtick_1"/>
    <g id="xtick_2"/>
    <g id="xtick_3"/>
   </g>
   <g id="matplotlib.axis_2">
    <g id="ytick_1"/>
    <g id="ytick_2"/>
    <g id="ytick_3"/>
    <g id="ytick_4"/>
    <g id="ytick_5"/>
    <g id="ytick_6"/>
    <g id="ytick_7"/>
   </g>
   <g id="line2d_1"/>
   <g id="legend_1">
    <g id="line2d_2">
     <path d="M 18.4 43.875625 
L 74.4 43.875625 
" style="fill:none;stroke:#ff0000;stroke-linecap:square;stroke-width:2;"/>
    </g>
    <g id="line2d_3"/>
    <g id="text_1">
     <!-- lineage -->
     <defs>
      <path d="M 9.421875 75.984375 
L 18.40625 75.984375 
L 18.40625 0 
L 9.421875 0 
z
" id="DejaVuSans-108"/>
      <path d="M 9.421875 54.6875 
L 18.40625 54.6875 
L 18.40625 0 
L 9.421875 0 
z
M 9.421875 75.984375 
L 18.40625 75.984375 
L 18.40625 64.59375 
L 9.421875 64.59375 
z
" id="DejaVuSans-105"/>
      <path d="M 54.890625 33.015625 
L 54.890625 0 
L 45.90625 0 
L 45.90625 32.71875 
Q 45.90625 40.484375 42.875 44.328125 
Q 39.84375 48.1875 33.796875 48.1875 
Q 26.515625 48.1875 22.3125 43.546875 
Q 18.109375 38.921875 18.109375 30.90625 
L 18.109375 0 
L 9.078125 0 
L 9.078125 54.6875 
L 18.109375 54.6875 
L 18.109375 46.1875 
Q 21.34375 51.125 25.703125 53.5625 
Q 30.078125 56 35.796875 56 
Q 45.21875 56 50.046875 50.171875 
Q 54.890625 44.34375 54.890625 33.015625 
z
" id="DejaVuSans-110"/>
      <path d="M 56.203125 29.59375 
L 56.203125 25.203125 
L 14.890625 25.203125 
Q 15.484375 15.921875 20.484375 11.0625 
Q 25.484375 6.203125 34.421875 6.203125 
Q 39.59375 6.203125 44.453125 7.46875 
Q 49.3125 8.734375 54.109375 11.28125 
L 54.109375 2.78125 
Q 49.265625 0.734375 44.1875 -0.34375 
Q 39.109375 -1.421875 33.890625 -1.421875 
Q 20.796875 -1.421875 13.15625 6.1875 
Q 5.515625 13.8125 5.515625 26.8125 
Q 5.515625 40.234375 12.765625 48.109375 
Q 20.015625 56 32.328125 56 
Q 43.359375 56 49.78125 48.890625 
Q 56.203125 41.796875 56.203125 29.59375 
z
M 47.21875 32.234375 
Q 47.125 39.59375 43.09375 43.984375 
Q 39.0625 48.390625 32.421875 48.390625 
Q 24.90625 48.390625 20.390625 44.140625 
Q 15.875 39.890625 15.1875 32.171875 
z
" id="DejaVuSans-101"/>
      <path d="M 34.28125 27.484375 
Q 23.390625 27.484375 19.1875 25 
Q 14.984375 22.515625 14.984375 16.5 
Q 14.984375 11.71875 18.140625 8.90625 
Q 21.296875 6.109375 26.703125 6.109375 
Q 34.1875 6.109375 38.703125 11.40625 
Q 43.21875 16.703125 43.21875 25.484375 
L 43.21875 27.484375 
z
M 52.203125 31.203125 
L 52.203125 0 
L 43.21875 0 
L 43.21875 8.296875 
Q 40.140625 3.328125 35.546875 0.953125 
Q 30.953125 -1.421875 24.3125 -1.421875 
Q 15.921875 -1.421875 10.953125 3.296875 
Q 6 8.015625 6 15.921875 
Q 6 25.140625 12.171875 29.828125 
Q 18.359375 34.515625 30.609375 34.515625 
L 43.21875 34.515625 
L 43.21875 35.40625 
Q 43.21875 41.609375 39.140625 45 
Q 35.0625 48.390625 27.6875 48.390625 
Q 23 48.390625 18.546875 47.265625 
Q 14.109375 46.140625 10.015625 43.890625 
L 10.015625 52.203125 
Q 14.9375 54.109375 19.578125 55.046875 
Q 24.21875 56 28.609375 56 
Q 40.484375 56 46.34375 49.84375 
Q 52.203125 43.703125 52.203125 31.203125 
z
" id="DejaVuSans-97"/>
      <path d="M 45.40625 27.984375 
Q 45.40625 37.75 41.375 43.109375 
Q 37.359375 48.484375 30.078125 48.484375 
Q 22.859375 48.484375 18.828125 43.109375 
Q 14.796875 37.75 14.796875 27.984375 
Q 14.796875 18.265625 18.828125 12.890625 
Q 22.859375 7.515625 30.078125 7.515625 
Q 37.359375 7.515625 41.375 12.890625 
Q 45.40625 18.265625 45.40625 27.984375 
z
M 54.390625 6.78125 
Q 54.390625 -7.171875 48.1875 -13.984375 
Q 42 -20.796875 29.203125 -20.796875 
Q 24.46875 -20.796875 20.265625 -20.09375 
Q 16.0625 -19.390625 12.109375 -17.921875 
L 12.109375 -9.1875 
Q 16.0625 -11.328125 19.921875 -12.34375 
Q 23.78125 -13.375 27.78125 -13.375 
Q 36.625 -13.375 41.015625 -8.765625 
Q 45.40625 -4.15625 45.40625 5.171875 
L 45.40625 9.625 
Q 42.625 4.78125 38.28125 2.390625 
Q 33.9375 0 27.875 0 
Q 17.828125 0 11.671875 7.65625 
Q 5.515625 15.328125 5.515625 27.984375 
Q 5.515625 40.671875 11.671875 48.328125 
Q 17.828125 56 27.875 56 
Q 33.9375 56 38.28125 53.609375 
Q 42.625 51.21875 45.40625 46.390625 
L 45.40625 54.6875 
L 54.390625 54.6875 
z
" id="DejaVuSans-103"/>
     </defs>
     <g transform="translate(96.8 53.675625)scale(0.28 -0.28)">
      <use xlink:href="#DejaVuSans-108"/>
      <use x="27.783203" xlink:href="#DejaVuSans-105"/>
      <use x="55.566406" xlink:href="#DejaVuSans-110"/>
      <use x="118.945312" xlink:href="#DejaVuSans-101"/>
      <use x="180.46875" xlink:href="#DejaVuSans-97"/>
      <use x="241.748047" xlink:href="#DejaVuSans-103"/>
      <use x="305.224609" xlink:href="#DejaVuSans-101"/>
     </g>
    </g>
    <g id="PathCollection_6">
     <path d="M 46.4 92.424375 
C 47.726016 92.424375 48.997899 91.897543 49.935534 90.959909 
C 50.873168 90.022274 51.4 88.750391 51.4 87.424375 
C 51.4 86.09836 50.873168 84.826476 49.935534 83.888841 
C 48.997899 82.951207 47.726016 82.424375 46.4 82.424375 
C 45.073985 82.424375 43.802101 82.951207 42.864466 83.888841 
C 41.926832 84.826476 41.4 86.09836 41.4 87.424375 
C 41.4 88.750391 41.926832 90.022274 42.864466 90.959909 
C 43.802101 91.897543 45.073985 92.424375 46.4 92.424375 
z
" style="fill:#8b0000;"/>
    </g>
    <g id="text_2">
     <!-- ES -->
     <defs>
      <path d="M 9.8125 72.90625 
L 55.90625 72.90625 
L 55.90625 64.59375 
L 19.671875 64.59375 
L 19.671875 43.015625 
L 54.390625 43.015625 
L 54.390625 34.71875 
L 19.671875 34.71875 
L 19.671875 8.296875 
L 56.78125 8.296875 
L 56.78125 0 
L 9.8125 0 
z
" id="DejaVuSans-69"/>
      <path d="M 53.515625 70.515625 
L 53.515625 60.890625 
Q 47.90625 63.578125 42.921875 64.890625 
Q 37.9375 66.21875 33.296875 66.21875 
Q 25.25 66.21875 20.875 63.09375 
Q 16.5 59.96875 16.5 54.203125 
Q 16.5 49.359375 19.40625 46.890625 
Q 22.3125 44.4375 30.421875 42.921875 
L 36.375 41.703125 
Q 47.40625 39.59375 52.65625 34.296875 
Q 57.90625 29 57.90625 20.125 
Q 57.90625 9.515625 50.796875 4.046875 
Q 43.703125 -1.421875 29.984375 -1.421875 
Q 24.8125 -1.421875 18.96875 -0.25 
Q 13.140625 0.921875 6.890625 3.21875 
L 6.890625 13.375 
Q 12.890625 10.015625 18.65625 8.296875 
Q 24.421875 6.59375 29.984375 6.59375 
Q 38.421875 6.59375 43.015625 9.90625 
Q 47.609375 13.234375 47.609375 19.390625 
Q 47.609375 24.75 44.3125 27.78125 
Q 41.015625 30.8125 33.5 32.328125 
L 27.484375 33.5 
Q 16.453125 35.6875 11.515625 40.375 
Q 6.59375 45.0625 6.59375 53.421875 
Q 6.59375 63.09375 13.40625 68.65625 
Q 20.21875 74.21875 32.171875 74.21875 
Q 37.3125 74.21875 42.625 73.28125 
Q 47.953125 72.359375 53.515625 70.515625 
z
" id="DejaVuSans-83"/>
     </defs>
     <g transform="translate(96.8 94.774375)scale(0.28 -0.28)">
      <use xlink:href="#DejaVuSans-69"/>
      <use x="63.183594" xlink:href="#DejaVuSans-83"/>
     </g>
    </g>
    <g id="PathCollection_7">
     <path d="M 46.4 133.523125 
C 47.726016 133.523125 48.997899 132.996293 49.935534 132.058659 
C 50.873168 131.121024 51.4 129.849141 51.4 128.523125 
C 51.4 127.19711 50.873168 125.925226 49.935534 124.987591 
C 48.997899 124.049957 47.726016 123.523125 46.4 123.523125 
C 45.073985 123.523125 43.802101 124.049957 42.864466 124.987591 
C 41.926832 125.925226 41.4 127.19711 41.4 128.523125 
C 41.4 129.849141 41.926832 131.121024 42.864466 132.058659 
C 43.802101 132.996293 45.073985 133.523125 46.4 133.523125 
z
" style="fill:#ff8c00;"/>
    </g>
    <g id="text_3">
     <!-- Epi, early -->
     <defs>
      <path d="M 18.109375 8.203125 
L 18.109375 -20.796875 
L 9.078125 -20.796875 
L 9.078125 54.6875 
L 18.109375 54.6875 
L 18.109375 46.390625 
Q 20.953125 51.265625 25.265625 53.625 
Q 29.59375 56 35.59375 56 
Q 45.5625 56 51.78125 48.09375 
Q 58.015625 40.1875 58.015625 27.296875 
Q 58.015625 14.40625 51.78125 6.484375 
Q 45.5625 -1.421875 35.59375 -1.421875 
Q 29.59375 -1.421875 25.265625 0.953125 
Q 20.953125 3.328125 18.109375 8.203125 
z
M 48.6875 27.296875 
Q 48.6875 37.203125 44.609375 42.84375 
Q 40.53125 48.484375 33.40625 48.484375 
Q 26.265625 48.484375 22.1875 42.84375 
Q 18.109375 37.203125 18.109375 27.296875 
Q 18.109375 17.390625 22.1875 11.75 
Q 26.265625 6.109375 33.40625 6.109375 
Q 40.53125 6.109375 44.609375 11.75 
Q 48.6875 17.390625 48.6875 27.296875 
z
" id="DejaVuSans-112"/>
      <path d="M 11.71875 12.40625 
L 22.015625 12.40625 
L 22.015625 4 
L 14.015625 -11.625 
L 7.71875 -11.625 
L 11.71875 4 
z
" id="DejaVuSans-44"/>
      <path id="DejaVuSans-32"/>
      <path d="M 41.109375 46.296875 
Q 39.59375 47.171875 37.8125 47.578125 
Q 36.03125 48 33.890625 48 
Q 26.265625 48 22.1875 43.046875 
Q 18.109375 38.09375 18.109375 28.8125 
L 18.109375 0 
L 9.078125 0 
L 9.078125 54.6875 
L 18.109375 54.6875 
L 18.109375 46.1875 
Q 20.953125 51.171875 25.484375 53.578125 
Q 30.03125 56 36.53125 56 
Q 37.453125 56 38.578125 55.875 
Q 39.703125 55.765625 41.0625 55.515625 
z
" id="DejaVuSans-114"/>
      <path d="M 32.171875 -5.078125 
Q 28.375 -14.84375 24.75 -17.8125 
Q 21.140625 -20.796875 15.09375 -20.796875 
L 7.90625 -20.796875 
L 7.90625 -13.28125 
L 13.1875 -13.28125 
Q 16.890625 -13.28125 18.9375 -11.515625 
Q 21 -9.765625 23.484375 -3.21875 
L 25.09375 0.875 
L 2.984375 54.6875 
L 12.5 54.6875 
L 29.59375 11.921875 
L 46.6875 54.6875 
L 56.203125 54.6875 
z
" id="DejaVuSans-121"/>
     </defs>
     <g transform="translate(96.8 135.873125)scale(0.28 -0.28)">
      <use xlink:href="#DejaVuSans-69"/>
      <use x="63.183594" xlink:href="#DejaVuSans-112"/>
      <use x="126.660156" xlink:href="#DejaVuSans-105"/>
      <use x="154.443359" xlink:href="#DejaVuSans-44"/>
      <use x="186.230469" xlink:href="#DejaVuSans-32"/>
      <use x="218.017578" xlink:href="#DejaVuSans-101"/>
      <use x="279.541016" xlink:href="#DejaVuSans-97"/>
      <use x="340.820312" xlink:href="#DejaVuSans-114"/>
      <use x="381.933594" xlink:href="#DejaVuSans-108"/>
      <use x="409.716797" xlink:href="#DejaVuSans-121"/>
     </g>
    </g>
    <g id="PathCollection_8">
     <path d="M 46.4 174.621875 
C 47.726016 174.621875 48.997899 174.095043 49.935534 173.157409 
C 50.873168 172.219774 51.4 170.947891 51.4 169.621875 
C 51.4 168.29586 50.873168 167.023976 49.935534 166.086341 
C 48.997899 165.148707 47.726016 164.621875 46.4 164.621875 
C 45.073985 164.621875 43.802101 165.148707 42.864466 166.086341 
C 41.926832 167.023976 41.4 168.29586 41.4 169.621875 
C 41.4 170.947891 41.926832 172.219774 42.864466 173.157409 
C 43.802101 174.095043 45.073985 174.621875 46.4 174.621875 
z
" style="fill:#228b22;"/>
    </g>
    <g id="text_4">
     <!-- Epi, late -->
     <defs>
      <path d="M 18.3125 70.21875 
L 18.3125 54.6875 
L 36.8125 54.6875 
L 36.8125 47.703125 
L 18.3125 47.703125 
L 18.3125 18.015625 
Q 18.3125 11.328125 20.140625 9.421875 
Q 21.96875 7.515625 27.59375 7.515625 
L 36.8125 7.515625 
L 36.8125 0 
L 27.59375 0 
Q 17.1875 0 13.234375 3.875 
Q 9.28125 7.765625 9.28125 18.015625 
L 9.28125 47.703125 
L 2.6875 47.703125 
L 2.6875 54.6875 
L 9.28125 54.6875 
L 9.28125 70.21875 
z
" id="DejaVuSans-116"/>
     </defs>
     <g transform="translate(96.8 176.971875)scale(0.28 -0.28)">
      <use xlink:href="#DejaVuSans-69"/>
      <use x="63.183594" xlink:href="#DejaVuSans-112"/>
      <use x="126.660156" xlink:href="#DejaVuSans-105"/>
      <use x="154.443359" xlink:href="#DejaVuSans-44"/>
      <use x="186.230469" xlink:href="#DejaVuSans-32"/>
      <use x="218.017578" xlink:href="#DejaVuSans-108"/>
      <use x="245.800781" xlink:href="#DejaVuSans-97"/>
      <use x="307.080078" xlink:href="#DejaVuSans-116"/>
      <use x="346.289062" xlink:href="#DejaVuSans-101"/>
     </g>
    </g>
    <g id="PathCollection_9">
     <path d="M 46.4 215.720625 
C 47.726016 215.720625 48.997899 215.193793 49.935534 214.256159 
C 50.873168 213.318524 51.4 212.046641 51.4 210.720625 
C 51.4 209.39461 50.873168 208.122726 49.935534 207.185091 
C 48.997899 206.247457 47.726016 205.720625 46.4 205.720625 
C 45.073985 205.720625 43.802101 206.247457 42.864466 207.185091 
C 41.926832 208.122726 41.4 209.39461 41.4 210.720625 
C 41.4 212.046641 41.926832 213.318524 42.864466 214.256159 
C 43.802101 215.193793 45.073985 215.720625 46.4 215.720625 
z
" style="fill:#87ceeb;"/>
    </g>
    <g id="text_5">
     <!-- MN, early -->
     <defs>
      <path d="M 9.8125 72.90625 
L 24.515625 72.90625 
L 43.109375 23.296875 
L 61.8125 72.90625 
L 76.515625 72.90625 
L 76.515625 0 
L 66.890625 0 
L 66.890625 64.015625 
L 48.09375 14.015625 
L 38.1875 14.015625 
L 19.390625 64.015625 
L 19.390625 0 
L 9.8125 0 
z
" id="DejaVuSans-77"/>
      <path d="M 9.8125 72.90625 
L 23.09375 72.90625 
L 55.421875 11.921875 
L 55.421875 72.90625 
L 64.984375 72.90625 
L 64.984375 0 
L 51.703125 0 
L 19.390625 60.984375 
L 19.390625 0 
L 9.8125 0 
z
" id="DejaVuSans-78"/>
     </defs>
     <g transform="translate(96.8 218.070625)scale(0.28 -0.28)">
      <use xlink:href="#DejaVuSans-77"/>
      <use x="86.279297" xlink:href="#DejaVuSans-78"/>
      <use x="161.083984" xlink:href="#DejaVuSans-44"/>
      <use x="192.871094" xlink:href="#DejaVuSans-32"/>
      <use x="224.658203" xlink:href="#DejaVuSans-101"/>
      <use x="286.181641" xlink:href="#DejaVuSans-97"/>
      <use x="347.460938" xlink:href="#DejaVuSans-114"/>
      <use x="388.574219" xlink:href="#DejaVuSans-108"/>
      <use x="416.357422" xlink:href="#DejaVuSans-121"/>
     </g>
    </g>
    <g id="PathCollection_10">
     <path d="M 46.4 256.819375 
C 47.726016 256.819375 48.997899 256.292543 49.935534 255.354909 
C 50.873168 254.417274 51.4 253.145391 51.4 251.819375 
C 51.4 250.493359 50.873168 249.221476 49.935534 248.283841 
C 48.997899 247.346207 47.726016 246.819375 46.4 246.819375 
C 45.073985 246.819375 43.802101 247.346207 42.864466 248.283841 
C 41.926832 249.221476 41.4 250.493359 41.4 251.819375 
C 41.4 253.145391 41.926832 254.417274 42.864466 255.354909 
C 43.802101 256.292543 45.073985 256.819375 46.4 256.819375 
z
" style="fill:#000080;"/>
    </g>
    <g id="text_6">
     <!-- MN, late -->
     <g transform="translate(96.8 259.169375)scale(0.28 -0.28)">
      <use xlink:href="#DejaVuSans-77"/>
      <use x="86.279297" xlink:href="#DejaVuSans-78"/>
      <use x="161.083984" xlink:href="#DejaVuSans-44"/>
      <use x="192.871094" xlink:href="#DejaVuSans-32"/>
      <use x="224.658203" xlink:href="#DejaVuSans-108"/>
      <use x="252.441406" xlink:href="#DejaVuSans-97"/>
      <use x="313.720703" xlink:href="#DejaVuSans-116"/>
      <use x="352.929688" xlink:href="#DejaVuSans-101"/>
     </g>
    </g>
   </g>
  </g>
 </g>
 <defs>
  <clipPath id="p5d8f21dbfa">
   <rect height="166.32" width="223.2" x="31.953125" y="7.2"/>
  </clipPath>
 </defs>
</svg>
