<?xml version="1.0" encoding="utf-8" standalone="no"?>
<!DOCTYPE svg PUBLIC "-//W3C//DTD SVG 1.1//EN"
  "http://www.w3.org/Graphics/SVG/1.1/DTD/svg11.dtd">
<!-- Created with matplotlib (https://matplotlib.org/) -->
<svg height="242.29375pt" version="1.1" viewBox="0 0 237.6 242.29375" width="237.6pt" xmlns="http://www.w3.org/2000/svg" xmlns:xlink="http://www.w3.org/1999/xlink">
 <defs>
  <style type="text/css">
*{stroke-linecap:butt;stroke-linejoin:round;}
  </style>
 </defs>
 <g id="figure_1">
  <g id="patch_1">
   <path d="M 0 242.29375 
L 237.6 242.29375 
L 237.6 0 
L 0 0 
z
" style="fill:#ffffff;"/>
  </g>
  <g id="axes_1">
   <g id="patch_2">
    <path d="M 7.2 173.52 
L 230.4 173.52 
L 230.4 7.2 
L 7.2 7.2 
z
" style="fill:#ffffff;"/>
   </g>
   <g id="PathCollection_1">
    <path clip-path="url(#p7469ed89ea)" d="M 0 247.29375 
C 1.326016 247.29375 2.597899 246.766918 3.535534 245.829284 
C 4.473168 244.891649 5 243.619766 5 242.29375 
C 5 240.967735 4.473168 239.695851 3.535534 238.758216 
C 2.597899 237.820582 1.326016 237.29375 0 237.29375 
C -1.326016 237.29375 -2.597899 237.820582 -3.535534 238.758216 
C -4.473168 239.695851 -5 240.967735 -5 242.29375 
C -5 243.619766 -4.473168 244.891649 -3.535534 245.829284 
C -2.597899 246.766918 -1.326016 247.29375 0 247.29375 
z
" style="fill:#8b0000;"/>
   </g>
   <g id="PathCollection_2">
    <path clip-path="url(#p7469ed89ea)" d="M 0 247.29375 
C 1.326016 247.29375 2.597899 246.766918 3.535534 245.829284 
C 4.473168 244.891649 5 243.619766 5 242.29375 
C 5 240.967735 4.473168 239.695851 3.535534 238.758216 
C 2.597899 237.820582 1.326016 237.29375 0 237.29375 
C -1.326016 237.29375 -2.597899 237.820582 -3.535534 238.758216 
C -4.473168 239.695851 -5 240.967735 -5 242.29375 
C -5 243.619766 -4.473168 244.891649 -3.535534 245.829284 
C -2.597899 246.766918 -1.326016 247.29375 0 247.29375 
z
" style="fill:#ff8c00;"/>
   </g>
   <g id="PathCollection_3">
    <path clip-path="url(#p7469ed89ea)" d="M 0 247.29375 
C 1.326016 247.29375 2.597899 246.766918 3.535534 245.829284 
C 4.473168 244.891649 5 243.619766 5 242.29375 
C 5 240.967735 4.473168 239.695851 3.535534 238.758216 
C 2.597899 237.820582 1.326016 237.29375 0 237.29375 
C -1.326016 237.29375 -2.597899 237.820582 -3.535534 238.758216 
C -4.473168 239.695851 -5 240.967735 -5 242.29375 
C -5 243.619766 -4.473168 244.891649 -3.535534 245.829284 
C -2.597899 246.766918 -1.326016 247.29375 0 247.29375 
z
" style="fill:#228b22;"/>
   </g>
   <g id="PathCollection_4">
    <path clip-path="url(#p7469ed89ea)" d="M 0 247.29375 
C 1.326016 247.29375 2.597899 246.766918 3.535534 245.829284 
C 4.473168 244.891649 5 243.619766 5 242.29375 
C 5 240.967735 4.473168 239.695851 3.535534 238.758216 
C 2.597899 237.820582 1.326016 237.29375 0 237.29375 
C -1.326016 237.29375 -2.597899 237.820582 -3.535534 238.758216 
C -4.473168 239.695851 -5 240.967735 -5 242.29375 
C -5 243.619766 -4.473168 244.891649 -3.535534 245.829284 
C -2.597899 246.766918 -1.326016 247.29375 0 247.29375 
z
" style="fill:#000080;"/>
   </g>
   <g id="matplotlib.axis_1">
    <g id="xtick_1"/>
    <g id="xtick_2"/>
    <g id="xtick_3"/>
    <g id="xtick_4"/>
    <g id="xtick_5"/>
    <g id="xtick_6"/>
    <g id="xtick_7"/>
   </g>
   <g id="matplotlib.axis_2">
    <g id="ytick_1"/>
    <g id="ytick_2"/>
    <g id="ytick_3"/>
    <g id="ytick_4"/>
    <g id="ytick_5"/>
    <g id="ytick_6"/>
    <g id="ytick_7"/>
   </g>
   <g id="line2d_1"/>
   <g id="legend_1">
    <g id="line2d_2">
     <path d="M 24.105625 43.875625 
L 80.105625 43.875625 
" style="fill:none;stroke:#ff0000;stroke-linecap:square;stroke-width:2;"/>
    </g>
    <g id="line2d_3"/>
    <g id="text_1">
     <!-- lineage -->
     <defs>
      <path d="M 9.421875 75.984375 
L 18.40625 75.984375 
L 18.40625 0 
L 9.421875 0 
z
" id="DejaVuSans-108"/>
      <path d="M 9.421875 54.6875 
L 18.40625 54.6875 
L 18.40625 0 
L 9.421875 0 
z
M 9.421875 75.984375 
L 18.40625 75.984375 
L 18.40625 64.59375 
L 9.421875 64.59375 
z
" id="DejaVuSans-105"/>
      <path d="M 54.890625 33.015625 
L 54.890625 0 
L 45.90625 0 
L 45.90625 32.71875 
Q 45.90625 40.484375 42.875 44.328125 
Q 39.84375 48.1875 33.796875 48.1875 
Q 26.515625 48.1875 22.3125 43.546875 
Q 18.109375 38.921875 18.109375 30.90625 
L 18.109375 0 
L 9.078125 0 
L 9.078125 54.6875 
L 18.109375 54.6875 
L 18.109375 46.1875 
Q 21.34375 51.125 25.703125 53.5625 
Q 30.078125 56 35.796875 56 
Q 45.21875 56 50.046875 50.171875 
Q 54.890625 44.34375 54.890625 33.015625 
z
" id="DejaVuSans-110"/>
      <path d="M 56.203125 29.59375 
L 56.203125 25.203125 
L 14.890625 25.203125 
Q 15.484375 15.921875 20.484375 11.0625 
Q 25.484375 6.203125 34.421875 6.203125 
Q 39.59375 6.203125 44.453125 7.46875 
Q 49.3125 8.734375 54.109375 11.28125 
L 54.109375 2.78125 
Q 49.265625 0.734375 44.1875 -0.34375 
Q 39.109375 -1.421875 33.890625 -1.421875 
Q 20.796875 -1.421875 13.15625 6.1875 
Q 5.515625 13.8125 5.515625 26.8125 
Q 5.515625 40.234375 12.765625 48.109375 
Q 20.015625 56 32.328125 56 
Q 43.359375 56 49.78125 48.890625 
Q 56.203125 41.796875 56.203125 29.59375 
z
M 47.21875 32.234375 
Q 47.125 39.59375 43.09375 43.984375 
Q 39.0625 48.390625 32.421875 48.390625 
Q 24.90625 48.390625 20.390625 44.140625 
Q 15.875 39.890625 15.1875 32.171875 
z
" id="DejaVuSans-101"/>
      <path d="M 34.28125 27.484375 
Q 23.390625 27.484375 19.1875 25 
Q 14.984375 22.515625 14.984375 16.5 
Q 14.984375 11.71875 18.140625 8.90625 
Q 21.296875 6.109375 26.703125 6.109375 
Q 34.1875 6.109375 38.703125 11.40625 
Q 43.21875 16.703125 43.21875 25.484375 
L 43.21875 27.484375 
z
M 52.203125 31.203125 
L 52.203125 0 
L 43.21875 0 
L 43.21875 8.296875 
Q 40.140625 3.328125 35.546875 0.953125 
Q 30.953125 -1.421875 24.3125 -1.421875 
Q 15.921875 -1.421875 10.953125 3.296875 
Q 6 8.015625 6 15.921875 
Q 6 25.140625 12.171875 29.828125 
Q 18.359375 34.515625 30.609375 34.515625 
L 43.21875 34.515625 
L 43.21875 35.40625 
Q 43.21875 41.609375 39.140625 45 
Q 35.0625 48.390625 27.6875 48.390625 
Q 23 48.390625 18.546875 47.265625 
Q 14.109375 46.140625 10.015625 43.890625 
L 10.015625 52.203125 
Q 14.9375 54.109375 19.578125 55.046875 
Q 24.21875 56 28.609375 56 
Q 40.484375 56 46.34375 49.84375 
Q 52.203125 43.703125 52.203125 31.203125 
z
" id="DejaVuSans-97"/>
      <path d="M 45.40625 27.984375 
Q 45.40625 37.75 41.375 43.109375 
Q 37.359375 48.484375 30.078125 48.484375 
Q 22.859375 48.484375 18.828125 43.109375 
Q 14.796875 37.75 14.796875 27.984375 
Q 14.796875 18.265625 18.828125 12.890625 
Q 22.859375 7.515625 30.078125 7.515625 
Q 37.359375 7.515625 41.375 12.890625 
Q 45.40625 18.265625 45.40625 27.984375 
z
M 54.390625 6.78125 
Q 54.390625 -7.171875 48.1875 -13.984375 
Q 42 -20.796875 29.203125 -20.796875 
Q 24.46875 -20.796875 20.265625 -20.09375 
Q 16.0625 -19.390625 12.109375 -17.921875 
L 12.109375 -9.1875 
Q 16.0625 -11.328125 19.921875 -12.34375 
Q 23.78125 -13.375 27.78125 -13.375 
Q 36.625 -13.375 41.015625 -8.765625 
Q 45.40625 -4.15625 45.40625 5.171875 
L 45.40625 9.625 
Q 42.625 4.78125 38.28125 2.390625 
Q 33.9375 0 27.875 0 
Q 17.828125 0 11.671875 7.65625 
Q 5.515625 15.328125 5.515625 27.984375 
Q 5.515625 40.671875 11.671875 48.328125 
Q 17.828125 56 27.875 56 
Q 33.9375 56 38.28125 53.609375 
Q 42.625 51.21875 45.40625 46.390625 
L 45.40625 54.6875 
L 54.390625 54.6875 
z
" id="DejaVuSans-103"/>
     </defs>
     <g transform="translate(102.505625 53.675625)scale(0.28 -0.28)">
      <use xlink:href="#DejaVuSans-108"/>
      <use x="27.783203" xlink:href="#DejaVuSans-105"/>
      <use x="55.566406" xlink:href="#DejaVuSans-110"/>
      <use x="118.945312" xlink:href="#DejaVuSans-101"/>
      <use x="180.46875" xlink:href="#DejaVuSans-97"/>
      <use x="241.748047" xlink:href="#DejaVuSans-103"/>
      <use x="305.224609" xlink:href="#DejaVuSans-101"/>
     </g>
    </g>
    <g id="PathCollection_5">
     <path d="M 52.105625 92.424375 
C 53.43164 92.424375 54.703524 91.897543 55.641159 90.959909 
C 56.578793 90.022274 57.105625 88.750391 57.105625 87.424375 
C 57.105625 86.09836 56.578793 84.826476 55.641159 83.888841 
C 54.703524 82.951207 53.43164 82.424375 52.105625 82.424375 
C 50.779609 82.424375 49.507726 82.951207 48.570091 83.888841 
C 47.632457 84.826476 47.105625 86.09836 47.105625 87.424375 
C 47.105625 88.750391 47.632457 90.022274 48.570091 90.959909 
C 49.507726 91.897543 50.779609 92.424375 52.105625 92.424375 
z
" style="fill:#8b0000;"/>
    </g>
    <g id="text_2">
     <!-- ES2i -->
     <defs>
      <path d="M 9.8125 72.90625 
L 55.90625 72.90625 
L 55.90625 64.59375 
L 19.671875 64.59375 
L 19.671875 43.015625 
L 54.390625 43.015625 
L 54.390625 34.71875 
L 19.671875 34.71875 
L 19.671875 8.296875 
L 56.78125 8.296875 
L 56.78125 0 
L 9.8125 0 
z
" id="DejaVuSans-69"/>
      <path d="M 53.515625 70.515625 
L 53.515625 60.890625 
Q 47.90625 63.578125 42.921875 64.890625 
Q 37.9375 66.21875 33.296875 66.21875 
Q 25.25 66.21875 20.875 63.09375 
Q 16.5 59.96875 16.5 54.203125 
Q 16.5 49.359375 19.40625 46.890625 
Q 22.3125 44.4375 30.421875 42.921875 
L 36.375 41.703125 
Q 47.40625 39.59375 52.65625 34.296875 
Q 57.90625 29 57.90625 20.125 
Q 57.90625 9.515625 50.796875 4.046875 
Q 43.703125 -1.421875 29.984375 -1.421875 
Q 24.8125 -1.421875 18.96875 -0.25 
Q 13.140625 0.921875 6.890625 3.21875 
L 6.890625 13.375 
Q 12.890625 10.015625 18.65625 8.296875 
Q 24.421875 6.59375 29.984375 6.59375 
Q 38.421875 6.59375 43.015625 9.90625 
Q 47.609375 13.234375 47.609375 19.390625 
Q 47.609375 24.75 44.3125 27.78125 
Q 41.015625 30.8125 33.5 32.328125 
L 27.484375 33.5 
Q 16.453125 35.6875 11.515625 40.375 
Q 6.59375 45.0625 6.59375 53.421875 
Q 6.59375 63.09375 13.40625 68.65625 
Q 20.21875 74.21875 32.171875 74.21875 
Q 37.3125 74.21875 42.625 73.28125 
Q 47.953125 72.359375 53.515625 70.515625 
z
" id="DejaVuSans-83"/>
      <path d="M 19.1875 8.296875 
L 53.609375 8.296875 
L 53.609375 0 
L 7.328125 0 
L 7.328125 8.296875 
Q 12.9375 14.109375 22.625 23.890625 
Q 32.328125 33.6875 34.8125 36.53125 
Q 39.546875 41.84375 41.421875 45.53125 
Q 43.3125 49.21875 43.3125 52.78125 
Q 43.3125 58.59375 39.234375 62.25 
Q 35.15625 65.921875 28.609375 65.921875 
Q 23.96875 65.921875 18.8125 64.3125 
Q 13.671875 62.703125 7.8125 59.421875 
L 7.8125 69.390625 
Q 13.765625 71.78125 18.9375 73 
Q 24.125 74.21875 28.421875 74.21875 
Q 39.75 74.21875 46.484375 68.546875 
Q 53.21875 62.890625 53.21875 53.421875 
Q 53.21875 48.921875 51.53125 44.890625 
Q 49.859375 40.875 45.40625 35.40625 
Q 44.1875 33.984375 37.640625 27.21875 
Q 31.109375 20.453125 19.1875 8.296875 
z
" id="DejaVuSans-50"/>
     </defs>
     <g transform="translate(102.505625 94.774375)scale(0.28 -0.28)">
      <use xlink:href="#DejaVuSans-69"/>
      <use x="63.183594" xlink:href="#DejaVuSans-83"/>
      <use x="126.660156" xlink:href="#DejaVuSans-50"/>
      <use x="190.283203" xlink:href="#DejaVuSans-105"/>
     </g>
    </g>
    <g id="PathCollection_6">
     <path d="M 52.105625 133.523125 
C 53.43164 133.523125 54.703524 132.996293 55.641159 132.058659 
C 56.578793 131.121024 57.105625 129.849141 57.105625 128.523125 
C 57.105625 127.19711 56.578793 125.925226 55.641159 124.987591 
C 54.703524 124.049957 53.43164 123.523125 52.105625 123.523125 
C 50.779609 123.523125 49.507726 124.049957 48.570091 124.987591 
C 47.632457 125.925226 47.105625 127.19711 47.105625 128.523125 
C 47.105625 129.849141 47.632457 131.121024 48.570091 132.058659 
C 49.507726 132.996293 50.779609 133.523125 52.105625 133.523125 
z
" style="fill:#ff8c00;"/>
    </g>
    <g id="text_3">
     <!-- ES -->
     <g transform="translate(102.505625 135.873125)scale(0.28 -0.28)">
      <use xlink:href="#DejaVuSans-69"/>
      <use x="63.183594" xlink:href="#DejaVuSans-83"/>
     </g>
    </g>
    <g id="PathCollection_7">
     <path d="M 52.105625 174.621875 
C 53.43164 174.621875 54.703524 174.095043 55.641159 173.157409 
C 56.578793 172.219774 57.105625 170.947891 57.105625 169.621875 
C 57.105625 168.29586 56.578793 167.023976 55.641159 166.086341 
C 54.703524 165.148707 53.43164 164.621875 52.105625 164.621875 
C 50.779609 164.621875 49.507726 165.148707 48.570091 166.086341 
C 47.632457 167.023976 47.105625 168.29586 47.105625 169.621875 
C 47.105625 170.947891 47.632457 172.219774 48.570091 173.157409 
C 49.507726 174.095043 50.779609 174.621875 52.105625 174.621875 
z
" style="fill:#228b22;"/>
    </g>
    <g id="text_4">
     <!-- Epi -->
     <defs>
      <path d="M 18.109375 8.203125 
L 18.109375 -20.796875 
L 9.078125 -20.796875 
L 9.078125 54.6875 
L 18.109375 54.6875 
L 18.109375 46.390625 
Q 20.953125 51.265625 25.265625 53.625 
Q 29.59375 56 35.59375 56 
Q 45.5625 56 51.78125 48.09375 
Q 58.015625 40.1875 58.015625 27.296875 
Q 58.015625 14.40625 51.78125 6.484375 
Q 45.5625 -1.421875 35.59375 -1.421875 
Q 29.59375 -1.421875 25.265625 0.953125 
Q 20.953125 3.328125 18.109375 8.203125 
z
M 48.6875 27.296875 
Q 48.6875 37.203125 44.609375 42.84375 
Q 40.53125 48.484375 33.40625 48.484375 
Q 26.265625 48.484375 22.1875 42.84375 
Q 18.109375 37.203125 18.109375 27.296875 
Q 18.109375 17.390625 22.1875 11.75 
Q 26.265625 6.109375 33.40625 6.109375 
Q 40.53125 6.109375 44.609375 11.75 
Q 48.6875 17.390625 48.6875 27.296875 
z
" id="DejaVuSans-112"/>
     </defs>
     <g transform="translate(102.505625 176.971875)scale(0.28 -0.28)">
      <use xlink:href="#DejaVuSans-69"/>
      <use x="63.183594" xlink:href="#DejaVuSans-112"/>
      <use x="126.660156" xlink:href="#DejaVuSans-105"/>
     </g>
    </g>
    <g id="PathCollection_8">
     <path d="M 52.105625 215.720625 
C 53.43164 215.720625 54.703524 215.193793 55.641159 214.256159 
C 56.578793 213.318524 57.105625 212.046641 57.105625 210.720625 
C 57.105625 209.39461 56.578793 208.122726 55.641159 207.185091 
C 54.703524 206.247457 53.43164 205.720625 52.105625 205.720625 
C 50.779609 205.720625 49.507726 206.247457 48.570091 207.185091 
C 47.632457 208.122726 47.105625 209.39461 47.105625 210.720625 
C 47.105625 212.046641 47.632457 213.318524 48.570091 214.256159 
C 49.507726 215.193793 50.779609 215.720625 52.105625 215.720625 
z
" style="fill:#000080;"/>
    </g>
    <g id="text_5">
     <!-- MN -->
     <defs>
      <path d="M 9.8125 72.90625 
L 24.515625 72.90625 
L 43.109375 23.296875 
L 61.8125 72.90625 
L 76.515625 72.90625 
L 76.515625 0 
L 66.890625 0 
L 66.890625 64.015625 
L 48.09375 14.015625 
L 38.1875 14.015625 
L 19.390625 64.015625 
L 19.390625 0 
L 9.8125 0 
z
" id="DejaVuSans-77"/>
      <path d="M 9.8125 72.90625 
L 23.09375 72.90625 
L 55.421875 11.921875 
L 55.421875 72.90625 
L 64.984375 72.90625 
L 64.984375 0 
L 51.703125 0 
L 19.390625 60.984375 
L 19.390625 0 
L 9.8125 0 
z
" id="DejaVuSans-78"/>
     </defs>
     <g transform="translate(102.505625 218.070625)scale(0.28 -0.28)">
      <use xlink:href="#DejaVuSans-77"/>
      <use x="86.279297" xlink:href="#DejaVuSans-78"/>
     </g>
    </g>
   </g>
  </g>
 </g>
 <defs>
  <clipPath id="p7469ed89ea">
   <rect height="166.32" width="223.2" x="7.2" y="7.2"/>
  </clipPath>
 </defs>
</svg>
