<?xml version="1.0" encoding="utf-8" standalone="no"?>
<!DOCTYPE svg PUBLIC "-//W3C//DTD SVG 1.1//EN"
  "http://www.w3.org/Graphics/SVG/1.1/DTD/svg11.dtd">
<!-- Created with matplotlib (http://matplotlib.org/) -->
<svg height="775pt" version="1.1" viewBox="0 0 880 775" width="880pt" xmlns="http://www.w3.org/2000/svg" xmlns:xlink="http://www.w3.org/1999/xlink">
 <defs>
  <style type="text/css">
*{stroke-linecap:butt;stroke-linejoin:round;}
  </style>
 </defs>
 <g id="figure_1">
  <g id="patch_1">
   <path d="M 0 775.932187 
L 880.9225 775.932187 
L 880.9225 -0 
L 0 -0 
z
" style="fill:#ffffff;"/>
  </g>
  <g id="axes_1">
   <g id="patch_2">
    <path d="M 89.0225 565.1 
L 870.2225 565.1 
L 870.2225 10.7 
L 89.0225 10.7 
z
" style="fill:#ffffff;"/>
   </g>
   <g id="matplotlib.axis_1">
    <g id="xtick_1">
     <g id="line2d_1">
      <defs>
       <path d="M 0 0 
L 0 3.5 
" id="m09a86f6646" style="stroke:#000000;"/>
      </defs>
      <g>
       <use style="stroke:#000000;" x="167.1425" xlink:href="#m09a86f6646" y="565.1"/>
      </g>
     </g>
     <g id="text_1">
      <!-- Chen -->
      <defs>
       <path d="M 64.40625 67.28125 
L 64.40625 56.890625 
Q 59.421875 61.53125 53.78125 63.8125 
Q 48.140625 66.109375 41.796875 66.109375 
Q 29.296875 66.109375 22.65625 58.46875 
Q 16.015625 50.828125 16.015625 36.375 
Q 16.015625 21.96875 22.65625 14.328125 
Q 29.296875 6.6875 41.796875 6.6875 
Q 48.140625 6.6875 53.78125 8.984375 
Q 59.421875 11.28125 64.40625 15.921875 
L 64.40625 5.609375 
Q 59.234375 2.09375 53.4375 0.328125 
Q 47.65625 -1.421875 41.21875 -1.421875 
Q 24.65625 -1.421875 15.125 8.703125 
Q 5.609375 18.84375 5.609375 36.375 
Q 5.609375 53.953125 15.125 64.078125 
Q 24.65625 74.21875 41.21875 74.21875 
Q 47.75 74.21875 53.53125 72.484375 
Q 59.328125 70.75 64.40625 67.28125 
z
" id="DejaVuSans-43"/>
       <path d="M 54.890625 33.015625 
L 54.890625 0 
L 45.90625 0 
L 45.90625 32.71875 
Q 45.90625 40.484375 42.875 44.328125 
Q 39.84375 48.1875 33.796875 48.1875 
Q 26.515625 48.1875 22.3125 43.546875 
Q 18.109375 38.921875 18.109375 30.90625 
L 18.109375 0 
L 9.078125 0 
L 9.078125 75.984375 
L 18.109375 75.984375 
L 18.109375 46.1875 
Q 21.34375 51.125 25.703125 53.5625 
Q 30.078125 56 35.796875 56 
Q 45.21875 56 50.046875 50.171875 
Q 54.890625 44.34375 54.890625 33.015625 
z
" id="DejaVuSans-68"/>
       <path d="M 56.203125 29.59375 
L 56.203125 25.203125 
L 14.890625 25.203125 
Q 15.484375 15.921875 20.484375 11.0625 
Q 25.484375 6.203125 34.421875 6.203125 
Q 39.59375 6.203125 44.453125 7.46875 
Q 49.3125 8.734375 54.109375 11.28125 
L 54.109375 2.78125 
Q 49.265625 0.734375 44.1875 -0.34375 
Q 39.109375 -1.421875 33.890625 -1.421875 
Q 20.796875 -1.421875 13.15625 6.1875 
Q 5.515625 13.8125 5.515625 26.8125 
Q 5.515625 40.234375 12.765625 48.109375 
Q 20.015625 56 32.328125 56 
Q 43.359375 56 49.78125 48.890625 
Q 56.203125 41.796875 56.203125 29.59375 
z
M 47.21875 32.234375 
Q 47.125 39.59375 43.09375 43.984375 
Q 39.0625 48.390625 32.421875 48.390625 
Q 24.90625 48.390625 20.390625 44.140625 
Q 15.875 39.890625 15.1875 32.171875 
z
" id="DejaVuSans-65"/>
       <path d="M 54.890625 33.015625 
L 54.890625 0 
L 45.90625 0 
L 45.90625 32.71875 
Q 45.90625 40.484375 42.875 44.328125 
Q 39.84375 48.1875 33.796875 48.1875 
Q 26.515625 48.1875 22.3125 43.546875 
Q 18.109375 38.921875 18.109375 30.90625 
L 18.109375 0 
L 9.078125 0 
L 9.078125 54.6875 
L 18.109375 54.6875 
L 18.109375 46.1875 
Q 21.34375 51.125 25.703125 53.5625 
Q 30.078125 56 35.796875 56 
Q 45.21875 56 50.046875 50.171875 
Q 54.890625 44.34375 54.890625 33.015625 
z
" id="DejaVuSans-6e"/>
      </defs>
      <g transform="translate(178.731875 680.505937)rotate(-90)scale(0.42 -0.42)">
       <use xlink:href="#DejaVuSans-43"/>
       <use x="69.824219" xlink:href="#DejaVuSans-68"/>
       <use x="133.203125" xlink:href="#DejaVuSans-65"/>
       <use x="194.726562" xlink:href="#DejaVuSans-6e"/>
      </g>
     </g>
    </g>
    <g id="xtick_2">
     <g id="line2d_2">
      <g>
       <use style="stroke:#000000;" x="323.3825" xlink:href="#m09a86f6646" y="565.1"/>
      </g>
     </g>
     <g id="text_2">
      <!-- Lescroart -->
      <defs>
       <path d="M 9.8125 72.90625 
L 19.671875 72.90625 
L 19.671875 8.296875 
L 55.171875 8.296875 
L 55.171875 0 
L 9.8125 0 
z
" id="DejaVuSans-4c"/>
       <path d="M 44.28125 53.078125 
L 44.28125 44.578125 
Q 40.484375 46.53125 36.375 47.5 
Q 32.28125 48.484375 27.875 48.484375 
Q 21.1875 48.484375 17.84375 46.4375 
Q 14.5 44.390625 14.5 40.28125 
Q 14.5 37.15625 16.890625 35.375 
Q 19.28125 33.59375 26.515625 31.984375 
L 29.59375 31.296875 
Q 39.15625 29.25 43.1875 25.515625 
Q 47.21875 21.78125 47.21875 15.09375 
Q 47.21875 7.46875 41.1875 3.015625 
Q 35.15625 -1.421875 24.609375 -1.421875 
Q 20.21875 -1.421875 15.453125 -0.5625 
Q 10.6875 0.296875 5.421875 2 
L 5.421875 11.28125 
Q 10.40625 8.6875 15.234375 7.390625 
Q 20.0625 6.109375 24.8125 6.109375 
Q 31.15625 6.109375 34.5625 8.28125 
Q 37.984375 10.453125 37.984375 14.40625 
Q 37.984375 18.0625 35.515625 20.015625 
Q 33.0625 21.96875 24.703125 23.78125 
L 21.578125 24.515625 
Q 13.234375 26.265625 9.515625 29.90625 
Q 5.8125 33.546875 5.8125 39.890625 
Q 5.8125 47.609375 11.28125 51.796875 
Q 16.75 56 26.8125 56 
Q 31.78125 56 36.171875 55.265625 
Q 40.578125 54.546875 44.28125 53.078125 
z
" id="DejaVuSans-73"/>
       <path d="M 48.78125 52.59375 
L 48.78125 44.1875 
Q 44.96875 46.296875 41.140625 47.34375 
Q 37.3125 48.390625 33.40625 48.390625 
Q 24.65625 48.390625 19.8125 42.84375 
Q 14.984375 37.3125 14.984375 27.296875 
Q 14.984375 17.28125 19.8125 11.734375 
Q 24.65625 6.203125 33.40625 6.203125 
Q 37.3125 6.203125 41.140625 7.25 
Q 44.96875 8.296875 48.78125 10.40625 
L 48.78125 2.09375 
Q 45.015625 0.34375 40.984375 -0.53125 
Q 36.96875 -1.421875 32.421875 -1.421875 
Q 20.0625 -1.421875 12.78125 6.34375 
Q 5.515625 14.109375 5.515625 27.296875 
Q 5.515625 40.671875 12.859375 48.328125 
Q 20.21875 56 33.015625 56 
Q 37.15625 56 41.109375 55.140625 
Q 45.0625 54.296875 48.78125 52.59375 
z
" id="DejaVuSans-63"/>
       <path d="M 41.109375 46.296875 
Q 39.59375 47.171875 37.8125 47.578125 
Q 36.03125 48 33.890625 48 
Q 26.265625 48 22.1875 43.046875 
Q 18.109375 38.09375 18.109375 28.8125 
L 18.109375 0 
L 9.078125 0 
L 9.078125 54.6875 
L 18.109375 54.6875 
L 18.109375 46.1875 
Q 20.953125 51.171875 25.484375 53.578125 
Q 30.03125 56 36.53125 56 
Q 37.453125 56 38.578125 55.875 
Q 39.703125 55.765625 41.0625 55.515625 
z
" id="DejaVuSans-72"/>
       <path d="M 30.609375 48.390625 
Q 23.390625 48.390625 19.1875 42.75 
Q 14.984375 37.109375 14.984375 27.296875 
Q 14.984375 17.484375 19.15625 11.84375 
Q 23.34375 6.203125 30.609375 6.203125 
Q 37.796875 6.203125 41.984375 11.859375 
Q 46.1875 17.53125 46.1875 27.296875 
Q 46.1875 37.015625 41.984375 42.703125 
Q 37.796875 48.390625 30.609375 48.390625 
z
M 30.609375 56 
Q 42.328125 56 49.015625 48.375 
Q 55.71875 40.765625 55.71875 27.296875 
Q 55.71875 13.875 49.015625 6.21875 
Q 42.328125 -1.421875 30.609375 -1.421875 
Q 18.84375 -1.421875 12.171875 6.21875 
Q 5.515625 13.875 5.515625 27.296875 
Q 5.515625 40.765625 12.171875 48.375 
Q 18.84375 56 30.609375 56 
z
" id="DejaVuSans-6f"/>
       <path d="M 34.28125 27.484375 
Q 23.390625 27.484375 19.1875 25 
Q 14.984375 22.515625 14.984375 16.5 
Q 14.984375 11.71875 18.140625 8.90625 
Q 21.296875 6.109375 26.703125 6.109375 
Q 34.1875 6.109375 38.703125 11.40625 
Q 43.21875 16.703125 43.21875 25.484375 
L 43.21875 27.484375 
z
M 52.203125 31.203125 
L 52.203125 0 
L 43.21875 0 
L 43.21875 8.296875 
Q 40.140625 3.328125 35.546875 0.953125 
Q 30.953125 -1.421875 24.3125 -1.421875 
Q 15.921875 -1.421875 10.953125 3.296875 
Q 6 8.015625 6 15.921875 
Q 6 25.140625 12.171875 29.828125 
Q 18.359375 34.515625 30.609375 34.515625 
L 43.21875 34.515625 
L 43.21875 35.40625 
Q 43.21875 41.609375 39.140625 45 
Q 35.0625 48.390625 27.6875 48.390625 
Q 23 48.390625 18.546875 47.265625 
Q 14.109375 46.140625 10.015625 43.890625 
L 10.015625 52.203125 
Q 14.9375 54.109375 19.578125 55.046875 
Q 24.21875 56 28.609375 56 
Q 40.484375 56 46.34375 49.84375 
Q 52.203125 43.703125 52.203125 31.203125 
z
" id="DejaVuSans-61"/>
       <path d="M 18.3125 70.21875 
L 18.3125 54.6875 
L 36.8125 54.6875 
L 36.8125 47.703125 
L 18.3125 47.703125 
L 18.3125 18.015625 
Q 18.3125 11.328125 20.140625 9.421875 
Q 21.96875 7.515625 27.59375 7.515625 
L 36.8125 7.515625 
L 36.8125 0 
L 27.59375 0 
Q 17.1875 0 13.234375 3.875 
Q 9.28125 7.765625 9.28125 18.015625 
L 9.28125 47.703125 
L 2.6875 47.703125 
L 2.6875 54.6875 
L 9.28125 54.6875 
L 9.28125 70.21875 
z
" id="DejaVuSans-74"/>
      </defs>
      <g transform="translate(334.971875 768.732187)rotate(-90)scale(0.42 -0.42)">
       <use xlink:href="#DejaVuSans-4c"/>
       <use x="55.697266" xlink:href="#DejaVuSans-65"/>
       <use x="117.220703" xlink:href="#DejaVuSans-73"/>
       <use x="169.320312" xlink:href="#DejaVuSans-63"/>
       <use x="224.300781" xlink:href="#DejaVuSans-72"/>
       <use x="265.382812" xlink:href="#DejaVuSans-6f"/>
       <use x="326.564453" xlink:href="#DejaVuSans-61"/>
       <use x="387.84375" xlink:href="#DejaVuSans-72"/>
       <use x="428.957031" xlink:href="#DejaVuSans-74"/>
      </g>
     </g>
    </g>
    <g id="xtick_3">
     <g id="line2d_3">
      <g>
       <use style="stroke:#000000;" x="479.6225" xlink:href="#m09a86f6646" y="565.1"/>
      </g>
     </g>
     <g id="text_3">
      <!-- Trapnell -->
      <defs>
       <path d="M -0.296875 72.90625 
L 61.375 72.90625 
L 61.375 64.59375 
L 35.5 64.59375 
L 35.5 0 
L 25.59375 0 
L 25.59375 64.59375 
L -0.296875 64.59375 
z
" id="DejaVuSans-54"/>
       <path d="M 18.109375 8.203125 
L 18.109375 -20.796875 
L 9.078125 -20.796875 
L 9.078125 54.6875 
L 18.109375 54.6875 
L 18.109375 46.390625 
Q 20.953125 51.265625 25.265625 53.625 
Q 29.59375 56 35.59375 56 
Q 45.5625 56 51.78125 48.09375 
Q 58.015625 40.1875 58.015625 27.296875 
Q 58.015625 14.40625 51.78125 6.484375 
Q 45.5625 -1.421875 35.59375 -1.421875 
Q 29.59375 -1.421875 25.265625 0.953125 
Q 20.953125 3.328125 18.109375 8.203125 
z
M 48.6875 27.296875 
Q 48.6875 37.203125 44.609375 42.84375 
Q 40.53125 48.484375 33.40625 48.484375 
Q 26.265625 48.484375 22.1875 42.84375 
Q 18.109375 37.203125 18.109375 27.296875 
Q 18.109375 17.390625 22.1875 11.75 
Q 26.265625 6.109375 33.40625 6.109375 
Q 40.53125 6.109375 44.609375 11.75 
Q 48.6875 17.390625 48.6875 27.296875 
z
" id="DejaVuSans-70"/>
       <path d="M 9.421875 75.984375 
L 18.40625 75.984375 
L 18.40625 0 
L 9.421875 0 
z
" id="DejaVuSans-6c"/>
      </defs>
      <g transform="translate(491.211875 743.125312)rotate(-90)scale(0.42 -0.42)">
       <use xlink:href="#DejaVuSans-54"/>
       <use x="60.865234" xlink:href="#DejaVuSans-72"/>
       <use x="101.978516" xlink:href="#DejaVuSans-61"/>
       <use x="163.257812" xlink:href="#DejaVuSans-70"/>
       <use x="226.734375" xlink:href="#DejaVuSans-6e"/>
       <use x="290.113281" xlink:href="#DejaVuSans-65"/>
       <use x="351.636719" xlink:href="#DejaVuSans-6c"/>
       <use x="379.419922" xlink:href="#DejaVuSans-6c"/>
      </g>
     </g>
    </g>
    <g id="xtick_4">
     <g id="line2d_4">
      <g>
       <use style="stroke:#000000;" x="635.8625" xlink:href="#m09a86f6646" y="565.1"/>
      </g>
     </g>
     <g id="text_4">
      <!-- Song -->
      <defs>
       <path d="M 53.515625 70.515625 
L 53.515625 60.890625 
Q 47.90625 63.578125 42.921875 64.890625 
Q 37.9375 66.21875 33.296875 66.21875 
Q 25.25 66.21875 20.875 63.09375 
Q 16.5 59.96875 16.5 54.203125 
Q 16.5 49.359375 19.40625 46.890625 
Q 22.3125 44.4375 30.421875 42.921875 
L 36.375 41.703125 
Q 47.40625 39.59375 52.65625 34.296875 
Q 57.90625 29 57.90625 20.125 
Q 57.90625 9.515625 50.796875 4.046875 
Q 43.703125 -1.421875 29.984375 -1.421875 
Q 24.8125 -1.421875 18.96875 -0.25 
Q 13.140625 0.921875 6.890625 3.21875 
L 6.890625 13.375 
Q 12.890625 10.015625 18.65625 8.296875 
Q 24.421875 6.59375 29.984375 6.59375 
Q 38.421875 6.59375 43.015625 9.90625 
Q 47.609375 13.234375 47.609375 19.390625 
Q 47.609375 24.75 44.3125 27.78125 
Q 41.015625 30.8125 33.5 32.328125 
L 27.484375 33.5 
Q 16.453125 35.6875 11.515625 40.375 
Q 6.59375 45.0625 6.59375 53.421875 
Q 6.59375 63.09375 13.40625 68.65625 
Q 20.21875 74.21875 32.171875 74.21875 
Q 37.3125 74.21875 42.625 73.28125 
Q 47.953125 72.359375 53.515625 70.515625 
z
" id="DejaVuSans-53"/>
       <path d="M 45.40625 27.984375 
Q 45.40625 37.75 41.375 43.109375 
Q 37.359375 48.484375 30.078125 48.484375 
Q 22.859375 48.484375 18.828125 43.109375 
Q 14.796875 37.75 14.796875 27.984375 
Q 14.796875 18.265625 18.828125 12.890625 
Q 22.859375 7.515625 30.078125 7.515625 
Q 37.359375 7.515625 41.375 12.890625 
Q 45.40625 18.265625 45.40625 27.984375 
z
M 54.390625 6.78125 
Q 54.390625 -7.171875 48.1875 -13.984375 
Q 42 -20.796875 29.203125 -20.796875 
Q 24.46875 -20.796875 20.265625 -20.09375 
Q 16.0625 -19.390625 12.109375 -17.921875 
L 12.109375 -9.1875 
Q 16.0625 -11.328125 19.921875 -12.34375 
Q 23.78125 -13.375 27.78125 -13.375 
Q 36.625 -13.375 41.015625 -8.765625 
Q 45.40625 -4.15625 45.40625 5.171875 
L 45.40625 9.625 
Q 42.625 4.78125 38.28125 2.390625 
Q 33.9375 0 27.875 0 
Q 17.828125 0 11.671875 7.65625 
Q 5.515625 15.328125 5.515625 27.984375 
Q 5.515625 40.671875 11.671875 48.328125 
Q 17.828125 56 27.875 56 
Q 33.9375 56 38.28125 53.609375 
Q 42.625 51.21875 45.40625 46.390625 
L 45.40625 54.6875 
L 54.390625 54.6875 
z
" id="DejaVuSans-67"/>
      </defs>
      <g transform="translate(647.451875 677.743125)rotate(-90)scale(0.42 -0.42)">
       <use xlink:href="#DejaVuSans-53"/>
       <use x="63.476562" xlink:href="#DejaVuSans-6f"/>
       <use x="124.658203" xlink:href="#DejaVuSans-6e"/>
       <use x="188.037109" xlink:href="#DejaVuSans-67"/>
      </g>
     </g>
    </g>
    <g id="xtick_5">
     <g id="line2d_5">
      <g>
       <use style="stroke:#000000;" x="792.1025" xlink:href="#m09a86f6646" y="565.1"/>
      </g>
     </g>
     <g id="text_5">
      <!-- Fletcher -->
      <defs>
       <path d="M 9.8125 72.90625 
L 51.703125 72.90625 
L 51.703125 64.59375 
L 19.671875 64.59375 
L 19.671875 43.109375 
L 48.578125 43.109375 
L 48.578125 34.8125 
L 19.671875 34.8125 
L 19.671875 0 
L 9.8125 0 
z
" id="DejaVuSans-46"/>
      </defs>
      <g transform="translate(803.691875 743.053125)rotate(-90)scale(0.42 -0.42)">
       <use xlink:href="#DejaVuSans-46"/>
       <use x="57.519531" xlink:href="#DejaVuSans-6c"/>
       <use x="85.302734" xlink:href="#DejaVuSans-65"/>
       <use x="146.826172" xlink:href="#DejaVuSans-74"/>
       <use x="186.035156" xlink:href="#DejaVuSans-63"/>
       <use x="241.015625" xlink:href="#DejaVuSans-68"/>
       <use x="304.394531" xlink:href="#DejaVuSans-65"/>
       <use x="365.917969" xlink:href="#DejaVuSans-72"/>
      </g>
     </g>
    </g>
   </g>
   <g id="matplotlib.axis_2">
    <g id="ytick_1">
     <g id="line2d_6">
      <defs>
       <path d="M 0 0 
L -3.5 0 
" id="mee35a2a92b" style="stroke:#000000;"/>
      </defs>
      <g>
       <use style="stroke:#000000;" x="89.0225" xlink:href="#mee35a2a92b" y="541.461881"/>
      </g>
     </g>
     <g id="text_6">
      <!-- 0 -->
      <defs>
       <path d="M 31.78125 66.40625 
Q 24.171875 66.40625 20.328125 58.90625 
Q 16.5 51.421875 16.5 36.375 
Q 16.5 21.390625 20.328125 13.890625 
Q 24.171875 6.390625 31.78125 6.390625 
Q 39.453125 6.390625 43.28125 13.890625 
Q 47.125 21.390625 47.125 36.375 
Q 47.125 51.421875 43.28125 58.90625 
Q 39.453125 66.40625 31.78125 66.40625 
z
M 31.78125 74.21875 
Q 44.046875 74.21875 50.515625 64.515625 
Q 56.984375 54.828125 56.984375 36.375 
Q 56.984375 17.96875 50.515625 8.265625 
Q 44.046875 -1.421875 31.78125 -1.421875 
Q 19.53125 -1.421875 13.0625 8.265625 
Q 6.59375 17.96875 6.59375 36.375 
Q 6.59375 54.828125 13.0625 64.515625 
Q 19.53125 74.21875 31.78125 74.21875 
z
" id="DejaVuSans-30"/>
      </defs>
      <g transform="translate(55.3 557.4186)scale(0.42 -0.42)">
       <use xlink:href="#DejaVuSans-30"/>
      </g>
     </g>
    </g>
    <g id="ytick_2">
     <g id="line2d_7">
      <g>
       <use style="stroke:#000000;" x="89.0225" xlink:href="#mee35a2a92b" y="444.747745"/>
      </g>
     </g>
     <g id="text_7">
      <!-- 1 -->
      <defs>
       <path d="M 12.40625 8.296875 
L 28.515625 8.296875 
L 28.515625 63.921875 
L 10.984375 60.40625 
L 10.984375 69.390625 
L 28.421875 72.90625 
L 38.28125 72.90625 
L 38.28125 8.296875 
L 54.390625 8.296875 
L 54.390625 0 
L 12.40625 0 
z
" id="DejaVuSans-31"/>
      </defs>
      <g transform="translate(55.3 460.704463)scale(0.42 -0.42)">
       <use xlink:href="#DejaVuSans-31"/>
      </g>
     </g>
    </g>
    <g id="ytick_3">
     <g id="line2d_8">
      <g>
       <use style="stroke:#000000;" x="89.0225" xlink:href="#mee35a2a92b" y="348.033608"/>
      </g>
     </g>
     <g id="text_8">
      <!-- 2 -->
      <defs>
       <path d="M 19.1875 8.296875 
L 53.609375 8.296875 
L 53.609375 0 
L 7.328125 0 
L 7.328125 8.296875 
Q 12.9375 14.109375 22.625 23.890625 
Q 32.328125 33.6875 34.8125 36.53125 
Q 39.546875 41.84375 41.421875 45.53125 
Q 43.3125 49.21875 43.3125 52.78125 
Q 43.3125 58.59375 39.234375 62.25 
Q 35.15625 65.921875 28.609375 65.921875 
Q 23.96875 65.921875 18.8125 64.3125 
Q 13.671875 62.703125 7.8125 59.421875 
L 7.8125 69.390625 
Q 13.765625 71.78125 18.9375 73 
Q 24.125 74.21875 28.421875 74.21875 
Q 39.75 74.21875 46.484375 68.546875 
Q 53.21875 62.890625 53.21875 53.421875 
Q 53.21875 48.921875 51.53125 44.890625 
Q 49.859375 40.875 45.40625 35.40625 
Q 44.1875 33.984375 37.640625 27.21875 
Q 31.109375 20.453125 19.1875 8.296875 
z
" id="DejaVuSans-32"/>
      </defs>
      <g transform="translate(55.3 363.990327)scale(0.42 -0.42)">
       <use xlink:href="#DejaVuSans-32"/>
      </g>
     </g>
    </g>
    <g id="ytick_4">
     <g id="line2d_9">
      <g>
       <use style="stroke:#000000;" x="89.0225" xlink:href="#mee35a2a92b" y="251.319472"/>
      </g>
     </g>
     <g id="text_9">
      <!-- 3 -->
      <defs>
       <path d="M 40.578125 39.3125 
Q 47.65625 37.796875 51.625 33 
Q 55.609375 28.21875 55.609375 21.1875 
Q 55.609375 10.40625 48.1875 4.484375 
Q 40.765625 -1.421875 27.09375 -1.421875 
Q 22.515625 -1.421875 17.65625 -0.515625 
Q 12.796875 0.390625 7.625 2.203125 
L 7.625 11.71875 
Q 11.71875 9.328125 16.59375 8.109375 
Q 21.484375 6.890625 26.8125 6.890625 
Q 36.078125 6.890625 40.9375 10.546875 
Q 45.796875 14.203125 45.796875 21.1875 
Q 45.796875 27.640625 41.28125 31.265625 
Q 36.765625 34.90625 28.71875 34.90625 
L 20.21875 34.90625 
L 20.21875 43.015625 
L 29.109375 43.015625 
Q 36.375 43.015625 40.234375 45.921875 
Q 44.09375 48.828125 44.09375 54.296875 
Q 44.09375 59.90625 40.109375 62.90625 
Q 36.140625 65.921875 28.71875 65.921875 
Q 24.65625 65.921875 20.015625 65.03125 
Q 15.375 64.15625 9.8125 62.3125 
L 9.8125 71.09375 
Q 15.4375 72.65625 20.34375 73.4375 
Q 25.25 74.21875 29.59375 74.21875 
Q 40.828125 74.21875 47.359375 69.109375 
Q 53.90625 64.015625 53.90625 55.328125 
Q 53.90625 49.265625 50.4375 45.09375 
Q 46.96875 40.921875 40.578125 39.3125 
z
" id="DejaVuSans-33"/>
      </defs>
      <g transform="translate(55.3 267.276191)scale(0.42 -0.42)">
       <use xlink:href="#DejaVuSans-33"/>
      </g>
     </g>
    </g>
    <g id="ytick_5">
     <g id="line2d_10">
      <g>
       <use style="stroke:#000000;" x="89.0225" xlink:href="#mee35a2a92b" y="154.605336"/>
      </g>
     </g>
     <g id="text_10">
      <!-- 4 -->
      <defs>
       <path d="M 37.796875 64.3125 
L 12.890625 25.390625 
L 37.796875 25.390625 
z
M 35.203125 72.90625 
L 47.609375 72.90625 
L 47.609375 25.390625 
L 58.015625 25.390625 
L 58.015625 17.1875 
L 47.609375 17.1875 
L 47.609375 0 
L 37.796875 0 
L 37.796875 17.1875 
L 4.890625 17.1875 
L 4.890625 26.703125 
z
" id="DejaVuSans-34"/>
      </defs>
      <g transform="translate(55.3 170.562055)scale(0.42 -0.42)">
       <use xlink:href="#DejaVuSans-34"/>
      </g>
     </g>
    </g>
    <g id="ytick_6">
     <g id="line2d_11">
      <g>
       <use style="stroke:#000000;" x="89.0225" xlink:href="#mee35a2a92b" y="57.891199"/>
      </g>
     </g>
     <g id="text_11">
      <!-- 5 -->
      <defs>
       <path d="M 10.796875 72.90625 
L 49.515625 72.90625 
L 49.515625 64.59375 
L 19.828125 64.59375 
L 19.828125 46.734375 
Q 21.96875 47.46875 24.109375 47.828125 
Q 26.265625 48.1875 28.421875 48.1875 
Q 40.625 48.1875 47.75 41.5 
Q 54.890625 34.8125 54.890625 23.390625 
Q 54.890625 11.625 47.5625 5.09375 
Q 40.234375 -1.421875 26.90625 -1.421875 
Q 22.3125 -1.421875 17.546875 -0.640625 
Q 12.796875 0.140625 7.71875 1.703125 
L 7.71875 11.625 
Q 12.109375 9.234375 16.796875 8.0625 
Q 21.484375 6.890625 26.703125 6.890625 
Q 35.15625 6.890625 40.078125 11.328125 
Q 45.015625 15.765625 45.015625 23.390625 
Q 45.015625 31 40.078125 35.4375 
Q 35.15625 39.890625 26.703125 39.890625 
Q 22.75 39.890625 18.8125 39.015625 
Q 14.890625 38.140625 10.796875 36.28125 
z
" id="DejaVuSans-35"/>
      </defs>
      <g transform="translate(55.3 73.847918)scale(0.42 -0.42)">
       <use xlink:href="#DejaVuSans-35"/>
      </g>
     </g>
    </g>
    <g id="text_12">
     <!-- mRNAs per cell (x$10^5$) -->
     <defs>
      <path d="M 52 44.1875 
Q 55.375 50.25 60.0625 53.125 
Q 64.75 56 71.09375 56 
Q 79.640625 56 84.28125 50.015625 
Q 88.921875 44.046875 88.921875 33.015625 
L 88.921875 0 
L 79.890625 0 
L 79.890625 32.71875 
Q 79.890625 40.578125 77.09375 44.375 
Q 74.3125 48.1875 68.609375 48.1875 
Q 61.625 48.1875 57.5625 43.546875 
Q 53.515625 38.921875 53.515625 30.90625 
L 53.515625 0 
L 44.484375 0 
L 44.484375 32.71875 
Q 44.484375 40.625 41.703125 44.40625 
Q 38.921875 48.1875 33.109375 48.1875 
Q 26.21875 48.1875 22.15625 43.53125 
Q 18.109375 38.875 18.109375 30.90625 
L 18.109375 0 
L 9.078125 0 
L 9.078125 54.6875 
L 18.109375 54.6875 
L 18.109375 46.1875 
Q 21.1875 51.21875 25.484375 53.609375 
Q 29.78125 56 35.6875 56 
Q 41.65625 56 45.828125 52.96875 
Q 50 49.953125 52 44.1875 
z
" id="DejaVuSans-6d"/>
      <path d="M 44.390625 34.1875 
Q 47.5625 33.109375 50.5625 29.59375 
Q 53.5625 26.078125 56.59375 19.921875 
L 66.609375 0 
L 56 0 
L 46.6875 18.703125 
Q 43.0625 26.03125 39.671875 28.421875 
Q 36.28125 30.8125 30.421875 30.8125 
L 19.671875 30.8125 
L 19.671875 0 
L 9.8125 0 
L 9.8125 72.90625 
L 32.078125 72.90625 
Q 44.578125 72.90625 50.734375 67.671875 
Q 56.890625 62.453125 56.890625 51.90625 
Q 56.890625 45.015625 53.6875 40.46875 
Q 50.484375 35.9375 44.390625 34.1875 
z
M 19.671875 64.796875 
L 19.671875 38.921875 
L 32.078125 38.921875 
Q 39.203125 38.921875 42.84375 42.21875 
Q 46.484375 45.515625 46.484375 51.90625 
Q 46.484375 58.296875 42.84375 61.546875 
Q 39.203125 64.796875 32.078125 64.796875 
z
" id="DejaVuSans-52"/>
      <path d="M 9.8125 72.90625 
L 23.09375 72.90625 
L 55.421875 11.921875 
L 55.421875 72.90625 
L 64.984375 72.90625 
L 64.984375 0 
L 51.703125 0 
L 19.390625 60.984375 
L 19.390625 0 
L 9.8125 0 
z
" id="DejaVuSans-4e"/>
      <path d="M 34.1875 63.1875 
L 20.796875 26.90625 
L 47.609375 26.90625 
z
M 28.609375 72.90625 
L 39.796875 72.90625 
L 67.578125 0 
L 57.328125 0 
L 50.6875 18.703125 
L 17.828125 18.703125 
L 11.1875 0 
L 0.78125 0 
z
" id="DejaVuSans-41"/>
      <path id="DejaVuSans-20"/>
      <path d="M 31 75.875 
Q 24.46875 64.65625 21.28125 53.65625 
Q 18.109375 42.671875 18.109375 31.390625 
Q 18.109375 20.125 21.3125 9.0625 
Q 24.515625 -2 31 -13.1875 
L 23.1875 -13.1875 
Q 15.875 -1.703125 12.234375 9.375 
Q 8.59375 20.453125 8.59375 31.390625 
Q 8.59375 42.28125 12.203125 53.3125 
Q 15.828125 64.359375 23.1875 75.875 
z
" id="DejaVuSans-28"/>
      <path d="M 54.890625 54.6875 
L 35.109375 28.078125 
L 55.90625 0 
L 45.3125 0 
L 29.390625 21.484375 
L 13.484375 0 
L 2.875 0 
L 24.125 28.609375 
L 4.6875 54.6875 
L 15.28125 54.6875 
L 29.78125 35.203125 
L 44.28125 54.6875 
z
" id="DejaVuSans-78"/>
      <path d="M 39.40625 0 
L 11.796875 0 
L 11.796875 1.5 
Q 17.296875 1.796875 19.296875 3.546875 
Q 21.296875 5.296875 21.296875 9.5 
L 21.296875 54.40625 
Q 21.296875 59.296875 18.296875 59.296875 
Q 16.90625 59.296875 13.796875 58.09375 
L 11.09375 57.09375 
L 11.09375 58.5 
L 29 67.59375 
L 29.90625 67.296875 
L 29.90625 7.59375 
Q 29.90625 4.296875 31.90625 2.890625 
Q 33.90625 1.5 39.40625 1.5 
z
" id="STIXGeneral-Regular-31"/>
      <path d="M 47.59375 33 
Q 47.59375 26.296875 46.296875 20.34375 
Q 45 14.40625 42.453125 9.40625 
Q 39.90625 4.40625 35.40625 1.5 
Q 30.90625 -1.40625 25 -1.40625 
Q 18.90625 -1.40625 14.296875 1.6875 
Q 9.703125 4.796875 7.203125 10 
Q 4.703125 15.203125 3.546875 21.09375 
Q 2.40625 27 2.40625 33.59375 
Q 2.40625 42.90625 4.703125 50.34375 
Q 7 57.796875 12.34375 62.6875 
Q 17.703125 67.59375 25.40625 67.59375 
Q 35.203125 67.59375 41.390625 58 
Q 47.59375 48.40625 47.59375 33 
z
M 38 32.5 
Q 38 48.296875 34.640625 56.640625 
Q 31.296875 65 24.796875 65 
Q 18.59375 65 15.296875 56.59375 
Q 12 48.203125 12 32.90625 
Q 12 17.5 15.296875 9.34375 
Q 18.59375 1.203125 25 1.203125 
Q 31.296875 1.203125 34.640625 9.34375 
Q 38 17.5 38 32.5 
z
" id="STIXGeneral-Regular-30"/>
      <path d="M 43.796875 68.09375 
L 40.203125 59.59375 
Q 39.59375 58.296875 37.5 58.296875 
L 18.09375 58.296875 
L 14.09375 49.796875 
Q 25.09375 47.703125 30 45.25 
Q 34.90625 42.796875 39.09375 37 
Q 42.59375 32.203125 42.59375 24.296875 
Q 42.59375 17.09375 40.25 12.1875 
Q 37.90625 7.296875 32.796875 3.5 
Q 26 -1.40625 15.796875 -1.40625 
Q 10.09375 -1.40625 6.59375 0.296875 
Q 3.09375 2 3.09375 4.796875 
Q 3.09375 8.59375 7.59375 8.59375 
Q 11.203125 8.59375 15 5.5 
Q 18.90625 2.296875 22.09375 2.296875 
Q 27.296875 2.296875 31.4375 7.5 
Q 35.59375 12.703125 35.59375 19.203125 
Q 35.59375 28.796875 28.90625 34.203125 
Q 20.203125 41.203125 7.59375 41.203125 
Q 6.40625 41.203125 6.40625 42 
L 6.5 42.5 
L 17.40625 66.203125 
L 38.09375 66.203125 
Q 39.796875 66.203125 40.75 66.703125 
Q 41.703125 67.203125 42.90625 68.796875 
z
" id="STIXGeneral-Regular-35"/>
      <path d="M 8.015625 75.875 
L 15.828125 75.875 
Q 23.140625 64.359375 26.78125 53.3125 
Q 30.421875 42.28125 30.421875 31.390625 
Q 30.421875 20.453125 26.78125 9.375 
Q 23.140625 -1.703125 15.828125 -13.1875 
L 8.015625 -13.1875 
Q 14.5 -2 17.703125 9.0625 
Q 20.90625 20.125 20.90625 31.390625 
Q 20.90625 42.671875 17.703125 53.65625 
Q 14.5 64.65625 8.015625 75.875 
z
" id="DejaVuSans-29"/>
     </defs>
     <g transform="translate(42.48 513.44)rotate(-90)scale(0.42 -0.42)">
      <use transform="translate(0 0.567188)" xlink:href="#DejaVuSans-6d"/>
      <use transform="translate(97.412109 0.567188)" xlink:href="#DejaVuSans-52"/>
      <use transform="translate(166.894531 0.567188)" xlink:href="#DejaVuSans-4e"/>
      <use transform="translate(241.699219 0.567188)" xlink:href="#DejaVuSans-41"/>
      <use transform="translate(310.107422 0.567188)" xlink:href="#DejaVuSans-73"/>
      <use transform="translate(362.207031 0.567188)" xlink:href="#DejaVuSans-20"/>
      <use transform="translate(393.994141 0.567188)" xlink:href="#DejaVuSans-70"/>
      <use transform="translate(457.470703 0.567188)" xlink:href="#DejaVuSans-65"/>
      <use transform="translate(518.994141 0.567188)" xlink:href="#DejaVuSans-72"/>
      <use transform="translate(560.107422 0.567188)" xlink:href="#DejaVuSans-20"/>
      <use transform="translate(591.894531 0.567188)" xlink:href="#DejaVuSans-63"/>
      <use transform="translate(646.875 0.567188)" xlink:href="#DejaVuSans-65"/>
      <use transform="translate(708.398438 0.567188)" xlink:href="#DejaVuSans-6c"/>
      <use transform="translate(736.181641 0.567188)" xlink:href="#DejaVuSans-6c"/>
      <use transform="translate(763.964844 0.567188)" xlink:href="#DejaVuSans-20"/>
      <use transform="translate(795.751953 0.567188)" xlink:href="#DejaVuSans-28"/>
      <use transform="translate(834.765625 0.567188)" xlink:href="#DejaVuSans-78"/>
      <use transform="translate(893.945312 0.567188)" xlink:href="#STIXGeneral-Regular-31"/>
      <use transform="translate(943.945297 0.567188)" xlink:href="#STIXGeneral-Regular-30"/>
      <use transform="translate(995.488563 35.842188)scale(0.7)" xlink:href="#STIXGeneral-Regular-35"/>
      <use transform="translate(1034.897928 0.567188)" xlink:href="#DejaVuSans-29"/>
     </g>
    </g>
   </g>
   <g id="line2d_12">
    <path clip-path="url(#p4edf5848b6)" d="M 128.0825 337.182493 
L 206.2025 337.182493 
L 206.2025 215.796839 
L 128.0825 215.796839 
L 128.0825 337.182493 
" style="fill:none;stroke:#00008b;stroke-linecap:square;"/>
   </g>
   <g id="line2d_13">
    <path clip-path="url(#p4edf5848b6)" d="M 167.1425 337.182493 
L 167.1425 491.525769 
" style="fill:none;stroke:#00008b;stroke-dasharray:3.7,1.6;stroke-dashoffset:0;"/>
   </g>
   <g id="line2d_14">
    <path clip-path="url(#p4edf5848b6)" d="M 167.1425 215.796839 
L 167.1425 35.9 
" style="fill:none;stroke:#00008b;stroke-dasharray:3.7,1.6;stroke-dashoffset:0;"/>
   </g>
   <g id="line2d_15">
    <path clip-path="url(#p4edf5848b6)" d="M 147.6125 491.525769 
L 186.6725 491.525769 
" style="fill:none;stroke:#000000;stroke-linecap:square;"/>
   </g>
   <g id="line2d_16">
    <path clip-path="url(#p4edf5848b6)" d="M 147.6125 35.9 
L 186.6725 35.9 
" style="fill:none;stroke:#000000;stroke-linecap:square;"/>
   </g>
   <g id="line2d_17">
    <path clip-path="url(#p4edf5848b6)" d="M 284.3225 453.725443 
L 362.4425 453.725443 
L 362.4425 373.091548 
L 284.3225 373.091548 
L 284.3225 453.725443 
" style="fill:none;stroke:#00008b;stroke-linecap:square;"/>
   </g>
   <g id="line2d_18">
    <path clip-path="url(#p4edf5848b6)" d="M 323.3825 453.725443 
L 323.3825 501.125365 
" style="fill:none;stroke:#00008b;stroke-dasharray:3.7,1.6;stroke-dashoffset:0;"/>
   </g>
   <g id="line2d_19">
    <path clip-path="url(#p4edf5848b6)" d="M 323.3825 373.091548 
L 323.3825 252.882642 
" style="fill:none;stroke:#00008b;stroke-dasharray:3.7,1.6;stroke-dashoffset:0;"/>
   </g>
   <g id="line2d_20">
    <path clip-path="url(#p4edf5848b6)" d="M 303.8525 501.125365 
L 342.9125 501.125365 
" style="fill:none;stroke:#000000;stroke-linecap:square;"/>
   </g>
   <g id="line2d_21">
    <path clip-path="url(#p4edf5848b6)" d="M 303.8525 252.882642 
L 342.9125 252.882642 
" style="fill:none;stroke:#000000;stroke-linecap:square;"/>
   </g>
   <g id="line2d_22">
    <path clip-path="url(#p4edf5848b6)" d="M 440.5625 501.73419 
L 518.6825 501.73419 
L 518.6825 486.61406 
L 440.5625 486.61406 
L 440.5625 501.73419 
" style="fill:none;stroke:#00008b;stroke-linecap:square;"/>
   </g>
   <g id="line2d_23">
    <path clip-path="url(#p4edf5848b6)" d="M 479.6225 501.73419 
L 479.6225 522.111114 
" style="fill:none;stroke:#00008b;stroke-dasharray:3.7,1.6;stroke-dashoffset:0;"/>
   </g>
   <g id="line2d_24">
    <path clip-path="url(#p4edf5848b6)" d="M 479.6225 486.61406 
L 479.6225 464.164233 
" style="fill:none;stroke:#00008b;stroke-dasharray:3.7,1.6;stroke-dashoffset:0;"/>
   </g>
   <g id="line2d_25">
    <path clip-path="url(#p4edf5848b6)" d="M 460.0925 522.111114 
L 499.1525 522.111114 
" style="fill:none;stroke:#000000;stroke-linecap:square;"/>
   </g>
   <g id="line2d_26">
    <path clip-path="url(#p4edf5848b6)" d="M 460.0925 464.164233 
L 499.1525 464.164233 
" style="fill:none;stroke:#000000;stroke-linecap:square;"/>
   </g>
   <g id="line2d_27">
    <path clip-path="url(#p4edf5848b6)" d="M 596.8025 495.478394 
L 674.9225 495.478394 
L 674.9225 468.349241 
L 596.8025 468.349241 
L 596.8025 495.478394 
" style="fill:none;stroke:#00008b;stroke-linecap:square;"/>
   </g>
   <g id="line2d_28">
    <path clip-path="url(#p4edf5848b6)" d="M 635.8625 495.478394 
L 635.8625 521.194906 
" style="fill:none;stroke:#00008b;stroke-dasharray:3.7,1.6;stroke-dashoffset:0;"/>
   </g>
   <g id="line2d_29">
    <path clip-path="url(#p4edf5848b6)" d="M 635.8625 468.349241 
L 635.8625 429.271149 
" style="fill:none;stroke:#00008b;stroke-dasharray:3.7,1.6;stroke-dashoffset:0;"/>
   </g>
   <g id="line2d_30">
    <path clip-path="url(#p4edf5848b6)" d="M 616.3325 521.194906 
L 655.3925 521.194906 
" style="fill:none;stroke:#000000;stroke-linecap:square;"/>
   </g>
   <g id="line2d_31">
    <path clip-path="url(#p4edf5848b6)" d="M 616.3325 429.271149 
L 655.3925 429.271149 
" style="fill:none;stroke:#000000;stroke-linecap:square;"/>
   </g>
   <g id="line2d_32">
    <path clip-path="url(#p4edf5848b6)" d="M 753.0425 514.451456 
L 831.1625 514.451456 
L 831.1625 475.906194 
L 753.0425 475.906194 
L 753.0425 514.451456 
" style="fill:none;stroke:#00008b;stroke-linecap:square;"/>
   </g>
   <g id="line2d_33">
    <path clip-path="url(#p4edf5848b6)" d="M 792.1025 514.451456 
L 792.1025 539.9 
" style="fill:none;stroke:#00008b;stroke-dasharray:3.7,1.6;stroke-dashoffset:0;"/>
   </g>
   <g id="line2d_34">
    <path clip-path="url(#p4edf5848b6)" d="M 792.1025 475.906194 
L 792.1025 421.09638 
" style="fill:none;stroke:#00008b;stroke-dasharray:3.7,1.6;stroke-dashoffset:0;"/>
   </g>
   <g id="line2d_35">
    <path clip-path="url(#p4edf5848b6)" d="M 772.5725 539.9 
L 811.6325 539.9 
" style="fill:none;stroke:#000000;stroke-linecap:square;"/>
   </g>
   <g id="line2d_36">
    <path clip-path="url(#p4edf5848b6)" d="M 772.5725 421.09638 
L 811.6325 421.09638 
" style="fill:none;stroke:#000000;stroke-linecap:square;"/>
   </g>
   <g id="line2d_37">
    <path clip-path="url(#p4edf5848b6)" d="M 128.0825 280.324685 
L 206.2025 280.324685 
" style="fill:none;stroke:#8b0000;stroke-linecap:square;"/>
   </g>
   <g id="line2d_38">
    <path clip-path="url(#p4edf5848b6)" d="M 284.3225 420.228279 
L 362.4425 420.228279 
" style="fill:none;stroke:#8b0000;stroke-linecap:square;"/>
   </g>
   <g id="line2d_39">
    <path clip-path="url(#p4edf5848b6)" d="M 440.5625 494.180123 
L 518.6825 494.180123 
" style="fill:none;stroke:#8b0000;stroke-linecap:square;"/>
   </g>
   <g id="line2d_40">
    <path clip-path="url(#p4edf5848b6)" d="M 596.8025 482.401657 
L 674.9225 482.401657 
" style="fill:none;stroke:#8b0000;stroke-linecap:square;"/>
   </g>
   <g id="line2d_41">
    <path clip-path="url(#p4edf5848b6)" d="M 753.0425 500.802426 
L 831.1625 500.802426 
" style="fill:none;stroke:#8b0000;stroke-linecap:square;"/>
   </g>
   <g id="patch_3">
    <path d="M 89.0225 565.1 
L 89.0225 10.7 
" style="fill:none;stroke:#000000;stroke-linecap:square;stroke-linejoin:miter;stroke-width:0.8;"/>
   </g>
   <g id="patch_4">
    <path d="M 89.0225 565.1 
L 870.2225 565.1 
" style="fill:none;stroke:#000000;stroke-linecap:square;stroke-linejoin:miter;stroke-width:0.8;"/>
   </g>
  </g>
 </g>
 <defs>
  <clipPath id="p4edf5848b6">
   <rect height="554.4" width="781.2" x="89.0225" y="10.7"/>
  </clipPath>
 </defs>
</svg>
