<?xml version="1.0" encoding="utf-8" standalone="no"?>
<!DOCTYPE svg PUBLIC "-//W3C//DTD SVG 1.1//EN"
  "http://www.w3.org/Graphics/SVG/1.1/DTD/svg11.dtd">
<!-- Created with matplotlib (https://matplotlib.org/) -->
<svg height="398.295938pt" version="1.1" viewBox="0 0 498.054489 398.295938" width="498.054489pt" xmlns="http://www.w3.org/2000/svg" xmlns:xlink="http://www.w3.org/1999/xlink">
 <defs>
  <style type="text/css">
*{stroke-linecap:butt;stroke-linejoin:round;}
  </style>
 </defs>
 <g id="figure_1">
  <g id="patch_1">
   <path d="M 0 398.295938 
L 498.054489 398.295938 
L 498.054489 -0 
L 0 -0 
z
" style="fill:none;"/>
  </g>
  <g id="axes_1">
   <g id="patch_2">
    <path d="M 82.42875 324.337188 
L 473.02875 324.337188 
L 473.02875 47.137187 
L 82.42875 47.137187 
z
" style="fill:none;"/>
   </g>
   <g id="matplotlib.axis_1">
    <g id="xtick_1">
     <g id="line2d_1">
      <defs>
       <path d="M 0 0 
L 0 5 
" id="m26e3c66675" style="stroke:#000000;stroke-width:0.8;"/>
      </defs>
      <g>
       <use style="stroke:#000000;stroke-width:0.8;" x="113.499205" xlink:href="#m26e3c66675" y="324.337188"/>
      </g>
     </g>
     <g id="text_1">
      <!-- 0.1 -->
      <defs>
       <path d="M 31.78125 66.40625 
Q 24.171875 66.40625 20.328125 58.90625 
Q 16.5 51.421875 16.5 36.375 
Q 16.5 21.390625 20.328125 13.890625 
Q 24.171875 6.390625 31.78125 6.390625 
Q 39.453125 6.390625 43.28125 13.890625 
Q 47.125 21.390625 47.125 36.375 
Q 47.125 51.421875 43.28125 58.90625 
Q 39.453125 66.40625 31.78125 66.40625 
z
M 31.78125 74.21875 
Q 44.046875 74.21875 50.515625 64.515625 
Q 56.984375 54.828125 56.984375 36.375 
Q 56.984375 17.96875 50.515625 8.265625 
Q 44.046875 -1.421875 31.78125 -1.421875 
Q 19.53125 -1.421875 13.0625 8.265625 
Q 6.59375 17.96875 6.59375 36.375 
Q 6.59375 54.828125 13.0625 64.515625 
Q 19.53125 74.21875 31.78125 74.21875 
z
" id="DejaVuSans-48"/>
       <path d="M 10.6875 12.40625 
L 21 12.40625 
L 21 0 
L 10.6875 0 
z
" id="DejaVuSans-46"/>
       <path d="M 12.40625 8.296875 
L 28.515625 8.296875 
L 28.515625 63.921875 
L 10.984375 60.40625 
L 10.984375 69.390625 
L 28.421875 72.90625 
L 38.28125 72.90625 
L 38.28125 8.296875 
L 54.390625 8.296875 
L 54.390625 0 
L 12.40625 0 
z
" id="DejaVuSans-49"/>
      </defs>
      <g transform="translate(91.23483 354.112813)scale(0.28 -0.28)">
       <use xlink:href="#DejaVuSans-48"/>
       <use x="63.623047" xlink:href="#DejaVuSans-46"/>
       <use x="95.410156" xlink:href="#DejaVuSans-49"/>
      </g>
     </g>
    </g>
    <g id="xtick_2">
     <g id="line2d_2">
      <g>
       <use style="stroke:#000000;stroke-width:0.8;" x="202.271932" xlink:href="#m26e3c66675" y="324.337188"/>
      </g>
     </g>
     <g id="text_2">
      <!-- 0.2 -->
      <defs>
       <path d="M 19.1875 8.296875 
L 53.609375 8.296875 
L 53.609375 0 
L 7.328125 0 
L 7.328125 8.296875 
Q 12.9375 14.109375 22.625 23.890625 
Q 32.328125 33.6875 34.8125 36.53125 
Q 39.546875 41.84375 41.421875 45.53125 
Q 43.3125 49.21875 43.3125 52.78125 
Q 43.3125 58.59375 39.234375 62.25 
Q 35.15625 65.921875 28.609375 65.921875 
Q 23.96875 65.921875 18.8125 64.3125 
Q 13.671875 62.703125 7.8125 59.421875 
L 7.8125 69.390625 
Q 13.765625 71.78125 18.9375 73 
Q 24.125 74.21875 28.421875 74.21875 
Q 39.75 74.21875 46.484375 68.546875 
Q 53.21875 62.890625 53.21875 53.421875 
Q 53.21875 48.921875 51.53125 44.890625 
Q 49.859375 40.875 45.40625 35.40625 
Q 44.1875 33.984375 37.640625 27.21875 
Q 31.109375 20.453125 19.1875 8.296875 
z
" id="DejaVuSans-50"/>
      </defs>
      <g transform="translate(180.007557 354.112813)scale(0.28 -0.28)">
       <use xlink:href="#DejaVuSans-48"/>
       <use x="63.623047" xlink:href="#DejaVuSans-46"/>
       <use x="95.410156" xlink:href="#DejaVuSans-50"/>
      </g>
     </g>
    </g>
    <g id="xtick_3">
     <g id="line2d_3">
      <g>
       <use style="stroke:#000000;stroke-width:0.8;" x="291.044659" xlink:href="#m26e3c66675" y="324.337188"/>
      </g>
     </g>
     <g id="text_3">
      <!-- 0.3 -->
      <defs>
       <path d="M 40.578125 39.3125 
Q 47.65625 37.796875 51.625 33 
Q 55.609375 28.21875 55.609375 21.1875 
Q 55.609375 10.40625 48.1875 4.484375 
Q 40.765625 -1.421875 27.09375 -1.421875 
Q 22.515625 -1.421875 17.65625 -0.515625 
Q 12.796875 0.390625 7.625 2.203125 
L 7.625 11.71875 
Q 11.71875 9.328125 16.59375 8.109375 
Q 21.484375 6.890625 26.8125 6.890625 
Q 36.078125 6.890625 40.9375 10.546875 
Q 45.796875 14.203125 45.796875 21.1875 
Q 45.796875 27.640625 41.28125 31.265625 
Q 36.765625 34.90625 28.71875 34.90625 
L 20.21875 34.90625 
L 20.21875 43.015625 
L 29.109375 43.015625 
Q 36.375 43.015625 40.234375 45.921875 
Q 44.09375 48.828125 44.09375 54.296875 
Q 44.09375 59.90625 40.109375 62.90625 
Q 36.140625 65.921875 28.71875 65.921875 
Q 24.65625 65.921875 20.015625 65.03125 
Q 15.375 64.15625 9.8125 62.3125 
L 9.8125 71.09375 
Q 15.4375 72.65625 20.34375 73.4375 
Q 25.25 74.21875 29.59375 74.21875 
Q 40.828125 74.21875 47.359375 69.109375 
Q 53.90625 64.015625 53.90625 55.328125 
Q 53.90625 49.265625 50.4375 45.09375 
Q 46.96875 40.921875 40.578125 39.3125 
z
" id="DejaVuSans-51"/>
      </defs>
      <g transform="translate(268.780284 354.112813)scale(0.28 -0.28)">
       <use xlink:href="#DejaVuSans-48"/>
       <use x="63.623047" xlink:href="#DejaVuSans-46"/>
       <use x="95.410156" xlink:href="#DejaVuSans-51"/>
      </g>
     </g>
    </g>
    <g id="xtick_4">
     <g id="line2d_4">
      <g>
       <use style="stroke:#000000;stroke-width:0.8;" x="379.817386" xlink:href="#m26e3c66675" y="324.337188"/>
      </g>
     </g>
     <g id="text_4">
      <!-- 0.4 -->
      <defs>
       <path d="M 37.796875 64.3125 
L 12.890625 25.390625 
L 37.796875 25.390625 
z
M 35.203125 72.90625 
L 47.609375 72.90625 
L 47.609375 25.390625 
L 58.015625 25.390625 
L 58.015625 17.1875 
L 47.609375 17.1875 
L 47.609375 0 
L 37.796875 0 
L 37.796875 17.1875 
L 4.890625 17.1875 
L 4.890625 26.703125 
z
" id="DejaVuSans-52"/>
      </defs>
      <g transform="translate(357.553011 354.112813)scale(0.28 -0.28)">
       <use xlink:href="#DejaVuSans-48"/>
       <use x="63.623047" xlink:href="#DejaVuSans-46"/>
       <use x="95.410156" xlink:href="#DejaVuSans-52"/>
      </g>
     </g>
    </g>
    <g id="xtick_5">
     <g id="line2d_5">
      <g>
       <use style="stroke:#000000;stroke-width:0.8;" x="468.590114" xlink:href="#m26e3c66675" y="324.337188"/>
      </g>
     </g>
     <g id="text_5">
      <!-- 0.5 -->
      <defs>
       <path d="M 10.796875 72.90625 
L 49.515625 72.90625 
L 49.515625 64.59375 
L 19.828125 64.59375 
L 19.828125 46.734375 
Q 21.96875 47.46875 24.109375 47.828125 
Q 26.265625 48.1875 28.421875 48.1875 
Q 40.625 48.1875 47.75 41.5 
Q 54.890625 34.8125 54.890625 23.390625 
Q 54.890625 11.625 47.5625 5.09375 
Q 40.234375 -1.421875 26.90625 -1.421875 
Q 22.3125 -1.421875 17.546875 -0.640625 
Q 12.796875 0.140625 7.71875 1.703125 
L 7.71875 11.625 
Q 12.109375 9.234375 16.796875 8.0625 
Q 21.484375 6.890625 26.703125 6.890625 
Q 35.15625 6.890625 40.078125 11.328125 
Q 45.015625 15.765625 45.015625 23.390625 
Q 45.015625 31 40.078125 35.4375 
Q 35.15625 39.890625 26.703125 39.890625 
Q 22.75 39.890625 18.8125 39.015625 
Q 14.890625 38.140625 10.796875 36.28125 
z
" id="DejaVuSans-53"/>
      </defs>
      <g transform="translate(446.325739 354.112813)scale(0.28 -0.28)">
       <use xlink:href="#DejaVuSans-48"/>
       <use x="63.623047" xlink:href="#DejaVuSans-46"/>
       <use x="95.410156" xlink:href="#DejaVuSans-53"/>
      </g>
     </g>
    </g>
    <g id="text_6">
     <!-- Underlying $\Psi$ -->
     <defs>
      <path d="M 8.6875 72.90625 
L 18.609375 72.90625 
L 18.609375 28.609375 
Q 18.609375 16.890625 22.84375 11.734375 
Q 27.09375 6.59375 36.625 6.59375 
Q 46.09375 6.59375 50.34375 11.734375 
Q 54.59375 16.890625 54.59375 28.609375 
L 54.59375 72.90625 
L 64.5 72.90625 
L 64.5 27.390625 
Q 64.5 13.140625 57.4375 5.859375 
Q 50.390625 -1.421875 36.625 -1.421875 
Q 22.796875 -1.421875 15.734375 5.859375 
Q 8.6875 13.140625 8.6875 27.390625 
z
" id="DejaVuSans-85"/>
      <path d="M 54.890625 33.015625 
L 54.890625 0 
L 45.90625 0 
L 45.90625 32.71875 
Q 45.90625 40.484375 42.875 44.328125 
Q 39.84375 48.1875 33.796875 48.1875 
Q 26.515625 48.1875 22.3125 43.546875 
Q 18.109375 38.921875 18.109375 30.90625 
L 18.109375 0 
L 9.078125 0 
L 9.078125 54.6875 
L 18.109375 54.6875 
L 18.109375 46.1875 
Q 21.34375 51.125 25.703125 53.5625 
Q 30.078125 56 35.796875 56 
Q 45.21875 56 50.046875 50.171875 
Q 54.890625 44.34375 54.890625 33.015625 
z
" id="DejaVuSans-110"/>
      <path d="M 45.40625 46.390625 
L 45.40625 75.984375 
L 54.390625 75.984375 
L 54.390625 0 
L 45.40625 0 
L 45.40625 8.203125 
Q 42.578125 3.328125 38.25 0.953125 
Q 33.9375 -1.421875 27.875 -1.421875 
Q 17.96875 -1.421875 11.734375 6.484375 
Q 5.515625 14.40625 5.515625 27.296875 
Q 5.515625 40.1875 11.734375 48.09375 
Q 17.96875 56 27.875 56 
Q 33.9375 56 38.25 53.625 
Q 42.578125 51.265625 45.40625 46.390625 
z
M 14.796875 27.296875 
Q 14.796875 17.390625 18.875 11.75 
Q 22.953125 6.109375 30.078125 6.109375 
Q 37.203125 6.109375 41.296875 11.75 
Q 45.40625 17.390625 45.40625 27.296875 
Q 45.40625 37.203125 41.296875 42.84375 
Q 37.203125 48.484375 30.078125 48.484375 
Q 22.953125 48.484375 18.875 42.84375 
Q 14.796875 37.203125 14.796875 27.296875 
z
" id="DejaVuSans-100"/>
      <path d="M 56.203125 29.59375 
L 56.203125 25.203125 
L 14.890625 25.203125 
Q 15.484375 15.921875 20.484375 11.0625 
Q 25.484375 6.203125 34.421875 6.203125 
Q 39.59375 6.203125 44.453125 7.46875 
Q 49.3125 8.734375 54.109375 11.28125 
L 54.109375 2.78125 
Q 49.265625 0.734375 44.1875 -0.34375 
Q 39.109375 -1.421875 33.890625 -1.421875 
Q 20.796875 -1.421875 13.15625 6.1875 
Q 5.515625 13.8125 5.515625 26.8125 
Q 5.515625 40.234375 12.765625 48.109375 
Q 20.015625 56 32.328125 56 
Q 43.359375 56 49.78125 48.890625 
Q 56.203125 41.796875 56.203125 29.59375 
z
M 47.21875 32.234375 
Q 47.125 39.59375 43.09375 43.984375 
Q 39.0625 48.390625 32.421875 48.390625 
Q 24.90625 48.390625 20.390625 44.140625 
Q 15.875 39.890625 15.1875 32.171875 
z
" id="DejaVuSans-101"/>
      <path d="M 41.109375 46.296875 
Q 39.59375 47.171875 37.8125 47.578125 
Q 36.03125 48 33.890625 48 
Q 26.265625 48 22.1875 43.046875 
Q 18.109375 38.09375 18.109375 28.8125 
L 18.109375 0 
L 9.078125 0 
L 9.078125 54.6875 
L 18.109375 54.6875 
L 18.109375 46.1875 
Q 20.953125 51.171875 25.484375 53.578125 
Q 30.03125 56 36.53125 56 
Q 37.453125 56 38.578125 55.875 
Q 39.703125 55.765625 41.0625 55.515625 
z
" id="DejaVuSans-114"/>
      <path d="M 9.421875 75.984375 
L 18.40625 75.984375 
L 18.40625 0 
L 9.421875 0 
z
" id="DejaVuSans-108"/>
      <path d="M 32.171875 -5.078125 
Q 28.375 -14.84375 24.75 -17.8125 
Q 21.140625 -20.796875 15.09375 -20.796875 
L 7.90625 -20.796875 
L 7.90625 -13.28125 
L 13.1875 -13.28125 
Q 16.890625 -13.28125 18.9375 -11.515625 
Q 21 -9.765625 23.484375 -3.21875 
L 25.09375 0.875 
L 2.984375 54.6875 
L 12.5 54.6875 
L 29.59375 11.921875 
L 46.6875 54.6875 
L 56.203125 54.6875 
z
" id="DejaVuSans-121"/>
      <path d="M 9.421875 54.6875 
L 18.40625 54.6875 
L 18.40625 0 
L 9.421875 0 
z
M 9.421875 75.984375 
L 18.40625 75.984375 
L 18.40625 64.59375 
L 9.421875 64.59375 
z
" id="DejaVuSans-105"/>
      <path d="M 45.40625 27.984375 
Q 45.40625 37.75 41.375 43.109375 
Q 37.359375 48.484375 30.078125 48.484375 
Q 22.859375 48.484375 18.828125 43.109375 
Q 14.796875 37.75 14.796875 27.984375 
Q 14.796875 18.265625 18.828125 12.890625 
Q 22.859375 7.515625 30.078125 7.515625 
Q 37.359375 7.515625 41.375 12.890625 
Q 45.40625 18.265625 45.40625 27.984375 
z
M 54.390625 6.78125 
Q 54.390625 -7.171875 48.1875 -13.984375 
Q 42 -20.796875 29.203125 -20.796875 
Q 24.46875 -20.796875 20.265625 -20.09375 
Q 16.0625 -19.390625 12.109375 -17.921875 
L 12.109375 -9.1875 
Q 16.0625 -11.328125 19.921875 -12.34375 
Q 23.78125 -13.375 27.78125 -13.375 
Q 36.625 -13.375 41.015625 -8.765625 
Q 45.40625 -4.15625 45.40625 5.171875 
L 45.40625 9.625 
Q 42.625 4.78125 38.28125 2.390625 
Q 33.9375 0 27.875 0 
Q 17.828125 0 11.671875 7.65625 
Q 5.515625 15.328125 5.515625 27.984375 
Q 5.515625 40.671875 11.671875 48.328125 
Q 17.828125 56 27.875 56 
Q 33.9375 56 38.28125 53.609375 
Q 42.625 51.21875 45.40625 46.390625 
L 45.40625 54.6875 
L 54.390625 54.6875 
z
" id="DejaVuSans-103"/>
      <path id="DejaVuSans-32"/>
      <path d="M 72.40625 69 
L 72.40625 67.09375 
Q 69.796875 66.59375 68.75 63.34375 
Q 67.703125 60.09375 67.703125 56.703125 
Q 67.703125 55.203125 67.890625 52.203125 
Q 68.09375 49.203125 68.09375 47.703125 
Q 68.09375 40.59375 64.34375 35.796875 
Q 60.59375 31 55 29 
Q 49.40625 27 42.40625 27 
L 42.40625 11.09375 
Q 42.40625 5.296875 44.546875 3.6875 
Q 46.703125 2.09375 52.703125 1.90625 
L 52.703125 0 
L 22.09375 0 
L 22.09375 1.90625 
Q 28.59375 2.203125 30.390625 4.046875 
Q 32.203125 5.90625 32.203125 12.40625 
L 32.203125 27 
Q 25.203125 27 19.59375 29 
Q 14 31 10.25 35.796875 
Q 6.5 40.59375 6.5 47.703125 
Q 6.5 49.203125 6.703125 52.203125 
Q 6.90625 55.203125 6.90625 56.703125 
Q 6.90625 60.09375 5.84375 63.34375 
Q 4.796875 66.59375 2.203125 67.09375 
L 2.203125 69 
Q 17.703125 69 17.703125 50.90625 
Q 17.703125 47.59375 17.890625 45.09375 
Q 18.09375 42.59375 18.9375 39.75 
Q 19.796875 36.90625 21.140625 35.046875 
Q 22.5 33.203125 25.046875 31.953125 
Q 27.59375 30.703125 31.09375 30.703125 
L 32.203125 30.703125 
L 32.203125 56.203125 
Q 32.203125 61.09375 29.75 62.6875 
Q 27.296875 64.296875 22.09375 64.296875 
L 22.09375 66.203125 
L 52.703125 66.203125 
L 52.703125 64.296875 
Q 47.296875 64.296875 44.84375 62.796875 
Q 42.40625 61.296875 42.40625 56.203125 
L 42.40625 30.703125 
L 43.5 30.703125 
Q 47 30.703125 49.546875 31.953125 
Q 52.09375 33.203125 53.4375 35.046875 
Q 54.796875 36.90625 55.640625 39.75 
Q 56.5 42.59375 56.703125 45.09375 
Q 56.90625 47.59375 56.90625 50.90625 
Q 56.90625 69 72.40625 69 
z
" id="STIXGeneral-Regular-936"/>
     </defs>
     <g transform="translate(186.58875 385.215938)scale(0.28 -0.28)">
      <use transform="translate(0 0.015625)" xlink:href="#DejaVuSans-85"/>
      <use transform="translate(73.193359 0.015625)" xlink:href="#DejaVuSans-110"/>
      <use transform="translate(136.572266 0.015625)" xlink:href="#DejaVuSans-100"/>
      <use transform="translate(200.048828 0.015625)" xlink:href="#DejaVuSans-101"/>
      <use transform="translate(261.572266 0.015625)" xlink:href="#DejaVuSans-114"/>
      <use transform="translate(302.685547 0.015625)" xlink:href="#DejaVuSans-108"/>
      <use transform="translate(330.46875 0.015625)" xlink:href="#DejaVuSans-121"/>
      <use transform="translate(389.648438 0.015625)" xlink:href="#DejaVuSans-105"/>
      <use transform="translate(417.431641 0.015625)" xlink:href="#DejaVuSans-110"/>
      <use transform="translate(480.810547 0.015625)" xlink:href="#DejaVuSans-103"/>
      <use transform="translate(544.287109 0.015625)" xlink:href="#DejaVuSans-32"/>
      <use transform="translate(576.074219 0.015625)" xlink:href="#STIXGeneral-Regular-936"/>
     </g>
    </g>
   </g>
   <g id="matplotlib.axis_2">
    <g id="ytick_1">
     <g id="line2d_6">
      <defs>
       <path d="M 0 0 
L -5 0 
" id="m712e9c8eb8" style="stroke:#000000;stroke-width:0.8;"/>
      </defs>
      <g>
       <use style="stroke:#000000;stroke-width:0.8;" x="82.42875" xlink:href="#m712e9c8eb8" y="308.399439"/>
      </g>
     </g>
     <g id="text_7">
      <!-- 5 -->
      <g transform="translate(56.11375 319.037252)scale(0.28 -0.28)">
       <use xlink:href="#DejaVuSans-53"/>
      </g>
     </g>
    </g>
    <g id="ytick_2">
     <g id="line2d_7">
      <g>
       <use style="stroke:#000000;stroke-width:0.8;" x="82.42875" xlink:href="#m712e9c8eb8" y="224.955731"/>
      </g>
     </g>
     <g id="text_8">
      <!-- 10 -->
      <g transform="translate(38.29875 235.593543)scale(0.28 -0.28)">
       <use xlink:href="#DejaVuSans-49"/>
       <use x="63.623047" xlink:href="#DejaVuSans-48"/>
      </g>
     </g>
    </g>
    <g id="ytick_3">
     <g id="line2d_8">
      <g>
       <use style="stroke:#000000;stroke-width:0.8;" x="82.42875" xlink:href="#m712e9c8eb8" y="141.512022"/>
      </g>
     </g>
     <g id="text_9">
      <!-- 15 -->
      <g transform="translate(38.29875 152.149834)scale(0.28 -0.28)">
       <use xlink:href="#DejaVuSans-49"/>
       <use x="63.623047" xlink:href="#DejaVuSans-53"/>
      </g>
     </g>
    </g>
    <g id="ytick_4">
     <g id="line2d_9">
      <g>
       <use style="stroke:#000000;stroke-width:0.8;" x="82.42875" xlink:href="#m712e9c8eb8" y="58.068313"/>
      </g>
     </g>
     <g id="text_10">
      <!-- 20 -->
      <g transform="translate(38.29875 68.706126)scale(0.28 -0.28)">
       <use xlink:href="#DejaVuSans-50"/>
       <use x="63.623047" xlink:href="#DejaVuSans-48"/>
      </g>
     </g>
    </g>
    <g id="text_11">
     <!-- mRNAs at inflection point -->
     <defs>
      <path d="M 52 44.1875 
Q 55.375 50.25 60.0625 53.125 
Q 64.75 56 71.09375 56 
Q 79.640625 56 84.28125 50.015625 
Q 88.921875 44.046875 88.921875 33.015625 
L 88.921875 0 
L 79.890625 0 
L 79.890625 32.71875 
Q 79.890625 40.578125 77.09375 44.375 
Q 74.3125 48.1875 68.609375 48.1875 
Q 61.625 48.1875 57.5625 43.546875 
Q 53.515625 38.921875 53.515625 30.90625 
L 53.515625 0 
L 44.484375 0 
L 44.484375 32.71875 
Q 44.484375 40.625 41.703125 44.40625 
Q 38.921875 48.1875 33.109375 48.1875 
Q 26.21875 48.1875 22.15625 43.53125 
Q 18.109375 38.875 18.109375 30.90625 
L 18.109375 0 
L 9.078125 0 
L 9.078125 54.6875 
L 18.109375 54.6875 
L 18.109375 46.1875 
Q 21.1875 51.21875 25.484375 53.609375 
Q 29.78125 56 35.6875 56 
Q 41.65625 56 45.828125 52.96875 
Q 50 49.953125 52 44.1875 
z
" id="DejaVuSans-109"/>
      <path d="M 44.390625 34.1875 
Q 47.5625 33.109375 50.5625 29.59375 
Q 53.5625 26.078125 56.59375 19.921875 
L 66.609375 0 
L 56 0 
L 46.6875 18.703125 
Q 43.0625 26.03125 39.671875 28.421875 
Q 36.28125 30.8125 30.421875 30.8125 
L 19.671875 30.8125 
L 19.671875 0 
L 9.8125 0 
L 9.8125 72.90625 
L 32.078125 72.90625 
Q 44.578125 72.90625 50.734375 67.671875 
Q 56.890625 62.453125 56.890625 51.90625 
Q 56.890625 45.015625 53.6875 40.46875 
Q 50.484375 35.9375 44.390625 34.1875 
z
M 19.671875 64.796875 
L 19.671875 38.921875 
L 32.078125 38.921875 
Q 39.203125 38.921875 42.84375 42.21875 
Q 46.484375 45.515625 46.484375 51.90625 
Q 46.484375 58.296875 42.84375 61.546875 
Q 39.203125 64.796875 32.078125 64.796875 
z
" id="DejaVuSans-82"/>
      <path d="M 9.8125 72.90625 
L 23.09375 72.90625 
L 55.421875 11.921875 
L 55.421875 72.90625 
L 64.984375 72.90625 
L 64.984375 0 
L 51.703125 0 
L 19.390625 60.984375 
L 19.390625 0 
L 9.8125 0 
z
" id="DejaVuSans-78"/>
      <path d="M 34.1875 63.1875 
L 20.796875 26.90625 
L 47.609375 26.90625 
z
M 28.609375 72.90625 
L 39.796875 72.90625 
L 67.578125 0 
L 57.328125 0 
L 50.6875 18.703125 
L 17.828125 18.703125 
L 11.1875 0 
L 0.78125 0 
z
" id="DejaVuSans-65"/>
      <path d="M 44.28125 53.078125 
L 44.28125 44.578125 
Q 40.484375 46.53125 36.375 47.5 
Q 32.28125 48.484375 27.875 48.484375 
Q 21.1875 48.484375 17.84375 46.4375 
Q 14.5 44.390625 14.5 40.28125 
Q 14.5 37.15625 16.890625 35.375 
Q 19.28125 33.59375 26.515625 31.984375 
L 29.59375 31.296875 
Q 39.15625 29.25 43.1875 25.515625 
Q 47.21875 21.78125 47.21875 15.09375 
Q 47.21875 7.46875 41.1875 3.015625 
Q 35.15625 -1.421875 24.609375 -1.421875 
Q 20.21875 -1.421875 15.453125 -0.5625 
Q 10.6875 0.296875 5.421875 2 
L 5.421875 11.28125 
Q 10.40625 8.6875 15.234375 7.390625 
Q 20.0625 6.109375 24.8125 6.109375 
Q 31.15625 6.109375 34.5625 8.28125 
Q 37.984375 10.453125 37.984375 14.40625 
Q 37.984375 18.0625 35.515625 20.015625 
Q 33.0625 21.96875 24.703125 23.78125 
L 21.578125 24.515625 
Q 13.234375 26.265625 9.515625 29.90625 
Q 5.8125 33.546875 5.8125 39.890625 
Q 5.8125 47.609375 11.28125 51.796875 
Q 16.75 56 26.8125 56 
Q 31.78125 56 36.171875 55.265625 
Q 40.578125 54.546875 44.28125 53.078125 
z
" id="DejaVuSans-115"/>
      <path d="M 34.28125 27.484375 
Q 23.390625 27.484375 19.1875 25 
Q 14.984375 22.515625 14.984375 16.5 
Q 14.984375 11.71875 18.140625 8.90625 
Q 21.296875 6.109375 26.703125 6.109375 
Q 34.1875 6.109375 38.703125 11.40625 
Q 43.21875 16.703125 43.21875 25.484375 
L 43.21875 27.484375 
z
M 52.203125 31.203125 
L 52.203125 0 
L 43.21875 0 
L 43.21875 8.296875 
Q 40.140625 3.328125 35.546875 0.953125 
Q 30.953125 -1.421875 24.3125 -1.421875 
Q 15.921875 -1.421875 10.953125 3.296875 
Q 6 8.015625 6 15.921875 
Q 6 25.140625 12.171875 29.828125 
Q 18.359375 34.515625 30.609375 34.515625 
L 43.21875 34.515625 
L 43.21875 35.40625 
Q 43.21875 41.609375 39.140625 45 
Q 35.0625 48.390625 27.6875 48.390625 
Q 23 48.390625 18.546875 47.265625 
Q 14.109375 46.140625 10.015625 43.890625 
L 10.015625 52.203125 
Q 14.9375 54.109375 19.578125 55.046875 
Q 24.21875 56 28.609375 56 
Q 40.484375 56 46.34375 49.84375 
Q 52.203125 43.703125 52.203125 31.203125 
z
" id="DejaVuSans-97"/>
      <path d="M 18.3125 70.21875 
L 18.3125 54.6875 
L 36.8125 54.6875 
L 36.8125 47.703125 
L 18.3125 47.703125 
L 18.3125 18.015625 
Q 18.3125 11.328125 20.140625 9.421875 
Q 21.96875 7.515625 27.59375 7.515625 
L 36.8125 7.515625 
L 36.8125 0 
L 27.59375 0 
Q 17.1875 0 13.234375 3.875 
Q 9.28125 7.765625 9.28125 18.015625 
L 9.28125 47.703125 
L 2.6875 47.703125 
L 2.6875 54.6875 
L 9.28125 54.6875 
L 9.28125 70.21875 
z
" id="DejaVuSans-116"/>
      <path d="M 37.109375 75.984375 
L 37.109375 68.5 
L 28.515625 68.5 
Q 23.6875 68.5 21.796875 66.546875 
Q 19.921875 64.59375 19.921875 59.515625 
L 19.921875 54.6875 
L 34.71875 54.6875 
L 34.71875 47.703125 
L 19.921875 47.703125 
L 19.921875 0 
L 10.890625 0 
L 10.890625 47.703125 
L 2.296875 47.703125 
L 2.296875 54.6875 
L 10.890625 54.6875 
L 10.890625 58.5 
Q 10.890625 67.625 15.140625 71.796875 
Q 19.390625 75.984375 28.609375 75.984375 
z
" id="DejaVuSans-102"/>
      <path d="M 48.78125 52.59375 
L 48.78125 44.1875 
Q 44.96875 46.296875 41.140625 47.34375 
Q 37.3125 48.390625 33.40625 48.390625 
Q 24.65625 48.390625 19.8125 42.84375 
Q 14.984375 37.3125 14.984375 27.296875 
Q 14.984375 17.28125 19.8125 11.734375 
Q 24.65625 6.203125 33.40625 6.203125 
Q 37.3125 6.203125 41.140625 7.25 
Q 44.96875 8.296875 48.78125 10.40625 
L 48.78125 2.09375 
Q 45.015625 0.34375 40.984375 -0.53125 
Q 36.96875 -1.421875 32.421875 -1.421875 
Q 20.0625 -1.421875 12.78125 6.34375 
Q 5.515625 14.109375 5.515625 27.296875 
Q 5.515625 40.671875 12.859375 48.328125 
Q 20.21875 56 33.015625 56 
Q 37.15625 56 41.109375 55.140625 
Q 45.0625 54.296875 48.78125 52.59375 
z
" id="DejaVuSans-99"/>
      <path d="M 30.609375 48.390625 
Q 23.390625 48.390625 19.1875 42.75 
Q 14.984375 37.109375 14.984375 27.296875 
Q 14.984375 17.484375 19.15625 11.84375 
Q 23.34375 6.203125 30.609375 6.203125 
Q 37.796875 6.203125 41.984375 11.859375 
Q 46.1875 17.53125 46.1875 27.296875 
Q 46.1875 37.015625 41.984375 42.703125 
Q 37.796875 48.390625 30.609375 48.390625 
z
M 30.609375 56 
Q 42.328125 56 49.015625 48.375 
Q 55.71875 40.765625 55.71875 27.296875 
Q 55.71875 13.875 49.015625 6.21875 
Q 42.328125 -1.421875 30.609375 -1.421875 
Q 18.84375 -1.421875 12.171875 6.21875 
Q 5.515625 13.875 5.515625 27.296875 
Q 5.515625 40.765625 12.171875 48.375 
Q 18.84375 56 30.609375 56 
z
" id="DejaVuSans-111"/>
      <path d="M 18.109375 8.203125 
L 18.109375 -20.796875 
L 9.078125 -20.796875 
L 9.078125 54.6875 
L 18.109375 54.6875 
L 18.109375 46.390625 
Q 20.953125 51.265625 25.265625 53.625 
Q 29.59375 56 35.59375 56 
Q 45.5625 56 51.78125 48.09375 
Q 58.015625 40.1875 58.015625 27.296875 
Q 58.015625 14.40625 51.78125 6.484375 
Q 45.5625 -1.421875 35.59375 -1.421875 
Q 29.59375 -1.421875 25.265625 0.953125 
Q 20.953125 3.328125 18.109375 8.203125 
z
M 48.6875 27.296875 
Q 48.6875 37.203125 44.609375 42.84375 
Q 40.53125 48.484375 33.40625 48.484375 
Q 26.265625 48.484375 22.1875 42.84375 
Q 18.109375 37.203125 18.109375 27.296875 
Q 18.109375 17.390625 22.1875 11.75 
Q 26.265625 6.109375 33.40625 6.109375 
Q 40.53125 6.109375 44.609375 11.75 
Q 48.6875 17.390625 48.6875 27.296875 
z
" id="DejaVuSans-112"/>
     </defs>
     <g transform="translate(28.475625 364.274375)rotate(-90)scale(0.28 -0.28)">
      <use xlink:href="#DejaVuSans-109"/>
      <use x="97.412109" xlink:href="#DejaVuSans-82"/>
      <use x="166.894531" xlink:href="#DejaVuSans-78"/>
      <use x="241.699219" xlink:href="#DejaVuSans-65"/>
      <use x="310.107422" xlink:href="#DejaVuSans-115"/>
      <use x="362.207031" xlink:href="#DejaVuSans-32"/>
      <use x="393.994141" xlink:href="#DejaVuSans-97"/>
      <use x="455.273438" xlink:href="#DejaVuSans-116"/>
      <use x="494.482422" xlink:href="#DejaVuSans-32"/>
      <use x="526.269531" xlink:href="#DejaVuSans-105"/>
      <use x="554.052734" xlink:href="#DejaVuSans-110"/>
      <use x="617.431641" xlink:href="#DejaVuSans-102"/>
      <use x="652.636719" xlink:href="#DejaVuSans-108"/>
      <use x="680.419922" xlink:href="#DejaVuSans-101"/>
      <use x="741.943359" xlink:href="#DejaVuSans-99"/>
      <use x="796.923828" xlink:href="#DejaVuSans-116"/>
      <use x="836.132812" xlink:href="#DejaVuSans-105"/>
      <use x="863.916016" xlink:href="#DejaVuSans-111"/>
      <use x="925.097656" xlink:href="#DejaVuSans-110"/>
      <use x="988.476562" xlink:href="#DejaVuSans-32"/>
      <use x="1020.263672" xlink:href="#DejaVuSans-112"/>
      <use x="1083.740234" xlink:href="#DejaVuSans-111"/>
      <use x="1144.921875" xlink:href="#DejaVuSans-105"/>
      <use x="1172.705078" xlink:href="#DejaVuSans-110"/>
      <use x="1236.083984" xlink:href="#DejaVuSans-116"/>
     </g>
    </g>
   </g>
   <g id="line2d_10">
    <path clip-path="url(#pc543ad887e)" d="M 84.648068 84.7703 
L 89.086705 84.7703 
L 89.086705 66.412684 
L 84.648068 66.412684 
L 84.648068 84.7703 
" style="fill:none;stroke:#00008b;stroke-linecap:square;stroke-width:0.5;"/>
   </g>
   <g id="line2d_11">
    <path clip-path="url(#pc543ad887e)" d="M 86.867386 84.7703 
L 86.867386 99.790168 
" style="fill:none;stroke:#00008b;stroke-dasharray:1.85,0.8;stroke-dashoffset:0;stroke-width:0.5;"/>
   </g>
   <g id="line2d_12">
    <path clip-path="url(#pc543ad887e)" d="M 86.867386 66.412684 
L 86.867386 59.737188 
" style="fill:none;stroke:#00008b;stroke-dasharray:1.85,0.8;stroke-dashoffset:0;stroke-width:0.5;"/>
   </g>
   <g id="line2d_13">
    <path clip-path="url(#pc543ad887e)" d="M 85.757727 99.790168 
L 87.977045 99.790168 
" style="fill:none;stroke:#000000;stroke-linecap:square;stroke-width:0.5;"/>
   </g>
   <g id="line2d_14">
    <path clip-path="url(#pc543ad887e)" d="M 85.757727 59.737188 
L 87.977045 59.737188 
" style="fill:none;stroke:#000000;stroke-linecap:square;stroke-width:0.5;"/>
   </g>
   <g id="line2d_15">
    <path clip-path="url(#pc543ad887e)" d="M 93.525341 108.968976 
L 97.963977 108.968976 
L 97.963977 75.591492 
L 93.525341 75.591492 
L 93.525341 108.968976 
" style="fill:none;stroke:#00008b;stroke-linecap:square;stroke-width:0.5;"/>
   </g>
   <g id="line2d_16">
    <path clip-path="url(#pc543ad887e)" d="M 95.744659 108.968976 
L 95.744659 134.836525 
" style="fill:none;stroke:#00008b;stroke-dasharray:1.85,0.8;stroke-dashoffset:0;stroke-width:0.5;"/>
   </g>
   <g id="line2d_17">
    <path clip-path="url(#pc543ad887e)" d="M 95.744659 75.591492 
L 95.744659 59.737188 
" style="fill:none;stroke:#00008b;stroke-dasharray:1.85,0.8;stroke-dashoffset:0;stroke-width:0.5;"/>
   </g>
   <g id="line2d_18">
    <path clip-path="url(#pc543ad887e)" d="M 94.635 134.836525 
L 96.854318 134.836525 
" style="fill:none;stroke:#000000;stroke-linecap:square;stroke-width:0.5;"/>
   </g>
   <g id="line2d_19">
    <path clip-path="url(#pc543ad887e)" d="M 94.635 59.737188 
L 96.854318 59.737188 
" style="fill:none;stroke:#000000;stroke-linecap:square;stroke-width:0.5;"/>
   </g>
   <g id="line2d_20">
    <path clip-path="url(#pc543ad887e)" d="M 102.402614 133.167651 
L 106.84125 133.167651 
L 106.84125 93.949108 
L 102.402614 93.949108 
L 102.402614 133.167651 
" style="fill:none;stroke:#00008b;stroke-linecap:square;stroke-width:0.5;"/>
   </g>
   <g id="line2d_21">
    <path clip-path="url(#pc543ad887e)" d="M 104.621932 133.167651 
L 104.621932 154.863015 
" style="fill:none;stroke:#00008b;stroke-dasharray:1.85,0.8;stroke-dashoffset:0;stroke-width:0.5;"/>
   </g>
   <g id="line2d_22">
    <path clip-path="url(#pc543ad887e)" d="M 104.621932 93.949108 
L 104.621932 61.406062 
" style="fill:none;stroke:#00008b;stroke-dasharray:1.85,0.8;stroke-dashoffset:0;stroke-width:0.5;"/>
   </g>
   <g id="line2d_23">
    <path clip-path="url(#pc543ad887e)" d="M 103.512273 154.863015 
L 105.731591 154.863015 
" style="fill:none;stroke:#000000;stroke-linecap:square;stroke-width:0.5;"/>
   </g>
   <g id="line2d_24">
    <path clip-path="url(#pc543ad887e)" d="M 103.512273 61.406062 
L 105.731591 61.406062 
" style="fill:none;stroke:#000000;stroke-linecap:square;stroke-width:0.5;"/>
   </g>
   <g id="line2d_25">
    <path clip-path="url(#pc543ad887e)" d="M 111.279886 151.942486 
L 115.718523 151.942486 
L 115.718523 116.061691 
L 111.279886 116.061691 
L 111.279886 151.942486 
" style="fill:none;stroke:#00008b;stroke-linecap:square;stroke-width:0.5;"/>
   </g>
   <g id="line2d_26">
    <path clip-path="url(#pc543ad887e)" d="M 113.499205 151.942486 
L 113.499205 183.233876 
" style="fill:none;stroke:#00008b;stroke-dasharray:1.85,0.8;stroke-dashoffset:0;stroke-width:0.5;"/>
   </g>
   <g id="line2d_27">
    <path clip-path="url(#pc543ad887e)" d="M 113.499205 116.061691 
L 113.499205 86.439174 
" style="fill:none;stroke:#00008b;stroke-dasharray:1.85,0.8;stroke-dashoffset:0;stroke-width:0.5;"/>
   </g>
   <g id="line2d_28">
    <path clip-path="url(#pc543ad887e)" d="M 112.389545 183.233876 
L 114.608864 183.233876 
" style="fill:none;stroke:#000000;stroke-linecap:square;stroke-width:0.5;"/>
   </g>
   <g id="line2d_29">
    <path clip-path="url(#pc543ad887e)" d="M 112.389545 86.439174 
L 114.608864 86.439174 
" style="fill:none;stroke:#000000;stroke-linecap:square;stroke-width:0.5;"/>
   </g>
   <g id="line2d_30">
    <path clip-path="url(#pc543ad887e)" d="M 120.157159 175.306724 
L 124.595795 175.306724 
L 124.595795 142.763678 
L 120.157159 142.763678 
L 120.157159 175.306724 
" style="fill:none;stroke:#00008b;stroke-linecap:square;stroke-width:0.5;"/>
   </g>
   <g id="line2d_31">
    <path clip-path="url(#pc543ad887e)" d="M 122.376477 175.306724 
L 122.376477 194.915995 
" style="fill:none;stroke:#00008b;stroke-dasharray:1.85,0.8;stroke-dashoffset:0;stroke-width:0.5;"/>
   </g>
   <g id="line2d_32">
    <path clip-path="url(#pc543ad887e)" d="M 122.376477 142.763678 
L 122.376477 119.816658 
" style="fill:none;stroke:#00008b;stroke-dasharray:1.85,0.8;stroke-dashoffset:0;stroke-width:0.5;"/>
   </g>
   <g id="line2d_33">
    <path clip-path="url(#pc543ad887e)" d="M 121.266818 194.915995 
L 123.486136 194.915995 
" style="fill:none;stroke:#000000;stroke-linecap:square;stroke-width:0.5;"/>
   </g>
   <g id="line2d_34">
    <path clip-path="url(#pc543ad887e)" d="M 121.266818 119.816658 
L 123.486136 119.816658 
" style="fill:none;stroke:#000000;stroke-linecap:square;stroke-width:0.5;"/>
   </g>
   <g id="line2d_35">
    <path clip-path="url(#pc543ad887e)" d="M 129.034432 192.412684 
L 133.473068 192.412684 
L 133.473068 160.704075 
L 129.034432 160.704075 
L 129.034432 192.412684 
" style="fill:none;stroke:#00008b;stroke-linecap:square;stroke-width:0.5;"/>
   </g>
   <g id="line2d_36">
    <path clip-path="url(#pc543ad887e)" d="M 131.25375 192.412684 
L 131.25375 214.942486 
" style="fill:none;stroke:#00008b;stroke-dasharray:1.85,0.8;stroke-dashoffset:0;stroke-width:0.5;"/>
   </g>
   <g id="line2d_37">
    <path clip-path="url(#pc543ad887e)" d="M 131.25375 160.704075 
L 131.25375 129.829903 
" style="fill:none;stroke:#00008b;stroke-dasharray:1.85,0.8;stroke-dashoffset:0;stroke-width:0.5;"/>
   </g>
   <g id="line2d_38">
    <path clip-path="url(#pc543ad887e)" d="M 130.144091 214.942486 
L 132.363409 214.942486 
" style="fill:none;stroke:#000000;stroke-linecap:square;stroke-width:0.5;"/>
   </g>
   <g id="line2d_39">
    <path clip-path="url(#pc543ad887e)" d="M 130.144091 129.829903 
L 132.363409 129.829903 
" style="fill:none;stroke:#000000;stroke-linecap:square;stroke-width:0.5;"/>
   </g>
   <g id="line2d_40">
    <path clip-path="url(#pc543ad887e)" d="M 137.911705 202.843148 
L 142.350341 202.843148 
L 142.350341 173.63785 
L 137.911705 173.63785 
L 137.911705 202.843148 
" style="fill:none;stroke:#00008b;stroke-linecap:square;stroke-width:0.5;"/>
   </g>
   <g id="line2d_41">
    <path clip-path="url(#pc543ad887e)" d="M 140.131023 202.843148 
L 140.131023 221.617982 
" style="fill:none;stroke:#00008b;stroke-dasharray:1.85,0.8;stroke-dashoffset:0;stroke-width:0.5;"/>
   </g>
   <g id="line2d_42">
    <path clip-path="url(#pc543ad887e)" d="M 140.131023 173.63785 
L 140.131023 151.525267 
" style="fill:none;stroke:#00008b;stroke-dasharray:1.85,0.8;stroke-dashoffset:0;stroke-width:0.5;"/>
   </g>
   <g id="line2d_43">
    <path clip-path="url(#pc543ad887e)" d="M 139.021364 221.617982 
L 141.240682 221.617982 
" style="fill:none;stroke:#000000;stroke-linecap:square;stroke-width:0.5;"/>
   </g>
   <g id="line2d_44">
    <path clip-path="url(#pc543ad887e)" d="M 139.021364 151.525267 
L 141.240682 151.525267 
" style="fill:none;stroke:#000000;stroke-linecap:square;stroke-width:0.5;"/>
   </g>
   <g id="line2d_45">
    <path clip-path="url(#pc543ad887e)" d="M 146.788977 216.61136 
L 151.227614 216.61136 
L 151.227614 183.233876 
L 146.788977 183.233876 
L 146.788977 216.61136 
" style="fill:none;stroke:#00008b;stroke-linecap:square;stroke-width:0.5;"/>
   </g>
   <g id="line2d_46">
    <path clip-path="url(#pc543ad887e)" d="M 149.008295 216.61136 
L 149.008295 246.651095 
" style="fill:none;stroke:#00008b;stroke-dasharray:1.85,0.8;stroke-dashoffset:0;stroke-width:0.5;"/>
   </g>
   <g id="line2d_47">
    <path clip-path="url(#pc543ad887e)" d="M 149.008295 183.233876 
L 149.008295 148.187519 
" style="fill:none;stroke:#00008b;stroke-dasharray:1.85,0.8;stroke-dashoffset:0;stroke-width:0.5;"/>
   </g>
   <g id="line2d_48">
    <path clip-path="url(#pc543ad887e)" d="M 147.898636 246.651095 
L 150.117955 246.651095 
" style="fill:none;stroke:#000000;stroke-linecap:square;stroke-width:0.5;"/>
   </g>
   <g id="line2d_49">
    <path clip-path="url(#pc543ad887e)" d="M 147.898636 148.187519 
L 150.117955 148.187519 
" style="fill:none;stroke:#000000;stroke-linecap:square;stroke-width:0.5;"/>
   </g>
   <g id="line2d_50">
    <path clip-path="url(#pc543ad887e)" d="M 155.66625 223.704075 
L 160.104886 223.704075 
L 160.104886 194.498777 
L 155.66625 194.498777 
L 155.66625 223.704075 
" style="fill:none;stroke:#00008b;stroke-linecap:square;stroke-width:0.5;"/>
   </g>
   <g id="line2d_51">
    <path clip-path="url(#pc543ad887e)" d="M 157.885568 223.704075 
L 157.885568 241.644472 
" style="fill:none;stroke:#00008b;stroke-dasharray:1.85,0.8;stroke-dashoffset:0;stroke-width:0.5;"/>
   </g>
   <g id="line2d_52">
    <path clip-path="url(#pc543ad887e)" d="M 157.885568 194.498777 
L 157.885568 171.551757 
" style="fill:none;stroke:#00008b;stroke-dasharray:1.85,0.8;stroke-dashoffset:0;stroke-width:0.5;"/>
   </g>
   <g id="line2d_53">
    <path clip-path="url(#pc543ad887e)" d="M 156.775909 241.644472 
L 158.995227 241.644472 
" style="fill:none;stroke:#000000;stroke-linecap:square;stroke-width:0.5;"/>
   </g>
   <g id="line2d_54">
    <path clip-path="url(#pc543ad887e)" d="M 156.775909 171.551757 
L 158.995227 171.551757 
" style="fill:none;stroke:#000000;stroke-linecap:square;stroke-width:0.5;"/>
   </g>
   <g id="line2d_55">
    <path clip-path="url(#pc543ad887e)" d="M 164.543523 237.055068 
L 168.982159 237.055068 
L 168.982159 214.525267 
L 164.543523 214.525267 
L 164.543523 237.055068 
" style="fill:none;stroke:#00008b;stroke-linecap:square;stroke-width:0.5;"/>
   </g>
   <g id="line2d_56">
    <path clip-path="url(#pc543ad887e)" d="M 166.762841 237.055068 
L 166.762841 258.333214 
" style="fill:none;stroke:#00008b;stroke-dasharray:1.85,0.8;stroke-dashoffset:0;stroke-width:0.5;"/>
   </g>
   <g id="line2d_57">
    <path clip-path="url(#pc543ad887e)" d="M 166.762841 214.525267 
L 166.762841 194.915995 
" style="fill:none;stroke:#00008b;stroke-dasharray:1.85,0.8;stroke-dashoffset:0;stroke-width:0.5;"/>
   </g>
   <g id="line2d_58">
    <path clip-path="url(#pc543ad887e)" d="M 165.653182 258.333214 
L 167.8725 258.333214 
" style="fill:none;stroke:#000000;stroke-linecap:square;stroke-width:0.5;"/>
   </g>
   <g id="line2d_59">
    <path clip-path="url(#pc543ad887e)" d="M 165.653182 194.915995 
L 167.8725 194.915995 
" style="fill:none;stroke:#000000;stroke-linecap:square;stroke-width:0.5;"/>
   </g>
   <g id="line2d_60">
    <path clip-path="url(#pc543ad887e)" d="M 173.420795 241.644472 
L 177.859432 241.644472 
L 177.859432 215.776923 
L 173.420795 215.776923 
L 173.420795 241.644472 
" style="fill:none;stroke:#00008b;stroke-linecap:square;stroke-width:0.5;"/>
   </g>
   <g id="line2d_61">
    <path clip-path="url(#pc543ad887e)" d="M 175.640114 241.644472 
L 175.640114 256.66434 
" style="fill:none;stroke:#00008b;stroke-dasharray:1.85,0.8;stroke-dashoffset:0;stroke-width:0.5;"/>
   </g>
   <g id="line2d_62">
    <path clip-path="url(#pc543ad887e)" d="M 175.640114 215.776923 
L 175.640114 201.591492 
" style="fill:none;stroke:#00008b;stroke-dasharray:1.85,0.8;stroke-dashoffset:0;stroke-width:0.5;"/>
   </g>
   <g id="line2d_63">
    <path clip-path="url(#pc543ad887e)" d="M 174.530455 256.66434 
L 176.749773 256.66434 
" style="fill:none;stroke:#000000;stroke-linecap:square;stroke-width:0.5;"/>
   </g>
   <g id="line2d_64">
    <path clip-path="url(#pc543ad887e)" d="M 174.530455 201.591492 
L 176.749773 201.591492 
" style="fill:none;stroke:#000000;stroke-linecap:square;stroke-width:0.5;"/>
   </g>
   <g id="line2d_65">
    <path clip-path="url(#pc543ad887e)" d="M 182.298068 245.399439 
L 186.736705 245.399439 
L 186.736705 222.869638 
L 182.298068 222.869638 
L 182.298068 245.399439 
" style="fill:none;stroke:#00008b;stroke-linecap:square;stroke-width:0.5;"/>
   </g>
   <g id="line2d_66">
    <path clip-path="url(#pc543ad887e)" d="M 184.517386 245.399439 
L 184.517386 266.677585 
" style="fill:none;stroke:#00008b;stroke-dasharray:1.85,0.8;stroke-dashoffset:0;stroke-width:0.5;"/>
   </g>
   <g id="line2d_67">
    <path clip-path="url(#pc543ad887e)" d="M 184.517386 222.869638 
L 184.517386 194.915995 
" style="fill:none;stroke:#00008b;stroke-dasharray:1.85,0.8;stroke-dashoffset:0;stroke-width:0.5;"/>
   </g>
   <g id="line2d_68">
    <path clip-path="url(#pc543ad887e)" d="M 183.407727 266.677585 
L 185.627045 266.677585 
" style="fill:none;stroke:#000000;stroke-linecap:square;stroke-width:0.5;"/>
   </g>
   <g id="line2d_69">
    <path clip-path="url(#pc543ad887e)" d="M 183.407727 194.915995 
L 185.627045 194.915995 
" style="fill:none;stroke:#000000;stroke-linecap:square;stroke-width:0.5;"/>
   </g>
   <g id="line2d_70">
    <path clip-path="url(#pc543ad887e)" d="M 191.175341 254.578247 
L 195.613977 254.578247 
L 195.613977 233.71732 
L 191.175341 233.71732 
L 191.175341 254.578247 
" style="fill:none;stroke:#00008b;stroke-linecap:square;stroke-width:0.5;"/>
   </g>
   <g id="line2d_71">
    <path clip-path="url(#pc543ad887e)" d="M 193.394659 254.578247 
L 193.394659 270.015333 
" style="fill:none;stroke:#00008b;stroke-dasharray:1.85,0.8;stroke-dashoffset:0;stroke-width:0.5;"/>
   </g>
   <g id="line2d_72">
    <path clip-path="url(#pc543ad887e)" d="M 193.394659 233.71732 
L 193.394659 219.949108 
" style="fill:none;stroke:#00008b;stroke-dasharray:1.85,0.8;stroke-dashoffset:0;stroke-width:0.5;"/>
   </g>
   <g id="line2d_73">
    <path clip-path="url(#pc543ad887e)" d="M 192.285 270.015333 
L 194.504318 270.015333 
" style="fill:none;stroke:#000000;stroke-linecap:square;stroke-width:0.5;"/>
   </g>
   <g id="line2d_74">
    <path clip-path="url(#pc543ad887e)" d="M 192.285 219.949108 
L 194.504318 219.949108 
" style="fill:none;stroke:#000000;stroke-linecap:square;stroke-width:0.5;"/>
   </g>
   <g id="line2d_75">
    <path clip-path="url(#pc543ad887e)" d="M 200.052614 254.161029 
L 204.49125 254.161029 
L 204.49125 230.79679 
L 200.052614 230.79679 
L 200.052614 254.161029 
" style="fill:none;stroke:#00008b;stroke-linecap:square;stroke-width:0.5;"/>
   </g>
   <g id="line2d_76">
    <path clip-path="url(#pc543ad887e)" d="M 202.271932 254.161029 
L 202.271932 268.346459 
" style="fill:none;stroke:#00008b;stroke-dasharray:1.85,0.8;stroke-dashoffset:0;stroke-width:0.5;"/>
   </g>
   <g id="line2d_77">
    <path clip-path="url(#pc543ad887e)" d="M 202.271932 230.79679 
L 202.271932 204.92924 
" style="fill:none;stroke:#00008b;stroke-dasharray:1.85,0.8;stroke-dashoffset:0;stroke-width:0.5;"/>
   </g>
   <g id="line2d_78">
    <path clip-path="url(#pc543ad887e)" d="M 201.162273 268.346459 
L 203.381591 268.346459 
" style="fill:none;stroke:#000000;stroke-linecap:square;stroke-width:0.5;"/>
   </g>
   <g id="line2d_79">
    <path clip-path="url(#pc543ad887e)" d="M 201.162273 204.92924 
L 203.381591 204.92924 
" style="fill:none;stroke:#000000;stroke-linecap:square;stroke-width:0.5;"/>
   </g>
   <g id="line2d_80">
    <path clip-path="url(#pc543ad887e)" d="M 208.929886 264.174274 
L 213.368523 264.174274 
L 213.368523 245.816658 
L 208.929886 245.816658 
L 208.929886 264.174274 
" style="fill:none;stroke:#00008b;stroke-linecap:square;stroke-width:0.5;"/>
   </g>
   <g id="line2d_81">
    <path clip-path="url(#pc543ad887e)" d="M 211.149205 264.174274 
L 211.149205 273.353082 
" style="fill:none;stroke:#00008b;stroke-dasharray:1.85,0.8;stroke-dashoffset:0;stroke-width:0.5;"/>
   </g>
   <g id="line2d_82">
    <path clip-path="url(#pc543ad887e)" d="M 211.149205 245.816658 
L 211.149205 233.300101 
" style="fill:none;stroke:#00008b;stroke-dasharray:1.85,0.8;stroke-dashoffset:0;stroke-width:0.5;"/>
   </g>
   <g id="line2d_83">
    <path clip-path="url(#pc543ad887e)" d="M 210.039545 273.353082 
L 212.258864 273.353082 
" style="fill:none;stroke:#000000;stroke-linecap:square;stroke-width:0.5;"/>
   </g>
   <g id="line2d_84">
    <path clip-path="url(#pc543ad887e)" d="M 210.039545 233.300101 
L 212.258864 233.300101 
" style="fill:none;stroke:#000000;stroke-linecap:square;stroke-width:0.5;"/>
   </g>
   <g id="line2d_85">
    <path clip-path="url(#pc543ad887e)" d="M 217.807159 263.757055 
L 222.245795 263.757055 
L 222.245795 247.90275 
L 217.807159 247.90275 
L 217.807159 263.757055 
" style="fill:none;stroke:#00008b;stroke-linecap:square;stroke-width:0.5;"/>
   </g>
   <g id="line2d_86">
    <path clip-path="url(#pc543ad887e)" d="M 220.026477 263.757055 
L 220.026477 271.684207 
" style="fill:none;stroke:#00008b;stroke-dasharray:1.85,0.8;stroke-dashoffset:0;stroke-width:0.5;"/>
   </g>
   <g id="line2d_87">
    <path clip-path="url(#pc543ad887e)" d="M 220.026477 247.90275 
L 220.026477 238.306724 
" style="fill:none;stroke:#00008b;stroke-dasharray:1.85,0.8;stroke-dashoffset:0;stroke-width:0.5;"/>
   </g>
   <g id="line2d_88">
    <path clip-path="url(#pc543ad887e)" d="M 218.916818 271.684207 
L 221.136136 271.684207 
" style="fill:none;stroke:#000000;stroke-linecap:square;stroke-width:0.5;"/>
   </g>
   <g id="line2d_89">
    <path clip-path="url(#pc543ad887e)" d="M 218.916818 238.306724 
L 221.136136 238.306724 
" style="fill:none;stroke:#000000;stroke-linecap:square;stroke-width:0.5;"/>
   </g>
   <g id="line2d_90">
    <path clip-path="url(#pc543ad887e)" d="M 226.684432 273.353082 
L 231.123068 273.353082 
L 231.123068 249.988843 
L 226.684432 249.988843 
L 226.684432 273.353082 
" style="fill:none;stroke:#00008b;stroke-linecap:square;stroke-width:0.5;"/>
   </g>
   <g id="line2d_91">
    <path clip-path="url(#pc543ad887e)" d="M 228.90375 273.353082 
L 228.90375 295.048446 
" style="fill:none;stroke:#00008b;stroke-dasharray:1.85,0.8;stroke-dashoffset:0;stroke-width:0.5;"/>
   </g>
   <g id="line2d_92">
    <path clip-path="url(#pc543ad887e)" d="M 228.90375 249.988843 
L 228.90375 238.306724 
" style="fill:none;stroke:#00008b;stroke-dasharray:1.85,0.8;stroke-dashoffset:0;stroke-width:0.5;"/>
   </g>
   <g id="line2d_93">
    <path clip-path="url(#pc543ad887e)" d="M 227.794091 295.048446 
L 230.013409 295.048446 
" style="fill:none;stroke:#000000;stroke-linecap:square;stroke-width:0.5;"/>
   </g>
   <g id="line2d_94">
    <path clip-path="url(#pc543ad887e)" d="M 227.794091 238.306724 
L 230.013409 238.306724 
" style="fill:none;stroke:#000000;stroke-linecap:square;stroke-width:0.5;"/>
   </g>
   <g id="line2d_95">
    <path clip-path="url(#pc543ad887e)" d="M 235.561705 271.684207 
L 240.000341 271.684207 
L 240.000341 254.995466 
L 235.561705 254.995466 
L 235.561705 271.684207 
" style="fill:none;stroke:#00008b;stroke-linecap:square;stroke-width:0.5;"/>
   </g>
   <g id="line2d_96">
    <path clip-path="url(#pc543ad887e)" d="M 237.781023 271.684207 
L 237.781023 285.035201 
" style="fill:none;stroke:#00008b;stroke-dasharray:1.85,0.8;stroke-dashoffset:0;stroke-width:0.5;"/>
   </g>
   <g id="line2d_97">
    <path clip-path="url(#pc543ad887e)" d="M 237.781023 254.995466 
L 237.781023 243.313346 
" style="fill:none;stroke:#00008b;stroke-dasharray:1.85,0.8;stroke-dashoffset:0;stroke-width:0.5;"/>
   </g>
   <g id="line2d_98">
    <path clip-path="url(#pc543ad887e)" d="M 236.671364 285.035201 
L 238.890682 285.035201 
" style="fill:none;stroke:#000000;stroke-linecap:square;stroke-width:0.5;"/>
   </g>
   <g id="line2d_99">
    <path clip-path="url(#pc543ad887e)" d="M 236.671364 243.313346 
L 238.890682 243.313346 
" style="fill:none;stroke:#000000;stroke-linecap:square;stroke-width:0.5;"/>
   </g>
   <g id="line2d_100">
    <path clip-path="url(#pc543ad887e)" d="M 244.438977 275.021956 
L 248.877614 275.021956 
L 248.877614 258.333214 
L 244.438977 258.333214 
L 244.438977 275.021956 
" style="fill:none;stroke:#00008b;stroke-linecap:square;stroke-width:0.5;"/>
   </g>
   <g id="line2d_101">
    <path clip-path="url(#pc543ad887e)" d="M 246.658295 275.021956 
L 246.658295 286.704075 
" style="fill:none;stroke:#00008b;stroke-dasharray:1.85,0.8;stroke-dashoffset:0;stroke-width:0.5;"/>
   </g>
   <g id="line2d_102">
    <path clip-path="url(#pc543ad887e)" d="M 246.658295 258.333214 
L 246.658295 241.644472 
" style="fill:none;stroke:#00008b;stroke-dasharray:1.85,0.8;stroke-dashoffset:0;stroke-width:0.5;"/>
   </g>
   <g id="line2d_103">
    <path clip-path="url(#pc543ad887e)" d="M 245.548636 286.704075 
L 247.767955 286.704075 
" style="fill:none;stroke:#000000;stroke-linecap:square;stroke-width:0.5;"/>
   </g>
   <g id="line2d_104">
    <path clip-path="url(#pc543ad887e)" d="M 245.548636 241.644472 
L 247.767955 241.644472 
" style="fill:none;stroke:#000000;stroke-linecap:square;stroke-width:0.5;"/>
   </g>
   <g id="line2d_105">
    <path clip-path="url(#pc543ad887e)" d="M 253.31625 278.776923 
L 257.754886 278.776923 
L 257.754886 262.922618 
L 253.31625 262.922618 
L 253.31625 278.776923 
" style="fill:none;stroke:#00008b;stroke-linecap:square;stroke-width:0.5;"/>
   </g>
   <g id="line2d_106">
    <path clip-path="url(#pc543ad887e)" d="M 255.535568 278.776923 
L 255.535568 290.041823 
" style="fill:none;stroke:#00008b;stroke-dasharray:1.85,0.8;stroke-dashoffset:0;stroke-width:0.5;"/>
   </g>
   <g id="line2d_107">
    <path clip-path="url(#pc543ad887e)" d="M 255.535568 262.922618 
L 255.535568 251.657717 
" style="fill:none;stroke:#00008b;stroke-dasharray:1.85,0.8;stroke-dashoffset:0;stroke-width:0.5;"/>
   </g>
   <g id="line2d_108">
    <path clip-path="url(#pc543ad887e)" d="M 254.425909 290.041823 
L 256.645227 290.041823 
" style="fill:none;stroke:#000000;stroke-linecap:square;stroke-width:0.5;"/>
   </g>
   <g id="line2d_109">
    <path clip-path="url(#pc543ad887e)" d="M 254.425909 251.657717 
L 256.645227 251.657717 
" style="fill:none;stroke:#000000;stroke-linecap:square;stroke-width:0.5;"/>
   </g>
   <g id="line2d_110">
    <path clip-path="url(#pc543ad887e)" d="M 262.193523 282.114671 
L 266.632159 282.114671 
L 266.632159 266.260366 
L 262.193523 266.260366 
L 262.193523 282.114671 
" style="fill:none;stroke:#00008b;stroke-linecap:square;stroke-width:0.5;"/>
   </g>
   <g id="line2d_111">
    <path clip-path="url(#pc543ad887e)" d="M 264.412841 282.114671 
L 264.412841 295.048446 
" style="fill:none;stroke:#00008b;stroke-dasharray:1.85,0.8;stroke-dashoffset:0;stroke-width:0.5;"/>
   </g>
   <g id="line2d_112">
    <path clip-path="url(#pc543ad887e)" d="M 264.412841 266.260366 
L 264.412841 244.982221 
" style="fill:none;stroke:#00008b;stroke-dasharray:1.85,0.8;stroke-dashoffset:0;stroke-width:0.5;"/>
   </g>
   <g id="line2d_113">
    <path clip-path="url(#pc543ad887e)" d="M 263.303182 295.048446 
L 265.5225 295.048446 
" style="fill:none;stroke:#000000;stroke-linecap:square;stroke-width:0.5;"/>
   </g>
   <g id="line2d_114">
    <path clip-path="url(#pc543ad887e)" d="M 263.303182 244.982221 
L 265.5225 244.982221 
" style="fill:none;stroke:#000000;stroke-linecap:square;stroke-width:0.5;"/>
   </g>
   <g id="line2d_115">
    <path clip-path="url(#pc543ad887e)" d="M 271.070795 286.704075 
L 275.509432 286.704075 
L 275.509432 270.015333 
L 271.070795 270.015333 
L 271.070795 286.704075 
" style="fill:none;stroke:#00008b;stroke-linecap:square;stroke-width:0.5;"/>
   </g>
   <g id="line2d_116">
    <path clip-path="url(#pc543ad887e)" d="M 273.290114 286.704075 
L 273.290114 301.723942 
" style="fill:none;stroke:#00008b;stroke-dasharray:1.85,0.8;stroke-dashoffset:0;stroke-width:0.5;"/>
   </g>
   <g id="line2d_117">
    <path clip-path="url(#pc543ad887e)" d="M 273.290114 270.015333 
L 273.290114 256.66434 
" style="fill:none;stroke:#00008b;stroke-dasharray:1.85,0.8;stroke-dashoffset:0;stroke-width:0.5;"/>
   </g>
   <g id="line2d_118">
    <path clip-path="url(#pc543ad887e)" d="M 272.180455 301.723942 
L 274.399773 301.723942 
" style="fill:none;stroke:#000000;stroke-linecap:square;stroke-width:0.5;"/>
   </g>
   <g id="line2d_119">
    <path clip-path="url(#pc543ad887e)" d="M 272.180455 256.66434 
L 274.399773 256.66434 
" style="fill:none;stroke:#000000;stroke-linecap:square;stroke-width:0.5;"/>
   </g>
   <g id="line2d_120">
    <path clip-path="url(#pc543ad887e)" d="M 279.948068 285.869638 
L 284.386705 285.869638 
L 284.386705 274.187519 
L 279.948068 274.187519 
L 279.948068 285.869638 
" style="fill:none;stroke:#00008b;stroke-linecap:square;stroke-width:0.5;"/>
   </g>
   <g id="line2d_121">
    <path clip-path="url(#pc543ad887e)" d="M 282.167386 285.869638 
L 282.167386 295.048446 
" style="fill:none;stroke:#00008b;stroke-dasharray:1.85,0.8;stroke-dashoffset:0;stroke-width:0.5;"/>
   </g>
   <g id="line2d_122">
    <path clip-path="url(#pc543ad887e)" d="M 282.167386 274.187519 
L 282.167386 265.008711 
" style="fill:none;stroke:#00008b;stroke-dasharray:1.85,0.8;stroke-dashoffset:0;stroke-width:0.5;"/>
   </g>
   <g id="line2d_123">
    <path clip-path="url(#pc543ad887e)" d="M 281.057727 295.048446 
L 283.277045 295.048446 
" style="fill:none;stroke:#000000;stroke-linecap:square;stroke-width:0.5;"/>
   </g>
   <g id="line2d_124">
    <path clip-path="url(#pc543ad887e)" d="M 281.057727 265.008711 
L 283.277045 265.008711 
" style="fill:none;stroke:#000000;stroke-linecap:square;stroke-width:0.5;"/>
   </g>
   <g id="line2d_125">
    <path clip-path="url(#pc543ad887e)" d="M 288.825341 289.207386 
L 293.263977 289.207386 
L 293.263977 272.518644 
L 288.825341 272.518644 
L 288.825341 289.207386 
" style="fill:none;stroke:#00008b;stroke-linecap:square;stroke-width:0.5;"/>
   </g>
   <g id="line2d_126">
    <path clip-path="url(#pc543ad887e)" d="M 291.044659 289.207386 
L 291.044659 298.386194 
" style="fill:none;stroke:#00008b;stroke-dasharray:1.85,0.8;stroke-dashoffset:0;stroke-width:0.5;"/>
   </g>
   <g id="line2d_127">
    <path clip-path="url(#pc543ad887e)" d="M 291.044659 272.518644 
L 291.044659 263.339837 
" style="fill:none;stroke:#00008b;stroke-dasharray:1.85,0.8;stroke-dashoffset:0;stroke-width:0.5;"/>
   </g>
   <g id="line2d_128">
    <path clip-path="url(#pc543ad887e)" d="M 289.935 298.386194 
L 292.154318 298.386194 
" style="fill:none;stroke:#000000;stroke-linecap:square;stroke-width:0.5;"/>
   </g>
   <g id="line2d_129">
    <path clip-path="url(#pc543ad887e)" d="M 289.935 263.339837 
L 292.154318 263.339837 
" style="fill:none;stroke:#000000;stroke-linecap:square;stroke-width:0.5;"/>
   </g>
   <g id="line2d_130">
    <path clip-path="url(#pc543ad887e)" d="M 297.702614 289.624605 
L 302.14125 289.624605 
L 302.14125 275.439174 
L 297.702614 275.439174 
L 297.702614 289.624605 
" style="fill:none;stroke:#00008b;stroke-linecap:square;stroke-width:0.5;"/>
   </g>
   <g id="line2d_131">
    <path clip-path="url(#pc543ad887e)" d="M 299.921932 289.624605 
L 299.921932 298.386194 
" style="fill:none;stroke:#00008b;stroke-dasharray:1.85,0.8;stroke-dashoffset:0;stroke-width:0.5;"/>
   </g>
   <g id="line2d_132">
    <path clip-path="url(#pc543ad887e)" d="M 299.921932 275.439174 
L 299.921932 261.670962 
" style="fill:none;stroke:#00008b;stroke-dasharray:1.85,0.8;stroke-dashoffset:0;stroke-width:0.5;"/>
   </g>
   <g id="line2d_133">
    <path clip-path="url(#pc543ad887e)" d="M 298.812273 298.386194 
L 301.031591 298.386194 
" style="fill:none;stroke:#000000;stroke-linecap:square;stroke-width:0.5;"/>
   </g>
   <g id="line2d_134">
    <path clip-path="url(#pc543ad887e)" d="M 298.812273 261.670962 
L 301.031591 261.670962 
" style="fill:none;stroke:#000000;stroke-linecap:square;stroke-width:0.5;"/>
   </g>
   <g id="line2d_135">
    <path clip-path="url(#pc543ad887e)" d="M 306.579886 290.87626 
L 311.018523 290.87626 
L 311.018523 275.856393 
L 306.579886 275.856393 
L 306.579886 290.87626 
" style="fill:none;stroke:#00008b;stroke-linecap:square;stroke-width:0.5;"/>
   </g>
   <g id="line2d_136">
    <path clip-path="url(#pc543ad887e)" d="M 308.799205 290.87626 
L 308.799205 303.392817 
" style="fill:none;stroke:#00008b;stroke-dasharray:1.85,0.8;stroke-dashoffset:0;stroke-width:0.5;"/>
   </g>
   <g id="line2d_137">
    <path clip-path="url(#pc543ad887e)" d="M 308.799205 275.856393 
L 308.799205 254.995466 
" style="fill:none;stroke:#00008b;stroke-dasharray:1.85,0.8;stroke-dashoffset:0;stroke-width:0.5;"/>
   </g>
   <g id="line2d_138">
    <path clip-path="url(#pc543ad887e)" d="M 307.689545 303.392817 
L 309.908864 303.392817 
" style="fill:none;stroke:#000000;stroke-linecap:square;stroke-width:0.5;"/>
   </g>
   <g id="line2d_139">
    <path clip-path="url(#pc543ad887e)" d="M 307.689545 254.995466 
L 309.908864 254.995466 
" style="fill:none;stroke:#000000;stroke-linecap:square;stroke-width:0.5;"/>
   </g>
   <g id="line2d_140">
    <path clip-path="url(#pc543ad887e)" d="M 315.457159 292.545135 
L 319.895795 292.545135 
L 319.895795 277.525267 
L 315.457159 277.525267 
L 315.457159 292.545135 
" style="fill:none;stroke:#00008b;stroke-linecap:square;stroke-width:0.5;"/>
   </g>
   <g id="line2d_141">
    <path clip-path="url(#pc543ad887e)" d="M 317.676477 292.545135 
L 317.676477 303.392817 
" style="fill:none;stroke:#00008b;stroke-dasharray:1.85,0.8;stroke-dashoffset:0;stroke-width:0.5;"/>
   </g>
   <g id="line2d_142">
    <path clip-path="url(#pc543ad887e)" d="M 317.676477 277.525267 
L 317.676477 258.333214 
" style="fill:none;stroke:#00008b;stroke-dasharray:1.85,0.8;stroke-dashoffset:0;stroke-width:0.5;"/>
   </g>
   <g id="line2d_143">
    <path clip-path="url(#pc543ad887e)" d="M 316.566818 303.392817 
L 318.786136 303.392817 
" style="fill:none;stroke:#000000;stroke-linecap:square;stroke-width:0.5;"/>
   </g>
   <g id="line2d_144">
    <path clip-path="url(#pc543ad887e)" d="M 316.566818 258.333214 
L 318.786136 258.333214 
" style="fill:none;stroke:#000000;stroke-linecap:square;stroke-width:0.5;"/>
   </g>
   <g id="line2d_145">
    <path clip-path="url(#pc543ad887e)" d="M 324.334432 295.048446 
L 328.773068 295.048446 
L 328.773068 278.359704 
L 324.334432 278.359704 
L 324.334432 295.048446 
" style="fill:none;stroke:#00008b;stroke-linecap:square;stroke-width:0.5;"/>
   </g>
   <g id="line2d_146">
    <path clip-path="url(#pc543ad887e)" d="M 326.55375 295.048446 
L 326.55375 310.068313 
" style="fill:none;stroke:#00008b;stroke-dasharray:1.85,0.8;stroke-dashoffset:0;stroke-width:0.5;"/>
   </g>
   <g id="line2d_147">
    <path clip-path="url(#pc543ad887e)" d="M 326.55375 278.359704 
L 326.55375 270.015333 
" style="fill:none;stroke:#00008b;stroke-dasharray:1.85,0.8;stroke-dashoffset:0;stroke-width:0.5;"/>
   </g>
   <g id="line2d_148">
    <path clip-path="url(#pc543ad887e)" d="M 325.444091 310.068313 
L 327.663409 310.068313 
" style="fill:none;stroke:#000000;stroke-linecap:square;stroke-width:0.5;"/>
   </g>
   <g id="line2d_149">
    <path clip-path="url(#pc543ad887e)" d="M 325.444091 270.015333 
L 327.663409 270.015333 
" style="fill:none;stroke:#000000;stroke-linecap:square;stroke-width:0.5;"/>
   </g>
   <g id="line2d_150">
    <path clip-path="url(#pc543ad887e)" d="M 333.211705 293.379572 
L 337.650341 293.379572 
L 337.650341 280.028578 
L 333.211705 280.028578 
L 333.211705 293.379572 
" style="fill:none;stroke:#00008b;stroke-linecap:square;stroke-width:0.5;"/>
   </g>
   <g id="line2d_151">
    <path clip-path="url(#pc543ad887e)" d="M 335.431023 293.379572 
L 335.431023 300.055068 
" style="fill:none;stroke:#00008b;stroke-dasharray:1.85,0.8;stroke-dashoffset:0;stroke-width:0.5;"/>
   </g>
   <g id="line2d_152">
    <path clip-path="url(#pc543ad887e)" d="M 335.431023 280.028578 
L 335.431023 270.015333 
" style="fill:none;stroke:#00008b;stroke-dasharray:1.85,0.8;stroke-dashoffset:0;stroke-width:0.5;"/>
   </g>
   <g id="line2d_153">
    <path clip-path="url(#pc543ad887e)" d="M 334.321364 300.055068 
L 336.540682 300.055068 
" style="fill:none;stroke:#000000;stroke-linecap:square;stroke-width:0.5;"/>
   </g>
   <g id="line2d_154">
    <path clip-path="url(#pc543ad887e)" d="M 334.321364 270.015333 
L 336.540682 270.015333 
" style="fill:none;stroke:#000000;stroke-linecap:square;stroke-width:0.5;"/>
   </g>
   <g id="line2d_155">
    <path clip-path="url(#pc543ad887e)" d="M 342.088977 292.962353 
L 346.527614 292.962353 
L 346.527614 278.776923 
L 342.088977 278.776923 
L 342.088977 292.962353 
" style="fill:none;stroke:#00008b;stroke-linecap:square;stroke-width:0.5;"/>
   </g>
   <g id="line2d_156">
    <path clip-path="url(#pc543ad887e)" d="M 344.308295 292.962353 
L 344.308295 310.068313 
" style="fill:none;stroke:#00008b;stroke-dasharray:1.85,0.8;stroke-dashoffset:0;stroke-width:0.5;"/>
   </g>
   <g id="line2d_157">
    <path clip-path="url(#pc543ad887e)" d="M 344.308295 278.776923 
L 344.308295 271.684207 
" style="fill:none;stroke:#00008b;stroke-dasharray:1.85,0.8;stroke-dashoffset:0;stroke-width:0.5;"/>
   </g>
   <g id="line2d_158">
    <path clip-path="url(#pc543ad887e)" d="M 343.198636 310.068313 
L 345.417955 310.068313 
" style="fill:none;stroke:#000000;stroke-linecap:square;stroke-width:0.5;"/>
   </g>
   <g id="line2d_159">
    <path clip-path="url(#pc543ad887e)" d="M 343.198636 271.684207 
L 345.417955 271.684207 
" style="fill:none;stroke:#000000;stroke-linecap:square;stroke-width:0.5;"/>
   </g>
   <g id="line2d_160">
    <path clip-path="url(#pc543ad887e)" d="M 350.96625 295.465664 
L 355.404886 295.465664 
L 355.404886 279.61136 
L 350.96625 279.61136 
L 350.96625 295.465664 
" style="fill:none;stroke:#00008b;stroke-linecap:square;stroke-width:0.5;"/>
   </g>
   <g id="line2d_161">
    <path clip-path="url(#pc543ad887e)" d="M 353.185568 295.465664 
L 353.185568 308.399439 
" style="fill:none;stroke:#00008b;stroke-dasharray:1.85,0.8;stroke-dashoffset:0;stroke-width:0.5;"/>
   </g>
   <g id="line2d_162">
    <path clip-path="url(#pc543ad887e)" d="M 353.185568 279.61136 
L 353.185568 270.015333 
" style="fill:none;stroke:#00008b;stroke-dasharray:1.85,0.8;stroke-dashoffset:0;stroke-width:0.5;"/>
   </g>
   <g id="line2d_163">
    <path clip-path="url(#pc543ad887e)" d="M 352.075909 308.399439 
L 354.295227 308.399439 
" style="fill:none;stroke:#000000;stroke-linecap:square;stroke-width:0.5;"/>
   </g>
   <g id="line2d_164">
    <path clip-path="url(#pc543ad887e)" d="M 352.075909 270.015333 
L 354.295227 270.015333 
" style="fill:none;stroke:#000000;stroke-linecap:square;stroke-width:0.5;"/>
   </g>
   <g id="line2d_165">
    <path clip-path="url(#pc543ad887e)" d="M 359.843523 297.551757 
L 364.282159 297.551757 
L 364.282159 285.035201 
L 359.843523 285.035201 
L 359.843523 297.551757 
" style="fill:none;stroke:#00008b;stroke-linecap:square;stroke-width:0.5;"/>
   </g>
   <g id="line2d_166">
    <path clip-path="url(#pc543ad887e)" d="M 362.062841 297.551757 
L 362.062841 305.061691 
" style="fill:none;stroke:#00008b;stroke-dasharray:1.85,0.8;stroke-dashoffset:0;stroke-width:0.5;"/>
   </g>
   <g id="line2d_167">
    <path clip-path="url(#pc543ad887e)" d="M 362.062841 285.035201 
L 362.062841 276.69083 
" style="fill:none;stroke:#00008b;stroke-dasharray:1.85,0.8;stroke-dashoffset:0;stroke-width:0.5;"/>
   </g>
   <g id="line2d_168">
    <path clip-path="url(#pc543ad887e)" d="M 360.953182 305.061691 
L 363.1725 305.061691 
" style="fill:none;stroke:#000000;stroke-linecap:square;stroke-width:0.5;"/>
   </g>
   <g id="line2d_169">
    <path clip-path="url(#pc543ad887e)" d="M 360.953182 276.69083 
L 363.1725 276.69083 
" style="fill:none;stroke:#000000;stroke-linecap:square;stroke-width:0.5;"/>
   </g>
   <g id="line2d_170">
    <path clip-path="url(#pc543ad887e)" d="M 368.720795 296.71732 
L 373.159432 296.71732 
L 373.159432 280.028578 
L 368.720795 280.028578 
L 368.720795 296.71732 
" style="fill:none;stroke:#00008b;stroke-linecap:square;stroke-width:0.5;"/>
   </g>
   <g id="line2d_171">
    <path clip-path="url(#pc543ad887e)" d="M 370.940114 296.71732 
L 370.940114 305.061691 
" style="fill:none;stroke:#00008b;stroke-dasharray:1.85,0.8;stroke-dashoffset:0;stroke-width:0.5;"/>
   </g>
   <g id="line2d_172">
    <path clip-path="url(#pc543ad887e)" d="M 370.940114 280.028578 
L 370.940114 268.346459 
" style="fill:none;stroke:#00008b;stroke-dasharray:1.85,0.8;stroke-dashoffset:0;stroke-width:0.5;"/>
   </g>
   <g id="line2d_173">
    <path clip-path="url(#pc543ad887e)" d="M 369.830455 305.061691 
L 372.049773 305.061691 
" style="fill:none;stroke:#000000;stroke-linecap:square;stroke-width:0.5;"/>
   </g>
   <g id="line2d_174">
    <path clip-path="url(#pc543ad887e)" d="M 369.830455 268.346459 
L 372.049773 268.346459 
" style="fill:none;stroke:#000000;stroke-linecap:square;stroke-width:0.5;"/>
   </g>
   <g id="line2d_175">
    <path clip-path="url(#pc543ad887e)" d="M 377.598068 293.79679 
L 382.036705 293.79679 
L 382.036705 281.280234 
L 377.598068 281.280234 
L 377.598068 293.79679 
" style="fill:none;stroke:#00008b;stroke-linecap:square;stroke-width:0.5;"/>
   </g>
   <g id="line2d_176">
    <path clip-path="url(#pc543ad887e)" d="M 379.817386 293.79679 
L 379.817386 300.055068 
" style="fill:none;stroke:#00008b;stroke-dasharray:1.85,0.8;stroke-dashoffset:0;stroke-width:0.5;"/>
   </g>
   <g id="line2d_177">
    <path clip-path="url(#pc543ad887e)" d="M 379.817386 281.280234 
L 379.817386 271.684207 
" style="fill:none;stroke:#00008b;stroke-dasharray:1.85,0.8;stroke-dashoffset:0;stroke-width:0.5;"/>
   </g>
   <g id="line2d_178">
    <path clip-path="url(#pc543ad887e)" d="M 378.707727 300.055068 
L 380.927045 300.055068 
" style="fill:none;stroke:#000000;stroke-linecap:square;stroke-width:0.5;"/>
   </g>
   <g id="line2d_179">
    <path clip-path="url(#pc543ad887e)" d="M 378.707727 271.684207 
L 380.927045 271.684207 
" style="fill:none;stroke:#000000;stroke-linecap:square;stroke-width:0.5;"/>
   </g>
   <g id="line2d_180">
    <path clip-path="url(#pc543ad887e)" d="M 386.475341 296.300101 
L 390.913977 296.300101 
L 390.913977 285.452419 
L 386.475341 285.452419 
L 386.475341 296.300101 
" style="fill:none;stroke:#00008b;stroke-linecap:square;stroke-width:0.5;"/>
   </g>
   <g id="line2d_181">
    <path clip-path="url(#pc543ad887e)" d="M 388.694659 296.300101 
L 388.694659 306.730565 
" style="fill:none;stroke:#00008b;stroke-dasharray:1.85,0.8;stroke-dashoffset:0;stroke-width:0.5;"/>
   </g>
   <g id="line2d_182">
    <path clip-path="url(#pc543ad887e)" d="M 388.694659 285.452419 
L 388.694659 280.028578 
" style="fill:none;stroke:#00008b;stroke-dasharray:1.85,0.8;stroke-dashoffset:0;stroke-width:0.5;"/>
   </g>
   <g id="line2d_183">
    <path clip-path="url(#pc543ad887e)" d="M 387.585 306.730565 
L 389.804318 306.730565 
" style="fill:none;stroke:#000000;stroke-linecap:square;stroke-width:0.5;"/>
   </g>
   <g id="line2d_184">
    <path clip-path="url(#pc543ad887e)" d="M 387.585 280.028578 
L 389.804318 280.028578 
" style="fill:none;stroke:#000000;stroke-linecap:square;stroke-width:0.5;"/>
   </g>
   <g id="line2d_185">
    <path clip-path="url(#pc543ad887e)" d="M 395.352614 297.968976 
L 399.79125 297.968976 
L 399.79125 287.121293 
L 395.352614 287.121293 
L 395.352614 297.968976 
" style="fill:none;stroke:#00008b;stroke-linecap:square;stroke-width:0.5;"/>
   </g>
   <g id="line2d_186">
    <path clip-path="url(#pc543ad887e)" d="M 397.571932 297.968976 
L 397.571932 303.392817 
" style="fill:none;stroke:#00008b;stroke-dasharray:1.85,0.8;stroke-dashoffset:0;stroke-width:0.5;"/>
   </g>
   <g id="line2d_187">
    <path clip-path="url(#pc543ad887e)" d="M 397.571932 287.121293 
L 397.571932 280.028578 
" style="fill:none;stroke:#00008b;stroke-dasharray:1.85,0.8;stroke-dashoffset:0;stroke-width:0.5;"/>
   </g>
   <g id="line2d_188">
    <path clip-path="url(#pc543ad887e)" d="M 396.462273 303.392817 
L 398.681591 303.392817 
" style="fill:none;stroke:#000000;stroke-linecap:square;stroke-width:0.5;"/>
   </g>
   <g id="line2d_189">
    <path clip-path="url(#pc543ad887e)" d="M 396.462273 280.028578 
L 398.681591 280.028578 
" style="fill:none;stroke:#000000;stroke-linecap:square;stroke-width:0.5;"/>
   </g>
   <g id="line2d_190">
    <path clip-path="url(#pc543ad887e)" d="M 404.229886 292.962353 
L 408.668523 292.962353 
L 408.668523 278.776923 
L 404.229886 278.776923 
L 404.229886 292.962353 
" style="fill:none;stroke:#00008b;stroke-linecap:square;stroke-width:0.5;"/>
   </g>
   <g id="line2d_191">
    <path clip-path="url(#pc543ad887e)" d="M 406.449205 292.962353 
L 406.449205 305.061691 
" style="fill:none;stroke:#00008b;stroke-dasharray:1.85,0.8;stroke-dashoffset:0;stroke-width:0.5;"/>
   </g>
   <g id="line2d_192">
    <path clip-path="url(#pc543ad887e)" d="M 406.449205 278.776923 
L 406.449205 271.684207 
" style="fill:none;stroke:#00008b;stroke-dasharray:1.85,0.8;stroke-dashoffset:0;stroke-width:0.5;"/>
   </g>
   <g id="line2d_193">
    <path clip-path="url(#pc543ad887e)" d="M 405.339545 305.061691 
L 407.558864 305.061691 
" style="fill:none;stroke:#000000;stroke-linecap:square;stroke-width:0.5;"/>
   </g>
   <g id="line2d_194">
    <path clip-path="url(#pc543ad887e)" d="M 405.339545 271.684207 
L 407.558864 271.684207 
" style="fill:none;stroke:#000000;stroke-linecap:square;stroke-width:0.5;"/>
   </g>
   <g id="line2d_195">
    <path clip-path="url(#pc543ad887e)" d="M 413.107159 296.300101 
L 417.545795 296.300101 
L 417.545795 282.114671 
L 413.107159 282.114671 
L 413.107159 296.300101 
" style="fill:none;stroke:#00008b;stroke-linecap:square;stroke-width:0.5;"/>
   </g>
   <g id="line2d_196">
    <path clip-path="url(#pc543ad887e)" d="M 415.326477 296.300101 
L 415.326477 303.392817 
" style="fill:none;stroke:#00008b;stroke-dasharray:1.85,0.8;stroke-dashoffset:0;stroke-width:0.5;"/>
   </g>
   <g id="line2d_197">
    <path clip-path="url(#pc543ad887e)" d="M 415.326477 282.114671 
L 415.326477 273.353082 
" style="fill:none;stroke:#00008b;stroke-dasharray:1.85,0.8;stroke-dashoffset:0;stroke-width:0.5;"/>
   </g>
   <g id="line2d_198">
    <path clip-path="url(#pc543ad887e)" d="M 414.216818 303.392817 
L 416.436136 303.392817 
" style="fill:none;stroke:#000000;stroke-linecap:square;stroke-width:0.5;"/>
   </g>
   <g id="line2d_199">
    <path clip-path="url(#pc543ad887e)" d="M 414.216818 273.353082 
L 416.436136 273.353082 
" style="fill:none;stroke:#000000;stroke-linecap:square;stroke-width:0.5;"/>
   </g>
   <g id="line2d_200">
    <path clip-path="url(#pc543ad887e)" d="M 421.984432 293.79679 
L 426.423068 293.79679 
L 426.423068 281.280234 
L 421.984432 281.280234 
L 421.984432 293.79679 
" style="fill:none;stroke:#00008b;stroke-linecap:square;stroke-width:0.5;"/>
   </g>
   <g id="line2d_201">
    <path clip-path="url(#pc543ad887e)" d="M 424.20375 293.79679 
L 424.20375 301.723942 
" style="fill:none;stroke:#00008b;stroke-dasharray:1.85,0.8;stroke-dashoffset:0;stroke-width:0.5;"/>
   </g>
   <g id="line2d_202">
    <path clip-path="url(#pc543ad887e)" d="M 424.20375 281.280234 
L 424.20375 271.684207 
" style="fill:none;stroke:#00008b;stroke-dasharray:1.85,0.8;stroke-dashoffset:0;stroke-width:0.5;"/>
   </g>
   <g id="line2d_203">
    <path clip-path="url(#pc543ad887e)" d="M 423.094091 301.723942 
L 425.313409 301.723942 
" style="fill:none;stroke:#000000;stroke-linecap:square;stroke-width:0.5;"/>
   </g>
   <g id="line2d_204">
    <path clip-path="url(#pc543ad887e)" d="M 423.094091 271.684207 
L 425.313409 271.684207 
" style="fill:none;stroke:#000000;stroke-linecap:square;stroke-width:0.5;"/>
   </g>
   <g id="line2d_205">
    <path clip-path="url(#pc543ad887e)" d="M 430.861705 302.141161 
L 435.300341 302.141161 
L 435.300341 286.286856 
L 430.861705 286.286856 
L 430.861705 302.141161 
" style="fill:none;stroke:#00008b;stroke-linecap:square;stroke-width:0.5;"/>
   </g>
   <g id="line2d_206">
    <path clip-path="url(#pc543ad887e)" d="M 433.081023 302.141161 
L 433.081023 311.737188 
" style="fill:none;stroke:#00008b;stroke-dasharray:1.85,0.8;stroke-dashoffset:0;stroke-width:0.5;"/>
   </g>
   <g id="line2d_207">
    <path clip-path="url(#pc543ad887e)" d="M 433.081023 286.286856 
L 433.081023 275.021956 
" style="fill:none;stroke:#00008b;stroke-dasharray:1.85,0.8;stroke-dashoffset:0;stroke-width:0.5;"/>
   </g>
   <g id="line2d_208">
    <path clip-path="url(#pc543ad887e)" d="M 431.971364 311.737188 
L 434.190682 311.737188 
" style="fill:none;stroke:#000000;stroke-linecap:square;stroke-width:0.5;"/>
   </g>
   <g id="line2d_209">
    <path clip-path="url(#pc543ad887e)" d="M 431.971364 275.021956 
L 434.190682 275.021956 
" style="fill:none;stroke:#000000;stroke-linecap:square;stroke-width:0.5;"/>
   </g>
   <g id="line2d_210">
    <path clip-path="url(#pc543ad887e)" d="M 439.738977 298.386194 
L 444.177614 298.386194 
L 444.177614 281.697452 
L 439.738977 281.697452 
L 439.738977 298.386194 
" style="fill:none;stroke:#00008b;stroke-linecap:square;stroke-width:0.5;"/>
   </g>
   <g id="line2d_211">
    <path clip-path="url(#pc543ad887e)" d="M 441.958295 298.386194 
L 441.958295 311.737188 
" style="fill:none;stroke:#00008b;stroke-dasharray:1.85,0.8;stroke-dashoffset:0;stroke-width:0.5;"/>
   </g>
   <g id="line2d_212">
    <path clip-path="url(#pc543ad887e)" d="M 441.958295 281.697452 
L 441.958295 265.008711 
" style="fill:none;stroke:#00008b;stroke-dasharray:1.85,0.8;stroke-dashoffset:0;stroke-width:0.5;"/>
   </g>
   <g id="line2d_213">
    <path clip-path="url(#pc543ad887e)" d="M 440.848636 311.737188 
L 443.067955 311.737188 
" style="fill:none;stroke:#000000;stroke-linecap:square;stroke-width:0.5;"/>
   </g>
   <g id="line2d_214">
    <path clip-path="url(#pc543ad887e)" d="M 440.848636 265.008711 
L 443.067955 265.008711 
" style="fill:none;stroke:#000000;stroke-linecap:square;stroke-width:0.5;"/>
   </g>
   <g id="line2d_215">
    <path clip-path="url(#pc543ad887e)" d="M 448.61625 298.386194 
L 453.054886 298.386194 
L 453.054886 285.035201 
L 448.61625 285.035201 
L 448.61625 298.386194 
" style="fill:none;stroke:#00008b;stroke-linecap:square;stroke-width:0.5;"/>
   </g>
   <g id="line2d_216">
    <path clip-path="url(#pc543ad887e)" d="M 450.835568 298.386194 
L 450.835568 306.730565 
" style="fill:none;stroke:#00008b;stroke-dasharray:1.85,0.8;stroke-dashoffset:0;stroke-width:0.5;"/>
   </g>
   <g id="line2d_217">
    <path clip-path="url(#pc543ad887e)" d="M 450.835568 285.035201 
L 450.835568 276.69083 
" style="fill:none;stroke:#00008b;stroke-dasharray:1.85,0.8;stroke-dashoffset:0;stroke-width:0.5;"/>
   </g>
   <g id="line2d_218">
    <path clip-path="url(#pc543ad887e)" d="M 449.725909 306.730565 
L 451.945227 306.730565 
" style="fill:none;stroke:#000000;stroke-linecap:square;stroke-width:0.5;"/>
   </g>
   <g id="line2d_219">
    <path clip-path="url(#pc543ad887e)" d="M 449.725909 276.69083 
L 451.945227 276.69083 
" style="fill:none;stroke:#000000;stroke-linecap:square;stroke-width:0.5;"/>
   </g>
   <g id="line2d_220">
    <path clip-path="url(#pc543ad887e)" d="M 457.493523 297.968976 
L 461.932159 297.968976 
L 461.932159 283.783545 
L 457.493523 283.783545 
L 457.493523 297.968976 
" style="fill:none;stroke:#00008b;stroke-linecap:square;stroke-width:0.5;"/>
   </g>
   <g id="line2d_221">
    <path clip-path="url(#pc543ad887e)" d="M 459.712841 297.968976 
L 459.712841 306.730565 
" style="fill:none;stroke:#00008b;stroke-dasharray:1.85,0.8;stroke-dashoffset:0;stroke-width:0.5;"/>
   </g>
   <g id="line2d_222">
    <path clip-path="url(#pc543ad887e)" d="M 459.712841 283.783545 
L 459.712841 273.353082 
" style="fill:none;stroke:#00008b;stroke-dasharray:1.85,0.8;stroke-dashoffset:0;stroke-width:0.5;"/>
   </g>
   <g id="line2d_223">
    <path clip-path="url(#pc543ad887e)" d="M 458.603182 306.730565 
L 460.8225 306.730565 
" style="fill:none;stroke:#000000;stroke-linecap:square;stroke-width:0.5;"/>
   </g>
   <g id="line2d_224">
    <path clip-path="url(#pc543ad887e)" d="M 458.603182 273.353082 
L 460.8225 273.353082 
" style="fill:none;stroke:#000000;stroke-linecap:square;stroke-width:0.5;"/>
   </g>
   <g id="line2d_225">
    <path clip-path="url(#pc543ad887e)" d="M 466.370795 295.465664 
L 470.809432 295.465664 
L 470.809432 281.280234 
L 466.370795 281.280234 
L 466.370795 295.465664 
" style="fill:none;stroke:#00008b;stroke-linecap:square;stroke-width:0.5;"/>
   </g>
   <g id="line2d_226">
    <path clip-path="url(#pc543ad887e)" d="M 468.590114 295.465664 
L 468.590114 306.730565 
" style="fill:none;stroke:#00008b;stroke-dasharray:1.85,0.8;stroke-dashoffset:0;stroke-width:0.5;"/>
   </g>
   <g id="line2d_227">
    <path clip-path="url(#pc543ad887e)" d="M 468.590114 281.280234 
L 468.590114 271.684207 
" style="fill:none;stroke:#00008b;stroke-dasharray:1.85,0.8;stroke-dashoffset:0;stroke-width:0.5;"/>
   </g>
   <g id="line2d_228">
    <path clip-path="url(#pc543ad887e)" d="M 467.480455 306.730565 
L 469.699773 306.730565 
" style="fill:none;stroke:#000000;stroke-linecap:square;stroke-width:0.5;"/>
   </g>
   <g id="line2d_229">
    <path clip-path="url(#pc543ad887e)" d="M 467.480455 271.684207 
L 469.699773 271.684207 
" style="fill:none;stroke:#000000;stroke-linecap:square;stroke-width:0.5;"/>
   </g>
   <g id="line2d_230">
    <path clip-path="url(#pc543ad887e)" d="M 84.648068 73.088181 
L 89.086705 73.088181 
" style="fill:none;stroke:#8b0000;stroke-linecap:square;stroke-width:0.5;"/>
   </g>
   <g id="line2d_231">
    <path clip-path="url(#pc543ad887e)" d="M 93.525341 91.445797 
L 97.963977 91.445797 
" style="fill:none;stroke:#8b0000;stroke-linecap:square;stroke-width:0.5;"/>
   </g>
   <g id="line2d_232">
    <path clip-path="url(#pc543ad887e)" d="M 102.402614 113.141161 
L 106.84125 113.141161 
" style="fill:none;stroke:#8b0000;stroke-linecap:square;stroke-width:0.5;"/>
   </g>
   <g id="line2d_233">
    <path clip-path="url(#pc543ad887e)" d="M 111.279886 134.002088 
L 115.718523 134.002088 
" style="fill:none;stroke:#8b0000;stroke-linecap:square;stroke-width:0.5;"/>
   </g>
   <g id="line2d_234">
    <path clip-path="url(#pc543ad887e)" d="M 120.157159 159.035201 
L 124.595795 159.035201 
" style="fill:none;stroke:#8b0000;stroke-linecap:square;stroke-width:0.5;"/>
   </g>
   <g id="line2d_235">
    <path clip-path="url(#pc543ad887e)" d="M 129.034432 176.55838 
L 133.473068 176.55838 
" style="fill:none;stroke:#8b0000;stroke-linecap:square;stroke-width:0.5;"/>
   </g>
   <g id="line2d_236">
    <path clip-path="url(#pc543ad887e)" d="M 137.911705 189.074936 
L 142.350341 189.074936 
" style="fill:none;stroke:#8b0000;stroke-linecap:square;stroke-width:0.5;"/>
   </g>
   <g id="line2d_237">
    <path clip-path="url(#pc543ad887e)" d="M 146.788977 201.591492 
L 151.227614 201.591492 
" style="fill:none;stroke:#8b0000;stroke-linecap:square;stroke-width:0.5;"/>
   </g>
   <g id="line2d_238">
    <path clip-path="url(#pc543ad887e)" d="M 155.66625 209.101426 
L 160.104886 209.101426 
" style="fill:none;stroke:#8b0000;stroke-linecap:square;stroke-width:0.5;"/>
   </g>
   <g id="line2d_239">
    <path clip-path="url(#pc543ad887e)" d="M 164.543523 225.790168 
L 168.982159 225.790168 
" style="fill:none;stroke:#8b0000;stroke-linecap:square;stroke-width:0.5;"/>
   </g>
   <g id="line2d_240">
    <path clip-path="url(#pc543ad887e)" d="M 173.420795 228.293479 
L 177.859432 228.293479 
" style="fill:none;stroke:#8b0000;stroke-linecap:square;stroke-width:0.5;"/>
   </g>
   <g id="line2d_241">
    <path clip-path="url(#pc543ad887e)" d="M 182.298068 234.134538 
L 186.736705 234.134538 
" style="fill:none;stroke:#8b0000;stroke-linecap:square;stroke-width:0.5;"/>
   </g>
   <g id="line2d_242">
    <path clip-path="url(#pc543ad887e)" d="M 191.175341 244.147784 
L 195.613977 244.147784 
" style="fill:none;stroke:#8b0000;stroke-linecap:square;stroke-width:0.5;"/>
   </g>
   <g id="line2d_243">
    <path clip-path="url(#pc543ad887e)" d="M 200.052614 243.313346 
L 204.49125 243.313346 
" style="fill:none;stroke:#8b0000;stroke-linecap:square;stroke-width:0.5;"/>
   </g>
   <g id="line2d_244">
    <path clip-path="url(#pc543ad887e)" d="M 208.929886 254.995466 
L 213.368523 254.995466 
" style="fill:none;stroke:#8b0000;stroke-linecap:square;stroke-width:0.5;"/>
   </g>
   <g id="line2d_245">
    <path clip-path="url(#pc543ad887e)" d="M 217.807159 255.829903 
L 222.245795 255.829903 
" style="fill:none;stroke:#8b0000;stroke-linecap:square;stroke-width:0.5;"/>
   </g>
   <g id="line2d_246">
    <path clip-path="url(#pc543ad887e)" d="M 226.684432 263.339837 
L 231.123068 263.339837 
" style="fill:none;stroke:#8b0000;stroke-linecap:square;stroke-width:0.5;"/>
   </g>
   <g id="line2d_247">
    <path clip-path="url(#pc543ad887e)" d="M 235.561705 263.339837 
L 240.000341 263.339837 
" style="fill:none;stroke:#8b0000;stroke-linecap:square;stroke-width:0.5;"/>
   </g>
   <g id="line2d_248">
    <path clip-path="url(#pc543ad887e)" d="M 244.438977 266.677585 
L 248.877614 266.677585 
" style="fill:none;stroke:#8b0000;stroke-linecap:square;stroke-width:0.5;"/>
   </g>
   <g id="line2d_249">
    <path clip-path="url(#pc543ad887e)" d="M 253.31625 270.84977 
L 257.754886 270.84977 
" style="fill:none;stroke:#8b0000;stroke-linecap:square;stroke-width:0.5;"/>
   </g>
   <g id="line2d_250">
    <path clip-path="url(#pc543ad887e)" d="M 262.193523 274.187519 
L 266.632159 274.187519 
" style="fill:none;stroke:#8b0000;stroke-linecap:square;stroke-width:0.5;"/>
   </g>
   <g id="line2d_251">
    <path clip-path="url(#pc543ad887e)" d="M 271.070795 278.359704 
L 275.509432 278.359704 
" style="fill:none;stroke:#8b0000;stroke-linecap:square;stroke-width:0.5;"/>
   </g>
   <g id="line2d_252">
    <path clip-path="url(#pc543ad887e)" d="M 279.948068 280.028578 
L 284.386705 280.028578 
" style="fill:none;stroke:#8b0000;stroke-linecap:square;stroke-width:0.5;"/>
   </g>
   <g id="line2d_253">
    <path clip-path="url(#pc543ad887e)" d="M 288.825341 281.697452 
L 293.263977 281.697452 
" style="fill:none;stroke:#8b0000;stroke-linecap:square;stroke-width:0.5;"/>
   </g>
   <g id="line2d_254">
    <path clip-path="url(#pc543ad887e)" d="M 297.702614 282.531889 
L 302.14125 282.531889 
" style="fill:none;stroke:#8b0000;stroke-linecap:square;stroke-width:0.5;"/>
   </g>
   <g id="line2d_255">
    <path clip-path="url(#pc543ad887e)" d="M 306.579886 283.366327 
L 311.018523 283.366327 
" style="fill:none;stroke:#8b0000;stroke-linecap:square;stroke-width:0.5;"/>
   </g>
   <g id="line2d_256">
    <path clip-path="url(#pc543ad887e)" d="M 315.457159 285.035201 
L 319.895795 285.035201 
" style="fill:none;stroke:#8b0000;stroke-linecap:square;stroke-width:0.5;"/>
   </g>
   <g id="line2d_257">
    <path clip-path="url(#pc543ad887e)" d="M 324.334432 286.704075 
L 328.773068 286.704075 
" style="fill:none;stroke:#8b0000;stroke-linecap:square;stroke-width:0.5;"/>
   </g>
   <g id="line2d_258">
    <path clip-path="url(#pc543ad887e)" d="M 333.211705 286.704075 
L 337.650341 286.704075 
" style="fill:none;stroke:#8b0000;stroke-linecap:square;stroke-width:0.5;"/>
   </g>
   <g id="line2d_259">
    <path clip-path="url(#pc543ad887e)" d="M 342.088977 285.869638 
L 346.527614 285.869638 
" style="fill:none;stroke:#8b0000;stroke-linecap:square;stroke-width:0.5;"/>
   </g>
   <g id="line2d_260">
    <path clip-path="url(#pc543ad887e)" d="M 350.96625 287.538512 
L 355.404886 287.538512 
" style="fill:none;stroke:#8b0000;stroke-linecap:square;stroke-width:0.5;"/>
   </g>
   <g id="line2d_261">
    <path clip-path="url(#pc543ad887e)" d="M 359.843523 291.710697 
L 364.282159 291.710697 
" style="fill:none;stroke:#8b0000;stroke-linecap:square;stroke-width:0.5;"/>
   </g>
   <g id="line2d_262">
    <path clip-path="url(#pc543ad887e)" d="M 368.720795 288.372949 
L 373.159432 288.372949 
" style="fill:none;stroke:#8b0000;stroke-linecap:square;stroke-width:0.5;"/>
   </g>
   <g id="line2d_263">
    <path clip-path="url(#pc543ad887e)" d="M 377.598068 287.538512 
L 382.036705 287.538512 
" style="fill:none;stroke:#8b0000;stroke-linecap:square;stroke-width:0.5;"/>
   </g>
   <g id="line2d_264">
    <path clip-path="url(#pc543ad887e)" d="M 386.475341 290.87626 
L 390.913977 290.87626 
" style="fill:none;stroke:#8b0000;stroke-linecap:square;stroke-width:0.5;"/>
   </g>
   <g id="line2d_265">
    <path clip-path="url(#pc543ad887e)" d="M 395.352614 292.545135 
L 399.79125 292.545135 
" style="fill:none;stroke:#8b0000;stroke-linecap:square;stroke-width:0.5;"/>
   </g>
   <g id="line2d_266">
    <path clip-path="url(#pc543ad887e)" d="M 404.229886 285.869638 
L 408.668523 285.869638 
" style="fill:none;stroke:#8b0000;stroke-linecap:square;stroke-width:0.5;"/>
   </g>
   <g id="line2d_267">
    <path clip-path="url(#pc543ad887e)" d="M 413.107159 289.207386 
L 417.545795 289.207386 
" style="fill:none;stroke:#8b0000;stroke-linecap:square;stroke-width:0.5;"/>
   </g>
   <g id="line2d_268">
    <path clip-path="url(#pc543ad887e)" d="M 421.984432 287.538512 
L 426.423068 287.538512 
" style="fill:none;stroke:#8b0000;stroke-linecap:square;stroke-width:0.5;"/>
   </g>
   <g id="line2d_269">
    <path clip-path="url(#pc543ad887e)" d="M 430.861705 294.214009 
L 435.300341 294.214009 
" style="fill:none;stroke:#8b0000;stroke-linecap:square;stroke-width:0.5;"/>
   </g>
   <g id="line2d_270">
    <path clip-path="url(#pc543ad887e)" d="M 439.738977 291.710697 
L 444.177614 291.710697 
" style="fill:none;stroke:#8b0000;stroke-linecap:square;stroke-width:0.5;"/>
   </g>
   <g id="line2d_271">
    <path clip-path="url(#pc543ad887e)" d="M 448.61625 291.710697 
L 453.054886 291.710697 
" style="fill:none;stroke:#8b0000;stroke-linecap:square;stroke-width:0.5;"/>
   </g>
   <g id="line2d_272">
    <path clip-path="url(#pc543ad887e)" d="M 457.493523 290.87626 
L 461.932159 290.87626 
" style="fill:none;stroke:#8b0000;stroke-linecap:square;stroke-width:0.5;"/>
   </g>
   <g id="line2d_273">
    <path clip-path="url(#pc543ad887e)" d="M 466.370795 289.207386 
L 470.809432 289.207386 
" style="fill:none;stroke:#8b0000;stroke-linecap:square;stroke-width:0.5;"/>
   </g>
   <g id="patch_3">
    <path d="M 82.42875 324.337188 
L 82.42875 47.137187 
" style="fill:none;stroke:#000000;stroke-linecap:square;stroke-linejoin:miter;stroke-width:0.8;"/>
   </g>
   <g id="patch_4">
    <path d="M 82.42875 324.337188 
L 473.02875 324.337188 
" style="fill:none;stroke:#000000;stroke-linecap:square;stroke-linejoin:miter;stroke-width:0.8;"/>
   </g>
  </g>
 </g>
 <defs>
  <clipPath id="pc543ad887e">
   <rect height="277.2" width="390.6" x="82.42875" y="47.137187"/>
  </clipPath>
 </defs>
</svg>
