<?xml version="1.0" encoding="utf-8" standalone="no"?>
<!DOCTYPE svg PUBLIC "-//W3C//DTD SVG 1.1//EN"
  "http://www.w3.org/Graphics/SVG/1.1/DTD/svg11.dtd">
<!-- Created with matplotlib (http://matplotlib.org/) -->
<svg height="690pt" version="1.1" viewBox="0 0 912 690" width="912pt" xmlns="http://www.w3.org/2000/svg" xmlns:xlink="http://www.w3.org/1999/xlink">
 <defs>
  <style type="text/css">
*{stroke-linecap:butt;stroke-linejoin:round;}
  </style>
 </defs>
 <g id="figure_1">
  <g id="patch_1">
   <path d="M 0 690.833125 
L 912.139915 690.833125 
L 912.139915 0 
L 0 0 
z
" style="fill:#ffffff;"/>
  </g>
  <g id="axes_1">
   <g id="patch_2">
    <path d="M 112.293125 565.1 
L 893.493125 565.1 
L 893.493125 10.7 
L 112.293125 10.7 
z
" style="fill:#ffffff;"/>
   </g>
   <g id="matplotlib.axis_1">
    <g id="xtick_1">
     <g id="line2d_1">
      <defs>
       <path d="M 0 0 
L 0 3.5 
" id="m7f98496772" style="stroke:#000000;"/>
      </defs>
      <g>
       <use style="stroke:#000000;" x="174.434034" xlink:href="#m7f98496772" y="565.1"/>
      </g>
     </g>
     <g id="text_1">
      <!-- 0.1 -->
      <defs>
       <path d="M 31.78125 66.40625 
Q 24.171875 66.40625 20.328125 58.90625 
Q 16.5 51.421875 16.5 36.375 
Q 16.5 21.390625 20.328125 13.890625 
Q 24.171875 6.390625 31.78125 6.390625 
Q 39.453125 6.390625 43.28125 13.890625 
Q 47.125 21.390625 47.125 36.375 
Q 47.125 51.421875 43.28125 58.90625 
Q 39.453125 66.40625 31.78125 66.40625 
z
M 31.78125 74.21875 
Q 44.046875 74.21875 50.515625 64.515625 
Q 56.984375 54.828125 56.984375 36.375 
Q 56.984375 17.96875 50.515625 8.265625 
Q 44.046875 -1.421875 31.78125 -1.421875 
Q 19.53125 -1.421875 13.0625 8.265625 
Q 6.59375 17.96875 6.59375 36.375 
Q 6.59375 54.828125 13.0625 64.515625 
Q 19.53125 74.21875 31.78125 74.21875 
z
" id="DejaVuSans-30"/>
       <path d="M 10.6875 12.40625 
L 21 12.40625 
L 21 0 
L 10.6875 0 
z
" id="DejaVuSans-2e"/>
       <path d="M 12.40625 8.296875 
L 28.515625 8.296875 
L 28.515625 63.921875 
L 10.984375 60.40625 
L 10.984375 69.390625 
L 28.421875 72.90625 
L 38.28125 72.90625 
L 38.28125 8.296875 
L 54.390625 8.296875 
L 54.390625 0 
L 12.40625 0 
z
" id="DejaVuSans-31"/>
      </defs>
      <g transform="translate(186.023409 638.893125)rotate(-90)scale(0.42 -0.42)">
       <use xlink:href="#DejaVuSans-30"/>
       <use x="63.623047" xlink:href="#DejaVuSans-2e"/>
       <use x="95.410156" xlink:href="#DejaVuSans-31"/>
      </g>
     </g>
    </g>
    <g id="xtick_2">
     <g id="line2d_2">
      <g>
       <use style="stroke:#000000;" x="351.979489" xlink:href="#m7f98496772" y="565.1"/>
      </g>
     </g>
     <g id="text_2">
      <!-- 0.2 -->
      <defs>
       <path d="M 19.1875 8.296875 
L 53.609375 8.296875 
L 53.609375 0 
L 7.328125 0 
L 7.328125 8.296875 
Q 12.9375 14.109375 22.625 23.890625 
Q 32.328125 33.6875 34.8125 36.53125 
Q 39.546875 41.84375 41.421875 45.53125 
Q 43.3125 49.21875 43.3125 52.78125 
Q 43.3125 58.59375 39.234375 62.25 
Q 35.15625 65.921875 28.609375 65.921875 
Q 23.96875 65.921875 18.8125 64.3125 
Q 13.671875 62.703125 7.8125 59.421875 
L 7.8125 69.390625 
Q 13.765625 71.78125 18.9375 73 
Q 24.125 74.21875 28.421875 74.21875 
Q 39.75 74.21875 46.484375 68.546875 
Q 53.21875 62.890625 53.21875 53.421875 
Q 53.21875 48.921875 51.53125 44.890625 
Q 49.859375 40.875 45.40625 35.40625 
Q 44.1875 33.984375 37.640625 27.21875 
Q 31.109375 20.453125 19.1875 8.296875 
z
" id="DejaVuSans-32"/>
      </defs>
      <g transform="translate(363.568864 638.893125)rotate(-90)scale(0.42 -0.42)">
       <use xlink:href="#DejaVuSans-30"/>
       <use x="63.623047" xlink:href="#DejaVuSans-2e"/>
       <use x="95.410156" xlink:href="#DejaVuSans-32"/>
      </g>
     </g>
    </g>
    <g id="xtick_3">
     <g id="line2d_3">
      <g>
       <use style="stroke:#000000;" x="529.524943" xlink:href="#m7f98496772" y="565.1"/>
      </g>
     </g>
     <g id="text_3">
      <!-- 0.3 -->
      <defs>
       <path d="M 40.578125 39.3125 
Q 47.65625 37.796875 51.625 33 
Q 55.609375 28.21875 55.609375 21.1875 
Q 55.609375 10.40625 48.1875 4.484375 
Q 40.765625 -1.421875 27.09375 -1.421875 
Q 22.515625 -1.421875 17.65625 -0.515625 
Q 12.796875 0.390625 7.625 2.203125 
L 7.625 11.71875 
Q 11.71875 9.328125 16.59375 8.109375 
Q 21.484375 6.890625 26.8125 6.890625 
Q 36.078125 6.890625 40.9375 10.546875 
Q 45.796875 14.203125 45.796875 21.1875 
Q 45.796875 27.640625 41.28125 31.265625 
Q 36.765625 34.90625 28.71875 34.90625 
L 20.21875 34.90625 
L 20.21875 43.015625 
L 29.109375 43.015625 
Q 36.375 43.015625 40.234375 45.921875 
Q 44.09375 48.828125 44.09375 54.296875 
Q 44.09375 59.90625 40.109375 62.90625 
Q 36.140625 65.921875 28.71875 65.921875 
Q 24.65625 65.921875 20.015625 65.03125 
Q 15.375 64.15625 9.8125 62.3125 
L 9.8125 71.09375 
Q 15.4375 72.65625 20.34375 73.4375 
Q 25.25 74.21875 29.59375 74.21875 
Q 40.828125 74.21875 47.359375 69.109375 
Q 53.90625 64.015625 53.90625 55.328125 
Q 53.90625 49.265625 50.4375 45.09375 
Q 46.96875 40.921875 40.578125 39.3125 
z
" id="DejaVuSans-33"/>
      </defs>
      <g transform="translate(541.114318 638.893125)rotate(-90)scale(0.42 -0.42)">
       <use xlink:href="#DejaVuSans-30"/>
       <use x="63.623047" xlink:href="#DejaVuSans-2e"/>
       <use x="95.410156" xlink:href="#DejaVuSans-33"/>
      </g>
     </g>
    </g>
    <g id="xtick_4">
     <g id="line2d_4">
      <g>
       <use style="stroke:#000000;" x="707.070398" xlink:href="#m7f98496772" y="565.1"/>
      </g>
     </g>
     <g id="text_4">
      <!-- 0.4 -->
      <defs>
       <path d="M 37.796875 64.3125 
L 12.890625 25.390625 
L 37.796875 25.390625 
z
M 35.203125 72.90625 
L 47.609375 72.90625 
L 47.609375 25.390625 
L 58.015625 25.390625 
L 58.015625 17.1875 
L 47.609375 17.1875 
L 47.609375 0 
L 37.796875 0 
L 37.796875 17.1875 
L 4.890625 17.1875 
L 4.890625 26.703125 
z
" id="DejaVuSans-34"/>
      </defs>
      <g transform="translate(718.659773 638.893125)rotate(-90)scale(0.42 -0.42)">
       <use xlink:href="#DejaVuSans-30"/>
       <use x="63.623047" xlink:href="#DejaVuSans-2e"/>
       <use x="95.410156" xlink:href="#DejaVuSans-34"/>
      </g>
     </g>
    </g>
    <g id="xtick_5">
     <g id="line2d_5">
      <g>
       <use style="stroke:#000000;" x="884.615852" xlink:href="#m7f98496772" y="565.1"/>
      </g>
     </g>
     <g id="text_5">
      <!-- 0.5 -->
      <defs>
       <path d="M 10.796875 72.90625 
L 49.515625 72.90625 
L 49.515625 64.59375 
L 19.828125 64.59375 
L 19.828125 46.734375 
Q 21.96875 47.46875 24.109375 47.828125 
Q 26.265625 48.1875 28.421875 48.1875 
Q 40.625 48.1875 47.75 41.5 
Q 54.890625 34.8125 54.890625 23.390625 
Q 54.890625 11.625 47.5625 5.09375 
Q 40.234375 -1.421875 26.90625 -1.421875 
Q 22.3125 -1.421875 17.546875 -0.640625 
Q 12.796875 0.140625 7.71875 1.703125 
L 7.71875 11.625 
Q 12.109375 9.234375 16.796875 8.0625 
Q 21.484375 6.890625 26.703125 6.890625 
Q 35.15625 6.890625 40.078125 11.328125 
Q 45.015625 15.765625 45.015625 23.390625 
Q 45.015625 31 40.078125 35.4375 
Q 35.15625 39.890625 26.703125 39.890625 
Q 22.75 39.890625 18.8125 39.015625 
Q 14.890625 38.140625 10.796875 36.28125 
z
" id="DejaVuSans-35"/>
      </defs>
      <g transform="translate(896.205227 638.893125)rotate(-90)scale(0.42 -0.42)">
       <use xlink:href="#DejaVuSans-30"/>
       <use x="63.623047" xlink:href="#DejaVuSans-2e"/>
       <use x="95.410156" xlink:href="#DejaVuSans-35"/>
      </g>
     </g>
    </g>
    <g id="text_6">
     <!-- Underlying $\Psi$ -->
     <defs>
      <path d="M 8.6875 72.90625 
L 18.609375 72.90625 
L 18.609375 28.609375 
Q 18.609375 16.890625 22.84375 11.734375 
Q 27.09375 6.59375 36.625 6.59375 
Q 46.09375 6.59375 50.34375 11.734375 
Q 54.59375 16.890625 54.59375 28.609375 
L 54.59375 72.90625 
L 64.5 72.90625 
L 64.5 27.390625 
Q 64.5 13.140625 57.4375 5.859375 
Q 50.390625 -1.421875 36.625 -1.421875 
Q 22.796875 -1.421875 15.734375 5.859375 
Q 8.6875 13.140625 8.6875 27.390625 
z
" id="DejaVuSans-55"/>
      <path d="M 54.890625 33.015625 
L 54.890625 0 
L 45.90625 0 
L 45.90625 32.71875 
Q 45.90625 40.484375 42.875 44.328125 
Q 39.84375 48.1875 33.796875 48.1875 
Q 26.515625 48.1875 22.3125 43.546875 
Q 18.109375 38.921875 18.109375 30.90625 
L 18.109375 0 
L 9.078125 0 
L 9.078125 54.6875 
L 18.109375 54.6875 
L 18.109375 46.1875 
Q 21.34375 51.125 25.703125 53.5625 
Q 30.078125 56 35.796875 56 
Q 45.21875 56 50.046875 50.171875 
Q 54.890625 44.34375 54.890625 33.015625 
z
" id="DejaVuSans-6e"/>
      <path d="M 45.40625 46.390625 
L 45.40625 75.984375 
L 54.390625 75.984375 
L 54.390625 0 
L 45.40625 0 
L 45.40625 8.203125 
Q 42.578125 3.328125 38.25 0.953125 
Q 33.9375 -1.421875 27.875 -1.421875 
Q 17.96875 -1.421875 11.734375 6.484375 
Q 5.515625 14.40625 5.515625 27.296875 
Q 5.515625 40.1875 11.734375 48.09375 
Q 17.96875 56 27.875 56 
Q 33.9375 56 38.25 53.625 
Q 42.578125 51.265625 45.40625 46.390625 
z
M 14.796875 27.296875 
Q 14.796875 17.390625 18.875 11.75 
Q 22.953125 6.109375 30.078125 6.109375 
Q 37.203125 6.109375 41.296875 11.75 
Q 45.40625 17.390625 45.40625 27.296875 
Q 45.40625 37.203125 41.296875 42.84375 
Q 37.203125 48.484375 30.078125 48.484375 
Q 22.953125 48.484375 18.875 42.84375 
Q 14.796875 37.203125 14.796875 27.296875 
z
" id="DejaVuSans-64"/>
      <path d="M 56.203125 29.59375 
L 56.203125 25.203125 
L 14.890625 25.203125 
Q 15.484375 15.921875 20.484375 11.0625 
Q 25.484375 6.203125 34.421875 6.203125 
Q 39.59375 6.203125 44.453125 7.46875 
Q 49.3125 8.734375 54.109375 11.28125 
L 54.109375 2.78125 
Q 49.265625 0.734375 44.1875 -0.34375 
Q 39.109375 -1.421875 33.890625 -1.421875 
Q 20.796875 -1.421875 13.15625 6.1875 
Q 5.515625 13.8125 5.515625 26.8125 
Q 5.515625 40.234375 12.765625 48.109375 
Q 20.015625 56 32.328125 56 
Q 43.359375 56 49.78125 48.890625 
Q 56.203125 41.796875 56.203125 29.59375 
z
M 47.21875 32.234375 
Q 47.125 39.59375 43.09375 43.984375 
Q 39.0625 48.390625 32.421875 48.390625 
Q 24.90625 48.390625 20.390625 44.140625 
Q 15.875 39.890625 15.1875 32.171875 
z
" id="DejaVuSans-65"/>
      <path d="M 41.109375 46.296875 
Q 39.59375 47.171875 37.8125 47.578125 
Q 36.03125 48 33.890625 48 
Q 26.265625 48 22.1875 43.046875 
Q 18.109375 38.09375 18.109375 28.8125 
L 18.109375 0 
L 9.078125 0 
L 9.078125 54.6875 
L 18.109375 54.6875 
L 18.109375 46.1875 
Q 20.953125 51.171875 25.484375 53.578125 
Q 30.03125 56 36.53125 56 
Q 37.453125 56 38.578125 55.875 
Q 39.703125 55.765625 41.0625 55.515625 
z
" id="DejaVuSans-72"/>
      <path d="M 9.421875 75.984375 
L 18.40625 75.984375 
L 18.40625 0 
L 9.421875 0 
z
" id="DejaVuSans-6c"/>
      <path d="M 32.171875 -5.078125 
Q 28.375 -14.84375 24.75 -17.8125 
Q 21.140625 -20.796875 15.09375 -20.796875 
L 7.90625 -20.796875 
L 7.90625 -13.28125 
L 13.1875 -13.28125 
Q 16.890625 -13.28125 18.9375 -11.515625 
Q 21 -9.765625 23.484375 -3.21875 
L 25.09375 0.875 
L 2.984375 54.6875 
L 12.5 54.6875 
L 29.59375 11.921875 
L 46.6875 54.6875 
L 56.203125 54.6875 
z
" id="DejaVuSans-79"/>
      <path d="M 9.421875 54.6875 
L 18.40625 54.6875 
L 18.40625 0 
L 9.421875 0 
z
M 9.421875 75.984375 
L 18.40625 75.984375 
L 18.40625 64.59375 
L 9.421875 64.59375 
z
" id="DejaVuSans-69"/>
      <path d="M 45.40625 27.984375 
Q 45.40625 37.75 41.375 43.109375 
Q 37.359375 48.484375 30.078125 48.484375 
Q 22.859375 48.484375 18.828125 43.109375 
Q 14.796875 37.75 14.796875 27.984375 
Q 14.796875 18.265625 18.828125 12.890625 
Q 22.859375 7.515625 30.078125 7.515625 
Q 37.359375 7.515625 41.375 12.890625 
Q 45.40625 18.265625 45.40625 27.984375 
z
M 54.390625 6.78125 
Q 54.390625 -7.171875 48.1875 -13.984375 
Q 42 -20.796875 29.203125 -20.796875 
Q 24.46875 -20.796875 20.265625 -20.09375 
Q 16.0625 -19.390625 12.109375 -17.921875 
L 12.109375 -9.1875 
Q 16.0625 -11.328125 19.921875 -12.34375 
Q 23.78125 -13.375 27.78125 -13.375 
Q 36.625 -13.375 41.015625 -8.765625 
Q 45.40625 -4.15625 45.40625 5.171875 
L 45.40625 9.625 
Q 42.625 4.78125 38.28125 2.390625 
Q 33.9375 0 27.875 0 
Q 17.828125 0 11.671875 7.65625 
Q 5.515625 15.328125 5.515625 27.984375 
Q 5.515625 40.671875 11.671875 48.328125 
Q 17.828125 56 27.875 56 
Q 33.9375 56 38.28125 53.609375 
Q 42.625 51.21875 45.40625 46.390625 
L 45.40625 54.6875 
L 54.390625 54.6875 
z
" id="DejaVuSans-67"/>
      <path id="DejaVuSans-20"/>
      <path d="M 72.40625 69 
L 72.40625 67.09375 
Q 69.796875 66.59375 68.75 63.34375 
Q 67.703125 60.09375 67.703125 56.703125 
Q 67.703125 55.203125 67.890625 52.203125 
Q 68.09375 49.203125 68.09375 47.703125 
Q 68.09375 40.59375 64.34375 35.796875 
Q 60.59375 31 55 29 
Q 49.40625 27 42.40625 27 
L 42.40625 11.09375 
Q 42.40625 5.296875 44.546875 3.6875 
Q 46.703125 2.09375 52.703125 1.90625 
L 52.703125 0 
L 22.09375 0 
L 22.09375 1.90625 
Q 28.59375 2.203125 30.390625 4.046875 
Q 32.203125 5.90625 32.203125 12.40625 
L 32.203125 27 
Q 25.203125 27 19.59375 29 
Q 14 31 10.25 35.796875 
Q 6.5 40.59375 6.5 47.703125 
Q 6.5 49.203125 6.703125 52.203125 
Q 6.90625 55.203125 6.90625 56.703125 
Q 6.90625 60.09375 5.84375 63.34375 
Q 4.796875 66.59375 2.203125 67.09375 
L 2.203125 69 
Q 17.703125 69 17.703125 50.90625 
Q 17.703125 47.59375 17.890625 45.09375 
Q 18.09375 42.59375 18.9375 39.75 
Q 19.796875 36.90625 21.140625 35.046875 
Q 22.5 33.203125 25.046875 31.953125 
Q 27.59375 30.703125 31.09375 30.703125 
L 32.203125 30.703125 
L 32.203125 56.203125 
Q 32.203125 61.09375 29.75 62.6875 
Q 27.296875 64.296875 22.09375 64.296875 
L 22.09375 66.203125 
L 52.703125 66.203125 
L 52.703125 64.296875 
Q 47.296875 64.296875 44.84375 62.796875 
Q 42.40625 61.296875 42.40625 56.203125 
L 42.40625 30.703125 
L 43.5 30.703125 
Q 47 30.703125 49.546875 31.953125 
Q 52.09375 33.203125 53.4375 35.046875 
Q 54.796875 36.90625 55.640625 39.75 
Q 56.5 42.59375 56.703125 45.09375 
Q 56.90625 47.59375 56.90625 50.90625 
Q 56.90625 69 72.40625 69 
z
" id="STIXGeneral-Regular-3a8"/>
     </defs>
     <g transform="translate(366.183125 674.813125)scale(0.42 -0.42)">
      <use transform="translate(0 0.015625)" xlink:href="#DejaVuSans-55"/>
      <use transform="translate(73.193359 0.015625)" xlink:href="#DejaVuSans-6e"/>
      <use transform="translate(136.572266 0.015625)" xlink:href="#DejaVuSans-64"/>
      <use transform="translate(200.048828 0.015625)" xlink:href="#DejaVuSans-65"/>
      <use transform="translate(261.572266 0.015625)" xlink:href="#DejaVuSans-72"/>
      <use transform="translate(302.685547 0.015625)" xlink:href="#DejaVuSans-6c"/>
      <use transform="translate(330.46875 0.015625)" xlink:href="#DejaVuSans-79"/>
      <use transform="translate(389.648438 0.015625)" xlink:href="#DejaVuSans-69"/>
      <use transform="translate(417.431641 0.015625)" xlink:href="#DejaVuSans-6e"/>
      <use transform="translate(480.810547 0.015625)" xlink:href="#DejaVuSans-67"/>
      <use transform="translate(544.287109 0.015625)" xlink:href="#DejaVuSans-20"/>
      <use transform="translate(576.074219 0.015625)" xlink:href="#STIXGeneral-Regular-3a8"/>
     </g>
    </g>
   </g>
   <g id="matplotlib.axis_2">
    <g id="ytick_1">
     <g id="line2d_6">
      <defs>
       <path d="M 0 0 
L -3.5 0 
" id="m6bdb31edb4" style="stroke:#000000;"/>
      </defs>
      <g>
       <use style="stroke:#000000;" x="112.293125" xlink:href="#m6bdb31edb4" y="533.224503"/>
      </g>
     </g>
     <g id="text_7">
      <!-- 5 -->
      <g transform="translate(78.570625 549.181222)scale(0.42 -0.42)">
       <use xlink:href="#DejaVuSans-35"/>
      </g>
     </g>
    </g>
    <g id="ytick_2">
     <g id="line2d_7">
      <g>
       <use style="stroke:#000000;" x="112.293125" xlink:href="#m6bdb31edb4" y="366.337086"/>
      </g>
     </g>
     <g id="text_8">
      <!-- 10 -->
      <g transform="translate(51.848125 382.293805)scale(0.42 -0.42)">
       <use xlink:href="#DejaVuSans-31"/>
       <use x="63.623047" xlink:href="#DejaVuSans-30"/>
      </g>
     </g>
    </g>
    <g id="ytick_3">
     <g id="line2d_8">
      <g>
       <use style="stroke:#000000;" x="112.293125" xlink:href="#m6bdb31edb4" y="199.449669"/>
      </g>
     </g>
     <g id="text_9">
      <!-- 15 -->
      <g transform="translate(51.848125 215.406388)scale(0.42 -0.42)">
       <use xlink:href="#DejaVuSans-31"/>
       <use x="63.623047" xlink:href="#DejaVuSans-35"/>
      </g>
     </g>
    </g>
    <g id="ytick_4">
     <g id="line2d_9">
      <g>
       <use style="stroke:#000000;" x="112.293125" xlink:href="#m6bdb31edb4" y="32.562252"/>
      </g>
     </g>
     <g id="text_10">
      <!-- 20 -->
      <g transform="translate(51.848125 48.51897)scale(0.42 -0.42)">
       <use xlink:href="#DejaVuSans-32"/>
       <use x="63.623047" xlink:href="#DejaVuSans-30"/>
      </g>
     </g>
    </g>
    <g id="text_11">
     <!-- mRNAs at inflection point -->
     <defs>
      <path d="M 52 44.1875 
Q 55.375 50.25 60.0625 53.125 
Q 64.75 56 71.09375 56 
Q 79.640625 56 84.28125 50.015625 
Q 88.921875 44.046875 88.921875 33.015625 
L 88.921875 0 
L 79.890625 0 
L 79.890625 32.71875 
Q 79.890625 40.578125 77.09375 44.375 
Q 74.3125 48.1875 68.609375 48.1875 
Q 61.625 48.1875 57.5625 43.546875 
Q 53.515625 38.921875 53.515625 30.90625 
L 53.515625 0 
L 44.484375 0 
L 44.484375 32.71875 
Q 44.484375 40.625 41.703125 44.40625 
Q 38.921875 48.1875 33.109375 48.1875 
Q 26.21875 48.1875 22.15625 43.53125 
Q 18.109375 38.875 18.109375 30.90625 
L 18.109375 0 
L 9.078125 0 
L 9.078125 54.6875 
L 18.109375 54.6875 
L 18.109375 46.1875 
Q 21.1875 51.21875 25.484375 53.609375 
Q 29.78125 56 35.6875 56 
Q 41.65625 56 45.828125 52.96875 
Q 50 49.953125 52 44.1875 
z
" id="DejaVuSans-6d"/>
      <path d="M 44.390625 34.1875 
Q 47.5625 33.109375 50.5625 29.59375 
Q 53.5625 26.078125 56.59375 19.921875 
L 66.609375 0 
L 56 0 
L 46.6875 18.703125 
Q 43.0625 26.03125 39.671875 28.421875 
Q 36.28125 30.8125 30.421875 30.8125 
L 19.671875 30.8125 
L 19.671875 0 
L 9.8125 0 
L 9.8125 72.90625 
L 32.078125 72.90625 
Q 44.578125 72.90625 50.734375 67.671875 
Q 56.890625 62.453125 56.890625 51.90625 
Q 56.890625 45.015625 53.6875 40.46875 
Q 50.484375 35.9375 44.390625 34.1875 
z
M 19.671875 64.796875 
L 19.671875 38.921875 
L 32.078125 38.921875 
Q 39.203125 38.921875 42.84375 42.21875 
Q 46.484375 45.515625 46.484375 51.90625 
Q 46.484375 58.296875 42.84375 61.546875 
Q 39.203125 64.796875 32.078125 64.796875 
z
" id="DejaVuSans-52"/>
      <path d="M 9.8125 72.90625 
L 23.09375 72.90625 
L 55.421875 11.921875 
L 55.421875 72.90625 
L 64.984375 72.90625 
L 64.984375 0 
L 51.703125 0 
L 19.390625 60.984375 
L 19.390625 0 
L 9.8125 0 
z
" id="DejaVuSans-4e"/>
      <path d="M 34.1875 63.1875 
L 20.796875 26.90625 
L 47.609375 26.90625 
z
M 28.609375 72.90625 
L 39.796875 72.90625 
L 67.578125 0 
L 57.328125 0 
L 50.6875 18.703125 
L 17.828125 18.703125 
L 11.1875 0 
L 0.78125 0 
z
" id="DejaVuSans-41"/>
      <path d="M 44.28125 53.078125 
L 44.28125 44.578125 
Q 40.484375 46.53125 36.375 47.5 
Q 32.28125 48.484375 27.875 48.484375 
Q 21.1875 48.484375 17.84375 46.4375 
Q 14.5 44.390625 14.5 40.28125 
Q 14.5 37.15625 16.890625 35.375 
Q 19.28125 33.59375 26.515625 31.984375 
L 29.59375 31.296875 
Q 39.15625 29.25 43.1875 25.515625 
Q 47.21875 21.78125 47.21875 15.09375 
Q 47.21875 7.46875 41.1875 3.015625 
Q 35.15625 -1.421875 24.609375 -1.421875 
Q 20.21875 -1.421875 15.453125 -0.5625 
Q 10.6875 0.296875 5.421875 2 
L 5.421875 11.28125 
Q 10.40625 8.6875 15.234375 7.390625 
Q 20.0625 6.109375 24.8125 6.109375 
Q 31.15625 6.109375 34.5625 8.28125 
Q 37.984375 10.453125 37.984375 14.40625 
Q 37.984375 18.0625 35.515625 20.015625 
Q 33.0625 21.96875 24.703125 23.78125 
L 21.578125 24.515625 
Q 13.234375 26.265625 9.515625 29.90625 
Q 5.8125 33.546875 5.8125 39.890625 
Q 5.8125 47.609375 11.28125 51.796875 
Q 16.75 56 26.8125 56 
Q 31.78125 56 36.171875 55.265625 
Q 40.578125 54.546875 44.28125 53.078125 
z
" id="DejaVuSans-73"/>
      <path d="M 34.28125 27.484375 
Q 23.390625 27.484375 19.1875 25 
Q 14.984375 22.515625 14.984375 16.5 
Q 14.984375 11.71875 18.140625 8.90625 
Q 21.296875 6.109375 26.703125 6.109375 
Q 34.1875 6.109375 38.703125 11.40625 
Q 43.21875 16.703125 43.21875 25.484375 
L 43.21875 27.484375 
z
M 52.203125 31.203125 
L 52.203125 0 
L 43.21875 0 
L 43.21875 8.296875 
Q 40.140625 3.328125 35.546875 0.953125 
Q 30.953125 -1.421875 24.3125 -1.421875 
Q 15.921875 -1.421875 10.953125 3.296875 
Q 6 8.015625 6 15.921875 
Q 6 25.140625 12.171875 29.828125 
Q 18.359375 34.515625 30.609375 34.515625 
L 43.21875 34.515625 
L 43.21875 35.40625 
Q 43.21875 41.609375 39.140625 45 
Q 35.0625 48.390625 27.6875 48.390625 
Q 23 48.390625 18.546875 47.265625 
Q 14.109375 46.140625 10.015625 43.890625 
L 10.015625 52.203125 
Q 14.9375 54.109375 19.578125 55.046875 
Q 24.21875 56 28.609375 56 
Q 40.484375 56 46.34375 49.84375 
Q 52.203125 43.703125 52.203125 31.203125 
z
" id="DejaVuSans-61"/>
      <path d="M 18.3125 70.21875 
L 18.3125 54.6875 
L 36.8125 54.6875 
L 36.8125 47.703125 
L 18.3125 47.703125 
L 18.3125 18.015625 
Q 18.3125 11.328125 20.140625 9.421875 
Q 21.96875 7.515625 27.59375 7.515625 
L 36.8125 7.515625 
L 36.8125 0 
L 27.59375 0 
Q 17.1875 0 13.234375 3.875 
Q 9.28125 7.765625 9.28125 18.015625 
L 9.28125 47.703125 
L 2.6875 47.703125 
L 2.6875 54.6875 
L 9.28125 54.6875 
L 9.28125 70.21875 
z
" id="DejaVuSans-74"/>
      <path d="M 37.109375 75.984375 
L 37.109375 68.5 
L 28.515625 68.5 
Q 23.6875 68.5 21.796875 66.546875 
Q 19.921875 64.59375 19.921875 59.515625 
L 19.921875 54.6875 
L 34.71875 54.6875 
L 34.71875 47.703125 
L 19.921875 47.703125 
L 19.921875 0 
L 10.890625 0 
L 10.890625 47.703125 
L 2.296875 47.703125 
L 2.296875 54.6875 
L 10.890625 54.6875 
L 10.890625 58.5 
Q 10.890625 67.625 15.140625 71.796875 
Q 19.390625 75.984375 28.609375 75.984375 
z
" id="DejaVuSans-66"/>
      <path d="M 48.78125 52.59375 
L 48.78125 44.1875 
Q 44.96875 46.296875 41.140625 47.34375 
Q 37.3125 48.390625 33.40625 48.390625 
Q 24.65625 48.390625 19.8125 42.84375 
Q 14.984375 37.3125 14.984375 27.296875 
Q 14.984375 17.28125 19.8125 11.734375 
Q 24.65625 6.203125 33.40625 6.203125 
Q 37.3125 6.203125 41.140625 7.25 
Q 44.96875 8.296875 48.78125 10.40625 
L 48.78125 2.09375 
Q 45.015625 0.34375 40.984375 -0.53125 
Q 36.96875 -1.421875 32.421875 -1.421875 
Q 20.0625 -1.421875 12.78125 6.34375 
Q 5.515625 14.109375 5.515625 27.296875 
Q 5.515625 40.671875 12.859375 48.328125 
Q 20.21875 56 33.015625 56 
Q 37.15625 56 41.109375 55.140625 
Q 45.0625 54.296875 48.78125 52.59375 
z
" id="DejaVuSans-63"/>
      <path d="M 30.609375 48.390625 
Q 23.390625 48.390625 19.1875 42.75 
Q 14.984375 37.109375 14.984375 27.296875 
Q 14.984375 17.484375 19.15625 11.84375 
Q 23.34375 6.203125 30.609375 6.203125 
Q 37.796875 6.203125 41.984375 11.859375 
Q 46.1875 17.53125 46.1875 27.296875 
Q 46.1875 37.015625 41.984375 42.703125 
Q 37.796875 48.390625 30.609375 48.390625 
z
M 30.609375 56 
Q 42.328125 56 49.015625 48.375 
Q 55.71875 40.765625 55.71875 27.296875 
Q 55.71875 13.875 49.015625 6.21875 
Q 42.328125 -1.421875 30.609375 -1.421875 
Q 18.84375 -1.421875 12.171875 6.21875 
Q 5.515625 13.875 5.515625 27.296875 
Q 5.515625 40.765625 12.171875 48.375 
Q 18.84375 56 30.609375 56 
z
" id="DejaVuSans-6f"/>
      <path d="M 18.109375 8.203125 
L 18.109375 -20.796875 
L 9.078125 -20.796875 
L 9.078125 54.6875 
L 18.109375 54.6875 
L 18.109375 46.390625 
Q 20.953125 51.265625 25.265625 53.625 
Q 29.59375 56 35.59375 56 
Q 45.5625 56 51.78125 48.09375 
Q 58.015625 40.1875 58.015625 27.296875 
Q 58.015625 14.40625 51.78125 6.484375 
Q 45.5625 -1.421875 35.59375 -1.421875 
Q 29.59375 -1.421875 25.265625 0.953125 
Q 20.953125 3.328125 18.109375 8.203125 
z
M 48.6875 27.296875 
Q 48.6875 37.203125 44.609375 42.84375 
Q 40.53125 48.484375 33.40625 48.484375 
Q 26.265625 48.484375 22.1875 42.84375 
Q 18.109375 37.203125 18.109375 27.296875 
Q 18.109375 17.390625 22.1875 11.75 
Q 26.265625 6.109375 33.40625 6.109375 
Q 40.53125 6.109375 44.609375 11.75 
Q 48.6875 17.390625 48.6875 27.296875 
z
" id="DejaVuSans-70"/>
     </defs>
     <g transform="translate(39.113437 555.705781)rotate(-90)scale(0.42 -0.42)">
      <use xlink:href="#DejaVuSans-6d"/>
      <use x="97.412109" xlink:href="#DejaVuSans-52"/>
      <use x="166.894531" xlink:href="#DejaVuSans-4e"/>
      <use x="241.699219" xlink:href="#DejaVuSans-41"/>
      <use x="310.107422" xlink:href="#DejaVuSans-73"/>
      <use x="362.207031" xlink:href="#DejaVuSans-20"/>
      <use x="393.994141" xlink:href="#DejaVuSans-61"/>
      <use x="455.273438" xlink:href="#DejaVuSans-74"/>
      <use x="494.482422" xlink:href="#DejaVuSans-20"/>
      <use x="526.269531" xlink:href="#DejaVuSans-69"/>
      <use x="554.052734" xlink:href="#DejaVuSans-6e"/>
      <use x="617.431641" xlink:href="#DejaVuSans-66"/>
      <use x="652.636719" xlink:href="#DejaVuSans-6c"/>
      <use x="680.419922" xlink:href="#DejaVuSans-65"/>
      <use x="741.943359" xlink:href="#DejaVuSans-63"/>
      <use x="796.923828" xlink:href="#DejaVuSans-74"/>
      <use x="836.132812" xlink:href="#DejaVuSans-69"/>
      <use x="863.916016" xlink:href="#DejaVuSans-6f"/>
      <use x="925.097656" xlink:href="#DejaVuSans-6e"/>
      <use x="988.476562" xlink:href="#DejaVuSans-20"/>
      <use x="1020.263672" xlink:href="#DejaVuSans-70"/>
      <use x="1083.740234" xlink:href="#DejaVuSans-6f"/>
      <use x="1144.921875" xlink:href="#DejaVuSans-69"/>
      <use x="1172.705078" xlink:href="#DejaVuSans-6e"/>
      <use x="1236.083984" xlink:href="#DejaVuSans-74"/>
     </g>
    </g>
   </g>
   <g id="line2d_10">
    <path clip-path="url(#p4fde53968c)" d="M 116.731761 85.966225 
L 125.609034 85.966225 
L 125.609034 49.250993 
L 116.731761 49.250993 
L 116.731761 85.966225 
" style="fill:none;stroke:#00008b;stroke-linecap:square;"/>
   </g>
   <g id="line2d_11">
    <path clip-path="url(#p4fde53968c)" d="M 121.170398 85.966225 
L 121.170398 116.00596 
" style="fill:none;stroke:#00008b;stroke-dasharray:3.7,1.6;stroke-dashoffset:0;"/>
   </g>
   <g id="line2d_12">
    <path clip-path="url(#p4fde53968c)" d="M 121.170398 49.250993 
L 121.170398 35.9 
" style="fill:none;stroke:#00008b;stroke-dasharray:3.7,1.6;stroke-dashoffset:0;"/>
   </g>
   <g id="line2d_13">
    <path clip-path="url(#p4fde53968c)" d="M 118.95108 116.00596 
L 123.389716 116.00596 
" style="fill:none;stroke:#000000;stroke-linecap:square;"/>
   </g>
   <g id="line2d_14">
    <path clip-path="url(#p4fde53968c)" d="M 118.95108 35.9 
L 123.389716 35.9 
" style="fill:none;stroke:#000000;stroke-linecap:square;"/>
   </g>
   <g id="line2d_15">
    <path clip-path="url(#p4fde53968c)" d="M 134.486307 134.363576 
L 143.36358 134.363576 
L 143.36358 67.608609 
L 134.486307 67.608609 
L 134.486307 134.363576 
" style="fill:none;stroke:#00008b;stroke-linecap:square;"/>
   </g>
   <g id="line2d_16">
    <path clip-path="url(#p4fde53968c)" d="M 138.924943 134.363576 
L 138.924943 186.098675 
" style="fill:none;stroke:#00008b;stroke-dasharray:3.7,1.6;stroke-dashoffset:0;"/>
   </g>
   <g id="line2d_17">
    <path clip-path="url(#p4fde53968c)" d="M 138.924943 67.608609 
L 138.924943 35.9 
" style="fill:none;stroke:#00008b;stroke-dasharray:3.7,1.6;stroke-dashoffset:0;"/>
   </g>
   <g id="line2d_18">
    <path clip-path="url(#p4fde53968c)" d="M 136.705625 186.098675 
L 141.144261 186.098675 
" style="fill:none;stroke:#000000;stroke-linecap:square;"/>
   </g>
   <g id="line2d_19">
    <path clip-path="url(#p4fde53968c)" d="M 136.705625 35.9 
L 141.144261 35.9 
" style="fill:none;stroke:#000000;stroke-linecap:square;"/>
   </g>
   <g id="line2d_20">
    <path clip-path="url(#p4fde53968c)" d="M 152.240852 182.760927 
L 161.118125 182.760927 
L 161.118125 104.323841 
L 152.240852 104.323841 
L 152.240852 182.760927 
" style="fill:none;stroke:#00008b;stroke-linecap:square;"/>
   </g>
   <g id="line2d_21">
    <path clip-path="url(#p4fde53968c)" d="M 156.679489 182.760927 
L 156.679489 226.151656 
" style="fill:none;stroke:#00008b;stroke-dasharray:3.7,1.6;stroke-dashoffset:0;"/>
   </g>
   <g id="line2d_22">
    <path clip-path="url(#p4fde53968c)" d="M 156.679489 104.323841 
L 156.679489 39.237748 
" style="fill:none;stroke:#00008b;stroke-dasharray:3.7,1.6;stroke-dashoffset:0;"/>
   </g>
   <g id="line2d_23">
    <path clip-path="url(#p4fde53968c)" d="M 154.46017 226.151656 
L 158.898807 226.151656 
" style="fill:none;stroke:#000000;stroke-linecap:square;"/>
   </g>
   <g id="line2d_24">
    <path clip-path="url(#p4fde53968c)" d="M 154.46017 39.237748 
L 158.898807 39.237748 
" style="fill:none;stroke:#000000;stroke-linecap:square;"/>
   </g>
   <g id="line2d_25">
    <path clip-path="url(#p4fde53968c)" d="M 169.995398 220.310596 
L 178.87267 220.310596 
L 178.87267 148.549007 
L 169.995398 148.549007 
L 169.995398 220.310596 
" style="fill:none;stroke:#00008b;stroke-linecap:square;"/>
   </g>
   <g id="line2d_26">
    <path clip-path="url(#p4fde53968c)" d="M 174.434034 220.310596 
L 174.434034 282.893377 
" style="fill:none;stroke:#00008b;stroke-dasharray:3.7,1.6;stroke-dashoffset:0;"/>
   </g>
   <g id="line2d_27">
    <path clip-path="url(#p4fde53968c)" d="M 174.434034 148.549007 
L 174.434034 89.303974 
" style="fill:none;stroke:#00008b;stroke-dasharray:3.7,1.6;stroke-dashoffset:0;"/>
   </g>
   <g id="line2d_28">
    <path clip-path="url(#p4fde53968c)" d="M 172.214716 282.893377 
L 176.653352 282.893377 
" style="fill:none;stroke:#000000;stroke-linecap:square;"/>
   </g>
   <g id="line2d_29">
    <path clip-path="url(#p4fde53968c)" d="M 172.214716 89.303974 
L 176.653352 89.303974 
" style="fill:none;stroke:#000000;stroke-linecap:square;"/>
   </g>
   <g id="line2d_30">
    <path clip-path="url(#p4fde53968c)" d="M 187.749943 267.039073 
L 196.627216 267.039073 
L 196.627216 201.95298 
L 187.749943 201.95298 
L 187.749943 267.039073 
" style="fill:none;stroke:#00008b;stroke-linecap:square;"/>
   </g>
   <g id="line2d_31">
    <path clip-path="url(#p4fde53968c)" d="M 192.18858 267.039073 
L 192.18858 306.257616 
" style="fill:none;stroke:#00008b;stroke-dasharray:3.7,1.6;stroke-dashoffset:0;"/>
   </g>
   <g id="line2d_32">
    <path clip-path="url(#p4fde53968c)" d="M 192.18858 201.95298 
L 192.18858 156.05894 
" style="fill:none;stroke:#00008b;stroke-dasharray:3.7,1.6;stroke-dashoffset:0;"/>
   </g>
   <g id="line2d_33">
    <path clip-path="url(#p4fde53968c)" d="M 189.969261 306.257616 
L 194.407898 306.257616 
" style="fill:none;stroke:#000000;stroke-linecap:square;"/>
   </g>
   <g id="line2d_34">
    <path clip-path="url(#p4fde53968c)" d="M 189.969261 156.05894 
L 194.407898 156.05894 
" style="fill:none;stroke:#000000;stroke-linecap:square;"/>
   </g>
   <g id="line2d_35">
    <path clip-path="url(#p4fde53968c)" d="M 205.504489 301.250993 
L 214.381761 301.250993 
L 214.381761 237.833775 
L 205.504489 237.833775 
L 205.504489 301.250993 
" style="fill:none;stroke:#00008b;stroke-linecap:square;"/>
   </g>
   <g id="line2d_36">
    <path clip-path="url(#p4fde53968c)" d="M 209.943125 301.250993 
L 209.943125 346.310596 
" style="fill:none;stroke:#00008b;stroke-dasharray:3.7,1.6;stroke-dashoffset:0;"/>
   </g>
   <g id="line2d_37">
    <path clip-path="url(#p4fde53968c)" d="M 209.943125 237.833775 
L 209.943125 176.08543 
" style="fill:none;stroke:#00008b;stroke-dasharray:3.7,1.6;stroke-dashoffset:0;"/>
   </g>
   <g id="line2d_38">
    <path clip-path="url(#p4fde53968c)" d="M 207.723807 346.310596 
L 212.162443 346.310596 
" style="fill:none;stroke:#000000;stroke-linecap:square;"/>
   </g>
   <g id="line2d_39">
    <path clip-path="url(#p4fde53968c)" d="M 207.723807 176.08543 
L 212.162443 176.08543 
" style="fill:none;stroke:#000000;stroke-linecap:square;"/>
   </g>
   <g id="line2d_40">
    <path clip-path="url(#p4fde53968c)" d="M 223.259034 322.111921 
L 232.136307 322.111921 
L 232.136307 263.701325 
L 223.259034 263.701325 
L 223.259034 322.111921 
" style="fill:none;stroke:#00008b;stroke-linecap:square;"/>
   </g>
   <g id="line2d_41">
    <path clip-path="url(#p4fde53968c)" d="M 227.69767 322.111921 
L 227.69767 359.661589 
" style="fill:none;stroke:#00008b;stroke-dasharray:3.7,1.6;stroke-dashoffset:0;"/>
   </g>
   <g id="line2d_42">
    <path clip-path="url(#p4fde53968c)" d="M 227.69767 263.701325 
L 227.69767 219.476159 
" style="fill:none;stroke:#00008b;stroke-dasharray:3.7,1.6;stroke-dashoffset:0;"/>
   </g>
   <g id="line2d_43">
    <path clip-path="url(#p4fde53968c)" d="M 225.478352 359.661589 
L 229.916989 359.661589 
" style="fill:none;stroke:#000000;stroke-linecap:square;"/>
   </g>
   <g id="line2d_44">
    <path clip-path="url(#p4fde53968c)" d="M 225.478352 219.476159 
L 229.916989 219.476159 
" style="fill:none;stroke:#000000;stroke-linecap:square;"/>
   </g>
   <g id="line2d_45">
    <path clip-path="url(#p4fde53968c)" d="M 241.01358 349.648344 
L 249.890852 349.648344 
L 249.890852 282.893377 
L 241.01358 282.893377 
L 241.01358 349.648344 
" style="fill:none;stroke:#00008b;stroke-linecap:square;"/>
   </g>
   <g id="line2d_46">
    <path clip-path="url(#p4fde53968c)" d="M 245.452216 349.648344 
L 245.452216 409.727815 
" style="fill:none;stroke:#00008b;stroke-dasharray:3.7,1.6;stroke-dashoffset:0;"/>
   </g>
   <g id="line2d_47">
    <path clip-path="url(#p4fde53968c)" d="M 245.452216 282.893377 
L 245.452216 212.800662 
" style="fill:none;stroke:#00008b;stroke-dasharray:3.7,1.6;stroke-dashoffset:0;"/>
   </g>
   <g id="line2d_48">
    <path clip-path="url(#p4fde53968c)" d="M 243.232898 409.727815 
L 247.671534 409.727815 
" style="fill:none;stroke:#000000;stroke-linecap:square;"/>
   </g>
   <g id="line2d_49">
    <path clip-path="url(#p4fde53968c)" d="M 243.232898 212.800662 
L 247.671534 212.800662 
" style="fill:none;stroke:#000000;stroke-linecap:square;"/>
   </g>
   <g id="line2d_50">
    <path clip-path="url(#p4fde53968c)" d="M 258.768125 363.833775 
L 267.645398 363.833775 
L 267.645398 305.423179 
L 258.768125 305.423179 
L 258.768125 363.833775 
" style="fill:none;stroke:#00008b;stroke-linecap:square;"/>
   </g>
   <g id="line2d_51">
    <path clip-path="url(#p4fde53968c)" d="M 263.206761 363.833775 
L 263.206761 399.71457 
" style="fill:none;stroke:#00008b;stroke-dasharray:3.7,1.6;stroke-dashoffset:0;"/>
   </g>
   <g id="line2d_52">
    <path clip-path="url(#p4fde53968c)" d="M 263.206761 305.423179 
L 263.206761 259.529139 
" style="fill:none;stroke:#00008b;stroke-dasharray:3.7,1.6;stroke-dashoffset:0;"/>
   </g>
   <g id="line2d_53">
    <path clip-path="url(#p4fde53968c)" d="M 260.987443 399.71457 
L 265.42608 399.71457 
" style="fill:none;stroke:#000000;stroke-linecap:square;"/>
   </g>
   <g id="line2d_54">
    <path clip-path="url(#p4fde53968c)" d="M 260.987443 259.529139 
L 265.42608 259.529139 
" style="fill:none;stroke:#000000;stroke-linecap:square;"/>
   </g>
   <g id="line2d_55">
    <path clip-path="url(#p4fde53968c)" d="M 276.52267 390.535762 
L 285.399943 390.535762 
L 285.399943 345.476159 
L 276.52267 345.476159 
L 276.52267 390.535762 
" style="fill:none;stroke:#00008b;stroke-linecap:square;"/>
   </g>
   <g id="line2d_56">
    <path clip-path="url(#p4fde53968c)" d="M 280.961307 390.535762 
L 280.961307 433.092053 
" style="fill:none;stroke:#00008b;stroke-dasharray:3.7,1.6;stroke-dashoffset:0;"/>
   </g>
   <g id="line2d_57">
    <path clip-path="url(#p4fde53968c)" d="M 280.961307 345.476159 
L 280.961307 306.257616 
" style="fill:none;stroke:#00008b;stroke-dasharray:3.7,1.6;stroke-dashoffset:0;"/>
   </g>
   <g id="line2d_58">
    <path clip-path="url(#p4fde53968c)" d="M 278.741989 433.092053 
L 283.180625 433.092053 
" style="fill:none;stroke:#000000;stroke-linecap:square;"/>
   </g>
   <g id="line2d_59">
    <path clip-path="url(#p4fde53968c)" d="M 278.741989 306.257616 
L 283.180625 306.257616 
" style="fill:none;stroke:#000000;stroke-linecap:square;"/>
   </g>
   <g id="line2d_60">
    <path clip-path="url(#p4fde53968c)" d="M 294.277216 399.71457 
L 303.154489 399.71457 
L 303.154489 347.97947 
L 294.277216 347.97947 
L 294.277216 399.71457 
" style="fill:none;stroke:#00008b;stroke-linecap:square;"/>
   </g>
   <g id="line2d_61">
    <path clip-path="url(#p4fde53968c)" d="M 298.715852 399.71457 
L 298.715852 429.754305 
" style="fill:none;stroke:#00008b;stroke-dasharray:3.7,1.6;stroke-dashoffset:0;"/>
   </g>
   <g id="line2d_62">
    <path clip-path="url(#p4fde53968c)" d="M 298.715852 347.97947 
L 298.715852 319.608609 
" style="fill:none;stroke:#00008b;stroke-dasharray:3.7,1.6;stroke-dashoffset:0;"/>
   </g>
   <g id="line2d_63">
    <path clip-path="url(#p4fde53968c)" d="M 296.496534 429.754305 
L 300.93517 429.754305 
" style="fill:none;stroke:#000000;stroke-linecap:square;"/>
   </g>
   <g id="line2d_64">
    <path clip-path="url(#p4fde53968c)" d="M 296.496534 319.608609 
L 300.93517 319.608609 
" style="fill:none;stroke:#000000;stroke-linecap:square;"/>
   </g>
   <g id="line2d_65">
    <path clip-path="url(#p4fde53968c)" d="M 312.031761 407.224503 
L 320.909034 407.224503 
L 320.909034 362.164901 
L 312.031761 362.164901 
L 312.031761 407.224503 
" style="fill:none;stroke:#00008b;stroke-linecap:square;"/>
   </g>
   <g id="line2d_66">
    <path clip-path="url(#p4fde53968c)" d="M 316.470398 407.224503 
L 316.470398 449.780795 
" style="fill:none;stroke:#00008b;stroke-dasharray:3.7,1.6;stroke-dashoffset:0;"/>
   </g>
   <g id="line2d_67">
    <path clip-path="url(#p4fde53968c)" d="M 316.470398 362.164901 
L 316.470398 306.257616 
" style="fill:none;stroke:#00008b;stroke-dasharray:3.7,1.6;stroke-dashoffset:0;"/>
   </g>
   <g id="line2d_68">
    <path clip-path="url(#p4fde53968c)" d="M 314.25108 449.780795 
L 318.689716 449.780795 
" style="fill:none;stroke:#000000;stroke-linecap:square;"/>
   </g>
   <g id="line2d_69">
    <path clip-path="url(#p4fde53968c)" d="M 314.25108 306.257616 
L 318.689716 306.257616 
" style="fill:none;stroke:#000000;stroke-linecap:square;"/>
   </g>
   <g id="line2d_70">
    <path clip-path="url(#p4fde53968c)" d="M 329.786307 425.582119 
L 338.66358 425.582119 
L 338.66358 383.860265 
L 329.786307 383.860265 
L 329.786307 425.582119 
" style="fill:none;stroke:#00008b;stroke-linecap:square;"/>
   </g>
   <g id="line2d_71">
    <path clip-path="url(#p4fde53968c)" d="M 334.224943 425.582119 
L 334.224943 456.456291 
" style="fill:none;stroke:#00008b;stroke-dasharray:3.7,1.6;stroke-dashoffset:0;"/>
   </g>
   <g id="line2d_72">
    <path clip-path="url(#p4fde53968c)" d="M 334.224943 383.860265 
L 334.224943 356.323841 
" style="fill:none;stroke:#00008b;stroke-dasharray:3.7,1.6;stroke-dashoffset:0;"/>
   </g>
   <g id="line2d_73">
    <path clip-path="url(#p4fde53968c)" d="M 332.005625 456.456291 
L 336.444261 456.456291 
" style="fill:none;stroke:#000000;stroke-linecap:square;"/>
   </g>
   <g id="line2d_74">
    <path clip-path="url(#p4fde53968c)" d="M 332.005625 356.323841 
L 336.444261 356.323841 
" style="fill:none;stroke:#000000;stroke-linecap:square;"/>
   </g>
   <g id="line2d_75">
    <path clip-path="url(#p4fde53968c)" d="M 347.540852 424.747682 
L 356.418125 424.747682 
L 356.418125 378.019205 
L 347.540852 378.019205 
L 347.540852 424.747682 
" style="fill:none;stroke:#00008b;stroke-linecap:square;"/>
   </g>
   <g id="line2d_76">
    <path clip-path="url(#p4fde53968c)" d="M 351.979489 424.747682 
L 351.979489 453.118543 
" style="fill:none;stroke:#00008b;stroke-dasharray:3.7,1.6;stroke-dashoffset:0;"/>
   </g>
   <g id="line2d_77">
    <path clip-path="url(#p4fde53968c)" d="M 351.979489 378.019205 
L 351.979489 326.284106 
" style="fill:none;stroke:#00008b;stroke-dasharray:3.7,1.6;stroke-dashoffset:0;"/>
   </g>
   <g id="line2d_78">
    <path clip-path="url(#p4fde53968c)" d="M 349.76017 453.118543 
L 354.198807 453.118543 
" style="fill:none;stroke:#000000;stroke-linecap:square;"/>
   </g>
   <g id="line2d_79">
    <path clip-path="url(#p4fde53968c)" d="M 349.76017 326.284106 
L 354.198807 326.284106 
" style="fill:none;stroke:#000000;stroke-linecap:square;"/>
   </g>
   <g id="line2d_80">
    <path clip-path="url(#p4fde53968c)" d="M 365.295398 444.774172 
L 374.17267 444.774172 
L 374.17267 408.05894 
L 365.295398 408.05894 
L 365.295398 444.774172 
" style="fill:none;stroke:#00008b;stroke-linecap:square;"/>
   </g>
   <g id="line2d_81">
    <path clip-path="url(#p4fde53968c)" d="M 369.734034 444.774172 
L 369.734034 463.131788 
" style="fill:none;stroke:#00008b;stroke-dasharray:3.7,1.6;stroke-dashoffset:0;"/>
   </g>
   <g id="line2d_82">
    <path clip-path="url(#p4fde53968c)" d="M 369.734034 408.05894 
L 369.734034 383.025828 
" style="fill:none;stroke:#00008b;stroke-dasharray:3.7,1.6;stroke-dashoffset:0;"/>
   </g>
   <g id="line2d_83">
    <path clip-path="url(#p4fde53968c)" d="M 367.514716 463.131788 
L 371.953352 463.131788 
" style="fill:none;stroke:#000000;stroke-linecap:square;"/>
   </g>
   <g id="line2d_84">
    <path clip-path="url(#p4fde53968c)" d="M 367.514716 383.025828 
L 371.953352 383.025828 
" style="fill:none;stroke:#000000;stroke-linecap:square;"/>
   </g>
   <g id="line2d_85">
    <path clip-path="url(#p4fde53968c)" d="M 383.049943 443.939735 
L 391.927216 443.939735 
L 391.927216 412.231126 
L 383.049943 412.231126 
L 383.049943 443.939735 
" style="fill:none;stroke:#00008b;stroke-linecap:square;"/>
   </g>
   <g id="line2d_86">
    <path clip-path="url(#p4fde53968c)" d="M 387.48858 443.939735 
L 387.48858 459.79404 
" style="fill:none;stroke:#00008b;stroke-dasharray:3.7,1.6;stroke-dashoffset:0;"/>
   </g>
   <g id="line2d_87">
    <path clip-path="url(#p4fde53968c)" d="M 387.48858 412.231126 
L 387.48858 393.039073 
" style="fill:none;stroke:#00008b;stroke-dasharray:3.7,1.6;stroke-dashoffset:0;"/>
   </g>
   <g id="line2d_88">
    <path clip-path="url(#p4fde53968c)" d="M 385.269261 459.79404 
L 389.707898 459.79404 
" style="fill:none;stroke:#000000;stroke-linecap:square;"/>
   </g>
   <g id="line2d_89">
    <path clip-path="url(#p4fde53968c)" d="M 385.269261 393.039073 
L 389.707898 393.039073 
" style="fill:none;stroke:#000000;stroke-linecap:square;"/>
   </g>
   <g id="line2d_90">
    <path clip-path="url(#p4fde53968c)" d="M 400.804489 463.131788 
L 409.681761 463.131788 
L 409.681761 416.403311 
L 400.804489 416.403311 
L 400.804489 463.131788 
" style="fill:none;stroke:#00008b;stroke-linecap:square;"/>
   </g>
   <g id="line2d_91">
    <path clip-path="url(#p4fde53968c)" d="M 405.243125 463.131788 
L 405.243125 506.522517 
" style="fill:none;stroke:#00008b;stroke-dasharray:3.7,1.6;stroke-dashoffset:0;"/>
   </g>
   <g id="line2d_92">
    <path clip-path="url(#p4fde53968c)" d="M 405.243125 416.403311 
L 405.243125 393.039073 
" style="fill:none;stroke:#00008b;stroke-dasharray:3.7,1.6;stroke-dashoffset:0;"/>
   </g>
   <g id="line2d_93">
    <path clip-path="url(#p4fde53968c)" d="M 403.023807 506.522517 
L 407.462443 506.522517 
" style="fill:none;stroke:#000000;stroke-linecap:square;"/>
   </g>
   <g id="line2d_94">
    <path clip-path="url(#p4fde53968c)" d="M 403.023807 393.039073 
L 407.462443 393.039073 
" style="fill:none;stroke:#000000;stroke-linecap:square;"/>
   </g>
   <g id="line2d_95">
    <path clip-path="url(#p4fde53968c)" d="M 418.559034 459.79404 
L 427.436307 459.79404 
L 427.436307 426.416556 
L 418.559034 426.416556 
L 418.559034 459.79404 
" style="fill:none;stroke:#00008b;stroke-linecap:square;"/>
   </g>
   <g id="line2d_96">
    <path clip-path="url(#p4fde53968c)" d="M 422.99767 459.79404 
L 422.99767 486.496026 
" style="fill:none;stroke:#00008b;stroke-dasharray:3.7,1.6;stroke-dashoffset:0;"/>
   </g>
   <g id="line2d_97">
    <path clip-path="url(#p4fde53968c)" d="M 422.99767 426.416556 
L 422.99767 403.052318 
" style="fill:none;stroke:#00008b;stroke-dasharray:3.7,1.6;stroke-dashoffset:0;"/>
   </g>
   <g id="line2d_98">
    <path clip-path="url(#p4fde53968c)" d="M 420.778352 486.496026 
L 425.216989 486.496026 
" style="fill:none;stroke:#000000;stroke-linecap:square;"/>
   </g>
   <g id="line2d_99">
    <path clip-path="url(#p4fde53968c)" d="M 420.778352 403.052318 
L 425.216989 403.052318 
" style="fill:none;stroke:#000000;stroke-linecap:square;"/>
   </g>
   <g id="line2d_100">
    <path clip-path="url(#p4fde53968c)" d="M 436.31358 466.469536 
L 445.190852 466.469536 
L 445.190852 433.092053 
L 436.31358 433.092053 
L 436.31358 466.469536 
" style="fill:none;stroke:#00008b;stroke-linecap:square;"/>
   </g>
   <g id="line2d_101">
    <path clip-path="url(#p4fde53968c)" d="M 440.752216 466.469536 
L 440.752216 489.833775 
" style="fill:none;stroke:#00008b;stroke-dasharray:3.7,1.6;stroke-dashoffset:0;"/>
   </g>
   <g id="line2d_102">
    <path clip-path="url(#p4fde53968c)" d="M 440.752216 433.092053 
L 440.752216 399.71457 
" style="fill:none;stroke:#00008b;stroke-dasharray:3.7,1.6;stroke-dashoffset:0;"/>
   </g>
   <g id="line2d_103">
    <path clip-path="url(#p4fde53968c)" d="M 438.532898 489.833775 
L 442.971534 489.833775 
" style="fill:none;stroke:#000000;stroke-linecap:square;"/>
   </g>
   <g id="line2d_104">
    <path clip-path="url(#p4fde53968c)" d="M 438.532898 399.71457 
L 442.971534 399.71457 
" style="fill:none;stroke:#000000;stroke-linecap:square;"/>
   </g>
   <g id="line2d_105">
    <path clip-path="url(#p4fde53968c)" d="M 454.068125 473.97947 
L 462.945398 473.97947 
L 462.945398 442.270861 
L 454.068125 442.270861 
L 454.068125 473.97947 
" style="fill:none;stroke:#00008b;stroke-linecap:square;"/>
   </g>
   <g id="line2d_106">
    <path clip-path="url(#p4fde53968c)" d="M 458.506761 473.97947 
L 458.506761 496.509272 
" style="fill:none;stroke:#00008b;stroke-dasharray:3.7,1.6;stroke-dashoffset:0;"/>
   </g>
   <g id="line2d_107">
    <path clip-path="url(#p4fde53968c)" d="M 458.506761 442.270861 
L 458.506761 419.74106 
" style="fill:none;stroke:#00008b;stroke-dasharray:3.7,1.6;stroke-dashoffset:0;"/>
   </g>
   <g id="line2d_108">
    <path clip-path="url(#p4fde53968c)" d="M 456.287443 496.509272 
L 460.72608 496.509272 
" style="fill:none;stroke:#000000;stroke-linecap:square;"/>
   </g>
   <g id="line2d_109">
    <path clip-path="url(#p4fde53968c)" d="M 456.287443 419.74106 
L 460.72608 419.74106 
" style="fill:none;stroke:#000000;stroke-linecap:square;"/>
   </g>
   <g id="line2d_110">
    <path clip-path="url(#p4fde53968c)" d="M 471.82267 480.654967 
L 480.699943 480.654967 
L 480.699943 448.946358 
L 471.82267 448.946358 
L 471.82267 480.654967 
" style="fill:none;stroke:#00008b;stroke-linecap:square;"/>
   </g>
   <g id="line2d_111">
    <path clip-path="url(#p4fde53968c)" d="M 476.261307 480.654967 
L 476.261307 506.522517 
" style="fill:none;stroke:#00008b;stroke-dasharray:3.7,1.6;stroke-dashoffset:0;"/>
   </g>
   <g id="line2d_112">
    <path clip-path="url(#p4fde53968c)" d="M 476.261307 448.946358 
L 476.261307 406.390066 
" style="fill:none;stroke:#00008b;stroke-dasharray:3.7,1.6;stroke-dashoffset:0;"/>
   </g>
   <g id="line2d_113">
    <path clip-path="url(#p4fde53968c)" d="M 474.041989 506.522517 
L 478.480625 506.522517 
" style="fill:none;stroke:#000000;stroke-linecap:square;"/>
   </g>
   <g id="line2d_114">
    <path clip-path="url(#p4fde53968c)" d="M 474.041989 406.390066 
L 478.480625 406.390066 
" style="fill:none;stroke:#000000;stroke-linecap:square;"/>
   </g>
   <g id="line2d_115">
    <path clip-path="url(#p4fde53968c)" d="M 489.577216 489.833775 
L 498.454489 489.833775 
L 498.454489 456.456291 
L 489.577216 456.456291 
L 489.577216 489.833775 
" style="fill:none;stroke:#00008b;stroke-linecap:square;"/>
   </g>
   <g id="line2d_116">
    <path clip-path="url(#p4fde53968c)" d="M 494.015852 489.833775 
L 494.015852 519.87351 
" style="fill:none;stroke:#00008b;stroke-dasharray:3.7,1.6;stroke-dashoffset:0;"/>
   </g>
   <g id="line2d_117">
    <path clip-path="url(#p4fde53968c)" d="M 494.015852 456.456291 
L 494.015852 429.754305 
" style="fill:none;stroke:#00008b;stroke-dasharray:3.7,1.6;stroke-dashoffset:0;"/>
   </g>
   <g id="line2d_118">
    <path clip-path="url(#p4fde53968c)" d="M 491.796534 519.87351 
L 496.23517 519.87351 
" style="fill:none;stroke:#000000;stroke-linecap:square;"/>
   </g>
   <g id="line2d_119">
    <path clip-path="url(#p4fde53968c)" d="M 491.796534 429.754305 
L 496.23517 429.754305 
" style="fill:none;stroke:#000000;stroke-linecap:square;"/>
   </g>
   <g id="line2d_120">
    <path clip-path="url(#p4fde53968c)" d="M 507.331761 488.164901 
L 516.209034 488.164901 
L 516.209034 464.800662 
L 507.331761 464.800662 
L 507.331761 488.164901 
" style="fill:none;stroke:#00008b;stroke-linecap:square;"/>
   </g>
   <g id="line2d_121">
    <path clip-path="url(#p4fde53968c)" d="M 511.770398 488.164901 
L 511.770398 506.522517 
" style="fill:none;stroke:#00008b;stroke-dasharray:3.7,1.6;stroke-dashoffset:0;"/>
   </g>
   <g id="line2d_122">
    <path clip-path="url(#p4fde53968c)" d="M 511.770398 464.800662 
L 511.770398 446.443046 
" style="fill:none;stroke:#00008b;stroke-dasharray:3.7,1.6;stroke-dashoffset:0;"/>
   </g>
   <g id="line2d_123">
    <path clip-path="url(#p4fde53968c)" d="M 509.55108 506.522517 
L 513.989716 506.522517 
" style="fill:none;stroke:#000000;stroke-linecap:square;"/>
   </g>
   <g id="line2d_124">
    <path clip-path="url(#p4fde53968c)" d="M 509.55108 446.443046 
L 513.989716 446.443046 
" style="fill:none;stroke:#000000;stroke-linecap:square;"/>
   </g>
   <g id="line2d_125">
    <path clip-path="url(#p4fde53968c)" d="M 525.086307 494.840397 
L 533.96358 494.840397 
L 533.96358 461.462914 
L 525.086307 461.462914 
L 525.086307 494.840397 
" style="fill:none;stroke:#00008b;stroke-linecap:square;"/>
   </g>
   <g id="line2d_126">
    <path clip-path="url(#p4fde53968c)" d="M 529.524943 494.840397 
L 529.524943 513.198013 
" style="fill:none;stroke:#00008b;stroke-dasharray:3.7,1.6;stroke-dashoffset:0;"/>
   </g>
   <g id="line2d_127">
    <path clip-path="url(#p4fde53968c)" d="M 529.524943 461.462914 
L 529.524943 443.105298 
" style="fill:none;stroke:#00008b;stroke-dasharray:3.7,1.6;stroke-dashoffset:0;"/>
   </g>
   <g id="line2d_128">
    <path clip-path="url(#p4fde53968c)" d="M 527.305625 513.198013 
L 531.744261 513.198013 
" style="fill:none;stroke:#000000;stroke-linecap:square;"/>
   </g>
   <g id="line2d_129">
    <path clip-path="url(#p4fde53968c)" d="M 527.305625 443.105298 
L 531.744261 443.105298 
" style="fill:none;stroke:#000000;stroke-linecap:square;"/>
   </g>
   <g id="line2d_130">
    <path clip-path="url(#p4fde53968c)" d="M 542.840852 495.674834 
L 551.718125 495.674834 
L 551.718125 467.303974 
L 542.840852 467.303974 
L 542.840852 495.674834 
" style="fill:none;stroke:#00008b;stroke-linecap:square;"/>
   </g>
   <g id="line2d_131">
    <path clip-path="url(#p4fde53968c)" d="M 547.279489 495.674834 
L 547.279489 513.198013 
" style="fill:none;stroke:#00008b;stroke-dasharray:3.7,1.6;stroke-dashoffset:0;"/>
   </g>
   <g id="line2d_132">
    <path clip-path="url(#p4fde53968c)" d="M 547.279489 467.303974 
L 547.279489 439.76755 
" style="fill:none;stroke:#00008b;stroke-dasharray:3.7,1.6;stroke-dashoffset:0;"/>
   </g>
   <g id="line2d_133">
    <path clip-path="url(#p4fde53968c)" d="M 545.06017 513.198013 
L 549.498807 513.198013 
" style="fill:none;stroke:#000000;stroke-linecap:square;"/>
   </g>
   <g id="line2d_134">
    <path clip-path="url(#p4fde53968c)" d="M 545.06017 439.76755 
L 549.498807 439.76755 
" style="fill:none;stroke:#000000;stroke-linecap:square;"/>
   </g>
   <g id="line2d_135">
    <path clip-path="url(#p4fde53968c)" d="M 560.595398 498.178146 
L 569.47267 498.178146 
L 569.47267 468.138411 
L 560.595398 468.138411 
L 560.595398 498.178146 
" style="fill:none;stroke:#00008b;stroke-linecap:square;"/>
   </g>
   <g id="line2d_136">
    <path clip-path="url(#p4fde53968c)" d="M 565.034034 498.178146 
L 565.034034 523.211258 
" style="fill:none;stroke:#00008b;stroke-dasharray:3.7,1.6;stroke-dashoffset:0;"/>
   </g>
   <g id="line2d_137">
    <path clip-path="url(#p4fde53968c)" d="M 565.034034 468.138411 
L 565.034034 426.416556 
" style="fill:none;stroke:#00008b;stroke-dasharray:3.7,1.6;stroke-dashoffset:0;"/>
   </g>
   <g id="line2d_138">
    <path clip-path="url(#p4fde53968c)" d="M 562.814716 523.211258 
L 567.253352 523.211258 
" style="fill:none;stroke:#000000;stroke-linecap:square;"/>
   </g>
   <g id="line2d_139">
    <path clip-path="url(#p4fde53968c)" d="M 562.814716 426.416556 
L 567.253352 426.416556 
" style="fill:none;stroke:#000000;stroke-linecap:square;"/>
   </g>
   <g id="line2d_140">
    <path clip-path="url(#p4fde53968c)" d="M 578.349943 501.515894 
L 587.227216 501.515894 
L 587.227216 471.476159 
L 578.349943 471.476159 
L 578.349943 501.515894 
" style="fill:none;stroke:#00008b;stroke-linecap:square;"/>
   </g>
   <g id="line2d_141">
    <path clip-path="url(#p4fde53968c)" d="M 582.78858 501.515894 
L 582.78858 523.211258 
" style="fill:none;stroke:#00008b;stroke-dasharray:3.7,1.6;stroke-dashoffset:0;"/>
   </g>
   <g id="line2d_142">
    <path clip-path="url(#p4fde53968c)" d="M 582.78858 471.476159 
L 582.78858 433.092053 
" style="fill:none;stroke:#00008b;stroke-dasharray:3.7,1.6;stroke-dashoffset:0;"/>
   </g>
   <g id="line2d_143">
    <path clip-path="url(#p4fde53968c)" d="M 580.569261 523.211258 
L 585.007898 523.211258 
" style="fill:none;stroke:#000000;stroke-linecap:square;"/>
   </g>
   <g id="line2d_144">
    <path clip-path="url(#p4fde53968c)" d="M 580.569261 433.092053 
L 585.007898 433.092053 
" style="fill:none;stroke:#000000;stroke-linecap:square;"/>
   </g>
   <g id="line2d_145">
    <path clip-path="url(#p4fde53968c)" d="M 596.104489 506.522517 
L 604.981761 506.522517 
L 604.981761 473.145033 
L 596.104489 473.145033 
L 596.104489 506.522517 
" style="fill:none;stroke:#00008b;stroke-linecap:square;"/>
   </g>
   <g id="line2d_146">
    <path clip-path="url(#p4fde53968c)" d="M 600.543125 506.522517 
L 600.543125 536.562252 
" style="fill:none;stroke:#00008b;stroke-dasharray:3.7,1.6;stroke-dashoffset:0;"/>
   </g>
   <g id="line2d_147">
    <path clip-path="url(#p4fde53968c)" d="M 600.543125 473.145033 
L 600.543125 456.456291 
" style="fill:none;stroke:#00008b;stroke-dasharray:3.7,1.6;stroke-dashoffset:0;"/>
   </g>
   <g id="line2d_148">
    <path clip-path="url(#p4fde53968c)" d="M 598.323807 536.562252 
L 602.762443 536.562252 
" style="fill:none;stroke:#000000;stroke-linecap:square;"/>
   </g>
   <g id="line2d_149">
    <path clip-path="url(#p4fde53968c)" d="M 598.323807 456.456291 
L 602.762443 456.456291 
" style="fill:none;stroke:#000000;stroke-linecap:square;"/>
   </g>
   <g id="line2d_150">
    <path clip-path="url(#p4fde53968c)" d="M 613.859034 503.184768 
L 622.736307 503.184768 
L 622.736307 476.482781 
L 613.859034 476.482781 
L 613.859034 503.184768 
" style="fill:none;stroke:#00008b;stroke-linecap:square;"/>
   </g>
   <g id="line2d_151">
    <path clip-path="url(#p4fde53968c)" d="M 618.29767 503.184768 
L 618.29767 516.535762 
" style="fill:none;stroke:#00008b;stroke-dasharray:3.7,1.6;stroke-dashoffset:0;"/>
   </g>
   <g id="line2d_152">
    <path clip-path="url(#p4fde53968c)" d="M 618.29767 476.482781 
L 618.29767 456.456291 
" style="fill:none;stroke:#00008b;stroke-dasharray:3.7,1.6;stroke-dashoffset:0;"/>
   </g>
   <g id="line2d_153">
    <path clip-path="url(#p4fde53968c)" d="M 616.078352 516.535762 
L 620.516989 516.535762 
" style="fill:none;stroke:#000000;stroke-linecap:square;"/>
   </g>
   <g id="line2d_154">
    <path clip-path="url(#p4fde53968c)" d="M 616.078352 456.456291 
L 620.516989 456.456291 
" style="fill:none;stroke:#000000;stroke-linecap:square;"/>
   </g>
   <g id="line2d_155">
    <path clip-path="url(#p4fde53968c)" d="M 631.61358 502.350331 
L 640.490852 502.350331 
L 640.490852 473.97947 
L 631.61358 473.97947 
L 631.61358 502.350331 
" style="fill:none;stroke:#00008b;stroke-linecap:square;"/>
   </g>
   <g id="line2d_156">
    <path clip-path="url(#p4fde53968c)" d="M 636.052216 502.350331 
L 636.052216 536.562252 
" style="fill:none;stroke:#00008b;stroke-dasharray:3.7,1.6;stroke-dashoffset:0;"/>
   </g>
   <g id="line2d_157">
    <path clip-path="url(#p4fde53968c)" d="M 636.052216 473.97947 
L 636.052216 459.79404 
" style="fill:none;stroke:#00008b;stroke-dasharray:3.7,1.6;stroke-dashoffset:0;"/>
   </g>
   <g id="line2d_158">
    <path clip-path="url(#p4fde53968c)" d="M 633.832898 536.562252 
L 638.271534 536.562252 
" style="fill:none;stroke:#000000;stroke-linecap:square;"/>
   </g>
   <g id="line2d_159">
    <path clip-path="url(#p4fde53968c)" d="M 633.832898 459.79404 
L 638.271534 459.79404 
" style="fill:none;stroke:#000000;stroke-linecap:square;"/>
   </g>
   <g id="line2d_160">
    <path clip-path="url(#p4fde53968c)" d="M 649.368125 507.356954 
L 658.245398 507.356954 
L 658.245398 475.648344 
L 649.368125 475.648344 
L 649.368125 507.356954 
" style="fill:none;stroke:#00008b;stroke-linecap:square;"/>
   </g>
   <g id="line2d_161">
    <path clip-path="url(#p4fde53968c)" d="M 653.806761 507.356954 
L 653.806761 533.224503 
" style="fill:none;stroke:#00008b;stroke-dasharray:3.7,1.6;stroke-dashoffset:0;"/>
   </g>
   <g id="line2d_162">
    <path clip-path="url(#p4fde53968c)" d="M 653.806761 475.648344 
L 653.806761 456.456291 
" style="fill:none;stroke:#00008b;stroke-dasharray:3.7,1.6;stroke-dashoffset:0;"/>
   </g>
   <g id="line2d_163">
    <path clip-path="url(#p4fde53968c)" d="M 651.587443 533.224503 
L 656.02608 533.224503 
" style="fill:none;stroke:#000000;stroke-linecap:square;"/>
   </g>
   <g id="line2d_164">
    <path clip-path="url(#p4fde53968c)" d="M 651.587443 456.456291 
L 656.02608 456.456291 
" style="fill:none;stroke:#000000;stroke-linecap:square;"/>
   </g>
   <g id="line2d_165">
    <path clip-path="url(#p4fde53968c)" d="M 667.12267 511.529139 
L 675.999943 511.529139 
L 675.999943 486.496026 
L 667.12267 486.496026 
L 667.12267 511.529139 
" style="fill:none;stroke:#00008b;stroke-linecap:square;"/>
   </g>
   <g id="line2d_166">
    <path clip-path="url(#p4fde53968c)" d="M 671.561307 511.529139 
L 671.561307 526.549007 
" style="fill:none;stroke:#00008b;stroke-dasharray:3.7,1.6;stroke-dashoffset:0;"/>
   </g>
   <g id="line2d_167">
    <path clip-path="url(#p4fde53968c)" d="M 671.561307 486.496026 
L 671.561307 469.807285 
" style="fill:none;stroke:#00008b;stroke-dasharray:3.7,1.6;stroke-dashoffset:0;"/>
   </g>
   <g id="line2d_168">
    <path clip-path="url(#p4fde53968c)" d="M 669.341989 526.549007 
L 673.780625 526.549007 
" style="fill:none;stroke:#000000;stroke-linecap:square;"/>
   </g>
   <g id="line2d_169">
    <path clip-path="url(#p4fde53968c)" d="M 669.341989 469.807285 
L 673.780625 469.807285 
" style="fill:none;stroke:#000000;stroke-linecap:square;"/>
   </g>
   <g id="line2d_170">
    <path clip-path="url(#p4fde53968c)" d="M 684.877216 509.860265 
L 693.754489 509.860265 
L 693.754489 476.482781 
L 684.877216 476.482781 
L 684.877216 509.860265 
" style="fill:none;stroke:#00008b;stroke-linecap:square;"/>
   </g>
   <g id="line2d_171">
    <path clip-path="url(#p4fde53968c)" d="M 689.315852 509.860265 
L 689.315852 526.549007 
" style="fill:none;stroke:#00008b;stroke-dasharray:3.7,1.6;stroke-dashoffset:0;"/>
   </g>
   <g id="line2d_172">
    <path clip-path="url(#p4fde53968c)" d="M 689.315852 476.482781 
L 689.315852 453.118543 
" style="fill:none;stroke:#00008b;stroke-dasharray:3.7,1.6;stroke-dashoffset:0;"/>
   </g>
   <g id="line2d_173">
    <path clip-path="url(#p4fde53968c)" d="M 687.096534 526.549007 
L 691.53517 526.549007 
" style="fill:none;stroke:#000000;stroke-linecap:square;"/>
   </g>
   <g id="line2d_174">
    <path clip-path="url(#p4fde53968c)" d="M 687.096534 453.118543 
L 691.53517 453.118543 
" style="fill:none;stroke:#000000;stroke-linecap:square;"/>
   </g>
   <g id="line2d_175">
    <path clip-path="url(#p4fde53968c)" d="M 702.631761 504.019205 
L 711.509034 504.019205 
L 711.509034 478.986093 
L 702.631761 478.986093 
L 702.631761 504.019205 
" style="fill:none;stroke:#00008b;stroke-linecap:square;"/>
   </g>
   <g id="line2d_176">
    <path clip-path="url(#p4fde53968c)" d="M 707.070398 504.019205 
L 707.070398 516.535762 
" style="fill:none;stroke:#00008b;stroke-dasharray:3.7,1.6;stroke-dashoffset:0;"/>
   </g>
   <g id="line2d_177">
    <path clip-path="url(#p4fde53968c)" d="M 707.070398 478.986093 
L 707.070398 459.79404 
" style="fill:none;stroke:#00008b;stroke-dasharray:3.7,1.6;stroke-dashoffset:0;"/>
   </g>
   <g id="line2d_178">
    <path clip-path="url(#p4fde53968c)" d="M 704.85108 516.535762 
L 709.289716 516.535762 
" style="fill:none;stroke:#000000;stroke-linecap:square;"/>
   </g>
   <g id="line2d_179">
    <path clip-path="url(#p4fde53968c)" d="M 704.85108 459.79404 
L 709.289716 459.79404 
" style="fill:none;stroke:#000000;stroke-linecap:square;"/>
   </g>
   <g id="line2d_180">
    <path clip-path="url(#p4fde53968c)" d="M 720.386307 509.025828 
L 729.26358 509.025828 
L 729.26358 487.330464 
L 720.386307 487.330464 
L 720.386307 509.025828 
" style="fill:none;stroke:#00008b;stroke-linecap:square;"/>
   </g>
   <g id="line2d_181">
    <path clip-path="url(#p4fde53968c)" d="M 724.824943 509.025828 
L 724.824943 529.886755 
" style="fill:none;stroke:#00008b;stroke-dasharray:3.7,1.6;stroke-dashoffset:0;"/>
   </g>
   <g id="line2d_182">
    <path clip-path="url(#p4fde53968c)" d="M 724.824943 487.330464 
L 724.824943 476.482781 
" style="fill:none;stroke:#00008b;stroke-dasharray:3.7,1.6;stroke-dashoffset:0;"/>
   </g>
   <g id="line2d_183">
    <path clip-path="url(#p4fde53968c)" d="M 722.605625 529.886755 
L 727.044261 529.886755 
" style="fill:none;stroke:#000000;stroke-linecap:square;"/>
   </g>
   <g id="line2d_184">
    <path clip-path="url(#p4fde53968c)" d="M 722.605625 476.482781 
L 727.044261 476.482781 
" style="fill:none;stroke:#000000;stroke-linecap:square;"/>
   </g>
   <g id="line2d_185">
    <path clip-path="url(#p4fde53968c)" d="M 738.140852 512.363576 
L 747.018125 512.363576 
L 747.018125 490.668212 
L 738.140852 490.668212 
L 738.140852 512.363576 
" style="fill:none;stroke:#00008b;stroke-linecap:square;"/>
   </g>
   <g id="line2d_186">
    <path clip-path="url(#p4fde53968c)" d="M 742.579489 512.363576 
L 742.579489 523.211258 
" style="fill:none;stroke:#00008b;stroke-dasharray:3.7,1.6;stroke-dashoffset:0;"/>
   </g>
   <g id="line2d_187">
    <path clip-path="url(#p4fde53968c)" d="M 742.579489 490.668212 
L 742.579489 476.482781 
" style="fill:none;stroke:#00008b;stroke-dasharray:3.7,1.6;stroke-dashoffset:0;"/>
   </g>
   <g id="line2d_188">
    <path clip-path="url(#p4fde53968c)" d="M 740.36017 523.211258 
L 744.798807 523.211258 
" style="fill:none;stroke:#000000;stroke-linecap:square;"/>
   </g>
   <g id="line2d_189">
    <path clip-path="url(#p4fde53968c)" d="M 740.36017 476.482781 
L 744.798807 476.482781 
" style="fill:none;stroke:#000000;stroke-linecap:square;"/>
   </g>
   <g id="line2d_190">
    <path clip-path="url(#p4fde53968c)" d="M 755.895398 502.350331 
L 764.77267 502.350331 
L 764.77267 473.97947 
L 755.895398 473.97947 
L 755.895398 502.350331 
" style="fill:none;stroke:#00008b;stroke-linecap:square;"/>
   </g>
   <g id="line2d_191">
    <path clip-path="url(#p4fde53968c)" d="M 760.334034 502.350331 
L 760.334034 526.549007 
" style="fill:none;stroke:#00008b;stroke-dasharray:3.7,1.6;stroke-dashoffset:0;"/>
   </g>
   <g id="line2d_192">
    <path clip-path="url(#p4fde53968c)" d="M 760.334034 473.97947 
L 760.334034 459.79404 
" style="fill:none;stroke:#00008b;stroke-dasharray:3.7,1.6;stroke-dashoffset:0;"/>
   </g>
   <g id="line2d_193">
    <path clip-path="url(#p4fde53968c)" d="M 758.114716 526.549007 
L 762.553352 526.549007 
" style="fill:none;stroke:#000000;stroke-linecap:square;"/>
   </g>
   <g id="line2d_194">
    <path clip-path="url(#p4fde53968c)" d="M 758.114716 459.79404 
L 762.553352 459.79404 
" style="fill:none;stroke:#000000;stroke-linecap:square;"/>
   </g>
   <g id="line2d_195">
    <path clip-path="url(#p4fde53968c)" d="M 773.649943 509.025828 
L 782.527216 509.025828 
L 782.527216 480.654967 
L 773.649943 480.654967 
L 773.649943 509.025828 
" style="fill:none;stroke:#00008b;stroke-linecap:square;"/>
   </g>
   <g id="line2d_196">
    <path clip-path="url(#p4fde53968c)" d="M 778.08858 509.025828 
L 778.08858 523.211258 
" style="fill:none;stroke:#00008b;stroke-dasharray:3.7,1.6;stroke-dashoffset:0;"/>
   </g>
   <g id="line2d_197">
    <path clip-path="url(#p4fde53968c)" d="M 778.08858 480.654967 
L 778.08858 463.131788 
" style="fill:none;stroke:#00008b;stroke-dasharray:3.7,1.6;stroke-dashoffset:0;"/>
   </g>
   <g id="line2d_198">
    <path clip-path="url(#p4fde53968c)" d="M 775.869261 523.211258 
L 780.307898 523.211258 
" style="fill:none;stroke:#000000;stroke-linecap:square;"/>
   </g>
   <g id="line2d_199">
    <path clip-path="url(#p4fde53968c)" d="M 775.869261 463.131788 
L 780.307898 463.131788 
" style="fill:none;stroke:#000000;stroke-linecap:square;"/>
   </g>
   <g id="line2d_200">
    <path clip-path="url(#p4fde53968c)" d="M 791.404489 504.019205 
L 800.281761 504.019205 
L 800.281761 478.986093 
L 791.404489 478.986093 
L 791.404489 504.019205 
" style="fill:none;stroke:#00008b;stroke-linecap:square;"/>
   </g>
   <g id="line2d_201">
    <path clip-path="url(#p4fde53968c)" d="M 795.843125 504.019205 
L 795.843125 519.87351 
" style="fill:none;stroke:#00008b;stroke-dasharray:3.7,1.6;stroke-dashoffset:0;"/>
   </g>
   <g id="line2d_202">
    <path clip-path="url(#p4fde53968c)" d="M 795.843125 478.986093 
L 795.843125 459.79404 
" style="fill:none;stroke:#00008b;stroke-dasharray:3.7,1.6;stroke-dashoffset:0;"/>
   </g>
   <g id="line2d_203">
    <path clip-path="url(#p4fde53968c)" d="M 793.623807 519.87351 
L 798.062443 519.87351 
" style="fill:none;stroke:#000000;stroke-linecap:square;"/>
   </g>
   <g id="line2d_204">
    <path clip-path="url(#p4fde53968c)" d="M 793.623807 459.79404 
L 798.062443 459.79404 
" style="fill:none;stroke:#000000;stroke-linecap:square;"/>
   </g>
   <g id="line2d_205">
    <path clip-path="url(#p4fde53968c)" d="M 809.159034 520.707947 
L 818.036307 520.707947 
L 818.036307 488.999338 
L 809.159034 488.999338 
L 809.159034 520.707947 
" style="fill:none;stroke:#00008b;stroke-linecap:square;"/>
   </g>
   <g id="line2d_206">
    <path clip-path="url(#p4fde53968c)" d="M 813.59767 520.707947 
L 813.59767 539.9 
" style="fill:none;stroke:#00008b;stroke-dasharray:3.7,1.6;stroke-dashoffset:0;"/>
   </g>
   <g id="line2d_207">
    <path clip-path="url(#p4fde53968c)" d="M 813.59767 488.999338 
L 813.59767 466.469536 
" style="fill:none;stroke:#00008b;stroke-dasharray:3.7,1.6;stroke-dashoffset:0;"/>
   </g>
   <g id="line2d_208">
    <path clip-path="url(#p4fde53968c)" d="M 811.378352 539.9 
L 815.816989 539.9 
" style="fill:none;stroke:#000000;stroke-linecap:square;"/>
   </g>
   <g id="line2d_209">
    <path clip-path="url(#p4fde53968c)" d="M 811.378352 466.469536 
L 815.816989 466.469536 
" style="fill:none;stroke:#000000;stroke-linecap:square;"/>
   </g>
   <g id="line2d_210">
    <path clip-path="url(#p4fde53968c)" d="M 826.91358 513.198013 
L 835.790852 513.198013 
L 835.790852 479.82053 
L 826.91358 479.82053 
L 826.91358 513.198013 
" style="fill:none;stroke:#00008b;stroke-linecap:square;"/>
   </g>
   <g id="line2d_211">
    <path clip-path="url(#p4fde53968c)" d="M 831.352216 513.198013 
L 831.352216 539.9 
" style="fill:none;stroke:#00008b;stroke-dasharray:3.7,1.6;stroke-dashoffset:0;"/>
   </g>
   <g id="line2d_212">
    <path clip-path="url(#p4fde53968c)" d="M 831.352216 479.82053 
L 831.352216 446.443046 
" style="fill:none;stroke:#00008b;stroke-dasharray:3.7,1.6;stroke-dashoffset:0;"/>
   </g>
   <g id="line2d_213">
    <path clip-path="url(#p4fde53968c)" d="M 829.132898 539.9 
L 833.571534 539.9 
" style="fill:none;stroke:#000000;stroke-linecap:square;"/>
   </g>
   <g id="line2d_214">
    <path clip-path="url(#p4fde53968c)" d="M 829.132898 446.443046 
L 833.571534 446.443046 
" style="fill:none;stroke:#000000;stroke-linecap:square;"/>
   </g>
   <g id="line2d_215">
    <path clip-path="url(#p4fde53968c)" d="M 844.668125 513.198013 
L 853.545398 513.198013 
L 853.545398 486.496026 
L 844.668125 486.496026 
L 844.668125 513.198013 
" style="fill:none;stroke:#00008b;stroke-linecap:square;"/>
   </g>
   <g id="line2d_216">
    <path clip-path="url(#p4fde53968c)" d="M 849.106761 513.198013 
L 849.106761 529.886755 
" style="fill:none;stroke:#00008b;stroke-dasharray:3.7,1.6;stroke-dashoffset:0;"/>
   </g>
   <g id="line2d_217">
    <path clip-path="url(#p4fde53968c)" d="M 849.106761 486.496026 
L 849.106761 469.807285 
" style="fill:none;stroke:#00008b;stroke-dasharray:3.7,1.6;stroke-dashoffset:0;"/>
   </g>
   <g id="line2d_218">
    <path clip-path="url(#p4fde53968c)" d="M 846.887443 529.886755 
L 851.32608 529.886755 
" style="fill:none;stroke:#000000;stroke-linecap:square;"/>
   </g>
   <g id="line2d_219">
    <path clip-path="url(#p4fde53968c)" d="M 846.887443 469.807285 
L 851.32608 469.807285 
" style="fill:none;stroke:#000000;stroke-linecap:square;"/>
   </g>
   <g id="line2d_220">
    <path clip-path="url(#p4fde53968c)" d="M 862.42267 512.363576 
L 871.299943 512.363576 
L 871.299943 483.992715 
L 862.42267 483.992715 
L 862.42267 512.363576 
" style="fill:none;stroke:#00008b;stroke-linecap:square;"/>
   </g>
   <g id="line2d_221">
    <path clip-path="url(#p4fde53968c)" d="M 866.861307 512.363576 
L 866.861307 529.886755 
" style="fill:none;stroke:#00008b;stroke-dasharray:3.7,1.6;stroke-dashoffset:0;"/>
   </g>
   <g id="line2d_222">
    <path clip-path="url(#p4fde53968c)" d="M 866.861307 483.992715 
L 866.861307 463.131788 
" style="fill:none;stroke:#00008b;stroke-dasharray:3.7,1.6;stroke-dashoffset:0;"/>
   </g>
   <g id="line2d_223">
    <path clip-path="url(#p4fde53968c)" d="M 864.641989 529.886755 
L 869.080625 529.886755 
" style="fill:none;stroke:#000000;stroke-linecap:square;"/>
   </g>
   <g id="line2d_224">
    <path clip-path="url(#p4fde53968c)" d="M 864.641989 463.131788 
L 869.080625 463.131788 
" style="fill:none;stroke:#000000;stroke-linecap:square;"/>
   </g>
   <g id="line2d_225">
    <path clip-path="url(#p4fde53968c)" d="M 880.177216 507.356954 
L 889.054489 507.356954 
L 889.054489 478.986093 
L 880.177216 478.986093 
L 880.177216 507.356954 
" style="fill:none;stroke:#00008b;stroke-linecap:square;"/>
   </g>
   <g id="line2d_226">
    <path clip-path="url(#p4fde53968c)" d="M 884.615852 507.356954 
L 884.615852 529.886755 
" style="fill:none;stroke:#00008b;stroke-dasharray:3.7,1.6;stroke-dashoffset:0;"/>
   </g>
   <g id="line2d_227">
    <path clip-path="url(#p4fde53968c)" d="M 884.615852 478.986093 
L 884.615852 459.79404 
" style="fill:none;stroke:#00008b;stroke-dasharray:3.7,1.6;stroke-dashoffset:0;"/>
   </g>
   <g id="line2d_228">
    <path clip-path="url(#p4fde53968c)" d="M 882.396534 529.886755 
L 886.83517 529.886755 
" style="fill:none;stroke:#000000;stroke-linecap:square;"/>
   </g>
   <g id="line2d_229">
    <path clip-path="url(#p4fde53968c)" d="M 882.396534 459.79404 
L 886.83517 459.79404 
" style="fill:none;stroke:#000000;stroke-linecap:square;"/>
   </g>
   <g id="line2d_230">
    <path clip-path="url(#p4fde53968c)" d="M 116.731761 62.601987 
L 125.609034 62.601987 
" style="fill:none;stroke:#8b0000;stroke-linecap:square;"/>
   </g>
   <g id="line2d_231">
    <path clip-path="url(#p4fde53968c)" d="M 134.486307 99.317219 
L 143.36358 99.317219 
" style="fill:none;stroke:#8b0000;stroke-linecap:square;"/>
   </g>
   <g id="line2d_232">
    <path clip-path="url(#p4fde53968c)" d="M 152.240852 142.707947 
L 161.118125 142.707947 
" style="fill:none;stroke:#8b0000;stroke-linecap:square;"/>
   </g>
   <g id="line2d_233">
    <path clip-path="url(#p4fde53968c)" d="M 169.995398 184.429801 
L 178.87267 184.429801 
" style="fill:none;stroke:#8b0000;stroke-linecap:square;"/>
   </g>
   <g id="line2d_234">
    <path clip-path="url(#p4fde53968c)" d="M 187.749943 234.496026 
L 196.627216 234.496026 
" style="fill:none;stroke:#8b0000;stroke-linecap:square;"/>
   </g>
   <g id="line2d_235">
    <path clip-path="url(#p4fde53968c)" d="M 205.504489 269.542384 
L 214.381761 269.542384 
" style="fill:none;stroke:#8b0000;stroke-linecap:square;"/>
   </g>
   <g id="line2d_236">
    <path clip-path="url(#p4fde53968c)" d="M 223.259034 294.575497 
L 232.136307 294.575497 
" style="fill:none;stroke:#8b0000;stroke-linecap:square;"/>
   </g>
   <g id="line2d_237">
    <path clip-path="url(#p4fde53968c)" d="M 241.01358 319.608609 
L 249.890852 319.608609 
" style="fill:none;stroke:#8b0000;stroke-linecap:square;"/>
   </g>
   <g id="line2d_238">
    <path clip-path="url(#p4fde53968c)" d="M 258.768125 334.628477 
L 267.645398 334.628477 
" style="fill:none;stroke:#8b0000;stroke-linecap:square;"/>
   </g>
   <g id="line2d_239">
    <path clip-path="url(#p4fde53968c)" d="M 276.52267 368.00596 
L 285.399943 368.00596 
" style="fill:none;stroke:#8b0000;stroke-linecap:square;"/>
   </g>
   <g id="line2d_240">
    <path clip-path="url(#p4fde53968c)" d="M 294.277216 373.012583 
L 303.154489 373.012583 
" style="fill:none;stroke:#8b0000;stroke-linecap:square;"/>
   </g>
   <g id="line2d_241">
    <path clip-path="url(#p4fde53968c)" d="M 312.031761 384.694702 
L 320.909034 384.694702 
" style="fill:none;stroke:#8b0000;stroke-linecap:square;"/>
   </g>
   <g id="line2d_242">
    <path clip-path="url(#p4fde53968c)" d="M 329.786307 404.721192 
L 338.66358 404.721192 
" style="fill:none;stroke:#8b0000;stroke-linecap:square;"/>
   </g>
   <g id="line2d_243">
    <path clip-path="url(#p4fde53968c)" d="M 347.540852 403.052318 
L 356.418125 403.052318 
" style="fill:none;stroke:#8b0000;stroke-linecap:square;"/>
   </g>
   <g id="line2d_244">
    <path clip-path="url(#p4fde53968c)" d="M 365.295398 426.416556 
L 374.17267 426.416556 
" style="fill:none;stroke:#8b0000;stroke-linecap:square;"/>
   </g>
   <g id="line2d_245">
    <path clip-path="url(#p4fde53968c)" d="M 383.049943 428.08543 
L 391.927216 428.08543 
" style="fill:none;stroke:#8b0000;stroke-linecap:square;"/>
   </g>
   <g id="line2d_246">
    <path clip-path="url(#p4fde53968c)" d="M 400.804489 443.105298 
L 409.681761 443.105298 
" style="fill:none;stroke:#8b0000;stroke-linecap:square;"/>
   </g>
   <g id="line2d_247">
    <path clip-path="url(#p4fde53968c)" d="M 418.559034 443.105298 
L 427.436307 443.105298 
" style="fill:none;stroke:#8b0000;stroke-linecap:square;"/>
   </g>
   <g id="line2d_248">
    <path clip-path="url(#p4fde53968c)" d="M 436.31358 449.780795 
L 445.190852 449.780795 
" style="fill:none;stroke:#8b0000;stroke-linecap:square;"/>
   </g>
   <g id="line2d_249">
    <path clip-path="url(#p4fde53968c)" d="M 454.068125 458.125166 
L 462.945398 458.125166 
" style="fill:none;stroke:#8b0000;stroke-linecap:square;"/>
   </g>
   <g id="line2d_250">
    <path clip-path="url(#p4fde53968c)" d="M 471.82267 464.800662 
L 480.699943 464.800662 
" style="fill:none;stroke:#8b0000;stroke-linecap:square;"/>
   </g>
   <g id="line2d_251">
    <path clip-path="url(#p4fde53968c)" d="M 489.577216 473.145033 
L 498.454489 473.145033 
" style="fill:none;stroke:#8b0000;stroke-linecap:square;"/>
   </g>
   <g id="line2d_252">
    <path clip-path="url(#p4fde53968c)" d="M 507.331761 476.482781 
L 516.209034 476.482781 
" style="fill:none;stroke:#8b0000;stroke-linecap:square;"/>
   </g>
   <g id="line2d_253">
    <path clip-path="url(#p4fde53968c)" d="M 525.086307 479.82053 
L 533.96358 479.82053 
" style="fill:none;stroke:#8b0000;stroke-linecap:square;"/>
   </g>
   <g id="line2d_254">
    <path clip-path="url(#p4fde53968c)" d="M 542.840852 481.489404 
L 551.718125 481.489404 
" style="fill:none;stroke:#8b0000;stroke-linecap:square;"/>
   </g>
   <g id="line2d_255">
    <path clip-path="url(#p4fde53968c)" d="M 560.595398 483.158278 
L 569.47267 483.158278 
" style="fill:none;stroke:#8b0000;stroke-linecap:square;"/>
   </g>
   <g id="line2d_256">
    <path clip-path="url(#p4fde53968c)" d="M 578.349943 486.496026 
L 587.227216 486.496026 
" style="fill:none;stroke:#8b0000;stroke-linecap:square;"/>
   </g>
   <g id="line2d_257">
    <path clip-path="url(#p4fde53968c)" d="M 596.104489 489.833775 
L 604.981761 489.833775 
" style="fill:none;stroke:#8b0000;stroke-linecap:square;"/>
   </g>
   <g id="line2d_258">
    <path clip-path="url(#p4fde53968c)" d="M 613.859034 489.833775 
L 622.736307 489.833775 
" style="fill:none;stroke:#8b0000;stroke-linecap:square;"/>
   </g>
   <g id="line2d_259">
    <path clip-path="url(#p4fde53968c)" d="M 631.61358 488.164901 
L 640.490852 488.164901 
" style="fill:none;stroke:#8b0000;stroke-linecap:square;"/>
   </g>
   <g id="line2d_260">
    <path clip-path="url(#p4fde53968c)" d="M 649.368125 491.502649 
L 658.245398 491.502649 
" style="fill:none;stroke:#8b0000;stroke-linecap:square;"/>
   </g>
   <g id="line2d_261">
    <path clip-path="url(#p4fde53968c)" d="M 667.12267 499.84702 
L 675.999943 499.84702 
" style="fill:none;stroke:#8b0000;stroke-linecap:square;"/>
   </g>
   <g id="line2d_262">
    <path clip-path="url(#p4fde53968c)" d="M 684.877216 493.171523 
L 693.754489 493.171523 
" style="fill:none;stroke:#8b0000;stroke-linecap:square;"/>
   </g>
   <g id="line2d_263">
    <path clip-path="url(#p4fde53968c)" d="M 702.631761 491.502649 
L 711.509034 491.502649 
" style="fill:none;stroke:#8b0000;stroke-linecap:square;"/>
   </g>
   <g id="line2d_264">
    <path clip-path="url(#p4fde53968c)" d="M 720.386307 498.178146 
L 729.26358 498.178146 
" style="fill:none;stroke:#8b0000;stroke-linecap:square;"/>
   </g>
   <g id="line2d_265">
    <path clip-path="url(#p4fde53968c)" d="M 738.140852 501.515894 
L 747.018125 501.515894 
" style="fill:none;stroke:#8b0000;stroke-linecap:square;"/>
   </g>
   <g id="line2d_266">
    <path clip-path="url(#p4fde53968c)" d="M 755.895398 488.164901 
L 764.77267 488.164901 
" style="fill:none;stroke:#8b0000;stroke-linecap:square;"/>
   </g>
   <g id="line2d_267">
    <path clip-path="url(#p4fde53968c)" d="M 773.649943 494.840397 
L 782.527216 494.840397 
" style="fill:none;stroke:#8b0000;stroke-linecap:square;"/>
   </g>
   <g id="line2d_268">
    <path clip-path="url(#p4fde53968c)" d="M 791.404489 491.502649 
L 800.281761 491.502649 
" style="fill:none;stroke:#8b0000;stroke-linecap:square;"/>
   </g>
   <g id="line2d_269">
    <path clip-path="url(#p4fde53968c)" d="M 809.159034 504.853642 
L 818.036307 504.853642 
" style="fill:none;stroke:#8b0000;stroke-linecap:square;"/>
   </g>
   <g id="line2d_270">
    <path clip-path="url(#p4fde53968c)" d="M 826.91358 499.84702 
L 835.790852 499.84702 
" style="fill:none;stroke:#8b0000;stroke-linecap:square;"/>
   </g>
   <g id="line2d_271">
    <path clip-path="url(#p4fde53968c)" d="M 844.668125 499.84702 
L 853.545398 499.84702 
" style="fill:none;stroke:#8b0000;stroke-linecap:square;"/>
   </g>
   <g id="line2d_272">
    <path clip-path="url(#p4fde53968c)" d="M 862.42267 498.178146 
L 871.299943 498.178146 
" style="fill:none;stroke:#8b0000;stroke-linecap:square;"/>
   </g>
   <g id="line2d_273">
    <path clip-path="url(#p4fde53968c)" d="M 880.177216 494.840397 
L 889.054489 494.840397 
" style="fill:none;stroke:#8b0000;stroke-linecap:square;"/>
   </g>
   <g id="patch_3">
    <path d="M 112.293125 565.1 
L 112.293125 10.7 
" style="fill:none;stroke:#000000;stroke-linecap:square;stroke-linejoin:miter;stroke-width:0.8;"/>
   </g>
   <g id="patch_4">
    <path d="M 112.293125 565.1 
L 893.493125 565.1 
" style="fill:none;stroke:#000000;stroke-linecap:square;stroke-linejoin:miter;stroke-width:0.8;"/>
   </g>
  </g>
 </g>
 <defs>
  <clipPath id="p4fde53968c">
   <rect height="554.4" width="781.2" x="112.293125" y="10.7"/>
  </clipPath>
 </defs>
</svg>
