<?xml version="1.0" encoding="utf-8" standalone="no"?>
<!DOCTYPE svg PUBLIC "-//W3C//DTD SVG 1.1//EN"
  "http://www.w3.org/Graphics/SVG/1.1/DTD/svg11.dtd">
<!-- Created with matplotlib (http://matplotlib.org/) -->
<svg height="720pt" version="1.1" viewBox="0 0 1008 720" width="1008pt" xmlns="http://www.w3.org/2000/svg" xmlns:xlink="http://www.w3.org/1999/xlink">
 <defs>
  <style type="text/css">
*{stroke-linecap:butt;stroke-linejoin:round;}
  </style>
 </defs>
 <g id="figure_1">
  <g id="patch_1">
   <path d="M 0 720 
L 1008 720 
L 1008 0 
L 0 0 
z
" style="fill:#ffffff;"/>
  </g>
  <g id="axes_1">
   <g id="patch_2">
    <path d="M 126 640.8 
L 907.2 640.8 
L 907.2 86.4 
L 126 86.4 
z
" style="fill:#ffffff;"/>
   </g>
   <g id="matplotlib.axis_1">
    <g id="xtick_1">
     <g id="line2d_1">
      <defs>
       <path d="M 0 0 
L 0 3.5 
" id="m3eb620cec3" style="stroke:#000000;stroke-width:0.8;"/>
      </defs>
      <g>
       <use style="stroke:#000000;stroke-width:0.8;" x="219.404348" xlink:href="#m3eb620cec3" y="640.8"/>
      </g>
     </g>
     <g id="text_1">
      <!-- 0.02 -->
      <defs>
       <path d="M 31.78125 66.40625 
Q 24.171875 66.40625 20.328125 58.90625 
Q 16.5 51.421875 16.5 36.375 
Q 16.5 21.390625 20.328125 13.890625 
Q 24.171875 6.390625 31.78125 6.390625 
Q 39.453125 6.390625 43.28125 13.890625 
Q 47.125 21.390625 47.125 36.375 
Q 47.125 51.421875 43.28125 58.90625 
Q 39.453125 66.40625 31.78125 66.40625 
z
M 31.78125 74.21875 
Q 44.046875 74.21875 50.515625 64.515625 
Q 56.984375 54.828125 56.984375 36.375 
Q 56.984375 17.96875 50.515625 8.265625 
Q 44.046875 -1.421875 31.78125 -1.421875 
Q 19.53125 -1.421875 13.0625 8.265625 
Q 6.59375 17.96875 6.59375 36.375 
Q 6.59375 54.828125 13.0625 64.515625 
Q 19.53125 74.21875 31.78125 74.21875 
z
" id="DejaVuSans-30"/>
       <path d="M 10.6875 12.40625 
L 21 12.40625 
L 21 0 
L 10.6875 0 
z
" id="DejaVuSans-2e"/>
       <path d="M 19.1875 8.296875 
L 53.609375 8.296875 
L 53.609375 0 
L 7.328125 0 
L 7.328125 8.296875 
Q 12.9375 14.109375 22.625 23.890625 
Q 32.328125 33.6875 34.8125 36.53125 
Q 39.546875 41.84375 41.421875 45.53125 
Q 43.3125 49.21875 43.3125 52.78125 
Q 43.3125 58.59375 39.234375 62.25 
Q 35.15625 65.921875 28.609375 65.921875 
Q 23.96875 65.921875 18.8125 64.3125 
Q 13.671875 62.703125 7.8125 59.421875 
L 7.8125 69.390625 
Q 13.765625 71.78125 18.9375 73 
Q 24.125 74.21875 28.421875 74.21875 
Q 39.75 74.21875 46.484375 68.546875 
Q 53.21875 62.890625 53.21875 53.421875 
Q 53.21875 48.921875 51.53125 44.890625 
Q 49.859375 40.875 45.40625 35.40625 
Q 44.1875 33.984375 37.640625 27.21875 
Q 31.109375 20.453125 19.1875 8.296875 
z
" id="DejaVuSans-32"/>
      </defs>
      <g transform="translate(172.646535 679.713438)scale(0.42 -0.42)">
       <use xlink:href="#DejaVuSans-30"/>
       <use x="63.623047" xlink:href="#DejaVuSans-2e"/>
       <use x="95.410156" xlink:href="#DejaVuSans-30"/>
       <use x="159.033203" xlink:href="#DejaVuSans-32"/>
      </g>
     </g>
    </g>
    <g id="xtick_2">
     <g id="line2d_2">
      <g>
       <use style="stroke:#000000;stroke-width:0.8;" x="389.230435" xlink:href="#m3eb620cec3" y="640.8"/>
      </g>
     </g>
     <g id="text_2">
      <!-- 0.04 -->
      <defs>
       <path d="M 37.796875 64.3125 
L 12.890625 25.390625 
L 37.796875 25.390625 
z
M 35.203125 72.90625 
L 47.609375 72.90625 
L 47.609375 25.390625 
L 58.015625 25.390625 
L 58.015625 17.1875 
L 47.609375 17.1875 
L 47.609375 0 
L 37.796875 0 
L 37.796875 17.1875 
L 4.890625 17.1875 
L 4.890625 26.703125 
z
" id="DejaVuSans-34"/>
      </defs>
      <g transform="translate(342.472622 679.713438)scale(0.42 -0.42)">
       <use xlink:href="#DejaVuSans-30"/>
       <use x="63.623047" xlink:href="#DejaVuSans-2e"/>
       <use x="95.410156" xlink:href="#DejaVuSans-30"/>
       <use x="159.033203" xlink:href="#DejaVuSans-34"/>
      </g>
     </g>
    </g>
    <g id="xtick_3">
     <g id="line2d_3">
      <g>
       <use style="stroke:#000000;stroke-width:0.8;" x="559.056522" xlink:href="#m3eb620cec3" y="640.8"/>
      </g>
     </g>
     <g id="text_3">
      <!-- 0.06 -->
      <defs>
       <path d="M 33.015625 40.375 
Q 26.375 40.375 22.484375 35.828125 
Q 18.609375 31.296875 18.609375 23.390625 
Q 18.609375 15.53125 22.484375 10.953125 
Q 26.375 6.390625 33.015625 6.390625 
Q 39.65625 6.390625 43.53125 10.953125 
Q 47.40625 15.53125 47.40625 23.390625 
Q 47.40625 31.296875 43.53125 35.828125 
Q 39.65625 40.375 33.015625 40.375 
z
M 52.59375 71.296875 
L 52.59375 62.3125 
Q 48.875 64.0625 45.09375 64.984375 
Q 41.3125 65.921875 37.59375 65.921875 
Q 27.828125 65.921875 22.671875 59.328125 
Q 17.53125 52.734375 16.796875 39.40625 
Q 19.671875 43.65625 24.015625 45.921875 
Q 28.375 48.1875 33.59375 48.1875 
Q 44.578125 48.1875 50.953125 41.515625 
Q 57.328125 34.859375 57.328125 23.390625 
Q 57.328125 12.15625 50.6875 5.359375 
Q 44.046875 -1.421875 33.015625 -1.421875 
Q 20.359375 -1.421875 13.671875 8.265625 
Q 6.984375 17.96875 6.984375 36.375 
Q 6.984375 53.65625 15.1875 63.9375 
Q 23.390625 74.21875 37.203125 74.21875 
Q 40.921875 74.21875 44.703125 73.484375 
Q 48.484375 72.75 52.59375 71.296875 
z
" id="DejaVuSans-36"/>
      </defs>
      <g transform="translate(512.298709 679.713438)scale(0.42 -0.42)">
       <use xlink:href="#DejaVuSans-30"/>
       <use x="63.623047" xlink:href="#DejaVuSans-2e"/>
       <use x="95.410156" xlink:href="#DejaVuSans-30"/>
       <use x="159.033203" xlink:href="#DejaVuSans-36"/>
      </g>
     </g>
    </g>
    <g id="xtick_4">
     <g id="line2d_4">
      <g>
       <use style="stroke:#000000;stroke-width:0.8;" x="728.882609" xlink:href="#m3eb620cec3" y="640.8"/>
      </g>
     </g>
     <g id="text_4">
      <!-- 0.08 -->
      <defs>
       <path d="M 31.78125 34.625 
Q 24.75 34.625 20.71875 30.859375 
Q 16.703125 27.09375 16.703125 20.515625 
Q 16.703125 13.921875 20.71875 10.15625 
Q 24.75 6.390625 31.78125 6.390625 
Q 38.8125 6.390625 42.859375 10.171875 
Q 46.921875 13.96875 46.921875 20.515625 
Q 46.921875 27.09375 42.890625 30.859375 
Q 38.875 34.625 31.78125 34.625 
z
M 21.921875 38.8125 
Q 15.578125 40.375 12.03125 44.71875 
Q 8.5 49.078125 8.5 55.328125 
Q 8.5 64.0625 14.71875 69.140625 
Q 20.953125 74.21875 31.78125 74.21875 
Q 42.671875 74.21875 48.875 69.140625 
Q 55.078125 64.0625 55.078125 55.328125 
Q 55.078125 49.078125 51.53125 44.71875 
Q 48 40.375 41.703125 38.8125 
Q 48.828125 37.15625 52.796875 32.3125 
Q 56.78125 27.484375 56.78125 20.515625 
Q 56.78125 9.90625 50.3125 4.234375 
Q 43.84375 -1.421875 31.78125 -1.421875 
Q 19.734375 -1.421875 13.25 4.234375 
Q 6.78125 9.90625 6.78125 20.515625 
Q 6.78125 27.484375 10.78125 32.3125 
Q 14.796875 37.15625 21.921875 38.8125 
z
M 18.3125 54.390625 
Q 18.3125 48.734375 21.84375 45.5625 
Q 25.390625 42.390625 31.78125 42.390625 
Q 38.140625 42.390625 41.71875 45.5625 
Q 45.3125 48.734375 45.3125 54.390625 
Q 45.3125 60.0625 41.71875 63.234375 
Q 38.140625 66.40625 31.78125 66.40625 
Q 25.390625 66.40625 21.84375 63.234375 
Q 18.3125 60.0625 18.3125 54.390625 
z
" id="DejaVuSans-38"/>
      </defs>
      <g transform="translate(682.124796 679.713438)scale(0.42 -0.42)">
       <use xlink:href="#DejaVuSans-30"/>
       <use x="63.623047" xlink:href="#DejaVuSans-2e"/>
       <use x="95.410156" xlink:href="#DejaVuSans-30"/>
       <use x="159.033203" xlink:href="#DejaVuSans-38"/>
      </g>
     </g>
    </g>
    <g id="xtick_5">
     <g id="line2d_5">
      <g>
       <use style="stroke:#000000;stroke-width:0.8;" x="898.708696" xlink:href="#m3eb620cec3" y="640.8"/>
      </g>
     </g>
     <g id="text_5">
      <!-- 0.1 -->
      <defs>
       <path d="M 12.40625 8.296875 
L 28.515625 8.296875 
L 28.515625 63.921875 
L 10.984375 60.40625 
L 10.984375 69.390625 
L 28.421875 72.90625 
L 38.28125 72.90625 
L 38.28125 8.296875 
L 54.390625 8.296875 
L 54.390625 0 
L 12.40625 0 
z
" id="DejaVuSans-31"/>
      </defs>
      <g transform="translate(865.312133 679.713438)scale(0.42 -0.42)">
       <use xlink:href="#DejaVuSans-30"/>
       <use x="63.623047" xlink:href="#DejaVuSans-2e"/>
       <use x="95.410156" xlink:href="#DejaVuSans-31"/>
      </g>
     </g>
    </g>
    <g id="text_6">
     <!-- Capture efficiency -->
     <defs>
      <path d="M 64.40625 67.28125 
L 64.40625 56.890625 
Q 59.421875 61.53125 53.78125 63.8125 
Q 48.140625 66.109375 41.796875 66.109375 
Q 29.296875 66.109375 22.65625 58.46875 
Q 16.015625 50.828125 16.015625 36.375 
Q 16.015625 21.96875 22.65625 14.328125 
Q 29.296875 6.6875 41.796875 6.6875 
Q 48.140625 6.6875 53.78125 8.984375 
Q 59.421875 11.28125 64.40625 15.921875 
L 64.40625 5.609375 
Q 59.234375 2.09375 53.4375 0.328125 
Q 47.65625 -1.421875 41.21875 -1.421875 
Q 24.65625 -1.421875 15.125 8.703125 
Q 5.609375 18.84375 5.609375 36.375 
Q 5.609375 53.953125 15.125 64.078125 
Q 24.65625 74.21875 41.21875 74.21875 
Q 47.75 74.21875 53.53125 72.484375 
Q 59.328125 70.75 64.40625 67.28125 
z
" id="DejaVuSans-43"/>
      <path d="M 34.28125 27.484375 
Q 23.390625 27.484375 19.1875 25 
Q 14.984375 22.515625 14.984375 16.5 
Q 14.984375 11.71875 18.140625 8.90625 
Q 21.296875 6.109375 26.703125 6.109375 
Q 34.1875 6.109375 38.703125 11.40625 
Q 43.21875 16.703125 43.21875 25.484375 
L 43.21875 27.484375 
z
M 52.203125 31.203125 
L 52.203125 0 
L 43.21875 0 
L 43.21875 8.296875 
Q 40.140625 3.328125 35.546875 0.953125 
Q 30.953125 -1.421875 24.3125 -1.421875 
Q 15.921875 -1.421875 10.953125 3.296875 
Q 6 8.015625 6 15.921875 
Q 6 25.140625 12.171875 29.828125 
Q 18.359375 34.515625 30.609375 34.515625 
L 43.21875 34.515625 
L 43.21875 35.40625 
Q 43.21875 41.609375 39.140625 45 
Q 35.0625 48.390625 27.6875 48.390625 
Q 23 48.390625 18.546875 47.265625 
Q 14.109375 46.140625 10.015625 43.890625 
L 10.015625 52.203125 
Q 14.9375 54.109375 19.578125 55.046875 
Q 24.21875 56 28.609375 56 
Q 40.484375 56 46.34375 49.84375 
Q 52.203125 43.703125 52.203125 31.203125 
z
" id="DejaVuSans-61"/>
      <path d="M 18.109375 8.203125 
L 18.109375 -20.796875 
L 9.078125 -20.796875 
L 9.078125 54.6875 
L 18.109375 54.6875 
L 18.109375 46.390625 
Q 20.953125 51.265625 25.265625 53.625 
Q 29.59375 56 35.59375 56 
Q 45.5625 56 51.78125 48.09375 
Q 58.015625 40.1875 58.015625 27.296875 
Q 58.015625 14.40625 51.78125 6.484375 
Q 45.5625 -1.421875 35.59375 -1.421875 
Q 29.59375 -1.421875 25.265625 0.953125 
Q 20.953125 3.328125 18.109375 8.203125 
z
M 48.6875 27.296875 
Q 48.6875 37.203125 44.609375 42.84375 
Q 40.53125 48.484375 33.40625 48.484375 
Q 26.265625 48.484375 22.1875 42.84375 
Q 18.109375 37.203125 18.109375 27.296875 
Q 18.109375 17.390625 22.1875 11.75 
Q 26.265625 6.109375 33.40625 6.109375 
Q 40.53125 6.109375 44.609375 11.75 
Q 48.6875 17.390625 48.6875 27.296875 
z
" id="DejaVuSans-70"/>
      <path d="M 18.3125 70.21875 
L 18.3125 54.6875 
L 36.8125 54.6875 
L 36.8125 47.703125 
L 18.3125 47.703125 
L 18.3125 18.015625 
Q 18.3125 11.328125 20.140625 9.421875 
Q 21.96875 7.515625 27.59375 7.515625 
L 36.8125 7.515625 
L 36.8125 0 
L 27.59375 0 
Q 17.1875 0 13.234375 3.875 
Q 9.28125 7.765625 9.28125 18.015625 
L 9.28125 47.703125 
L 2.6875 47.703125 
L 2.6875 54.6875 
L 9.28125 54.6875 
L 9.28125 70.21875 
z
" id="DejaVuSans-74"/>
      <path d="M 8.5 21.578125 
L 8.5 54.6875 
L 17.484375 54.6875 
L 17.484375 21.921875 
Q 17.484375 14.15625 20.5 10.265625 
Q 23.53125 6.390625 29.59375 6.390625 
Q 36.859375 6.390625 41.078125 11.03125 
Q 45.3125 15.671875 45.3125 23.6875 
L 45.3125 54.6875 
L 54.296875 54.6875 
L 54.296875 0 
L 45.3125 0 
L 45.3125 8.40625 
Q 42.046875 3.421875 37.71875 1 
Q 33.40625 -1.421875 27.6875 -1.421875 
Q 18.265625 -1.421875 13.375 4.4375 
Q 8.5 10.296875 8.5 21.578125 
z
M 31.109375 56 
z
" id="DejaVuSans-75"/>
      <path d="M 41.109375 46.296875 
Q 39.59375 47.171875 37.8125 47.578125 
Q 36.03125 48 33.890625 48 
Q 26.265625 48 22.1875 43.046875 
Q 18.109375 38.09375 18.109375 28.8125 
L 18.109375 0 
L 9.078125 0 
L 9.078125 54.6875 
L 18.109375 54.6875 
L 18.109375 46.1875 
Q 20.953125 51.171875 25.484375 53.578125 
Q 30.03125 56 36.53125 56 
Q 37.453125 56 38.578125 55.875 
Q 39.703125 55.765625 41.0625 55.515625 
z
" id="DejaVuSans-72"/>
      <path d="M 56.203125 29.59375 
L 56.203125 25.203125 
L 14.890625 25.203125 
Q 15.484375 15.921875 20.484375 11.0625 
Q 25.484375 6.203125 34.421875 6.203125 
Q 39.59375 6.203125 44.453125 7.46875 
Q 49.3125 8.734375 54.109375 11.28125 
L 54.109375 2.78125 
Q 49.265625 0.734375 44.1875 -0.34375 
Q 39.109375 -1.421875 33.890625 -1.421875 
Q 20.796875 -1.421875 13.15625 6.1875 
Q 5.515625 13.8125 5.515625 26.8125 
Q 5.515625 40.234375 12.765625 48.109375 
Q 20.015625 56 32.328125 56 
Q 43.359375 56 49.78125 48.890625 
Q 56.203125 41.796875 56.203125 29.59375 
z
M 47.21875 32.234375 
Q 47.125 39.59375 43.09375 43.984375 
Q 39.0625 48.390625 32.421875 48.390625 
Q 24.90625 48.390625 20.390625 44.140625 
Q 15.875 39.890625 15.1875 32.171875 
z
" id="DejaVuSans-65"/>
      <path id="DejaVuSans-20"/>
      <path d="M 37.109375 75.984375 
L 37.109375 68.5 
L 28.515625 68.5 
Q 23.6875 68.5 21.796875 66.546875 
Q 19.921875 64.59375 19.921875 59.515625 
L 19.921875 54.6875 
L 34.71875 54.6875 
L 34.71875 47.703125 
L 19.921875 47.703125 
L 19.921875 0 
L 10.890625 0 
L 10.890625 47.703125 
L 2.296875 47.703125 
L 2.296875 54.6875 
L 10.890625 54.6875 
L 10.890625 58.5 
Q 10.890625 67.625 15.140625 71.796875 
Q 19.390625 75.984375 28.609375 75.984375 
z
" id="DejaVuSans-66"/>
      <path d="M 9.421875 54.6875 
L 18.40625 54.6875 
L 18.40625 0 
L 9.421875 0 
z
M 9.421875 75.984375 
L 18.40625 75.984375 
L 18.40625 64.59375 
L 9.421875 64.59375 
z
" id="DejaVuSans-69"/>
      <path d="M 48.78125 52.59375 
L 48.78125 44.1875 
Q 44.96875 46.296875 41.140625 47.34375 
Q 37.3125 48.390625 33.40625 48.390625 
Q 24.65625 48.390625 19.8125 42.84375 
Q 14.984375 37.3125 14.984375 27.296875 
Q 14.984375 17.28125 19.8125 11.734375 
Q 24.65625 6.203125 33.40625 6.203125 
Q 37.3125 6.203125 41.140625 7.25 
Q 44.96875 8.296875 48.78125 10.40625 
L 48.78125 2.09375 
Q 45.015625 0.34375 40.984375 -0.53125 
Q 36.96875 -1.421875 32.421875 -1.421875 
Q 20.0625 -1.421875 12.78125 6.34375 
Q 5.515625 14.109375 5.515625 27.296875 
Q 5.515625 40.671875 12.859375 48.328125 
Q 20.21875 56 33.015625 56 
Q 37.15625 56 41.109375 55.140625 
Q 45.0625 54.296875 48.78125 52.59375 
z
" id="DejaVuSans-63"/>
      <path d="M 54.890625 33.015625 
L 54.890625 0 
L 45.90625 0 
L 45.90625 32.71875 
Q 45.90625 40.484375 42.875 44.328125 
Q 39.84375 48.1875 33.796875 48.1875 
Q 26.515625 48.1875 22.3125 43.546875 
Q 18.109375 38.921875 18.109375 30.90625 
L 18.109375 0 
L 9.078125 0 
L 9.078125 54.6875 
L 18.109375 54.6875 
L 18.109375 46.1875 
Q 21.34375 51.125 25.703125 53.5625 
Q 30.078125 56 35.796875 56 
Q 45.21875 56 50.046875 50.171875 
Q 54.890625 44.34375 54.890625 33.015625 
z
" id="DejaVuSans-6e"/>
      <path d="M 32.171875 -5.078125 
Q 28.375 -14.84375 24.75 -17.8125 
Q 21.140625 -20.796875 15.09375 -20.796875 
L 7.90625 -20.796875 
L 7.90625 -13.28125 
L 13.1875 -13.28125 
Q 16.890625 -13.28125 18.9375 -11.515625 
Q 21 -9.765625 23.484375 -3.21875 
L 25.09375 0.875 
L 2.984375 54.6875 
L 12.5 54.6875 
L 29.59375 11.921875 
L 46.6875 54.6875 
L 56.203125 54.6875 
z
" id="DejaVuSans-79"/>
     </defs>
     <g transform="translate(324.84375 724.361562)scale(0.42 -0.42)">
      <use xlink:href="#DejaVuSans-43"/>
      <use x="69.824219" xlink:href="#DejaVuSans-61"/>
      <use x="131.103516" xlink:href="#DejaVuSans-70"/>
      <use x="194.580078" xlink:href="#DejaVuSans-74"/>
      <use x="233.789062" xlink:href="#DejaVuSans-75"/>
      <use x="297.167969" xlink:href="#DejaVuSans-72"/>
      <use x="338.25" xlink:href="#DejaVuSans-65"/>
      <use x="399.773438" xlink:href="#DejaVuSans-20"/>
      <use x="431.560547" xlink:href="#DejaVuSans-65"/>
      <use x="493.083984" xlink:href="#DejaVuSans-66"/>
      <use x="528.289062" xlink:href="#DejaVuSans-66"/>
      <use x="563.494141" xlink:href="#DejaVuSans-69"/>
      <use x="591.277344" xlink:href="#DejaVuSans-63"/>
      <use x="646.257812" xlink:href="#DejaVuSans-69"/>
      <use x="674.041016" xlink:href="#DejaVuSans-65"/>
      <use x="735.564453" xlink:href="#DejaVuSans-6e"/>
      <use x="798.943359" xlink:href="#DejaVuSans-63"/>
      <use x="853.923828" xlink:href="#DejaVuSans-79"/>
     </g>
    </g>
   </g>
   <g id="matplotlib.axis_2">
    <g id="ytick_1">
     <g id="line2d_6">
      <defs>
       <path d="M 0 0 
L -3.5 0 
" id="m008800e9e8" style="stroke:#000000;stroke-width:0.8;"/>
      </defs>
      <g>
       <use style="stroke:#000000;stroke-width:0.8;" x="126" xlink:href="#m008800e9e8" y="465.441035"/>
      </g>
     </g>
     <g id="text_7">
      <!-- 50 -->
      <defs>
       <path d="M 10.796875 72.90625 
L 49.515625 72.90625 
L 49.515625 64.59375 
L 19.828125 64.59375 
L 19.828125 46.734375 
Q 21.96875 47.46875 24.109375 47.828125 
Q 26.265625 48.1875 28.421875 48.1875 
Q 40.625 48.1875 47.75 41.5 
Q 54.890625 34.8125 54.890625 23.390625 
Q 54.890625 11.625 47.5625 5.09375 
Q 40.234375 -1.421875 26.90625 -1.421875 
Q 22.3125 -1.421875 17.546875 -0.640625 
Q 12.796875 0.140625 7.71875 1.703125 
L 7.71875 11.625 
Q 12.109375 9.234375 16.796875 8.0625 
Q 21.484375 6.890625 26.703125 6.890625 
Q 35.15625 6.890625 40.078125 11.328125 
Q 45.015625 15.765625 45.015625 23.390625 
Q 45.015625 31 40.078125 35.4375 
Q 35.15625 39.890625 26.703125 39.890625 
Q 22.75 39.890625 18.8125 39.015625 
Q 14.890625 38.140625 10.796875 36.28125 
z
" id="DejaVuSans-35"/>
      </defs>
      <g transform="translate(65.555 481.397754)scale(0.42 -0.42)">
       <use xlink:href="#DejaVuSans-35"/>
       <use x="63.623047" xlink:href="#DejaVuSans-30"/>
      </g>
     </g>
    </g>
    <g id="ytick_2">
     <g id="line2d_7">
      <g>
       <use style="stroke:#000000;stroke-width:0.8;" x="126" xlink:href="#m008800e9e8" y="280.751233"/>
      </g>
     </g>
     <g id="text_8">
      <!-- 100 -->
      <g transform="translate(38.8325 296.707952)scale(0.42 -0.42)">
       <use xlink:href="#DejaVuSans-31"/>
       <use x="63.623047" xlink:href="#DejaVuSans-30"/>
       <use x="127.246094" xlink:href="#DejaVuSans-30"/>
      </g>
     </g>
    </g>
    <g id="ytick_3">
     <g id="line2d_8">
      <g>
       <use style="stroke:#000000;stroke-width:0.8;" x="126" xlink:href="#m008800e9e8" y="96.061431"/>
      </g>
     </g>
     <g id="text_9">
      <!-- 150 -->
      <g transform="translate(38.8325 112.01815)scale(0.42 -0.42)">
       <use xlink:href="#DejaVuSans-31"/>
       <use x="63.623047" xlink:href="#DejaVuSans-35"/>
       <use x="127.246094" xlink:href="#DejaVuSans-30"/>
      </g>
     </g>
    </g>
    <g id="text_10">
     <!-- Reads at inflection point -->
     <defs>
      <path d="M 44.390625 34.1875 
Q 47.5625 33.109375 50.5625 29.59375 
Q 53.5625 26.078125 56.59375 19.921875 
L 66.609375 0 
L 56 0 
L 46.6875 18.703125 
Q 43.0625 26.03125 39.671875 28.421875 
Q 36.28125 30.8125 30.421875 30.8125 
L 19.671875 30.8125 
L 19.671875 0 
L 9.8125 0 
L 9.8125 72.90625 
L 32.078125 72.90625 
Q 44.578125 72.90625 50.734375 67.671875 
Q 56.890625 62.453125 56.890625 51.90625 
Q 56.890625 45.015625 53.6875 40.46875 
Q 50.484375 35.9375 44.390625 34.1875 
z
M 19.671875 64.796875 
L 19.671875 38.921875 
L 32.078125 38.921875 
Q 39.203125 38.921875 42.84375 42.21875 
Q 46.484375 45.515625 46.484375 51.90625 
Q 46.484375 58.296875 42.84375 61.546875 
Q 39.203125 64.796875 32.078125 64.796875 
z
" id="DejaVuSans-52"/>
      <path d="M 45.40625 46.390625 
L 45.40625 75.984375 
L 54.390625 75.984375 
L 54.390625 0 
L 45.40625 0 
L 45.40625 8.203125 
Q 42.578125 3.328125 38.25 0.953125 
Q 33.9375 -1.421875 27.875 -1.421875 
Q 17.96875 -1.421875 11.734375 6.484375 
Q 5.515625 14.40625 5.515625 27.296875 
Q 5.515625 40.1875 11.734375 48.09375 
Q 17.96875 56 27.875 56 
Q 33.9375 56 38.25 53.625 
Q 42.578125 51.265625 45.40625 46.390625 
z
M 14.796875 27.296875 
Q 14.796875 17.390625 18.875 11.75 
Q 22.953125 6.109375 30.078125 6.109375 
Q 37.203125 6.109375 41.296875 11.75 
Q 45.40625 17.390625 45.40625 27.296875 
Q 45.40625 37.203125 41.296875 42.84375 
Q 37.203125 48.484375 30.078125 48.484375 
Q 22.953125 48.484375 18.875 42.84375 
Q 14.796875 37.203125 14.796875 27.296875 
z
" id="DejaVuSans-64"/>
      <path d="M 44.28125 53.078125 
L 44.28125 44.578125 
Q 40.484375 46.53125 36.375 47.5 
Q 32.28125 48.484375 27.875 48.484375 
Q 21.1875 48.484375 17.84375 46.4375 
Q 14.5 44.390625 14.5 40.28125 
Q 14.5 37.15625 16.890625 35.375 
Q 19.28125 33.59375 26.515625 31.984375 
L 29.59375 31.296875 
Q 39.15625 29.25 43.1875 25.515625 
Q 47.21875 21.78125 47.21875 15.09375 
Q 47.21875 7.46875 41.1875 3.015625 
Q 35.15625 -1.421875 24.609375 -1.421875 
Q 20.21875 -1.421875 15.453125 -0.5625 
Q 10.6875 0.296875 5.421875 2 
L 5.421875 11.28125 
Q 10.40625 8.6875 15.234375 7.390625 
Q 20.0625 6.109375 24.8125 6.109375 
Q 31.15625 6.109375 34.5625 8.28125 
Q 37.984375 10.453125 37.984375 14.40625 
Q 37.984375 18.0625 35.515625 20.015625 
Q 33.0625 21.96875 24.703125 23.78125 
L 21.578125 24.515625 
Q 13.234375 26.265625 9.515625 29.90625 
Q 5.8125 33.546875 5.8125 39.890625 
Q 5.8125 47.609375 11.28125 51.796875 
Q 16.75 56 26.8125 56 
Q 31.78125 56 36.171875 55.265625 
Q 40.578125 54.546875 44.28125 53.078125 
z
" id="DejaVuSans-73"/>
      <path d="M 9.421875 75.984375 
L 18.40625 75.984375 
L 18.40625 0 
L 9.421875 0 
z
" id="DejaVuSans-6c"/>
      <path d="M 30.609375 48.390625 
Q 23.390625 48.390625 19.1875 42.75 
Q 14.984375 37.109375 14.984375 27.296875 
Q 14.984375 17.484375 19.15625 11.84375 
Q 23.34375 6.203125 30.609375 6.203125 
Q 37.796875 6.203125 41.984375 11.859375 
Q 46.1875 17.53125 46.1875 27.296875 
Q 46.1875 37.015625 41.984375 42.703125 
Q 37.796875 48.390625 30.609375 48.390625 
z
M 30.609375 56 
Q 42.328125 56 49.015625 48.375 
Q 55.71875 40.765625 55.71875 27.296875 
Q 55.71875 13.875 49.015625 6.21875 
Q 42.328125 -1.421875 30.609375 -1.421875 
Q 18.84375 -1.421875 12.171875 6.21875 
Q 5.515625 13.875 5.515625 27.296875 
Q 5.515625 40.765625 12.171875 48.375 
Q 18.84375 56 30.609375 56 
z
" id="DejaVuSans-6f"/>
     </defs>
     <g transform="translate(26.097812 619.98375)rotate(-90)scale(0.42 -0.42)">
      <use xlink:href="#DejaVuSans-52"/>
      <use x="69.419922" xlink:href="#DejaVuSans-65"/>
      <use x="130.943359" xlink:href="#DejaVuSans-61"/>
      <use x="192.222656" xlink:href="#DejaVuSans-64"/>
      <use x="255.699219" xlink:href="#DejaVuSans-73"/>
      <use x="307.798828" xlink:href="#DejaVuSans-20"/>
      <use x="339.585938" xlink:href="#DejaVuSans-61"/>
      <use x="400.865234" xlink:href="#DejaVuSans-74"/>
      <use x="440.074219" xlink:href="#DejaVuSans-20"/>
      <use x="471.861328" xlink:href="#DejaVuSans-69"/>
      <use x="499.644531" xlink:href="#DejaVuSans-6e"/>
      <use x="563.023438" xlink:href="#DejaVuSans-66"/>
      <use x="598.228516" xlink:href="#DejaVuSans-6c"/>
      <use x="626.011719" xlink:href="#DejaVuSans-65"/>
      <use x="687.535156" xlink:href="#DejaVuSans-63"/>
      <use x="742.515625" xlink:href="#DejaVuSans-74"/>
      <use x="781.724609" xlink:href="#DejaVuSans-69"/>
      <use x="809.507812" xlink:href="#DejaVuSans-6f"/>
      <use x="870.689453" xlink:href="#DejaVuSans-6e"/>
      <use x="934.068359" xlink:href="#DejaVuSans-20"/>
      <use x="965.855469" xlink:href="#DejaVuSans-70"/>
      <use x="1029.332031" xlink:href="#DejaVuSans-6f"/>
      <use x="1090.513672" xlink:href="#DejaVuSans-69"/>
      <use x="1118.296875" xlink:href="#DejaVuSans-6e"/>
      <use x="1181.675781" xlink:href="#DejaVuSans-74"/>
     </g>
    </g>
   </g>
   <g id="line2d_9">
    <path clip-path="url(#p8f903e4510)" d="M 130.245652 248.147327 
L 138.736957 248.147327 
L 138.736957 171.282509 
L 130.245652 171.282509 
L 130.245652 248.147327 
" style="fill:none;stroke:#00008b;stroke-linecap:square;"/>
   </g>
   <g id="line2d_10">
    <path clip-path="url(#p8f903e4510)" d="M 134.491304 248.147327 
L 134.491304 282.678163 
" style="fill:none;stroke:#00008b;stroke-dasharray:3.7,1.6;stroke-dashoffset:0;"/>
   </g>
   <g id="line2d_11">
    <path clip-path="url(#p8f903e4510)" d="M 134.491304 171.282509 
L 134.491304 111.6 
" style="fill:none;stroke:#00008b;stroke-dasharray:3.7,1.6;stroke-dashoffset:0;"/>
   </g>
   <g id="line2d_12">
    <path clip-path="url(#p8f903e4510)" d="M 132.368478 282.678163 
L 136.61413 282.678163 
" style="fill:none;stroke:#000000;stroke-linecap:square;"/>
   </g>
   <g id="line2d_13">
    <path clip-path="url(#p8f903e4510)" d="M 132.368478 111.6 
L 136.61413 111.6 
" style="fill:none;stroke:#000000;stroke-linecap:square;"/>
   </g>
   <g id="line2d_14"/>
   <g id="line2d_15">
    <path clip-path="url(#p8f903e4510)" d="M 147.228261 317.081256 
L 155.719565 317.081256 
L 155.719565 258.028231 
L 147.228261 258.028231 
L 147.228261 317.081256 
" style="fill:none;stroke:#00008b;stroke-linecap:square;"/>
   </g>
   <g id="line2d_16">
    <path clip-path="url(#p8f903e4510)" d="M 151.473913 317.081256 
L 151.473913 342.523815 
" style="fill:none;stroke:#00008b;stroke-dasharray:3.7,1.6;stroke-dashoffset:0;"/>
   </g>
   <g id="line2d_17">
    <path clip-path="url(#p8f903e4510)" d="M 151.473913 258.028231 
L 151.473913 193.109766 
" style="fill:none;stroke:#00008b;stroke-dasharray:3.7,1.6;stroke-dashoffset:0;"/>
   </g>
   <g id="line2d_18">
    <path clip-path="url(#p8f903e4510)" d="M 149.351087 342.523815 
L 153.596739 342.523815 
" style="fill:none;stroke:#000000;stroke-linecap:square;"/>
   </g>
   <g id="line2d_19">
    <path clip-path="url(#p8f903e4510)" d="M 149.351087 193.109766 
L 153.596739 193.109766 
" style="fill:none;stroke:#000000;stroke-linecap:square;"/>
   </g>
   <g id="line2d_20"/>
   <g id="line2d_21">
    <path clip-path="url(#p8f903e4510)" d="M 164.21087 362.267155 
L 172.702174 362.267155 
L 172.702174 322.651193 
L 164.21087 322.651193 
L 164.21087 362.267155 
" style="fill:none;stroke:#00008b;stroke-linecap:square;"/>
   </g>
   <g id="line2d_22">
    <path clip-path="url(#p8f903e4510)" d="M 168.456522 362.267155 
L 168.456522 381.007014 
" style="fill:none;stroke:#00008b;stroke-dasharray:3.7,1.6;stroke-dashoffset:0;"/>
   </g>
   <g id="line2d_23">
    <path clip-path="url(#p8f903e4510)" d="M 168.456522 322.651193 
L 168.456522 274.163964 
" style="fill:none;stroke:#00008b;stroke-dasharray:3.7,1.6;stroke-dashoffset:0;"/>
   </g>
   <g id="line2d_24">
    <path clip-path="url(#p8f903e4510)" d="M 166.333696 381.007014 
L 170.579348 381.007014 
" style="fill:none;stroke:#000000;stroke-linecap:square;"/>
   </g>
   <g id="line2d_25">
    <path clip-path="url(#p8f903e4510)" d="M 166.333696 274.163964 
L 170.579348 274.163964 
" style="fill:none;stroke:#000000;stroke-linecap:square;"/>
   </g>
   <g id="line2d_26"/>
   <g id="line2d_27">
    <path clip-path="url(#p8f903e4510)" d="M 181.193478 405.029001 
L 189.684783 405.029001 
L 189.684783 363.098259 
L 181.193478 363.098259 
L 181.193478 405.029001 
" style="fill:none;stroke:#00008b;stroke-linecap:square;"/>
   </g>
   <g id="line2d_28">
    <path clip-path="url(#p8f903e4510)" d="M 185.43913 405.029001 
L 185.43913 418.400542 
" style="fill:none;stroke:#00008b;stroke-dasharray:3.7,1.6;stroke-dashoffset:0;"/>
   </g>
   <g id="line2d_29">
    <path clip-path="url(#p8f903e4510)" d="M 185.43913 363.098259 
L 185.43913 341.05861 
" style="fill:none;stroke:#00008b;stroke-dasharray:3.7,1.6;stroke-dashoffset:0;"/>
   </g>
   <g id="line2d_30">
    <path clip-path="url(#p8f903e4510)" d="M 183.316304 418.400542 
L 187.561957 418.400542 
" style="fill:none;stroke:#000000;stroke-linecap:square;"/>
   </g>
   <g id="line2d_31">
    <path clip-path="url(#p8f903e4510)" d="M 183.316304 341.05861 
L 187.561957 341.05861 
" style="fill:none;stroke:#000000;stroke-linecap:square;"/>
   </g>
   <g id="line2d_32"/>
   <g id="line2d_33">
    <path clip-path="url(#p8f903e4510)" d="M 198.176087 434.219224 
L 206.667391 434.219224 
L 206.667391 388.1699 
L 198.176087 388.1699 
L 198.176087 434.219224 
" style="fill:none;stroke:#00008b;stroke-linecap:square;"/>
   </g>
   <g id="line2d_34">
    <path clip-path="url(#p8f903e4510)" d="M 202.421739 434.219224 
L 202.421739 466.493767 
" style="fill:none;stroke:#00008b;stroke-dasharray:3.7,1.6;stroke-dashoffset:0;"/>
   </g>
   <g id="line2d_35">
    <path clip-path="url(#p8f903e4510)" d="M 202.421739 388.1699 
L 202.421739 360.451039 
" style="fill:none;stroke:#00008b;stroke-dasharray:3.7,1.6;stroke-dashoffset:0;"/>
   </g>
   <g id="line2d_36">
    <path clip-path="url(#p8f903e4510)" d="M 200.298913 466.493767 
L 204.544565 466.493767 
" style="fill:none;stroke:#000000;stroke-linecap:square;"/>
   </g>
   <g id="line2d_37">
    <path clip-path="url(#p8f903e4510)" d="M 200.298913 360.451039 
L 204.544565 360.451039 
" style="fill:none;stroke:#000000;stroke-linecap:square;"/>
   </g>
   <g id="line2d_38"/>
   <g id="line2d_39">
    <path clip-path="url(#p8f903e4510)" d="M 215.158696 461.010019 
L 223.65 461.010019 
L 223.65 426.663872 
L 215.158696 426.663872 
L 215.158696 461.010019 
" style="fill:none;stroke:#00008b;stroke-linecap:square;"/>
   </g>
   <g id="line2d_40">
    <path clip-path="url(#p8f903e4510)" d="M 219.404348 461.010019 
L 219.404348 474.084518 
" style="fill:none;stroke:#00008b;stroke-dasharray:3.7,1.6;stroke-dashoffset:0;"/>
   </g>
   <g id="line2d_41">
    <path clip-path="url(#p8f903e4510)" d="M 219.404348 426.663872 
L 219.404348 399.691465 
" style="fill:none;stroke:#00008b;stroke-dasharray:3.7,1.6;stroke-dashoffset:0;"/>
   </g>
   <g id="line2d_42">
    <path clip-path="url(#p8f903e4510)" d="M 217.281522 474.084518 
L 221.527174 474.084518 
" style="fill:none;stroke:#000000;stroke-linecap:square;"/>
   </g>
   <g id="line2d_43">
    <path clip-path="url(#p8f903e4510)" d="M 217.281522 399.691465 
L 221.527174 399.691465 
" style="fill:none;stroke:#000000;stroke-linecap:square;"/>
   </g>
   <g id="line2d_44"/>
   <g id="line2d_45">
    <path clip-path="url(#p8f903e4510)" d="M 232.141304 475.57127 
L 240.632609 475.57127 
L 240.632609 443.399846 
L 232.141304 443.399846 
L 232.141304 475.57127 
" style="fill:none;stroke:#00008b;stroke-linecap:square;"/>
   </g>
   <g id="line2d_46">
    <path clip-path="url(#p8f903e4510)" d="M 236.386957 475.57127 
L 236.386957 490.903602 
" style="fill:none;stroke:#00008b;stroke-dasharray:3.7,1.6;stroke-dashoffset:0;"/>
   </g>
   <g id="line2d_47">
    <path clip-path="url(#p8f903e4510)" d="M 236.386957 443.399846 
L 236.386957 416.621364 
" style="fill:none;stroke:#00008b;stroke-dasharray:3.7,1.6;stroke-dashoffset:0;"/>
   </g>
   <g id="line2d_48">
    <path clip-path="url(#p8f903e4510)" d="M 234.26413 490.903602 
L 238.509783 490.903602 
" style="fill:none;stroke:#000000;stroke-linecap:square;"/>
   </g>
   <g id="line2d_49">
    <path clip-path="url(#p8f903e4510)" d="M 234.26413 416.621364 
L 238.509783 416.621364 
" style="fill:none;stroke:#000000;stroke-linecap:square;"/>
   </g>
   <g id="line2d_50"/>
   <g id="line2d_51">
    <path clip-path="url(#p8f903e4510)" d="M 249.123913 493.279944 
L 257.615217 493.279944 
L 257.615217 464.520664 
L 249.123913 464.520664 
L 249.123913 493.279944 
" style="fill:none;stroke:#00008b;stroke-linecap:square;"/>
   </g>
   <g id="line2d_52">
    <path clip-path="url(#p8f903e4510)" d="M 253.369565 493.279944 
L 253.369565 509.914339 
" style="fill:none;stroke:#00008b;stroke-dasharray:3.7,1.6;stroke-dashoffset:0;"/>
   </g>
   <g id="line2d_53">
    <path clip-path="url(#p8f903e4510)" d="M 253.369565 464.520664 
L 253.369565 438.827234 
" style="fill:none;stroke:#00008b;stroke-dasharray:3.7,1.6;stroke-dashoffset:0;"/>
   </g>
   <g id="line2d_54">
    <path clip-path="url(#p8f903e4510)" d="M 251.246739 509.914339 
L 255.492391 509.914339 
" style="fill:none;stroke:#000000;stroke-linecap:square;"/>
   </g>
   <g id="line2d_55">
    <path clip-path="url(#p8f903e4510)" d="M 251.246739 438.827234 
L 255.492391 438.827234 
" style="fill:none;stroke:#000000;stroke-linecap:square;"/>
   </g>
   <g id="line2d_56"/>
   <g id="line2d_57">
    <path clip-path="url(#p8f903e4510)" d="M 266.106522 504.475224 
L 274.597826 504.475224 
L 274.597826 475.888321 
L 266.106522 475.888321 
L 266.106522 504.475224 
" style="fill:none;stroke:#00008b;stroke-linecap:square;"/>
   </g>
   <g id="line2d_58">
    <path clip-path="url(#p8f903e4510)" d="M 270.352174 504.475224 
L 270.352174 521.075759 
" style="fill:none;stroke:#00008b;stroke-dasharray:3.7,1.6;stroke-dashoffset:0;"/>
   </g>
   <g id="line2d_59">
    <path clip-path="url(#p8f903e4510)" d="M 270.352174 475.888321 
L 270.352174 448.683514 
" style="fill:none;stroke:#00008b;stroke-dasharray:3.7,1.6;stroke-dashoffset:0;"/>
   </g>
   <g id="line2d_60">
    <path clip-path="url(#p8f903e4510)" d="M 268.229348 521.075759 
L 272.475 521.075759 
" style="fill:none;stroke:#000000;stroke-linecap:square;"/>
   </g>
   <g id="line2d_61">
    <path clip-path="url(#p8f903e4510)" d="M 268.229348 448.683514 
L 272.475 448.683514 
" style="fill:none;stroke:#000000;stroke-linecap:square;"/>
   </g>
   <g id="line2d_62"/>
   <g id="line2d_63">
    <path clip-path="url(#p8f903e4510)" d="M 283.08913 513.404976 
L 291.580435 513.404976 
L 291.580435 490.207937 
L 283.08913 490.207937 
L 283.08913 513.404976 
" style="fill:none;stroke:#00008b;stroke-linecap:square;"/>
   </g>
   <g id="line2d_64">
    <path clip-path="url(#p8f903e4510)" d="M 287.334783 513.404976 
L 287.334783 526.708798 
" style="fill:none;stroke:#00008b;stroke-dasharray:3.7,1.6;stroke-dashoffset:0;"/>
   </g>
   <g id="line2d_65">
    <path clip-path="url(#p8f903e4510)" d="M 287.334783 490.207937 
L 287.334783 473.117974 
" style="fill:none;stroke:#00008b;stroke-dasharray:3.7,1.6;stroke-dashoffset:0;"/>
   </g>
   <g id="line2d_66">
    <path clip-path="url(#p8f903e4510)" d="M 285.211957 526.708798 
L 289.457609 526.708798 
" style="fill:none;stroke:#000000;stroke-linecap:square;"/>
   </g>
   <g id="line2d_67">
    <path clip-path="url(#p8f903e4510)" d="M 285.211957 473.117974 
L 289.457609 473.117974 
" style="fill:none;stroke:#000000;stroke-linecap:square;"/>
   </g>
   <g id="line2d_68"/>
   <g id="line2d_69">
    <path clip-path="url(#p8f903e4510)" d="M 300.071739 523.285881 
L 308.563043 523.285881 
L 308.563043 499.510147 
L 300.071739 499.510147 
L 300.071739 523.285881 
" style="fill:none;stroke:#00008b;stroke-linecap:square;"/>
   </g>
   <g id="line2d_70">
    <path clip-path="url(#p8f903e4510)" d="M 304.317391 523.285881 
L 304.317391 536.651266 
" style="fill:none;stroke:#00008b;stroke-dasharray:3.7,1.6;stroke-dashoffset:0;"/>
   </g>
   <g id="line2d_71">
    <path clip-path="url(#p8f903e4510)" d="M 304.317391 499.510147 
L 304.317391 481.749144 
" style="fill:none;stroke:#00008b;stroke-dasharray:3.7,1.6;stroke-dashoffset:0;"/>
   </g>
   <g id="line2d_72">
    <path clip-path="url(#p8f903e4510)" d="M 302.194565 536.651266 
L 306.440217 536.651266 
" style="fill:none;stroke:#000000;stroke-linecap:square;"/>
   </g>
   <g id="line2d_73">
    <path clip-path="url(#p8f903e4510)" d="M 302.194565 481.749144 
L 306.440217 481.749144 
" style="fill:none;stroke:#000000;stroke-linecap:square;"/>
   </g>
   <g id="line2d_74"/>
   <g id="line2d_75">
    <path clip-path="url(#p8f903e4510)" d="M 317.054348 533.394569 
L 325.545652 533.394569 
L 325.545652 510.680802 
L 317.054348 510.680802 
L 317.054348 533.394569 
" style="fill:none;stroke:#00008b;stroke-linecap:square;"/>
   </g>
   <g id="line2d_76">
    <path clip-path="url(#p8f903e4510)" d="M 321.3 533.394569 
L 321.3 543.854168 
" style="fill:none;stroke:#00008b;stroke-dasharray:3.7,1.6;stroke-dashoffset:0;"/>
   </g>
   <g id="line2d_77">
    <path clip-path="url(#p8f903e4510)" d="M 321.3 510.680802 
L 321.3 492.26415 
" style="fill:none;stroke:#00008b;stroke-dasharray:3.7,1.6;stroke-dashoffset:0;"/>
   </g>
   <g id="line2d_78">
    <path clip-path="url(#p8f903e4510)" d="M 319.177174 543.854168 
L 323.422826 543.854168 
" style="fill:none;stroke:#000000;stroke-linecap:square;"/>
   </g>
   <g id="line2d_79">
    <path clip-path="url(#p8f903e4510)" d="M 319.177174 492.26415 
L 323.422826 492.26415 
" style="fill:none;stroke:#000000;stroke-linecap:square;"/>
   </g>
   <g id="line2d_80"/>
   <g id="line2d_81">
    <path clip-path="url(#p8f903e4510)" d="M 334.036957 541.039188 
L 342.528261 541.039188 
L 342.528261 519.310433 
L 334.036957 519.310433 
L 334.036957 541.039188 
" style="fill:none;stroke:#00008b;stroke-linecap:square;"/>
   </g>
   <g id="line2d_82">
    <path clip-path="url(#p8f903e4510)" d="M 338.282609 541.039188 
L 338.282609 557.047177 
" style="fill:none;stroke:#00008b;stroke-dasharray:3.7,1.6;stroke-dashoffset:0;"/>
   </g>
   <g id="line2d_83">
    <path clip-path="url(#p8f903e4510)" d="M 338.282609 519.310433 
L 338.282609 502.114273 
" style="fill:none;stroke:#00008b;stroke-dasharray:3.7,1.6;stroke-dashoffset:0;"/>
   </g>
   <g id="line2d_84">
    <path clip-path="url(#p8f903e4510)" d="M 336.159783 557.047177 
L 340.405435 557.047177 
" style="fill:none;stroke:#000000;stroke-linecap:square;"/>
   </g>
   <g id="line2d_85">
    <path clip-path="url(#p8f903e4510)" d="M 336.159783 502.114273 
L 340.405435 502.114273 
" style="fill:none;stroke:#000000;stroke-linecap:square;"/>
   </g>
   <g id="line2d_86"/>
   <g id="line2d_87">
    <path clip-path="url(#p8f903e4510)" d="M 351.019565 546.021195 
L 359.51087 546.021195 
L 359.51087 527.207461 
L 351.019565 527.207461 
L 351.019565 546.021195 
" style="fill:none;stroke:#00008b;stroke-linecap:square;"/>
   </g>
   <g id="line2d_88">
    <path clip-path="url(#p8f903e4510)" d="M 355.265217 546.021195 
L 355.265217 559.503551 
" style="fill:none;stroke:#00008b;stroke-dasharray:3.7,1.6;stroke-dashoffset:0;"/>
   </g>
   <g id="line2d_89">
    <path clip-path="url(#p8f903e4510)" d="M 355.265217 527.207461 
L 355.265217 512.07521 
" style="fill:none;stroke:#00008b;stroke-dasharray:3.7,1.6;stroke-dashoffset:0;"/>
   </g>
   <g id="line2d_90">
    <path clip-path="url(#p8f903e4510)" d="M 353.142391 559.503551 
L 357.388043 559.503551 
" style="fill:none;stroke:#000000;stroke-linecap:square;"/>
   </g>
   <g id="line2d_91">
    <path clip-path="url(#p8f903e4510)" d="M 353.142391 512.07521 
L 357.388043 512.07521 
" style="fill:none;stroke:#000000;stroke-linecap:square;"/>
   </g>
   <g id="line2d_92"/>
   <g id="line2d_93">
    <path clip-path="url(#p8f903e4510)" d="M 368.002174 553.596555 
L 376.493478 553.596555 
L 376.493478 532.692748 
L 368.002174 532.692748 
L 368.002174 553.596555 
" style="fill:none;stroke:#00008b;stroke-linecap:square;"/>
   </g>
   <g id="line2d_94">
    <path clip-path="url(#p8f903e4510)" d="M 372.247826 553.596555 
L 372.247826 561.916831 
" style="fill:none;stroke:#00008b;stroke-dasharray:3.7,1.6;stroke-dashoffset:0;"/>
   </g>
   <g id="line2d_95">
    <path clip-path="url(#p8f903e4510)" d="M 372.247826 532.692748 
L 372.247826 508.45529 
" style="fill:none;stroke:#00008b;stroke-dasharray:3.7,1.6;stroke-dashoffset:0;"/>
   </g>
   <g id="line2d_96">
    <path clip-path="url(#p8f903e4510)" d="M 370.125 561.916831 
L 374.370652 561.916831 
" style="fill:none;stroke:#000000;stroke-linecap:square;"/>
   </g>
   <g id="line2d_97">
    <path clip-path="url(#p8f903e4510)" d="M 370.125 508.45529 
L 374.370652 508.45529 
" style="fill:none;stroke:#000000;stroke-linecap:square;"/>
   </g>
   <g id="line2d_98"/>
   <g id="line2d_99">
    <path clip-path="url(#p8f903e4510)" d="M 384.984783 558.167628 
L 393.476087 558.167628 
L 393.476087 539.760211 
L 384.984783 539.760211 
L 384.984783 558.167628 
" style="fill:none;stroke:#00008b;stroke-linecap:square;"/>
   </g>
   <g id="line2d_100">
    <path clip-path="url(#p8f903e4510)" d="M 389.230435 558.167628 
L 389.230435 567.592964 
" style="fill:none;stroke:#00008b;stroke-dasharray:3.7,1.6;stroke-dashoffset:0;"/>
   </g>
   <g id="line2d_101">
    <path clip-path="url(#p8f903e4510)" d="M 389.230435 539.760211 
L 389.230435 522.971908 
" style="fill:none;stroke:#00008b;stroke-dasharray:3.7,1.6;stroke-dashoffset:0;"/>
   </g>
   <g id="line2d_102">
    <path clip-path="url(#p8f903e4510)" d="M 387.107609 567.592964 
L 391.353261 567.592964 
" style="fill:none;stroke:#000000;stroke-linecap:square;"/>
   </g>
   <g id="line2d_103">
    <path clip-path="url(#p8f903e4510)" d="M 387.107609 522.971908 
L 391.353261 522.971908 
" style="fill:none;stroke:#000000;stroke-linecap:square;"/>
   </g>
   <g id="line2d_104"/>
   <g id="line2d_105">
    <path clip-path="url(#p8f903e4510)" d="M 401.967391 558.690916 
L 410.458696 558.690916 
L 410.458696 540.936069 
L 401.967391 540.936069 
L 401.967391 558.690916 
" style="fill:none;stroke:#00008b;stroke-linecap:square;"/>
   </g>
   <g id="line2d_106">
    <path clip-path="url(#p8f903e4510)" d="M 406.213043 558.690916 
L 406.213043 565.561376 
" style="fill:none;stroke:#00008b;stroke-dasharray:3.7,1.6;stroke-dashoffset:0;"/>
   </g>
   <g id="line2d_107">
    <path clip-path="url(#p8f903e4510)" d="M 406.213043 540.936069 
L 406.213043 531.153666 
" style="fill:none;stroke:#00008b;stroke-dasharray:3.7,1.6;stroke-dashoffset:0;"/>
   </g>
   <g id="line2d_108">
    <path clip-path="url(#p8f903e4510)" d="M 404.090217 565.561376 
L 408.33587 565.561376 
" style="fill:none;stroke:#000000;stroke-linecap:square;"/>
   </g>
   <g id="line2d_109">
    <path clip-path="url(#p8f903e4510)" d="M 404.090217 531.153666 
L 408.33587 531.153666 
" style="fill:none;stroke:#000000;stroke-linecap:square;"/>
   </g>
   <g id="line2d_110"/>
   <g id="line2d_111">
    <path clip-path="url(#p8f903e4510)" d="M 418.95 563.363568 
L 427.441304 563.363568 
L 427.441304 548.520664 
L 418.95 548.520664 
L 418.95 563.363568 
" style="fill:none;stroke:#00008b;stroke-linecap:square;"/>
   </g>
   <g id="line2d_112">
    <path clip-path="url(#p8f903e4510)" d="M 423.195652 563.363568 
L 423.195652 575.331467 
" style="fill:none;stroke:#00008b;stroke-dasharray:3.7,1.6;stroke-dashoffset:0;"/>
   </g>
   <g id="line2d_113">
    <path clip-path="url(#p8f903e4510)" d="M 423.195652 548.520664 
L 423.195652 536.571234 
" style="fill:none;stroke:#00008b;stroke-dasharray:3.7,1.6;stroke-dashoffset:0;"/>
   </g>
   <g id="line2d_114">
    <path clip-path="url(#p8f903e4510)" d="M 421.072826 575.331467 
L 425.318478 575.331467 
" style="fill:none;stroke:#000000;stroke-linecap:square;"/>
   </g>
   <g id="line2d_115">
    <path clip-path="url(#p8f903e4510)" d="M 421.072826 536.571234 
L 425.318478 536.571234 
" style="fill:none;stroke:#000000;stroke-linecap:square;"/>
   </g>
   <g id="line2d_116"/>
   <g id="line2d_117">
    <path clip-path="url(#p8f903e4510)" d="M 435.932609 567.457525 
L 444.423913 567.457525 
L 444.423913 550.835443 
L 435.932609 550.835443 
L 435.932609 567.457525 
" style="fill:none;stroke:#00008b;stroke-linecap:square;"/>
   </g>
   <g id="line2d_118">
    <path clip-path="url(#p8f903e4510)" d="M 440.178261 567.457525 
L 440.178261 580.096464 
" style="fill:none;stroke:#00008b;stroke-dasharray:3.7,1.6;stroke-dashoffset:0;"/>
   </g>
   <g id="line2d_119">
    <path clip-path="url(#p8f903e4510)" d="M 440.178261 550.835443 
L 440.178261 535.894038 
" style="fill:none;stroke:#00008b;stroke-dasharray:3.7,1.6;stroke-dashoffset:0;"/>
   </g>
   <g id="line2d_120">
    <path clip-path="url(#p8f903e4510)" d="M 438.055435 580.096464 
L 442.301087 580.096464 
" style="fill:none;stroke:#000000;stroke-linecap:square;"/>
   </g>
   <g id="line2d_121">
    <path clip-path="url(#p8f903e4510)" d="M 438.055435 535.894038 
L 442.301087 535.894038 
" style="fill:none;stroke:#000000;stroke-linecap:square;"/>
   </g>
   <g id="line2d_122"/>
   <g id="line2d_123">
    <path clip-path="url(#p8f903e4510)" d="M 452.915217 572.788904 
L 461.406522 572.788904 
L 461.406522 555.341874 
L 452.915217 555.341874 
L 452.915217 572.788904 
" style="fill:none;stroke:#00008b;stroke-linecap:square;"/>
   </g>
   <g id="line2d_124">
    <path clip-path="url(#p8f903e4510)" d="M 457.16087 572.788904 
L 457.16087 578.902136 
" style="fill:none;stroke:#00008b;stroke-dasharray:3.7,1.6;stroke-dashoffset:0;"/>
   </g>
   <g id="line2d_125">
    <path clip-path="url(#p8f903e4510)" d="M 457.16087 555.341874 
L 457.16087 544.198923 
" style="fill:none;stroke:#00008b;stroke-dasharray:3.7,1.6;stroke-dashoffset:0;"/>
   </g>
   <g id="line2d_126">
    <path clip-path="url(#p8f903e4510)" d="M 455.038043 578.902136 
L 459.283696 578.902136 
" style="fill:none;stroke:#000000;stroke-linecap:square;"/>
   </g>
   <g id="line2d_127">
    <path clip-path="url(#p8f903e4510)" d="M 455.038043 544.198923 
L 459.283696 544.198923 
" style="fill:none;stroke:#000000;stroke-linecap:square;"/>
   </g>
   <g id="line2d_128"/>
   <g id="line2d_129">
    <path clip-path="url(#p8f903e4510)" d="M 469.897826 575.011338 
L 478.38913 575.011338 
L 478.38913 558.435428 
L 469.897826 558.435428 
L 469.897826 575.011338 
" style="fill:none;stroke:#00008b;stroke-linecap:square;"/>
   </g>
   <g id="line2d_130">
    <path clip-path="url(#p8f903e4510)" d="M 474.143478 575.011338 
L 474.143478 587.0408 
" style="fill:none;stroke:#00008b;stroke-dasharray:3.7,1.6;stroke-dashoffset:0;"/>
   </g>
   <g id="line2d_131">
    <path clip-path="url(#p8f903e4510)" d="M 474.143478 558.435428 
L 474.143478 543.626384 
" style="fill:none;stroke:#00008b;stroke-dasharray:3.7,1.6;stroke-dashoffset:0;"/>
   </g>
   <g id="line2d_132">
    <path clip-path="url(#p8f903e4510)" d="M 472.020652 587.0408 
L 476.266304 587.0408 
" style="fill:none;stroke:#000000;stroke-linecap:square;"/>
   </g>
   <g id="line2d_133">
    <path clip-path="url(#p8f903e4510)" d="M 472.020652 543.626384 
L 476.266304 543.626384 
" style="fill:none;stroke:#000000;stroke-linecap:square;"/>
   </g>
   <g id="line2d_134"/>
   <g id="line2d_135">
    <path clip-path="url(#p8f903e4510)" d="M 486.880435 577.720122 
L 495.371739 577.720122 
L 495.371739 562.427806 
L 486.880435 562.427806 
L 486.880435 577.720122 
" style="fill:none;stroke:#00008b;stroke-linecap:square;"/>
   </g>
   <g id="line2d_136">
    <path clip-path="url(#p8f903e4510)" d="M 491.126087 577.720122 
L 491.126087 588.265909 
" style="fill:none;stroke:#00008b;stroke-dasharray:3.7,1.6;stroke-dashoffset:0;"/>
   </g>
   <g id="line2d_137">
    <path clip-path="url(#p8f903e4510)" d="M 491.126087 562.427806 
L 491.126087 544.931526 
" style="fill:none;stroke:#00008b;stroke-dasharray:3.7,1.6;stroke-dashoffset:0;"/>
   </g>
   <g id="line2d_138">
    <path clip-path="url(#p8f903e4510)" d="M 489.003261 588.265909 
L 493.248913 588.265909 
" style="fill:none;stroke:#000000;stroke-linecap:square;"/>
   </g>
   <g id="line2d_139">
    <path clip-path="url(#p8f903e4510)" d="M 489.003261 544.931526 
L 493.248913 544.931526 
" style="fill:none;stroke:#000000;stroke-linecap:square;"/>
   </g>
   <g id="line2d_140"/>
   <g id="line2d_141">
    <path clip-path="url(#p8f903e4510)" d="M 503.863043 580.824449 
L 512.354348 580.824449 
L 512.354348 565.796856 
L 503.863043 565.796856 
L 503.863043 580.824449 
" style="fill:none;stroke:#00008b;stroke-linecap:square;"/>
   </g>
   <g id="line2d_142">
    <path clip-path="url(#p8f903e4510)" d="M 508.108696 580.824449 
L 508.108696 588.696852 
" style="fill:none;stroke:#00008b;stroke-dasharray:3.7,1.6;stroke-dashoffset:0;"/>
   </g>
   <g id="line2d_143">
    <path clip-path="url(#p8f903e4510)" d="M 508.108696 565.796856 
L 508.108696 556.376137 
" style="fill:none;stroke:#00008b;stroke-dasharray:3.7,1.6;stroke-dashoffset:0;"/>
   </g>
   <g id="line2d_144">
    <path clip-path="url(#p8f903e4510)" d="M 505.98587 588.696852 
L 510.231522 588.696852 
" style="fill:none;stroke:#000000;stroke-linecap:square;"/>
   </g>
   <g id="line2d_145">
    <path clip-path="url(#p8f903e4510)" d="M 505.98587 556.376137 
L 510.231522 556.376137 
" style="fill:none;stroke:#000000;stroke-linecap:square;"/>
   </g>
   <g id="line2d_146"/>
   <g id="line2d_147">
    <path clip-path="url(#p8f903e4510)" d="M 520.845652 583.285441 
L 529.336957 583.285441 
L 529.336957 570.56647 
L 520.845652 570.56647 
L 520.845652 583.285441 
" style="fill:none;stroke:#00008b;stroke-linecap:square;"/>
   </g>
   <g id="line2d_148">
    <path clip-path="url(#p8f903e4510)" d="M 525.091304 583.285441 
L 525.091304 592.162864 
" style="fill:none;stroke:#00008b;stroke-dasharray:3.7,1.6;stroke-dashoffset:0;"/>
   </g>
   <g id="line2d_149">
    <path clip-path="url(#p8f903e4510)" d="M 525.091304 570.56647 
L 525.091304 557.15799 
" style="fill:none;stroke:#00008b;stroke-dasharray:3.7,1.6;stroke-dashoffset:0;"/>
   </g>
   <g id="line2d_150">
    <path clip-path="url(#p8f903e4510)" d="M 522.968478 592.162864 
L 527.21413 592.162864 
" style="fill:none;stroke:#000000;stroke-linecap:square;"/>
   </g>
   <g id="line2d_151">
    <path clip-path="url(#p8f903e4510)" d="M 522.968478 557.15799 
L 527.21413 557.15799 
" style="fill:none;stroke:#000000;stroke-linecap:square;"/>
   </g>
   <g id="line2d_152"/>
   <g id="line2d_153">
    <path clip-path="url(#p8f903e4510)" d="M 537.828261 583.593257 
L 546.319565 583.593257 
L 546.319565 570.628033 
L 537.828261 570.628033 
L 537.828261 583.593257 
" style="fill:none;stroke:#00008b;stroke-linecap:square;"/>
   </g>
   <g id="line2d_154">
    <path clip-path="url(#p8f903e4510)" d="M 542.073913 583.593257 
L 542.073913 590.383686 
" style="fill:none;stroke:#00008b;stroke-dasharray:3.7,1.6;stroke-dashoffset:0;"/>
   </g>
   <g id="line2d_155">
    <path clip-path="url(#p8f903e4510)" d="M 542.073913 570.628033 
L 542.073913 561.344293 
" style="fill:none;stroke:#00008b;stroke-dasharray:3.7,1.6;stroke-dashoffset:0;"/>
   </g>
   <g id="line2d_156">
    <path clip-path="url(#p8f903e4510)" d="M 539.951087 590.383686 
L 544.196739 590.383686 
" style="fill:none;stroke:#000000;stroke-linecap:square;"/>
   </g>
   <g id="line2d_157">
    <path clip-path="url(#p8f903e4510)" d="M 539.951087 561.344293 
L 544.196739 561.344293 
" style="fill:none;stroke:#000000;stroke-linecap:square;"/>
   </g>
   <g id="line2d_158"/>
   <g id="line2d_159">
    <path clip-path="url(#p8f903e4510)" d="M 554.81087 586.502122 
L 563.302174 586.502122 
L 563.302174 574.469581 
L 554.81087 574.469581 
L 554.81087 586.502122 
" style="fill:none;stroke:#00008b;stroke-linecap:square;"/>
   </g>
   <g id="line2d_160">
    <path clip-path="url(#p8f903e4510)" d="M 559.056522 586.502122 
L 559.056522 593.252534 
" style="fill:none;stroke:#00008b;stroke-dasharray:3.7,1.6;stroke-dashoffset:0;"/>
   </g>
   <g id="line2d_161">
    <path clip-path="url(#p8f903e4510)" d="M 559.056522 574.469581 
L 559.056522 566.27551 
" style="fill:none;stroke:#00008b;stroke-dasharray:3.7,1.6;stroke-dashoffset:0;"/>
   </g>
   <g id="line2d_162">
    <path clip-path="url(#p8f903e4510)" d="M 556.933696 593.252534 
L 561.179348 593.252534 
" style="fill:none;stroke:#000000;stroke-linecap:square;"/>
   </g>
   <g id="line2d_163">
    <path clip-path="url(#p8f903e4510)" d="M 556.933696 566.27551 
L 561.179348 566.27551 
" style="fill:none;stroke:#000000;stroke-linecap:square;"/>
   </g>
   <g id="line2d_164"/>
   <g id="line2d_165">
    <path clip-path="url(#p8f903e4510)" d="M 571.793478 588.413661 
L 580.284783 588.413661 
L 580.284783 575.060589 
L 571.793478 575.060589 
L 571.793478 588.413661 
" style="fill:none;stroke:#00008b;stroke-linecap:square;"/>
   </g>
   <g id="line2d_166">
    <path clip-path="url(#p8f903e4510)" d="M 576.03913 588.413661 
L 576.03913 597.438836 
" style="fill:none;stroke:#00008b;stroke-dasharray:3.7,1.6;stroke-dashoffset:0;"/>
   </g>
   <g id="line2d_167">
    <path clip-path="url(#p8f903e4510)" d="M 576.03913 575.060589 
L 576.03913 562.11999 
" style="fill:none;stroke:#00008b;stroke-dasharray:3.7,1.6;stroke-dashoffset:0;"/>
   </g>
   <g id="line2d_168">
    <path clip-path="url(#p8f903e4510)" d="M 573.916304 597.438836 
L 578.161957 597.438836 
" style="fill:none;stroke:#000000;stroke-linecap:square;"/>
   </g>
   <g id="line2d_169">
    <path clip-path="url(#p8f903e4510)" d="M 573.916304 562.11999 
L 578.161957 562.11999 
" style="fill:none;stroke:#000000;stroke-linecap:square;"/>
   </g>
   <g id="line2d_170"/>
   <g id="line2d_171">
    <path clip-path="url(#p8f903e4510)" d="M 588.776087 589.263234 
L 597.267391 589.263234 
L 597.267391 578.483506 
L 588.776087 578.483506 
L 588.776087 589.263234 
" style="fill:none;stroke:#00008b;stroke-linecap:square;"/>
   </g>
   <g id="line2d_172">
    <path clip-path="url(#p8f903e4510)" d="M 593.021739 589.263234 
L 593.021739 596.490762 
" style="fill:none;stroke:#00008b;stroke-dasharray:3.7,1.6;stroke-dashoffset:0;"/>
   </g>
   <g id="line2d_173">
    <path clip-path="url(#p8f903e4510)" d="M 593.021739 578.483506 
L 593.021739 566.712609 
" style="fill:none;stroke:#00008b;stroke-dasharray:3.7,1.6;stroke-dashoffset:0;"/>
   </g>
   <g id="line2d_174">
    <path clip-path="url(#p8f903e4510)" d="M 590.898913 596.490762 
L 595.144565 596.490762 
" style="fill:none;stroke:#000000;stroke-linecap:square;"/>
   </g>
   <g id="line2d_175">
    <path clip-path="url(#p8f903e4510)" d="M 590.898913 566.712609 
L 595.144565 566.712609 
" style="fill:none;stroke:#000000;stroke-linecap:square;"/>
   </g>
   <g id="line2d_176"/>
   <g id="line2d_177">
    <path clip-path="url(#p8f903e4510)" d="M 605.758696 592.173638 
L 614.25 592.173638 
L 614.25 579.103756 
L 605.758696 579.103756 
L 605.758696 592.173638 
" style="fill:none;stroke:#00008b;stroke-linecap:square;"/>
   </g>
   <g id="line2d_178">
    <path clip-path="url(#p8f903e4510)" d="M 610.004348 592.173638 
L 610.004348 598.430005 
" style="fill:none;stroke:#00008b;stroke-dasharray:3.7,1.6;stroke-dashoffset:0;"/>
   </g>
   <g id="line2d_179">
    <path clip-path="url(#p8f903e4510)" d="M 610.004348 579.103756 
L 610.004348 570.535688 
" style="fill:none;stroke:#00008b;stroke-dasharray:3.7,1.6;stroke-dashoffset:0;"/>
   </g>
   <g id="line2d_180">
    <path clip-path="url(#p8f903e4510)" d="M 607.881522 598.430005 
L 612.127174 598.430005 
" style="fill:none;stroke:#000000;stroke-linecap:square;"/>
   </g>
   <g id="line2d_181">
    <path clip-path="url(#p8f903e4510)" d="M 607.881522 570.535688 
L 612.127174 570.535688 
" style="fill:none;stroke:#000000;stroke-linecap:square;"/>
   </g>
   <g id="line2d_182"/>
   <g id="line2d_183">
    <path clip-path="url(#p8f903e4510)" d="M 622.741304 593.971285 
L 631.232609 593.971285 
L 631.232609 581.801766 
L 622.741304 581.801766 
L 622.741304 593.971285 
" style="fill:none;stroke:#00008b;stroke-linecap:square;"/>
   </g>
   <g id="line2d_184">
    <path clip-path="url(#p8f903e4510)" d="M 626.986957 593.971285 
L 626.986957 600.393873 
" style="fill:none;stroke:#00008b;stroke-dasharray:3.7,1.6;stroke-dashoffset:0;"/>
   </g>
   <g id="line2d_185">
    <path clip-path="url(#p8f903e4510)" d="M 626.986957 581.801766 
L 626.986957 574.235641 
" style="fill:none;stroke:#00008b;stroke-dasharray:3.7,1.6;stroke-dashoffset:0;"/>
   </g>
   <g id="line2d_186">
    <path clip-path="url(#p8f903e4510)" d="M 624.86413 600.393873 
L 629.109783 600.393873 
" style="fill:none;stroke:#000000;stroke-linecap:square;"/>
   </g>
   <g id="line2d_187">
    <path clip-path="url(#p8f903e4510)" d="M 624.86413 574.235641 
L 629.109783 574.235641 
" style="fill:none;stroke:#000000;stroke-linecap:square;"/>
   </g>
   <g id="line2d_188"/>
   <g id="line2d_189">
    <path clip-path="url(#p8f903e4510)" d="M 639.723913 594.39915 
L 648.215217 594.39915 
L 648.215217 582.732911 
L 639.723913 582.732911 
L 639.723913 594.39915 
" style="fill:none;stroke:#00008b;stroke-linecap:square;"/>
   </g>
   <g id="line2d_190">
    <path clip-path="url(#p8f903e4510)" d="M 643.969565 594.39915 
L 643.969565 601.5882 
" style="fill:none;stroke:#00008b;stroke-dasharray:3.7,1.6;stroke-dashoffset:0;"/>
   </g>
   <g id="line2d_191">
    <path clip-path="url(#p8f903e4510)" d="M 643.969565 582.732911 
L 643.969565 576.476544 
" style="fill:none;stroke:#00008b;stroke-dasharray:3.7,1.6;stroke-dashoffset:0;"/>
   </g>
   <g id="line2d_192">
    <path clip-path="url(#p8f903e4510)" d="M 641.846739 601.5882 
L 646.092391 601.5882 
" style="fill:none;stroke:#000000;stroke-linecap:square;"/>
   </g>
   <g id="line2d_193">
    <path clip-path="url(#p8f903e4510)" d="M 641.846739 576.476544 
L 646.092391 576.476544 
" style="fill:none;stroke:#000000;stroke-linecap:square;"/>
   </g>
   <g id="line2d_194"/>
   <g id="line2d_195">
    <path clip-path="url(#p8f903e4510)" d="M 656.706522 595.993638 
L 665.197826 595.993638 
L 665.197826 584.368955 
L 656.706522 584.368955 
L 656.706522 595.993638 
" style="fill:none;stroke:#00008b;stroke-linecap:square;"/>
   </g>
   <g id="line2d_196">
    <path clip-path="url(#p8f903e4510)" d="M 660.952174 595.993638 
L 660.952174 602.850247 
" style="fill:none;stroke:#00008b;stroke-dasharray:3.7,1.6;stroke-dashoffset:0;"/>
   </g>
   <g id="line2d_197">
    <path clip-path="url(#p8f903e4510)" d="M 660.952174 584.368955 
L 660.952174 578.391161 
" style="fill:none;stroke:#00008b;stroke-dasharray:3.7,1.6;stroke-dashoffset:0;"/>
   </g>
   <g id="line2d_198">
    <path clip-path="url(#p8f903e4510)" d="M 658.829348 602.850247 
L 663.075 602.850247 
" style="fill:none;stroke:#000000;stroke-linecap:square;"/>
   </g>
   <g id="line2d_199">
    <path clip-path="url(#p8f903e4510)" d="M 658.829348 578.391161 
L 663.075 578.391161 
" style="fill:none;stroke:#000000;stroke-linecap:square;"/>
   </g>
   <g id="line2d_200"/>
   <g id="line2d_201">
    <path clip-path="url(#p8f903e4510)" d="M 673.68913 597.372656 
L 682.180435 597.372656 
L 682.180435 586.198923 
L 673.68913 586.198923 
L 673.68913 597.372656 
" style="fill:none;stroke:#00008b;stroke-linecap:square;"/>
   </g>
   <g id="line2d_202">
    <path clip-path="url(#p8f903e4510)" d="M 677.934783 597.372656 
L 677.934783 604.641738 
" style="fill:none;stroke:#00008b;stroke-dasharray:3.7,1.6;stroke-dashoffset:0;"/>
   </g>
   <g id="line2d_203">
    <path clip-path="url(#p8f903e4510)" d="M 677.934783 586.198923 
L 677.934783 574.13714 
" style="fill:none;stroke:#00008b;stroke-dasharray:3.7,1.6;stroke-dashoffset:0;"/>
   </g>
   <g id="line2d_204">
    <path clip-path="url(#p8f903e4510)" d="M 675.811957 604.641738 
L 680.057609 604.641738 
" style="fill:none;stroke:#000000;stroke-linecap:square;"/>
   </g>
   <g id="line2d_205">
    <path clip-path="url(#p8f903e4510)" d="M 675.811957 574.13714 
L 680.057609 574.13714 
" style="fill:none;stroke:#000000;stroke-linecap:square;"/>
   </g>
   <g id="line2d_206"/>
   <g id="line2d_207">
    <path clip-path="url(#p8f903e4510)" d="M 690.671739 598.84094 
L 699.163043 598.84094 
L 699.163043 587.894991 
L 690.671739 587.894991 
L 690.671739 598.84094 
" style="fill:none;stroke:#00008b;stroke-linecap:square;"/>
   </g>
   <g id="line2d_208">
    <path clip-path="url(#p8f903e4510)" d="M 694.917391 598.84094 
L 694.917391 604.97418 
" style="fill:none;stroke:#00008b;stroke-dasharray:3.7,1.6;stroke-dashoffset:0;"/>
   </g>
   <g id="line2d_209">
    <path clip-path="url(#p8f903e4510)" d="M 694.917391 587.894991 
L 694.917391 575.263747 
" style="fill:none;stroke:#00008b;stroke-dasharray:3.7,1.6;stroke-dashoffset:0;"/>
   </g>
   <g id="line2d_210">
    <path clip-path="url(#p8f903e4510)" d="M 692.794565 604.97418 
L 697.040217 604.97418 
" style="fill:none;stroke:#000000;stroke-linecap:square;"/>
   </g>
   <g id="line2d_211">
    <path clip-path="url(#p8f903e4510)" d="M 692.794565 575.263747 
L 697.040217 575.263747 
" style="fill:none;stroke:#000000;stroke-linecap:square;"/>
   </g>
   <g id="line2d_212"/>
   <g id="line2d_213">
    <path clip-path="url(#p8f903e4510)" d="M 707.654348 599.944461 
L 716.145652 599.944461 
L 716.145652 589.464854 
L 707.654348 589.464854 
L 707.654348 599.944461 
" style="fill:none;stroke:#00008b;stroke-linecap:square;"/>
   </g>
   <g id="line2d_214">
    <path clip-path="url(#p8f903e4510)" d="M 711.9 599.944461 
L 711.9 606.611763 
" style="fill:none;stroke:#00008b;stroke-dasharray:3.7,1.6;stroke-dashoffset:0;"/>
   </g>
   <g id="line2d_215">
    <path clip-path="url(#p8f903e4510)" d="M 711.9 589.464854 
L 711.9 580.835223 
" style="fill:none;stroke:#00008b;stroke-dasharray:3.7,1.6;stroke-dashoffset:0;"/>
   </g>
   <g id="line2d_216">
    <path clip-path="url(#p8f903e4510)" d="M 709.777174 606.611763 
L 714.022826 606.611763 
" style="fill:none;stroke:#000000;stroke-linecap:square;"/>
   </g>
   <g id="line2d_217">
    <path clip-path="url(#p8f903e4510)" d="M 709.777174 580.835223 
L 714.022826 580.835223 
" style="fill:none;stroke:#000000;stroke-linecap:square;"/>
   </g>
   <g id="line2d_218"/>
   <g id="line2d_219">
    <path clip-path="url(#p8f903e4510)" d="M 724.636957 601.951424 
L 733.128261 601.951424 
L 733.128261 591.842735 
L 724.636957 591.842735 
L 724.636957 601.951424 
" style="fill:none;stroke:#00008b;stroke-linecap:square;"/>
   </g>
   <g id="line2d_220">
    <path clip-path="url(#p8f903e4510)" d="M 728.882609 601.951424 
L 728.882609 610.176276 
" style="fill:none;stroke:#00008b;stroke-dasharray:3.7,1.6;stroke-dashoffset:0;"/>
   </g>
   <g id="line2d_221">
    <path clip-path="url(#p8f903e4510)" d="M 728.882609 591.842735 
L 728.882609 582.528213 
" style="fill:none;stroke:#00008b;stroke-dasharray:3.7,1.6;stroke-dashoffset:0;"/>
   </g>
   <g id="line2d_222">
    <path clip-path="url(#p8f903e4510)" d="M 726.759783 610.176276 
L 731.005435 610.176276 
" style="fill:none;stroke:#000000;stroke-linecap:square;"/>
   </g>
   <g id="line2d_223">
    <path clip-path="url(#p8f903e4510)" d="M 726.759783 582.528213 
L 731.005435 582.528213 
" style="fill:none;stroke:#000000;stroke-linecap:square;"/>
   </g>
   <g id="line2d_224"/>
   <g id="line2d_225">
    <path clip-path="url(#p8f903e4510)" d="M 741.619565 602.627081 
L 750.11087 602.627081 
L 750.11087 592.269061 
L 741.619565 592.269061 
L 741.619565 602.627081 
" style="fill:none;stroke:#00008b;stroke-linecap:square;"/>
   </g>
   <g id="line2d_226">
    <path clip-path="url(#p8f903e4510)" d="M 745.865217 602.627081 
L 745.865217 608.704914 
" style="fill:none;stroke:#00008b;stroke-dasharray:3.7,1.6;stroke-dashoffset:0;"/>
   </g>
   <g id="line2d_227">
    <path clip-path="url(#p8f903e4510)" d="M 745.865217 592.269061 
L 745.865217 583.999575 
" style="fill:none;stroke:#00008b;stroke-dasharray:3.7,1.6;stroke-dashoffset:0;"/>
   </g>
   <g id="line2d_228">
    <path clip-path="url(#p8f903e4510)" d="M 743.742391 608.704914 
L 747.988043 608.704914 
" style="fill:none;stroke:#000000;stroke-linecap:square;"/>
   </g>
   <g id="line2d_229">
    <path clip-path="url(#p8f903e4510)" d="M 743.742391 583.999575 
L 747.988043 583.999575 
" style="fill:none;stroke:#000000;stroke-linecap:square;"/>
   </g>
   <g id="line2d_230"/>
   <g id="line2d_231">
    <path clip-path="url(#p8f903e4510)" d="M 758.602174 602.25924 
L 767.093478 602.25924 
L 767.093478 592.772341 
L 758.602174 592.772341 
L 758.602174 602.25924 
" style="fill:none;stroke:#00008b;stroke-linecap:square;"/>
   </g>
   <g id="line2d_232">
    <path clip-path="url(#p8f903e4510)" d="M 762.847826 602.25924 
L 762.847826 609.462142 
" style="fill:none;stroke:#00008b;stroke-dasharray:3.7,1.6;stroke-dashoffset:0;"/>
   </g>
   <g id="line2d_233">
    <path clip-path="url(#p8f903e4510)" d="M 762.847826 592.772341 
L 762.847826 584.245828 
" style="fill:none;stroke:#00008b;stroke-dasharray:3.7,1.6;stroke-dashoffset:0;"/>
   </g>
   <g id="line2d_234">
    <path clip-path="url(#p8f903e4510)" d="M 760.725 609.462142 
L 764.970652 609.462142 
" style="fill:none;stroke:#000000;stroke-linecap:square;"/>
   </g>
   <g id="line2d_235">
    <path clip-path="url(#p8f903e4510)" d="M 760.725 584.245828 
L 764.970652 584.245828 
" style="fill:none;stroke:#000000;stroke-linecap:square;"/>
   </g>
   <g id="line2d_236"/>
   <g id="line2d_237">
    <path clip-path="url(#p8f903e4510)" d="M 775.584783 604.777178 
L 784.076087 604.777178 
L 784.076087 594.409923 
L 775.584783 594.409923 
L 775.584783 604.777178 
" style="fill:none;stroke:#00008b;stroke-linecap:square;"/>
   </g>
   <g id="line2d_238">
    <path clip-path="url(#p8f903e4510)" d="M 779.830435 604.777178 
L 779.830435 611.050475 
" style="fill:none;stroke:#00008b;stroke-dasharray:3.7,1.6;stroke-dashoffset:0;"/>
   </g>
   <g id="line2d_239">
    <path clip-path="url(#p8f903e4510)" d="M 779.830435 594.409923 
L 779.830435 584.110389 
" style="fill:none;stroke:#00008b;stroke-dasharray:3.7,1.6;stroke-dashoffset:0;"/>
   </g>
   <g id="line2d_240">
    <path clip-path="url(#p8f903e4510)" d="M 777.707609 611.050475 
L 781.953261 611.050475 
" style="fill:none;stroke:#000000;stroke-linecap:square;"/>
   </g>
   <g id="line2d_241">
    <path clip-path="url(#p8f903e4510)" d="M 777.707609 584.110389 
L 781.953261 584.110389 
" style="fill:none;stroke:#000000;stroke-linecap:square;"/>
   </g>
   <g id="line2d_242"/>
   <g id="line2d_243">
    <path clip-path="url(#p8f903e4510)" d="M 792.567391 605.084994 
L 801.058696 605.084994 
L 801.058696 594.903969 
L 792.567391 594.903969 
L 792.567391 605.084994 
" style="fill:none;stroke:#00008b;stroke-linecap:square;"/>
   </g>
   <g id="line2d_244">
    <path clip-path="url(#p8f903e4510)" d="M 796.813043 605.084994 
L 796.813043 612.060112 
" style="fill:none;stroke:#00008b;stroke-dasharray:3.7,1.6;stroke-dashoffset:0;"/>
   </g>
   <g id="line2d_245">
    <path clip-path="url(#p8f903e4510)" d="M 796.813043 594.903969 
L 796.813043 586.757609 
" style="fill:none;stroke:#00008b;stroke-dasharray:3.7,1.6;stroke-dashoffset:0;"/>
   </g>
   <g id="line2d_246">
    <path clip-path="url(#p8f903e4510)" d="M 794.690217 612.060112 
L 798.93587 612.060112 
" style="fill:none;stroke:#000000;stroke-linecap:square;"/>
   </g>
   <g id="line2d_247">
    <path clip-path="url(#p8f903e4510)" d="M 794.690217 586.757609 
L 798.93587 586.757609 
" style="fill:none;stroke:#000000;stroke-linecap:square;"/>
   </g>
   <g id="line2d_248"/>
   <g id="line2d_249">
    <path clip-path="url(#p8f903e4510)" d="M 809.55 606.260852 
L 818.041304 606.260852 
L 818.041304 596.419964 
L 809.55 596.419964 
L 809.55 606.260852 
" style="fill:none;stroke:#00008b;stroke-linecap:square;"/>
   </g>
   <g id="line2d_250">
    <path clip-path="url(#p8f903e4510)" d="M 813.795652 606.260852 
L 813.795652 613.032812 
" style="fill:none;stroke:#00008b;stroke-dasharray:3.7,1.6;stroke-dashoffset:0;"/>
   </g>
   <g id="line2d_251">
    <path clip-path="url(#p8f903e4510)" d="M 813.795652 596.419964 
L 813.795652 588.339785 
" style="fill:none;stroke:#00008b;stroke-dasharray:3.7,1.6;stroke-dashoffset:0;"/>
   </g>
   <g id="line2d_252">
    <path clip-path="url(#p8f903e4510)" d="M 811.672826 613.032812 
L 815.918478 613.032812 
" style="fill:none;stroke:#000000;stroke-linecap:square;"/>
   </g>
   <g id="line2d_253">
    <path clip-path="url(#p8f903e4510)" d="M 811.672826 588.339785 
L 815.918478 588.339785 
" style="fill:none;stroke:#000000;stroke-linecap:square;"/>
   </g>
   <g id="line2d_254"/>
   <g id="line2d_255">
    <path clip-path="url(#p8f903e4510)" d="M 826.532609 607.659878 
L 835.023913 607.659878 
L 835.023913 598.266862 
L 826.532609 598.266862 
L 826.532609 607.659878 
" style="fill:none;stroke:#00008b;stroke-linecap:square;"/>
   </g>
   <g id="line2d_256">
    <path clip-path="url(#p8f903e4510)" d="M 830.778261 607.659878 
L 830.778261 613.666913 
" style="fill:none;stroke:#00008b;stroke-dasharray:3.7,1.6;stroke-dashoffset:0;"/>
   </g>
   <g id="line2d_257">
    <path clip-path="url(#p8f903e4510)" d="M 830.778261 598.266862 
L 830.778261 592.526087 
" style="fill:none;stroke:#00008b;stroke-dasharray:3.7,1.6;stroke-dashoffset:0;"/>
   </g>
   <g id="line2d_258">
    <path clip-path="url(#p8f903e4510)" d="M 828.655435 613.666913 
L 832.901087 613.666913 
" style="fill:none;stroke:#000000;stroke-linecap:square;"/>
   </g>
   <g id="line2d_259">
    <path clip-path="url(#p8f903e4510)" d="M 828.655435 592.526087 
L 832.901087 592.526087 
" style="fill:none;stroke:#000000;stroke-linecap:square;"/>
   </g>
   <g id="line2d_260"/>
   <g id="line2d_261">
    <path clip-path="url(#p8f903e4510)" d="M 843.515217 608.010788 
L 852.006522 608.010788 
L 852.006522 598.448474 
L 843.515217 598.448474 
L 843.515217 608.010788 
" style="fill:none;stroke:#00008b;stroke-linecap:square;"/>
   </g>
   <g id="line2d_262">
    <path clip-path="url(#p8f903e4510)" d="M 847.76087 608.010788 
L 847.76087 613.783884 
" style="fill:none;stroke:#00008b;stroke-dasharray:3.7,1.6;stroke-dashoffset:0;"/>
   </g>
   <g id="line2d_263">
    <path clip-path="url(#p8f903e4510)" d="M 847.76087 598.448474 
L 847.76087 591.664202 
" style="fill:none;stroke:#00008b;stroke-dasharray:3.7,1.6;stroke-dashoffset:0;"/>
   </g>
   <g id="line2d_264">
    <path clip-path="url(#p8f903e4510)" d="M 845.638043 613.783884 
L 849.883696 613.783884 
" style="fill:none;stroke:#000000;stroke-linecap:square;"/>
   </g>
   <g id="line2d_265">
    <path clip-path="url(#p8f903e4510)" d="M 845.638043 591.664202 
L 849.883696 591.664202 
" style="fill:none;stroke:#000000;stroke-linecap:square;"/>
   </g>
   <g id="line2d_266"/>
   <g id="line2d_267">
    <path clip-path="url(#p8f903e4510)" d="M 860.497826 608.37709 
L 868.98913 608.37709 
L 868.98913 598.106798 
L 860.497826 598.106798 
L 860.497826 608.37709 
" style="fill:none;stroke:#00008b;stroke-linecap:square;"/>
   </g>
   <g id="line2d_268">
    <path clip-path="url(#p8f903e4510)" d="M 864.743478 608.37709 
L 864.743478 612.312522 
" style="fill:none;stroke:#00008b;stroke-dasharray:3.7,1.6;stroke-dashoffset:0;"/>
   </g>
   <g id="line2d_269">
    <path clip-path="url(#p8f903e4510)" d="M 864.743478 598.106798 
L 864.743478 592.901623 
" style="fill:none;stroke:#00008b;stroke-dasharray:3.7,1.6;stroke-dashoffset:0;"/>
   </g>
   <g id="line2d_270">
    <path clip-path="url(#p8f903e4510)" d="M 862.620652 612.312522 
L 866.866304 612.312522 
" style="fill:none;stroke:#000000;stroke-linecap:square;"/>
   </g>
   <g id="line2d_271">
    <path clip-path="url(#p8f903e4510)" d="M 862.620652 592.901623 
L 866.866304 592.901623 
" style="fill:none;stroke:#000000;stroke-linecap:square;"/>
   </g>
   <g id="line2d_272"/>
   <g id="line2d_273">
    <path clip-path="url(#p8f903e4510)" d="M 877.480435 609.534479 
L 885.971739 609.534479 
L 885.971739 599.619715 
L 877.480435 599.619715 
L 877.480435 609.534479 
" style="fill:none;stroke:#00008b;stroke-linecap:square;"/>
   </g>
   <g id="line2d_274">
    <path clip-path="url(#p8f903e4510)" d="M 881.726087 609.534479 
L 881.726087 615.6 
" style="fill:none;stroke:#00008b;stroke-dasharray:3.7,1.6;stroke-dashoffset:0;"/>
   </g>
   <g id="line2d_275">
    <path clip-path="url(#p8f903e4510)" d="M 881.726087 599.619715 
L 881.726087 594.268328 
" style="fill:none;stroke:#00008b;stroke-dasharray:3.7,1.6;stroke-dashoffset:0;"/>
   </g>
   <g id="line2d_276">
    <path clip-path="url(#p8f903e4510)" d="M 879.603261 615.6 
L 883.848913 615.6 
" style="fill:none;stroke:#000000;stroke-linecap:square;"/>
   </g>
   <g id="line2d_277">
    <path clip-path="url(#p8f903e4510)" d="M 879.603261 594.268328 
L 883.848913 594.268328 
" style="fill:none;stroke:#000000;stroke-linecap:square;"/>
   </g>
   <g id="line2d_278"/>
   <g id="line2d_279">
    <path clip-path="url(#p8f903e4510)" d="M 894.463043 610.568742 
L 902.954348 610.568742 
L 902.954348 600.709385 
L 894.463043 600.709385 
L 894.463043 610.568742 
" style="fill:none;stroke:#00008b;stroke-linecap:square;"/>
   </g>
   <g id="line2d_280">
    <path clip-path="url(#p8f903e4510)" d="M 898.708696 610.568742 
L 898.708696 615.495342 
" style="fill:none;stroke:#00008b;stroke-dasharray:3.7,1.6;stroke-dashoffset:0;"/>
   </g>
   <g id="line2d_281">
    <path clip-path="url(#p8f903e4510)" d="M 898.708696 600.709385 
L 898.708696 594.145201 
" style="fill:none;stroke:#00008b;stroke-dasharray:3.7,1.6;stroke-dashoffset:0;"/>
   </g>
   <g id="line2d_282">
    <path clip-path="url(#p8f903e4510)" d="M 896.58587 615.495342 
L 900.831522 615.495342 
" style="fill:none;stroke:#000000;stroke-linecap:square;"/>
   </g>
   <g id="line2d_283">
    <path clip-path="url(#p8f903e4510)" d="M 896.58587 594.145201 
L 900.831522 594.145201 
" style="fill:none;stroke:#000000;stroke-linecap:square;"/>
   </g>
   <g id="line2d_284"/>
   <g id="line2d_285">
    <path clip-path="url(#p8f903e4510)" d="M 130.245652 216.405306 
L 138.736957 216.405306 
" style="fill:none;stroke:#8b0000;stroke-linecap:square;"/>
   </g>
   <g id="line2d_286">
    <path clip-path="url(#p8f903e4510)" d="M 147.228261 285.793265 
L 155.719565 285.793265 
" style="fill:none;stroke:#8b0000;stroke-linecap:square;"/>
   </g>
   <g id="line2d_287">
    <path clip-path="url(#p8f903e4510)" d="M 164.21087 349.603591 
L 172.702174 349.603591 
" style="fill:none;stroke:#8b0000;stroke-linecap:square;"/>
   </g>
   <g id="line2d_288">
    <path clip-path="url(#p8f903e4510)" d="M 181.193478 384.725435 
L 189.684783 384.725435 
" style="fill:none;stroke:#8b0000;stroke-linecap:square;"/>
   </g>
   <g id="line2d_289">
    <path clip-path="url(#p8f903e4510)" d="M 198.176087 414.017238 
L 206.667391 414.017238 
" style="fill:none;stroke:#8b0000;stroke-linecap:square;"/>
   </g>
   <g id="line2d_290">
    <path clip-path="url(#p8f903e4510)" d="M 215.158696 444.608025 
L 223.65 444.608025 
" style="fill:none;stroke:#8b0000;stroke-linecap:square;"/>
   </g>
   <g id="line2d_291">
    <path clip-path="url(#p8f903e4510)" d="M 232.141304 461.033105 
L 240.632609 461.033105 
" style="fill:none;stroke:#8b0000;stroke-linecap:square;"/>
   </g>
   <g id="line2d_292">
    <path clip-path="url(#p8f903e4510)" d="M 249.123913 479.883777 
L 257.615217 479.883777 
" style="fill:none;stroke:#8b0000;stroke-linecap:square;"/>
   </g>
   <g id="line2d_293">
    <path clip-path="url(#p8f903e4510)" d="M 266.106522 490.041716 
L 274.597826 490.041716 
" style="fill:none;stroke:#8b0000;stroke-linecap:square;"/>
   </g>
   <g id="line2d_294">
    <path clip-path="url(#p8f903e4510)" d="M 283.08913 501.424765 
L 291.580435 501.424765 
" style="fill:none;stroke:#8b0000;stroke-linecap:square;"/>
   </g>
   <g id="line2d_295">
    <path clip-path="url(#p8f903e4510)" d="M 300.071739 511.157917 
L 308.563043 511.157917 
" style="fill:none;stroke:#8b0000;stroke-linecap:square;"/>
   </g>
   <g id="line2d_296">
    <path clip-path="url(#p8f903e4510)" d="M 317.054348 521.623673 
L 325.545652 521.623673 
" style="fill:none;stroke:#8b0000;stroke-linecap:square;"/>
   </g>
   <g id="line2d_297">
    <path clip-path="url(#p8f903e4510)" d="M 334.036957 531.169057 
L 342.528261 531.169057 
" style="fill:none;stroke:#8b0000;stroke-linecap:square;"/>
   </g>
   <g id="line2d_298">
    <path clip-path="url(#p8f903e4510)" d="M 351.019565 537.6332 
L 359.51087 537.6332 
" style="fill:none;stroke:#8b0000;stroke-linecap:square;"/>
   </g>
   <g id="line2d_299">
    <path clip-path="url(#p8f903e4510)" d="M 368.002174 544.057327 
L 376.493478 544.057327 
" style="fill:none;stroke:#8b0000;stroke-linecap:square;"/>
   </g>
   <g id="line2d_300">
    <path clip-path="url(#p8f903e4510)" d="M 384.984783 549.259423 
L 393.476087 549.259423 
" style="fill:none;stroke:#8b0000;stroke-linecap:square;"/>
   </g>
   <g id="line2d_301">
    <path clip-path="url(#p8f903e4510)" d="M 401.967391 550.786192 
L 410.458696 550.786192 
" style="fill:none;stroke:#8b0000;stroke-linecap:square;"/>
   </g>
   <g id="line2d_302">
    <path clip-path="url(#p8f903e4510)" d="M 418.95 555.920569 
L 427.441304 555.920569 
" style="fill:none;stroke:#8b0000;stroke-linecap:square;"/>
   </g>
   <g id="line2d_303">
    <path clip-path="url(#p8f903e4510)" d="M 435.932609 559.712866 
L 444.423913 559.712866 
" style="fill:none;stroke:#8b0000;stroke-linecap:square;"/>
   </g>
   <g id="line2d_304">
    <path clip-path="url(#p8f903e4510)" d="M 452.915217 564.58252 
L 461.406522 564.58252 
" style="fill:none;stroke:#8b0000;stroke-linecap:square;"/>
   </g>
   <g id="line2d_305">
    <path clip-path="url(#p8f903e4510)" d="M 469.897826 566.934237 
L 478.38913 566.934237 
" style="fill:none;stroke:#8b0000;stroke-linecap:square;"/>
   </g>
   <g id="line2d_306">
    <path clip-path="url(#p8f903e4510)" d="M 486.880435 569.698428 
L 495.371739 569.698428 
" style="fill:none;stroke:#8b0000;stroke-linecap:square;"/>
   </g>
   <g id="line2d_307">
    <path clip-path="url(#p8f903e4510)" d="M 503.863043 573.776994 
L 512.354348 573.776994 
" style="fill:none;stroke:#8b0000;stroke-linecap:square;"/>
   </g>
   <g id="line2d_308">
    <path clip-path="url(#p8f903e4510)" d="M 520.845652 576.895174 
L 529.336957 576.895174 
" style="fill:none;stroke:#8b0000;stroke-linecap:square;"/>
   </g>
   <g id="line2d_309">
    <path clip-path="url(#p8f903e4510)" d="M 537.828261 577.381524 
L 546.319565 577.381524 
" style="fill:none;stroke:#8b0000;stroke-linecap:square;"/>
   </g>
   <g id="line2d_310">
    <path clip-path="url(#p8f903e4510)" d="M 554.81087 580.718253 
L 563.302174 580.718253 
" style="fill:none;stroke:#8b0000;stroke-linecap:square;"/>
   </g>
   <g id="line2d_311">
    <path clip-path="url(#p8f903e4510)" d="M 571.793478 581.475481 
L 580.284783 581.475481 
" style="fill:none;stroke:#8b0000;stroke-linecap:square;"/>
   </g>
   <g id="line2d_312">
    <path clip-path="url(#p8f903e4510)" d="M 588.776087 584.036513 
L 597.267391 584.036513 
" style="fill:none;stroke:#8b0000;stroke-linecap:square;"/>
   </g>
   <g id="line2d_313">
    <path clip-path="url(#p8f903e4510)" d="M 605.758696 585.908036 
L 614.25 585.908036 
" style="fill:none;stroke:#8b0000;stroke-linecap:square;"/>
   </g>
   <g id="line2d_314">
    <path clip-path="url(#p8f903e4510)" d="M 622.741304 587.520994 
L 631.232609 587.520994 
" style="fill:none;stroke:#8b0000;stroke-linecap:square;"/>
   </g>
   <g id="line2d_315">
    <path clip-path="url(#p8f903e4510)" d="M 639.723913 588.856917 
L 648.215217 588.856917 
" style="fill:none;stroke:#8b0000;stroke-linecap:square;"/>
   </g>
   <g id="line2d_316">
    <path clip-path="url(#p8f903e4510)" d="M 656.706522 591.156305 
L 665.197826 591.156305 
" style="fill:none;stroke:#8b0000;stroke-linecap:square;"/>
   </g>
   <g id="line2d_317">
    <path clip-path="url(#p8f903e4510)" d="M 673.68913 592.446055 
L 682.180435 592.446055 
" style="fill:none;stroke:#8b0000;stroke-linecap:square;"/>
   </g>
   <g id="line2d_318">
    <path clip-path="url(#p8f903e4510)" d="M 690.671739 594.120576 
L 699.163043 594.120576 
" style="fill:none;stroke:#8b0000;stroke-linecap:square;"/>
   </g>
   <g id="line2d_319">
    <path clip-path="url(#p8f903e4510)" d="M 707.654348 594.779303 
L 716.145652 594.779303 
" style="fill:none;stroke:#8b0000;stroke-linecap:square;"/>
   </g>
   <g id="line2d_320">
    <path clip-path="url(#p8f903e4510)" d="M 724.636957 597.500399 
L 733.128261 597.500399 
" style="fill:none;stroke:#8b0000;stroke-linecap:square;"/>
   </g>
   <g id="line2d_321">
    <path clip-path="url(#p8f903e4510)" d="M 741.619565 597.103316 
L 750.11087 597.103316 
" style="fill:none;stroke:#8b0000;stroke-linecap:square;"/>
   </g>
   <g id="line2d_322">
    <path clip-path="url(#p8f903e4510)" d="M 758.602174 597.401898 
L 767.093478 597.401898 
" style="fill:none;stroke:#8b0000;stroke-linecap:square;"/>
   </g>
   <g id="line2d_323">
    <path clip-path="url(#p8f903e4510)" d="M 775.584783 599.618176 
L 784.076087 599.618176 
" style="fill:none;stroke:#8b0000;stroke-linecap:square;"/>
   </g>
   <g id="line2d_324">
    <path clip-path="url(#p8f903e4510)" d="M 792.567391 600.144542 
L 801.058696 600.144542 
" style="fill:none;stroke:#8b0000;stroke-linecap:square;"/>
   </g>
   <g id="line2d_325">
    <path clip-path="url(#p8f903e4510)" d="M 809.55 601.385042 
L 818.041304 601.385042 
" style="fill:none;stroke:#8b0000;stroke-linecap:square;"/>
   </g>
   <g id="line2d_326">
    <path clip-path="url(#p8f903e4510)" d="M 826.532609 602.690183 
L 835.023913 602.690183 
" style="fill:none;stroke:#8b0000;stroke-linecap:square;"/>
   </g>
   <g id="line2d_327">
    <path clip-path="url(#p8f903e4510)" d="M 843.515217 603.641335 
L 852.006522 603.641335 
" style="fill:none;stroke:#8b0000;stroke-linecap:square;"/>
   </g>
   <g id="line2d_328">
    <path clip-path="url(#p8f903e4510)" d="M 860.497826 603.321206 
L 868.98913 603.321206 
" style="fill:none;stroke:#8b0000;stroke-linecap:square;"/>
   </g>
   <g id="line2d_329">
    <path clip-path="url(#p8f903e4510)" d="M 877.480435 605.35895 
L 885.971739 605.35895 
" style="fill:none;stroke:#8b0000;stroke-linecap:square;"/>
   </g>
   <g id="line2d_330">
    <path clip-path="url(#p8f903e4510)" d="M 894.463043 606.226993 
L 902.954348 606.226993 
" style="fill:none;stroke:#8b0000;stroke-linecap:square;"/>
   </g>
   <g id="patch_3">
    <path d="M 126 640.8 
L 126 86.4 
" style="fill:none;stroke:#000000;stroke-linecap:square;stroke-linejoin:miter;stroke-width:0.8;"/>
   </g>
   <g id="patch_4">
    <path d="M 126 640.8 
L 907.2 640.8 
" style="fill:none;stroke:#000000;stroke-linecap:square;stroke-linejoin:miter;stroke-width:0.8;"/>
   </g>
  </g>
 </g>
 <defs>
  <clipPath id="p8f903e4510">
   <rect height="554.4" width="781.2" x="126" y="86.4"/>
  </clipPath>
 </defs>
</svg>
