<?xml version="1.0" encoding="utf-8" standalone="no"?>
<!DOCTYPE svg PUBLIC "-//W3C//DTD SVG 1.1//EN"
  "http://www.w3.org/Graphics/SVG/1.1/DTD/svg11.dtd">
<!-- Created with matplotlib (https://matplotlib.org/) -->
<svg height="390.62pt" version="1.1" viewBox="0 0 516.108125 390.62" width="516.108125pt" xmlns="http://www.w3.org/2000/svg" xmlns:xlink="http://www.w3.org/1999/xlink">
 <defs>
  <style type="text/css">
*{stroke-linecap:butt;stroke-linejoin:round;}
  </style>
 </defs>
 <g id="figure_1">
  <g id="patch_1">
   <path d="M 0 390.62 
L 516.108125 390.62 
L 516.108125 0 
L 0 0 
z
" style="fill:none;"/>
  </g>
  <g id="axes_1">
   <g id="patch_2">
    <path d="M 100.24375 316.7225 
L 490.84375 316.7225 
L 490.84375 39.5225 
L 100.24375 39.5225 
z
" style="fill:none;"/>
   </g>
   <g id="matplotlib.axis_1">
    <g id="xtick_1">
     <g id="line2d_1">
      <defs>
       <path d="M 0 0 
L 0 5 
" id="mcfa32400ea" style="stroke:#000000;stroke-width:0.8;"/>
      </defs>
      <g>
       <use style="stroke:#000000;stroke-width:0.8;" x="150.64375" xlink:href="#mcfa32400ea" y="316.7225"/>
      </g>
     </g>
     <g id="text_1">
      <!-- 0.02 -->
      <defs>
       <path d="M 31.78125 66.40625 
Q 24.171875 66.40625 20.328125 58.90625 
Q 16.5 51.421875 16.5 36.375 
Q 16.5 21.390625 20.328125 13.890625 
Q 24.171875 6.390625 31.78125 6.390625 
Q 39.453125 6.390625 43.28125 13.890625 
Q 47.125 21.390625 47.125 36.375 
Q 47.125 51.421875 43.28125 58.90625 
Q 39.453125 66.40625 31.78125 66.40625 
z
M 31.78125 74.21875 
Q 44.046875 74.21875 50.515625 64.515625 
Q 56.984375 54.828125 56.984375 36.375 
Q 56.984375 17.96875 50.515625 8.265625 
Q 44.046875 -1.421875 31.78125 -1.421875 
Q 19.53125 -1.421875 13.0625 8.265625 
Q 6.59375 17.96875 6.59375 36.375 
Q 6.59375 54.828125 13.0625 64.515625 
Q 19.53125 74.21875 31.78125 74.21875 
z
" id="DejaVuSans-48"/>
       <path d="M 10.6875 12.40625 
L 21 12.40625 
L 21 0 
L 10.6875 0 
z
" id="DejaVuSans-46"/>
       <path d="M 19.1875 8.296875 
L 53.609375 8.296875 
L 53.609375 0 
L 7.328125 0 
L 7.328125 8.296875 
Q 12.9375 14.109375 22.625 23.890625 
Q 32.328125 33.6875 34.8125 36.53125 
Q 39.546875 41.84375 41.421875 45.53125 
Q 43.3125 49.21875 43.3125 52.78125 
Q 43.3125 58.59375 39.234375 62.25 
Q 35.15625 65.921875 28.609375 65.921875 
Q 23.96875 65.921875 18.8125 64.3125 
Q 13.671875 62.703125 7.8125 59.421875 
L 7.8125 69.390625 
Q 13.765625 71.78125 18.9375 73 
Q 24.125 74.21875 28.421875 74.21875 
Q 39.75 74.21875 46.484375 68.546875 
Q 53.21875 62.890625 53.21875 53.421875 
Q 53.21875 48.921875 51.53125 44.890625 
Q 49.859375 40.875 45.40625 35.40625 
Q 44.1875 33.984375 37.640625 27.21875 
Q 31.109375 20.453125 19.1875 8.296875 
z
" id="DejaVuSans-50"/>
      </defs>
      <g transform="translate(119.471875 346.498125)scale(0.28 -0.28)">
       <use xlink:href="#DejaVuSans-48"/>
       <use x="63.623047" xlink:href="#DejaVuSans-46"/>
       <use x="95.410156" xlink:href="#DejaVuSans-48"/>
       <use x="159.033203" xlink:href="#DejaVuSans-50"/>
      </g>
     </g>
    </g>
    <g id="xtick_2">
     <g id="line2d_2">
      <g>
       <use style="stroke:#000000;stroke-width:0.8;" x="234.64375" xlink:href="#mcfa32400ea" y="316.7225"/>
      </g>
     </g>
     <g id="text_2">
      <!-- 0.04 -->
      <defs>
       <path d="M 37.796875 64.3125 
L 12.890625 25.390625 
L 37.796875 25.390625 
z
M 35.203125 72.90625 
L 47.609375 72.90625 
L 47.609375 25.390625 
L 58.015625 25.390625 
L 58.015625 17.1875 
L 47.609375 17.1875 
L 47.609375 0 
L 37.796875 0 
L 37.796875 17.1875 
L 4.890625 17.1875 
L 4.890625 26.703125 
z
" id="DejaVuSans-52"/>
      </defs>
      <g transform="translate(203.471875 346.498125)scale(0.28 -0.28)">
       <use xlink:href="#DejaVuSans-48"/>
       <use x="63.623047" xlink:href="#DejaVuSans-46"/>
       <use x="95.410156" xlink:href="#DejaVuSans-48"/>
       <use x="159.033203" xlink:href="#DejaVuSans-52"/>
      </g>
     </g>
    </g>
    <g id="xtick_3">
     <g id="line2d_3">
      <g>
       <use style="stroke:#000000;stroke-width:0.8;" x="318.64375" xlink:href="#mcfa32400ea" y="316.7225"/>
      </g>
     </g>
     <g id="text_3">
      <!-- 0.06 -->
      <defs>
       <path d="M 33.015625 40.375 
Q 26.375 40.375 22.484375 35.828125 
Q 18.609375 31.296875 18.609375 23.390625 
Q 18.609375 15.53125 22.484375 10.953125 
Q 26.375 6.390625 33.015625 6.390625 
Q 39.65625 6.390625 43.53125 10.953125 
Q 47.40625 15.53125 47.40625 23.390625 
Q 47.40625 31.296875 43.53125 35.828125 
Q 39.65625 40.375 33.015625 40.375 
z
M 52.59375 71.296875 
L 52.59375 62.3125 
Q 48.875 64.0625 45.09375 64.984375 
Q 41.3125 65.921875 37.59375 65.921875 
Q 27.828125 65.921875 22.671875 59.328125 
Q 17.53125 52.734375 16.796875 39.40625 
Q 19.671875 43.65625 24.015625 45.921875 
Q 28.375 48.1875 33.59375 48.1875 
Q 44.578125 48.1875 50.953125 41.515625 
Q 57.328125 34.859375 57.328125 23.390625 
Q 57.328125 12.15625 50.6875 5.359375 
Q 44.046875 -1.421875 33.015625 -1.421875 
Q 20.359375 -1.421875 13.671875 8.265625 
Q 6.984375 17.96875 6.984375 36.375 
Q 6.984375 53.65625 15.1875 63.9375 
Q 23.390625 74.21875 37.203125 74.21875 
Q 40.921875 74.21875 44.703125 73.484375 
Q 48.484375 72.75 52.59375 71.296875 
z
" id="DejaVuSans-54"/>
      </defs>
      <g transform="translate(287.471875 346.498125)scale(0.28 -0.28)">
       <use xlink:href="#DejaVuSans-48"/>
       <use x="63.623047" xlink:href="#DejaVuSans-46"/>
       <use x="95.410156" xlink:href="#DejaVuSans-48"/>
       <use x="159.033203" xlink:href="#DejaVuSans-54"/>
      </g>
     </g>
    </g>
    <g id="xtick_4">
     <g id="line2d_4">
      <g>
       <use style="stroke:#000000;stroke-width:0.8;" x="402.64375" xlink:href="#mcfa32400ea" y="316.7225"/>
      </g>
     </g>
     <g id="text_4">
      <!-- 0.08 -->
      <defs>
       <path d="M 31.78125 34.625 
Q 24.75 34.625 20.71875 30.859375 
Q 16.703125 27.09375 16.703125 20.515625 
Q 16.703125 13.921875 20.71875 10.15625 
Q 24.75 6.390625 31.78125 6.390625 
Q 38.8125 6.390625 42.859375 10.171875 
Q 46.921875 13.96875 46.921875 20.515625 
Q 46.921875 27.09375 42.890625 30.859375 
Q 38.875 34.625 31.78125 34.625 
z
M 21.921875 38.8125 
Q 15.578125 40.375 12.03125 44.71875 
Q 8.5 49.078125 8.5 55.328125 
Q 8.5 64.0625 14.71875 69.140625 
Q 20.953125 74.21875 31.78125 74.21875 
Q 42.671875 74.21875 48.875 69.140625 
Q 55.078125 64.0625 55.078125 55.328125 
Q 55.078125 49.078125 51.53125 44.71875 
Q 48 40.375 41.703125 38.8125 
Q 48.828125 37.15625 52.796875 32.3125 
Q 56.78125 27.484375 56.78125 20.515625 
Q 56.78125 9.90625 50.3125 4.234375 
Q 43.84375 -1.421875 31.78125 -1.421875 
Q 19.734375 -1.421875 13.25 4.234375 
Q 6.78125 9.90625 6.78125 20.515625 
Q 6.78125 27.484375 10.78125 32.3125 
Q 14.796875 37.15625 21.921875 38.8125 
z
M 18.3125 54.390625 
Q 18.3125 48.734375 21.84375 45.5625 
Q 25.390625 42.390625 31.78125 42.390625 
Q 38.140625 42.390625 41.71875 45.5625 
Q 45.3125 48.734375 45.3125 54.390625 
Q 45.3125 60.0625 41.71875 63.234375 
Q 38.140625 66.40625 31.78125 66.40625 
Q 25.390625 66.40625 21.84375 63.234375 
Q 18.3125 60.0625 18.3125 54.390625 
z
" id="DejaVuSans-56"/>
      </defs>
      <g transform="translate(371.471875 346.498125)scale(0.28 -0.28)">
       <use xlink:href="#DejaVuSans-48"/>
       <use x="63.623047" xlink:href="#DejaVuSans-46"/>
       <use x="95.410156" xlink:href="#DejaVuSans-48"/>
       <use x="159.033203" xlink:href="#DejaVuSans-56"/>
      </g>
     </g>
    </g>
    <g id="xtick_5">
     <g id="line2d_5">
      <g>
       <use style="stroke:#000000;stroke-width:0.8;" x="486.64375" xlink:href="#mcfa32400ea" y="316.7225"/>
      </g>
     </g>
     <g id="text_5">
      <!-- 0.1 -->
      <defs>
       <path d="M 12.40625 8.296875 
L 28.515625 8.296875 
L 28.515625 63.921875 
L 10.984375 60.40625 
L 10.984375 69.390625 
L 28.421875 72.90625 
L 38.28125 72.90625 
L 38.28125 8.296875 
L 54.390625 8.296875 
L 54.390625 0 
L 12.40625 0 
z
" id="DejaVuSans-49"/>
      </defs>
      <g transform="translate(464.379375 346.498125)scale(0.28 -0.28)">
       <use xlink:href="#DejaVuSans-48"/>
       <use x="63.623047" xlink:href="#DejaVuSans-46"/>
       <use x="95.410156" xlink:href="#DejaVuSans-49"/>
      </g>
     </g>
    </g>
    <g id="text_6">
     <!-- Capture efficiency -->
     <defs>
      <path d="M 64.40625 67.28125 
L 64.40625 56.890625 
Q 59.421875 61.53125 53.78125 63.8125 
Q 48.140625 66.109375 41.796875 66.109375 
Q 29.296875 66.109375 22.65625 58.46875 
Q 16.015625 50.828125 16.015625 36.375 
Q 16.015625 21.96875 22.65625 14.328125 
Q 29.296875 6.6875 41.796875 6.6875 
Q 48.140625 6.6875 53.78125 8.984375 
Q 59.421875 11.28125 64.40625 15.921875 
L 64.40625 5.609375 
Q 59.234375 2.09375 53.4375 0.328125 
Q 47.65625 -1.421875 41.21875 -1.421875 
Q 24.65625 -1.421875 15.125 8.703125 
Q 5.609375 18.84375 5.609375 36.375 
Q 5.609375 53.953125 15.125 64.078125 
Q 24.65625 74.21875 41.21875 74.21875 
Q 47.75 74.21875 53.53125 72.484375 
Q 59.328125 70.75 64.40625 67.28125 
z
" id="DejaVuSans-67"/>
      <path d="M 34.28125 27.484375 
Q 23.390625 27.484375 19.1875 25 
Q 14.984375 22.515625 14.984375 16.5 
Q 14.984375 11.71875 18.140625 8.90625 
Q 21.296875 6.109375 26.703125 6.109375 
Q 34.1875 6.109375 38.703125 11.40625 
Q 43.21875 16.703125 43.21875 25.484375 
L 43.21875 27.484375 
z
M 52.203125 31.203125 
L 52.203125 0 
L 43.21875 0 
L 43.21875 8.296875 
Q 40.140625 3.328125 35.546875 0.953125 
Q 30.953125 -1.421875 24.3125 -1.421875 
Q 15.921875 -1.421875 10.953125 3.296875 
Q 6 8.015625 6 15.921875 
Q 6 25.140625 12.171875 29.828125 
Q 18.359375 34.515625 30.609375 34.515625 
L 43.21875 34.515625 
L 43.21875 35.40625 
Q 43.21875 41.609375 39.140625 45 
Q 35.0625 48.390625 27.6875 48.390625 
Q 23 48.390625 18.546875 47.265625 
Q 14.109375 46.140625 10.015625 43.890625 
L 10.015625 52.203125 
Q 14.9375 54.109375 19.578125 55.046875 
Q 24.21875 56 28.609375 56 
Q 40.484375 56 46.34375 49.84375 
Q 52.203125 43.703125 52.203125 31.203125 
z
" id="DejaVuSans-97"/>
      <path d="M 18.109375 8.203125 
L 18.109375 -20.796875 
L 9.078125 -20.796875 
L 9.078125 54.6875 
L 18.109375 54.6875 
L 18.109375 46.390625 
Q 20.953125 51.265625 25.265625 53.625 
Q 29.59375 56 35.59375 56 
Q 45.5625 56 51.78125 48.09375 
Q 58.015625 40.1875 58.015625 27.296875 
Q 58.015625 14.40625 51.78125 6.484375 
Q 45.5625 -1.421875 35.59375 -1.421875 
Q 29.59375 -1.421875 25.265625 0.953125 
Q 20.953125 3.328125 18.109375 8.203125 
z
M 48.6875 27.296875 
Q 48.6875 37.203125 44.609375 42.84375 
Q 40.53125 48.484375 33.40625 48.484375 
Q 26.265625 48.484375 22.1875 42.84375 
Q 18.109375 37.203125 18.109375 27.296875 
Q 18.109375 17.390625 22.1875 11.75 
Q 26.265625 6.109375 33.40625 6.109375 
Q 40.53125 6.109375 44.609375 11.75 
Q 48.6875 17.390625 48.6875 27.296875 
z
" id="DejaVuSans-112"/>
      <path d="M 18.3125 70.21875 
L 18.3125 54.6875 
L 36.8125 54.6875 
L 36.8125 47.703125 
L 18.3125 47.703125 
L 18.3125 18.015625 
Q 18.3125 11.328125 20.140625 9.421875 
Q 21.96875 7.515625 27.59375 7.515625 
L 36.8125 7.515625 
L 36.8125 0 
L 27.59375 0 
Q 17.1875 0 13.234375 3.875 
Q 9.28125 7.765625 9.28125 18.015625 
L 9.28125 47.703125 
L 2.6875 47.703125 
L 2.6875 54.6875 
L 9.28125 54.6875 
L 9.28125 70.21875 
z
" id="DejaVuSans-116"/>
      <path d="M 8.5 21.578125 
L 8.5 54.6875 
L 17.484375 54.6875 
L 17.484375 21.921875 
Q 17.484375 14.15625 20.5 10.265625 
Q 23.53125 6.390625 29.59375 6.390625 
Q 36.859375 6.390625 41.078125 11.03125 
Q 45.3125 15.671875 45.3125 23.6875 
L 45.3125 54.6875 
L 54.296875 54.6875 
L 54.296875 0 
L 45.3125 0 
L 45.3125 8.40625 
Q 42.046875 3.421875 37.71875 1 
Q 33.40625 -1.421875 27.6875 -1.421875 
Q 18.265625 -1.421875 13.375 4.4375 
Q 8.5 10.296875 8.5 21.578125 
z
M 31.109375 56 
z
" id="DejaVuSans-117"/>
      <path d="M 41.109375 46.296875 
Q 39.59375 47.171875 37.8125 47.578125 
Q 36.03125 48 33.890625 48 
Q 26.265625 48 22.1875 43.046875 
Q 18.109375 38.09375 18.109375 28.8125 
L 18.109375 0 
L 9.078125 0 
L 9.078125 54.6875 
L 18.109375 54.6875 
L 18.109375 46.1875 
Q 20.953125 51.171875 25.484375 53.578125 
Q 30.03125 56 36.53125 56 
Q 37.453125 56 38.578125 55.875 
Q 39.703125 55.765625 41.0625 55.515625 
z
" id="DejaVuSans-114"/>
      <path d="M 56.203125 29.59375 
L 56.203125 25.203125 
L 14.890625 25.203125 
Q 15.484375 15.921875 20.484375 11.0625 
Q 25.484375 6.203125 34.421875 6.203125 
Q 39.59375 6.203125 44.453125 7.46875 
Q 49.3125 8.734375 54.109375 11.28125 
L 54.109375 2.78125 
Q 49.265625 0.734375 44.1875 -0.34375 
Q 39.109375 -1.421875 33.890625 -1.421875 
Q 20.796875 -1.421875 13.15625 6.1875 
Q 5.515625 13.8125 5.515625 26.8125 
Q 5.515625 40.234375 12.765625 48.109375 
Q 20.015625 56 32.328125 56 
Q 43.359375 56 49.78125 48.890625 
Q 56.203125 41.796875 56.203125 29.59375 
z
M 47.21875 32.234375 
Q 47.125 39.59375 43.09375 43.984375 
Q 39.0625 48.390625 32.421875 48.390625 
Q 24.90625 48.390625 20.390625 44.140625 
Q 15.875 39.890625 15.1875 32.171875 
z
" id="DejaVuSans-101"/>
      <path id="DejaVuSans-32"/>
      <path d="M 37.109375 75.984375 
L 37.109375 68.5 
L 28.515625 68.5 
Q 23.6875 68.5 21.796875 66.546875 
Q 19.921875 64.59375 19.921875 59.515625 
L 19.921875 54.6875 
L 34.71875 54.6875 
L 34.71875 47.703125 
L 19.921875 47.703125 
L 19.921875 0 
L 10.890625 0 
L 10.890625 47.703125 
L 2.296875 47.703125 
L 2.296875 54.6875 
L 10.890625 54.6875 
L 10.890625 58.5 
Q 10.890625 67.625 15.140625 71.796875 
Q 19.390625 75.984375 28.609375 75.984375 
z
" id="DejaVuSans-102"/>
      <path d="M 9.421875 54.6875 
L 18.40625 54.6875 
L 18.40625 0 
L 9.421875 0 
z
M 9.421875 75.984375 
L 18.40625 75.984375 
L 18.40625 64.59375 
L 9.421875 64.59375 
z
" id="DejaVuSans-105"/>
      <path d="M 48.78125 52.59375 
L 48.78125 44.1875 
Q 44.96875 46.296875 41.140625 47.34375 
Q 37.3125 48.390625 33.40625 48.390625 
Q 24.65625 48.390625 19.8125 42.84375 
Q 14.984375 37.3125 14.984375 27.296875 
Q 14.984375 17.28125 19.8125 11.734375 
Q 24.65625 6.203125 33.40625 6.203125 
Q 37.3125 6.203125 41.140625 7.25 
Q 44.96875 8.296875 48.78125 10.40625 
L 48.78125 2.09375 
Q 45.015625 0.34375 40.984375 -0.53125 
Q 36.96875 -1.421875 32.421875 -1.421875 
Q 20.0625 -1.421875 12.78125 6.34375 
Q 5.515625 14.109375 5.515625 27.296875 
Q 5.515625 40.671875 12.859375 48.328125 
Q 20.21875 56 33.015625 56 
Q 37.15625 56 41.109375 55.140625 
Q 45.0625 54.296875 48.78125 52.59375 
z
" id="DejaVuSans-99"/>
      <path d="M 54.890625 33.015625 
L 54.890625 0 
L 45.90625 0 
L 45.90625 32.71875 
Q 45.90625 40.484375 42.875 44.328125 
Q 39.84375 48.1875 33.796875 48.1875 
Q 26.515625 48.1875 22.3125 43.546875 
Q 18.109375 38.921875 18.109375 30.90625 
L 18.109375 0 
L 9.078125 0 
L 9.078125 54.6875 
L 18.109375 54.6875 
L 18.109375 46.1875 
Q 21.34375 51.125 25.703125 53.5625 
Q 30.078125 56 35.796875 56 
Q 45.21875 56 50.046875 50.171875 
Q 54.890625 44.34375 54.890625 33.015625 
z
" id="DejaVuSans-110"/>
      <path d="M 32.171875 -5.078125 
Q 28.375 -14.84375 24.75 -17.8125 
Q 21.140625 -20.796875 15.09375 -20.796875 
L 7.90625 -20.796875 
L 7.90625 -13.28125 
L 13.1875 -13.28125 
Q 16.890625 -13.28125 18.9375 -11.515625 
Q 21 -9.765625 23.484375 -3.21875 
L 25.09375 0.875 
L 2.984375 54.6875 
L 12.5 54.6875 
L 29.59375 11.921875 
L 46.6875 54.6875 
L 56.203125 54.6875 
z
" id="DejaVuSans-121"/>
     </defs>
     <g transform="translate(167.70625 377.596875)scale(0.28 -0.28)">
      <use xlink:href="#DejaVuSans-67"/>
      <use x="69.824219" xlink:href="#DejaVuSans-97"/>
      <use x="131.103516" xlink:href="#DejaVuSans-112"/>
      <use x="194.580078" xlink:href="#DejaVuSans-116"/>
      <use x="233.789062" xlink:href="#DejaVuSans-117"/>
      <use x="297.167969" xlink:href="#DejaVuSans-114"/>
      <use x="338.25" xlink:href="#DejaVuSans-101"/>
      <use x="399.773438" xlink:href="#DejaVuSans-32"/>
      <use x="431.560547" xlink:href="#DejaVuSans-101"/>
      <use x="493.083984" xlink:href="#DejaVuSans-102"/>
      <use x="528.289062" xlink:href="#DejaVuSans-102"/>
      <use x="563.494141" xlink:href="#DejaVuSans-105"/>
      <use x="591.277344" xlink:href="#DejaVuSans-99"/>
      <use x="646.257812" xlink:href="#DejaVuSans-105"/>
      <use x="674.041016" xlink:href="#DejaVuSans-101"/>
      <use x="735.564453" xlink:href="#DejaVuSans-110"/>
      <use x="798.943359" xlink:href="#DejaVuSans-99"/>
      <use x="853.923828" xlink:href="#DejaVuSans-121"/>
     </g>
    </g>
   </g>
   <g id="matplotlib.axis_2">
    <g id="ytick_1">
     <g id="line2d_6">
      <defs>
       <path d="M 0 0 
L -5 0 
" id="ma77666f59c" style="stroke:#000000;stroke-width:0.8;"/>
      </defs>
      <g>
       <use style="stroke:#000000;stroke-width:0.8;" x="100.24375" xlink:href="#ma77666f59c" y="316.7225"/>
      </g>
     </g>
     <g id="text_7">
      <!-- 0 -->
      <g transform="translate(73.92875 327.360313)scale(0.28 -0.28)">
       <use xlink:href="#DejaVuSans-48"/>
      </g>
     </g>
    </g>
    <g id="ytick_2">
     <g id="line2d_7">
      <g>
       <use style="stroke:#000000;stroke-width:0.8;" x="100.24375" xlink:href="#ma77666f59c" y="225.906086"/>
      </g>
     </g>
     <g id="text_8">
      <!-- 50 -->
      <defs>
       <path d="M 10.796875 72.90625 
L 49.515625 72.90625 
L 49.515625 64.59375 
L 19.828125 64.59375 
L 19.828125 46.734375 
Q 21.96875 47.46875 24.109375 47.828125 
Q 26.265625 48.1875 28.421875 48.1875 
Q 40.625 48.1875 47.75 41.5 
Q 54.890625 34.8125 54.890625 23.390625 
Q 54.890625 11.625 47.5625 5.09375 
Q 40.234375 -1.421875 26.90625 -1.421875 
Q 22.3125 -1.421875 17.546875 -0.640625 
Q 12.796875 0.140625 7.71875 1.703125 
L 7.71875 11.625 
Q 12.109375 9.234375 16.796875 8.0625 
Q 21.484375 6.890625 26.703125 6.890625 
Q 35.15625 6.890625 40.078125 11.328125 
Q 45.015625 15.765625 45.015625 23.390625 
Q 45.015625 31 40.078125 35.4375 
Q 35.15625 39.890625 26.703125 39.890625 
Q 22.75 39.890625 18.8125 39.015625 
Q 14.890625 38.140625 10.796875 36.28125 
z
" id="DejaVuSans-53"/>
      </defs>
      <g transform="translate(56.11375 236.543898)scale(0.28 -0.28)">
       <use xlink:href="#DejaVuSans-53"/>
       <use x="63.623047" xlink:href="#DejaVuSans-48"/>
      </g>
     </g>
    </g>
    <g id="ytick_3">
     <g id="line2d_8">
      <g>
       <use style="stroke:#000000;stroke-width:0.8;" x="100.24375" xlink:href="#ma77666f59c" y="135.089672"/>
      </g>
     </g>
     <g id="text_9">
      <!-- 100 -->
      <g transform="translate(38.29875 145.727484)scale(0.28 -0.28)">
       <use xlink:href="#DejaVuSans-49"/>
       <use x="63.623047" xlink:href="#DejaVuSans-48"/>
       <use x="127.246094" xlink:href="#DejaVuSans-48"/>
      </g>
     </g>
    </g>
    <g id="ytick_4">
     <g id="line2d_9">
      <g>
       <use style="stroke:#000000;stroke-width:0.8;" x="100.24375" xlink:href="#ma77666f59c" y="44.273258"/>
      </g>
     </g>
     <g id="text_10">
      <!-- 150 -->
      <g transform="translate(38.29875 54.91107)scale(0.28 -0.28)">
       <use xlink:href="#DejaVuSans-49"/>
       <use x="63.623047" xlink:href="#DejaVuSans-53"/>
       <use x="127.246094" xlink:href="#DejaVuSans-48"/>
      </g>
     </g>
    </g>
    <g id="text_11">
     <!-- Reads at inflection point -->
     <defs>
      <path d="M 44.390625 34.1875 
Q 47.5625 33.109375 50.5625 29.59375 
Q 53.5625 26.078125 56.59375 19.921875 
L 66.609375 0 
L 56 0 
L 46.6875 18.703125 
Q 43.0625 26.03125 39.671875 28.421875 
Q 36.28125 30.8125 30.421875 30.8125 
L 19.671875 30.8125 
L 19.671875 0 
L 9.8125 0 
L 9.8125 72.90625 
L 32.078125 72.90625 
Q 44.578125 72.90625 50.734375 67.671875 
Q 56.890625 62.453125 56.890625 51.90625 
Q 56.890625 45.015625 53.6875 40.46875 
Q 50.484375 35.9375 44.390625 34.1875 
z
M 19.671875 64.796875 
L 19.671875 38.921875 
L 32.078125 38.921875 
Q 39.203125 38.921875 42.84375 42.21875 
Q 46.484375 45.515625 46.484375 51.90625 
Q 46.484375 58.296875 42.84375 61.546875 
Q 39.203125 64.796875 32.078125 64.796875 
z
" id="DejaVuSans-82"/>
      <path d="M 45.40625 46.390625 
L 45.40625 75.984375 
L 54.390625 75.984375 
L 54.390625 0 
L 45.40625 0 
L 45.40625 8.203125 
Q 42.578125 3.328125 38.25 0.953125 
Q 33.9375 -1.421875 27.875 -1.421875 
Q 17.96875 -1.421875 11.734375 6.484375 
Q 5.515625 14.40625 5.515625 27.296875 
Q 5.515625 40.1875 11.734375 48.09375 
Q 17.96875 56 27.875 56 
Q 33.9375 56 38.25 53.625 
Q 42.578125 51.265625 45.40625 46.390625 
z
M 14.796875 27.296875 
Q 14.796875 17.390625 18.875 11.75 
Q 22.953125 6.109375 30.078125 6.109375 
Q 37.203125 6.109375 41.296875 11.75 
Q 45.40625 17.390625 45.40625 27.296875 
Q 45.40625 37.203125 41.296875 42.84375 
Q 37.203125 48.484375 30.078125 48.484375 
Q 22.953125 48.484375 18.875 42.84375 
Q 14.796875 37.203125 14.796875 27.296875 
z
" id="DejaVuSans-100"/>
      <path d="M 44.28125 53.078125 
L 44.28125 44.578125 
Q 40.484375 46.53125 36.375 47.5 
Q 32.28125 48.484375 27.875 48.484375 
Q 21.1875 48.484375 17.84375 46.4375 
Q 14.5 44.390625 14.5 40.28125 
Q 14.5 37.15625 16.890625 35.375 
Q 19.28125 33.59375 26.515625 31.984375 
L 29.59375 31.296875 
Q 39.15625 29.25 43.1875 25.515625 
Q 47.21875 21.78125 47.21875 15.09375 
Q 47.21875 7.46875 41.1875 3.015625 
Q 35.15625 -1.421875 24.609375 -1.421875 
Q 20.21875 -1.421875 15.453125 -0.5625 
Q 10.6875 0.296875 5.421875 2 
L 5.421875 11.28125 
Q 10.40625 8.6875 15.234375 7.390625 
Q 20.0625 6.109375 24.8125 6.109375 
Q 31.15625 6.109375 34.5625 8.28125 
Q 37.984375 10.453125 37.984375 14.40625 
Q 37.984375 18.0625 35.515625 20.015625 
Q 33.0625 21.96875 24.703125 23.78125 
L 21.578125 24.515625 
Q 13.234375 26.265625 9.515625 29.90625 
Q 5.8125 33.546875 5.8125 39.890625 
Q 5.8125 47.609375 11.28125 51.796875 
Q 16.75 56 26.8125 56 
Q 31.78125 56 36.171875 55.265625 
Q 40.578125 54.546875 44.28125 53.078125 
z
" id="DejaVuSans-115"/>
      <path d="M 9.421875 75.984375 
L 18.40625 75.984375 
L 18.40625 0 
L 9.421875 0 
z
" id="DejaVuSans-108"/>
      <path d="M 30.609375 48.390625 
Q 23.390625 48.390625 19.1875 42.75 
Q 14.984375 37.109375 14.984375 27.296875 
Q 14.984375 17.484375 19.15625 11.84375 
Q 23.34375 6.203125 30.609375 6.203125 
Q 37.796875 6.203125 41.984375 11.859375 
Q 46.1875 17.53125 46.1875 27.296875 
Q 46.1875 37.015625 41.984375 42.703125 
Q 37.796875 48.390625 30.609375 48.390625 
z
M 30.609375 56 
Q 42.328125 56 49.015625 48.375 
Q 55.71875 40.765625 55.71875 27.296875 
Q 55.71875 13.875 49.015625 6.21875 
Q 42.328125 -1.421875 30.609375 -1.421875 
Q 18.84375 -1.421875 12.171875 6.21875 
Q 5.515625 13.875 5.515625 27.296875 
Q 5.515625 40.765625 12.171875 48.375 
Q 18.84375 56 30.609375 56 
z
" id="DejaVuSans-111"/>
     </defs>
     <g transform="translate(28.475625 349.045)rotate(-90)scale(0.28 -0.28)">
      <use xlink:href="#DejaVuSans-82"/>
      <use x="69.419922" xlink:href="#DejaVuSans-101"/>
      <use x="130.943359" xlink:href="#DejaVuSans-97"/>
      <use x="192.222656" xlink:href="#DejaVuSans-100"/>
      <use x="255.699219" xlink:href="#DejaVuSans-115"/>
      <use x="307.798828" xlink:href="#DejaVuSans-32"/>
      <use x="339.585938" xlink:href="#DejaVuSans-97"/>
      <use x="400.865234" xlink:href="#DejaVuSans-116"/>
      <use x="440.074219" xlink:href="#DejaVuSans-32"/>
      <use x="471.861328" xlink:href="#DejaVuSans-105"/>
      <use x="499.644531" xlink:href="#DejaVuSans-110"/>
      <use x="563.023438" xlink:href="#DejaVuSans-102"/>
      <use x="598.228516" xlink:href="#DejaVuSans-108"/>
      <use x="626.011719" xlink:href="#DejaVuSans-101"/>
      <use x="687.535156" xlink:href="#DejaVuSans-99"/>
      <use x="742.515625" xlink:href="#DejaVuSans-116"/>
      <use x="781.724609" xlink:href="#DejaVuSans-105"/>
      <use x="809.507812" xlink:href="#DejaVuSans-111"/>
      <use x="870.689453" xlink:href="#DejaVuSans-110"/>
      <use x="934.068359" xlink:href="#DejaVuSans-32"/>
      <use x="965.855469" xlink:href="#DejaVuSans-112"/>
      <use x="1029.332031" xlink:href="#DejaVuSans-111"/>
      <use x="1090.513672" xlink:href="#DejaVuSans-105"/>
      <use x="1118.296875" xlink:href="#DejaVuSans-110"/>
      <use x="1181.675781" xlink:href="#DejaVuSans-116"/>
     </g>
    </g>
   </g>
   <g id="line2d_10">
    <path clip-path="url(#p8acc0fe701)" d="M 106.54375 119.057548 
L 110.74375 119.057548 
L 110.74375 81.26127 
L 106.54375 81.26127 
L 106.54375 119.057548 
" style="fill:none;stroke:#00008b;stroke-linecap:square;"/>
   </g>
   <g id="line2d_11">
    <path clip-path="url(#p8acc0fe701)" d="M 108.64375 119.057548 
L 108.64375 136.03719 
" style="fill:none;stroke:#00008b;stroke-dasharray:3.7,1.6;stroke-dashoffset:0;"/>
   </g>
   <g id="line2d_12">
    <path clip-path="url(#p8acc0fe701)" d="M 108.64375 81.26127 
L 108.64375 51.913946 
" style="fill:none;stroke:#00008b;stroke-dasharray:3.7,1.6;stroke-dashoffset:0;"/>
   </g>
   <g id="line2d_13">
    <path clip-path="url(#p8acc0fe701)" d="M 107.59375 136.03719 
L 109.69375 136.03719 
" style="fill:none;stroke:#000000;stroke-linecap:square;"/>
   </g>
   <g id="line2d_14">
    <path clip-path="url(#p8acc0fe701)" d="M 107.59375 51.913946 
L 109.69375 51.913946 
" style="fill:none;stroke:#000000;stroke-linecap:square;"/>
   </g>
   <g id="line2d_15"/>
   <g id="line2d_16">
    <path clip-path="url(#p8acc0fe701)" d="M 114.94375 152.954017 
L 119.14375 152.954017 
L 119.14375 123.916226 
L 114.94375 123.916226 
L 114.94375 152.954017 
" style="fill:none;stroke:#00008b;stroke-linecap:square;"/>
   </g>
   <g id="line2d_17">
    <path clip-path="url(#p8acc0fe701)" d="M 117.04375 152.954017 
L 117.04375 165.464735 
" style="fill:none;stroke:#00008b;stroke-dasharray:3.7,1.6;stroke-dashoffset:0;"/>
   </g>
   <g id="line2d_18">
    <path clip-path="url(#p8acc0fe701)" d="M 117.04375 123.916226 
L 117.04375 91.994256 
" style="fill:none;stroke:#00008b;stroke-dasharray:3.7,1.6;stroke-dashoffset:0;"/>
   </g>
   <g id="line2d_19">
    <path clip-path="url(#p8acc0fe701)" d="M 115.99375 165.464735 
L 118.09375 165.464735 
" style="fill:none;stroke:#000000;stroke-linecap:square;"/>
   </g>
   <g id="line2d_20">
    <path clip-path="url(#p8acc0fe701)" d="M 115.99375 91.994256 
L 118.09375 91.994256 
" style="fill:none;stroke:#000000;stroke-linecap:square;"/>
   </g>
   <g id="line2d_21"/>
   <g id="line2d_22">
    <path clip-path="url(#p8acc0fe701)" d="M 123.34375 175.17301 
L 127.54375 175.17301 
L 127.54375 155.692889 
L 123.34375 155.692889 
L 123.34375 175.17301 
" style="fill:none;stroke:#00008b;stroke-linecap:square;"/>
   </g>
   <g id="line2d_23">
    <path clip-path="url(#p8acc0fe701)" d="M 125.44375 175.17301 
L 125.44375 184.387849 
" style="fill:none;stroke:#00008b;stroke-dasharray:3.7,1.6;stroke-dashoffset:0;"/>
   </g>
   <g id="line2d_24">
    <path clip-path="url(#p8acc0fe701)" d="M 125.44375 155.692889 
L 125.44375 131.850553 
" style="fill:none;stroke:#00008b;stroke-dasharray:3.7,1.6;stroke-dashoffset:0;"/>
   </g>
   <g id="line2d_25">
    <path clip-path="url(#p8acc0fe701)" d="M 124.39375 184.387849 
L 126.49375 184.387849 
" style="fill:none;stroke:#000000;stroke-linecap:square;"/>
   </g>
   <g id="line2d_26">
    <path clip-path="url(#p8acc0fe701)" d="M 124.39375 131.850553 
L 126.49375 131.850553 
" style="fill:none;stroke:#000000;stroke-linecap:square;"/>
   </g>
   <g id="line2d_27"/>
   <g id="line2d_28">
    <path clip-path="url(#p8acc0fe701)" d="M 131.74375 196.200037 
L 135.94375 196.200037 
L 135.94375 175.581684 
L 131.74375 175.581684 
L 131.74375 196.200037 
" style="fill:none;stroke:#00008b;stroke-linecap:square;"/>
   </g>
   <g id="line2d_29">
    <path clip-path="url(#p8acc0fe701)" d="M 133.84375 196.200037 
L 133.84375 202.775145 
" style="fill:none;stroke:#00008b;stroke-dasharray:3.7,1.6;stroke-dashoffset:0;"/>
   </g>
   <g id="line2d_30">
    <path clip-path="url(#p8acc0fe701)" d="M 133.84375 175.581684 
L 133.84375 164.744258 
" style="fill:none;stroke:#00008b;stroke-dasharray:3.7,1.6;stroke-dashoffset:0;"/>
   </g>
   <g id="line2d_31">
    <path clip-path="url(#p8acc0fe701)" d="M 132.79375 202.775145 
L 134.89375 202.775145 
" style="fill:none;stroke:#000000;stroke-linecap:square;"/>
   </g>
   <g id="line2d_32">
    <path clip-path="url(#p8acc0fe701)" d="M 132.79375 164.744258 
L 134.89375 164.744258 
" style="fill:none;stroke:#000000;stroke-linecap:square;"/>
   </g>
   <g id="line2d_33"/>
   <g id="line2d_34">
    <path clip-path="url(#p8acc0fe701)" d="M 140.14375 210.553571 
L 144.34375 210.553571 
L 144.34375 187.910012 
L 140.14375 187.910012 
L 140.14375 210.553571 
" style="fill:none;stroke:#00008b;stroke-linecap:square;"/>
   </g>
   <g id="line2d_35">
    <path clip-path="url(#p8acc0fe701)" d="M 142.24375 210.553571 
L 142.24375 226.42374 
" style="fill:none;stroke:#00008b;stroke-dasharray:3.7,1.6;stroke-dashoffset:0;"/>
   </g>
   <g id="line2d_36">
    <path clip-path="url(#p8acc0fe701)" d="M 142.24375 187.910012 
L 142.24375 174.279982 
" style="fill:none;stroke:#00008b;stroke-dasharray:3.7,1.6;stroke-dashoffset:0;"/>
   </g>
   <g id="line2d_37">
    <path clip-path="url(#p8acc0fe701)" d="M 141.19375 226.42374 
L 143.29375 226.42374 
" style="fill:none;stroke:#000000;stroke-linecap:square;"/>
   </g>
   <g id="line2d_38">
    <path clip-path="url(#p8acc0fe701)" d="M 141.19375 174.279982 
L 143.29375 174.279982 
" style="fill:none;stroke:#000000;stroke-linecap:square;"/>
   </g>
   <g id="line2d_39"/>
   <g id="line2d_40">
    <path clip-path="url(#p8acc0fe701)" d="M 148.54375 223.727249 
L 152.74375 223.727249 
L 152.74375 206.838423 
L 148.54375 206.838423 
L 148.54375 223.727249 
" style="fill:none;stroke:#00008b;stroke-linecap:square;"/>
   </g>
   <g id="line2d_41">
    <path clip-path="url(#p8acc0fe701)" d="M 150.64375 223.727249 
L 150.64375 230.156294 
" style="fill:none;stroke:#00008b;stroke-dasharray:3.7,1.6;stroke-dashoffset:0;"/>
   </g>
   <g id="line2d_42">
    <path clip-path="url(#p8acc0fe701)" d="M 150.64375 206.838423 
L 150.64375 193.575443 
" style="fill:none;stroke:#00008b;stroke-dasharray:3.7,1.6;stroke-dashoffset:0;"/>
   </g>
   <g id="line2d_43">
    <path clip-path="url(#p8acc0fe701)" d="M 149.59375 230.156294 
L 151.69375 230.156294 
" style="fill:none;stroke:#000000;stroke-linecap:square;"/>
   </g>
   <g id="line2d_44">
    <path clip-path="url(#p8acc0fe701)" d="M 149.59375 193.575443 
L 151.69375 193.575443 
" style="fill:none;stroke:#000000;stroke-linecap:square;"/>
   </g>
   <g id="line2d_45"/>
   <g id="line2d_46">
    <path clip-path="url(#p8acc0fe701)" d="M 156.94375 230.887366 
L 161.14375 230.887366 
L 161.14375 215.067904 
L 156.94375 215.067904 
L 156.94375 230.887366 
" style="fill:none;stroke:#00008b;stroke-linecap:square;"/>
   </g>
   <g id="line2d_47">
    <path clip-path="url(#p8acc0fe701)" d="M 159.04375 230.887366 
L 159.04375 238.426642 
" style="fill:none;stroke:#00008b;stroke-dasharray:3.7,1.6;stroke-dashoffset:0;"/>
   </g>
   <g id="line2d_48">
    <path clip-path="url(#p8acc0fe701)" d="M 159.04375 215.067904 
L 159.04375 201.900281 
" style="fill:none;stroke:#00008b;stroke-dasharray:3.7,1.6;stroke-dashoffset:0;"/>
   </g>
   <g id="line2d_49">
    <path clip-path="url(#p8acc0fe701)" d="M 157.99375 238.426642 
L 160.09375 238.426642 
" style="fill:none;stroke:#000000;stroke-linecap:square;"/>
   </g>
   <g id="line2d_50">
    <path clip-path="url(#p8acc0fe701)" d="M 157.99375 201.900281 
L 160.09375 201.900281 
" style="fill:none;stroke:#000000;stroke-linecap:square;"/>
   </g>
   <g id="line2d_51"/>
   <g id="line2d_52">
    <path clip-path="url(#p8acc0fe701)" d="M 165.34375 239.595147 
L 169.54375 239.595147 
L 169.54375 225.453518 
L 165.34375 225.453518 
L 165.34375 239.595147 
" style="fill:none;stroke:#00008b;stroke-linecap:square;"/>
   </g>
   <g id="line2d_53">
    <path clip-path="url(#p8acc0fe701)" d="M 167.44375 239.595147 
L 167.44375 247.774678 
" style="fill:none;stroke:#00008b;stroke-dasharray:3.7,1.6;stroke-dashoffset:0;"/>
   </g>
   <g id="line2d_54">
    <path clip-path="url(#p8acc0fe701)" d="M 167.44375 225.453518 
L 167.44375 212.819441 
" style="fill:none;stroke:#00008b;stroke-dasharray:3.7,1.6;stroke-dashoffset:0;"/>
   </g>
   <g id="line2d_55">
    <path clip-path="url(#p8acc0fe701)" d="M 166.39375 247.774678 
L 168.49375 247.774678 
" style="fill:none;stroke:#000000;stroke-linecap:square;"/>
   </g>
   <g id="line2d_56">
    <path clip-path="url(#p8acc0fe701)" d="M 166.39375 212.819441 
L 168.49375 212.819441 
" style="fill:none;stroke:#000000;stroke-linecap:square;"/>
   </g>
   <g id="line2d_57"/>
   <g id="line2d_58">
    <path clip-path="url(#p8acc0fe701)" d="M 173.74375 245.100135 
L 177.94375 245.100135 
L 177.94375 231.043268 
L 173.74375 231.043268 
L 173.74375 245.100135 
" style="fill:none;stroke:#00008b;stroke-linecap:square;"/>
   </g>
   <g id="line2d_59">
    <path clip-path="url(#p8acc0fe701)" d="M 175.84375 245.100135 
L 175.84375 253.263017 
" style="fill:none;stroke:#00008b;stroke-dasharray:3.7,1.6;stroke-dashoffset:0;"/>
   </g>
   <g id="line2d_60">
    <path clip-path="url(#p8acc0fe701)" d="M 175.84375 231.043268 
L 175.84375 217.66601 
" style="fill:none;stroke:#00008b;stroke-dasharray:3.7,1.6;stroke-dashoffset:0;"/>
   </g>
   <g id="line2d_61">
    <path clip-path="url(#p8acc0fe701)" d="M 174.79375 253.263017 
L 176.89375 253.263017 
" style="fill:none;stroke:#000000;stroke-linecap:square;"/>
   </g>
   <g id="line2d_62">
    <path clip-path="url(#p8acc0fe701)" d="M 174.79375 217.66601 
L 176.89375 217.66601 
" style="fill:none;stroke:#000000;stroke-linecap:square;"/>
   </g>
   <g id="line2d_63"/>
   <g id="line2d_64">
    <path clip-path="url(#p8acc0fe701)" d="M 182.14375 249.491109 
L 186.34375 249.491109 
L 186.34375 238.084567 
L 182.14375 238.084567 
L 182.14375 249.491109 
" style="fill:none;stroke:#00008b;stroke-linecap:square;"/>
   </g>
   <g id="line2d_65">
    <path clip-path="url(#p8acc0fe701)" d="M 184.24375 249.491109 
L 184.24375 256.032918 
" style="fill:none;stroke:#00008b;stroke-dasharray:3.7,1.6;stroke-dashoffset:0;"/>
   </g>
   <g id="line2d_66">
    <path clip-path="url(#p8acc0fe701)" d="M 184.24375 238.084567 
L 184.24375 229.681022 
" style="fill:none;stroke:#00008b;stroke-dasharray:3.7,1.6;stroke-dashoffset:0;"/>
   </g>
   <g id="line2d_67">
    <path clip-path="url(#p8acc0fe701)" d="M 183.19375 256.032918 
L 185.29375 256.032918 
" style="fill:none;stroke:#000000;stroke-linecap:square;"/>
   </g>
   <g id="line2d_68">
    <path clip-path="url(#p8acc0fe701)" d="M 183.19375 229.681022 
L 185.29375 229.681022 
" style="fill:none;stroke:#000000;stroke-linecap:square;"/>
   </g>
   <g id="line2d_69"/>
   <g id="line2d_70">
    <path clip-path="url(#p8acc0fe701)" d="M 190.54375 254.349787 
L 194.74375 254.349787 
L 194.74375 242.658687 
L 190.54375 242.658687 
L 190.54375 254.349787 
" style="fill:none;stroke:#00008b;stroke-linecap:square;"/>
   </g>
   <g id="line2d_71">
    <path clip-path="url(#p8acc0fe701)" d="M 192.64375 254.349787 
L 192.64375 260.921868 
" style="fill:none;stroke:#00008b;stroke-dasharray:3.7,1.6;stroke-dashoffset:0;"/>
   </g>
   <g id="line2d_72">
    <path clip-path="url(#p8acc0fe701)" d="M 192.64375 242.658687 
L 192.64375 233.925175 
" style="fill:none;stroke:#00008b;stroke-dasharray:3.7,1.6;stroke-dashoffset:0;"/>
   </g>
   <g id="line2d_73">
    <path clip-path="url(#p8acc0fe701)" d="M 191.59375 260.921868 
L 193.69375 260.921868 
" style="fill:none;stroke:#000000;stroke-linecap:square;"/>
   </g>
   <g id="line2d_74">
    <path clip-path="url(#p8acc0fe701)" d="M 191.59375 233.925175 
L 193.69375 233.925175 
" style="fill:none;stroke:#000000;stroke-linecap:square;"/>
   </g>
   <g id="line2d_75"/>
   <g id="line2d_76">
    <path clip-path="url(#p8acc0fe701)" d="M 198.94375 259.320472 
L 203.14375 259.320472 
L 203.14375 248.151567 
L 198.94375 248.151567 
L 198.94375 259.320472 
" style="fill:none;stroke:#00008b;stroke-linecap:square;"/>
   </g>
   <g id="line2d_77">
    <path clip-path="url(#p8acc0fe701)" d="M 201.04375 259.320472 
L 201.04375 264.463708 
" style="fill:none;stroke:#00008b;stroke-dasharray:3.7,1.6;stroke-dashoffset:0;"/>
   </g>
   <g id="line2d_78">
    <path clip-path="url(#p8acc0fe701)" d="M 201.04375 248.151567 
L 201.04375 239.095657 
" style="fill:none;stroke:#00008b;stroke-dasharray:3.7,1.6;stroke-dashoffset:0;"/>
   </g>
   <g id="line2d_79">
    <path clip-path="url(#p8acc0fe701)" d="M 199.99375 264.463708 
L 202.09375 264.463708 
" style="fill:none;stroke:#000000;stroke-linecap:square;"/>
   </g>
   <g id="line2d_80">
    <path clip-path="url(#p8acc0fe701)" d="M 199.99375 239.095657 
L 202.09375 239.095657 
" style="fill:none;stroke:#000000;stroke-linecap:square;"/>
   </g>
   <g id="line2d_81"/>
   <g id="line2d_82">
    <path clip-path="url(#p8acc0fe701)" d="M 207.34375 263.079515 
L 211.54375 263.079515 
L 211.54375 252.394964 
L 207.34375 252.394964 
L 207.34375 263.079515 
" style="fill:none;stroke:#00008b;stroke-linecap:square;"/>
   </g>
   <g id="line2d_83">
    <path clip-path="url(#p8acc0fe701)" d="M 209.44375 263.079515 
L 209.44375 270.951027 
" style="fill:none;stroke:#00008b;stroke-dasharray:3.7,1.6;stroke-dashoffset:0;"/>
   </g>
   <g id="line2d_84">
    <path clip-path="url(#p8acc0fe701)" d="M 209.44375 252.394964 
L 209.44375 243.939199 
" style="fill:none;stroke:#00008b;stroke-dasharray:3.7,1.6;stroke-dashoffset:0;"/>
   </g>
   <g id="line2d_85">
    <path clip-path="url(#p8acc0fe701)" d="M 208.39375 270.951027 
L 210.49375 270.951027 
" style="fill:none;stroke:#000000;stroke-linecap:square;"/>
   </g>
   <g id="line2d_86">
    <path clip-path="url(#p8acc0fe701)" d="M 208.39375 243.939199 
L 210.49375 243.939199 
" style="fill:none;stroke:#000000;stroke-linecap:square;"/>
   </g>
   <g id="line2d_87"/>
   <g id="line2d_88">
    <path clip-path="url(#p8acc0fe701)" d="M 215.74375 265.529287 
L 219.94375 265.529287 
L 219.94375 256.278122 
L 215.74375 256.278122 
L 215.74375 265.529287 
" style="fill:none;stroke:#00008b;stroke-linecap:square;"/>
   </g>
   <g id="line2d_89">
    <path clip-path="url(#p8acc0fe701)" d="M 217.84375 265.529287 
L 217.84375 272.158886 
" style="fill:none;stroke:#00008b;stroke-dasharray:3.7,1.6;stroke-dashoffset:0;"/>
   </g>
   <g id="line2d_90">
    <path clip-path="url(#p8acc0fe701)" d="M 217.84375 256.278122 
L 217.84375 248.837231 
" style="fill:none;stroke:#00008b;stroke-dasharray:3.7,1.6;stroke-dashoffset:0;"/>
   </g>
   <g id="line2d_91">
    <path clip-path="url(#p8acc0fe701)" d="M 216.79375 272.158886 
L 218.89375 272.158886 
" style="fill:none;stroke:#000000;stroke-linecap:square;"/>
   </g>
   <g id="line2d_92">
    <path clip-path="url(#p8acc0fe701)" d="M 216.79375 248.837231 
L 218.89375 248.837231 
" style="fill:none;stroke:#000000;stroke-linecap:square;"/>
   </g>
   <g id="line2d_93"/>
   <g id="line2d_94">
    <path clip-path="url(#p8acc0fe701)" d="M 224.14375 269.254274 
L 228.34375 269.254274 
L 228.34375 258.97537 
L 224.14375 258.97537 
L 224.14375 269.254274 
" style="fill:none;stroke:#00008b;stroke-linecap:square;"/>
   </g>
   <g id="line2d_95">
    <path clip-path="url(#p8acc0fe701)" d="M 226.24375 269.254274 
L 226.24375 273.345553 
" style="fill:none;stroke:#00008b;stroke-dasharray:3.7,1.6;stroke-dashoffset:0;"/>
   </g>
   <g id="line2d_96">
    <path clip-path="url(#p8acc0fe701)" d="M 226.24375 258.97537 
L 226.24375 247.057229 
" style="fill:none;stroke:#00008b;stroke-dasharray:3.7,1.6;stroke-dashoffset:0;"/>
   </g>
   <g id="line2d_97">
    <path clip-path="url(#p8acc0fe701)" d="M 225.19375 273.345553 
L 227.29375 273.345553 
" style="fill:none;stroke:#000000;stroke-linecap:square;"/>
   </g>
   <g id="line2d_98">
    <path clip-path="url(#p8acc0fe701)" d="M 225.19375 247.057229 
L 227.29375 247.057229 
" style="fill:none;stroke:#000000;stroke-linecap:square;"/>
   </g>
   <g id="line2d_99"/>
   <g id="line2d_100">
    <path clip-path="url(#p8acc0fe701)" d="M 232.54375 271.50198 
L 236.74375 271.50198 
L 236.74375 262.450611 
L 232.54375 262.450611 
L 232.54375 271.50198 
" style="fill:none;stroke:#00008b;stroke-linecap:square;"/>
   </g>
   <g id="line2d_101">
    <path clip-path="url(#p8acc0fe701)" d="M 234.64375 271.50198 
L 234.64375 276.136645 
" style="fill:none;stroke:#00008b;stroke-dasharray:3.7,1.6;stroke-dashoffset:0;"/>
   </g>
   <g id="line2d_102">
    <path clip-path="url(#p8acc0fe701)" d="M 234.64375 262.450611 
L 234.64375 254.195399 
" style="fill:none;stroke:#00008b;stroke-dasharray:3.7,1.6;stroke-dashoffset:0;"/>
   </g>
   <g id="line2d_103">
    <path clip-path="url(#p8acc0fe701)" d="M 233.59375 276.136645 
L 235.69375 276.136645 
" style="fill:none;stroke:#000000;stroke-linecap:square;"/>
   </g>
   <g id="line2d_104">
    <path clip-path="url(#p8acc0fe701)" d="M 233.59375 254.195399 
L 235.69375 254.195399 
" style="fill:none;stroke:#000000;stroke-linecap:square;"/>
   </g>
   <g id="line2d_105"/>
   <g id="line2d_106">
    <path clip-path="url(#p8acc0fe701)" d="M 240.94375 271.759293 
L 245.14375 271.759293 
L 245.14375 263.028809 
L 240.94375 263.028809 
L 240.94375 271.759293 
" style="fill:none;stroke:#00008b;stroke-linecap:square;"/>
   </g>
   <g id="line2d_107">
    <path clip-path="url(#p8acc0fe701)" d="M 243.04375 271.759293 
L 243.04375 275.137664 
" style="fill:none;stroke:#00008b;stroke-dasharray:3.7,1.6;stroke-dashoffset:0;"/>
   </g>
   <g id="line2d_108">
    <path clip-path="url(#p8acc0fe701)" d="M 243.04375 263.028809 
L 243.04375 258.218566 
" style="fill:none;stroke:#00008b;stroke-dasharray:3.7,1.6;stroke-dashoffset:0;"/>
   </g>
   <g id="line2d_109">
    <path clip-path="url(#p8acc0fe701)" d="M 241.99375 275.137664 
L 244.09375 275.137664 
" style="fill:none;stroke:#000000;stroke-linecap:square;"/>
   </g>
   <g id="line2d_110">
    <path clip-path="url(#p8acc0fe701)" d="M 241.99375 258.218566 
L 244.09375 258.218566 
" style="fill:none;stroke:#000000;stroke-linecap:square;"/>
   </g>
   <g id="line2d_111"/>
   <g id="line2d_112">
    <path clip-path="url(#p8acc0fe701)" d="M 249.34375 274.056949 
L 253.54375 274.056949 
L 253.54375 266.758336 
L 249.34375 266.758336 
L 249.34375 274.056949 
" style="fill:none;stroke:#00008b;stroke-linecap:square;"/>
   </g>
   <g id="line2d_113">
    <path clip-path="url(#p8acc0fe701)" d="M 251.44375 274.056949 
L 251.44375 279.941852 
" style="fill:none;stroke:#00008b;stroke-dasharray:3.7,1.6;stroke-dashoffset:0;"/>
   </g>
   <g id="line2d_114">
    <path clip-path="url(#p8acc0fe701)" d="M 251.44375 266.758336 
L 251.44375 260.882514 
" style="fill:none;stroke:#00008b;stroke-dasharray:3.7,1.6;stroke-dashoffset:0;"/>
   </g>
   <g id="line2d_115">
    <path clip-path="url(#p8acc0fe701)" d="M 250.39375 279.941852 
L 252.49375 279.941852 
" style="fill:none;stroke:#000000;stroke-linecap:square;"/>
   </g>
   <g id="line2d_116">
    <path clip-path="url(#p8acc0fe701)" d="M 250.39375 260.882514 
L 252.49375 260.882514 
" style="fill:none;stroke:#000000;stroke-linecap:square;"/>
   </g>
   <g id="line2d_117"/>
   <g id="line2d_118">
    <path clip-path="url(#p8acc0fe701)" d="M 257.74375 276.070046 
L 261.94375 276.070046 
L 261.94375 267.896569 
L 257.74375 267.896569 
L 257.74375 276.070046 
" style="fill:none;stroke:#00008b;stroke-linecap:square;"/>
   </g>
   <g id="line2d_119">
    <path clip-path="url(#p8acc0fe701)" d="M 259.84375 276.070046 
L 259.84375 282.284916 
" style="fill:none;stroke:#00008b;stroke-dasharray:3.7,1.6;stroke-dashoffset:0;"/>
   </g>
   <g id="line2d_120">
    <path clip-path="url(#p8acc0fe701)" d="M 259.84375 267.896569 
L 259.84375 260.549521 
" style="fill:none;stroke:#00008b;stroke-dasharray:3.7,1.6;stroke-dashoffset:0;"/>
   </g>
   <g id="line2d_121">
    <path clip-path="url(#p8acc0fe701)" d="M 258.79375 282.284916 
L 260.89375 282.284916 
" style="fill:none;stroke:#000000;stroke-linecap:square;"/>
   </g>
   <g id="line2d_122">
    <path clip-path="url(#p8acc0fe701)" d="M 258.79375 260.549521 
L 260.89375 260.549521 
" style="fill:none;stroke:#000000;stroke-linecap:square;"/>
   </g>
   <g id="line2d_123"/>
   <g id="line2d_124">
    <path clip-path="url(#p8acc0fe701)" d="M 266.14375 278.691613 
L 270.34375 278.691613 
L 270.34375 270.112489 
L 266.14375 270.112489 
L 266.14375 278.691613 
" style="fill:none;stroke:#00008b;stroke-linecap:square;"/>
   </g>
   <g id="line2d_125">
    <path clip-path="url(#p8acc0fe701)" d="M 268.24375 278.691613 
L 268.24375 281.697636 
" style="fill:none;stroke:#00008b;stroke-dasharray:3.7,1.6;stroke-dashoffset:0;"/>
   </g>
   <g id="line2d_126">
    <path clip-path="url(#p8acc0fe701)" d="M 268.24375 270.112489 
L 268.24375 264.633232 
" style="fill:none;stroke:#00008b;stroke-dasharray:3.7,1.6;stroke-dashoffset:0;"/>
   </g>
   <g id="line2d_127">
    <path clip-path="url(#p8acc0fe701)" d="M 267.19375 281.697636 
L 269.29375 281.697636 
" style="fill:none;stroke:#000000;stroke-linecap:square;"/>
   </g>
   <g id="line2d_128">
    <path clip-path="url(#p8acc0fe701)" d="M 267.19375 264.633232 
L 269.29375 264.633232 
" style="fill:none;stroke:#000000;stroke-linecap:square;"/>
   </g>
   <g id="line2d_129"/>
   <g id="line2d_130">
    <path clip-path="url(#p8acc0fe701)" d="M 274.54375 279.784437 
L 278.74375 279.784437 
L 278.74375 271.633664 
L 274.54375 271.633664 
L 274.54375 279.784437 
" style="fill:none;stroke:#00008b;stroke-linecap:square;"/>
   </g>
   <g id="line2d_131">
    <path clip-path="url(#p8acc0fe701)" d="M 276.64375 279.784437 
L 276.64375 285.699613 
" style="fill:none;stroke:#00008b;stroke-dasharray:3.7,1.6;stroke-dashoffset:0;"/>
   </g>
   <g id="line2d_132">
    <path clip-path="url(#p8acc0fe701)" d="M 276.64375 271.633664 
L 276.64375 264.351701 
" style="fill:none;stroke:#00008b;stroke-dasharray:3.7,1.6;stroke-dashoffset:0;"/>
   </g>
   <g id="line2d_133">
    <path clip-path="url(#p8acc0fe701)" d="M 275.59375 285.699613 
L 277.69375 285.699613 
" style="fill:none;stroke:#000000;stroke-linecap:square;"/>
   </g>
   <g id="line2d_134">
    <path clip-path="url(#p8acc0fe701)" d="M 275.59375 264.351701 
L 277.69375 264.351701 
" style="fill:none;stroke:#000000;stroke-linecap:square;"/>
   </g>
   <g id="line2d_135"/>
   <g id="line2d_136">
    <path clip-path="url(#p8acc0fe701)" d="M 282.94375 281.116411 
L 287.14375 281.116411 
L 287.14375 273.596812 
L 282.94375 273.596812 
L 282.94375 281.116411 
" style="fill:none;stroke:#00008b;stroke-linecap:square;"/>
   </g>
   <g id="line2d_137">
    <path clip-path="url(#p8acc0fe701)" d="M 285.04375 281.116411 
L 285.04375 286.302029 
" style="fill:none;stroke:#00008b;stroke-dasharray:3.7,1.6;stroke-dashoffset:0;"/>
   </g>
   <g id="line2d_138">
    <path clip-path="url(#p8acc0fe701)" d="M 285.04375 273.596812 
L 285.04375 264.993471 
" style="fill:none;stroke:#00008b;stroke-dasharray:3.7,1.6;stroke-dashoffset:0;"/>
   </g>
   <g id="line2d_139">
    <path clip-path="url(#p8acc0fe701)" d="M 283.99375 286.302029 
L 286.09375 286.302029 
" style="fill:none;stroke:#000000;stroke-linecap:square;"/>
   </g>
   <g id="line2d_140">
    <path clip-path="url(#p8acc0fe701)" d="M 283.99375 264.993471 
L 286.09375 264.993471 
" style="fill:none;stroke:#000000;stroke-linecap:square;"/>
   </g>
   <g id="line2d_141"/>
   <g id="line2d_142">
    <path clip-path="url(#p8acc0fe701)" d="M 291.34375 282.642884 
L 295.54375 282.642884 
L 295.54375 275.253455 
L 291.34375 275.253455 
L 291.34375 282.642884 
" style="fill:none;stroke:#00008b;stroke-linecap:square;"/>
   </g>
   <g id="line2d_143">
    <path clip-path="url(#p8acc0fe701)" d="M 293.44375 282.642884 
L 293.44375 286.513933 
" style="fill:none;stroke:#00008b;stroke-dasharray:3.7,1.6;stroke-dashoffset:0;"/>
   </g>
   <g id="line2d_144">
    <path clip-path="url(#p8acc0fe701)" d="M 293.44375 275.253455 
L 293.44375 270.621061 
" style="fill:none;stroke:#00008b;stroke-dasharray:3.7,1.6;stroke-dashoffset:0;"/>
   </g>
   <g id="line2d_145">
    <path clip-path="url(#p8acc0fe701)" d="M 292.39375 286.513933 
L 294.49375 286.513933 
" style="fill:none;stroke:#000000;stroke-linecap:square;"/>
   </g>
   <g id="line2d_146">
    <path clip-path="url(#p8acc0fe701)" d="M 292.39375 270.621061 
L 294.49375 270.621061 
" style="fill:none;stroke:#000000;stroke-linecap:square;"/>
   </g>
   <g id="line2d_147"/>
   <g id="line2d_148">
    <path clip-path="url(#p8acc0fe701)" d="M 299.74375 283.853013 
L 303.94375 283.853013 
L 303.94375 277.598789 
L 299.74375 277.598789 
L 299.74375 283.853013 
" style="fill:none;stroke:#00008b;stroke-linecap:square;"/>
   </g>
   <g id="line2d_149">
    <path clip-path="url(#p8acc0fe701)" d="M 301.84375 283.853013 
L 301.84375 288.218255 
" style="fill:none;stroke:#00008b;stroke-dasharray:3.7,1.6;stroke-dashoffset:0;"/>
   </g>
   <g id="line2d_150">
    <path clip-path="url(#p8acc0fe701)" d="M 301.84375 277.598789 
L 301.84375 271.005517 
" style="fill:none;stroke:#00008b;stroke-dasharray:3.7,1.6;stroke-dashoffset:0;"/>
   </g>
   <g id="line2d_151">
    <path clip-path="url(#p8acc0fe701)" d="M 300.79375 288.218255 
L 302.89375 288.218255 
" style="fill:none;stroke:#000000;stroke-linecap:square;"/>
   </g>
   <g id="line2d_152">
    <path clip-path="url(#p8acc0fe701)" d="M 300.79375 271.005517 
L 302.89375 271.005517 
" style="fill:none;stroke:#000000;stroke-linecap:square;"/>
   </g>
   <g id="line2d_153"/>
   <g id="line2d_154">
    <path clip-path="url(#p8acc0fe701)" d="M 308.14375 284.004373 
L 312.34375 284.004373 
L 312.34375 277.629061 
L 308.14375 277.629061 
L 308.14375 284.004373 
" style="fill:none;stroke:#00008b;stroke-linecap:square;"/>
   </g>
   <g id="line2d_155">
    <path clip-path="url(#p8acc0fe701)" d="M 310.24375 284.004373 
L 310.24375 287.34339 
" style="fill:none;stroke:#00008b;stroke-dasharray:3.7,1.6;stroke-dashoffset:0;"/>
   </g>
   <g id="line2d_156">
    <path clip-path="url(#p8acc0fe701)" d="M 310.24375 277.629061 
L 310.24375 273.064023 
" style="fill:none;stroke:#00008b;stroke-dasharray:3.7,1.6;stroke-dashoffset:0;"/>
   </g>
   <g id="line2d_157">
    <path clip-path="url(#p8acc0fe701)" d="M 309.19375 287.34339 
L 311.29375 287.34339 
" style="fill:none;stroke:#000000;stroke-linecap:square;"/>
   </g>
   <g id="line2d_158">
    <path clip-path="url(#p8acc0fe701)" d="M 309.19375 273.064023 
L 311.29375 273.064023 
" style="fill:none;stroke:#000000;stroke-linecap:square;"/>
   </g>
   <g id="line2d_159"/>
   <g id="line2d_160">
    <path clip-path="url(#p8acc0fe701)" d="M 316.54375 285.434732 
L 320.74375 285.434732 
L 320.74375 279.518042 
L 316.54375 279.518042 
L 316.54375 285.434732 
" style="fill:none;stroke:#00008b;stroke-linecap:square;"/>
   </g>
   <g id="line2d_161">
    <path clip-path="url(#p8acc0fe701)" d="M 318.64375 285.434732 
L 318.64375 288.754072 
" style="fill:none;stroke:#00008b;stroke-dasharray:3.7,1.6;stroke-dashoffset:0;"/>
   </g>
   <g id="line2d_162">
    <path clip-path="url(#p8acc0fe701)" d="M 318.64375 279.518042 
L 318.64375 275.488821 
" style="fill:none;stroke:#00008b;stroke-dasharray:3.7,1.6;stroke-dashoffset:0;"/>
   </g>
   <g id="line2d_163">
    <path clip-path="url(#p8acc0fe701)" d="M 317.59375 288.754072 
L 319.69375 288.754072 
" style="fill:none;stroke:#000000;stroke-linecap:square;"/>
   </g>
   <g id="line2d_164">
    <path clip-path="url(#p8acc0fe701)" d="M 317.59375 275.488821 
L 319.69375 275.488821 
" style="fill:none;stroke:#000000;stroke-linecap:square;"/>
   </g>
   <g id="line2d_165"/>
   <g id="line2d_166">
    <path clip-path="url(#p8acc0fe701)" d="M 324.94375 286.374682 
L 329.14375 286.374682 
L 329.14375 279.808655 
L 324.94375 279.808655 
L 324.94375 286.374682 
" style="fill:none;stroke:#00008b;stroke-linecap:square;"/>
   </g>
   <g id="line2d_167">
    <path clip-path="url(#p8acc0fe701)" d="M 327.04375 286.374682 
L 327.04375 290.812577 
" style="fill:none;stroke:#00008b;stroke-dasharray:3.7,1.6;stroke-dashoffset:0;"/>
   </g>
   <g id="line2d_168">
    <path clip-path="url(#p8acc0fe701)" d="M 327.04375 279.808655 
L 327.04375 273.445452 
" style="fill:none;stroke:#00008b;stroke-dasharray:3.7,1.6;stroke-dashoffset:0;"/>
   </g>
   <g id="line2d_169">
    <path clip-path="url(#p8acc0fe701)" d="M 325.99375 290.812577 
L 328.09375 290.812577 
" style="fill:none;stroke:#000000;stroke-linecap:square;"/>
   </g>
   <g id="line2d_170">
    <path clip-path="url(#p8acc0fe701)" d="M 325.99375 273.445452 
L 328.09375 273.445452 
" style="fill:none;stroke:#000000;stroke-linecap:square;"/>
   </g>
   <g id="line2d_171"/>
   <g id="line2d_172">
    <path clip-path="url(#p8acc0fe701)" d="M 333.34375 286.792437 
L 337.54375 286.792437 
L 337.54375 281.491786 
L 333.34375 281.491786 
L 333.34375 286.792437 
" style="fill:none;stroke:#00008b;stroke-linecap:square;"/>
   </g>
   <g id="line2d_173">
    <path clip-path="url(#p8acc0fe701)" d="M 335.44375 286.792437 
L 335.44375 290.346386 
" style="fill:none;stroke:#00008b;stroke-dasharray:3.7,1.6;stroke-dashoffset:0;"/>
   </g>
   <g id="line2d_174">
    <path clip-path="url(#p8acc0fe701)" d="M 335.44375 281.491786 
L 335.44375 275.703753 
" style="fill:none;stroke:#00008b;stroke-dasharray:3.7,1.6;stroke-dashoffset:0;"/>
   </g>
   <g id="line2d_175">
    <path clip-path="url(#p8acc0fe701)" d="M 334.39375 290.346386 
L 336.49375 290.346386 
" style="fill:none;stroke:#000000;stroke-linecap:square;"/>
   </g>
   <g id="line2d_176">
    <path clip-path="url(#p8acc0fe701)" d="M 334.39375 275.703753 
L 336.49375 275.703753 
" style="fill:none;stroke:#000000;stroke-linecap:square;"/>
   </g>
   <g id="line2d_177"/>
   <g id="line2d_178">
    <path clip-path="url(#p8acc0fe701)" d="M 341.74375 288.223552 
L 345.94375 288.223552 
L 345.94375 281.796778 
L 341.74375 281.796778 
L 341.74375 288.223552 
" style="fill:none;stroke:#00008b;stroke-linecap:square;"/>
   </g>
   <g id="line2d_179">
    <path clip-path="url(#p8acc0fe701)" d="M 343.84375 288.223552 
L 343.84375 291.299959 
" style="fill:none;stroke:#00008b;stroke-dasharray:3.7,1.6;stroke-dashoffset:0;"/>
   </g>
   <g id="line2d_180">
    <path clip-path="url(#p8acc0fe701)" d="M 343.84375 281.796778 
L 343.84375 277.583653 
" style="fill:none;stroke:#00008b;stroke-dasharray:3.7,1.6;stroke-dashoffset:0;"/>
   </g>
   <g id="line2d_181">
    <path clip-path="url(#p8acc0fe701)" d="M 342.79375 291.299959 
L 344.89375 291.299959 
" style="fill:none;stroke:#000000;stroke-linecap:square;"/>
   </g>
   <g id="line2d_182">
    <path clip-path="url(#p8acc0fe701)" d="M 342.79375 277.583653 
L 344.89375 277.583653 
" style="fill:none;stroke:#000000;stroke-linecap:square;"/>
   </g>
   <g id="line2d_183"/>
   <g id="line2d_184">
    <path clip-path="url(#p8acc0fe701)" d="M 350.14375 289.107499 
L 354.34375 289.107499 
L 354.34375 283.123454 
L 350.14375 283.123454 
L 350.14375 289.107499 
" style="fill:none;stroke:#00008b;stroke-linecap:square;"/>
   </g>
   <g id="line2d_185">
    <path clip-path="url(#p8acc0fe701)" d="M 352.24375 289.107499 
L 352.24375 292.26564 
" style="fill:none;stroke:#00008b;stroke-dasharray:3.7,1.6;stroke-dashoffset:0;"/>
   </g>
   <g id="line2d_186">
    <path clip-path="url(#p8acc0fe701)" d="M 352.24375 283.123454 
L 352.24375 279.403008 
" style="fill:none;stroke:#00008b;stroke-dasharray:3.7,1.6;stroke-dashoffset:0;"/>
   </g>
   <g id="line2d_187">
    <path clip-path="url(#p8acc0fe701)" d="M 351.19375 292.26564 
L 353.29375 292.26564 
" style="fill:none;stroke:#000000;stroke-linecap:square;"/>
   </g>
   <g id="line2d_188">
    <path clip-path="url(#p8acc0fe701)" d="M 351.19375 279.403008 
L 353.29375 279.403008 
" style="fill:none;stroke:#000000;stroke-linecap:square;"/>
   </g>
   <g id="line2d_189"/>
   <g id="line2d_190">
    <path clip-path="url(#p8acc0fe701)" d="M 358.54375 289.31789 
L 362.74375 289.31789 
L 362.74375 283.58132 
L 358.54375 283.58132 
L 358.54375 289.31789 
" style="fill:none;stroke:#00008b;stroke-linecap:square;"/>
   </g>
   <g id="line2d_191">
    <path clip-path="url(#p8acc0fe701)" d="M 360.64375 289.31789 
L 360.64375 292.852919 
" style="fill:none;stroke:#00008b;stroke-dasharray:3.7,1.6;stroke-dashoffset:0;"/>
   </g>
   <g id="line2d_192">
    <path clip-path="url(#p8acc0fe701)" d="M 360.64375 283.58132 
L 360.64375 280.504914 
" style="fill:none;stroke:#00008b;stroke-dasharray:3.7,1.6;stroke-dashoffset:0;"/>
   </g>
   <g id="line2d_193">
    <path clip-path="url(#p8acc0fe701)" d="M 359.59375 292.852919 
L 361.69375 292.852919 
" style="fill:none;stroke:#000000;stroke-linecap:square;"/>
   </g>
   <g id="line2d_194">
    <path clip-path="url(#p8acc0fe701)" d="M 359.59375 280.504914 
L 361.69375 280.504914 
" style="fill:none;stroke:#000000;stroke-linecap:square;"/>
   </g>
   <g id="line2d_195"/>
   <g id="line2d_196">
    <path clip-path="url(#p8acc0fe701)" d="M 366.94375 290.101939 
L 371.14375 290.101939 
L 371.14375 284.385802 
L 366.94375 284.385802 
L 366.94375 290.101939 
" style="fill:none;stroke:#00008b;stroke-linecap:square;"/>
   </g>
   <g id="line2d_197">
    <path clip-path="url(#p8acc0fe701)" d="M 369.04375 290.101939 
L 369.04375 293.473498 
" style="fill:none;stroke:#00008b;stroke-dasharray:3.7,1.6;stroke-dashoffset:0;"/>
   </g>
   <g id="line2d_198">
    <path clip-path="url(#p8acc0fe701)" d="M 369.04375 284.385802 
L 369.04375 281.446378 
" style="fill:none;stroke:#00008b;stroke-dasharray:3.7,1.6;stroke-dashoffset:0;"/>
   </g>
   <g id="line2d_199">
    <path clip-path="url(#p8acc0fe701)" d="M 367.99375 293.473498 
L 370.09375 293.473498 
" style="fill:none;stroke:#000000;stroke-linecap:square;"/>
   </g>
   <g id="line2d_200">
    <path clip-path="url(#p8acc0fe701)" d="M 367.99375 281.446378 
L 370.09375 281.446378 
" style="fill:none;stroke:#000000;stroke-linecap:square;"/>
   </g>
   <g id="line2d_201"/>
   <g id="line2d_202">
    <path clip-path="url(#p8acc0fe701)" d="M 375.34375 290.780035 
L 379.54375 290.780035 
L 379.54375 285.285641 
L 375.34375 285.285641 
L 375.34375 290.780035 
" style="fill:none;stroke:#00008b;stroke-linecap:square;"/>
   </g>
   <g id="line2d_203">
    <path clip-path="url(#p8acc0fe701)" d="M 377.44375 290.780035 
L 377.44375 294.354417 
" style="fill:none;stroke:#00008b;stroke-dasharray:3.7,1.6;stroke-dashoffset:0;"/>
   </g>
   <g id="line2d_204">
    <path clip-path="url(#p8acc0fe701)" d="M 377.44375 285.285641 
L 377.44375 279.354573 
" style="fill:none;stroke:#00008b;stroke-dasharray:3.7,1.6;stroke-dashoffset:0;"/>
   </g>
   <g id="line2d_205">
    <path clip-path="url(#p8acc0fe701)" d="M 376.39375 294.354417 
L 378.49375 294.354417 
" style="fill:none;stroke:#000000;stroke-linecap:square;"/>
   </g>
   <g id="line2d_206">
    <path clip-path="url(#p8acc0fe701)" d="M 376.39375 279.354573 
L 378.49375 279.354573 
" style="fill:none;stroke:#000000;stroke-linecap:square;"/>
   </g>
   <g id="line2d_207"/>
   <g id="line2d_208">
    <path clip-path="url(#p8acc0fe701)" d="M 383.74375 291.502025 
L 387.94375 291.502025 
L 387.94375 286.119639 
L 383.74375 286.119639 
L 383.74375 291.502025 
" style="fill:none;stroke:#00008b;stroke-linecap:square;"/>
   </g>
   <g id="line2d_209">
    <path clip-path="url(#p8acc0fe701)" d="M 385.84375 291.502025 
L 385.84375 294.517887 
" style="fill:none;stroke:#00008b;stroke-dasharray:3.7,1.6;stroke-dashoffset:0;"/>
   </g>
   <g id="line2d_210">
    <path clip-path="url(#p8acc0fe701)" d="M 385.84375 286.119639 
L 385.84375 279.908553 
" style="fill:none;stroke:#00008b;stroke-dasharray:3.7,1.6;stroke-dashoffset:0;"/>
   </g>
   <g id="line2d_211">
    <path clip-path="url(#p8acc0fe701)" d="M 384.79375 294.517887 
L 386.89375 294.517887 
" style="fill:none;stroke:#000000;stroke-linecap:square;"/>
   </g>
   <g id="line2d_212">
    <path clip-path="url(#p8acc0fe701)" d="M 384.79375 279.908553 
L 386.89375 279.908553 
" style="fill:none;stroke:#000000;stroke-linecap:square;"/>
   </g>
   <g id="line2d_213"/>
   <g id="line2d_214">
    <path clip-path="url(#p8acc0fe701)" d="M 392.14375 292.044653 
L 396.34375 292.044653 
L 396.34375 286.891578 
L 392.14375 286.891578 
L 392.14375 292.044653 
" style="fill:none;stroke:#00008b;stroke-linecap:square;"/>
   </g>
   <g id="line2d_215">
    <path clip-path="url(#p8acc0fe701)" d="M 394.24375 292.044653 
L 394.24375 295.323126 
" style="fill:none;stroke:#00008b;stroke-dasharray:3.7,1.6;stroke-dashoffset:0;"/>
   </g>
   <g id="line2d_216">
    <path clip-path="url(#p8acc0fe701)" d="M 394.24375 286.891578 
L 394.24375 282.648181 
" style="fill:none;stroke:#00008b;stroke-dasharray:3.7,1.6;stroke-dashoffset:0;"/>
   </g>
   <g id="line2d_217">
    <path clip-path="url(#p8acc0fe701)" d="M 393.19375 295.323126 
L 395.29375 295.323126 
" style="fill:none;stroke:#000000;stroke-linecap:square;"/>
   </g>
   <g id="line2d_218">
    <path clip-path="url(#p8acc0fe701)" d="M 393.19375 282.648181 
L 395.29375 282.648181 
" style="fill:none;stroke:#000000;stroke-linecap:square;"/>
   </g>
   <g id="line2d_219"/>
   <g id="line2d_220">
    <path clip-path="url(#p8acc0fe701)" d="M 400.54375 293.031525 
L 404.74375 293.031525 
L 404.74375 288.06084 
L 400.54375 288.06084 
L 400.54375 293.031525 
" style="fill:none;stroke:#00008b;stroke-linecap:square;"/>
   </g>
   <g id="line2d_221">
    <path clip-path="url(#p8acc0fe701)" d="M 402.64375 293.031525 
L 402.64375 297.075882 
" style="fill:none;stroke:#00008b;stroke-dasharray:3.7,1.6;stroke-dashoffset:0;"/>
   </g>
   <g id="line2d_222">
    <path clip-path="url(#p8acc0fe701)" d="M 402.64375 288.06084 
L 402.64375 283.480665 
" style="fill:none;stroke:#00008b;stroke-dasharray:3.7,1.6;stroke-dashoffset:0;"/>
   </g>
   <g id="line2d_223">
    <path clip-path="url(#p8acc0fe701)" d="M 401.59375 297.075882 
L 403.69375 297.075882 
" style="fill:none;stroke:#000000;stroke-linecap:square;"/>
   </g>
   <g id="line2d_224">
    <path clip-path="url(#p8acc0fe701)" d="M 401.59375 283.480665 
L 403.69375 283.480665 
" style="fill:none;stroke:#000000;stroke-linecap:square;"/>
   </g>
   <g id="line2d_225"/>
   <g id="line2d_226">
    <path clip-path="url(#p8acc0fe701)" d="M 408.94375 293.363762 
L 413.14375 293.363762 
L 413.14375 288.270474 
L 408.94375 288.270474 
L 408.94375 293.363762 
" style="fill:none;stroke:#00008b;stroke-linecap:square;"/>
   </g>
   <g id="line2d_227">
    <path clip-path="url(#p8acc0fe701)" d="M 411.04375 293.363762 
L 411.04375 296.352378 
" style="fill:none;stroke:#00008b;stroke-dasharray:3.7,1.6;stroke-dashoffset:0;"/>
   </g>
   <g id="line2d_228">
    <path clip-path="url(#p8acc0fe701)" d="M 411.04375 288.270474 
L 411.04375 284.204169 
" style="fill:none;stroke:#00008b;stroke-dasharray:3.7,1.6;stroke-dashoffset:0;"/>
   </g>
   <g id="line2d_229">
    <path clip-path="url(#p8acc0fe701)" d="M 409.99375 296.352378 
L 412.09375 296.352378 
" style="fill:none;stroke:#000000;stroke-linecap:square;"/>
   </g>
   <g id="line2d_230">
    <path clip-path="url(#p8acc0fe701)" d="M 409.99375 284.204169 
L 412.09375 284.204169 
" style="fill:none;stroke:#000000;stroke-linecap:square;"/>
   </g>
   <g id="line2d_231"/>
   <g id="line2d_232">
    <path clip-path="url(#p8acc0fe701)" d="M 417.34375 293.182885 
L 421.54375 293.182885 
L 421.54375 288.517949 
L 417.34375 288.517949 
L 417.34375 293.182885 
" style="fill:none;stroke:#00008b;stroke-linecap:square;"/>
   </g>
   <g id="line2d_233">
    <path clip-path="url(#p8acc0fe701)" d="M 419.44375 293.182885 
L 419.44375 296.724726 
" style="fill:none;stroke:#00008b;stroke-dasharray:3.7,1.6;stroke-dashoffset:0;"/>
   </g>
   <g id="line2d_234">
    <path clip-path="url(#p8acc0fe701)" d="M 419.44375 288.517949 
L 419.44375 284.325258 
" style="fill:none;stroke:#00008b;stroke-dasharray:3.7,1.6;stroke-dashoffset:0;"/>
   </g>
   <g id="line2d_235">
    <path clip-path="url(#p8acc0fe701)" d="M 418.39375 296.724726 
L 420.49375 296.724726 
" style="fill:none;stroke:#000000;stroke-linecap:square;"/>
   </g>
   <g id="line2d_236">
    <path clip-path="url(#p8acc0fe701)" d="M 418.39375 284.325258 
L 420.49375 284.325258 
" style="fill:none;stroke:#000000;stroke-linecap:square;"/>
   </g>
   <g id="line2d_237"/>
   <g id="line2d_238">
    <path clip-path="url(#p8acc0fe701)" d="M 425.74375 294.421016 
L 429.94375 294.421016 
L 429.94375 289.323188 
L 425.74375 289.323188 
L 425.74375 294.421016 
" style="fill:none;stroke:#00008b;stroke-linecap:square;"/>
   </g>
   <g id="line2d_239">
    <path clip-path="url(#p8acc0fe701)" d="M 427.84375 294.421016 
L 427.84375 297.505747 
" style="fill:none;stroke:#00008b;stroke-dasharray:3.7,1.6;stroke-dashoffset:0;"/>
   </g>
   <g id="line2d_240">
    <path clip-path="url(#p8acc0fe701)" d="M 427.84375 289.323188 
L 427.84375 284.258659 
" style="fill:none;stroke:#00008b;stroke-dasharray:3.7,1.6;stroke-dashoffset:0;"/>
   </g>
   <g id="line2d_241">
    <path clip-path="url(#p8acc0fe701)" d="M 426.79375 297.505747 
L 428.89375 297.505747 
" style="fill:none;stroke:#000000;stroke-linecap:square;"/>
   </g>
   <g id="line2d_242">
    <path clip-path="url(#p8acc0fe701)" d="M 426.79375 284.258659 
L 428.89375 284.258659 
" style="fill:none;stroke:#000000;stroke-linecap:square;"/>
   </g>
   <g id="line2d_243"/>
   <g id="line2d_244">
    <path clip-path="url(#p8acc0fe701)" d="M 434.14375 294.572377 
L 438.34375 294.572377 
L 438.34375 289.566122 
L 434.14375 289.566122 
L 434.14375 294.572377 
" style="fill:none;stroke:#00008b;stroke-linecap:square;"/>
   </g>
   <g id="line2d_245">
    <path clip-path="url(#p8acc0fe701)" d="M 436.24375 294.572377 
L 436.24375 298.00221 
" style="fill:none;stroke:#00008b;stroke-dasharray:3.7,1.6;stroke-dashoffset:0;"/>
   </g>
   <g id="line2d_246">
    <path clip-path="url(#p8acc0fe701)" d="M 436.24375 289.566122 
L 436.24375 285.560361 
" style="fill:none;stroke:#00008b;stroke-dasharray:3.7,1.6;stroke-dashoffset:0;"/>
   </g>
   <g id="line2d_247">
    <path clip-path="url(#p8acc0fe701)" d="M 435.19375 298.00221 
L 437.29375 298.00221 
" style="fill:none;stroke:#000000;stroke-linecap:square;"/>
   </g>
   <g id="line2d_248">
    <path clip-path="url(#p8acc0fe701)" d="M 435.19375 285.560361 
L 437.29375 285.560361 
" style="fill:none;stroke:#000000;stroke-linecap:square;"/>
   </g>
   <g id="line2d_249"/>
   <g id="line2d_250">
    <path clip-path="url(#p8acc0fe701)" d="M 442.54375 295.150574 
L 446.74375 295.150574 
L 446.74375 290.311573 
L 442.54375 290.311573 
L 442.54375 295.150574 
" style="fill:none;stroke:#00008b;stroke-linecap:square;"/>
   </g>
   <g id="line2d_251">
    <path clip-path="url(#p8acc0fe701)" d="M 444.64375 295.150574 
L 444.64375 298.48051 
" style="fill:none;stroke:#00008b;stroke-dasharray:3.7,1.6;stroke-dashoffset:0;"/>
   </g>
   <g id="line2d_252">
    <path clip-path="url(#p8acc0fe701)" d="M 444.64375 290.311573 
L 444.64375 286.338355 
" style="fill:none;stroke:#00008b;stroke-dasharray:3.7,1.6;stroke-dashoffset:0;"/>
   </g>
   <g id="line2d_253">
    <path clip-path="url(#p8acc0fe701)" d="M 443.59375 298.48051 
L 445.69375 298.48051 
" style="fill:none;stroke:#000000;stroke-linecap:square;"/>
   </g>
   <g id="line2d_254">
    <path clip-path="url(#p8acc0fe701)" d="M 443.59375 286.338355 
L 445.69375 286.338355 
" style="fill:none;stroke:#000000;stroke-linecap:square;"/>
   </g>
   <g id="line2d_255"/>
   <g id="line2d_256">
    <path clip-path="url(#p8acc0fe701)" d="M 450.94375 295.838509 
L 455.14375 295.838509 
L 455.14375 291.219737 
L 450.94375 291.219737 
L 450.94375 295.838509 
" style="fill:none;stroke:#00008b;stroke-linecap:square;"/>
   </g>
   <g id="line2d_257">
    <path clip-path="url(#p8acc0fe701)" d="M 453.04375 295.838509 
L 453.04375 298.792313 
" style="fill:none;stroke:#00008b;stroke-dasharray:3.7,1.6;stroke-dashoffset:0;"/>
   </g>
   <g id="line2d_258">
    <path clip-path="url(#p8acc0fe701)" d="M 453.04375 291.219737 
L 453.04375 288.39686 
" style="fill:none;stroke:#00008b;stroke-dasharray:3.7,1.6;stroke-dashoffset:0;"/>
   </g>
   <g id="line2d_259">
    <path clip-path="url(#p8acc0fe701)" d="M 451.99375 298.792313 
L 454.09375 298.792313 
" style="fill:none;stroke:#000000;stroke-linecap:square;"/>
   </g>
   <g id="line2d_260">
    <path clip-path="url(#p8acc0fe701)" d="M 451.99375 288.39686 
L 454.09375 288.39686 
" style="fill:none;stroke:#000000;stroke-linecap:square;"/>
   </g>
   <g id="line2d_261"/>
   <g id="line2d_262">
    <path clip-path="url(#p8acc0fe701)" d="M 459.34375 296.01106 
L 463.54375 296.01106 
L 463.54375 291.30904 
L 459.34375 291.30904 
L 459.34375 296.01106 
" style="fill:none;stroke:#00008b;stroke-linecap:square;"/>
   </g>
   <g id="line2d_263">
    <path clip-path="url(#p8acc0fe701)" d="M 461.44375 296.01106 
L 461.44375 298.84983 
" style="fill:none;stroke:#00008b;stroke-dasharray:3.7,1.6;stroke-dashoffset:0;"/>
   </g>
   <g id="line2d_264">
    <path clip-path="url(#p8acc0fe701)" d="M 461.44375 291.30904 
L 461.44375 287.973051 
" style="fill:none;stroke:#00008b;stroke-dasharray:3.7,1.6;stroke-dashoffset:0;"/>
   </g>
   <g id="line2d_265">
    <path clip-path="url(#p8acc0fe701)" d="M 460.39375 298.84983 
L 462.49375 298.84983 
" style="fill:none;stroke:#000000;stroke-linecap:square;"/>
   </g>
   <g id="line2d_266">
    <path clip-path="url(#p8acc0fe701)" d="M 460.39375 287.973051 
L 462.49375 287.973051 
" style="fill:none;stroke:#000000;stroke-linecap:square;"/>
   </g>
   <g id="line2d_267"/>
   <g id="line2d_268">
    <path clip-path="url(#p8acc0fe701)" d="M 467.74375 296.191179 
L 471.94375 296.191179 
L 471.94375 291.14103 
L 467.74375 291.14103 
L 467.74375 296.191179 
" style="fill:none;stroke:#00008b;stroke-linecap:square;"/>
   </g>
   <g id="line2d_269">
    <path clip-path="url(#p8acc0fe701)" d="M 469.84375 296.191179 
L 469.84375 298.126326 
" style="fill:none;stroke:#00008b;stroke-dasharray:3.7,1.6;stroke-dashoffset:0;"/>
   </g>
   <g id="line2d_270">
    <path clip-path="url(#p8acc0fe701)" d="M 469.84375 291.14103 
L 469.84375 288.581521 
" style="fill:none;stroke:#00008b;stroke-dasharray:3.7,1.6;stroke-dashoffset:0;"/>
   </g>
   <g id="line2d_271">
    <path clip-path="url(#p8acc0fe701)" d="M 468.79375 298.126326 
L 470.89375 298.126326 
" style="fill:none;stroke:#000000;stroke-linecap:square;"/>
   </g>
   <g id="line2d_272">
    <path clip-path="url(#p8acc0fe701)" d="M 468.79375 288.581521 
L 470.89375 288.581521 
" style="fill:none;stroke:#000000;stroke-linecap:square;"/>
   </g>
   <g id="line2d_273"/>
   <g id="line2d_274">
    <path clip-path="url(#p8acc0fe701)" d="M 476.14375 296.760295 
L 480.34375 296.760295 
L 480.34375 291.884968 
L 476.14375 291.884968 
L 476.14375 296.760295 
" style="fill:none;stroke:#00008b;stroke-linecap:square;"/>
   </g>
   <g id="line2d_275">
    <path clip-path="url(#p8acc0fe701)" d="M 478.24375 296.760295 
L 478.24375 299.742858 
" style="fill:none;stroke:#00008b;stroke-dasharray:3.7,1.6;stroke-dashoffset:0;"/>
   </g>
   <g id="line2d_276">
    <path clip-path="url(#p8acc0fe701)" d="M 478.24375 291.884968 
L 478.24375 289.253562 
" style="fill:none;stroke:#00008b;stroke-dasharray:3.7,1.6;stroke-dashoffset:0;"/>
   </g>
   <g id="line2d_277">
    <path clip-path="url(#p8acc0fe701)" d="M 477.19375 299.742858 
L 479.29375 299.742858 
" style="fill:none;stroke:#000000;stroke-linecap:square;"/>
   </g>
   <g id="line2d_278">
    <path clip-path="url(#p8acc0fe701)" d="M 477.19375 289.253562 
L 479.29375 289.253562 
" style="fill:none;stroke:#000000;stroke-linecap:square;"/>
   </g>
   <g id="line2d_279"/>
   <g id="line2d_280">
    <path clip-path="url(#p8acc0fe701)" d="M 484.54375 297.268867 
L 488.74375 297.268867 
L 488.74375 292.420784 
L 484.54375 292.420784 
L 484.54375 297.268867 
" style="fill:none;stroke:#00008b;stroke-linecap:square;"/>
   </g>
   <g id="line2d_281">
    <path clip-path="url(#p8acc0fe701)" d="M 486.64375 297.268867 
L 486.64375 299.691395 
" style="fill:none;stroke:#00008b;stroke-dasharray:3.7,1.6;stroke-dashoffset:0;"/>
   </g>
   <g id="line2d_282">
    <path clip-path="url(#p8acc0fe701)" d="M 486.64375 292.420784 
L 486.64375 289.193018 
" style="fill:none;stroke:#00008b;stroke-dasharray:3.7,1.6;stroke-dashoffset:0;"/>
   </g>
   <g id="line2d_283">
    <path clip-path="url(#p8acc0fe701)" d="M 485.59375 299.691395 
L 487.69375 299.691395 
" style="fill:none;stroke:#000000;stroke-linecap:square;"/>
   </g>
   <g id="line2d_284">
    <path clip-path="url(#p8acc0fe701)" d="M 485.59375 289.193018 
L 487.69375 289.193018 
" style="fill:none;stroke:#000000;stroke-linecap:square;"/>
   </g>
   <g id="line2d_285"/>
   <g id="line2d_286">
    <path clip-path="url(#p8acc0fe701)" d="M 106.54375 103.449233 
L 110.74375 103.449233 
" style="fill:none;stroke:#8b0000;stroke-linecap:square;"/>
   </g>
   <g id="line2d_287">
    <path clip-path="url(#p8acc0fe701)" d="M 114.94375 137.56896 
L 119.14375 137.56896 
" style="fill:none;stroke:#8b0000;stroke-linecap:square;"/>
   </g>
   <g id="line2d_288">
    <path clip-path="url(#p8acc0fe701)" d="M 123.34375 168.946031 
L 127.54375 168.946031 
" style="fill:none;stroke:#8b0000;stroke-linecap:square;"/>
   </g>
   <g id="line2d_289">
    <path clip-path="url(#p8acc0fe701)" d="M 131.74375 186.216286 
L 135.94375 186.216286 
" style="fill:none;stroke:#8b0000;stroke-linecap:square;"/>
   </g>
   <g id="line2d_290">
    <path clip-path="url(#p8acc0fe701)" d="M 140.14375 200.619769 
L 144.34375 200.619769 
" style="fill:none;stroke:#8b0000;stroke-linecap:square;"/>
   </g>
   <g id="line2d_291">
    <path clip-path="url(#p8acc0fe701)" d="M 148.54375 215.661994 
L 152.74375 215.661994 
" style="fill:none;stroke:#8b0000;stroke-linecap:square;"/>
   </g>
   <g id="line2d_292">
    <path clip-path="url(#p8acc0fe701)" d="M 156.94375 223.738601 
L 161.14375 223.738601 
" style="fill:none;stroke:#8b0000;stroke-linecap:square;"/>
   </g>
   <g id="line2d_293">
    <path clip-path="url(#p8acc0fe701)" d="M 165.34375 233.00793 
L 169.54375 233.00793 
" style="fill:none;stroke:#8b0000;stroke-linecap:square;"/>
   </g>
   <g id="line2d_294">
    <path clip-path="url(#p8acc0fe701)" d="M 173.74375 238.002832 
L 177.94375 238.002832 
" style="fill:none;stroke:#8b0000;stroke-linecap:square;"/>
   </g>
   <g id="line2d_295">
    <path clip-path="url(#p8acc0fe701)" d="M 182.14375 243.600151 
L 186.34375 243.600151 
" style="fill:none;stroke:#8b0000;stroke-linecap:square;"/>
   </g>
   <g id="line2d_296">
    <path clip-path="url(#p8acc0fe701)" d="M 190.54375 248.386176 
L 194.74375 248.386176 
" style="fill:none;stroke:#8b0000;stroke-linecap:square;"/>
   </g>
   <g id="line2d_297">
    <path clip-path="url(#p8acc0fe701)" d="M 198.94375 253.532439 
L 203.14375 253.532439 
" style="fill:none;stroke:#8b0000;stroke-linecap:square;"/>
   </g>
   <g id="line2d_298">
    <path clip-path="url(#p8acc0fe701)" d="M 207.34375 258.226134 
L 211.54375 258.226134 
" style="fill:none;stroke:#8b0000;stroke-linecap:square;"/>
   </g>
   <g id="line2d_299">
    <path clip-path="url(#p8acc0fe701)" d="M 215.74375 261.404709 
L 219.94375 261.404709 
" style="fill:none;stroke:#8b0000;stroke-linecap:square;"/>
   </g>
   <g id="line2d_300">
    <path clip-path="url(#p8acc0fe701)" d="M 224.14375 264.563606 
L 228.34375 264.563606 
" style="fill:none;stroke:#8b0000;stroke-linecap:square;"/>
   </g>
   <g id="line2d_301">
    <path clip-path="url(#p8acc0fe701)" d="M 232.54375 267.121602 
L 236.74375 267.121602 
" style="fill:none;stroke:#8b0000;stroke-linecap:square;"/>
   </g>
   <g id="line2d_302">
    <path clip-path="url(#p8acc0fe701)" d="M 240.94375 267.872351 
L 245.14375 267.872351 
" style="fill:none;stroke:#8b0000;stroke-linecap:square;"/>
   </g>
   <g id="line2d_303">
    <path clip-path="url(#p8acc0fe701)" d="M 249.34375 270.397047 
L 253.54375 270.397047 
" style="fill:none;stroke:#8b0000;stroke-linecap:square;"/>
   </g>
   <g id="line2d_304">
    <path clip-path="url(#p8acc0fe701)" d="M 257.74375 272.261811 
L 261.94375 272.261811 
" style="fill:none;stroke:#8b0000;stroke-linecap:square;"/>
   </g>
   <g id="line2d_305">
    <path clip-path="url(#p8acc0fe701)" d="M 266.14375 274.656337 
L 270.34375 274.656337 
" style="fill:none;stroke:#8b0000;stroke-linecap:square;"/>
   </g>
   <g id="line2d_306">
    <path clip-path="url(#p8acc0fe701)" d="M 274.54375 275.812733 
L 278.74375 275.812733 
" style="fill:none;stroke:#8b0000;stroke-linecap:square;"/>
   </g>
   <g id="line2d_307">
    <path clip-path="url(#p8acc0fe701)" d="M 282.94375 277.171952 
L 287.14375 277.171952 
" style="fill:none;stroke:#8b0000;stroke-linecap:square;"/>
   </g>
   <g id="line2d_308">
    <path clip-path="url(#p8acc0fe701)" d="M 291.34375 279.177481 
L 295.54375 279.177481 
" style="fill:none;stroke:#8b0000;stroke-linecap:square;"/>
   </g>
   <g id="line2d_309">
    <path clip-path="url(#p8acc0fe701)" d="M 299.74375 280.710765 
L 303.94375 280.710765 
" style="fill:none;stroke:#8b0000;stroke-linecap:square;"/>
   </g>
   <g id="line2d_310">
    <path clip-path="url(#p8acc0fe701)" d="M 308.14375 280.949915 
L 312.34375 280.949915 
" style="fill:none;stroke:#8b0000;stroke-linecap:square;"/>
   </g>
   <g id="line2d_311">
    <path clip-path="url(#p8acc0fe701)" d="M 316.54375 282.590664 
L 320.74375 282.590664 
" style="fill:none;stroke:#8b0000;stroke-linecap:square;"/>
   </g>
   <g id="line2d_312">
    <path clip-path="url(#p8acc0fe701)" d="M 324.94375 282.963012 
L 329.14375 282.963012 
" style="fill:none;stroke:#8b0000;stroke-linecap:square;"/>
   </g>
   <g id="line2d_313">
    <path clip-path="url(#p8acc0fe701)" d="M 333.34375 284.222333 
L 337.54375 284.222333 
" style="fill:none;stroke:#8b0000;stroke-linecap:square;"/>
   </g>
   <g id="line2d_314">
    <path clip-path="url(#p8acc0fe701)" d="M 341.74375 285.142606 
L 345.94375 285.142606 
" style="fill:none;stroke:#8b0000;stroke-linecap:square;"/>
   </g>
   <g id="line2d_315">
    <path clip-path="url(#p8acc0fe701)" d="M 350.14375 285.935736 
L 354.34375 285.935736 
" style="fill:none;stroke:#8b0000;stroke-linecap:square;"/>
   </g>
   <g id="line2d_316">
    <path clip-path="url(#p8acc0fe701)" d="M 358.54375 286.592641 
L 362.74375 286.592641 
" style="fill:none;stroke:#8b0000;stroke-linecap:square;"/>
   </g>
   <g id="line2d_317">
    <path clip-path="url(#p8acc0fe701)" d="M 366.94375 287.723305 
L 371.14375 287.723305 
" style="fill:none;stroke:#8b0000;stroke-linecap:square;"/>
   </g>
   <g id="line2d_318">
    <path clip-path="url(#p8acc0fe701)" d="M 375.34375 288.357507 
L 379.54375 288.357507 
" style="fill:none;stroke:#8b0000;stroke-linecap:square;"/>
   </g>
   <g id="line2d_319">
    <path clip-path="url(#p8acc0fe701)" d="M 383.74375 289.180909 
L 387.94375 289.180909 
" style="fill:none;stroke:#8b0000;stroke-linecap:square;"/>
   </g>
   <g id="line2d_320">
    <path clip-path="url(#p8acc0fe701)" d="M 392.14375 289.504821 
L 396.34375 289.504821 
" style="fill:none;stroke:#8b0000;stroke-linecap:square;"/>
   </g>
   <g id="line2d_321">
    <path clip-path="url(#p8acc0fe701)" d="M 400.54375 290.842849 
L 404.74375 290.842849 
" style="fill:none;stroke:#8b0000;stroke-linecap:square;"/>
   </g>
   <g id="line2d_322">
    <path clip-path="url(#p8acc0fe701)" d="M 408.94375 290.647594 
L 413.14375 290.647594 
" style="fill:none;stroke:#8b0000;stroke-linecap:square;"/>
   </g>
   <g id="line2d_323">
    <path clip-path="url(#p8acc0fe701)" d="M 417.34375 290.794414 
L 421.54375 290.794414 
" style="fill:none;stroke:#8b0000;stroke-linecap:square;"/>
   </g>
   <g id="line2d_324">
    <path clip-path="url(#p8acc0fe701)" d="M 425.74375 291.884211 
L 429.94375 291.884211 
" style="fill:none;stroke:#8b0000;stroke-linecap:square;"/>
   </g>
   <g id="line2d_325">
    <path clip-path="url(#p8acc0fe701)" d="M 434.14375 292.143038 
L 438.34375 292.143038 
" style="fill:none;stroke:#8b0000;stroke-linecap:square;"/>
   </g>
   <g id="line2d_326">
    <path clip-path="url(#p8acc0fe701)" d="M 442.54375 292.753021 
L 446.74375 292.753021 
" style="fill:none;stroke:#8b0000;stroke-linecap:square;"/>
   </g>
   <g id="line2d_327">
    <path clip-path="url(#p8acc0fe701)" d="M 450.94375 293.39479 
L 455.14375 293.39479 
" style="fill:none;stroke:#8b0000;stroke-linecap:square;"/>
   </g>
   <g id="line2d_328">
    <path clip-path="url(#p8acc0fe701)" d="M 459.34375 293.862495 
L 463.54375 293.862495 
" style="fill:none;stroke:#8b0000;stroke-linecap:square;"/>
   </g>
   <g id="line2d_329">
    <path clip-path="url(#p8acc0fe701)" d="M 467.74375 293.70508 
L 471.94375 293.70508 
" style="fill:none;stroke:#8b0000;stroke-linecap:square;"/>
   </g>
   <g id="line2d_330">
    <path clip-path="url(#p8acc0fe701)" d="M 476.14375 294.707088 
L 480.34375 294.707088 
" style="fill:none;stroke:#8b0000;stroke-linecap:square;"/>
   </g>
   <g id="line2d_331">
    <path clip-path="url(#p8acc0fe701)" d="M 484.54375 295.133925 
L 488.74375 295.133925 
" style="fill:none;stroke:#8b0000;stroke-linecap:square;"/>
   </g>
   <g id="patch_3">
    <path d="M 100.24375 316.7225 
L 100.24375 39.5225 
" style="fill:none;stroke:#000000;stroke-linecap:square;stroke-linejoin:miter;stroke-width:0.8;"/>
   </g>
   <g id="patch_4">
    <path d="M 100.24375 316.7225 
L 490.84375 316.7225 
" style="fill:none;stroke:#000000;stroke-linecap:square;stroke-linejoin:miter;stroke-width:0.8;"/>
   </g>
  </g>
 </g>
 <defs>
  <clipPath id="p8acc0fe701">
   <rect height="277.2" width="390.6" x="100.24375" y="39.5225"/>
  </clipPath>
 </defs>
</svg>
