<?xml version="1.0" encoding="utf-8" standalone="no"?>
<!DOCTYPE svg PUBLIC "-//W3C//DTD SVG 1.1//EN"
  "http://www.w3.org/Graphics/SVG/1.1/DTD/svg11.dtd">
<!-- Created with matplotlib (https://matplotlib.org/) -->
<svg height="395.595938pt" version="1.1" viewBox="0 0 498.247473 395.595938" width="498.247473pt" xmlns="http://www.w3.org/2000/svg" xmlns:xlink="http://www.w3.org/1999/xlink">
 <defs>
  <style type="text/css">
*{stroke-linecap:butt;stroke-linejoin:round;}
  </style>
 </defs>
 <g id="figure_1">
  <g id="patch_1">
   <path d="M 0 395.595938 
L 498.247473 395.595938 
L 498.247473 0 
L 0 0 
z
" style="fill:none;"/>
  </g>
  <g id="axes_1">
   <g id="patch_2">
    <path d="M 82.42875 321.637188 
L 473.02875 321.637188 
L 473.02875 49.837188 
L 82.42875 49.837188 
z
" style="fill:none;"/>
   </g>
   <g id="matplotlib.axis_1">
    <g id="xtick_1">
     <g id="line2d_1">
      <defs>
       <path d="M 0 0 
L 0 5 
" id="me4d791ea53" style="stroke:#000000;stroke-width:0.8;"/>
      </defs>
      <g>
       <use style="stroke:#000000;stroke-width:0.8;" x="129.130924" xlink:href="#me4d791ea53" y="321.637188"/>
      </g>
     </g>
     <g id="text_1">
      <!-- 0.1 -->
      <defs>
       <path d="M 31.78125 66.40625 
Q 24.171875 66.40625 20.328125 58.90625 
Q 16.5 51.421875 16.5 36.375 
Q 16.5 21.390625 20.328125 13.890625 
Q 24.171875 6.390625 31.78125 6.390625 
Q 39.453125 6.390625 43.28125 13.890625 
Q 47.125 21.390625 47.125 36.375 
Q 47.125 51.421875 43.28125 58.90625 
Q 39.453125 66.40625 31.78125 66.40625 
z
M 31.78125 74.21875 
Q 44.046875 74.21875 50.515625 64.515625 
Q 56.984375 54.828125 56.984375 36.375 
Q 56.984375 17.96875 50.515625 8.265625 
Q 44.046875 -1.421875 31.78125 -1.421875 
Q 19.53125 -1.421875 13.0625 8.265625 
Q 6.59375 17.96875 6.59375 36.375 
Q 6.59375 54.828125 13.0625 64.515625 
Q 19.53125 74.21875 31.78125 74.21875 
z
" id="DejaVuSans-48"/>
       <path d="M 10.6875 12.40625 
L 21 12.40625 
L 21 0 
L 10.6875 0 
z
" id="DejaVuSans-46"/>
       <path d="M 12.40625 8.296875 
L 28.515625 8.296875 
L 28.515625 63.921875 
L 10.984375 60.40625 
L 10.984375 69.390625 
L 28.421875 72.90625 
L 38.28125 72.90625 
L 38.28125 8.296875 
L 54.390625 8.296875 
L 54.390625 0 
L 12.40625 0 
z
" id="DejaVuSans-49"/>
      </defs>
      <g transform="translate(106.866549 351.412813)scale(0.28 -0.28)">
       <use xlink:href="#DejaVuSans-48"/>
       <use x="63.623047" xlink:href="#DejaVuSans-46"/>
       <use x="95.410156" xlink:href="#DejaVuSans-49"/>
      </g>
     </g>
    </g>
    <g id="xtick_2">
     <g id="line2d_2">
      <g>
       <use style="stroke:#000000;stroke-width:0.8;" x="214.043967" xlink:href="#me4d791ea53" y="321.637188"/>
      </g>
     </g>
     <g id="text_2">
      <!-- 0.2 -->
      <defs>
       <path d="M 19.1875 8.296875 
L 53.609375 8.296875 
L 53.609375 0 
L 7.328125 0 
L 7.328125 8.296875 
Q 12.9375 14.109375 22.625 23.890625 
Q 32.328125 33.6875 34.8125 36.53125 
Q 39.546875 41.84375 41.421875 45.53125 
Q 43.3125 49.21875 43.3125 52.78125 
Q 43.3125 58.59375 39.234375 62.25 
Q 35.15625 65.921875 28.609375 65.921875 
Q 23.96875 65.921875 18.8125 64.3125 
Q 13.671875 62.703125 7.8125 59.421875 
L 7.8125 69.390625 
Q 13.765625 71.78125 18.9375 73 
Q 24.125 74.21875 28.421875 74.21875 
Q 39.75 74.21875 46.484375 68.546875 
Q 53.21875 62.890625 53.21875 53.421875 
Q 53.21875 48.921875 51.53125 44.890625 
Q 49.859375 40.875 45.40625 35.40625 
Q 44.1875 33.984375 37.640625 27.21875 
Q 31.109375 20.453125 19.1875 8.296875 
z
" id="DejaVuSans-50"/>
      </defs>
      <g transform="translate(191.779592 351.412813)scale(0.28 -0.28)">
       <use xlink:href="#DejaVuSans-48"/>
       <use x="63.623047" xlink:href="#DejaVuSans-46"/>
       <use x="95.410156" xlink:href="#DejaVuSans-50"/>
      </g>
     </g>
    </g>
    <g id="xtick_3">
     <g id="line2d_3">
      <g>
       <use style="stroke:#000000;stroke-width:0.8;" x="298.957011" xlink:href="#me4d791ea53" y="321.637188"/>
      </g>
     </g>
     <g id="text_3">
      <!-- 0.3 -->
      <defs>
       <path d="M 40.578125 39.3125 
Q 47.65625 37.796875 51.625 33 
Q 55.609375 28.21875 55.609375 21.1875 
Q 55.609375 10.40625 48.1875 4.484375 
Q 40.765625 -1.421875 27.09375 -1.421875 
Q 22.515625 -1.421875 17.65625 -0.515625 
Q 12.796875 0.390625 7.625 2.203125 
L 7.625 11.71875 
Q 11.71875 9.328125 16.59375 8.109375 
Q 21.484375 6.890625 26.8125 6.890625 
Q 36.078125 6.890625 40.9375 10.546875 
Q 45.796875 14.203125 45.796875 21.1875 
Q 45.796875 27.640625 41.28125 31.265625 
Q 36.765625 34.90625 28.71875 34.90625 
L 20.21875 34.90625 
L 20.21875 43.015625 
L 29.109375 43.015625 
Q 36.375 43.015625 40.234375 45.921875 
Q 44.09375 48.828125 44.09375 54.296875 
Q 44.09375 59.90625 40.109375 62.90625 
Q 36.140625 65.921875 28.71875 65.921875 
Q 24.65625 65.921875 20.015625 65.03125 
Q 15.375 64.15625 9.8125 62.3125 
L 9.8125 71.09375 
Q 15.4375 72.65625 20.34375 73.4375 
Q 25.25 74.21875 29.59375 74.21875 
Q 40.828125 74.21875 47.359375 69.109375 
Q 53.90625 64.015625 53.90625 55.328125 
Q 53.90625 49.265625 50.4375 45.09375 
Q 46.96875 40.921875 40.578125 39.3125 
z
" id="DejaVuSans-51"/>
      </defs>
      <g transform="translate(276.692636 351.412813)scale(0.28 -0.28)">
       <use xlink:href="#DejaVuSans-48"/>
       <use x="63.623047" xlink:href="#DejaVuSans-46"/>
       <use x="95.410156" xlink:href="#DejaVuSans-51"/>
      </g>
     </g>
    </g>
    <g id="xtick_4">
     <g id="line2d_4">
      <g>
       <use style="stroke:#000000;stroke-width:0.8;" x="383.870054" xlink:href="#me4d791ea53" y="321.637188"/>
      </g>
     </g>
     <g id="text_4">
      <!-- 0.4 -->
      <defs>
       <path d="M 37.796875 64.3125 
L 12.890625 25.390625 
L 37.796875 25.390625 
z
M 35.203125 72.90625 
L 47.609375 72.90625 
L 47.609375 25.390625 
L 58.015625 25.390625 
L 58.015625 17.1875 
L 47.609375 17.1875 
L 47.609375 0 
L 37.796875 0 
L 37.796875 17.1875 
L 4.890625 17.1875 
L 4.890625 26.703125 
z
" id="DejaVuSans-52"/>
      </defs>
      <g transform="translate(361.605679 351.412813)scale(0.28 -0.28)">
       <use xlink:href="#DejaVuSans-48"/>
       <use x="63.623047" xlink:href="#DejaVuSans-46"/>
       <use x="95.410156" xlink:href="#DejaVuSans-52"/>
      </g>
     </g>
    </g>
    <g id="xtick_5">
     <g id="line2d_5">
      <g>
       <use style="stroke:#000000;stroke-width:0.8;" x="468.783098" xlink:href="#me4d791ea53" y="321.637188"/>
      </g>
     </g>
     <g id="text_5">
      <!-- 0.5 -->
      <defs>
       <path d="M 10.796875 72.90625 
L 49.515625 72.90625 
L 49.515625 64.59375 
L 19.828125 64.59375 
L 19.828125 46.734375 
Q 21.96875 47.46875 24.109375 47.828125 
Q 26.265625 48.1875 28.421875 48.1875 
Q 40.625 48.1875 47.75 41.5 
Q 54.890625 34.8125 54.890625 23.390625 
Q 54.890625 11.625 47.5625 5.09375 
Q 40.234375 -1.421875 26.90625 -1.421875 
Q 22.3125 -1.421875 17.546875 -0.640625 
Q 12.796875 0.140625 7.71875 1.703125 
L 7.71875 11.625 
Q 12.109375 9.234375 16.796875 8.0625 
Q 21.484375 6.890625 26.703125 6.890625 
Q 35.15625 6.890625 40.078125 11.328125 
Q 45.015625 15.765625 45.015625 23.390625 
Q 45.015625 31 40.078125 35.4375 
Q 35.15625 39.890625 26.703125 39.890625 
Q 22.75 39.890625 18.8125 39.015625 
Q 14.890625 38.140625 10.796875 36.28125 
z
" id="DejaVuSans-53"/>
      </defs>
      <g transform="translate(446.518723 351.412813)scale(0.28 -0.28)">
       <use xlink:href="#DejaVuSans-48"/>
       <use x="63.623047" xlink:href="#DejaVuSans-46"/>
       <use x="95.410156" xlink:href="#DejaVuSans-53"/>
      </g>
     </g>
    </g>
    <g id="text_6">
     <!-- Underlying $\Psi$ -->
     <defs>
      <path d="M 8.6875 72.90625 
L 18.609375 72.90625 
L 18.609375 28.609375 
Q 18.609375 16.890625 22.84375 11.734375 
Q 27.09375 6.59375 36.625 6.59375 
Q 46.09375 6.59375 50.34375 11.734375 
Q 54.59375 16.890625 54.59375 28.609375 
L 54.59375 72.90625 
L 64.5 72.90625 
L 64.5 27.390625 
Q 64.5 13.140625 57.4375 5.859375 
Q 50.390625 -1.421875 36.625 -1.421875 
Q 22.796875 -1.421875 15.734375 5.859375 
Q 8.6875 13.140625 8.6875 27.390625 
z
" id="DejaVuSans-85"/>
      <path d="M 54.890625 33.015625 
L 54.890625 0 
L 45.90625 0 
L 45.90625 32.71875 
Q 45.90625 40.484375 42.875 44.328125 
Q 39.84375 48.1875 33.796875 48.1875 
Q 26.515625 48.1875 22.3125 43.546875 
Q 18.109375 38.921875 18.109375 30.90625 
L 18.109375 0 
L 9.078125 0 
L 9.078125 54.6875 
L 18.109375 54.6875 
L 18.109375 46.1875 
Q 21.34375 51.125 25.703125 53.5625 
Q 30.078125 56 35.796875 56 
Q 45.21875 56 50.046875 50.171875 
Q 54.890625 44.34375 54.890625 33.015625 
z
" id="DejaVuSans-110"/>
      <path d="M 45.40625 46.390625 
L 45.40625 75.984375 
L 54.390625 75.984375 
L 54.390625 0 
L 45.40625 0 
L 45.40625 8.203125 
Q 42.578125 3.328125 38.25 0.953125 
Q 33.9375 -1.421875 27.875 -1.421875 
Q 17.96875 -1.421875 11.734375 6.484375 
Q 5.515625 14.40625 5.515625 27.296875 
Q 5.515625 40.1875 11.734375 48.09375 
Q 17.96875 56 27.875 56 
Q 33.9375 56 38.25 53.625 
Q 42.578125 51.265625 45.40625 46.390625 
z
M 14.796875 27.296875 
Q 14.796875 17.390625 18.875 11.75 
Q 22.953125 6.109375 30.078125 6.109375 
Q 37.203125 6.109375 41.296875 11.75 
Q 45.40625 17.390625 45.40625 27.296875 
Q 45.40625 37.203125 41.296875 42.84375 
Q 37.203125 48.484375 30.078125 48.484375 
Q 22.953125 48.484375 18.875 42.84375 
Q 14.796875 37.203125 14.796875 27.296875 
z
" id="DejaVuSans-100"/>
      <path d="M 56.203125 29.59375 
L 56.203125 25.203125 
L 14.890625 25.203125 
Q 15.484375 15.921875 20.484375 11.0625 
Q 25.484375 6.203125 34.421875 6.203125 
Q 39.59375 6.203125 44.453125 7.46875 
Q 49.3125 8.734375 54.109375 11.28125 
L 54.109375 2.78125 
Q 49.265625 0.734375 44.1875 -0.34375 
Q 39.109375 -1.421875 33.890625 -1.421875 
Q 20.796875 -1.421875 13.15625 6.1875 
Q 5.515625 13.8125 5.515625 26.8125 
Q 5.515625 40.234375 12.765625 48.109375 
Q 20.015625 56 32.328125 56 
Q 43.359375 56 49.78125 48.890625 
Q 56.203125 41.796875 56.203125 29.59375 
z
M 47.21875 32.234375 
Q 47.125 39.59375 43.09375 43.984375 
Q 39.0625 48.390625 32.421875 48.390625 
Q 24.90625 48.390625 20.390625 44.140625 
Q 15.875 39.890625 15.1875 32.171875 
z
" id="DejaVuSans-101"/>
      <path d="M 41.109375 46.296875 
Q 39.59375 47.171875 37.8125 47.578125 
Q 36.03125 48 33.890625 48 
Q 26.265625 48 22.1875 43.046875 
Q 18.109375 38.09375 18.109375 28.8125 
L 18.109375 0 
L 9.078125 0 
L 9.078125 54.6875 
L 18.109375 54.6875 
L 18.109375 46.1875 
Q 20.953125 51.171875 25.484375 53.578125 
Q 30.03125 56 36.53125 56 
Q 37.453125 56 38.578125 55.875 
Q 39.703125 55.765625 41.0625 55.515625 
z
" id="DejaVuSans-114"/>
      <path d="M 9.421875 75.984375 
L 18.40625 75.984375 
L 18.40625 0 
L 9.421875 0 
z
" id="DejaVuSans-108"/>
      <path d="M 32.171875 -5.078125 
Q 28.375 -14.84375 24.75 -17.8125 
Q 21.140625 -20.796875 15.09375 -20.796875 
L 7.90625 -20.796875 
L 7.90625 -13.28125 
L 13.1875 -13.28125 
Q 16.890625 -13.28125 18.9375 -11.515625 
Q 21 -9.765625 23.484375 -3.21875 
L 25.09375 0.875 
L 2.984375 54.6875 
L 12.5 54.6875 
L 29.59375 11.921875 
L 46.6875 54.6875 
L 56.203125 54.6875 
z
" id="DejaVuSans-121"/>
      <path d="M 9.421875 54.6875 
L 18.40625 54.6875 
L 18.40625 0 
L 9.421875 0 
z
M 9.421875 75.984375 
L 18.40625 75.984375 
L 18.40625 64.59375 
L 9.421875 64.59375 
z
" id="DejaVuSans-105"/>
      <path d="M 45.40625 27.984375 
Q 45.40625 37.75 41.375 43.109375 
Q 37.359375 48.484375 30.078125 48.484375 
Q 22.859375 48.484375 18.828125 43.109375 
Q 14.796875 37.75 14.796875 27.984375 
Q 14.796875 18.265625 18.828125 12.890625 
Q 22.859375 7.515625 30.078125 7.515625 
Q 37.359375 7.515625 41.375 12.890625 
Q 45.40625 18.265625 45.40625 27.984375 
z
M 54.390625 6.78125 
Q 54.390625 -7.171875 48.1875 -13.984375 
Q 42 -20.796875 29.203125 -20.796875 
Q 24.46875 -20.796875 20.265625 -20.09375 
Q 16.0625 -19.390625 12.109375 -17.921875 
L 12.109375 -9.1875 
Q 16.0625 -11.328125 19.921875 -12.34375 
Q 23.78125 -13.375 27.78125 -13.375 
Q 36.625 -13.375 41.015625 -8.765625 
Q 45.40625 -4.15625 45.40625 5.171875 
L 45.40625 9.625 
Q 42.625 4.78125 38.28125 2.390625 
Q 33.9375 0 27.875 0 
Q 17.828125 0 11.671875 7.65625 
Q 5.515625 15.328125 5.515625 27.984375 
Q 5.515625 40.671875 11.671875 48.328125 
Q 17.828125 56 27.875 56 
Q 33.9375 56 38.28125 53.609375 
Q 42.625 51.21875 45.40625 46.390625 
L 45.40625 54.6875 
L 54.390625 54.6875 
z
" id="DejaVuSans-103"/>
      <path id="DejaVuSans-32"/>
      <path d="M 72.40625 69 
L 72.40625 67.09375 
Q 69.796875 66.59375 68.75 63.34375 
Q 67.703125 60.09375 67.703125 56.703125 
Q 67.703125 55.203125 67.890625 52.203125 
Q 68.09375 49.203125 68.09375 47.703125 
Q 68.09375 40.59375 64.34375 35.796875 
Q 60.59375 31 55 29 
Q 49.40625 27 42.40625 27 
L 42.40625 11.09375 
Q 42.40625 5.296875 44.546875 3.6875 
Q 46.703125 2.09375 52.703125 1.90625 
L 52.703125 0 
L 22.09375 0 
L 22.09375 1.90625 
Q 28.59375 2.203125 30.390625 4.046875 
Q 32.203125 5.90625 32.203125 12.40625 
L 32.203125 27 
Q 25.203125 27 19.59375 29 
Q 14 31 10.25 35.796875 
Q 6.5 40.59375 6.5 47.703125 
Q 6.5 49.203125 6.703125 52.203125 
Q 6.90625 55.203125 6.90625 56.703125 
Q 6.90625 60.09375 5.84375 63.34375 
Q 4.796875 66.59375 2.203125 67.09375 
L 2.203125 69 
Q 17.703125 69 17.703125 50.90625 
Q 17.703125 47.59375 17.890625 45.09375 
Q 18.09375 42.59375 18.9375 39.75 
Q 19.796875 36.90625 21.140625 35.046875 
Q 22.5 33.203125 25.046875 31.953125 
Q 27.59375 30.703125 31.09375 30.703125 
L 32.203125 30.703125 
L 32.203125 56.203125 
Q 32.203125 61.09375 29.75 62.6875 
Q 27.296875 64.296875 22.09375 64.296875 
L 22.09375 66.203125 
L 52.703125 66.203125 
L 52.703125 64.296875 
Q 47.296875 64.296875 44.84375 62.796875 
Q 42.40625 61.296875 42.40625 56.203125 
L 42.40625 30.703125 
L 43.5 30.703125 
Q 47 30.703125 49.546875 31.953125 
Q 52.09375 33.203125 53.4375 35.046875 
Q 54.796875 36.90625 55.640625 39.75 
Q 56.5 42.59375 56.703125 45.09375 
Q 56.90625 47.59375 56.90625 50.90625 
Q 56.90625 69 72.40625 69 
z
" id="STIXGeneral-Regular-936"/>
     </defs>
     <g transform="translate(186.58875 382.515938)scale(0.28 -0.28)">
      <use transform="translate(0 0.015625)" xlink:href="#DejaVuSans-85"/>
      <use transform="translate(73.193359 0.015625)" xlink:href="#DejaVuSans-110"/>
      <use transform="translate(136.572266 0.015625)" xlink:href="#DejaVuSans-100"/>
      <use transform="translate(200.048828 0.015625)" xlink:href="#DejaVuSans-101"/>
      <use transform="translate(261.572266 0.015625)" xlink:href="#DejaVuSans-114"/>
      <use transform="translate(302.685547 0.015625)" xlink:href="#DejaVuSans-108"/>
      <use transform="translate(330.46875 0.015625)" xlink:href="#DejaVuSans-121"/>
      <use transform="translate(389.648438 0.015625)" xlink:href="#DejaVuSans-105"/>
      <use transform="translate(417.431641 0.015625)" xlink:href="#DejaVuSans-110"/>
      <use transform="translate(480.810547 0.015625)" xlink:href="#DejaVuSans-103"/>
      <use transform="translate(544.287109 0.015625)" xlink:href="#DejaVuSans-32"/>
      <use transform="translate(576.074219 0.015625)" xlink:href="#STIXGeneral-Regular-936"/>
     </g>
    </g>
   </g>
   <g id="matplotlib.axis_2">
    <g id="ytick_1">
     <g id="line2d_6">
      <defs>
       <path d="M 0 0 
L -5 0 
" id="m04fdb9f376" style="stroke:#000000;stroke-width:0.8;"/>
      </defs>
      <g>
       <use style="stroke:#000000;stroke-width:0.8;" x="82.42875" xlink:href="#m04fdb9f376" y="321.637188"/>
      </g>
     </g>
     <g id="text_7">
      <!-- 0 -->
      <g transform="translate(56.11375 332.275)scale(0.28 -0.28)">
       <use xlink:href="#DejaVuSans-48"/>
      </g>
     </g>
    </g>
    <g id="ytick_2">
     <g id="line2d_7">
      <g>
       <use style="stroke:#000000;stroke-width:0.8;" x="82.42875" xlink:href="#m04fdb9f376" y="192.208616"/>
      </g>
     </g>
     <g id="text_8">
      <!-- 10 -->
      <g transform="translate(38.29875 202.846429)scale(0.28 -0.28)">
       <use xlink:href="#DejaVuSans-49"/>
       <use x="63.623047" xlink:href="#DejaVuSans-48"/>
      </g>
     </g>
    </g>
    <g id="ytick_3">
     <g id="line2d_8">
      <g>
       <use style="stroke:#000000;stroke-width:0.8;" x="82.42875" xlink:href="#m04fdb9f376" y="62.780045"/>
      </g>
     </g>
     <g id="text_9">
      <!-- 20 -->
      <g transform="translate(38.29875 73.417857)scale(0.28 -0.28)">
       <use xlink:href="#DejaVuSans-50"/>
       <use x="63.623047" xlink:href="#DejaVuSans-48"/>
      </g>
     </g>
    </g>
    <g id="text_10">
     <!-- mRNAs at inflection point -->
     <defs>
      <path d="M 52 44.1875 
Q 55.375 50.25 60.0625 53.125 
Q 64.75 56 71.09375 56 
Q 79.640625 56 84.28125 50.015625 
Q 88.921875 44.046875 88.921875 33.015625 
L 88.921875 0 
L 79.890625 0 
L 79.890625 32.71875 
Q 79.890625 40.578125 77.09375 44.375 
Q 74.3125 48.1875 68.609375 48.1875 
Q 61.625 48.1875 57.5625 43.546875 
Q 53.515625 38.921875 53.515625 30.90625 
L 53.515625 0 
L 44.484375 0 
L 44.484375 32.71875 
Q 44.484375 40.625 41.703125 44.40625 
Q 38.921875 48.1875 33.109375 48.1875 
Q 26.21875 48.1875 22.15625 43.53125 
Q 18.109375 38.875 18.109375 30.90625 
L 18.109375 0 
L 9.078125 0 
L 9.078125 54.6875 
L 18.109375 54.6875 
L 18.109375 46.1875 
Q 21.1875 51.21875 25.484375 53.609375 
Q 29.78125 56 35.6875 56 
Q 41.65625 56 45.828125 52.96875 
Q 50 49.953125 52 44.1875 
z
" id="DejaVuSans-109"/>
      <path d="M 44.390625 34.1875 
Q 47.5625 33.109375 50.5625 29.59375 
Q 53.5625 26.078125 56.59375 19.921875 
L 66.609375 0 
L 56 0 
L 46.6875 18.703125 
Q 43.0625 26.03125 39.671875 28.421875 
Q 36.28125 30.8125 30.421875 30.8125 
L 19.671875 30.8125 
L 19.671875 0 
L 9.8125 0 
L 9.8125 72.90625 
L 32.078125 72.90625 
Q 44.578125 72.90625 50.734375 67.671875 
Q 56.890625 62.453125 56.890625 51.90625 
Q 56.890625 45.015625 53.6875 40.46875 
Q 50.484375 35.9375 44.390625 34.1875 
z
M 19.671875 64.796875 
L 19.671875 38.921875 
L 32.078125 38.921875 
Q 39.203125 38.921875 42.84375 42.21875 
Q 46.484375 45.515625 46.484375 51.90625 
Q 46.484375 58.296875 42.84375 61.546875 
Q 39.203125 64.796875 32.078125 64.796875 
z
" id="DejaVuSans-82"/>
      <path d="M 9.8125 72.90625 
L 23.09375 72.90625 
L 55.421875 11.921875 
L 55.421875 72.90625 
L 64.984375 72.90625 
L 64.984375 0 
L 51.703125 0 
L 19.390625 60.984375 
L 19.390625 0 
L 9.8125 0 
z
" id="DejaVuSans-78"/>
      <path d="M 34.1875 63.1875 
L 20.796875 26.90625 
L 47.609375 26.90625 
z
M 28.609375 72.90625 
L 39.796875 72.90625 
L 67.578125 0 
L 57.328125 0 
L 50.6875 18.703125 
L 17.828125 18.703125 
L 11.1875 0 
L 0.78125 0 
z
" id="DejaVuSans-65"/>
      <path d="M 44.28125 53.078125 
L 44.28125 44.578125 
Q 40.484375 46.53125 36.375 47.5 
Q 32.28125 48.484375 27.875 48.484375 
Q 21.1875 48.484375 17.84375 46.4375 
Q 14.5 44.390625 14.5 40.28125 
Q 14.5 37.15625 16.890625 35.375 
Q 19.28125 33.59375 26.515625 31.984375 
L 29.59375 31.296875 
Q 39.15625 29.25 43.1875 25.515625 
Q 47.21875 21.78125 47.21875 15.09375 
Q 47.21875 7.46875 41.1875 3.015625 
Q 35.15625 -1.421875 24.609375 -1.421875 
Q 20.21875 -1.421875 15.453125 -0.5625 
Q 10.6875 0.296875 5.421875 2 
L 5.421875 11.28125 
Q 10.40625 8.6875 15.234375 7.390625 
Q 20.0625 6.109375 24.8125 6.109375 
Q 31.15625 6.109375 34.5625 8.28125 
Q 37.984375 10.453125 37.984375 14.40625 
Q 37.984375 18.0625 35.515625 20.015625 
Q 33.0625 21.96875 24.703125 23.78125 
L 21.578125 24.515625 
Q 13.234375 26.265625 9.515625 29.90625 
Q 5.8125 33.546875 5.8125 39.890625 
Q 5.8125 47.609375 11.28125 51.796875 
Q 16.75 56 26.8125 56 
Q 31.78125 56 36.171875 55.265625 
Q 40.578125 54.546875 44.28125 53.078125 
z
" id="DejaVuSans-115"/>
      <path d="M 34.28125 27.484375 
Q 23.390625 27.484375 19.1875 25 
Q 14.984375 22.515625 14.984375 16.5 
Q 14.984375 11.71875 18.140625 8.90625 
Q 21.296875 6.109375 26.703125 6.109375 
Q 34.1875 6.109375 38.703125 11.40625 
Q 43.21875 16.703125 43.21875 25.484375 
L 43.21875 27.484375 
z
M 52.203125 31.203125 
L 52.203125 0 
L 43.21875 0 
L 43.21875 8.296875 
Q 40.140625 3.328125 35.546875 0.953125 
Q 30.953125 -1.421875 24.3125 -1.421875 
Q 15.921875 -1.421875 10.953125 3.296875 
Q 6 8.015625 6 15.921875 
Q 6 25.140625 12.171875 29.828125 
Q 18.359375 34.515625 30.609375 34.515625 
L 43.21875 34.515625 
L 43.21875 35.40625 
Q 43.21875 41.609375 39.140625 45 
Q 35.0625 48.390625 27.6875 48.390625 
Q 23 48.390625 18.546875 47.265625 
Q 14.109375 46.140625 10.015625 43.890625 
L 10.015625 52.203125 
Q 14.9375 54.109375 19.578125 55.046875 
Q 24.21875 56 28.609375 56 
Q 40.484375 56 46.34375 49.84375 
Q 52.203125 43.703125 52.203125 31.203125 
z
" id="DejaVuSans-97"/>
      <path d="M 18.3125 70.21875 
L 18.3125 54.6875 
L 36.8125 54.6875 
L 36.8125 47.703125 
L 18.3125 47.703125 
L 18.3125 18.015625 
Q 18.3125 11.328125 20.140625 9.421875 
Q 21.96875 7.515625 27.59375 7.515625 
L 36.8125 7.515625 
L 36.8125 0 
L 27.59375 0 
Q 17.1875 0 13.234375 3.875 
Q 9.28125 7.765625 9.28125 18.015625 
L 9.28125 47.703125 
L 2.6875 47.703125 
L 2.6875 54.6875 
L 9.28125 54.6875 
L 9.28125 70.21875 
z
" id="DejaVuSans-116"/>
      <path d="M 37.109375 75.984375 
L 37.109375 68.5 
L 28.515625 68.5 
Q 23.6875 68.5 21.796875 66.546875 
Q 19.921875 64.59375 19.921875 59.515625 
L 19.921875 54.6875 
L 34.71875 54.6875 
L 34.71875 47.703125 
L 19.921875 47.703125 
L 19.921875 0 
L 10.890625 0 
L 10.890625 47.703125 
L 2.296875 47.703125 
L 2.296875 54.6875 
L 10.890625 54.6875 
L 10.890625 58.5 
Q 10.890625 67.625 15.140625 71.796875 
Q 19.390625 75.984375 28.609375 75.984375 
z
" id="DejaVuSans-102"/>
      <path d="M 48.78125 52.59375 
L 48.78125 44.1875 
Q 44.96875 46.296875 41.140625 47.34375 
Q 37.3125 48.390625 33.40625 48.390625 
Q 24.65625 48.390625 19.8125 42.84375 
Q 14.984375 37.3125 14.984375 27.296875 
Q 14.984375 17.28125 19.8125 11.734375 
Q 24.65625 6.203125 33.40625 6.203125 
Q 37.3125 6.203125 41.140625 7.25 
Q 44.96875 8.296875 48.78125 10.40625 
L 48.78125 2.09375 
Q 45.015625 0.34375 40.984375 -0.53125 
Q 36.96875 -1.421875 32.421875 -1.421875 
Q 20.0625 -1.421875 12.78125 6.34375 
Q 5.515625 14.109375 5.515625 27.296875 
Q 5.515625 40.671875 12.859375 48.328125 
Q 20.21875 56 33.015625 56 
Q 37.15625 56 41.109375 55.140625 
Q 45.0625 54.296875 48.78125 52.59375 
z
" id="DejaVuSans-99"/>
      <path d="M 30.609375 48.390625 
Q 23.390625 48.390625 19.1875 42.75 
Q 14.984375 37.109375 14.984375 27.296875 
Q 14.984375 17.484375 19.15625 11.84375 
Q 23.34375 6.203125 30.609375 6.203125 
Q 37.796875 6.203125 41.984375 11.859375 
Q 46.1875 17.53125 46.1875 27.296875 
Q 46.1875 37.015625 41.984375 42.703125 
Q 37.796875 48.390625 30.609375 48.390625 
z
M 30.609375 56 
Q 42.328125 56 49.015625 48.375 
Q 55.71875 40.765625 55.71875 27.296875 
Q 55.71875 13.875 49.015625 6.21875 
Q 42.328125 -1.421875 30.609375 -1.421875 
Q 18.84375 -1.421875 12.171875 6.21875 
Q 5.515625 13.875 5.515625 27.296875 
Q 5.515625 40.765625 12.171875 48.375 
Q 18.84375 56 30.609375 56 
z
" id="DejaVuSans-111"/>
      <path d="M 18.109375 8.203125 
L 18.109375 -20.796875 
L 9.078125 -20.796875 
L 9.078125 54.6875 
L 18.109375 54.6875 
L 18.109375 46.390625 
Q 20.953125 51.265625 25.265625 53.625 
Q 29.59375 56 35.59375 56 
Q 45.5625 56 51.78125 48.09375 
Q 58.015625 40.1875 58.015625 27.296875 
Q 58.015625 14.40625 51.78125 6.484375 
Q 45.5625 -1.421875 35.59375 -1.421875 
Q 29.59375 -1.421875 25.265625 0.953125 
Q 20.953125 3.328125 18.109375 8.203125 
z
M 48.6875 27.296875 
Q 48.6875 37.203125 44.609375 42.84375 
Q 40.53125 48.484375 33.40625 48.484375 
Q 26.265625 48.484375 22.1875 42.84375 
Q 18.109375 37.203125 18.109375 27.296875 
Q 18.109375 17.390625 22.1875 11.75 
Q 26.265625 6.109375 33.40625 6.109375 
Q 40.53125 6.109375 44.609375 11.75 
Q 48.6875 17.390625 48.6875 27.296875 
z
" id="DejaVuSans-112"/>
     </defs>
     <g transform="translate(28.475625 364.274375)rotate(-90)scale(0.28 -0.28)">
      <use xlink:href="#DejaVuSans-109"/>
      <use x="97.412109" xlink:href="#DejaVuSans-82"/>
      <use x="166.894531" xlink:href="#DejaVuSans-78"/>
      <use x="241.699219" xlink:href="#DejaVuSans-65"/>
      <use x="310.107422" xlink:href="#DejaVuSans-115"/>
      <use x="362.207031" xlink:href="#DejaVuSans-32"/>
      <use x="393.994141" xlink:href="#DejaVuSans-97"/>
      <use x="455.273438" xlink:href="#DejaVuSans-116"/>
      <use x="494.482422" xlink:href="#DejaVuSans-32"/>
      <use x="526.269531" xlink:href="#DejaVuSans-105"/>
      <use x="554.052734" xlink:href="#DejaVuSans-110"/>
      <use x="617.431641" xlink:href="#DejaVuSans-102"/>
      <use x="652.636719" xlink:href="#DejaVuSans-108"/>
      <use x="680.419922" xlink:href="#DejaVuSans-101"/>
      <use x="741.943359" xlink:href="#DejaVuSans-99"/>
      <use x="796.923828" xlink:href="#DejaVuSans-116"/>
      <use x="836.132812" xlink:href="#DejaVuSans-105"/>
      <use x="863.916016" xlink:href="#DejaVuSans-111"/>
      <use x="925.097656" xlink:href="#DejaVuSans-110"/>
      <use x="988.476562" xlink:href="#DejaVuSans-32"/>
      <use x="1020.263672" xlink:href="#DejaVuSans-112"/>
      <use x="1083.740234" xlink:href="#DejaVuSans-111"/>
      <use x="1144.921875" xlink:href="#DejaVuSans-105"/>
      <use x="1172.705078" xlink:href="#DejaVuSans-110"/>
      <use x="1236.083984" xlink:href="#DejaVuSans-116"/>
     </g>
    </g>
   </g>
   <g id="line2d_9">
    <path clip-path="url(#p2c8baefb68)" d="M 84.551576 79.282188 
L 88.797228 79.282188 
L 88.797228 78.635045 
L 84.551576 78.635045 
L 84.551576 79.282188 
" style="fill:none;stroke:#00008b;stroke-linecap:square;stroke-width:0.5;"/>
   </g>
   <g id="line2d_10">
    <path clip-path="url(#p2c8baefb68)" d="M 86.674402 79.282188 
L 86.674402 79.605759 
" style="fill:none;stroke:#00008b;stroke-dasharray:1.85,0.8;stroke-dashoffset:0;stroke-width:0.5;"/>
   </g>
   <g id="line2d_11">
    <path clip-path="url(#p2c8baefb68)" d="M 86.674402 78.635045 
L 86.674402 78.311473 
" style="fill:none;stroke:#00008b;stroke-dasharray:1.85,0.8;stroke-dashoffset:0;stroke-width:0.5;"/>
   </g>
   <g id="line2d_12">
    <path clip-path="url(#p2c8baefb68)" d="M 85.612989 79.605759 
L 87.735815 79.605759 
" style="fill:none;stroke:#000000;stroke-linecap:square;stroke-width:0.5;"/>
   </g>
   <g id="line2d_13">
    <path clip-path="url(#p2c8baefb68)" d="M 85.612989 78.311473 
L 87.735815 78.311473 
" style="fill:none;stroke:#000000;stroke-linecap:square;stroke-width:0.5;"/>
   </g>
   <g id="line2d_14">
    <path clip-path="url(#p2c8baefb68)" d="M 93.04288 86.72433 
L 97.288533 86.72433 
L 97.288533 71.192902 
L 93.04288 71.192902 
L 93.04288 86.72433 
" style="fill:none;stroke:#00008b;stroke-linecap:square;stroke-width:0.5;"/>
   </g>
   <g id="line2d_15">
    <path clip-path="url(#p2c8baefb68)" d="M 95.165707 86.72433 
L 95.165707 109.37433 
" style="fill:none;stroke:#00008b;stroke-dasharray:1.85,0.8;stroke-dashoffset:0;stroke-width:0.5;"/>
   </g>
   <g id="line2d_16">
    <path clip-path="url(#p2c8baefb68)" d="M 95.165707 71.192902 
L 95.165707 64.07433 
" style="fill:none;stroke:#00008b;stroke-dasharray:1.85,0.8;stroke-dashoffset:0;stroke-width:0.5;"/>
   </g>
   <g id="line2d_17">
    <path clip-path="url(#p2c8baefb68)" d="M 94.104293 109.37433 
L 96.22712 109.37433 
" style="fill:none;stroke:#000000;stroke-linecap:square;stroke-width:0.5;"/>
   </g>
   <g id="line2d_18">
    <path clip-path="url(#p2c8baefb68)" d="M 94.104293 64.07433 
L 96.22712 64.07433 
" style="fill:none;stroke:#000000;stroke-linecap:square;stroke-width:0.5;"/>
   </g>
   <g id="line2d_19">
    <path clip-path="url(#p2c8baefb68)" d="M 101.534185 119.081473 
L 105.779837 119.081473 
L 105.779837 84.135759 
L 101.534185 84.135759 
L 101.534185 119.081473 
" style="fill:none;stroke:#00008b;stroke-linecap:square;stroke-width:0.5;"/>
   </g>
   <g id="line2d_20">
    <path clip-path="url(#p2c8baefb68)" d="M 103.657011 119.081473 
L 103.657011 152.085759 
" style="fill:none;stroke:#00008b;stroke-dasharray:1.85,0.8;stroke-dashoffset:0;stroke-width:0.5;"/>
   </g>
   <g id="line2d_21">
    <path clip-path="url(#p2c8baefb68)" d="M 103.657011 84.135759 
L 103.657011 64.07433 
" style="fill:none;stroke:#00008b;stroke-dasharray:1.85,0.8;stroke-dashoffset:0;stroke-width:0.5;"/>
   </g>
   <g id="line2d_22">
    <path clip-path="url(#p2c8baefb68)" d="M 102.595598 152.085759 
L 104.718424 152.085759 
" style="fill:none;stroke:#000000;stroke-linecap:square;stroke-width:0.5;"/>
   </g>
   <g id="line2d_23">
    <path clip-path="url(#p2c8baefb68)" d="M 102.595598 64.07433 
L 104.718424 64.07433 
" style="fill:none;stroke:#000000;stroke-linecap:square;stroke-width:0.5;"/>
   </g>
   <g id="line2d_24">
    <path clip-path="url(#p2c8baefb68)" d="M 110.025489 138.495759 
L 114.271141 138.495759 
L 114.271141 106.138616 
L 110.025489 106.138616 
L 110.025489 138.495759 
" style="fill:none;stroke:#00008b;stroke-linecap:square;stroke-width:0.5;"/>
   </g>
   <g id="line2d_25">
    <path clip-path="url(#p2c8baefb68)" d="M 112.148315 138.495759 
L 112.148315 170.205759 
" style="fill:none;stroke:#00008b;stroke-dasharray:1.85,0.8;stroke-dashoffset:0;stroke-width:0.5;"/>
   </g>
   <g id="line2d_26">
    <path clip-path="url(#p2c8baefb68)" d="M 112.148315 106.138616 
L 112.148315 67.957188 
" style="fill:none;stroke:#00008b;stroke-dasharray:1.85,0.8;stroke-dashoffset:0;stroke-width:0.5;"/>
   </g>
   <g id="line2d_27">
    <path clip-path="url(#p2c8baefb68)" d="M 111.086902 170.205759 
L 113.209728 170.205759 
" style="fill:none;stroke:#000000;stroke-linecap:square;stroke-width:0.5;"/>
   </g>
   <g id="line2d_28">
    <path clip-path="url(#p2c8baefb68)" d="M 111.086902 67.957188 
L 113.209728 67.957188 
" style="fill:none;stroke:#000000;stroke-linecap:square;stroke-width:0.5;"/>
   </g>
   <g id="line2d_29">
    <path clip-path="url(#p2c8baefb68)" d="M 118.516793 153.056473 
L 122.762446 153.056473 
L 122.762446 129.435759 
L 118.516793 129.435759 
L 118.516793 153.056473 
" style="fill:none;stroke:#00008b;stroke-linecap:square;stroke-width:0.5;"/>
   </g>
   <g id="line2d_30">
    <path clip-path="url(#p2c8baefb68)" d="M 120.63962 153.056473 
L 120.63962 180.560045 
" style="fill:none;stroke:#00008b;stroke-dasharray:1.85,0.8;stroke-dashoffset:0;stroke-width:0.5;"/>
   </g>
   <g id="line2d_31">
    <path clip-path="url(#p2c8baefb68)" d="M 120.63962 129.435759 
L 120.63962 100.31433 
" style="fill:none;stroke:#00008b;stroke-dasharray:1.85,0.8;stroke-dashoffset:0;stroke-width:0.5;"/>
   </g>
   <g id="line2d_32">
    <path clip-path="url(#p2c8baefb68)" d="M 119.578207 180.560045 
L 121.701033 180.560045 
" style="fill:none;stroke:#000000;stroke-linecap:square;stroke-width:0.5;"/>
   </g>
   <g id="line2d_33">
    <path clip-path="url(#p2c8baefb68)" d="M 119.578207 100.31433 
L 121.701033 100.31433 
" style="fill:none;stroke:#000000;stroke-linecap:square;stroke-width:0.5;"/>
   </g>
   <g id="line2d_34">
    <path clip-path="url(#p2c8baefb68)" d="M 127.008098 167.617188 
L 131.25375 167.617188 
L 131.25375 145.61433 
L 127.008098 145.61433 
L 127.008098 167.617188 
" style="fill:none;stroke:#00008b;stroke-linecap:square;stroke-width:0.5;"/>
   </g>
   <g id="line2d_35">
    <path clip-path="url(#p2c8baefb68)" d="M 129.130924 167.617188 
L 129.130924 190.91433 
" style="fill:none;stroke:#00008b;stroke-dasharray:1.85,0.8;stroke-dashoffset:0;stroke-width:0.5;"/>
   </g>
   <g id="line2d_36">
    <path clip-path="url(#p2c8baefb68)" d="M 129.130924 145.61433 
L 129.130924 127.49433 
" style="fill:none;stroke:#00008b;stroke-dasharray:1.85,0.8;stroke-dashoffset:0;stroke-width:0.5;"/>
   </g>
   <g id="line2d_37">
    <path clip-path="url(#p2c8baefb68)" d="M 128.069511 190.91433 
L 130.192337 190.91433 
" style="fill:none;stroke:#000000;stroke-linecap:square;stroke-width:0.5;"/>
   </g>
   <g id="line2d_38">
    <path clip-path="url(#p2c8baefb68)" d="M 128.069511 127.49433 
L 130.192337 127.49433 
" style="fill:none;stroke:#000000;stroke-linecap:square;stroke-width:0.5;"/>
   </g>
   <g id="line2d_39">
    <path clip-path="url(#p2c8baefb68)" d="M 135.499402 187.031473 
L 139.745054 187.031473 
L 139.745054 165.028616 
L 135.499402 165.028616 
L 135.499402 187.031473 
" style="fill:none;stroke:#00008b;stroke-linecap:square;stroke-width:0.5;"/>
   </g>
   <g id="line2d_40">
    <path clip-path="url(#p2c8baefb68)" d="M 137.622228 187.031473 
L 137.622228 201.268616 
" style="fill:none;stroke:#00008b;stroke-dasharray:1.85,0.8;stroke-dashoffset:0;stroke-width:0.5;"/>
   </g>
   <g id="line2d_41">
    <path clip-path="url(#p2c8baefb68)" d="M 137.622228 165.028616 
L 137.622228 132.671473 
" style="fill:none;stroke:#00008b;stroke-dasharray:1.85,0.8;stroke-dashoffset:0;stroke-width:0.5;"/>
   </g>
   <g id="line2d_42">
    <path clip-path="url(#p2c8baefb68)" d="M 136.560815 201.268616 
L 138.683641 201.268616 
" style="fill:none;stroke:#000000;stroke-linecap:square;stroke-width:0.5;"/>
   </g>
   <g id="line2d_43">
    <path clip-path="url(#p2c8baefb68)" d="M 136.560815 132.671473 
L 138.683641 132.671473 
" style="fill:none;stroke:#000000;stroke-linecap:square;stroke-width:0.5;"/>
   </g>
   <g id="line2d_44">
    <path clip-path="url(#p2c8baefb68)" d="M 143.990707 198.356473 
L 148.236359 198.356473 
L 148.236359 177.000759 
L 143.990707 177.000759 
L 143.990707 198.356473 
" style="fill:none;stroke:#00008b;stroke-linecap:square;stroke-width:0.5;"/>
   </g>
   <g id="line2d_45">
    <path clip-path="url(#p2c8baefb68)" d="M 146.113533 198.356473 
L 146.113533 214.211473 
" style="fill:none;stroke:#00008b;stroke-dasharray:1.85,0.8;stroke-dashoffset:0;stroke-width:0.5;"/>
   </g>
   <g id="line2d_46">
    <path clip-path="url(#p2c8baefb68)" d="M 146.113533 177.000759 
L 146.113533 159.851473 
" style="fill:none;stroke:#00008b;stroke-dasharray:1.85,0.8;stroke-dashoffset:0;stroke-width:0.5;"/>
   </g>
   <g id="line2d_47">
    <path clip-path="url(#p2c8baefb68)" d="M 145.05212 214.211473 
L 147.174946 214.211473 
" style="fill:none;stroke:#000000;stroke-linecap:square;stroke-width:0.5;"/>
   </g>
   <g id="line2d_48">
    <path clip-path="url(#p2c8baefb68)" d="M 145.05212 159.851473 
L 147.174946 159.851473 
" style="fill:none;stroke:#000000;stroke-linecap:square;stroke-width:0.5;"/>
   </g>
   <g id="line2d_49">
    <path clip-path="url(#p2c8baefb68)" d="M 152.482011 207.092902 
L 156.727663 207.092902 
L 156.727663 186.38433 
L 152.482011 186.38433 
L 152.482011 207.092902 
" style="fill:none;stroke:#00008b;stroke-linecap:square;stroke-width:0.5;"/>
   </g>
   <g id="line2d_50">
    <path clip-path="url(#p2c8baefb68)" d="M 154.604837 207.092902 
L 154.604837 225.860045 
" style="fill:none;stroke:#00008b;stroke-dasharray:1.85,0.8;stroke-dashoffset:0;stroke-width:0.5;"/>
   </g>
   <g id="line2d_51">
    <path clip-path="url(#p2c8baefb68)" d="M 154.604837 186.38433 
L 154.604837 168.911473 
" style="fill:none;stroke:#00008b;stroke-dasharray:1.85,0.8;stroke-dashoffset:0;stroke-width:0.5;"/>
   </g>
   <g id="line2d_52">
    <path clip-path="url(#p2c8baefb68)" d="M 153.543424 225.860045 
L 155.66625 225.860045 
" style="fill:none;stroke:#000000;stroke-linecap:square;stroke-width:0.5;"/>
   </g>
   <g id="line2d_53">
    <path clip-path="url(#p2c8baefb68)" d="M 153.543424 168.911473 
L 155.66625 168.911473 
" style="fill:none;stroke:#000000;stroke-linecap:square;stroke-width:0.5;"/>
   </g>
   <g id="line2d_54">
    <path clip-path="url(#p2c8baefb68)" d="M 160.973315 213.56433 
L 165.218967 213.56433 
L 165.218967 195.44433 
L 160.973315 195.44433 
L 160.973315 213.56433 
" style="fill:none;stroke:#00008b;stroke-linecap:square;stroke-width:0.5;"/>
   </g>
   <g id="line2d_55">
    <path clip-path="url(#p2c8baefb68)" d="M 163.096141 213.56433 
L 163.096141 228.448616 
" style="fill:none;stroke:#00008b;stroke-dasharray:1.85,0.8;stroke-dashoffset:0;stroke-width:0.5;"/>
   </g>
   <g id="line2d_56">
    <path clip-path="url(#p2c8baefb68)" d="M 163.096141 195.44433 
L 163.096141 179.265759 
" style="fill:none;stroke:#00008b;stroke-dasharray:1.85,0.8;stroke-dashoffset:0;stroke-width:0.5;"/>
   </g>
   <g id="line2d_57">
    <path clip-path="url(#p2c8baefb68)" d="M 162.034728 228.448616 
L 164.157554 228.448616 
" style="fill:none;stroke:#000000;stroke-linecap:square;stroke-width:0.5;"/>
   </g>
   <g id="line2d_58">
    <path clip-path="url(#p2c8baefb68)" d="M 162.034728 179.265759 
L 164.157554 179.265759 
" style="fill:none;stroke:#000000;stroke-linecap:square;stroke-width:0.5;"/>
   </g>
   <g id="line2d_59">
    <path clip-path="url(#p2c8baefb68)" d="M 169.46462 219.388616 
L 173.710272 219.388616 
L 173.710272 202.562902 
L 169.46462 202.562902 
L 169.46462 219.388616 
" style="fill:none;stroke:#00008b;stroke-linecap:square;stroke-width:0.5;"/>
   </g>
   <g id="line2d_60">
    <path clip-path="url(#p2c8baefb68)" d="M 171.587446 219.388616 
L 171.587446 232.331473 
" style="fill:none;stroke:#00008b;stroke-dasharray:1.85,0.8;stroke-dashoffset:0;stroke-width:0.5;"/>
   </g>
   <g id="line2d_61">
    <path clip-path="url(#p2c8baefb68)" d="M 171.587446 202.562902 
L 171.587446 190.91433 
" style="fill:none;stroke:#00008b;stroke-dasharray:1.85,0.8;stroke-dashoffset:0;stroke-width:0.5;"/>
   </g>
   <g id="line2d_62">
    <path clip-path="url(#p2c8baefb68)" d="M 170.526033 232.331473 
L 172.648859 232.331473 
" style="fill:none;stroke:#000000;stroke-linecap:square;stroke-width:0.5;"/>
   </g>
   <g id="line2d_63">
    <path clip-path="url(#p2c8baefb68)" d="M 170.526033 190.91433 
L 172.648859 190.91433 
" style="fill:none;stroke:#000000;stroke-linecap:square;stroke-width:0.5;"/>
   </g>
   <g id="line2d_64">
    <path clip-path="url(#p2c8baefb68)" d="M 177.955924 227.15433 
L 182.201576 227.15433 
L 182.201576 210.328616 
L 177.955924 210.328616 
L 177.955924 227.15433 
" style="fill:none;stroke:#00008b;stroke-linecap:square;stroke-width:0.5;"/>
   </g>
   <g id="line2d_65">
    <path clip-path="url(#p2c8baefb68)" d="M 180.07875 227.15433 
L 180.07875 238.802902 
" style="fill:none;stroke:#00008b;stroke-dasharray:1.85,0.8;stroke-dashoffset:0;stroke-width:0.5;"/>
   </g>
   <g id="line2d_66">
    <path clip-path="url(#p2c8baefb68)" d="M 180.07875 210.328616 
L 180.07875 190.91433 
" style="fill:none;stroke:#00008b;stroke-dasharray:1.85,0.8;stroke-dashoffset:0;stroke-width:0.5;"/>
   </g>
   <g id="line2d_67">
    <path clip-path="url(#p2c8baefb68)" d="M 179.017337 238.802902 
L 181.140163 238.802902 
" style="fill:none;stroke:#000000;stroke-linecap:square;stroke-width:0.5;"/>
   </g>
   <g id="line2d_68">
    <path clip-path="url(#p2c8baefb68)" d="M 179.017337 190.91433 
L 181.140163 190.91433 
" style="fill:none;stroke:#000000;stroke-linecap:square;stroke-width:0.5;"/>
   </g>
   <g id="line2d_69">
    <path clip-path="url(#p2c8baefb68)" d="M 186.447228 227.801473 
L 190.69288 227.801473 
L 190.69288 215.182188 
L 186.447228 215.182188 
L 186.447228 227.801473 
" style="fill:none;stroke:#00008b;stroke-linecap:square;stroke-width:0.5;"/>
   </g>
   <g id="line2d_70">
    <path clip-path="url(#p2c8baefb68)" d="M 188.570054 227.801473 
L 188.570054 237.508616 
" style="fill:none;stroke:#00008b;stroke-dasharray:1.85,0.8;stroke-dashoffset:0;stroke-width:0.5;"/>
   </g>
   <g id="line2d_71">
    <path clip-path="url(#p2c8baefb68)" d="M 188.570054 215.182188 
L 188.570054 202.562902 
" style="fill:none;stroke:#00008b;stroke-dasharray:1.85,0.8;stroke-dashoffset:0;stroke-width:0.5;"/>
   </g>
   <g id="line2d_72">
    <path clip-path="url(#p2c8baefb68)" d="M 187.508641 237.508616 
L 189.631467 237.508616 
" style="fill:none;stroke:#000000;stroke-linecap:square;stroke-width:0.5;"/>
   </g>
   <g id="line2d_73">
    <path clip-path="url(#p2c8baefb68)" d="M 187.508641 202.562902 
L 189.631467 202.562902 
" style="fill:none;stroke:#000000;stroke-linecap:square;stroke-width:0.5;"/>
   </g>
   <g id="line2d_74">
    <path clip-path="url(#p2c8baefb68)" d="M 194.938533 234.272902 
L 199.184185 234.272902 
L 199.184185 221.653616 
L 194.938533 221.653616 
L 194.938533 234.272902 
" style="fill:none;stroke:#00008b;stroke-linecap:square;stroke-width:0.5;"/>
   </g>
   <g id="line2d_75">
    <path clip-path="url(#p2c8baefb68)" d="M 197.061359 234.272902 
L 197.061359 245.27433 
" style="fill:none;stroke:#00008b;stroke-dasharray:1.85,0.8;stroke-dashoffset:0;stroke-width:0.5;"/>
   </g>
   <g id="line2d_76">
    <path clip-path="url(#p2c8baefb68)" d="M 197.061359 221.653616 
L 197.061359 214.211473 
" style="fill:none;stroke:#00008b;stroke-dasharray:1.85,0.8;stroke-dashoffset:0;stroke-width:0.5;"/>
   </g>
   <g id="line2d_77">
    <path clip-path="url(#p2c8baefb68)" d="M 195.999946 245.27433 
L 198.122772 245.27433 
" style="fill:none;stroke:#000000;stroke-linecap:square;stroke-width:0.5;"/>
   </g>
   <g id="line2d_78">
    <path clip-path="url(#p2c8baefb68)" d="M 195.999946 214.211473 
L 198.122772 214.211473 
" style="fill:none;stroke:#000000;stroke-linecap:square;stroke-width:0.5;"/>
   </g>
   <g id="line2d_79">
    <path clip-path="url(#p2c8baefb68)" d="M 203.429837 239.773616 
L 207.675489 239.773616 
L 207.675489 226.183616 
L 203.429837 226.183616 
L 203.429837 239.773616 
" style="fill:none;stroke:#00008b;stroke-linecap:square;stroke-width:0.5;"/>
   </g>
   <g id="line2d_80">
    <path clip-path="url(#p2c8baefb68)" d="M 205.552663 239.773616 
L 205.552663 247.862902 
" style="fill:none;stroke:#00008b;stroke-dasharray:1.85,0.8;stroke-dashoffset:0;stroke-width:0.5;"/>
   </g>
   <g id="line2d_81">
    <path clip-path="url(#p2c8baefb68)" d="M 205.552663 226.183616 
L 205.552663 216.800045 
" style="fill:none;stroke:#00008b;stroke-dasharray:1.85,0.8;stroke-dashoffset:0;stroke-width:0.5;"/>
   </g>
   <g id="line2d_82">
    <path clip-path="url(#p2c8baefb68)" d="M 204.49125 247.862902 
L 206.614076 247.862902 
" style="fill:none;stroke:#000000;stroke-linecap:square;stroke-width:0.5;"/>
   </g>
   <g id="line2d_83">
    <path clip-path="url(#p2c8baefb68)" d="M 204.49125 216.800045 
L 206.614076 216.800045 
" style="fill:none;stroke:#000000;stroke-linecap:square;stroke-width:0.5;"/>
   </g>
   <g id="line2d_84">
    <path clip-path="url(#p2c8baefb68)" d="M 211.921141 245.27433 
L 216.166793 245.27433 
L 216.166793 228.448616 
L 211.921141 228.448616 
L 211.921141 245.27433 
" style="fill:none;stroke:#00008b;stroke-linecap:square;stroke-width:0.5;"/>
   </g>
   <g id="line2d_85">
    <path clip-path="url(#p2c8baefb68)" d="M 214.043967 245.27433 
L 214.043967 256.922902 
" style="fill:none;stroke:#00008b;stroke-dasharray:1.85,0.8;stroke-dashoffset:0;stroke-width:0.5;"/>
   </g>
   <g id="line2d_86">
    <path clip-path="url(#p2c8baefb68)" d="M 214.043967 228.448616 
L 214.043967 216.800045 
" style="fill:none;stroke:#00008b;stroke-dasharray:1.85,0.8;stroke-dashoffset:0;stroke-width:0.5;"/>
   </g>
   <g id="line2d_87">
    <path clip-path="url(#p2c8baefb68)" d="M 212.982554 256.922902 
L 215.10538 256.922902 
" style="fill:none;stroke:#000000;stroke-linecap:square;stroke-width:0.5;"/>
   </g>
   <g id="line2d_88">
    <path clip-path="url(#p2c8baefb68)" d="M 212.982554 216.800045 
L 215.10538 216.800045 
" style="fill:none;stroke:#000000;stroke-linecap:square;stroke-width:0.5;"/>
   </g>
   <g id="line2d_89">
    <path clip-path="url(#p2c8baefb68)" d="M 220.412446 243.980045 
L 224.658098 243.980045 
L 224.658098 233.625759 
L 220.412446 233.625759 
L 220.412446 243.980045 
" style="fill:none;stroke:#00008b;stroke-linecap:square;stroke-width:0.5;"/>
   </g>
   <g id="line2d_90">
    <path clip-path="url(#p2c8baefb68)" d="M 222.535272 243.980045 
L 222.535272 253.040045 
" style="fill:none;stroke:#00008b;stroke-dasharray:1.85,0.8;stroke-dashoffset:0;stroke-width:0.5;"/>
   </g>
   <g id="line2d_91">
    <path clip-path="url(#p2c8baefb68)" d="M 222.535272 233.625759 
L 222.535272 223.271473 
" style="fill:none;stroke:#00008b;stroke-dasharray:1.85,0.8;stroke-dashoffset:0;stroke-width:0.5;"/>
   </g>
   <g id="line2d_92">
    <path clip-path="url(#p2c8baefb68)" d="M 221.473859 253.040045 
L 223.596685 253.040045 
" style="fill:none;stroke:#000000;stroke-linecap:square;stroke-width:0.5;"/>
   </g>
   <g id="line2d_93">
    <path clip-path="url(#p2c8baefb68)" d="M 221.473859 223.271473 
L 223.596685 223.271473 
" style="fill:none;stroke:#000000;stroke-linecap:square;stroke-width:0.5;"/>
   </g>
   <g id="line2d_94">
    <path clip-path="url(#p2c8baefb68)" d="M 228.90375 248.186473 
L 233.149402 248.186473 
L 233.149402 234.596473 
L 228.90375 234.596473 
L 228.90375 248.186473 
" style="fill:none;stroke:#00008b;stroke-linecap:square;stroke-width:0.5;"/>
   </g>
   <g id="line2d_95">
    <path clip-path="url(#p2c8baefb68)" d="M 231.026576 248.186473 
L 231.026576 254.33433 
" style="fill:none;stroke:#00008b;stroke-dasharray:1.85,0.8;stroke-dashoffset:0;stroke-width:0.5;"/>
   </g>
   <g id="line2d_96">
    <path clip-path="url(#p2c8baefb68)" d="M 231.026576 234.596473 
L 231.026576 215.505759 
" style="fill:none;stroke:#00008b;stroke-dasharray:1.85,0.8;stroke-dashoffset:0;stroke-width:0.5;"/>
   </g>
   <g id="line2d_97">
    <path clip-path="url(#p2c8baefb68)" d="M 229.965163 254.33433 
L 232.087989 254.33433 
" style="fill:none;stroke:#000000;stroke-linecap:square;stroke-width:0.5;"/>
   </g>
   <g id="line2d_98">
    <path clip-path="url(#p2c8baefb68)" d="M 229.965163 215.505759 
L 232.087989 215.505759 
" style="fill:none;stroke:#000000;stroke-linecap:square;stroke-width:0.5;"/>
   </g>
   <g id="line2d_99">
    <path clip-path="url(#p2c8baefb68)" d="M 237.395054 253.363616 
L 241.640707 253.363616 
L 241.640707 242.362188 
L 237.395054 242.362188 
L 237.395054 253.363616 
" style="fill:none;stroke:#00008b;stroke-linecap:square;stroke-width:0.5;"/>
   </g>
   <g id="line2d_100">
    <path clip-path="url(#p2c8baefb68)" d="M 239.51788 253.363616 
L 239.51788 262.100045 
" style="fill:none;stroke:#00008b;stroke-dasharray:1.85,0.8;stroke-dashoffset:0;stroke-width:0.5;"/>
   </g>
   <g id="line2d_101">
    <path clip-path="url(#p2c8baefb68)" d="M 239.51788 242.362188 
L 239.51788 232.331473 
" style="fill:none;stroke:#00008b;stroke-dasharray:1.85,0.8;stroke-dashoffset:0;stroke-width:0.5;"/>
   </g>
   <g id="line2d_102">
    <path clip-path="url(#p2c8baefb68)" d="M 238.456467 262.100045 
L 240.579293 262.100045 
" style="fill:none;stroke:#000000;stroke-linecap:square;stroke-width:0.5;"/>
   </g>
   <g id="line2d_103">
    <path clip-path="url(#p2c8baefb68)" d="M 238.456467 232.331473 
L 240.579293 232.331473 
" style="fill:none;stroke:#000000;stroke-linecap:square;stroke-width:0.5;"/>
   </g>
   <g id="line2d_104">
    <path clip-path="url(#p2c8baefb68)" d="M 245.886359 251.422188 
L 250.132011 251.422188 
L 250.132011 239.126473 
L 245.886359 239.126473 
L 245.886359 251.422188 
" style="fill:none;stroke:#00008b;stroke-linecap:square;stroke-width:0.5;"/>
   </g>
   <g id="line2d_105">
    <path clip-path="url(#p2c8baefb68)" d="M 248.009185 251.422188 
L 248.009185 258.217188 
" style="fill:none;stroke:#00008b;stroke-dasharray:1.85,0.8;stroke-dashoffset:0;stroke-width:0.5;"/>
   </g>
   <g id="line2d_106">
    <path clip-path="url(#p2c8baefb68)" d="M 248.009185 239.126473 
L 248.009185 233.625759 
" style="fill:none;stroke:#00008b;stroke-dasharray:1.85,0.8;stroke-dashoffset:0;stroke-width:0.5;"/>
   </g>
   <g id="line2d_107">
    <path clip-path="url(#p2c8baefb68)" d="M 246.947772 258.217188 
L 249.070598 258.217188 
" style="fill:none;stroke:#000000;stroke-linecap:square;stroke-width:0.5;"/>
   </g>
   <g id="line2d_108">
    <path clip-path="url(#p2c8baefb68)" d="M 246.947772 233.625759 
L 249.070598 233.625759 
" style="fill:none;stroke:#000000;stroke-linecap:square;stroke-width:0.5;"/>
   </g>
   <g id="line2d_109">
    <path clip-path="url(#p2c8baefb68)" d="M 254.377663 255.628616 
L 258.623315 255.628616 
L 258.623315 244.627188 
L 254.377663 244.627188 
L 254.377663 255.628616 
" style="fill:none;stroke:#00008b;stroke-linecap:square;stroke-width:0.5;"/>
   </g>
   <g id="line2d_110">
    <path clip-path="url(#p2c8baefb68)" d="M 256.500489 255.628616 
L 256.500489 262.100045 
" style="fill:none;stroke:#00008b;stroke-dasharray:1.85,0.8;stroke-dashoffset:0;stroke-width:0.5;"/>
   </g>
   <g id="line2d_111">
    <path clip-path="url(#p2c8baefb68)" d="M 256.500489 244.627188 
L 256.500489 238.802902 
" style="fill:none;stroke:#00008b;stroke-dasharray:1.85,0.8;stroke-dashoffset:0;stroke-width:0.5;"/>
   </g>
   <g id="line2d_112">
    <path clip-path="url(#p2c8baefb68)" d="M 255.439076 262.100045 
L 257.561902 262.100045 
" style="fill:none;stroke:#000000;stroke-linecap:square;stroke-width:0.5;"/>
   </g>
   <g id="line2d_113">
    <path clip-path="url(#p2c8baefb68)" d="M 255.439076 238.802902 
L 257.561902 238.802902 
" style="fill:none;stroke:#000000;stroke-linecap:square;stroke-width:0.5;"/>
   </g>
   <g id="line2d_114">
    <path clip-path="url(#p2c8baefb68)" d="M 262.868967 255.628616 
L 267.11462 255.628616 
L 267.11462 245.27433 
L 262.868967 245.27433 
L 262.868967 255.628616 
" style="fill:none;stroke:#00008b;stroke-linecap:square;stroke-width:0.5;"/>
   </g>
   <g id="line2d_115">
    <path clip-path="url(#p2c8baefb68)" d="M 264.991793 255.628616 
L 264.991793 259.511473 
" style="fill:none;stroke:#00008b;stroke-dasharray:1.85,0.8;stroke-dashoffset:0;stroke-width:0.5;"/>
   </g>
   <g id="line2d_116">
    <path clip-path="url(#p2c8baefb68)" d="M 264.991793 245.27433 
L 264.991793 236.21433 
" style="fill:none;stroke:#00008b;stroke-dasharray:1.85,0.8;stroke-dashoffset:0;stroke-width:0.5;"/>
   </g>
   <g id="line2d_117">
    <path clip-path="url(#p2c8baefb68)" d="M 263.93038 259.511473 
L 266.053207 259.511473 
" style="fill:none;stroke:#000000;stroke-linecap:square;stroke-width:0.5;"/>
   </g>
   <g id="line2d_118">
    <path clip-path="url(#p2c8baefb68)" d="M 263.93038 236.21433 
L 266.053207 236.21433 
" style="fill:none;stroke:#000000;stroke-linecap:square;stroke-width:0.5;"/>
   </g>
   <g id="line2d_119">
    <path clip-path="url(#p2c8baefb68)" d="M 271.360272 258.217188 
L 275.605924 258.217188 
L 275.605924 249.157188 
L 271.360272 249.157188 
L 271.360272 258.217188 
" style="fill:none;stroke:#00008b;stroke-linecap:square;stroke-width:0.5;"/>
   </g>
   <g id="line2d_120">
    <path clip-path="url(#p2c8baefb68)" d="M 273.483098 258.217188 
L 273.483098 263.39433 
" style="fill:none;stroke:#00008b;stroke-dasharray:1.85,0.8;stroke-dashoffset:0;stroke-width:0.5;"/>
   </g>
   <g id="line2d_121">
    <path clip-path="url(#p2c8baefb68)" d="M 273.483098 249.157188 
L 273.483098 237.508616 
" style="fill:none;stroke:#00008b;stroke-dasharray:1.85,0.8;stroke-dashoffset:0;stroke-width:0.5;"/>
   </g>
   <g id="line2d_122">
    <path clip-path="url(#p2c8baefb68)" d="M 272.421685 263.39433 
L 274.544511 263.39433 
" style="fill:none;stroke:#000000;stroke-linecap:square;stroke-width:0.5;"/>
   </g>
   <g id="line2d_123">
    <path clip-path="url(#p2c8baefb68)" d="M 272.421685 237.508616 
L 274.544511 237.508616 
" style="fill:none;stroke:#000000;stroke-linecap:square;stroke-width:0.5;"/>
   </g>
   <g id="line2d_124">
    <path clip-path="url(#p2c8baefb68)" d="M 279.851576 259.835045 
L 284.097228 259.835045 
L 284.097228 250.127902 
L 279.851576 250.127902 
L 279.851576 259.835045 
" style="fill:none;stroke:#00008b;stroke-linecap:square;stroke-width:0.5;"/>
   </g>
   <g id="line2d_125">
    <path clip-path="url(#p2c8baefb68)" d="M 281.974402 259.835045 
L 281.974402 264.688616 
" style="fill:none;stroke:#00008b;stroke-dasharray:1.85,0.8;stroke-dashoffset:0;stroke-width:0.5;"/>
   </g>
   <g id="line2d_126">
    <path clip-path="url(#p2c8baefb68)" d="M 281.974402 250.127902 
L 281.974402 243.980045 
" style="fill:none;stroke:#00008b;stroke-dasharray:1.85,0.8;stroke-dashoffset:0;stroke-width:0.5;"/>
   </g>
   <g id="line2d_127">
    <path clip-path="url(#p2c8baefb68)" d="M 280.912989 264.688616 
L 283.035815 264.688616 
" style="fill:none;stroke:#000000;stroke-linecap:square;stroke-width:0.5;"/>
   </g>
   <g id="line2d_128">
    <path clip-path="url(#p2c8baefb68)" d="M 280.912989 243.980045 
L 283.035815 243.980045 
" style="fill:none;stroke:#000000;stroke-linecap:square;stroke-width:0.5;"/>
   </g>
   <g id="line2d_129">
    <path clip-path="url(#p2c8baefb68)" d="M 288.34288 261.12933 
L 292.588533 261.12933 
L 292.588533 250.775045 
L 288.34288 250.775045 
L 288.34288 261.12933 
" style="fill:none;stroke:#00008b;stroke-linecap:square;stroke-width:0.5;"/>
   </g>
   <g id="line2d_130">
    <path clip-path="url(#p2c8baefb68)" d="M 290.465707 261.12933 
L 290.465707 267.277188 
" style="fill:none;stroke:#00008b;stroke-dasharray:1.85,0.8;stroke-dashoffset:0;stroke-width:0.5;"/>
   </g>
   <g id="line2d_131">
    <path clip-path="url(#p2c8baefb68)" d="M 290.465707 250.775045 
L 290.465707 245.27433 
" style="fill:none;stroke:#00008b;stroke-dasharray:1.85,0.8;stroke-dashoffset:0;stroke-width:0.5;"/>
   </g>
   <g id="line2d_132">
    <path clip-path="url(#p2c8baefb68)" d="M 289.404293 267.277188 
L 291.52712 267.277188 
" style="fill:none;stroke:#000000;stroke-linecap:square;stroke-width:0.5;"/>
   </g>
   <g id="line2d_133">
    <path clip-path="url(#p2c8baefb68)" d="M 289.404293 245.27433 
L 291.52712 245.27433 
" style="fill:none;stroke:#000000;stroke-linecap:square;stroke-width:0.5;"/>
   </g>
   <g id="line2d_134">
    <path clip-path="url(#p2c8baefb68)" d="M 296.834185 263.070759 
L 301.079837 263.070759 
L 301.079837 253.363616 
L 296.834185 253.363616 
L 296.834185 263.070759 
" style="fill:none;stroke:#00008b;stroke-linecap:square;stroke-width:0.5;"/>
   </g>
   <g id="line2d_135">
    <path clip-path="url(#p2c8baefb68)" d="M 298.957011 263.070759 
L 298.957011 271.160045 
" style="fill:none;stroke:#00008b;stroke-dasharray:1.85,0.8;stroke-dashoffset:0;stroke-width:0.5;"/>
   </g>
   <g id="line2d_136">
    <path clip-path="url(#p2c8baefb68)" d="M 298.957011 253.363616 
L 298.957011 247.862902 
" style="fill:none;stroke:#00008b;stroke-dasharray:1.85,0.8;stroke-dashoffset:0;stroke-width:0.5;"/>
   </g>
   <g id="line2d_137">
    <path clip-path="url(#p2c8baefb68)" d="M 297.895598 271.160045 
L 300.018424 271.160045 
" style="fill:none;stroke:#000000;stroke-linecap:square;stroke-width:0.5;"/>
   </g>
   <g id="line2d_138">
    <path clip-path="url(#p2c8baefb68)" d="M 297.895598 247.862902 
L 300.018424 247.862902 
" style="fill:none;stroke:#000000;stroke-linecap:square;stroke-width:0.5;"/>
   </g>
   <g id="line2d_139">
    <path clip-path="url(#p2c8baefb68)" d="M 305.325489 262.100045 
L 309.571141 262.100045 
L 309.571141 251.745759 
L 305.325489 251.745759 
L 305.325489 262.100045 
" style="fill:none;stroke:#00008b;stroke-linecap:square;stroke-width:0.5;"/>
   </g>
   <g id="line2d_140">
    <path clip-path="url(#p2c8baefb68)" d="M 307.448315 262.100045 
L 307.448315 271.160045 
" style="fill:none;stroke:#00008b;stroke-dasharray:1.85,0.8;stroke-dashoffset:0;stroke-width:0.5;"/>
   </g>
   <g id="line2d_141">
    <path clip-path="url(#p2c8baefb68)" d="M 307.448315 251.745759 
L 307.448315 243.980045 
" style="fill:none;stroke:#00008b;stroke-dasharray:1.85,0.8;stroke-dashoffset:0;stroke-width:0.5;"/>
   </g>
   <g id="line2d_142">
    <path clip-path="url(#p2c8baefb68)" d="M 306.386902 271.160045 
L 308.509728 271.160045 
" style="fill:none;stroke:#000000;stroke-linecap:square;stroke-width:0.5;"/>
   </g>
   <g id="line2d_143">
    <path clip-path="url(#p2c8baefb68)" d="M 306.386902 243.980045 
L 308.509728 243.980045 
" style="fill:none;stroke:#000000;stroke-linecap:square;stroke-width:0.5;"/>
   </g>
   <g id="line2d_144">
    <path clip-path="url(#p2c8baefb68)" d="M 313.816793 263.070759 
L 318.062446 263.070759 
L 318.062446 255.952188 
L 313.816793 255.952188 
L 313.816793 263.070759 
" style="fill:none;stroke:#00008b;stroke-linecap:square;stroke-width:0.5;"/>
   </g>
   <g id="line2d_145">
    <path clip-path="url(#p2c8baefb68)" d="M 315.93962 263.070759 
L 315.93962 271.160045 
" style="fill:none;stroke:#00008b;stroke-dasharray:1.85,0.8;stroke-dashoffset:0;stroke-width:0.5;"/>
   </g>
   <g id="line2d_146">
    <path clip-path="url(#p2c8baefb68)" d="M 315.93962 255.952188 
L 315.93962 253.040045 
" style="fill:none;stroke:#00008b;stroke-dasharray:1.85,0.8;stroke-dashoffset:0;stroke-width:0.5;"/>
   </g>
   <g id="line2d_147">
    <path clip-path="url(#p2c8baefb68)" d="M 314.878207 271.160045 
L 317.001033 271.160045 
" style="fill:none;stroke:#000000;stroke-linecap:square;stroke-width:0.5;"/>
   </g>
   <g id="line2d_148">
    <path clip-path="url(#p2c8baefb68)" d="M 314.878207 253.040045 
L 317.001033 253.040045 
" style="fill:none;stroke:#000000;stroke-linecap:square;stroke-width:0.5;"/>
   </g>
   <g id="line2d_149">
    <path clip-path="url(#p2c8baefb68)" d="M 322.308098 263.39433 
L 326.55375 263.39433 
L 326.55375 251.745759 
L 322.308098 251.745759 
L 322.308098 263.39433 
" style="fill:none;stroke:#00008b;stroke-linecap:square;stroke-width:0.5;"/>
   </g>
   <g id="line2d_150">
    <path clip-path="url(#p2c8baefb68)" d="M 324.430924 263.39433 
L 324.430924 269.865759 
" style="fill:none;stroke:#00008b;stroke-dasharray:1.85,0.8;stroke-dashoffset:0;stroke-width:0.5;"/>
   </g>
   <g id="line2d_151">
    <path clip-path="url(#p2c8baefb68)" d="M 324.430924 251.745759 
L 324.430924 241.391473 
" style="fill:none;stroke:#00008b;stroke-dasharray:1.85,0.8;stroke-dashoffset:0;stroke-width:0.5;"/>
   </g>
   <g id="line2d_152">
    <path clip-path="url(#p2c8baefb68)" d="M 323.369511 269.865759 
L 325.492337 269.865759 
" style="fill:none;stroke:#000000;stroke-linecap:square;stroke-width:0.5;"/>
   </g>
   <g id="line2d_153">
    <path clip-path="url(#p2c8baefb68)" d="M 323.369511 241.391473 
L 325.492337 241.391473 
" style="fill:none;stroke:#000000;stroke-linecap:square;stroke-width:0.5;"/>
   </g>
   <g id="line2d_154">
    <path clip-path="url(#p2c8baefb68)" d="M 330.799402 264.365045 
L 335.045054 264.365045 
L 335.045054 255.952188 
L 330.799402 255.952188 
L 330.799402 264.365045 
" style="fill:none;stroke:#00008b;stroke-linecap:square;stroke-width:0.5;"/>
   </g>
   <g id="line2d_155">
    <path clip-path="url(#p2c8baefb68)" d="M 332.922228 264.365045 
L 332.922228 275.042902 
" style="fill:none;stroke:#00008b;stroke-dasharray:1.85,0.8;stroke-dashoffset:0;stroke-width:0.5;"/>
   </g>
   <g id="line2d_156">
    <path clip-path="url(#p2c8baefb68)" d="M 332.922228 255.952188 
L 332.922228 246.568616 
" style="fill:none;stroke:#00008b;stroke-dasharray:1.85,0.8;stroke-dashoffset:0;stroke-width:0.5;"/>
   </g>
   <g id="line2d_157">
    <path clip-path="url(#p2c8baefb68)" d="M 331.860815 275.042902 
L 333.983641 275.042902 
" style="fill:none;stroke:#000000;stroke-linecap:square;stroke-width:0.5;"/>
   </g>
   <g id="line2d_158">
    <path clip-path="url(#p2c8baefb68)" d="M 331.860815 246.568616 
L 333.983641 246.568616 
" style="fill:none;stroke:#000000;stroke-linecap:square;stroke-width:0.5;"/>
   </g>
   <g id="line2d_159">
    <path clip-path="url(#p2c8baefb68)" d="M 339.290707 266.306473 
L 343.536359 266.306473 
L 343.536359 257.893616 
L 339.290707 257.893616 
L 339.290707 266.306473 
" style="fill:none;stroke:#00008b;stroke-linecap:square;stroke-width:0.5;"/>
   </g>
   <g id="line2d_160">
    <path clip-path="url(#p2c8baefb68)" d="M 341.413533 266.306473 
L 341.413533 275.042902 
" style="fill:none;stroke:#00008b;stroke-dasharray:1.85,0.8;stroke-dashoffset:0;stroke-width:0.5;"/>
   </g>
   <g id="line2d_161">
    <path clip-path="url(#p2c8baefb68)" d="M 341.413533 257.893616 
L 341.413533 249.157188 
" style="fill:none;stroke:#00008b;stroke-dasharray:1.85,0.8;stroke-dashoffset:0;stroke-width:0.5;"/>
   </g>
   <g id="line2d_162">
    <path clip-path="url(#p2c8baefb68)" d="M 340.35212 275.042902 
L 342.474946 275.042902 
" style="fill:none;stroke:#000000;stroke-linecap:square;stroke-width:0.5;"/>
   </g>
   <g id="line2d_163">
    <path clip-path="url(#p2c8baefb68)" d="M 340.35212 249.157188 
L 342.474946 249.157188 
" style="fill:none;stroke:#000000;stroke-linecap:square;stroke-width:0.5;"/>
   </g>
   <g id="line2d_164">
    <path clip-path="url(#p2c8baefb68)" d="M 347.782011 267.277188 
L 352.027663 267.277188 
L 352.027663 253.040045 
L 347.782011 253.040045 
L 347.782011 267.277188 
" style="fill:none;stroke:#00008b;stroke-linecap:square;stroke-width:0.5;"/>
   </g>
   <g id="line2d_165">
    <path clip-path="url(#p2c8baefb68)" d="M 349.904837 267.277188 
L 349.904837 271.160045 
" style="fill:none;stroke:#00008b;stroke-dasharray:1.85,0.8;stroke-dashoffset:0;stroke-width:0.5;"/>
   </g>
   <g id="line2d_166">
    <path clip-path="url(#p2c8baefb68)" d="M 349.904837 253.040045 
L 349.904837 238.802902 
" style="fill:none;stroke:#00008b;stroke-dasharray:1.85,0.8;stroke-dashoffset:0;stroke-width:0.5;"/>
   </g>
   <g id="line2d_167">
    <path clip-path="url(#p2c8baefb68)" d="M 348.843424 271.160045 
L 350.96625 271.160045 
" style="fill:none;stroke:#000000;stroke-linecap:square;stroke-width:0.5;"/>
   </g>
   <g id="line2d_168">
    <path clip-path="url(#p2c8baefb68)" d="M 348.843424 238.802902 
L 350.96625 238.802902 
" style="fill:none;stroke:#000000;stroke-linecap:square;stroke-width:0.5;"/>
   </g>
   <g id="line2d_169">
    <path clip-path="url(#p2c8baefb68)" d="M 356.273315 268.247902 
L 360.518967 268.247902 
L 360.518967 258.86433 
L 356.273315 258.86433 
L 356.273315 268.247902 
" style="fill:none;stroke:#00008b;stroke-linecap:square;stroke-width:0.5;"/>
   </g>
   <g id="line2d_170">
    <path clip-path="url(#p2c8baefb68)" d="M 358.396141 268.247902 
L 358.396141 276.337188 
" style="fill:none;stroke:#00008b;stroke-dasharray:1.85,0.8;stroke-dashoffset:0;stroke-width:0.5;"/>
   </g>
   <g id="line2d_171">
    <path clip-path="url(#p2c8baefb68)" d="M 358.396141 258.86433 
L 358.396141 253.040045 
" style="fill:none;stroke:#00008b;stroke-dasharray:1.85,0.8;stroke-dashoffset:0;stroke-width:0.5;"/>
   </g>
   <g id="line2d_172">
    <path clip-path="url(#p2c8baefb68)" d="M 357.334728 276.337188 
L 359.457554 276.337188 
" style="fill:none;stroke:#000000;stroke-linecap:square;stroke-width:0.5;"/>
   </g>
   <g id="line2d_173">
    <path clip-path="url(#p2c8baefb68)" d="M 357.334728 253.040045 
L 359.457554 253.040045 
" style="fill:none;stroke:#000000;stroke-linecap:square;stroke-width:0.5;"/>
   </g>
   <g id="line2d_174">
    <path clip-path="url(#p2c8baefb68)" d="M 364.76462 268.895045 
L 369.010272 268.895045 
L 369.010272 258.540759 
L 364.76462 258.540759 
L 364.76462 268.895045 
" style="fill:none;stroke:#00008b;stroke-linecap:square;stroke-width:0.5;"/>
   </g>
   <g id="line2d_175">
    <path clip-path="url(#p2c8baefb68)" d="M 366.887446 268.895045 
L 366.887446 273.748616 
" style="fill:none;stroke:#00008b;stroke-dasharray:1.85,0.8;stroke-dashoffset:0;stroke-width:0.5;"/>
   </g>
   <g id="line2d_176">
    <path clip-path="url(#p2c8baefb68)" d="M 366.887446 258.540759 
L 366.887446 251.745759 
" style="fill:none;stroke:#00008b;stroke-dasharray:1.85,0.8;stroke-dashoffset:0;stroke-width:0.5;"/>
   </g>
   <g id="line2d_177">
    <path clip-path="url(#p2c8baefb68)" d="M 365.826033 273.748616 
L 367.948859 273.748616 
" style="fill:none;stroke:#000000;stroke-linecap:square;stroke-width:0.5;"/>
   </g>
   <g id="line2d_178">
    <path clip-path="url(#p2c8baefb68)" d="M 365.826033 251.745759 
L 367.948859 251.745759 
" style="fill:none;stroke:#000000;stroke-linecap:square;stroke-width:0.5;"/>
   </g>
   <g id="line2d_179">
    <path clip-path="url(#p2c8baefb68)" d="M 373.255924 265.335759 
L 377.501576 265.335759 
L 377.501576 256.275759 
L 373.255924 256.275759 
L 373.255924 265.335759 
" style="fill:none;stroke:#00008b;stroke-linecap:square;stroke-width:0.5;"/>
   </g>
   <g id="line2d_180">
    <path clip-path="url(#p2c8baefb68)" d="M 375.37875 265.335759 
L 375.37875 269.865759 
" style="fill:none;stroke:#00008b;stroke-dasharray:1.85,0.8;stroke-dashoffset:0;stroke-width:0.5;"/>
   </g>
   <g id="line2d_181">
    <path clip-path="url(#p2c8baefb68)" d="M 375.37875 256.275759 
L 375.37875 246.568616 
" style="fill:none;stroke:#00008b;stroke-dasharray:1.85,0.8;stroke-dashoffset:0;stroke-width:0.5;"/>
   </g>
   <g id="line2d_182">
    <path clip-path="url(#p2c8baefb68)" d="M 374.317337 269.865759 
L 376.440163 269.865759 
" style="fill:none;stroke:#000000;stroke-linecap:square;stroke-width:0.5;"/>
   </g>
   <g id="line2d_183">
    <path clip-path="url(#p2c8baefb68)" d="M 374.317337 246.568616 
L 376.440163 246.568616 
" style="fill:none;stroke:#000000;stroke-linecap:square;stroke-width:0.5;"/>
   </g>
   <g id="line2d_184">
    <path clip-path="url(#p2c8baefb68)" d="M 381.747228 270.836473 
L 385.99288 270.836473 
L 385.99288 259.835045 
L 381.747228 259.835045 
L 381.747228 270.836473 
" style="fill:none;stroke:#00008b;stroke-linecap:square;stroke-width:0.5;"/>
   </g>
   <g id="line2d_185">
    <path clip-path="url(#p2c8baefb68)" d="M 383.870054 270.836473 
L 383.870054 278.925759 
" style="fill:none;stroke:#00008b;stroke-dasharray:1.85,0.8;stroke-dashoffset:0;stroke-width:0.5;"/>
   </g>
   <g id="line2d_186">
    <path clip-path="url(#p2c8baefb68)" d="M 383.870054 259.835045 
L 383.870054 246.568616 
" style="fill:none;stroke:#00008b;stroke-dasharray:1.85,0.8;stroke-dashoffset:0;stroke-width:0.5;"/>
   </g>
   <g id="line2d_187">
    <path clip-path="url(#p2c8baefb68)" d="M 382.808641 278.925759 
L 384.931467 278.925759 
" style="fill:none;stroke:#000000;stroke-linecap:square;stroke-width:0.5;"/>
   </g>
   <g id="line2d_188">
    <path clip-path="url(#p2c8baefb68)" d="M 382.808641 246.568616 
L 384.931467 246.568616 
" style="fill:none;stroke:#000000;stroke-linecap:square;stroke-width:0.5;"/>
   </g>
   <g id="line2d_189">
    <path clip-path="url(#p2c8baefb68)" d="M 390.238533 268.571473 
L 394.484185 268.571473 
L 394.484185 260.805759 
L 390.238533 260.805759 
L 390.238533 268.571473 
" style="fill:none;stroke:#00008b;stroke-linecap:square;stroke-width:0.5;"/>
   </g>
   <g id="line2d_190">
    <path clip-path="url(#p2c8baefb68)" d="M 392.361359 268.571473 
L 392.361359 276.337188 
" style="fill:none;stroke:#00008b;stroke-dasharray:1.85,0.8;stroke-dashoffset:0;stroke-width:0.5;"/>
   </g>
   <g id="line2d_191">
    <path clip-path="url(#p2c8baefb68)" d="M 392.361359 260.805759 
L 392.361359 251.745759 
" style="fill:none;stroke:#00008b;stroke-dasharray:1.85,0.8;stroke-dashoffset:0;stroke-width:0.5;"/>
   </g>
   <g id="line2d_192">
    <path clip-path="url(#p2c8baefb68)" d="M 391.299946 276.337188 
L 393.422772 276.337188 
" style="fill:none;stroke:#000000;stroke-linecap:square;stroke-width:0.5;"/>
   </g>
   <g id="line2d_193">
    <path clip-path="url(#p2c8baefb68)" d="M 391.299946 251.745759 
L 393.422772 251.745759 
" style="fill:none;stroke:#000000;stroke-linecap:square;stroke-width:0.5;"/>
   </g>
   <g id="line2d_194">
    <path clip-path="url(#p2c8baefb68)" d="M 398.729837 270.836473 
L 402.975489 270.836473 
L 402.975489 265.012188 
L 398.729837 265.012188 
L 398.729837 270.836473 
" style="fill:none;stroke:#00008b;stroke-linecap:square;stroke-width:0.5;"/>
   </g>
   <g id="line2d_195">
    <path clip-path="url(#p2c8baefb68)" d="M 400.852663 270.836473 
L 400.852663 276.337188 
" style="fill:none;stroke:#00008b;stroke-dasharray:1.85,0.8;stroke-dashoffset:0;stroke-width:0.5;"/>
   </g>
   <g id="line2d_196">
    <path clip-path="url(#p2c8baefb68)" d="M 400.852663 265.012188 
L 400.852663 260.805759 
" style="fill:none;stroke:#00008b;stroke-dasharray:1.85,0.8;stroke-dashoffset:0;stroke-width:0.5;"/>
   </g>
   <g id="line2d_197">
    <path clip-path="url(#p2c8baefb68)" d="M 399.79125 276.337188 
L 401.914076 276.337188 
" style="fill:none;stroke:#000000;stroke-linecap:square;stroke-width:0.5;"/>
   </g>
   <g id="line2d_198">
    <path clip-path="url(#p2c8baefb68)" d="M 399.79125 260.805759 
L 401.914076 260.805759 
" style="fill:none;stroke:#000000;stroke-linecap:square;stroke-width:0.5;"/>
   </g>
   <g id="line2d_199">
    <path clip-path="url(#p2c8baefb68)" d="M 407.221141 266.306473 
L 411.466793 266.306473 
L 411.466793 257.893616 
L 407.221141 257.893616 
L 407.221141 266.306473 
" style="fill:none;stroke:#00008b;stroke-linecap:square;stroke-width:0.5;"/>
   </g>
   <g id="line2d_200">
    <path clip-path="url(#p2c8baefb68)" d="M 409.343967 266.306473 
L 409.343967 273.748616 
" style="fill:none;stroke:#00008b;stroke-dasharray:1.85,0.8;stroke-dashoffset:0;stroke-width:0.5;"/>
   </g>
   <g id="line2d_201">
    <path clip-path="url(#p2c8baefb68)" d="M 409.343967 257.893616 
L 409.343967 254.33433 
" style="fill:none;stroke:#00008b;stroke-dasharray:1.85,0.8;stroke-dashoffset:0;stroke-width:0.5;"/>
   </g>
   <g id="line2d_202">
    <path clip-path="url(#p2c8baefb68)" d="M 408.282554 273.748616 
L 410.40538 273.748616 
" style="fill:none;stroke:#000000;stroke-linecap:square;stroke-width:0.5;"/>
   </g>
   <g id="line2d_203">
    <path clip-path="url(#p2c8baefb68)" d="M 408.282554 254.33433 
L 410.40538 254.33433 
" style="fill:none;stroke:#000000;stroke-linecap:square;stroke-width:0.5;"/>
   </g>
   <g id="line2d_204">
    <path clip-path="url(#p2c8baefb68)" d="M 415.712446 266.630045 
L 419.958098 266.630045 
L 419.958098 258.86433 
L 415.712446 258.86433 
L 415.712446 266.630045 
" style="fill:none;stroke:#00008b;stroke-linecap:square;stroke-width:0.5;"/>
   </g>
   <g id="line2d_205">
    <path clip-path="url(#p2c8baefb68)" d="M 417.835272 266.630045 
L 417.835272 269.865759 
" style="fill:none;stroke:#00008b;stroke-dasharray:1.85,0.8;stroke-dashoffset:0;stroke-width:0.5;"/>
   </g>
   <g id="line2d_206">
    <path clip-path="url(#p2c8baefb68)" d="M 417.835272 258.86433 
L 417.835272 250.451473 
" style="fill:none;stroke:#00008b;stroke-dasharray:1.85,0.8;stroke-dashoffset:0;stroke-width:0.5;"/>
   </g>
   <g id="line2d_207">
    <path clip-path="url(#p2c8baefb68)" d="M 416.773859 269.865759 
L 418.896685 269.865759 
" style="fill:none;stroke:#000000;stroke-linecap:square;stroke-width:0.5;"/>
   </g>
   <g id="line2d_208">
    <path clip-path="url(#p2c8baefb68)" d="M 416.773859 250.451473 
L 418.896685 250.451473 
" style="fill:none;stroke:#000000;stroke-linecap:square;stroke-width:0.5;"/>
   </g>
   <g id="line2d_209">
    <path clip-path="url(#p2c8baefb68)" d="M 424.20375 273.748616 
L 428.449402 273.748616 
L 428.449402 264.041473 
L 424.20375 264.041473 
L 424.20375 273.748616 
" style="fill:none;stroke:#00008b;stroke-linecap:square;stroke-width:0.5;"/>
   </g>
   <g id="line2d_210">
    <path clip-path="url(#p2c8baefb68)" d="M 426.326576 273.748616 
L 426.326576 277.631473 
" style="fill:none;stroke:#00008b;stroke-dasharray:1.85,0.8;stroke-dashoffset:0;stroke-width:0.5;"/>
   </g>
   <g id="line2d_211">
    <path clip-path="url(#p2c8baefb68)" d="M 426.326576 264.041473 
L 426.326576 255.628616 
" style="fill:none;stroke:#00008b;stroke-dasharray:1.85,0.8;stroke-dashoffset:0;stroke-width:0.5;"/>
   </g>
   <g id="line2d_212">
    <path clip-path="url(#p2c8baefb68)" d="M 425.265163 277.631473 
L 427.387989 277.631473 
" style="fill:none;stroke:#000000;stroke-linecap:square;stroke-width:0.5;"/>
   </g>
   <g id="line2d_213">
    <path clip-path="url(#p2c8baefb68)" d="M 425.265163 255.628616 
L 427.387989 255.628616 
" style="fill:none;stroke:#000000;stroke-linecap:square;stroke-width:0.5;"/>
   </g>
   <g id="line2d_214">
    <path clip-path="url(#p2c8baefb68)" d="M 432.695054 269.218616 
L 436.940707 269.218616 
L 436.940707 258.86433 
L 432.695054 258.86433 
L 432.695054 269.218616 
" style="fill:none;stroke:#00008b;stroke-linecap:square;stroke-width:0.5;"/>
   </g>
   <g id="line2d_215">
    <path clip-path="url(#p2c8baefb68)" d="M 434.81788 269.218616 
L 434.81788 273.748616 
" style="fill:none;stroke:#00008b;stroke-dasharray:1.85,0.8;stroke-dashoffset:0;stroke-width:0.5;"/>
   </g>
   <g id="line2d_216">
    <path clip-path="url(#p2c8baefb68)" d="M 434.81788 258.86433 
L 434.81788 249.157188 
" style="fill:none;stroke:#00008b;stroke-dasharray:1.85,0.8;stroke-dashoffset:0;stroke-width:0.5;"/>
   </g>
   <g id="line2d_217">
    <path clip-path="url(#p2c8baefb68)" d="M 433.756467 273.748616 
L 435.879293 273.748616 
" style="fill:none;stroke:#000000;stroke-linecap:square;stroke-width:0.5;"/>
   </g>
   <g id="line2d_218">
    <path clip-path="url(#p2c8baefb68)" d="M 433.756467 249.157188 
L 435.879293 249.157188 
" style="fill:none;stroke:#000000;stroke-linecap:square;stroke-width:0.5;"/>
   </g>
   <g id="line2d_219">
    <path clip-path="url(#p2c8baefb68)" d="M 441.186359 266.306473 
L 445.432011 266.306473 
L 445.432011 259.187902 
L 441.186359 259.187902 
L 441.186359 266.306473 
" style="fill:none;stroke:#00008b;stroke-linecap:square;stroke-width:0.5;"/>
   </g>
   <g id="line2d_220">
    <path clip-path="url(#p2c8baefb68)" d="M 443.309185 266.306473 
L 443.309185 275.042902 
" style="fill:none;stroke:#00008b;stroke-dasharray:1.85,0.8;stroke-dashoffset:0;stroke-width:0.5;"/>
   </g>
   <g id="line2d_221">
    <path clip-path="url(#p2c8baefb68)" d="M 443.309185 259.187902 
L 443.309185 251.745759 
" style="fill:none;stroke:#00008b;stroke-dasharray:1.85,0.8;stroke-dashoffset:0;stroke-width:0.5;"/>
   </g>
   <g id="line2d_222">
    <path clip-path="url(#p2c8baefb68)" d="M 442.247772 275.042902 
L 444.370598 275.042902 
" style="fill:none;stroke:#000000;stroke-linecap:square;stroke-width:0.5;"/>
   </g>
   <g id="line2d_223">
    <path clip-path="url(#p2c8baefb68)" d="M 442.247772 251.745759 
L 444.370598 251.745759 
" style="fill:none;stroke:#000000;stroke-linecap:square;stroke-width:0.5;"/>
   </g>
   <g id="line2d_224">
    <path clip-path="url(#p2c8baefb68)" d="M 449.677663 269.218616 
L 453.923315 269.218616 
L 453.923315 262.747188 
L 449.677663 262.747188 
L 449.677663 269.218616 
" style="fill:none;stroke:#00008b;stroke-linecap:square;stroke-width:0.5;"/>
   </g>
   <g id="line2d_225">
    <path clip-path="url(#p2c8baefb68)" d="M 451.800489 269.218616 
L 451.800489 276.337188 
" style="fill:none;stroke:#00008b;stroke-dasharray:1.85,0.8;stroke-dashoffset:0;stroke-width:0.5;"/>
   </g>
   <g id="line2d_226">
    <path clip-path="url(#p2c8baefb68)" d="M 451.800489 262.747188 
L 451.800489 258.217188 
" style="fill:none;stroke:#00008b;stroke-dasharray:1.85,0.8;stroke-dashoffset:0;stroke-width:0.5;"/>
   </g>
   <g id="line2d_227">
    <path clip-path="url(#p2c8baefb68)" d="M 450.739076 276.337188 
L 452.861902 276.337188 
" style="fill:none;stroke:#000000;stroke-linecap:square;stroke-width:0.5;"/>
   </g>
   <g id="line2d_228">
    <path clip-path="url(#p2c8baefb68)" d="M 450.739076 258.217188 
L 452.861902 258.217188 
" style="fill:none;stroke:#000000;stroke-linecap:square;stroke-width:0.5;"/>
   </g>
   <g id="line2d_229">
    <path clip-path="url(#p2c8baefb68)" d="M 458.168967 271.160045 
L 462.41462 271.160045 
L 462.41462 262.100045 
L 458.168967 262.100045 
L 458.168967 271.160045 
" style="fill:none;stroke:#00008b;stroke-linecap:square;stroke-width:0.5;"/>
   </g>
   <g id="line2d_230">
    <path clip-path="url(#p2c8baefb68)" d="M 460.291793 271.160045 
L 460.291793 280.220045 
" style="fill:none;stroke:#00008b;stroke-dasharray:1.85,0.8;stroke-dashoffset:0;stroke-width:0.5;"/>
   </g>
   <g id="line2d_231">
    <path clip-path="url(#p2c8baefb68)" d="M 460.291793 262.100045 
L 460.291793 251.745759 
" style="fill:none;stroke:#00008b;stroke-dasharray:1.85,0.8;stroke-dashoffset:0;stroke-width:0.5;"/>
   </g>
   <g id="line2d_232">
    <path clip-path="url(#p2c8baefb68)" d="M 459.23038 280.220045 
L 461.353207 280.220045 
" style="fill:none;stroke:#000000;stroke-linecap:square;stroke-width:0.5;"/>
   </g>
   <g id="line2d_233">
    <path clip-path="url(#p2c8baefb68)" d="M 459.23038 251.745759 
L 461.353207 251.745759 
" style="fill:none;stroke:#000000;stroke-linecap:square;stroke-width:0.5;"/>
   </g>
   <g id="line2d_234">
    <path clip-path="url(#p2c8baefb68)" d="M 466.660272 269.865759 
L 470.905924 269.865759 
L 470.905924 259.511473 
L 466.660272 259.511473 
L 466.660272 269.865759 
" style="fill:none;stroke:#00008b;stroke-linecap:square;stroke-width:0.5;"/>
   </g>
   <g id="line2d_235">
    <path clip-path="url(#p2c8baefb68)" d="M 468.783098 269.865759 
L 468.783098 275.042902 
" style="fill:none;stroke:#00008b;stroke-dasharray:1.85,0.8;stroke-dashoffset:0;stroke-width:0.5;"/>
   </g>
   <g id="line2d_236">
    <path clip-path="url(#p2c8baefb68)" d="M 468.783098 259.511473 
L 468.783098 255.628616 
" style="fill:none;stroke:#00008b;stroke-dasharray:1.85,0.8;stroke-dashoffset:0;stroke-width:0.5;"/>
   </g>
   <g id="line2d_237">
    <path clip-path="url(#p2c8baefb68)" d="M 467.721685 275.042902 
L 469.844511 275.042902 
" style="fill:none;stroke:#000000;stroke-linecap:square;stroke-width:0.5;"/>
   </g>
   <g id="line2d_238">
    <path clip-path="url(#p2c8baefb68)" d="M 467.721685 255.628616 
L 469.844511 255.628616 
" style="fill:none;stroke:#000000;stroke-linecap:square;stroke-width:0.5;"/>
   </g>
   <g id="line2d_239">
    <path clip-path="url(#p2c8baefb68)" d="M 84.551576 78.958616 
L 88.797228 78.958616 
" style="fill:none;stroke:#8b0000;stroke-linecap:square;stroke-width:0.5;"/>
   </g>
   <g id="line2d_240">
    <path clip-path="url(#p2c8baefb68)" d="M 93.04288 78.311473 
L 97.288533 78.311473 
" style="fill:none;stroke:#8b0000;stroke-linecap:square;stroke-width:0.5;"/>
   </g>
   <g id="line2d_241">
    <path clip-path="url(#p2c8baefb68)" d="M 101.534185 99.020045 
L 105.779837 99.020045 
" style="fill:none;stroke:#8b0000;stroke-linecap:square;stroke-width:0.5;"/>
   </g>
   <g id="line2d_242">
    <path clip-path="url(#p2c8baefb68)" d="M 110.025489 122.317188 
L 114.271141 122.317188 
" style="fill:none;stroke:#8b0000;stroke-linecap:square;stroke-width:0.5;"/>
   </g>
   <g id="line2d_243">
    <path clip-path="url(#p2c8baefb68)" d="M 118.516793 142.378616 
L 122.762446 142.378616 
" style="fill:none;stroke:#8b0000;stroke-linecap:square;stroke-width:0.5;"/>
   </g>
   <g id="line2d_244">
    <path clip-path="url(#p2c8baefb68)" d="M 127.008098 157.262902 
L 131.25375 157.262902 
" style="fill:none;stroke:#8b0000;stroke-linecap:square;stroke-width:0.5;"/>
   </g>
   <g id="line2d_245">
    <path clip-path="url(#p2c8baefb68)" d="M 135.499402 175.382902 
L 139.745054 175.382902 
" style="fill:none;stroke:#8b0000;stroke-linecap:square;stroke-width:0.5;"/>
   </g>
   <g id="line2d_246">
    <path clip-path="url(#p2c8baefb68)" d="M 143.990707 187.678616 
L 148.236359 187.678616 
" style="fill:none;stroke:#8b0000;stroke-linecap:square;stroke-width:0.5;"/>
   </g>
   <g id="line2d_247">
    <path clip-path="url(#p2c8baefb68)" d="M 152.482011 196.738616 
L 156.727663 196.738616 
" style="fill:none;stroke:#8b0000;stroke-linecap:square;stroke-width:0.5;"/>
   </g>
   <g id="line2d_248">
    <path clip-path="url(#p2c8baefb68)" d="M 160.973315 203.857188 
L 165.218967 203.857188 
" style="fill:none;stroke:#8b0000;stroke-linecap:square;stroke-width:0.5;"/>
   </g>
   <g id="line2d_249">
    <path clip-path="url(#p2c8baefb68)" d="M 169.46462 212.917188 
L 173.710272 212.917188 
" style="fill:none;stroke:#8b0000;stroke-linecap:square;stroke-width:0.5;"/>
   </g>
   <g id="line2d_250">
    <path clip-path="url(#p2c8baefb68)" d="M 177.955924 218.09433 
L 182.201576 218.09433 
" style="fill:none;stroke:#8b0000;stroke-linecap:square;stroke-width:0.5;"/>
   </g>
   <g id="line2d_251">
    <path clip-path="url(#p2c8baefb68)" d="M 186.447228 221.330045 
L 190.69288 221.330045 
" style="fill:none;stroke:#8b0000;stroke-linecap:square;stroke-width:0.5;"/>
   </g>
   <g id="line2d_252">
    <path clip-path="url(#p2c8baefb68)" d="M 194.938533 227.801473 
L 199.184185 227.801473 
" style="fill:none;stroke:#8b0000;stroke-linecap:square;stroke-width:0.5;"/>
   </g>
   <g id="line2d_253">
    <path clip-path="url(#p2c8baefb68)" d="M 203.429837 232.978616 
L 207.675489 232.978616 
" style="fill:none;stroke:#8b0000;stroke-linecap:square;stroke-width:0.5;"/>
   </g>
   <g id="line2d_254">
    <path clip-path="url(#p2c8baefb68)" d="M 211.921141 237.508616 
L 216.166793 237.508616 
" style="fill:none;stroke:#8b0000;stroke-linecap:square;stroke-width:0.5;"/>
   </g>
   <g id="line2d_255">
    <path clip-path="url(#p2c8baefb68)" d="M 220.412446 238.802902 
L 224.658098 238.802902 
" style="fill:none;stroke:#8b0000;stroke-linecap:square;stroke-width:0.5;"/>
   </g>
   <g id="line2d_256">
    <path clip-path="url(#p2c8baefb68)" d="M 228.90375 242.038616 
L 233.149402 242.038616 
" style="fill:none;stroke:#8b0000;stroke-linecap:square;stroke-width:0.5;"/>
   </g>
   <g id="line2d_257">
    <path clip-path="url(#p2c8baefb68)" d="M 237.395054 247.215759 
L 241.640707 247.215759 
" style="fill:none;stroke:#8b0000;stroke-linecap:square;stroke-width:0.5;"/>
   </g>
   <g id="line2d_258">
    <path clip-path="url(#p2c8baefb68)" d="M 245.886359 245.27433 
L 250.132011 245.27433 
" style="fill:none;stroke:#8b0000;stroke-linecap:square;stroke-width:0.5;"/>
   </g>
   <g id="line2d_259">
    <path clip-path="url(#p2c8baefb68)" d="M 254.377663 249.157188 
L 258.623315 249.157188 
" style="fill:none;stroke:#8b0000;stroke-linecap:square;stroke-width:0.5;"/>
   </g>
   <g id="line2d_260">
    <path clip-path="url(#p2c8baefb68)" d="M 262.868967 249.157188 
L 267.11462 249.157188 
" style="fill:none;stroke:#8b0000;stroke-linecap:square;stroke-width:0.5;"/>
   </g>
   <g id="line2d_261">
    <path clip-path="url(#p2c8baefb68)" d="M 271.360272 253.040045 
L 275.605924 253.040045 
" style="fill:none;stroke:#8b0000;stroke-linecap:square;stroke-width:0.5;"/>
   </g>
   <g id="line2d_262">
    <path clip-path="url(#p2c8baefb68)" d="M 279.851576 254.981473 
L 284.097228 254.981473 
" style="fill:none;stroke:#8b0000;stroke-linecap:square;stroke-width:0.5;"/>
   </g>
   <g id="line2d_263">
    <path clip-path="url(#p2c8baefb68)" d="M 288.34288 254.981473 
L 292.588533 254.981473 
" style="fill:none;stroke:#8b0000;stroke-linecap:square;stroke-width:0.5;"/>
   </g>
   <g id="line2d_264">
    <path clip-path="url(#p2c8baefb68)" d="M 296.834185 257.570045 
L 301.079837 257.570045 
" style="fill:none;stroke:#8b0000;stroke-linecap:square;stroke-width:0.5;"/>
   </g>
   <g id="line2d_265">
    <path clip-path="url(#p2c8baefb68)" d="M 305.325489 256.922902 
L 309.571141 256.922902 
" style="fill:none;stroke:#8b0000;stroke-linecap:square;stroke-width:0.5;"/>
   </g>
   <g id="line2d_266">
    <path clip-path="url(#p2c8baefb68)" d="M 313.816793 258.86433 
L 318.062446 258.86433 
" style="fill:none;stroke:#8b0000;stroke-linecap:square;stroke-width:0.5;"/>
   </g>
   <g id="line2d_267">
    <path clip-path="url(#p2c8baefb68)" d="M 322.308098 258.217188 
L 326.55375 258.217188 
" style="fill:none;stroke:#8b0000;stroke-linecap:square;stroke-width:0.5;"/>
   </g>
   <g id="line2d_268">
    <path clip-path="url(#p2c8baefb68)" d="M 330.799402 260.158616 
L 335.045054 260.158616 
" style="fill:none;stroke:#8b0000;stroke-linecap:square;stroke-width:0.5;"/>
   </g>
   <g id="line2d_269">
    <path clip-path="url(#p2c8baefb68)" d="M 339.290707 261.452902 
L 343.536359 261.452902 
" style="fill:none;stroke:#8b0000;stroke-linecap:square;stroke-width:0.5;"/>
   </g>
   <g id="line2d_270">
    <path clip-path="url(#p2c8baefb68)" d="M 347.782011 264.688616 
L 352.027663 264.688616 
" style="fill:none;stroke:#8b0000;stroke-linecap:square;stroke-width:0.5;"/>
   </g>
   <g id="line2d_271">
    <path clip-path="url(#p2c8baefb68)" d="M 356.273315 264.041473 
L 360.518967 264.041473 
" style="fill:none;stroke:#8b0000;stroke-linecap:square;stroke-width:0.5;"/>
   </g>
   <g id="line2d_272">
    <path clip-path="url(#p2c8baefb68)" d="M 364.76462 265.335759 
L 369.010272 265.335759 
" style="fill:none;stroke:#8b0000;stroke-linecap:square;stroke-width:0.5;"/>
   </g>
   <g id="line2d_273">
    <path clip-path="url(#p2c8baefb68)" d="M 373.255924 260.805759 
L 377.501576 260.805759 
" style="fill:none;stroke:#8b0000;stroke-linecap:square;stroke-width:0.5;"/>
   </g>
   <g id="line2d_274">
    <path clip-path="url(#p2c8baefb68)" d="M 381.747228 265.335759 
L 385.99288 265.335759 
" style="fill:none;stroke:#8b0000;stroke-linecap:square;stroke-width:0.5;"/>
   </g>
   <g id="line2d_275">
    <path clip-path="url(#p2c8baefb68)" d="M 390.238533 264.688616 
L 394.484185 264.688616 
" style="fill:none;stroke:#8b0000;stroke-linecap:square;stroke-width:0.5;"/>
   </g>
   <g id="line2d_276">
    <path clip-path="url(#p2c8baefb68)" d="M 398.729837 267.92433 
L 402.975489 267.92433 
" style="fill:none;stroke:#8b0000;stroke-linecap:square;stroke-width:0.5;"/>
   </g>
   <g id="line2d_277">
    <path clip-path="url(#p2c8baefb68)" d="M 407.221141 262.747188 
L 411.466793 262.747188 
" style="fill:none;stroke:#8b0000;stroke-linecap:square;stroke-width:0.5;"/>
   </g>
   <g id="line2d_278">
    <path clip-path="url(#p2c8baefb68)" d="M 415.712446 263.39433 
L 419.958098 263.39433 
" style="fill:none;stroke:#8b0000;stroke-linecap:square;stroke-width:0.5;"/>
   </g>
   <g id="line2d_279">
    <path clip-path="url(#p2c8baefb68)" d="M 424.20375 268.571473 
L 428.449402 268.571473 
" style="fill:none;stroke:#8b0000;stroke-linecap:square;stroke-width:0.5;"/>
   </g>
   <g id="line2d_280">
    <path clip-path="url(#p2c8baefb68)" d="M 432.695054 263.39433 
L 436.940707 263.39433 
" style="fill:none;stroke:#8b0000;stroke-linecap:square;stroke-width:0.5;"/>
   </g>
   <g id="line2d_281">
    <path clip-path="url(#p2c8baefb68)" d="M 441.186359 262.747188 
L 445.432011 262.747188 
" style="fill:none;stroke:#8b0000;stroke-linecap:square;stroke-width:0.5;"/>
   </g>
   <g id="line2d_282">
    <path clip-path="url(#p2c8baefb68)" d="M 449.677663 265.982902 
L 453.923315 265.982902 
" style="fill:none;stroke:#8b0000;stroke-linecap:square;stroke-width:0.5;"/>
   </g>
   <g id="line2d_283">
    <path clip-path="url(#p2c8baefb68)" d="M 458.168967 267.277188 
L 462.41462 267.277188 
" style="fill:none;stroke:#8b0000;stroke-linecap:square;stroke-width:0.5;"/>
   </g>
   <g id="line2d_284">
    <path clip-path="url(#p2c8baefb68)" d="M 466.660272 264.688616 
L 470.905924 264.688616 
" style="fill:none;stroke:#8b0000;stroke-linecap:square;stroke-width:0.5;"/>
   </g>
   <g id="patch_3">
    <path d="M 82.42875 321.637188 
L 82.42875 49.837188 
" style="fill:none;stroke:#000000;stroke-linecap:square;stroke-linejoin:miter;stroke-width:0.8;"/>
   </g>
   <g id="patch_4">
    <path d="M 82.42875 321.637188 
L 473.02875 321.637188 
" style="fill:none;stroke:#000000;stroke-linecap:square;stroke-linejoin:miter;stroke-width:0.8;"/>
   </g>
  </g>
 </g>
 <defs>
  <clipPath id="p2c8baefb68">
   <rect height="271.8" width="390.6" x="82.42875" y="49.837188"/>
  </clipPath>
 </defs>
</svg>
